<?xml version="1.0" standalone="no"?>
<!DOCTYPE svg PUBLIC "-//W3C//DTD SVG 1.1//EN" "http://www.w3.org/Graphics/SVG/1.1/DTD/svg11.dtd" >
<svg xmlns="http://www.w3.org/2000/svg" xmlns:xlink="http://www.w3.org/1999/xlink" version="1.1">
<metadata>
Created by Christoph Koeberlin (http://christoph.koe.berlin)
Copyright (c) 2015 Swiss Typefaces Sa`rl. All rights reserved.
</metadata>
<defs>
<font id="Font" horiz-adv-x="548" >
  <font-face 
    font-family="Font"
    font-weight="700"
    font-style="italic"
    font-stretch="condensed"
    units-per-em="1000"
    panose-1="2 11 8 6 0 0 0 0 0 0"
    ascent="800"
    descent="-200"
    x-height="538"
    cap-height="725"
    bbox="-121 -243 1063 936"
    underline-thickness="100"
    underline-position="-110"
    slope="-12"
    unicode-range="U+0020-FB02"
  />
<missing-glyph horiz-adv-x="500" 
d="M0 725h500v-725h-500v725zM19 696v-667l220 333zM481 29v667l-221 -334zM33 19h433l-216 327zM250 378l216 328h-433z" />
    <glyph glyph-name=".notdef" horiz-adv-x="500" 
d="M0 725h500v-725h-500v725zM19 696v-667l220 333zM481 29v667l-221 -334zM33 19h433l-216 327zM250 378l216 328h-433z" />
    <glyph glyph-name="glyph1" horiz-adv-x="0" 
 />
    <glyph glyph-name="glyph2" horiz-adv-x="180" 
 />
    <glyph glyph-name="space" unicode=" " horiz-adv-x="180" 
 />
    <glyph glyph-name="exclam" unicode="!" horiz-adv-x="238" 
d="M97 531l41 194h156l-41 -194l-90 -313h-109zM14 155h162l-33 -155h-162z" />
    <glyph glyph-name="quotedbl" unicode="&#x22;" horiz-adv-x="434" 
d="M128 471l-33 254h158l-33 -254h-92zM328 471l-33 254h158l-33 -254h-92z" />
    <glyph glyph-name="numbersign" unicode="#" horiz-adv-x="569" 
d="M335 187h-112l-26 -187h-113l26 187h-83l13 107h84l21 150h-81l12 108h84l24 173h113l-24 -173h112l24 173h113l-24 -173h86l-13 -108h-88l-21 -150h85l-12 -107h-87l-26 -187h-113zM237 294h112l21 150h-112z" />
    <glyph glyph-name="dollar" unicode="$" horiz-adv-x="525" 
d="M184 -12q-90 6 -134 48t-44 114q0 35 9 76l1 5h158l-1 -5q-9 -41 -9 -67q0 -35 16 -50.5t52 -15.5q47 0 74 30.5t27 84.5q0 30 -17.5 52.5t-46.5 36.5l-57 27q-64 32 -97.5 70t-33.5 98q0 58 19 103.5t53 76.5t82 47.5t105 18.5l15 69h55l-15 -71q71 -7 112.5 -41
t41.5 -105q0 -15 -2 -31.5t-6 -35.5l-1 -5h-155l1 5q6 28 6 48q0 35 -17 49t-49 14q-41 0 -64 -31t-22 -77q0 -20 9.5 -37t30.5 -27l64 -31q32 -15 60 -31.5t49 -37.5t33 -47t12 -61q0 -120 -65.5 -189.5t-193.5 -76.5l-18 -83h-55z" />
    <glyph glyph-name="percent" unicode="%" horiz-adv-x="777" 
d="M557 725h65l-362 -725h-65zM147 404q0 -35 28 -35q15 0 24.5 9t16 25.5t12 41t12.5 56.5l8 38q7 32 11.5 56.5t4.5 41.5q0 34 -26 34q-30 0 -42 -34.5t-25 -97.5l-8 -38q-6 -32 -11 -56t-5 -41zM332 491q-10 -47 -22.5 -81t-32 -56.5t-46.5 -33.5t-65 -11q-59 0 -83.5 24
t-24.5 75q0 37 10 83l12 58q10 46 22.5 80.5t31 57t46 33.5t67.5 11q57 0 82 -24.5t25 -75.5q0 -17 -2.5 -38t-7.5 -44zM553 87q0 -35 28 -35q15 0 24.5 9t16 25.5t12 41t12.5 56.5l8 38q7 32 11.5 56.5t4.5 41.5q0 34 -26 34q-30 0 -42 -34.5t-25 -97.5l-8 -38
q-6 -32 -11 -56t-5 -41zM738 174q-10 -47 -22.5 -81t-32 -56.5t-46.5 -33.5t-65 -11q-59 0 -83.5 24t-24.5 75q0 37 10 83l12 58q10 46 22.5 80.5t31 57t46 33.5t67.5 11q57 0 82 -24.5t25 -75.5q0 -17 -2.5 -38t-7.5 -44z" />
    <glyph glyph-name="ampersand" unicode="&#x26;" horiz-adv-x="649" 
d="M617 400q-18 -78 -50 -138.5t-70 -105.5l89 -156h-160l-31 54q-37 -32 -80.5 -49.5t-107.5 -17.5q-43 0 -82 9t-68.5 28.5t-47 50t-17.5 73.5q0 75 51 134.5t132 107.5l23 13l-6 11q-18 32 -27.5 58t-9.5 53q0 42 14 80.5t41 68t65.5 47t87.5 17.5q28 0 58.5 -6.5
t55.5 -21.5t41 -39t16 -58q0 -53 -37 -109.5t-119 -105.5l-14 -8l74 -130q18 29 33.5 64t23.5 76h122zM220 93q38 0 69 13.5t55 37.5l-98 174l-14 -8q-53 -32 -71.5 -66.5t-18.5 -72.5q0 -33 19 -55.5t59 -22.5zM286 556q0 -18 6.5 -34t17.5 -37l7 -12l17 10q38 23 57.5 46
t20.5 64q1 23 -13.5 34t-37.5 11q-30 0 -53 -20t-22 -62z" />
    <glyph glyph-name="quotesingle" unicode="'" horiz-adv-x="234" 
d="M128 471l-33 254h158l-33 -254h-92z" />
    <glyph glyph-name="parenleft" unicode="(" horiz-adv-x="284" 
d="M76 -175q-21 48 -39 122.5t-18 168.5q0 98 22 188.5t57 169t79.5 142.5t88.5 109h124q-48 -56 -90.5 -127t-74.5 -152.5t-50.5 -171.5t-18.5 -185q0 -78 12 -144.5t32 -119.5h-124z" />
    <glyph glyph-name="parenright" unicode=")" horiz-adv-x="283" 
d="M-103 -174q45 57 87 126.5t75 150t52.5 171t19.5 188.5q0 78 -12 144.5t-32 118.5h124q22 -46 39.5 -120t17.5 -168q0 -105 -24.5 -197t-61.5 -170t-80.5 -139.5t-80.5 -104.5h-124z" />
    <glyph glyph-name="asterisk" unicode="*" horiz-adv-x="399" 
d="M126 451l62 85l-101 36l33 86l97 -37v104h92v-104l99 37l34 -86l-103 -35l62 -85l-72 -54l-65 87l-59 -87z" />
    <glyph glyph-name="plus" unicode="+" 
d="M216 211h-199v116h199v211h120v-211h197v-116h-197v-211h-120v211z" />
    <glyph glyph-name="comma" unicode="," horiz-adv-x="238" 
d="M52 0h-71l33 155h162l-35 -165l-115 -154h-92z" />
    <glyph glyph-name="hyphen" unicode="-" horiz-adv-x="348" 
d="M51 317h266l-27 -131h-266z" />
    <glyph glyph-name="period" unicode="." horiz-adv-x="238" 
d="M14 155h162l-33 -155h-162z" />
    <glyph glyph-name="slash" unicode="/" horiz-adv-x="393" 
d="M318 725h147l-391 -725h-146z" />
    <glyph glyph-name="zero" unicode="0" horiz-adv-x="549" 
d="M180 153q0 -32 12 -49.5t43 -17.5q30 0 49.5 16.5t33.5 47.5t25 76t23 102l14 66q11 55 19.5 98.5t8.5 75.5q0 35 -12.5 53t-43.5 18q-30 0 -49.5 -16.5t-33.5 -47.5t-24.5 -76t-22.5 -102l-14 -68q-11 -56 -19.5 -100t-8.5 -76zM518 309q-18 -83 -39.5 -143.5t-54 -100
t-79.5 -59t-116 -19.5q-105 0 -152 45.5t-47 139.5q0 60 16 136l23 106q17 82 38.5 143t54.5 101.5t80 60t116 19.5q105 0 152 -45.5t47 -140.5q0 -29 -4 -63.5t-13 -74.5z" />
    <glyph glyph-name="one" unicode="1" horiz-adv-x="331" 
d="M182 542h-113l20 94q40 1 65.5 3.5t42.5 11t29.5 25.5t27.5 49h121l-154 -725h-154z" />
    <glyph glyph-name="two" unicode="2" horiz-adv-x="513" 
d="M6 109l102 101l47 47q29 29 59.5 62.5t61 70t55 72t39.5 68.5t15 59q0 23 -11.5 36.5t-38.5 13.5q-36 0 -57.5 -30t-35.5 -99l-2 -11h-143l2 10q12 57 31 100t49 71.5t72 43t100 14.5q43 0 78.5 -10t61 -28.5t39.5 -45t14 -58.5q0 -47 -22.5 -94t-60 -96t-87 -99.5
t-102.5 -103.5l-87 -87h263l-25 -116h-440z" />
    <glyph glyph-name="three" unicode="3" horiz-adv-x="520" 
d="M480 265q0 -49 -12 -98.5t-43 -89.5t-83.5 -65t-133.5 -25q-39 0 -75 8t-63.5 26t-43.5 46.5t-16 69.5q0 25 8 60l1 5h142l-1 -5q-8 -34 -8 -54q0 -28 13.5 -42.5t43.5 -14.5q35 0 57.5 17t35.5 42.5t18 55.5t5 57q0 29 -17.5 47t-65.5 18h-45l22 103h40q34 0 55.5 15
t34.5 38.5t18 52t5 55.5q0 24 -11.5 38t-41.5 14q-18 0 -30.5 -5t-22 -17t-17 -32.5t-14.5 -50.5l-1 -5h-144l1 5q15 58 36 97t50 63t66 34t83 10q40 0 76.5 -7.5t65 -24t45.5 -43.5t17 -67q0 -76 -37 -131.5t-108 -78.5q43 -14 69 -45t26 -76z" />
    <glyph glyph-name="four" unicode="4" horiz-adv-x="529" 
d="M250 174h-250l23 108l346 443h151l-92 -434h87l-25 -117h-86l-37 -174h-154zM274 291l53 248l-195 -248h142z" />
    <glyph glyph-name="five" unicode="5" horiz-adv-x="507" 
d="M465 215q-23 -115 -86 -171.5t-177 -56.5q-40 0 -74.5 8t-60 26t-40 47t-14.5 71q0 25 6 57l2 11h142l-2 -10q-3 -15 -5 -28t-2 -24q0 -29 13.5 -44t44.5 -15q40 0 60.5 33.5t34.5 93.5l11 50q4 18 5.5 34t1.5 30q0 31 -12 48t-40 17t-47 -18t-33 -51l-137 6l116 396h382
l-25 -116h-263l-55 -189q17 28 49 52t81 24q145 0 145 -143q0 -19 -2.5 -40.5t-7.5 -44.5z" />
    <glyph glyph-name="six" unicode="6" horiz-adv-x="528" 
d="M485 215q-11 -57 -31 -100t-50.5 -71.5t-72.5 -42.5t-99 -14q-104 0 -151 45t-47 139q0 60 18 140l22 103q18 82 39.5 143t54.5 101.5t80.5 60t116.5 19.5q90 0 134.5 -37.5t44.5 -98.5q0 -9 -2 -27.5t-4 -28.5l-2 -8h-144l1 5q2 14 3.5 25.5t1.5 20.5q0 28 -11.5 39
t-34.5 11q-26 0 -43.5 -13t-30.5 -38t-22.5 -63t-20.5 -87l-8 -36q18 29 53 53t84 24q139 0 139 -138q0 -37 -11 -90zM176 149q0 -30 12 -46.5t40 -16.5q40 0 64 32.5t36 92.5l7 35q7 34 7 62q0 32 -12 49t-41 17q-39 0 -62 -34t-35 -94l-7 -34q-4 -18 -6.5 -33.5
t-2.5 -29.5z" />
    <glyph glyph-name="seven" unicode="7" horiz-adv-x="451" 
d="M20 0q21 94 56.5 178.5t83.5 160t106.5 143t124.5 127.5h-305l25 116h429l-25 -116q-72 -69 -126 -137.5t-94.5 -142t-68.5 -154.5t-47 -175h-159z" />
    <glyph glyph-name="eight" unicode="8" horiz-adv-x="538" 
d="M498 262q0 -130 -61 -202.5t-191 -72.5q-49 0 -92 8.5t-74.5 27t-49.5 47.5t-18 70q0 101 44 162t115 84q-11 5 -23 14.5t-22 24t-16.5 34.5t-6.5 46q0 54 18 97t50.5 73.5t76.5 46.5t95 16q40 0 78 -8t68 -26t48 -46.5t18 -69.5q0 -54 -14.5 -90t-36 -58.5t-45.5 -34.5
t-43 -19q39 -14 60.5 -44.5t21.5 -79.5zM167 146q0 -27 13 -43.5t50 -16.5q27 0 45 9t29.5 24.5t18.5 37t13 45.5l2 10l5 27q3 17 3 30q0 27 -13.5 43.5t-50.5 16.5q-27 0 -45 -8.5t-30 -24t-19 -37t-12 -46.5l-2 -10q-3 -16 -5 -30t-2 -27zM253 470q0 -21 10 -32.5
t39 -11.5q22 0 36.5 7t24 20.5t14.5 32t10 41.5l2 10q3 17 5.5 31t2.5 26q0 22 -10 33.5t-39 11.5q-23 0 -37 -7.5t-23.5 -21t-15 -32t-9.5 -41.5l-2 -10q-3 -16 -5.5 -31t-2.5 -26z" />
    <glyph glyph-name="nine" unicode="9" horiz-adv-x="528" 
d="M494 311q-18 -83 -38.5 -143.5t-51.5 -101t-77 -60t-115 -19.5q-91 0 -140 38.5t-49 101.5q0 23 8 53l2 7h143l-1 -5q-2 -14 -3.5 -25t-1.5 -21q0 -28 11.5 -39t34.5 -11q26 0 44 13t30.5 38t22.5 62.5t21 87.5l7 36q-9 -14 -21 -28t-27.5 -25t-35 -17.5t-43.5 -6.5
q-147 0 -147 146q0 36 9 83l7 35q22 114 83 171t175 57q102 0 148.5 -43.5t46.5 -132.5q0 -32 -5.5 -68.5t-14.5 -79.5zM226 417q0 -32 12 -49t41 -17q39 0 61.5 34t36.5 94l7 34q8 38 8 63q0 31 -12 47t-40 16q-40 0 -63.5 -32.5t-35.5 -92.5l-7 -35q-4 -18 -6 -33t-2 -29z
" />
    <glyph glyph-name="colon" unicode=":" horiz-adv-x="238" 
d="M96 538h162l-33 -155h-162zM14 155h162l-33 -155h-162z" />
    <glyph glyph-name="semicolon" unicode=";" horiz-adv-x="238" 
d="M52 0h-71l33 155h162l-35 -165l-115 -154h-92zM96 537h162l-33 -155h-162z" />
    <glyph glyph-name="less" unicode="&#x3c;" 
d="M45 203v129l413 211v-132l-281 -144l281 -143v-132z" />
    <glyph glyph-name="equal" unicode="=" 
d="M58 211h430v-116h-430v116zM58 429h430v-117h-430v117z" />
    <glyph glyph-name="greater" unicode="&#x3e;" 
d="M89 -8v132l281 143l-281 144v132l413 -211v-129z" />
    <glyph glyph-name="question" unicode="?" horiz-adv-x="495" 
d="M142 254q8 37 22 62.5t33.5 45.5t43.5 37t51 37q46 35 65 70t19 84q0 28 -13.5 38.5t-39.5 10.5q-17 0 -31 -5.5t-26 -19.5t-21.5 -37.5t-17.5 -60.5l-1 -5h-144l1 5q23 117 78.5 169.5t156.5 52.5q40 0 79 -7t69 -23.5t48.5 -43t18.5 -65.5q0 -44 -13 -78t-32 -60
t-41 -45.5t-40 -33.5q-25 -19 -44.5 -31.5t-34.5 -25.5t-25 -30t-16 -44l-6 -31h-146zM113 155h162l-33 -155h-162z" />
    <glyph glyph-name="at" unicode="@" horiz-adv-x="826" 
d="M637 34q-37 -22 -88 -34t-114 -12q-77 0 -141 27t-110 76t-72 117t-26 151q0 81 29 150.5t79 120.5t116.5 80t141.5 29q69 0 130.5 -22.5t107.5 -64.5t73 -101.5t27 -133.5q0 -55 -13.5 -103t-37.5 -83.5t-56.5 -56t-71.5 -20.5q-46 0 -73 24t-31 60q-17 -38 -49.5 -62
t-73.5 -24q-24 0 -48 11t-43.5 33.5t-32 57.5t-12.5 84q0 46 13.5 90t36.5 78t55 54.5t70 20.5q21 0 37.5 -7.5t29 -19.5t21 -27t12.5 -31q2 14 2 34t2 33h72l-23 -226q-3 -24 -3 -44q0 -69 37 -69q19 0 38 12.5t34 36.5t24.5 58t9.5 77q0 46 -18 92.5t-52 84t-83.5 61
t-112.5 23.5q-61 0 -114 -24.5t-92 -67t-61 -99t-22 -120.5t22 -119t59.5 -95t86 -63t102.5 -23q64 0 106 11t69 28zM342 338q0 -51 16.5 -77t42.5 -26q21 0 38 13.5t29 36t19 52t7 61.5q0 48 -17.5 73.5t-48.5 25.5q-20 0 -35.5 -13t-27 -34.5t-17.5 -50.5t-6 -61z" />
    <glyph glyph-name="A" unicode="A" 
d="M274 725h192l20 -725h-155l2 152h-163l-61 -152h-161zM210 253h124l4 318z" />
    <glyph glyph-name="B" unicode="B" horiz-adv-x="555" 
d="M151 725h175q61 0 106 -6t73.5 -22.5t42.5 -46t14 -76.5q0 -63 -33 -113t-106 -76q46 -15 72.5 -48t26.5 -88q0 -73 -24 -121t-65.5 -76.5t-96 -40t-115.5 -11.5h-224zM237 107q34 0 57.5 10.5t38.5 28.5t22 42.5t7 53.5q0 42 -18.5 63t-72.5 21h-46l-46 -219h58z
M293 423q30 0 52.5 9.5t37.5 26t22.5 38.5t7.5 47q0 38 -17 56.5t-68 18.5h-41l-42 -196h48z" />
    <glyph glyph-name="C" unicode="C" horiz-adv-x="541" 
d="M512 233q-15 -65 -35 -111.5t-50.5 -76.5t-73.5 -44t-104 -14q-116 0 -167.5 49t-51.5 154q0 69 21 164l16 76q17 82 40.5 140.5t58 96t83.5 54.5t117 17q98 0 154 -40.5t56 -129.5q0 -17 -3.5 -40t-5.5 -36l-2 -10h-158l2 10q1 5 3 14.5t3.5 20t2.5 21t1 17.5
q0 36 -15.5 49.5t-44.5 13.5q-31 0 -51 -16.5t-34.5 -47.5t-25 -76t-22.5 -102l-10 -47q-11 -51 -18 -92.5t-7 -72.5q0 -37 14.5 -57t49.5 -20q20 0 34.5 6t26 21.5t20.5 41.5t18 67l2 10h158z" />
    <glyph glyph-name="D" unicode="D" horiz-adv-x="566" 
d="M229 107q37 0 61 15t40 44t27 72.5t23 100.5l10 47q10 49 16.5 87.5t6.5 67.5q0 38 -16 58t-59 20h-50l-109 -512h50zM151 725h192q124 0 178.5 -45t54.5 -147q0 -68 -21 -162l-16 -76q-17 -83 -39.5 -139t-58 -91t-89 -50t-132.5 -15h-223z" />
    <glyph glyph-name="E" unicode="E" horiz-adv-x="475" 
d="M151 725h399l-25 -116h-239l-38 -180h217l-24 -116h-218l-42 -197h240l-25 -116h-399z" />
    <glyph glyph-name="F" unicode="F" horiz-adv-x="443" 
d="M150 725h373l-25 -116h-214l-37 -178h192l-25 -116h-192l-67 -315h-159z" />
    <glyph glyph-name="G" unicode="G" horiz-adv-x="579" 
d="M375 80q-13 -21 -27.5 -38.5t-33.5 -29.5t-44.5 -18.5t-59.5 -6.5q-93 0 -137 47.5t-44 149.5q0 35 5.5 77.5t16.5 92.5l16 76q17 82 40.5 140.5t58 96t83.5 54.5t117 17q98 0 154 -40.5t56 -129.5q0 -34 -9 -76l-2 -10h-158l2 10q10 47 10 73q0 36 -15.5 49.5
t-44.5 13.5q-31 0 -51 -16.5t-34.5 -47.5t-25 -76t-22.5 -102l-10 -47q-11 -51 -18 -92.5t-7 -72.5q0 -37 14.5 -57t49.5 -20q54 0 86.5 39.5t49.5 119.5l5 24h-123l22 105h260l-82 -385h-111z" />
    <glyph glyph-name="H" unicode="H" horiz-adv-x="590" 
d="M151 725h159l-63 -296h164l63 296h159l-154 -725h-159l67 313h-164l-67 -313h-159z" />
    <glyph glyph-name="I" unicode="I" horiz-adv-x="267" 
d="M151 725h159l-154 -725h-159z" />
    <glyph glyph-name="J" unicode="J" horiz-adv-x="467" 
d="M411 204q-15 -70 -37.5 -112.5t-53 -66t-69 -31t-85.5 -7.5q-91 0 -140 42t-49 118q0 14 1.5 28.5t5.5 30.5l4 20h158l-4 -20q-6 -33 -6 -54q0 -31 11 -43t29 -12q15 0 26 4t20 16t16.5 33t14.5 56l110 519h159z" />
    <glyph glyph-name="K" unicode="K" horiz-adv-x="566" 
d="M285 291l-90 -107l-39 -184h-159l154 725h159l-60 -282l237 282h162l-252 -301l116 -424h-148z" />
    <glyph glyph-name="L" unicode="L" horiz-adv-x="464" 
d="M151 725h159l-129 -609h240l-25 -116h-399z" />
    <glyph glyph-name="M" unicode="M" horiz-adv-x="742" 
d="M151 725h220l-19 -543l211 543h222l-154 -725h-142l121 570h-2l-20 -57l-212 -513h-125l5 513l6 57h-3l-121 -570h-141z" />
    <glyph glyph-name="N" unicode="N" horiz-adv-x="590" 
d="M151 725h184l46 -521l111 521h141l-154 -725h-184l-46 521l-111 -521h-141z" />
    <glyph glyph-name="O" unicode="O" horiz-adv-x="575" 
d="M191 174q0 -37 14.5 -57t49.5 -20q31 0 51 16.5t34.5 47.5t25 76t22.5 102l10 47q11 51 18 92.5t7 72.5q0 38 -14 57.5t-50 19.5q-31 0 -51 -16.5t-34.5 -47.5t-25 -76t-22.5 -102l-10 -47q-11 -51 -18 -92.5t-7 -72.5zM548 295q-18 -83 -41 -141t-57 -95.5t-82.5 -54.5
t-116.5 -17q-117 0 -169 49.5t-52 155.5q0 69 21 162l16 76q17 82 40 140.5t57.5 96t83 54.5t116.5 17q116 0 168 -49.5t52 -155.5q0 -35 -5 -74.5t-15 -87.5z" />
    <glyph glyph-name="P" unicode="P" horiz-adv-x="518" 
d="M151 725h176q63 0 109 -6.5t76 -24.5t44.5 -49t14.5 -79q0 -65 -18.5 -116.5t-54.5 -87.5t-89 -55.5t-122 -19.5h-70l-61 -287h-159zM284 394q35 0 59.5 11.5t39.5 32t22 49t7 61.5q0 23 -6.5 37t-19 21.5t-32.5 10t-47 2.5h-19l-48 -225h44z" />
    <glyph glyph-name="Q" unicode="Q" horiz-adv-x="575" 
d="M548 295q-22 -103 -52 -167.5t-81 -99.5l50 -91l-107 -56l-57 109q-24 -3 -50 -3q-117 0 -169 49.5t-52 155.5q0 69 21 162l16 76q17 82 40 140.5t57.5 96t83 54.5t116.5 17q116 0 168 -49.5t52 -155.5q0 -35 -5 -74.5t-15 -87.5zM191 174q0 -37 14.5 -57t49.5 -20
q31 0 51 16.5t34.5 47.5t25 76t22.5 102l10 47q11 51 18 92.5t7 72.5q0 38 -14 57.5t-50 19.5q-31 0 -51 -16.5t-34.5 -47.5t-25 -76t-22.5 -102l-10 -47q-11 -51 -18 -92.5t-7 -72.5z" />
    <glyph glyph-name="R" unicode="R" horiz-adv-x="567" 
d="M300 312h-77l-66 -312h-160l154 725h177q63 0 109 -6.5t76 -24.5t44.5 -49t14.5 -79q0 -85 -34 -138.5t-94 -80.5l45 -347h-158zM288 409q35 0 59 11t38.5 30t21 44t6.5 54q0 23 -6.5 37t-19 21.5t-32.5 10t-47 2.5h-20l-45 -210h45z" />
    <glyph glyph-name="S" unicode="S" horiz-adv-x="522" 
d="M482 236q0 -66 -18 -113.5t-51.5 -77.5t-82 -44t-109.5 -14q-50 0 -92 11t-72 32t-47 51.5t-17 70.5q0 17 3.5 36t7.5 39l2 10h157l-2 -10q-8 -38 -8 -62q0 -37 16.5 -54t53.5 -17q42 0 70 26.5t28 77.5q0 28 -13.5 53t-46.5 49l-52 40q-51 38 -81.5 80.5t-30.5 89.5
q0 62 17.5 105.5t50 70.5t79 39.5t103.5 12.5q46 0 85 -7.5t67.5 -25.5t44.5 -47t16 -72q0 -31 -7 -66l-1 -5h-155l1 5q3 16 4 26t1 21q0 35 -16 50.5t-48 15.5q-37 -1 -63.5 -23t-26.5 -67q0 -43 34 -71l59 -45q67 -51 103.5 -95t36.5 -96z" />
    <glyph glyph-name="T" unicode="T" horiz-adv-x="477" 
d="M231 609h-148l25 116h455l-25 -116h-148l-129 -609h-159z" />
    <glyph glyph-name="U" unicode="U" horiz-adv-x="561" 
d="M522 293q-19 -90 -40 -149t-54 -94t-82.5 -49t-124.5 -14q-54 0 -91 7t-60 23.5t-33.5 43t-10.5 66.5q0 32 6 73t17 93l92 432h159l-93 -439q-9 -43 -15 -75.5t-6 -55.5q0 -29 12.5 -43.5t44.5 -14.5q29 0 47.5 11.5t31 35t21.5 59t19 83.5l93 439h159z" />
    <glyph glyph-name="V" unicode="V" horiz-adv-x="509" 
d="M102 725h155l-20 -564l202 564h161l-302 -725h-196v725z" />
    <glyph glyph-name="W" unicode="W" horiz-adv-x="730" 
d="M108 725h144l-59 -550l202 550h133l-30 -550l173 550h145l-246 -725h-179l33 548l-199 -548h-180z" />
    <glyph glyph-name="X" unicode="X" horiz-adv-x="514" 
d="M205 374l-92 351h147l52 -199l139 199h164l-259 -368l93 -357h-146l-54 205l-144 -205h-162z" />
    <glyph glyph-name="Y" unicode="Y" horiz-adv-x="521" 
d="M186 303l-89 422h143l46 -282l168 282h164l-273 -424l-64 -301h-159z" />
    <glyph glyph-name="Z" unicode="Z" horiz-adv-x="513" 
d="M-11 112l387 492h-253l26 121h429l-24 -112l-388 -491h295l-26 -122h-470z" />
    <glyph glyph-name="bracketleft" unicode="[" horiz-adv-x="302" 
d="M151 725h253l-21 -100h-131l-149 -698h131l-21 -102h-253z" />
    <glyph glyph-name="backslash" unicode="\" horiz-adv-x="391" 
d="M80 725h147l85 -725h-146z" />
    <glyph glyph-name="bracketright" unicode="]" horiz-adv-x="300" 
d="M-77 -73h130l149 698h-131l21 100h251l-192 -900h-250z" />
    <glyph glyph-name="asciicircum" unicode="^" horiz-adv-x="556" 
d="M229 725h114l199 -387h-134l-122 250l-122 -250h-134z" />
    <glyph glyph-name="underscore" unicode="_" horiz-adv-x="490" 
d="M-34 9h440l-28 -132h-440z" />
    <glyph glyph-name="grave" unicode="`" horiz-adv-x="288" 
d="M122 725h175l37 -123h-115z" />
    <glyph glyph-name="a" unicode="a" horiz-adv-x="482" 
d="M256 62q-29 -41 -61 -58t-79 -17q-58 0 -91 33.5t-33 89.5q0 11 1 21.5t4 22.5l2 10q8 36 28 61t49 43q31 19 67.5 32t73.5 25l84 26l6 28q2 11 4 21t2 18q0 45 -48 45q-38 0 -54 -19t-25 -63l-1 -5h-133l1 5q17 88 70.5 130.5t156.5 42.5q37 0 70 -5t57.5 -19.5
t38.5 -41.5t14 -71q0 -36 -10 -82l-36 -169q-11 -51 -19 -89.5t-10 -76.5h-137zM143 122q0 -19 8.5 -30t31.5 -11q35 0 56.5 27.5t33.5 84.5l16 76q-13 -6 -27 -11l-25 -8q-43 -14 -62 -32.5t-25 -50.5l-4 -15q-3 -17 -3 -30z" />
    <glyph glyph-name="b" unicode="b" horiz-adv-x="520" 
d="M483 236q-14 -65 -31 -112t-41.5 -77.5t-57 -45t-76.5 -14.5q-43 0 -76 22t-45 64l-16 -73h-154l154 725h154l-52 -246q22 34 56 54.5t79 20.5q63 0 97.5 -38t34.5 -115q0 -21 -2.5 -44.5t-8.5 -49.5zM178 164q0 -35 12.5 -54t44.5 -19q21 0 36 11t25.5 32.5t18.5 52.5
t17 72l5 25q7 32 11 57.5t4 45.5q0 31 -12 47t-41 16q-39 0 -64 -47.5t-42 -131.5q-7 -32 -11 -59t-4 -48z" />
    <glyph glyph-name="c" unicode="c" horiz-adv-x="464" 
d="M430 186q-12 -58 -33 -96.5t-50.5 -61t-65.5 -32t-77 -9.5q-94 0 -142 44.5t-48 129.5q0 32 8 75l19 87q12 60 31.5 103t49 71.5t70.5 42t97 13.5q86 0 134 -38.5t48 -110.5q0 -12 -1.5 -24t-3.5 -26l-1 -5h-143l1 4q7 27 7 49q0 31 -14.5 41.5t-35.5 10.5t-35 -10.5
t-24 -31t-17.5 -50t-15.5 -68.5l-10 -47q-7 -32 -10.5 -57.5t-3.5 -45.5q0 -29 11 -43.5t38 -14.5q12 0 23 4t20 14.5t17 30t14 51.5l1 6h143z" />
    <glyph glyph-name="d" unicode="d" horiz-adv-x="519" 
d="M278 62q-22 -34 -55.5 -54.5t-78.5 -20.5q-64 0 -98.5 38t-34.5 115q0 21 3 44.5t8 50.5l15 71q14 64 31.5 111t41.5 77t57 44.5t77 14.5q43 0 75.5 -21.5t44.5 -63.5l55 257h154l-154 -725h-154zM169 155q0 -32 11.5 -48t40.5 -16q40 0 65 47.5t42 131.5q7 32 11 59
t4 48q0 35 -13 53.5t-44 18.5q-21 0 -36 -11t-26 -32t-19.5 -52t-16.5 -72l-5 -25q-6 -32 -10 -57t-4 -45z" />
    <glyph glyph-name="e" unicode="e" horiz-adv-x="492" 
d="M440 175q-11 -55 -34 -91t-54.5 -57.5t-69 -30.5t-76.5 -9q-94 0 -143 45t-49 130q0 17 2 35.5t6 38.5l19 87q12 60 31.5 103t49 71.5t70.5 42t97 13.5q97 0 144 -41.5t47 -129.5q0 -22 -3.5 -46.5t-9.5 -52.5l-6 -29h-283l-1 -7q-6 -30 -9.5 -54.5t-3.5 -43.5
q0 -32 11.5 -47.5t39.5 -15.5q14 0 26.5 3t22.5 13t18 27t14 46l1 6h144zM196 336h142l2 9q6 27 6 47q0 34 -16.5 49t-48.5 15q-21 0 -35.5 -10t-23.5 -26t-14.5 -35.5t-9.5 -38.5z" />
    <glyph glyph-name="f" unicode="f" horiz-adv-x="317" 
d="M100 443h-65l20 95h64l10 47q9 46 25.5 73.5t42 42.5t60 19.5t79.5 4.5h68l-19 -91h-38q-31 0 -44 -9.5t-20 -41.5l-10 -45h91l-20 -95h-91l-94 -443h-153z" />
    <glyph glyph-name="g" unicode="g" horiz-adv-x="526" 
d="M437 53q-14 -65 -35 -110.5t-52.5 -74.5t-75 -42.5t-102.5 -13.5q-38 0 -72.5 7.5t-60.5 23t-41 40t-15 58.5q0 8 0.5 18.5t1.5 14.5l1 5h137l-1 -5q-1 -5 -1 -7v-8q0 -23 15 -34.5t41 -11.5q20 0 35 4t27 16.5t21.5 35t17.5 59.5l15 71q-22 -34 -55.5 -57t-78.5 -23
q-67 0 -105 37t-38 113q0 34 9 78l14 67q26 123 87.5 181t146.5 58q45 0 68.5 -23t30.5 -58l14 66h154zM174 180q0 -27 11 -41.5t38 -14.5q28 0 46 10.5t30.5 31t21 49t16.5 64.5q7 32 11.5 58.5t4.5 47.5q0 32 -13.5 48t-47.5 16q-23 0 -38.5 -10t-26.5 -29.5t-19 -48
t-15 -64.5l-4 -19q-6 -30 -10.5 -54.5t-4.5 -43.5z" />
    <glyph glyph-name="h" unicode="h" horiz-adv-x="507" 
d="M140 725h154l-54 -253q28 42 61 61.5t80 19.5q52 0 82.5 -26.5t30.5 -91.5q0 -18 -2 -39t-7 -45l-75 -351h-154l67 317q5 26 9 46.5t4 37.5q0 22 -8 34.5t-28 12.5q-22 0 -37.5 -13.5t-27.5 -36.5t-20 -52.5t-15 -61.5l-60 -284h-154z" />
    <glyph glyph-name="i" unicode="i" horiz-adv-x="239" 
d="M100 538h154l-114 -538h-154zM140 725h154l-27 -128h-154z" />
    <glyph glyph-name="j" unicode="j" horiz-adv-x="239" 
d="M140 725h154l-27 -128h-154zM-102 -83h28q16 0 25.5 5t15.5 15t10 25.5t9 37.5l114 538h154l-114 -538q-12 -56 -25 -90.5t-33.5 -53.5t-51.5 -25t-79 -6h-72z" />
    <glyph glyph-name="k" unicode="k" horiz-adv-x="463" 
d="M352 356l75 -356h-145l-42 232l-74 -81l-32 -151h-148l154 725h148l-78 -366l163 179h145z" />
    <glyph glyph-name="l" unicode="l" horiz-adv-x="240" 
d="M140 725h154l-154 -725h-154z" />
    <glyph glyph-name="m" unicode="m" horiz-adv-x="760" 
d="M100 538h154l-14 -66q28 42 61 61.5t80 19.5q48 0 75.5 -22.5t29.5 -65.5q24 41 62 64.5t95 23.5q51 0 78.5 -24.5t27.5 -86.5q0 -19 -2.5 -41.5t-8.5 -49.5l-75 -351h-154l67 317q6 29 11 52t5 40q0 18 -6.5 28.5t-23.5 10.5q-22 0 -37.5 -13.5t-27.5 -36.5t-20 -52.5
t-15 -61.5l-60 -284h-154l67 317q6 29 10.5 52t4.5 40q0 18 -6 28.5t-23 10.5q-22 0 -38 -13.5t-27.5 -36.5t-20 -52.5t-15.5 -61.5l-60 -284h-154z" />
    <glyph glyph-name="n" unicode="n" horiz-adv-x="507" 
d="M100 538h154l-14 -66q28 42 61 61.5t80 19.5q52 0 83 -26.5t31 -91.5q0 -18 -2.5 -39t-7.5 -45l-75 -351h-154l67 317q5 26 9.5 46.5t4.5 37.5q0 22 -8 34.5t-28 12.5q-22 0 -38 -13.5t-27.5 -36.5t-20 -52.5t-15.5 -61.5l-60 -284h-154z" />
    <glyph glyph-name="o" unicode="o" horiz-adv-x="494" 
d="M165 147q0 -31 11.5 -46.5t39.5 -15.5q21 0 35 11t23.5 31.5t16.5 50.5t15 69l9 45q6 31 10.5 56.5t4.5 44.5q0 31 -11.5 46t-39.5 15q-21 0 -35 -10.5t-23.5 -31t-16.5 -50.5t-15 -69l-10 -47q-6 -31 -10 -55.5t-4 -43.5zM455 218q-13 -60 -32 -104t-48.5 -72.5
t-70.5 -42t-97 -13.5q-94 0 -143.5 45t-49.5 130q0 17 2 35.5t6 38.5l18 87q13 60 32.5 103.5t48.5 72t70.5 42t97.5 13.5q94 0 143 -44.5t49 -129.5q0 -17 -2 -36.5t-6 -39.5z" />
    <glyph glyph-name="p" unicode="p" horiz-adv-x="520" 
d="M100 538h154l-12 -59q22 34 56 54.5t79 20.5q64 0 98.5 -38t34.5 -115q0 -21 -3 -44.5t-8 -49.5l-15 -71q-14 -65 -31.5 -112t-42 -77.5t-57 -45t-76.5 -14.5q-43 0 -76 22t-45 64l-53 -248h-154zM178 164q0 -35 12.5 -54t44.5 -19q21 0 36 11t25.5 32.5t18.5 52.5t17 72
l5 25q7 32 11 57.5t4 45.5q0 31 -11.5 47t-40.5 16q-40 0 -65 -47.5t-42 -131.5q-7 -32 -11 -59t-4 -48z" />
    <glyph glyph-name="q" unicode="q" horiz-adv-x="520" 
d="M280 67q-22 -34 -60.5 -57t-83.5 -23q-66 0 -97 34.5t-31 103.5q0 45 14 110l15 71q26 124 78 185.5t140 61.5q45 0 74 -23t36 -58l14 66h154l-151 -713h-153zM166 144q0 -26 9.5 -39.5t33.5 -13.5q25 0 44 12.5t32.5 35.5t24 56t19.5 75q6 32 10 58.5t4 47.5
q0 35 -12.5 54t-44.5 19q-21 0 -36 -11t-26 -32t-19.5 -52t-16.5 -72l-5 -25q-8 -36 -12.5 -64.5t-4.5 -48.5z" />
    <glyph glyph-name="r" unicode="r" horiz-adv-x="340" 
d="M100 538h154l-23 -111q10 23 22.5 43.5t28.5 35.5t37 23.5t47 8.5h20l-30 -145h-42q-31 0 -50.5 -5.5t-31.5 -19t-19.5 -36t-14.5 -57.5l-58 -275h-154z" />
    <glyph glyph-name="s" unicode="s" horiz-adv-x="459" 
d="M414 166q0 -44 -18 -77.5t-49 -56t-71 -34t-84 -11.5q-95 0 -145.5 37.5t-50.5 104.5q0 19 5 44l1 5h139l-1 -5q-3 -15 -3 -30q0 -56 60 -56q29 0 53 13t25 39q0 21 -12 32.5t-40 28.5l-70 42q-20 12 -37 25t-30.5 29.5t-21 38t-7.5 50.5q0 43 18.5 74.5t49.5 52.5t71 31
t82 10q33 0 65.5 -7t58 -23t41 -40.5t15.5 -59.5q0 -10 -2 -23.5t-3 -18.5l-1 -5h-135l1 5q1 4 2.5 12t1.5 15q0 28 -18 37t-38 9q-12 0 -24 -2.5t-22 -8.5t-16.5 -16t-6.5 -26q0 -31 34 -52l66 -40q27 -16 48.5 -30t36.5 -30t23.5 -36t8.5 -47z" />
    <glyph glyph-name="t" unicode="t" horiz-adv-x="339" 
d="M146 0q-62 0 -87.5 18t-25.5 63q0 26 9 64l63 298h-65l20 95h65l31 146h153l-31 -146h91l-20 -95h-90l-60 -283q-5 -23 -5 -34q0 -19 10 -25t32 -6h40l-20 -95h-110z" />
    <glyph glyph-name="u" unicode="u" horiz-adv-x="503" 
d="M258 66q-27 -42 -60 -60.5t-81 -18.5q-51 0 -78.5 24t-27.5 85q0 37 12 91l74 351h154l-67 -317q-6 -28 -11 -51t-5 -40q0 -18 6.5 -27.5t23.5 -9.5q22 0 37.5 13t27.5 35.5t20 51.5t15 61l60 284h153l-108 -538h-159z" />
    <glyph glyph-name="v" unicode="v" horiz-adv-x="437" 
d="M57 538h148l-15 -387l156 387h148l-243 -538h-188z" />
    <glyph glyph-name="w" unicode="w" horiz-adv-x="605" 
d="M79 538h128l-46 -372l131 372h135l-24 -371l110 371h128l-177 -538h-163l32 408l-143 -408h-165z" />
    <glyph glyph-name="x" unicode="x" horiz-adv-x="445" 
d="M151 276l-94 262h143l50 -138l109 138h150l-213 -267l99 -271h-144l-53 148l-118 -148h-148z" />
    <glyph glyph-name="y" unicode="y" horiz-adv-x="430" 
d="M-19 -81h37q34 0 47.5 14t25.5 42l12 27l-46 536h140l11 -390l140 390h144l-235 -538q-23 -53 -42.5 -86.5t-44.5 -53.5t-59.5 -27.5t-87.5 -7.5h-62z" />
    <glyph glyph-name="z" unicode="z" horiz-adv-x="423" 
d="M-15 95l275 348h-178l20 95h348l-20 -95l-276 -348h210l-20 -95h-379z" />
    <glyph glyph-name="braceleft" unicode="{" horiz-adv-x="303" 
d="M184 -175q-42 0 -73 5t-52 17.5t-31.5 33.5t-10.5 53q0 14 2 30t6 35l25 120q3 14 5 26.5t2 23.5q0 25 -13.5 39t-48.5 14l24 111q25 0 41.5 7.5t27 21t17 32.5t11.5 42l25 115q11 52 29.5 86t46 53.5t66 27t89.5 7.5h29l-21 -100h-15q-25 0 -41 -4t-26.5 -12.5t-16 -22
t-9.5 -32.5l-30 -138q-8 -35 -20 -58.5t-28 -39.5t-35 -25t-40 -14v-2q30 -9 50.5 -28.5t20.5 -63.5q0 -10 -1 -21t-4 -25l-30 -140q-2 -8 -3 -15.5t-1 -13.5q0 -23 15 -32.5t54 -9.5h16l-22 -103h-30z" />
    <glyph glyph-name="bar" unicode="|" horiz-adv-x="248" 
d="M54 725h140v-815h-140v815z" />
    <glyph glyph-name="braceright" unicode="}" horiz-adv-x="300" 
d="M-99 -175l21 102h16q25 0 41.5 4t27 12.5t16 22t9.5 32.5l30 141q7 35 19 58.5t28 39.5t34.5 25t39.5 15l1 2q-30 8 -50 27.5t-20 61.5q0 11 2 22.5t4 25.5l30 138q2 8 3 15.5t1 14.5q0 21 -15 31t-53 10h-15l22 100h27q84 0 125 -22.5t41 -86.5q0 -30 -7 -65l-25 -115
q-3 -14 -5 -26.5t-2 -23.5q0 -25 13 -39t48 -14l-24 -111q-25 0 -41 -7.5t-26.5 -21t-17 -32.5t-11.5 -42l-25 -119q-11 -53 -30 -86.5t-47 -53.5t-66 -27.5t-89 -7.5h-30z" />
    <glyph glyph-name="asciitilde" unicode="~" 
d="M41 158q1 45 8.5 80.5t24 61t43.5 39t67 13.5q31 0 53.5 -10.5t40.5 -23t35 -23t37 -10.5q22 0 32.5 14.5t11.5 52.5h107q-2 -45 -9 -81t-23.5 -61t-43 -38.5t-66.5 -13.5q-28 0 -49 10.5t-39 23t-36.5 23t-42.5 10.5q-22 0 -32.5 -14.5t-11.5 -52.5h-107z" />
    <glyph glyph-name="uni00A0" unicode="&#xa0;" horiz-adv-x="180" 
 />
    <glyph glyph-name="exclamdown" unicode="&#xa1;" horiz-adv-x="246" 
d="M-12 19l90 313h109l-43 -313l-41 -194h-156zM95 538h162l-33 -155h-162z" />
    <glyph glyph-name="cent" unicode="&#xa2;" horiz-adv-x="464" 
d="M165 -10q-74 8 -112.5 51.5t-38.5 118.5q0 34 9 76l19 87q13 59 32 102t47.5 71t68.5 42t95 15l12 57h50l-13 -60q66 -10 101.5 -47t35.5 -99q0 -12 -1 -24t-4 -26l-1 -6h-143l1 5q7 28 7 49q0 31 -14.5 41.5t-35.5 10.5t-35 -10.5t-23.5 -31t-17 -50t-15.5 -68.5l-9 -47
q-7 -32 -11 -57.5t-4 -45.5q0 -29 11 -43.5t37 -14.5q12 0 23 4t20 15t17 30.5t14 51.5l1 5h143l-1 -5q-9 -57 -29 -94.5t-48.5 -61t-63.5 -33.5t-74 -11l-16 -75h-50z" />
    <glyph glyph-name="sterling" unicode="&#xa3;" horiz-adv-x="540" 
d="M50 384h94q-8 34 -16.5 67t-8.5 68q0 53 19 94t53.5 68.5t83 42t106.5 14.5q43 0 78 -11t59.5 -30.5t38 -47.5t13.5 -61q0 -16 -1 -30t-5 -33l-2 -10h-145l2 10q3 16 5 28.5t2 23.5q0 37 -16.5 50t-43.5 13q-37 0 -59.5 -21.5t-30.5 -57.5q-2 -12 -3 -23.5t-1 -22.5
q0 -33 7 -66t13 -65h164l-17 -78h-139q-1 -7 -1.5 -13t-2.5 -13q-5 -23 -17 -47.5t-29.5 -47t-38.5 -42t-45 -32.5l1 -2q25 10 43.5 14t32.5 4q17 0 30 -4t26 -9.5t26.5 -9.5t31.5 -4q13 0 24 2t22 5.5t24 9.5t30 14l22 -100q-48 -23 -80.5 -32.5t-58.5 -9.5q-25 0 -45.5 6
t-38.5 13.5t-36 13.5t-39 6q-27 0 -63.5 -8.5t-86.5 -32.5l-30 101q36 18 61.5 37t43 39.5t28 43.5t15.5 48q6 27 6 50h-122z" />
    <glyph glyph-name="currency" unicode="&#xa4;" horiz-adv-x="627" 
d="M64 131l69 70q-21 29 -32.5 65t-11.5 74q0 39 11.5 74.5t32.5 64.5l-69 70l50 48l68 -67q29 23 66 36t78 13q42 0 79 -13.5t68 -37.5l70 69l50 -48l-71 -71q20 -29 31.5 -64.5t11.5 -73.5t-11.5 -72.5t-32.5 -63.5l72 -73l-50 -48l-71 70q-31 -23 -67.5 -36.5
t-78.5 -13.5q-41 0 -77 12.5t-66 35.5l-69 -68zM209 340q0 -26 8.5 -49t23.5 -39.5t36.5 -26t47.5 -9.5q27 0 49.5 9.5t38.5 26t25 39.5t9 49q0 27 -9 50t-25 40.5t-38.5 27t-49.5 9.5q-26 0 -47.5 -9.5t-36.5 -27t-23.5 -40.5t-8.5 -50z" />
    <glyph glyph-name="yen" unicode="&#xa5;" horiz-adv-x="521" 
d="M60 321h122l-85 404h143l46 -282l168 282h164l-260 -404h122l-17 -82h-132l-15 -71h132l-17 -80h-132l-18 -88h-159l18 88h-130l17 80h130l15 71h-129z" />
    <glyph glyph-name="brokenbar" unicode="&#xa6;" horiz-adv-x="226" 
d="M43 420v305h140v-305h-140zM43 215h140v-305h-140v305z" />
    <glyph glyph-name="section" unicode="&#xa7;" horiz-adv-x="600" 
d="M541 283q0 -26 -9 -47.5t-24.5 -39t-36 -31.5t-42.5 -25q38 -28 62 -63.5t24 -86.5q0 -39 -17 -69t-46.5 -50.5t-70 -30.5t-86.5 -10q-40 0 -79.5 9.5t-71 30.5t-51 56t-19.5 86v2h150v-2q0 -24 6.5 -40t17 -25.5t23.5 -13.5t27 -4q27 1 47.5 15t20.5 45q0 26 -16 44
t-39 32l-118 65q-29 16 -53 32.5t-41.5 36t-27.5 43.5t-10 56q0 26 9.5 47.5t25.5 39t36.5 31.5t43.5 25q-38 28 -60 63.5t-22 86.5q0 39 16.5 69t46 50.5t69.5 30.5t87 10q40 0 78.5 -9.5t69 -30.5t49.5 -56t19 -86v-2h-149v2q0 24 -6.5 40t-16.5 25.5t-23.5 13.5t-26.5 4
q-27 -1 -45 -15t-18 -45q0 -26 14 -44t37 -32l117 -65q29 -17 52.5 -33t40.5 -35.5t26.5 -43.5t9.5 -56zM212 311q0 -27 18.5 -46.5t52.5 -38.5l53 -30q22 12 38 31t16 43q0 27 -16.5 46.5t-50.5 38.5l-55 30q-23 -13 -39.5 -31.5t-16.5 -42.5z" />
    <glyph glyph-name="dieresis" unicode="&#xa8;" horiz-adv-x="384" 
d="M122 725h133l-26 -123h-133zM322 725h134l-26 -123h-134z" />
    <glyph glyph-name="copyright" unicode="&#xa9;" horiz-adv-x="826" 
d="M437 152q-45 0 -74 11t-46.5 33.5t-24 56.5t-6.5 80v65q0 46 6.5 80t24 56.5t46.5 34t74 11.5q71 0 105.5 -33t34.5 -112v-7h-116v5q0 25 -1 38.5t-4 20t-8 7.5t-12 1q-12 0 -17.5 -8.5t-7 -24t-1 -37.5t0.5 -49v-31q0 -28 -0.5 -50.5t1 -38t7 -23.5t17.5 -8q7 0 12 1
t8 7t4 19.5t1 38.5v5h116v-5q0 -80 -34.5 -112t-105.5 -32zM434 42q66 0 122.5 24t98 66.5t64.5 102t23 130.5q0 70 -23 129t-64.5 101.5t-98 66t-122.5 23.5q-65 0 -121.5 -23.5t-98 -66t-65.5 -101.5t-24 -129q0 -71 24 -130.5t65.5 -102t98 -66.5t121.5 -24zM433 -12
q-76 0 -143 28t-117.5 78t-79.5 119t-29 151t29 151t79.5 118.5t117.5 77.5t143 28q77 0 144.5 -28t117.5 -77.5t79 -118.5t29 -151t-29 -151t-79 -119t-117.5 -78t-144.5 -28z" />
    <glyph glyph-name="ordfeminine" unicode="&#xaa;" horiz-adv-x="277" 
d="M210 471q-17 -23 -37 -32t-46 -9q-32 0 -48.5 17.5t-16.5 46.5v12q0 6 2 13l1 7q4 17 13.5 31.5t23.5 25.5q15 13 38 22.5t54 18.5l41 13l5 21q2 10 2 18t-5 13.5t-19 5.5q-20 0 -27.5 -9t-11.5 -32l-1 -6h-81l1 6q8 51 35.5 74t81.5 23q24 0 45.5 -2.5t37 -10.5t25 -22
t9.5 -38q0 -8 -1 -16.5t-3 -18.5q0 -1 -3.5 -17t-8.5 -36q-5 -23 -11 -52q-6 -28 -10 -53t-5 -47h-85zM156 506q0 -19 20 -19q18 0 26 15t15 44l9 41q-8 -3 -11.5 -4.5t-11.5 -5.5q-21 -11 -30 -19t-13 -25l-2 -9q-1 -5 -1.5 -9.5t-0.5 -8.5z" />
    <glyph glyph-name="guillemotleft" unicode="&#xab;" horiz-adv-x="395" 
d="M196 192l37 177l184 145l-36 -169l-87 -65l59 -66l-36 -171zM14 192l37 177l184 145l-36 -169l-87 -65l59 -66l-36 -171z" />
    <glyph glyph-name="logicalnot" unicode="&#xac;" 
d="M398 321h-374v116h494v-367h-120v251z" />
    <glyph glyph-name="uni00AD" unicode="&#xad;" horiz-adv-x="348" 
d="M51 317h266l-27 -131h-266z" />
    <glyph glyph-name="registered" unicode="&#xae;" horiz-adv-x="826" 
d="M433 -12q-76 0 -143 28t-117.5 78t-79.5 119t-29 151t29 151t79.5 118.5t117.5 77.5t143 28q77 0 144.5 -28t117.5 -77.5t79 -118.5t29 -151t-29 -151t-79 -119t-117.5 -78t-144.5 -28zM434 48q65 0 120 23.5t95.5 65.5t63 100.5t22.5 127.5t-22.5 126.5t-63 99.5
t-95.5 65t-120 23q-64 0 -119.5 -23t-96 -65t-63.5 -99.5t-23 -126.5t23 -127.5t63.5 -100.5t96 -65.5t119.5 -23.5zM291 163v414h127q41 0 70.5 -5.5t49 -19.5t29 -38t9.5 -61q0 -39 -15.5 -62.5t-36.5 -35.5l62 -192h-105l-45 171q-8 -1 -14 -0.5t-11 0.5h-11v-171h-109z
M400 403h16q27 1 32 12t5 38t-5.5 36.5t-32.5 9.5h-15v-96z" />
    <glyph glyph-name="macron" unicode="&#xaf;" horiz-adv-x="302" 
d="M120 714h252l-21 -100h-252z" />
    <glyph glyph-name="degree" unicode="&#xb0;" horiz-adv-x="344" 
d="M390 576q0 -33 -12.5 -62t-34.5 -51t-51.5 -34.5t-62.5 -12.5t-62 12.5t-51 34.5t-34.5 51t-12.5 62q0 34 12.5 63.5t34.5 51.5t51 34.5t62 12.5t62.5 -12.5t51.5 -34.5t34.5 -51.5t12.5 -63.5zM156 576q0 -32 20.5 -55t52.5 -23q33 0 54 23t21 55q0 33 -21 56.5
t-54 23.5q-32 0 -52.5 -23.5t-20.5 -56.5z" />
    <glyph glyph-name="plusminus" unicode="&#xb1;" 
d="M201 293h-175v116h175v129h119v-129h175v-116h-175v-129h-119v129zM26 116h469v-116h-469v116z" />
    <glyph glyph-name="uni00B2" unicode="&#xb2;" horiz-adv-x="289" 
d="M74 505l57 57q44 44 72.5 75.5t45.5 55.5t24 42t7 34q0 11 -5.5 17.5t-19.5 6.5q-19 0 -27 -15.5t-16 -53.5l-1 -5h-89l1 5q13 66 44 97.5t97 31.5q50 0 80 -23t30 -57q0 -25 -9.5 -48.5t-27.5 -48.5t-44.5 -53.5t-60.5 -63.5l-49 -50h140l-15 -71h-248z" />
    <glyph glyph-name="uni00B3" unicode="&#xb3;" horiz-adv-x="295" 
d="M340 584q0 -73 -41.5 -113.5t-114.5 -40.5q-22 0 -41.5 4.5t-34.5 14.5t-23.5 27t-8.5 41q0 17 3 32l1 5h87l-1 -5q-4 -17 -4 -31t5.5 -20.5t19.5 -6.5q27 0 38 19t16 45q3 16 3 31q0 14 -7.5 23t-31.5 9h-25l14 63h23q26 0 35.5 15.5t14.5 39.5q2 9 3 16.5t1 14.5
q0 12 -5.5 19t-20.5 7t-23 -10t-15 -43l-1 -5h-87l1 5q7 34 19 56t29.5 34.5t38.5 17.5t46 5q22 0 42.5 -4t36.5 -13t25 -23.5t9 -35.5q0 -29 -8 -50t-19.5 -35.5t-25.5 -23t-26 -11.5q53 -18 53 -73z" />
    <glyph glyph-name="acute" unicode="&#xb4;" horiz-adv-x="288" 
d="M185 725h175l-148 -123h-116z" />
    <glyph glyph-name="mu" unicode="&#xb5;" horiz-adv-x="508" 
d="M263 66q-25 -38 -54.5 -57t-70.5 -21q-6 -26 -11.5 -48t-11.5 -41t-12 -37t-13 -37h-153q15 40 25.5 77.5t21.5 85.5l117 550h155l-67 -317q-6 -28 -11 -51t-5 -40q0 -18 6.5 -27.5t23.5 -9.5q22 0 37.5 13t27.5 35.5t20 51.5t15 61l60 284h153l-108 -538h-159z" />
    <glyph glyph-name="mu" unicode="&#x3bc;" horiz-adv-x="508" 
d="M263 66q-25 -38 -54.5 -57t-70.5 -21q-6 -26 -11.5 -48t-11.5 -41t-12 -37t-13 -37h-153q15 40 25.5 77.5t21.5 85.5l117 550h155l-67 -317q-6 -28 -11 -51t-5 -40q0 -18 6.5 -27.5t23.5 -9.5q22 0 37.5 13t27.5 35.5t20 51.5t15 61l60 284h153l-108 -538h-159z" />
    <glyph glyph-name="paragraph" unicode="&#xb6;" horiz-adv-x="438" 
d="M172 389q-23 0 -43.5 8.5t-36.5 24t-25 38t-9 51.5q0 98 63 156t185 58h175l-173 -814h-82l157 738h-74l-157 -738h-82z" />
    <glyph glyph-name="periodcentered" unicode="&#xb7;" horiz-adv-x="247" 
d="M55 346h162l-33 -155h-162z" />
    <glyph glyph-name="cedilla" unicode="&#xb8;" horiz-adv-x="275" 
d="M171 -99q0 -21 -12.5 -39t-33.5 -30.5t-48 -19.5t-55 -7q-24 0 -48 3.5t-44 11.5l27 50q10 -6 26.5 -10t33.5 -4q24 0 41.5 9t17.5 26q0 10 -9.5 15.5t-25.5 5.5q-9 0 -20 -2t-21 -7l-26 17l69 82h58l-44 -50q18 3 40 3q29 0 51.5 -13.5t22.5 -40.5z" />
    <glyph glyph-name="uni00B9" unicode="&#xb9;" horiz-adv-x="181" 
d="M166 739h-66l13 59q21 1 34 2.5t22.5 6t16.5 14.5t16 27h73l-87 -410h-86z" />
    <glyph glyph-name="ordmasculine" unicode="&#xba;" horiz-adv-x="281" 
d="M166 517q0 -27 23 -27q22 0 30 22t17 65l6 28q4 19 6.5 34t2.5 26q0 12 -4.5 18.5t-16.5 6.5q-22 0 -31 -22t-17 -63l-6 -28q-5 -20 -7.5 -34.5t-2.5 -25.5zM330 568q-15 -69 -45.5 -103.5t-94.5 -34.5q-54 0 -85 24t-31 72q0 10 1 20.5t4 21.5l10 47q14 66 45 101t95 35
q54 0 85 -24.5t31 -72.5q0 -16 -5 -39z" />
    <glyph glyph-name="guillemotright" unicode="&#xbb;" horiz-adv-x="395" 
d="M385 365l-37 -177l-184 -145l36 169l87 65l-59 66l36 171zM203 365l-37 -177l-184 -145l36 169l87 65l-59 66l36 171z" />
    <glyph glyph-name="onequarter" unicode="&#xbc;" horiz-adv-x="650" 
d="M140 618h-66l13 59q21 1 34 2.5t22.5 6t16.5 14.5t16 27h73l-87 -410h-86zM434 725h65l-362 -725h-65zM470 96h-145l14 66l190 246h90l-51 -239h49l-16 -73h-48l-20 -96h-83zM484 169l27 127l-102 -127h75z" />
    <glyph glyph-name="onehalf" unicode="&#xbd;" horiz-adv-x="639" 
d="M140 618h-66l13 59q21 1 34 2.5t22.5 6t16.5 14.5t16 27h73l-87 -410h-86zM434 725h65l-362 -725h-65zM330 67l57 57q44 44 72.5 75.5t45.5 55.5t24 42t7 34q0 11 -5.5 17.5t-19.5 6.5q-19 0 -27 -15.5t-16 -53.5l-1 -5h-89l1 5q13 66 44 97.5t97 31.5q50 0 80 -23
t30 -57q0 -25 -9.5 -48.5t-27.5 -48.5t-44.5 -53.5t-60.5 -63.5l-49 -50h140l-15 -71h-248z" />
    <glyph glyph-name="threequarters" unicode="&#xbe;" horiz-adv-x="764" 
d="M313 463q0 -73 -41.5 -113.5t-114.5 -40.5q-22 0 -41.5 4.5t-34.5 14.5t-23.5 27t-8.5 41q0 17 3 32l1 5h87l-1 -5q-4 -17 -4 -31t5.5 -20.5t19.5 -6.5q27 0 38 19t16 45q3 16 3 31q0 14 -7.5 23t-31.5 9h-25l14 63h23q26 0 35.5 15.5t14.5 39.5q2 9 3 16.5t1 14.5
q0 12 -5.5 19t-20.5 7t-23 -10t-15 -43l-1 -5h-87l1 5q7 34 19 56t29.5 34.5t38.5 17.5t46 5q22 0 42.5 -4t36.5 -13t25 -23.5t9 -35.5q0 -29 -8 -50t-19.5 -35.5t-25.5 -23t-26 -11.5q53 -18 53 -73zM548 725h65l-362 -725h-65zM584 96h-145l14 66l190 246h90l-51 -239h49
l-16 -73h-48l-20 -96h-83zM598 169l27 127l-102 -127h75z" />
    <glyph glyph-name="questiondown" unicode="&#xbf;" horiz-adv-x="476" 
d="M408 34q-23 -117 -82.5 -169.5t-161.5 -52.5q-41 0 -78 7t-65.5 23.5t-46 43t-17.5 65.5q0 40 12.5 74t32 61t42 47.5t40.5 34.5q24 19 43.5 31.5t34.5 25.5t25 30t16 44l6 30h146l-7 -33q-8 -37 -22 -62.5t-33 -45.5t-43 -37t-51 -37q-47 -35 -65 -73.5t-19 -80.5
q-1 -28 13 -38.5t40 -10.5q17 0 31 5.5t26 19.5t21 37.5t17 60.5l1 5h145zM245 538h162l-33 -155h-162z" />
    <glyph glyph-name="Agrave" unicode="&#xc0;" 
d="M184 888h189l77 -113h-133zM274 725h192l20 -725h-155l2 152h-163l-61 -152h-161zM210 253h124l4 318z" />
    <glyph glyph-name="Aacute" unicode="&#xc1;" 
d="M387 888h188l-134 -113h-133zM274 725h192l20 -725h-155l2 152h-163l-61 -152h-161zM210 253h124l4 318z" />
    <glyph glyph-name="Acircumflex" unicode="&#xc2;" 
d="M274 725h192l20 -725h-155l2 152h-163l-61 -152h-161zM210 253h124l4 318zM337 888h138l95 -113h-145l-30 50l-49 -50h-146z" />
    <glyph glyph-name="Atilde" unicode="&#xc3;" 
d="M200 775q15 39 35 61.5t41.5 34t42 14.5t36.5 3q20 0 33.5 -5.5t24 -12.5t20 -12.5t22.5 -5.5q14 0 26.5 8.5t19.5 27.5h97q-15 -38 -35 -60.5t-41 -34t-42 -15t-37 -3.5q-20 0 -34 5.5t-24.5 11.5t-20 11.5t-20.5 5.5q-15 0 -27.5 -7.5t-19.5 -26.5h-97zM274 725h192
l20 -725h-155l2 152h-163l-61 -152h-161zM210 253h124l4 318z" />
    <glyph glyph-name="Adieresis" unicode="&#xc4;" 
d="M274 725h192l20 -725h-155l2 152h-163l-61 -152h-161zM210 253h124l4 318zM244 888h134l-24 -113h-134zM442 888h133l-24 -113h-133z" />
    <glyph glyph-name="Aring" unicode="&#xc5;" 
d="M475 851q0 -37 -26 -61t-64 -24t-64 24t-26 61t26.5 61t63.5 24t63.5 -24t26.5 -61zM342 851q0 -19 13 -30.5t30 -11.5t30 11.5t13 30.5t-13 31t-30 12t-30 -12t-13 -31zM274 725h192l20 -725h-155l2 152h-163l-61 -152h-161zM210 253h124l4 318z" />
    <glyph glyph-name="AE" unicode="&#xc6;" horiz-adv-x="837" 
d="M505 725h391l-25 -116h-235l-38 -179h214l-24 -116h-214l-42 -198h238l-25 -116h-395l31 148h-168l-105 -148h-165zM296 265h110l48 222z" />
    <glyph glyph-name="Ccedilla" unicode="&#xc7;" horiz-adv-x="541" 
d="M512 233q-15 -65 -35 -111.5t-50.5 -76.5t-73.5 -44t-104 -14q-116 0 -167.5 49t-51.5 154q0 69 21 164l16 76q17 82 40.5 140.5t58 96t83.5 54.5t117 17q98 0 154 -40.5t56 -129.5q0 -17 -3.5 -40t-5.5 -36l-2 -10h-158l2 10q1 5 3 14.5t3.5 20t2.5 21t1 17.5
q0 36 -15.5 49.5t-44.5 13.5q-31 0 -51 -16.5t-34.5 -47.5t-25 -76t-22.5 -102l-10 -47q-11 -51 -18 -92.5t-7 -72.5q0 -37 14.5 -57t49.5 -20q20 0 34.5 6t26 21.5t20.5 41.5t18 67l2 10h158zM345 -104q0 -23 -12.5 -40t-33 -28.5t-47.5 -17t-55 -5.5q-50 0 -92 15l27 50
q10 -6 26.5 -10t33.5 -4q24 0 41.5 9.5t17.5 26.5q0 10 -9.5 15t-25.5 5q-9 0 -20 -2t-21 -7l-26 17l69 82h58l-43 -50q15 3 37 3q14 0 27.5 -5t24 -13.5t17 -19t6.5 -21.5z" />
    <glyph glyph-name="Egrave" unicode="&#xc8;" horiz-adv-x="475" 
d="M221 888h189l77 -113h-133zM151 725h399l-25 -116h-239l-38 -180h217l-24 -116h-218l-42 -197h240l-25 -116h-399z" />
    <glyph glyph-name="Eacute" unicode="&#xc9;" horiz-adv-x="475" 
d="M351 888h188l-134 -113h-133zM151 725h399l-25 -116h-239l-38 -180h217l-24 -116h-218l-42 -197h240l-25 -116h-399z" />
    <glyph glyph-name="Ecircumflex" unicode="&#xca;" horiz-adv-x="475" 
d="M151 725h399l-25 -116h-239l-38 -180h217l-24 -116h-218l-42 -197h240l-25 -116h-399zM311 888h138l95 -113h-145l-30 50l-49 -50h-146z" />
    <glyph glyph-name="Edieresis" unicode="&#xcb;" horiz-adv-x="475" 
d="M222 888h134l-24 -113h-134zM420 888h133l-24 -113h-133zM151 725h399l-25 -116h-239l-38 -180h217l-24 -116h-218l-42 -197h240l-25 -116h-399z" />
    <glyph glyph-name="Igrave" unicode="&#xcc;" horiz-adv-x="267" 
d="M50 888h189l77 -113h-133zM151 725h159l-154 -725h-159z" />
    <glyph glyph-name="Iacute" unicode="&#xcd;" horiz-adv-x="267" 
d="M255 888h188l-134 -113h-133zM151 725h159l-154 -725h-159z" />
    <glyph glyph-name="Icircumflex" unicode="&#xce;" horiz-adv-x="267" 
d="M197 888h138l95 -113h-145l-30 50l-49 -50h-146zM151 725h159l-154 -725h-159z" />
    <glyph glyph-name="Idieresis" unicode="&#xcf;" horiz-adv-x="267" 
d="M113 888h134l-24 -113h-134zM291 888h133l-24 -113h-133zM151 725h159l-154 -725h-159z" />
    <glyph glyph-name="Eth" unicode="&#xd0;" horiz-adv-x="576" 
d="M31 424h66l64 301h192q124 0 178.5 -45t54.5 -147q0 -68 -21 -162l-16 -76q-17 -83 -39.5 -139t-58 -91t-89 -50t-132.5 -15h-223l65 308h-66zM239 107q37 0 61 15t40 44t27 72.5t23 100.5l10 47q10 49 16.5 87.5t6.5 67.5q0 38 -16 58t-59 20h-50l-42 -195h82l-25 -116
h-81l-43 -201h50z" />
    <glyph glyph-name="Ntilde" unicode="&#xd1;" horiz-adv-x="590" 
d="M220 775q15 39 35 61.5t41.5 34t42 14.5t36.5 3q20 0 33.5 -5.5t24 -12.5t20 -12.5t22.5 -5.5q14 0 26.5 8.5t19.5 27.5h97q-15 -38 -35 -60.5t-41 -34t-42 -15t-37 -3.5q-20 0 -34 5.5t-24.5 11.5t-20 11.5t-20.5 5.5q-15 0 -27.5 -7.5t-19.5 -26.5h-97zM151 725h184
l46 -521l111 521h141l-154 -725h-184l-46 521l-111 -521h-141z" />
    <glyph glyph-name="Ograve" unicode="&#xd2;" horiz-adv-x="575" 
d="M191 174q0 -37 14.5 -57t49.5 -20q31 0 51 16.5t34.5 47.5t25 76t22.5 102l10 47q11 51 18 92.5t7 72.5q0 38 -14 57.5t-50 19.5q-31 0 -51 -16.5t-34.5 -47.5t-25 -76t-22.5 -102l-10 -47q-11 -51 -18 -92.5t-7 -72.5zM548 295q-18 -83 -41 -141t-57 -95.5t-82.5 -54.5
t-116.5 -17q-117 0 -169 49.5t-52 155.5q0 69 21 162l16 76q17 82 40 140.5t57.5 96t83 54.5t116.5 17q116 0 168 -49.5t52 -155.5q0 -35 -5 -74.5t-15 -87.5zM207 888h189l77 -113h-133z" />
    <glyph glyph-name="Oacute" unicode="&#xd3;" horiz-adv-x="575" 
d="M191 174q0 -37 14.5 -57t49.5 -20q31 0 51 16.5t34.5 47.5t25 76t22.5 102l10 47q11 51 18 92.5t7 72.5q0 38 -14 57.5t-50 19.5q-31 0 -51 -16.5t-34.5 -47.5t-25 -76t-22.5 -102l-10 -47q-11 -51 -18 -92.5t-7 -72.5zM548 295q-18 -83 -41 -141t-57 -95.5t-82.5 -54.5
t-116.5 -17q-117 0 -169 49.5t-52 155.5q0 69 21 162l16 76q17 82 40 140.5t57.5 96t83 54.5t116.5 17q116 0 168 -49.5t52 -155.5q0 -35 -5 -74.5t-15 -87.5zM399 888h188l-134 -113h-133z" />
    <glyph glyph-name="Ocircumflex" unicode="&#xd4;" horiz-adv-x="575" 
d="M191 174q0 -37 14.5 -57t49.5 -20q31 0 51 16.5t34.5 47.5t25 76t22.5 102l10 47q11 51 18 92.5t7 72.5q0 38 -14 57.5t-50 19.5q-31 0 -51 -16.5t-34.5 -47.5t-25 -76t-22.5 -102l-10 -47q-11 -51 -18 -92.5t-7 -72.5zM548 295q-18 -83 -41 -141t-57 -95.5t-82.5 -54.5
t-116.5 -17q-117 0 -169 49.5t-52 155.5q0 69 21 162l16 76q17 82 40 140.5t57.5 96t83 54.5t116.5 17q116 0 168 -49.5t52 -155.5q0 -35 -5 -74.5t-15 -87.5zM356 888h138l95 -113h-145l-30 50l-49 -50h-146z" />
    <glyph glyph-name="Otilde" unicode="&#xd5;" horiz-adv-x="575" 
d="M191 174q0 -37 14.5 -57t49.5 -20q31 0 51 16.5t34.5 47.5t25 76t22.5 102l10 47q11 51 18 92.5t7 72.5q0 38 -14 57.5t-50 19.5q-31 0 -51 -16.5t-34.5 -47.5t-25 -76t-22.5 -102l-10 -47q-11 -51 -18 -92.5t-7 -72.5zM548 295q-18 -83 -41 -141t-57 -95.5t-82.5 -54.5
t-116.5 -17q-117 0 -169 49.5t-52 155.5q0 69 21 162l16 76q17 82 40 140.5t57.5 96t83 54.5t116.5 17q116 0 168 -49.5t52 -155.5q0 -35 -5 -74.5t-15 -87.5zM211 775q15 39 35 61.5t41.5 34t42 14.5t36.5 3q20 0 33.5 -5.5t24 -12.5t20 -12.5t22.5 -5.5q14 0 26.5 8.5
t19.5 27.5h97q-15 -38 -35 -60.5t-41 -34t-42 -15t-37 -3.5q-20 0 -34 5.5t-24.5 11.5t-20 11.5t-20.5 5.5q-15 0 -27.5 -7.5t-19.5 -26.5h-97z" />
    <glyph glyph-name="Odieresis" unicode="&#xd6;" horiz-adv-x="575" 
d="M191 174q0 -37 14.5 -57t49.5 -20q31 0 51 16.5t34.5 47.5t25 76t22.5 102l10 47q11 51 18 92.5t7 72.5q0 38 -14 57.5t-50 19.5q-31 0 -51 -16.5t-34.5 -47.5t-25 -76t-22.5 -102l-10 -47q-11 -51 -18 -92.5t-7 -72.5zM548 295q-18 -83 -41 -141t-57 -95.5t-82.5 -54.5
t-116.5 -17q-117 0 -169 49.5t-52 155.5q0 69 21 162l16 76q17 82 40 140.5t57.5 96t83 54.5t116.5 17q116 0 168 -49.5t52 -155.5q0 -35 -5 -74.5t-15 -87.5zM253 888h134l-24 -113h-134zM451 888h133l-24 -113h-133z" />
    <glyph glyph-name="multiply" unicode="&#xd7;" 
d="M41 114l150 150l-152 153l82 83l153 -154l152 152l82 -82l-152 -152l152 -152l-82 -82l-153 152l-152 -152z" />
    <glyph glyph-name="Oslash" unicode="&#xd8;" horiz-adv-x="575" 
d="M4 -60l68 106q-42 49 -42 146q0 69 21 162l16 76q17 82 40 140.5t57.5 96t83 54.5t116.5 17q86 0 135 -26l55 86h57l-74 -115q47 -50 47 -150q0 -35 -5 -74.5t-15 -87.5l-16 -76q-18 -83 -41 -141t-57 -95.5t-82.5 -54.5t-116.5 -17q-89 0 -141 29l-49 -76h-57zM398 386
q6 32 11.5 60t9.5 52l-226 -352q9 -49 62 -49q31 0 51 16.5t34.5 47.5t25 76t22.5 102zM216 339q-6 -27 -10.5 -51.5t-8.5 -46.5l222 346q-6 20 -20 30.5t-40 10.5q-31 0 -51 -16.5t-34.5 -47.5t-25 -76t-22.5 -102z" />
    <glyph glyph-name="Ugrave" unicode="&#xd9;" horiz-adv-x="561" 
d="M187 888h189l77 -113h-133zM522 293q-19 -90 -40 -149t-54 -94t-82.5 -49t-124.5 -14q-54 0 -91 7t-60 23.5t-33.5 43t-10.5 66.5q0 32 6 73t17 93l92 432h159l-93 -439q-9 -43 -15 -75.5t-6 -55.5q0 -29 12.5 -43.5t44.5 -14.5q29 0 47.5 11.5t31 35t21.5 59t19 83.5
l93 439h159z" />
    <glyph glyph-name="Uacute" unicode="&#xda;" horiz-adv-x="561" 
d="M399 888h188l-134 -113h-133zM522 293q-19 -90 -40 -149t-54 -94t-82.5 -49t-124.5 -14q-54 0 -91 7t-60 23.5t-33.5 43t-10.5 66.5q0 32 6 73t17 93l92 432h159l-93 -439q-9 -43 -15 -75.5t-6 -55.5q0 -29 12.5 -43.5t44.5 -14.5q29 0 47.5 11.5t31 35t21.5 59t19 83.5
l93 439h159z" />
    <glyph glyph-name="Ucircumflex" unicode="&#xdb;" horiz-adv-x="561" 
d="M522 293q-19 -90 -40 -149t-54 -94t-82.5 -49t-124.5 -14q-54 0 -91 7t-60 23.5t-33.5 43t-10.5 66.5q0 32 6 73t17 93l92 432h159l-93 -439q-9 -43 -15 -75.5t-6 -55.5q0 -29 12.5 -43.5t44.5 -14.5q29 0 47.5 11.5t31 35t21.5 59t19 83.5l93 439h159zM344 888h138
l95 -113h-145l-30 50l-49 -50h-146z" />
    <glyph glyph-name="Udieresis" unicode="&#xdc;" horiz-adv-x="561" 
d="M250 888h134l-24 -113h-134zM448 888h133l-24 -113h-133zM522 293q-19 -90 -40 -149t-54 -94t-82.5 -49t-124.5 -14q-54 0 -91 7t-60 23.5t-33.5 43t-10.5 66.5q0 32 6 73t17 93l92 432h159l-93 -439q-9 -43 -15 -75.5t-6 -55.5q0 -29 12.5 -43.5t44.5 -14.5
q29 0 47.5 11.5t31 35t21.5 59t19 83.5l93 439h159z" />
    <glyph glyph-name="Yacute" unicode="&#xdd;" horiz-adv-x="521" 
d="M372 888h188l-134 -113h-133zM186 303l-89 422h143l46 -282l168 282h164l-273 -424l-64 -301h-159z" />
    <glyph glyph-name="Thorn" unicode="&#xde;" horiz-adv-x="518" 
d="M151 725h159l-32 -150h17q63 0 109 -6.5t76 -24.5t44.5 -49t14.5 -79q0 -65 -18.5 -116.5t-54.5 -87.5t-89 -55.5t-122 -19.5h-70l-29 -137h-159zM252 244q35 0 59.5 11.5t39.5 32t22 49t7 61.5q0 23 -6.5 37t-19 21.5t-32.5 10t-47 2.5h-19l-48 -225h44z" />
    <glyph glyph-name="germandbls" unicode="&#xdf;" horiz-adv-x="538" 
d="M99 527q13 64 36 105t55 64.5t72.5 32.5t90.5 9q42 0 78.5 -8.5t64 -26t43 -43t15.5 -59.5q0 -48 -12.5 -81.5t-32 -56t-42 -35.5t-41.5 -20q33 -11 57 -39t24 -83q0 -59 -15 -111t-46.5 -91t-81.5 -61.5t-119 -22.5h-60l20 94h43q27 0 47 13.5t33 37.5t19 57t6 72
q0 35 -15 55.5t-49 20.5h-31l21 95h24q44 0 70 37.5t26 100.5q0 26 -12.5 41.5t-42.5 15.5q-35 0 -56 -22t-33 -81l-114 -537h-154z" />
    <glyph glyph-name="agrave" unicode="&#xe0;" horiz-adv-x="482" 
d="M256 62q-29 -41 -61 -58t-79 -17q-58 0 -91 33.5t-33 89.5q0 11 1 21.5t4 22.5l2 10q8 36 28 61t49 43q31 19 67.5 32t73.5 25l84 26l6 28q2 11 4 21t2 18q0 45 -48 45q-38 0 -54 -19t-25 -63l-1 -5h-133l1 5q17 88 70.5 130.5t156.5 42.5q37 0 70 -5t57.5 -19.5
t38.5 -41.5t14 -71q0 -36 -10 -82l-36 -169q-11 -51 -19 -89.5t-10 -76.5h-137zM143 122q0 -19 8.5 -30t31.5 -11q35 0 56.5 27.5t33.5 84.5l16 76q-13 -6 -27 -11l-25 -8q-43 -14 -62 -32.5t-25 -50.5l-4 -15q-3 -17 -3 -30zM186 725h175l37 -123h-115z" />
    <glyph glyph-name="aacute" unicode="&#xe1;" horiz-adv-x="482" 
d="M256 62q-29 -41 -61 -58t-79 -17q-58 0 -91 33.5t-33 89.5q0 11 1 21.5t4 22.5l2 10q8 36 28 61t49 43q31 19 67.5 32t73.5 25l84 26l6 28q2 11 4 21t2 18q0 45 -48 45q-38 0 -54 -19t-25 -63l-1 -5h-133l1 5q17 88 70.5 130.5t156.5 42.5q37 0 70 -5t57.5 -19.5
t38.5 -41.5t14 -71q0 -36 -10 -82l-36 -169q-11 -51 -19 -89.5t-10 -76.5h-137zM143 122q0 -19 8.5 -30t31.5 -11q35 0 56.5 27.5t33.5 84.5l16 76q-13 -6 -27 -11l-25 -8q-43 -14 -62 -32.5t-25 -50.5l-4 -15q-3 -17 -3 -30zM303 725h175l-148 -123h-116z" />
    <glyph glyph-name="acircumflex" unicode="&#xe2;" horiz-adv-x="482" 
d="M263 725h128l92 -123h-136l-35 52l-57 -52h-136zM256 62q-29 -41 -61 -58t-79 -17q-58 0 -91 33.5t-33 89.5q0 11 1 21.5t4 22.5l2 10q8 36 28 61t49 43q31 19 67.5 32t73.5 25l84 26l6 28q2 11 4 21t2 18q0 45 -48 45q-38 0 -54 -19t-25 -63l-1 -5h-133l1 5
q17 88 70.5 130.5t156.5 42.5q37 0 70 -5t57.5 -19.5t38.5 -41.5t14 -71q0 -36 -10 -82l-36 -169q-11 -51 -19 -89.5t-10 -76.5h-137zM143 122q0 -19 8.5 -30t31.5 -11q35 0 56.5 27.5t33.5 84.5l16 76q-13 -6 -27 -11l-25 -8q-43 -14 -62 -32.5t-25 -50.5l-4 -15
q-3 -17 -3 -30z" />
    <glyph glyph-name="atilde" unicode="&#xe3;" horiz-adv-x="482" 
d="M120 603q22 68 54.5 95t68.5 27q17 0 33.5 -5.5t31 -12t26.5 -12t21 -5.5q11 0 22 10.5t16 24.5h84q-22 -68 -53.5 -95t-61.5 -27q-15 0 -32 5t-34 11.5t-32.5 11.5t-26.5 5t-18 -8.5t-15 -24.5h-84zM256 62q-29 -41 -61 -58t-79 -17q-58 0 -91 33.5t-33 89.5
q0 11 1 21.5t4 22.5l2 10q8 36 28 61t49 43q31 19 67.5 32t73.5 25l84 26l6 28q2 11 4 21t2 18q0 45 -48 45q-38 0 -54 -19t-25 -63l-1 -5h-133l1 5q17 88 70.5 130.5t156.5 42.5q37 0 70 -5t57.5 -19.5t38.5 -41.5t14 -71q0 -36 -10 -82l-36 -169q-11 -51 -19 -89.5
t-10 -76.5h-137zM143 122q0 -19 8.5 -30t31.5 -11q35 0 56.5 27.5t33.5 84.5l16 76q-13 -6 -27 -11l-25 -8q-43 -14 -62 -32.5t-25 -50.5l-4 -15q-3 -17 -3 -30z" />
    <glyph glyph-name="adieresis" unicode="&#xe4;" horiz-adv-x="482" 
d="M170 725h133l-26 -123h-133zM370 725h134l-26 -123h-134zM256 62q-29 -41 -61 -58t-79 -17q-58 0 -91 33.5t-33 89.5q0 11 1 21.5t4 22.5l2 10q8 36 28 61t49 43q31 19 67.5 32t73.5 25l84 26l6 28q2 11 4 21t2 18q0 45 -48 45q-38 0 -54 -19t-25 -63l-1 -5h-133l1 5
q17 88 70.5 130.5t156.5 42.5q37 0 70 -5t57.5 -19.5t38.5 -41.5t14 -71q0 -36 -10 -82l-36 -169q-11 -51 -19 -89.5t-10 -76.5h-137zM143 122q0 -19 8.5 -30t31.5 -11q35 0 56.5 27.5t33.5 84.5l16 76q-13 -6 -27 -11l-25 -8q-43 -14 -62 -32.5t-25 -50.5l-4 -15
q-3 -17 -3 -30z" />
    <glyph glyph-name="aring" unicode="&#xe5;" horiz-adv-x="482" 
d="M419 678q0 -19 -7.5 -35.5t-20 -28.5t-30 -18.5t-37.5 -6.5t-37.5 6.5t-30 18.5t-20 28.5t-7.5 35.5q0 39 28 64.5t67 25.5t67 -25.5t28 -64.5zM283 678q0 -17 12 -28.5t29 -11.5t29 11.5t12 28.5q0 18 -12 29.5t-29 11.5t-29 -11.5t-12 -29.5zM256 62q-29 -41 -61 -58
t-79 -17q-58 0 -91 33.5t-33 89.5q0 11 1 21.5t4 22.5l2 10q8 36 28 61t49 43q31 19 67.5 32t73.5 25l84 26l6 28q2 11 4 21t2 18q0 45 -48 45q-38 0 -54 -19t-25 -63l-1 -5h-133l1 5q17 88 70.5 130.5t156.5 42.5q37 0 70 -5t57.5 -19.5t38.5 -41.5t14 -71q0 -36 -10 -82
l-36 -169q-11 -51 -19 -89.5t-10 -76.5h-137zM143 122q0 -19 8.5 -30t31.5 -11q35 0 56.5 27.5t33.5 84.5l16 76q-13 -6 -27 -11l-25 -8q-43 -14 -62 -32.5t-25 -50.5l-4 -15q-3 -17 -3 -30z" />
    <glyph glyph-name="ae" unicode="&#xe6;" horiz-adv-x="749" 
d="M289 68q-21 -24 -41 -40t-41.5 -25t-45.5 -12.5t-54 -3.5q-58 0 -88 29t-30 81q0 11 1 22t4 23l2 11q13 59 62 97q28 22 68.5 37.5t92.5 32.5l85 25l10 46q3 13 3 24q0 20 -11.5 30t-37.5 10q-38 0 -54.5 -17t-26.5 -60l-1 -9h-134l2 9q19 87 79 127.5t157 40.5
q46 0 80 -12.5t51 -38.5q46 51 144 51q93 0 133.5 -39t40.5 -116q0 -47 -14 -112l-6 -29h-284l-8 -36q-9 -42 -9 -72q0 -28 10.5 -42.5t36.5 -14.5q14 0 27 3.5t24 13t19.5 27t14.5 45.5l1 4h145l-1 -5q-11 -54 -37 -89.5t-61 -57t-75 -30.5t-80 -9q-69 0 -108.5 24.5
t-44.5 56.5zM144 121q0 -20 9 -30.5t32 -10.5q36 0 56.5 26.5t33.5 82.5q1 6 1.5 10t2 11t4.5 19.5t8 35.5q-14 -6 -27 -10.5t-25 -9.5q-44 -14 -63 -33t-25 -51l-3 -13q-4 -13 -4 -27zM594 330l5 25q4 19 4 36q0 59 -55 59q-42 0 -61.5 -25t-28.5 -67l-6 -28h142z" />
    <glyph glyph-name="ccedilla" unicode="&#xe7;" horiz-adv-x="464" 
d="M430 186q-12 -58 -33 -96.5t-50.5 -61t-65.5 -32t-77 -9.5q-94 0 -142 44.5t-48 129.5q0 32 8 75l19 87q12 60 31.5 103t49 71.5t70.5 42t97 13.5q86 0 134 -38.5t48 -110.5q0 -12 -1.5 -24t-3.5 -26l-1 -5h-143l1 4q7 27 7 49q0 31 -14.5 41.5t-35.5 10.5t-35 -10.5
t-24 -31t-17.5 -50t-15.5 -68.5l-10 -47q-7 -32 -10.5 -57.5t-3.5 -45.5q0 -29 11 -43.5t38 -14.5q12 0 23 4t20 14.5t17 30t14 51.5l1 6h143zM278 -99q0 -21 -12.5 -39t-33.5 -30.5t-48 -19.5t-55 -7q-24 0 -48 3.5t-44 11.5l27 50q10 -6 26.5 -10t33.5 -4q24 0 41.5 9
t17.5 26q0 10 -9.5 15.5t-25.5 5.5q-9 0 -20 -2t-21 -7l-26 17l69 82h58l-44 -50q18 3 40 3q29 0 51.5 -13.5t22.5 -40.5z" />
    <glyph glyph-name="egrave" unicode="&#xe8;" horiz-adv-x="492" 
d="M440 175q-11 -55 -34 -91t-54.5 -57.5t-69 -30.5t-76.5 -9q-94 0 -143 45t-49 130q0 17 2 35.5t6 38.5l19 87q12 60 31.5 103t49 71.5t70.5 42t97 13.5q97 0 144 -41.5t47 -129.5q0 -22 -3.5 -46.5t-9.5 -52.5l-6 -29h-283l-1 -7q-6 -30 -9.5 -54.5t-3.5 -43.5
q0 -32 11.5 -47.5t39.5 -15.5q14 0 26.5 3t22.5 13t18 27t14 46l1 6h144zM196 336h142l2 9q6 27 6 47q0 34 -16.5 49t-48.5 15q-21 0 -35.5 -10t-23.5 -26t-14.5 -35.5t-9.5 -38.5zM181 725h175l37 -123h-115z" />
    <glyph glyph-name="eacute" unicode="&#xe9;" horiz-adv-x="492" 
d="M440 175q-11 -55 -34 -91t-54.5 -57.5t-69 -30.5t-76.5 -9q-94 0 -143 45t-49 130q0 17 2 35.5t6 38.5l19 87q12 60 31.5 103t49 71.5t70.5 42t97 13.5q97 0 144 -41.5t47 -129.5q0 -22 -3.5 -46.5t-9.5 -52.5l-6 -29h-283l-1 -7q-6 -30 -9.5 -54.5t-3.5 -43.5
q0 -32 11.5 -47.5t39.5 -15.5q14 0 26.5 3t22.5 13t18 27t14 46l1 6h144zM196 336h142l2 9q6 27 6 47q0 34 -16.5 49t-48.5 15q-21 0 -35.5 -10t-23.5 -26t-14.5 -35.5t-9.5 -38.5zM329 725h175l-148 -123h-116z" />
    <glyph glyph-name="ecircumflex" unicode="&#xea;" horiz-adv-x="492" 
d="M267 725h128l92 -123h-136l-35 52l-57 -52h-136zM440 175q-11 -55 -34 -91t-54.5 -57.5t-69 -30.5t-76.5 -9q-94 0 -143 45t-49 130q0 17 2 35.5t6 38.5l19 87q12 60 31.5 103t49 71.5t70.5 42t97 13.5q97 0 144 -41.5t47 -129.5q0 -22 -3.5 -46.5t-9.5 -52.5l-6 -29
h-283l-1 -7q-6 -30 -9.5 -54.5t-3.5 -43.5q0 -32 11.5 -47.5t39.5 -15.5q14 0 26.5 3t22.5 13t18 27t14 46l1 6h144zM196 336h142l2 9q6 27 6 47q0 34 -16.5 49t-48.5 15q-21 0 -35.5 -10t-23.5 -26t-14.5 -35.5t-9.5 -38.5z" />
    <glyph glyph-name="edieresis" unicode="&#xeb;" horiz-adv-x="492" 
d="M440 175q-11 -55 -34 -91t-54.5 -57.5t-69 -30.5t-76.5 -9q-94 0 -143 45t-49 130q0 17 2 35.5t6 38.5l19 87q12 60 31.5 103t49 71.5t70.5 42t97 13.5q97 0 144 -41.5t47 -129.5q0 -22 -3.5 -46.5t-9.5 -52.5l-6 -29h-283l-1 -7q-6 -30 -9.5 -54.5t-3.5 -43.5
q0 -32 11.5 -47.5t39.5 -15.5q14 0 26.5 3t22.5 13t18 27t14 46l1 6h144zM196 336h142l2 9q6 27 6 47q0 34 -16.5 49t-48.5 15q-21 0 -35.5 -10t-23.5 -26t-14.5 -35.5t-9.5 -38.5zM182 725h133l-26 -123h-133zM382 725h134l-26 -123h-134z" />
    <glyph glyph-name="igrave" unicode="&#xec;" horiz-adv-x="239" 
d="M42 725h175l37 -123h-115zM100 538h154l-114 -538h-154z" />
    <glyph glyph-name="iacute" unicode="&#xed;" horiz-adv-x="239" 
d="M221 725h175l-148 -123h-116zM100 538h154l-114 -538h-154z" />
    <glyph glyph-name="icircumflex" unicode="&#xee;" horiz-adv-x="239" 
d="M152 725h128l82 -123h-136l-25 52l-47 -52h-136zM100 538h154l-114 -538h-154z" />
    <glyph glyph-name="idieresis" unicode="&#xef;" horiz-adv-x="239" 
d="M52 725h133l-26 -123h-133zM248 725h134l-26 -123h-134zM100 538h154l-114 -538h-154z" />
    <glyph glyph-name="eth" unicode="&#xf0;" horiz-adv-x="498" 
d="M150 597l79 42q-23 15 -41.5 26t-25.5 15l110 58q17 -9 33 -19.5t31 -21.5l71 38l52 -28l-84 -45q53 -54 81 -124.5t28 -156.5q0 -20 -1.5 -41.5t-5.5 -44.5l-15 -70q-26 -118 -92 -178t-180 -60q-179 0 -179 157q0 36 9 81l17 82q25 118 91.5 178.5t180.5 60.5
q11 0 21 -1t19 -3l2 2q-11 13 -31.5 30t-45.5 34l-72 -38zM165 139q0 -26 10 -40t36 -14q22 0 37 10.5t25.5 30.5t18.5 49.5t16 67.5l9 46q8 33 12.5 59.5t4.5 46.5q0 26 -10 39.5t-36 13.5q-23 0 -38 -10.5t-25.5 -31t-18.5 -50t-16 -67.5l-9 -46q-7 -32 -11.5 -58
t-4.5 -46z" />
    <glyph glyph-name="ntilde" unicode="&#xf1;" horiz-adv-x="507" 
d="M145 603q22 68 54.5 95t68.5 27q17 0 33.5 -5.5t31 -12t26.5 -12t21 -5.5q11 0 22 10.5t16 24.5h84q-22 -68 -53.5 -95t-61.5 -27q-15 0 -32 5t-34 11.5t-32.5 11.5t-26.5 5t-18 -8.5t-15 -24.5h-84zM100 538h154l-14 -66q28 42 61 61.5t80 19.5q52 0 83 -26.5t31 -91.5
q0 -18 -2.5 -39t-7.5 -45l-75 -351h-154l67 317q5 26 9.5 46.5t4.5 37.5q0 22 -8 34.5t-28 12.5q-22 0 -38 -13.5t-27.5 -36.5t-20 -52.5t-15.5 -61.5l-60 -284h-154z" />
    <glyph glyph-name="ograve" unicode="&#xf2;" horiz-adv-x="494" 
d="M172 725h175l37 -123h-115zM165 147q0 -31 11.5 -46.5t39.5 -15.5q21 0 35 11t23.5 31.5t16.5 50.5t15 69l9 45q6 31 10.5 56.5t4.5 44.5q0 31 -11.5 46t-39.5 15q-21 0 -35 -10.5t-23.5 -31t-16.5 -50.5t-15 -69l-10 -47q-6 -31 -10 -55.5t-4 -43.5zM455 218
q-13 -60 -32 -104t-48.5 -72.5t-70.5 -42t-97 -13.5q-94 0 -143.5 45t-49.5 130q0 17 2 35.5t6 38.5l18 87q13 60 32.5 103.5t48.5 72t70.5 42t97.5 13.5q94 0 143 -44.5t49 -129.5q0 -17 -2 -36.5t-6 -39.5z" />
    <glyph glyph-name="oacute" unicode="&#xf3;" horiz-adv-x="494" 
d="M349 725h175l-148 -123h-116zM165 147q0 -31 11.5 -46.5t39.5 -15.5q21 0 35 11t23.5 31.5t16.5 50.5t15 69l9 45q6 31 10.5 56.5t4.5 44.5q0 31 -11.5 46t-39.5 15q-21 0 -35 -10.5t-23.5 -31t-16.5 -50.5t-15 -69l-10 -47q-6 -31 -10 -55.5t-4 -43.5zM455 218
q-13 -60 -32 -104t-48.5 -72.5t-70.5 -42t-97 -13.5q-94 0 -143.5 45t-49.5 130q0 17 2 35.5t6 38.5l18 87q13 60 32.5 103.5t48.5 72t70.5 42t97.5 13.5q94 0 143 -44.5t49 -129.5q0 -17 -2 -36.5t-6 -39.5z" />
    <glyph glyph-name="ocircumflex" unicode="&#xf4;" horiz-adv-x="494" 
d="M165 147q0 -31 11.5 -46.5t39.5 -15.5q21 0 35 11t23.5 31.5t16.5 50.5t15 69l9 45q6 31 10.5 56.5t4.5 44.5q0 31 -11.5 46t-39.5 15q-21 0 -35 -10.5t-23.5 -31t-16.5 -50.5t-15 -69l-10 -47q-6 -31 -10 -55.5t-4 -43.5zM455 218q-13 -60 -32 -104t-48.5 -72.5
t-70.5 -42t-97 -13.5q-94 0 -143.5 45t-49.5 130q0 17 2 35.5t6 38.5l18 87q13 60 32.5 103.5t48.5 72t70.5 42t97.5 13.5q94 0 143 -44.5t49 -129.5q0 -17 -2 -36.5t-6 -39.5zM282 725h128l92 -123h-136l-35 52l-57 -52h-136z" />
    <glyph glyph-name="otilde" unicode="&#xf5;" horiz-adv-x="494" 
d="M165 147q0 -31 11.5 -46.5t39.5 -15.5q21 0 35 11t23.5 31.5t16.5 50.5t15 69l9 45q6 31 10.5 56.5t4.5 44.5q0 31 -11.5 46t-39.5 15q-21 0 -35 -10.5t-23.5 -31t-16.5 -50.5t-15 -69l-10 -47q-6 -31 -10 -55.5t-4 -43.5zM455 218q-13 -60 -32 -104t-48.5 -72.5
t-70.5 -42t-97 -13.5q-94 0 -143.5 45t-49.5 130q0 17 2 35.5t6 38.5l18 87q13 60 32.5 103.5t48.5 72t70.5 42t97.5 13.5q94 0 143 -44.5t49 -129.5q0 -17 -2 -36.5t-6 -39.5zM155 603q22 68 54.5 95t68.5 27q17 0 33.5 -5.5t31 -12t26.5 -12t21 -5.5q11 0 22 10.5t16 24.5
h84q-22 -68 -53.5 -95t-61.5 -27q-15 0 -32 5t-34 11.5t-32.5 11.5t-26.5 5t-18 -8.5t-15 -24.5h-84z" />
    <glyph glyph-name="odieresis" unicode="&#xf6;" horiz-adv-x="494" 
d="M165 147q0 -31 11.5 -46.5t39.5 -15.5q21 0 35 11t23.5 31.5t16.5 50.5t15 69l9 45q6 31 10.5 56.5t4.5 44.5q0 31 -11.5 46t-39.5 15q-21 0 -35 -10.5t-23.5 -31t-16.5 -50.5t-15 -69l-10 -47q-6 -31 -10 -55.5t-4 -43.5zM455 218q-13 -60 -32 -104t-48.5 -72.5
t-70.5 -42t-97 -13.5q-94 0 -143.5 45t-49.5 130q0 17 2 35.5t6 38.5l18 87q13 60 32.5 103.5t48.5 72t70.5 42t97.5 13.5q94 0 143 -44.5t49 -129.5q0 -17 -2 -36.5t-6 -39.5zM185 725h133l-26 -123h-133zM385 725h134l-26 -123h-134z" />
    <glyph glyph-name="divide" unicode="&#xf7;" 
d="M193 163h160v-151h-160v151zM43 327h462v-116h-462v116zM193 525h160v-150h-160v150z" />
    <glyph glyph-name="oslash" unicode="&#xf8;" horiz-adv-x="498" 
d="M3 -60l59 92q-48 45 -48 129q0 17 2 35.5t6 38.5l18 87q13 60 32.5 103.5t48.5 72t70.5 42t97.5 13.5q57 0 98 -18l48 75h52l-62 -97q56 -45 56 -134q0 -17 -2 -36.5t-6 -39.5l-18 -85q-13 -60 -32 -104t-48.5 -72.5t-70.5 -42t-97 -13.5q-32 0 -59 5.5t-49 15.5l-43 -67
h-53zM315 292q4 20 7 37.5t5 32.5l-158 -247q9 -30 47 -30q21 0 35 11t23.5 31.5t16.5 50.5t15 69zM179 246q-3 -13 -5 -24.5t-4 -22.5l151 235q-12 20 -42 20q-21 0 -35 -10.5t-23.5 -31t-16.5 -50.5t-15 -69z" />
    <glyph glyph-name="ugrave" unicode="&#xf9;" horiz-adv-x="503" 
d="M177 725h175l37 -123h-115zM258 66q-27 -42 -60 -60.5t-81 -18.5q-51 0 -78.5 24t-27.5 85q0 37 12 91l74 351h154l-67 -317q-6 -28 -11 -51t-5 -40q0 -18 6.5 -27.5t23.5 -9.5q22 0 37.5 13t27.5 35.5t20 51.5t15 61l60 284h153l-108 -538h-159z" />
    <glyph glyph-name="uacute" unicode="&#xfa;" horiz-adv-x="503" 
d="M349 725h175l-148 -123h-116zM258 66q-27 -42 -60 -60.5t-81 -18.5q-51 0 -78.5 24t-27.5 85q0 37 12 91l74 351h154l-67 -317q-6 -28 -11 -51t-5 -40q0 -18 6.5 -27.5t23.5 -9.5q22 0 37.5 13t27.5 35.5t20 51.5t15 61l60 284h153l-108 -538h-159z" />
    <glyph glyph-name="ucircumflex" unicode="&#xfb;" horiz-adv-x="503" 
d="M273 725h128l92 -123h-136l-35 52l-57 -52h-136zM258 66q-27 -42 -60 -60.5t-81 -18.5q-51 0 -78.5 24t-27.5 85q0 37 12 91l74 351h154l-67 -317q-6 -28 -11 -51t-5 -40q0 -18 6.5 -27.5t23.5 -9.5q22 0 37.5 13t27.5 35.5t20 51.5t15 61l60 284h153l-108 -538h-159z
" />
    <glyph glyph-name="udieresis" unicode="&#xfc;" horiz-adv-x="503" 
d="M176 725h133l-26 -123h-133zM376 725h134l-26 -123h-134zM258 66q-27 -42 -60 -60.5t-81 -18.5q-51 0 -78.5 24t-27.5 85q0 37 12 91l74 351h154l-67 -317q-6 -28 -11 -51t-5 -40q0 -18 6.5 -27.5t23.5 -9.5q22 0 37.5 13t27.5 35.5t20 51.5t15 61l60 284h153l-108 -538
h-159z" />
    <glyph glyph-name="yacute" unicode="&#xfd;" horiz-adv-x="430" 
d="M321 725h175l-148 -123h-116zM-19 -81h37q34 0 47.5 14t25.5 42l12 27l-46 536h140l11 -390l140 390h144l-235 -538q-23 -53 -42.5 -86.5t-44.5 -53.5t-59.5 -27.5t-87.5 -7.5h-62z" />
    <glyph glyph-name="thorn" unicode="&#xfe;" horiz-adv-x="520" 
d="M140 725h154l-52 -246q22 34 56 54.5t79 20.5q64 0 98.5 -38t34.5 -115q0 -21 -3 -44.5t-8 -49.5l-15 -71q-14 -65 -31.5 -112t-42 -77.5t-57 -45t-76.5 -14.5q-43 0 -76 22t-45 64l-53 -248h-154zM178 164q0 -35 12.5 -54t44.5 -19q21 0 36 11t25.5 32.5t18.5 52.5
t17 72l5 25q7 32 11 57.5t4 45.5q0 31 -11.5 47t-40.5 16q-40 0 -65 -47.5t-42 -131.5q-7 -32 -11 -59t-4 -48z" />
    <glyph glyph-name="ydieresis" unicode="&#xff;" horiz-adv-x="430" 
d="M153 725h133l-26 -123h-133zM353 725h134l-26 -123h-134zM-19 -81h37q34 0 47.5 14t25.5 42l12 27l-46 536h140l11 -390l140 390h144l-235 -538q-23 -53 -42.5 -86.5t-44.5 -53.5t-59.5 -27.5t-87.5 -7.5h-62z" />
    <glyph glyph-name="Abreve" unicode="&#x102;" 
d="M274 725h192l20 -725h-155l2 152h-163l-61 -152h-161zM210 253h124l4 318zM571 888q-12 -53 -50.5 -83t-115.5 -30q-69 0 -113.5 24t-44.5 69q0 9 3 20h109q-1 -3 -1 -8q0 -22 19 -30t37 -8q40 0 48 46h109z" />
    <glyph glyph-name="Amacron" unicode="&#x100;" 
d="M274 725h192l20 -725h-155l2 152h-163l-61 -152h-161zM210 253h124l4 318zM282 883h253l-22 -103h-253z" />
    <glyph glyph-name="Aogonek" unicode="&#x104;" 
d="M274 725h192l20 -725q-50 -22 -79.5 -39.5t-29.5 -42.5q0 -14 11 -19t27 -5q13 0 25 2t23 4l-17 -79q-20 -5 -44 -7t-42 -2q-25 0 -47 4t-38.5 13t-26 23t-9.5 33q0 32 26 63.5t66 51.5l2 152h-163l-61 -152h-161zM210 253h124l4 318z" />
    <glyph glyph-name="Cacute" unicode="&#x106;" horiz-adv-x="541" 
d="M512 233q-15 -65 -35 -111.5t-50.5 -76.5t-73.5 -44t-104 -14q-116 0 -167.5 49t-51.5 154q0 69 21 164l16 76q17 82 40.5 140.5t58 96t83.5 54.5t117 17q98 0 154 -40.5t56 -129.5q0 -17 -3.5 -40t-5.5 -36l-2 -10h-158l2 10q1 5 3 14.5t3.5 20t2.5 21t1 17.5
q0 36 -15.5 49.5t-44.5 13.5q-31 0 -51 -16.5t-34.5 -47.5t-25 -76t-22.5 -102l-10 -47q-11 -51 -18 -92.5t-7 -72.5q0 -37 14.5 -57t49.5 -20q20 0 34.5 6t26 21.5t20.5 41.5t18 67l2 10h158zM399 888h188l-134 -113h-133z" />
    <glyph glyph-name="Ccaron" unicode="&#x10c;" horiz-adv-x="541" 
d="M297 775l-92 113h145l29 -49l50 49h146l-140 -113h-138zM512 233q-15 -65 -35 -111.5t-50.5 -76.5t-73.5 -44t-104 -14q-116 0 -167.5 49t-51.5 154q0 69 21 164l16 76q17 82 40.5 140.5t58 96t83.5 54.5t117 17q98 0 154 -40.5t56 -129.5q0 -17 -3.5 -40t-5.5 -36
l-2 -10h-158l2 10q1 5 3 14.5t3.5 20t2.5 21t1 17.5q0 36 -15.5 49.5t-44.5 13.5q-31 0 -51 -16.5t-34.5 -47.5t-25 -76t-22.5 -102l-10 -47q-11 -51 -18 -92.5t-7 -72.5q0 -37 14.5 -57t49.5 -20q20 0 34.5 6t26 21.5t20.5 41.5t18 67l2 10h158z" />
    <glyph glyph-name="Ccircumflex" unicode="&#x108;" horiz-adv-x="541" 
d="M512 233q-15 -65 -35 -111.5t-50.5 -76.5t-73.5 -44t-104 -14q-116 0 -167.5 49t-51.5 154q0 69 21 164l16 76q17 82 40.5 140.5t58 96t83.5 54.5t117 17q98 0 154 -40.5t56 -129.5q0 -17 -3.5 -40t-5.5 -36l-2 -10h-158l2 10q1 5 3 14.5t3.5 20t2.5 21t1 17.5
q0 36 -15.5 49.5t-44.5 13.5q-31 0 -51 -16.5t-34.5 -47.5t-25 -76t-22.5 -102l-10 -47q-11 -51 -18 -92.5t-7 -72.5q0 -37 14.5 -57t49.5 -20q20 0 34.5 6t26 21.5t20.5 41.5t18 67l2 10h158zM341 888h138l95 -113h-145l-30 50l-49 -50h-146z" />
    <glyph glyph-name="Cdotaccent" unicode="&#x10a;" horiz-adv-x="541" 
d="M512 233q-15 -65 -35 -111.5t-50.5 -76.5t-73.5 -44t-104 -14q-116 0 -167.5 49t-51.5 154q0 69 21 164l16 76q17 82 40.5 140.5t58 96t83.5 54.5t117 17q98 0 154 -40.5t56 -129.5q0 -17 -3.5 -40t-5.5 -36l-2 -10h-158l2 10q1 5 3 14.5t3.5 20t2.5 21t1 17.5
q0 36 -15.5 49.5t-44.5 13.5q-31 0 -51 -16.5t-34.5 -47.5t-25 -76t-22.5 -102l-10 -47q-11 -51 -18 -92.5t-7 -72.5q0 -37 14.5 -57t49.5 -20q20 0 34.5 6t26 21.5t20.5 41.5t18 67l2 10h158zM337 888h159l-24 -113h-159z" />
    <glyph glyph-name="Dcaron" unicode="&#x10e;" horiz-adv-x="566" 
d="M292 775l-92 113h145l29 -49l50 49h146l-140 -113h-138zM229 107q37 0 61 15t40 44t27 72.5t23 100.5l10 47q10 49 16.5 87.5t6.5 67.5q0 38 -16 58t-59 20h-50l-109 -512h50zM151 725h192q124 0 178.5 -45t54.5 -147q0 -68 -21 -162l-16 -76q-17 -83 -39.5 -139t-58 -91
t-89 -50t-132.5 -15h-223z" />
    <glyph glyph-name="Dcroat" unicode="&#x110;" horiz-adv-x="576" 
d="M31 424h66l64 301h192q124 0 178.5 -45t54.5 -147q0 -68 -21 -162l-16 -76q-17 -83 -39.5 -139t-58 -91t-89 -50t-132.5 -15h-223l65 308h-66zM239 107q37 0 61 15t40 44t27 72.5t23 100.5l10 47q10 49 16.5 87.5t6.5 67.5q0 38 -16 58t-59 20h-50l-42 -195h82l-25 -116
h-81l-43 -201h50z" />
    <glyph glyph-name="Ebreve" unicode="&#x114;" horiz-adv-x="475" 
d="M151 725h399l-25 -116h-239l-38 -180h217l-24 -116h-218l-42 -197h240l-25 -116h-399zM550 888q-12 -53 -50.5 -83t-115.5 -30q-69 0 -113.5 24t-44.5 69q0 9 3 20h109q-1 -3 -1 -8q0 -22 19 -30t37 -8q40 0 48 46h109z" />
    <glyph glyph-name="Ecaron" unicode="&#x11a;" horiz-adv-x="475" 
d="M292 775l-92 113h145l29 -49l50 49h146l-140 -113h-138zM151 725h399l-25 -116h-239l-38 -180h217l-24 -116h-218l-42 -197h240l-25 -116h-399z" />
    <glyph glyph-name="Emacron" unicode="&#x112;" horiz-adv-x="475" 
d="M262 883h253l-22 -103h-253zM151 725h399l-25 -116h-239l-38 -180h217l-24 -116h-218l-42 -197h240l-25 -116h-399z" />
    <glyph glyph-name="Eogonek" unicode="&#x118;" horiz-adv-x="475" 
d="M357 -180q-20 -4 -44 -6t-41 -2q-25 0 -47 5t-38.5 15t-26.5 24t-10 32q0 40 23 66t63 46h159q-50 -22 -78.5 -40.5t-28.5 -41.5q0 -14 11.5 -19t27.5 -5q12 0 24 2t23 4zM151 725h399l-25 -116h-239l-38 -180h217l-24 -116h-218l-42 -197h240l-25 -116h-399z" />
    <glyph glyph-name="Edotaccent" unicode="&#x116;" horiz-adv-x="475" 
d="M151 725h399l-25 -116h-239l-38 -180h217l-24 -116h-218l-42 -197h240l-25 -116h-399zM308 888h159l-24 -113h-159z" />
    <glyph glyph-name="Gbreve" unicode="&#x11e;" horiz-adv-x="579" 
d="M375 80q-13 -21 -27.5 -38.5t-33.5 -29.5t-44.5 -18.5t-59.5 -6.5q-93 0 -137 47.5t-44 149.5q0 35 5.5 77.5t16.5 92.5l16 76q17 82 40.5 140.5t58 96t83.5 54.5t117 17q98 0 154 -40.5t56 -129.5q0 -34 -9 -76l-2 -10h-158l2 10q10 47 10 73q0 36 -15.5 49.5
t-44.5 13.5q-31 0 -51 -16.5t-34.5 -47.5t-25 -76t-22.5 -102l-10 -47q-11 -51 -18 -92.5t-7 -72.5q0 -37 14.5 -57t49.5 -20q54 0 86.5 39.5t49.5 119.5l5 24h-123l22 105h260l-82 -385h-111zM586 888q-12 -53 -50.5 -83t-115.5 -30q-69 0 -113.5 24t-44.5 69q0 9 3 20h109
q-1 -3 -1 -8q0 -22 19 -30t37 -8q40 0 48 46h109z" />
    <glyph glyph-name="Gcircumflex" unicode="&#x11c;" horiz-adv-x="579" 
d="M346 888h138l95 -113h-145l-30 50l-49 -50h-146zM375 80q-13 -21 -27.5 -38.5t-33.5 -29.5t-44.5 -18.5t-59.5 -6.5q-93 0 -137 47.5t-44 149.5q0 35 5.5 77.5t16.5 92.5l16 76q17 82 40.5 140.5t58 96t83.5 54.5t117 17q98 0 154 -40.5t56 -129.5q0 -34 -9 -76l-2 -10
h-158l2 10q10 47 10 73q0 36 -15.5 49.5t-44.5 13.5q-31 0 -51 -16.5t-34.5 -47.5t-25 -76t-22.5 -102l-10 -47q-11 -51 -18 -92.5t-7 -72.5q0 -37 14.5 -57t49.5 -20q54 0 86.5 39.5t49.5 119.5l5 24h-123l22 105h260l-82 -385h-111z" />
    <glyph glyph-name="uni0122" unicode="&#x122;" horiz-adv-x="579" 
d="M173 -149h-35l21 99h120l-22 -106l-64 -87h-79zM375 80q-13 -21 -27.5 -38.5t-33.5 -29.5t-44.5 -18.5t-59.5 -6.5q-93 0 -137 47.5t-44 149.5q0 35 5.5 77.5t16.5 92.5l16 76q17 82 40.5 140.5t58 96t83.5 54.5t117 17q98 0 154 -40.5t56 -129.5q0 -34 -9 -76l-2 -10
h-158l2 10q10 47 10 73q0 36 -15.5 49.5t-44.5 13.5q-31 0 -51 -16.5t-34.5 -47.5t-25 -76t-22.5 -102l-10 -47q-11 -51 -18 -92.5t-7 -72.5q0 -37 14.5 -57t49.5 -20q54 0 86.5 39.5t49.5 119.5l5 24h-123l22 105h260l-82 -385h-111z" />
    <glyph glyph-name="Gdotaccent" unicode="&#x120;" horiz-adv-x="579" 
d="M375 80q-13 -21 -27.5 -38.5t-33.5 -29.5t-44.5 -18.5t-59.5 -6.5q-93 0 -137 47.5t-44 149.5q0 35 5.5 77.5t16.5 92.5l16 76q17 82 40.5 140.5t58 96t83.5 54.5t117 17q98 0 154 -40.5t56 -129.5q0 -34 -9 -76l-2 -10h-158l2 10q10 47 10 73q0 36 -15.5 49.5
t-44.5 13.5q-31 0 -51 -16.5t-34.5 -47.5t-25 -76t-22.5 -102l-10 -47q-11 -51 -18 -92.5t-7 -72.5q0 -37 14.5 -57t49.5 -20q54 0 86.5 39.5t49.5 119.5l5 24h-123l22 105h260l-82 -385h-111zM336 888h159l-24 -113h-159z" />
    <glyph glyph-name="Hbar" unicode="&#x126;" horiz-adv-x="590" 
d="M71 635h61l19 90h159l-19 -90h164l19 90h159l-19 -90h59l-24 -114h-60l-110 -521h-159l67 313h-164l-67 -313h-159l110 521h-60zM411 429l19 92h-164l-19 -92h164z" />
    <glyph glyph-name="Hcircumflex" unicode="&#x124;" horiz-adv-x="590" 
d="M151 725h159l-63 -296h164l63 296h159l-154 -725h-159l67 313h-164l-67 -313h-159zM353 888h138l95 -113h-145l-30 50l-49 -50h-146z" />
    <glyph glyph-name="Ibreve" unicode="&#x12c;" horiz-adv-x="267" 
d="M415 888q-12 -53 -50.5 -83t-115.5 -30q-67 0 -102.5 23t-35.5 65q0 11 3 25h109q-1 -5 -1 -13q0 -20 10.5 -26.5t27.5 -6.5q38 0 46 46h109zM151 725h159l-154 -725h-159z" />
    <glyph glyph-name="Idotaccent" unicode="&#x130;" horiz-adv-x="267" 
d="M190 888h159l-24 -113h-159zM151 725h159l-154 -725h-159z" />
    <glyph glyph-name="Imacron" unicode="&#x12a;" horiz-adv-x="267" 
d="M141 883h247l-22 -103h-247zM151 725h159l-154 -725h-159z" />
    <glyph glyph-name="Iogonek" unicode="&#x12e;" horiz-adv-x="267" 
d="M151 725h159l-154 -725h-1q-50 -22 -78 -40.5t-28 -41.5q0 -14 11.5 -19t27.5 -5q12 0 24 2t23 4l-17 -80q-20 -4 -44 -6t-41 -2q-25 0 -47 5t-38.5 15t-26.5 24t-10 32q0 40 23 66t63 46z" />
    <glyph glyph-name="Itilde" unicode="&#x128;" horiz-adv-x="267" 
d="M70 775q15 39 33 61.5t37 34t37.5 14.5t34.5 3q20 0 31.5 -5.5t19.5 -12.5t16 -12.5t21 -5.5q14 0 26.5 8.5t19.5 27.5h97q-15 -38 -33 -60.5t-36.5 -34t-37.5 -15t-35 -3.5q-20 0 -32 5.5t-20.5 11.5t-16 11.5t-18.5 5.5q-15 0 -27.5 -7.5t-19.5 -26.5h-97zM151 725h159
l-154 -725h-159z" />
    <glyph glyph-name="uni1ECA" unicode="&#x1eca;" horiz-adv-x="267" 
d="M0 -57h133l-25 -118h-133zM151 725h159l-154 -725h-159z" />
    <glyph glyph-name="Jcircumflex" unicode="&#x134;" horiz-adv-x="467" 
d="M411 888h138l95 -113h-145l-30 50l-49 -50h-146zM411 204q-15 -70 -37.5 -112.5t-53 -66t-69 -31t-85.5 -7.5q-91 0 -140 42t-49 118q0 14 1.5 28.5t5.5 30.5l4 20h158l-4 -20q-6 -33 -6 -54q0 -31 11 -43t29 -12q15 0 26 4t20 16t16.5 33t14.5 56l110 519h159z" />
    <glyph glyph-name="uni0136" unicode="&#x136;" horiz-adv-x="566" 
d="M192 -149h-35l21 99h120l-22 -106l-64 -87h-79zM285 291l-90 -107l-39 -184h-159l154 725h159l-60 -282l237 282h162l-252 -301l116 -424h-148z" />
    <glyph glyph-name="Lacute" unicode="&#x139;" horiz-adv-x="464" 
d="M256 888h188l-134 -113h-133zM151 725h159l-129 -609h240l-25 -116h-399z" />
    <glyph glyph-name="Lcaron" unicode="&#x13d;" horiz-adv-x="464" 
d="M151 725h159l-129 -609h240l-25 -116h-399zM381 725h143l-100 -170h-103z" />
    <glyph glyph-name="uni013B" unicode="&#x13b;" horiz-adv-x="464" 
d="M144 -149h-35l21 99h120l-22 -106l-64 -87h-79zM151 725h159l-129 -609h240l-25 -116h-399z" />
    <glyph glyph-name="Ldot" unicode="&#x13f;" horiz-adv-x="464" 
d="M330 476h159l-24 -113h-159zM151 725h159l-129 -609h240l-25 -116h-399z" />
    <glyph glyph-name="Lslash" unicode="&#x141;" horiz-adv-x="496" 
d="M10 313l97 52l76 360h159l-56 -262l190 104l-27 -124l-189 -103l-47 -224h240l-25 -116h-399l51 242l-97 -53z" />
    <glyph glyph-name="Eng" unicode="&#x14a;" horiz-adv-x="590" 
d="M249 521l-111 -521h-141l154 725h184l62 -449l95 449h141l-154 -725q-11 -53 -27 -87t-40.5 -53.5t-61 -27t-89.5 -7.5h-79l25 117h46q21 0 35 1t23.5 5t15 13t8.5 25l3 14z" />
    <glyph glyph-name="Nacute" unicode="&#x143;" horiz-adv-x="590" 
d="M440 888h188l-134 -113h-133zM151 725h184l46 -521l111 521h141l-154 -725h-184l-46 521l-111 -521h-141z" />
    <glyph glyph-name="Ncaron" unicode="&#x147;" horiz-adv-x="590" 
d="M333 775l-92 113h145l29 -49l50 49h146l-140 -113h-138zM151 725h184l46 -521l111 521h141l-154 -725h-184l-46 521l-111 -521h-141z" />
    <glyph glyph-name="uni0145" unicode="&#x145;" horiz-adv-x="590" 
d="M166 -149h-35l21 99h120l-22 -106l-64 -87h-79zM151 725h184l46 -521l111 521h141l-154 -725h-184l-46 521l-111 -521h-141z" />
    <glyph glyph-name="OE" unicode="&#x152;" horiz-adv-x="804" 
d="M191 174q0 -37 14.5 -57t49.5 -20q31 0 51 16.5t34.5 47.5t25 76t22.5 102l10 47q11 51 18 92.5t7 72.5q0 38 -14 57.5t-50 19.5q-31 0 -51 -16.5t-34.5 -47.5t-25 -76t-22.5 -102l-10 -47q-11 -51 -18 -92.5t-7 -72.5zM548 295q-18 -83 -41 -141t-57 -95.5t-82.5 -54.5
t-116.5 -17q-117 0 -169 49.5t-52 155.5q0 69 21 162l16 76q17 82 40 140.5t57.5 96t83 54.5t116.5 17q116 0 168 -49.5t52 -155.5q0 -35 -5 -74.5t-15 -87.5zM481 725h399l-25 -116h-239l-38 -180h217l-24 -116h-218l-42 -197h240l-25 -116h-399z" />
    <glyph glyph-name="Obreve" unicode="&#x14e;" horiz-adv-x="575" 
d="M191 174q0 -37 14.5 -57t49.5 -20q31 0 51 16.5t34.5 47.5t25 76t22.5 102l10 47q11 51 18 92.5t7 72.5q0 38 -14 57.5t-50 19.5q-31 0 -51 -16.5t-34.5 -47.5t-25 -76t-22.5 -102l-10 -47q-11 -51 -18 -92.5t-7 -72.5zM548 295q-18 -83 -41 -141t-57 -95.5t-82.5 -54.5
t-116.5 -17q-117 0 -169 49.5t-52 155.5q0 69 21 162l16 76q17 82 40 140.5t57.5 96t83 54.5t116.5 17q116 0 168 -49.5t52 -155.5q0 -35 -5 -74.5t-15 -87.5zM584 888q-12 -53 -50.5 -83t-115.5 -30q-69 0 -113.5 24t-44.5 69q0 9 3 20h109q-1 -3 -1 -8q0 -22 19 -30t37 -8
q40 0 48 46h109z" />
    <glyph glyph-name="Ohungarumlaut" unicode="&#x150;" horiz-adv-x="575" 
d="M191 174q0 -37 14.5 -57t49.5 -20q31 0 51 16.5t34.5 47.5t25 76t22.5 102l10 47q11 51 18 92.5t7 72.5q0 38 -14 57.5t-50 19.5q-31 0 -51 -16.5t-34.5 -47.5t-25 -76t-22.5 -102l-10 -47q-11 -51 -18 -92.5t-7 -72.5zM548 295q-18 -83 -41 -141t-57 -95.5t-82.5 -54.5
t-116.5 -17q-117 0 -169 49.5t-52 155.5q0 69 21 162l16 76q17 82 40 140.5t57.5 96t83 54.5t116.5 17q116 0 168 -49.5t52 -155.5q0 -35 -5 -74.5t-15 -87.5zM509 888h176l-122 -113h-133zM308 888h176l-122 -113h-133z" />
    <glyph glyph-name="Omacron" unicode="&#x14c;" horiz-adv-x="575" 
d="M191 174q0 -37 14.5 -57t49.5 -20q31 0 51 16.5t34.5 47.5t25 76t22.5 102l10 47q11 51 18 92.5t7 72.5q0 38 -14 57.5t-50 19.5q-31 0 -51 -16.5t-34.5 -47.5t-25 -76t-22.5 -102l-10 -47q-11 -51 -18 -92.5t-7 -72.5zM548 295q-18 -83 -41 -141t-57 -95.5t-82.5 -54.5
t-116.5 -17q-117 0 -169 49.5t-52 155.5q0 69 21 162l16 76q17 82 40 140.5t57.5 96t83 54.5t116.5 17q116 0 168 -49.5t52 -155.5q0 -35 -5 -74.5t-15 -87.5zM295 883h253l-22 -103h-253z" />
    <glyph glyph-name="uni1ECC" unicode="&#x1ecc;" horiz-adv-x="575" 
d="M191 174q0 -37 14.5 -57t49.5 -20q31 0 51 16.5t34.5 47.5t25 76t22.5 102l10 47q11 51 18 92.5t7 72.5q0 38 -14 57.5t-50 19.5q-31 0 -51 -16.5t-34.5 -47.5t-25 -76t-22.5 -102l-10 -47q-11 -51 -18 -92.5t-7 -72.5zM548 295q-18 -83 -41 -141t-57 -95.5t-82.5 -54.5
t-116.5 -17q-117 0 -169 49.5t-52 155.5q0 69 21 162l16 76q17 82 40 140.5t57.5 96t83 54.5t116.5 17q116 0 168 -49.5t52 -155.5q0 -35 -5 -74.5t-15 -87.5zM153 -57h133l-25 -118h-133z" />
    <glyph glyph-name="Racute" unicode="&#x154;" horiz-adv-x="567" 
d="M400 888h188l-134 -113h-133zM300 312h-77l-66 -312h-160l154 725h177q63 0 109 -6.5t76 -24.5t44.5 -49t14.5 -79q0 -85 -34 -138.5t-94 -80.5l45 -347h-158zM288 409q35 0 59 11t38.5 30t21 44t6.5 54q0 23 -6.5 37t-19 21.5t-32.5 10t-47 2.5h-20l-45 -210h45z" />
    <glyph glyph-name="Rcaron" unicode="&#x158;" horiz-adv-x="567" 
d="M317 775l-92 113h145l29 -49l50 49h146l-140 -113h-138zM300 312h-77l-66 -312h-160l154 725h177q63 0 109 -6.5t76 -24.5t44.5 -49t14.5 -79q0 -85 -34 -138.5t-94 -80.5l45 -347h-158zM288 409q35 0 59 11t38.5 30t21 44t6.5 54q0 23 -6.5 37t-19 21.5t-32.5 10
t-47 2.5h-20l-45 -210h45z" />
    <glyph glyph-name="uni0156" unicode="&#x156;" horiz-adv-x="567" 
d="M186 -149h-35l21 99h120l-22 -106l-64 -87h-79zM300 312h-77l-66 -312h-160l154 725h177q63 0 109 -6.5t76 -24.5t44.5 -49t14.5 -79q0 -85 -34 -138.5t-94 -80.5l45 -347h-158zM288 409q35 0 59 11t38.5 30t21 44t6.5 54q0 23 -6.5 37t-19 21.5t-32.5 10t-47 2.5h-20
l-45 -210h45z" />
    <glyph glyph-name="Sacute" unicode="&#x15a;" horiz-adv-x="522" 
d="M482 236q0 -66 -18 -113.5t-51.5 -77.5t-82 -44t-109.5 -14q-50 0 -92 11t-72 32t-47 51.5t-17 70.5q0 17 3.5 36t7.5 39l2 10h157l-2 -10q-8 -38 -8 -62q0 -37 16.5 -54t53.5 -17q42 0 70 26.5t28 77.5q0 28 -13.5 53t-46.5 49l-52 40q-51 38 -81.5 80.5t-30.5 89.5
q0 62 17.5 105.5t50 70.5t79 39.5t103.5 12.5q46 0 85 -7.5t67.5 -25.5t44.5 -47t16 -72q0 -31 -7 -66l-1 -5h-155l1 5q3 16 4 26t1 21q0 35 -16 50.5t-48 15.5q-37 -1 -63.5 -23t-26.5 -67q0 -43 34 -71l59 -45q67 -51 103.5 -95t36.5 -96zM378 888h188l-134 -113h-133z
" />
    <glyph glyph-name="Scaron" unicode="&#x160;" horiz-adv-x="522" 
d="M311 775l-92 113h145l29 -49l50 49h146l-140 -113h-138zM482 236q0 -66 -18 -113.5t-51.5 -77.5t-82 -44t-109.5 -14q-50 0 -92 11t-72 32t-47 51.5t-17 70.5q0 17 3.5 36t7.5 39l2 10h157l-2 -10q-8 -38 -8 -62q0 -37 16.5 -54t53.5 -17q42 0 70 26.5t28 77.5
q0 28 -13.5 53t-46.5 49l-52 40q-51 38 -81.5 80.5t-30.5 89.5q0 62 17.5 105.5t50 70.5t79 39.5t103.5 12.5q46 0 85 -7.5t67.5 -25.5t44.5 -47t16 -72q0 -31 -7 -66l-1 -5h-155l1 5q3 16 4 26t1 21q0 35 -16 50.5t-48 15.5q-37 -1 -63.5 -23t-26.5 -67q0 -43 34 -71
l59 -45q67 -51 103.5 -95t36.5 -96z" />
    <glyph glyph-name="Scedilla" unicode="&#x15e;" horiz-adv-x="522" 
d="M482 236q0 -66 -18 -113.5t-51.5 -77.5t-82 -44t-109.5 -14q-50 0 -92 11t-72 32t-47 51.5t-17 70.5q0 17 3.5 36t7.5 39l2 10h157l-2 -10q-8 -38 -8 -62q0 -37 16.5 -54t53.5 -17q42 0 70 26.5t28 77.5q0 28 -13.5 53t-46.5 49l-52 40q-51 38 -81.5 80.5t-30.5 89.5
q0 62 17.5 105.5t50 70.5t79 39.5t103.5 12.5q46 0 85 -7.5t67.5 -25.5t44.5 -47t16 -72q0 -31 -7 -66l-1 -5h-155l1 5q3 16 4 26t1 21q0 35 -16 50.5t-48 15.5q-37 -1 -63.5 -23t-26.5 -67q0 -43 34 -71l59 -45q67 -51 103.5 -95t36.5 -96zM321 -104q0 -23 -12.5 -40
t-33 -28.5t-47.5 -17t-55 -5.5q-50 0 -92 15l27 50q10 -6 26.5 -10t33.5 -4q24 0 41.5 9.5t17.5 26.5q0 10 -9.5 15t-25.5 5q-9 0 -20 -2t-21 -7l-26 17l69 82h58l-43 -50q15 3 37 3q14 0 27.5 -5t24 -13.5t17 -19t6.5 -21.5z" />
    <glyph glyph-name="Scircumflex" unicode="&#x15c;" horiz-adv-x="522" 
d="M328 888h138l95 -113h-145l-30 50l-49 -50h-146zM482 236q0 -66 -18 -113.5t-51.5 -77.5t-82 -44t-109.5 -14q-50 0 -92 11t-72 32t-47 51.5t-17 70.5q0 17 3.5 36t7.5 39l2 10h157l-2 -10q-8 -38 -8 -62q0 -37 16.5 -54t53.5 -17q42 0 70 26.5t28 77.5q0 28 -13.5 53
t-46.5 49l-52 40q-51 38 -81.5 80.5t-30.5 89.5q0 62 17.5 105.5t50 70.5t79 39.5t103.5 12.5q46 0 85 -7.5t67.5 -25.5t44.5 -47t16 -72q0 -31 -7 -66l-1 -5h-155l1 5q3 16 4 26t1 21q0 35 -16 50.5t-48 15.5q-37 -1 -63.5 -23t-26.5 -67q0 -43 34 -71l59 -45
q67 -51 103.5 -95t36.5 -96z" />
    <glyph glyph-name="uni0218" unicode="&#x218;" horiz-adv-x="522" 
d="M482 236q0 -66 -18 -113.5t-51.5 -77.5t-82 -44t-109.5 -14q-50 0 -92 11t-72 32t-47 51.5t-17 70.5q0 17 3.5 36t7.5 39l2 10h157l-2 -10q-8 -38 -8 -62q0 -37 16.5 -54t53.5 -17q42 0 70 26.5t28 77.5q0 28 -13.5 53t-46.5 49l-52 40q-51 38 -81.5 80.5t-30.5 89.5
q0 62 17.5 105.5t50 70.5t79 39.5t103.5 12.5q46 0 85 -7.5t67.5 -25.5t44.5 -47t16 -72q0 -31 -7 -66l-1 -5h-155l1 5q3 16 4 26t1 21q0 35 -16 50.5t-48 15.5q-37 -1 -63.5 -23t-26.5 -67q0 -43 34 -71l59 -45q67 -51 103.5 -95t36.5 -96zM178 -149h-35l21 99h120
l-22 -106l-64 -87h-79z" />
    <glyph glyph-name="Tbar" unicode="&#x166;" horiz-adv-x="477" 
d="M43 417h147l41 192h-148l25 116h455l-25 -116h-148l-41 -192h147l-25 -115h-146l-64 -302h-159l64 302h-148z" />
    <glyph glyph-name="Tcaron" unicode="&#x164;" horiz-adv-x="477" 
d="M276 775l-92 113h145l29 -49l50 49h146l-140 -113h-138zM231 609h-148l25 116h455l-25 -116h-148l-129 -609h-159z" />
    <glyph glyph-name="uni0162" unicode="&#x162;" horiz-adv-x="477" 
d="M129 -149h-35l21 99h120l-22 -106l-64 -87h-79zM231 609h-148l25 116h455l-25 -116h-148l-129 -609h-159z" />
    <glyph glyph-name="uni021A" unicode="&#x21a;" horiz-adv-x="477" 
d="M129 -149h-35l21 99h120l-22 -106l-64 -87h-79zM231 609h-148l25 116h455l-25 -116h-148l-129 -609h-159z" />
    <glyph glyph-name="Ubreve" unicode="&#x16c;" horiz-adv-x="561" 
d="M522 293q-19 -90 -40 -149t-54 -94t-82.5 -49t-124.5 -14q-54 0 -91 7t-60 23.5t-33.5 43t-10.5 66.5q0 32 6 73t17 93l92 432h159l-93 -439q-9 -43 -15 -75.5t-6 -55.5q0 -29 12.5 -43.5t44.5 -14.5q29 0 47.5 11.5t31 35t21.5 59t19 83.5l93 439h159zM576 888
q-12 -53 -50.5 -83t-115.5 -30q-69 0 -113.5 24t-44.5 69q0 9 3 20h109q-1 -3 -1 -8q0 -22 19 -30t37 -8q40 0 48 46h109z" />
    <glyph glyph-name="Uhungarumlaut" unicode="&#x170;" horiz-adv-x="561" 
d="M522 293q-19 -90 -40 -149t-54 -94t-82.5 -49t-124.5 -14q-54 0 -91 7t-60 23.5t-33.5 43t-10.5 66.5q0 32 6 73t17 93l92 432h159l-93 -439q-9 -43 -15 -75.5t-6 -55.5q0 -29 12.5 -43.5t44.5 -14.5q29 0 47.5 11.5t31 35t21.5 59t19 83.5l93 439h159zM479 888h176
l-122 -113h-133zM278 888h176l-122 -113h-133z" />
    <glyph glyph-name="Umacron" unicode="&#x16a;" horiz-adv-x="561" 
d="M522 293q-19 -90 -40 -149t-54 -94t-82.5 -49t-124.5 -14q-54 0 -91 7t-60 23.5t-33.5 43t-10.5 66.5q0 32 6 73t17 93l92 432h159l-93 -439q-9 -43 -15 -75.5t-6 -55.5q0 -29 12.5 -43.5t44.5 -14.5q29 0 47.5 11.5t31 35t21.5 59t19 83.5l93 439h159zM288 883h253
l-22 -103h-253z" />
    <glyph glyph-name="Uogonek" unicode="&#x172;" horiz-adv-x="561" 
d="M522 293q-19 -90 -40 -149t-54 -94t-82.5 -49t-124.5 -14q-54 0 -91 7t-60 23.5t-33.5 43t-10.5 66.5q0 32 6 73t17 93l92 432h159l-93 -439q-9 -43 -15 -75.5t-6 -55.5q0 -29 12.5 -43.5t44.5 -14.5q29 0 47.5 11.5t31 35t21.5 59t19 83.5l93 439h159zM271 -180
q-20 -4 -44 -6t-41 -2q-25 0 -47 5t-38.5 15t-26.5 24t-10 32q0 40 23 66t63 46h159q-50 -22 -78.5 -40.5t-28.5 -41.5q0 -14 11.5 -19t27.5 -5q12 0 24 2t23 4z" />
    <glyph glyph-name="Uring" unicode="&#x16e;" horiz-adv-x="561" 
d="M497 851q0 -37 -26 -61t-64 -24t-64 24t-26 61t26.5 61t63.5 24t63.5 -24t26.5 -61zM364 851q0 -19 13 -30.5t30 -11.5t30 11.5t13 30.5t-13 31t-30 12t-30 -12t-13 -31zM522 293q-19 -90 -40 -149t-54 -94t-82.5 -49t-124.5 -14q-54 0 -91 7t-60 23.5t-33.5 43
t-10.5 66.5q0 32 6 73t17 93l92 432h159l-93 -439q-9 -43 -15 -75.5t-6 -55.5q0 -29 12.5 -43.5t44.5 -14.5q29 0 47.5 11.5t31 35t21.5 59t19 83.5l93 439h159z" />
    <glyph glyph-name="Utilde" unicode="&#x168;" horiz-adv-x="561" 
d="M222 775q15 39 35 61.5t41.5 34t42 14.5t36.5 3q20 0 33.5 -5.5t24 -12.5t20 -12.5t22.5 -5.5q14 0 26.5 8.5t19.5 27.5h97q-15 -38 -35 -60.5t-41 -34t-42 -15t-37 -3.5q-20 0 -34 5.5t-24.5 11.5t-20 11.5t-20.5 5.5q-15 0 -27.5 -7.5t-19.5 -26.5h-97zM522 293
q-19 -90 -40 -149t-54 -94t-82.5 -49t-124.5 -14q-54 0 -91 7t-60 23.5t-33.5 43t-10.5 66.5q0 32 6 73t17 93l92 432h159l-93 -439q-9 -43 -15 -75.5t-6 -55.5q0 -29 12.5 -43.5t44.5 -14.5q29 0 47.5 11.5t31 35t21.5 59t19 83.5l93 439h159z" />
    <glyph glyph-name="uni1EE4" unicode="&#x1ee4;" horiz-adv-x="561" 
d="M163 -57h133l-25 -118h-133zM522 293q-19 -90 -40 -149t-54 -94t-82.5 -49t-124.5 -14q-54 0 -91 7t-60 23.5t-33.5 43t-10.5 66.5q0 32 6 73t17 93l92 432h159l-93 -439q-9 -43 -15 -75.5t-6 -55.5q0 -29 12.5 -43.5t44.5 -14.5q29 0 47.5 11.5t31 35t21.5 59t19 83.5
l93 439h159z" />
    <glyph glyph-name="Wacute" unicode="&#x1e82;" horiz-adv-x="730" 
d="M491 888h188l-134 -113h-133zM108 725h144l-59 -550l202 550h133l-30 -550l173 550h145l-246 -725h-179l33 548l-199 -548h-180z" />
    <glyph glyph-name="Wcircumflex" unicode="&#x174;" horiz-adv-x="730" 
d="M422 888h138l95 -113h-145l-30 50l-49 -50h-146zM108 725h144l-59 -550l202 550h133l-30 -550l173 550h145l-246 -725h-179l33 548l-199 -548h-180z" />
    <glyph glyph-name="Wdieresis" unicode="&#x1e84;" horiz-adv-x="730" 
d="M108 725h144l-59 -550l202 550h133l-30 -550l173 550h145l-246 -725h-179l33 548l-199 -548h-180zM332 888h134l-24 -113h-134zM530 888h133l-24 -113h-133z" />
    <glyph glyph-name="Wgrave" unicode="&#x1e80;" horiz-adv-x="730" 
d="M269 888h189l77 -113h-133zM108 725h144l-59 -550l202 550h133l-30 -550l173 550h145l-246 -725h-179l33 548l-199 -548h-180z" />
    <glyph glyph-name="Ycircumflex" unicode="&#x176;" horiz-adv-x="521" 
d="M186 303l-89 422h143l46 -282l168 282h164l-273 -424l-64 -301h-159zM319 888h138l95 -113h-145l-30 50l-49 -50h-146z" />
    <glyph glyph-name="Ydieresis" unicode="&#x178;" horiz-adv-x="521" 
d="M186 303l-89 422h143l46 -282l168 282h164l-273 -424l-64 -301h-159zM227 888h134l-24 -113h-134zM425 888h133l-24 -113h-133z" />
    <glyph glyph-name="Ygrave" unicode="&#x1ef2;" horiz-adv-x="521" 
d="M174 888h189l77 -113h-133zM186 303l-89 422h143l46 -282l168 282h164l-273 -424l-64 -301h-159z" />
    <glyph glyph-name="uni0232" unicode="&#x232;" horiz-adv-x="521" 
d="M186 303l-89 422h143l46 -282l168 282h164l-273 -424l-64 -301h-159zM268 883h253l-22 -103h-253z" />
    <glyph glyph-name="Zacute" unicode="&#x179;" horiz-adv-x="513" 
d="M363 888h188l-134 -113h-133zM-11 112l387 492h-253l26 121h429l-24 -112l-388 -491h295l-26 -122h-470z" />
    <glyph glyph-name="Zcaron" unicode="&#x17d;" horiz-adv-x="513" 
d="M291 775l-92 113h145l29 -49l50 49h146l-140 -113h-138zM-11 112l387 492h-253l26 121h429l-24 -112l-388 -491h295l-26 -122h-470z" />
    <glyph glyph-name="Zdotaccent" unicode="&#x17b;" horiz-adv-x="513" 
d="M-11 112l387 492h-253l26 121h429l-24 -112l-388 -491h295l-26 -122h-470zM313 888h159l-24 -113h-159z" />
    <glyph glyph-name="uni018F" unicode="&#x18f;" horiz-adv-x="577" 
d="M553 307q-17 -81 -38 -141.5t-54.5 -100t-83.5 -59t-123 -19.5q-111 0 -170.5 43.5t-59.5 136.5q0 60 18 141l18 85h345l2 7q10 46 16.5 83t6.5 64q0 35 -14.5 53t-49.5 18q-32 0 -53 -13t-33.5 -32.5t-19.5 -44t-11 -46.5l-2 -10h-165l2 10q10 52 30 96.5t54.5 77.5
t85.5 51.5t124 18.5q111 0 163 -43.5t52 -133.5q0 -30 -5 -65t-13 -76zM254 96q30 0 50.5 12.5t34 35t23 55t17.5 71.5l3 15h-177l-2 -10q-5 -27 -10 -52t-5 -45q0 -38 15.5 -60t50.5 -22z" />
    <glyph glyph-name="abreve" unicode="&#x103;" horiz-adv-x="482" 
d="M478 725q-8 -28 -20 -50.5t-30.5 -38.5t-46.5 -25t-69 -9q-71 0 -100 26.5t-29 70.5q0 6 0.5 12.5t1.5 13.5h103q-1 -5 -1.5 -9t-0.5 -8q0 -17 9 -23.5t25 -6.5q20 0 34 10.5t21 36.5h103zM256 62q-29 -41 -61 -58t-79 -17q-58 0 -91 33.5t-33 89.5q0 11 1 21.5t4 22.5
l2 10q8 36 28 61t49 43q31 19 67.5 32t73.5 25l84 26l6 28q2 11 4 21t2 18q0 45 -48 45q-38 0 -54 -19t-25 -63l-1 -5h-133l1 5q17 88 70.5 130.5t156.5 42.5q37 0 70 -5t57.5 -19.5t38.5 -41.5t14 -71q0 -36 -10 -82l-36 -169q-11 -51 -19 -89.5t-10 -76.5h-137zM143 122
q0 -19 8.5 -30t31.5 -11q35 0 56.5 27.5t33.5 84.5l16 76q-13 -6 -27 -11l-25 -8q-43 -14 -62 -32.5t-25 -50.5l-4 -15q-3 -17 -3 -30z" />
    <glyph glyph-name="amacron" unicode="&#x101;" horiz-adv-x="482" 
d="M204 714h252l-21 -100h-252zM256 62q-29 -41 -61 -58t-79 -17q-58 0 -91 33.5t-33 89.5q0 11 1 21.5t4 22.5l2 10q8 36 28 61t49 43q31 19 67.5 32t73.5 25l84 26l6 28q2 11 4 21t2 18q0 45 -48 45q-38 0 -54 -19t-25 -63l-1 -5h-133l1 5q17 88 70.5 130.5t156.5 42.5
q37 0 70 -5t57.5 -19.5t38.5 -41.5t14 -71q0 -36 -10 -82l-36 -169q-11 -51 -19 -89.5t-10 -76.5h-137zM143 122q0 -19 8.5 -30t31.5 -11q35 0 56.5 27.5t33.5 84.5l16 76q-13 -6 -27 -11l-25 -8q-43 -14 -62 -32.5t-25 -50.5l-4 -15q-3 -17 -3 -30z" />
    <glyph glyph-name="aogonek" unicode="&#x105;" horiz-adv-x="482" 
d="M256 62q-29 -41 -61 -58t-79 -17q-58 0 -91 33.5t-33 89.5q0 11 1 21.5t4 22.5l2 10q8 36 28 61t49 43q31 19 67.5 32t73.5 25l84 26l6 28q2 11 4 21t2 18q0 45 -48 45q-38 0 -54 -19t-25 -63l-1 -5h-133l1 5q17 88 70.5 130.5t156.5 42.5q37 0 70 -5t57.5 -19.5
t38.5 -41.5t14 -71q0 -36 -10 -82l-36 -169q-11 -51 -19 -89.5t-10 -76.5q-51 -22 -80 -38.5t-29 -41.5q0 -12 13.5 -19t29.5 -7q15 0 31 3t27 5l-17 -79q-20 -5 -48 -8t-48 -3q-50 0 -79.5 19t-29.5 57q0 40 26.5 66t66.5 46zM143 122q0 -19 8.5 -30t31.5 -11
q35 0 56.5 27.5t33.5 84.5l16 76q-13 -6 -27 -11l-25 -8q-43 -14 -62 -32.5t-25 -50.5l-4 -15q-3 -17 -3 -30z" />
    <glyph glyph-name="cacute" unicode="&#x107;" horiz-adv-x="464" 
d="M430 186q-12 -58 -33 -96.5t-50.5 -61t-65.5 -32t-77 -9.5q-94 0 -142 44.5t-48 129.5q0 32 8 75l19 87q12 60 31.5 103t49 71.5t70.5 42t97 13.5q86 0 134 -38.5t48 -110.5q0 -12 -1.5 -24t-3.5 -26l-1 -5h-143l1 4q7 27 7 49q0 31 -14.5 41.5t-35.5 10.5t-35 -10.5
t-24 -31t-17.5 -50t-15.5 -68.5l-10 -47q-7 -32 -10.5 -57.5t-3.5 -45.5q0 -29 11 -43.5t38 -14.5q12 0 23 4t20 14.5t17 30t14 51.5l1 6h143zM338 725h175l-148 -123h-116z" />
    <glyph glyph-name="ccaron" unicode="&#x10d;" horiz-adv-x="464" 
d="M165 725h136l35 -52l57 52h135l-143 -123h-126zM430 186q-12 -58 -33 -96.5t-50.5 -61t-65.5 -32t-77 -9.5q-94 0 -142 44.5t-48 129.5q0 32 8 75l19 87q12 60 31.5 103t49 71.5t70.5 42t97 13.5q86 0 134 -38.5t48 -110.5q0 -12 -1.5 -24t-3.5 -26l-1 -5h-143l1 4
q7 27 7 49q0 31 -14.5 41.5t-35.5 10.5t-35 -10.5t-24 -31t-17.5 -50t-15.5 -68.5l-10 -47q-7 -32 -10.5 -57.5t-3.5 -45.5q0 -29 11 -43.5t38 -14.5q12 0 23 4t20 14.5t17 30t14 51.5l1 6h143z" />
    <glyph glyph-name="ccircumflex" unicode="&#x109;" horiz-adv-x="464" 
d="M275 725h128l92 -123h-136l-35 52l-57 -52h-136zM430 186q-12 -58 -33 -96.5t-50.5 -61t-65.5 -32t-77 -9.5q-94 0 -142 44.5t-48 129.5q0 32 8 75l19 87q12 60 31.5 103t49 71.5t70.5 42t97 13.5q86 0 134 -38.5t48 -110.5q0 -12 -1.5 -24t-3.5 -26l-1 -5h-143l1 4
q7 27 7 49q0 31 -14.5 41.5t-35.5 10.5t-35 -10.5t-24 -31t-17.5 -50t-15.5 -68.5l-10 -47q-7 -32 -10.5 -57.5t-3.5 -45.5q0 -29 11 -43.5t38 -14.5q12 0 23 4t20 14.5t17 30t14 51.5l1 6h143z" />
    <glyph glyph-name="cdotaccent" unicode="&#x10b;" horiz-adv-x="464" 
d="M430 186q-12 -58 -33 -96.5t-50.5 -61t-65.5 -32t-77 -9.5q-94 0 -142 44.5t-48 129.5q0 32 8 75l19 87q12 60 31.5 103t49 71.5t70.5 42t97 13.5q86 0 134 -38.5t48 -110.5q0 -12 -1.5 -24t-3.5 -26l-1 -5h-143l1 4q7 27 7 49q0 31 -14.5 41.5t-35.5 10.5t-35 -10.5
t-24 -31t-17.5 -50t-15.5 -68.5l-10 -47q-7 -32 -10.5 -57.5t-3.5 -45.5q0 -29 11 -43.5t38 -14.5q12 0 23 4t20 14.5t17 30t14 51.5l1 6h143zM282 725h133l-25 -122h-135z" />
    <glyph glyph-name="dcaron" unicode="&#x10f;" horiz-adv-x="655" 
d="M278 62q-22 -34 -55.5 -54.5t-78.5 -20.5q-64 0 -98.5 38t-34.5 115q0 21 3 44.5t8 50.5l15 71q14 64 31.5 111t41.5 77t57 44.5t77 14.5q43 0 75.5 -21.5t44.5 -63.5l55 257h154l-154 -725h-154zM169 155q0 -32 11.5 -48t40.5 -16q40 0 65 47.5t42 131.5q7 32 11 59
t4 48q0 35 -13 53.5t-44 18.5q-21 0 -36 -11t-26 -32t-19.5 -52t-16.5 -72l-5 -25q-6 -32 -10 -57t-4 -45zM632 725h143l-100 -170h-103z" />
    <glyph glyph-name="dcroat" unicode="&#x111;" horiz-adv-x="519" 
d="M295 645h107l17 80h154l-17 -80h89l-17 -80h-89l-120 -565h-154l13 62q-22 -34 -55.5 -54.5t-78.5 -20.5q-64 0 -98.5 38t-34.5 115q0 21 3 44.5t8 50.5l15 71q14 64 31.5 111t41.5 77t57 44.5t77 14.5q43 0 75.5 -21.5t44.5 -63.5l21 97h-107zM169 155q0 -32 11.5 -48
t40.5 -16q40 0 65 47.5t42 131.5q7 32 11 59t4 48q0 35 -13 53.5t-44 18.5q-21 0 -36 -11t-26 -32t-19.5 -52t-16.5 -72l-5 -25q-6 -32 -10 -57t-4 -45z" />
    <glyph glyph-name="ebreve" unicode="&#x115;" horiz-adv-x="492" 
d="M440 175q-11 -55 -34 -91t-54.5 -57.5t-69 -30.5t-76.5 -9q-94 0 -143 45t-49 130q0 17 2 35.5t6 38.5l19 87q12 60 31.5 103t49 71.5t70.5 42t97 13.5q97 0 144 -41.5t47 -129.5q0 -22 -3.5 -46.5t-9.5 -52.5l-6 -29h-283l-1 -7q-6 -30 -9.5 -54.5t-3.5 -43.5
q0 -32 11.5 -47.5t39.5 -15.5q14 0 26.5 3t22.5 13t18 27t14 46l1 6h144zM196 336h142l2 9q6 27 6 47q0 34 -16.5 49t-48.5 15q-21 0 -35.5 -10t-23.5 -26t-14.5 -35.5t-9.5 -38.5zM493 725q-8 -28 -20 -50.5t-30.5 -38.5t-46.5 -25t-69 -9q-71 0 -100 26.5t-29 70.5
q0 6 0.5 12.5t1.5 13.5h103q-1 -5 -1.5 -9t-0.5 -8q0 -17 9 -23.5t25 -6.5q20 0 34 10.5t21 36.5h103z" />
    <glyph glyph-name="ecaron" unicode="&#x11b;" horiz-adv-x="492" 
d="M173 725h136l35 -52l57 52h135l-143 -123h-126zM440 175q-11 -55 -34 -91t-54.5 -57.5t-69 -30.5t-76.5 -9q-94 0 -143 45t-49 130q0 17 2 35.5t6 38.5l19 87q12 60 31.5 103t49 71.5t70.5 42t97 13.5q97 0 144 -41.5t47 -129.5q0 -22 -3.5 -46.5t-9.5 -52.5l-6 -29h-283
l-1 -7q-6 -30 -9.5 -54.5t-3.5 -43.5q0 -32 11.5 -47.5t39.5 -15.5q14 0 26.5 3t22.5 13t18 27t14 46l1 6h144zM196 336h142l2 9q6 27 6 47q0 34 -16.5 49t-48.5 15q-21 0 -35.5 -10t-23.5 -26t-14.5 -35.5t-9.5 -38.5z" />
    <glyph glyph-name="emacron" unicode="&#x113;" horiz-adv-x="492" 
d="M440 175q-11 -55 -34 -91t-54.5 -57.5t-69 -30.5t-76.5 -9q-94 0 -143 45t-49 130q0 17 2 35.5t6 38.5l19 87q12 60 31.5 103t49 71.5t70.5 42t97 13.5q97 0 144 -41.5t47 -129.5q0 -22 -3.5 -46.5t-9.5 -52.5l-6 -29h-283l-1 -7q-6 -30 -9.5 -54.5t-3.5 -43.5
q0 -32 11.5 -47.5t39.5 -15.5q14 0 26.5 3t22.5 13t18 27t14 46l1 6h144zM196 336h142l2 9q6 27 6 47q0 34 -16.5 49t-48.5 15q-21 0 -35.5 -10t-23.5 -26t-14.5 -35.5t-9.5 -38.5zM218 714h252l-21 -100h-252z" />
    <glyph glyph-name="eogonek" unicode="&#x119;" horiz-adv-x="492" 
d="M197 336h142l2 9q6 27 6 47q0 34 -16.5 49t-48.5 15q-21 0 -35.5 -10t-23.5 -26t-14.5 -35.5t-9.5 -38.5zM320 -180q-20 -4 -42.5 -6t-39.5 -2q-25 0 -47 4.5t-38.5 14t-26.5 24t-10 33.5q0 26 14.5 52.5t34.5 49.5q-73 10 -111.5 53.5t-38.5 118.5q0 17 2 35.5t6 38.5
l19 87q12 60 31.5 103t49 71.5t70.5 42t97 13.5q97 0 144 -41.5t47 -129.5q0 -44 -12 -99l-7 -29h-283l-1 -7q-6 -30 -9.5 -54.5t-3.5 -43.5q0 -32 11.5 -47.5t39.5 -15.5q14 0 26.5 3t22.5 13t18 27t14 46l1 6h144l-1 -6q-11 -56 -35 -91.5t-55 -58.5q-18 -13 -36 -26.5
t-32.5 -27t-23.5 -26.5t-9 -25t13.5 -19t29.5 -7q11 0 22.5 1.5t21.5 3.5z" />
    <glyph glyph-name="edotaccent" unicode="&#x117;" horiz-adv-x="492" 
d="M440 175q-11 -55 -34 -91t-54.5 -57.5t-69 -30.5t-76.5 -9q-94 0 -143 45t-49 130q0 17 2 35.5t6 38.5l19 87q12 60 31.5 103t49 71.5t70.5 42t97 13.5q97 0 144 -41.5t47 -129.5q0 -22 -3.5 -46.5t-9.5 -52.5l-6 -29h-283l-1 -7q-6 -30 -9.5 -54.5t-3.5 -43.5
q0 -32 11.5 -47.5t39.5 -15.5q14 0 26.5 3t22.5 13t18 27t14 46l1 6h144zM196 336h142l2 9q6 27 6 47q0 34 -16.5 49t-48.5 15q-21 0 -35.5 -10t-23.5 -26t-14.5 -35.5t-9.5 -38.5zM283 725h133l-25 -122h-135z" />
    <glyph glyph-name="gbreve" unicode="&#x11f;" horiz-adv-x="526" 
d="M507 725q-8 -28 -20 -50.5t-30.5 -38.5t-46.5 -25t-69 -9q-71 0 -100 26.5t-29 70.5q0 6 0.5 12.5t1.5 13.5h103q-1 -5 -1.5 -9t-0.5 -8q0 -17 9 -23.5t25 -6.5q20 0 34 10.5t21 36.5h103zM437 53q-14 -65 -35 -110.5t-52.5 -74.5t-75 -42.5t-102.5 -13.5
q-38 0 -72.5 7.5t-60.5 23t-41 40t-15 58.5q0 8 0.5 18.5t1.5 14.5l1 5h137l-1 -5q-1 -5 -1 -7v-8q0 -23 15 -34.5t41 -11.5q20 0 35 4t27 16.5t21.5 35t17.5 59.5l15 71q-22 -34 -55.5 -57t-78.5 -23q-67 0 -105 37t-38 113q0 34 9 78l14 67q26 123 87.5 181t146.5 58
q45 0 68.5 -23t30.5 -58l14 66h154zM174 180q0 -27 11 -41.5t38 -14.5q28 0 46 10.5t30.5 31t21 49t16.5 64.5q7 32 11.5 58.5t4.5 47.5q0 32 -13.5 48t-47.5 16q-23 0 -38.5 -10t-26.5 -29.5t-19 -48t-15 -64.5l-4 -19q-6 -30 -10.5 -54.5t-4.5 -43.5z" />
    <glyph glyph-name="gcircumflex" unicode="&#x11d;" horiz-adv-x="526" 
d="M292 725h128l92 -123h-136l-35 52l-57 -52h-136zM437 53q-14 -65 -35 -110.5t-52.5 -74.5t-75 -42.5t-102.5 -13.5q-38 0 -72.5 7.5t-60.5 23t-41 40t-15 58.5q0 8 0.5 18.5t1.5 14.5l1 5h137l-1 -5q-1 -5 -1 -7v-8q0 -23 15 -34.5t41 -11.5q20 0 35 4t27 16.5t21.5 35
t17.5 59.5l15 71q-22 -34 -55.5 -57t-78.5 -23q-67 0 -105 37t-38 113q0 34 9 78l14 67q26 123 87.5 181t146.5 58q45 0 68.5 -23t30.5 -58l14 66h154zM174 180q0 -27 11 -41.5t38 -14.5q28 0 46 10.5t30.5 31t21 49t16.5 64.5q7 32 11.5 58.5t4.5 47.5q0 32 -13.5 48
t-47.5 16q-23 0 -38.5 -10t-26.5 -29.5t-19 -48t-15 -64.5l-4 -19q-6 -30 -10.5 -54.5t-4.5 -43.5z" />
    <glyph glyph-name="uni0123" unicode="&#x123;" horiz-adv-x="526" 
d="M437 53q-14 -65 -35 -110.5t-52.5 -74.5t-75 -42.5t-102.5 -13.5q-38 0 -72.5 7.5t-60.5 23t-41 40t-15 58.5q0 8 0.5 18.5t1.5 14.5l1 5h137l-1 -5q-1 -5 -1 -7v-8q0 -23 15 -34.5t41 -11.5q20 0 35 4t27 16.5t21.5 35t17.5 59.5l15 71q-22 -34 -55.5 -57t-78.5 -23
q-67 0 -105 37t-38 113q0 34 9 78l14 67q26 123 87.5 181t146.5 58q45 0 68.5 -23t30.5 -58l14 66h154zM174 180q0 -27 11 -41.5t38 -14.5q28 0 46 10.5t30.5 31t21 49t16.5 64.5q7 32 11.5 58.5t4.5 47.5q0 32 -13.5 48t-47.5 16q-23 0 -38.5 -10t-26.5 -29.5t-19 -48
t-15 -64.5l-4 -19q-6 -30 -10.5 -54.5t-4.5 -43.5zM368 696h35l-21 -99h-120l22 106l64 87h79z" />
    <glyph glyph-name="gdotaccent" unicode="&#x121;" horiz-adv-x="526" 
d="M437 53q-14 -65 -35 -110.5t-52.5 -74.5t-75 -42.5t-102.5 -13.5q-38 0 -72.5 7.5t-60.5 23t-41 40t-15 58.5q0 8 0.5 18.5t1.5 14.5l1 5h137l-1 -5q-1 -5 -1 -7v-8q0 -23 15 -34.5t41 -11.5q20 0 35 4t27 16.5t21.5 35t17.5 59.5l15 71q-22 -34 -55.5 -57t-78.5 -23
q-67 0 -105 37t-38 113q0 34 9 78l14 67q26 123 87.5 181t146.5 58q45 0 68.5 -23t30.5 -58l14 66h154zM174 180q0 -27 11 -41.5t38 -14.5q28 0 46 10.5t30.5 31t21 49t16.5 64.5q7 32 11.5 58.5t4.5 47.5q0 32 -13.5 48t-47.5 16q-23 0 -38.5 -10t-26.5 -29.5t-19 -48
t-15 -64.5l-4 -19q-6 -30 -10.5 -54.5t-4.5 -43.5zM294 725h133l-25 -122h-135z" />
    <glyph glyph-name="hbar" unicode="&#x127;" horiz-adv-x="507" 
d="M59 645h64l17 80h154l-17 -80h130l-17 -80h-130l-20 -93q28 42 61 61.5t80 19.5q52 0 82.5 -26.5t30.5 -91.5q0 -18 -2 -39t-7 -45l-75 -351h-154l67 317q5 26 9 46.5t4 37.5q0 22 -8 34.5t-28 12.5q-22 0 -37.5 -13.5t-27.5 -36.5t-20 -52.5t-15 -61.5l-60 -284h-154
l120 565h-64z" />
    <glyph glyph-name="hcircumflex" unicode="&#x125;" horiz-adv-x="507" 
d="M140 725h154l-54 -253q28 42 61 61.5t80 19.5q52 0 82.5 -26.5t30.5 -91.5q0 -18 -2 -39t-7 -45l-75 -351h-154l67 317q5 26 9 46.5t4 37.5q0 22 -8 34.5t-28 12.5q-22 0 -37.5 -13.5t-27.5 -36.5t-20 -52.5t-15 -61.5l-60 -284h-154zM189 888h138l95 -113h-145l-30 50
l-49 -50h-146z" />
    <glyph glyph-name="dotlessi" unicode="&#x131;" horiz-adv-x="239" 
d="M100 538h154l-114 -538h-154z" />
    <glyph glyph-name="ibreve" unicode="&#x12d;" horiz-adv-x="239" 
d="M352 725q-8 -26 -18 -48.5t-27 -39t-43.5 -26t-67.5 -9.5q-68 0 -92.5 25.5t-24.5 65.5q0 15 3 32h103q-1 -5 -1.5 -9.5t-0.5 -9.5q0 -12 5.5 -20t19.5 -8q20 0 28 14t13 33h103zM100 538h154l-114 -538h-154z" />
    <glyph glyph-name="imacron" unicode="&#x12b;" horiz-adv-x="239" 
d="M105 714h219l-21 -100h-219zM100 538h154l-114 -538h-154z" />
    <glyph glyph-name="iogonek" unicode="&#x12f;" horiz-adv-x="239" 
d="M100 538h154l-114 -538q-50 -22 -79.5 -38.5t-29.5 -41.5q0 -12 13.5 -19t29.5 -7q11 0 22 1.5t21 3.5l-17 -79q-20 -4 -42 -6t-39 -2q-25 0 -47 4.5t-38.5 14t-26.5 24t-10 33.5q0 40 24.5 66t64.5 46zM140 725h154l-27 -128h-154z" />
    <glyph glyph-name="itilde" unicode="&#x129;" horiz-adv-x="239" 
d="M41 603q22 68 54.5 95t68.5 27q17 0 29 -5.5t21 -12t16 -12t16 -5.5q11 0 22 10.5t16 24.5h84q-22 -68 -53.5 -95t-61.5 -27q-15 0 -27 5t-23 11.5t-21 11.5t-21 5q-20 0 -36 -33h-84zM100 538h154l-114 -538h-154z" />
    <glyph glyph-name="uni1ECB" unicode="&#x1ecb;" horiz-adv-x="239" 
d="M100 538h154l-114 -538h-154zM140 725h154l-27 -128h-154zM-14 -57h133l-25 -118h-133z" />
    <glyph glyph-name="uni0237" unicode="&#x237;" horiz-adv-x="239" 
d="M-102 -83h28q16 0 25.5 5t15.5 15t10 25.5t9 37.5l114 538h154l-114 -538q-12 -56 -25 -90.5t-33.5 -53.5t-51.5 -25t-79 -6h-72z" />
    <glyph glyph-name="jcircumflex" unicode="&#x135;" horiz-adv-x="239" 
d="M159 725h128l92 -123h-136l-35 52l-57 -52h-136zM-102 -83h28q16 0 25.5 5t15.5 15t10 25.5t9 37.5l114 538h154l-114 -538q-12 -56 -25 -90.5t-33.5 -53.5t-51.5 -25t-79 -6h-72z" />
    <glyph glyph-name="uni0137" unicode="&#x137;" horiz-adv-x="463" 
d="M157 -149h-35l21 99h120l-22 -106l-64 -87h-79zM352 356l75 -356h-145l-42 232l-74 -81l-32 -151h-148l154 725h148l-78 -366l163 179h145z" />
    <glyph glyph-name="lacute" unicode="&#x13a;" horiz-adv-x="240" 
d="M236 888h188l-134 -113h-133zM140 725h154l-154 -725h-154z" />
    <glyph glyph-name="lcaron" unicode="&#x13e;" horiz-adv-x="376" 
d="M140 725h154l-154 -725h-154zM353 725h143l-100 -170h-103z" />
    <glyph glyph-name="uni013C" unicode="&#x13c;" horiz-adv-x="240" 
d="M6 -149h-35l21 99h120l-22 -106l-64 -87h-79zM140 725h154l-154 -725h-154z" />
    <glyph glyph-name="ldot" unicode="&#x140;" horiz-adv-x="409" 
d="M140 725h154l-154 -725h-154zM288 472h159l-24 -113h-159z" />
    <glyph glyph-name="lslash" unicode="&#x142;" horiz-adv-x="298" 
d="M22 370l76 37l68 318h154l-50 -236l82 40l-25 -122l-83 -40l-78 -367h-154l60 284l-76 -37z" />
    <glyph glyph-name="eng" unicode="&#x14b;" horiz-adv-x="507" 
d="M323 317q5 26 9.5 46.5t4.5 37.5q0 22 -8 34.5t-28 12.5q-22 0 -38 -13.5t-27.5 -36.5t-20 -52.5t-15.5 -61.5l-60 -284h-154l114 538h154l-14 -66q28 42 61 61.5t80 19.5q52 0 83 -26.5t31 -91.5q0 -18 -2.5 -39t-7.5 -45l-75 -351q-12 -54 -29.5 -87.5t-44 -52.5
t-62.5 -25.5t-84 -6.5h-42l20 90h28q16 0 25.5 5t15.5 15t10 25.5t9 36.5z" />
    <glyph glyph-name="nacute" unicode="&#x144;" horiz-adv-x="507" 
d="M364 725h175l-148 -123h-116zM100 538h154l-14 -66q28 42 61 61.5t80 19.5q52 0 83 -26.5t31 -91.5q0 -18 -2.5 -39t-7.5 -45l-75 -351h-154l67 317q5 26 9.5 46.5t4.5 37.5q0 22 -8 34.5t-28 12.5q-22 0 -38 -13.5t-27.5 -36.5t-20 -52.5t-15.5 -61.5l-60 -284h-154z
" />
    <glyph glyph-name="ncaron" unicode="&#x148;" horiz-adv-x="507" 
d="M172 725h136l35 -52l57 52h135l-143 -123h-126zM100 538h154l-14 -66q28 42 61 61.5t80 19.5q52 0 83 -26.5t31 -91.5q0 -18 -2.5 -39t-7.5 -45l-75 -351h-154l67 317q5 26 9.5 46.5t4.5 37.5q0 22 -8 34.5t-28 12.5q-22 0 -38 -13.5t-27.5 -36.5t-20 -52.5t-15.5 -61.5
l-60 -284h-154z" />
    <glyph glyph-name="uni0146" unicode="&#x146;" horiz-adv-x="507" 
d="M142 -149h-35l21 99h120l-22 -106l-64 -87h-79zM100 538h154l-14 -66q28 42 61 61.5t80 19.5q52 0 83 -26.5t31 -91.5q0 -18 -2.5 -39t-7.5 -45l-75 -351h-154l67 317q5 26 9.5 46.5t4.5 37.5q0 22 -8 34.5t-28 12.5q-22 0 -38 -13.5t-27.5 -36.5t-20 -52.5t-15.5 -61.5
l-60 -284h-154z" />
    <glyph glyph-name="oe" unicode="&#x153;" horiz-adv-x="776" 
d="M165 147q0 -31 11.5 -46.5t39.5 -15.5q21 0 35 11t23.5 31.5t16.5 50.5t15 69l9 45q6 31 10.5 56.5t4.5 44.5q0 31 -11.5 46t-39.5 15q-21 0 -35 -10.5t-23.5 -31t-16.5 -50.5t-15 -69l-10 -47q-6 -31 -10 -55.5t-4 -43.5zM455 218q-13 -60 -32 -104t-48.5 -72.5
t-70.5 -42t-97 -13.5q-94 0 -143.5 45t-49.5 130q0 17 2 35.5t6 38.5l18 87q13 60 32.5 103.5t48.5 72t70.5 42t97.5 13.5q94 0 143 -44.5t49 -129.5q0 -17 -2 -36.5t-6 -39.5zM724 175q-11 -55 -34 -91t-54.5 -57.5t-69 -30.5t-76.5 -9q-94 0 -143 45t-49 130q0 17 2 35.5
t6 38.5l19 87q12 60 31.5 103t49 71.5t70.5 42t97 13.5q97 0 144 -41.5t47 -129.5q0 -22 -3.5 -46.5t-9.5 -52.5l-6 -29h-283l-1 -7q-6 -30 -9.5 -54.5t-3.5 -43.5q0 -32 11.5 -47.5t39.5 -15.5q14 0 26.5 3t22.5 13t18 27t14 46l1 6h144zM480 336h142l2 9q6 27 6 47
q0 34 -16.5 49t-48.5 15q-21 0 -35.5 -10t-23.5 -26t-14.5 -35.5t-9.5 -38.5z" />
    <glyph glyph-name="obreve" unicode="&#x14f;" horiz-adv-x="494" 
d="M492 725q-8 -28 -20 -50.5t-30.5 -38.5t-46.5 -25t-69 -9q-71 0 -100 26.5t-29 70.5q0 6 0.5 12.5t1.5 13.5h103q-1 -5 -1.5 -9t-0.5 -8q0 -17 9 -23.5t25 -6.5q20 0 34 10.5t21 36.5h103zM165 147q0 -31 11.5 -46.5t39.5 -15.5q21 0 35 11t23.5 31.5t16.5 50.5t15 69
l9 45q6 31 10.5 56.5t4.5 44.5q0 31 -11.5 46t-39.5 15q-21 0 -35 -10.5t-23.5 -31t-16.5 -50.5t-15 -69l-10 -47q-6 -31 -10 -55.5t-4 -43.5zM455 218q-13 -60 -32 -104t-48.5 -72.5t-70.5 -42t-97 -13.5q-94 0 -143.5 45t-49.5 130q0 17 2 35.5t6 38.5l18 87
q13 60 32.5 103.5t48.5 72t70.5 42t97.5 13.5q94 0 143 -44.5t49 -129.5q0 -17 -2 -36.5t-6 -39.5z" />
    <glyph glyph-name="ohungarumlaut" unicode="&#x151;" horiz-adv-x="494" 
d="M165 147q0 -31 11.5 -46.5t39.5 -15.5q21 0 35 11t23.5 31.5t16.5 50.5t15 69l9 45q6 31 10.5 56.5t4.5 44.5q0 31 -11.5 46t-39.5 15q-21 0 -35 -10.5t-23.5 -31t-16.5 -50.5t-15 -69l-10 -47q-6 -31 -10 -55.5t-4 -43.5zM455 218q-13 -60 -32 -104t-48.5 -72.5
t-70.5 -42t-97 -13.5q-94 0 -143.5 45t-49.5 130q0 17 2 35.5t6 38.5l18 87q13 60 32.5 103.5t48.5 72t70.5 42t97.5 13.5q94 0 143 -44.5t49 -129.5q0 -17 -2 -36.5t-6 -39.5zM436 745h165l-138 -123h-116zM242 745h165l-138 -123h-116z" />
    <glyph glyph-name="omacron" unicode="&#x14d;" horiz-adv-x="494" 
d="M214 714h252l-21 -100h-252zM165 147q0 -31 11.5 -46.5t39.5 -15.5q21 0 35 11t23.5 31.5t16.5 50.5t15 69l9 45q6 31 10.5 56.5t4.5 44.5q0 31 -11.5 46t-39.5 15q-21 0 -35 -10.5t-23.5 -31t-16.5 -50.5t-15 -69l-10 -47q-6 -31 -10 -55.5t-4 -43.5zM455 218
q-13 -60 -32 -104t-48.5 -72.5t-70.5 -42t-97 -13.5q-94 0 -143.5 45t-49.5 130q0 17 2 35.5t6 38.5l18 87q13 60 32.5 103.5t48.5 72t70.5 42t97.5 13.5q94 0 143 -44.5t49 -129.5q0 -17 -2 -36.5t-6 -39.5z" />
    <glyph glyph-name="uni1ECD" unicode="&#x1ecd;" horiz-adv-x="494" 
d="M112 -57h133l-25 -118h-133zM165 147q0 -31 11.5 -46.5t39.5 -15.5q21 0 35 11t23.5 31.5t16.5 50.5t15 69l9 45q6 31 10.5 56.5t4.5 44.5q0 31 -11.5 46t-39.5 15q-21 0 -35 -10.5t-23.5 -31t-16.5 -50.5t-15 -69l-10 -47q-6 -31 -10 -55.5t-4 -43.5zM455 218
q-13 -60 -32 -104t-48.5 -72.5t-70.5 -42t-97 -13.5q-94 0 -143.5 45t-49.5 130q0 17 2 35.5t6 38.5l18 87q13 60 32.5 103.5t48.5 72t70.5 42t97.5 13.5q94 0 143 -44.5t49 -129.5q0 -17 -2 -36.5t-6 -39.5z" />
    <glyph glyph-name="racute" unicode="&#x155;" horiz-adv-x="340" 
d="M271 725h175l-148 -123h-116zM100 538h154l-23 -111q10 23 22.5 43.5t28.5 35.5t37 23.5t47 8.5h20l-30 -145h-42q-31 0 -50.5 -5.5t-31.5 -19t-19.5 -36t-14.5 -57.5l-58 -275h-154z" />
    <glyph glyph-name="rcaron" unicode="&#x159;" horiz-adv-x="340" 
d="M98 725h136l35 -52l57 52h135l-143 -123h-126zM100 538h154l-23 -111q10 23 22.5 43.5t28.5 35.5t37 23.5t47 8.5h20l-30 -145h-42q-31 0 -50.5 -5.5t-31.5 -19t-19.5 -36t-14.5 -57.5l-58 -275h-154z" />
    <glyph glyph-name="uni0157" unicode="&#x157;" horiz-adv-x="340" 
d="M7 -149h-35l21 99h120l-22 -106l-64 -87h-79zM100 538h154l-23 -111q10 23 22.5 43.5t28.5 35.5t37 23.5t47 8.5h20l-30 -145h-42q-31 0 -50.5 -5.5t-31.5 -19t-19.5 -36t-14.5 -57.5l-58 -275h-154z" />
    <glyph glyph-name="sacute" unicode="&#x15b;" horiz-adv-x="459" 
d="M304 725h175l-148 -123h-116zM414 166q0 -44 -18 -77.5t-49 -56t-71 -34t-84 -11.5q-95 0 -145.5 37.5t-50.5 104.5q0 19 5 44l1 5h139l-1 -5q-3 -15 -3 -30q0 -56 60 -56q29 0 53 13t25 39q0 21 -12 32.5t-40 28.5l-70 42q-20 12 -37 25t-30.5 29.5t-21 38t-7.5 50.5
q0 43 18.5 74.5t49.5 52.5t71 31t82 10q33 0 65.5 -7t58 -23t41 -40.5t15.5 -59.5q0 -10 -2 -23.5t-3 -18.5l-1 -5h-135l1 5q1 4 2.5 12t1.5 15q0 28 -18 37t-38 9q-12 0 -24 -2.5t-22 -8.5t-16.5 -16t-6.5 -26q0 -31 34 -52l66 -40q27 -16 48.5 -30t36.5 -30t23.5 -36
t8.5 -47z" />
    <glyph glyph-name="scaron" unicode="&#x161;" horiz-adv-x="459" 
d="M134 725h136l35 -52l57 52h135l-143 -123h-126zM414 166q0 -44 -18 -77.5t-49 -56t-71 -34t-84 -11.5q-95 0 -145.5 37.5t-50.5 104.5q0 19 5 44l1 5h139l-1 -5q-3 -15 -3 -30q0 -56 60 -56q29 0 53 13t25 39q0 21 -12 32.5t-40 28.5l-70 42q-20 12 -37 25t-30.5 29.5
t-21 38t-7.5 50.5q0 43 18.5 74.5t49.5 52.5t71 31t82 10q33 0 65.5 -7t58 -23t41 -40.5t15.5 -59.5q0 -10 -2 -23.5t-3 -18.5l-1 -5h-135l1 5q1 4 2.5 12t1.5 15q0 28 -18 37t-38 9q-12 0 -24 -2.5t-22 -8.5t-16.5 -16t-6.5 -26q0 -31 34 -52l66 -40q27 -16 48.5 -30
t36.5 -30t23.5 -36t8.5 -47z" />
    <glyph glyph-name="scedilla" unicode="&#x15f;" horiz-adv-x="459" 
d="M414 166q0 -44 -18 -77.5t-49 -56t-71 -34t-84 -11.5q-95 0 -145.5 37.5t-50.5 104.5q0 19 5 44l1 5h139l-1 -5q-3 -15 -3 -30q0 -56 60 -56q29 0 53 13t25 39q0 21 -12 32.5t-40 28.5l-70 42q-20 12 -37 25t-30.5 29.5t-21 38t-7.5 50.5q0 43 18.5 74.5t49.5 52.5t71 31
t82 10q33 0 65.5 -7t58 -23t41 -40.5t15.5 -59.5q0 -10 -2 -23.5t-3 -18.5l-1 -5h-135l1 5q1 4 2.5 12t1.5 15q0 28 -18 37t-38 9q-12 0 -24 -2.5t-22 -8.5t-16.5 -16t-6.5 -26q0 -31 34 -52l66 -40q27 -16 48.5 -30t36.5 -30t23.5 -36t8.5 -47zM296 -99q0 -21 -12.5 -39
t-33.5 -30.5t-48 -19.5t-55 -7q-24 0 -48 3.5t-44 11.5l27 50q10 -6 26.5 -10t33.5 -4q24 0 41.5 9t17.5 26q0 10 -9.5 15.5t-25.5 5.5q-9 0 -20 -2t-21 -7l-26 17l69 82h58l-44 -50q18 3 40 3q29 0 51.5 -13.5t22.5 -40.5z" />
    <glyph glyph-name="scircumflex" unicode="&#x15d;" horiz-adv-x="459" 
d="M255 725h128l92 -123h-136l-35 52l-57 -52h-136zM414 166q0 -44 -18 -77.5t-49 -56t-71 -34t-84 -11.5q-95 0 -145.5 37.5t-50.5 104.5q0 19 5 44l1 5h139l-1 -5q-3 -15 -3 -30q0 -56 60 -56q29 0 53 13t25 39q0 21 -12 32.5t-40 28.5l-70 42q-20 12 -37 25t-30.5 29.5
t-21 38t-7.5 50.5q0 43 18.5 74.5t49.5 52.5t71 31t82 10q33 0 65.5 -7t58 -23t41 -40.5t15.5 -59.5q0 -10 -2 -23.5t-3 -18.5l-1 -5h-135l1 5q1 4 2.5 12t1.5 15q0 28 -18 37t-38 9q-12 0 -24 -2.5t-22 -8.5t-16.5 -16t-6.5 -26q0 -31 34 -52l66 -40q27 -16 48.5 -30
t36.5 -30t23.5 -36t8.5 -47z" />
    <glyph glyph-name="uni0219" unicode="&#x219;" horiz-adv-x="459" 
d="M112 -149h-35l21 99h120l-22 -106l-64 -87h-79zM414 166q0 -44 -18 -77.5t-49 -56t-71 -34t-84 -11.5q-95 0 -145.5 37.5t-50.5 104.5q0 19 5 44l1 5h139l-1 -5q-3 -15 -3 -30q0 -56 60 -56q29 0 53 13t25 39q0 21 -12 32.5t-40 28.5l-70 42q-20 12 -37 25t-30.5 29.5
t-21 38t-7.5 50.5q0 43 18.5 74.5t49.5 52.5t71 31t82 10q33 0 65.5 -7t58 -23t41 -40.5t15.5 -59.5q0 -10 -2 -23.5t-3 -18.5l-1 -5h-135l1 5q1 4 2.5 12t1.5 15q0 28 -18 37t-38 9q-12 0 -24 -2.5t-22 -8.5t-16.5 -16t-6.5 -26q0 -31 34 -52l66 -40q27 -16 48.5 -30
t36.5 -30t23.5 -36t8.5 -47z" />
    <glyph glyph-name="tbar" unicode="&#x167;" horiz-adv-x="339" 
d="M28 359h65l18 84h-65l20 95h65l31 146h153l-31 -146h91l-20 -95h-90l-18 -84h89l-21 -100h-89l-21 -99q-5 -23 -5 -34q0 -19 10 -25t32 -6h40l-20 -95h-110q-62 0 -87.5 18t-25.5 63q0 26 9 64l24 114h-65z" />
    <glyph glyph-name="tcaron" unicode="&#x165;" horiz-adv-x="433" 
d="M146 0q-62 0 -87.5 18t-25.5 63q0 26 9 64l63 298h-65l20 95h65l31 146h153l-31 -146h91l-20 -95h-90l-60 -283q-5 -23 -5 -34q0 -19 10 -25t32 -6h40l-20 -95h-110zM415 725h143l-100 -170h-103z" />
    <glyph glyph-name="uni0163" unicode="&#x163;" horiz-adv-x="339" 
d="M57 -149h-35l21 99h120l-22 -106l-64 -87h-79zM146 0q-62 0 -87.5 18t-25.5 63q0 26 9 64l63 298h-65l20 95h65l31 146h153l-31 -146h91l-20 -95h-90l-60 -283q-5 -23 -5 -34q0 -19 10 -25t32 -6h40l-20 -95h-110z" />
    <glyph glyph-name="uni021B" unicode="&#x21b;" horiz-adv-x="339" 
d="M57 -149h-35l21 99h120l-22 -106l-64 -87h-79zM146 0q-62 0 -87.5 18t-25.5 63q0 26 9 64l63 298h-65l20 95h65l31 146h153l-31 -146h91l-20 -95h-90l-60 -283q-5 -23 -5 -34q0 -19 10 -25t32 -6h40l-20 -95h-110z" />
    <glyph glyph-name="ubreve" unicode="&#x16d;" horiz-adv-x="503" 
d="M489 725q-8 -28 -20 -50.5t-30.5 -38.5t-46.5 -25t-69 -9q-71 0 -100 26.5t-29 70.5q0 6 0.5 12.5t1.5 13.5h103q-1 -5 -1.5 -9t-0.5 -8q0 -17 9 -23.5t25 -6.5q20 0 34 10.5t21 36.5h103zM258 66q-27 -42 -60 -60.5t-81 -18.5q-51 0 -78.5 24t-27.5 85q0 37 12 91
l74 351h154l-67 -317q-6 -28 -11 -51t-5 -40q0 -18 6.5 -27.5t23.5 -9.5q22 0 37.5 13t27.5 35.5t20 51.5t15 61l60 284h153l-108 -538h-159z" />
    <glyph glyph-name="uhungarumlaut" unicode="&#x171;" horiz-adv-x="503" 
d="M258 66q-27 -42 -60 -60.5t-81 -18.5q-51 0 -78.5 24t-27.5 85q0 37 12 91l74 351h154l-67 -317q-6 -28 -11 -51t-5 -40q0 -18 6.5 -27.5t23.5 -9.5q22 0 37.5 13t27.5 35.5t20 51.5t15 61l60 284h153l-108 -538h-159zM426 745h165l-138 -123h-116zM232 745h165
l-138 -123h-116z" />
    <glyph glyph-name="umacron" unicode="&#x16b;" horiz-adv-x="503" 
d="M214 714h252l-21 -100h-252zM258 66q-27 -42 -60 -60.5t-81 -18.5q-51 0 -78.5 24t-27.5 85q0 37 12 91l74 351h154l-67 -317q-6 -28 -11 -51t-5 -40q0 -18 6.5 -27.5t23.5 -9.5q22 0 37.5 13t27.5 35.5t20 51.5t15 61l60 284h153l-108 -538h-159z" />
    <glyph glyph-name="uogonek" unicode="&#x173;" horiz-adv-x="510" 
d="M258 66q-27 -42 -60 -60.5t-81 -18.5q-51 0 -78.5 24t-27.5 85q0 37 12 91l74 351h154l-67 -317q-6 -28 -11 -51t-5 -40q0 -18 6.5 -27.5t23.5 -9.5q22 0 37.5 13t27.5 35.5t20 51.5t15 61l60 284h153l-108 -538q-25 -11 -46 -20t-36 -18t-23.5 -19t-8.5 -22t13.5 -19
t29.5 -7q15 0 30.5 3t26.5 5l-16 -79q-20 -5 -48 -8t-48 -3q-25 0 -47 4.5t-38.5 14t-26.5 24t-10 33.5q0 40 24.5 65.5t64.5 45.5z" />
    <glyph glyph-name="uring" unicode="&#x16f;" horiz-adv-x="503" 
d="M423 678q0 -19 -7.5 -35.5t-20 -28.5t-30 -18.5t-37.5 -6.5t-37.5 6.5t-30 18.5t-20 28.5t-7.5 35.5q0 39 28 64.5t67 25.5t67 -25.5t28 -64.5zM287 678q0 -17 12 -28.5t29 -11.5t29 11.5t12 28.5q0 18 -12 29.5t-29 11.5t-29 -11.5t-12 -29.5zM258 66q-27 -42 -60 -60.5
t-81 -18.5q-51 0 -78.5 24t-27.5 85q0 37 12 91l74 351h154l-67 -317q-6 -28 -11 -51t-5 -40q0 -18 6.5 -27.5t23.5 -9.5q22 0 37.5 13t27.5 35.5t20 51.5t15 61l60 284h153l-108 -538h-159z" />
    <glyph glyph-name="utilde" unicode="&#x169;" horiz-adv-x="503" 
d="M258 66q-27 -42 -60 -60.5t-81 -18.5q-51 0 -78.5 24t-27.5 85q0 37 12 91l74 351h154l-67 -317q-6 -28 -11 -51t-5 -40q0 -18 6.5 -27.5t23.5 -9.5q22 0 37.5 13t27.5 35.5t20 51.5t15 61l60 284h153l-108 -538h-159zM156 603q22 68 54.5 95t68.5 27q17 0 33.5 -5.5
t31 -12t26.5 -12t21 -5.5q11 0 22 10.5t16 24.5h84q-22 -68 -53.5 -95t-61.5 -27q-15 0 -32 5t-34 11.5t-32.5 11.5t-26.5 5t-18 -8.5t-15 -24.5h-84z" />
    <glyph glyph-name="uni1EE5" unicode="&#x1ee5;" horiz-adv-x="503" 
d="M110 -57h133l-25 -118h-133zM258 66q-27 -42 -60 -60.5t-81 -18.5q-51 0 -78.5 24t-27.5 85q0 37 12 91l74 351h154l-67 -317q-6 -28 -11 -51t-5 -40q0 -18 6.5 -27.5t23.5 -9.5q22 0 37.5 13t27.5 35.5t20 51.5t15 61l60 284h153l-108 -538h-159z" />
    <glyph glyph-name="wacute" unicode="&#x1e83;" horiz-adv-x="605" 
d="M411 725h175l-148 -123h-116zM79 538h128l-46 -372l131 372h135l-24 -371l110 371h128l-177 -538h-163l32 408l-143 -408h-165z" />
    <glyph glyph-name="wcircumflex" unicode="&#x175;" horiz-adv-x="605" 
d="M334 725h128l92 -123h-136l-35 52l-57 -52h-136zM79 538h128l-46 -372l131 372h135l-24 -371l110 371h128l-177 -538h-163l32 408l-143 -408h-165z" />
    <glyph glyph-name="wdieresis" unicode="&#x1e85;" horiz-adv-x="605" 
d="M236 725h133l-26 -123h-133zM436 725h134l-26 -123h-134zM79 538h128l-46 -372l131 372h135l-24 -371l110 371h128l-177 -538h-163l32 408l-143 -408h-165z" />
    <glyph glyph-name="wgrave" unicode="&#x1e81;" horiz-adv-x="605" 
d="M227 725h175l37 -123h-115zM79 538h128l-46 -372l131 372h135l-24 -371l110 371h128l-177 -538h-163l32 408l-143 -408h-165z" />
    <glyph glyph-name="ycircumflex" unicode="&#x177;" horiz-adv-x="430" 
d="M250 725h128l92 -123h-136l-35 52l-57 -52h-136zM-19 -81h37q34 0 47.5 14t25.5 42l12 27l-46 536h140l11 -390l140 390h144l-235 -538q-23 -53 -42.5 -86.5t-44.5 -53.5t-59.5 -27.5t-87.5 -7.5h-62z" />
    <glyph glyph-name="ygrave" unicode="&#x1ef3;" horiz-adv-x="430" 
d="M151 725h175l37 -123h-115zM-19 -81h37q34 0 47.5 14t25.5 42l12 27l-46 536h140l11 -390l140 390h144l-235 -538q-23 -53 -42.5 -86.5t-44.5 -53.5t-59.5 -27.5t-87.5 -7.5h-62z" />
    <glyph glyph-name="uni0233" unicode="&#x233;" horiz-adv-x="430" 
d="M192 714h252l-21 -100h-252zM-19 -81h37q34 0 47.5 14t25.5 42l12 27l-46 536h140l11 -390l140 390h144l-235 -538q-23 -53 -42.5 -86.5t-44.5 -53.5t-59.5 -27.5t-87.5 -7.5h-62z" />
    <glyph glyph-name="zacute" unicode="&#x17a;" horiz-adv-x="423" 
d="M303 725h175l-148 -123h-116zM-15 95l275 348h-178l20 95h348l-20 -95l-276 -348h210l-20 -95h-379z" />
    <glyph glyph-name="zcaron" unicode="&#x17e;" horiz-adv-x="423" 
d="M125 725h136l35 -52l57 52h135l-143 -123h-126zM-15 95l275 348h-178l20 95h348l-20 -95l-276 -348h210l-20 -95h-379z" />
    <glyph glyph-name="zdotaccent" unicode="&#x17c;" horiz-adv-x="423" 
d="M-15 95l275 348h-178l20 95h348l-20 -95l-276 -348h210l-20 -95h-379zM253 725h133l-25 -122h-135z" />
    <glyph glyph-name="uni0259" unicode="&#x259;" horiz-adv-x="493" 
d="M54 364q11 55 32.5 91t50.5 57.5t64.5 30.5t74.5 9q96 0 149.5 -46.5t53.5 -134.5q0 -16 -1.5 -32.5t-6.5 -35.5l-18 -87q-12 -60 -31.5 -103t-49 -71.5t-70.5 -42t-97 -13.5q-97 0 -144 41.5t-47 129.5q0 43 12 99l6 29h283l2 7q14 62 14 97q0 32 -12 48t-40 16
q-14 0 -26.5 -3t-22.5 -13t-18 -27.5t-14 -45.5l-1 -6h-144zM213 83q21 0 35.5 10t23.5 26t14.5 35.5t9.5 38.5l2 10h-142l-2 -9q-6 -27 -6 -47q0 -34 16.5 -49t48.5 -15z" />
    <glyph glyph-name="ellipsis" unicode="&#x2026;" horiz-adv-x="714" 
d="M252 155h162l-33 -155h-162zM490 155h162l-33 -155h-162zM14 155h162l-33 -155h-162z" />
    <glyph glyph-name="endash" unicode="&#x2013;" horiz-adv-x="492" 
d="M36 317h439l-27 -131h-439z" />
    <glyph glyph-name="emdash" unicode="&#x2014;" horiz-adv-x="716" 
d="M36 317h663l-27 -131h-663z" />
    <glyph glyph-name="guilsinglleft" unicode="&#x2039;" horiz-adv-x="213" 
d="M14 192l37 177l184 145l-36 -169l-87 -65l59 -66l-36 -171z" />
    <glyph glyph-name="guilsinglright" unicode="&#x203a;" horiz-adv-x="213" 
d="M203 365l-37 -177l-184 -145l36 169l87 65l-59 66l36 171z" />
    <glyph glyph-name="quoteleft" unicode="&#x2018;" horiz-adv-x="238" 
d="M192 561h71l-33 -155h-162l35 165l115 154h92z" />
    <glyph glyph-name="quoteright" unicode="&#x2019;" horiz-adv-x="238" 
d="M173 570h-71l33 155h162l-35 -165l-115 -154h-92z" />
    <glyph glyph-name="quotedblleft" unicode="&#x201c;" horiz-adv-x="448" 
d="M404 561h71l-33 -155h-162l35 165l115 154h92zM192 561h71l-33 -155h-162l35 165l115 154h92z" />
    <glyph glyph-name="quotedblright" unicode="&#x201d;" horiz-adv-x="448" 
d="M385 570h-71l33 155h162l-35 -165l-115 -154h-92zM173 570h-71l33 155h162l-35 -165l-115 -154h-92z" />
    <glyph glyph-name="quotesinglbase" unicode="&#x201a;" horiz-adv-x="238" 
d="M52 0h-71l33 155h162l-35 -165l-115 -154h-92z" />
    <glyph glyph-name="quotedblbase" unicode="&#x201e;" horiz-adv-x="448" 
d="M264 0h-71l33 155h162l-35 -165l-115 -154h-92zM52 0h-71l33 155h162l-35 -165l-115 -154h-92z" />
    <glyph glyph-name="bullet" unicode="&#x2022;" horiz-adv-x="455" 
d="M409 272q0 -39 -14 -72t-39 -58t-58.5 -39t-72.5 -14q-36 0 -68.5 14t-56.5 39t-38 58t-14 72q0 37 14 69t38 56t56.5 38t68.5 14q39 0 72.5 -14t58.5 -38t39 -56t14 -69z" />
    <glyph glyph-name="dagger" unicode="&#x2020;" horiz-adv-x="561" 
d="M236 391h-188l25 118h189l46 216h140l-46 -216h188l-25 -118h-188l-83 -391h-141z" />
    <glyph glyph-name="daggerdbl" unicode="&#x2021;" horiz-adv-x="561" 
d="M191 178h-188l25 118h189l25 116h-190l25 118h189l41 195h141l-41 -195h188l-25 -118h-188l-25 -116h188l-25 -118h-188l-38 -178h-141z" />
    <glyph glyph-name="perthousand" unicode="&#x2030;" horiz-adv-x="1081" 
d="M856 87q0 -35 28 -35q15 0 24.5 9t16 25.5t12 41t12.5 56.5l8 38q7 32 11.5 56.5t4.5 41.5q0 34 -26 34q-30 0 -42 -34.5t-25 -97.5l-8 -38q-6 -32 -11 -56t-5 -41zM1041 174q-10 -47 -22.5 -81t-32 -56.5t-46.5 -33.5t-65 -11q-59 0 -83.5 24t-24.5 75q0 37 10 83l12 58
q10 46 22.5 80.5t31 57t46 33.5t67.5 11q57 0 82 -24.5t25 -75.5q0 -17 -2.5 -38t-7.5 -44zM557 725h65l-362 -725h-65zM147 404q0 -35 28 -35q15 0 24.5 9t16 25.5t12 41t12.5 56.5l8 38q7 32 11.5 56.5t4.5 41.5q0 34 -26 34q-30 0 -42 -34.5t-25 -97.5l-8 -38
q-6 -32 -11 -56t-5 -41zM332 491q-10 -47 -22.5 -81t-32 -56.5t-46.5 -33.5t-65 -11q-59 0 -83.5 24t-24.5 75q0 37 10 83l12 58q10 46 22.5 80.5t31 57t46 33.5t67.5 11q57 0 82 -24.5t25 -75.5q0 -17 -2.5 -38t-7.5 -44zM553 87q0 -35 28 -35q15 0 24.5 9t16 25.5t12 41
t12.5 56.5l8 38q7 32 11.5 56.5t4.5 41.5q0 34 -26 34q-30 0 -42 -34.5t-25 -97.5l-8 -38q-6 -32 -11 -56t-5 -41zM738 174q-10 -47 -22.5 -81t-32 -56.5t-46.5 -33.5t-65 -11q-59 0 -83.5 24t-24.5 75q0 37 10 83l12 58q10 46 22.5 80.5t31 57t46 33.5t67.5 11
q57 0 82 -24.5t25 -75.5q0 -17 -2.5 -38t-7.5 -44z" />
    <glyph glyph-name="uni2117" unicode="&#x2117;" horiz-adv-x="826" 
d="M434 48q65 0 120 23.5t95.5 65.5t63 100.5t22.5 127.5t-22.5 126.5t-63 99.5t-95.5 65t-120 23q-64 0 -119.5 -23t-96 -65t-63.5 -99.5t-23 -126.5t23 -127.5t63.5 -100.5t96 -65.5t119.5 -23.5zM433 -12q-76 0 -143 28t-117.5 78t-79.5 119t-29 151t29 151t79.5 118.5
t117.5 77.5t143 28q77 0 144.5 -28t117.5 -77.5t79 -118.5t29 -151t-29 -151t-79 -119t-117.5 -78t-144.5 -28zM313 163v414h127q41 0 70.5 -5.5t49 -19.5t29 -38t9.5 -61t-9.5 -60t-30.5 -36t-54.5 -18t-81.5 -5v-171h-109zM422 403h16q27 1 32 12t5 38t-5.5 36.5
t-32.5 9.5h-15v-96z" />
    <glyph glyph-name="trademark" unicode="&#x2122;" horiz-adv-x="790" 
d="M396 725h144l37 -280l38 280h144v-399h-94v299h-1l-4 -35l-43 -264h-80l-43 264l-4 35h-1v-299h-93v399zM184 650h-73v75h252v-75h-73v-324h-106v324z" />
    <glyph glyph-name="lozenge" unicode="&#x25ca;" horiz-adv-x="574" 
d="M442 343l-135 209l-136 -209l136 -209zM18 343l288 438l282 -438l-282 -439z" />
    <glyph glyph-name="uni2113" unicode="&#x2113;" 
d="M441 49q-30 -22 -72.5 -41.5t-100.5 -19.5q-73 0 -111.5 27t-38.5 95q0 27 8 67l1 7l-83 -55l-35 78l144 96l47 223q23 107 70 159t134 52q31 0 59 -8t48 -24t32 -39.5t12 -54.5q0 -19 -4 -36q-9 -46 -31 -82t-54 -68.5t-74.5 -62.5t-93.5 -64l-12 -8l-23 -108
q-5 -25 -5 -39q0 -26 13 -37.5t39 -11.5t50.5 11t47.5 26zM311 410l3 2q49 32 77.5 70t39.5 93q3 15 3 26q0 40 -33 40q-25 0 -37 -20.5t-22 -67.5z" />
    <glyph glyph-name="uni2116" unicode="&#x2116;" horiz-adv-x="912" 
d="M737 474q0 -20 7.5 -30t25.5 -10q27 0 37 26.5t20 76.5l7 30q4 20 6.5 36t2.5 29q0 20 -7.5 29.5t-25.5 9.5q-27 0 -37.5 -27t-20.5 -77l-6 -30q-4 -20 -6.5 -35.5t-2.5 -27.5zM922 520q-8 -38 -20 -66t-31 -46.5t-45 -27.5t-62 -9q-60 0 -92 29t-32 83q0 11 2 23t4 25
l11 55q16 77 52 112.5t107 35.5q60 0 92 -28.5t32 -82.5q0 -22 -6 -47zM605 327h279l-26 -120h-279zM151 725h184l46 -521l111 521h141l-154 -725h-184l-46 521l-111 -521h-141z" />
    <glyph glyph-name="glyph360" horiz-adv-x="455" 
d="M409 272q0 -39 -14 -72t-39 -58t-58.5 -39t-72.5 -14q-36 0 -68.5 14t-56.5 39t-38 58t-14 72q0 37 14 69t38 56t56.5 38t68.5 14q39 0 72.5 -14t58.5 -38t39 -56t14 -69z" />
    <glyph glyph-name="estimated" unicode="&#x212e;" horiz-adv-x="578" 
d="M433 303v163q-22 22 -59 37t-86 15q-46 0 -85 -13t-63 -38v-164h293zM536 148q-12 -33 -33 -62.5t-51 -51t-69 -34t-88 -12.5q-67 0 -117.5 22.5t-84.5 61t-51.5 89.5t-17.5 109q0 60 19 112t53.5 89.5t83.5 59t109 21.5q63 0 111 -23t81 -62t50.5 -90t18.5 -106h-410
v-195q23 -24 67 -39.5t95 -15.5q72 0 120.5 34t73.5 93h40z" />
    <glyph glyph-name="minus" unicode="&#x2212;" 
d="M12 327h516v-115h-516v115z" />
    <glyph glyph-name="lessequal" unicode="&#x2264;" 
d="M487 433l-270 -84l270 -84v-123l-452 143v127l452 143v-122zM35 116h452v-116h-452v116z" />
    <glyph glyph-name="greaterequal" unicode="&#x2265;" 
d="M50 555l452 -143v-127l-452 -143v123l270 84l-270 84v122zM502 0h-452v116h452v-116z" />
    <glyph glyph-name="notequal" unicode="&#x2260;" 
d="M58 429h225l45 109h137l-45 -109h68v-117h-117l-41 -101h158v-116h-206l-39 -95h-137l39 95h-87v116h135l41 101h-176v117z" />
    <glyph glyph-name="approxequal" unicode="&#x2248;" 
d="M20 55q1 44 9.5 79.5t27 60.5t47.5 38.5t73 13.5q34 0 59 -10.5t45.5 -23t39 -23t40.5 -10.5q24 0 35.5 14.5t13.5 52.5h118q-2 -45 -10 -80.5t-26 -60t-47.5 -38t-72.5 -13.5q-31 0 -54.5 10.5t-44 22.5t-41 22.5t-45.5 10.5q-24 0 -36 -14t-14 -52h-117zM20 286
q1 45 9.5 80.5t27 60.5t47.5 38.5t73 13.5q34 0 59 -10.5t45.5 -23t39 -23t40.5 -10.5q24 0 35.5 14.5t13.5 52.5h118q-2 -44 -10 -80t-26 -61t-47.5 -38.5t-72.5 -13.5q-31 0 -54.5 10.5t-44 23t-41 23t-45.5 10.5q-24 0 -36 -14t-14 -53h-117z" />
    <glyph glyph-name="partialdiff" unicode="&#x2202;" horiz-adv-x="514" 
d="M484 319q0 -65 -9.5 -124.5t-35 -105.5t-70.5 -73.5t-115 -27.5q-57 0 -99.5 17.5t-70.5 49t-42 74.5t-14 95v28q0 109 52.5 165.5t152.5 56.5q45 0 74.5 -16t47.5 -36l2 3q-3 43 -13.5 79t-36.5 62t-70.5 40.5t-114.5 16.5v116h3q103 0 172 -28t110.5 -79.5t59 -125.5
t17.5 -166v-21zM168 220q0 -64 20 -95.5t65 -31.5q86 0 86 125v26q0 125 -86 125q-45 0 -65 -31t-20 -95v-23z" />
    <glyph glyph-name="product" unicode="&#x220f;" horiz-adv-x="622" 
d="M87 725h448v-900h-142v778h-164v-778h-142v900z" />
    <glyph glyph-name="radical" unicode="&#x221a;" horiz-adv-x="579" 
d="M129 87l-87 -43l-52 120l192 95l125 -263l170 729h141l-219 -900h-144z" />
    <glyph glyph-name="summation" unicode="&#x2211;" horiz-adv-x="511" 
d="M63 -58l207 333l-203 331v119h421v-122h-269l197 -328l-202 -328h274v-122h-425v117z" />
    <glyph glyph-name="integral" unicode="&#x222b;" horiz-adv-x="472" 
d="M310 136q0 -96 -15 -156.5t-40 -95.5t-58.5 -48t-69.5 -13q-20 0 -39 5.5t-34 16.5t-24.5 27t-9.5 38q0 25 16 42.5t45 17.5q9 0 18.5 -3t17.5 -10t13 -18.5t5 -27.5q0 -11 -3 -26q22 5 30 34.5t8 84.5q0 37 -4 92.5t-4 123.5v204q0 96 15 157t40.5 96t59 48t69.5 13
q20 0 39 -5.5t34 -16.5t24 -27.5t9 -38.5q0 -26 -16 -43t-45 -17q-9 0 -18.5 3t-17.5 9.5t-13 18t-5 28.5q0 12 3 26q-41 -8 -41 -118q0 -27 1.5 -48.5t4 -48.5t4 -65t1.5 -97v-162z" />
    <glyph glyph-name="infinity" unicode="&#x221e;" horiz-adv-x="773" 
d="M738 256q0 -38 -13 -69.5t-37 -54.5t-57.5 -35.5t-74.5 -12.5q-56 0 -96 25t-75 62q-35 -36 -76 -61t-98 -25q-41 0 -74 12.5t-57 35.5t-37 54t-13 69q0 37 13.5 68.5t37.5 54.5t58 35.5t75 12.5q54 0 94.5 -23.5t74.5 -58.5q35 37 75.5 59.5t96.5 22.5q40 0 74 -12.5
t58 -35.5t37.5 -54.5t13.5 -68.5zM151 256q0 -24 17.5 -40t45.5 -16q29 0 52.5 17t43.5 40q-19 22 -41.5 38.5t-52.5 16.5q-29 0 -47 -16t-18 -40zM458 257q20 -23 43.5 -40t52.5 -17q28 0 45.5 16t17.5 40t-18 40t-47 16q-30 0 -52.5 -16.5t-41.5 -38.5z" />
    <glyph glyph-name="uni0394" unicode="&#x394;" horiz-adv-x="650" 
d="M406 122l-138 332l-139 -332h277zM268 749l325 -749h-650z" />
    <glyph glyph-name="uni0394" unicode="&#x2206;" horiz-adv-x="650" 
d="M406 122l-138 332l-139 -332h277zM268 749l325 -749h-650z" />
    <glyph glyph-name="uni03A9" unicode="&#x3a9;" horiz-adv-x="790" 
d="M99 130h150v44q-29 13 -56.5 34.5t-48.5 53.5t-34 74.5t-13 98.5q0 73 21 129.5t60.5 95t95.5 58.5t126 20t126 -20t95.5 -58.5t60.5 -95t21 -129.5q0 -56 -13 -98.5t-34 -74.5t-48.5 -53.5t-56.5 -34.5v-44h150v-130h-269v249q60 17 94.5 63t34.5 119q0 94 -43.5 143
t-117.5 49t-117.5 -49t-43.5 -143q0 -73 34.5 -119t94.5 -63v-249h-269v130z" />
    <glyph glyph-name="uni03A9" unicode="&#x2126;" horiz-adv-x="790" 
d="M99 130h150v44q-29 13 -56.5 34.5t-48.5 53.5t-34 74.5t-13 98.5q0 73 21 129.5t60.5 95t95.5 58.5t126 20t126 -20t95.5 -58.5t60.5 -95t21 -129.5q0 -56 -13 -98.5t-34 -74.5t-48.5 -53.5t-56.5 -34.5v-44h150v-130h-269v249q60 17 94.5 63t34.5 119q0 94 -43.5 143
t-117.5 49t-117.5 -49t-43.5 -143q0 -73 34.5 -119t94.5 -63v-249h-269v130z" />
    <glyph glyph-name="pi" unicode="&#x3c0;" horiz-adv-x="547" 
d="M115 419h-64l26 122h484l-26 -122h-63l-51 -245q-2 -12 -3.5 -21.5t-1.5 -16.5q0 -14 8.5 -19.5t31.5 -5.5h27l-23 -111h-42q-69 0 -100 16.5t-31 68.5q0 15 2.5 34t7.5 42l53 258h-112l-87 -419h-123z" />
    <glyph glyph-name="Euro" unicode="&#x20ac;" horiz-adv-x="608" 
d="M74 452h59q17 72 41 125.5t59 89.5t85 53.5t119 17.5q96 0 145 -38t49 -122q0 -35 -9 -81l-2 -10h-149l2 10q5 21 6.5 36.5t1.5 29.5q0 42 -18.5 54.5t-49.5 12.5q-27 0 -46 -12t-32.5 -35t-23.5 -56t-20 -75h178l-52 -79h-143l-6 -31l-3 -12h131l-52 -78h-94
q-5 -26 -6.5 -47.5t-1.5 -38.5q0 -34 13.5 -52t46.5 -18q20 0 37.5 4.5t32 19t26 40.5t20.5 70l2 10h150l-2 -10q-26 -128 -98 -185.5t-190 -57.5q-107 0 -151 41.5t-44 127.5q0 20 1.5 44.5t6.5 51.5h-96l51 78h59l9 43h-94z" />
    <glyph glyph-name="uniFB01" unicode="&#xfb01;" horiz-adv-x="556" 
d="M417 538h154l-114 -538h-154zM100 443h-65l20 95h64l10 47q9 46 25.5 73.5t42 42.5t60 19.5t79.5 4.5h68l-19 -91h-38q-31 0 -44 -9.5t-20 -41.5l-10 -45h91l-20 -95h-91l-94 -443h-153zM457 725h154l-27 -128h-154z" />
    <glyph glyph-name="uniFB02" unicode="&#xfb02;" horiz-adv-x="557" 
d="M100 443h-65l20 95h64l10 47q9 46 25.5 73.5t42 42.5t60 19.5t79.5 4.5h68l-19 -91h-38q-31 0 -44 -9.5t-20 -41.5l-10 -45h91l-20 -95h-91l-94 -443h-153zM457 725h154l-154 -725h-154z" />
    <glyph glyph-name="breve" unicode="&#x2d8;" horiz-adv-x="343" 
d="M415 725q-8 -28 -20 -50.5t-30.5 -38.5t-46.5 -25t-69 -9q-71 0 -100 26.5t-29 70.5q0 6 0.5 12.5t1.5 13.5h103q-1 -5 -1.5 -9t-0.5 -8q0 -17 9 -23.5t25 -6.5q20 0 34 10.5t21 36.5h103z" />
    <glyph glyph-name="caron" unicode="&#x2c7;" horiz-adv-x="413" 
d="M122 725h136l35 -52l57 52h135l-143 -123h-126z" />
    <glyph glyph-name="circumflex" unicode="&#x2c6;" horiz-adv-x="414" 
d="M240 725h128l92 -123h-136l-35 52l-57 -52h-136z" />
    <glyph glyph-name="dotaccent" unicode="&#x2d9;" horiz-adv-x="185" 
d="M123 725h133l-25 -122h-135z" />
    <glyph glyph-name="glyph383" horiz-adv-x="239" 
d="M140 725h154l-27 -128h-154z" />
    <glyph glyph-name="glyph384" horiz-adv-x="183" 
d="M-45 -57h133l-25 -118h-133z" />
    <glyph glyph-name="hungarumlaut" unicode="&#x2dd;" horiz-adv-x="472" 
d="M383 745h165l-138 -123h-116zM189 745h165l-138 -123h-116z" />
    <glyph glyph-name="glyph386" horiz-adv-x="174" 
d="M-25 -149h-35l21 99h120l-22 -106l-64 -87h-79z" />
    <glyph glyph-name="ogonek" unicode="&#x2db;" horiz-adv-x="271" 
d="M151 -180q-20 -4 -42.5 -6t-39.5 -2q-25 0 -47 4.5t-38.5 14t-26.5 24t-10 33.5q0 40 26 66t66 46h150q-50 -22 -79 -38.5t-29 -41.5q0 -12 13.5 -19t29.5 -7q11 0 22.5 1.5t21.5 3.5z" />
    <glyph glyph-name="ring" unicode="&#x2da;" horiz-adv-x="244" 
d="M304 678q0 -19 -7.5 -35.5t-20 -28.5t-30 -18.5t-37.5 -6.5t-37.5 6.5t-30 18.5t-20 28.5t-7.5 35.5q0 39 28 64.5t67 25.5t67 -25.5t28 -64.5zM168 678q0 -17 12 -28.5t29 -11.5t29 11.5t12 28.5q0 18 -12 29.5t-29 11.5t-29 -11.5t-12 -29.5z" />
    <glyph glyph-name="tilde" unicode="&#x2dc;" horiz-adv-x="381" 
d="M96 603q22 68 54.5 95t68.5 27q17 0 33.5 -5.5t31 -12t26.5 -12t21 -5.5q11 0 22 10.5t16 24.5h84q-22 -68 -53.5 -95t-61.5 -27q-15 0 -32 5t-34 11.5t-32.5 11.5t-26.5 5t-18 -8.5t-15 -24.5h-84z" />
    <glyph glyph-name="glyph390" horiz-adv-x="228" 
d="M156 725h143l-100 -170h-103z" />
    <glyph glyph-name="uni032C" unicode="&#x32c;" horiz-adv-x="439" 
d="M-34 10h119l64 -52l90 52h117l-187 -139h-76z" />
    <glyph glyph-name="zero.zero" horiz-adv-x="549" 
d="M518 309q-18 -83 -39.5 -143.5t-54 -100t-79.5 -59t-116 -19.5q-105 0 -152 45.5t-47 139.5q0 60 16 136l23 106q17 82 38.5 143t54.5 101.5t80 60t116 19.5q105 0 152 -45.5t47 -140.5q0 -29 -4 -63.5t-13 -74.5zM180 153q0 -32 12 -49.5t43 -17.5q30 0 49.5 16.5
t33.5 47.5t25 76t23 102l4 20l-173 -73q-8 -38 -12.5 -68.5t-4.5 -53.5zM218 379l173 71q8 35 12.5 65t4.5 53q0 35 -12.5 53t-43.5 18q-30 0 -49.5 -16.5t-33.5 -47.5t-24.5 -76t-22.5 -102z" />
    <glyph glyph-name="one.oldstyle" horiz-adv-x="314" 
d="M150 479h-93l20 94q32 1 53.5 3.5t37 10t27.5 22.5t25 43h118l-139 -652h-152z" />
    <glyph glyph-name="two.oldstyle" horiz-adv-x="480" 
d="M6 110l91 90q71 72 116.5 120.5t72 84t37 63t10.5 59.5q0 17 -8 27t-28 10q-26 0 -41 -24.5t-27 -85.5l-2 -10h-143l2 10q11 53 29 92.5t45.5 65.5t67 39t93.5 13q81 0 125.5 -31.5t44.5 -87.5q0 -42 -15 -80.5t-43.5 -79t-70.5 -85.5t-97 -102l-81 -80h225l-25 -118
h-401z" />
    <glyph glyph-name="three.oldstyle" horiz-adv-x="484" 
d="M431 233q0 -124 -67 -184.5t-192 -60.5q-34 0 -64 6.5t-52.5 22t-36 40.5t-13.5 63q0 14 1.5 29.5t5.5 32.5l1 5h142l-1 -5q-3 -16 -5 -28.5t-2 -23.5q0 -22 9 -32.5t30 -10.5q28 0 45.5 14.5t27.5 36.5t14 47.5t4 47.5q0 23 -13 37t-49 14h-42l22 103h37q28 0 45 15
t26 37t12 46t3 42t-8 27.5t-31 9.5q-13 0 -22 -3t-15.5 -12.5t-12 -26.5t-11.5 -45l-1 -5h-142l1 5q11 55 32 91t50 57.5t64.5 30t76.5 8.5q36 0 68.5 -6t56.5 -20t38 -37t14 -58q0 -45 -13 -79t-32 -58t-41.5 -38.5t-40.5 -20.5q39 -14 60 -41.5t21 -72.5z" />
    <glyph glyph-name="four.oldstyle" horiz-adv-x="488" 
d="M208 154h-214l22 107l298 391h149l-81 -381h79l-25 -117h-77l-33 -154h-151zM231 271l42 194l-147 -194h105z" />
    <glyph glyph-name="five.oldstyle" horiz-adv-x="470" 
d="M413 193q-12 -52 -30 -90.5t-45.5 -64t-66 -38t-90.5 -12.5q-34 0 -65.5 6.5t-56 22.5t-39 42t-14.5 64q0 28 7 59l1 5h141l-1 -5q-6 -29 -6 -49q0 -23 9.5 -34.5t32.5 -11.5q29 0 43 28.5t24 76.5l10 50q3 17 5 30.5t2 24.5q0 23 -8.5 36t-28.5 13t-33 -13.5t-23 -41.5
l-138 6l103 355h348l-25 -118h-229l-44 -152q15 26 47 47.5t73 21.5q63 0 91 -29.5t28 -89.5q0 -36 -11 -89z" />
    <glyph glyph-name="six.oldstyle" horiz-adv-x="492" 
d="M435 196q-21 -104 -75.5 -156t-159.5 -52q-93 0 -133 38t-40 115q0 32 5 69t14 82l20 94q15 72 34.5 124.5t49 86.5t72 50.5t103.5 16.5q82 0 120.5 -33.5t38.5 -89.5q0 -27 -6 -55l-1 -5h-142l1 5q3 14 4 24.5t1 18.5q0 20 -8 27.5t-23 7.5q-20 0 -32.5 -9.5
t-21.5 -29.5t-15.5 -50t-14.5 -71l-7 -35q14 24 43.5 43.5t69.5 19.5q63 0 91.5 -30t28.5 -90q0 -19 -3 -40.5t-8 -45.5zM170 133q0 -46 39 -46q31 0 44.5 28.5t23.5 76.5l6 30q3 17 5.5 32.5t2.5 27.5q0 22 -8 34t-28 12q-29 0 -45 -29t-26 -77l-6 -30q-8 -37 -8 -59z" />
    <glyph glyph-name="seven.oldstyle" horiz-adv-x="434" 
d="M32 0q17 81 48 154.5t72.5 140t92 126t107.5 113.5h-261l25 118h384l-25 -118q-63 -63 -109.5 -123.5t-80 -124.5t-56.5 -134.5t-38 -151.5h-159z" />
    <glyph glyph-name="eight.oldstyle" horiz-adv-x="496" 
d="M443 238q0 -118 -60 -184t-184 -66q-88 0 -140.5 33.5t-52.5 98.5q0 40 8.5 77.5t26 68t43.5 51.5t61 29q-9 4 -19.5 12.5t-19 21t-14 30.5t-5.5 41q0 58 18 98.5t49 66t73 37t90 11.5q35 0 67 -7.5t56.5 -23t39 -38.5t14.5 -54q0 -45 -12 -79t-30 -58.5t-38.5 -39
t-38.5 -18.5q68 -27 68 -108zM160 127q0 -18 9.5 -29t35.5 -11q22 0 35.5 8t21.5 22t12 31.5t8 37.5l1 5q3 16 6.5 30.5t3.5 27.5q0 18 -9.5 29t-35.5 11q-23 0 -36.5 -8t-21.5 -21.5t-12 -31.5t-8 -37l-1 -5q-3 -16 -6 -31t-3 -28zM233 417q0 -31 38 -31q18 0 27.5 6.5
t15 18.5t8.5 28t7 35l1 5q3 17 6 30.5t3 24.5q0 14 -8 22t-28 8q-18 0 -28 -6.5t-15.5 -17.5t-8.5 -26.5t-7 -34.5l-1 -5q-4 -17 -7 -31.5t-3 -25.5z" />
    <glyph glyph-name="nine.oldstyle" horiz-adv-x="491" 
d="M439 265q-15 -72 -34 -124.5t-48 -86.5t-71 -50t-103 -16q-82 0 -122.5 33t-40.5 90q0 12 2 28t4 25l1 5h142l-1 -5q-2 -8 -3.5 -20.5t-1.5 -20.5q0 -21 8.5 -28.5t23.5 -7.5q20 0 32.5 10t20.5 29.5t14.5 49.5t15.5 70l8 37q-15 -26 -44 -45.5t-69 -19.5
q-63 0 -91.5 29.5t-28.5 89.5q0 19 2 41.5t8 47.5l7 30q24 103 80 155.5t162 52.5q92 0 129 -39t37 -115q0 -32 -5 -69t-14 -82zM214 370q0 -22 8 -34t28 -12q30 0 45.5 27.5t25.5 75.5l6 30q8 37 8 60t-7.5 35t-27.5 12q-31 0 -47 -29.5t-26 -77.5l-6 -30q-3 -17 -5 -31
t-2 -26z" />
    <glyph glyph-name="zero.oldstyle" horiz-adv-x="508" 
d="M170 140q0 -26 9 -39.5t32 -13.5t37.5 14t25 40t18.5 64t19 86l15 68q11 51 18 89t7 65q0 25 -9 38t-31 13q-23 0 -38 -14t-25.5 -40t-19 -64.5t-18.5 -86.5l-15 -68q-10 -49 -17.5 -86.5t-7.5 -64.5zM463 277q-16 -74 -36 -128.5t-50 -90t-73.5 -53t-105.5 -17.5
q-92 0 -134.5 38.5t-42.5 116.5q0 29 4.5 61.5t12.5 72.5l21 97q16 73 36 127.5t50 90.5t73.5 54t106.5 18q92 0 133.5 -39t41.5 -117q0 -58 -16 -134z" />
    <glyph glyph-name="zero.oldstyle.zero" horiz-adv-x="508" 
d="M463 277q-16 -74 -36 -128.5t-50 -90t-73.5 -53t-105.5 -17.5q-92 0 -134.5 38.5t-42.5 116.5q0 29 4.5 61.5t12.5 72.5l21 97q16 73 36 127.5t50 90.5t73.5 54t106.5 18q92 0 133.5 -39t41.5 -117q0 -58 -16 -134zM170 140q0 -26 9 -39.5t32 -13.5t37.5 14t25 40
t18.5 64t19 86l4 18l-127 -54q-8 -36 -13 -64.5t-5 -50.5zM311 564q-23 0 -38 -14t-25.5 -40t-19 -64t-18.5 -86l127 52q7 32 10.5 56.5t3.5 44.5q0 25 -9 38t-31 13z" />
    <glyph glyph-name="one.tnum" 
d="M25 117h147l90 424h-143l20 95q39 1 70 3.5t55 11t42 25.5t32 49h119l-129 -608h131l-25 -117h-434z" />
    <glyph glyph-name="two.tnum" 
d="M20 109l102 101l47 47q29 29 59.5 62.5t61 70t55 72t39.5 68.5t15 59q0 23 -11.5 36.5t-38.5 13.5q-36 0 -57.5 -30t-35.5 -99l-2 -11h-143l2 10q12 57 31 100t49 71.5t72 43t100 14.5q43 0 78.5 -10t61 -28.5t39.5 -45t14 -58.5q0 -47 -22.5 -94t-60 -96t-87 -99.5
t-102.5 -103.5l-87 -87h263l-25 -116h-440z" />
    <glyph glyph-name="three.tnum" 
d="M492 265q0 -130 -67.5 -204t-204.5 -74q-39 0 -75 8t-63.5 26t-43.5 47t-16 70q0 14 2 28t6 31l2 10h142l-2 -10q-3 -15 -5.5 -28.5t-2.5 -24.5q0 -28 13.5 -43t43.5 -15q35 0 57.5 17.5t35.5 43.5t18 56t5 55q0 29 -17.5 47t-65.5 18h-45l22 103h40q34 0 55.5 15
t34.5 38.5t18 52t5 55.5q0 24 -11.5 38t-41.5 14q-18 0 -30.5 -5t-22 -17t-17 -32.5t-14.5 -50.5l-1 -5h-144l1 5q15 58 36 97t50 63t66 34t83 10q40 0 76.5 -7.5t65 -24t45.5 -43.5t17 -67q0 -76 -37 -131.5t-108 -78.5q43 -14 69 -45t26 -76z" />
    <glyph glyph-name="four.tnum" 
d="M259 174h-250l23 108l346 443h151l-92 -434h87l-25 -117h-86l-37 -174h-154zM283 291l53 248l-195 -248h142z" />
    <glyph glyph-name="five.tnum" 
d="M484 215q-23 -115 -86 -171.5t-177 -56.5q-40 0 -74.5 8t-60 26.5t-40 47.5t-14.5 71q0 24 6 56l2 10h142l-2 -9q-3 -15 -5 -27.5t-2 -23.5q0 -29 13.5 -44.5t44.5 -15.5q40 0 61 33t34 94l11 51q7 34 7 63q0 31 -12 48t-40 17t-47 -18t-33 -51l-137 5l116 397h382
l-25 -116h-263l-55 -189q17 28 49 52t81 24q145 0 145 -144q0 -19 -2.5 -40t-7.5 -44z" />
    <glyph glyph-name="six.tnum" 
d="M489 215q-11 -57 -30.5 -100t-50 -71.5t-72.5 -42.5t-99 -14q-104 0 -151 45t-47 139q0 60 18 140l22 103q18 82 39.5 143t54.5 101.5t80.5 60t116.5 19.5q90 0 135 -37.5t45 -98.5q0 -14 -3 -29.5t-5 -26.5l-2 -10h-143l2 10q2 8 3 20.5t1 22.5q0 28 -11.5 39t-34.5 11
q-26 0 -43.5 -13t-30.5 -38t-22.5 -63t-20.5 -87l-8 -36q18 29 53 53t84 24q139 0 139 -139q0 -20 -3.5 -42.5t-8.5 -47.5zM181 149q0 -31 12 -47t40 -16q40 0 62.5 32.5t36.5 92.5l8 36q8 37 8 60q0 32 -12.5 49.5t-41.5 17.5q-39 0 -61 -33.5t-36 -93.5l-8 -35
q-8 -38 -8 -63z" />
    <glyph glyph-name="seven.tnum" 
d="M79 0q21 94 56.5 178.5t82.5 159.5t104 142.5t122 127.5h-320l25 117h443l-25 -117q-71 -69 -123.5 -137t-91.5 -141.5t-66 -154.5t-46 -175h-161z" />
    <glyph glyph-name="eight.tnum" 
d="M502 262q0 -130 -64.5 -202.5t-194.5 -72.5q-49 0 -90.5 8.5t-72 27t-47.5 47.5t-17 70q0 101 44 162t115 84q-11 5 -23 14.5t-22 24t-16.5 34.5t-6.5 46q0 54 19 97t52.5 73.5t78.5 46.5t96 16q40 0 77.5 -8t66 -26t45.5 -46.5t17 -69.5q0 -54 -14.5 -90t-36 -58.5
t-45.5 -34.5t-43 -19q39 -14 60.5 -44.5t21.5 -79.5zM171 146q0 -27 14 -43.5t51 -16.5q27 0 45 9t29.5 24.5t18 37t11.5 45.5l2 10q3 16 5.5 30t2.5 27q0 27 -13.5 43.5t-50.5 16.5q-27 0 -44.5 -9t-29.5 -25t-19 -37t-13 -46l-2 -10q-3 -16 -5 -29.5t-2 -26.5zM257 470
q0 -21 10 -32.5t39 -11.5q22 0 36.5 7t24 20t14.5 31.5t10 41.5l2 10q3 17 5.5 32t2.5 26q0 22 -10 33.5t-39 11.5q-23 0 -37.5 -7.5t-23.5 -21t-15 -32.5t-10 -42l-2 -10q-3 -17 -5 -31t-2 -25z" />
    <glyph glyph-name="nine.tnum" 
d="M509 311q-18 -83 -38 -143.5t-51.5 -101t-77 -60t-114.5 -19.5q-91 0 -140 39t-49 102q0 12 2 25t5 27l2 10h144l-2 -10q-3 -14 -4 -24t-1 -20q0 -28 11.5 -39t34.5 -11q26 0 44 13t30.5 38t22.5 62.5t21 87.5l8 36q-9 -14 -21 -28t-27.5 -25t-35.5 -17.5t-44 -6.5
q-147 0 -147 148q0 36 9 81l7 35q23 115 85.5 171.5t177.5 56.5q102 0 145.5 -43.5t43.5 -132.5q0 -32 -5 -68.5t-14 -79.5zM241 416q0 -31 12.5 -48t40.5 -17q39 0 61.5 34t36.5 94l7 34q8 38 8 63q0 31 -12 47t-40 16q-40 0 -63 -32.5t-36 -92.5l-7 -35q-8 -38 -8 -63z
" />
    <glyph glyph-name="zero.tnum" 
d="M180 153q0 -32 12 -49.5t43 -17.5q30 0 49.5 16.5t33.5 47.5t25 76t23 102l14 66q12 55 20 98.5t8 75.5q0 35 -12.5 53t-43.5 18q-30 0 -49.5 -16.5t-33.5 -47.5t-24.5 -76t-22.5 -102l-14 -68q-11 -56 -19.5 -100t-8.5 -76zM518 309q-18 -83 -39.5 -143.5t-54 -100
t-79.5 -59t-116 -19.5q-105 0 -152 45.5t-47 139.5q0 60 16 136l23 106q17 82 38.5 143t54.5 101.5t80 60t116 19.5q105 0 152.5 -45.5t47.5 -140.5q0 -59 -18 -138z" />
    <glyph glyph-name="zero.tnum.zero" 
d="M518 309q-18 -83 -39.5 -143.5t-54 -100t-79.5 -59t-116 -19.5q-105 0 -152 45.5t-47 139.5q0 60 16 136l23 106q17 82 38.5 143t54.5 101.5t80 60t116 19.5q105 0 152.5 -45.5t47.5 -140.5q0 -59 -18 -138zM218 379l174 71q7 35 11.5 65t4.5 53q0 35 -12.5 53t-43.5 18
q-30 0 -49.5 -16.5t-33.5 -47.5t-24.5 -76t-22.5 -102zM180 153q0 -32 12 -49.5t43 -17.5q30 0 49.5 16.5t33.5 47.5t25 76t23 102l4 20l-173 -74q-8 -37 -12.5 -67.5t-4.5 -53.5z" />
    <glyph glyph-name="one.case" horiz-adv-x="336" 
d="M178 539h-111l20 98q39 1 64 3.5t42 10.5t30 25.5t28 48.5h126l-154 -725h-160z" />
    <glyph glyph-name="two.case" horiz-adv-x="517" 
d="M7 112l101 102q75 76 127 131t83.5 98t45.5 77t14 67q0 23 -10 36t-36 13q-34 0 -54 -29t-34 -98l-2 -9h-144l1 8q12 58 31 101.5t48 72t70.5 42.5t99.5 14q44 0 79.5 -10.5t60 -29t37.5 -43.5t13 -54q0 -50 -18.5 -94.5t-52.5 -90t-82.5 -96t-108.5 -111.5l-87 -90h256
l-25 -119h-437z" />
    <glyph glyph-name="three.case" horiz-adv-x="523" 
d="M475 261q0 -61 -17.5 -111t-51 -86t-82.5 -56t-113 -20q-39 0 -75.5 8t-64.5 26.5t-44.5 48.5t-16.5 74q0 25 6 55l1 4h145l-1 -4q-6 -32 -6 -55q0 -27 11 -41t40 -14q33 0 54.5 17t34 42.5t17.5 55t5 55.5q0 28 -16.5 45t-61.5 17h-45l23 106h40q32 0 53 16t33 40
t16.5 52t4.5 52q0 23 -10.5 36t-39.5 13q-17 0 -29 -4.5t-21.5 -16.5t-16.5 -32t-13 -51l-1 -5h-145l1 5q12 59 34 98.5t52 63.5t67.5 34t82.5 10q39 0 75.5 -9t64.5 -28t44.5 -47.5t16.5 -67.5q0 -48 -14 -82.5t-35.5 -58.5t-47 -38t-48.5 -21q46 -15 70 -45.5t24 -80.5z
" />
    <glyph glyph-name="four.case" horiz-adv-x="532" 
d="M248 174h-245l24 112l337 439h156l-91 -430h89l-26 -121h-88l-37 -174h-156zM271 295l56 238l-190 -238h134z" />
    <glyph glyph-name="five.case" horiz-adv-x="510" 
d="M458 217q-24 -115 -90.5 -172t-179.5 -57q-39 0 -71.5 8t-56.5 25.5t-37.5 46t-13.5 70.5q0 14 1.5 29.5t5.5 32.5l1 4h146l-1 -4q-3 -15 -5 -28t-2 -24q0 -29 12.5 -43.5t41.5 -14.5q37 0 56.5 34t31.5 92l10 48q8 38 8 63q0 29 -11.5 45.5t-37.5 16.5t-43 -17t-31 -49
l-139 5l114 397h379l-25 -120h-258l-52 -184q8 14 21.5 28t31 25t38.5 17.5t44 6.5q69 0 101.5 -33.5t32.5 -102.5q0 -39 -11 -94z" />
    <glyph glyph-name="six.case" horiz-adv-x="532" 
d="M479 217q-24 -115 -83.5 -172t-172.5 -57q-102 0 -146 44.5t-44 135.5q0 63 18 149l22 100q17 82 38.5 142.5t53.5 100.5t79 59t115 19q92 0 134 -38t42 -103q0 -25 -6 -52l-1 -6h-146l1 5q6 28 6 46q0 26 -11 36t-32 10q-25 0 -41.5 -12.5t-28.5 -37t-21 -61t-19 -85.5
l-8 -37q17 29 49 53t75 24q144 0 144 -145q0 -37 -9 -82zM178 151q0 -29 11 -45t37 -16q38 0 59.5 34t34.5 92l6 32q8 38 8 63q0 29 -11.5 44.5t-37.5 15.5q-38 0 -59 -31.5t-33 -91.5l-7 -32q-4 -19 -6 -35t-2 -30z" />
    <glyph glyph-name="seven.case" horiz-adv-x="452" 
d="M18 0q20 93 55 176.5t81.5 158.5t104 142t122.5 128h-298l25 120h423l-25 -120q-71 -69 -123 -137.5t-90 -141.5t-64.5 -153t-45.5 -173h-165z" />
    <glyph glyph-name="eight.case" horiz-adv-x="540" 
d="M492 255q0 -59 -17 -108t-50 -84t-82.5 -55t-114.5 -20q-48 0 -88 10.5t-69 30t-45 48.5t-16 65q0 44 11 83.5t31.5 71.5t49.5 55t65 35q-11 4 -23 14.5t-21.5 25.5t-16 34.5t-6.5 41.5q0 58 19 102t51.5 73.5t76.5 44.5t95 15q39 0 76 -8t65.5 -25t46 -44t17.5 -66
q0 -55 -14 -92t-35 -60.5t-44.5 -36t-41.5 -19.5q38 -15 59 -49.5t21 -82.5zM168 145q0 -24 12 -39.5t47 -15.5q27 0 43.5 9.5t27 25t17 36.5t11.5 45l1 8q4 17 6.5 32t2.5 29q0 24 -12 38.5t-47 14.5q-26 0 -43 -9t-28 -24t-17 -36t-11 -45l-2 -8q-3 -17 -5.5 -32t-2.5 -29
zM252 468q0 -19 9.5 -29.5t35.5 -10.5q21 0 34.5 7t22.5 20.5t14 31.5t10 41l1 7q4 17 6.5 31.5t2.5 26.5q0 20 -10 31.5t-37 11.5q-21 0 -34 -7.5t-21.5 -20.5t-13.5 -32t-10 -41l-1 -7q-4 -17 -6.5 -32.5t-2.5 -27.5z" />
    <glyph glyph-name="nine.case" horiz-adv-x="531" 
d="M487 310q-17 -82 -38.5 -142.5t-54 -100.5t-79 -59.5t-114.5 -19.5q-92 0 -134 38.5t-42 104.5q0 25 6 52l1 6h146l-1 -5q-3 -14 -4 -25t-1 -20q0 -27 10.5 -38t31.5 -11q25 0 41.5 12.5t28.5 37t21 61.5t19 86l8 37q-17 -29 -46.5 -53t-76.5 -24q-144 0 -144 148
q0 37 9 82l8 34q22 115 82 171t174 56q102 0 145.5 -43.5t43.5 -132.5q0 -64 -18 -149zM227 418q0 -30 11 -46t37 -16q38 0 60 33t33 93l7 30q3 18 5 33.5t2 29.5q0 29 -11 45t-37 16q-37 0 -58.5 -33t-33.5 -91l-7 -30q-8 -38 -8 -64z" />
    <glyph glyph-name="zero.case" horiz-adv-x="551" 
d="M180 157q0 -32 11.5 -49.5t40.5 -17.5q28 0 47 16.5t32 47.5t23.5 75.5t22.5 100.5l14 66q11 54 19.5 97.5t8.5 74.5q0 34 -12.5 51.5t-41.5 17.5q-28 0 -46 -16.5t-31.5 -47.5t-23.5 -76t-22 -101l-14 -66q-11 -55 -19.5 -98.5t-8.5 -74.5zM512 313q-17 -83 -37.5 -144
t-52 -101t-77.5 -60t-114 -20q-106 0 -154 47.5t-48 144.5q0 29 4 62t12 71l21 100q17 82 38.5 143.5t54 102t79 60.5t114.5 20q105 0 151.5 -46t46.5 -142q0 -58 -17 -138z" />
    <glyph glyph-name="zero.case.zero" horiz-adv-x="551" 
d="M512 313q-17 -83 -37.5 -144t-52 -101t-77.5 -60t-114 -20q-106 0 -154 47.5t-48 144.5q0 29 4 62t12 71l21 100q17 82 38.5 143.5t54 102t79 60.5t114.5 20q105 0 151.5 -46t46.5 -142q0 -58 -17 -138zM219 382l163 66q8 36 12.5 66.5t4.5 53.5q0 34 -12.5 51.5
t-41.5 17.5q-28 0 -46 -16.5t-31.5 -47.5t-23.5 -76t-22 -101zM180 157q0 -32 11.5 -49.5t40.5 -17.5q28 0 47 16.5t32 47.5t23.5 75.5t22.5 100.5l3 16l-163 -69q-8 -37 -12.5 -67t-4.5 -53z" />
    <glyph glyph-name="uni21B2" unicode="&#x21b2;" horiz-adv-x="800" 
d="M591 725h132v-522h-459l158 -158l-89 -87l-311 311l311 311l87 -89l-156 -156h327v390z" />
    <glyph glyph-name="uni21B3" unicode="&#x21b3;" horiz-adv-x="800" 
d="M209 725v-390h327l-156 156l87 89l311 -311l-311 -311l-89 87l158 158h-459v522h132z" />
    <glyph glyph-name="uni21B0" unicode="&#x21b0;" horiz-adv-x="800" 
d="M591 -175v378h-327l156 -156l-87 -89l-311 311l311 311l89 -87l-158 -158h459v-510h-132z" />
    <glyph glyph-name="uni21B1" unicode="&#x21b1;" horiz-adv-x="799" 
d="M466 -42l-87 89l156 156h-326v-378h-132v510h458l-158 158l89 87l311 -311z" />
    <glyph glyph-name="arrowleft" unicode="&#x2190;" horiz-adv-x="800" 
d="M264 203l156 -156l-87 -89l-311 311l311 311l89 -87l-158 -158h499v-132h-499z" />
    <glyph glyph-name="arrowup" unicode="&#x2191;" horiz-adv-x="800" 
d="M334 499l-156 -156l-89 87l311 311l311 -311l-87 -89l-158 158v-499h-132v499z" />
    <glyph glyph-name="arrowright" unicode="&#x2192;" horiz-adv-x="800" 
d="M535 335l-156 156l87 89l311 -311l-311 -311l-89 87l158 158h-499v132h499z" />
    <glyph glyph-name="arrowdown" unicode="&#x2193;" horiz-adv-x="800" 
d="M466 226l156 156l89 -87l-311 -311l-311 311l87 89l158 -158v499h132v-499z" />
    <glyph glyph-name="uni2196" unicode="&#x2196;" horiz-adv-x="800" 
d="M245 320v-222h-124v440h441v-125h-223l353 -352l-94 -94z" />
    <glyph glyph-name="uni2197" unicode="&#x2197;" horiz-adv-x="800" 
d="M427 414h-222v124h440v-441h-125v223l-352 -353l-94 94z" />
    <glyph glyph-name="uni2198" unicode="&#x2198;" horiz-adv-x="800" 
d="M555 218v222h124v-440h-440v125h222l-353 352l94 94z" />
    <glyph glyph-name="uni2199" unicode="&#x2199;" horiz-adv-x="800" 
d="M373 124h222v-124h-440v440h125v-222l352 353l94 -94z" />
    <glyph glyph-name="uni219E" unicode="&#x219e;" horiz-adv-x="800" 
d="M544 203l156 -158l-87 -87l-245 245h-104l156 -156l-87 -89l-311 311l311 311l89 -87l-158 -158h104l245 245l89 -87l-158 -158h219v-132h-219z" />
    <glyph glyph-name="uni219F" unicode="&#x219f;" horiz-adv-x="800" 
d="M334 219l-158 -156l-87 87l245 245v104l-156 -156l-89 87l311 311l311 -311l-87 -89l-158 158v-104l245 -245l-87 -89l-158 158v-219h-132v219z" />
    <glyph glyph-name="uni21A0" unicode="&#x21a0;" horiz-adv-x="800" 
d="M255 335l-156 158l87 87l245 -245h104l-156 156l87 89l311 -311l-311 -311l-89 87l158 158h-104l-245 -245l-89 87l158 158h-219v132h219z" />
    <glyph glyph-name="uni21A1" unicode="&#x21a1;" horiz-adv-x="800" 
d="M466 506l158 156l87 -87l-245 -245v-104l156 156l89 -87l-311 -311l-311 311l87 89l158 -158v104l-245 245l87 89l158 -158v219h132v-219z" />
    <glyph glyph-name="uni21A2" unicode="&#x21a2;" horiz-adv-x="800" 
d="M674 -42l-245 245h-195l156 -158l-87 -87l-311 311l311 311l89 -87l-158 -158h195l245 245l89 -87l-224 -224l222 -224z" />
    <glyph glyph-name="uni21A3" unicode="&#x21a3;" horiz-adv-x="800" 
d="M39 493l89 87l245 -245h195l-158 158l89 87l311 -311l-311 -311l-87 87l156 158h-195l-245 -245l-87 87l222 224z" />
    <glyph glyph-name="uni21A4" unicode="&#x21a4;" horiz-adv-x="800" 
d="M610 0v203h-367l156 -156l-87 -89l-311 311l311 311l89 -87l-158 -158h367v203h132v-538h-132z" />
    <glyph glyph-name="uni21A5" unicode="&#x21a5;" horiz-adv-x="800" 
d="M131 132h203v367l-156 -156l-89 87l311 311l311 -311l-87 -89l-158 158v-367h203v-132h-538v132z" />
    <glyph glyph-name="uni21A6" unicode="&#x21a6;" horiz-adv-x="800" 
d="M190 538v-203h367l-156 156l87 89l311 -311l-311 -311l-89 87l158 158h-367v-203h-132v538h132z" />
    <glyph glyph-name="uni21A7" unicode="&#x21a7;" horiz-adv-x="800" 
d="M669 593h-203v-367l156 156l89 -87l-311 -311l-311 311l87 89l158 -158v367h-203v132h538v-132z" />
    <glyph glyph-name="filledbox" unicode="&#x25a0;" horiz-adv-x="624" 
d="M43 538h538v-538h-538v538z" />
    <glyph glyph-name="H22073" unicode="&#x25a1;" horiz-adv-x="624" 
d="M43 538h538v-538h-538v538zM175 132h274v274h-274v-274z" />
    <glyph glyph-name="circle" unicode="&#x25cb;" horiz-adv-x="602" 
d="M301 419q-33 0 -60 -12t-46.5 -32.5t-30 -47.5t-10.5 -58t10.5 -58.5t30 -48t46.5 -32.5t60 -12q32 0 59 12t46.5 32.5t30.5 48t11 58.5t-11 58t-30.5 47.5t-46.5 32.5t-59 12zM301 550q61 0 113 -22.5t89.5 -60.5t59 -89t21.5 -109t-21.5 -109.5t-59 -89.5t-89.5 -60.5
t-113 -22.5t-113 22.5t-89.5 60.5t-59 89.5t-21.5 109.5t21.5 109t59 89t89.5 60.5t113 22.5z" />
    <glyph glyph-name="H18533" unicode="&#x25cf;" horiz-adv-x="602" 
d="M301 -13q-61 0 -113 22t-89.5 60.5t-59 89.5t-21.5 109t21.5 109.5t59 89.5t89.5 60.5t113 22.5t113 -22.5t89.5 -60.5t59 -89.5t21.5 -109.5t-21.5 -109t-59 -89.5t-89.5 -60.5t-113 -22z" />
    <glyph glyph-name="onethird" unicode="&#x2153;" horiz-adv-x="645" 
d="M140 618h-66l13 59q21 1 34 2.5t22.5 6t16.5 14.5t16 27h73l-87 -410h-86zM434 725h65l-362 -725h-65zM595 146q0 -73 -41.5 -113.5t-114.5 -40.5q-22 0 -41.5 4.5t-34.5 14.5t-23.5 27t-8.5 41q0 17 3 32l1 5h87l-1 -5q-4 -17 -4 -31t5.5 -20.5t19.5 -6.5q27 0 38 19
t16 45q3 16 3 31q0 14 -7.5 23t-31.5 9h-25l14 63h23q26 0 35.5 15.5t14.5 39.5q2 9 3 16.5t1 14.5q0 12 -5.5 19t-20.5 7t-23 -10t-15 -43l-1 -5h-87l1 5q7 34 19 56t29.5 34.5t38.5 17.5t46 5q22 0 42.5 -4t36.5 -13t25 -23.5t9 -35.5q0 -29 -8 -50t-19.5 -35.5t-25.5 -23
t-26 -11.5q53 -18 53 -73z" />
    <glyph glyph-name="uni2155" unicode="&#x2155;" horiz-adv-x="635" 
d="M140 618h-66l13 59q21 1 34 2.5t22.5 6t16.5 14.5t16 27h73l-87 -410h-86zM434 725h65l-362 -725h-65zM585 121q-14 -64 -48 -96.5t-100 -32.5q-21 0 -40.5 4.5t-34 14.5t-23.5 26.5t-9 40.5q0 8 1.5 18.5t2.5 14.5l1 5h87l-1 -5q-1 -4 -2 -13t-1 -16q0 -29 26 -29
q20 0 29.5 18t15.5 50l6 29q5 23 5 36q0 33 -24 33q-14 0 -22.5 -9.5t-16.5 -26.5l-81 4l65 221h213l-16 -72h-141l-29 -98q9 17 29 30t46 13q39 0 57 -18t18 -56q0 -12 -2 -25.5t-5 -29.5z" />
    <glyph glyph-name="uni2159" unicode="&#x2159;" horiz-adv-x="644" 
d="M140 618h-66l13 59q21 1 34 2.5t22.5 6t16.5 14.5t16 27h73l-87 -410h-86zM434 725h65l-362 -725h-65zM595 121q-14 -64 -46.5 -96.5t-98.5 -32.5q-57 0 -82.5 24.5t-25.5 72.5q0 20 3.5 43t8.5 50l12 57q9 46 21 79t30 54.5t44.5 32t65.5 10.5q51 0 75.5 -21t24.5 -56
q0 -14 -3 -30l-1 -7h-87l1 5q2 8 3 14t1 11q0 14 -6 19t-16 5q-26 0 -35 -25.5t-20 -77.5l-5 -22q10 16 28 28.5t44 12.5q39 0 57 -18.5t18 -56.5q0 -12 -2 -25.5t-5 -29.5zM430 82q0 -29 22 -29q21 0 32 18t17 50l3 17q2 11 3.5 20.5t1.5 17.5q0 31 -25 31q-19 0 -29 -18
t-16 -49l-4 -20q-5 -25 -5 -38z" />
    <glyph glyph-name="oneeighth" unicode="&#x215b;" horiz-adv-x="649" 
d="M140 618h-66l13 59q21 1 34 2.5t22.5 6t16.5 14.5t16 27h73l-87 -410h-86zM434 725h65l-362 -725h-65zM598 117q-15 -69 -50.5 -96.5t-100.5 -27.5q-55 0 -86.5 18.5t-31.5 63.5q0 17 5 42q8 40 29 65t53 36q-12 5 -24.5 20.5t-12.5 44.5q0 12 3 26q7 32 20 53t31.5 33
t41 16.5t48.5 4.5q22 0 42 -3.5t35.5 -12t24.5 -23t9 -36.5q0 -8 -1 -15.5t-3 -16.5q-5 -21 -13.5 -36.5t-18.5 -26.5t-20.5 -18t-18.5 -10q43 -18 43 -69q0 -7 -1 -15t-3 -17zM422 81q0 -13 6.5 -20.5t25.5 -7.5q14 0 22.5 5t14 13.5t8.5 20t6 24.5l1 5q4 17 4 34
q0 12 -6 19.5t-24 7.5q-29 0 -38.5 -17.5t-13.5 -42.5l-1 -6q-2 -10 -3.5 -18.5t-1.5 -16.5zM470 264q0 -10 4.5 -15.5t18.5 -5.5q23 0 29.5 13.5t11.5 39.5l1 5q5 23 5 35q0 20 -23 20t-29.5 -13.5t-11.5 -38.5l-1 -5q-5 -23 -5 -35z" />
    <glyph glyph-name="twothirds" unicode="&#x2154;" horiz-adv-x="753" 
d="M48 384l57 57q44 44 72.5 75.5t45.5 55.5t24 42t7 34q0 11 -5.5 17.5t-19.5 6.5q-19 0 -27 -15.5t-16 -53.5l-1 -5h-89l1 5q13 66 44 97.5t97 31.5q50 0 80 -23t30 -57q0 -25 -9.5 -48.5t-27.5 -48.5t-44.5 -53.5t-60.5 -63.5l-49 -50h140l-15 -71h-248zM542 725h65
l-362 -725h-65zM703 146q0 -73 -41.5 -113.5t-114.5 -40.5q-22 0 -41.5 4.5t-34.5 14.5t-23.5 27t-8.5 41q0 17 3 32l1 5h87l-1 -5q-4 -17 -4 -31t5.5 -20.5t19.5 -6.5q27 0 38 19t16 45q3 16 3 31q0 14 -7.5 23t-31.5 9h-25l14 63h23q26 0 35.5 15.5t14.5 39.5q2 9 3 16.5
t1 14.5q0 12 -5.5 19t-20.5 7t-23 -10t-15 -43l-1 -5h-87l1 5q7 34 19 56t29.5 34.5t38.5 17.5t46 5q22 0 42.5 -4t36.5 -13t25 -23.5t9 -35.5q0 -29 -8 -50t-19.5 -35.5t-25.5 -23t-26 -11.5q53 -18 53 -73z" />
    <glyph glyph-name="uni2156" unicode="&#x2156;" horiz-adv-x="743" 
d="M48 384l57 57q44 44 72.5 75.5t45.5 55.5t24 42t7 34q0 11 -5.5 17.5t-19.5 6.5q-19 0 -27 -15.5t-16 -53.5l-1 -5h-89l1 5q13 66 44 97.5t97 31.5q50 0 80 -23t30 -57q0 -25 -9.5 -48.5t-27.5 -48.5t-44.5 -53.5t-60.5 -63.5l-49 -50h140l-15 -71h-248zM542 725h65
l-362 -725h-65zM693 121q-14 -64 -48 -96.5t-100 -32.5q-21 0 -40.5 4.5t-34 14.5t-23.5 26.5t-9 40.5q0 8 1.5 18.5t2.5 14.5l1 5h87l-1 -5q-1 -4 -2 -13t-1 -16q0 -29 26 -29q20 0 29.5 18t15.5 50l6 29q5 23 5 36q0 33 -24 33q-14 0 -22.5 -9.5t-16.5 -26.5l-81 4l65 221
h213l-16 -72h-141l-29 -98q9 17 29 30t46 13q39 0 57 -18t18 -56q0 -12 -2 -25.5t-5 -29.5z" />
    <glyph glyph-name="uni2157" unicode="&#x2157;" horiz-adv-x="749" 
d="M313 463q0 -73 -41.5 -113.5t-114.5 -40.5q-22 0 -41.5 4.5t-34.5 14.5t-23.5 27t-8.5 41q0 17 3 32l1 5h87l-1 -5q-4 -17 -4 -31t5.5 -20.5t19.5 -6.5q27 0 38 19t16 45q3 16 3 31q0 14 -7.5 23t-31.5 9h-25l14 63h23q26 0 35.5 15.5t14.5 39.5q2 9 3 16.5t1 14.5
q0 12 -5.5 19t-20.5 7t-23 -10t-15 -43l-1 -5h-87l1 5q7 34 19 56t29.5 34.5t38.5 17.5t46 5q22 0 42.5 -4t36.5 -13t25 -23.5t9 -35.5q0 -29 -8 -50t-19.5 -35.5t-25.5 -23t-26 -11.5q53 -18 53 -73zM548 725h65l-362 -725h-65zM699 121q-14 -64 -48 -96.5t-100 -32.5
q-21 0 -40.5 4.5t-34 14.5t-23.5 26.5t-9 40.5q0 8 1.5 18.5t2.5 14.5l1 5h87l-1 -5q-1 -4 -2 -13t-1 -16q0 -29 26 -29q20 0 29.5 18t15.5 50l6 29q5 23 5 36q0 33 -24 33q-14 0 -22.5 -9.5t-16.5 -26.5l-81 4l65 221h213l-16 -72h-141l-29 -98q9 17 29 30t46 13
q39 0 57 -18t18 -56q0 -12 -2 -25.5t-5 -29.5z" />
    <glyph glyph-name="threeeighths" unicode="&#x215c;" horiz-adv-x="763" 
d="M313 463q0 -73 -41.5 -113.5t-114.5 -40.5q-22 0 -41.5 4.5t-34.5 14.5t-23.5 27t-8.5 41q0 17 3 32l1 5h87l-1 -5q-4 -17 -4 -31t5.5 -20.5t19.5 -6.5q27 0 38 19t16 45q3 16 3 31q0 14 -7.5 23t-31.5 9h-25l14 63h23q26 0 35.5 15.5t14.5 39.5q2 9 3 16.5t1 14.5
q0 12 -5.5 19t-20.5 7t-23 -10t-15 -43l-1 -5h-87l1 5q7 34 19 56t29.5 34.5t38.5 17.5t46 5q22 0 42.5 -4t36.5 -13t25 -23.5t9 -35.5q0 -29 -8 -50t-19.5 -35.5t-25.5 -23t-26 -11.5q53 -18 53 -73zM548 725h65l-362 -725h-65zM712 117q-15 -69 -50.5 -96.5t-100.5 -27.5
q-55 0 -86.5 18.5t-31.5 63.5q0 17 5 42q8 40 29 65t53 36q-12 5 -24.5 20.5t-12.5 44.5q0 12 3 26q7 32 20 53t31.5 33t41 16.5t48.5 4.5q22 0 42 -3.5t35.5 -12t24.5 -23t9 -36.5q0 -8 -1 -15.5t-3 -16.5q-5 -21 -13.5 -36.5t-18.5 -26.5t-20.5 -18t-18.5 -10
q43 -18 43 -69q0 -7 -1 -15t-3 -17zM536 81q0 -13 6.5 -20.5t25.5 -7.5q14 0 22.5 5t14 13.5t8.5 20t6 24.5l1 5q4 17 4 34q0 12 -6 19.5t-24 7.5q-29 0 -38.5 -17.5t-13.5 -42.5l-1 -6q-2 -10 -3.5 -18.5t-1.5 -16.5zM584 264q0 -10 4.5 -15.5t18.5 -5.5q23 0 29.5 13.5
t11.5 39.5l1 5q5 23 5 35q0 20 -23 20t-29.5 -13.5t-11.5 -38.5l-1 -5q-5 -23 -5 -35z" />
    <glyph glyph-name="uni2158" unicode="&#x2158;" horiz-adv-x="754" 
d="M188 413h-145l14 66l190 246h90l-51 -239h49l-16 -73h-48l-20 -96h-83zM202 486l27 127l-102 -127h75zM553 725h65l-362 -725h-65zM704 121q-14 -64 -48 -96.5t-100 -32.5q-21 0 -40.5 4.5t-34 14.5t-23.5 26.5t-9 40.5q0 8 1.5 18.5t2.5 14.5l1 5h87l-1 -5q-1 -4 -2 -13
t-1 -16q0 -29 26 -29q20 0 29.5 18t15.5 50l6 29q5 23 5 36q0 33 -24 33q-14 0 -22.5 -9.5t-16.5 -26.5l-81 4l65 221h213l-16 -72h-141l-29 -98q9 17 29 30t46 13q39 0 57 -18t18 -56q0 -12 -2 -25.5t-5 -29.5z" />
    <glyph glyph-name="uni215A" unicode="&#x215a;" horiz-adv-x="748" 
d="M303 438q-14 -64 -48 -96.5t-100 -32.5q-21 0 -40.5 4.5t-34 14.5t-23.5 26.5t-9 40.5q0 8 1.5 18.5t2.5 14.5l1 5h87l-1 -5q-1 -4 -2 -13t-1 -16q0 -29 26 -29q20 0 29.5 18t15.5 50l6 29q5 23 5 36q0 33 -24 33q-14 0 -22.5 -9.5t-16.5 -26.5l-81 4l65 221h213l-16 -72
h-141l-29 -98q9 17 29 30t46 13q39 0 57 -18t18 -56q0 -12 -2 -25.5t-5 -29.5zM538 725h65l-362 -725h-65zM699 121q-14 -64 -46.5 -96.5t-98.5 -32.5q-57 0 -82.5 24.5t-25.5 72.5q0 20 3.5 43t8.5 50l12 57q9 46 21 79t30 54.5t44.5 32t65.5 10.5q51 0 75.5 -21t24.5 -56
q0 -14 -3 -30l-1 -7h-87l1 5q2 8 3 14t1 11q0 14 -6 19t-16 5q-26 0 -35 -25.5t-20 -77.5l-5 -22q10 16 28 28.5t44 12.5q39 0 57 -18.5t18 -56.5q0 -12 -2 -25.5t-5 -29.5zM534 82q0 -29 22 -29q21 0 32 18t17 50l3 17q2 11 3.5 20.5t1.5 17.5q0 31 -25 31q-19 0 -29 -18
t-16 -49l-4 -20q-5 -25 -5 -38z" />
    <glyph glyph-name="fiveeighths" unicode="&#x215d;" horiz-adv-x="753" 
d="M303 438q-14 -64 -48 -96.5t-100 -32.5q-21 0 -40.5 4.5t-34 14.5t-23.5 26.5t-9 40.5q0 8 1.5 18.5t2.5 14.5l1 5h87l-1 -5q-1 -4 -2 -13t-1 -16q0 -29 26 -29q20 0 29.5 18t15.5 50l6 29q5 23 5 36q0 33 -24 33q-14 0 -22.5 -9.5t-16.5 -26.5l-81 4l65 221h213l-16 -72
h-141l-29 -98q9 17 29 30t46 13q39 0 57 -18t18 -56q0 -12 -2 -25.5t-5 -29.5zM538 725h65l-362 -725h-65zM702 117q-15 -69 -50.5 -96.5t-100.5 -27.5q-55 0 -86.5 18.5t-31.5 63.5q0 17 5 42q8 40 29 65t53 36q-12 5 -24.5 20.5t-12.5 44.5q0 12 3 26q7 32 20 53t31.5 33
t41 16.5t48.5 4.5q22 0 42 -3.5t35.5 -12t24.5 -23t9 -36.5q0 -8 -1 -15.5t-3 -16.5q-5 -21 -13.5 -36.5t-18.5 -26.5t-20.5 -18t-18.5 -10q43 -18 43 -69q0 -7 -1 -15t-3 -17zM526 81q0 -13 6.5 -20.5t25.5 -7.5q14 0 22.5 5t14 13.5t8.5 20t6 24.5l1 5q4 17 4 34
q0 12 -6 19.5t-24 7.5q-29 0 -38.5 -17.5t-13.5 -42.5l-1 -6q-2 -10 -3.5 -18.5t-1.5 -16.5zM574 264q0 -10 4.5 -15.5t18.5 -5.5q23 0 29.5 13.5t11.5 39.5l1 5q5 23 5 35q0 20 -23 20t-29.5 -13.5t-11.5 -38.5l-1 -5q-5 -23 -5 -35z" />
    <glyph glyph-name="seveneighths" unicode="&#x215e;" horiz-adv-x="690" 
d="M45 317q23 103 70 190t116 146h-149l16 72h222l-16 -72q-38 -34 -64.5 -71.5t-45 -79t-31 -88t-22.5 -97.5h-96zM475 725h65l-362 -725h-65zM639 117q-15 -69 -50.5 -96.5t-100.5 -27.5q-55 0 -86.5 18.5t-31.5 63.5q0 17 5 42q8 40 29 65t53 36q-12 5 -24.5 20.5
t-12.5 44.5q0 12 3 26q7 32 20 53t31.5 33t41 16.5t48.5 4.5q22 0 42 -3.5t35.5 -12t24.5 -23t9 -36.5q0 -8 -1 -15.5t-3 -16.5q-5 -21 -13.5 -36.5t-18.5 -26.5t-20.5 -18t-18.5 -10q43 -18 43 -69q0 -7 -1 -15t-3 -17zM463 81q0 -13 6.5 -20.5t25.5 -7.5q14 0 22.5 5
t14 13.5t8.5 20t6 24.5l1 5q4 17 4 34q0 12 -6 19.5t-24 7.5q-29 0 -38.5 -17.5t-13.5 -42.5l-1 -6q-2 -10 -3.5 -18.5t-1.5 -16.5zM511 264q0 -10 4.5 -15.5t18.5 -5.5q23 0 29.5 13.5t11.5 39.5l1 5q5 23 5 35q0 20 -23 20t-29.5 -13.5t-11.5 -38.5l-1 -5q-5 -23 -5 -35z
" />
    <glyph glyph-name="uni215F" unicode="&#x215f;" horiz-adv-x="350" 
d="M140 618h-66l13 59q21 1 34 2.5t22.5 6t16.5 14.5t16 27h73l-87 -410h-86zM434 725h65l-362 -725h-65z" />
    <glyph glyph-name="fraction" unicode="&#x2044;" horiz-adv-x="169" 
d="M253 725h65l-362 -725h-65z" />
    <glyph glyph-name="a.superior" horiz-adv-x="277" 
d="M210 471q-17 -23 -37 -32t-46 -9q-32 0 -48.5 17.5t-16.5 46.5v12q0 6 2 13l1 7q4 17 13.5 31.5t23.5 25.5q15 13 38 22.5t54 18.5l41 13l5 21q2 10 2 18t-5 13.5t-19 5.5q-20 0 -27.5 -9t-11.5 -32l-1 -6h-81l1 6q8 51 35.5 74t81.5 23q24 0 45.5 -2.5t37 -10.5t25 -22
t9.5 -38q0 -8 -1 -16.5t-3 -18.5q0 -1 -3.5 -17t-8.5 -36q-5 -23 -11 -52q-6 -28 -10 -53t-5 -47h-85zM156 506q0 -19 20 -19q18 0 26 15t15 44l9 41q-8 -3 -11.5 -4.5t-11.5 -5.5q-21 -11 -30 -19t-13 -25l-2 -9q-1 -5 -1.5 -9.5t-0.5 -8.5z" />
    <glyph glyph-name="b.superior" horiz-adv-x="293" 
d="M342 572q-15 -72 -41.5 -107t-80.5 -35q-24 0 -40 12t-20 31l-7 -35h-94l87 408h93l-30 -138q11 18 32 30t46 12q33 0 51 -21t18 -63q0 -25 -6 -55zM172 530q0 -35 28 -35q23 0 31 22t17 66l3 14q5 21 7.5 37t2.5 27q0 12 -4.5 18.5t-16.5 6.5q-26 0 -38 -26t-21 -70
q-4 -18 -6.5 -33t-2.5 -27z" />
    <glyph glyph-name="c.superior" horiz-adv-x="268" 
d="M314 548q-7 -35 -20.5 -57.5t-31.5 -36t-39.5 -19t-43.5 -5.5q-106 0 -106 94q0 10 1.5 21t3.5 23l10 48q14 66 49.5 100.5t99.5 34.5q18 0 36 -3.5t32 -13t22.5 -25.5t8.5 -40q0 -8 -1 -16.5t-3 -17.5l-1 -5h-88l1 5q2 11 3 19.5t1 13.5q0 14 -5.5 18t-15.5 4
q-22 0 -29.5 -22t-16.5 -64l-6 -27q-5 -20 -7.5 -35.5t-2.5 -26.5q0 -13 4.5 -19t16.5 -6q14 0 23.5 11.5t16.5 46.5l1 5h88z" />
    <glyph glyph-name="d.superior" horiz-adv-x="294" 
d="M222 473q-12 -19 -32 -31t-44 -12q-74 0 -74 81q0 29 7 61l9 39q14 69 41.5 104t76.5 35q24 0 42 -12t23 -30l30 138h93l-87 -408h-92zM168 522q0 -14 4.5 -20.5t16.5 -6.5q29 0 40.5 26t20.5 69q8 38 8 60q0 17 -6.5 26.5t-23.5 9.5q-20 0 -29.5 -22.5t-18.5 -66.5
l-3 -15q-4 -20 -6.5 -34.5t-2.5 -25.5z" />
    <glyph glyph-name="e.superior" horiz-adv-x="278" 
d="M317 535q-7 -32 -20.5 -52.5t-31.5 -32t-39 -16t-43 -4.5q-53 0 -80.5 25.5t-27.5 72.5q0 20 4 39l10 50q14 65 49.5 99.5t99.5 34.5q54 0 78.5 -23t24.5 -70q0 -25 -8 -62l-3 -15h-155l-1 -4q-4 -19 -6.5 -33.5t-2.5 -25.5q0 -28 23 -28q13 0 23.5 7t17.5 39l1 5h88z
M185 629h70l1 5q2 8 3 17t1 14q0 26 -28 26q-20 0 -29.5 -12t-15.5 -42z" />
    <glyph glyph-name="f.superior" horiz-adv-x="177" 
d="M119 684h-34l13 58h34l5 23q6 27 16 43t24.5 24.5t34 11t45.5 2.5h39l-12 -56h-20q-17 0 -23.5 -4.5t-10.5 -20.5l-5 -23h49l-13 -58h-48l-52 -246h-94z" />
    <glyph glyph-name="g.superior" horiz-adv-x="301" 
d="M316 471q-16 -76 -51.5 -108.5t-102.5 -32.5q-42 0 -73 16.5t-31 56.5q0 11 3 23h83q-1 -4 -1 -10q0 -13 8 -18.5t20 -5.5q10 0 17.5 2t13.5 8.5t10.5 19t9.5 33.5l7 36q-14 -17 -31 -29.5t-42 -12.5q-38 0 -60 20t-22 64q0 10 1.5 20.5t3.5 22.5l9 39q14 69 49 102
t82 33q24 0 36.5 -12.5t18.5 -29.5l7 33h92zM171 542q0 -14 5 -21t19 -7q31 0 40.5 22.5t17.5 59.5q4 19 7 34t3 26q0 15 -7 22.5t-25 7.5q-23 0 -32.5 -21.5t-17.5 -59.5l-2 -10q-4 -17 -6 -29.5t-2 -23.5z" />
    <glyph glyph-name="h.superior" horiz-adv-x="285" 
d="M146 846h93l-30 -138q16 24 36 33.5t46 9.5t43 -14t17 -49q0 -9 -1.5 -19t-3.5 -21l-45 -210h-93l38 177q3 14 5.5 26.5t2.5 22.5q0 22 -19 22q-13 0 -20.5 -7t-12.5 -18t-8.5 -26.5t-6.5 -31.5l-35 -165h-93z" />
    <glyph glyph-name="i.superior" horiz-adv-x="141" 
d="M125 740h93l-64 -302h-93zM147 846h93l-16 -74h-93z" />
    <glyph glyph-name="j.superior" horiz-adv-x="152" 
d="M14 396h16q17 0 21.5 9.5t9.5 33.5l64 301h93l-63 -296q-7 -33 -17.5 -53.5t-26 -32.5t-36 -16t-48.5 -4h-25zM147 846h93l-16 -74h-93z" />
    <glyph glyph-name="k.superior" horiz-adv-x="276" 
d="M148 846h86l-47 -218l100 112h81l-75 -90l23 -212h-75l-12 151l-67 -80l-15 -71h-86z" />
    <glyph glyph-name="l.superior" horiz-adv-x="141" 
d="M148 846h92l-87 -408h-92z" />
    <glyph glyph-name="m.superior" horiz-adv-x="428" 
d="M125 740h92l-7 -36q16 24 34 35.5t44 11.5q55 0 59 -53q20 31 39.5 42t45.5 11q29 0 44.5 -17t15.5 -52q0 -10 -1.5 -20.5t-3.5 -22.5l-43 -201h-92l37 175q3 14 5.5 25.5t2.5 21.5q0 22 -17 22q-12 0 -19 -5t-11 -13t-6 -19t-5 -24l-39 -183h-94l41 193q5 20 5 33
q0 19 -16 19q-12 0 -20 -6.5t-13 -18t-8.5 -26.5t-6.5 -32l-34 -162h-93z" />
    <glyph glyph-name="uni207F" unicode="&#x207f;" horiz-adv-x="289" 
d="M125 740h93l-7 -32q16 24 36 33.5t46 9.5q27 0 44 -15t17 -50q0 -19 -4 -38l-45 -210h-94l38 177q3 14 5 26t2 22q0 23 -19 23q-13 0 -20.5 -7t-12.5 -18t-8.5 -26.5t-6.5 -31.5l-35 -165h-93z" />
    <glyph glyph-name="o.superior" horiz-adv-x="281" 
d="M166 517q0 -27 23 -27q22 0 30 22t17 65l6 28q4 19 6.5 34t2.5 26q0 12 -4.5 18.5t-16.5 6.5q-22 0 -31 -22t-17 -63l-6 -28q-5 -20 -7.5 -34.5t-2.5 -25.5zM330 568q-15 -69 -45.5 -103.5t-94.5 -34.5q-54 0 -85 24t-31 72q0 10 1 20.5t4 21.5l10 47q14 66 45 101t95 35
q54 0 85 -24.5t31 -72.5q0 -16 -5 -39z" />
    <glyph glyph-name="p.superior" horiz-adv-x="294" 
d="M125 740h92l-6 -32q11 19 32 31t46 12q32 0 50.5 -21t18.5 -64q0 -24 -6 -55l-8 -39q-14 -71 -39.5 -106.5t-82.5 -35.5q-24 0 -41 12.5t-21 30.5l-28 -135h-92zM174 531q0 -17 6 -26.5t22 -9.5q23 0 31 22t17 66l3 15q5 21 7.5 36.5t2.5 26.5q0 25 -21 25
q-26 0 -38 -25.5t-21 -69.5q-4 -18 -6.5 -33t-2.5 -27z" />
    <glyph glyph-name="q.superior" horiz-adv-x="295" 
d="M222 473q-11 -18 -30 -30.5t-49 -12.5q-70 0 -70 82q0 28 7 60l8 39q14 70 43 105t78 35q25 0 41.5 -12t21.5 -31l7 32h93l-85 -402h-93zM168 522q0 -14 4.5 -20.5t16.5 -6.5q28 0 40 26.5t21 69.5q8 38 8 60q0 17 -6.5 26t-23.5 9q-20 0 -29.5 -22.5t-18.5 -66.5l-3 -14
q-9 -39 -9 -61z" />
    <glyph glyph-name="r.superior" horiz-adv-x="191" 
d="M125 740h90l-13 -62q11 27 28.5 44.5t46.5 17.5h11l-19 -89h-23q-17 0 -27.5 -2.5t-16.5 -9t-9 -17.5t-7 -29l-33 -155h-92z" />
    <glyph glyph-name="s.superior" horiz-adv-x="259" 
d="M307 550q0 -58 -35.5 -89t-92.5 -31q-35 0 -56.5 8.5t-33.5 22.5t-16.5 32t-4.5 36v5q0 4 1 9h85l-1 -5q-1 -5 -1 -14q0 -15 7.5 -24t22.5 -9q17 0 27.5 10.5t10.5 25.5q0 11 -7.5 16.5t-21.5 12.5l-41 18q-26 10 -40.5 25t-14.5 39q0 58 33.5 85.5t92.5 27.5
q44 0 74 -20t30 -57q0 -5 -1 -11t-2 -10l-1 -5h-82l1 5q1 5 1 12q0 16 -8.5 21t-18.5 5q-19 -1 -26 -12t-7 -21q0 -8 4.5 -12t12.5 -8l36 -16q15 -7 28.5 -13t23.5 -14t15.5 -19t5.5 -26z" />
    <glyph glyph-name="t.superior" horiz-adv-x="181" 
d="M148 438q-35 0 -50 11t-15 36q0 14 5 37l34 162h-34l13 58h33l17 84h93l-17 -84h51l-13 -58h-50l-32 -152q-3 -12 -3 -19q0 -11 5.5 -14.5t16.5 -3.5h24l-12 -57h-66z" />
    <glyph glyph-name="u.superior" horiz-adv-x="279" 
d="M212 475q-15 -23 -33 -33.5t-41 -10.5q-33 0 -48 14.5t-15 46.5q0 11 2 23.5t5 26.5l43 200h93l-38 -176q-3 -14 -5.5 -26t-2.5 -22q0 -22 16 -22q11 0 18 7t11.5 18.5t8 26.5t6.5 31l35 163h93l-65 -304h-91z" />
    <glyph glyph-name="v.superior" horiz-adv-x="247" 
d="M100 742h93l-13 -211l82 211h87l-137 -304h-106z" />
    <glyph glyph-name="w.superior" horiz-adv-x="335" 
d="M111 742h75l-29 -210l74 210h74l-13 -210l59 210h75l-97 -304h-93l16 225l-77 -225h-94z" />
    <glyph glyph-name="x.superior" horiz-adv-x="253" 
d="M177 520l-65 -82h-80l120 154l-50 150h89l24 -71l55 71h81l-112 -142l55 -162h-89z" />
    <glyph glyph-name="y.superior" horiz-adv-x="247" 
d="M51 397h23q18 0 27.5 8t14.5 22l4 12l-22 303h93l-6 -212l74 212h84l-131 -303q-12 -29 -24.5 -48.5t-28 -31t-35 -16.5t-46.5 -5h-39z" />
    <glyph glyph-name="z.superior" horiz-adv-x="241" 
d="M61 495l153 189h-100l13 58h196l-13 -58l-154 -189h120l-12 -57h-215z" />
    <glyph glyph-name="uni2074" unicode="&#x2074;" horiz-adv-x="300" 
d="M214 534h-145l14 66l190 246h90l-51 -239h49l-16 -73h-48l-20 -96h-83zM228 607l27 127l-102 -127h75z" />
    <glyph glyph-name="uni2075" unicode="&#x2075;" horiz-adv-x="285" 
d="M329 559q-14 -64 -48 -96.5t-100 -32.5q-21 0 -40.5 4.5t-34 14.5t-23.5 26.5t-9 40.5q0 8 1.5 18.5t2.5 14.5l1 5h87l-1 -5q-1 -4 -2 -13t-1 -16q0 -29 26 -29q20 0 29.5 18t15.5 50l6 29q5 23 5 36q0 33 -24 33q-14 0 -22.5 -9.5t-16.5 -26.5l-81 4l65 221h213l-16 -72
h-141l-29 -98q9 17 29 30t46 13q39 0 57 -18t18 -56q0 -12 -2 -25.5t-5 -29.5z" />
    <glyph glyph-name="uni2076" unicode="&#x2076;" horiz-adv-x="294" 
d="M339 559q-14 -64 -46.5 -96.5t-98.5 -32.5q-57 0 -82.5 24.5t-25.5 72.5q0 20 3.5 43t8.5 50l12 57q9 46 21 79t30 54.5t44.5 32t65.5 10.5q51 0 75.5 -21t24.5 -56q0 -14 -3 -30l-1 -7h-87l1 5q2 8 3 14t1 11q0 14 -6 19t-16 5q-26 0 -35 -25.5t-20 -77.5l-5 -22
q10 16 28 28.5t44 12.5q39 0 57 -18.5t18 -56.5q0 -12 -2 -25.5t-5 -29.5zM174 520q0 -29 22 -29q21 0 32 18t17 50l3 17q2 11 3.5 20.5t1.5 17.5q0 31 -25 31q-19 0 -29 -18t-16 -49l-4 -20q-5 -25 -5 -38z" />
    <glyph glyph-name="uni2077" unicode="&#x2077;" horiz-adv-x="222" 
d="M71 438q23 103 70 190t116 146h-149l16 72h222l-16 -72q-38 -34 -64.5 -71.5t-45 -79t-31 -88t-22.5 -97.5h-96z" />
    <glyph glyph-name="uni2078" unicode="&#x2078;" horiz-adv-x="299" 
d="M342 555q-15 -69 -50.5 -96.5t-100.5 -27.5q-55 0 -86.5 18.5t-31.5 63.5q0 17 5 42q8 40 29 65t53 36q-12 5 -24.5 20.5t-12.5 44.5q0 12 3 26q7 32 20 53t31.5 33t41 16.5t48.5 4.5q22 0 42 -3.5t35.5 -12t24.5 -23t9 -36.5q0 -8 -1 -15.5t-3 -16.5q-5 -21 -13.5 -36.5
t-18.5 -26.5t-20.5 -18t-18.5 -10q43 -18 43 -69q0 -7 -1 -15t-3 -17zM166 519q0 -13 6.5 -20.5t25.5 -7.5q14 0 22.5 5t14 13.5t8.5 20t6 24.5l1 5q4 17 4 34q0 12 -6 19.5t-24 7.5q-29 0 -38.5 -17.5t-13.5 -42.5l-1 -6q-2 -10 -3.5 -18.5t-1.5 -16.5zM214 702
q0 -10 4.5 -15.5t18.5 -5.5q23 0 29.5 13.5t11.5 39.5l1 5q5 23 5 35q0 20 -23 20t-29.5 -13.5t-11.5 -38.5l-1 -5q-5 -23 -5 -35z" />
    <glyph glyph-name="uni2079" unicode="&#x2079;" horiz-adv-x="294" 
d="M344 610q-9 -46 -20 -79.5t-27.5 -56t-42 -33.5t-63.5 -11q-51 0 -80 21.5t-29 56.5q0 8 1.5 16.5t3.5 20.5h86l-1 -5q-3 -17 -3 -25q0 -14 6 -19t16 -5q26 0 35 26.5t20 78.5l5 23q-10 -16 -28 -29t-44 -13q-39 0 -57 19.5t-18 57.5q0 22 6 52l5 21q14 65 46 96t98 31
q57 0 83 -23.5t26 -71.5q0 -19 -3.5 -42t-8.5 -50zM202 671q0 -14 5 -21.5t19 -7.5q20 0 29.5 18t15.5 47l4 21q5 25 5 39q0 27 -22 27q-21 0 -31 -17.5t-17 -49.5l-3 -18q-5 -25 -5 -38z" />
    <glyph glyph-name="uni2070" unicode="&#x2070;" horiz-adv-x="304" 
d="M173 525q0 -35 28 -35q15 0 24.5 9t16 25.5t12 41t12.5 56.5l8 38q7 32 11.5 56.5t4.5 41.5q0 34 -26 34q-30 0 -42 -34.5t-25 -97.5l-8 -38q-6 -32 -11 -56t-5 -41zM358 612q-10 -47 -22.5 -81t-32 -56.5t-46.5 -33.5t-65 -11q-59 0 -83.5 24t-24.5 75q0 37 10 83l12 58
q10 46 22.5 80.5t31 57t46 33.5t67.5 11q57 0 82 -24.5t25 -75.5q0 -17 -2.5 -38t-7.5 -44z" />
    <glyph glyph-name="uni2070.aalt" horiz-adv-x="305" 
d="M357 614q-9 -47 -21.5 -81.5t-31 -57t-45.5 -34t-65 -11.5q-57 0 -84 24t-27 72q0 35 11 88l13 59q10 46 22 80.5t30.5 57.5t45.5 34t66 11q57 0 83.5 -24t26.5 -75q0 -32 -11 -84zM173 527q0 -17 6 -26.5t21 -9.5t24.5 9t16 26t12 41.5t12.5 56.5l1 5l-83 -31
q-5 -22 -7.5 -39.5t-2.5 -31.5zM196 662l84 31q5 21 7.5 38.5t2.5 30.5q0 17 -6 25.5t-21 8.5t-25 -9t-17 -26t-12.5 -42t-12.5 -56v-1z" />
    <glyph glyph-name="period.superior" horiz-adv-x="133" 
d="M74 535h96l-21 -97h-96z" />
    <glyph glyph-name="hyphen.superior" horiz-adv-x="240" 
d="M96 616h189l-15 -73h-189z" />
    <glyph glyph-name="comma.superior" horiz-adv-x="173" 
d="M106 438h-35l21 97h97l-22 -104l-59 -90h-64z" />
    <glyph glyph-name="uni207C" unicode="&#x207c;" horiz-adv-x="349" 
d="M112 567h238v-80h-238v80zM112 681h238v-81h-238v81z" />
    <glyph glyph-name="uni207A" unicode="&#x207a;" horiz-adv-x="341" 
d="M198 547h-104v80h104v110h81v-110h103v-80h-103v-109h-81v109z" />
    <glyph glyph-name="uni207B" unicode="&#x207b;" horiz-adv-x="327" 
d="M99 621h283v-81h-283v81z" />
    <glyph glyph-name="uni207D" unicode="&#x207d;" horiz-adv-x="151" 
d="M101 340q-12 26 -22.5 68t-10.5 96q0 63 16 118.5t38 101.5t46 79.5t40 51.5h75q-18 -23 -41 -59.5t-43 -83.5t-33.5 -104.5t-13.5 -121.5q0 -43 6.5 -80t17.5 -66h-75z" />
    <glyph glyph-name="uni207E" unicode="&#x207e;" horiz-adv-x="154" 
d="M4 340q19 23 42 62t43 87.5t34 104.5t14 114q0 44 -7 81t-19 66h77q12 -26 23 -68t11 -96q0 -60 -16 -115.5t-38.5 -102t-46.5 -81t-40 -52.5h-77z" />
    <glyph glyph-name="a.inferior" horiz-adv-x="277" 
d="M91 -95q-17 -23 -37 -32t-46 -9q-32 0 -48.5 17.5t-16.5 46.5v12q0 6 2 13l1 7q4 17 13.5 31.5t23.5 25.5q15 13 38 22.5t54 18.5l41 13l5 21q2 10 2 18t-5 13.5t-19 5.5q-20 0 -27.5 -9t-11.5 -32l-1 -6h-81l1 6q8 51 35.5 74t81.5 23q24 0 45.5 -2.5t37 -10.5t25 -22
t9.5 -38q0 -8 -1 -16.5t-3 -18.5q0 -1 -3.5 -17t-8.5 -36q-5 -23 -11 -52q-6 -28 -10 -53t-5 -47h-85zM37 -60q0 -19 20 -19q18 0 26 15t15 44l9 41q-8 -3 -11.5 -4.5t-11.5 -5.5q-21 -11 -30 -19t-13 -25l-2 -9q-1 -5 -1.5 -9.5t-0.5 -8.5z" />
    <glyph glyph-name="b.inferior" horiz-adv-x="293" 
d="M223 6q-15 -72 -41.5 -107t-80.5 -35q-24 0 -40 12t-20 31l-7 -35h-94l87 408h93l-30 -138q11 18 32 30t46 12q33 0 51 -21t18 -63q0 -25 -6 -55zM53 -36q0 -35 28 -35q23 0 31 22t17 66l3 14q5 21 7.5 37t2.5 27q0 12 -4.5 18.5t-16.5 6.5q-26 0 -38 -26t-21 -70
q-4 -18 -6.5 -33t-2.5 -27z" />
    <glyph glyph-name="c.inferior" horiz-adv-x="268" 
d="M195 -18q-7 -35 -20.5 -57.5t-31.5 -36t-39.5 -19t-43.5 -5.5q-106 0 -106 94q0 10 1.5 21t3.5 23l10 48q14 66 49.5 100.5t99.5 34.5q18 0 36 -3.5t32 -13t22.5 -25.5t8.5 -40q0 -8 -1 -16.5t-3 -17.5l-1 -5h-88l1 5q2 11 3 19.5t1 13.5q0 14 -5.5 18t-15.5 4
q-22 0 -29.5 -22t-16.5 -64l-6 -27q-5 -20 -7.5 -35.5t-2.5 -26.5q0 -13 4.5 -19t16.5 -6q14 0 23.5 11.5t16.5 46.5l1 5h88z" />
    <glyph glyph-name="d.inferior" horiz-adv-x="294" 
d="M103 -93q-12 -19 -32 -31t-44 -12q-74 0 -74 81q0 29 7 61l9 39q14 69 41.5 104t76.5 35q24 0 42 -12t23 -30l30 138h93l-87 -408h-92zM49 -44q0 -14 4.5 -20.5t16.5 -6.5q29 0 40.5 26t20.5 69q8 38 8 60q0 17 -6.5 26.5t-23.5 9.5q-20 0 -29.5 -22.5t-18.5 -66.5
l-3 -15q-4 -20 -6.5 -34.5t-2.5 -25.5z" />
    <glyph glyph-name="e.inferior" horiz-adv-x="278" 
d="M198 -31q-7 -32 -20.5 -52.5t-31.5 -32t-39 -16t-43 -4.5q-53 0 -80.5 25.5t-27.5 72.5q0 20 4 39l10 50q14 65 49.5 99.5t99.5 34.5q54 0 78.5 -23t24.5 -70q0 -25 -8 -62l-3 -15h-155l-1 -4q-4 -19 -6.5 -33.5t-2.5 -25.5q0 -28 23 -28q13 0 23.5 7t17.5 39l1 5h88z
M66 63h70l1 5q2 8 3 17t1 14q0 26 -28 26q-20 0 -29.5 -12t-15.5 -42z" />
    <glyph glyph-name="f.inferior" horiz-adv-x="177" 
d="M0 118h-34l13 58h34l5 23q6 27 16 43t24.5 24.5t34 11t45.5 2.5h39l-12 -56h-20q-17 0 -23.5 -4.5t-10.5 -20.5l-5 -23h49l-13 -58h-48l-52 -246h-94z" />
    <glyph glyph-name="g.inferior" horiz-adv-x="301" 
d="M197 -95q-16 -76 -51.5 -108.5t-102.5 -32.5q-42 0 -73 16.5t-31 56.5q0 11 3 23h83q-1 -4 -1 -10q0 -13 8 -18.5t20 -5.5q10 0 17.5 2t13.5 8.5t10.5 19t9.5 33.5l7 36q-14 -17 -31 -29.5t-42 -12.5q-38 0 -60 20t-22 64q0 10 1.5 20.5t3.5 22.5l9 39q14 69 49 102
t82 33q24 0 36.5 -12.5t18.5 -29.5l7 33h92zM52 -24q0 -14 5 -21t19 -7q31 0 40.5 22.5t17.5 59.5q4 19 7 34t3 26q0 15 -7 22.5t-25 7.5q-23 0 -32.5 -21.5t-17.5 -59.5l-2 -10q-4 -17 -6 -29.5t-2 -23.5z" />
    <glyph glyph-name="h.inferior" horiz-adv-x="285" 
d="M27 280h93l-30 -138q16 24 36 33.5t46 9.5t43 -14t17 -49q0 -9 -1.5 -19t-3.5 -21l-45 -210h-93l38 177q3 14 5.5 26.5t2.5 22.5q0 22 -19 22q-13 0 -20.5 -7t-12.5 -18t-8.5 -26.5t-6.5 -31.5l-35 -165h-93z" />
    <glyph glyph-name="i.inferior" horiz-adv-x="141" 
d="M6 174h93l-64 -302h-93zM28 280h93l-16 -74h-93z" />
    <glyph glyph-name="j.inferior" horiz-adv-x="152" 
d="M-105 -170h16q17 0 21.5 9.5t9.5 33.5l64 301h93l-63 -296q-7 -33 -17.5 -53.5t-26 -32.5t-36 -16t-48.5 -4h-25zM28 280h93l-16 -74h-93z" />
    <glyph glyph-name="k.inferior" horiz-adv-x="276" 
d="M29 280h86l-47 -218l100 112h81l-75 -90l23 -212h-75l-12 151l-67 -80l-15 -71h-86z" />
    <glyph glyph-name="l.inferior" horiz-adv-x="141" 
d="M29 280h92l-87 -408h-92z" />
    <glyph glyph-name="m.inferior" horiz-adv-x="428" 
d="M6 174h92l-7 -36q16 24 34 35.5t44 11.5q55 0 59 -53q20 31 39.5 42t45.5 11q29 0 44.5 -17t15.5 -52q0 -10 -1.5 -20.5t-3.5 -22.5l-43 -201h-92l37 175q3 14 5.5 25.5t2.5 21.5q0 22 -17 22q-12 0 -19 -5t-11 -13t-6 -19t-5 -24l-39 -183h-94l41 193q5 20 5 33
q0 19 -16 19q-12 0 -20 -6.5t-13 -18t-8.5 -26.5t-6.5 -32l-34 -162h-93z" />
    <glyph glyph-name="n.inferior" horiz-adv-x="289" 
d="M6 174h93l-7 -32q16 24 36 33.5t46 9.5q27 0 44 -15t17 -50q0 -19 -4 -38l-45 -210h-94l38 177q3 14 5 26t2 22q0 23 -19 23q-13 0 -20.5 -7t-12.5 -18t-8.5 -26.5t-6.5 -31.5l-35 -165h-93z" />
    <glyph glyph-name="o.inferior" horiz-adv-x="281" 
d="M47 -49q0 -27 23 -27q22 0 30 22t17 65l6 28q4 19 6.5 34t2.5 26q0 12 -4.5 18.5t-16.5 6.5q-22 0 -31 -22t-17 -63l-6 -28q-5 -20 -7.5 -34.5t-2.5 -25.5zM211 2q-15 -69 -45.5 -103.5t-94.5 -34.5q-54 0 -85 24t-31 72q0 10 1 20.5t4 21.5l10 47q14 66 45 101t95 35
q54 0 85 -24.5t31 -72.5q0 -16 -5 -39z" />
    <glyph glyph-name="p.inferior" horiz-adv-x="294" 
d="M6 174h92l-6 -32q11 19 32 31t46 12q32 0 50.5 -21t18.5 -64q0 -24 -6 -55l-8 -39q-14 -71 -39.5 -106.5t-82.5 -35.5q-24 0 -41 12.5t-21 30.5l-28 -135h-92zM55 -35q0 -17 6 -26.5t22 -9.5q23 0 31 22t17 66l3 15q5 21 7.5 36.5t2.5 26.5q0 25 -21 25q-26 0 -38 -25.5
t-21 -69.5q-4 -18 -6.5 -33t-2.5 -27z" />
    <glyph glyph-name="q.inferior" horiz-adv-x="295" 
d="M103 -93q-11 -18 -30 -30.5t-49 -12.5q-70 0 -70 82q0 28 7 60l8 39q14 70 43 105t78 35q25 0 41.5 -12t21.5 -31l7 32h93l-85 -402h-93zM49 -44q0 -14 4.5 -20.5t16.5 -6.5q28 0 40 26.5t21 69.5q8 38 8 60q0 17 -6.5 26t-23.5 9q-20 0 -29.5 -22.5t-18.5 -66.5l-3 -14
q-9 -39 -9 -61z" />
    <glyph glyph-name="r.inferior" horiz-adv-x="191" 
d="M6 174h90l-13 -62q11 27 28.5 44.5t46.5 17.5h11l-19 -89h-23q-17 0 -27.5 -2.5t-16.5 -9t-9 -17.5t-7 -29l-33 -155h-92z" />
    <glyph glyph-name="s.inferior" horiz-adv-x="259" 
d="M188 -16q0 -58 -35.5 -89t-92.5 -31q-35 0 -56.5 8.5t-33.5 22.5t-16.5 32t-4.5 36v5q0 4 1 9h85l-1 -5q-1 -5 -1 -14q0 -15 7.5 -24t22.5 -9q17 0 27.5 10.5t10.5 25.5q0 11 -7.5 16.5t-21.5 12.5l-41 18q-26 10 -40.5 25t-14.5 39q0 58 33.5 85.5t92.5 27.5
q44 0 74 -20t30 -57q0 -5 -1 -11t-2 -10l-1 -5h-82l1 5q1 5 1 12q0 16 -8.5 21t-18.5 5q-19 -1 -26 -12t-7 -21q0 -8 4.5 -12t12.5 -8l36 -16q15 -7 28.5 -13t23.5 -14t15.5 -19t5.5 -26z" />
    <glyph glyph-name="t.inferior" horiz-adv-x="181" 
d="M29 -128q-35 0 -50 11t-15 36q0 14 5 37l34 162h-34l13 58h33l17 84h93l-17 -84h51l-13 -58h-50l-32 -152q-3 -12 -3 -19q0 -11 5.5 -14.5t16.5 -3.5h24l-12 -57h-66z" />
    <glyph glyph-name="u.inferior" horiz-adv-x="279" 
d="M93 -91q-15 -23 -33 -33.5t-41 -10.5q-33 0 -48 14.5t-15 46.5q0 11 2 23.5t5 26.5l43 200h93l-38 -176q-3 -14 -5.5 -26t-2.5 -22q0 -22 16 -22q11 0 18 7t11.5 18.5t8 26.5t6.5 31l35 163h93l-65 -304h-91z" />
    <glyph glyph-name="v.inferior" horiz-adv-x="247" 
d="M-19 176h93l-13 -211l82 211h87l-137 -304h-106z" />
    <glyph glyph-name="w.inferior" horiz-adv-x="335" 
d="M-8 176h75l-29 -210l74 210h74l-13 -210l59 210h75l-97 -304h-93l16 225l-77 -225h-94z" />
    <glyph glyph-name="x.inferior" horiz-adv-x="253" 
d="M58 -46l-65 -82h-80l120 154l-50 150h89l24 -71l55 71h81l-112 -142l55 -162h-89z" />
    <glyph glyph-name="y.inferior" horiz-adv-x="247" 
d="M-68 -169h23q18 0 27.5 8t14.5 22l4 12l-22 303h93l-6 -212l74 212h84l-131 -303q-12 -29 -24.5 -48.5t-28 -31t-35 -16.5t-46.5 -5h-39z" />
    <glyph glyph-name="z.inferior" horiz-adv-x="241" 
d="M-58 -71l153 189h-100l13 58h196l-13 -58l-154 -189h120l-12 -57h-215z" />
    <glyph glyph-name="uni2081" unicode="&#x2081;" horiz-adv-x="181" 
d="M47 173h-66l13 59q21 1 34 2.5t22.5 6t16.5 14.5t16 27h73l-87 -410h-86z" />
    <glyph glyph-name="uni2082" unicode="&#x2082;" horiz-adv-x="289" 
d="M-45 -61l57 57q44 44 72.5 75.5t45.5 55.5t24 42t7 34q0 11 -5.5 17.5t-19.5 6.5q-19 0 -27 -15.5t-16 -53.5l-1 -5h-89l1 5q13 66 44 97.5t97 31.5q50 0 80 -23t30 -57q0 -25 -9.5 -48.5t-27.5 -48.5t-44.5 -53.5t-60.5 -63.5l-49 -50h140l-15 -71h-248z" />
    <glyph glyph-name="uni2083" unicode="&#x2083;" horiz-adv-x="295" 
d="M221 18q0 -73 -41.5 -113.5t-114.5 -40.5q-22 0 -41.5 4.5t-34.5 14.5t-23.5 27t-8.5 41q0 17 3 32l1 5h87l-1 -5q-4 -17 -4 -31t5.5 -20.5t19.5 -6.5q27 0 38 19t16 45q3 16 3 31q0 14 -7.5 23t-31.5 9h-25l14 63h23q26 0 35.5 15.5t14.5 39.5q2 9 3 16.5t1 14.5
q0 12 -5.5 19t-20.5 7t-23 -10t-15 -43l-1 -5h-87l1 5q7 34 19 56t29.5 34.5t38.5 17.5t46 5q22 0 42.5 -4t36.5 -13t25 -23.5t9 -35.5q0 -29 -8 -50t-19.5 -35.5t-25.5 -23t-26 -11.5q53 -18 53 -73z" />
    <glyph glyph-name="uni2084" unicode="&#x2084;" horiz-adv-x="300" 
d="M95 -32h-145l14 66l190 246h90l-51 -239h49l-16 -73h-48l-20 -96h-83zM109 41l27 127l-102 -127h75z" />
    <glyph glyph-name="uni2085" unicode="&#x2085;" horiz-adv-x="285" 
d="M210 -7q-14 -64 -48 -96.5t-100 -32.5q-21 0 -40.5 4.5t-34 14.5t-23.5 26.5t-9 40.5q0 8 1.5 18.5t2.5 14.5l1 5h87l-1 -5q-1 -4 -2 -13t-1 -16q0 -29 26 -29q20 0 29.5 18t15.5 50l6 29q5 23 5 36q0 33 -24 33q-14 0 -22.5 -9.5t-16.5 -26.5l-81 4l65 221h213l-16 -72
h-141l-29 -98q9 17 29 30t46 13q39 0 57 -18t18 -56q0 -12 -2 -25.5t-5 -29.5z" />
    <glyph glyph-name="uni2086" unicode="&#x2086;" horiz-adv-x="294" 
d="M220 -7q-14 -64 -46.5 -96.5t-98.5 -32.5q-57 0 -82.5 24.5t-25.5 72.5q0 20 3.5 43t8.5 50l12 57q9 46 21 79t30 54.5t44.5 32t65.5 10.5q51 0 75.5 -21t24.5 -56q0 -14 -3 -30l-1 -7h-87l1 5q2 8 3 14t1 11q0 14 -6 19t-16 5q-26 0 -35 -25.5t-20 -77.5l-5 -22
q10 16 28 28.5t44 12.5q39 0 57 -18.5t18 -56.5q0 -12 -2 -25.5t-5 -29.5zM55 -46q0 -29 22 -29q21 0 32 18t17 50l3 17q2 11 3.5 20.5t1.5 17.5q0 31 -25 31q-19 0 -29 -18t-16 -49l-4 -20q-5 -25 -5 -38z" />
    <glyph glyph-name="uni2087" unicode="&#x2087;" horiz-adv-x="222" 
d="M-48 -128q23 103 70 190t116 146h-149l16 72h222l-16 -72q-38 -34 -64.5 -71.5t-45 -79t-31 -88t-22.5 -97.5h-96z" />
    <glyph glyph-name="uni2088" unicode="&#x2088;" horiz-adv-x="299" 
d="M223 -11q-15 -69 -50.5 -96.5t-100.5 -27.5q-55 0 -86.5 18.5t-31.5 63.5q0 17 5 42q8 40 29 65t53 36q-12 5 -24.5 20.5t-12.5 44.5q0 12 3 26q7 32 20 53t31.5 33t41 16.5t48.5 4.5q22 0 42 -3.5t35.5 -12t24.5 -23t9 -36.5q0 -8 -1 -15.5t-3 -16.5q-5 -21 -13.5 -36.5
t-18.5 -26.5t-20.5 -18t-18.5 -10q43 -18 43 -69q0 -7 -1 -15t-3 -17zM47 -47q0 -13 6.5 -20.5t25.5 -7.5q14 0 22.5 5t14 13.5t8.5 20t6 24.5l1 5q4 17 4 34q0 12 -6 19.5t-24 7.5q-29 0 -38.5 -17.5t-13.5 -42.5l-1 -6q-2 -10 -3.5 -18.5t-1.5 -16.5zM95 136
q0 -10 4.5 -15.5t18.5 -5.5q23 0 29.5 13.5t11.5 39.5l1 5q5 23 5 35q0 20 -23 20t-29.5 -13.5t-11.5 -38.5l-1 -5q-5 -23 -5 -35z" />
    <glyph glyph-name="uni2089" unicode="&#x2089;" horiz-adv-x="294" 
d="M225 44q-9 -46 -20 -79.5t-27.5 -56t-42 -33.5t-63.5 -11q-51 0 -80 21.5t-29 56.5q0 8 1.5 16.5t3.5 20.5h86l-1 -5q-3 -17 -3 -25q0 -14 6 -19t16 -5q26 0 35 26.5t20 78.5l5 23q-10 -16 -28 -29t-44 -13q-39 0 -57 19.5t-18 57.5q0 22 6 52l5 21q14 65 46 96t98 31
q57 0 83 -23.5t26 -71.5q0 -19 -3.5 -42t-8.5 -50zM83 105q0 -14 5 -21.5t19 -7.5q20 0 29.5 18t15.5 47l4 21q5 25 5 39q0 27 -22 27q-21 0 -31 -17.5t-17 -49.5l-3 -18q-5 -25 -5 -38z" />
    <glyph glyph-name="uni2080" unicode="&#x2080;" horiz-adv-x="304" 
d="M54 -41q0 -35 28 -35q15 0 24.5 9t16 25.5t12 41t12.5 56.5l8 38q7 32 11.5 56.5t4.5 41.5q0 34 -26 34q-30 0 -42 -34.5t-25 -97.5l-8 -38q-6 -32 -11 -56t-5 -41zM239 46q-10 -47 -22.5 -81t-32 -56.5t-46.5 -33.5t-65 -11q-59 0 -83.5 24t-24.5 75q0 37 10 83l12 58
q10 46 22.5 80.5t31 57t46 33.5t67.5 11q57 0 82 -24.5t25 -75.5q0 -17 -2.5 -38t-7.5 -44z" />
    <glyph glyph-name="uni2080.aalt" horiz-adv-x="305" 
d="M238 48q-9 -47 -21.5 -81.5t-31 -57t-45.5 -34t-65 -11.5q-57 0 -84 24t-27 72q0 35 11 88l13 59q10 46 22 80.5t30.5 57.5t45.5 34t66 11q57 0 83.5 -24t26.5 -75q0 -32 -11 -84zM54 -39q0 -17 6 -26.5t21 -9.5t24.5 9t16 26t12 41.5t12.5 56.5l1 5l-83 -31
q-5 -22 -7.5 -39.5t-2.5 -31.5zM77 96l84 31q5 21 7.5 38.5t2.5 30.5q0 17 -6 25.5t-21 8.5t-25 -9t-17 -26t-12.5 -42t-12.5 -56v-1z" />
    <glyph glyph-name="period.inferior" horiz-adv-x="133" 
d="M-45 -31h96l-21 -97h-96z" />
    <glyph glyph-name="hyphen.inferior" horiz-adv-x="240" 
d="M-23 50h189l-15 -73h-189z" />
    <glyph glyph-name="comma.inferior" horiz-adv-x="173" 
d="M-13 -128h-35l21 97h97l-22 -104l-59 -90h-64z" />
    <glyph glyph-name="equal.inferior" horiz-adv-x="349" 
d="M-7 1h238v-80h-238v80zM-7 115h238v-81h-238v81z" />
    <glyph glyph-name="plus.inferior" horiz-adv-x="341" 
d="M79 -19h-104v80h104v110h81v-110h103v-80h-103v-109h-81v109z" />
    <glyph glyph-name="minus.inferior" horiz-adv-x="327" 
d="M-20 55h283v-81h-283v81z" />
    <glyph glyph-name="uni208D" unicode="&#x208d;" horiz-adv-x="151" 
d="M-18 -226q-12 26 -22.5 68t-10.5 96q0 63 16 118.5t38 101.5t46 79.5t40 51.5h75q-18 -23 -41 -59.5t-43 -83.5t-33.5 -104.5t-13.5 -121.5q0 -43 6.5 -80t17.5 -66h-75z" />
    <glyph glyph-name="uni208E" unicode="&#x208e;" horiz-adv-x="154" 
d="M-115 -226q19 23 42 62t43 87.5t34 104.5t14 114q0 44 -7 81t-19 66h77q12 -26 23 -68t11 -96q0 -60 -16 -115.5t-38.5 -102t-46.5 -81t-40 -52.5h-77z" />
    <glyph glyph-name="one.numr" horiz-adv-x="181" 
d="M140 618h-66l13 59q21 1 34 2.5t22.5 6t16.5 14.5t16 27h73l-87 -410h-86z" />
    <glyph glyph-name="two.numr" horiz-adv-x="289" 
d="M48 384l57 57q44 44 72.5 75.5t45.5 55.5t24 42t7 34q0 11 -5.5 17.5t-19.5 6.5q-19 0 -27 -15.5t-16 -53.5l-1 -5h-89l1 5q13 66 44 97.5t97 31.5q50 0 80 -23t30 -57q0 -25 -9.5 -48.5t-27.5 -48.5t-44.5 -53.5t-60.5 -63.5l-49 -50h140l-15 -71h-248z" />
    <glyph glyph-name="three.numr" horiz-adv-x="295" 
d="M313 463q0 -73 -41.5 -113.5t-114.5 -40.5q-22 0 -41.5 4.5t-34.5 14.5t-23.5 27t-8.5 41q0 17 3 32l1 5h87l-1 -5q-4 -17 -4 -31t5.5 -20.5t19.5 -6.5q27 0 38 19t16 45q3 16 3 31q0 14 -7.5 23t-31.5 9h-25l14 63h23q26 0 35.5 15.5t14.5 39.5q2 9 3 16.5t1 14.5
q0 12 -5.5 19t-20.5 7t-23 -10t-15 -43l-1 -5h-87l1 5q7 34 19 56t29.5 34.5t38.5 17.5t46 5q22 0 42.5 -4t36.5 -13t25 -23.5t9 -35.5q0 -29 -8 -50t-19.5 -35.5t-25.5 -23t-26 -11.5q53 -18 53 -73z" />
    <glyph glyph-name="four.numr" horiz-adv-x="300" 
d="M188 413h-145l14 66l190 246h90l-51 -239h49l-16 -73h-48l-20 -96h-83zM202 486l27 127l-102 -127h75z" />
    <glyph glyph-name="five.numr" horiz-adv-x="285" 
d="M303 438q-14 -64 -48 -96.5t-100 -32.5q-21 0 -40.5 4.5t-34 14.5t-23.5 26.5t-9 40.5q0 8 1.5 18.5t2.5 14.5l1 5h87l-1 -5q-1 -4 -2 -13t-1 -16q0 -29 26 -29q20 0 29.5 18t15.5 50l6 29q5 23 5 36q0 33 -24 33q-14 0 -22.5 -9.5t-16.5 -26.5l-81 4l65 221h213l-16 -72
h-141l-29 -98q9 17 29 30t46 13q39 0 57 -18t18 -56q0 -12 -2 -25.5t-5 -29.5z" />
    <glyph glyph-name="six.numr" horiz-adv-x="294" 
d="M313 438q-14 -64 -46.5 -96.5t-98.5 -32.5q-57 0 -82.5 24.5t-25.5 72.5q0 20 3.5 43t8.5 50l12 57q9 46 21 79t30 54.5t44.5 32t65.5 10.5q51 0 75.5 -21t24.5 -56q0 -14 -3 -30l-1 -7h-87l1 5q2 8 3 14t1 11q0 14 -6 19t-16 5q-26 0 -35 -25.5t-20 -77.5l-5 -22
q10 16 28 28.5t44 12.5q39 0 57 -18.5t18 -56.5q0 -12 -2 -25.5t-5 -29.5zM148 399q0 -29 22 -29q21 0 32 18t17 50l3 17q2 11 3.5 20.5t1.5 17.5q0 31 -25 31q-19 0 -29 -18t-16 -49l-4 -20q-5 -25 -5 -38z" />
    <glyph glyph-name="seven.numr" horiz-adv-x="222" 
d="M45 317q23 103 70 190t116 146h-149l16 72h222l-16 -72q-38 -34 -64.5 -71.5t-45 -79t-31 -88t-22.5 -97.5h-96z" />
    <glyph glyph-name="eight.numr" horiz-adv-x="299" 
d="M316 434q-15 -69 -50.5 -96.5t-100.5 -27.5q-55 0 -86.5 18.5t-31.5 63.5q0 17 5 42q8 40 29 65t53 36q-12 5 -24.5 20.5t-12.5 44.5q0 12 3 26q7 32 20 53t31.5 33t41 16.5t48.5 4.5q22 0 42 -3.5t35.5 -12t24.5 -23t9 -36.5q0 -8 -1 -15.5t-3 -16.5q-5 -21 -13.5 -36.5
t-18.5 -26.5t-20.5 -18t-18.5 -10q43 -18 43 -69q0 -7 -1 -15t-3 -17zM140 398q0 -13 6.5 -20.5t25.5 -7.5q14 0 22.5 5t14 13.5t8.5 20t6 24.5l1 5q4 17 4 34q0 12 -6 19.5t-24 7.5q-29 0 -38.5 -17.5t-13.5 -42.5l-1 -6q-2 -10 -3.5 -18.5t-1.5 -16.5zM188 581
q0 -10 4.5 -15.5t18.5 -5.5q23 0 29.5 13.5t11.5 39.5l1 5q5 23 5 35q0 20 -23 20t-29.5 -13.5t-11.5 -38.5l-1 -5q-5 -23 -5 -35z" />
    <glyph glyph-name="nine.numr" horiz-adv-x="294" 
d="M318 489q-9 -46 -20 -79.5t-27.5 -56t-42 -33.5t-63.5 -11q-51 0 -80 21.5t-29 56.5q0 8 1.5 16.5t3.5 20.5h86l-1 -5q-3 -17 -3 -25q0 -14 6 -19t16 -5q26 0 35 26.5t20 78.5l5 23q-10 -16 -28 -29t-44 -13q-39 0 -57 19.5t-18 57.5q0 22 6 52l5 21q14 65 46 96t98 31
q57 0 83 -23.5t26 -71.5q0 -19 -3.5 -42t-8.5 -50zM176 550q0 -14 5 -21.5t19 -7.5q20 0 29.5 18t15.5 47l4 21q5 25 5 39q0 27 -22 27q-21 0 -31 -17.5t-17 -49.5l-3 -18q-5 -25 -5 -38z" />
    <glyph glyph-name="zero.numr" horiz-adv-x="304" 
d="M147 404q0 -35 28 -35q15 0 24.5 9t16 25.5t12 41t12.5 56.5l8 38q7 32 11.5 56.5t4.5 41.5q0 34 -26 34q-30 0 -42 -34.5t-25 -97.5l-8 -38q-6 -32 -11 -56t-5 -41zM332 491q-10 -47 -22.5 -81t-32 -56.5t-46.5 -33.5t-65 -11q-59 0 -83.5 24t-24.5 75q0 37 10 83l12 58
q10 46 22.5 80.5t31 57t46 33.5t67.5 11q57 0 82 -24.5t25 -75.5q0 -17 -2.5 -38t-7.5 -44z" />
    <glyph glyph-name="zero.numr.zero" horiz-adv-x="305" 
d="M331 493q-9 -47 -21.5 -81.5t-31 -57t-45.5 -34t-65 -11.5q-57 0 -84 24t-27 72q0 35 11 88l13 59q10 46 22 80.5t30.5 57.5t45.5 34t66 11q57 0 83.5 -24t26.5 -75q0 -32 -11 -84zM147 406q0 -17 6 -26.5t21 -9.5t24.5 9t16 26t12 41.5t12.5 56.5l1 5l-83 -31
q-5 -22 -7.5 -39.5t-2.5 -31.5zM170 541l84 31q5 21 7.5 38.5t2.5 30.5q0 17 -6 25.5t-21 8.5t-25 -9t-17 -26t-12.5 -42t-12.5 -56v-1z" />
    <glyph glyph-name="one.dnom" horiz-adv-x="181" 
d="M73 301h-66l13 59q21 1 34 2.5t22.5 6t16.5 14.5t16 27h73l-87 -410h-86z" />
    <glyph glyph-name="two.dnom" horiz-adv-x="289" 
d="M-19 67l57 57q44 44 72.5 75.5t45.5 55.5t24 42t7 34q0 11 -5.5 17.5t-19.5 6.5q-19 0 -27 -15.5t-16 -53.5l-1 -5h-89l1 5q13 66 44 97.5t97 31.5q50 0 80 -23t30 -57q0 -25 -9.5 -48.5t-27.5 -48.5t-44.5 -53.5t-60.5 -63.5l-49 -50h140l-15 -71h-248z" />
    <glyph glyph-name="three.dnom" horiz-adv-x="295" 
d="M246 146q0 -73 -41.5 -113.5t-114.5 -40.5q-22 0 -41.5 4.5t-34.5 14.5t-23.5 27t-8.5 41q0 17 3 32l1 5h87l-1 -5q-4 -17 -4 -31t5.5 -20.5t19.5 -6.5q27 0 38 19t16 45q3 16 3 31q0 14 -7.5 23t-31.5 9h-25l14 63h23q26 0 35.5 15.5t14.5 39.5q2 9 3 16.5t1 14.5
q0 12 -5.5 19t-20.5 7t-23 -10t-15 -43l-1 -5h-87l1 5q7 34 19 56t29.5 34.5t38.5 17.5t46 5q22 0 42.5 -4t36.5 -13t25 -23.5t9 -35.5q0 -29 -8 -50t-19.5 -35.5t-25.5 -23t-26 -11.5q53 -18 53 -73z" />
    <glyph glyph-name="four.dnom" horiz-adv-x="300" 
d="M121 96h-145l14 66l190 246h90l-51 -239h49l-16 -73h-48l-20 -96h-83zM135 169l27 127l-102 -127h75z" />
    <glyph glyph-name="five.dnom" horiz-adv-x="285" 
d="M236 121q-14 -64 -48 -96.5t-100 -32.5q-21 0 -40.5 4.5t-34 14.5t-23.5 26.5t-9 40.5q0 8 1.5 18.5t2.5 14.5l1 5h87l-1 -5q-1 -4 -2 -13t-1 -16q0 -29 26 -29q20 0 29.5 18t15.5 50l6 29q5 23 5 36q0 33 -24 33q-14 0 -22.5 -9.5t-16.5 -26.5l-81 4l65 221h213l-16 -72
h-141l-29 -98q9 17 29 30t46 13q39 0 57 -18t18 -56q0 -12 -2 -25.5t-5 -29.5z" />
    <glyph glyph-name="six.dnom" horiz-adv-x="294" 
d="M246 121q-14 -64 -46.5 -96.5t-98.5 -32.5q-57 0 -82.5 24.5t-25.5 72.5q0 20 3.5 43t8.5 50l12 57q9 46 21 79t30 54.5t44.5 32t65.5 10.5q51 0 75.5 -21t24.5 -56q0 -14 -3 -30l-1 -7h-87l1 5q2 8 3 14t1 11q0 14 -6 19t-16 5q-26 0 -35 -25.5t-20 -77.5l-5 -22
q10 16 28 28.5t44 12.5q39 0 57 -18.5t18 -56.5q0 -12 -2 -25.5t-5 -29.5zM81 82q0 -29 22 -29q21 0 32 18t17 50l3 17q2 11 3.5 20.5t1.5 17.5q0 31 -25 31q-19 0 -29 -18t-16 -49l-4 -20q-5 -25 -5 -38z" />
    <glyph glyph-name="seven.dnom" horiz-adv-x="222" 
d="M-22 0q23 103 70 190t116 146h-149l16 72h222l-16 -72q-38 -34 -64.5 -71.5t-45 -79t-31 -88t-22.5 -97.5h-96z" />
    <glyph glyph-name="eight.dnom" horiz-adv-x="299" 
d="M249 117q-15 -69 -50.5 -96.5t-100.5 -27.5q-55 0 -86.5 18.5t-31.5 63.5q0 17 5 42q8 40 29 65t53 36q-12 5 -24.5 20.5t-12.5 44.5q0 12 3 26q7 32 20 53t31.5 33t41 16.5t48.5 4.5q22 0 42 -3.5t35.5 -12t24.5 -23t9 -36.5q0 -8 -1 -15.5t-3 -16.5q-5 -21 -13.5 -36.5
t-18.5 -26.5t-20.5 -18t-18.5 -10q43 -18 43 -69q0 -7 -1 -15t-3 -17zM73 81q0 -13 6.5 -20.5t25.5 -7.5q14 0 22.5 5t14 13.5t8.5 20t6 24.5l1 5q4 17 4 34q0 12 -6 19.5t-24 7.5q-29 0 -38.5 -17.5t-13.5 -42.5l-1 -6q-2 -10 -3.5 -18.5t-1.5 -16.5zM121 264
q0 -10 4.5 -15.5t18.5 -5.5q23 0 29.5 13.5t11.5 39.5l1 5q5 23 5 35q0 20 -23 20t-29.5 -13.5t-11.5 -38.5l-1 -5q-5 -23 -5 -35z" />
    <glyph glyph-name="nine.dnom" horiz-adv-x="294" 
d="M251 172q-9 -46 -20 -79.5t-27.5 -56t-42 -33.5t-63.5 -11q-51 0 -80 21.5t-29 56.5q0 8 1.5 16.5t3.5 20.5h86l-1 -5q-3 -17 -3 -25q0 -14 6 -19t16 -5q26 0 35 26.5t20 78.5l5 23q-10 -16 -28 -29t-44 -13q-39 0 -57 19.5t-18 57.5q0 22 6 52l5 21q14 65 46 96t98 31
q57 0 83 -23.5t26 -71.5q0 -19 -3.5 -42t-8.5 -50zM109 233q0 -14 5 -21.5t19 -7.5q20 0 29.5 18t15.5 47l4 21q5 25 5 39q0 27 -22 27q-21 0 -31 -17.5t-17 -49.5l-3 -18q-5 -25 -5 -38z" />
    <glyph glyph-name="zero.dnom" horiz-adv-x="304" 
d="M80 87q0 -35 28 -35q15 0 24.5 9t16 25.5t12 41t12.5 56.5l8 38q7 32 11.5 56.5t4.5 41.5q0 34 -26 34q-30 0 -42 -34.5t-25 -97.5l-8 -38q-6 -32 -11 -56t-5 -41zM265 174q-10 -47 -22.5 -81t-32 -56.5t-46.5 -33.5t-65 -11q-59 0 -83.5 24t-24.5 75q0 37 10 83l12 58
q10 46 22.5 80.5t31 57t46 33.5t67.5 11q57 0 82 -24.5t25 -75.5q0 -17 -2.5 -38t-7.5 -44z" />
    <glyph glyph-name="zero.dnom.zero" horiz-adv-x="305" 
d="M264 176q-9 -47 -21.5 -81.5t-31 -57t-45.5 -34t-65 -11.5q-57 0 -84 24t-27 72q0 35 11 88l13 59q10 46 22 80.5t30.5 57.5t45.5 34t66 11q57 0 83.5 -24t26.5 -75q0 -32 -11 -84zM80 89q0 -17 6 -26.5t21 -9.5t24.5 9t16 26t12 41.5t12.5 56.5l1 5l-83 -31
q-5 -22 -7.5 -39.5t-2.5 -31.5zM103 224l84 31q5 21 7.5 38.5t2.5 30.5q0 17 -6 25.5t-21 8.5t-25 -9t-17 -26t-12.5 -42t-12.5 -56v-1z" />
    <glyph glyph-name="ampersand.aalt" horiz-adv-x="671" 
d="M630 400q-18 -78 -50.5 -138t-70.5 -105l90 -157h-164l-30 53q-38 -32 -81 -49t-106 -17q-43 0 -82 9t-69 28.5t-48 50t-18 73.5q0 37 13.5 70.5t38.5 63.5t58.5 57t74.5 51l21 12l-6 12q-18 32 -27.5 58t-9.5 53q0 42 14.5 80.5t41.5 68t66 47t88 17.5q28 0 59 -6.5
t56 -21.5t41.5 -39t16.5 -58q0 -53 -38 -109.5t-120 -105.5l-12 -8l72 -126q17 28 32 62.5t23 73.5h126zM231 95q38 0 68 13t54 36l-98 173l-12 -7q-53 -32 -70.5 -66.5t-17.5 -72.5q0 -33 18 -54.5t58 -21.5zM299 556q0 -18 6.5 -34t17.5 -37l6 -11l16 9q38 23 56.5 46
t19.5 64q1 23 -12.5 33t-36.5 10q-30 0 -52 -19t-21 -61z" />
    <glyph glyph-name="hyphen.case" horiz-adv-x="350" 
d="M71 412h266l-27 -131h-266z" />
    <glyph glyph-name="endash.aalt" horiz-adv-x="492" 
d="M56 412h439l-27 -131h-439z" />
    <glyph glyph-name="emdash.aalt" horiz-adv-x="716" 
d="M56 412h663l-27 -131h-663z" />
    <glyph glyph-name="question.aalt" horiz-adv-x="530" 
d="M160 271q8 37 22 62t33.5 44t44 33.5t53.5 29.5q32 16 50.5 33.5t28 35t12 35.5t2.5 36q0 25 -18 38.5t-44 13.5q-49 0 -71.5 -26t-34.5 -87l-3 -15h-166l3 15q12 61 36 103t59.5 67.5t81.5 37t103 11.5q41 0 81 -8.5t71.5 -26t50.5 -44t19 -62.5q0 -40 -10.5 -72.5
t-29 -58.5t-43 -46t-52.5 -34q-27 -13 -45.5 -23t-31.5 -22t-21 -29t-14 -44l-11 -52h-168zM134 155h162l-33 -155h-162z" />
    <glyph glyph-name="questiondown.aalt" horiz-adv-x="530" 
d="M407 455q-8 -37 -21 -62.5t-32 -44t-43.5 -33t-53.5 -29.5q-28 -14 -46 -30t-28.5 -33.5t-14.5 -36.5t-4 -40q0 -26 14 -39t40 -13q49 0 74.5 26t40.5 89l3 15h165l-3 -15q-14 -61 -36.5 -103.5t-55 -68.5t-76.5 -38t-101 -12q-41 0 -83 7.5t-75.5 25t-55 44.5t-21.5 66
q0 40 11 73t29.5 58.5t43.5 45t53 33.5q27 13 46 23t32 22t21 29t14 44l11 52h163zM298 725h162l-33 -155h-162z" />
    <glyph glyph-name="exclam.aalt" horiz-adv-x="238" 
d="M86 530l41 195h178l-41 -195l-103 -319h-108zM10 155h162l-33 -155h-162z" />
    <glyph glyph-name="exclamdown.aalt" horiz-adv-x="245" 
d="M193 195l-41 -195h-178l41 195l103 319h108zM132 725h162l-33 -155h-162z" />
    <glyph glyph-name="guilsinglleft.aalt" horiz-adv-x="213" 
d="M34 290l37 177l184 145l-36 -169l-87 -65l59 -66l-36 -171z" />
    <glyph glyph-name="guilsinglright.aalt" horiz-adv-x="213" 
d="M223 463l-37 -177l-184 -145l36 169l87 65l-59 66l36 171z" />
    <glyph glyph-name="guillemotleft.aalt" horiz-adv-x="403" 
d="M215 290l37 177l184 145l-36 -169l-87 -65l59 -66l-36 -171zM34 290l37 177l184 145l-36 -169l-87 -65l59 -66l-36 -171z" />
    <glyph glyph-name="guillemotright.aalt" horiz-adv-x="403" 
d="M404 463l-37 -177l-184 -145l36 169l87 65l-59 66l36 171zM223 463l-37 -177l-184 -145l36 169l87 65l-59 66l36 171z" />
    <glyph glyph-name="parenleft.case" horiz-adv-x="273" 
d="M91 0q-21 47 -36 106t-15 131q0 77 18 147.5t47 132t65 114t73 94.5h135q-45 -57 -81.5 -118.5t-62 -125.5t-39 -128.5t-13.5 -127.5q0 -61 11.5 -116t32.5 -109h-135z" />
    <glyph glyph-name="parenright.case" horiz-adv-x="273" 
d="M-64 0q90 113 143 239.5t53 263.5q0 61 -12 114t-33 108h135q21 -47 36.5 -103t15.5 -128q0 -76 -18 -146.5t-46.5 -133.5t-65.5 -117.5t-74 -96.5h-134z" />
    <glyph glyph-name="bracketleft.aalt" horiz-adv-x="302" 
d="M151 725h253l-22 -102h-133l-110 -521h132l-22 -102h-252z" />
    <glyph glyph-name="bracketright.aalt" horiz-adv-x="304" 
d="M-38 102h131l110 521h-133l22 102h255l-154 -725h-253z" />
    <glyph glyph-name="braceleft.aalt" horiz-adv-x="302" 
d="M220 0q-42 0 -73 5t-52 17.5t-31.5 33.5t-10.5 53q0 14 2 30t6 35l7 33q3 14 5.5 26.5t2.5 23.5q0 26 -13.5 40t-48.5 14l22 102q24 0 40.5 8.5t27.5 23t17.5 34.5t12.5 44l7 30q12 52 30.5 85.5t46 52.5t65.5 26.5t89 7.5h31l-22 -102h-16q-50 0 -69.5 -17t-26.5 -55
l-10 -49q-7 -35 -19.5 -58.5t-28 -39t-34.5 -24t-40 -13.5v-2q30 -8 50 -28t20 -64q0 -19 -6 -46l-11 -54q-2 -8 -3 -15.5t-1 -13.5q0 -23 15 -32.5t54 -9.5h17l-22 -102h-30z" />
    <glyph glyph-name="braceright.aalt" horiz-adv-x="303" 
d="M-38 102h15q50 0 68.5 16.5t26.5 54.5l11 54q7 35 19.5 58.5t28 39t34.5 24.5t40 14v2q-15 4 -28 10.5t-22 16.5t-14.5 25t-5.5 37q0 10 1 21t4 25l11 50q2 9 4 17.5t2 15.5q0 21 -16 30.5t-54 9.5h-17l22 102h29q79 0 123 -27t45 -82q0 -14 -2 -30t-6 -35l-8 -36
q-3 -14 -5 -26.5t-2 -23.5q0 -26 13.5 -39t48.5 -13l-22 -101q-25 0 -41 -7t-26.5 -20.5t-17 -32.5t-11.5 -42l-8 -36q-12 -53 -27.5 -86.5t-39.5 -53t-59.5 -27t-86.5 -7.5h-49z" />
    <glyph glyph-name="bar.aalt" horiz-adv-x="248" 
d="M54 725h140v-725h-140v725z" />
    <glyph glyph-name="brokenbar.aalt" horiz-adv-x="226" 
d="M43 465v260h140v-260h-140zM43 260h140v-260h-140v260z" />
    <glyph glyph-name="periodcentered.aalt" horiz-adv-x="238" 
d="M76 440h162l-33 -155h-162z" />
    <glyph glyph-name="bullet.aalt" horiz-adv-x="455" 
d="M429 367q0 -39 -14 -72t-39 -58t-58.5 -39t-72.5 -14q-36 0 -68.5 14t-56.5 39t-38 58t-14 72q0 37 14 69t38 56t56.5 38t68.5 14q39 0 72.5 -14t58.5 -38t39 -56t14 -69z" />
    <glyph glyph-name="plus.case" 
d="M236 306h-199v116h199v211h120v-211h197v-116h-197v-211h-120v211z" />
    <glyph glyph-name="minus.case" 
d="M32 422h516v-115h-516v115z" />
    <glyph glyph-name="divide.aalt" 
d="M213 258h160v-151h-160v151zM63 422h462v-116h-462v116zM213 620h160v-150h-160v150z" />
    <glyph glyph-name="multiply.aalt" 
d="M61 209l150 150l-152 153l82 83l153 -154l152 152l82 -82l-152 -152l152 -152l-82 -82l-153 152l-152 -152z" />
    <glyph glyph-name="equal.case" 
d="M78 306h430v-116h-430v116zM78 524h430v-117h-430v117z" />
    <glyph glyph-name="plusminus.aalt" 
d="M221 388h-175v116h175v129h119v-129h175v-116h-175v-129h-119v129zM46 211h469v-116h-469v116z" />
    <glyph glyph-name="less.aalt" 
d="M65 298v129l413 211v-132l-281 -144l281 -143v-132z" />
    <glyph glyph-name="greater.aalt" 
d="M109 87v132l281 143l-281 144v132l413 -211v-129z" />
    <glyph glyph-name="lessequal.aalt" 
d="M507 528l-270 -84l270 -84v-123l-452 143v127l452 143v-122zM55 211h452v-116h-452v116z" />
    <glyph glyph-name="greaterequal.aalt" 
d="M70 650l452 -143v-127l-452 -143v123l270 84l-270 84v122zM522 95h-452v116h452v-116z" />
    <glyph glyph-name="notequal.aalt" 
d="M78 524h225l45 109h137l-45 -109h68v-117h-117l-41 -101h158v-116h-206l-39 -95h-137l39 95h-87v116h135l41 101h-176v117z" />
    <glyph glyph-name="acute.aalt" horiz-adv-x="293" 
d="M212 888h188l-134 -113h-133z" />
    <glyph glyph-name="breve.aalt" horiz-adv-x="371" 
d="M478 888q-12 -53 -50.5 -83t-115.5 -30q-69 0 -113.5 24t-44.5 69q0 9 3 20h109q-1 -3 -1 -8q0 -22 19 -30t37 -8q40 0 48 46h109z" />
    <glyph glyph-name="caron.aalt" horiz-adv-x="420" 
d="M249 775l-92 113h145l29 -49l50 49h146l-140 -113h-138z" />
    <glyph glyph-name="cedilla.aalt" horiz-adv-x="276" 
d="M170 -104q0 -23 -12.5 -40t-33 -28.5t-47.5 -17t-55 -5.5q-50 0 -92 15l27 50q10 -6 26.5 -10t33.5 -4q24 0 41.5 9.5t17.5 26.5q0 10 -9.5 15t-25.5 5q-9 0 -20 -2t-21 -7l-26 17l69 82h58l-43 -50q15 3 37 3q14 0 27.5 -5t24 -13.5t17 -19t6.5 -21.5z" />
    <glyph glyph-name="circumflex.aalt" horiz-adv-x="420" 
d="M270 888h138l95 -113h-145l-30 50l-49 -50h-146z" />
    <glyph glyph-name="dieresis.aalt" horiz-adv-x="381" 
d="M157 888h134l-24 -113h-134zM355 888h133l-24 -113h-133z" />
    <glyph glyph-name="dotaccent.aalt" horiz-adv-x="209" 
d="M157 888h159l-24 -113h-159z" />
    <glyph glyph-name="grave.aalt" horiz-adv-x="340" 
d="M157 888h189l77 -113h-133z" />
    <glyph glyph-name="hungarumlaut.aalt" horiz-adv-x="482" 
d="M413 888h176l-122 -113h-133zM212 888h176l-122 -113h-133z" />
    <glyph glyph-name="macron.aalt" horiz-adv-x="303" 
d="M156 883h253l-22 -103h-253z" />
    <glyph glyph-name="ogonek.aalt" horiz-adv-x="284" 
d="M154 -180q-20 -4 -44 -6t-41 -2q-25 0 -47 5t-38.5 15t-26.5 24t-10 32q0 40 23 66t63 46h159q-50 -22 -78.5 -40.5t-28.5 -41.5q0 -14 11.5 -19t27.5 -5q12 0 24 2t23 4z" />
    <glyph glyph-name="ring.aalt" horiz-adv-x="234" 
d="M331 851q0 -37 -26 -61t-64 -24t-64 24t-26 61t26.5 61t63.5 24t63.5 -24t26.5 -61zM198 851q0 -19 13 -30.5t30 -11.5t30 11.5t13 30.5t-13 31t-30 12t-30 -12t-13 -31z" />
    <glyph glyph-name="tilde.aalt" horiz-adv-x="424" 
d="M133 775q15 39 35 61.5t41.5 34t42 14.5t36.5 3q20 0 33.5 -5.5t24 -12.5t20 -12.5t22.5 -5.5q14 0 26.5 8.5t19.5 27.5h97q-15 -38 -35 -60.5t-41 -34t-42 -15t-37 -3.5q-20 0 -34 5.5t-24.5 11.5t-20 11.5t-20.5 5.5q-15 0 -27.5 -7.5t-19.5 -26.5h-97z" />
    <glyph glyph-name="a.salt" horiz-adv-x="522" 
d="M281 66q-22 -33 -61 -56t-84 -23q-66 0 -97 34t-31 103q0 48 13 106l15 70q26 123 78 183.5t140 60.5q46 0 75 -22.5t37 -55.5l15 72h154l-114 -538h-154zM167 143q0 -26 9.5 -39.5t33.5 -13.5q25 0 44 12t32.5 35t23.5 55.5t19 73.5q14 64 14 103q0 35 -13 53.5
t-45 18.5q-21 0 -36 -10.5t-25.5 -31t-18.5 -51t-16 -70.5l-6 -25q-7 -35 -11.5 -62.5t-4.5 -47.5z" />
    <glyph glyph-name="aacute.aalt" horiz-adv-x="522" 
d="M281 66q-22 -33 -61 -56t-84 -23q-66 0 -97 34t-31 103q0 48 13 106l15 70q26 123 78 183.5t140 60.5q46 0 75 -22.5t37 -55.5l15 72h154l-114 -538h-154zM167 143q0 -26 9.5 -39.5t33.5 -13.5q25 0 44 12t32.5 35t23.5 55.5t19 73.5q14 64 14 103q0 35 -13 53.5
t-45 18.5q-21 0 -36 -10.5t-25.5 -31t-18.5 -51t-16 -70.5l-6 -25q-7 -35 -11.5 -62.5t-4.5 -47.5zM339 725h175l-148 -123h-116z" />
    <glyph glyph-name="abreve.aalt" horiz-adv-x="522" 
d="M281 66q-22 -33 -61 -56t-84 -23q-66 0 -97 34t-31 103q0 48 13 106l15 70q26 123 78 183.5t140 60.5q46 0 75 -22.5t37 -55.5l15 72h154l-114 -538h-154zM167 143q0 -26 9.5 -39.5t33.5 -13.5q25 0 44 12t32.5 35t23.5 55.5t19 73.5q14 64 14 103q0 35 -13 53.5
t-45 18.5q-21 0 -36 -10.5t-25.5 -31t-18.5 -51t-16 -70.5l-6 -25q-7 -35 -11.5 -62.5t-4.5 -47.5zM505 725q-8 -28 -20 -50.5t-30.5 -38.5t-46.5 -25t-69 -9q-71 0 -100 26.5t-29 70.5q0 6 0.5 12.5t1.5 13.5h103q-1 -5 -1.5 -9t-0.5 -8q0 -17 9 -23.5t25 -6.5
q20 0 34 10.5t21 36.5h103z" />
    <glyph glyph-name="acircumflex.aalt" horiz-adv-x="522" 
d="M281 66q-22 -33 -61 -56t-84 -23q-66 0 -97 34t-31 103q0 48 13 106l15 70q26 123 78 183.5t140 60.5q46 0 75 -22.5t37 -55.5l15 72h154l-114 -538h-154zM167 143q0 -26 9.5 -39.5t33.5 -13.5q25 0 44 12t32.5 35t23.5 55.5t19 73.5q14 64 14 103q0 35 -13 53.5
t-45 18.5q-21 0 -36 -10.5t-25.5 -31t-18.5 -51t-16 -70.5l-6 -25q-7 -35 -11.5 -62.5t-4.5 -47.5zM289 725h128l92 -123h-136l-35 52l-57 -52h-136z" />
    <glyph glyph-name="adieresis.aalt" horiz-adv-x="522" 
d="M281 66q-22 -33 -61 -56t-84 -23q-66 0 -97 34t-31 103q0 48 13 106l15 70q26 123 78 183.5t140 60.5q46 0 75 -22.5t37 -55.5l15 72h154l-114 -538h-154zM167 143q0 -26 9.5 -39.5t33.5 -13.5q25 0 44 12t32.5 35t23.5 55.5t19 73.5q14 64 14 103q0 35 -13 53.5
t-45 18.5q-21 0 -36 -10.5t-25.5 -31t-18.5 -51t-16 -70.5l-6 -25q-7 -35 -11.5 -62.5t-4.5 -47.5zM191 725h133l-26 -123h-133zM391 725h134l-26 -123h-134z" />
    <glyph glyph-name="agrave.aalt" horiz-adv-x="522" 
d="M281 66q-22 -33 -61 -56t-84 -23q-66 0 -97 34t-31 103q0 48 13 106l15 70q26 123 78 183.5t140 60.5q46 0 75 -22.5t37 -55.5l15 72h154l-114 -538h-154zM167 143q0 -26 9.5 -39.5t33.5 -13.5q25 0 44 12t32.5 35t23.5 55.5t19 73.5q14 64 14 103q0 35 -13 53.5
t-45 18.5q-21 0 -36 -10.5t-25.5 -31t-18.5 -51t-16 -70.5l-6 -25q-7 -35 -11.5 -62.5t-4.5 -47.5zM176 725h175l37 -123h-115z" />
    </font>
</defs>
</svg>
