<?xml version="1.0" standalone="no"?>
<!DOCTYPE svg PUBLIC "-//W3C//DTD SVG 1.1//EN" "http://www.w3.org/Graphics/SVG/1.1/DTD/svg11.dtd" >
<svg xmlns="http://www.w3.org/2000/svg" xmlns:xlink="http://www.w3.org/1999/xlink" version="1.1">
<metadata>
Created by Christoph Koeberlin (http://christoph.koe.berlin)
Copyright (c) 2015 Swiss Typefaces Sa`rl. All rights reserved.
</metadata>
<defs>
<font id="Font" horiz-adv-x="181" >
  <font-face 
    font-family="Font"
    font-weight="275"
    font-stretch="condensed"
    units-per-em="1000"
    panose-1="2 11 4 6 0 0 0 0 0 0"
    ascent="800"
    descent="-200"
    x-height="538"
    cap-height="725"
    bbox="-39 -192 800 932"
    underline-thickness="30"
    underline-position="-110"
    unicode-range="U+0020-FB02"
  />
<missing-glyph horiz-adv-x="500" 
 />
    <glyph glyph-name=".notdef" horiz-adv-x="500" 
 />
    <glyph glyph-name="glyph1" horiz-adv-x="0" 
 />
    <glyph glyph-name="glyph2" horiz-adv-x="185" 
 />
    <glyph glyph-name="space" unicode=" " horiz-adv-x="185" 
 />
    <glyph glyph-name="exclam" unicode="!" horiz-adv-x="267" 
d="M112 512v213h43v-213l-10 -338h-24zM114 104h39v-104h-39v104z" />
    <glyph glyph-name="quotedbl" unicode="&#x22;" horiz-adv-x="266" 
d="M48 725h45l-8 -240h-28zM173 725h45l-8 -240h-28z" />
    <glyph glyph-name="numbersign" unicode="#" horiz-adv-x="585" 
d="M345 229h-144l-31 -229h-39l31 229h-132l6 38h131l30 212h-131l6 37h130l29 209h39l-29 -209h144l29 209h39l-29 -209h131l-6 -37h-130l-30 -212h130l-6 -38h-129l-31 -229h-39zM206 267h144l30 212h-144z" />
    <glyph glyph-name="dollar" unicode="$" horiz-adv-x="497" 
d="M231 -12q-85 8 -137 63.5t-52 164.5v4h39v-4q0 -96 48.5 -144t125.5 -48q81 0 120 41t39 105q0 34 -8 59t-23.5 44.5t-39 34.5t-54.5 30l-109 50q-22 10 -44 23t-40 33t-29 49.5t-11 72.5q0 76 48.5 121.5t126.5 49.5v89h35v-89q73 -7 119.5 -57.5t46.5 -136.5v-3h-39v3
q0 34 -10.5 62.5t-29.5 49.5t-47 32.5t-62 11.5q-70 0 -109.5 -35t-39.5 -95q0 -33 6.5 -56t19 -39t30 -27.5t38.5 -21.5l112 -52q31 -14 58.5 -29t48.5 -37t33.5 -53.5t12.5 -77.5q0 -85 -47 -135.5t-141 -53.5v-89h-35v90z" />
    <glyph glyph-name="percent" unicode="%" horiz-adv-x="795" 
d="M513 725h34l-265 -725h-34zM156 337q26 0 42 11.5t24.5 33.5t11.5 54.5t3 73.5v21q0 41 -3 73t-11.5 54t-24.5 33.5t-42 11.5t-41.5 -11.5t-24 -33.5t-11 -54t-2.5 -73v-21q0 -41 2.5 -73.5t11 -54.5t24 -33.5t41.5 -11.5zM156 310q-66 0 -92 45t-26 142v47
q0 98 26 142.5t92 44.5q67 0 93.5 -44.5t26.5 -142.5v-47q0 -97 -26.5 -142t-93.5 -45zM636 21q26 0 42 11.5t24.5 33.5t11.5 54t3 73v22q0 41 -3 73t-11.5 54t-24.5 33.5t-42 11.5t-41.5 -11.5t-24 -33.5t-11 -54t-2.5 -73v-22q0 -41 2.5 -73t11 -54t24 -33.5t41.5 -11.5z
M636 -7q-66 0 -92 45t-26 142v48q0 98 26 142.5t92 44.5q67 0 93.5 -44.5t26.5 -142.5v-48q0 -97 -26.5 -142t-93.5 -45z" />
    <glyph glyph-name="ampersand" unicode="&#x26;" horiz-adv-x="566" 
d="M231 -13q-50 0 -88 16.5t-63.5 44t-38.5 62.5t-13 72q0 34 7.5 62.5t24 53.5t41 49t59.5 50l32 24q-19 26 -34 48.5t-25 44.5t-15 44.5t-5 48.5q0 61 37.5 96t100.5 35t98 -33.5t35 -92.5q0 -31 -12 -57.5t-31.5 -50.5t-45 -45.5t-53.5 -42.5l184 -246q9 21 14.5 43.5
t8.5 49.5t5 60t3 75h39q-2 -80 -12.5 -147.5t-33.5 -112.5l104 -138h-47l-77 103q-37 -60 -89.5 -88t-109.5 -28zM231 22q54 0 100.5 26.5t75.5 84.5l-194 260l-32 -24q-27 -20 -48 -39t-35.5 -40.5t-22 -46.5t-7.5 -58q0 -37 12 -67t34 -51.5t52 -33t65 -11.5zM153 600
q0 -22 4 -40t12.5 -36t21 -37t30.5 -43q22 16 44 34t39.5 38.5t28.5 44t11 50.5q0 38 -21.5 65t-72.5 27q-44 0 -70.5 -25.5t-26.5 -77.5z" />
    <glyph glyph-name="quotesingle" unicode="'" horiz-adv-x="141" 
d="M48 725h45l-8 -240h-28z" />
    <glyph glyph-name="parenleft" unicode="(" horiz-adv-x="212" 
d="M175 -175q-23 36 -45 84.5t-39.5 106.5t-28 123.5t-10.5 135.5t10.5 135.5t28 123t39.5 106.5t45 85h34q-24 -43 -45.5 -92t-37.5 -105t-25.5 -119.5t-9.5 -133.5q0 -141 35 -253t83 -197h-34z" />
    <glyph glyph-name="parenright" unicode=")" horiz-adv-x="212" 
d="M2 -175q49 85 83 197t34 253t-34 252.5t-83 197.5h33q23 -36 45 -85t39.5 -106.5t28.5 -123t11 -135.5t-11 -135.5t-28.5 -123.5t-39.5 -106.5t-45 -84.5h-33z" />
    <glyph glyph-name="asterisk" unicode="*" horiz-adv-x="374" 
d="M80 457l78 108l-127 44l10 33l128 -44v127h34v-127l129 42l10 -32l-128 -42l78 -108l-26 -20l-80 108l-78 -108z" />
    <glyph glyph-name="plus" unicode="+" horiz-adv-x="548" 
d="M255 251h-217v37h217v250h39v-250h217v-37h-217v-251h-39v251z" />
    <glyph glyph-name="comma" unicode="," horiz-adv-x="231" 
d="M135 104v-104q0 -33 -1.5 -59.5t-9 -46.5t-22 -32t-40.5 -15v39q11 3 18 9.5t10.5 19t4.5 32.5t1 52v105h39z" />
    <glyph glyph-name="hyphen" unicode="-" horiz-adv-x="323" 
d="M52 293h218v-42h-218v42z" />
    <glyph glyph-name="period" unicode="." horiz-adv-x="231" 
d="M96 104h39v-104h-39v104z" />
    <glyph glyph-name="slash" unicode="/" horiz-adv-x="291" 
d="M249 725h40l-247 -725h-40z" />
    <glyph glyph-name="zero" unicode="0" horiz-adv-x="521" 
d="M260 24q52 0 84 21t49.5 62.5t23.5 102t6 138.5v30q0 78 -6 138.5t-23.5 101.5t-49.5 62.5t-84 21.5q-51 0 -83 -21.5t-49.5 -62.5t-23.5 -101.5t-6 -138.5v-30q0 -78 6 -138.5t23.5 -102t49.5 -62.5t83 -21zM260 -13q-55 0 -93.5 19.5t-63 61t-35.5 105t-11 151.5v77
q0 88 11 151.5t35.5 104.5t63 61t93.5 20q110 0 157 -81t47 -256v-77q0 -88 -11 -151.5t-35.5 -105t-63.5 -61t-94 -19.5z" />
    <glyph glyph-name="one" unicode="1" horiz-adv-x="294" 
d="M167 593h-155v29q58 0 89.5 2t46.5 12t19.5 31t9.5 58h29v-725h-39v593z" />
    <glyph glyph-name="two" unicode="2" horiz-adv-x="439" 
d="M32 38l81 103q40 52 83.5 105.5t79.5 107t59 106t23 102.5q0 76 -39 109t-100 33q-73 0 -109 -47.5t-36 -126.5v-4h-39v4q0 96 48 152t136 56q36 0 68.5 -9t57 -30t39 -54.5t14.5 -82.5q0 -50 -21 -101t-57 -106t-83 -114.5t-98 -126.5l-61 -77h323v-37h-369v38z" />
    <glyph glyph-name="three" unicode="3" horiz-adv-x="475" 
d="M219 -13q-48 0 -83 14.5t-58 39.5t-34.5 59t-11.5 73v5h39v-5q0 -31 9 -58t27 -47.5t46 -32t66 -11.5q46 0 77.5 13t50 35.5t26.5 52.5t8 65q0 84 -46 126.5t-150 42.5h-35v37h35q80 0 126.5 36t46.5 124q0 75 -37 111.5t-103 36.5q-38 0 -64 -12t-41.5 -33t-22.5 -48.5
t-7 -58.5v-4h-39v4q0 39 10.5 73t32 59t54.5 39.5t77 14.5q38 0 71 -10t57.5 -31.5t38.5 -56.5t14 -85q0 -64 -29 -110.5t-92 -64.5q63 -11 103.5 -59t40.5 -129q0 -101 -52.5 -153t-150.5 -52z" />
    <glyph glyph-name="four" unicode="4" horiz-adv-x="485" 
d="M329 200h-317v35l318 490h38v-488h83v-37h-83v-200h-39v200zM329 237v425l-275 -425h275z" />
    <glyph glyph-name="five" unicode="5" horiz-adv-x="481" 
d="M226 -13q-47 0 -82 14.5t-58.5 39.5t-35 59t-11.5 73v5h39v-5q0 -69 37.5 -109.5t110.5 -40.5q81 0 122 51.5t41 146.5v24q0 94 -39 145t-114 51q-59 0 -95.5 -31t-55.5 -81l-34 1l42 395h319v-35h-289l-30 -290q17 29 55 53t95 24q40 0 74 -15t59 -43.5t39 -70t14 -94.5
v-44q0 -53 -14.5 -94.5t-41.5 -70t-64.5 -43.5t-82.5 -15z" />
    <glyph glyph-name="six" unicode="6" horiz-adv-x="509" 
d="M257 -13q-38 0 -74 11.5t-64 40.5t-45 78.5t-17 124.5v98q0 97 10 171t34.5 124.5t65.5 76.5t104 26q42 0 75.5 -14.5t56 -39.5t34.5 -59t12 -73v-4h-39v4q0 31 -8.5 58.5t-25.5 48.5t-43.5 33t-63.5 12q-93 0 -133 -82.5t-40 -237.5v-16q5 17 17.5 36t33 35.5t48 27
t62.5 10.5q41 0 77.5 -14t63.5 -42t43 -70.5t16 -98.5v-40q0 -57 -16 -99.5t-43 -70.5t-63.5 -41.5t-77.5 -13.5zM257 22q72 0 116 48.5t44 147.5v24q0 99 -44 149.5t-116 50.5t-116.5 -52.5t-44.5 -151.5v-15q0 -100 44.5 -150.5t116.5 -50.5z" />
    <glyph glyph-name="seven" unicode="7" horiz-adv-x="424" 
d="M87 0q10 117 31.5 215.5t56 182.5t84 156t116.5 136h-363v35h408v-35q-71 -65 -122 -137t-86 -156t-55.5 -182t-29.5 -215h-40z" />
    <glyph glyph-name="eight" unicode="8" horiz-adv-x="519" 
d="M259 -13q-47 0 -87 12.5t-69 38.5t-45 66t-16 94q0 49 14 82.5t35 56t45 35t45 18.5q-20 6 -41 18.5t-38 33t-27.5 49.5t-10.5 67q0 88 53 134t142 46q90 0 143 -46t53 -134q0 -38 -10.5 -67t-27.5 -49.5t-38 -33t-41 -18.5q21 -6 45 -18.5t45 -35t35 -56t14 -82.5
q0 -54 -16.5 -94t-45.5 -66t-69 -38.5t-87 -12.5zM259 22q34 0 66 9.5t56.5 30t39.5 51t15 72.5v22q0 43 -14.5 74t-39.5 51t-57 30t-66 10t-65.5 -9.5t-56 -30t-39.5 -51.5t-15 -73v-23q0 -42 15 -72.5t39.5 -51t56 -30t65.5 -9.5zM259 405q34 0 62.5 8.5t49 25.5t32 44
t11.5 63v16q0 37 -11.5 63.5t-32 44t-49 26t-62.5 8.5q-67 0 -111 -34.5t-44 -107.5v-18q0 -36 12 -62t32.5 -43.5t49 -25.5t61.5 -8z" />
    <glyph glyph-name="nine" unicode="9" horiz-adv-x="509" 
d="M239 -13q-42 0 -74.5 14.5t-54.5 39.5t-33.5 59t-11.5 73v5h39v-5q0 -31 7.5 -58.5t24 -48t42.5 -32.5t63 -12q93 0 133 82t40 237v16q-5 -17 -17.5 -36t-33 -35t-48.5 -26.5t-63 -10.5q-41 0 -77.5 14t-63.5 42t-43 70t-16 98v40q0 57 16 99.5t43 70.5t63.5 41.5
t77.5 13.5q38 0 74 -11.5t64 -40.5t45 -78.5t17 -124.5v-98q0 -97 -10 -171t-34 -124.5t-65 -76.5t-104 -26zM252 283q72 0 117 52.5t45 151.5v15q0 100 -45 151t-117 51t-116 -49t-44 -148v-24q0 -99 44 -149.5t116 -50.5z" />
    <glyph glyph-name="colon" unicode=":" horiz-adv-x="231" 
d="M96 104h39v-104h-39v104zM96 538h39v-104h-39v104z" />
    <glyph glyph-name="semicolon" unicode=";" horiz-adv-x="231" 
d="M135 104v-104q0 -33 -1.5 -59.5t-9 -46.5t-22 -32t-40.5 -15v39q11 3 18 9.5t10.5 19t4.5 32.5t1 52v105h39zM96 538h39v-104h-39v104z" />
    <glyph glyph-name="equal" unicode="=" horiz-adv-x="548" 
d="M67 175h414v-36h-414v36zM67 399h414v-36h-414v36z" />
    <glyph glyph-name="question" unicode="?" horiz-adv-x="454" 
d="M183 220q0 36 4.5 60.5t15 43.5t27 36t41.5 37q18 15 34.5 32t29 36.5t19.5 43t7 53.5q0 38 -10.5 65t-28.5 44t-43 25t-54 8q-73 0 -107 -47.5t-34 -126.5v-4h-39v4q0 96 45.5 152t134.5 56q36 0 68 -9t56 -29.5t38 -54t14 -83.5q0 -34 -9.5 -62t-24.5 -52t-34 -43.5
t-39 -36.5q-21 -17 -34.5 -30.5t-21.5 -29.5t-11.5 -36.5t-3.5 -51.5v-46h-40v46zM184 104h39v-104h-39v104z" />
    <glyph glyph-name="at" unicode="@" horiz-adv-x="748" 
d="M376 -13q-77 0 -137 28t-101.5 77t-63.5 116t-22 145q0 81 25.5 151t70.5 122t107.5 82t137.5 30q67 0 122.5 -22t95.5 -63.5t62 -101.5t22 -137q0 -59 -13.5 -105t-36 -77.5t-52 -47.5t-60.5 -16q-27 0 -45 9.5t-28.5 26t-12.5 38.5t4 47q-21 -54 -53.5 -83.5
t-78.5 -30.5q-21 0 -41 9.5t-35.5 30t-25.5 51.5t-10 73q0 48 13 91t36.5 75.5t55 52t68.5 19.5q23 0 39.5 -9.5t27.5 -24.5t17 -32.5t9 -33.5l12 80h34l-38 -234q-11 -68 3.5 -95t49.5 -27q25 0 48 14.5t39.5 41.5t26.5 66t10 89q0 72 -22 127t-58.5 92t-85 55.5
t-100.5 18.5q-64 0 -119 -28t-95.5 -76.5t-64 -112.5t-23.5 -136q0 -71 20.5 -131.5t58 -105t91 -70t118.5 -25.5q18 0 38.5 2.5t41.5 7t40.5 10.5t35.5 12l12 -31q-40 -17 -86.5 -25.5t-83.5 -8.5zM321 209q28 0 52.5 17.5t42.5 46t28 65.5t10 77q0 63 -23 95t-53 32
q-27 0 -51 -16t-42 -43.5t-28.5 -64.5t-10.5 -78q0 -68 23 -99.5t52 -31.5z" />
    <glyph glyph-name="A" unicode="A" horiz-adv-x="512" 
d="M231 725h48l219 -725h-41l-65 220h-273l-64 -220h-41zM131 259h249l-125 424z" />
    <glyph glyph-name="B" unicode="B" horiz-adv-x="506" 
d="M83 725h132q50 0 92 -8.5t72 -28.5t46.5 -55t16.5 -87q0 -60 -30.5 -104t-93.5 -62q31 -6 58 -19t46.5 -35t31 -52.5t11.5 -70.5q0 -54 -16.5 -92.5t-46.5 -63t-73 -36t-96 -11.5h-150v725zM231 36q102 0 147.5 43.5t45.5 122.5q0 83 -47 120t-152 37h-101v-323h107z
M222 396q40 0 73.5 7.5t56.5 25t36 45.5t13 69q0 81 -47.5 114t-132.5 33h-97v-294h98z" />
    <glyph glyph-name="C" unicode="C" horiz-adv-x="514" 
d="M474 220q0 -53 -13.5 -96t-40 -73.5t-65 -47t-88.5 -16.5q-110 0 -166 80.5t-56 256.5v77q0 175 56 256t166 81q50 0 88.5 -16.5t65 -47t40 -73.5t13.5 -96v-2h-41v2q0 93 -42 144.5t-124 51.5q-52 0 -86.5 -21t-55.5 -62.5t-30 -102t-9 -138.5v-29q0 -78 9 -138.5
t30 -102t55.5 -62.5t86.5 -21q82 0 124 51.5t42 144.5v2h41v-2z" />
    <glyph glyph-name="D" unicode="D" horiz-adv-x="536" 
d="M237 36q103 0 158 73.5t55 238.5v30q0 164 -55 238t-158 74h-113v-654h113zM83 725h154q55 0 101.5 -17.5t80.5 -56.5t53 -100.5t19 -149.5v-77q0 -88 -19 -149.5t-53 -100.5t-80.5 -56.5t-101.5 -17.5h-154v725z" />
    <glyph glyph-name="E" unicode="E" horiz-adv-x="461" 
d="M83 725h342v-39h-301v-290h276v-38h-276v-319h301v-39h-342v725z" />
    <glyph glyph-name="F" unicode="F" horiz-adv-x="418" 
d="M83 725h322v-39h-281v-290h256v-38h-256v-358h-41v725z" />
    <glyph glyph-name="G" unicode="G" horiz-adv-x="536" 
d="M438 108q-25 -58 -65.5 -89.5t-105.5 -31.5q-110 0 -166 80.5t-56 256.5v77q0 175 56 256t166 81q50 0 88.5 -16.5t65 -47t40 -73.5t13.5 -96v-2h-41v2q0 93 -42 144.5t-124 51.5q-52 0 -86.5 -21t-55.5 -62t-30 -101.5t-9 -138.5v-30q0 -78 9 -138.5t30 -102t55.5 -62.5
t86.5 -21q46 0 78.5 17t52 49.5t28.5 78.5t9 105v37h-206v39h246v-350h-37v108z" />
    <glyph glyph-name="H" unicode="H" horiz-adv-x="564" 
d="M83 725h41v-329h316v329h41v-725h-41v358h-316v-358h-41v725z" />
    <glyph glyph-name="I" unicode="I" horiz-adv-x="207" 
d="M83 725h41v-725h-41v725z" />
    <glyph glyph-name="J" unicode="J" horiz-adv-x="417" 
d="M177 -13q-47 0 -78 15.5t-49.5 43.5t-26.5 66.5t-8 83.5v3h41v-3q0 -81 26 -126.5t95 -45.5q35 0 58 12.5t37 35t20 54.5t6 70v529h41v-529q0 -45 -7.5 -83.5t-26.5 -66.5t-50 -43.5t-78 -15.5z" />
    <glyph glyph-name="K" unicode="K" horiz-adv-x="494" 
d="M220 387l-96 -135v-252h-41v725h41v-411l293 411h45l-216 -301l245 -424h-46z" />
    <glyph glyph-name="L" unicode="L" horiz-adv-x="431" 
d="M83 725h41v-686h304v-39h-345v725z" />
    <glyph glyph-name="M" unicode="M" horiz-adv-x="706" 
d="M83 725h66l204 -677l205 677h65v-725h-41v675h-2l-6 -27l-198 -648h-46l-198 648l-6 27h-2v-675h-41v725z" />
    <glyph glyph-name="N" unicode="N" horiz-adv-x="565" 
d="M83 725h55l303 -668v668h41v-725h-55l-303 667v-667h-41v725z" />
    <glyph glyph-name="O" unicode="O" horiz-adv-x="542" 
d="M271 24q52 0 87 21t57 62.5t31.5 102t9.5 138.5v30q0 78 -9.5 138.5t-31.5 101.5t-57 62.5t-87 21.5t-87.5 -21.5t-57 -62.5t-31 -101.5t-9.5 -138.5v-30q0 -78 9.5 -138.5t31 -102t57 -62.5t87.5 -21zM271 -13q-110 0 -168 80.5t-58 256.5v77q0 175 58 256t168 81
q109 0 167.5 -81t58.5 -256v-77q0 -176 -58.5 -256.5t-167.5 -80.5z" />
    <glyph glyph-name="P" unicode="P" horiz-adv-x="482" 
d="M83 725h126q64 0 112 -8.5t80 -31t47.5 -62t15.5 -102.5t-15.5 -103t-47.5 -63t-80 -31.5t-112 -8.5h-85v-315h-41v725zM213 351q51 0 90 6.5t65 24.5t39.5 51.5t13.5 87.5t-13.5 87t-39.5 51.5t-65 24.5t-90 6h-89v-339h89z" />
    <glyph glyph-name="Q" unicode="Q" horiz-adv-x="542" 
d="M273 -13q-110 0 -168 80.5t-58 256.5v77q0 175 58 256t168 81q109 0 167.5 -81t58.5 -256v-77q0 -112 -23.5 -184.5t-69.5 -110.5l71 -91l-28 -22l-73 94q-46 -23 -103 -23zM273 24q47 0 79 16l-57 74l28 22l58 -75q42 37 59.5 109t17.5 178v30q0 78 -9.5 138.5
t-31.5 101.5t-57 62.5t-87 21.5t-87.5 -21.5t-57 -62.5t-31 -101.5t-9.5 -138.5v-30q0 -78 9.5 -138.5t31 -102t57 -62.5t87.5 -21z" />
    <glyph glyph-name="R" unicode="R" horiz-adv-x="518" 
d="M301 341q-21 -2 -43 -3t-47 -1h-87v-337h-41v725h128q64 0 112 -8.5t80 -30.5t47.5 -60t15.5 -96q0 -83 -31 -125t-94 -57l144 -348h-44zM215 372q51 0 90 6t65 23t39.5 48t13.5 81t-13.5 81.5t-39.5 49t-65 23.5t-90 6h-91v-318h91z" />
    <glyph glyph-name="S" unicode="S" horiz-adv-x="496" 
d="M257 -13q-48 0 -87.5 13.5t-68.5 41.5t-45 70.5t-16 101.5v8h41v-8q0 -96 48.5 -143t125.5 -47q81 0 120 41t39 105q0 32 -8 55.5t-23.5 42.5t-38.5 34t-54 30l-110 50q-22 10 -44.5 23.5t-40.5 34.5t-29.5 51t-11.5 72q0 43 14 76t39.5 55t60.5 33t76 11t75.5 -12.5
t60 -37t40 -60t14.5 -81.5v-7h-41v7q0 69 -40 110.5t-109 41.5q-70 0 -109.5 -35.5t-39.5 -98.5q0 -33 7 -55.5t19.5 -39t30 -28t38.5 -21.5l111 -52q31 -14 59 -30.5t49.5 -39t34 -52.5t12.5 -71t-12.5 -76t-37.5 -60t-62.5 -39t-86.5 -14z" />
    <glyph glyph-name="T" unicode="T" horiz-adv-x="443" 
d="M201 686h-199v39h439v-39h-199v-686h-41v686z" />
    <glyph glyph-name="U" unicode="U" horiz-adv-x="552" 
d="M276 -13q-57 0 -95 14t-61 45t-32.5 79.5t-9.5 117.5v482h41v-499q0 -54 8 -92.5t26.5 -63t48.5 -35.5t74 -11t74 11t48.5 35.5t26.5 63t8 92.5v499h41v-482q0 -69 -9.5 -117.5t-32.5 -79.5t-61 -45t-95 -14z" />
    <glyph glyph-name="V" unicode="V" horiz-adv-x="474" 
d="M12 725h41l184 -673l184 673h41l-201 -725h-48z" />
    <glyph glyph-name="W" unicode="W" horiz-adv-x="723" 
d="M17 725h41l141 -673l138 673h49l138 -673l141 673h41l-154 -725h-55l-136 665l-135 -665h-55z" />
    <glyph glyph-name="X" unicode="X" horiz-adv-x="477" 
d="M218 376l-193 349h42l172 -312l172 312h42l-193 -349l207 -376h-43l-186 337l-186 -337h-42z" />
    <glyph glyph-name="Y" unicode="Y" horiz-adv-x="473" 
d="M216 275l-202 450h41l182 -407l182 407h40l-202 -450v-275h-41v275z" />
    <glyph glyph-name="Z" unicode="Z" horiz-adv-x="452" 
d="M27 38l357 648h-339v39h384v-37l-357 -649h364v-39h-409v38z" />
    <glyph glyph-name="bracketleft" unicode="[" horiz-adv-x="236" 
d="M83 725h133v-36h-94v-828h94v-36h-133v900z" />
    <glyph glyph-name="bracketright" unicode="]" horiz-adv-x="236" 
d="M20 -139h94v828h-94v36h133v-900h-133v36z" />
    <glyph glyph-name="underscore" unicode="_" horiz-adv-x="410" 
d="M15 0h380v-39h-380v39z" />
    <glyph glyph-name="grave" unicode="`" horiz-adv-x="176" 
d="M27 725h54l68 -116h-32z" />
    <glyph glyph-name="a" unicode="a" horiz-adv-x="420" 
d="M174 -13q-30 0 -55 10.5t-43 29t-28 44.5t-10 57v9q0 28 9 53t38 49t85 48t149 50v53q0 37 -8.5 61t-23.5 38.5t-36 20t-45 5.5q-25 0 -46.5 -6.5t-38 -21t-26 -37t-9.5 -55.5v-12h-39v12q0 77 44.5 115.5t116.5 38.5q33 0 60.5 -7t47.5 -25t31 -49.5t11 -80.5v-48
q0 -30 -0.5 -62.5t-0.5 -62.5v-47q0 -37 0.5 -62.5t1 -44t1.5 -32.5t1 -28h-38l-1 90q-17 -47 -52.5 -75t-95.5 -28zM180 22q27 0 52 9.5t44.5 31.5t31.5 57.5t12 88.5v94q-76 -21 -123 -39.5t-73.5 -38t-36 -41.5t-9.5 -50v-9q0 -46 28 -74.5t74 -28.5z" />
    <glyph glyph-name="b" unicode="b" horiz-adv-x="453" 
d="M251 -13q-54 0 -91 33t-50 80v-100h-39v725h39v-291q13 47 50 80t91 33q76 0 116 -59.5t40 -178.5v-84q0 -119 -40 -178.5t-116 -59.5zM246 22q67 0 94 57.5t27 171.5v32q0 114 -27 171.5t-94 57.5q-29 0 -54.5 -13.5t-44 -43t-29.5 -76t-11 -112.5t11 -113t29.5 -76
t44 -42.5t54.5 -13.5z" />
    <glyph glyph-name="c" unicode="c" horiz-adv-x="408" 
d="M215 -13q-90 0 -130 60t-40 184v71q0 125 40 185t130 60q73 0 114 -48t41 -128v-4h-39v4q0 63 -28 102t-88 39q-40 0 -65.5 -16t-39.5 -45t-19.5 -70.5t-5.5 -92.5v-43q0 -51 5.5 -92t19.5 -70t39.5 -45t65.5 -16q60 0 88 39t28 101v5h39v-5q0 -79 -41 -127t-114 -48z
" />
    <glyph glyph-name="d" unicode="d" horiz-adv-x="452" 
d="M201 -13q-76 0 -116 59.5t-40 178.5v84q0 119 40 178.5t116 59.5q54 0 91 -33t50 -80v291h39v-725h-39v100q-13 -47 -50 -80t-91 -33zM205 22q29 0 54.5 13.5t44.5 42.5t30 76t11 113t-11 112.5t-30 76t-44.5 43t-54.5 13.5q-66 0 -93 -57.5t-27 -171.5v-32
q0 -114 27 -171.5t93 -57.5z" />
    <glyph glyph-name="e" unicode="e" horiz-adv-x="422" 
d="M219 -13q-90 0 -132 60t-42 184v71q0 125 40 185t130 60q88 0 126 -56.5t38 -174.5v-46h-294v-25q0 -51 6 -92t21 -70t41 -45t66 -16q60 0 89.5 37.5t29.5 100.5v5h39v-5q0 -79 -42.5 -126t-115.5 -47zM85 305h254v4q0 47 -5 84.5t-18.5 64t-37.5 40.5t-63 14
q-40 0 -65.5 -15.5t-39.5 -43t-19.5 -65t-5.5 -81.5v-2z" />
    <glyph glyph-name="f" unicode="f" horiz-adv-x="241" 
d="M86 504h-76v34h76v70q0 33 4 55t15.5 36t32 20t52.5 6h35v-34h-27q-25 0 -39.5 -3.5t-22 -13t-9.5 -27.5t-2 -47v-62h100v-34h-100v-504h-39v504z" />
    <glyph glyph-name="g" unicode="g" horiz-adv-x="452" 
d="M219 -188q-48 0 -77.5 14t-46 35.5t-22 48.5t-5.5 54v6h38v-6q0 -26 5.5 -47t18 -37t34 -24.5t54.5 -8.5q68 0 96 36.5t28 112.5v126q-12 -48 -49.5 -80.5t-91.5 -32.5q-76 0 -116 64.5t-40 183.5v63q0 119 40 173t116 54q27 0 50 -9t41.5 -24t31 -35.5t18.5 -44.5v104
h39v-530q0 -44 -7.5 -80t-26 -61.5t-50 -40t-78.5 -14.5zM205 43q29 0 54.5 13t44.5 41.5t30 73t11 107.5q0 62 -11 106.5t-30 73t-44.5 41.5t-54.5 13q-66 0 -93 -52.5t-27 -165.5v-11q0 -114 27 -177t93 -63z" />
    <glyph glyph-name="h" unicode="h" horiz-adv-x="438" 
d="M71 725h39v-291q6 21 18 41.5t30 36.5t41 25.5t51 9.5q75 0 102 -48.5t27 -146.5v-352h-39v341q0 42 -4 74t-14.5 53.5t-29 32.5t-47.5 11q-28 0 -52.5 -13.5t-43 -40.5t-29 -67.5t-10.5 -94.5v-296h-39v725z" />
    <glyph glyph-name="i" unicode="i" 
d="M71 538h39v-538h-39v538zM71 725h39v-96h-39v96z" />
    <glyph glyph-name="j" unicode="j" 
d="M-19 -141h16q25 0 40 3.5t22.5 13t9.5 27t2 46.5v589h39v-596q0 -33 -4 -55t-15.5 -36t-31.5 -20t-53 -6h-25v34zM71 725h39v-96h-39v96z" />
    <glyph glyph-name="k" unicode="k" horiz-adv-x="404" 
d="M188 284l-78 -106v-178h-39v725h39v-487l222 300h44l-163 -221l188 -317h-44z" />
    <glyph glyph-name="l" unicode="l" 
d="M71 725h39v-725h-39v725z" />
    <glyph glyph-name="m" unicode="m" horiz-adv-x="681" 
d="M71 538h39v-104q6 21 17.5 41.5t29 36.5t39 25.5t47.5 9.5q54 0 81.5 -29t35.5 -87q6 23 19 44t31 37t40.5 25.5t48.5 9.5q71 0 97 -49t26 -146v-352h-39v341q0 84 -17.5 127.5t-70.5 43.5q-26 0 -49.5 -13.5t-41 -40.5t-28 -67.5t-10.5 -94.5v-296h-39v341
q0 84 -17.5 127.5t-70.5 43.5q-26 0 -49.5 -13.5t-41 -40.5t-28 -67.5t-10.5 -94.5v-296h-39v538z" />
    <glyph glyph-name="n" unicode="n" horiz-adv-x="438" 
d="M71 538h39v-104q6 21 18 41.5t30 36.5t41 25.5t51 9.5q75 0 102 -48.5t27 -146.5v-352h-39v341q0 42 -4 74t-14.5 53.5t-29 32.5t-47.5 11q-28 0 -52.5 -13.5t-43 -40.5t-29 -67.5t-10.5 -94.5v-296h-39v538z" />
    <glyph glyph-name="o" unicode="o" horiz-adv-x="428" 
d="M214 22q39 0 64.5 16.5t39.5 46.5t19.5 72.5t5.5 95.5v28q0 53 -5.5 95.5t-19.5 72.5t-39.5 46.5t-64.5 16.5q-40 0 -65 -16.5t-39.5 -46.5t-19.5 -72.5t-5 -95.5v-28q0 -53 5 -95.5t19.5 -72.5t39.5 -46.5t65 -16.5zM214 -13q-88 0 -128.5 60t-40.5 184v71
q0 125 40.5 185t128.5 60t128.5 -60t40.5 -185v-71q0 -124 -40.5 -184t-128.5 -60z" />
    <glyph glyph-name="p" unicode="p" horiz-adv-x="452" 
d="M71 538h39v-104q13 47 50 80t91 33q76 0 116 -59.5t40 -178.5v-84q0 -119 -40 -178.5t-116 -59.5q-54 0 -91 33t-50 80v-275h-39v713zM246 22q67 0 94 57.5t27 171.5v32q0 114 -27 171.5t-94 57.5q-29 0 -54.5 -13.5t-44 -43t-29.5 -76t-11 -112.5t11 -113t29.5 -76
t44 -42.5t54.5 -13.5z" />
    <glyph glyph-name="q" unicode="q" horiz-adv-x="452" 
d="M342 100q-13 -47 -50 -80t-91 -33q-76 0 -116 59.5t-40 178.5v84q0 119 40 178.5t116 59.5q54 0 91 -33t50 -80v104h39v-713h-39v275zM205 22q29 0 54.5 13.5t44.5 42.5t30 76t11 113t-11 112.5t-30 76t-44.5 43t-54.5 13.5q-66 0 -93 -57.5t-27 -171.5v-32
q0 -114 27 -171.5t93 -57.5z" />
    <glyph glyph-name="r" unicode="r" horiz-adv-x="257" 
d="M71 538h39v-107q11 43 43 75t88 32h20v-37h-25q-57 0 -91.5 -48t-34.5 -157v-296h-39v538z" />
    <glyph glyph-name="s" unicode="s" horiz-adv-x="398" 
d="M204 -13q-72 0 -113.5 45t-41.5 126v6h39v-6q0 -65 28 -100.5t88 -35.5q30 0 52 8.5t36.5 23t21.5 32.5t7 38q0 21 -3 37t-12 30.5t-26 27.5t-46 27l-61 30q-23 11 -42 23t-33 28.5t-22 38.5t-8 53q0 56 38.5 92t103.5 36q32 0 58 -11.5t44.5 -32t28.5 -47.5t10 -58v-4
h-39v4q0 59 -30 86t-72 27t-72.5 -23t-30.5 -68q0 -32 13.5 -57t61.5 -49l72 -35q25 -12 45 -26t33.5 -32t21 -41t7.5 -53q0 -29 -10.5 -54t-30.5 -44.5t-49 -30.5t-67 -11z" />
    <glyph glyph-name="t" unicode="t" horiz-adv-x="245" 
d="M190 0q-32 0 -52.5 6t-32 20t-15.5 36t-4 55v387h-76v34h76v127h39v-127h94v-34h-94v-379q0 -29 2 -47t9.5 -27.5t22 -13t39.5 -3.5h21v-34h-29z" />
    <glyph glyph-name="u" unicode="u" horiz-adv-x="436" 
d="M187 -13q-38 0 -62.5 12t-39 36.5t-20.5 61t-6 85.5v356h39v-345q0 -84 18 -127.5t75 -43.5q28 0 52.5 13.5t43 40.5t29 67.5t10.5 94.5v300h39v-538h-39v100q-6 -21 -18 -41.5t-30 -36.5t-41 -25.5t-50 -9.5z" />
    <glyph glyph-name="v" unicode="v" horiz-adv-x="370" 
d="M15 538h41l131 -486l128 486h40l-150 -538h-38z" />
    <glyph glyph-name="w" unicode="w" horiz-adv-x="552" 
d="M21 538h39l91 -479l105 479h40l105 -479l91 479h39l-110 -538h-42l-103 478l-103 -478h-42z" />
    <glyph glyph-name="x" unicode="x" horiz-adv-x="351" 
d="M155 279l-135 259h41l114 -219l116 219h38l-134 -256l147 -282h-41l-127 242l-127 -242h-39z" />
    <glyph glyph-name="y" unicode="y" horiz-adv-x="368" 
d="M42 -141h20q21 0 34.5 2t23 11.5t17 28.5t16.5 53l13 46l-152 538h41l131 -486l128 486h40l-153 -550q-15 -54 -26.5 -86.5t-25.5 -49.5t-34 -22t-54 -5h-19v34z" />
    <glyph glyph-name="z" unicode="z" horiz-adv-x="347" 
d="M15 33l269 469h-246v36h289v-33l-268 -469h273v-36h-317v33z" />
    <glyph glyph-name="braceleft" unicode="{" horiz-adv-x="248" 
d="M209 -175q-36 0 -59 6t-36 20t-17.5 37t-4.5 57v192q0 23 -2.5 44t-10 37.5t-21.5 26.5t-36 12v37q22 1 36 11.5t21.5 27t10 37.5t2.5 44v191q0 34 4.5 57t17.5 37t36 20t59 6h19v-35h-10q-30 0 -47 -3.5t-26 -13.5t-11.5 -27.5t-2.5 -45.5v-187q0 -69 -17 -98t-51 -38
v-3q17 -5 29.5 -14t21 -24.5t13 -39.5t4.5 -58v-189q0 -27 2.5 -44.5t11.5 -27.5t26 -13.5t47 -3.5h10v-35h-19z" />
    <glyph glyph-name="bar" unicode="|" horiz-adv-x="205" 
d="M83 725h39v-815h-39v815z" />
    <glyph glyph-name="braceright" unicode="}" horiz-adv-x="248" 
d="M20 -175v35h10q29 0 46.5 3.5t26.5 13.5t11.5 27.5t2.5 44.5v189q0 34 4 58t12.5 39.5t21.5 24.5t30 14v3q-35 9 -51.5 38t-16.5 98v187q0 28 -2.5 45.5t-11.5 27.5t-26.5 13.5t-46.5 3.5h-10v35h18q36 0 59 -6t36 -20t18 -37t5 -57v-191q0 -23 2.5 -44t10 -37.5t21 -27
t36.5 -11.5v-37q-23 -2 -36.5 -12t-21 -26.5t-10 -37.5t-2.5 -44v-192q0 -34 -5 -57t-18 -37t-36 -20t-59 -6h-18z" />
    <glyph glyph-name="uni00A0" unicode="&#xa0;" horiz-adv-x="185" 
 />
    <glyph glyph-name="exclamdown" unicode="&#xa1;" horiz-adv-x="267" 
d="M112 -175v202l9 328h24l10 -328v-202h-43zM114 538h39v-104h-39v104z" />
    <glyph glyph-name="sterling" unicode="&#xa3;" horiz-adv-x="512" 
d="M59 373h103q-12 22 -25.5 44.5t-24 46t-17.5 48t-7 50.5q0 49 15.5 82.5t41 54.5t59.5 30t70 9q44 0 79.5 -14.5t60.5 -41.5t38.5 -65.5t13.5 -86.5v-4h-39v4q0 79 -40 126.5t-113 47.5q-30 0 -57 -8t-46.5 -25t-31 -44t-11.5 -65q0 -25 7 -49t18.5 -47t25 -46t26.5 -47
h171v-34h-154q11 -23 17 -46t6 -48q0 -32 -10.5 -63t-27.5 -58.5t-38 -50t-43 -36.5l1 -1q24 11 45 17.5t46 6.5q21 0 39.5 -6t36.5 -12.5t37.5 -12.5t43.5 -6q26 0 44 7t41 21l19 -33q-21 -12 -44.5 -22.5t-58.5 -10.5q-29 0 -50 6t-40.5 12.5t-41 12.5t-51.5 6
q-26 0 -61.5 -8t-71.5 -25l-14 30q22 11 49 30.5t51 47.5t40.5 64.5t16.5 82.5q0 25 -6.5 48.5t-17.5 46.5h-120v34z" />
    <glyph glyph-name="yen" unicode="&#xa5;" horiz-adv-x="473" 
d="M89 255h128v20l-202 450h39l183 -409l183 409h38l-202 -450v-20h128v-35h-128v-83h128v-36h-128v-101h-39v101h-128v36h128v83h-128v35z" />
    <glyph glyph-name="dieresis" unicode="&#xa8;" horiz-adv-x="291" 
d="M27 725h39v-96h-39v96zM225 725h39v-96h-39v96z" />
    <glyph glyph-name="copyright" unicode="&#xa9;" horiz-adv-x="841" 
d="M422 21q70 0 131.5 27t107.5 73.5t72.5 108.5t26.5 132t-26.5 132.5t-72.5 109t-107.5 73.5t-131.5 27t-132 -27t-108 -73.5t-72.5 -109t-26.5 -132.5t26.5 -132t72.5 -108.5t108 -73.5t132 -27zM422 -13q-77 0 -145.5 29.5t-119.5 80.5t-81 119.5t-30 145.5t30 145.5
t81 119.5t119.5 81t145.5 30t145.5 -30t119.5 -81t80.5 -119.5t29.5 -145.5t-29.5 -145.5t-80.5 -119.5t-119.5 -80.5t-145.5 -29.5zM417 158q-65 0 -95 43.5t-30 138.5v44q0 95 30 138.5t95 43.5q56 0 85.5 -33.5t29.5 -94.5v-2h-36v2q0 100 -80 100q-52 0 -69 -43
t-17 -124v-18q0 -81 17 -124t69 -43q80 0 80 100v2h36v-2q0 -61 -29.5 -94.5t-85.5 -33.5z" />
    <glyph glyph-name="guillemotleft" unicode="&#xab;" horiz-adv-x="321" 
d="M146 249v49l116 141v-54l-91 -112l91 -112v-53zM17 249v49l116 141v-54l-91 -112l91 -112v-53z" />
    <glyph glyph-name="uni00AD" unicode="&#xad;" horiz-adv-x="323" 
d="M52 293h218v-42h-218v42z" />
    <glyph glyph-name="macron" unicode="&#xaf;" horiz-adv-x="271" 
d="M27 684h217v-34h-217v34z" />
    <glyph glyph-name="degree" unicode="&#xb0;" horiz-adv-x="336" 
d="M167 490q45 0 72.5 30t27.5 76q0 47 -27.5 77t-72.5 30t-72 -30t-27 -77q0 -46 27 -76t72 -30zM167 454q-30 0 -55.5 11t-44 30.5t-29.5 45t-11 55.5t11 56t29.5 45t44 30t55.5 11t56 -11t45 -30t29.5 -45t10.5 -56t-10.5 -55.5t-29.5 -45t-45 -30.5t-56 -11z" />
    <glyph glyph-name="acute" unicode="&#xb4;" horiz-adv-x="176" 
d="M95 725h54l-90 -116h-32z" />
    <glyph glyph-name="periodcentered" unicode="&#xb7;" horiz-adv-x="232" 
d="M96 324h39v-104h-39v104z" />
    <glyph glyph-name="cedilla" unicode="&#xb8;" horiz-adv-x="219" 
d="M96 -190q-37 0 -69 11l10 29q11 -5 26 -8t29 -3q23 0 43 9t20 33q0 21 -15.5 30t-35.5 9q-25 0 -43 -9l-14 14l48 76h30l-33 -56q13 3 28 3q32 0 52 -16.5t20 -47.5q0 -20 -8.5 -34t-22 -23t-30.5 -13t-35 -4z" />
    <glyph glyph-name="guillemotright" unicode="&#xbb;" horiz-adv-x="321" 
d="M59 161l91 112l-91 112v54l116 -141v-49l-116 -141v53zM188 161l91 112l-91 112v54l116 -141v-49l-116 -141v53z" />
    <glyph glyph-name="questiondown" unicode="&#xbf;" horiz-adv-x="454" 
d="M228 -188q-36 0 -68 8.5t-56 28.5t-38 52.5t-14 80.5q0 33 9.5 60.5t24.5 50t34.5 41.5t39.5 36t33.5 30.5t22 29.5t12 36.5t3.5 52.5v39h39v-39q0 -36 -4.5 -60.5t-15 -44t-27 -36.5t-41.5 -37q-18 -15 -34.5 -30.5t-29 -34.5t-19.5 -41.5t-7 -52.5q0 -71 38.5 -103
t97.5 -32q73 0 107 46t34 120v5h39v-5q0 -45 -11.5 -82t-34 -63.5t-56.5 -41t-78 -14.5zM230 538h39v-104h-39v104z" />
    <glyph glyph-name="Agrave" unicode="&#xc0;" horiz-adv-x="512" 
d="M231 725h48l219 -725h-41l-65 220h-273l-64 -220h-41zM131 259h249l-125 424zM131 886h54l83 -113h-35z" />
    <glyph glyph-name="Aacute" unicode="&#xc1;" horiz-adv-x="512" 
d="M231 725h48l219 -725h-41l-65 220h-273l-64 -220h-41zM131 259h249l-125 424zM325 886h54l-102 -113h-35z" />
    <glyph glyph-name="Acircumflex" unicode="&#xc2;" horiz-adv-x="512" 
d="M231 725h48l219 -725h-41l-65 220h-273l-64 -220h-41zM131 259h249l-125 424zM233 875h45l104 -113h-40l-88 82l-88 -82h-40z" />
    <glyph glyph-name="Atilde" unicode="&#xc3;" horiz-adv-x="512" 
d="M231 725h48l219 -725h-41l-65 220h-273l-64 -220h-41zM131 259h249l-125 424zM131 783q3 50 24.5 72t48.5 22q17 0 31 -9t26.5 -20.5t25 -20.5t26.5 -9t24 11t12 48h34q-3 -50 -24 -72t-49 -22q-18 0 -32.5 9t-27 20.5t-24 20.5t-24.5 9q-14 0 -24.5 -11t-12.5 -48h-34z
" />
    <glyph glyph-name="Adieresis" unicode="&#xc4;" horiz-adv-x="512" 
d="M231 725h48l219 -725h-41l-65 220h-273l-64 -220h-41zM131 259h249l-125 424zM137 878h41v-96h-41v96zM333 878h41v-96h-41v96z" />
    <glyph glyph-name="Aring" unicode="&#xc5;" horiz-adv-x="512" 
d="M231 725h48l219 -725h-41l-65 220h-273l-64 -220h-41zM131 259h249l-125 424zM257 768q-36 0 -61.5 23.5t-25.5 58.5q0 36 25.5 59t61.5 23t61 -23t25 -59q0 -35 -25 -58.5t-61 -23.5zM257 797q21 0 37.5 14t16.5 39t-16.5 39.5t-37.5 14.5q-22 0 -38.5 -14.5
t-16.5 -39.5t16.5 -39t38.5 -14z" />
    <glyph glyph-name="AE" unicode="&#xc6;" horiz-adv-x="708" 
d="M361 725h325v-39h-284v-290h260v-38h-260v-319h284v-39h-325v197h-220l-95 -197h-44zM160 236h201v417z" />
    <glyph glyph-name="Ccedilla" unicode="&#xc7;" horiz-adv-x="514" 
d="M474 220q0 -53 -13.5 -96t-40 -73.5t-65 -47t-88.5 -16.5q-110 0 -166 80.5t-56 256.5v77q0 175 56 256t166 81q50 0 88.5 -16.5t65 -47t40 -73.5t13.5 -96v-2h-41v2q0 93 -42 144.5t-124 51.5q-52 0 -86.5 -21t-55.5 -62.5t-30 -102t-9 -138.5v-29q0 -78 9 -138.5
t30 -102t55.5 -62.5t86.5 -21q82 0 124 51.5t42 144.5v2h41v-2zM266 -190q-37 0 -69 11l10 29q11 -5 26 -8t29 -3q23 0 43 9t20 33q0 21 -15.5 30t-35.5 9q-25 0 -43 -9l-14 14l48 76h30l-33 -56q13 3 28 3q32 0 52 -16.5t20 -47.5q0 -20 -8.5 -34t-22 -23t-30.5 -13t-35 -4
z" />
    <glyph glyph-name="Egrave" unicode="&#xc8;" horiz-adv-x="461" 
d="M83 725h342v-39h-301v-290h276v-38h-276v-319h301v-39h-342v725zM161 886h54l83 -113h-35z" />
    <glyph glyph-name="Eacute" unicode="&#xc9;" horiz-adv-x="461" 
d="M289 886h54l-102 -113h-35zM83 725h342v-39h-301v-290h276v-38h-276v-319h301v-39h-342v725z" />
    <glyph glyph-name="Ecircumflex" unicode="&#xca;" horiz-adv-x="461" 
d="M83 725h342v-39h-301v-290h276v-38h-276v-319h301v-39h-342v725zM230 875h45l104 -113h-40l-88 82l-88 -82h-40z" />
    <glyph glyph-name="Edieresis" unicode="&#xcb;" horiz-adv-x="461" 
d="M83 725h342v-39h-301v-290h276v-38h-276v-319h301v-39h-342v725zM139 878h41v-96h-41v96zM335 878h41v-96h-41v96z" />
    <glyph glyph-name="Igrave" unicode="&#xcc;" horiz-adv-x="207" 
d="M83 725h41v-725h-41v725zM-13 886h54l83 -113h-35z" />
    <glyph glyph-name="Iacute" unicode="&#xcd;" horiz-adv-x="207" 
d="M83 725h41v-725h-41v725zM166 886h54l-102 -113h-35z" />
    <glyph glyph-name="Icircumflex" unicode="&#xce;" horiz-adv-x="207" 
d="M82 886h45l84 -113h-45l-63 82l-63 -82h-45zM83 725h41v-725h-41v725z" />
    <glyph glyph-name="Idieresis" unicode="&#xcf;" horiz-adv-x="207" 
d="M15 877h41v-96h-41v96zM151 877h41v-96h-41v96zM83 725h41v-725h-41v725z" />
    <glyph glyph-name="Eth" unicode="&#xd0;" horiz-adv-x="536" 
d="M0 390h83v335h154q55 0 101.5 -17.5t80.5 -56.5t53 -100.5t19 -149.5v-77q0 -88 -19 -149.5t-53 -100.5t-80.5 -56.5t-101.5 -17.5h-154v352h-83v38zM237 36q103 0 158 73.5t55 238.5v30q0 164 -55 238t-158 74h-113v-300h163v-38h-163v-316h113z" />
    <glyph glyph-name="Ntilde" unicode="&#xd1;" horiz-adv-x="565" 
d="M83 725h55l303 -668v668h41v-725h-55l-303 667v-667h-41v725zM162 783q3 50 24.5 72t48.5 22q17 0 31 -9t26.5 -20.5t25 -20.5t26.5 -9t24 11t12 48h34q-3 -50 -24 -72t-49 -22q-18 0 -32.5 9t-27 20.5t-24 20.5t-24.5 9q-14 0 -24.5 -11t-12.5 -48h-34z" />
    <glyph glyph-name="Ograve" unicode="&#xd2;" horiz-adv-x="542" 
d="M160 886h54l83 -113h-35zM271 24q52 0 87 21t57 62.5t31.5 102t9.5 138.5v30q0 78 -9.5 138.5t-31.5 101.5t-57 62.5t-87 21.5t-87.5 -21.5t-57 -62.5t-31 -101.5t-9.5 -138.5v-30q0 -78 9.5 -138.5t31 -102t57 -62.5t87.5 -21zM271 -13q-110 0 -168 80.5t-58 256.5v77
q0 175 58 256t168 81q109 0 167.5 -81t58.5 -256v-77q0 -176 -58.5 -256.5t-167.5 -80.5z" />
    <glyph glyph-name="Oacute" unicode="&#xd3;" horiz-adv-x="542" 
d="M329 886h54l-102 -113h-35zM271 24q52 0 87 21t57 62.5t31.5 102t9.5 138.5v30q0 78 -9.5 138.5t-31.5 101.5t-57 62.5t-87 21.5t-87.5 -21.5t-57 -62.5t-31 -101.5t-9.5 -138.5v-30q0 -78 9.5 -138.5t31 -102t57 -62.5t87.5 -21zM271 -13q-110 0 -168 80.5t-58 256.5v77
q0 175 58 256t168 81q109 0 167.5 -81t58.5 -256v-77q0 -176 -58.5 -256.5t-167.5 -80.5z" />
    <glyph glyph-name="Ocircumflex" unicode="&#xd4;" horiz-adv-x="542" 
d="M248 875h45l104 -113h-40l-88 82l-88 -82h-40zM271 24q52 0 87 21t57 62.5t31.5 102t9.5 138.5v30q0 78 -9.5 138.5t-31.5 101.5t-57 62.5t-87 21.5t-87.5 -21.5t-57 -62.5t-31 -101.5t-9.5 -138.5v-30q0 -78 9.5 -138.5t31 -102t57 -62.5t87.5 -21zM271 -13
q-110 0 -168 80.5t-58 256.5v77q0 175 58 256t168 81q109 0 167.5 -81t58.5 -256v-77q0 -176 -58.5 -256.5t-167.5 -80.5z" />
    <glyph glyph-name="Otilde" unicode="&#xd5;" horiz-adv-x="542" 
d="M145 783q3 50 24.5 72t48.5 22q17 0 31 -9t26.5 -20.5t25 -20.5t26.5 -9t24 11t12 48h34q-3 -50 -24 -72t-49 -22q-18 0 -32.5 9t-27 20.5t-24 20.5t-24.5 9q-14 0 -24.5 -11t-12.5 -48h-34zM271 24q52 0 87 21t57 62.5t31.5 102t9.5 138.5v30q0 78 -9.5 138.5
t-31.5 101.5t-57 62.5t-87 21.5t-87.5 -21.5t-57 -62.5t-31 -101.5t-9.5 -138.5v-30q0 -78 9.5 -138.5t31 -102t57 -62.5t87.5 -21zM271 -13q-110 0 -168 80.5t-58 256.5v77q0 175 58 256t168 81q109 0 167.5 -81t58.5 -256v-77q0 -176 -58.5 -256.5t-167.5 -80.5z" />
    <glyph glyph-name="Odieresis" unicode="&#xd6;" horiz-adv-x="542" 
d="M271 24q52 0 87 21t57 62.5t31.5 102t9.5 138.5v30q0 78 -9.5 138.5t-31.5 101.5t-57 62.5t-87 21.5t-87.5 -21.5t-57 -62.5t-31 -101.5t-9.5 -138.5v-30q0 -78 9.5 -138.5t31 -102t57 -62.5t87.5 -21zM271 -13q-110 0 -168 80.5t-58 256.5v77q0 175 58 256t168 81
q109 0 167.5 -81t58.5 -256v-77q0 -176 -58.5 -256.5t-167.5 -80.5zM153 878h41v-96h-41v96zM349 878h41v-96h-41v96z" />
    <glyph glyph-name="multiply" unicode="&#xd7;" horiz-adv-x="548" 
d="M72 69l175 200l-175 201l28 28l174 -199l174 199l28 -28l-176 -201l176 -200l-28 -28l-174 198l-174 -198z" />
    <glyph glyph-name="Oslash" unicode="&#xd8;" horiz-adv-x="542" 
d="M55 -65l55 123q-32 42 -48.5 107t-16.5 159v77q0 175 58 256t168 81q73 0 124 -36l39 88h39l-50 -113q36 -41 55 -108.5t19 -167.5v-77q0 -176 -58.5 -256.5t-167.5 -80.5q-82 0 -135 44l-42 -96h-39zM271 24q52 0 87 21t57 62.5t31.5 102t9.5 138.5v30q0 88 -12 152
t-40 105l-251 -566q43 -45 118 -45zM86 348q0 -81 10 -142.5t33 -103.5l250 563q-42 37 -108 37q-52 0 -87.5 -21.5t-57 -62.5t-31 -101.5t-9.5 -138.5v-30z" />
    <glyph glyph-name="Ugrave" unicode="&#xd9;" horiz-adv-x="552" 
d="M161 886h54l83 -113h-35zM276 -13q-57 0 -95 14t-61 45t-32.5 79.5t-9.5 117.5v482h41v-499q0 -54 8 -92.5t26.5 -63t48.5 -35.5t74 -11t74 11t48.5 35.5t26.5 63t8 92.5v499h41v-482q0 -69 -9.5 -117.5t-32.5 -79.5t-61 -45t-95 -14z" />
    <glyph glyph-name="Uacute" unicode="&#xda;" horiz-adv-x="552" 
d="M276 -13q-57 0 -95 14t-61 45t-32.5 79.5t-9.5 117.5v482h41v-499q0 -54 8 -92.5t26.5 -63t48.5 -35.5t74 -11t74 11t48.5 35.5t26.5 63t8 92.5v499h41v-482q0 -69 -9.5 -117.5t-32.5 -79.5t-61 -45t-95 -14zM315 886h54l-102 -113h-35z" />
    <glyph glyph-name="Ucircumflex" unicode="&#xdb;" horiz-adv-x="552" 
d="M276 -13q-57 0 -95 14t-61 45t-32.5 79.5t-9.5 117.5v482h41v-499q0 -54 8 -92.5t26.5 -63t48.5 -35.5t74 -11t74 11t48.5 35.5t26.5 63t8 92.5v499h41v-482q0 -69 -9.5 -117.5t-32.5 -79.5t-61 -45t-95 -14zM251 875h45l104 -113h-40l-88 82l-88 -82h-40z" />
    <glyph glyph-name="Udieresis" unicode="&#xdc;" horiz-adv-x="552" 
d="M276 -13q-57 0 -95 14t-61 45t-32.5 79.5t-9.5 117.5v482h41v-499q0 -54 8 -92.5t26.5 -63t48.5 -35.5t74 -11t74 11t48.5 35.5t26.5 63t8 92.5v499h41v-482q0 -69 -9.5 -117.5t-32.5 -79.5t-61 -45t-95 -14zM156 878h41v-96h-41v96zM352 878h41v-96h-41v96z" />
    <glyph glyph-name="Yacute" unicode="&#xdd;" horiz-adv-x="473" 
d="M216 275l-202 450h41l182 -407l182 407h40l-202 -450v-275h-41v275zM284 886h54l-102 -113h-35z" />
    <glyph glyph-name="Thorn" unicode="&#xde;" horiz-adv-x="482" 
d="M83 725h39v-155h87q64 0 112 -8.5t80 -31t47.5 -62t15.5 -102.5t-15.5 -103t-47.5 -63t-80 -31.5t-112 -8.5h-85v-160h-41v725zM213 196q51 0 90 6.5t65 24.5t39.5 51.5t13.5 87.5t-13.5 87t-39.5 51.5t-65 24.5t-90 6h-89v-339h89z" />
    <glyph glyph-name="germandbls" unicode="&#xdf;" horiz-adv-x="479" 
d="M71 533q0 104 40.5 154.5t126.5 50.5q31 0 60.5 -8.5t51.5 -28t35.5 -51.5t13.5 -78q0 -64 -29.5 -105.5t-89.5 -56.5q67 -11 110.5 -60.5t43.5 -136.5q0 -106 -52 -159.5t-151 -53.5h-47v34h47q46 0 77.5 13.5t50 37.5t26.5 56.5t8 70.5q0 90 -46 134t-150 44h-19v36h19
q38 0 68 6.5t50.5 23t31.5 45.5t11 73q0 68 -34 99t-87 31q-72 0 -99.5 -43.5t-27.5 -132.5v-528h-39v533z" />
    <glyph glyph-name="agrave" unicode="&#xe0;" horiz-adv-x="420" 
d="M174 -13q-30 0 -55 10.5t-43 29t-28 44.5t-10 57v9q0 28 9 53t38 49t85 48t149 50v53q0 37 -8.5 61t-23.5 38.5t-36 20t-45 5.5q-25 0 -46.5 -6.5t-38 -21t-26 -37t-9.5 -55.5v-12h-39v12q0 77 44.5 115.5t116.5 38.5q33 0 60.5 -7t47.5 -25t31 -49.5t11 -80.5v-48
q0 -30 -0.5 -62.5t-0.5 -62.5v-47q0 -37 0.5 -62.5t1 -44t1.5 -32.5t1 -28h-38l-1 90q-17 -47 -52.5 -75t-95.5 -28zM180 22q27 0 52 9.5t44.5 31.5t31.5 57.5t12 88.5v94q-76 -21 -123 -39.5t-73.5 -38t-36 -41.5t-9.5 -50v-9q0 -46 28 -74.5t74 -28.5zM101 725h54l68 -116
h-32z" />
    <glyph glyph-name="aacute" unicode="&#xe1;" horiz-adv-x="420" 
d="M174 -13q-30 0 -55 10.5t-43 29t-28 44.5t-10 57v9q0 28 9 53t38 49t85 48t149 50v53q0 37 -8.5 61t-23.5 38.5t-36 20t-45 5.5q-25 0 -46.5 -6.5t-38 -21t-26 -37t-9.5 -55.5v-12h-39v12q0 77 44.5 115.5t116.5 38.5q33 0 60.5 -7t47.5 -25t31 -49.5t11 -80.5v-48
q0 -30 -0.5 -62.5t-0.5 -62.5v-47q0 -37 0.5 -62.5t1 -44t1.5 -32.5t1 -28h-38l-1 90q-17 -47 -52.5 -75t-95.5 -28zM180 22q27 0 52 9.5t44.5 31.5t31.5 57.5t12 88.5v94q-76 -21 -123 -39.5t-73.5 -38t-36 -41.5t-9.5 -50v-9q0 -46 28 -74.5t74 -28.5zM252 725h54
l-90 -116h-32z" />
    <glyph glyph-name="acircumflex" unicode="&#xe2;" horiz-adv-x="420" 
d="M174 -13q-30 0 -55 10.5t-43 29t-28 44.5t-10 57v9q0 28 9 53t38 49t85 48t149 50v53q0 37 -8.5 61t-23.5 38.5t-36 20t-45 5.5q-25 0 -46.5 -6.5t-38 -21t-26 -37t-9.5 -55.5v-12h-39v12q0 77 44.5 115.5t116.5 38.5q33 0 60.5 -7t47.5 -25t31 -49.5t11 -80.5v-48
q0 -30 -0.5 -62.5t-0.5 -62.5v-47q0 -37 0.5 -62.5t1 -44t1.5 -32.5t1 -28h-38l-1 90q-17 -47 -52.5 -75t-95.5 -28zM180 22q27 0 52 9.5t44.5 31.5t31.5 57.5t12 88.5v94q-76 -21 -123 -39.5t-73.5 -38t-36 -41.5t-9.5 -50v-9q0 -46 28 -74.5t74 -28.5zM192 725h39
l104 -116h-38l-85 82l-85 -82h-39z" />
    <glyph glyph-name="atilde" unicode="&#xe3;" horiz-adv-x="420" 
d="M174 -13q-30 0 -55 10.5t-43 29t-28 44.5t-10 57v9q0 28 9 53t38 49t85 48t149 50v53q0 37 -8.5 61t-23.5 38.5t-36 20t-45 5.5q-25 0 -46.5 -6.5t-38 -21t-26 -37t-9.5 -55.5v-12h-39v12q0 77 44.5 115.5t116.5 38.5q33 0 60.5 -7t47.5 -25t31 -49.5t11 -80.5v-48
q0 -30 -0.5 -62.5t-0.5 -62.5v-47q0 -37 0.5 -62.5t1 -44t1.5 -32.5t1 -28h-38l-1 90q-17 -47 -52.5 -75t-95.5 -28zM180 22q27 0 52 9.5t44.5 31.5t31.5 57.5t12 88.5v94q-76 -21 -123 -39.5t-73.5 -38t-36 -41.5t-9.5 -50v-9q0 -46 28 -74.5t74 -28.5zM83 611
q3 50 24.5 72t48.5 22q17 0 31 -9t26.5 -20.5t25 -20.5t26.5 -9t24 11t12 48h34q-3 -50 -24 -72t-49 -22q-18 0 -32.5 9t-27 20.5t-24 20.5t-24.5 9q-14 0 -24.5 -11t-12.5 -48h-34z" />
    <glyph glyph-name="adieresis" unicode="&#xe4;" horiz-adv-x="420" 
d="M174 -13q-30 0 -55 10.5t-43 29t-28 44.5t-10 57v9q0 28 9 53t38 49t85 48t149 50v53q0 37 -8.5 61t-23.5 38.5t-36 20t-45 5.5q-25 0 -46.5 -6.5t-38 -21t-26 -37t-9.5 -55.5v-12h-39v12q0 77 44.5 115.5t116.5 38.5q33 0 60.5 -7t47.5 -25t31 -49.5t11 -80.5v-48
q0 -30 -0.5 -62.5t-0.5 -62.5v-47q0 -37 0.5 -62.5t1 -44t1.5 -32.5t1 -28h-38l-1 90q-17 -47 -52.5 -75t-95.5 -28zM180 22q27 0 52 9.5t44.5 31.5t31.5 57.5t12 88.5v94q-76 -21 -123 -39.5t-73.5 -38t-36 -41.5t-9.5 -50v-9q0 -46 28 -74.5t74 -28.5zM90 725h39v-96h-39
v96zM288 725h39v-96h-39v96z" />
    <glyph glyph-name="aring" unicode="&#xe5;" horiz-adv-x="420" 
d="M174 -13q-30 0 -55 10.5t-43 29t-28 44.5t-10 57v9q0 28 9 53t38 49t85 48t149 50v53q0 37 -8.5 61t-23.5 38.5t-36 20t-45 5.5q-25 0 -46.5 -6.5t-38 -21t-26 -37t-9.5 -55.5v-12h-39v12q0 77 44.5 115.5t116.5 38.5q33 0 60.5 -7t47.5 -25t31 -49.5t11 -80.5v-48
q0 -30 -0.5 -62.5t-0.5 -62.5v-47q0 -37 0.5 -62.5t1 -44t1.5 -32.5t1 -28h-38l-1 90q-17 -47 -52.5 -75t-95.5 -28zM180 22q27 0 52 9.5t44.5 31.5t31.5 57.5t12 88.5v94q-76 -21 -123 -39.5t-73.5 -38t-36 -41.5t-9.5 -50v-9q0 -46 28 -74.5t74 -28.5zM210 621
q22 0 39.5 15.5t17.5 41.5t-17.5 41.5t-39.5 15.5t-40 -15.5t-18 -41.5t18 -41.5t40 -15.5zM210 596q-36 0 -61.5 22.5t-25.5 59.5q0 35 25.5 58.5t61.5 23.5t61 -23.5t25 -58.5q0 -37 -25 -59.5t-61 -22.5z" />
    <glyph glyph-name="ae" unicode="&#xe6;" horiz-adv-x="695" 
d="M174 -13q-62 0 -100 38.5t-38 107.5v10q0 31 10 54t30 41q17 15 41.5 27.5t55.5 23.5l146 54v50q0 37 -8.5 60.5t-23.5 37t-36 19t-45 5.5q-25 0 -46.5 -7t-37.5 -21.5t-25.5 -37t-9.5 -54.5v-12h-39v12q0 76 44 115t116 39q52 0 87 -18.5t50 -72.5q19 45 53.5 67
t88.5 22q88 0 127 -56.5t39 -174.5v-46h-296v-25q0 -51 5.5 -92t20 -70t40 -45t65.5 -16q60 0 89.5 37.5t29.5 100.5v5h39v-5q0 -79 -40.5 -126t-113.5 -47q-66 0 -103.5 29.5t-54.5 92.5q-13 -63 -56.5 -92.5t-103.5 -29.5zM180 23q27 0 52 8.5t44.5 29.5t31.5 57t12 92
v100l-117 -44q-30 -11 -53.5 -22.5t-40 -25.5t-25 -33t-8.5 -46v-9q0 -53 29 -80t75 -27zM613 305v11q0 45 -5.5 81.5t-20 62t-38.5 39t-62 13.5q-40 0 -65.5 -15.5t-39.5 -43t-19.5 -65t-5.5 -81.5v-2h256z" />
    <glyph glyph-name="ccedilla" unicode="&#xe7;" horiz-adv-x="408" 
d="M215 -13q-90 0 -130 60t-40 184v71q0 125 40 185t130 60q73 0 114 -48t41 -128v-4h-39v4q0 63 -28 102t-88 39q-40 0 -65.5 -16t-39.5 -45t-19.5 -70.5t-5.5 -92.5v-43q0 -51 5.5 -92t19.5 -70t39.5 -45t65.5 -16q60 0 88 39t28 101v5h39v-5q0 -79 -41 -127t-114 -48z
M204 -190q-37 0 -69 11l10 29q11 -5 26 -8t29 -3q23 0 43 9t20 33q0 21 -15.5 30t-35.5 9q-25 0 -43 -9l-14 14l48 76h30l-33 -56q13 3 28 3q32 0 52 -16.5t20 -47.5q0 -20 -8.5 -34t-22 -23t-30.5 -13t-35 -4z" />
    <glyph glyph-name="egrave" unicode="&#xe8;" horiz-adv-x="422" 
d="M219 -13q-90 0 -132 60t-42 184v71q0 125 40 185t130 60q88 0 126 -56.5t38 -174.5v-46h-294v-25q0 -51 6 -92t21 -70t41 -45t66 -16q60 0 89.5 37.5t29.5 100.5v5h39v-5q0 -79 -42.5 -126t-115.5 -47zM85 305h254v4q0 47 -5 84.5t-18.5 64t-37.5 40.5t-63 14
q-40 0 -65.5 -15.5t-39.5 -43t-19.5 -65t-5.5 -81.5v-2zM113 725h54l68 -116h-32z" />
    <glyph glyph-name="eacute" unicode="&#xe9;" horiz-adv-x="422" 
d="M259 725h54l-90 -116h-32zM219 -13q-90 0 -132 60t-42 184v71q0 125 40 185t130 60q88 0 126 -56.5t38 -174.5v-46h-294v-25q0 -51 6 -92t21 -70t41 -45t66 -16q60 0 89.5 37.5t29.5 100.5v5h39v-5q0 -79 -42.5 -126t-115.5 -47zM85 305h254v4q0 47 -5 84.5t-18.5 64
t-37.5 40.5t-63 14q-40 0 -65.5 -15.5t-39.5 -43t-19.5 -65t-5.5 -81.5v-2z" />
    <glyph glyph-name="ecircumflex" unicode="&#xea;" horiz-adv-x="422" 
d="M195 725h39l104 -116h-38l-85 82l-85 -82h-39zM219 -13q-90 0 -132 60t-42 184v71q0 125 40 185t130 60q88 0 126 -56.5t38 -174.5v-46h-294v-25q0 -51 6 -92t21 -70t41 -45t66 -16q60 0 89.5 37.5t29.5 100.5v5h39v-5q0 -79 -42.5 -126t-115.5 -47zM85 305h254v4
q0 47 -5 84.5t-18.5 64t-37.5 40.5t-63 14q-40 0 -65.5 -15.5t-39.5 -43t-19.5 -65t-5.5 -81.5v-2z" />
    <glyph glyph-name="edieresis" unicode="&#xeb;" horiz-adv-x="422" 
d="M94 725h39v-96h-39v96zM292 725h39v-96h-39v96zM219 -13q-90 0 -132 60t-42 184v71q0 125 40 185t130 60q88 0 126 -56.5t38 -174.5v-46h-294v-25q0 -51 6 -92t21 -70t41 -45t66 -16q60 0 89.5 37.5t29.5 100.5v5h39v-5q0 -79 -42.5 -126t-115.5 -47zM85 305h254v4
q0 47 -5 84.5t-18.5 64t-37.5 40.5t-63 14q-40 0 -65.5 -15.5t-39.5 -43t-19.5 -65t-5.5 -81.5v-2z" />
    <glyph glyph-name="igrave" unicode="&#xec;" 
d="M73 538h39v-538h-39v538zM-11 725h54l68 -116h-32z" />
    <glyph glyph-name="iacute" unicode="&#xed;" 
d="M141 725h54l-90 -116h-32zM73 538h39v-538h-39v538z" />
    <glyph glyph-name="icircumflex" unicode="&#xee;" 
d="M71 725h39l74 -116h-38l-55 82l-55 -82h-39zM73 538h39v-538h-39v538z" />
    <glyph glyph-name="idieresis" unicode="&#xef;" 
d="M2 720h39v-96h-39v96zM140 720h39v-96h-39v96zM73 538h39v-538h-39v538z" />
    <glyph glyph-name="eth" unicode="&#xf0;" horiz-adv-x="439" 
d="M112 583l108 70q-20 15 -42.5 29.5t-47.5 30.5l32 25q23 -15 46.5 -30.5t46.5 -32.5l65 42l17 -26l-58 -37q25 -23 46 -52.5t36.5 -68.5t24 -90t8.5 -117v-95q0 -244 -175 -244q-174 0 -174 244v78q0 119 42.5 178.5t118.5 59.5q27 0 49 -7.5t38.5 -19t28 -26t17.5 -28.5
l2 1q-14 56 -38 94.5t-59 70.5l-116 -74zM219 22q40 0 66 16.5t41.5 46.5t21.5 72.5t6 95.5v28q0 66 -11.5 110.5t-31 71.5t-45.5 38t-55 11q-67 0 -96.5 -57.5t-29.5 -171.5v-30q0 -53 6 -95.5t21.5 -72.5t41.5 -46.5t65 -16.5z" />
    <glyph glyph-name="ntilde" unicode="&#xf1;" horiz-adv-x="438" 
d="M71 538h39v-104q6 21 18 41.5t30 36.5t41 25.5t51 9.5q75 0 102 -48.5t27 -146.5v-352h-39v341q0 42 -4 74t-14.5 53.5t-29 32.5t-47.5 11q-28 0 -52.5 -13.5t-43 -40.5t-29 -67.5t-10.5 -94.5v-296h-39v538zM102 611q3 50 24.5 72t48.5 22q17 0 31 -9t26.5 -20.5
t25 -20.5t26.5 -9t24 11t12 48h34q-3 -50 -24 -72t-49 -22q-18 0 -32.5 9t-27 20.5t-24 20.5t-24.5 9q-14 0 -24.5 -11t-12.5 -48h-34z" />
    <glyph glyph-name="ograve" unicode="&#xf2;" horiz-adv-x="428" 
d="M214 22q39 0 64.5 16.5t39.5 46.5t19.5 72.5t5.5 95.5v28q0 53 -5.5 95.5t-19.5 72.5t-39.5 46.5t-64.5 16.5q-40 0 -65 -16.5t-39.5 -46.5t-19.5 -72.5t-5 -95.5v-28q0 -53 5 -95.5t19.5 -72.5t39.5 -46.5t65 -16.5zM214 -13q-88 0 -128.5 60t-40.5 184v71
q0 125 40.5 185t128.5 60t128.5 -60t40.5 -185v-71q0 -124 -40.5 -184t-128.5 -60zM113 725h54l68 -116h-32z" />
    <glyph glyph-name="oacute" unicode="&#xf3;" horiz-adv-x="428" 
d="M256 725h54l-90 -116h-32zM214 22q39 0 64.5 16.5t39.5 46.5t19.5 72.5t5.5 95.5v28q0 53 -5.5 95.5t-19.5 72.5t-39.5 46.5t-64.5 16.5q-40 0 -65 -16.5t-39.5 -46.5t-19.5 -72.5t-5 -95.5v-28q0 -53 5 -95.5t19.5 -72.5t39.5 -46.5t65 -16.5zM214 -13q-88 0 -128.5 60
t-40.5 184v71q0 125 40.5 185t128.5 60t128.5 -60t40.5 -185v-71q0 -124 -40.5 -184t-128.5 -60z" />
    <glyph glyph-name="ocircumflex" unicode="&#xf4;" horiz-adv-x="428" 
d="M194 725h39l104 -116h-38l-85 82l-85 -82h-39zM214 22q39 0 64.5 16.5t39.5 46.5t19.5 72.5t5.5 95.5v28q0 53 -5.5 95.5t-19.5 72.5t-39.5 46.5t-64.5 16.5q-40 0 -65 -16.5t-39.5 -46.5t-19.5 -72.5t-5 -95.5v-28q0 -53 5 -95.5t19.5 -72.5t39.5 -46.5t65 -16.5z
M214 -13q-88 0 -128.5 60t-40.5 184v71q0 125 40.5 185t128.5 60t128.5 -60t40.5 -185v-71q0 -124 -40.5 -184t-128.5 -60z" />
    <glyph glyph-name="otilde" unicode="&#xf5;" horiz-adv-x="428" 
d="M214 22q39 0 64.5 16.5t39.5 46.5t19.5 72.5t5.5 95.5v28q0 53 -5.5 95.5t-19.5 72.5t-39.5 46.5t-64.5 16.5q-40 0 -65 -16.5t-39.5 -46.5t-19.5 -72.5t-5 -95.5v-28q0 -53 5 -95.5t19.5 -72.5t39.5 -46.5t65 -16.5zM214 -13q-88 0 -128.5 60t-40.5 184v71
q0 125 40.5 185t128.5 60t128.5 -60t40.5 -185v-71q0 -124 -40.5 -184t-128.5 -60zM88 611q3 50 24.5 72t48.5 22q17 0 31 -9t26.5 -20.5t25 -20.5t26.5 -9t24 11t12 48h34q-3 -50 -24 -72t-49 -22q-18 0 -32.5 9t-27 20.5t-24 20.5t-24.5 9q-14 0 -24.5 -11t-12.5 -48h-34z
" />
    <glyph glyph-name="odieresis" unicode="&#xf6;" horiz-adv-x="428" 
d="M95 725h39v-96h-39v96zM293 725h39v-96h-39v96zM214 22q39 0 64.5 16.5t39.5 46.5t19.5 72.5t5.5 95.5v28q0 53 -5.5 95.5t-19.5 72.5t-39.5 46.5t-64.5 16.5q-40 0 -65 -16.5t-39.5 -46.5t-19.5 -72.5t-5 -95.5v-28q0 -53 5 -95.5t19.5 -72.5t39.5 -46.5t65 -16.5z
M214 -13q-88 0 -128.5 60t-40.5 184v71q0 125 40.5 185t128.5 60t128.5 -60t40.5 -185v-71q0 -124 -40.5 -184t-128.5 -60z" />
    <glyph glyph-name="divide" unicode="&#xf7;" horiz-adv-x="548" 
d="M250 158h51v-94h-51v94zM250 476h51v-93h-51v93zM38 289h473v-37h-473v37z" />
    <glyph glyph-name="oslash" unicode="&#xf8;" horiz-adv-x="428" 
d="M47 -65l46 103q-48 58 -48 193v71q0 125 40.5 185t128.5 60q56 0 94 -26l37 82h35l-47 -105q50 -59 50 -196v-71q0 -124 -40.5 -184t-128.5 -60q-59 0 -96 27l-35 -79h-36zM214 22q39 0 64.5 16.5t39.5 46.5t19.5 72.5t5.5 95.5v28q0 56 -6 100t-23 75l-180 -406
q28 -28 80 -28zM85 253q0 -55 5.5 -99t21.5 -74l180 405q-14 13 -33 20t-45 7q-40 0 -65 -16.5t-39.5 -46.5t-19.5 -72.5t-5 -95.5v-28z" />
    <glyph glyph-name="ugrave" unicode="&#xf9;" horiz-adv-x="436" 
d="M187 -13q-38 0 -62.5 12t-39 36.5t-20.5 61t-6 85.5v356h39v-345q0 -84 18 -127.5t75 -43.5q28 0 52.5 13.5t43 40.5t29 67.5t10.5 94.5v300h39v-538h-39v100q-6 -21 -18 -41.5t-30 -36.5t-41 -25.5t-50 -9.5zM123 725h54l68 -116h-32z" />
    <glyph glyph-name="uacute" unicode="&#xfa;" horiz-adv-x="436" 
d="M256 725h54l-90 -116h-32zM187 -13q-38 0 -62.5 12t-39 36.5t-20.5 61t-6 85.5v356h39v-345q0 -84 18 -127.5t75 -43.5q28 0 52.5 13.5t43 40.5t29 67.5t10.5 94.5v300h39v-538h-39v100q-6 -21 -18 -41.5t-30 -36.5t-41 -25.5t-50 -9.5z" />
    <glyph glyph-name="ucircumflex" unicode="&#xfb;" horiz-adv-x="436" 
d="M191 725h39l104 -116h-38l-85 82l-85 -82h-39zM187 -13q-38 0 -62.5 12t-39 36.5t-20.5 61t-6 85.5v356h39v-345q0 -84 18 -127.5t75 -43.5q28 0 52.5 13.5t43 40.5t29 67.5t10.5 94.5v300h39v-538h-39v100q-6 -21 -18 -41.5t-30 -36.5t-41 -25.5t-50 -9.5z" />
    <glyph glyph-name="udieresis" unicode="&#xfc;" horiz-adv-x="436" 
d="M92 725h39v-96h-39v96zM290 725h39v-96h-39v96zM187 -13q-38 0 -62.5 12t-39 36.5t-20.5 61t-6 85.5v356h39v-345q0 -84 18 -127.5t75 -43.5q28 0 52.5 13.5t43 40.5t29 67.5t10.5 94.5v300h39v-538h-39v100q-6 -21 -18 -41.5t-30 -36.5t-41 -25.5t-50 -9.5z" />
    <glyph glyph-name="yacute" unicode="&#xfd;" horiz-adv-x="368" 
d="M42 -141h20q21 0 34.5 2t23 11.5t17 28.5t16.5 53l13 46l-152 538h41l131 -486l128 486h40l-153 -550q-15 -54 -26.5 -86.5t-25.5 -49.5t-34 -22t-54 -5h-19v34zM230 725h54l-90 -116h-32z" />
    <glyph glyph-name="thorn" unicode="&#xfe;" horiz-adv-x="452" 
d="M71 725h39v-291q6 24 18.5 44.5t31 35.5t41.5 24t50 9q76 0 116 -59.5t40 -178.5v-84q0 -119 -40 -178.5t-116 -59.5q-27 0 -50 9t-41.5 24t-31 35.5t-18.5 44.5v-275h-39v900zM246 22q67 0 94 57.5t27 171.5v32q0 114 -27 171.5t-94 57.5q-29 0 -54.5 -13.5t-44 -42.5
t-29.5 -76t-11 -113q0 -67 11 -113.5t29.5 -76t44 -42.5t54.5 -13z" />
    <glyph glyph-name="ydieresis" unicode="&#xff;" horiz-adv-x="368" 
d="M42 -141h20q21 0 34.5 2t23 11.5t17 28.5t16.5 53l13 46l-152 538h41l131 -486l128 486h40l-153 -550q-15 -54 -26.5 -86.5t-25.5 -49.5t-34 -22t-54 -5h-19v34zM66 725h39v-96h-39v96zM264 725h39v-96h-39v96z" />
    <glyph glyph-name="Abreve" unicode="&#x102;" horiz-adv-x="512" 
d="M231 725h48l219 -725h-41l-65 220h-273l-64 -220h-41zM131 259h249l-125 424zM257 773q-54 0 -82 29t-28 84h34q0 -42 20.5 -63t55.5 -21t55.5 21t20.5 63h34q0 -55 -28 -84t-82 -29z" />
    <glyph glyph-name="Amacron" unicode="&#x100;" horiz-adv-x="512" 
d="M231 725h48l219 -725h-41l-65 220h-273l-64 -220h-41zM131 259h249l-125 424zM143 851h228v-39h-228v39z" />
    <glyph glyph-name="Aogonek" unicode="&#x104;" horiz-adv-x="512" 
d="M452 -180q-16 0 -32.5 4.5t-29.5 13.5t-21.5 23.5t-8.5 34.5t9 36.5t23 29.5t31 22.5t34 15.5l-65 220h-273l-64 -220h-41l217 725h48l219 -725q-45 -21 -71 -42.5t-26 -53.5q0 -24 16.5 -36.5t41.5 -12.5q19 0 39 5v-35q-9 -3 -20.5 -4t-25.5 -1zM131 259h249l-125 424z
" />
    <glyph glyph-name="Cacute" unicode="&#x106;" horiz-adv-x="514" 
d="M474 220q0 -53 -13.5 -96t-40 -73.5t-65 -47t-88.5 -16.5q-110 0 -166 80.5t-56 256.5v77q0 175 56 256t166 81q50 0 88.5 -16.5t65 -47t40 -73.5t13.5 -96v-2h-41v2q0 93 -42 144.5t-124 51.5q-52 0 -86.5 -21t-55.5 -62.5t-30 -102t-9 -138.5v-29q0 -78 9 -138.5
t30 -102t55.5 -62.5t86.5 -21q82 0 124 51.5t42 144.5v2h41v-2zM316 886h54l-102 -113h-35z" />
    <glyph glyph-name="Ccaron" unicode="&#x10c;" horiz-adv-x="514" 
d="M474 220q0 -53 -13.5 -96t-40 -73.5t-65 -47t-88.5 -16.5q-110 0 -166 80.5t-56 256.5v77q0 175 56 256t166 81q50 0 88.5 -16.5t65 -47t40 -73.5t13.5 -96v-2h-41v2q0 93 -42 144.5t-124 51.5q-52 0 -86.5 -21t-55.5 -62.5t-30 -102t-9 -138.5v-29q0 -78 9 -138.5
t30 -102t55.5 -62.5t86.5 -21q82 0 124 51.5t42 144.5v2h41v-2zM246 773l-107 113h40l88 -83l88 83h40l-104 -113h-45z" />
    <glyph glyph-name="Ccircumflex" unicode="&#x108;" horiz-adv-x="514" 
d="M474 220q0 -53 -13.5 -96t-40 -73.5t-65 -47t-88.5 -16.5q-110 0 -166 80.5t-56 256.5v77q0 175 56 256t166 81q50 0 88.5 -16.5t65 -47t40 -73.5t13.5 -96v-2h-41v2q0 93 -42 144.5t-124 51.5q-52 0 -86.5 -21t-55.5 -62.5t-30 -102t-9 -138.5v-29q0 -78 9 -138.5
t30 -102t55.5 -62.5t86.5 -21q82 0 124 51.5t42 144.5v2h41v-2zM245 875h45l104 -113h-40l-88 82l-88 -82h-40z" />
    <glyph glyph-name="Cdotaccent" unicode="&#x10a;" horiz-adv-x="514" 
d="M474 220q0 -53 -13.5 -96t-40 -73.5t-65 -47t-88.5 -16.5q-110 0 -166 80.5t-56 256.5v77q0 175 56 256t166 81q50 0 88.5 -16.5t65 -47t40 -73.5t13.5 -96v-2h-41v2q0 93 -42 144.5t-124 51.5q-52 0 -86.5 -21t-55.5 -62.5t-30 -102t-9 -138.5v-29q0 -78 9 -138.5
t30 -102t55.5 -62.5t86.5 -21q82 0 124 51.5t42 144.5v2h41v-2zM247 877h41v-96h-41v96z" />
    <glyph glyph-name="Dcaron" unicode="&#x10e;" horiz-adv-x="536" 
d="M235 773l-107 113h40l88 -83l88 83h40l-104 -113h-45zM237 36q103 0 158 73.5t55 238.5v30q0 164 -55 238t-158 74h-113v-654h113zM83 725h154q55 0 101.5 -17.5t80.5 -56.5t53 -100.5t19 -149.5v-77q0 -88 -19 -149.5t-53 -100.5t-80.5 -56.5t-101.5 -17.5h-154v725z
" />
    <glyph glyph-name="Dcroat" unicode="&#x110;" horiz-adv-x="536" 
d="M0 390h83v335h154q55 0 101.5 -17.5t80.5 -56.5t53 -100.5t19 -149.5v-77q0 -88 -19 -149.5t-53 -100.5t-80.5 -56.5t-101.5 -17.5h-154v352h-83v38zM237 36q103 0 158 73.5t55 238.5v30q0 164 -55 238t-158 74h-113v-300h163v-38h-163v-316h113z" />
    <glyph glyph-name="Ebreve" unicode="&#x114;" horiz-adv-x="461" 
d="M83 725h342v-39h-301v-290h276v-38h-276v-319h301v-39h-342v725zM255 773q-54 0 -82 29t-28 84h34q0 -42 20.5 -63t55.5 -21t55.5 21t20.5 63h34q0 -55 -28 -84t-82 -29z" />
    <glyph glyph-name="Ecaron" unicode="&#x11a;" horiz-adv-x="461" 
d="M230 773l-107 113h40l88 -83l88 83h40l-104 -113h-45zM83 725h342v-39h-301v-290h276v-38h-276v-319h301v-39h-342v725z" />
    <glyph glyph-name="Emacron" unicode="&#x112;" horiz-adv-x="461" 
d="M83 725h342v-39h-301v-290h276v-38h-276v-319h301v-39h-342v725zM145 851h228v-39h-228v39z" />
    <glyph glyph-name="Eogonek" unicode="&#x118;" horiz-adv-x="461" 
d="M379 -180q-16 0 -32.5 4.5t-29.5 13.5t-21.5 23.5t-8.5 34.5t9 36.5t23 29.5t31 22.5t34 15.5h41q-45 -21 -71 -42.5t-26 -53.5q0 -24 16.5 -36.5t41.5 -12.5q19 0 39 5v-35q-9 -3 -20.5 -4t-25.5 -1zM83 725h342v-39h-301v-290h276v-38h-276v-319h301v-39h-342v725z" />
    <glyph glyph-name="Edotaccent" unicode="&#x116;" horiz-adv-x="461" 
d="M233 877h41v-96h-41v96zM83 725h342v-39h-301v-290h276v-38h-276v-319h301v-39h-342v725z" />
    <glyph glyph-name="Gbreve" unicode="&#x11e;" horiz-adv-x="536" 
d="M268 773q-54 0 -82 29t-28 84h34q0 -42 20.5 -63t55.5 -21t55.5 21t20.5 63h34q0 -55 -28 -84t-82 -29zM438 108q-25 -58 -65.5 -89.5t-105.5 -31.5q-110 0 -166 80.5t-56 256.5v77q0 175 56 256t166 81q50 0 88.5 -16.5t65 -47t40 -73.5t13.5 -96v-2h-41v2
q0 93 -42 144.5t-124 51.5q-52 0 -86.5 -21t-55.5 -62t-30 -101.5t-9 -138.5v-30q0 -78 9 -138.5t30 -102t55.5 -62.5t86.5 -21q46 0 78.5 17t52 49.5t28.5 78.5t9 105v37h-206v39h246v-350h-37v108z" />
    <glyph glyph-name="Gcircumflex" unicode="&#x11c;" horiz-adv-x="536" 
d="M438 108q-25 -58 -65.5 -89.5t-105.5 -31.5q-110 0 -166 80.5t-56 256.5v77q0 175 56 256t166 81q50 0 88.5 -16.5t65 -47t40 -73.5t13.5 -96v-2h-41v2q0 93 -42 144.5t-124 51.5q-52 0 -86.5 -21t-55.5 -62t-30 -101.5t-9 -138.5v-30q0 -78 9 -138.5t30 -102t55.5 -62.5
t86.5 -21q46 0 78.5 17t52 49.5t28.5 78.5t9 105v37h-206v39h246v-350h-37v108zM246 875h45l104 -113h-40l-88 82l-88 -82h-40z" />
    <glyph glyph-name="uni0122" unicode="&#x122;" horiz-adv-x="536" 
d="M286 -49v-11q0 -25 -1.5 -48t-9 -41t-22 -29.5t-40.5 -13.5v39q22 5 28 25t6 67v12h39zM438 108q-25 -58 -65.5 -89.5t-105.5 -31.5q-110 0 -166 80.5t-56 256.5v77q0 175 56 256t166 81q50 0 88.5 -16.5t65 -47t40 -73.5t13.5 -96v-2h-41v2q0 93 -42 144.5t-124 51.5
q-52 0 -86.5 -21t-55.5 -62t-30 -101.5t-9 -138.5v-30q0 -78 9 -138.5t30 -102t55.5 -62.5t86.5 -21q46 0 78.5 17t52 49.5t28.5 78.5t9 105v37h-206v39h246v-350h-37v108z" />
    <glyph glyph-name="Gdotaccent" unicode="&#x120;" horiz-adv-x="536" 
d="M246 877h41v-96h-41v96zM438 108q-25 -58 -65.5 -89.5t-105.5 -31.5q-110 0 -166 80.5t-56 256.5v77q0 175 56 256t166 81q50 0 88.5 -16.5t65 -47t40 -73.5t13.5 -96v-2h-41v2q0 93 -42 144.5t-124 51.5q-52 0 -86.5 -21t-55.5 -62t-30 -101.5t-9 -138.5v-30
q0 -78 9 -138.5t30 -102t55.5 -62.5t86.5 -21q46 0 78.5 17t52 49.5t28.5 78.5t9 105v37h-206v39h246v-350h-37v108z" />
    <glyph glyph-name="Hbar" unicode="&#x126;" horiz-adv-x="564" 
d="M19 580h66v145h41v-145h316v145h41v-145h66v-38h-66v-542h-41v358h-316v-358h-41v542h-66v38zM442 396v146h-316v-146h316z" />
    <glyph glyph-name="Hcircumflex" unicode="&#x124;" horiz-adv-x="564" 
d="M83 725h41v-329h316v329h41v-725h-41v358h-316v-358h-41v725zM261 875h45l104 -113h-40l-88 82l-88 -82h-40z" />
    <glyph glyph-name="Ibreve" unicode="&#x12c;" horiz-adv-x="207" 
d="M104 773q-51 0 -76.5 29t-25.5 84h37q0 -42 16.5 -61.5t48.5 -19.5t48 19.5t16 61.5h37q0 -55 -25 -84t-76 -29zM83 725h41v-725h-41v725z" />
    <glyph glyph-name="Idotaccent" unicode="&#x130;" horiz-adv-x="207" 
d="M83 725h41v-725h-41v725zM83 877h41v-96h-41v96z" />
    <glyph glyph-name="Imacron" unicode="&#x12a;" horiz-adv-x="207" 
d="M2 851h203v-39h-203v39zM83 725h41v-725h-41v725z" />
    <glyph glyph-name="Iogonek" unicode="&#x12e;" horiz-adv-x="207" 
d="M83 725h41v-725h-41v725zM79 -180q-16 0 -32.5 4.5t-29.5 13.5t-21.5 23.5t-8.5 34.5t9 36.5t23 29.5t31 22.5t34 15.5h41q-45 -21 -71 -42.5t-26 -53.5q0 -24 16.5 -36.5t41.5 -12.5q19 0 39 5v-35q-9 -3 -20.5 -4t-25.5 -1z" />
    <glyph glyph-name="Itilde" unicode="&#x128;" horiz-adv-x="207" 
d="M-12 772q5 50 25.5 72t47.5 22q17 0 28.5 -9t20.5 -20.5t17.5 -20.5t19.5 -9q31 0 36 59h37q-5 -50 -25 -72t-48 -22q-18 0 -30 9t-21 20.5t-17 20.5t-18 9q-31 0 -36 -59h-37zM83 725h41v-725h-41v725z" />
    <glyph glyph-name="uni1ECA" unicode="&#x1eca;" horiz-adv-x="207" 
d="M83 725h41v-725h-41v725zM84 -80h39v-95h-39v95z" />
    <glyph glyph-name="Jcircumflex" unicode="&#x134;" horiz-adv-x="417" 
d="M179 -13q-47 0 -78 15.5t-49.5 43.5t-26.5 66.5t-8 83.5v3h41v-3q0 -81 26 -126.5t95 -45.5q35 0 58 12.5t37 35t20 54.5t6 70v529h41v-529q0 -45 -7.5 -83.5t-26.5 -66.5t-50 -43.5t-78 -15.5zM297 875h45l104 -113h-40l-88 82l-88 -82h-40z" />
    <glyph glyph-name="uni0136" unicode="&#x136;" horiz-adv-x="494" 
d="M220 387l-96 -135v-252h-41v725h41v-411l293 411h45l-216 -301l245 -424h-46zM288 -49v-11q0 -25 -1.5 -48t-9 -41t-22 -29.5t-40.5 -13.5v39q22 5 28 25t6 67v12h39z" />
    <glyph glyph-name="Lacute" unicode="&#x139;" horiz-adv-x="431" 
d="M83 725h41v-686h304v-39h-345v725zM172 886h54l-102 -113h-35z" />
    <glyph glyph-name="Lcaron" unicode="&#x13d;" horiz-adv-x="431" 
d="M83 725h41v-686h304v-39h-345v725zM230 725h43l-49 -170h-28z" />
    <glyph glyph-name="uni013B" unicode="&#x13b;" horiz-adv-x="431" 
d="M83 725h41v-686h304v-39h-345v725zM283 -49v-11q0 -25 -1.5 -48t-9 -41t-22 -29.5t-40.5 -13.5v39q22 5 28 25t6 67v12h39z" />
    <glyph glyph-name="Ldot" unicode="&#x13f;" horiz-adv-x="431" 
d="M83 725h41v-686h304v-39h-345v725zM298 431h41v-96h-41v96z" />
    <glyph glyph-name="Lslash" unicode="&#x141;" horiz-adv-x="431" 
d="M-1 267l84 67v391h41v-358l198 158v-46l-198 -158v-282h304v-39h-345v288l-84 -67v46z" />
    <glyph glyph-name="Nacute" unicode="&#x143;" horiz-adv-x="565" 
d="M83 725h55l303 -668v668h41v-725h-55l-303 667v-667h-41v725zM342 886h54l-102 -113h-35z" />
    <glyph glyph-name="Ncaron" unicode="&#x147;" horiz-adv-x="565" 
d="M264 773l-107 113h40l88 -83l88 83h40l-104 -113h-45zM83 725h55l303 -668v668h41v-725h-55l-303 667v-667h-41v725z" />
    <glyph glyph-name="uni0145" unicode="&#x145;" horiz-adv-x="565" 
d="M296 -49v-11q0 -25 -1.5 -48t-9 -41t-22 -29.5t-40.5 -13.5v39q22 5 28 25t6 67v12h39zM83 725h55l303 -668v668h41v-725h-55l-303 667v-667h-41v725z" />
    <glyph glyph-name="OE" unicode="&#x152;" horiz-adv-x="837" 
d="M271 24q52 0 87 21t57 62.5t31.5 102t9.5 138.5v30q0 78 -9.5 138.5t-31.5 101.5t-57 62.5t-87 21.5t-87.5 -21.5t-57 -62.5t-31 -101.5t-9.5 -138.5v-30q0 -78 9.5 -138.5t31 -102t57 -62.5t87.5 -21zM271 -13q-110 0 -168 80.5t-58 256.5v77q0 175 58 256t168 81
q109 0 167.5 -81t58.5 -256v-77q0 -176 -58.5 -256.5t-167.5 -80.5zM458 725h342v-39h-301v-290h276v-38h-276v-319h301v-39h-342v725z" />
    <glyph glyph-name="Obreve" unicode="&#x14e;" horiz-adv-x="542" 
d="M271 24q52 0 87 21t57 62.5t31.5 102t9.5 138.5v30q0 78 -9.5 138.5t-31.5 101.5t-57 62.5t-87 21.5t-87.5 -21.5t-57 -62.5t-31 -101.5t-9.5 -138.5v-30q0 -78 9.5 -138.5t31 -102t57 -62.5t87.5 -21zM271 -13q-110 0 -168 80.5t-58 256.5v77q0 175 58 256t168 81
q109 0 167.5 -81t58.5 -256v-77q0 -176 -58.5 -256.5t-167.5 -80.5zM271 773q-54 0 -82 29t-28 84h34q0 -42 20.5 -63t55.5 -21t55.5 21t20.5 63h34q0 -55 -28 -84t-82 -29z" />
    <glyph glyph-name="Ohungarumlaut" unicode="&#x150;" horiz-adv-x="542" 
d="M271 24q52 0 87 21t57 62.5t31.5 102t9.5 138.5v30q0 78 -9.5 138.5t-31.5 101.5t-57 62.5t-87 21.5t-87.5 -21.5t-57 -62.5t-31 -101.5t-9.5 -138.5v-30q0 -78 9.5 -138.5t31 -102t57 -62.5t87.5 -21zM271 -13q-110 0 -168 80.5t-58 256.5v77q0 175 58 256t168 81
q109 0 167.5 -81t58.5 -256v-77q0 -176 -58.5 -256.5t-167.5 -80.5zM243 897h54l-102 -113h-35zM394 897h54l-102 -113h-35z" />
    <glyph glyph-name="Omacron" unicode="&#x14c;" horiz-adv-x="542" 
d="M157 851h228v-39h-228v39zM271 24q52 0 87 21t57 62.5t31.5 102t9.5 138.5v30q0 78 -9.5 138.5t-31.5 101.5t-57 62.5t-87 21.5t-87.5 -21.5t-57 -62.5t-31 -101.5t-9.5 -138.5v-30q0 -78 9.5 -138.5t31 -102t57 -62.5t87.5 -21zM271 -13q-110 0 -168 80.5t-58 256.5v77
q0 175 58 256t168 81q109 0 167.5 -81t58.5 -256v-77q0 -176 -58.5 -256.5t-167.5 -80.5z" />
    <glyph glyph-name="uni1ECC" unicode="&#x1ecc;" horiz-adv-x="542" 
d="M256 -80h39v-95h-39v95zM271 24q52 0 87 21t57 62.5t31.5 102t9.5 138.5v30q0 78 -9.5 138.5t-31.5 101.5t-57 62.5t-87 21.5t-87.5 -21.5t-57 -62.5t-31 -101.5t-9.5 -138.5v-30q0 -78 9.5 -138.5t31 -102t57 -62.5t87.5 -21zM271 -13q-110 0 -168 80.5t-58 256.5v77
q0 175 58 256t168 81q109 0 167.5 -81t58.5 -256v-77q0 -176 -58.5 -256.5t-167.5 -80.5z" />
    <glyph glyph-name="Racute" unicode="&#x154;" horiz-adv-x="518" 
d="M301 341q-21 -2 -43 -3t-47 -1h-87v-337h-41v725h128q64 0 112 -8.5t80 -30.5t47.5 -60t15.5 -96q0 -83 -31 -125t-94 -57l144 -348h-44zM215 372q51 0 90 6t65 23t39.5 48t13.5 81t-13.5 81.5t-39.5 49t-65 23.5t-90 6h-91v-318h91zM312 886h54l-102 -113h-35z" />
    <glyph glyph-name="Rcaron" unicode="&#x158;" horiz-adv-x="518" 
d="M241 773l-107 113h40l88 -83l88 83h40l-104 -113h-45zM301 341q-21 -2 -43 -3t-47 -1h-87v-337h-41v725h128q64 0 112 -8.5t80 -30.5t47.5 -60t15.5 -96q0 -83 -31 -125t-94 -57l144 -348h-44zM215 372q51 0 90 6t65 23t39.5 48t13.5 81t-13.5 81.5t-39.5 49t-65 23.5
t-90 6h-91v-318h91z" />
    <glyph glyph-name="uni0156" unicode="&#x156;" horiz-adv-x="518" 
d="M290 -49v-11q0 -25 -1.5 -48t-9 -41t-22 -29.5t-40.5 -13.5v39q22 5 28 25t6 67v12h39zM301 341q-21 -2 -43 -3t-47 -1h-87v-337h-41v725h128q64 0 112 -8.5t80 -30.5t47.5 -60t15.5 -96q0 -83 -31 -125t-94 -57l144 -348h-44zM215 372q51 0 90 6t65 23t39.5 48t13.5 81
t-13.5 81.5t-39.5 49t-65 23.5t-90 6h-91v-318h91z" />
    <glyph glyph-name="Sacute" unicode="&#x15a;" horiz-adv-x="496" 
d="M257 -13q-48 0 -87.5 13.5t-68.5 41.5t-45 70.5t-16 101.5v8h41v-8q0 -96 48.5 -143t125.5 -47q81 0 120 41t39 105q0 32 -8 55.5t-23.5 42.5t-38.5 34t-54 30l-110 50q-22 10 -44.5 23.5t-40.5 34.5t-29.5 51t-11.5 72q0 43 14 76t39.5 55t60.5 33t76 11t75.5 -12.5
t60 -37t40 -60t14.5 -81.5v-7h-41v7q0 69 -40 110.5t-109 41.5q-70 0 -109.5 -35.5t-39.5 -98.5q0 -33 7 -55.5t19.5 -39t30 -28t38.5 -21.5l111 -52q31 -14 59 -30.5t49.5 -39t34 -52.5t12.5 -71t-12.5 -76t-37.5 -60t-62.5 -39t-86.5 -14zM301 886h54l-102 -113h-35z" />
    <glyph glyph-name="Scaron" unicode="&#x160;" horiz-adv-x="496" 
d="M226 773l-107 113h40l88 -83l88 83h40l-104 -113h-45zM257 -13q-48 0 -87.5 13.5t-68.5 41.5t-45 70.5t-16 101.5v8h41v-8q0 -96 48.5 -143t125.5 -47q81 0 120 41t39 105q0 32 -8 55.5t-23.5 42.5t-38.5 34t-54 30l-110 50q-22 10 -44.5 23.5t-40.5 34.5t-29.5 51
t-11.5 72q0 43 14 76t39.5 55t60.5 33t76 11t75.5 -12.5t60 -37t40 -60t14.5 -81.5v-7h-41v7q0 69 -40 110.5t-109 41.5q-70 0 -109.5 -35.5t-39.5 -98.5q0 -33 7 -55.5t19.5 -39t30 -28t38.5 -21.5l111 -52q31 -14 59 -30.5t49.5 -39t34 -52.5t12.5 -71t-12.5 -76
t-37.5 -60t-62.5 -39t-86.5 -14z" />
    <glyph glyph-name="Scedilla" unicode="&#x15e;" horiz-adv-x="496" 
d="M257 -13q-48 0 -87.5 13.5t-68.5 41.5t-45 70.5t-16 101.5v8h41v-8q0 -96 48.5 -143t125.5 -47q81 0 120 41t39 105q0 32 -8 55.5t-23.5 42.5t-38.5 34t-54 30l-110 50q-22 10 -44.5 23.5t-40.5 34.5t-29.5 51t-11.5 72q0 43 14 76t39.5 55t60.5 33t76 11t75.5 -12.5
t60 -37t40 -60t14.5 -81.5v-7h-41v7q0 69 -40 110.5t-109 41.5q-70 0 -109.5 -35.5t-39.5 -98.5q0 -33 7 -55.5t19.5 -39t30 -28t38.5 -21.5l111 -52q31 -14 59 -30.5t49.5 -39t34 -52.5t12.5 -71t-12.5 -76t-37.5 -60t-62.5 -39t-86.5 -14zM251 -190q-37 0 -69 11l10 29
q11 -5 26 -8t29 -3q23 0 43 9t20 33q0 21 -15.5 30t-35.5 9q-25 0 -43 -9l-14 14l48 76h30l-33 -56q13 3 28 3q32 0 52 -16.5t20 -47.5q0 -20 -8.5 -34t-22 -23t-30.5 -13t-35 -4z" />
    <glyph glyph-name="Scircumflex" unicode="&#x15c;" horiz-adv-x="496" 
d="M226 875h45l104 -113h-40l-88 82l-88 -82h-40zM257 -13q-48 0 -87.5 13.5t-68.5 41.5t-45 70.5t-16 101.5v8h41v-8q0 -96 48.5 -143t125.5 -47q81 0 120 41t39 105q0 32 -8 55.5t-23.5 42.5t-38.5 34t-54 30l-110 50q-22 10 -44.5 23.5t-40.5 34.5t-29.5 51t-11.5 72
q0 43 14 76t39.5 55t60.5 33t76 11t75.5 -12.5t60 -37t40 -60t14.5 -81.5v-7h-41v7q0 69 -40 110.5t-109 41.5q-70 0 -109.5 -35.5t-39.5 -98.5q0 -33 7 -55.5t19.5 -39t30 -28t38.5 -21.5l111 -52q31 -14 59 -30.5t49.5 -39t34 -52.5t12.5 -71t-12.5 -76t-37.5 -60
t-62.5 -39t-86.5 -14z" />
    <glyph glyph-name="uni0218" unicode="&#x218;" horiz-adv-x="496" 
d="M271 -49v-11q0 -25 -1.5 -48t-9 -41t-22 -29.5t-40.5 -13.5v39q22 5 28 25t6 67v12h39zM257 -13q-48 0 -87.5 13.5t-68.5 41.5t-45 70.5t-16 101.5v8h41v-8q0 -96 48.5 -143t125.5 -47q81 0 120 41t39 105q0 32 -8 55.5t-23.5 42.5t-38.5 34t-54 30l-110 50
q-22 10 -44.5 23.5t-40.5 34.5t-29.5 51t-11.5 72q0 43 14 76t39.5 55t60.5 33t76 11t75.5 -12.5t60 -37t40 -60t14.5 -81.5v-7h-41v7q0 69 -40 110.5t-109 41.5q-70 0 -109.5 -35.5t-39.5 -98.5q0 -33 7 -55.5t19.5 -39t30 -28t38.5 -21.5l111 -52q31 -14 59 -30.5
t49.5 -39t34 -52.5t12.5 -71t-12.5 -76t-37.5 -60t-62.5 -39t-86.5 -14z" />
    <glyph glyph-name="Tcaron" unicode="&#x164;" horiz-adv-x="443" 
d="M198 773l-107 113h40l88 -83l88 83h40l-104 -113h-45zM201 686h-199v39h439v-39h-199v-686h-41v686z" />
    <glyph glyph-name="uni0162" unicode="&#x162;" horiz-adv-x="443" 
d="M240 -49v-11q0 -25 -1.5 -48t-9 -41t-22 -29.5t-40.5 -13.5v39q22 5 28 25t6 67v12h39zM201 686h-199v39h439v-39h-199v-686h-41v686z" />
    <glyph glyph-name="uni021A" unicode="&#x21a;" horiz-adv-x="443" 
d="M240 -49v-11q0 -25 -1.5 -48t-9 -41t-22 -29.5t-40.5 -13.5v39q22 5 28 25t6 67v12h39zM201 686h-199v39h439v-39h-199v-686h-41v686z" />
    <glyph glyph-name="Ubreve" unicode="&#x16c;" horiz-adv-x="552" 
d="M276 -13q-57 0 -95 14t-61 45t-32.5 79.5t-9.5 117.5v482h41v-499q0 -54 8 -92.5t26.5 -63t48.5 -35.5t74 -11t74 11t48.5 35.5t26.5 63t8 92.5v499h41v-482q0 -69 -9.5 -117.5t-32.5 -79.5t-61 -45t-95 -14zM275 773q-54 0 -82 29t-28 84h34q0 -42 20.5 -63t55.5 -21
t55.5 21t20.5 63h34q0 -55 -28 -84t-82 -29z" />
    <glyph glyph-name="Uhungarumlaut" unicode="&#x170;" horiz-adv-x="552" 
d="M276 -13q-57 0 -95 14t-61 45t-32.5 79.5t-9.5 117.5v482h41v-499q0 -54 8 -92.5t26.5 -63t48.5 -35.5t74 -11t74 11t48.5 35.5t26.5 63t8 92.5v499h41v-482q0 -69 -9.5 -117.5t-32.5 -79.5t-61 -45t-95 -14zM258 897h54l-102 -113h-35zM409 897h54l-102 -113h-35z" />
    <glyph glyph-name="Umacron" unicode="&#x16a;" horiz-adv-x="552" 
d="M160 851h228v-39h-228v39zM276 -13q-57 0 -95 14t-61 45t-32.5 79.5t-9.5 117.5v482h41v-499q0 -54 8 -92.5t26.5 -63t48.5 -35.5t74 -11t74 11t48.5 35.5t26.5 63t8 92.5v499h41v-482q0 -69 -9.5 -117.5t-32.5 -79.5t-61 -45t-95 -14z" />
    <glyph glyph-name="Uogonek" unicode="&#x172;" horiz-adv-x="552" 
d="M276 -13q-57 0 -95 14t-61 45t-32.5 79.5t-9.5 117.5v482h41v-499q0 -54 8 -92.5t26.5 -63t48.5 -35.5t74 -11t74 11t48.5 35.5t26.5 63t8 92.5v499h41v-482q0 -69 -9.5 -117.5t-32.5 -79.5t-61 -45t-95 -14zM286 -180q-16 0 -32.5 4.5t-29.5 13.5t-21.5 23.5t-8.5 34.5
t9 36.5t23 29.5t31 22.5t34 15.5h41q-45 -21 -71 -42.5t-26 -53.5q0 -24 16.5 -36.5t41.5 -12.5q19 0 39 5v-35q-9 -3 -20.5 -4t-25.5 -1z" />
    <glyph glyph-name="Uring" unicode="&#x16e;" horiz-adv-x="552" 
d="M276 -13q-57 0 -95 14t-61 45t-32.5 79.5t-9.5 117.5v482h41v-499q0 -54 8 -92.5t26.5 -63t48.5 -35.5t74 -11t74 11t48.5 35.5t26.5 63t8 92.5v499h41v-482q0 -69 -9.5 -117.5t-32.5 -79.5t-61 -45t-95 -14zM274 768q-36 0 -61.5 23.5t-25.5 58.5q0 36 25.5 59t61.5 23
t61 -23t25 -59q0 -35 -25 -58.5t-61 -23.5zM274 797q21 0 37.5 14t16.5 39t-16.5 39.5t-37.5 14.5q-22 0 -38.5 -14.5t-16.5 -39.5t16.5 -39t38.5 -14z" />
    <glyph glyph-name="Utilde" unicode="&#x168;" horiz-adv-x="552" 
d="M150 783q3 50 24.5 72t48.5 22q17 0 31 -9t26.5 -20.5t25 -20.5t26.5 -9t24 11t12 48h34q-3 -50 -24 -72t-49 -22q-18 0 -32.5 9t-27 20.5t-24 20.5t-24.5 9q-14 0 -24.5 -11t-12.5 -48h-34zM276 -13q-57 0 -95 14t-61 45t-32.5 79.5t-9.5 117.5v482h41v-499
q0 -54 8 -92.5t26.5 -63t48.5 -35.5t74 -11t74 11t48.5 35.5t26.5 63t8 92.5v499h41v-482q0 -69 -9.5 -117.5t-32.5 -79.5t-61 -45t-95 -14z" />
    <glyph glyph-name="uni1EE4" unicode="&#x1ee4;" horiz-adv-x="552" 
d="M255 -80h39v-95h-39v95zM276 -13q-57 0 -95 14t-61 45t-32.5 79.5t-9.5 117.5v482h41v-499q0 -54 8 -92.5t26.5 -63t48.5 -35.5t74 -11t74 11t48.5 35.5t26.5 63t8 92.5v499h41v-482q0 -69 -9.5 -117.5t-32.5 -79.5t-61 -45t-95 -14z" />
    <glyph glyph-name="Wacute" unicode="&#x1e82;" horiz-adv-x="723" 
d="M17 725h41l141 -673l138 673h49l138 -673l141 673h41l-154 -725h-55l-136 665l-135 -665h-55zM430 886h54l-102 -113h-35z" />
    <glyph glyph-name="Wcircumflex" unicode="&#x174;" horiz-adv-x="723" 
d="M338 875h45l104 -113h-40l-88 82l-88 -82h-40zM17 725h41l141 -673l138 673h49l138 -673l141 673h41l-154 -725h-55l-136 665l-135 -665h-55z" />
    <glyph glyph-name="Wdieresis" unicode="&#x1e84;" horiz-adv-x="723" 
d="M242 878h41v-96h-41v96zM438 878h41v-96h-41v96zM17 725h41l141 -673l138 673h49l138 -673l141 673h41l-154 -725h-55l-136 665l-135 -665h-55z" />
    <glyph glyph-name="Wgrave" unicode="&#x1e80;" horiz-adv-x="723" 
d="M242 886h54l83 -113h-35zM17 725h41l141 -673l138 673h49l138 -673l141 673h41l-154 -725h-55l-136 665l-135 -665h-55z" />
    <glyph glyph-name="Ycircumflex" unicode="&#x176;" horiz-adv-x="473" 
d="M216 275l-202 450h41l182 -407l182 407h40l-202 -450v-275h-41v275zM214 875h45l104 -113h-40l-88 82l-88 -82h-40z" />
    <glyph glyph-name="Ydieresis" unicode="&#x178;" horiz-adv-x="473" 
d="M216 275l-202 450h41l182 -407l182 407h40l-202 -450v-275h-41v275zM119 878h41v-96h-41v96zM315 878h41v-96h-41v96z" />
    <glyph glyph-name="Ygrave" unicode="&#x1ef2;" horiz-adv-x="473" 
d="M216 275l-202 450h41l182 -407l182 407h40l-202 -450v-275h-41v275zM132 886h54l83 -113h-35z" />
    <glyph glyph-name="uni0232" unicode="&#x232;" horiz-adv-x="473" 
d="M216 275l-202 450h41l182 -407l182 407h40l-202 -450v-275h-41v275zM123 851h228v-39h-228v39z" />
    <glyph glyph-name="Zacute" unicode="&#x179;" horiz-adv-x="452" 
d="M27 38l357 648h-339v39h384v-37l-357 -649h364v-39h-409v38zM276 886h54l-102 -113h-35z" />
    <glyph glyph-name="Zcaron" unicode="&#x17d;" horiz-adv-x="452" 
d="M226 773l-107 113h40l88 -83l88 83h40l-104 -113h-45zM27 38l357 648h-339v39h384v-37l-357 -649h364v-39h-409v38z" />
    <glyph glyph-name="Zdotaccent" unicode="&#x17b;" horiz-adv-x="452" 
d="M220 877h41v-96h-41v96zM27 38l357 648h-339v39h384v-37l-357 -649h364v-39h-409v38z" />
    <glyph glyph-name="abreve" unicode="&#x103;" horiz-adv-x="420" 
d="M174 -13q-30 0 -55 10.5t-43 29t-28 44.5t-10 57v9q0 28 9 53t38 49t85 48t149 50v53q0 37 -8.5 61t-23.5 38.5t-36 20t-45 5.5q-25 0 -46.5 -6.5t-38 -21t-26 -37t-9.5 -55.5v-12h-39v12q0 77 44.5 115.5t116.5 38.5q33 0 60.5 -7t47.5 -25t31 -49.5t11 -80.5v-48
q0 -30 -0.5 -62.5t-0.5 -62.5v-47q0 -37 0.5 -62.5t1 -44t1.5 -32.5t1 -28h-38l-1 90q-17 -47 -52.5 -75t-95.5 -28zM180 22q27 0 52 9.5t44.5 31.5t31.5 57.5t12 88.5v94q-76 -21 -123 -39.5t-73.5 -38t-36 -41.5t-9.5 -50v-9q0 -46 28 -74.5t74 -28.5zM208 612
q-54 0 -82 29t-28 84h34q0 -42 20 -63t56 -21t56 21t20 63h34q0 -55 -28 -84t-82 -29z" />
    <glyph glyph-name="amacron" unicode="&#x101;" horiz-adv-x="420" 
d="M174 -13q-30 0 -55 10.5t-43 29t-28 44.5t-10 57v9q0 28 9 53t38 49t85 48t149 50v53q0 37 -8.5 61t-23.5 38.5t-36 20t-45 5.5q-25 0 -46.5 -6.5t-38 -21t-26 -37t-9.5 -55.5v-12h-39v12q0 77 44.5 115.5t116.5 38.5q33 0 60.5 -7t47.5 -25t31 -49.5t11 -80.5v-48
q0 -30 -0.5 -62.5t-0.5 -62.5v-47q0 -37 0.5 -62.5t1 -44t1.5 -32.5t1 -28h-38l-1 90q-17 -47 -52.5 -75t-95.5 -28zM180 22q27 0 52 9.5t44.5 31.5t31.5 57.5t12 88.5v94q-76 -21 -123 -39.5t-73.5 -38t-36 -41.5t-9.5 -50v-9q0 -46 28 -74.5t74 -28.5zM102 684h217v-34
h-217v34z" />
    <glyph glyph-name="aogonek" unicode="&#x105;" horiz-adv-x="420" 
d="M174 -13q-30 0 -55 10.5t-43 29t-28 44.5t-10 57v9q0 28 9 53t38 49t85 48t149 50v53q0 37 -8.5 61t-23.5 38.5t-36 20t-45 5.5q-25 0 -46.5 -6.5t-38 -21t-26 -37t-9.5 -55.5v-12h-39v12q0 77 44.5 115.5t116.5 38.5q33 0 60.5 -7t47.5 -25t31 -49.5t11 -80.5v-48
q0 -30 -0.5 -62.5t-0.5 -62.5v-47q0 -37 0.5 -62.5t1 -44t1.5 -32.5t1 -28q-19 -9 -36 -22.5t-30 -28.5t-20.5 -30t-7.5 -27q0 -20 15 -33.5t43 -13.5q18 0 36 5v-33q-11 -3 -22 -4t-23 -1q-17 0 -33.5 4.5t-29 14t-20.5 23.5t-8 33q0 15 9 32.5t23.5 33.5t31.5 28.5
t34 18.5l-1 90q-17 -47 -52.5 -75t-95.5 -28zM180 22q27 0 52 9.5t44.5 31.5t31.5 57.5t12 88.5v94q-76 -21 -123 -39.5t-73.5 -38t-36 -41.5t-9.5 -50v-9q0 -46 28 -74.5t74 -28.5z" />
    <glyph glyph-name="cacute" unicode="&#x107;" horiz-adv-x="408" 
d="M257 725h54l-90 -116h-32zM215 -13q-90 0 -130 60t-40 184v71q0 125 40 185t130 60q73 0 114 -48t41 -128v-4h-39v4q0 63 -28 102t-88 39q-40 0 -65.5 -16t-39.5 -45t-19.5 -70.5t-5.5 -92.5v-43q0 -51 5.5 -92t19.5 -70t39.5 -45t65.5 -16q60 0 88 39t28 101v5h39v-5
q0 -79 -41 -127t-114 -48z" />
    <glyph glyph-name="ccaron" unicode="&#x10d;" horiz-adv-x="408" 
d="M92 725h39l85 -82l85 82h38l-104 -116h-39zM215 -13q-90 0 -130 60t-40 184v71q0 125 40 185t130 60q73 0 114 -48t41 -128v-4h-39v4q0 63 -28 102t-88 39q-40 0 -65.5 -16t-39.5 -45t-19.5 -70.5t-5.5 -92.5v-43q0 -51 5.5 -92t19.5 -70t39.5 -45t65.5 -16q60 0 88 39
t28 101v5h39v-5q0 -79 -41 -127t-114 -48z" />
    <glyph glyph-name="ccircumflex" unicode="&#x109;" horiz-adv-x="408" 
d="M194 725h39l104 -116h-38l-85 82l-85 -82h-39zM215 -13q-90 0 -130 60t-40 184v71q0 125 40 185t130 60q73 0 114 -48t41 -128v-4h-39v4q0 63 -28 102t-88 39q-40 0 -65.5 -16t-39.5 -45t-19.5 -70.5t-5.5 -92.5v-43q0 -51 5.5 -92t19.5 -70t39.5 -45t65.5 -16
q60 0 88 39t28 101v5h39v-5q0 -79 -41 -127t-114 -48z" />
    <glyph glyph-name="cdotaccent" unicode="&#x10b;" horiz-adv-x="408" 
d="M215 -13q-90 0 -130 60t-40 184v71q0 125 40 185t130 60q73 0 114 -48t41 -128v-4h-39v4q0 63 -28 102t-88 39q-40 0 -65.5 -16t-39.5 -45t-19.5 -70.5t-5.5 -92.5v-43q0 -51 5.5 -92t19.5 -70t39.5 -45t65.5 -16q60 0 88 39t28 101v5h39v-5q0 -79 -41 -127t-114 -48z
M194 725h39v-96h-39v96z" />
    <glyph glyph-name="dcaron" unicode="&#x10f;" horiz-adv-x="486" 
d="M201 -13q-76 0 -116 59.5t-40 178.5v84q0 119 40 178.5t116 59.5q54 0 91 -33t50 -80v291h39v-725h-39v100q-13 -47 -50 -80t-91 -33zM205 22q29 0 54.5 13.5t44.5 42.5t30 76t11 113t-11 112.5t-30 76t-44.5 43t-54.5 13.5q-66 0 -93 -57.5t-27 -171.5v-32
q0 -114 27 -171.5t93 -57.5zM468 725h43l-49 -170h-28z" />
    <glyph glyph-name="dcroat" unicode="&#x111;" horiz-adv-x="452" 
d="M255 626h87v99h39v-99h81v-34h-81v-592h-39v100q-13 -47 -50 -80t-91 -33q-76 0 -116 59.5t-40 178.5v84q0 119 40 178.5t116 59.5q54 0 91 -33t50 -80v158h-87v34zM205 22q29 0 54.5 13.5t44.5 42.5t30 76t11 113t-11 112.5t-30 76t-44.5 43t-54.5 13.5q-66 0 -93 -57.5
t-27 -171.5v-32q0 -114 27 -171.5t93 -57.5z" />
    <glyph glyph-name="ebreve" unicode="&#x115;" horiz-adv-x="422" 
d="M219 -13q-90 0 -132 60t-42 184v71q0 125 40 185t130 60q88 0 126 -56.5t38 -174.5v-46h-294v-25q0 -51 6 -92t21 -70t41 -45t66 -16q60 0 89.5 37.5t29.5 100.5v5h39v-5q0 -79 -42.5 -126t-115.5 -47zM85 305h254v4q0 47 -5 84.5t-18.5 64t-37.5 40.5t-63 14
q-40 0 -65.5 -15.5t-39.5 -43t-19.5 -65t-5.5 -81.5v-2zM213 612q-54 0 -82 29t-28 84h34q0 -42 20 -63t56 -21t56 21t20 63h34q0 -55 -28 -84t-82 -29z" />
    <glyph glyph-name="ecaron" unicode="&#x11b;" horiz-adv-x="422" 
d="M91 725h39l85 -82l85 82h38l-104 -116h-39zM219 -13q-90 0 -132 60t-42 184v71q0 125 40 185t130 60q88 0 126 -56.5t38 -174.5v-46h-294v-25q0 -51 6 -92t21 -70t41 -45t66 -16q60 0 89.5 37.5t29.5 100.5v5h39v-5q0 -79 -42.5 -126t-115.5 -47zM85 305h254v4
q0 47 -5 84.5t-18.5 64t-37.5 40.5t-63 14q-40 0 -65.5 -15.5t-39.5 -43t-19.5 -65t-5.5 -81.5v-2z" />
    <glyph glyph-name="emacron" unicode="&#x113;" horiz-adv-x="422" 
d="M219 -13q-90 0 -132 60t-42 184v71q0 125 40 185t130 60q88 0 126 -56.5t38 -174.5v-46h-294v-25q0 -51 6 -92t21 -70t41 -45t66 -16q60 0 89.5 37.5t29.5 100.5v5h39v-5q0 -79 -42.5 -126t-115.5 -47zM85 305h254v4q0 47 -5 84.5t-18.5 64t-37.5 40.5t-63 14
q-40 0 -65.5 -15.5t-39.5 -43t-19.5 -65t-5.5 -81.5v-2zM104 684h217v-34h-217v34z" />
    <glyph glyph-name="eogonek" unicode="&#x119;" horiz-adv-x="422" 
d="M323 -183q-11 -3 -22 -4t-23 -1q-17 0 -33.5 4.5t-29 14t-20.5 23.5t-8 33q0 26 16.5 52t39.5 49q-6 -1 -12 -1h-12q-90 0 -132 60t-42 184v71q0 125 40 185t130 60q88 0 126 -56.5t38 -174.5v-46h-294v-25q0 -51 6 -92t21 -70t41 -45t66 -16q60 0 89.5 37.5t29.5 100.5
v5h39v-5q0 -45 -14.5 -80t-40.5 -58q-12 -11 -28 -27t-30.5 -34t-24.5 -36t-10 -33q0 -20 15 -33.5t43 -13.5q18 0 36 5v-33zM85 305h254v4q0 47 -5 84.5t-18.5 64t-37.5 40.5t-63 14q-40 0 -65.5 -15.5t-39.5 -43t-19.5 -65t-5.5 -81.5v-2z" />
    <glyph glyph-name="edotaccent" unicode="&#x117;" horiz-adv-x="422" 
d="M219 -13q-90 0 -132 60t-42 184v71q0 125 40 185t130 60q88 0 126 -56.5t38 -174.5v-46h-294v-25q0 -51 6 -92t21 -70t41 -45t66 -16q60 0 89.5 37.5t29.5 100.5v5h39v-5q0 -79 -42.5 -126t-115.5 -47zM85 305h254v4q0 47 -5 84.5t-18.5 64t-37.5 40.5t-63 14
q-40 0 -65.5 -15.5t-39.5 -43t-19.5 -65t-5.5 -81.5v-2zM193 725h39v-96h-39v96z" />
    <glyph glyph-name="gbreve" unicode="&#x11f;" horiz-adv-x="452" 
d="M219 -188q-48 0 -77.5 14t-46 35.5t-22 48.5t-5.5 54v6h38v-6q0 -26 5.5 -47t18 -37t34 -24.5t54.5 -8.5q68 0 96 36.5t28 112.5v126q-12 -48 -49.5 -80.5t-91.5 -32.5q-76 0 -116 64.5t-40 183.5v63q0 119 40 173t116 54q27 0 50 -9t41.5 -24t31 -35.5t18.5 -44.5v104
h39v-530q0 -44 -7.5 -80t-26 -61.5t-50 -40t-78.5 -14.5zM205 43q29 0 54.5 13t44.5 41.5t30 73t11 107.5q0 62 -11 106.5t-30 73t-44.5 41.5t-54.5 13q-66 0 -93 -52.5t-27 -165.5v-11q0 -114 27 -177t93 -63zM204 612q-54 0 -82 29t-28 84h34q0 -42 20 -63t56 -21t56 21
t20 63h34q0 -55 -28 -84t-82 -29z" />
    <glyph glyph-name="gcircumflex" unicode="&#x11d;" horiz-adv-x="452" 
d="M193 725h39l104 -116h-38l-85 82l-85 -82h-39zM219 -188q-48 0 -77.5 14t-46 35.5t-22 48.5t-5.5 54v6h38v-6q0 -26 5.5 -47t18 -37t34 -24.5t54.5 -8.5q68 0 96 36.5t28 112.5v126q-12 -48 -49.5 -80.5t-91.5 -32.5q-76 0 -116 64.5t-40 183.5v63q0 119 40 173t116 54
q27 0 50 -9t41.5 -24t31 -35.5t18.5 -44.5v104h39v-530q0 -44 -7.5 -80t-26 -61.5t-50 -40t-78.5 -14.5zM205 43q29 0 54.5 13t44.5 41.5t30 73t11 107.5q0 62 -11 106.5t-30 73t-44.5 41.5t-54.5 13q-66 0 -93 -52.5t-27 -165.5v-11q0 -114 27 -177t93 -63z" />
    <glyph glyph-name="uni0123" unicode="&#x123;" horiz-adv-x="452" 
d="M194 614v11q0 25 1.5 48t9 41t22 29.5t40.5 13.5v-39q-23 -5 -28.5 -25t-5.5 -67v-12h-39zM219 -188q-48 0 -77.5 14t-46 35.5t-22 48.5t-5.5 54v6h38v-6q0 -26 5.5 -47t18 -37t34 -24.5t54.5 -8.5q68 0 96 36.5t28 112.5v126q-12 -48 -49.5 -80.5t-91.5 -32.5
q-76 0 -116 64.5t-40 183.5v63q0 119 40 173t116 54q27 0 50 -9t41.5 -24t31 -35.5t18.5 -44.5v104h39v-530q0 -44 -7.5 -80t-26 -61.5t-50 -40t-78.5 -14.5zM205 43q29 0 54.5 13t44.5 41.5t30 73t11 107.5q0 62 -11 106.5t-30 73t-44.5 41.5t-54.5 13q-66 0 -93 -52.5
t-27 -165.5v-11q0 -114 27 -177t93 -63z" />
    <glyph glyph-name="gdotaccent" unicode="&#x121;" horiz-adv-x="452" 
d="M219 -188q-48 0 -77.5 14t-46 35.5t-22 48.5t-5.5 54v6h38v-6q0 -26 5.5 -47t18 -37t34 -24.5t54.5 -8.5q68 0 96 36.5t28 112.5v126q-12 -48 -49.5 -80.5t-91.5 -32.5q-76 0 -116 64.5t-40 183.5v63q0 119 40 173t116 54q27 0 50 -9t41.5 -24t31 -35.5t18.5 -44.5v104
h39v-530q0 -44 -7.5 -80t-26 -61.5t-50 -40t-78.5 -14.5zM205 43q29 0 54.5 13t44.5 41.5t30 73t11 107.5q0 62 -11 106.5t-30 73t-44.5 41.5t-54.5 13q-66 0 -93 -52.5t-27 -165.5v-11q0 -114 27 -177t93 -63zM194 725h39v-96h-39v96z" />
    <glyph glyph-name="hbar" unicode="&#x127;" horiz-adv-x="438" 
d="M0 626h71v99h39v-99h121v-34h-121v-158q6 21 18 41.5t30 36.5t41 25.5t51 9.5q75 0 102 -48.5t27 -146.5v-352h-39v341q0 42 -4 74t-14.5 53.5t-29 32.5t-47.5 11q-28 0 -52.5 -13.5t-43 -40.5t-29 -67.5t-10.5 -94.5v-296h-39v592h-71v34z" />
    <glyph glyph-name="hcircumflex" unicode="&#x125;" horiz-adv-x="438" 
d="M71 725h39v-291q6 21 18 41.5t30 36.5t41 25.5t51 9.5q75 0 102 -48.5t27 -146.5v-352h-39v341q0 42 -4 74t-14.5 53.5t-29 32.5t-47.5 11q-28 0 -52.5 -13.5t-43 -40.5t-29 -67.5t-10.5 -94.5v-296h-39v725zM68 875h45l104 -113h-40l-88 82l-88 -82h-40z" />
    <glyph glyph-name="dotlessi" unicode="&#x131;" 
d="M71 538h39v-538h-39v538z" />
    <glyph glyph-name="ibreve" unicode="&#x12d;" 
d="M90 612q-48 0 -69 29t-21 84h37q0 -42 13 -61.5t40 -19.5t40 19.5t13 61.5h37q0 -55 -21 -84t-69 -29zM73 538h39v-538h-39v538z" />
    <glyph glyph-name="imacron" unicode="&#x12b;" 
d="M2 684h177v-34h-177v34zM73 538h39v-538h-39v538z" />
    <glyph glyph-name="iogonek" unicode="&#x12f;" 
d="M71 538h39v-538h2q-39 -19 -66.5 -49t-27.5 -59q0 -20 15 -33.5t43 -13.5q18 0 36 5v-33q-11 -3 -22 -4t-23 -1q-17 0 -33.5 4.5t-29 14t-20.5 23.5t-8 33q0 18 9 36t23 33t31 26.5t34 17.5h-2v538zM71 725h39v-96h-39v96z" />
    <glyph glyph-name="itilde" unicode="&#x129;" 
d="M-26 611q5 50 23.5 72t49.5 22q17 0 28.5 -9t21 -20.5t17.5 -20.5t19 -9q20 0 27 15t9 44h37q-5 -50 -25 -72t-48 -22q-18 0 -30 9t-21 20.5t-17 20.5t-18 9q-18 0 -26 -15t-10 -44h-37zM73 538h39v-538h-39v538z" />
    <glyph glyph-name="uni1ECB" unicode="&#x1ecb;" 
d="M73 -80h39v-95h-39v95zM71 538h39v-538h-39v538zM71 725h39v-96h-39v96z" />
    <glyph glyph-name="uni0237" unicode="&#x237;" 
d="M-19 -141h16q25 0 40 3.5t22.5 13t9.5 27t2 46.5v589h39v-596q0 -33 -4 -55t-15.5 -36t-31.5 -20t-53 -6h-25v34z" />
    <glyph glyph-name="jcircumflex" unicode="&#x135;" 
d="M71 725h39l84 -116h-38l-65 82l-65 -82h-39zM-17 -141h16q25 0 40 3.5t22.5 13t9.5 27t2 46.5v589h39v-596q0 -33 -4 -55t-15.5 -36t-31.5 -20t-53 -6h-25v34z" />
    <glyph glyph-name="uni0137" unicode="&#x137;" horiz-adv-x="404" 
d="M240 -49v-11q0 -25 -1.5 -48t-9 -41t-22 -29.5t-40.5 -13.5v39q22 5 28 25t6 67v12h39zM188 284l-78 -106v-178h-39v725h39v-487l222 300h44l-163 -221l188 -317h-44z" />
    <glyph glyph-name="lacute" unicode="&#x13a;" 
d="M71 725h39v-725h-39v725zM161 886h54l-102 -113h-35z" />
    <glyph glyph-name="lcaron" unicode="&#x13e;" horiz-adv-x="215" 
d="M197 725h43l-49 -170h-28zM71 725h39v-725h-39v725z" />
    <glyph glyph-name="uni013C" unicode="&#x13c;" 
d="M110 -49v-11q0 -25 -1.5 -48t-9 -41t-22 -29.5t-40.5 -13.5v39q22 5 28 25t6 67v12h39zM71 725h39v-725h-39v725z" />
    <glyph glyph-name="ldot" unicode="&#x140;" horiz-adv-x="220" 
d="M71 725h39v-725h-39v725zM181 435h39v-96h-39v96z" />
    <glyph glyph-name="lslash" unicode="&#x142;" horiz-adv-x="239" 
d="M20 330l80 61v334h39v-304l80 61v-41l-80 -61v-380h-39v350l-80 -61v41z" />
    <glyph glyph-name="nacute" unicode="&#x144;" horiz-adv-x="438" 
d="M265 725h54l-90 -116h-32zM71 538h39v-104q6 21 18 41.5t30 36.5t41 25.5t51 9.5q75 0 102 -48.5t27 -146.5v-352h-39v341q0 42 -4 74t-14.5 53.5t-29 32.5t-47.5 11q-28 0 -52.5 -13.5t-43 -40.5t-29 -67.5t-10.5 -94.5v-296h-39v538z" />
    <glyph glyph-name="ncaron" unicode="&#x148;" horiz-adv-x="438" 
d="M105 725h39l85 -82l85 82h38l-104 -116h-39zM71 538h39v-104q6 21 18 41.5t30 36.5t41 25.5t51 9.5q75 0 102 -48.5t27 -146.5v-352h-39v341q0 42 -4 74t-14.5 53.5t-29 32.5t-47.5 11q-28 0 -52.5 -13.5t-43 -40.5t-29 -67.5t-10.5 -94.5v-296h-39v538z" />
    <glyph glyph-name="uni0146" unicode="&#x146;" horiz-adv-x="438" 
d="M244 -49v-11q0 -25 -1.5 -48t-9 -41t-22 -29.5t-40.5 -13.5v39q22 5 28 25t6 67v12h39zM71 538h39v-104q6 21 18 41.5t30 36.5t41 25.5t51 9.5q75 0 102 -48.5t27 -146.5v-352h-39v341q0 42 -4 74t-14.5 53.5t-29 32.5t-47.5 11q-28 0 -52.5 -13.5t-43 -40.5t-29 -67.5
t-10.5 -94.5v-296h-39v538z" />
    <glyph glyph-name="oe" unicode="&#x153;" horiz-adv-x="722" 
d="M214 -13q-88 0 -128.5 60t-40.5 184v71q0 125 40.5 185t128.5 60q112 0 148 -102q37 103 151 103q88 0 127 -56.5t39 -174.5v-46h-296v-25q0 -51 5.5 -92t20 -70t40 -45t65.5 -16q60 0 90 38t30 100v5h38v-5q0 -79 -42.5 -126t-115.5 -47q-113 0 -151 101
q-35 -102 -149 -102zM214 22q39 0 64.5 16.5t39.5 46.5t19.5 72.5t5.5 95.5v28q0 53 -5.5 95.5t-19.5 72.5t-39.5 46.5t-64.5 16.5q-40 0 -65 -16.5t-39.5 -46.5t-19.5 -72.5t-5 -95.5v-28q0 -53 5 -95.5t19.5 -72.5t39.5 -46.5t65 -16.5zM639 306v9q0 46 -5.5 82.5
t-19.5 62t-38.5 39.5t-62.5 14q-40 0 -65 -15t-39.5 -41.5t-20 -63t-5.5 -80.5v-7h256z" />
    <glyph glyph-name="obreve" unicode="&#x14f;" horiz-adv-x="428" 
d="M214 22q39 0 64.5 16.5t39.5 46.5t19.5 72.5t5.5 95.5v28q0 53 -5.5 95.5t-19.5 72.5t-39.5 46.5t-64.5 16.5q-40 0 -65 -16.5t-39.5 -46.5t-19.5 -72.5t-5 -95.5v-28q0 -53 5 -95.5t19.5 -72.5t39.5 -46.5t65 -16.5zM214 -13q-88 0 -128.5 60t-40.5 184v71
q0 125 40.5 185t128.5 60t128.5 -60t40.5 -185v-71q0 -124 -40.5 -184t-128.5 -60zM214 612q-54 0 -82 29t-28 84h34q0 -42 20 -63t56 -21t56 21t20 63h34q0 -55 -28 -84t-82 -29z" />
    <glyph glyph-name="ohungarumlaut" unicode="&#x151;" horiz-adv-x="428" 
d="M179 725h54l-90 -116h-32zM308 725h54l-90 -116h-32zM214 22q39 0 64.5 16.5t39.5 46.5t19.5 72.5t5.5 95.5v28q0 53 -5.5 95.5t-19.5 72.5t-39.5 46.5t-64.5 16.5q-40 0 -65 -16.5t-39.5 -46.5t-19.5 -72.5t-5 -95.5v-28q0 -53 5 -95.5t19.5 -72.5t39.5 -46.5t65 -16.5z
M214 -13q-88 0 -128.5 60t-40.5 184v71q0 125 40.5 185t128.5 60t128.5 -60t40.5 -185v-71q0 -124 -40.5 -184t-128.5 -60z" />
    <glyph glyph-name="omacron" unicode="&#x14d;" horiz-adv-x="428" 
d="M105 684h217v-34h-217v34zM214 22q39 0 64.5 16.5t39.5 46.5t19.5 72.5t5.5 95.5v28q0 53 -5.5 95.5t-19.5 72.5t-39.5 46.5t-64.5 16.5q-40 0 -65 -16.5t-39.5 -46.5t-19.5 -72.5t-5 -95.5v-28q0 -53 5 -95.5t19.5 -72.5t39.5 -46.5t65 -16.5zM214 -13q-88 0 -128.5 60
t-40.5 184v71q0 125 40.5 185t128.5 60t128.5 -60t40.5 -185v-71q0 -124 -40.5 -184t-128.5 -60z" />
    <glyph glyph-name="uni1ECD" unicode="&#x1ecd;" horiz-adv-x="428" 
d="M194 -80h39v-95h-39v95zM214 22q39 0 64.5 16.5t39.5 46.5t19.5 72.5t5.5 95.5v28q0 53 -5.5 95.5t-19.5 72.5t-39.5 46.5t-64.5 16.5q-40 0 -65 -16.5t-39.5 -46.5t-19.5 -72.5t-5 -95.5v-28q0 -53 5 -95.5t19.5 -72.5t39.5 -46.5t65 -16.5zM214 -13q-88 0 -128.5 60
t-40.5 184v71q0 125 40.5 185t128.5 60t128.5 -60t40.5 -185v-71q0 -124 -40.5 -184t-128.5 -60z" />
    <glyph glyph-name="racute" unicode="&#x155;" horiz-adv-x="257" 
d="M189 725h54l-90 -116h-32zM71 538h39v-107q11 43 43 75t88 32h20v-37h-25q-57 0 -91.5 -48t-34.5 -157v-296h-39v538z" />
    <glyph glyph-name="rcaron" unicode="&#x159;" horiz-adv-x="257" 
d="M71 538h39v-107q11 43 43 75t88 32h20v-37h-25q-57 0 -91.5 -48t-34.5 -157v-296h-39v538zM46 725h39l85 -82l85 82h38l-104 -116h-39z" />
    <glyph glyph-name="uni0157" unicode="&#x157;" horiz-adv-x="257" 
d="M109 -49v-11q0 -25 -1.5 -48t-9 -41t-22 -29.5t-40.5 -13.5v39q22 5 28 25t6 67v12h39zM71 538h39v-107q11 43 43 75t88 32h20v-37h-25q-57 0 -91.5 -48t-34.5 -157v-296h-39v538z" />
    <glyph glyph-name="sacute" unicode="&#x15b;" horiz-adv-x="398" 
d="M248 725h54l-90 -116h-32zM204 -13q-72 0 -113.5 45t-41.5 126v6h39v-6q0 -65 28 -100.5t88 -35.5q30 0 52 8.5t36.5 23t21.5 32.5t7 38q0 21 -3 37t-12 30.5t-26 27.5t-46 27l-61 30q-23 11 -42 23t-33 28.5t-22 38.5t-8 53q0 56 38.5 92t103.5 36q32 0 58 -11.5
t44.5 -32t28.5 -47.5t10 -58v-4h-39v4q0 59 -30 86t-72 27t-72.5 -23t-30.5 -68q0 -32 13.5 -57t61.5 -49l72 -35q25 -12 45 -26t33.5 -32t21 -41t7.5 -53q0 -29 -10.5 -54t-30.5 -44.5t-49 -30.5t-67 -11z" />
    <glyph glyph-name="scaron" unicode="&#x161;" horiz-adv-x="398" 
d="M88 725h39l85 -82l85 82h38l-104 -116h-39zM204 -13q-72 0 -113.5 45t-41.5 126v6h39v-6q0 -65 28 -100.5t88 -35.5q30 0 52 8.5t36.5 23t21.5 32.5t7 38q0 21 -3 37t-12 30.5t-26 27.5t-46 27l-61 30q-23 11 -42 23t-33 28.5t-22 38.5t-8 53q0 56 38.5 92t103.5 36
q32 0 58 -11.5t44.5 -32t28.5 -47.5t10 -58v-4h-39v4q0 59 -30 86t-72 27t-72.5 -23t-30.5 -68q0 -32 13.5 -57t61.5 -49l72 -35q25 -12 45 -26t33.5 -32t21 -41t7.5 -53q0 -29 -10.5 -54t-30.5 -44.5t-49 -30.5t-67 -11z" />
    <glyph glyph-name="scedilla" unicode="&#x15f;" horiz-adv-x="398" 
d="M204 -13q-72 0 -113.5 45t-41.5 126v6h39v-6q0 -65 28 -100.5t88 -35.5q30 0 52 8.5t36.5 23t21.5 32.5t7 38q0 21 -3 37t-12 30.5t-26 27.5t-46 27l-61 30q-23 11 -42 23t-33 28.5t-22 38.5t-8 53q0 56 38.5 92t103.5 36q32 0 58 -11.5t44.5 -32t28.5 -47.5t10 -58v-4
h-39v4q0 59 -30 86t-72 27t-72.5 -23t-30.5 -68q0 -32 13.5 -57t61.5 -49l72 -35q25 -12 45 -26t33.5 -32t21 -41t7.5 -53q0 -29 -10.5 -54t-30.5 -44.5t-49 -30.5t-67 -11zM194 -190q-37 0 -69 11l10 29q11 -5 26 -8t29 -3q23 0 43 9t20 33q0 21 -15.5 30t-35.5 9
q-25 0 -43 -9l-14 14l48 76h30l-33 -56q13 3 28 3q32 0 52 -16.5t20 -47.5q0 -20 -8.5 -34t-22 -23t-30.5 -13t-35 -4z" />
    <glyph glyph-name="scircumflex" unicode="&#x15d;" horiz-adv-x="398" 
d="M188 725h39l104 -116h-38l-85 82l-85 -82h-39zM204 -13q-72 0 -113.5 45t-41.5 126v6h39v-6q0 -65 28 -100.5t88 -35.5q30 0 52 8.5t36.5 23t21.5 32.5t7 38q0 21 -3 37t-12 30.5t-26 27.5t-46 27l-61 30q-23 11 -42 23t-33 28.5t-22 38.5t-8 53q0 56 38.5 92t103.5 36
q32 0 58 -11.5t44.5 -32t28.5 -47.5t10 -58v-4h-39v4q0 59 -30 86t-72 27t-72.5 -23t-30.5 -68q0 -32 13.5 -57t61.5 -49l72 -35q25 -12 45 -26t33.5 -32t21 -41t7.5 -53q0 -29 -10.5 -54t-30.5 -44.5t-49 -30.5t-67 -11z" />
    <glyph glyph-name="uni0219" unicode="&#x219;" horiz-adv-x="398" 
d="M226 -49v-11q0 -25 -1.5 -48t-9 -41t-22 -29.5t-40.5 -13.5v39q22 5 28 25t6 67v12h39zM204 -13q-72 0 -113.5 45t-41.5 126v6h39v-6q0 -65 28 -100.5t88 -35.5q30 0 52 8.5t36.5 23t21.5 32.5t7 38q0 21 -3 37t-12 30.5t-26 27.5t-46 27l-61 30q-23 11 -42 23t-33 28.5
t-22 38.5t-8 53q0 56 38.5 92t103.5 36q32 0 58 -11.5t44.5 -32t28.5 -47.5t10 -58v-4h-39v4q0 59 -30 86t-72 27t-72.5 -23t-30.5 -68q0 -32 13.5 -57t61.5 -49l72 -35q25 -12 45 -26t33.5 -32t21 -41t7.5 -53q0 -29 -10.5 -54t-30.5 -44.5t-49 -30.5t-67 -11z" />
    <glyph glyph-name="tcaron" unicode="&#x165;" horiz-adv-x="276" 
d="M262 725h43l-49 -170h-28zM192 0q-32 0 -52.5 6t-32 20t-15.5 36t-4 55v387h-76v34h76v127h39v-127h94v-34h-94v-379q0 -29 2 -47t9.5 -27.5t22 -13t39.5 -3.5h21v-34h-29z" />
    <glyph glyph-name="uni0163" unicode="&#x163;" horiz-adv-x="245" 
d="M169 -49v-11q0 -25 -1.5 -48t-9 -41t-22 -29.5t-40.5 -13.5v39q22 5 28 25t6 67v12h39zM192 0q-32 0 -52.5 6t-32 20t-15.5 36t-4 55v387h-76v34h76v127h39v-127h94v-34h-94v-379q0 -29 2 -47t9.5 -27.5t22 -13t39.5 -3.5h21v-34h-29z" />
    <glyph glyph-name="uni021B" unicode="&#x21b;" horiz-adv-x="245" 
d="M169 -49v-11q0 -25 -1.5 -48t-9 -41t-22 -29.5t-40.5 -13.5v39q22 5 28 25t6 67v12h39zM192 0q-32 0 -52.5 6t-32 20t-15.5 36t-4 55v387h-76v34h76v127h39v-127h94v-34h-94v-379q0 -29 2 -47t9.5 -27.5t22 -13t39.5 -3.5h21v-34h-29z" />
    <glyph glyph-name="ubreve" unicode="&#x16d;" horiz-adv-x="436" 
d="M187 -13q-38 0 -62.5 12t-39 36.5t-20.5 61t-6 85.5v356h39v-345q0 -84 18 -127.5t75 -43.5q28 0 52.5 13.5t43 40.5t29 67.5t10.5 94.5v300h39v-538h-39v100q-6 -21 -18 -41.5t-30 -36.5t-41 -25.5t-50 -9.5zM210 612q-54 0 -82 29t-28 84h34q0 -42 20 -63t56 -21t56 21
t20 63h34q0 -55 -28 -84t-82 -29z" />
    <glyph glyph-name="uhungarumlaut" unicode="&#x171;" horiz-adv-x="436" 
d="M187 725h54l-90 -116h-32zM316 725h54l-90 -116h-32zM187 -13q-38 0 -62.5 12t-39 36.5t-20.5 61t-6 85.5v356h39v-345q0 -84 18 -127.5t75 -43.5q28 0 52.5 13.5t43 40.5t29 67.5t10.5 94.5v300h39v-538h-39v100q-6 -21 -18 -41.5t-30 -36.5t-41 -25.5t-50 -9.5z" />
    <glyph glyph-name="umacron" unicode="&#x16b;" horiz-adv-x="436" 
d="M187 -13q-38 0 -62.5 12t-39 36.5t-20.5 61t-6 85.5v356h39v-345q0 -84 18 -127.5t75 -43.5q28 0 52.5 13.5t43 40.5t29 67.5t10.5 94.5v300h39v-538h-39v100q-6 -21 -18 -41.5t-30 -36.5t-41 -25.5t-50 -9.5zM102 684h217v-34h-217v34z" />
    <glyph glyph-name="uogonek" unicode="&#x173;" horiz-adv-x="436" 
d="M187 -13q-38 0 -62.5 12t-39 36.5t-20.5 61t-6 85.5v356h39v-345q0 -84 18 -127.5t75 -43.5q28 0 52.5 13.5t43 40.5t29 67.5t10.5 94.5v300h39v-538h-39v100q-6 -21 -18 -41.5t-30 -36.5t-41 -25.5t-50 -9.5zM317 -188q-17 0 -33.5 4.5t-29 14t-20.5 23.5t-8 33
q0 18 9 36t23 33t31 26.5t34 17.5h39q-39 -19 -66.5 -49t-27.5 -59q0 -20 15 -33.5t43 -13.5q18 0 36 5v-33q-11 -3 -22 -4t-23 -1z" />
    <glyph glyph-name="uring" unicode="&#x16f;" horiz-adv-x="436" 
d="M211 621q22 0 39.5 15.5t17.5 41.5t-17.5 41.5t-39.5 15.5t-40 -15.5t-18 -41.5t18 -41.5t40 -15.5zM211 596q-36 0 -61.5 22.5t-25.5 59.5q0 35 25.5 58.5t61.5 23.5t61 -23.5t25 -58.5q0 -37 -25 -59.5t-61 -22.5zM187 -13q-38 0 -62.5 12t-39 36.5t-20.5 61t-6 85.5
v356h39v-345q0 -84 18 -127.5t75 -43.5q28 0 52.5 13.5t43 40.5t29 67.5t10.5 94.5v300h39v-538h-39v100q-6 -21 -18 -41.5t-30 -36.5t-41 -25.5t-50 -9.5z" />
    <glyph glyph-name="utilde" unicode="&#x169;" horiz-adv-x="436" 
d="M187 -13q-38 0 -62.5 12t-39 36.5t-20.5 61t-6 85.5v356h39v-345q0 -84 18 -127.5t75 -43.5q28 0 52.5 13.5t43 40.5t29 67.5t10.5 94.5v300h39v-538h-39v100q-6 -21 -18 -41.5t-30 -36.5t-41 -25.5t-50 -9.5zM92 611q3 50 24.5 72t48.5 22q17 0 31 -9t26.5 -20.5
t25 -20.5t26.5 -9t24 11t12 48h34q-3 -50 -24 -72t-49 -22q-18 0 -32.5 9t-27 20.5t-24 20.5t-24.5 9q-14 0 -24.5 -11t-12.5 -48h-34z" />
    <glyph glyph-name="uni1EE5" unicode="&#x1ee5;" horiz-adv-x="436" 
d="M191 -80h39v-95h-39v95zM187 -13q-38 0 -62.5 12t-39 36.5t-20.5 61t-6 85.5v356h39v-345q0 -84 18 -127.5t75 -43.5q28 0 52.5 13.5t43 40.5t29 67.5t10.5 94.5v300h39v-538h-39v100q-6 -21 -18 -41.5t-30 -36.5t-41 -25.5t-50 -9.5z" />
    <glyph glyph-name="wacute" unicode="&#x1e83;" horiz-adv-x="552" 
d="M323 725h54l-90 -116h-32zM21 538h39l91 -479l105 479h40l105 -479l91 479h39l-110 -538h-42l-103 478l-103 -478h-42z" />
    <glyph glyph-name="wcircumflex" unicode="&#x175;" horiz-adv-x="552" 
d="M255 725h39l104 -116h-38l-85 82l-85 -82h-39zM21 538h39l91 -479l105 479h40l105 -479l91 479h39l-110 -538h-42l-103 478l-103 -478h-42z" />
    <glyph glyph-name="wdieresis" unicode="&#x1e85;" horiz-adv-x="552" 
d="M157 725h39v-96h-39v96zM355 725h39v-96h-39v96zM21 538h39l91 -479l105 479h40l105 -479l91 479h39l-110 -538h-42l-103 478l-103 -478h-42z" />
    <glyph glyph-name="wgrave" unicode="&#x1e81;" horiz-adv-x="552" 
d="M21 538h39l91 -479l105 479h40l105 -479l91 479h39l-110 -538h-42l-103 478l-103 -478h-42zM169 725h54l68 -116h-32z" />
    <glyph glyph-name="ycircumflex" unicode="&#x177;" horiz-adv-x="368" 
d="M42 -141h20q21 0 34.5 2t23 11.5t17 28.5t16.5 53l13 46l-152 538h41l131 -486l128 486h40l-153 -550q-15 -54 -26.5 -86.5t-25.5 -49.5t-34 -22t-54 -5h-19v34zM165 725h39l104 -116h-38l-85 82l-85 -82h-39z" />
    <glyph glyph-name="ygrave" unicode="&#x1ef3;" horiz-adv-x="368" 
d="M42 -141h20q21 0 34.5 2t23 11.5t17 28.5t16.5 53l13 46l-152 538h41l131 -486l128 486h40l-153 -550q-15 -54 -26.5 -86.5t-25.5 -49.5t-34 -22t-54 -5h-19v34zM92 725h54l68 -116h-32z" />
    <glyph glyph-name="uni0233" unicode="&#x233;" horiz-adv-x="368" 
d="M42 -141h20q21 0 34.5 2t23 11.5t17 28.5t16.5 53l13 46l-152 538h41l131 -486l128 486h40l-153 -550q-15 -54 -26.5 -86.5t-25.5 -49.5t-34 -22t-54 -5h-19v34zM76 684h217v-34h-217v34z" />
    <glyph glyph-name="zacute" unicode="&#x17a;" horiz-adv-x="347" 
d="M233 725h54l-90 -116h-32zM15 33l269 469h-246v36h289v-33l-268 -469h273v-36h-317v33z" />
    <glyph glyph-name="zcaron" unicode="&#x17e;" horiz-adv-x="347" 
d="M15 33l269 469h-246v36h289v-33l-268 -469h273v-36h-317v33zM69 725h39l85 -82l85 82h38l-104 -116h-39z" />
    <glyph glyph-name="zdotaccent" unicode="&#x17c;" horiz-adv-x="347" 
d="M15 33l269 469h-246v36h289v-33l-268 -469h273v-36h-317v33zM165 725h39v-96h-39v96z" />
    <glyph glyph-name="ellipsis" unicode="&#x2026;" horiz-adv-x="693" 
d="M327 104h39v-104h-39v104zM558 104h39v-104h-39v104zM96 104h39v-104h-39v104z" />
    <glyph glyph-name="endash" unicode="&#x2013;" horiz-adv-x="493" 
d="M40 289h413v-37h-413v37z" />
    <glyph glyph-name="emdash" unicode="&#x2014;" horiz-adv-x="725" 
d="M40 289h645v-37h-645v37z" />
    <glyph glyph-name="guilsinglleft" unicode="&#x2039;" horiz-adv-x="192" 
d="M17 249v49l116 141v-54l-91 -112l91 -112v-53z" />
    <glyph glyph-name="guilsinglright" unicode="&#x203a;" horiz-adv-x="192" 
d="M59 161l91 112l-91 112v54l116 -141v-49l-116 -141v53z" />
    <glyph glyph-name="quoteleft" unicode="&#x2018;" horiz-adv-x="231" 
d="M98 468v104q0 33 1.5 59.5t9 46.5t22 32t40.5 15v-39q-11 -3 -18 -9.5t-10.5 -19t-4.5 -33t-1 -51.5v-105h-39z" />
    <glyph glyph-name="quoteright" unicode="&#x2019;" horiz-adv-x="231" 
d="M135 725v-104q0 -33 -1.5 -59.5t-9 -46.5t-22 -32t-40.5 -15v39q11 3 18 9.5t10.5 19t4.5 32.5t1 52v105h39z" />
    <glyph glyph-name="quotedblleft" unicode="&#x201c;" horiz-adv-x="352" 
d="M219 468v104q0 33 1.5 59.5t9 46.5t22 32t40.5 15v-39q-11 -3 -18 -9.5t-10.5 -19t-4.5 -33t-1 -51.5v-105h-39zM98 468v104q0 33 1.5 59.5t9 46.5t22 32t40.5 15v-39q-11 -3 -18 -9.5t-10.5 -19t-4.5 -33t-1 -51.5v-105h-39z" />
    <glyph glyph-name="quotedblright" unicode="&#x201d;" horiz-adv-x="352" 
d="M256 725v-104q0 -33 -1.5 -59.5t-9 -46.5t-22 -32t-40.5 -15v39q11 3 18 9.5t10.5 19t4.5 32.5t1 52v105h39zM135 725v-104q0 -33 -1.5 -59.5t-9 -46.5t-22 -32t-40.5 -15v39q11 3 18 9.5t10.5 19t4.5 32.5t1 52v105h39z" />
    <glyph glyph-name="quotesinglbase" unicode="&#x201a;" horiz-adv-x="231" 
d="M135 104v-104q0 -33 -1.5 -59.5t-9 -46.5t-22 -32t-40.5 -15v39q11 3 18 9.5t10.5 19t4.5 32.5t1 52v105h39z" />
    <glyph glyph-name="quotedblbase" unicode="&#x201e;" horiz-adv-x="352" 
d="M256 104v-104q0 -33 -1.5 -59.5t-9 -46.5t-22 -32t-40.5 -15v39q11 3 18 9.5t10.5 19t4.5 32.5t1 52v105h39zM135 104v-104q0 -33 -1.5 -59.5t-9 -46.5t-22 -32t-40.5 -15v39q11 3 18 9.5t10.5 19t4.5 32.5t1 52v105h39z" />
    <glyph glyph-name="bullet" unicode="&#x2022;" horiz-adv-x="465" 
d="M228 96q-36 0 -68 14t-56 38.5t-38 58t-14 72.5q0 37 14 69t38 56t56 38t68 14q39 0 73 -14t58.5 -38t38.5 -56t14 -69q0 -39 -14 -72.5t-38.5 -58t-58.5 -38.5t-73 -14z" />
    <glyph glyph-name="minus" unicode="&#x2212;" horiz-adv-x="548" 
d="M38 289h473v-37h-473v37z" />
    <glyph glyph-name="Euro" unicode="&#x20ac;" horiz-adv-x="581" 
d="M32 437h79q6 156 61.5 228.5t159.5 72.5q101 0 154.5 -63t53.5 -169v-2h-39v2q0 92 -43 145t-126 53q-47 0 -79.5 -17.5t-54 -51.5t-33 -84t-14.5 -114h273l-30 -37h-244v-76h191l-30 -37h-160q3 -64 14.5 -113.5t33 -83t54.5 -51t79 -17.5q83 0 126 52.5t43 145.5v2h39
v-2q0 -106 -53.5 -169.5t-154.5 -63.5q-104 0 -159.5 72t-61.5 228h-109l30 37h79v76h-109z" />
    <glyph glyph-name="uniFB01" unicode="&#xfb01;" horiz-adv-x="422" 
d="M312 538h39v-538h-39v538zM88 504h-76v34h76v70q0 33 4 55t15.5 36t32 20t52.5 6h35v-34h-27q-25 0 -39.5 -3.5t-22 -13t-9.5 -27.5t-2 -47v-62h100v-34h-100v-504h-39v504zM312 725h39v-96h-39v96z" />
    <glyph glyph-name="uniFB02" unicode="&#xfb02;" horiz-adv-x="422" 
d="M88 504h-76v34h76v70q0 33 4 55t15.5 36t32 20t52.5 6h35v-34h-27q-25 0 -39.5 -3.5t-22 -13t-9.5 -27.5t-2 -47v-62h100v-34h-100v-504h-39v504zM312 725h39v-725h-39v725z" />
    <glyph glyph-name="breve" unicode="&#x2d8;" horiz-adv-x="274" 
d="M137 612q-54 0 -82 29t-28 84h34q0 -42 20 -63t56 -21t56 21t20 63h34q0 -55 -28 -84t-82 -29z" />
    <glyph glyph-name="caron" unicode="&#x2c7;" horiz-adv-x="301" 
d="M27 725h39l85 -82l85 82h38l-104 -116h-39z" />
    <glyph glyph-name="circumflex" unicode="&#x2c6;" horiz-adv-x="301" 
d="M131 725h39l104 -116h-38l-85 82l-85 -82h-39z" />
    <glyph glyph-name="dotaccent" unicode="&#x2d9;" horiz-adv-x="93" 
d="M27 725h39v-96h-39v96z" />
    <glyph glyph-name="glyph332" 
d="M71 725h39v-96h-39v96z" />
    <glyph glyph-name="glyph333" horiz-adv-x="93" 
d="M27 -80h39v-95h-39v95z" />
    <glyph glyph-name="hungarumlaut" unicode="&#x2dd;" horiz-adv-x="305" 
d="M95 725h54l-90 -116h-32zM224 725h54l-90 -116h-32z" />
    <glyph glyph-name="glyph335" horiz-adv-x="117" 
d="M95 -49v-11q0 -25 -1.5 -48t-9 -41t-22 -29.5t-40.5 -13.5v39q22 5 28 25t6 67v12h39z" />
    <glyph glyph-name="ogonek" unicode="&#x2db;" horiz-adv-x="190" 
d="M118 -188q-17 0 -33.5 4.5t-29 14t-20.5 23.5t-8 33q0 18 9 36t23 33t31 26.5t34 17.5h39q-39 -19 -66.5 -49t-27.5 -59q0 -20 15 -33.5t43 -13.5q18 0 36 5v-33q-11 -3 -22 -4t-23 -1z" />
    <glyph glyph-name="ring" unicode="&#x2da;" horiz-adv-x="227" 
d="M114 621q22 0 39.5 15.5t17.5 41.5t-17.5 41.5t-39.5 15.5t-40 -15.5t-18 -41.5t18 -41.5t40 -15.5zM114 596q-36 0 -61.5 22.5t-25.5 59.5q0 35 25.5 58.5t61.5 23.5t61 -23.5t25 -58.5q0 -37 -25 -59.5t-61 -22.5z" />
    <glyph glyph-name="tilde" unicode="&#x2dc;" horiz-adv-x="306" 
d="M27 611q3 50 24.5 72t48.5 22q17 0 31 -9t26.5 -20.5t25 -20.5t26.5 -9t24 11t12 48h34q-3 -50 -24 -72t-49 -22q-18 0 -32.5 9t-27 20.5t-24 20.5t-24.5 9q-14 0 -24.5 -11t-12.5 -48h-34z" />
    <glyph glyph-name="glyph339" horiz-adv-x="131" 
d="M61 725h43l-49 -170h-28z" />
    <glyph glyph-name="glyph340" horiz-adv-x="196" 
d="M110 886h54l-102 -113h-35z" />
    <glyph glyph-name="glyph341" horiz-adv-x="275" 
d="M137 773q-54 0 -82 29t-28 84h34q0 -42 20.5 -63t55.5 -21t55.5 21t20.5 63h34q0 -55 -28 -84t-82 -29z" />
    <glyph glyph-name="glyph342" horiz-adv-x="311" 
d="M134 773l-107 113h40l88 -83l88 83h40l-104 -113h-45z" />
    <glyph glyph-name="glyph343" horiz-adv-x="220" 
d="M96 -190q-37 0 -69 11l10 29q11 -5 26 -8t29 -3q23 0 43 9t20 33q0 21 -15.5 30t-35.5 9q-25 0 -43 -9l-14 14l48 76h30l-33 -56q13 3 28 3q32 0 52 -16.5t20 -47.5q0 -20 -8.5 -34t-22 -23t-30.5 -13t-35 -4z" />
    <glyph glyph-name="glyph344" horiz-adv-x="311" 
d="M134 875h45l104 -113h-40l-88 82l-88 -82h-40z" />
    <glyph glyph-name="glyph345" horiz-adv-x="292" 
d="M27 878h41v-96h-41v96zM223 878h41v-96h-41v96z" />
    <glyph glyph-name="glyph346" horiz-adv-x="96" 
d="M27 877h41v-96h-41v96z" />
    <glyph glyph-name="glyph347" horiz-adv-x="196" 
d="M31 886h54l83 -113h-35z" />
    <glyph glyph-name="glyph348" horiz-adv-x="347" 
d="M112 897h54l-102 -113h-35zM263 897h54l-102 -113h-35z" />
    <glyph glyph-name="glyph349" horiz-adv-x="283" 
d="M27 851h228v-39h-228v39z" />
    <glyph glyph-name="glyph350" horiz-adv-x="193" 
d="M119 -180q-16 0 -32.5 4.5t-29.5 13.5t-21.5 23.5t-8.5 34.5t9 36.5t23 29.5t31 22.5t34 15.5h41q-45 -21 -71 -42.5t-26 -53.5q0 -24 16.5 -36.5t41.5 -12.5q19 0 39 5v-35q-9 -3 -20.5 -4t-25.5 -1z" />
    <glyph glyph-name="glyph351" horiz-adv-x="228" 
d="M114 768q-36 0 -61.5 23.5t-25.5 58.5q0 36 25.5 59t61.5 23t61 -23t25 -59q0 -35 -25 -58.5t-61 -23.5zM114 797q21 0 37.5 14t16.5 39t-16.5 39.5t-37.5 14.5q-22 0 -38.5 -14.5t-16.5 -39.5t16.5 -39t38.5 -14z" />
    <glyph glyph-name="glyph352" horiz-adv-x="307" 
d="M27 783q3 50 24.5 72t48.5 22q17 0 31 -9t26.5 -20.5t25 -20.5t26.5 -9t24 11t12 48h34q-3 -50 -24 -72t-49 -22q-18 0 -32.5 9t-27 20.5t-24 20.5t-24.5 9q-14 0 -24.5 -11t-12.5 -48h-34z" />
    </font>
</defs>
</svg>
