<?xml version="1.0" standalone="no"?>
<!DOCTYPE svg PUBLIC "-//W3C//DTD SVG 1.1//EN" "http://www.w3.org/Graphics/SVG/1.1/DTD/svg11.dtd" >
<svg xmlns="http://www.w3.org/2000/svg" xmlns:xlink="http://www.w3.org/1999/xlink" version="1.1">
<metadata>
Created by Christoph Koeberlin (http://christoph.koe.berlin)
Copyright (c) 2020 Swiss Typefaces Sarl. All rights reserved.
</metadata>
<defs>
<font id="Font" horiz-adv-x="678" >
  <font-face 
    font-family="Font"
    font-weight="300"
    font-style="italic"
    font-stretch="normal"
    units-per-em="1000"
    panose-1="2 11 3 4 0 0 0 0 0 0"
    ascent="800"
    descent="-200"
    x-height="538"
    cap-height="725"
    bbox="-410 -237 1257 933"
    underline-thickness="59"
    underline-position="-88"
    slope="-12"
    unicode-range="U+0020-FEFF"
  />
<missing-glyph horiz-adv-x="712" 
d="M626 0h-500v725h500v-725zM592 706h-433l217 -328zM145 29l220 333l-220 334v-667zM607 696l-221 -334l221 -333v667zM592 19l-216 327l-217 -327h433z" />
    <glyph glyph-name=".notdef" horiz-adv-x="712" 
d="M626 0h-500v725h500v-725zM592 706h-433l217 -328zM145 29l220 333l-220 334v-667zM607 696l-221 -334l221 -333v667zM592 19l-216 327l-217 -327h433z" />
    <glyph glyph-name="glyph1" horiz-adv-x="0" 
 />
    <glyph glyph-name="glyph2" horiz-adv-x="231" 
 />
    <glyph glyph-name="space" unicode=" " horiz-adv-x="231" 
 />
    <glyph glyph-name="exclam" unicode="!" horiz-adv-x="234" 
d="M135 509l46 216h66l-46 -216l-81 -318h-39zM120 109l-23 -109h-73l23 109h73z" />
    <glyph glyph-name="quotedbl" unicode="&#x22;" horiz-adv-x="324" 
d="M109 482l36 243h71l-68 -243h-39zM264 482l36 243h71l-68 -243h-39z" />
    <glyph glyph-name="numbersign" unicode="#" horiz-adv-x="673" 
d="M668 512l-8 -52h-144l-26 -195h144l-7 -52h-145l-29 -213h-54l29 213h-184l-30 -213h-54l30 213h-144l7 52h144l27 195h-145l7 52h145l30 213h54l-30 -213h185l29 213h54l-29 -213h144zM251 265h185l26 195h-184z" />
    <glyph glyph-name="dollar" unicode="$" horiz-adv-x="546" 
d="M544 617q-65 50 -152 62l-61 -288l3 -2q85 -46 123.5 -90.5t38.5 -105.5q0 -58 -31.5 -104t-88.5 -73t-131 -29l-17 -80h-44l17 81q-61 4 -117 23t-86 42l14 67q39 -34 91 -53.5t110 -22.5l64 301l-33 17q-137 75 -137 184q0 59 32 102.5t88 66.5t128 23h5l17 80h44
l-18 -83q88 -11 155 -53zM291 413l57 269h-1q-75 0 -124 -33.5t-49 -96.5q0 -43 26.5 -73.5t84.5 -62.5zM316 324l-59 -280q78 4 124.5 40.5t46.5 101.5q0 39 -28.5 72t-83.5 66z" />
    <glyph glyph-name="percent" unicode="%" horiz-adv-x="899" 
d="M224 310q-71 0 -107 42.5t-36 119.5q0 61 18.5 120.5t60 99.5t106.5 40q72 0 108.5 -42.5t36.5 -119.5q0 -61 -18.5 -120.5t-60.5 -99.5t-108 -40zM227 356q44 0 72 34t40.5 83.5t12.5 96.5q0 53 -21.5 84.5t-67.5 31.5q-44 0 -71 -35t-39 -84.5t-12 -95.5
q0 -52 21 -83.5t65 -31.5zM670 -7q-71 0 -107 42.5t-36 119.5q0 61 18.5 120.5t60 99.5t106.5 40q72 0 108.5 -42.5t36.5 -119.5q0 -61 -18.5 -120.5t-60.5 -99.5t-108 -40zM673 39q44 0 72 34t40.5 83.5t12.5 96.5q0 53 -21.5 84.5t-67.5 31.5q-44 0 -71 -35t-39 -84.5
t-12 -95.5q0 -52 21 -83.5t65 -31.5zM838 725l-655 -725h-71l655 725h71z" />
    <glyph glyph-name="ampersand" unicode="&#x26;" horiz-adv-x="687" 
d="M652 0h-80l-82 107q-106 -120 -247 -120q-57 0 -107 23.5t-80.5 69t-30.5 110.5q0 172 224 231q-36 48 -51.5 82.5t-15.5 69.5q0 75 51 120t131 45q75 0 123 -41t48 -113q0 -66 -48 -109.5t-141 -77.5l147 -192q48 86 75 186h63q-35 -131 -102 -232zM248 574
q0 -31 14.5 -58.5t51.5 -76.5q156 48 156 143q0 46 -27.5 74.5t-79.5 28.5q-51 0 -83 -29.5t-32 -81.5zM455 152l-173 226q-92 -24 -140.5 -69t-48.5 -116q0 -70 44.5 -110.5t111.5 -40.5q119 0 206 110z" />
    <glyph glyph-name="quotesingle" unicode="'" horiz-adv-x="170" 
d="M109 482l36 243h71l-68 -243h-39z" />
    <glyph glyph-name="parenleft" unicode="(" horiz-adv-x="263" 
d="M95 -195q-22 56 -40.5 153.5t-18.5 187.5q0 159 60 317.5t168 291.5h57q-104 -134 -164 -296t-60 -326q0 -84 13.5 -172.5t35.5 -155.5h-51z" />
    <glyph glyph-name="parenright" unicode=")" horiz-adv-x="263" 
d="M173 755q22 -56 40.5 -153.5t18.5 -187.5q0 -159 -60 -317.5t-168 -291.5h-57q104 134 164 296t60 326q0 84 -13.5 172.5t-36.5 155.5h52z" />
    <glyph glyph-name="asterisk" unicode="*" horiz-adv-x="419" 
d="M249 725h47v-126l124 44l16 -44l-123 -42l77 -105l-37 -28l-80 107l-75 -107l-40 27l76 106l-123 43l15 44l123 -45v126z" />
    <glyph glyph-name="plus" unicode="+" 
d="M371 239v-239h-63v239h-239v60h239v239h63v-239h239v-60h-239z" />
    <glyph glyph-name="comma" unicode="," horiz-adv-x="188" 
d="M39 0h-32l23 109h74l-24 -113l-71 -129h-38z" />
    <glyph glyph-name="hyphen" unicode="-" horiz-adv-x="385" 
d="M348 304l-13 -62h-297l13 62h297z" />
    <glyph glyph-name="period" unicode="." horiz-adv-x="185" 
d="M102 109l-23 -109h-73l23 109h73z" />
    <glyph glyph-name="slash" unicode="/" horiz-adv-x="282" 
d="M340 755l-288 -755h-63l288 755h63z" />
    <glyph glyph-name="zero" unicode="0" horiz-adv-x="666" 
d="M320 -13q-126 0 -189.5 76.5t-63.5 212.5q0 109 31.5 214.5t103 176.5t184.5 71q126 0 190 -76t64 -212q0 -109 -32 -215t-104 -177t-184 -71zM320 41q89 0 146 64t82.5 157.5t25.5 184.5q0 108 -46.5 173t-142.5 65q-90 0 -146.5 -64t-81 -157.5t-24.5 -185.5
q0 -107 46 -172t141 -65z" />
    <glyph glyph-name="one" unicode="1" horiz-adv-x="491" 
d="M253 59h181l-12 -59h-442l12 59h199l111 522h-178l11 44q66 1 104 8.5t64 28.5t48 63h44z" />
    <glyph glyph-name="two" unicode="2" horiz-adv-x="538" 
d="M540 559q0 -81 -53 -159t-154.5 -159.5t-262.5 -181.5h394l-12 -59h-485l11 58q179 113 285.5 196.5t157.5 154.5t51 140q0 66 -45.5 99.5t-116.5 33.5q-85 0 -177 -45l13 64q33 15 79 26t91 11q98 0 161 -47t63 -132z" />
    <glyph glyph-name="three" unicode="3" horiz-adv-x="547" 
d="M226 353h-12l12 56h34q92 0 151.5 39t59.5 115q0 56 -48 87.5t-121 31.5q-86 0 -179 -45l14 64q35 16 81 26.5t95 10.5q99 0 163 -43t64 -122q0 -76 -50 -130t-125 -70q56 -18 87.5 -60.5t31.5 -95.5q0 -70 -35 -122t-98 -80t-146 -28q-64 0 -120.5 17.5t-93.5 45.5
l13 64q88 -71 204 -71q91 0 150.5 42.5t59.5 123.5q0 64 -51 104t-141 40z" />
    <glyph glyph-name="four" unicode="4" horiz-adv-x="621" 
d="M458 250h141l-12 -59h-141l-41 -191h-62l40 191h-383l13 57l484 477h62zM396 250l82 384l-388 -384h306z" />
    <glyph glyph-name="five" unicode="5" horiz-adv-x="555" 
d="M193 725h394l-13 -59h-339l-68 -219q48 13 101 13q67 0 122 -22.5t87 -67t32 -109.5q0 -81 -41.5 -143t-111.5 -96.5t-152 -34.5q-63 0 -116.5 18.5t-89.5 45.5l13 65q45 -35 91 -54t105 -19q63 0 116.5 25.5t85.5 73t32 111.5q0 75 -53.5 113.5t-137.5 38.5
q-81 0 -165 -32z" />
    <glyph glyph-name="six" unicode="6" horiz-adv-x="611" 
d="M61 261q0 128 46 237.5t130.5 174.5t194.5 65q46 0 90.5 -12.5t82.5 -34.5l-13 -63q-35 24 -79 38.5t-87 14.5q-106 0 -186 -79t-106 -239q29 54 84.5 86.5t125.5 32.5q66 0 117 -28.5t79 -79.5t28 -116q0 -77 -34 -138.5t-95 -97t-139 -35.5q-115 0 -177 72.5t-62 201.5
zM329 426q-58 0 -104 -27t-72 -74t-26 -104q0 -50 20.5 -91t59.5 -65t93 -24q56 0 102 27t72.5 75t26.5 108q0 78 -46.5 126.5t-125.5 48.5z" />
    <glyph glyph-name="seven" unicode="7" horiz-adv-x="523" 
d="M96 666l12 59h497l-12 -58q-408 -255 -463 -667h-74q32 221 152.5 385.5t305.5 280.5h-418z" />
    <glyph glyph-name="eight" unicode="8" horiz-adv-x="625" 
d="M566 214q0 -74 -37.5 -125t-99 -76.5t-133.5 -25.5q-68 0 -126 22.5t-93 69t-35 113.5q0 77 47 130.5t125 72.5q-46 23 -71 63t-25 87q0 64 35 107.5t90 64.5t116 21t114.5 -18t87.5 -57.5t34 -100.5q0 -64 -40.5 -113t-104.5 -68q54 -24 85 -67t31 -100zM352 409
q49 0 89.5 17.5t65 49.5t24.5 76q0 69 -52.5 101t-120.5 32q-78 0 -128 -38t-50 -103q0 -66 49 -100.5t123 -34.5zM300 41q90 0 145 46.5t55 124.5q0 70 -53.5 110t-139.5 40q-58 0 -103 -21t-70.5 -59.5t-25.5 -88.5q0 -71 54.5 -111.5t137.5 -40.5z" />
    <glyph glyph-name="nine" unicode="9" horiz-adv-x="610" 
d="M590 464q0 -128 -46 -237.5t-130.5 -174.5t-194.5 -65q-46 0 -90.5 12.5t-82.5 34.5l13 63q35 -24 79 -38.5t87 -14.5q106 0 186 79t106 239q-29 -54 -84.5 -86.5t-125.5 -32.5q-66 0 -117 28.5t-79 79.5t-28 116q0 77 34 138.5t95 97t139 35.5q115 0 177 -72.5
t62 -201.5zM322 299q58 0 104 27t72 74t26 104q0 50 -20.5 91t-59.5 65t-93 24q-56 0 -102 -27t-72.5 -75t-26.5 -108q0 -78 46.5 -126.5t125.5 -48.5z" />
    <glyph glyph-name="colon" unicode=":" horiz-adv-x="197" 
d="M192 538l-23 -109h-73l23 109h73zM101 109l-23 -109h-73l23 109h73z" />
    <glyph glyph-name="semicolon" unicode=";" horiz-adv-x="209" 
d="M201 538l-23 -109h-73l23 109h73zM44 0h-32l23 109h74l-24 -113l-71 -129h-38z" />
    <glyph glyph-name="less" unicode="&#x3c;" 
d="M62 241v55l510 235v-66l-435 -197l435 -193v-67z" />
    <glyph glyph-name="equal" unicode="=" 
d="M609 434v-60h-540v60h540zM609 164v-59h-540v59h540z" />
    <glyph glyph-name="greater" unicode="&#x3e;" 
d="M106 531l511 -235v-55l-511 -233v67l435 193l-435 197v66z" />
    <glyph glyph-name="question" unicode="?" horiz-adv-x="437" 
d="M102 702q35 16 79 26t86 10q91 0 151.5 -44t60.5 -119q0 -73 -45 -123t-121 -88l-19 -10q-51 -26 -73 -52t-34 -76l-8 -34h-63l9 40q13 62 45 98t102 73l21 10q56 30 87.5 65.5t31.5 89.5q0 53 -42.5 83.5t-109.5 30.5q-41 0 -85.5 -12t-85.5 -32zM169 109l-23 -108h-73
l23 108h73z" />
    <glyph glyph-name="at" unicode="@" horiz-adv-x="819" 
d="M540 267q-23 -49 -64 -76t-97 -27q-62 0 -102 43.5t-40 126.5q0 62 26 116t73 86.5t107 32.5q48 0 79 -26t41 -63l10 71h51l-34 -227q-2 -18 -2 -27q0 -37 14.5 -62t45.5 -25q30 0 55.5 23t40 66.5t14.5 103.5q0 85 -38.5 147t-106.5 94.5t-155 32.5q-98 0 -174.5 -44.5
t-119 -121t-42.5 -169.5q0 -87 36.5 -156t104 -107.5t158.5 -38.5q111 0 199 42l20 -50q-97 -45 -219 -45q-106 0 -186.5 46t-125 127t-44.5 184q0 107 51 194.5t141 137.5t202 50q102 0 182.5 -38t126.5 -110.5t46 -172.5q0 -77 -24 -133t-63 -85t-84 -29t-73 30.5
t-30 78.5zM297 335q0 -60 26 -90t71 -30q44 0 77.5 26t51.5 69t18 93q0 55 -25.5 84.5t-73.5 29.5q-41 0 -74.5 -25t-52 -67t-18.5 -90z" />
    <glyph glyph-name="A" unicode="A" horiz-adv-x="645" 
d="M581 0h-70l-35 218h-323l-127 -218h-74l429 725h76zM406 652l-218 -374h278z" />
    <glyph glyph-name="B" unicode="B" horiz-adv-x="633" 
d="M32 0l154 725h220q94 0 153.5 -38.5t59.5 -114.5q0 -68 -38.5 -120t-106.5 -74q49 -16 76 -51t27 -86q0 -120 -81.5 -180.5t-213.5 -60.5h-250zM242 666l-56 -263h167q84 0 138 37.5t54 120.5q0 51 -37.5 78t-103.5 27h-162zM174 348l-61 -289h177q92 0 154 44t62 134
q0 54 -40.5 82.5t-120.5 28.5h-171z" />
    <glyph glyph-name="C" unicode="C" horiz-adv-x="622" 
d="M403 47q79 0 150 26l-12 -64q-69 -22 -150 -22q-98 0 -172.5 40.5t-115 113.5t-40.5 168q0 116 53.5 214.5t150 156.5t219.5 58q55 0 108 -12.5t88 -32.5l-13 -64q-34 22 -82.5 35.5t-103.5 13.5q-100 0 -179.5 -46.5t-124.5 -130t-45 -189.5q0 -122 71.5 -193.5
t197.5 -71.5z" />
    <glyph glyph-name="D" unicode="D" horiz-adv-x="708" 
d="M356 725q155 0 241.5 -74.5t86.5 -219.5q0 -131 -52.5 -228t-151.5 -150t-236 -53h-212l154 725h170zM348 666h-106l-130 -607h137q111 0 192.5 43t126 126.5t44.5 200.5t-69.5 177t-194.5 60z" />
    <glyph glyph-name="E" unicode="E" horiz-adv-x="563" 
d="M460 0h-428l154 725h428l-12 -60h-361l-55 -260h337l-13 -61h-337l-60 -284h360z" />
    <glyph glyph-name="F" unicode="F" horiz-adv-x="532" 
d="M100 0h-68l154 725h415l-13 -60h-347l-55 -260h324l-13 -61h-324z" />
    <glyph glyph-name="G" unicode="G" horiz-adv-x="709" 
d="M62 309q0 116 54.5 214.5t152 156.5t221.5 58q55 0 108 -12.5t88 -32.5l-13 -64q-34 22 -82.5 35.5t-103.5 13.5q-100 0 -180.5 -47t-127 -130t-46.5 -189q0 -80 32 -140t93 -92.5t145 -32.5q86 0 149 23l51 243h-205l13 60h270l-73 -346q-98 -40 -211 -40
q-101 0 -177 40.5t-117 113.5t-41 168z" />
    <glyph glyph-name="H" unicode="H" horiz-adv-x="721" 
d="M594 405l67 320h69l-154 -725h-69l74 344h-408l-73 -344h-68l154 725h68l-68 -320h408z" />
    <glyph glyph-name="I" unicode="I" horiz-adv-x="416" 
d="M338 60l-13 -60h-348l13 60h140l128 605h-140l13 60h348l-13 -60h-140l-128 -605h140z" />
    <glyph glyph-name="J" unicode="J" horiz-adv-x="319" 
d="M-26 -4l17 61q29 -9 61 -9q67 0 82 72l116 545h-123l12 60h192l-127 -601q-16 -73 -57 -105t-103 -32q-15 0 -35.5 2.5t-34.5 6.5z" />
    <glyph glyph-name="K" unicode="K" horiz-adv-x="618" 
d="M186 725h68l-73 -343l423 343h95l-447 -361l325 -364h-88l-314 351l-75 -351h-68z" />
    <glyph glyph-name="L" unicode="L" horiz-adv-x="511" 
d="M186 725h68l-141 -665h332l-13 -60h-400z" />
    <glyph glyph-name="M" unicode="M" horiz-adv-x="836" 
d="M762 661l-324 -458h-69l-128 458l-141 -661h-68l154 725h106l125 -445l315 445h112l-154 -725h-68z" />
    <glyph glyph-name="N" unicode="N" horiz-adv-x="742" 
d="M750 725l-154 -725h-91l-266 654l-139 -654h-68l154 725h91l266 -654l139 654h68z" />
    <glyph glyph-name="O" unicode="O" horiz-adv-x="761" 
d="M349 -13q-89 0 -154 37t-99.5 105.5t-34.5 161.5q0 105 44.5 208t133.5 171t214 68q89 0 154 -37t99.5 -105.5t34.5 -161.5q0 -105 -44.5 -208t-133.5 -171t-214 -68zM357 47q100 0 170.5 58.5t106.5 148t36 180.5q0 69 -25.5 124.5t-76 87.5t-123.5 32
q-100 0 -171 -58.5t-107 -148t-36 -180.5q0 -70 25.5 -125t76.5 -87t124 -32z" />
    <glyph glyph-name="P" unicode="P" horiz-adv-x="606" 
d="M373 725q123 0 191 -40.5t68 -133.5q0 -139 -93 -194.5t-255 -55.5h-120l-64 -301h-68l154 725h187zM242 666l-65 -306h119q121 0 192.5 38t71.5 148q0 68 -51 94t-143 26h-124z" />
    <glyph glyph-name="Q" unicode="Q" horiz-adv-x="764" 
d="M596 82l81 -111l-50 -35l-79 108q-90 -57 -199 -57q-89 0 -154 37t-99.5 105.5t-34.5 161.5q0 105 44.5 208t133.5 171t214 68q89 0 154 -37t99.5 -105.5t34.5 -161.5q0 -95 -37.5 -190.5t-107.5 -161.5zM512 94l-92 125l49 37l89 -122q54 56 83 137.5t29 162.5
q0 69 -25.5 124.5t-76 87.5t-123.5 32q-100 0 -171 -58.5t-107 -148t-36 -180.5q0 -70 25.5 -125t76.5 -87t124 -32q85 0 155 47z" />
    <glyph glyph-name="R" unicode="R" horiz-adv-x="612" 
d="M468 0l-162 329h-136l-70 -329h-68l154 725h168q126 0 193.5 -36t67.5 -127q0 -99 -63.5 -156t-173.5 -71l165 -335h-75zM242 666l-60 -278h99q121 0 190.5 33.5t69.5 132.5q0 66 -49.5 89t-143.5 23h-106z" />
    <glyph glyph-name="S" unicode="S" horiz-adv-x="554" 
d="M3 52l14 69q42 -34 101.5 -53.5t122.5 -19.5q84 0 135.5 35.5t51.5 102.5q0 43 -32 78t-94 69l-53 28q-61 32 -99 78t-38 107q0 59 32 102.5t88 66.5t128 23q54 0 108 -14t95 -41l-14 -68q-41 30 -94 46.5t-104 16.5q-73 0 -120.5 -31.5t-47.5 -94.5q0 -42 27.5 -74
t79.5 -61l50 -27q85 -47 123 -92t38 -105t-33 -107t-93.5 -73t-139.5 -26q-67 0 -132.5 19t-99.5 46z" />
    <glyph glyph-name="T" unicode="T" horiz-adv-x="572" 
d="M262 0h-68l141 665h-230l13 60h529l-13 -60h-231z" />
    <glyph glyph-name="U" unicode="U" horiz-adv-x="727" 
d="M319 47q115 0 176.5 61t88.5 186l92 431h68l-90 -425q-35 -162 -113.5 -237.5t-224.5 -75.5q-121 0 -181 48.5t-60 153.5q0 48 12 109l91 427h68l-93 -439q-11 -53 -11 -90q0 -76 43 -112.5t134 -36.5z" />
    <glyph glyph-name="V" unicode="V" horiz-adv-x="620" 
d="M104 725h70l96 -648l359 648h78l-413 -725h-79z" />
    <glyph glyph-name="W" unicode="W" horiz-adv-x="925" 
d="M517 725h77l35 -641l301 641h75l-351 -725h-82l-33 631l-296 -631h-82l-50 725h72l38 -641z" />
    <glyph glyph-name="X" unicode="X" horiz-adv-x="627" 
d="M24 0h-83l358 379l-181 346h73l155 -296l280 296h84l-334 -353l196 -372h-74l-169 322z" />
    <glyph glyph-name="Y" unicode="Y" horiz-adv-x="604" 
d="M269 274l-164 451h72l137 -388l303 388h79l-360 -453l-57 -272h-68z" />
    <glyph glyph-name="Z" unicode="Z" horiz-adv-x="587" 
d="M147 725h503l-13 -60l-577 -605h466l-13 -60h-552l12 60l579 605h-418z" />
    <glyph glyph-name="bracketleft" unicode="[" horiz-adv-x="293" 
d="M-10 -195l199 950h179l-11 -54h-118l-178 -842h119l-12 -54h-178z" />
    <glyph glyph-name="backslash" unicode="\" horiz-adv-x="540" 
d="M117 755h63l288 -755h-62z" />
    <glyph glyph-name="bracketright" unicode="]" horiz-adv-x="283" 
d="M299 755l-199 -950h-180l11 54h119l178 842h-119l11 54h179z" />
    <glyph glyph-name="asciicircum" unicode="^" 
d="M340 725h58l206 -387h-68l-167 310l-166 -310h-67z" />
    <glyph glyph-name="underscore" unicode="_" horiz-adv-x="462" 
d="M374 -51l-12 -59h-419l12 59h419z" />
    <glyph glyph-name="grave" unicode="`" horiz-adv-x="230" 
d="M284 639h-56l-130 116h83z" />
    <glyph glyph-name="a" unicode="a" horiz-adv-x="529" 
d="M412 340q4 24 4 41q0 58 -37.5 83.5t-100.5 25.5q-46 0 -88.5 -9t-74.5 -24l14 62q75 28 159 28t136 -37.5t52 -119.5q0 -22 -2 -34q0 -19 -10.5 -68.5t-13.5 -61.5l-11 -49q-10 -48 -18.5 -90t-13.5 -87h-62l16 88q-31 -49 -78.5 -75t-107.5 -26q-69 0 -117 37.5
t-48 106.5q0 67 46.5 109.5t134 65t221.5 34.5zM395 245l9 44q-115 -10 -186 -28.5t-105 -48t-34 -74.5q0 -47 31.5 -72.5t82.5 -25.5q69 0 124 50.5t78 154.5z" />
    <glyph glyph-name="b" unicode="b" horiz-adv-x="588" 
d="M179 455q28 43 73.5 67.5t100.5 24.5q96 0 146 -64.5t50 -168.5q0 -83 -31 -158t-90.5 -122t-138.5 -47q-70 0 -116 39t-62 105l-28 -131h-62l160 755h61zM285 42q64 0 109 42.5t67 105.5t22 124q0 81 -37 129.5t-107 48.5q-61 0 -108.5 -39.5t-73 -100.5t-25.5 -122
q0 -85 41.5 -136.5t111.5 -51.5z" />
    <glyph glyph-name="c" unicode="c" horiz-adv-x="461" 
d="M285 44q27 0 53.5 5t45.5 13l-12 -59q-46 -16 -104 -16q-70 0 -122.5 29.5t-80.5 83t-28 123.5q0 90 41 164t111.5 117t155.5 43q79 0 133 -30l-12 -59q-24 15 -57.5 23.5t-68.5 8.5q-64 0 -118.5 -32.5t-86.5 -92t-32 -137.5q0 -87 50.5 -135.5t131.5 -48.5z" />
    <glyph glyph-name="d" unicode="d" horiz-adv-x="588" 
d="M408 79q-28 -43 -73 -67.5t-101 -24.5q-96 0 -146 64.5t-50 167.5q0 83 31.5 158.5t90.5 122.5t138 47q70 0 116.5 -39t62.5 -105l75 352h62l-160 -755h-62zM302 492q-64 0 -109 -42.5t-67 -106t-22 -124.5q0 -81 37 -129t107 -48q62 0 109 39t72 99.5t25 122.5
q0 85 -41 137t-111 52z" />
    <glyph glyph-name="e" unicode="e" horiz-adv-x="541" 
d="M104 255v-17q0 -98 53.5 -146.5t132.5 -48.5q41 0 77.5 9.5t63.5 24.5l-16 -62q-28 -13 -66 -20.5t-76 -7.5q-70 0 -123.5 30.5t-83 85.5t-29.5 125q0 82 36.5 155.5t103 118.5t152.5 45q90 0 139 -55.5t49 -151.5q0 -40 -9 -85h-404zM111 306h340q3 21 3 40
q0 72 -37 109.5t-97 37.5q-75 0 -133 -50.5t-76 -136.5z" />
    <glyph glyph-name="f" unicode="f" horiz-adv-x="283" 
d="M172 621q15 70 51 103t99 33q37 0 59 -7l-11 -53q-28 7 -49 7q-38 0 -57.5 -17t-29.5 -63l-18 -86h116l-11 -51h-115l-104 -487h-63l104 487h-77l11 51h77z" />
    <glyph glyph-name="g" unicode="g" horiz-adv-x="588" 
d="M413 98q-29 -41 -72.5 -64.5t-97.5 -23.5q-97 0 -148.5 62t-51.5 164q0 82 30.5 153t89 114.5t137.5 43.5q70 0 115.5 -36.5t64.5 -99.5l26 127h63l-112 -526q-24 -116 -90 -167.5t-167 -51.5q-100 0 -181 44l13 63q76 -52 175 -52q151 0 186 157zM304 492
q-63 0 -107 -38t-66 -97t-22 -120q0 -79 38.5 -126t110.5 -47q61 0 106.5 37.5t69 96t23.5 118.5q0 81 -41.5 128.5t-111.5 47.5z" />
    <glyph glyph-name="h" unicode="h" horiz-adv-x="571" 
d="M177 444q29 46 76.5 74.5t116.5 28.5q152 0 152 -144q0 -39 -8 -75l-70 -328h-62l68 320q8 36 8 71q0 54 -26 77t-78 23q-79 0 -134 -54t-77 -157l-60 -280h-62l160 755h62z" />
    <glyph glyph-name="i" unicode="i" horiz-adv-x="217" 
d="M157 653l21 102h62l-21 -102h-62zM21 0l114 538h62l-114 -538h-62z" />
    <glyph glyph-name="j" unicode="j" horiz-adv-x="241" 
d="M180 653l22 102h62l-21 -102h-63zM-101 -200l12 53q19 -6 45 -6q29 0 45.5 14.5t25.5 56.5l120 569h-88l11 51h151l-131 -617q-15 -72 -46.5 -99.5t-95.5 -27.5q-28 0 -49 6z" />
    <glyph glyph-name="k" unicode="k" horiz-adv-x="484" 
d="M21 0l160 755h62l-97 -453l292 236h79l-305 -248l232 -290h-77l-225 281l-59 -281h-62z" />
    <glyph glyph-name="l" unicode="l" horiz-adv-x="217" 
d="M181 755h62l-160 -755h-62z" />
    <glyph glyph-name="m" unicode="m" horiz-adv-x="898" 
d="M502 430q33 51 83.5 84t121.5 33q70 0 106 -36t36 -105q0 -36 -9 -78l-69 -328h-63l69 323q9 42 9 71q0 52 -24.5 75t-70.5 23q-76 0 -129.5 -54t-74.5 -158l-60 -280h-62l68 323q9 42 9 71q0 52 -24 75t-71 23q-75 0 -128.5 -54t-75.5 -158l-60 -280h-62l114 538h62
l-19 -94q28 45 74 74t110 29q129 0 140 -117z" />
    <glyph glyph-name="n" unicode="n" horiz-adv-x="571" 
d="M135 538h62l-20 -94q29 46 76.5 74.5t116.5 28.5q152 0 152 -144q0 -39 -8 -75l-70 -328h-62l68 320q8 37 8 71q0 54 -26 77.5t-78 23.5q-79 0 -134 -54t-77 -158l-60 -280h-62z" />
    <glyph glyph-name="o" unicode="o" horiz-adv-x="568" 
d="M34 203q0 82 33 161t99 131t159 52t150.5 -56.5t57.5 -159.5q0 -81 -33.5 -160.5t-99.5 -131.5t-159 -52q-92 0 -149.5 56.5t-57.5 159.5zM466 327q0 80 -40 122t-110 42q-69 0 -117.5 -42.5t-73 -108t-24.5 -133.5q0 -80 40 -122t110 -42q69 0 117.5 42.5t73 108
t24.5 133.5z" />
    <glyph glyph-name="p" unicode="p" horiz-adv-x="588" 
d="M179 455q29 43 74 67.5t101 24.5q96 0 145.5 -64.5t49.5 -168.5q0 -83 -31 -158t-90 -122t-139 -47q-70 0 -116 39t-62 105l-69 -326h-62l155 733h62zM286 42q64 0 108.5 42.5t66.5 105.5t22 124q0 81 -36.5 129.5t-106.5 48.5q-61 0 -108.5 -39.5t-73 -100.5t-25.5 -122
q0 -85 41.5 -136.5t111.5 -51.5z" />
    <glyph glyph-name="q" unicode="q" horiz-adv-x="587" 
d="M409 79q-29 -43 -74 -67.5t-101 -24.5q-96 0 -146 64.5t-50 167.5q0 83 31.5 158.5t90.5 122.5t138 47q70 0 116.5 -39t62.5 -105l29 135h62l-155 -733h-62zM302 492q-64 0 -109 -42.5t-67 -106t-22 -124.5q0 -81 37 -129t107 -48q62 0 109 39t72 99.5t25 122.5
q0 85 -41 137t-111 52z" />
    <glyph glyph-name="r" unicode="r" horiz-adv-x="330" 
d="M360 473q-15 3 -30 3q-78 0 -123 -51.5t-66 -153.5l-58 -271h-62l114 538h60l-23 -111q27 55 76 84.5t106 29.5q8 0 20 -2z" />
    <glyph glyph-name="s" unicode="s" horiz-adv-x="431" 
d="M3 102q35 -28 78 -43.5t89 -15.5q63 0 100.5 23.5t37.5 67.5q0 30 -23 56t-75 55l-32 17q-48 27 -74.5 63t-26.5 77t23.5 74t66.5 52t101 19q42 0 81 -11.5t71 -30.5l-14 -62q-32 22 -73 35t-79 13q-51 0 -83.5 -21.5t-32.5 -60.5q0 -29 19.5 -52.5t56.5 -44.5l32 -17
q66 -37 94.5 -71t28.5 -77q0 -73 -55.5 -116.5t-153.5 -43.5q-46 0 -92 13t-79 37z" />
    <glyph glyph-name="t" unicode="t" horiz-adv-x="292" 
d="M58 70q0 21 6 48l78 369h-90l11 51h90l28 131h62l-27 -131h111l-11 -51h-111l-78 -366q-4 -19 -4 -34q0 -25 12.5 -34.5t38.5 -9.5q22 0 53 7l-9 -53q-37 -7 -65 -7q-48 0 -71.5 19t-23.5 61z" />
    <glyph glyph-name="u" unicode="u" horiz-adv-x="560" 
d="M382 92q-30 -47 -74.5 -76t-112.5 -29q-146 0 -146 142q0 40 8 77l71 332h62l-70 -328q-9 -42 -9 -71q0 -51 25 -73.5t75 -22.5q79 0 131.5 54t74.5 159l60 282h62l-114 -538h-62z" />
    <glyph glyph-name="v" unicode="v" horiz-adv-x="491" 
d="M66 538h65l76 -453l261 453h71l-318 -538h-60z" />
    <glyph glyph-name="w" unicode="w" horiz-adv-x="736" 
d="M134 538l33 -443l220 443h66l40 -443l217 443h70l-274 -538h-58l-42 461l-231 -461h-57l-48 538h64z" />
    <glyph glyph-name="x" unicode="x" horiz-adv-x="484" 
d="M452 538h76l-248 -263l144 -275h-67l-121 228l-215 -228h-75l264 280l-135 258h68l110 -211z" />
    <glyph glyph-name="y" unicode="y" horiz-adv-x="483" 
d="M530 538l-427 -733h-65l118 203l-89 530h64l72 -454l258 454h69z" />
    <glyph glyph-name="z" unicode="z" horiz-adv-x="460" 
d="M379 0h-414l11 52l419 432h-307l11 54h388l-11 -53l-420 -431h334z" />
    <glyph glyph-name="braceleft" unicode="{" horiz-adv-x="292" 
d="M134 -195q-59 0 -83.5 17.5t-24.5 59.5q0 26 9 67l38 193q7 35 7 54q0 27 -13 42t-43 16l11 53q44 1 64.5 29.5t32.5 82.5l45 205q12 58 28 84.5t44.5 36.5t85.5 10h31l-11 -54h-26q-34 0 -50 -6t-24 -21.5t-16 -50.5l-44 -205q-14 -66 -38.5 -96t-66.5 -40l-1 -3
q27 -9 40.5 -27t13.5 -51q0 -18 -7 -58l-42 -204q-6 -34 -6 -43q0 -22 14 -29.5t50 -7.5h24l-11 -54h-31z" />
    <glyph glyph-name="bar" unicode="|" horiz-adv-x="271" 
d="M120 -89v844h58v-844h-58z" />
    <glyph glyph-name="braceright" unicode="}" horiz-adv-x="292" 
d="M163 755q60 0 84.5 -17.5t24.5 -59.5q0 -18 -9 -67l-39 -193q-7 -35 -7 -54q0 -27 13 -41.5t43 -15.5l-11 -53q-44 -2 -64.5 -30.5t-32.5 -82.5l-44 -205q-13 -58 -28.5 -84.5t-44.5 -36.5t-86 -10h-31l11 54h26q34 0 50 6t24.5 21.5t15.5 50.5l44 205q14 66 39 96t66 41
l1 3q-27 9 -40 26.5t-13 50.5q0 26 7 58l41 204q6 26 6 43q0 22 -13.5 29.5t-50.5 7.5h-24l11 54h31z" />
    <glyph glyph-name="asciitilde" unicode="~" 
d="M347 294q32 -16 53.5 -24t41.5 -8q31 0 52 18.5t25 54.5h60q-6 -61 -42.5 -95t-94.5 -34q-29 0 -56.5 9.5t-65.5 28.5q-36 17 -60.5 26t-48.5 9q-32 0 -52 -18.5t-24 -54.5h-61q6 61 42.5 95t94.5 34q34 0 62.5 -10t73.5 -31z" />
    <glyph glyph-name="uni00A0" unicode="&#xa0;" horiz-adv-x="231" 
 />
    <glyph glyph-name="exclamdown" unicode="&#xa1;" horiz-adv-x="222" 
d="M204 538l-23 -109h-73l23 109h73zM108 341h38l-53 -312l-43 -204h-66l43 204z" />
    <glyph glyph-name="cent" unicode="&#xa2;" horiz-adv-x="484" 
d="M352 490l-95 -443q20 -3 40 -3q28 0 54.5 5t45.5 13l-12 -59q-46 -16 -105 -16q-13 0 -35 2l-18 -82h-39l19 90q-74 20 -115.5 80t-41.5 146q0 84 35.5 154.5t98 115t140.5 52.5l17 82h40l-17 -80q73 -2 127 -30l-13 -59q-23 15 -56.5 23.5t-68.5 8.5h-1zM311 486
q-55 -10 -99.5 -44t-70 -89t-25.5 -125q0 -64 27.5 -107.5t76.5 -62.5z" />
    <glyph glyph-name="sterling" unicode="&#xa3;" horiz-adv-x="580" 
d="M212 514q0 -33 7.5 -70.5t9.5 -45.5q4 -11 5 -20h236l-11 -49h-215q3 -21 3 -42q0 -71 -41 -130t-106 -98h407l-12 -59h-510l11 53q73 32 129 91.5t56 138.5q0 18 -5 46h-108l10 49h88q-10 45 -15.5 75.5t-5.5 59.5q0 70 34.5 121t93 77.5t128.5 26.5q114 0 208 -49
l-13 -63q-91 56 -198 56q-82 0 -134 -43.5t-52 -124.5z" />
    <glyph glyph-name="currency" unicode="&#xa4;" horiz-adv-x="663" 
d="M197 163l-69 -68l-37 37l68 69q-49 63 -49 145q0 83 49 146l-68 69l37 37l68 -68q64 55 150 55q44 0 83.5 -14.5t70.5 -41.5l70 69l37 -37l-70 -71q48 -64 48 -144q0 -40 -12.5 -76.5t-36.5 -66.5l71 -71l-37 -37l-71 70q-31 -26 -70.5 -40.5t-82.5 -14.5q-83 0 -149 53z
M169 346q0 -50 23 -92t63.5 -66.5t90.5 -24.5q52 0 93.5 24.5t65 66.5t23.5 92q0 52 -23.5 94.5t-65 67.5t-93.5 25q-50 0 -90.5 -25t-63.5 -67.5t-23 -94.5z" />
    <glyph glyph-name="yen" unicode="&#xa5;" horiz-adv-x="641" 
d="M322 146h175l-10 -49h-175l-20 -97h-67l20 97h-167l11 49h166l17 79h-167l11 49h169l-6 1l-161 450h71l135 -405l306 405h79l-354 -449l-8 -2h177l-10 -49h-175z" />
    <glyph glyph-name="brokenbar" unicode="&#xa6;" horiz-adv-x="271" 
d="M120 430v325h58v-325h-58zM120 -90v325h58v-325h-58z" />
    <glyph glyph-name="section" unicode="&#xa7;" horiz-adv-x="613" 
d="M441 -35q0 34 -25.5 61t-92.5 63l-127 67q-68 36 -103 76t-35 95q0 52 35.5 92.5t87.5 61.5q-70 50 -70 121q0 63 56.5 99.5t142.5 36.5q50 0 96 -10t78 -25v-63q-36 19 -81.5 31t-95.5 12q-58 0 -94 -20t-36 -58q0 -28 21.5 -50.5t72.5 -50.5l143 -77q74 -39 110.5 -78
t36.5 -95q0 -54 -34 -96.5t-89 -68.5q34 -27 51.5 -55t17.5 -64q0 -72 -60.5 -113t-148.5 -41q-60 0 -111 11.5t-80 28.5v69q36 -24 85 -38.5t107 -14.5q64 0 103 23.5t39 69.5zM256 439l-21 11q-46 -19 -77.5 -48.5t-31.5 -68.5t24 -66t89 -61q50 -26 90.5 -48t58.5 -33
q106 49 106 119q0 40 -27.5 69t-88.5 61q-42 23 -122 65z" />
    <glyph glyph-name="dieresis" unicode="&#xa8;" horiz-adv-x="330" 
d="M164 658h-62l20 97h62zM324 658l21 97h63l-20 -97h-64z" />
    <glyph glyph-name="copyright" unicode="&#xa9;" horiz-adv-x="870" 
d="M455 738q103 0 188 -48t135 -134t50 -196q0 -108 -50 -193.5t-135 -132.5t-188 -47q-104 0 -189.5 47t-135 132t-49.5 194q0 110 49.5 196t135 134t189.5 48zM455 37q90 0 163 41t114.5 114.5t41.5 167.5q0 96 -41.5 170.5t-114.5 116t-163 41.5t-162.5 -41.5
t-114.5 -116t-42 -170.5q0 -94 42 -167.5t115 -114.5t162 -41zM473 568q57 0 98 -19v-51q-43 19 -97 19q-66 0 -107.5 -39.5t-41.5 -114.5q0 -76 41.5 -115.5t107.5 -39.5q52 0 97 18v-51q-19 -8 -46.5 -13t-53.5 -5q-62 0 -108.5 26.5t-71.5 73.5t-25 106t25 105.5t72 73
t110 26.5z" />
    <glyph glyph-name="ordfeminine" unicode="&#xaa;" horiz-adv-x="391" 
d="M303 430l7 45q-33 -53 -101 -53q-41 0 -69.5 23.5t-28.5 60.5q0 60 56 86.5t169 34.5v3q1 4 1 11q0 49 -77 49q-47 0 -91 -25l11 55q18 8 43 13t49 5q58 0 89.5 -24.5t31.5 -70.5q0 -23 -13 -79q-18 -85 -25 -134h-52zM326 567l4 21q-83 -5 -121.5 -23.5t-38.5 -52.5
q0 -20 15 -33t40 -13q34 0 63 25.5t38 75.5zM347 353l-13 -57h-264l12 57h265z" />
    <glyph glyph-name="guillemotleft" unicode="&#xab;" horiz-adv-x="512" 
d="M219 46h-64l-110 226l205 227h68l-200 -227zM421 46h-64l-110 226l205 227h68l-200 -227z" />
    <glyph glyph-name="logicalnot" unicode="&#xac;" 
d="M548 0v239h-479v60h541v-299h-62z" />
    <glyph glyph-name="uni00AD" unicode="&#xad;" horiz-adv-x="385" 
d="M348 304l-13 -62h-297l13 62h297z" />
    <glyph glyph-name="registered" unicode="&#xae;" horiz-adv-x="528" 
d="M317 736q57 0 105 -27t76 -75t28 -110q0 -61 -28 -108.5t-76 -74t-105 -26.5q-58 0 -105.5 26.5t-75.5 74t-28 108.5q0 62 28 110t75.5 75t105.5 27zM317 354q48 0 86 21.5t60 60t22 88.5q0 51 -22 90t-60 61t-86 22q-47 0 -85.5 -22t-61 -61.5t-22.5 -89.5
q0 -49 22.5 -88t61 -60.5t85.5 -21.5zM276 511v-89h-36v218h66q48 0 71.5 -14t23.5 -50q0 -50 -51 -60l62 -94h-40l-58 89h-38zM310 611h-34v-71h36q54 0 54 35q0 20 -14.5 28t-41.5 8z" />
    <glyph glyph-name="macron" unicode="&#xaf;" horiz-adv-x="322" 
d="M379 726l-11 -53h-279l12 53h278z" />
    <glyph glyph-name="degree" unicode="&#xb0;" horiz-adv-x="364" 
d="M248 738q62 0 103.5 -41t41.5 -103t-41.5 -103t-103.5 -41t-103 41t-41 103t41.5 103t102.5 41zM248 500q40 0 65 26.5t25 67.5t-25 67.5t-65 26.5q-39 0 -64 -26.5t-25 -67.5t25 -67.5t64 -26.5z" />
    <glyph glyph-name="plusminus" unicode="&#xb1;" 
d="M51 356h240v182h62v-182h239v-58h-239v-182h-62v182h-240v58zM592 59v-59h-541v59h541z" />
    <glyph glyph-name="uni00B2" unicode="&#xb2;" horiz-adv-x="336" 
d="M400 749q0 -44 -28 -83t-78 -77.5t-141 -97.5h195l-11 -53h-276l10 52q100 65 152 102.5t83.5 74t31.5 71.5q0 32 -22.5 48.5t-59.5 16.5q-51 0 -106 -31l13 54q23 13 52.5 20t57.5 7q55 0 91 -28.5t36 -75.5z" />
    <glyph glyph-name="uni00B3" unicode="&#xb3;" horiz-adv-x="342" 
d="M306 557q0 31 -27 51t-73 20h-11l10 47h9q121 0 121 68q0 27 -21 43t-58 16q-60 0 -111 -30l14 56q47 25 105 25q57 0 94.5 -27t37.5 -73q0 -42 -27.5 -67.5t-69.5 -33.5q30 -10 49 -35t19 -57q0 -56 -45 -91.5t-116 -35.5q-36 0 -72.5 9.5t-57.5 22.5l10 56
q26 -17 58 -27.5t62 -10.5q44 0 72 20.5t28 53.5z" />
    <glyph glyph-name="acute" unicode="&#xb4;" horiz-adv-x="230" 
d="M212 755h87l-152 -116h-58z" />
    <glyph glyph-name="paragraph" unicode="&#xb6;" horiz-adv-x="710" 
d="M335 725h245v-920h-56v869h-125v-869h-56v508h-33q-104 0 -165 54t-61 149q0 98 66.5 153.5t184.5 55.5z" />
    <glyph glyph-name="periodcentered" unicode="&#xb7;" horiz-adv-x="197" 
d="M147 324l-23 -109h-73l23 109h73z" />
    <glyph glyph-name="cedilla" unicode="&#xb8;" horiz-adv-x="261" 
d="M-21 -77l65 79h43l-44 -53q14 2 24 2q29 0 47 -15.5t18 -42.5q0 -42 -34.5 -63t-83.5 -21q-38 0 -72 13l14 34q26 -12 57 -12q27 0 47 10t20 33q0 14 -11 21.5t-29 7.5q-28 0 -42 -9z" />
    <glyph glyph-name="uni00B9" unicode="&#xb9;" horiz-adv-x="305" 
d="M239 490h101l-11 -52h-265l10 52h106l55 260h-92l8 41q53 1 76.5 11t43.5 44h43z" />
    <glyph glyph-name="ordmasculine" unicode="&#xba;" horiz-adv-x="411" 
d="M259 423q-57 0 -93.5 35t-36.5 99q0 49 18.5 90.5t54.5 66t85 24.5q58 0 95 -35t37 -100q0 -47 -19 -88.5t-55 -66.5t-86 -25zM263 471q44 0 70 38.5t26 91.5q0 41 -19.5 65t-55.5 24q-45 0 -70 -38.5t-25 -93.5q0 -41 19 -64t55 -23zM358 353l-12 -57h-274l13 57h273z
" />
    <glyph glyph-name="guillemotright" unicode="&#xbb;" horiz-adv-x="512" 
d="M158 499l109 -227l-204 -226h-68l199 227l-101 226h65zM360 499l109 -227l-204 -226h-68l199 227l-101 226h65z" />
    <glyph glyph-name="onequarter" unicode="&#xbc;" horiz-adv-x="731" 
d="M178 317h-59l66 312h-92l9 41q52 1 76 11.5t43 43.5h43zM702 725l-655 -725h-71l655 725h71zM611 151h74l-11 -51h-74l-20 -99h-59l21 99h-209l10 47l266 262h57zM552 151l39 179l-180 -179h141z" />
    <glyph glyph-name="onehalf" unicode="&#xbd;" horiz-adv-x="739" 
d="M178 317h-59l66 312h-92l9 41q52 1 76 11.5t43 43.5h43zM702 725l-655 -725h-71l655 725h71zM710 311q0 -44 -27.5 -82.5t-77.5 -76.5t-142 -99h195l-11 -52h-276l10 51q101 66 152.5 103.5t83 73.5t31.5 71q0 32 -22.5 48.5t-59.5 16.5q-49 0 -106 -30l13 53
q23 13 52.5 20.5t57.5 7.5q55 0 91 -28.5t36 -76.5z" />
    <glyph glyph-name="threequarters" unicode="&#xbe;" horiz-adv-x="836" 
d="M279 436q0 31 -27 50.5t-72 19.5h-11l9 47h10q121 0 121 69q0 27 -21 42.5t-58 15.5q-61 0 -112 -30l15 57q45 25 104 25q58 0 95.5 -27.5t37.5 -73.5q0 -42 -28 -67.5t-69 -33.5q29 -10 48 -35t19 -56q0 -56 -45 -92t-116 -36q-35 0 -71 9.5t-59 22.5l11 57
q26 -17 58 -27.5t62 -10.5q43 0 71 20.5t28 53.5zM807 725l-655 -725h-71l655 725h71zM716 151h74l-11 -51h-74l-20 -99h-59l21 99h-209l10 47l266 262h57zM657 151l39 179l-180 -179h141z" />
    <glyph glyph-name="questiondown" unicode="&#xbf;" horiz-adv-x="465" 
d="M280 429l24 109h72l-23 -109h-73zM348 -166q-34 -15 -77 -24.5t-85 -9.5q-60 0 -108.5 19.5t-77 56.5t-28.5 87q0 73 45 123t121 88l19 10q51 26 73 52t34 76l8 35h63l-9 -40q-13 -63 -45 -99t-102 -73l-21 -10q-56 -30 -87.5 -65.5t-31.5 -89.5q0 -53 43.5 -83.5
t110.5 -30.5q85 0 169 42z" />
    <glyph glyph-name="Agrave" unicode="&#xc0;" horiz-adv-x="645" 
d="M581 0h-70l-35 218h-323l-127 -218h-74l429 725h76zM406 652l-218 -374h278zM458 773h-61l-124 113h92z" />
    <glyph glyph-name="Aacute" unicode="&#xc1;" horiz-adv-x="645" 
d="M527 886h93l-168 -113h-67zM581 0h-70l-35 218h-323l-127 -218h-74l429 725h76zM406 652l-218 -374h278z" />
    <glyph glyph-name="Acircumflex" unicode="&#xc2;" horiz-adv-x="645" 
d="M581 0h-70l-35 218h-323l-127 -218h-74l429 725h76zM406 652l-218 -374h278zM415 886h65l109 -113h-70l-76 74l-113 -74h-77z" />
    <glyph glyph-name="Atilde" unicode="&#xc3;" horiz-adv-x="645" 
d="M581 0h-70l-35 218h-323l-127 -218h-74l429 725h76zM406 652l-218 -374h278zM441 851q19 -12 30.5 -18t26.5 -6q46 0 62 53h50q-12 -48 -44 -75t-73 -27q-22 0 -39 7.5t-39 22.5q-17 13 -30 19t-28 6q-22 0 -38 -14t-23 -40h-50q12 48 43.5 75t72.5 27q23 0 40 -7.5
t39 -22.5z" />
    <glyph glyph-name="Adieresis" unicode="&#xc4;" horiz-adv-x="645" 
d="M581 0h-70l-35 218h-323l-127 -218h-74l429 725h76zM406 652l-218 -374h278zM279 781l22 97h64l-22 -97h-64zM501 781l23 97h64l-23 -97h-64z" />
    <glyph glyph-name="Aring" unicode="&#xc5;" horiz-adv-x="645" 
d="M581 0h-70l-35 218h-323l-127 -218h-74l429 725h76zM406 652l-218 -374h278zM527 850q0 -36 -25.5 -59.5t-62.5 -23.5t-62.5 23.5t-25.5 59.5t25.5 59.5t62.5 23.5t62.5 -23.5t25.5 -59.5zM389 850q0 -21 15 -34.5t35 -13.5t34.5 13.5t14.5 34.5q0 22 -14.5 35.5
t-34.5 13.5t-35 -13.5t-15 -35.5z" />
    <glyph glyph-name="AE" unicode="&#xc6;" horiz-adv-x="914" 
d="M965 725l-13 -60h-361l-55 -260h337l-13 -61h-336l-61 -284h361l-13 -60h-428l46 215h-249l-175 -215h-77l594 725h443zM516 630l-288 -355h213z" />
    <glyph glyph-name="Ccedilla" unicode="&#xc7;" horiz-adv-x="622" 
d="M403 47q79 0 150 26l-12 -64q-69 -22 -150 -22q-98 0 -172.5 40.5t-115 113.5t-40.5 168q0 116 53.5 214.5t150 156.5t219.5 58q55 0 108 -12.5t88 -32.5l-13 -64q-34 22 -82.5 35.5t-103.5 13.5q-100 0 -179.5 -46.5t-124.5 -130t-45 -189.5q0 -122 71.5 -193.5
t197.5 -71.5zM243 -77l65 79h43l-44 -53q14 2 24 2q29 0 47 -15.5t18 -42.5q0 -42 -35 -63.5t-83 -21.5q-35 0 -72 14l14 34q26 -12 57 -12q27 0 47 10t20 33q0 14 -11 21.5t-29 7.5q-28 0 -42 -9z" />
    <glyph glyph-name="Egrave" unicode="&#xc8;" horiz-adv-x="563" 
d="M460 0h-428l154 725h428l-12 -60h-361l-55 -260h337l-13 -61h-337l-60 -284h360zM456 773h-61l-124 113h92z" />
    <glyph glyph-name="Eacute" unicode="&#xc9;" horiz-adv-x="563" 
d="M460 0h-428l154 725h428l-12 -60h-361l-55 -260h337l-13 -61h-337l-60 -284h360zM492 886h93l-168 -113h-67z" />
    <glyph glyph-name="Ecircumflex" unicode="&#xca;" horiz-adv-x="563" 
d="M460 0h-428l154 725h428l-12 -60h-361l-55 -260h337l-13 -61h-337l-60 -284h360zM400 886h65l109 -113h-70l-76 74l-113 -74h-77z" />
    <glyph glyph-name="Edieresis" unicode="&#xcb;" horiz-adv-x="563" 
d="M460 0h-428l154 725h428l-12 -60h-361l-55 -260h337l-13 -61h-337l-60 -284h360zM267 781l22 97h64l-22 -97h-64zM489 781l23 97h64l-23 -97h-64z" />
    <glyph glyph-name="Igrave" unicode="&#xcc;" horiz-adv-x="416" 
d="M338 60l-13 -60h-348l13 60h140l128 605h-140l13 60h348l-13 -60h-140l-128 -605h140zM364 773h-61l-124 113h92z" />
    <glyph glyph-name="Iacute" unicode="&#xcd;" horiz-adv-x="416" 
d="M338 60l-13 -60h-348l13 60h140l128 605h-140l13 60h348l-13 -60h-140l-128 -605h140zM401 886h93l-168 -113h-67z" />
    <glyph glyph-name="Icircumflex" unicode="&#xce;" horiz-adv-x="416" 
d="M338 60l-13 -60h-348l13 60h140l128 605h-140l13 60h348l-13 -60h-140l-128 -605h140zM308 886h65l109 -113h-70l-76 74l-113 -74h-77z" />
    <glyph glyph-name="Idieresis" unicode="&#xcf;" horiz-adv-x="416" 
d="M338 60l-13 -60h-348l13 60h140l128 605h-140l13 60h348l-13 -60h-140l-128 -605h140zM170 781l22 97h64l-22 -97h-64zM392 781l23 97h64l-23 -97h-64z" />
    <glyph glyph-name="Eth" unicode="&#xd0;" horiz-adv-x="720" 
d="M368 725q155 0 241.5 -74.5t86.5 -219.5q0 -131 -52.5 -228t-151.5 -150t-235 -53h-213l72 342h-85l12 56h86l69 327h170zM262 59q110 0 192 43t126.5 126.5t44.5 200.5t-70 177t-194 60h-107l-57 -268h200l-12 -56h-200l-60 -283h137z" />
    <glyph glyph-name="Ntilde" unicode="&#xd1;" horiz-adv-x="742" 
d="M750 725l-154 -725h-91l-266 654l-139 -654h-68l154 725h91l266 -654l139 654h68zM499 851q19 -12 30.5 -18t26.5 -6q46 0 62 53h50q-12 -48 -44 -75t-73 -27q-22 0 -39 7.5t-39 22.5q-17 13 -30 19t-28 6q-22 0 -38 -14t-23 -40h-50q12 48 43.5 75t72.5 27q23 0 40 -7.5
t39 -22.5z" />
    <glyph glyph-name="Ograve" unicode="&#xd2;" horiz-adv-x="761" 
d="M349 -13q-89 0 -154 37t-99.5 105.5t-34.5 161.5q0 105 44.5 208t133.5 171t214 68q89 0 154 -37t99.5 -105.5t34.5 -161.5q0 -105 -44.5 -208t-133.5 -171t-214 -68zM357 47q100 0 170.5 58.5t106.5 148t36 180.5q0 69 -25.5 124.5t-76 87.5t-123.5 32
q-100 0 -171 -58.5t-107 -148t-36 -180.5q0 -70 25.5 -125t76.5 -87t124 -32zM517 773h-61l-124 113h92z" />
    <glyph glyph-name="Oacute" unicode="&#xd3;" horiz-adv-x="761" 
d="M349 -13q-89 0 -154 37t-99.5 105.5t-34.5 161.5q0 105 44.5 208t133.5 171t214 68q89 0 154 -37t99.5 -105.5t34.5 -161.5q0 -105 -44.5 -208t-133.5 -171t-214 -68zM357 47q100 0 170.5 58.5t106.5 148t36 180.5q0 69 -25.5 124.5t-76 87.5t-123.5 32
q-100 0 -171 -58.5t-107 -148t-36 -180.5q0 -70 25.5 -125t76.5 -87t124 -32zM574 886h93l-168 -113h-67z" />
    <glyph glyph-name="Ocircumflex" unicode="&#xd4;" horiz-adv-x="761" 
d="M349 -13q-89 0 -154 37t-99.5 105.5t-34.5 161.5q0 105 44.5 208t133.5 171t214 68q89 0 154 -37t99.5 -105.5t34.5 -161.5q0 -105 -44.5 -208t-133.5 -171t-214 -68zM357 47q100 0 170.5 58.5t106.5 148t36 180.5q0 69 -25.5 124.5t-76 87.5t-123.5 32
q-100 0 -171 -58.5t-107 -148t-36 -180.5q0 -70 25.5 -125t76.5 -87t124 -32zM471 886h65l109 -113h-70l-76 74l-113 -74h-77z" />
    <glyph glyph-name="Otilde" unicode="&#xd5;" horiz-adv-x="761" 
d="M349 -13q-89 0 -154 37t-99.5 105.5t-34.5 161.5q0 105 44.5 208t133.5 171t214 68q89 0 154 -37t99.5 -105.5t34.5 -161.5q0 -105 -44.5 -208t-133.5 -171t-214 -68zM357 47q100 0 170.5 58.5t106.5 148t36 180.5q0 69 -25.5 124.5t-76 87.5t-123.5 32
q-100 0 -171 -58.5t-107 -148t-36 -180.5q0 -70 25.5 -125t76.5 -87t124 -32zM502 851q19 -12 30.5 -18t26.5 -6q46 0 62 53h50q-12 -48 -44 -75t-73 -27q-22 0 -39 7.5t-39 22.5q-17 13 -30 19t-28 6q-22 0 -38 -14t-23 -40h-50q12 48 43.5 75t72.5 27q23 0 40 -7.5
t39 -22.5z" />
    <glyph glyph-name="Odieresis" unicode="&#xd6;" horiz-adv-x="761" 
d="M349 -13q-89 0 -154 37t-99.5 105.5t-34.5 161.5q0 105 44.5 208t133.5 171t214 68q89 0 154 -37t99.5 -105.5t34.5 -161.5q0 -105 -44.5 -208t-133.5 -171t-214 -68zM357 47q100 0 170.5 58.5t106.5 148t36 180.5q0 69 -25.5 124.5t-76 87.5t-123.5 32
q-100 0 -171 -58.5t-107 -148t-36 -180.5q0 -70 25.5 -125t76.5 -87t124 -32zM337 781l22 97h64l-22 -97h-64zM559 781l23 97h64l-23 -97h-64z" />
    <glyph glyph-name="multiply" unicode="&#xd7;" 
d="M381 269l187 -186l-43 -43l-188 187l-185 -187l-42 42l186 186l-187 187l43 43l187 -188l187 188l42 -41z" />
    <glyph glyph-name="Oslash" unicode="&#xd8;" horiz-adv-x="762" 
d="M783 706l-89 -88q47 -74 47 -184q0 -105 -44.5 -208t-133.5 -171t-214 -68q-132 0 -210 80l-86 -85l-34 37l89 88q-47 74 -47 184q0 105 44.5 208t133.5 171t214 68q133 0 210 -80l85 85zM160 159l453 449q-60 70 -168 70q-100 0 -171 -58.5t-107 -148t-36 -180.5
q0 -74 29 -132zM641 565l-452 -448q59 -70 168 -70q100 0 170.5 58.5t106.5 148t36 180.5q0 75 -29 131z" />
    <glyph glyph-name="Ugrave" unicode="&#xd9;" horiz-adv-x="727" 
d="M319 47q115 0 176.5 61t88.5 186l92 431h68l-90 -425q-35 -162 -113.5 -237.5t-224.5 -75.5q-121 0 -181 48.5t-60 153.5q0 48 12 109l91 427h68l-93 -439q-11 -53 -11 -90q0 -76 43 -112.5t134 -36.5zM527 773h-61l-124 113h92z" />
    <glyph glyph-name="Uacute" unicode="&#xda;" horiz-adv-x="727" 
d="M319 47q115 0 176.5 61t88.5 186l92 431h68l-90 -425q-35 -162 -113.5 -237.5t-224.5 -75.5q-121 0 -181 48.5t-60 153.5q0 48 12 109l91 427h68l-93 -439q-11 -53 -11 -90q0 -76 43 -112.5t134 -36.5zM550 886h93l-168 -113h-67z" />
    <glyph glyph-name="Ucircumflex" unicode="&#xdb;" horiz-adv-x="727" 
d="M319 47q115 0 176.5 61t88.5 186l92 431h68l-90 -425q-35 -162 -113.5 -237.5t-224.5 -75.5q-121 0 -181 48.5t-60 153.5q0 48 12 109l91 427h68l-93 -439q-11 -53 -11 -90q0 -76 43 -112.5t134 -36.5zM458 886h65l109 -113h-70l-76 74l-113 -74h-77z" />
    <glyph glyph-name="Udieresis" unicode="&#xdc;" horiz-adv-x="727" 
d="M319 47q115 0 176.5 61t88.5 186l92 431h68l-90 -425q-35 -162 -113.5 -237.5t-224.5 -75.5q-121 0 -181 48.5t-60 153.5q0 48 12 109l91 427h68l-93 -439q-11 -53 -11 -90q0 -76 43 -112.5t134 -36.5zM318 781l22 97h64l-22 -97h-64zM540 781l23 97h64l-23 -97h-64z" />
    <glyph glyph-name="Yacute" unicode="&#xdd;" horiz-adv-x="604" 
d="M269 274l-164 451h72l137 -388l303 388h79l-360 -453l-57 -272h-68zM519 886h93l-168 -113h-67z" />
    <glyph glyph-name="Thorn" unicode="&#xde;" horiz-adv-x="629" 
d="M355 585q122 0 190.5 -41t68.5 -134q0 -139 -93 -194.5t-255 -55.5h-132l-34 -160h-68l154 725h68l-30 -140h131zM211 525l-64 -305h131q121 0 192.5 38t71.5 148q0 68 -51 93.5t-143 25.5h-137z" />
    <glyph glyph-name="germandbls" unicode="&#xdf;" horiz-adv-x="627" 
d="M83 0h-62l112 531q26 121 95.5 175t178.5 54q55 0 99.5 -20.5t70 -58.5t25.5 -89q0 -61 -40.5 -107t-110.5 -63q58 -16 92.5 -62.5t34.5 -118.5q0 -81 -39.5 -138.5t-106.5 -86.5t-149 -29q-61 0 -108 11l13 59q50 -12 96 -12q98 0 162.5 49t64.5 144q0 72 -49 110.5
t-130 38.5h-26l13 58h33q47 0 89.5 17t69 49t26.5 76q0 53 -36 86.5t-99 33.5q-84 0 -135.5 -41.5t-72.5 -142.5z" />
    <glyph glyph-name="agrave" unicode="&#xe0;" horiz-adv-x="529" 
d="M412 340q4 24 4 41q0 58 -37.5 83.5t-100.5 25.5q-46 0 -88.5 -9t-74.5 -24l14 62q75 28 159 28t136 -37.5t52 -119.5q0 -22 -2 -34q0 -19 -10.5 -68.5t-13.5 -61.5l-11 -49q-10 -48 -18.5 -90t-13.5 -87h-62l16 88q-31 -49 -78.5 -75t-107.5 -26q-69 0 -117 37.5
t-48 106.5q0 67 46.5 109.5t134 65t221.5 34.5zM395 245l9 44q-115 -10 -186 -28.5t-105 -48t-34 -74.5q0 -47 31.5 -72.5t82.5 -25.5q69 0 124 50.5t78 154.5zM359 639h-56l-130 116h83z" />
    <glyph glyph-name="aacute" unicode="&#xe1;" horiz-adv-x="529" 
d="M412 340q4 24 4 41q0 58 -37.5 83.5t-100.5 25.5q-46 0 -88.5 -9t-74.5 -24l14 62q75 28 159 28t136 -37.5t52 -119.5q0 -22 -2 -34q0 -19 -10.5 -68.5t-13.5 -61.5l-11 -49q-10 -48 -18.5 -90t-13.5 -87h-62l16 88q-31 -49 -78.5 -75t-107.5 -26q-69 0 -117 37.5
t-48 106.5q0 67 46.5 109.5t134 65t221.5 34.5zM395 245l9 44q-115 -10 -186 -28.5t-105 -48t-34 -74.5q0 -47 31.5 -72.5t82.5 -25.5q69 0 124 50.5t78 154.5zM415 755h87l-152 -116h-58z" />
    <glyph glyph-name="acircumflex" unicode="&#xe2;" horiz-adv-x="529" 
d="M412 340q4 24 4 41q0 58 -37.5 83.5t-100.5 25.5q-46 0 -88.5 -9t-74.5 -24l14 62q75 28 159 28t136 -37.5t52 -119.5q0 -22 -2 -34q0 -19 -10.5 -68.5t-13.5 -61.5l-11 -49q-10 -48 -18.5 -90t-13.5 -87h-62l16 88q-31 -49 -78.5 -75t-107.5 -26q-69 0 -117 37.5
t-48 106.5q0 67 46.5 109.5t134 65t221.5 34.5zM395 245l9 44q-115 -10 -186 -28.5t-105 -48t-34 -74.5q0 -47 31.5 -72.5t82.5 -25.5q69 0 124 50.5t78 154.5zM326 755h60l109 -116h-64l-81 72l-112 -72h-72z" />
    <glyph glyph-name="atilde" unicode="&#xe3;" horiz-adv-x="529" 
d="M412 340q4 24 4 41q0 58 -37.5 83.5t-100.5 25.5q-46 0 -88.5 -9t-74.5 -24l14 62q75 28 159 28t136 -37.5t52 -119.5q0 -22 -2 -34q0 -19 -10.5 -68.5t-13.5 -61.5l-11 -49q-10 -48 -18.5 -90t-13.5 -87h-62l16 88q-31 -49 -78.5 -75t-107.5 -26q-69 0 -117 37.5
t-48 106.5q0 67 46.5 109.5t134 65t221.5 34.5zM395 245l9 44q-115 -10 -186 -28.5t-105 -48t-34 -74.5q0 -47 31.5 -72.5t82.5 -25.5q69 0 124 50.5t78 154.5zM469 751h51q-17 -50 -46.5 -76t-67.5 -26q-21 0 -37.5 7t-40.5 22q-18 12 -31.5 18.5t-28.5 6.5q-43 0 -63 -53
h-52q16 50 46.5 76t68.5 26q22 0 40.5 -8t39.5 -22q19 -12 31 -17.5t26 -5.5q43 0 64 52z" />
    <glyph glyph-name="adieresis" unicode="&#xe4;" horiz-adv-x="529" 
d="M412 340q4 24 4 41q0 58 -37.5 83.5t-100.5 25.5q-46 0 -88.5 -9t-74.5 -24l14 62q75 28 159 28t136 -37.5t52 -119.5q0 -22 -2 -34q0 -19 -10.5 -68.5t-13.5 -61.5l-11 -49q-10 -48 -18.5 -90t-13.5 -87h-62l16 88q-31 -49 -78.5 -75t-107.5 -26q-69 0 -117 37.5
t-48 106.5q0 67 46.5 109.5t134 65t221.5 34.5zM395 245l9 44q-115 -10 -186 -28.5t-105 -48t-34 -74.5q0 -47 31.5 -72.5t82.5 -25.5q69 0 124 50.5t78 154.5zM253 658h-62l20 97h62zM413 658l21 97h63l-20 -97h-64z" />
    <glyph glyph-name="aring" unicode="&#xe5;" horiz-adv-x="529" 
d="M412 340q4 24 4 41q0 58 -37.5 83.5t-100.5 25.5q-46 0 -88.5 -9t-74.5 -24l14 62q75 28 159 28t136 -37.5t52 -119.5q0 -22 -2 -34q0 -19 -10.5 -68.5t-13.5 -61.5l-11 -49q-10 -48 -18.5 -90t-13.5 -87h-62l16 88q-31 -49 -78.5 -75t-107.5 -26q-69 0 -117 37.5
t-48 106.5q0 67 46.5 109.5t134 65t221.5 34.5zM395 245l9 44q-115 -10 -186 -28.5t-105 -48t-34 -74.5q0 -47 31.5 -72.5t82.5 -25.5q69 0 124 50.5t78 154.5zM435 708q0 -36 -25.5 -60t-63.5 -24q-37 0 -62.5 24t-25.5 60t25.5 59.5t62.5 23.5t63 -23.5t26 -59.5zM296 708
q0 -21 15.5 -35.5t34.5 -14.5q21 0 35.5 14.5t14.5 35.5t-14.5 35t-35.5 14q-20 0 -35 -14t-15 -35z" />
    <glyph glyph-name="ae" unicode="&#xe6;" horiz-adv-x="895" 
d="M459 255v-17q0 -99 53 -147t133 -48q40 0 75.5 8.5t60.5 21.5l-16 -62q-26 -11 -63.5 -17.5t-76.5 -6.5q-78 0 -134.5 40t-77.5 117q-41 -85 -104 -121t-134 -36q-69 0 -117 37.5t-48 106.5q0 67 46.5 109.5t134 65t221.5 34.5q4 24 4 41q0 58 -37.5 83.5t-100.5 25.5
q-46 0 -88.5 -9t-74.5 -24l14 62q75 28 159 28q67 0 116 -25t66 -84q36 52 92 80.5t121 28.5q91 0 139.5 -56t48.5 -152q0 -44 -8 -84h-404zM466 306h340q3 21 3 40q0 72 -37 109.5t-97 37.5q-75 0 -133 -50.5t-76 -136.5zM404 289q-115 -10 -186 -28.5t-105 -48t-34 -74.5
q0 -47 31.5 -72.5t82.5 -25.5q69 0 124.5 51t77.5 154z" />
    <glyph glyph-name="ccedilla" unicode="&#xe7;" horiz-adv-x="460" 
d="M285 44q27 0 53.5 5t45.5 13l-12 -59q-46 -16 -104 -16q-70 0 -122.5 29.5t-80.5 83t-28 123.5q0 90 41 164t111.5 117t155.5 43q79 0 133 -30l-12 -59q-24 15 -57.5 23.5t-68.5 8.5q-64 0 -118.5 -32.5t-86.5 -92t-32 -137.5q0 -87 50.5 -135.5t131.5 -48.5zM139 -77
l65 79h43l-44 -53q14 2 24 2q29 0 47 -15.5t18 -42.5q0 -42 -34.5 -63t-83.5 -21q-38 0 -72 13l14 34q26 -12 57 -12q27 0 47 10t20 33q0 14 -11 21.5t-29 7.5q-28 0 -42 -9z" />
    <glyph glyph-name="egrave" unicode="&#xe8;" horiz-adv-x="541" 
d="M104 255v-17q0 -98 53.5 -146.5t132.5 -48.5q41 0 77.5 9.5t63.5 24.5l-16 -62q-28 -13 -66 -20.5t-76 -7.5q-70 0 -123.5 30.5t-83 85.5t-29.5 125q0 82 36.5 155.5t103 118.5t152.5 45q90 0 139 -55.5t49 -151.5q0 -40 -9 -85h-404zM111 306h340q3 21 3 40
q0 72 -37 109.5t-97 37.5q-75 0 -133 -50.5t-76 -136.5zM380 639h-56l-130 116h83z" />
    <glyph glyph-name="eacute" unicode="&#xe9;" horiz-adv-x="541" 
d="M104 255v-17q0 -98 53.5 -146.5t132.5 -48.5q41 0 77.5 9.5t63.5 24.5l-16 -62q-28 -13 -66 -20.5t-76 -7.5q-70 0 -123.5 30.5t-83 85.5t-29.5 125q0 82 36.5 155.5t103 118.5t152.5 45q90 0 139 -55.5t49 -151.5q0 -40 -9 -85h-404zM111 306h340q3 21 3 40
q0 72 -37 109.5t-97 37.5q-75 0 -133 -50.5t-76 -136.5zM423 755h87l-152 -116h-58z" />
    <glyph glyph-name="ecircumflex" unicode="&#xea;" horiz-adv-x="541" 
d="M104 255v-17q0 -98 53.5 -146.5t132.5 -48.5q41 0 77.5 9.5t63.5 24.5l-16 -62q-28 -13 -66 -20.5t-76 -7.5q-70 0 -123.5 30.5t-83 85.5t-29.5 125q0 82 36.5 155.5t103 118.5t152.5 45q90 0 139 -55.5t49 -151.5q0 -40 -9 -85h-404zM111 306h340q3 21 3 40
q0 72 -37 109.5t-97 37.5q-75 0 -133 -50.5t-76 -136.5zM338 755h60l109 -116h-64l-81 72l-112 -72h-72z" />
    <glyph glyph-name="edieresis" unicode="&#xeb;" horiz-adv-x="541" 
d="M104 255v-17q0 -98 53.5 -146.5t132.5 -48.5q41 0 77.5 9.5t63.5 24.5l-16 -62q-28 -13 -66 -20.5t-76 -7.5q-70 0 -123.5 30.5t-83 85.5t-29.5 125q0 82 36.5 155.5t103 118.5t152.5 45q90 0 139 -55.5t49 -151.5q0 -40 -9 -85h-404zM111 306h340q3 21 3 40
q0 72 -37 109.5t-97 37.5q-75 0 -133 -50.5t-76 -136.5zM279 658h-62l20 97h62zM439 658l21 97h63l-20 -97h-64z" />
    <glyph glyph-name="igrave" unicode="&#xec;" horiz-adv-x="217" 
d="M213 639h-56l-130 116h83zM21 0l114 538h62l-114 -538h-62z" />
    <glyph glyph-name="iacute" unicode="&#xed;" horiz-adv-x="217" 
d="M273 755h87l-152 -116h-58zM21 0l114 538h62l-114 -538h-62z" />
    <glyph glyph-name="icircumflex" unicode="&#xee;" horiz-adv-x="217" 
d="M181 755h61l88 -116h-65l-59 72l-96 -72h-70zM21 0l114 538h62l-114 -538h-62z" />
    <glyph glyph-name="idieresis" unicode="&#xef;" horiz-adv-x="217" 
d="M21 0l114 538h62l-114 -538h-62zM108 658h-62l20 97h62zM268 658l21 97h63l-20 -97h-64z" />
    <glyph glyph-name="eth" unicode="&#xf0;" horiz-adv-x="562" 
d="M409 664q58 -58 88 -134.5t30 -184.5q0 -91 -33 -173t-98 -133.5t-155 -51.5q-92 0 -149 56.5t-57 159.5q0 81 30.5 159t92.5 128.5t149 50.5q51 0 88 -20.5t61 -69.5l1 1q-15 98 -103 181l-96 -56l-15 29l85 49q-28 23 -67 46l33 48q54 -31 89 -62l97 56l16 -29z
M459 322q0 80 -39.5 122t-109.5 42q-67 0 -114 -42t-70.5 -106t-23.5 -131q0 -80 39.5 -122t109.5 -42q67 0 114 42t70.5 106t23.5 131z" />
    <glyph glyph-name="ntilde" unicode="&#xf1;" horiz-adv-x="571" 
d="M512 751h51q-17 -50 -46.5 -76t-67.5 -26q-21 0 -37.5 7t-40.5 22q-18 12 -31.5 18.5t-28.5 6.5q-43 0 -63 -53h-52q16 50 46.5 76t68.5 26q22 0 40.5 -8t39.5 -22q19 -12 31 -17.5t26 -5.5q43 0 64 52zM135 538h62l-20 -94q29 46 76.5 74.5t116.5 28.5q152 0 152 -144
q0 -39 -8 -75l-70 -328h-62l68 320q8 37 8 71q0 54 -26 77.5t-78 23.5q-79 0 -134 -54t-77 -158l-60 -280h-62z" />
    <glyph glyph-name="ograve" unicode="&#xf2;" horiz-adv-x="568" 
d="M34 203q0 82 33 161t99 131t159 52t150.5 -56.5t57.5 -159.5q0 -81 -33.5 -160.5t-99.5 -131.5t-159 -52q-92 0 -149.5 56.5t-57.5 159.5zM466 327q0 80 -40 122t-110 42q-69 0 -117.5 -42.5t-73 -108t-24.5 -133.5q0 -80 40 -122t110 -42q69 0 117.5 42.5t73 108
t24.5 133.5zM394 639h-56l-130 116h83z" />
    <glyph glyph-name="oacute" unicode="&#xf3;" horiz-adv-x="568" 
d="M34 203q0 82 33 161t99 131t159 52t150.5 -56.5t57.5 -159.5q0 -81 -33.5 -160.5t-99.5 -131.5t-159 -52q-92 0 -149.5 56.5t-57.5 159.5zM466 327q0 80 -40 122t-110 42q-69 0 -117.5 -42.5t-73 -108t-24.5 -133.5q0 -80 40 -122t110 -42q69 0 117.5 42.5t73 108
t24.5 133.5zM453 755h87l-152 -116h-58z" />
    <glyph glyph-name="ocircumflex" unicode="&#xf4;" horiz-adv-x="568" 
d="M34 203q0 82 33 161t99 131t159 52t150.5 -56.5t57.5 -159.5q0 -81 -33.5 -160.5t-99.5 -131.5t-159 -52q-92 0 -149.5 56.5t-57.5 159.5zM466 327q0 80 -40 122t-110 42q-69 0 -117.5 -42.5t-73 -108t-24.5 -133.5q0 -80 40 -122t110 -42q69 0 117.5 42.5t73 108
t24.5 133.5zM351 755h60l109 -116h-64l-81 72l-112 -72h-72z" />
    <glyph glyph-name="otilde" unicode="&#xf5;" horiz-adv-x="568" 
d="M34 203q0 82 33 161t99 131t159 52t150.5 -56.5t57.5 -159.5q0 -81 -33.5 -160.5t-99.5 -131.5t-159 -52q-92 0 -149.5 56.5t-57.5 159.5zM466 327q0 80 -40 122t-110 42q-69 0 -117.5 -42.5t-73 -108t-24.5 -133.5q0 -80 40 -122t110 -42q69 0 117.5 42.5t73 108
t24.5 133.5zM499 751h51q-17 -50 -46.5 -76t-67.5 -26q-21 0 -37.5 7t-40.5 22q-18 12 -31.5 18.5t-28.5 6.5q-43 0 -63 -53h-52q16 50 46.5 76t68.5 26q22 0 40.5 -8t39.5 -22q19 -12 31 -17.5t26 -5.5q43 0 64 52z" />
    <glyph glyph-name="odieresis" unicode="&#xf6;" horiz-adv-x="568" 
d="M34 203q0 82 33 161t99 131t159 52t150.5 -56.5t57.5 -159.5q0 -81 -33.5 -160.5t-99.5 -131.5t-159 -52q-92 0 -149.5 56.5t-57.5 159.5zM466 327q0 80 -40 122t-110 42q-69 0 -117.5 -42.5t-73 -108t-24.5 -133.5q0 -80 40 -122t110 -42q69 0 117.5 42.5t73 108
t24.5 133.5zM284 658h-62l20 97h62zM444 658l21 97h63l-20 -97h-64z" />
    <glyph glyph-name="divide" unicode="&#xf7;" 
d="M380 405h-79v103h79v-103zM609 299v-60h-540v60h540zM380 29h-79v104h79v-104z" />
    <glyph glyph-name="oslash" unicode="&#xf8;" horiz-adv-x="577" 
d="M582 518l-71 -68q27 -51 27 -119q0 -81 -33.5 -160.5t-99.5 -131.5t-159 -52q-96 0 -153 59l-66 -64l-32 34l71 68q-27 51 -27 119q0 82 33 161t99 131t159 52q47 0 86 -15t67 -44l67 64zM117 134l320 309q-40 48 -116 48q-69 0 -117.5 -42.5t-73 -108t-24.5 -133.5
q0 -40 11 -73zM460 400l-320 -309q41 -48 116 -48q69 0 117.5 42.5t73 108t24.5 133.5q0 40 -11 73z" />
    <glyph glyph-name="ugrave" unicode="&#xf9;" horiz-adv-x="560" 
d="M382 92q-30 -47 -74.5 -76t-112.5 -29q-146 0 -146 142q0 40 8 77l71 332h62l-70 -328q-9 -42 -9 -71q0 -51 25 -73.5t75 -22.5q79 0 131.5 54t74.5 159l60 282h62l-114 -538h-62zM410 639h-56l-130 116h83z" />
    <glyph glyph-name="uacute" unicode="&#xfa;" horiz-adv-x="560" 
d="M382 92q-30 -47 -74.5 -76t-112.5 -29q-146 0 -146 142q0 40 8 77l71 332h62l-70 -328q-9 -42 -9 -71q0 -51 25 -73.5t75 -22.5q79 0 131.5 54t74.5 159l60 282h62l-114 -538h-62zM444 755h87l-152 -116h-58z" />
    <glyph glyph-name="ucircumflex" unicode="&#xfb;" horiz-adv-x="560" 
d="M382 92q-30 -47 -74.5 -76t-112.5 -29q-146 0 -146 142q0 40 8 77l71 332h62l-70 -328q-9 -42 -9 -71q0 -51 25 -73.5t75 -22.5q79 0 131.5 54t74.5 159l60 282h62l-114 -538h-62zM343 755h60l109 -116h-64l-81 72l-112 -72h-72z" />
    <glyph glyph-name="udieresis" unicode="&#xfc;" horiz-adv-x="560" 
d="M382 92q-30 -47 -74.5 -76t-112.5 -29q-146 0 -146 142q0 40 8 77l71 332h62l-70 -328q-9 -42 -9 -71q0 -51 25 -73.5t75 -22.5q79 0 131.5 54t74.5 159l60 282h62l-114 -538h-62zM273 658h-62l20 97h62zM433 658l21 97h63l-20 -97h-64z" />
    <glyph glyph-name="yacute" unicode="&#xfd;" horiz-adv-x="483" 
d="M530 538l-427 -733h-65l118 203l-89 530h64l72 -454l258 454h69zM398 755h87l-152 -116h-58z" />
    <glyph glyph-name="thorn" unicode="&#xfe;" horiz-adv-x="588" 
d="M179 455q29 43 74 67.5t101 24.5q96 0 145.5 -64.5t49.5 -168.5q0 -83 -31 -158t-90 -122t-139 -47q-70 0 -116 39t-62 105l-69 -326h-62l201 950h62zM286 42q64 0 108.5 42.5t66.5 105.5t22 124q0 81 -36.5 129.5t-106.5 48.5q-61 0 -108.5 -39.5t-73 -100.5t-25.5 -122
q0 -85 41.5 -136.5t111.5 -51.5z" />
    <glyph glyph-name="ydieresis" unicode="&#xff;" horiz-adv-x="483" 
d="M530 538l-427 -733h-65l118 203l-89 530h64l72 -454l258 454h69zM241 658h-62l20 97h62zM401 658l21 97h63l-20 -97h-64z" />
    <glyph glyph-name="Abreve" unicode="&#x102;" horiz-adv-x="645" 
d="M581 0h-70l-35 218h-323l-127 -218h-74l429 725h76zM406 652l-218 -374h278zM594 886q-11 -57 -54.5 -87.5t-109.5 -30.5q-65 0 -101 30.5t-35 87.5h55q0 -40 22 -56.5t61 -16.5q40 0 70 17.5t38 55.5h54z" />
    <glyph glyph-name="Amacron" unicode="&#x100;" horiz-adv-x="645" 
d="M581 0h-70l-35 218h-323l-127 -218h-74l429 725h76zM406 652l-218 -374h278zM581 858l-11 -55h-284l11 55h284z" />
    <glyph glyph-name="Aogonek" unicode="&#x104;" horiz-adv-x="645" 
d="M525 -142q24 0 49 9l-11 -45q-30 -10 -63 -10q-38 0 -62 18.5t-24 51.5q0 35 28 67t69 51l-35 218h-323l-127 -218h-74l429 725h76l124 -725q-104 -58 -104 -102q0 -19 13 -29.5t35 -10.5zM406 652l-218 -374h278z" />
    <glyph glyph-name="Cacute" unicode="&#x106;" horiz-adv-x="622" 
d="M403 47q79 0 150 26l-12 -64q-69 -22 -150 -22q-98 0 -172.5 40.5t-115 113.5t-40.5 168q0 116 53.5 214.5t150 156.5t219.5 58q55 0 108 -12.5t88 -32.5l-13 -64q-34 22 -82.5 35.5t-103.5 13.5q-100 0 -179.5 -46.5t-124.5 -130t-45 -189.5q0 -122 71.5 -193.5
t197.5 -71.5zM577 886h93l-168 -113h-67z" />
    <glyph glyph-name="Ccaron" unicode="&#x10c;" horiz-adv-x="622" 
d="M403 47q79 0 150 26l-12 -64q-69 -22 -150 -22q-98 0 -172.5 40.5t-115 113.5t-40.5 168q0 116 53.5 214.5t150 156.5t219.5 58q55 0 108 -12.5t88 -32.5l-13 -64q-34 22 -82.5 35.5t-103.5 13.5q-100 0 -179.5 -46.5t-124.5 -130t-45 -189.5q0 -122 71.5 -193.5
t197.5 -71.5zM517 773h-64l-110 113h70l76 -74l113 74h77z" />
    <glyph glyph-name="Ccircumflex" unicode="&#x108;" horiz-adv-x="622" 
d="M403 47q79 0 150 26l-12 -64q-69 -22 -150 -22q-98 0 -172.5 40.5t-115 113.5t-40.5 168q0 116 53.5 214.5t150 156.5t219.5 58q55 0 108 -12.5t88 -32.5l-13 -64q-34 22 -82.5 35.5t-103.5 13.5q-100 0 -179.5 -46.5t-124.5 -130t-45 -189.5q0 -122 71.5 -193.5
t197.5 -71.5zM482 886h65l109 -113h-70l-76 74l-113 -74h-77z" />
    <glyph glyph-name="Cdotaccent" unicode="&#x10a;" horiz-adv-x="622" 
d="M403 47q79 0 150 26l-12 -64q-69 -22 -150 -22q-98 0 -172.5 40.5t-115 113.5t-40.5 168q0 116 53.5 214.5t150 156.5t219.5 58q55 0 108 -12.5t88 -32.5l-13 -64q-34 22 -82.5 35.5t-103.5 13.5q-100 0 -179.5 -46.5t-124.5 -130t-45 -189.5q0 -122 71.5 -193.5
t197.5 -71.5zM455 781l24 97h63l-23 -97h-64z" />
    <glyph glyph-name="Dcaron" unicode="&#x10e;" horiz-adv-x="708" 
d="M356 725q155 0 241.5 -74.5t86.5 -219.5q0 -131 -52.5 -228t-151.5 -150t-236 -53h-212l154 725h170zM348 666h-106l-130 -607h137q111 0 192.5 43t126 126.5t44.5 200.5t-69.5 177t-194.5 60zM443 773h-64l-110 113h70l76 -74l113 74h77z" />
    <glyph glyph-name="Dcroat" unicode="&#x110;" horiz-adv-x="720" 
d="M368 725q155 0 241.5 -74.5t86.5 -219.5q0 -131 -52.5 -228t-151.5 -150t-235 -53h-213l72 342h-85l12 56h86l69 327h170zM262 59q110 0 192 43t126.5 126.5t44.5 200.5t-70 177t-194 60h-107l-57 -268h200l-12 -56h-200l-60 -283h137z" />
    <glyph glyph-name="Ebreve" unicode="&#x114;" horiz-adv-x="563" 
d="M460 0h-428l154 725h428l-12 -60h-361l-55 -260h337l-13 -61h-337l-60 -284h360zM578 886q-11 -57 -54.5 -87.5t-109.5 -30.5q-65 0 -101 30.5t-35 87.5h55q0 -40 22 -56.5t61 -16.5q40 0 70 17.5t38 55.5h54z" />
    <glyph glyph-name="Ecaron" unicode="&#x11a;" horiz-adv-x="563" 
d="M460 0h-428l154 725h428l-12 -60h-361l-55 -260h337l-13 -61h-337l-60 -284h360zM438 773h-64l-110 113h70l76 -74l113 74h77z" />
    <glyph glyph-name="Emacron" unicode="&#x112;" horiz-adv-x="563" 
d="M460 0h-428l154 725h428l-12 -60h-361l-55 -260h337l-13 -61h-337l-60 -284h360zM572 858l-11 -55h-284l11 55h284z" />
    <glyph glyph-name="Eogonek" unicode="&#x118;" horiz-adv-x="563" 
d="M32 0l154 725h428l-12 -60h-361l-55 -260h337l-13 -61h-337l-60 -284h360l-13 -60q-53 -25 -83 -50t-30 -53q0 -18 13 -28.5t35 -10.5q19 0 37 9l-12 -46q-22 -9 -50 -9q-37 0 -61.5 18.5t-24.5 51.5q0 37 30.5 67.5t78.5 50.5h-361z" />
    <glyph glyph-name="Edotaccent" unicode="&#x116;" horiz-adv-x="563" 
d="M460 0h-428l154 725h428l-12 -60h-361l-55 -260h337l-13 -61h-337l-60 -284h360zM377 781l24 97h63l-23 -97h-64z" />
    <glyph glyph-name="Gbreve" unicode="&#x11e;" horiz-adv-x="709" 
d="M62 309q0 116 54.5 214.5t152 156.5t221.5 58q55 0 108 -12.5t88 -32.5l-13 -64q-34 22 -82.5 35.5t-103.5 13.5q-100 0 -180.5 -47t-127 -130t-46.5 -189q0 -80 32 -140t93 -92.5t145 -32.5q86 0 149 23l51 243h-205l13 60h270l-73 -346q-98 -40 -211 -40
q-101 0 -177 40.5t-117 113.5t-41 168zM671 886q-11 -57 -54.5 -87.5t-109.5 -30.5q-65 0 -101 30.5t-35 87.5h55q0 -40 22 -56.5t61 -16.5q40 0 70 17.5t38 55.5h54z" />
    <glyph glyph-name="Gcircumflex" unicode="&#x11c;" horiz-adv-x="709" 
d="M62 309q0 116 54.5 214.5t152 156.5t221.5 58q55 0 108 -12.5t88 -32.5l-13 -64q-34 22 -82.5 35.5t-103.5 13.5q-100 0 -180.5 -47t-127 -130t-46.5 -189q0 -80 32 -140t93 -92.5t145 -32.5q86 0 149 23l51 243h-205l13 60h270l-73 -346q-98 -40 -211 -40
q-101 0 -177 40.5t-117 113.5t-41 168zM498 886h65l109 -113h-70l-76 74l-113 -74h-77z" />
    <glyph glyph-name="uni0122" unicode="&#x122;" horiz-adv-x="709" 
d="M62 309q0 116 54.5 214.5t152 156.5t221.5 58q55 0 108 -12.5t88 -32.5l-13 -64q-34 22 -82.5 35.5t-103.5 13.5q-100 0 -180.5 -47t-127 -130t-46.5 -189q0 -80 32 -140t93 -92.5t145 -32.5q86 0 149 23l51 243h-205l13 60h270l-73 -346q-98 -40 -211 -40
q-101 0 -177 40.5t-117 113.5t-41 168zM325 -123h-25l18 80h63l-18 -83l-47 -80h-36z" />
    <glyph glyph-name="Gdotaccent" unicode="&#x120;" horiz-adv-x="709" 
d="M62 309q0 116 54.5 214.5t152 156.5t221.5 58q55 0 108 -12.5t88 -32.5l-13 -64q-34 22 -82.5 35.5t-103.5 13.5q-100 0 -180.5 -47t-127 -130t-46.5 -189q0 -80 32 -140t93 -92.5t145 -32.5q86 0 149 23l51 243h-205l13 60h270l-73 -346q-98 -40 -211 -40
q-101 0 -177 40.5t-117 113.5t-41 168zM473 781l24 97h63l-23 -97h-64z" />
    <glyph glyph-name="Hbar" unicode="&#x126;" horiz-adv-x="734" 
d="M637 580l31 145h68l-31 -145h66l-12 -56h-66l-111 -524h-68l73 344h-407l-74 -344h-68l111 524h-65l12 56h65l31 145h68l-31 -145h408zM217 524l-25 -119h408l25 119h-408z" />
    <glyph glyph-name="Hcircumflex" unicode="&#x124;" horiz-adv-x="721" 
d="M594 405l67 320h69l-154 -725h-69l74 344h-408l-73 -344h-68l154 725h68l-68 -320h408zM461 886h65l109 -113h-70l-76 74l-113 -74h-77z" />
    <glyph glyph-name="Ibreve" unicode="&#x12c;" horiz-adv-x="416" 
d="M338 60l-13 -60h-348l13 60h140l128 605h-140l13 60h348l-13 -60h-140l-128 -605h140zM482 886q-11 -57 -54.5 -87.5t-109.5 -30.5q-65 0 -101 30.5t-35 87.5h55q0 -40 22 -56.5t61 -16.5q40 0 70 17.5t38 55.5h54z" />
    <glyph glyph-name="Idotaccent" unicode="&#x130;" horiz-adv-x="416" 
d="M280 781l24 97h63l-23 -97h-64zM338 60l-13 -60h-348l13 60h140l128 605h-140l13 60h348l-13 -60h-140l-128 -605h140z" />
    <glyph glyph-name="Imacron" unicode="&#x12a;" horiz-adv-x="416" 
d="M473 858l-11 -55h-284l11 55h284zM338 60l-13 -60h-348l13 60h140l128 605h-140l13 60h348l-13 -60h-140l-128 -605h140z" />
    <glyph glyph-name="Iogonek" unicode="&#x12e;" horiz-adv-x="416" 
d="M-23 0l13 60h140l128 605h-140l13 60h348l-13 -60h-140l-128 -605h140l-13 -60h-119q-51 -25 -80 -49.5t-29 -53.5q0 -19 12.5 -29t35.5 -10q19 0 37 9l-11 -46q-10 -4 -24.5 -6.5t-25.5 -2.5q-37 0 -62 18.5t-25 51.5q0 36 28 67t76 51h-161z" />
    <glyph glyph-name="Itilde" unicode="&#x128;" horiz-adv-x="416" 
d="M342 851q19 -12 30.5 -18t26.5 -6q46 0 62 53h50q-12 -48 -44 -75t-73 -27q-22 0 -39 7.5t-39 22.5q-17 13 -30 19t-28 6q-22 0 -38 -14t-23 -40h-50q12 48 43.5 75t72.5 27q23 0 40 -7.5t39 -22.5zM338 60l-13 -60h-348l13 60h140l128 605h-140l13 60h348l-13 -60h-140
l-128 -605h140z" />
    <glyph glyph-name="uni1ECA" unicode="&#x1eca;" horiz-adv-x="416" 
d="M87 -175l20 97h62l-20 -97h-62zM338 60l-13 -60h-348l13 60h140l128 605h-140l13 60h348l-13 -60h-140l-128 -605h140z" />
    <glyph glyph-name="Jcircumflex" unicode="&#x134;" horiz-adv-x="319" 
d="M271 886h65l89 -113h-72l-57 71l-88 -71h-77zM-26 -4l17 61q29 -9 61 -9q67 0 82 72l116 545h-123l12 60h192l-127 -601q-16 -73 -57 -105t-103 -32q-15 0 -35.5 2.5t-34.5 6.5z" />
    <glyph glyph-name="uni0136" unicode="&#x136;" horiz-adv-x="618" 
d="M186 725h68l-73 -343l423 343h95l-447 -361l325 -364h-88l-314 351l-75 -351h-68zM252 -123h-25l18 80h63l-18 -83l-47 -80h-36z" />
    <glyph glyph-name="Lacute" unicode="&#x139;" horiz-adv-x="511" 
d="M186 725h68l-141 -665h332l-13 -60h-400zM343 886h93l-168 -113h-67z" />
    <glyph glyph-name="Lcaron" unicode="&#x13d;" horiz-adv-x="512" 
d="M186 725h68l-141 -665h332l-13 -60h-400zM389 726h69l-94 -170h-40z" />
    <glyph glyph-name="uni013B" unicode="&#x13b;" horiz-adv-x="511" 
d="M186 725h68l-141 -665h332l-13 -60h-400zM213 -123h-25l18 80h63l-18 -83l-47 -80h-36z" />
    <glyph glyph-name="Ldot" unicode="&#x13f;" horiz-adv-x="511" 
d="M186 725h68l-141 -665h332l-13 -60h-400zM362 350l24 97h63l-23 -97h-64z" />
    <glyph glyph-name="Lslash" unicode="&#x141;" horiz-adv-x="543" 
d="M217 725h68l-69 -325l215 129l-14 -66l-215 -129l-58 -273h332l-13 -61h-400l61 288l-97 -58l14 66l97 58z" />
    <glyph glyph-name="Eng" unicode="&#x14a;" horiz-adv-x="742" 
d="M358 -115q24 -12 59 -12q84 0 106 93l7 31l-291 657l-139 -654h-68l154 725h94l272 -611l131 611h67l-160 -759q-18 -83 -62.5 -119t-114.5 -36q-34 0 -68 12z" />
    <glyph glyph-name="Nacute" unicode="&#x143;" horiz-adv-x="742" 
d="M750 725l-154 -725h-91l-266 654l-139 -654h-68l154 725h91l266 -654l139 654h68zM571 886h93l-168 -113h-67z" />
    <glyph glyph-name="Ncaron" unicode="&#x147;" horiz-adv-x="742" 
d="M750 725l-154 -725h-91l-266 654l-139 -654h-68l154 725h91l266 -654l139 654h68zM509 773h-64l-110 113h70l76 -74l113 74h77z" />
    <glyph glyph-name="uni0145" unicode="&#x145;" horiz-adv-x="742" 
d="M750 725l-154 -725h-91l-266 654l-139 -654h-68l154 725h91l266 -654l139 654h68zM287 -123h-25l18 80h63l-18 -83l-47 -80h-36z" />
    <glyph glyph-name="OE" unicode="&#x152;" horiz-adv-x="1115" 
d="M611 115q-44 -62 -112 -95t-150 -33q-89 0 -154 37t-99.5 105.5t-34.5 161.5q0 105 44.5 208t133.5 171t214 68q94 0 159 -42t96 -118l31 147h427l-13 -60h-360l-55 -260h336l-13 -61h-336l-60 -284h360l-13 -60h-426zM357 47q100 0 170.5 58.5t106.5 148t36 180.5
q0 70 -25.5 125t-76.5 87t-124 32q-100 0 -170.5 -58.5t-106.5 -148t-36 -180.5q0 -70 25.5 -125t76.5 -87t124 -32z" />
    <glyph glyph-name="Obreve" unicode="&#x14e;" horiz-adv-x="761" 
d="M349 -13q-89 0 -154 37t-99.5 105.5t-34.5 161.5q0 105 44.5 208t133.5 171t214 68q89 0 154 -37t99.5 -105.5t34.5 -161.5q0 -105 -44.5 -208t-133.5 -171t-214 -68zM357 47q100 0 170.5 58.5t106.5 148t36 180.5q0 69 -25.5 124.5t-76 87.5t-123.5 32
q-100 0 -171 -58.5t-107 -148t-36 -180.5q0 -70 25.5 -125t76.5 -87t124 -32zM651 886q-11 -57 -54.5 -87.5t-109.5 -30.5q-65 0 -101 30.5t-35 87.5h55q0 -40 22 -56.5t61 -16.5q40 0 70 17.5t38 55.5h54z" />
    <glyph glyph-name="Ohungarumlaut" unicode="&#x150;" horiz-adv-x="761" 
d="M349 -13q-89 0 -154 37t-99.5 105.5t-34.5 161.5q0 105 44.5 208t133.5 171t214 68q89 0 154 -37t99.5 -105.5t34.5 -161.5q0 -105 -44.5 -208t-133.5 -171t-214 -68zM357 47q100 0 170.5 58.5t106.5 148t36 180.5q0 69 -25.5 124.5t-76 87.5t-123.5 32
q-100 0 -171 -58.5t-107 -148t-36 -180.5q0 -70 25.5 -125t76.5 -87t124 -32zM487 886h93l-168 -113h-67zM658 886h92l-167 -113h-68z" />
    <glyph glyph-name="Omacron" unicode="&#x14c;" horiz-adv-x="761" 
d="M349 -13q-89 0 -154 37t-99.5 105.5t-34.5 161.5q0 105 44.5 208t133.5 171t214 68q89 0 154 -37t99.5 -105.5t34.5 -161.5q0 -105 -44.5 -208t-133.5 -171t-214 -68zM357 47q100 0 170.5 58.5t106.5 148t36 180.5q0 69 -25.5 124.5t-76 87.5t-123.5 32
q-100 0 -171 -58.5t-107 -148t-36 -180.5q0 -70 25.5 -125t76.5 -87t124 -32zM640 858l-11 -55h-284l11 55h284z" />
    <glyph glyph-name="uni1ECC" unicode="&#x1ecc;" horiz-adv-x="761" 
d="M255 -175l20 97h62l-20 -97h-62zM349 -13q-89 0 -154 37t-99.5 105.5t-34.5 161.5q0 105 44.5 208t133.5 171t214 68q89 0 154 -37t99.5 -105.5t34.5 -161.5q0 -105 -44.5 -208t-133.5 -171t-214 -68zM357 47q100 0 170.5 58.5t106.5 148t36 180.5q0 69 -25.5 124.5
t-76 87.5t-123.5 32q-100 0 -171 -58.5t-107 -148t-36 -180.5q0 -70 25.5 -125t76.5 -87t124 -32z" />
    <glyph glyph-name="Racute" unicode="&#x154;" horiz-adv-x="612" 
d="M468 0l-162 329h-136l-70 -329h-68l154 725h168q126 0 193.5 -36t67.5 -127q0 -99 -63.5 -156t-173.5 -71l165 -335h-75zM242 666l-60 -278h99q121 0 190.5 33.5t69.5 132.5q0 66 -49.5 89t-143.5 23h-106zM518 886h93l-168 -113h-67z" />
    <glyph glyph-name="Rcaron" unicode="&#x158;" horiz-adv-x="612" 
d="M468 0l-162 329h-136l-70 -329h-68l154 725h168q126 0 193.5 -36t67.5 -127q0 -99 -63.5 -156t-173.5 -71l165 -335h-75zM242 666l-60 -278h99q121 0 190.5 33.5t69.5 132.5q0 66 -49.5 89t-143.5 23h-106zM429 773h-64l-110 113h70l76 -74l113 74h77z" />
    <glyph glyph-name="uni0156" unicode="&#x156;" horiz-adv-x="612" 
d="M468 0l-162 329h-136l-70 -329h-68l154 725h168q126 0 193.5 -36t67.5 -127q0 -99 -63.5 -156t-173.5 -71l165 -335h-75zM242 666l-60 -278h99q121 0 190.5 33.5t69.5 132.5q0 66 -49.5 89t-143.5 23h-106zM238 -123h-25l18 80h63l-18 -83l-47 -80h-36z" />
    <glyph glyph-name="Sacute" unicode="&#x15a;" horiz-adv-x="554" 
d="M3 52l14 69q42 -34 101.5 -53.5t122.5 -19.5q84 0 135.5 35.5t51.5 102.5q0 43 -32 78t-94 69l-53 28q-61 32 -99 78t-38 107q0 59 32 102.5t88 66.5t128 23q54 0 108 -14t95 -41l-14 -68q-41 30 -94 46.5t-104 16.5q-73 0 -120.5 -31.5t-47.5 -94.5q0 -42 27.5 -74
t79.5 -61l50 -27q85 -47 123 -92t38 -105t-33 -107t-93.5 -73t-139.5 -26q-67 0 -132.5 19t-99.5 46zM459 886h93l-168 -113h-67z" />
    <glyph glyph-name="Scaron" unicode="&#x160;" horiz-adv-x="554" 
d="M3 52l14 69q42 -34 101.5 -53.5t122.5 -19.5q84 0 135.5 35.5t51.5 102.5q0 43 -32 78t-94 69l-53 28q-61 32 -99 78t-38 107q0 59 32 102.5t88 66.5t128 23q54 0 108 -14t95 -41l-14 -68q-41 30 -94 46.5t-104 16.5q-73 0 -120.5 -31.5t-47.5 -94.5q0 -42 27.5 -74
t79.5 -61l50 -27q85 -47 123 -92t38 -105t-33 -107t-93.5 -73t-139.5 -26q-67 0 -132.5 19t-99.5 46zM404 773h-64l-110 113h70l76 -74l113 74h77z" />
    <glyph glyph-name="Scedilla" unicode="&#x15e;" horiz-adv-x="554" 
d="M3 52l14 69q42 -34 101.5 -53.5t122.5 -19.5q84 0 135.5 35.5t51.5 102.5q0 43 -32 78t-94 69l-53 28q-61 32 -99 78t-38 107q0 59 32 102.5t88 66.5t128 23q54 0 108 -14t95 -41l-14 -68q-41 30 -94 46.5t-104 16.5q-73 0 -120.5 -31.5t-47.5 -94.5q0 -42 27.5 -74
t79.5 -61l50 -27q85 -47 123 -92t38 -105t-33 -107t-93.5 -73t-139.5 -26q-67 0 -132.5 19t-99.5 46zM153 -77l65 79h43l-44 -53q14 2 24 2q29 0 47 -15.5t18 -42.5q0 -42 -35 -63.5t-83 -21.5q-35 0 -72 14l14 34q26 -12 57 -12q27 0 47 10t20 33q0 14 -11 21.5t-29 7.5
q-28 0 -42 -9z" />
    <glyph glyph-name="Scircumflex" unicode="&#x15c;" horiz-adv-x="554" 
d="M3 52l14 69q42 -34 101.5 -53.5t122.5 -19.5q84 0 135.5 35.5t51.5 102.5q0 43 -32 78t-94 69l-53 28q-61 32 -99 78t-38 107q0 59 32 102.5t88 66.5t128 23q54 0 108 -14t95 -41l-14 -68q-41 30 -94 46.5t-104 16.5q-73 0 -120.5 -31.5t-47.5 -94.5q0 -42 27.5 -74
t79.5 -61l50 -27q85 -47 123 -92t38 -105t-33 -107t-93.5 -73t-139.5 -26q-67 0 -132.5 19t-99.5 46zM362 886h65l109 -113h-70l-76 74l-113 -74h-77z" />
    <glyph glyph-name="uni0218" unicode="&#x218;" horiz-adv-x="554" 
d="M3 52l14 69q42 -34 101.5 -53.5t122.5 -19.5q84 0 135.5 35.5t51.5 102.5q0 43 -32 78t-94 69l-53 28q-61 32 -99 78t-38 107q0 59 32 102.5t88 66.5t128 23q54 0 108 -14t95 -41l-14 -68q-41 30 -94 46.5t-104 16.5q-73 0 -120.5 -31.5t-47.5 -94.5q0 -42 27.5 -74
t79.5 -61l50 -27q85 -47 123 -92t38 -105t-33 -107t-93.5 -73t-139.5 -26q-67 0 -132.5 19t-99.5 46zM195 -123h-25l18 80h63l-18 -83l-47 -80h-36z" />
    <glyph glyph-name="Tbar" unicode="&#x166;" horiz-adv-x="592" 
d="M272 0h-68l73 342h-161l12 56h161l56 267h-230l13 60h529l-13 -60h-231l-56 -267h159l-12 -56h-159z" />
    <glyph glyph-name="Tcaron" unicode="&#x164;" horiz-adv-x="572" 
d="M421 773h-64l-110 113h70l76 -74l113 74h77zM262 0h-68l141 665h-230l13 60h529l-13 -60h-231z" />
    <glyph glyph-name="uni0162" unicode="&#x162;" horiz-adv-x="572" 
d="M262 0h-68l141 665h-230l13 60h529l-13 -60h-231zM195 -123h-25l18 80h63l-18 -83l-47 -80h-36z" />
    <glyph glyph-name="uni021A" unicode="&#x21a;" horiz-adv-x="572" 
d="M262 0h-68l141 665h-230l13 60h529l-13 -60h-231zM194 -123h-25l18 80h63l-18 -83l-47 -80h-36z" />
    <glyph glyph-name="Ubreve" unicode="&#x16c;" horiz-adv-x="727" 
d="M319 47q115 0 176.5 61t88.5 186l92 431h68l-90 -425q-35 -162 -113.5 -237.5t-224.5 -75.5q-121 0 -181 48.5t-60 153.5q0 48 12 109l91 427h68l-93 -439q-11 -53 -11 -90q0 -76 43 -112.5t134 -36.5zM630 886q-11 -57 -54.5 -87.5t-109.5 -30.5q-65 0 -101 30.5
t-35 87.5h55q0 -40 22 -56.5t61 -16.5q40 0 70 17.5t38 55.5h54z" />
    <glyph glyph-name="Uhungarumlaut" unicode="&#x170;" horiz-adv-x="727" 
d="M319 47q115 0 176.5 61t88.5 186l92 431h68l-90 -425q-35 -162 -113.5 -237.5t-224.5 -75.5q-121 0 -181 48.5t-60 153.5q0 48 12 109l91 427h68l-93 -439q-11 -53 -11 -90q0 -76 43 -112.5t134 -36.5zM470 886h93l-168 -113h-67zM641 886h92l-167 -113h-68z" />
    <glyph glyph-name="Umacron" unicode="&#x16a;" horiz-adv-x="727" 
d="M319 47q115 0 176.5 61t88.5 186l92 431h68l-90 -425q-35 -162 -113.5 -237.5t-224.5 -75.5q-121 0 -181 48.5t-60 153.5q0 48 12 109l91 427h68l-93 -439q-11 -53 -11 -90q0 -76 43 -112.5t134 -36.5zM626 858l-11 -55h-284l11 55h284z" />
    <glyph glyph-name="Uogonek" unicode="&#x172;" horiz-adv-x="727" 
d="M319 47q115 0 176.5 61t88.5 186l92 431h68l-90 -425q-33 -154 -105.5 -229.5t-205.5 -82.5q-39 -21 -61.5 -44.5t-22.5 -45.5q0 -19 13 -29.5t36 -10.5q14 0 26 3t22 6l-11 -45q-32 -10 -63 -10q-37 0 -61.5 18.5t-24.5 50.5t22 60.5t57 47.5q-101 7 -150.5 55.5
t-49.5 144.5q0 48 12 109l91 427h68l-93 -439q-11 -53 -11 -90q0 -76 43 -112.5t134 -36.5z" />
    <glyph glyph-name="Uring" unicode="&#x16e;" horiz-adv-x="727" 
d="M319 47q115 0 176.5 61t88.5 186l92 431h68l-90 -425q-35 -162 -113.5 -237.5t-224.5 -75.5q-121 0 -181 48.5t-60 153.5q0 48 12 109l91 427h68l-93 -439q-11 -53 -11 -90q0 -76 43 -112.5t134 -36.5zM560 850q0 -36 -25.5 -59.5t-62.5 -23.5t-62.5 23.5t-25.5 59.5
t25.5 59.5t62.5 23.5t62.5 -23.5t25.5 -59.5zM422 850q0 -21 15 -34.5t35 -13.5t34.5 13.5t14.5 34.5q0 22 -14.5 35.5t-34.5 13.5t-35 -13.5t-15 -35.5z" />
    <glyph glyph-name="Utilde" unicode="&#x168;" horiz-adv-x="727" 
d="M319 47q115 0 176.5 61t88.5 186l92 431h68l-90 -425q-35 -162 -113.5 -237.5t-224.5 -75.5q-121 0 -181 48.5t-60 153.5q0 48 12 109l91 427h68l-93 -439q-11 -53 -11 -90q0 -76 43 -112.5t134 -36.5zM492 851q19 -12 30.5 -18t26.5 -6q46 0 62 53h50q-12 -48 -44 -75
t-73 -27q-22 0 -39 7.5t-39 22.5q-17 13 -30 19t-28 6q-22 0 -38 -14t-23 -40h-50q12 48 43.5 75t72.5 27q23 0 40 -7.5t39 -22.5z" />
    <glyph glyph-name="uni1EE4" unicode="&#x1ee4;" horiz-adv-x="727" 
d="M247 -175l20 97h62l-20 -97h-62zM319 47q115 0 176.5 61t88.5 186l92 431h68l-90 -425q-35 -162 -113.5 -237.5t-224.5 -75.5q-121 0 -181 48.5t-60 153.5q0 48 12 109l91 427h68l-93 -439q-11 -53 -11 -90q0 -76 43 -112.5t134 -36.5z" />
    <glyph glyph-name="Wacute" unicode="&#x1e82;" horiz-adv-x="925" 
d="M517 725h77l35 -641l301 641h75l-351 -725h-82l-33 631l-296 -631h-82l-50 725h72l38 -641zM664 886h93l-168 -113h-67z" />
    <glyph glyph-name="Wcircumflex" unicode="&#x174;" horiz-adv-x="925" 
d="M517 725h77l35 -641l301 641h75l-351 -725h-82l-33 631l-296 -631h-82l-50 725h72l38 -641zM554 886h65l109 -113h-70l-76 74l-113 -74h-77z" />
    <glyph glyph-name="Wdieresis" unicode="&#x1e84;" horiz-adv-x="925" 
d="M517 725h77l35 -641l301 641h75l-351 -725h-82l-33 631l-296 -631h-82l-50 725h72l38 -641zM418 781l22 97h64l-22 -97h-64zM640 781l23 97h64l-23 -97h-64z" />
    <glyph glyph-name="Wgrave" unicode="&#x1e80;" horiz-adv-x="925" 
d="M517 725h77l35 -641l301 641h75l-351 -725h-82l-33 631l-296 -631h-82l-50 725h72l38 -641zM594 773h-61l-124 113h92z" />
    <glyph glyph-name="Ycircumflex" unicode="&#x176;" horiz-adv-x="604" 
d="M269 274l-164 451h72l137 -388l303 388h79l-360 -453l-57 -272h-68zM400 886h65l109 -113h-70l-76 74l-113 -74h-77z" />
    <glyph glyph-name="Ydieresis" unicode="&#x178;" horiz-adv-x="604" 
d="M269 274l-164 451h72l137 -388l303 388h79l-360 -453l-57 -272h-68zM269 781l22 97h64l-22 -97h-64zM491 781l23 97h64l-23 -97h-64z" />
    <glyph glyph-name="Ygrave" unicode="&#x1ef2;" horiz-adv-x="604" 
d="M269 274l-164 451h72l137 -388l303 388h79l-360 -453l-57 -272h-68zM452 773h-61l-124 113h92z" />
    <glyph glyph-name="uni0232" unicode="&#x232;" horiz-adv-x="604" 
d="M269 274l-164 451h72l137 -388l303 388h79l-360 -453l-57 -272h-68zM567 858l-11 -55h-284l11 55h284z" />
    <glyph glyph-name="Zacute" unicode="&#x179;" horiz-adv-x="587" 
d="M147 725h503l-13 -60l-577 -605h466l-13 -60h-552l12 60l579 605h-418zM499 886h93l-168 -113h-67z" />
    <glyph glyph-name="Zcaron" unicode="&#x17d;" horiz-adv-x="587" 
d="M147 725h503l-13 -60l-577 -605h466l-13 -60h-552l12 60l579 605h-418zM438 773h-64l-110 113h70l76 -74l113 74h77z" />
    <glyph glyph-name="Zdotaccent" unicode="&#x17b;" horiz-adv-x="587" 
d="M147 725h503l-13 -60l-577 -605h466l-13 -60h-552l12 60l579 605h-418zM371 781l24 97h63l-23 -97h-64z" />
    <glyph glyph-name="uni018F" unicode="&#x18f;" horiz-adv-x="712" 
d="M47 279q0 51 10 105h558q1 9 1 29q0 82 -35.5 140.5t-99 89t-144.5 30.5q-45 0 -91 -9.5t-85 -25.5l15 69q83 31 175 31q94 0 170.5 -38t121 -110.5t44.5 -171.5q0 -117 -45.5 -216t-129.5 -157t-196 -58q-77 0 -138 33.5t-96 99t-35 159.5zM608 320h-488q-3 -25 -3 -50
q0 -102 54.5 -162.5t151.5 -60.5q74 0 134 35.5t98.5 97t52.5 140.5z" />
    <glyph glyph-name="abreve" unicode="&#x103;" horiz-adv-x="529" 
d="M412 340q4 24 4 41q0 58 -37.5 83.5t-100.5 25.5q-46 0 -88.5 -9t-74.5 -24l14 62q75 28 159 28t136 -37.5t52 -119.5q0 -22 -2 -34q0 -19 -10.5 -68.5t-13.5 -61.5l-11 -49q-10 -48 -18.5 -90t-13.5 -87h-62l16 88q-31 -49 -78.5 -75t-107.5 -26q-69 0 -117 37.5
t-48 106.5q0 67 46.5 109.5t134 65t221.5 34.5zM395 245l9 44q-115 -10 -186 -28.5t-105 -48t-34 -74.5q0 -47 31.5 -72.5t82.5 -25.5q69 0 124 50.5t78 154.5zM505 755q-37 -120 -169 -120q-64 0 -97 28t-33 74q0 12 1 18h51q-1 -4 -1 -12q0 -31 22 -47t64 -16
q45 0 71.5 18.5t39.5 56.5h51z" />
    <glyph glyph-name="amacron" unicode="&#x101;" horiz-adv-x="529" 
d="M412 340q4 24 4 41q0 58 -37.5 83.5t-100.5 25.5q-46 0 -88.5 -9t-74.5 -24l14 62q75 28 159 28t136 -37.5t52 -119.5q0 -22 -2 -34q0 -19 -10.5 -68.5t-13.5 -61.5l-11 -49q-10 -48 -18.5 -90t-13.5 -87h-62l16 88q-31 -49 -78.5 -75t-107.5 -26q-69 0 -117 37.5
t-48 106.5q0 67 46.5 109.5t134 65t221.5 34.5zM395 245l9 44q-115 -10 -186 -28.5t-105 -48t-34 -74.5q0 -47 31.5 -72.5t82.5 -25.5q69 0 124 50.5t78 154.5zM491 726l-11 -53h-279l12 53h278z" />
    <glyph glyph-name="aogonek" unicode="&#x105;" horiz-adv-x="529" 
d="M10 131q0 67 46.5 109.5t134 65t221.5 34.5q4 24 4 41q0 58 -37.5 83.5t-100.5 25.5q-46 0 -88.5 -9t-74.5 -24l14 62q75 28 159 28t136 -37.5t52 -119.5q0 -22 -2 -34q0 -19 -10.5 -68.5t-13.5 -61.5l-11 -49q-10 -48 -18.5 -90t-13.5 -87q-46 -25 -76.5 -52t-30.5 -51
q0 -38 49 -38q16 0 40 6l-10 -45q-24 -8 -56 -8q-34 0 -59 17.5t-25 52.5q0 67 106 118l16 88q-31 -49 -78.5 -75t-107.5 -26q-69 0 -117 37.5t-48 106.5zM395 245l9 44q-115 -10 -186 -28.5t-105 -48t-34 -74.5q0 -47 31.5 -72.5t82.5 -25.5q69 0 124 51t78 154z" />
    <glyph glyph-name="cacute" unicode="&#x107;" horiz-adv-x="461" 
d="M285 44q27 0 53.5 5t45.5 13l-12 -59q-46 -16 -104 -16q-70 0 -122.5 29.5t-80.5 83t-28 123.5q0 90 41 164t111.5 117t155.5 43q79 0 133 -30l-12 -59q-24 15 -57.5 23.5t-68.5 8.5q-64 0 -118.5 -32.5t-86.5 -92t-32 -137.5q0 -87 50.5 -135.5t131.5 -48.5zM433 755h87
l-152 -116h-58z" />
    <glyph glyph-name="ccaron" unicode="&#x10d;" horiz-adv-x="461" 
d="M285 44q27 0 53.5 5t45.5 13l-12 -59q-46 -16 -104 -16q-70 0 -122.5 29.5t-80.5 83t-28 123.5q0 90 41 164t111.5 117t155.5 43q79 0 133 -30l-12 -59q-24 15 -57.5 23.5t-68.5 8.5q-64 0 -118.5 -32.5t-86.5 -92t-32 -137.5q0 -87 50.5 -135.5t131.5 -48.5zM394 639
h-61l-109 116h65l79 -72l113 72h73z" />
    <glyph glyph-name="ccircumflex" unicode="&#x109;" horiz-adv-x="461" 
d="M285 44q27 0 53.5 5t45.5 13l-12 -59q-46 -16 -104 -16q-70 0 -122.5 29.5t-80.5 83t-28 123.5q0 90 41 164t111.5 117t155.5 43q79 0 133 -30l-12 -59q-24 15 -57.5 23.5t-68.5 8.5q-64 0 -118.5 -32.5t-86.5 -92t-32 -137.5q0 -87 50.5 -135.5t131.5 -48.5zM345 755h60
l109 -116h-64l-81 72l-112 -72h-72z" />
    <glyph glyph-name="cdotaccent" unicode="&#x10b;" horiz-adv-x="461" 
d="M285 44q27 0 53.5 5t45.5 13l-12 -59q-46 -16 -104 -16q-70 0 -122.5 29.5t-80.5 83t-28 123.5q0 90 41 164t111.5 117t155.5 43q79 0 133 -30l-12 -59q-24 15 -57.5 23.5t-68.5 8.5q-64 0 -118.5 -32.5t-86.5 -92t-32 -137.5q0 -87 50.5 -135.5t131.5 -48.5zM323 658
l23 97h62l-22 -97h-63z" />
    <glyph glyph-name="dcaron" unicode="&#x10f;" horiz-adv-x="592" 
d="M685 755h69l-94 -170h-40zM408 79q-28 -43 -73 -67.5t-101 -24.5q-96 0 -146 64.5t-50 167.5q0 83 31.5 158.5t90.5 122.5t138 47q70 0 116.5 -39t62.5 -105l75 352h62l-160 -755h-62zM302 492q-64 0 -109 -42.5t-67 -106t-22 -124.5q0 -81 37 -129t107 -48q62 0 109 39
t72 99.5t25 122.5q0 85 -41 137t-111 52z" />
    <glyph glyph-name="dcroat" unicode="&#x111;" horiz-adv-x="588" 
d="M408 79q-28 -43 -73 -67.5t-101 -24.5q-96 0 -146 64.5t-50 167.5q0 83 31.5 158.5t90.5 122.5t138 47q70 0 116.5 -39t62.5 -105l44 209h-162l11 52h162l20 91h62l-20 -91h81l-11 -52h-80l-130 -612h-62zM302 492q-64 0 -109 -42.5t-67 -106t-22 -124.5q0 -81 37 -129
t107 -48q62 0 109 39t72 99.5t25 122.5q0 85 -41 137t-111 52z" />
    <glyph glyph-name="ebreve" unicode="&#x115;" horiz-adv-x="541" 
d="M104 255v-17q0 -98 53.5 -146.5t132.5 -48.5q41 0 77.5 9.5t63.5 24.5l-16 -62q-28 -13 -66 -20.5t-76 -7.5q-70 0 -123.5 30.5t-83 85.5t-29.5 125q0 82 36.5 155.5t103 118.5t152.5 45q90 0 139 -55.5t49 -151.5q0 -40 -9 -85h-404zM111 306h340q3 21 3 40
q0 72 -37 109.5t-97 37.5q-75 0 -133 -50.5t-76 -136.5zM521 755q-37 -120 -169 -120q-64 0 -97 28t-33 74q0 12 1 18h51q-1 -4 -1 -12q0 -31 22 -47t64 -16q45 0 71.5 18.5t39.5 56.5h51z" />
    <glyph glyph-name="ecaron" unicode="&#x11b;" horiz-adv-x="541" 
d="M104 255v-17q0 -98 53.5 -146.5t132.5 -48.5q41 0 77.5 9.5t63.5 24.5l-16 -62q-28 -13 -66 -20.5t-76 -7.5q-70 0 -123.5 30.5t-83 85.5t-29.5 125q0 82 36.5 155.5t103 118.5t152.5 45q90 0 139 -55.5t49 -151.5q0 -40 -9 -85h-404zM111 306h340q3 21 3 40
q0 72 -37 109.5t-97 37.5q-75 0 -133 -50.5t-76 -136.5zM377 639h-61l-109 116h65l79 -72l113 72h73z" />
    <glyph glyph-name="emacron" unicode="&#x113;" horiz-adv-x="541" 
d="M104 255v-17q0 -98 53.5 -146.5t132.5 -48.5q41 0 77.5 9.5t63.5 24.5l-16 -62q-28 -13 -66 -20.5t-76 -7.5q-70 0 -123.5 30.5t-83 85.5t-29.5 125q0 82 36.5 155.5t103 118.5t152.5 45q90 0 139 -55.5t49 -151.5q0 -40 -9 -85h-404zM111 306h340q3 21 3 40
q0 72 -37 109.5t-97 37.5q-75 0 -133 -50.5t-76 -136.5zM508 726l-11 -53h-279l12 53h278z" />
    <glyph glyph-name="eogonek" unicode="&#x119;" horiz-adv-x="541" 
d="M104 255v-17q0 -98 53.5 -146.5t132.5 -48.5q41 0 77.5 9.5t63.5 24.5l-16 -62q-47 -23 -83.5 -55.5t-36.5 -62.5q0 -38 49 -38q17 0 41 6l-10 -44q-27 -9 -58 -9q-34 0 -58.5 18t-24.5 52q0 59 85 108q-22 -3 -46 -3q-70 0 -123.5 30.5t-83 85.5t-29.5 125
q0 82 36.5 155.5t103 118.5t152.5 45q90 0 139 -55.5t49 -151.5q0 -40 -9 -85h-404zM111 306h340q3 21 3 40q0 72 -37 109.5t-97 37.5q-75 0 -133 -50.5t-76 -136.5z" />
    <glyph glyph-name="edotaccent" unicode="&#x117;" horiz-adv-x="541" 
d="M104 255v-17q0 -98 53.5 -146.5t132.5 -48.5q41 0 77.5 9.5t63.5 24.5l-16 -62q-28 -13 -66 -20.5t-76 -7.5q-70 0 -123.5 30.5t-83 85.5t-29.5 125q0 82 36.5 155.5t103 118.5t152.5 45q90 0 139 -55.5t49 -151.5q0 -40 -9 -85h-404zM111 306h340q3 21 3 40
q0 72 -37 109.5t-97 37.5q-75 0 -133 -50.5t-76 -136.5zM320 658l23 97h62l-22 -97h-63z" />
    <glyph glyph-name="gbreve" unicode="&#x11f;" horiz-adv-x="588" 
d="M413 98q-29 -41 -72.5 -64.5t-97.5 -23.5q-97 0 -148.5 62t-51.5 164q0 82 30.5 153t89 114.5t137.5 43.5q70 0 115.5 -36.5t64.5 -99.5l26 127h63l-112 -526q-24 -116 -90 -167.5t-167 -51.5q-100 0 -181 44l13 63q76 -52 175 -52q151 0 186 157zM304 492
q-63 0 -107 -38t-66 -97t-22 -120q0 -79 38.5 -126t110.5 -47q61 0 106.5 37.5t69 96t23.5 118.5q0 81 -41.5 128.5t-111.5 47.5zM531 755q-37 -120 -169 -120q-64 0 -97 28t-33 74q0 12 1 18h51q-1 -4 -1 -12q0 -31 22 -47t64 -16q45 0 71.5 18.5t39.5 56.5h51z" />
    <glyph glyph-name="gcircumflex" unicode="&#x11d;" horiz-adv-x="588" 
d="M413 98q-29 -41 -72.5 -64.5t-97.5 -23.5q-97 0 -148.5 62t-51.5 164q0 82 30.5 153t89 114.5t137.5 43.5q70 0 115.5 -36.5t64.5 -99.5l26 127h63l-112 -526q-24 -116 -90 -167.5t-167 -51.5q-100 0 -181 44l13 63q76 -52 175 -52q151 0 186 157zM304 492
q-63 0 -107 -38t-66 -97t-22 -120q0 -79 38.5 -126t110.5 -47q61 0 106.5 37.5t69 96t23.5 118.5q0 81 -41.5 128.5t-111.5 47.5zM355 755h60l109 -116h-64l-81 72l-112 -72h-72z" />
    <glyph glyph-name="uni0123" unicode="&#x123;" horiz-adv-x="588" 
d="M359 695h25l-18 -80h-63l18 83l47 80h36zM413 98q-29 -41 -72.5 -64.5t-97.5 -23.5q-97 0 -148.5 62t-51.5 164q0 82 30.5 153t89 114.5t137.5 43.5q70 0 115.5 -36.5t64.5 -99.5l26 127h63l-112 -526q-24 -116 -90 -167.5t-167 -51.5q-100 0 -181 44l13 63
q76 -52 175 -52q151 0 186 157zM304 492q-63 0 -107 -38t-66 -97t-22 -120q0 -79 38.5 -126t110.5 -47q61 0 106.5 37.5t69 96t23.5 118.5q0 81 -41.5 128.5t-111.5 47.5z" />
    <glyph glyph-name="gdotaccent" unicode="&#x121;" horiz-adv-x="588" 
d="M413 98q-29 -41 -72.5 -64.5t-97.5 -23.5q-97 0 -148.5 62t-51.5 164q0 82 30.5 153t89 114.5t137.5 43.5q70 0 115.5 -36.5t64.5 -99.5l26 127h63l-112 -526q-24 -116 -90 -167.5t-167 -51.5q-100 0 -181 44l13 63q76 -52 175 -52q151 0 186 157zM304 492
q-63 0 -107 -38t-66 -97t-22 -120q0 -79 38.5 -126t110.5 -47q61 0 106.5 37.5t69 96t23.5 118.5q0 81 -41.5 128.5t-111.5 47.5zM333 658l23 97h62l-22 -97h-63z" />
    <glyph glyph-name="hbar" unicode="&#x127;" horiz-adv-x="571" 
d="M243 755l-19 -91h159l-10 -52h-160l-36 -168q29 46 76.5 74.5t116.5 28.5q152 0 152 -144q0 -39 -8 -75l-70 -328h-62l68 320q8 36 8 71q0 54 -26 77t-78 23q-79 0 -134 -54t-77 -157l-60 -280h-62l129 612h-82l11 52h82l20 91h62z" />
    <glyph glyph-name="hcircumflex" unicode="&#x125;" horiz-adv-x="571" 
d="M177 444q29 46 76.5 74.5t116.5 28.5q152 0 152 -144q0 -39 -8 -75l-70 -328h-62l68 320q8 36 8 71q0 54 -26 77t-78 23q-79 0 -134 -54t-77 -157l-60 -280h-62l160 755h62zM401 906h65l109 -113h-70l-76 74l-113 -74h-77z" />
    <glyph glyph-name="dotlessi" unicode="&#x131;" horiz-adv-x="217" 
d="M21 0l114 538h62l-114 -538h-62z" />
    <glyph glyph-name="ibreve" unicode="&#x12d;" horiz-adv-x="217" 
d="M358 755q-37 -120 -169 -120q-64 0 -97 28t-33 74q0 12 1 18h51q-1 -4 -1 -12q0 -31 22 -47t64 -16q45 0 71.5 18.5t39.5 56.5h51zM21 0l114 538h62l-114 -538h-62z" />
    <glyph glyph-name="imacron" unicode="&#x12b;" horiz-adv-x="217" 
d="M342 726l-11 -53h-279l12 53h278zM21 0l114 538h62l-114 -538h-62z" />
    <glyph glyph-name="iogonek" unicode="&#x12f;" horiz-adv-x="217" 
d="M157 653l21 102h62l-21 -102h-62zM135 538h62l-114 -538q-46 -25 -76 -52t-30 -51q0 -38 49 -38q17 0 39 6l-9 -45q-24 -8 -56 -8q-35 0 -59.5 17.5t-24.5 52.5q0 65 105 118z" />
    <glyph glyph-name="itilde" unicode="&#x129;" horiz-adv-x="217" 
d="M326 751h51q-17 -50 -46.5 -76t-67.5 -26q-21 0 -37.5 7t-40.5 22q-18 12 -31.5 18.5t-28.5 6.5q-43 0 -63 -53h-52q16 50 46.5 76t68.5 26q22 0 40.5 -8t39.5 -22q19 -12 31 -17.5t26 -5.5q43 0 64 52zM21 0l114 538h62l-114 -538h-62z" />
    <glyph glyph-name="uni1ECB" unicode="&#x1ecb;" horiz-adv-x="217" 
d="M-16 -175l20 97h62l-20 -97h-62zM157 653l21 102h62l-21 -102h-62zM21 0l114 538h62l-114 -538h-62z" />
    <glyph glyph-name="uni0237" unicode="&#x237;" horiz-adv-x="241" 
d="M-101 -200l12 53q19 -6 45 -6q29 0 45.5 14.5t25.5 56.5l120 569h-88l11 51h151l-131 -617q-15 -72 -46.5 -99.5t-95.5 -27.5q-28 0 -49 6z" />
    <glyph glyph-name="jcircumflex" unicode="&#x135;" horiz-adv-x="241" 
d="M195 755h61l87 -116h-65l-59 72l-96 -72h-69zM-101 -200l12 53q19 -6 45 -6q29 0 45.5 14.5t25.5 56.5l120 569h-88l11 51h151l-131 -617q-15 -72 -46.5 -99.5t-95.5 -27.5q-28 0 -49 6z" />
    <glyph glyph-name="uni0137" unicode="&#x137;" horiz-adv-x="484" 
d="M21 0l160 755h62l-97 -453l292 236h79l-305 -248l232 -290h-77l-225 281l-59 -281h-62zM175 -123h-25l18 80h63l-18 -83l-47 -80h-36z" />
    <glyph glyph-name="lacute" unicode="&#x13a;" horiz-adv-x="217" 
d="M181 755h62l-160 -755h-62zM329 906h93l-168 -113h-67z" />
    <glyph glyph-name="lcaron" unicode="&#x13e;" horiz-adv-x="217" 
d="M315 755h69l-94 -170h-40zM181 755h62l-160 -755h-62z" />
    <glyph glyph-name="uni013C" unicode="&#x13c;" horiz-adv-x="217" 
d="M181 755h62l-160 -755h-62zM17 -123h-25l18 80h63l-18 -83l-47 -80h-36z" />
    <glyph glyph-name="ldot" unicode="&#x140;" horiz-adv-x="278" 
d="M181 755h62l-160 -755h-62zM233 351l23 97h62l-22 -97h-63z" />
    <glyph glyph-name="lslash" unicode="&#x142;" horiz-adv-x="273" 
d="M210 755h62l-64 -301l93 57l-12 -58l-93 -58l-84 -395h-62l76 358l-89 -55l12 59l89 55z" />
    <glyph glyph-name="eng" unicode="&#x14b;" horiz-adv-x="571" 
d="M429 -70q-15 -73 -51.5 -104.5t-105.5 -31.5q-12 0 -27.5 2t-25.5 5l12 53q25 -7 49 -7q33 0 55 18t31 62l84 394q8 43 8 70q0 54 -26.5 77.5t-78.5 23.5q-78 0 -133 -54t-77 -158l-60 -280h-62l114 538h61l-20 -94q28 45 76 74t117 29q152 0 152 -144q0 -32 -8 -75z" />
    <glyph glyph-name="nacute" unicode="&#x144;" horiz-adv-x="571" 
d="M135 538h62l-20 -94q29 46 76.5 74.5t116.5 28.5q152 0 152 -144q0 -39 -8 -75l-70 -328h-62l68 320q8 37 8 71q0 54 -26 77.5t-78 23.5q-79 0 -134 -54t-77 -158l-60 -280h-62zM458 755h87l-152 -116h-58z" />
    <glyph glyph-name="ncaron" unicode="&#x148;" horiz-adv-x="571" 
d="M135 538h62l-20 -94q29 46 76.5 74.5t116.5 28.5q152 0 152 -144q0 -39 -8 -75l-70 -328h-62l68 320q8 37 8 71q0 54 -26 77.5t-78 23.5q-79 0 -134 -54t-77 -158l-60 -280h-62zM405 639h-61l-109 116h65l79 -72l113 72h73z" />
    <glyph glyph-name="uni0146" unicode="&#x146;" horiz-adv-x="571" 
d="M135 538h62l-20 -94q29 46 76.5 74.5t116.5 28.5q152 0 152 -144q0 -39 -8 -75l-70 -328h-62l68 320q8 37 8 71q0 54 -26 77.5t-78 23.5q-79 0 -134 -54t-77 -158l-60 -280h-62zM205 -123h-25l18 80h63l-18 -83l-47 -80h-36z" />
    <glyph glyph-name="oe" unicode="&#x153;" horiz-adv-x="959" 
d="M833 15q-28 -13 -66 -20.5t-76 -7.5q-80 0 -137 40t-77 109q-36 -67 -95.5 -108t-140.5 -41q-92 0 -149.5 56.5t-57.5 159.5q0 82 33 161t99 131t159 52q72 0 121.5 -34.5t67.5 -101.5q37 62 97 99t136 37q90 0 139 -55.5t49 -151.5q0 -40 -9 -85h-403l-1 -23
q0 -95 53.5 -142t133.5 -47q40 0 76.5 9.5t63.5 24.5zM531 306h338q3 21 3 40q0 69 -36.5 108.5t-97.5 39.5q-77 0 -132.5 -52t-74.5 -136zM101 207q0 -80 40 -122t110 -42q69 0 117.5 42.5t73 108t24.5 133.5q0 80 -40 122t-110 42q-69 0 -117.5 -42.5t-73 -108
t-24.5 -133.5z" />
    <glyph glyph-name="obreve" unicode="&#x14f;" horiz-adv-x="568" 
d="M34 203q0 82 33 161t99 131t159 52t150.5 -56.5t57.5 -159.5q0 -81 -33.5 -160.5t-99.5 -131.5t-159 -52q-92 0 -149.5 56.5t-57.5 159.5zM466 327q0 80 -40 122t-110 42q-69 0 -117.5 -42.5t-73 -108t-24.5 -133.5q0 -80 40 -122t110 -42q69 0 117.5 42.5t73 108
t24.5 133.5zM534 755q-37 -120 -169 -120q-64 0 -97 28t-33 74q0 12 1 18h51q-1 -4 -1 -12q0 -31 22 -47t64 -16q45 0 71.5 18.5t39.5 56.5h51z" />
    <glyph glyph-name="ohungarumlaut" unicode="&#x151;" horiz-adv-x="568" 
d="M370 755h87l-151 -116h-59zM535 755h86l-151 -116h-59zM34 203q0 82 33 161t99 131t159 52t150.5 -56.5t57.5 -159.5q0 -81 -33.5 -160.5t-99.5 -131.5t-159 -52q-92 0 -149.5 56.5t-57.5 159.5zM466 327q0 80 -40 122t-110 42q-69 0 -117.5 -42.5t-73 -108t-24.5 -133.5
q0 -80 40 -122t110 -42q69 0 117.5 42.5t73 108t24.5 133.5z" />
    <glyph glyph-name="omacron" unicode="&#x14d;" horiz-adv-x="568" 
d="M34 203q0 82 33 161t99 131t159 52t150.5 -56.5t57.5 -159.5q0 -81 -33.5 -160.5t-99.5 -131.5t-159 -52q-92 0 -149.5 56.5t-57.5 159.5zM466 327q0 80 -40 122t-110 42q-69 0 -117.5 -42.5t-73 -108t-24.5 -133.5q0 -80 40 -122t110 -42q69 0 117.5 42.5t73 108
t24.5 133.5zM518 726l-11 -53h-279l12 53h278z" />
    <glyph glyph-name="uni1ECD" unicode="&#x1ecd;" horiz-adv-x="568" 
d="M151 -175l20 97h62l-20 -97h-62zM34 203q0 82 33 161t99 131t159 52t150.5 -56.5t57.5 -159.5q0 -81 -33.5 -160.5t-99.5 -131.5t-159 -52q-92 0 -149.5 56.5t-57.5 159.5zM466 327q0 80 -40 122t-110 42q-69 0 -117.5 -42.5t-73 -108t-24.5 -133.5q0 -80 40 -122
t110 -42q69 0 117.5 42.5t73 108t24.5 133.5z" />
    <glyph glyph-name="racute" unicode="&#x155;" horiz-adv-x="330" 
d="M358 755h87l-152 -116h-58zM360 473q-15 3 -30 3q-78 0 -123 -51.5t-66 -153.5l-58 -271h-62l114 538h60l-23 -111q27 55 76 84.5t106 29.5q8 0 20 -2z" />
    <glyph glyph-name="rcaron" unicode="&#x159;" horiz-adv-x="330" 
d="M319 639h-61l-109 116h65l79 -72l113 72h73zM360 473q-15 3 -30 3q-78 0 -123 -51.5t-66 -153.5l-58 -271h-62l114 538h60l-23 -111q27 55 76 84.5t106 29.5q8 0 20 -2z" />
    <glyph glyph-name="uni0157" unicode="&#x157;" horiz-adv-x="330" 
d="M17 -123h-25l18 80h63l-18 -83l-47 -80h-36zM360 473q-15 3 -30 3q-78 0 -123 -51.5t-66 -153.5l-58 -271h-62l114 538h60l-23 -111q27 55 76 84.5t106 29.5q8 0 20 -2z" />
    <glyph glyph-name="sacute" unicode="&#x15b;" horiz-adv-x="431" 
d="M3 102q35 -28 78 -43.5t89 -15.5q63 0 100.5 23.5t37.5 67.5q0 30 -23 56t-75 55l-32 17q-48 27 -74.5 63t-26.5 77t23.5 74t66.5 52t101 19q42 0 81 -11.5t71 -30.5l-14 -62q-32 22 -73 35t-79 13q-51 0 -83.5 -21.5t-32.5 -60.5q0 -29 19.5 -52.5t56.5 -44.5l32 -17
q66 -37 94.5 -71t28.5 -77q0 -73 -55.5 -116.5t-153.5 -43.5q-46 0 -92 13t-79 37zM381 755h87l-152 -116h-58z" />
    <glyph glyph-name="scaron" unicode="&#x161;" horiz-adv-x="431" 
d="M3 102q35 -28 78 -43.5t89 -15.5q63 0 100.5 23.5t37.5 67.5q0 30 -23 56t-75 55l-32 17q-48 27 -74.5 63t-26.5 77t23.5 74t66.5 52t101 19q42 0 81 -11.5t71 -30.5l-14 -62q-32 22 -73 35t-79 13q-51 0 -83.5 -21.5t-32.5 -60.5q0 -29 19.5 -52.5t56.5 -44.5l32 -17
q66 -37 94.5 -71t28.5 -77q0 -73 -55.5 -116.5t-153.5 -43.5q-46 0 -92 13t-79 37zM321 639h-61l-109 116h65l79 -72l113 72h73z" />
    <glyph glyph-name="scedilla" unicode="&#x15f;" horiz-adv-x="431" 
d="M3 102q35 -28 78 -43.5t89 -15.5q63 0 100.5 23.5t37.5 67.5q0 30 -23 56t-75 55l-32 17q-48 27 -74.5 63t-26.5 77t23.5 74t66.5 52t101 19q42 0 81 -11.5t71 -30.5l-14 -62q-32 22 -73 35t-79 13q-51 0 -83.5 -21.5t-32.5 -60.5q0 -29 19.5 -52.5t56.5 -44.5l32 -17
q66 -37 94.5 -71t28.5 -77q0 -73 -55.5 -116.5t-153.5 -43.5q-46 0 -92 13t-79 37zM87 -77l65 79h43l-44 -53q14 2 24 2q29 0 47 -15.5t18 -42.5q0 -42 -34.5 -63t-83.5 -21q-38 0 -72 13l14 34q26 -12 57 -12q27 0 47 10t20 33q0 14 -11 21.5t-29 7.5q-28 0 -42 -9z" />
    <glyph glyph-name="scircumflex" unicode="&#x15d;" horiz-adv-x="431" 
d="M3 102q35 -28 78 -43.5t89 -15.5q63 0 100.5 23.5t37.5 67.5q0 30 -23 56t-75 55l-32 17q-48 27 -74.5 63t-26.5 77t23.5 74t66.5 52t101 19q42 0 81 -11.5t71 -30.5l-14 -62q-32 22 -73 35t-79 13q-51 0 -83.5 -21.5t-32.5 -60.5q0 -29 19.5 -52.5t56.5 -44.5l32 -17
q66 -37 94.5 -71t28.5 -77q0 -73 -55.5 -116.5t-153.5 -43.5q-46 0 -92 13t-79 37zM283 755h60l109 -116h-64l-81 72l-112 -72h-72z" />
    <glyph glyph-name="uni0219" unicode="&#x219;" horiz-adv-x="431" 
d="M3 102q35 -28 78 -43.5t89 -15.5q63 0 100.5 23.5t37.5 67.5q0 30 -23 56t-75 55l-32 17q-48 27 -74.5 63t-26.5 77t23.5 74t66.5 52t101 19q42 0 81 -11.5t71 -30.5l-14 -62q-32 22 -73 35t-79 13q-51 0 -83.5 -21.5t-32.5 -60.5q0 -29 19.5 -52.5t56.5 -44.5l32 -17
q66 -37 94.5 -71t28.5 -77q0 -73 -55.5 -116.5t-153.5 -43.5q-46 0 -92 13t-79 37zM133 -123h-25l18 80h63l-18 -83l-47 -80h-36z" />
    <glyph glyph-name="tbar" unicode="&#x167;" horiz-adv-x="303" 
d="M105 281h-80l11 51h80l33 155h-91l11 51h91l27 131h62l-27 -131h111l-11 -51h-111l-33 -155h107l-11 -51h-107l-34 -160q-5 -23 -5 -35q0 -24 13 -33.5t39 -9.5q23 0 53 7l-9 -53q-37 -7 -65 -7q-48 0 -71.5 19t-23.5 61q0 21 6 48z" />
    <glyph glyph-name="tcaron" unicode="&#x165;" horiz-adv-x="292" 
d="M58 70q0 21 6 48l78 369h-90l11 51h90l28 131h62l-27 -131h111l-11 -51h-111l-78 -366q-4 -19 -4 -34q0 -25 12.5 -34.5t38.5 -9.5q22 0 53 7l-9 -53q-37 -7 -65 -7q-48 0 -71.5 19t-23.5 61zM334 755h69l-94 -170h-40z" />
    <glyph glyph-name="uni0163" unicode="&#x163;" horiz-adv-x="292" 
d="M58 70q0 21 6 48l78 369h-90l11 51h90l28 131h62l-27 -131h111l-11 -51h-111l-78 -366q-4 -19 -4 -34q0 -25 12.5 -34.5t38.5 -9.5q22 0 53 7l-9 -53q-37 -7 -65 -7q-48 0 -71.5 19t-23.5 61zM95 -123h-25l18 80h63l-18 -83l-47 -80h-36z" />
    <glyph glyph-name="uni021B" unicode="&#x21b;" horiz-adv-x="292" 
d="M58 70q0 21 6 48l78 369h-90l11 51h90l28 131h62l-27 -131h111l-11 -51h-111l-78 -366q-4 -19 -4 -34q0 -25 12.5 -34.5t38.5 -9.5q22 0 53 7l-9 -53q-37 -7 -65 -7q-48 0 -71.5 19t-23.5 61zM95 -123h-25l18 80h63l-18 -83l-47 -80h-36z" />
    <glyph glyph-name="ubreve" unicode="&#x16d;" horiz-adv-x="560" 
d="M382 92q-30 -47 -74.5 -76t-112.5 -29q-146 0 -146 142q0 40 8 77l71 332h62l-70 -328q-9 -42 -9 -71q0 -51 25 -73.5t75 -22.5q79 0 131.5 54t74.5 159l60 282h62l-114 -538h-62zM526 755q-37 -120 -169 -120q-64 0 -97 28t-33 74q0 12 1 18h51q-1 -4 -1 -12
q0 -31 22 -47t64 -16q45 0 71.5 18.5t39.5 56.5h51z" />
    <glyph glyph-name="uhungarumlaut" unicode="&#x171;" horiz-adv-x="560" 
d="M353 755h87l-151 -116h-59zM518 755h86l-151 -116h-59zM382 92q-30 -47 -74.5 -76t-112.5 -29q-146 0 -146 142q0 40 8 77l71 332h62l-70 -328q-9 -42 -9 -71q0 -51 25 -73.5t75 -22.5q79 0 131.5 54t74.5 159l60 282h62l-114 -538h-62z" />
    <glyph glyph-name="umacron" unicode="&#x16b;" horiz-adv-x="560" 
d="M382 92q-30 -47 -74.5 -76t-112.5 -29q-146 0 -146 142q0 40 8 77l71 332h62l-70 -328q-9 -42 -9 -71q0 -51 25 -73.5t75 -22.5q79 0 131.5 54t74.5 159l60 282h62l-114 -538h-62zM507 726l-11 -53h-279l12 53h278z" />
    <glyph glyph-name="uogonek" unicode="&#x173;" horiz-adv-x="560" 
d="M382 92q-30 -47 -74.5 -76t-112.5 -29q-146 0 -146 142q0 40 8 77l71 332h62l-70 -328q-9 -42 -9 -71q0 -51 25 -73.5t75 -22.5q79 0 131.5 54t74.5 159l60 282h62l-114 -538q-48 -29 -77.5 -53.5t-29.5 -49.5q0 -38 54 -38q13 0 35 4l-9 -43q-26 -8 -57 -8q-35 0 -61 18
t-26 51q0 67 109 119z" />
    <glyph glyph-name="uring" unicode="&#x16f;" horiz-adv-x="560" 
d="M382 92q-30 -47 -74.5 -76t-112.5 -29q-146 0 -146 142q0 40 8 77l71 332h62l-70 -328q-9 -42 -9 -71q0 -51 25 -73.5t75 -22.5q79 0 131.5 54t74.5 159l60 282h62l-114 -538h-62zM454 708q0 -36 -25.5 -60t-63.5 -24q-37 0 -62.5 24t-25.5 60t25.5 59.5t62.5 23.5
t63 -23.5t26 -59.5zM315 708q0 -21 15.5 -35.5t34.5 -14.5q21 0 35.5 14.5t14.5 35.5t-14.5 35t-35.5 14q-20 0 -35 -14t-15 -35z" />
    <glyph glyph-name="utilde" unicode="&#x169;" horiz-adv-x="560" 
d="M382 92q-30 -47 -74.5 -76t-112.5 -29q-146 0 -146 142q0 40 8 77l71 332h62l-70 -328q-9 -42 -9 -71q0 -51 25 -73.5t75 -22.5q79 0 131.5 54t74.5 159l60 282h62l-114 -538h-62zM490 751h51q-17 -50 -46.5 -76t-67.5 -26q-21 0 -37.5 7t-40.5 22q-18 12 -31.5 18.5
t-28.5 6.5q-43 0 -63 -53h-52q16 50 46.5 76t68.5 26q22 0 40.5 -8t39.5 -22q19 -12 31 -17.5t26 -5.5q43 0 64 52z" />
    <glyph glyph-name="uni1EE5" unicode="&#x1ee5;" horiz-adv-x="560" 
d="M147 -175l20 97h62l-20 -97h-62zM382 92q-30 -47 -74.5 -76t-112.5 -29q-146 0 -146 142q0 40 8 77l71 332h62l-70 -328q-9 -42 -9 -71q0 -51 25 -73.5t75 -22.5q79 0 131.5 54t74.5 159l60 282h62l-114 -538h-62z" />
    <glyph glyph-name="wacute" unicode="&#x1e83;" horiz-adv-x="736" 
d="M134 538l33 -443l220 443h66l40 -443l217 443h70l-274 -538h-58l-42 461l-231 -461h-57l-48 538h64zM529 755h87l-152 -116h-58z" />
    <glyph glyph-name="wcircumflex" unicode="&#x175;" horiz-adv-x="736" 
d="M134 538l33 -443l220 443h66l40 -443l217 443h70l-274 -538h-58l-42 461l-231 -461h-57l-48 538h64zM431 755h60l109 -116h-64l-81 72l-112 -72h-72z" />
    <glyph glyph-name="wdieresis" unicode="&#x1e85;" horiz-adv-x="736" 
d="M134 538l33 -443l220 443h66l40 -443l217 443h70l-274 -538h-58l-42 461l-231 -461h-57l-48 538h64zM360 658h-62l20 97h62zM520 658l21 97h63l-20 -97h-64z" />
    <glyph glyph-name="wgrave" unicode="&#x1e81;" horiz-adv-x="736" 
d="M134 538l33 -443l220 443h66l40 -443l217 443h70l-274 -538h-58l-42 461l-231 -461h-57l-48 538h64zM462 639h-56l-130 116h83z" />
    <glyph glyph-name="ycircumflex" unicode="&#x177;" horiz-adv-x="483" 
d="M530 538l-427 -733h-65l118 203l-89 530h64l72 -454l258 454h69zM310 755h60l109 -116h-64l-81 72l-112 -72h-72z" />
    <glyph glyph-name="ygrave" unicode="&#x1ef3;" horiz-adv-x="483" 
d="M530 538l-427 -733h-65l118 203l-89 530h64l72 -454l258 454h69zM352 639h-56l-130 116h83z" />
    <glyph glyph-name="uni0233" unicode="&#x233;" horiz-adv-x="483" 
d="M530 538l-427 -733h-65l118 203l-89 530h64l72 -454l258 454h69zM469 726l-11 -53h-279l12 53h278z" />
    <glyph glyph-name="zacute" unicode="&#x17a;" horiz-adv-x="460" 
d="M379 0h-414l11 52l419 432h-307l11 54h388l-11 -53l-420 -431h334zM400 755h87l-152 -116h-58z" />
    <glyph glyph-name="zcaron" unicode="&#x17e;" horiz-adv-x="460" 
d="M379 0h-414l11 52l419 432h-307l11 54h388l-11 -53l-420 -431h334zM340 639h-61l-109 116h65l79 -72l113 72h73z" />
    <glyph glyph-name="zdotaccent" unicode="&#x17c;" horiz-adv-x="460" 
d="M379 0h-414l11 52l419 432h-307l11 54h388l-11 -53l-420 -431h334zM281 658l23 97h62l-22 -97h-63z" />
    <glyph glyph-name="uni0259" unicode="&#x259;" horiz-adv-x="541" 
d="M503 306q0 -82 -36.5 -155.5t-103 -118.5t-152.5 -45q-90 0 -139 55.5t-49 151.5q0 40 9 85h404v17q0 98 -53.5 146.5t-132.5 48.5q-41 0 -77.5 -9.5t-63.5 -24.5l16 62q28 13 66 20.5t76 7.5q70 0 123.5 -30.5t83 -85.5t29.5 -125zM429 228h-340q-3 -21 -3 -40
q0 -72 37 -109.5t97 -37.5q75 0 133 50.5t76 136.5z" />
    <glyph glyph-name="uni0410" unicode="&#x410;" horiz-adv-x="645" 
d="M581 0h-70l-35 218h-323l-127 -218h-74l429 725h76zM406 652l-218 -374h278z" />
    <glyph glyph-name="uni0411" unicode="&#x411;" horiz-adv-x="617" 
d="M319 422q256 0 256 -193q0 -116 -90 -172.5t-241 -56.5h-212l154 725h437l-13 -60h-369l-52 -243h130zM177 364l-65 -304h139q111 0 181.5 39.5t70.5 126.5q0 72 -52.5 105t-139.5 33h-134z" />
    <glyph glyph-name="uni0412" unicode="&#x412;" horiz-adv-x="633" 
d="M32 0l154 725h220q94 0 153.5 -38.5t59.5 -114.5q0 -68 -38.5 -120t-106.5 -74q49 -16 76 -51t27 -86q0 -120 -81.5 -180.5t-213.5 -60.5h-250zM242 666l-56 -263h167q84 0 138 37.5t54 120.5q0 51 -37.5 78t-103.5 27h-162zM174 348l-61 -289h177q92 0 154 44t62 134
q0 54 -40.5 82.5t-120.5 28.5h-171z" />
    <glyph glyph-name="uni0413" unicode="&#x413;" horiz-adv-x="534" 
d="M186 725h421l-13 -60h-353l-141 -665h-68z" />
    <glyph glyph-name="uni0414" unicode="&#x414;" horiz-adv-x="740" 
d="M666 60l-46 -217h-65l34 157h-564l-34 -157h-65l47 217h57q85 93 173 433l59 232h459l-142 -665h87zM511 60l129 605h-330l-47 -187q-80 -316 -154 -418h402z" />
    <glyph glyph-name="uni0415" unicode="&#x415;" horiz-adv-x="563" 
d="M460 0h-428l154 725h428l-12 -60h-361l-55 -260h337l-13 -61h-337l-60 -284h360z" />
    <glyph glyph-name="uni0401" unicode="&#x401;" horiz-adv-x="563" 
d="M460 0h-428l154 725h428l-12 -60h-361l-55 -260h337l-13 -61h-337l-60 -284h360zM267 781l22 97h64l-22 -97h-64zM489 781l23 97h64l-23 -97h-64z" />
    <glyph glyph-name="uni0416" unicode="&#x416;" horiz-adv-x="902" 
d="M443 376l74 349h68l-73 -349l383 349h88l-399 -365l269 -360h-87l-260 349l-75 -349h-68l75 349l-410 -349h-95l435 371l-239 354h79z" />
    <glyph glyph-name="uni0417" unicode="&#x417;" horiz-adv-x="562" 
d="M-8 31l15 68q83 -52 195 -52q108 0 170.5 45.5t62.5 123.5q0 63 -42.5 96.5t-123.5 33.5h-94l13 60h85q87 0 143 40t56 107q0 58 -42.5 91.5t-117.5 33.5q-48 0 -92.5 -11t-93.5 -35l14 66q83 40 191 40q99 0 155.5 -47.5t56.5 -130.5q0 -68 -38.5 -113.5t-105.5 -65.5
q51 -21 79 -60t28 -103q0 -75 -39 -127t-107 -78t-155 -26q-59 0 -115 12t-98 32z" />
    <glyph glyph-name="uni0418" unicode="&#x418;" horiz-adv-x="731" 
d="M123 112l549 613h68l-154 -725h-69l131 613l-549 -613h-67l154 725h68z" />
    <glyph glyph-name="uni0419" unicode="&#x419;" horiz-adv-x="731" 
d="M641 886q-33 -118 -161 -118q-70 0 -106 32t-31 86h55q-2 -36 21 -55t63 -19q38 0 63.5 18t39.5 56h56zM123 112l549 613h68l-154 -725h-69l131 613l-549 -613h-67l154 725h68z" />
    <glyph glyph-name="uni041A" unicode="&#x41a;" horiz-adv-x="618" 
d="M186 725h68l-74 -348l429 348h92l-448 -362l324 -363h-88l-314 351l-75 -351h-68z" />
    <glyph glyph-name="uni041B" unicode="&#x41b;" horiz-adv-x="711" 
d="M565 0h-68l141 665h-314l-44 -166q-54 -204 -86.5 -301.5t-76.5 -152.5t-111 -55q-27 0 -48 9l13 63q17 -7 38 -7q42 0 74 48.5t58 131t71 249.5l8 29l57 212h442z" />
    <glyph glyph-name="uni041C" unicode="&#x41c;" horiz-adv-x="836" 
d="M762 661l-324 -458h-69l-128 458l-141 -661h-68l154 725h106l125 -445l315 445h112l-154 -725h-68z" />
    <glyph glyph-name="uni041D" unicode="&#x41d;" horiz-adv-x="721" 
d="M594 405l67 320h69l-154 -725h-69l74 344h-408l-73 -344h-68l154 725h68l-68 -320h408z" />
    <glyph glyph-name="uni041E" unicode="&#x41e;" horiz-adv-x="761" 
d="M349 -13q-89 0 -154 37t-99.5 105.5t-34.5 161.5q0 105 44.5 208t133.5 171t214 68q89 0 154 -37t99.5 -105.5t34.5 -161.5q0 -105 -44.5 -208t-133.5 -171t-214 -68zM357 47q100 0 170.5 58.5t106.5 148t36 180.5q0 69 -25.5 124.5t-76 87.5t-123.5 32
q-100 0 -171 -58.5t-107 -148t-36 -180.5q0 -70 25.5 -125t76.5 -87t124 -32z" />
    <glyph glyph-name="uni041F" unicode="&#x41f;" horiz-adv-x="709" 
d="M717 725l-154 -725h-68l141 665h-395l-141 -665h-68l154 725h531z" />
    <glyph glyph-name="uni0420" unicode="&#x420;" horiz-adv-x="606" 
d="M373 725q123 0 191 -40.5t68 -133.5q0 -139 -93 -194.5t-255 -55.5h-120l-64 -301h-68l154 725h187zM242 666l-65 -306h119q121 0 192.5 38t71.5 148q0 68 -51 94t-143 26h-124z" />
    <glyph glyph-name="uni0421" unicode="&#x421;" horiz-adv-x="622" 
d="M403 47q79 0 150 26l-12 -64q-69 -22 -150 -22q-98 0 -172.5 40.5t-115 113.5t-40.5 168q0 116 53.5 214.5t150 156.5t219.5 58q55 0 108 -12.5t88 -32.5l-13 -64q-34 22 -82.5 35.5t-103.5 13.5q-100 0 -179.5 -46.5t-124.5 -130t-45 -189.5q0 -122 71.5 -193.5
t197.5 -71.5z" />
    <glyph glyph-name="uni0422" unicode="&#x422;" horiz-adv-x="572" 
d="M262 0h-68l141 665h-230l13 60h529l-13 -60h-231z" />
    <glyph glyph-name="uni0423" unicode="&#x423;" horiz-adv-x="622" 
d="M64 2l14 64q25 -19 64 -19q59 0 100 60l21 30l-149 588h71l125 -514l326 514h76l-401 -622q-39 -61 -80 -89t-91 -28q-21 0 -42.5 4.5t-33.5 11.5z" />
    <glyph glyph-name="uni0424" unicode="&#x424;" horiz-adv-x="884" 
d="M561 668q92 -2 160.5 -34.5t106 -92t37.5 -139.5q0 -102 -54 -177.5t-151.5 -117.5t-226.5 -44l-18 -83h-68l17 83q-91 2 -160 34.5t-106.5 92t-37.5 139.5q0 102 54 177.5t152 117.5t227 44l16 77h69zM480 609q-105 -2 -184 -36.5t-122.5 -96t-43.5 -144.5
q0 -98 66.5 -152.5t180.5 -57.5zM445 122q105 2 184 36.5t122.5 96.5t43.5 145q0 97 -66.5 151.5t-180.5 57.5z" />
    <glyph glyph-name="uni0425" unicode="&#x425;" horiz-adv-x="627" 
d="M24 0h-83l358 379l-181 346h73l155 -296l280 296h84l-334 -353l196 -372h-74l-169 322z" />
    <glyph glyph-name="uni0426" unicode="&#x426;" horiz-adv-x="733" 
d="M573 60h87l-47 -217h-65l34 157h-550l154 725h68l-142 -665h392l142 665h68z" />
    <glyph glyph-name="uni0427" unicode="&#x427;" horiz-adv-x="644" 
d="M653 725l-154 -725h-69l66 308q-86 -14 -168 -14q-119 0 -179 39t-60 120q0 30 7 59l46 213h68l-42 -198q-7 -29 -7 -56q0 -66 45 -91.5t135 -25.5q73 0 168 14l75 357h69z" />
    <glyph glyph-name="uni0428" unicode="&#x428;" horiz-adv-x="970" 
d="M978 725l-154 -725h-792l154 725h68l-141 -665h294l141 665h68l-141 -665h293l142 665h68z" />
    <glyph glyph-name="uni0429" unicode="&#x429;" horiz-adv-x="996" 
d="M837 60h85l-46 -217h-64l33 157h-813l154 725h68l-141 -665h294l141 665h68l-141 -665h293l142 665h68z" />
    <glyph glyph-name="uni042A" unicode="&#x42a;" horiz-adv-x="714" 
d="M432 446q114 0 179.5 -49.5t65.5 -153.5q0 -119 -88 -181t-235 -62h-208l141 665h-192l12 60h262l-60 -279h123zM296 385l-68 -325h134q107 0 175.5 43t68.5 136q0 78 -47.5 112t-133.5 34h-129z" />
    <glyph glyph-name="uni042B" unicode="&#x42b;" horiz-adv-x="828" 
d="M305 446q114 0 179.5 -49.5t65.5 -153.5q0 -119 -88 -181t-235 -62h-195l154 725h68l-59 -279h110zM836 725l-154 -725h-68l154 725h68zM182 385l-69 -325h122q107 0 175.5 43t68.5 136q0 79 -47.5 112.5t-133.5 33.5h-116z" />
    <glyph glyph-name="uni042C" unicode="&#x42c;" horiz-adv-x="608" 
d="M325 446q114 0 180 -49.5t66 -153.5q0 -119 -88 -181t-236 -62h-215l154 725h68l-59 -279h130zM182 385l-69 -325h143q106 0 174.5 43t68.5 136q0 78 -47 112t-134 34h-136z" />
    <glyph glyph-name="uni042D" unicode="&#x42d;" horiz-adv-x="643" 
d="M618 412q0 -112 -45 -209t-136.5 -156.5t-223.5 -59.5q-67 0 -127.5 12.5t-102.5 32.5l14 66q37 -23 93.5 -37t122.5 -14q94 0 164.5 39t112.5 106t54 151h-382l13 60h373v4q0 132 -63.5 202t-193.5 70q-52 0 -99.5 -10.5t-82.5 -29.5l14 67q76 33 181 33
q161 0 237.5 -87t76.5 -240z" />
    <glyph glyph-name="uni042E" unicode="&#x42e;" horiz-adv-x="1020" 
d="M614 -13q-88 0 -152 37t-98.5 105.5t-34.5 161.5q0 35 2 53h-158l-73 -344h-68l154 725h68l-68 -320h155q20 89 67.5 164.5t124.5 122t179 46.5q88 0 152.5 -37t99 -105.5t34.5 -161.5q0 -105 -43 -208.5t-129.5 -171t-211.5 -67.5zM623 47q99 0 167.5 58.5t102.5 147.5
t34 181q0 70 -25 125t-75.5 87t-123.5 32q-99 0 -167.5 -58.5t-102.5 -147.5t-34 -181q0 -69 25.5 -124.5t76 -87.5t122.5 -32z" />
    <glyph glyph-name="uni042F" unicode="&#x42f;" horiz-adv-x="627" 
d="M481 0h-68l63 298h-166l-259 -298h-85l274 314q-64 18 -97 62.5t-33 112.5q0 73 37 126t107 81.5t166 28.5h215zM418 666q-115 0 -175.5 -44t-60.5 -129q0 -71 45.5 -103t145.5 -32h116l65 308h-136z" />
    <glyph glyph-name="uni0402" unicode="&#x402;" horiz-adv-x="759" 
d="M246 0h-68l141 665h-226l12 60h563l-13 -60h-267l-53 -246q67 23 144 23q109 0 169 -53t60 -153q0 -118 -82 -210t-233 -149l-21 55q129 51 197 125.5t68 169.5q0 76 -44 115t-128 39q-69 0 -143 -23z" />
    <glyph glyph-name="uni0403" unicode="&#x403;" horiz-adv-x="534" 
d="M529 886h93l-168 -113h-67zM186 725h421l-13 -60h-353l-141 -665h-68z" />
    <glyph glyph-name="uni0404" unicode="&#x404;" horiz-adv-x="640" 
d="M142 403h381l-13 -60h-376q-1 -9 -1 -27q0 -83 31.5 -143.5t88.5 -93t134 -32.5q55 0 103 9.5t81 28.5l-14 -67q-61 -31 -179 -31q-100 0 -171 41t-107.5 114.5t-36.5 167.5q0 114 51 212.5t148.5 157.5t229.5 59q122 0 206 -43l-14 -66q-84 49 -196 49q-92 0 -164.5 -36
t-118.5 -98.5t-63 -141.5z" />
    <glyph glyph-name="uni0405" unicode="&#x405;" horiz-adv-x="554" 
d="M3 52l14 69q42 -34 101.5 -53.5t122.5 -19.5q84 0 135.5 35.5t51.5 102.5q0 43 -32 78t-94 69l-53 28q-61 32 -99 78t-38 107q0 59 32 102.5t88 66.5t128 23q54 0 108 -14t95 -41l-14 -68q-41 30 -94 46.5t-104 16.5q-73 0 -120.5 -31.5t-47.5 -94.5q0 -42 27.5 -74
t79.5 -61l50 -27q85 -47 123 -92t38 -105t-33 -107t-93.5 -73t-139.5 -26q-67 0 -132.5 19t-99.5 46z" />
    <glyph glyph-name="uni0406" unicode="&#x406;" horiz-adv-x="416" 
d="M338 60l-13 -60h-348l13 60h140l128 605h-140l13 60h348l-13 -60h-140l-128 -605h140z" />
    <glyph glyph-name="uni0407" unicode="&#x407;" horiz-adv-x="416" 
d="M170 781l22 97h64l-22 -97h-64zM392 781l23 97h64l-23 -97h-64zM338 60l-13 -60h-348l13 60h140l128 605h-140l13 60h348l-13 -60h-140l-128 -605h140z" />
    <glyph glyph-name="uni0408" unicode="&#x408;" horiz-adv-x="319" 
d="M-26 -4l17 61q29 -9 61 -9q67 0 82 72l116 545h-123l12 60h192l-127 -601q-16 -73 -57 -105t-103 -32q-15 0 -35.5 2.5t-34.5 6.5z" />
    <glyph glyph-name="uni0409" unicode="&#x409;" horiz-adv-x="1008" 
d="M720 446q117 0 184 -49.5t67 -153.5q0 -119 -89.5 -181t-239.5 -62h-187l141 665h-272l-44 -166q-54 -204 -86.5 -301.5t-76.5 -152.5t-111 -55q-27 0 -48 9l13 63q17 -7 38 -7q42 0 74 48.5t58 131t71 249.5l8 29l57 212h400l-59 -279h102zM605 385l-69 -325h114
q109 0 179.5 43t70.5 136q0 78 -49 112t-138 34h-108z" />
    <glyph glyph-name="uni040A" unicode="&#x40a;" horiz-adv-x="992" 
d="M665 725l-61 -289h99q117 0 184.5 -48.5t67.5 -149.5q0 -116 -89.5 -177t-239.5 -61h-183l80 376h-343l-80 -376h-68l154 725h68l-61 -289h342l62 289h68zM591 376l-67 -316h110q109 0 179 42t70 132q0 142 -187 142h-105z" />
    <glyph glyph-name="uni040B" unicode="&#x40b;" horiz-adv-x="751" 
d="M175 0l141 665h-223l13 60h551l-13 -60h-260l-52 -246q79 23 158 23q100 0 157 -41t57 -122q0 -20 -7 -57l-48 -222h-68l45 210q6 29 6 52q0 119 -158 119q-71 0 -155 -23l-76 -358h-68z" />
    <glyph glyph-name="uni040C" unicode="&#x40c;" horiz-adv-x="618" 
d="M520 886h93l-168 -113h-67zM186 725h68l-74 -348l429 348h92l-448 -362l324 -363h-88l-314 351l-75 -351h-68z" />
    <glyph glyph-name="uni040E" unicode="&#x40e;" horiz-adv-x="622" 
d="M64 2l14 64q25 -19 64 -19q59 0 100 60l21 30l-149 588h71l125 -514l326 514h76l-401 -622q-39 -61 -80 -89t-91 -28q-21 0 -42.5 4.5t-33.5 11.5zM583 886q-33 -118 -161 -118q-70 0 -106 32t-31 86h55q-2 -36 21 -55t63 -19q38 0 63.5 18t39.5 56h56z" />
    <glyph glyph-name="uni040F" unicode="&#x40f;" horiz-adv-x="706" 
d="M560 0h-232l-34 -157h-64l34 157h-232l154 725h68l-142 -665h392l142 665h68z" />
    <glyph glyph-name="uni0490" unicode="&#x490;" horiz-adv-x="534" 
d="M640 882l-46 -217h-352l-142 -665h-68l154 725h356l34 157h64z" />
    <glyph glyph-name="uni0462" unicode="&#x462;" horiz-adv-x="693" 
d="M401 425q118 0 184.5 -46t66.5 -146q0 -117 -89.5 -175t-241.5 -58h-198l120 565h-158l12 58h159l21 102h69l-22 -102h227l-13 -58h-227l-29 -140h119zM269 365l-65 -305h128q110 0 179.5 39.5t69.5 128.5q0 73 -49 105t-138 32h-125z" />
    <glyph glyph-name="uni0472" unicode="&#x472;" horiz-adv-x="761" 
d="M741 434q0 -105 -44.5 -208t-133.5 -171t-214 -68q-89 0 -154 37t-99.5 105.5t-34.5 161.5q0 105 44.5 208t133.5 171t214 68q89 0 154 -37t99.5 -105.5t34.5 -161.5zM141 386q51 43 127 43q37 0 68.5 -9.5t75.5 -27.5q41 -18 69.5 -26.5t60.5 -8.5q40 0 75.5 15t51.5 39
q1 8 1 23q0 69 -25.5 124.5t-76 87.5t-123.5 32q-83 0 -146 -41t-102.5 -107t-55.5 -144zM661 345q-50 -44 -127 -44q-37 0 -68.5 9.5t-75.5 27.5q-41 17 -70 26t-61 9q-40 0 -75 -14.5t-52 -39.5q-1 -10 -1 -28q0 -70 25.5 -125t76.5 -87t124 -32q83 0 147 42t103 109.5
t54 146.5z" />
    <glyph glyph-name="uni0474" unicode="&#x474;" horiz-adv-x="713" 
d="M294 0h-80l-111 725h70l96 -648l281 503q45 82 88 118.5t99 36.5q27 0 52 -9l-14 -65q-16 8 -39 8q-34 0 -60.5 -22.5t-58.5 -79.5z" />
    <glyph glyph-name="uni0492" unicode="&#x492;" horiz-adv-x="547" 
d="M605 665h-352l-57 -267h196l-12 -56h-196l-73 -342h-68l73 342h-85l12 56h85l69 327h421z" />
    <glyph glyph-name="uni0496" unicode="&#x496;" horiz-adv-x="918" 
d="M443 376l74 349h68l-73 -349l383 349h88l-399 -365l225 -300h78l-46 -217h-65l34 157h-44l-260 349l-75 -349h-68l75 349l-410 -349h-95l435 371l-239 354h79z" />
    <glyph glyph-name="uni049A" unicode="&#x49a;" horiz-adv-x="632" 
d="M558 -157h-64l34 157h-39l-314 351l-75 -351h-68l154 725h68l-74 -348l429 348l91 -1l-447 -361l272 -303h80z" />
    <glyph glyph-name="uni04A2" unicode="&#x4a2;" horiz-adv-x="749" 
d="M589 60h86l-46 -217h-65l34 157h-91l74 344h-408l-73 -344h-68l154 725h68l-68 -320h408l67 320h69z" />
    <glyph glyph-name="uni04AE" unicode="&#x4ae;" horiz-adv-x="604" 
d="M269 274l-164 451h72l137 -388l303 388h79l-360 -453l-57 -272h-68z" />
    <glyph glyph-name="uni04B0" unicode="&#x4b0;" horiz-adv-x="607" 
d="M618 725h80l-360 -453h141l-13 -60h-141l-45 -212h-68l45 212h-140l13 60h140l-163 453h72l137 -388z" />
    <glyph glyph-name="uni04B2" unicode="&#x4b2;" horiz-adv-x="645" 
d="M24 0h-83l358 379l-181 346h73l155 -296l280 296h84l-334 -353l164 -312h78l-46 -217h-65l34 157h-43l-169 322z" />
    <glyph glyph-name="uni04B6" unicode="&#x4b6;" horiz-adv-x="671" 
d="M653 725l-142 -665h87l-47 -217h-64l34 157h-91l66 308q-86 -14 -168 -14q-239 0 -239 159q0 30 7 59l46 213h68l-42 -198q-7 -29 -7 -56q0 -66 45 -91.5t135 -25.5q73 0 168 14l75 357h69z" />
    <glyph glyph-name="uni04BA" unicode="&#x4ba;" horiz-adv-x="645" 
d="M32 0l154 725h68l-63 -296q87 22 172 22q111 0 173 -41t62 -123q0 -25 -6 -54l-50 -233h-68l46 219q6 29 6 50q0 68 -48 95t-134 27q-40 0 -78.5 -5.5t-87.5 -17.5l-78 -368h-68z" />
    <glyph glyph-name="uni04C0" unicode="&#x4c0;" horiz-adv-x="406" 
d="M334 60l-13 -60h-348l13 60h140l128 605h-140l13 60h348l-13 -60h-140l-128 -605h140z" />
    <glyph glyph-name="uni04D8" unicode="&#x4d8;" horiz-adv-x="712" 
d="M47 279q0 51 10 105h558q1 9 1 29q0 82 -35.5 140.5t-99 89t-144.5 30.5q-45 0 -91 -9.5t-85 -25.5l15 69q83 31 175 31q94 0 170.5 -38t121 -110.5t44.5 -171.5q0 -117 -45.5 -216t-129.5 -157t-196 -58q-77 0 -138 33.5t-96 99t-35 159.5zM608 320h-488q-3 -25 -3 -50
q0 -102 54.5 -162.5t151.5 -60.5q74 0 134 35.5t98.5 97t52.5 140.5z" />
    <glyph glyph-name="uni04E2" unicode="&#x4e2;" horiz-adv-x="731" 
d="M631 858l-11 -55h-284l11 55h284zM123 112l549 613h68l-154 -725h-69l131 613l-549 -613h-67l154 725h68z" />
    <glyph glyph-name="uni04E8" unicode="&#x4e8;" horiz-adv-x="761" 
d="M61 291q0 105 44.5 208t133.5 171t214 68q89 0 154 -37t99.5 -105.5t34.5 -161.5q0 -105 -44.5 -208t-133.5 -171t-214 -68q-89 0 -154 37t-99.5 105.5t-34.5 161.5zM146 406h524l1 24q0 110 -58.5 179t-167.5 69q-79 0 -140.5 -37.5t-101 -99t-57.5 -135.5zM662 345
h-527q-4 -36 -4 -54q0 -70 25.5 -125t76.5 -87t124 -32q84 0 147.5 42t103 109.5t54.5 146.5z" />
    <glyph glyph-name="uni04EE" unicode="&#x4ee;" horiz-adv-x="622" 
d="M576 858l-11 -55h-284l11 55h284zM64 2l14 64q25 -19 64 -19q59 0 100 60l21 30l-149 588h71l125 -514l326 514h76l-401 -622q-39 -61 -80 -89t-91 -28q-21 0 -42.5 4.5t-33.5 11.5z" />
    <glyph glyph-name="uni0430" unicode="&#x430;" horiz-adv-x="529" 
d="M412 340q4 24 4 41q0 58 -37.5 83.5t-100.5 25.5q-46 0 -88.5 -9t-74.5 -24l14 62q75 28 159 28t136 -37.5t52 -119.5q0 -22 -2 -34q0 -19 -10.5 -68.5t-13.5 -61.5l-11 -49q-10 -48 -18.5 -90t-13.5 -87h-62l16 88q-31 -49 -78.5 -75t-107.5 -26q-69 0 -117 37.5
t-48 106.5q0 67 46.5 109.5t134 65t221.5 34.5zM395 245l9 44q-115 -10 -186 -28.5t-105 -48t-34 -74.5q0 -47 31.5 -72.5t82.5 -25.5q69 0 124 50.5t78 154.5z" />
    <glyph glyph-name="uni0431" unicode="&#x431;" horiz-adv-x="586" 
d="M58 275l16 75q25 115 66 192t110 123t173 59q59 7 102.5 14.5t78.5 18.5l-12 -59q-41 -13 -136 -26l-36 -5q-84 -11 -138 -44.5t-86 -87t-55 -133.5q39 63 96.5 93.5t123.5 30.5q83 0 135.5 -50t52.5 -146q0 -90 -36 -169t-102.5 -126.5t-152.5 -47.5q-94 0 -151 58
t-57 156q0 30 8 74zM339 471q-63 0 -114 -35t-80 -96.5t-29 -137.5q0 -73 40 -116t111 -43q62 0 111.5 38t77 101t27.5 136q0 74 -37.5 113.5t-106.5 39.5z" />
    <glyph glyph-name="uni0432" unicode="&#x432;" horiz-adv-x="527" 
d="M320 538q78 0 124.5 -32t46.5 -97q0 -50 -27.5 -83.5t-80.5 -47.5q37 -11 59 -40t22 -74q0 -79 -63.5 -121.5t-162.5 -42.5h-217l114 538h185zM282 300q65 0 103 24.5t38 73.5q0 45 -31.5 65.5t-84.5 20.5h-122l-38 -184h135zM135 248l-41 -194h145q78 0 118.5 27.5
t40.5 79.5q0 45 -31 66t-93 21h-139z" />
    <glyph glyph-name="uni0433" unicode="&#x433;" horiz-adv-x="431" 
d="M464 538l-11 -54h-267l-103 -484h-63l115 538h329z" />
    <glyph glyph-name="uni0434" unicode="&#x434;" horiz-adv-x="589" 
d="M513 54l-42 -198h-60l30 144h-427l-30 -144h-60l42 198h48q69 64 119 263l55 221h360l-103 -484h68zM383 54l91 430h-241l-44 -177q-24 -96 -49 -158t-53 -95h296z" />
    <glyph glyph-name="uni0435" unicode="&#x435;" horiz-adv-x="541" 
d="M104 255v-17q0 -98 53.5 -146.5t132.5 -48.5q41 0 77.5 9.5t63.5 24.5l-16 -62q-28 -13 -66 -20.5t-76 -7.5q-70 0 -123.5 30.5t-83 85.5t-29.5 125q0 82 36.5 155.5t103 118.5t152.5 45q90 0 139 -55.5t49 -151.5q0 -40 -9 -85h-404zM111 306h340q3 21 3 40
q0 72 -37 109.5t-97 37.5q-75 0 -133 -50.5t-76 -136.5z" />
    <glyph glyph-name="uni0451" unicode="&#x451;" horiz-adv-x="541" 
d="M104 255v-17q0 -98 53.5 -146.5t132.5 -48.5q41 0 77.5 9.5t63.5 24.5l-16 -62q-28 -13 -66 -20.5t-76 -7.5q-70 0 -123.5 30.5t-83 85.5t-29.5 125q0 82 36.5 155.5t103 118.5t152.5 45q90 0 139 -55.5t49 -151.5q0 -40 -9 -85h-404zM111 306h340q3 21 3 40
q0 72 -37 109.5t-97 37.5q-75 0 -133 -50.5t-76 -136.5zM279 658h-62l20 97h62zM439 658l21 97h63l-20 -97h-64z" />
    <glyph glyph-name="uni0436" unicode="&#x436;" horiz-adv-x="741" 
d="M348 0h-62l56 265l-320 -265h-85l338 279l-182 259h76l177 -253l54 253h62l-54 -253l285 253h83l-300 -264l215 -274h-79l-208 265z" />
    <glyph glyph-name="uni0437" unicode="&#x437;" horiz-adv-x="462" 
d="M-16 27l13 61q33 -22 77.5 -34t91.5 -12q77 0 121.5 32.5t44.5 86.5q0 89 -123 89h-84l12 55h81q64 0 103.5 25.5t39.5 71.5q0 43 -34 66.5t-90 23.5q-87 0 -162 -38l13 63q68 31 162 31q86 0 131.5 -38t45.5 -100q0 -49 -30 -82.5t-80 -45.5q37 -10 60 -41t23 -78
q0 -52 -28.5 -92t-81.5 -62t-124 -22q-48 0 -95.5 10.5t-86.5 29.5z" />
    <glyph glyph-name="uni0438" unicode="&#x438;" horiz-adv-x="584" 
d="M105 99l398 439h60l-114 -538h-62l92 439l-398 -439h-60l114 538h62z" />
    <glyph glyph-name="uni0439" unicode="&#x439;" horiz-adv-x="584" 
d="M244 755h51q-3 -36 18.5 -56t64.5 -20q42 0 70.5 20t41.5 56h51q-15 -54 -56.5 -87t-108.5 -33q-70 0 -104 34.5t-28 85.5zM105 99l398 439h60l-114 -538h-62l92 439l-398 -439h-60l114 538h62z" />
    <glyph glyph-name="uni043A" unicode="&#x43a;" horiz-adv-x="485" 
d="M21 0l114 538h62l-52 -243l293 243h82l-308 -256l232 -282h-77l-226 274l-58 -274h-62z" />
    <glyph glyph-name="uni043B" unicode="&#x43b;" horiz-adv-x="559" 
d="M540 538l-115 -538h-62l103 484h-225l-51 -197q-27 -106 -51 -167t-57.5 -93t-83.5 -32q-25 0 -41 6l13 60q16 -6 28 -6q31 0 53 24.5t40 74t41 137.5l64 247h344z" />
    <glyph glyph-name="uni043C" unicode="&#x43c;" horiz-adv-x="697" 
d="M333 207l259 331h85l-114 -538h-61l99 466l-256 -330h-50l-115 325l-98 -461h-61l114 538h81z" />
    <glyph glyph-name="uni043D" unicode="&#x43d;" horiz-adv-x="574" 
d="M553 538l-114 -538h-62l52 247h-294l-52 -247h-62l114 538h62l-50 -237h294l50 237h62z" />
    <glyph glyph-name="uni043E" unicode="&#x43e;" horiz-adv-x="568" 
d="M34 203q0 82 33 161t99 131t159 52t150.5 -56.5t57.5 -159.5q0 -81 -33.5 -160.5t-99.5 -131.5t-159 -52q-92 0 -149.5 56.5t-57.5 159.5zM466 327q0 80 -40 122t-110 42q-69 0 -117.5 -42.5t-73 -108t-24.5 -133.5q0 -80 40 -122t110 -42q69 0 117.5 42.5t73 108
t24.5 133.5z" />
    <glyph glyph-name="uni043F" unicode="&#x43f;" horiz-adv-x="569" 
d="M135 538h413l-114 -538h-62l103 484h-289l-103 -484h-62z" />
    <glyph glyph-name="uni0440" unicode="&#x440;" horiz-adv-x="589" 
d="M179 455q29 43 74 67.5t101 24.5q96 0 145.5 -64.5t49.5 -168.5q0 -83 -31 -158t-90 -122t-139 -47q-70 0 -116 39t-62 105l-69 -326h-62l155 733h62zM286 42q64 0 108.5 42.5t66.5 105.5t22 124q0 81 -36.5 129.5t-106.5 48.5q-61 0 -108.5 -39.5t-73 -100.5t-25.5 -122
q0 -85 41.5 -136.5t111.5 -51.5z" />
    <glyph glyph-name="uni0441" unicode="&#x441;" horiz-adv-x="461" 
d="M285 44q27 0 53.5 5t45.5 13l-12 -59q-46 -16 -104 -16q-70 0 -122.5 29.5t-80.5 83t-28 123.5q0 90 41 164t111.5 117t155.5 43q79 0 133 -30l-12 -59q-24 15 -57.5 23.5t-68.5 8.5q-64 0 -118.5 -32.5t-86.5 -92t-32 -137.5q0 -87 50.5 -135.5t131.5 -48.5z" />
    <glyph glyph-name="uni0442" unicode="&#x442;" horiz-adv-x="494" 
d="M528 538l-11 -54h-193l-103 -484h-63l103 484h-193l11 54h449z" />
    <glyph glyph-name="uni0443" unicode="&#x443;" horiz-adv-x="483" 
d="M530 538l-427 -733h-65l118 203l-89 530h64l72 -454l258 454h69z" />
    <glyph glyph-name="uni0444" unicode="&#x444;" horiz-adv-x="700" 
d="M283 -195h-62l39 184q-62 3 -112.5 31.5t-80 81.5t-29.5 125q0 93 44 164t121.5 111t174.5 42l45 211h62l-45 -211q62 -3 113 -31.5t80.5 -81t29.5 -124.5q0 -93 -44 -164.5t-122 -111.5t-175 -42zM367 489q-76 -2 -135.5 -33.5t-93.5 -89.5t-34 -136q0 -85 45.5 -133.5
t122.5 -52.5zM334 44q76 2 135.5 33.5t93.5 89.5t34 137q0 85 -45.5 133t-122.5 52z" />
    <glyph glyph-name="uni0445" unicode="&#x445;" horiz-adv-x="484" 
d="M452 538h76l-248 -263l144 -275h-67l-121 228l-215 -228h-75l264 280l-135 258h68l110 -211z" />
    <glyph glyph-name="uni0446" unicode="&#x446;" horiz-adv-x="587" 
d="M547 538l-103 -484h67l-40 -192h-60l29 138h-419l114 538h62l-103 -484h287l103 484h63z" />
    <glyph glyph-name="uni0447" unicode="&#x447;" horiz-adv-x="512" 
d="M378 0h-62l48 230q-76 -17 -132 -17q-176 0 -176 125q0 23 6 50l31 150h62l-28 -136q-6 -27 -6 -48q0 -45 30 -65.5t97 -20.5q56 0 128 16l54 254h62z" />
    <glyph glyph-name="uni0448" unicode="&#x448;" horiz-adv-x="810" 
d="M728 538h62l-114 -538h-655l114 538h62l-103 -484h235l102 484h62l-102 -484h234z" />
    <glyph glyph-name="uni0449" unicode="&#x449;" horiz-adv-x="831" 
d="M687 54h68l-41 -198h-60l30 144h-663l114 538h62l-103 -484h235l102 484h62l-102 -484h234l103 484h62z" />
    <glyph glyph-name="uni044A" unicode="&#x44a;" horiz-adv-x="583" 
d="M362 339q85 0 130 -40t45 -113q0 -92 -65 -139t-167 -47h-203l103 484h-149l11 54h211l-42 -199h126zM307 54q81 0 123 32t42 95q0 54 -31.5 78.5t-93.5 24.5h-122l-49 -230h131z" />
    <glyph glyph-name="uni044B" unicode="&#x44b;" horiz-adv-x="687" 
d="M262 339q84 0 129.5 -40t45.5 -113q0 -92 -65.5 -139t-167.5 -47h-183l114 538h62l-42 -199h107zM666 538l-114 -538h-62l114 538h62zM206 54q81 0 123.5 32t42.5 95q0 54 -32 78.5t-94 24.5h-103l-49 -230h112z" />
    <glyph glyph-name="uni044C" unicode="&#x44c;" horiz-adv-x="506" 
d="M286 339q84 0 129.5 -40t45.5 -113q0 -92 -65.5 -139t-167.5 -47h-207l114 538h62l-42 -199h131zM230 54q81 0 123.5 32t42.5 95q0 54 -32 78.5t-94 24.5h-127l-49 -230h136z" />
    <glyph glyph-name="uni044D" unicode="&#x44d;" horiz-adv-x="474" 
d="M436 319q0 -92 -36 -167.5t-106.5 -120t-169.5 -44.5q-78 0 -143 25l13 61q30 -14 66 -21.5t71 -7.5q93 0 155.5 54.5t79.5 147.5h-261l11 54h255v9q0 101 -45 141t-132 40q-62 0 -117 -24l12 60q60 21 117 21q110 0 170 -58t60 -170z" />
    <glyph glyph-name="uni044E" unicode="&#x44e;" horiz-adv-x="774" 
d="M253 205q0 28 2 42h-119l-53 -247h-62l114 538h62l-50 -237h117q26 104 96 175t178 71q90 0 145 -56.5t55 -162.5q0 -80 -32 -159t-97 -130.5t-156 -51.5t-145.5 56t-54.5 162zM671 327q0 80 -38 122t-105 42q-68 0 -115 -42.5t-70.5 -108t-23.5 -133.5q0 -80 38.5 -122
t105.5 -42t114 42.5t70.5 108t23.5 133.5z" />
    <glyph glyph-name="uni044F" unicode="&#x44f;" horiz-adv-x="518" 
d="M498 538l-114 -538h-63l43 203h-139l-186 -203h-80l202 218q-42 16 -65 50.5t-23 84.5q0 55 28.5 97t79 65t112.5 23h205zM292 484q-73 0 -113.5 -35t-40.5 -92q0 -51 32.5 -75.5t88.5 -24.5h117l48 227h-132z" />
    <glyph glyph-name="uni0452" unicode="&#x452;" horiz-adv-x="571" 
d="M462 84q-32 -152 -86.5 -219t-148.5 -67q-30 0 -48 5l12 54q15 -4 38 -4q65 0 105 55.5t67 182.5l49 229q8 36 8 71q0 54 -26 77t-78 23q-79 0 -134 -54t-77 -157l-60 -280h-62l129 612h-82l11 52h82l20 91h62l-19 -91h159l-10 -52h-160l-36 -168q29 46 76.5 74.5
t116.5 28.5q152 0 152 -144q0 -32 -8 -75z" />
    <glyph glyph-name="uni0453" unicode="&#x453;" horiz-adv-x="431" 
d="M464 538l-11 -54h-267l-103 -484h-63l115 538h329zM408 755h87l-152 -116h-58z" />
    <glyph glyph-name="uni0454" unicode="&#x454;" horiz-adv-x="474" 
d="M109 300h244l-11 -54h-240v-13q0 -93 49 -141t130 -48q70 0 117 22l-12 -59q-48 -20 -118 -20q-105 0 -168 64t-63 175q0 88 39 161.5t110 116.5t162 43q41 0 79 -6.5t64 -18.5l-13 -62q-48 30 -136 30q-86 0 -150 -52t-83 -138z" />
    <glyph glyph-name="uni0455" unicode="&#x455;" horiz-adv-x="431" 
d="M3 102q35 -28 78 -43.5t89 -15.5q63 0 100.5 23.5t37.5 67.5q0 30 -23 56t-75 55l-32 17q-48 27 -74.5 63t-26.5 77t23.5 74t66.5 52t101 19q42 0 81 -11.5t71 -30.5l-14 -62q-32 22 -73 35t-79 13q-51 0 -83.5 -21.5t-32.5 -60.5q0 -29 19.5 -52.5t56.5 -44.5l32 -17
q66 -37 94.5 -71t28.5 -77q0 -73 -55.5 -116.5t-153.5 -43.5q-46 0 -92 13t-79 37z" />
    <glyph glyph-name="uni0456" unicode="&#x456;" horiz-adv-x="217" 
d="M157 653l21 102h62l-21 -102h-62zM21 0l114 538h62l-114 -538h-62z" />
    <glyph glyph-name="uni0457" unicode="&#x457;" horiz-adv-x="217" 
d="M106 653l22 102h60l-22 -102h-60zM214 653l21 102h60l-21 -102h-60zM83 0h-62l114 538h62z" />
    <glyph glyph-name="uni0458" unicode="&#x458;" horiz-adv-x="241" 
d="M180 653l22 102h62l-21 -102h-63zM-101 -200l12 53q19 -6 45 -6q29 0 45.5 14.5t25.5 56.5l120 569h-88l11 51h151l-131 -617q-15 -72 -46.5 -99.5t-95.5 -27.5q-28 0 -49 6z" />
    <glyph glyph-name="uni0459" unicode="&#x459;" horiz-adv-x="808" 
d="M190 287q-27 -106 -51 -167t-57.5 -93t-83.5 -32q-25 0 -41 6l13 60q16 -6 28 -6q31 0 53 24.5t40 74t41 137.5l64 247h325l-42 -199h106q86 0 132 -40t46 -113q0 -92 -65.5 -139t-167.5 -47h-186l103 484h-206zM532 54q81 0 123.5 32t42.5 95q0 54 -32 78.5t-94 24.5
h-105l-49 -230h114z" />
    <glyph glyph-name="uni045A" unicode="&#x45a;" horiz-adv-x="798" 
d="M577 334q85 0 130 -39.5t45 -111.5q0 -91 -65 -137t-167 -46h-186l59 280h-251l-59 -280h-62l114 538h62l-43 -204h251l43 204h62l-43 -204h110zM522 54q81 0 123 32t42 93q0 53 -32 77t-93 24h-107l-48 -226h115z" />
    <glyph glyph-name="uni045B" unicode="&#x45b;" horiz-adv-x="571" 
d="M243 755l-19 -91h159l-10 -52h-160l-36 -168q29 46 76.5 74.5t116.5 28.5q152 0 152 -144q0 -39 -8 -75l-70 -328h-62l68 320q8 36 8 71q0 54 -26 77t-78 23q-79 0 -134 -54t-77 -157l-60 -280h-62l129 612h-82l11 52h82l20 91h62z" />
    <glyph glyph-name="uni045C" unicode="&#x45c;" horiz-adv-x="485" 
d="M412 755h87l-152 -116h-58zM21 0l114 538h62l-52 -243l293 243h82l-308 -256l232 -282h-77l-226 274l-58 -274h-62z" />
    <glyph glyph-name="uni045E" unicode="&#x45e;" horiz-adv-x="483" 
d="M186 755h51q-3 -36 18.5 -56t64.5 -20q42 0 70.5 20t41.5 56h51q-15 -54 -56.5 -87t-108.5 -33q-70 0 -104 34.5t-28 85.5zM530 538l-427 -733h-65l118 203l-89 530h64l72 -454l258 454h69z" />
    <glyph glyph-name="uni045F" unicode="&#x45f;" horiz-adv-x="567" 
d="M547 538l-114 -538h-176l-29 -137h-60l29 137h-176l114 538h62l-103 -484h288l103 484h62z" />
    <glyph glyph-name="uni0491" unicode="&#x491;" horiz-adv-x="431" 
d="M494 682l-41 -198h-268l-102 -484h-62l114 538h268l30 144h61z" />
    <glyph glyph-name="uni0463" unicode="&#x463;" horiz-adv-x="550" 
d="M328 350q85 0 130.5 -41t45.5 -118q0 -94 -64.5 -142.5t-166.5 -48.5h-202l103 487h-118l11 51h118l46 217h63l-46 -217h168l-11 -51h-168l-30 -137h121zM274 54q81 0 123 33.5t42 99.5q0 57 -32 83t-94 26h-117l-51 -242h129z" />
    <glyph glyph-name="uni0473" unicode="&#x473;" horiz-adv-x="568" 
d="M533 331q0 -81 -33.5 -160.5t-99.5 -131.5t-159 -52q-92 0 -149.5 56.5t-57.5 159.5q0 82 33 161t99 131t159 52t150.5 -56.5t57.5 -159.5zM110 288q38 38 92 38q25 0 44 -6.5t46 -20.5q25 -14 44 -20.5t42 -6.5q28 0 51 11t37 32v12q0 80 -40 122t-110 42
q-82 0 -134.5 -58t-71.5 -145zM459 254q-41 -39 -93 -39q-25 0 -44 6.5t-46 20.5q-25 14 -44 20.5t-42 6.5q-28 0 -51.5 -11t-37.5 -33v-18q0 -80 40 -122t110 -42q83 0 136.5 61t71.5 150z" />
    <glyph glyph-name="uni0475" unicode="&#x475;" horiz-adv-x="555" 
d="M397 414q40 71 76 102.5t85 31.5q20 0 36 -6l-14 -60q-12 4 -26 4q-29 0 -49 -19t-52 -74l-233 -393h-60l-95 538h66l76 -453z" />
    <glyph glyph-name="uni0493" unicode="&#x493;" horiz-adv-x="446" 
d="M468 484h-268l-37 -175h151l-10 -51h-151l-55 -258h-62l54 258h-76l11 51h76l49 229h329z" />
    <glyph glyph-name="uni0497" unicode="&#x497;" horiz-adv-x="757" 
d="M476 274l174 -220h75l-42 -198h-60l30 144h-41l-208 265l-56 -265h-62l56 265l-320 -265h-85l338 279l-182 259h76l177 -253l54 253h62l-54 -253l285 253h83z" />
    <glyph glyph-name="uni049B" unicode="&#x49b;" horiz-adv-x="503" 
d="M21 0l114 538h62l-52 -243l293 243h84l-309 -257l188 -227h76l-42 -198h-60l30 144h-38l-226 274l-58 -274h-62z" />
    <glyph glyph-name="uni04A3" unicode="&#x4a3;" horiz-adv-x="594" 
d="M451 54h68l-42 -198h-60l30 144h-70l52 247h-294l-52 -247h-62l114 538h62l-50 -237h294l50 237h62z" />
    <glyph glyph-name="uni04AF" unicode="&#x4af;" horiz-adv-x="491" 
d="M539 538l-318 -538l-41 -195h-62l41 195l-93 538h66l74 -461l263 461h70z" />
    <glyph glyph-name="uni04B1" unicode="&#x4b1;" horiz-adv-x="492" 
d="M469 538h71l-318 -538h109l-12 -51h-108l-31 -144h-61l30 144h-108l11 51h108l-93 538h65l74 -461z" />
    <glyph glyph-name="uni04B3" unicode="&#x4b3;" horiz-adv-x="503" 
d="M452 538h76l-248 -263l116 -221h76l-41 -198h-60l30 144h-44l-121 228l-215 -228h-75l264 280l-135 258h68l110 -211z" />
    <glyph glyph-name="uni04B7" unicode="&#x4b7;" horiz-adv-x="533" 
d="M416 -144h-60l30 144h-70l48 230q-76 -17 -132 -17q-176 0 -176 125q0 23 6 50l31 150h62l-28 -136q-6 -27 -6 -48q0 -45 30 -65.5t97 -20.5q56 0 128 16l54 254h62l-103 -484h68z" />
    <glyph glyph-name="uni04BB" unicode="&#x4bb;" horiz-adv-x="571" 
d="M177 444q29 46 76.5 74.5t116.5 28.5q152 0 152 -144q0 -39 -8 -75l-70 -328h-62l68 320q8 36 8 71q0 54 -26 77t-78 23q-79 0 -134 -54t-77 -157l-60 -280h-62l160 755h62z" />
    <glyph glyph-name="uni04CF" unicode="&#x4cf;" horiz-adv-x="217" 
d="M181 755h62l-160 -755h-62z" />
    <glyph glyph-name="uni04D9" unicode="&#x4d9;" horiz-adv-x="541" 
d="M503 306q0 -82 -36.5 -155.5t-103 -118.5t-152.5 -45q-90 0 -139 55.5t-49 151.5q0 40 9 85h404v17q0 98 -53.5 146.5t-132.5 48.5q-41 0 -77.5 -9.5t-63.5 -24.5l16 62q28 13 66 20.5t76 7.5q70 0 123.5 -30.5t83 -85.5t29.5 -125zM429 228h-340q-3 -21 -3 -40
q0 -72 37 -109.5t97 -37.5q75 0 133 50.5t76 136.5z" />
    <glyph glyph-name="uni04E3" unicode="&#x4e3;" horiz-adv-x="584" 
d="M105 99l398 439h60l-114 -538h-62l92 439l-398 -439h-60l114 538h62zM534 726l-11 -53h-279l12 53h278z" />
    <glyph glyph-name="uni04E9" unicode="&#x4e9;" horiz-adv-x="568" 
d="M34 203q0 82 33 161t99 131t159 52t150.5 -56.5t57.5 -159.5q0 -81 -33.5 -160.5t-99.5 -131.5t-159 -52q-92 0 -149.5 56.5t-57.5 159.5zM112 299h353l1 28q0 80 -40 122t-110 42q-79 0 -131 -55t-73 -137zM457 245h-353q-3 -13 -3 -38q0 -80 40 -122t110 -42
q81 0 134 58t72 144z" />
    <glyph glyph-name="uni04EF" unicode="&#x4ef;" horiz-adv-x="483" 
d="M530 538l-427 -733h-65l118 203l-89 530h64l72 -454l258 454h69zM469 726l-11 -53h-279l12 53h278z" />
    <glyph glyph-name="uni0414.aalt" horiz-adv-x="715" 
d="M607 60h55l-46 -217h-61l34 157h-574l-34 -157h-61l46 217h57l393 665h77zM97 60h441l-96 592z" />
    <glyph glyph-name="uni041B.aalt" horiz-adv-x="645" 
d="M457 725l124 -725h-70l-105 652l-380 -652h-74l429 725h76z" />
    <glyph glyph-name="uni0432.aalt" horiz-adv-x="529" 
d="M476 227q0 -71 -31 -125t-88.5 -84t-133.5 -30q-83 0 -129.5 38.5t-46.5 110.5q0 22 7 57l79 374q20 95 75 142t133 47q80 0 124 -47t44 -125q0 -68 -33.5 -115.5t-98.5 -71.5q45 -20 72 -63t27 -108zM196 569l-31 -149h106q77 0 124.5 43t47.5 116q0 55 -27 89t-81 34
q-53 0 -89 -34t-50 -99zM411 223q0 66 -36.5 105t-103.5 39h-118l-36 -171q-5 -20 -5 -45q0 -52 30.5 -80t88.5 -28q53 0 94 23.5t63.5 65t22.5 91.5z" />
    <glyph glyph-name="uni0433.aalt" horiz-adv-x="425" 
d="M-3 121q0 59 47.5 99t158.5 79l33 12q120 43 120 110q0 33 -27.5 51.5t-78.5 18.5q-67 0 -143 -32l13 62q73 26 142 26q72 0 114 -32t42 -91q0 -60 -42.5 -97.5t-119.5 -64.5l-47 -17q-80 -28 -114 -57.5t-34 -65.5q0 -38 33 -58.5t92 -20.5q83 0 159 44l-14 -66
q-29 -15 -72 -24.5t-88 -9.5q-81 0 -127.5 34.5t-46.5 99.5z" />
    <glyph glyph-name="uni0434.aalt" horiz-adv-x="588" 
d="M413 98q-29 -41 -72.5 -64.5t-97.5 -23.5q-97 0 -148.5 62t-51.5 164q0 82 30.5 153t89 114.5t137.5 43.5q70 0 115.5 -36.5t64.5 -99.5l26 127h63l-112 -526q-24 -116 -90 -167.5t-167 -51.5q-100 0 -181 44l13 63q76 -52 175 -52q151 0 186 157zM304 492
q-63 0 -107 -38t-66 -97t-22 -120q0 -79 38.5 -126t110.5 -47q61 0 106.5 37.5t69 96t23.5 118.5q0 81 -41.5 128.5t-111.5 47.5z" />
    <glyph glyph-name="uni0436.aalt" horiz-adv-x="741" 
d="M348 0h-62l56 265l-320 -265h-85l338 279l-182 259h76l177 -253l100 470h62l-100 -470l285 253h83l-300 -264l215 -274h-79l-208 265z" />
    <glyph glyph-name="uni0437.aalt" horiz-adv-x="444" 
d="M-79 -168l13 61q36 -20 72.5 -31.5t84.5 -11.5q93 0 147.5 46.5t54.5 127.5q0 63 -36 102t-112 39h-62l11 54h72q47 0 88.5 19.5t67 54.5t25.5 81q0 56 -36 87t-99 31q-75 0 -155 -42l13 62q75 36 157 36q87 0 135 -46t48 -124q0 -69 -41.5 -116t-111.5 -71
q48 -20 73.5 -63.5t25.5 -104.5q0 -64 -31 -116t-91 -82.5t-142 -30.5q-49 0 -94 10.5t-77 27.5z" />
    <glyph glyph-name="uni0438.aalt" horiz-adv-x="560" 
d="M382 92q-30 -47 -74.5 -76t-112.5 -29q-146 0 -146 142q0 40 8 77l71 332h62l-70 -328q-9 -42 -9 -71q0 -51 25 -73.5t75 -22.5q79 0 131.5 54t74.5 159l60 282h62l-114 -538h-62z" />
    <glyph glyph-name="uni0439.aalt" horiz-adv-x="560" 
d="M222 755h51q-3 -36 18.5 -56t64.5 -20q42 0 70.5 20t41.5 56h51q-15 -54 -56.5 -87t-108.5 -33q-70 0 -104 34.5t-28 85.5zM382 92q-30 -47 -74.5 -76t-112.5 -29q-146 0 -146 142q0 40 8 77l71 332h62l-70 -328q-9 -42 -9 -71q0 -51 25 -73.5t75 -22.5q79 0 131.5 54
t74.5 159l60 282h62l-114 -538h-62z" />
    <glyph glyph-name="uni043A.aalt" horiz-adv-x="485" 
d="M21 0l160 755h62l-98 -460l293 243h84l-309 -257l231 -281h-77l-226 274l-58 -274h-62z" />
    <glyph glyph-name="uni043B.aalt" horiz-adv-x="494" 
d="M428 0h-66l-75 453l-261 -453h-71l318 538h60z" />
    <glyph glyph-name="uni043F.aalt" horiz-adv-x="571" 
d="M135 538h62l-20 -94q29 46 76.5 74.5t116.5 28.5q152 0 152 -144q0 -39 -8 -75l-70 -328h-62l68 320q8 37 8 71q0 54 -26 77.5t-78 23.5q-79 0 -134 -54t-77 -158l-60 -280h-62z" />
    <glyph glyph-name="uni0442.aalt" horiz-adv-x="898" 
d="M502 430q33 51 83.5 84t121.5 33q70 0 106 -36t36 -105q0 -36 -9 -78l-69 -328h-63l69 323q9 42 9 71q0 52 -24.5 75t-70.5 23q-76 0 -129.5 -54t-74.5 -158l-60 -280h-62l68 323q9 42 9 71q0 52 -24 75t-71 23q-75 0 -128.5 -54t-75.5 -158l-60 -280h-62l114 538h62
l-19 -94q28 45 74 74t110 29q129 0 140 -117z" />
    <glyph glyph-name="uni0446.aalt" horiz-adv-x="580" 
d="M437 54h68l-42 -198h-60l30 144h-70l19 92q-30 -47 -74.5 -76t-112.5 -29q-146 0 -146 142q0 40 8 77l71 332h62l-70 -328q-9 -42 -9 -71q0 -51 25 -73.5t75 -22.5q79 0 131.5 54t74.5 159l60 282h62z" />
    <glyph glyph-name="uni0448.aalt" horiz-adv-x="898" 
d="M396 104q-33 -52 -84 -84.5t-121 -32.5q-71 0 -107 36t-36 105q0 36 9 78l71 332h62l-69 -327q-9 -42 -9 -71q0 -52 24.5 -75t70.5 -23q75 0 128 54t76 158l60 284h63l-70 -327q-8 -37 -8 -71q0 -52 24 -75t71 -23q74 0 127.5 54t76.5 158l60 284h63l-114 -538h-63l19 92
q-29 -46 -75 -75.5t-110 -29.5q-66 0 -100 30.5t-39 86.5z" />
    <glyph glyph-name="uni0449.aalt" horiz-adv-x="918" 
d="M775 54h67l-41 -198h-60l30 144h-70l19 92q-29 -46 -75 -75.5t-110 -29.5q-66 0 -100 30.5t-39 86.5q-33 -52 -84 -84.5t-121 -32.5q-71 0 -107 36t-36 105q0 36 9 78l71 332h62l-69 -327q-9 -42 -9 -71q0 -52 24.5 -75t70.5 -23q75 0 128 54t76 158l60 284h63l-70 -327
q-8 -37 -8 -71q0 -52 24 -75t71 -23q74 0 127.5 54t76.5 158l60 284h63z" />
    <glyph glyph-name="uni044E.aalt" horiz-adv-x="774" 
d="M253 205q0 28 2 42h-119l-53 -247h-62l160 755h62l-96 -454h117q26 104 96 175t178 71q90 0 145 -56.5t55 -162.5q0 -80 -32 -159t-97 -130.5t-156 -51.5t-145.5 56t-54.5 162zM671 327q0 80 -38 122t-105 42q-68 0 -115 -42.5t-70.5 -108t-23.5 -133.5q0 -80 38.5 -122
t105.5 -42t114 42.5t70.5 108t23.5 133.5z" />
    <glyph glyph-name="uni044C.aalt" horiz-adv-x="496" 
d="M276 339q84 0 128.5 -38t44.5 -115q0 -88 -60 -143t-169 -55q-82 0 -127.5 33.5t-45.5 106.5q0 21 7 59l75 351h62l-42 -199h127zM116 182q-6 -27 -6 -47q0 -93 115 -93q81 0 119.5 40t38.5 101q0 57 -32.5 79t-95.5 22h-117z" />
    <glyph glyph-name="uni044A.aalt" horiz-adv-x="582" 
d="M362 339q84 0 129 -38t45 -115q0 -58 -26.5 -102.5t-78.5 -70t-124 -25.5q-81 0 -127 33.5t-46 105.5q0 29 7 60l63 297h-148l11 54h210l-42 -199h127zM202 182q-6 -25 -6 -47q0 -93 115 -93q81 0 120 40t39 101q0 57 -32.5 79t-96.5 22h-117z" />
    <glyph glyph-name="uni0431.aalt" horiz-adv-x="566" 
d="M241 501q-46 15 -69.5 43t-23.5 67q0 60 50 97.5t152 37.5q115 0 159 2t73 8l-12 -55q-27 -6 -71 -8t-155 -2q-68 0 -101.5 -22t-33.5 -59q0 -32 29 -52.5t99 -31.5q95 -14 143.5 -61.5t48.5 -139.5q0 -94 -38.5 -171.5t-106.5 -122t-151 -44.5q-91 0 -147 55.5
t-56 154.5q0 68 27.5 131t75.5 108.5t108 64.5zM321 471q-62 0 -113 -36.5t-81 -99.5t-30 -139q0 -75 38 -114t108 -39q62 0 112 35t78.5 97.5t28.5 141.5q0 73 -37 113.5t-104 40.5z" />
    <glyph glyph-name="uniF6D4" unicode="&#xf6d4;" horiz-adv-x="393" 
d="M145 755h51q-3 -36 18.5 -56t64.5 -20q42 0 70.5 20t41.5 56h51q-15 -54 -56.5 -87t-108.5 -33q-70 0 -104 34.5t-28 85.5z" />
    <glyph glyph-name="uniF6D1" unicode="&#xf6d1;" horiz-adv-x="460" 
d="M504 886q-33 -118 -161 -118q-70 0 -106 32t-31 86h55q-2 -36 21 -55t63 -19q38 0 63.5 18t39.5 56h56z" />
    <glyph glyph-name="uni20BD" unicode="&#x20bd;" horiz-adv-x="673" 
d="M424 725q123 0 191 -40.5t68 -133.5q0 -137 -93 -192.5t-254 -55.5h-117l-18 -80h276l-10 -49h-276l-37 -174h-68l37 174h-98l10 49h98l17 80h-97l9 49h98l80 373h184zM296 666l-66 -307h117q121 0 192.5 38.5t71.5 148.5q0 68 -50.5 94t-142.5 26h-122z" />
    <glyph glyph-name="uni20B4" unicode="&#x20b4;" horiz-adv-x="626" 
d="M605 589q0 -82 -83 -142h98l-11 -49h-546l11 49h360q47 23 74 58.5t27 74.5q0 45 -36 71.5t-108 26.5q-48 0 -96.5 -10.5t-89.5 -31.5l14 65q88 37 184 37t149 -39.5t53 -109.5zM70 147q0 65 55 123h-89l11 49h546l-10 -49h-379q-65 -49 -65 -113q0 -52 43 -81t126 -29
q60 0 107 15t98 43l-15 -69q-39 -21 -92 -35t-113 -14q-103 0 -163 42.5t-60 117.5z" />
    <glyph glyph-name="uni20B8" unicode="&#x20b8;" horiz-adv-x="588" 
d="M645 675h-529l11 50h529zM271 0h-68l114 536h-230l13 61h528l-12 -61h-231z" />
    <glyph glyph-name="pi" unicode="&#x3c0;" horiz-adv-x="626" 
d="M103 0h-63l103 479h-76l12 59h571l-13 -59h-77l-74 -343q-8 -38 -8 -53q0 -17 11.5 -23t43.5 -6h16l-11 -54h-31q-52 0 -73 12.5t-21 46.5q0 16 9 65l75 355h-292z" />
    <glyph glyph-name="mu" unicode="&#xb5;" horiz-adv-x="577" 
d="M552 538l-114 -538h-63l21 96q-65 -109 -163 -109q-55 0 -86 27t-41 70l-21 -98q-21 -105 -44 -161h-60q11 26 19.5 58.5t21.5 93.5l118 561h62l-64 -303q-9 -43 -9 -77q0 -57 26 -86.5t77 -29.5q74 0 124.5 55t73.5 159l59 282h63z" />
    <glyph glyph-name="mu" unicode="&#x3bc;" horiz-adv-x="577" 
d="M552 538l-114 -538h-63l21 96q-65 -109 -163 -109q-55 0 -86 27t-41 70l-21 -98q-21 -105 -44 -161h-60q11 26 19.5 58.5t21.5 93.5l118 561h62l-64 -303q-9 -43 -9 -77q0 -57 26 -86.5t77 -29.5q74 0 124.5 55t73.5 159l59 282h63z" />
    <glyph glyph-name="ellipsis" unicode="&#x2026;" horiz-adv-x="648" 
d="M565 110l-23 -109h-73l23 109h73zM333 109l-23 -109h-73l23 109h73zM102 109l-23 -109h-73l23 109h73z" />
    <glyph glyph-name="endash" unicode="&#x2013;" horiz-adv-x="507" 
d="M469 302l-12 -59h-419l12 59h419z" />
    <glyph glyph-name="emdash" unicode="&#x2014;" horiz-adv-x="747" 
d="M709 302l-12 -59h-659l12 59h659z" />
    <glyph glyph-name="guilsinglleft" unicode="&#x2039;" horiz-adv-x="311" 
d="M219 46h-64l-110 226l205 227h68l-200 -227z" />
    <glyph glyph-name="guilsinglright" unicode="&#x203a;" horiz-adv-x="311" 
d="M158 499l109 -227l-204 -226h-68l199 227l-101 226h65z" />
    <glyph glyph-name="quoteleft" unicode="&#x2018;" horiz-adv-x="186" 
d="M163 592h33l-26 -121h-75l27 125l70 129h38z" />
    <glyph glyph-name="quoteright" unicode="&#x2019;" horiz-adv-x="182" 
d="M162 604h-33l26 121h75l-27 -125l-70 -129h-39z" />
    <glyph glyph-name="quotedblleft" unicode="&#x201c;" horiz-adv-x="346" 
d="M323 592h33l-26 -121h-75l27 125l70 129h38zM163 592h33l-26 -121h-75l27 125l70 129h38z" />
    <glyph glyph-name="quotedblright" unicode="&#x201d;" horiz-adv-x="341" 
d="M162 604h-33l26 121h75l-27 -125l-70 -129h-39zM322 604h-33l26 121h75l-27 -125l-70 -129h-39z" />
    <glyph glyph-name="quotesinglbase" unicode="&#x201a;" horiz-adv-x="189" 
d="M37 -12h-33l26 121h75l-27 -125l-70 -129h-39z" />
    <glyph glyph-name="quotedblbase" unicode="&#x201e;" horiz-adv-x="349" 
d="M37 -12h-33l26 121h75l-27 -125l-70 -129h-39zM197 -12h-33l26 121h75l-27 -125l-70 -129h-39z" />
    <glyph glyph-name="bullet" unicode="&#x2022;" horiz-adv-x="412" 
d="M205 404q56 0 93.5 -36.5t37.5 -89.5q0 -56 -37.5 -93t-93.5 -37q-34 0 -62.5 17t-45.5 47t-17 66q0 34 17 63t45.5 46t62.5 17z" />
    <glyph glyph-name="dagger" unicode="&#x2020;" horiz-adv-x="403" 
d="M289 557v-234h-52v234h-131v46h131v122h52v-122h132v-46h-132z" />
    <glyph glyph-name="daggerdbl" unicode="&#x2021;" horiz-adv-x="440" 
d="M297 430v-116h-52v117h-132v46h132v80h-132v46h132v122h52v-122h132v-46h-132v-80h132v-47h-132z" />
    <glyph glyph-name="perthousand" unicode="&#x2030;" horiz-adv-x="1303" 
d="M224 310q-71 0 -107 42.5t-36 119.5q0 61 18.5 120.5t60 99.5t106.5 40q72 0 108.5 -42.5t36.5 -119.5q0 -61 -18.5 -120.5t-60.5 -99.5t-108 -40zM227 356q44 0 72 34t40.5 83.5t12.5 96.5q0 53 -21.5 84.5t-67.5 31.5q-44 0 -71 -35t-39 -84.5t-12 -95.5
q0 -52 21 -83.5t65 -31.5zM670 -7q-71 0 -107 42.5t-36 119.5q0 61 18.5 120.5t60 99.5t106.5 40q72 0 108.5 -42.5t36.5 -119.5q0 -61 -18.5 -120.5t-60.5 -99.5t-108 -40zM673 39q44 0 72 34t40.5 83.5t12.5 96.5q0 53 -21.5 84.5t-67.5 31.5q-44 0 -71 -35t-39 -84.5
t-12 -95.5q0 -52 21 -83.5t65 -31.5zM838 725l-655 -725h-71l655 725h71zM1070 -7q-71 0 -107 42.5t-36 119.5q0 61 18.5 120.5t60 99.5t106.5 40q72 0 108.5 -42.5t36.5 -119.5q0 -61 -18.5 -120.5t-60.5 -99.5t-108 -40zM1073 39q44 0 72 34t40.5 83.5t12.5 96.5
q0 53 -21.5 84.5t-67.5 31.5q-44 0 -71 -35t-39 -84.5t-12 -95.5q0 -52 21 -83.5t65 -31.5z" />
    <glyph glyph-name="uni2113" unicode="&#x2113;" horiz-adv-x="422" 
d="M458 630q0 -99 -63.5 -181.5t-183.5 -161.5l-11 -8l-29 -137q-6 -27 -6 -47q0 -28 13 -40t40 -12q47 0 100 40l20 -43q-62 -53 -134 -53q-54 0 -78.5 23.5t-24.5 70.5q0 27 8 65l18 85l-87 -58l-20 46l122 83l54 251q21 97 54.5 141t101.5 44q49 0 77.5 -29t28.5 -79z
M215 351l12 8q79 52 124 125t45 141q0 60 -48 60q-35 0 -55 -30t-34 -97z" />
    <glyph glyph-name="uni2116" unicode="&#x2116;" horiz-adv-x="1045" 
d="M752 725l-154 -725h-91l-266 654l-139 -654h-68l154 725h91l266 -654l139 654h68zM913 423q-57 0 -93.5 35t-36.5 99q0 49 18.5 90.5t54.5 66t85 24.5q58 0 95 -35t37 -100q0 -47 -19 -88.5t-55 -66.5t-86 -25zM917 471q44 0 70 38.5t26 91.5q0 41 -19.5 65t-55.5 24
q-45 0 -70 -38.5t-25 -93.5q0 -41 19 -64t55 -23zM1012 353l-12 -57h-274l13 57h273z" />
    <glyph glyph-name="uni2117" unicode="&#x2117;" horiz-adv-x="870" 
d="M455 738q103 0 188 -48t135 -134t50 -196q0 -108 -50 -193.5t-135 -132.5t-188 -47q-104 0 -189.5 47t-135 132t-49.5 194q0 110 49.5 196t135 134t189.5 48zM455 37q90 0 163 41t114.5 114.5t41.5 167.5q0 96 -41.5 170.5t-114.5 116t-163 41.5t-162.5 -41.5
t-114.5 -116t-42 -170.5q0 -94 42 -167.5t115 -114.5t162 -41zM384 316v-148h-57v398h141q75 0 118.5 -27t43.5 -98q0 -70 -43 -97.5t-115 -27.5h-88zM476 517h-92v-152h92q47 0 71.5 18t24.5 58t-24.5 58t-71.5 18z" />
    <glyph glyph-name="trademark" unicode="&#x2122;" horiz-adv-x="894" 
d="M250 677h-131v48h318v-48h-131v-351h-56v351zM667 504l104 221h83v-399h-57v336l-105 -218h-54l-105 220v-338h-56v399h83z" />
    <glyph glyph-name="lozenge" unicode="&#x25ca;" horiz-adv-x="558" 
d="M297 -69l-245 415l245 414l240 -414zM471 346l-174 299l-175 -299l175 -300z" />
    <glyph glyph-name="estimated" unicode="&#x212e;" horiz-adv-x="626" 
d="M569 151q-26 -74 -87 -119t-154 -45q-86 0 -147 37t-92 101t-31 143q0 82 33 145t93 98.5t139 35.5q81 0 139.5 -37.5t89 -100.5t31.5 -139h-410v-198q24 -24 69 -40t94 -16q70 0 121.5 35.5t75.5 99.5h36zM173 298h294v166q-23 23 -61.5 38.5t-83.5 15.5
q-46 0 -85.5 -14t-63.5 -39v-167z" />
    <glyph glyph-name="minus" unicode="&#x2212;" 
d="M68 239v60h541v-60h-541z" />
    <glyph glyph-name="lessequal" unicode="&#x2264;" 
d="M586 473l-446 -156l446 -157v-65l-529 193v56l529 194v-65zM588 0h-532v59h532v-59z" />
    <glyph glyph-name="greaterequal" unicode="&#x2265;" 
d="M73 160l446 157l-446 156v65l529 -194v-56l-529 -193v65zM604 59v-59h-533v59h533z" />
    <glyph glyph-name="notequal" unicode="&#x2260;" 
d="M609 434v-60h-173l-127 -210h300v-59h-335l-82 -135l-50 29l64 106h-137v59h173l127 210h-300v60h336l81 134l50 -29l-63 -105h136z" />
    <glyph glyph-name="approxequal" unicode="&#x2248;" 
d="M347 430q38 -17 63 -25.5t50 -8.5q34 0 56.5 18.5t26.5 53.5h61q-7 -60 -45.5 -94t-99.5 -34q-30 0 -59 9.5t-69 28.5q-38 17 -63 25.5t-50 8.5q-34 0 -56.5 -18.5t-26.5 -53.5h-61q7 60 45.5 94t99.5 34q30 0 59 -9.5t69 -28.5zM347 160q36 -17 62 -26t51 -9
q34 0 56.5 18.5t26.5 54.5h61q-7 -61 -45.5 -95t-99.5 -34q-30 0 -59 9.5t-69 28.5q-38 17 -63 25.5t-50 8.5q-34 0 -56.5 -18.5t-26.5 -53.5h-61q7 61 45.5 95t99.5 34q30 0 59 -9.5t69 -28.5z" />
    <glyph glyph-name="partialdiff" unicode="&#x2202;" horiz-adv-x="590" 
d="M293 -13q-72 0 -127.5 32t-86.5 94.5t-31 151.5q0 88 31.5 150.5t86.5 94.5t126 32q56 0 96.5 -23.5t63.5 -64.5l1 1q-18 59 -61 110t-102.5 83t-124.5 37v57q117 -14 202 -76t130 -159t45 -214q0 -151 -68 -228.5t-181 -77.5zM114 265q0 -107 48 -164.5t132 -57.5
q82 0 131.5 56t49.5 166q0 109 -50 165t-131 56q-84 0 -132 -57.5t-48 -163.5z" />
    <glyph glyph-name="product" unicode="&#x220f;" horiz-adv-x="762" 
d="M187 667v-842h-62v900h515v-900h-62v842h-391z" />
    <glyph glyph-name="radical" unicode="&#x221a;" horiz-adv-x="478" 
d="M-1 166l-26 57l127 56l165 -373l146 813h62l-167 -900h-65l-173 378z" />
    <glyph glyph-name="summation" unicode="&#x2211;" horiz-adv-x="750" 
d="M115 -175v53l291 397l-291 397v53h523v-58h-449l289 -392l-289 -392h449v-58h-523z" />
    <glyph glyph-name="integral" unicode="&#x222b;" horiz-adv-x="277" 
d="M108 503q0 120 29.5 175.5t92.5 55.5q30 0 49 -14t19 -38q0 -19 -11 -31t-29 -12q-16 0 -26 10.5t-10 25.5q0 16 7 26q-37 0 -49 -35t-12 -105l1 -69q2 -56 2 -94v-361q0 -116 -29 -170t-92 -54q-31 0 -50 14t-19 38q0 18 11 30.5t29 12.5q17 0 26.5 -10.5t9.5 -25.5
t-7 -27q37 0 48.5 35t11.5 105q0 46 -1 71l-1 92v355z" />
    <glyph glyph-name="infinity" unicode="&#x221e;" horiz-adv-x="842" 
d="M418 205q-48 -56 -95.5 -85t-103.5 -29q-49 0 -87.5 20.5t-60 56.5t-21.5 82q0 69 48 113.5t125 44.5q53 0 100.5 -27.5t94.5 -83.5q48 58 94 84.5t102 26.5q50 0 89 -20.5t60.5 -56t21.5 -81.5q0 -70 -46.5 -114.5t-121.5 -44.5q-57 0 -105 29t-94 85zM381 250
q-43 53 -79.5 77.5t-78.5 24.5q-48 0 -79 -28t-31 -74q0 -44 30.5 -73.5t76.5 -29.5q45 0 81.5 24.5t79.5 78.5zM723 250q0 44 -32 73t-82 29q-40 0 -76.5 -25.5t-77.5 -76.5q42 -52 79.5 -77.5t80.5 -25.5q46 0 77 29t31 74z" />
    <glyph glyph-name="uni0394" unicode="&#x394;" horiz-adv-x="747" 
d="M674 0h-689l344 732zM82 59h495l-248 533z" />
    <glyph glyph-name="uni0394" unicode="&#x2206;" horiz-adv-x="747" 
d="M674 0h-689l344 732zM82 59h495l-248 533z" />
    <glyph glyph-name="uni03A9" unicode="&#x3a9;" horiz-adv-x="812" 
d="M258 145q-73 29 -121.5 98t-48.5 172q0 97 48.5 170.5t130 113t179.5 39.5q93 0 170 -36.5t122 -103.5t45 -156q0 -76 -32.5 -141t-89.5 -109t-128 -60l-16 -73h190l-11 -59h-255l36 178q72 8 126.5 45.5t84 94.5t29.5 124q0 77 -38 132t-100 83t-134 28q-86 0 -152 -35
t-102.5 -96t-36.5 -137q0 -87 46.5 -151t129.5 -83l-38 -183h-254l13 59h189z" />
    <glyph glyph-name="uni03A9" unicode="&#x2126;" horiz-adv-x="812" 
d="M258 145q-73 29 -121.5 98t-48.5 172q0 97 48.5 170.5t130 113t179.5 39.5q93 0 170 -36.5t122 -103.5t45 -156q0 -76 -32.5 -141t-89.5 -109t-128 -60l-16 -73h190l-11 -59h-255l36 178q72 8 126.5 45.5t84 94.5t29.5 124q0 77 -38 132t-100 83t-134 28q-86 0 -152 -35
t-102.5 -96t-36.5 -137q0 -87 46.5 -151t129.5 -83l-38 -183h-254l13 59h189z" />
    <glyph glyph-name="Euro" unicode="&#x20ac;" horiz-adv-x="734" 
d="M245 415q-11 -43 -11 -104h297l-36 -49h-257q17 -101 87 -160t180 -59q78 0 150 28l-13 -61q-71 -23 -147 -23q-89 0 -158.5 34.5t-112 96.5t-53.5 144h-143l36 49h103q0 45 11 104h-119l36 48h97q28 81 84 143t135.5 97t175.5 35q56 0 108.5 -12.5t88.5 -32.5l-13 -60
q-35 21 -83 34.5t-104 13.5q-116 0 -201.5 -58t-124.5 -160h398l-35 -48h-376z" />
    <glyph glyph-name="uniFB01" unicode="&#xfb01;" horiz-adv-x="512" 
d="M172 621q15 70 51 103t99 33q37 0 59 -7l-11 -53q-28 7 -49 7q-38 0 -57.5 -17t-29.5 -63l-18 -86h116l-11 -51h-115l-104 -487h-63l104 487h-77l11 51h77zM316 0l114 538h62l-114 -538h-62zM452 653l21 102h62l-21 -102h-62z" />
    <glyph glyph-name="uniFB02" unicode="&#xfb02;" horiz-adv-x="511" 
d="M172 621q15 70 51 103t99 33q37 0 59 -7l-11 -53q-28 7 -49 7q-38 0 -57.5 -17t-29.5 -63l-18 -86h116l-11 -51h-115l-104 -487h-63l104 487h-77l11 51h77zM474 755h62l-160 -755h-62z" />
    <glyph glyph-name="glyph531" horiz-adv-x="217" 
d="M157 653l21 102h62l-21 -102h-62z" />
    <glyph glyph-name="breve" unicode="&#x2d8;" horiz-adv-x="342" 
d="M420 755q-37 -120 -169 -120q-64 0 -97 28t-33 74q0 12 1 18h51q-1 -4 -1 -12q0 -31 22 -47t64 -16q45 0 71.5 18.5t39.5 56.5h51z" />
    <glyph glyph-name="caron" unicode="&#x2c7;" horiz-adv-x="374" 
d="M295 639h-61l-109 116h65l79 -72l113 72h73z" />
    <glyph glyph-name="circumflex" unicode="&#x2c6;" horiz-adv-x="374" 
d="M240 755h60l109 -116h-64l-81 72l-112 -72h-72z" />
    <glyph glyph-name="dotaccent" unicode="&#x2d9;" horiz-adv-x="106" 
d="M93 658l23 97h62l-22 -97h-63z" />
    <glyph glyph-name="glyph536" horiz-adv-x="112" 
d="M-22 -175l20 97h62l-20 -97h-62z" />
    <glyph glyph-name="hungarumlaut" unicode="&#x2dd;" horiz-adv-x="394" 
d="M196 755h87l-151 -116h-59zM361 755h86l-151 -116h-59z" />
    <glyph glyph-name="ogonek" unicode="&#x2db;" horiz-adv-x="211" 
d="M192 0q-49 -29 -78.5 -53.5t-29.5 -49.5q0 -38 49 -38q16 0 40 6l-10 -44q-25 -9 -56 -9q-36 0 -60.5 18t-24.5 51q0 67 104 119h66z" />
    <glyph glyph-name="ring" unicode="&#x2da;" horiz-adv-x="221" 
d="M277 708q0 -36 -25.5 -60t-63.5 -24q-37 0 -62.5 24t-25.5 60t25.5 59.5t62.5 23.5t63 -23.5t26 -59.5zM138 708q0 -21 15.5 -35.5t34.5 -14.5q21 0 35.5 14.5t14.5 35.5t-14.5 35t-35.5 14q-20 0 -35 -14t-15 -35z" />
    <glyph glyph-name="tilde" unicode="&#x2dc;" horiz-adv-x="389" 
d="M406 751h51q-17 -50 -46.5 -76t-67.5 -26q-21 0 -37.5 7t-40.5 22q-18 12 -31.5 18.5t-28.5 6.5q-43 0 -63 -53h-52q16 50 46.5 76t68.5 26q22 0 40.5 -8t39.5 -22q19 -12 31 -17.5t26 -5.5q43 0 64 52z" />
    <glyph glyph-name="uni032C" unicode="&#x32c;" horiz-adv-x="0" 
d="M-251 -138h-51l-108 138h63l80 -89l115 89h70z" />
    <glyph glyph-name="glyph542" horiz-adv-x="142" 
d="M87 755h69l-94 -170h-40z" />
    <glyph glyph-name="uni0326" unicode="&#x326;" horiz-adv-x="0" 
d="M-189 -123h-25l18 80h63l-18 -83l-47 -80h-36z" />
    <glyph glyph-name="zero.zero" horiz-adv-x="666" 
d="M320 -13q-126 0 -189.5 76.5t-63.5 212.5q0 109 31.5 214.5t103 176.5t184.5 71q126 0 190 -76t64 -212q0 -109 -32 -215t-104 -177t-184 -71zM134 299l439 171q-6 99 -52 157t-136 58q-86 0 -141 -59t-81 -146.5t-29 -180.5zM572 415l-438 -169q7 -95 53 -150t133 -55
q84 0 139 57t82 142.5t31 174.5z" />
    <glyph glyph-name="one.oldstyle" horiz-adv-x="479" 
d="M249 59h180l-13 -59h-441l13 59h198l96 449h-177l9 44q67 1 105 8.5t64 28.5t49 63h44z" />
    <glyph glyph-name="two.oldstyle" horiz-adv-x="507" 
d="M502 499q0 -72 -50.5 -141.5t-143 -140t-237.5 -158.5h356l-12 -59h-447l12 59q164 105 257.5 175t144.5 133t51 125q0 55 -41 85.5t-101 30.5q-73 0 -165 -40l13 63q30 14 73 23.5t85 9.5q91 0 148 -44.5t57 -120.5z" />
    <glyph glyph-name="three.oldstyle" horiz-adv-x="509" 
d="M-6 45l13 64q83 -65 188 -65q79 0 130.5 41.5t51.5 114.5q0 58 -46 87.5t-126 29.5h-11l11 51h9q102 0 157.5 33.5t55.5 99.5q0 49 -40 78t-103 29q-82 0 -172 -45l13 63q73 38 169 38q88 0 144 -41.5t56 -110.5q0 -66 -45.5 -111t-112.5 -61q51 -15 79 -51.5t28 -86.5
q0 -66 -34 -114.5t-92.5 -74.5t-128.5 -26q-54 0 -108.5 17t-85.5 41z" />
    <glyph glyph-name="four.oldstyle" horiz-adv-x="590" 
d="M431 231h132l-13 -60h-132l-37 -171h-63l38 171h-360l12 57l453 424h63zM368 231l74 329l-357 -329h283z" />
    <glyph glyph-name="five.oldstyle" horiz-adv-x="518" 
d="M173 652h355l-13 -60h-300l-58 -189q37 10 80 10q61 0 112.5 -21t82.5 -63t31 -101q0 -74 -35.5 -128.5t-96.5 -83.5t-136 -29q-60 0 -112 18.5t-85 44.5l14 64q40 -33 85 -51.5t102 -18.5q55 0 100 20.5t71 59.5t26 93q0 71 -52 106t-131 35q-74 0 -136 -25z" />
    <glyph glyph-name="six.oldstyle" horiz-adv-x="580" 
d="M320 433q62 0 110.5 -25t76 -71t27.5 -105q0 -69 -32 -125t-90.5 -88t-133.5 -32q-110 0 -167.5 65t-57.5 189q0 119 45.5 215.5t125.5 152t179 55.5q83 0 159 -36l-13 -62q-72 42 -154 42q-62 0 -118.5 -30t-97 -92.5t-53.5 -153.5q27 45 78 73t116 28zM306 378
q-53 0 -96 -23.5t-67 -64.5t-24 -91q0 -67 43 -112t118 -45q52 0 94.5 23.5t67 65t24.5 94.5q0 68 -43 110.5t-117 42.5z" />
    <glyph glyph-name="seven.oldstyle" horiz-adv-x="514" 
d="M91 592l13 60h471l-12 -59q-180 -110 -293.5 -252t-140.5 -341h-74q29 199 143 342t290 250h-397z" />
    <glyph glyph-name="eight.oldstyle" horiz-adv-x="593" 
d="M530 192q0 -66 -35.5 -112t-93.5 -69t-126 -23q-64 0 -118.5 20.5t-87.5 62t-33 101.5q0 70 43.5 117.5t115.5 65.5q-42 21 -65.5 57t-23.5 78q0 57 33.5 96.5t86 58.5t110.5 19q57 0 107.5 -17t82.5 -53t32 -91q0 -56 -38 -100t-97 -61q50 -22 78.5 -61t28.5 -89z
M328 370q69 0 117 33.5t48 90.5q0 60 -48 87.5t-112 27.5q-72 0 -118.5 -32.5t-46.5 -87.5q0 -57 45.5 -88t114.5 -31zM279 43q84 0 135 40t51 108q0 61 -50.5 95.5t-129.5 34.5q-82 0 -133 -40t-51 -106q0 -62 50.5 -97t127.5 -35z" />
    <glyph glyph-name="nine.oldstyle" horiz-adv-x="581" 
d="M285 218q-62 0 -110.5 25t-76 71t-27.5 105q0 69 32 125t90.5 88t133.5 32q110 0 167.5 -65t57.5 -189q0 -119 -45.5 -215.5t-125.5 -152t-179 -55.5q-83 0 -159 36l13 62q72 -42 154 -42q62 0 118.5 30t97 92.5t53.5 153.5q-27 -45 -78 -73t-116 -28zM299 273
q53 0 96 23.5t67 64.5t24 91q0 67 -43 112t-118 45q-52 0 -94.5 -23.5t-67 -65t-24.5 -94.5q0 -68 43 -110.5t117 -42.5z" />
    <glyph glyph-name="zero.oldstyle" horiz-adv-x="632" 
d="M296 -12q-119 0 -178.5 68t-59.5 191q0 98 30 193.5t97.5 159.5t173.5 64q119 0 179.5 -68t60.5 -191q0 -98 -30.5 -193.5t-98.5 -159.5t-174 -64zM297 43q83 0 136 56.5t77 139.5t24 164q0 95 -43 150.5t-133 55.5q-84 0 -136.5 -57t-75.5 -139.5t-23 -163.5
q0 -94 42.5 -150t131.5 -56z" />
    <glyph glyph-name="zero.oldstyle.zero" horiz-adv-x="632" 
d="M296 -12q-119 0 -178.5 68t-59.5 191q0 98 30 193.5t97.5 159.5t173.5 64q119 0 179.5 -68t60.5 -191q0 -98 -30.5 -193.5t-98.5 -159.5t-174 -64zM124 268l408 165q-6 81 -49.5 128.5t-124.5 47.5q-79 0 -131 -52t-76 -129.5t-27 -159.5zM532 376l-407 -164
q7 -78 50 -123.5t122 -45.5q78 0 130 50.5t77 126.5t28 156z" />
    <glyph glyph-name="one.tnum" 
d="M347 59h180l-12 -59h-441l12 59h199l110 518h-178l11 44q66 1 104 8.5t64 28.5t48 63h44z" />
    <glyph glyph-name="two.tnum" 
d="M610 559q0 -81 -53 -159t-154.5 -159.5t-262.5 -181.5h394l-12 -59h-485l11 58q179 113 285.5 196.5t157.5 154.5t51 140q0 66 -45.5 99.5t-116.5 33.5q-85 0 -177 -45l13 64q33 15 79 26t91 11q98 0 161 -47t63 -132z" />
    <glyph glyph-name="three.tnum" 
d="M292 353h-12l12 56h34q92 0 151.5 39t59.5 115q0 56 -48 87.5t-121 31.5q-86 0 -179 -45l14 64q35 16 81 26.5t95 10.5q99 0 163 -43t64 -122q0 -76 -50 -130t-125 -70q56 -18 87.5 -60.5t31.5 -95.5q0 -70 -35 -122t-98 -80t-146 -28q-64 0 -120.5 17.5t-93.5 45.5
l13 64q88 -71 204 -71q91 0 150.5 42.5t59.5 123.5q0 64 -51 104t-141 40z" />
    <glyph glyph-name="four.tnum" 
d="M486 250h141l-12 -59h-141l-41 -191h-62l40 191h-383l13 57l484 477h62zM424 250l82 384l-388 -384h306z" />
    <glyph glyph-name="five.tnum" 
d="M255 725h394l-13 -59h-339l-68 -219q48 13 101 13q67 0 122 -22.5t87 -67t32 -109.5q0 -81 -41.5 -143t-111.5 -96.5t-152 -34.5q-63 0 -116.5 18.5t-89.5 45.5l13 65q45 -35 91 -54t105 -19q63 0 116.5 25.5t85.5 73t32 111.5q0 75 -53.5 113.5t-137.5 38.5
q-81 0 -165 -32z" />
    <glyph glyph-name="six.tnum" 
d="M95 261q0 128 46 237.5t130.5 174.5t194.5 65q46 0 90.5 -12.5t82.5 -34.5l-13 -63q-35 24 -79 38.5t-87 14.5q-106 0 -186 -79t-106 -239q29 54 84.5 86.5t125.5 32.5q66 0 117 -28.5t79 -79.5t28 -116q0 -77 -34 -138.5t-95 -97t-139 -35.5q-115 0 -177 72.5t-62 201.5
zM363 426q-58 0 -104 -27t-72 -74t-26 -104q0 -50 20.5 -91t59.5 -65t93 -24q56 0 102 27t72.5 75t26.5 108q0 78 -46.5 126.5t-125.5 48.5z" />
    <glyph glyph-name="seven.tnum" 
d="M174 666l12 59h497l-12 -58q-408 -255 -463 -667h-74q32 221 152.5 385.5t305.5 280.5h-418z" />
    <glyph glyph-name="eight.tnum" 
d="M592 214q0 -74 -37.5 -125t-99 -76.5t-133.5 -25.5q-68 0 -126 22.5t-93 69t-35 113.5q0 77 47 130.5t125 72.5q-46 23 -71 63t-25 87q0 64 35 107.5t90 64.5t116 21t114.5 -18t87.5 -57.5t34 -100.5q0 -64 -40.5 -113t-104.5 -68q54 -24 85 -67t31 -100zM378 409
q49 0 89.5 17.5t65 49.5t24.5 76q0 69 -52.5 101t-120.5 32q-78 0 -128 -38t-50 -103q0 -66 49 -100.5t123 -34.5zM326 41q90 0 145 46.5t55 124.5q0 70 -53.5 110t-139.5 40q-58 0 -103 -21t-70.5 -59.5t-25.5 -88.5q0 -71 54.5 -111.5t137.5 -40.5z" />
    <glyph glyph-name="nine.tnum" 
d="M623 464q0 -128 -46 -237.5t-130.5 -174.5t-194.5 -65q-46 0 -90.5 12.5t-82.5 34.5l13 63q35 -24 79 -38.5t87 -14.5q106 0 186 79t106 239q-29 -54 -84.5 -86.5t-125.5 -32.5q-66 0 -117 28.5t-79 79.5t-28 116q0 77 34 138.5t95 97t139 35.5q115 0 177 -72.5
t62 -201.5zM355 299q58 0 104 27t72 74t26 104q0 50 -20.5 91t-59.5 65t-93 24q-56 0 -102 -27t-72.5 -75t-26.5 -108q0 -78 46.5 -126.5t125.5 -48.5z" />
    <glyph glyph-name="zero.tnum" 
d="M326 -13q-126 0 -189.5 76.5t-63.5 212.5q0 109 31.5 214.5t103 176.5t184.5 71q126 0 190 -76t64 -212q0 -109 -32 -215t-104 -177t-184 -71zM326 41q89 0 146 64t82.5 157.5t25.5 184.5q0 108 -46.5 173t-142.5 65q-90 0 -146.5 -64t-81 -157.5t-24.5 -185.5
q0 -107 46 -172t141 -65z" />
    <glyph glyph-name="zero.tnum.zero" 
d="M326 -13q-126 0 -189.5 76.5t-63.5 212.5q0 109 31.5 214.5t103 176.5t184.5 71q126 0 190 -76t64 -212q0 -109 -32 -215t-104 -177t-184 -71zM140 299l439 171q-6 99 -52 157t-136 58q-86 0 -141 -59t-81 -146.5t-29 -180.5zM578 415l-438 -169q7 -95 53 -150t133 -55
q84 0 139 57t82 142.5t31 174.5z" />
    <glyph glyph-name="one.case" horiz-adv-x="480" 
d="M250 59h180l-12 -59h-446l12 59h199l111 522h-178l11 44q66 1 104 8.5t64 28.5t48 63h48z" />
    <glyph glyph-name="two.case" horiz-adv-x="540" 
d="M542 556q0 -81 -52 -158.5t-153 -157.5t-261 -179h389l-13 -61h-485l12 60q178 113 284 196t156.5 153.5t50.5 139.5q0 64 -44 96.5t-113 32.5q-88 0 -180 -47l14 68q34 16 80 27.5t91 11.5q99 0 161.5 -48t62.5 -134z" />
    <glyph glyph-name="three.case" horiz-adv-x="553" 
d="M228 352h-12l11 58h29q99 0 158.5 38.5t59.5 114.5q0 55 -47.5 85t-120.5 30q-96 0 -182 -44l14 67q35 17 81 27t95 10q101 0 166 -44t65 -123q0 -75 -49.5 -128t-125.5 -69q56 -18 88 -61t32 -96q0 -71 -36.5 -123t-101 -79.5t-147.5 -27.5q-64 0 -120.5 17.5
t-93.5 45.5l14 68q88 -71 203 -71q91 0 151 41t60 120q0 41 -23.5 74t-67 51.5t-100.5 18.5z" />
    <glyph glyph-name="four.case" horiz-adv-x="624" 
d="M464 259h139l-13 -61h-139l-42 -198h-63l43 198h-388l14 59l485 468h63zM92 259h310l79 374z" />
    <glyph glyph-name="five.case" horiz-adv-x="560" 
d="M193 725h394l-13 -61h-337l-67 -214q50 11 94 11q70 0 126.5 -23.5t90 -69t33.5 -109.5q0 -81 -40 -143t-108.5 -95.5t-151.5 -33.5q-67 0 -123 19.5t-93 48.5l15 70q43 -35 93 -56t114 -21q60 0 111 24.5t81 70.5t30 107q0 76 -56 114t-142 38q-79 0 -157 -28z" />
    <glyph glyph-name="six.case" horiz-adv-x="611" 
d="M343 482q67 0 118 -28.5t79 -79.5t28 -116q0 -77 -33.5 -138.5t-94.5 -97t-141 -35.5q-115 0 -176.5 71.5t-61.5 202.5q0 128 47 237.5t132.5 174.5t196.5 65q49 0 94 -10.5t80 -29.5l-17 -67q-72 47 -169 47q-65 0 -124 -34t-103 -105t-62 -176q30 54 83.5 86.5
t123.5 32.5zM328 421q-56 0 -100.5 -26.5t-69.5 -72t-25 -101.5q0 -75 44 -124.5t123 -49.5q55 0 100 26t70.5 72.5t25.5 105.5q0 76 -45 123t-123 47z" />
    <glyph glyph-name="seven.case" horiz-adv-x="527" 
d="M95 664l14 61h501l-14 -62q-189 -122 -310 -282.5t-151 -380.5h-79q57 405 460 664h-421z" />
    <glyph glyph-name="eight.case" horiz-adv-x="627" 
d="M568 214q0 -72 -37.5 -123.5t-99.5 -77.5t-134 -26q-68 0 -126.5 23.5t-93.5 70t-35 113.5q0 76 47 130t123 74q-45 21 -69.5 62t-24.5 87q0 63 35 106t90.5 64t116.5 21t115 -19t88 -59t34 -100q0 -62 -40.5 -111t-102.5 -68q52 -23 83 -67t31 -100zM353 413
q73 0 123.5 38t50.5 100q0 64 -51 95.5t-117 31.5q-76 0 -125 -36.5t-49 -97.5t48 -96t120 -35zM301 48q58 0 102.5 21t69 58t24.5 86q0 68 -53.5 106t-136.5 38q-56 0 -100 -20t-69 -56.5t-25 -84.5q0 -69 54 -108.5t134 -39.5z" />
    <glyph glyph-name="nine.case" horiz-adv-x="611" 
d="M308 243q-67 0 -118 28.5t-79 79.5t-28 116q0 77 33.5 138.5t94.5 97t141 35.5q115 0 176.5 -71.5t61.5 -202.5q0 -128 -47 -237.5t-132.5 -174.5t-196.5 -65q-49 0 -94 10.5t-80 29.5l17 67q72 -47 169 -47q65 0 124 34t103 105t62 176q-30 -54 -83.5 -86.5
t-123.5 -32.5zM323 304q56 0 100.5 26.5t69.5 72t25 101.5q0 75 -44 124.5t-123 49.5q-55 0 -100 -26t-70.5 -72.5t-25.5 -105.5q0 -76 45 -123t123 -47z" />
    <glyph glyph-name="zero.case" horiz-adv-x="668" 
d="M318 -13q-124 0 -188 77.5t-64 211.5q0 108 32 214t104.5 177t185.5 71q125 0 189.5 -77t64.5 -212q0 -107 -32.5 -213t-105.5 -177.5t-186 -71.5zM320 48q88 0 144.5 63.5t81.5 155.5t25 181q0 104 -46 167t-139 63q-88 0 -143.5 -63.5t-80 -155.5t-24.5 -181
q0 -104 45 -167t137 -63z" />
    <glyph glyph-name="zero.case.zero" horiz-adv-x="668" 
d="M318 -13q-124 0 -188 77.5t-64 211.5q0 108 32 214t104.5 177t185.5 71q125 0 189.5 -77t64.5 -212q0 -107 -32.5 -213t-105.5 -177.5t-186 -71.5zM140 302l430 168q-5 95 -50.5 151.5t-133.5 56.5q-84 0 -138 -57.5t-79.5 -143t-28.5 -175.5zM569 413l-430 -167
q7 -91 52 -144.5t129 -53.5q82 0 136.5 55.5t81.5 139t31 170.5z" />
    <glyph glyph-name="uni21B2" unicode="&#x21b2;" horiz-adv-x="797" 
d="M344 -42l-311 311l311 311l41 -40l-241 -240h543v425h61v-487h-604l241 -239z" />
    <glyph glyph-name="uni21B3" unicode="&#x21b3;" horiz-adv-x="869" 
d="M525 580l311 -311l-311 -311l-41 41l241 239h-592v487h61v-425h531l-241 240z" />
    <glyph glyph-name="uni21B0" unicode="&#x21b0;" horiz-adv-x="870" 
d="M342 -42l-311 311l311 311l41 -41l-241 -239h604v-475h-61v413h-543l241 -240z" />
    <glyph glyph-name="uni21B1" unicode="&#x21b1;" horiz-adv-x="775" 
d="M432 580l311 -311l-311 -311l-41 40l241 240h-527v-413h-61v475h588l-241 239z" />
    <glyph glyph-name="arrowleft" unicode="&#x2190;" horiz-adv-x="809" 
d="M342 -42l-311 311l311 311l41 -41l-241 -239h630v-62h-630l241 -240z" />
    <glyph glyph-name="arrowup" unicode="&#x2191;" horiz-adv-x="680" 
d="M64 430l311 311l311 -311l-41 -41l-240 241v-630h-61v630l-240 -241z" />
    <glyph glyph-name="arrowright" unicode="&#x2192;" horiz-adv-x="811" 
d="M469 580l311 -311l-311 -311l-41 41l240 239h-629v62h629l-240 240z" />
    <glyph glyph-name="arrowdown" unicode="&#x2193;" horiz-adv-x="682" 
d="M658 295l-311 -311l-311 311l40 41l240 -241v630h61v-630l241 241z" />
    <glyph glyph-name="uni2196" unicode="&#x2196;" horiz-adv-x="711" 
d="M92 98v440h440v-57h-340l445 -445l-43 -44l-446 445v-339h-56z" />
    <glyph glyph-name="uni2197" unicode="&#x2197;" horiz-adv-x="612" 
d="M96 538h440v-440h-57v339l-445 -445l-43 44l445 446h-340v56z" />
    <glyph glyph-name="uni2198" unicode="&#x2198;" horiz-adv-x="711" 
d="M619 440v-440h-440v57h339l-445 445l44 44l446 -445v339h56z" />
    <glyph glyph-name="uni2199" unicode="&#x2199;" horiz-adv-x="612" 
d="M516 0h-440v440h57v-339l445 445l44 -44l-445 -446h339v-56z" />
    <glyph glyph-name="uni219E" unicode="&#x219e;" horiz-adv-x="811" 
d="M342 -42l-311 311l311 311l41 -41l-240 -239h200l280 280l41 -40l-241 -240h349v-62h-349l241 -239l-41 -41l-280 280h-200l240 -240z" />
    <glyph glyph-name="uni219F" unicode="&#x219f;" horiz-adv-x="746" 
d="M66 430l311 311l311 -311l-40 -41l-240 241v-200l281 -281l-41 -41l-240 241v-349h-61v349l-240 -241l-41 41l281 281v200l-241 -241z" />
    <glyph glyph-name="uni21A0" unicode="&#x21a0;" horiz-adv-x="813" 
d="M470 580l311 -311l-311 -311l-41 41l241 239h-200l-280 -280l-41 40l241 240h-350v62h350l-241 239l41 41l280 -280h200l-241 240z" />
    <glyph glyph-name="uni21A1" unicode="&#x21a1;" horiz-adv-x="747" 
d="M720 295l-311 -311l-311 311l40 41l240 -241v200l-281 281l41 41l240 -241v349h62v-349l239 241l41 -41l-280 -281v-200l240 241z" />
    <glyph glyph-name="uni21A2" unicode="&#x21a2;" horiz-adv-x="839" 
d="M339 -42l-311 311l311 311l41 -40l-240 -240h300l280 280l41 -40l-272 -272l272 -269l-41 -41l-280 280h-300l240 -239z" />
    <glyph glyph-name="uni21A3" unicode="&#x21a3;" horiz-adv-x="841" 
d="M502 580l311 -311l-311 -311l-42 41l241 239h-300l-280 -280l-41 41l271 269l-271 272l41 40l280 -280h300l-241 240z" />
    <glyph glyph-name="uni21A4" unicode="&#x21a4;" horiz-adv-x="861" 
d="M346 -42l-311 311l311 311l41 -41l-240 -239h551v238h62v-538h-62v238h-551l240 -240z" />
    <glyph glyph-name="uni21A5" unicode="&#x21a5;" horiz-adv-x="718" 
d="M57 430l311 311l311 -311l-40 -41l-240 241v-569h238v-61h-538v61h239v569l-241 -241z" />
    <glyph glyph-name="uni21A6" unicode="&#x21a6;" horiz-adv-x="861" 
d="M514 580l311 -311l-311 -311l-41 41l241 239h-552v-238h-61v538h61v-238h552l-241 240z" />
    <glyph glyph-name="uni21A7" unicode="&#x21a7;" horiz-adv-x="717" 
d="M699 294l-311 -311l-311 311l41 42l239 -241v569h-238v61h538v-61h-238v-569l240 241z" />
    <glyph glyph-name="filledbox" unicode="&#x25a0;" horiz-adv-x="719" 
d="M629 0h-538v538h538v-538z" />
    <glyph glyph-name="H22073" unicode="&#x25a1;" horiz-adv-x="719" 
d="M629 0h-538v538h538v-538zM567 477h-415v-416h415v416z" />
    <glyph glyph-name="H18533" unicode="&#x25cf;" horiz-adv-x="677" 
d="M339 -13q-80 0 -144.5 38t-101.5 102.5t-37 140.5q0 77 37 141.5t101.5 102.5t144.5 38t144.5 -38t101.5 -102.5t37 -141.5q0 -76 -37 -140.5t-101.5 -102.5t-144.5 -38z" />
    <glyph glyph-name="onethird" unicode="&#x2153;" horiz-adv-x="751" 
d="M178 317h-59l66 312h-92l9 41q52 1 76 11.5t43 43.5h43zM702 725l-655 -725h-71l655 725h71zM622 120q0 31 -27 50.5t-72 19.5h-11l9 47h10q121 0 121 69q0 27 -21 42.5t-58 15.5q-61 0 -112 -30l15 57q45 25 104 25q58 0 95.5 -27.5t37.5 -73.5q0 -42 -28 -67.5
t-69 -33.5q29 -10 48 -35t19 -56q0 -56 -45 -92t-116 -36q-35 0 -71 9.5t-59 22.5l11 57q26 -17 58 -27.5t62 -10.5q43 0 71 20.5t28 53.5z" />
    <glyph glyph-name="twothirds" unicode="&#x2154;" horiz-adv-x="862" 
d="M374 627q0 -44 -27.5 -82.5t-77.5 -76.5t-142 -99h195l-11 -52h-276l10 51q101 66 152.5 103.5t83 73.5t31.5 71q0 32 -22.5 48.5t-59.5 16.5q-49 0 -106 -30l13 53q23 13 52.5 20.5t57.5 7.5q55 0 91 -28.5t36 -76.5zM813 725l-655 -725h-71l655 725h71zM733 120
q0 31 -27 50.5t-72 19.5h-11l9 47h10q121 0 121 69q0 27 -21 42.5t-58 15.5q-61 0 -112 -30l15 57q45 25 104 25q58 0 95.5 -27.5t37.5 -73.5q0 -42 -28 -67.5t-69 -33.5q29 -10 48 -35t19 -56q0 -56 -45 -92t-116 -36q-35 0 -71 9.5t-59 22.5l11 57q26 -17 58 -27.5
t62 -10.5q43 0 71 20.5t28 53.5z" />
    <glyph glyph-name="uni2155" unicode="&#x2155;" horiz-adv-x="741" 
d="M178 317h-59l66 312h-92l9 41q52 1 76 11.5t43 43.5h43zM702 725l-655 -725h-71l655 725h71zM496 409h223l-11 -52h-178l-32 -100q25 5 45 5q58 0 98 -30.5t40 -85.5q0 -45 -23 -79t-62.5 -52.5t-86.5 -18.5q-35 0 -68 9.5t-58 25.5l11 56q24 -19 55 -29.5t60 -10.5
q48 0 80 24.5t32 63.5q0 37 -32 57.5t-81 20.5q-41 0 -80 -13z" />
    <glyph glyph-name="uni2159" unicode="&#x2159;" horiz-adv-x="757" 
d="M178 317h-59l66 312h-92l9 41q52 1 76 11.5t43 43.5h43zM702 725l-655 -725h-71l655 725h71zM570 274q55 0 92 -35t37 -93q0 -66 -44 -108t-113 -42q-71 0 -107 43.5t-36 117.5q0 68 27 127.5t77.5 95.5t116.5 36q52 0 99 -21l-13 -55q-40 24 -90 24q-53 0 -94.5 -36.5
t-58.5 -108.5q21 28 46.5 41.5t60.5 13.5zM556 227q-44 0 -70.5 -28t-26.5 -72q0 -35 22 -60.5t61 -25.5q42 0 69 29t27 73q0 38 -21 61t-61 23z" />
    <glyph glyph-name="oneeighth" unicode="&#x215b;" horiz-adv-x="779" 
d="M178 317h-59l66 312h-92l9 41q52 1 76 11.5t43 43.5h43zM702 725l-655 -725h-71l655 725h71zM714 123q0 -62 -46.5 -95.5t-111.5 -33.5q-63 0 -106 29.5t-43 88.5q0 41 23.5 70t62.5 43q-20 13 -31.5 34.5t-11.5 46.5q0 54 42.5 82t99.5 28q56 0 97 -25.5t41 -75.5
q0 -34 -20 -61.5t-51 -39.5q55 -33 55 -91zM588 237q34 0 58 19t24 52q0 30 -23 46t-57 16q-36 0 -59.5 -18t-23.5 -49q0 -32 22.5 -49t58.5 -17zM559 40q42 0 68.5 22.5t26.5 60.5q0 34 -24.5 53.5t-66.5 19.5q-41 0 -68 -22.5t-27 -59.5q0 -34 24.5 -54t66.5 -20z" />
    <glyph glyph-name="uni2156" unicode="&#x2156;" horiz-adv-x="852" 
d="M374 627q0 -44 -27.5 -82.5t-77.5 -76.5t-142 -99h195l-11 -52h-276l10 51q101 66 152.5 103.5t83 73.5t31.5 71q0 32 -22.5 48.5t-59.5 16.5q-49 0 -106 -30l13 53q23 13 52.5 20.5t57.5 7.5q55 0 91 -28.5t36 -76.5zM813 725l-655 -725h-71l655 725h71zM607 409h223
l-11 -52h-178l-32 -100q25 5 45 5q58 0 98 -30.5t40 -85.5q0 -45 -23 -79t-62.5 -52.5t-86.5 -18.5q-35 0 -68 9.5t-58 25.5l11 56q24 -19 55 -29.5t60 -10.5q48 0 80 24.5t32 63.5q0 37 -32 57.5t-81 20.5q-41 0 -80 -13z" />
    <glyph glyph-name="uni2157" unicode="&#x2157;" horiz-adv-x="846" 
d="M279 436q0 31 -27 50.5t-72 19.5h-11l9 47h10q121 0 121 69q0 27 -21 42.5t-58 15.5q-61 0 -112 -30l15 57q45 25 104 25q58 0 95.5 -27.5t37.5 -73.5q0 -42 -28 -67.5t-69 -33.5q29 -10 48 -35t19 -56q0 -56 -45 -92t-116 -36q-35 0 -71 9.5t-59 22.5l11 57
q26 -17 58 -27.5t62 -10.5q43 0 71 20.5t28 53.5zM807 725l-655 -725h-71l655 725h71zM601 409h223l-11 -52h-178l-32 -100q25 5 45 5q58 0 98 -30.5t40 -85.5q0 -45 -23 -79t-62.5 -52.5t-86.5 -18.5q-35 0 -68 9.5t-58 25.5l11 56q24 -19 55 -29.5t60 -10.5q48 0 80 24.5
t32 63.5q0 37 -32 57.5t-81 20.5q-41 0 -80 -13z" />
    <glyph glyph-name="threeeighths" unicode="&#x215c;" horiz-adv-x="884" 
d="M279 436q0 31 -27 50.5t-72 19.5h-11l9 47h10q121 0 121 69q0 27 -21 42.5t-58 15.5q-61 0 -112 -30l15 57q45 25 104 25q58 0 95.5 -27.5t37.5 -73.5q0 -42 -28 -67.5t-69 -33.5q29 -10 48 -35t19 -56q0 -56 -45 -92t-116 -36q-35 0 -71 9.5t-59 22.5l11 57
q26 -17 58 -27.5t62 -10.5q43 0 71 20.5t28 53.5zM807 725l-655 -725h-71l655 725h71zM818 123q0 -62 -46.5 -95.5t-111.5 -33.5q-63 0 -106 29.5t-43 88.5q0 41 23.5 70t62.5 43q-20 13 -31.5 34.5t-11.5 46.5q0 54 42.5 82t99.5 28q56 0 97 -25.5t41 -75.5
q0 -34 -20 -61.5t-51 -39.5q55 -33 55 -91zM692 237q34 0 58 19t24 52q0 30 -23 46t-57 16q-36 0 -59.5 -18t-23.5 -49q0 -32 22.5 -49t58.5 -17zM663 40q42 0 68.5 22.5t26.5 60.5q0 34 -24.5 53.5t-66.5 19.5q-41 0 -68 -22.5t-27 -59.5q0 -34 24.5 -54t66.5 -20z" />
    <glyph glyph-name="uni2158" unicode="&#x2158;" horiz-adv-x="876" 
d="M328 467h74l-11 -51h-74l-20 -99h-59l21 99h-209l10 47l266 262h57zM269 467l39 179l-180 -179h141zM837 725l-655 -725h-71l655 725h71zM631 409h223l-11 -52h-178l-32 -100q25 5 45 5q58 0 98 -30.5t40 -85.5q0 -45 -23 -79t-62.5 -52.5t-86.5 -18.5q-35 0 -68 9.5
t-58 25.5l11 56q24 -19 55 -29.5t60 -10.5q48 0 80 24.5t32 63.5q0 37 -32 57.5t-81 20.5q-41 0 -80 -13z" />
    <glyph glyph-name="uni215A" unicode="&#x215a;" horiz-adv-x="862" 
d="M165 725h223l-11 -52h-178l-32 -100q25 5 45 5q58 0 98 -30.5t40 -85.5q0 -45 -23 -79t-62.5 -52.5t-86.5 -18.5q-35 0 -68 9.5t-58 25.5l11 56q24 -19 55 -29.5t60 -10.5q48 0 80 24.5t32 63.5q0 37 -32 57.5t-81 20.5q-41 0 -80 -13zM807 725l-655 -725h-71l655 725h71
zM675 274q55 0 92 -35t37 -93q0 -66 -44 -108t-113 -42q-71 0 -107 43.5t-36 117.5q0 68 27 127.5t77.5 95.5t116.5 36q52 0 99 -21l-13 -55q-40 24 -90 24q-53 0 -94.5 -36.5t-58.5 -108.5q21 28 46.5 41.5t60.5 13.5zM661 227q-44 0 -70.5 -28t-26.5 -72q0 -35 22 -60.5
t61 -25.5q42 0 69 29t27 73q0 38 -21 61t-61 23z" />
    <glyph glyph-name="fiveeighths" unicode="&#x215d;" horiz-adv-x="884" 
d="M165 725h223l-11 -52h-178l-32 -100q25 5 45 5q58 0 98 -30.5t40 -85.5q0 -45 -23 -79t-62.5 -52.5t-86.5 -18.5q-35 0 -68 9.5t-58 25.5l11 56q24 -19 55 -29.5t60 -10.5q48 0 80 24.5t32 63.5q0 37 -32 57.5t-81 20.5q-41 0 -80 -13zM807 725l-655 -725h-71l655 725h71
zM818 123q0 -62 -46.5 -95.5t-111.5 -33.5q-63 0 -106 29.5t-43 88.5q0 41 23.5 70t62.5 43q-20 13 -31.5 34.5t-11.5 46.5q0 54 42.5 82t99.5 28q56 0 97 -25.5t41 -75.5q0 -34 -20 -61.5t-51 -39.5q55 -33 55 -91zM692 237q34 0 58 19t24 52q0 30 -23 46t-57 16
q-36 0 -59.5 -18t-23.5 -49q0 -32 22.5 -49t58.5 -17zM663 40q42 0 68.5 22.5t26.5 60.5q0 34 -24.5 53.5t-66.5 19.5q-41 0 -68 -22.5t-27 -59.5q0 -34 24.5 -54t66.5 -20z" />
    <glyph glyph-name="seveneighths" unicode="&#x215e;" horiz-adv-x="807" 
d="M103 673l11 52h292l-11 -51q-105 -68 -169.5 -154t-80.5 -203h-66q18 119 85.5 207.5t162.5 148.5h-224zM730 725l-655 -725h-71l655 725h71zM742 123q0 -62 -46.5 -95.5t-111.5 -33.5q-63 0 -106 29.5t-43 88.5q0 41 23.5 70t62.5 43q-20 13 -31.5 34.5t-11.5 46.5
q0 54 42.5 82t99.5 28q56 0 97 -25.5t41 -75.5q0 -34 -20 -61.5t-51 -39.5q55 -33 55 -91zM616 237q34 0 58 19t24 52q0 30 -23 46t-57 16q-36 0 -59.5 -18t-23.5 -49q0 -32 22.5 -49t58.5 -17zM587 40q42 0 68.5 22.5t26.5 60.5q0 34 -24.5 53.5t-66.5 19.5
q-41 0 -68 -22.5t-27 -59.5q0 -34 24.5 -54t66.5 -20z" />
    <glyph glyph-name="uni215F" unicode="&#x215f;" horiz-adv-x="410" 
d="M178 317h-59l66 312h-92l9 41q52 1 76 11.5t43 43.5h43zM702 725l-655 -725h-71l655 725h71z" />
    <glyph glyph-name="fraction" unicode="&#x2044;" horiz-adv-x="185" 
d="M477 725l-655 -725h-71l655 725h71z" />
    <glyph glyph-name="a.superior" horiz-adv-x="333" 
d="M272 439l6 45q-31 -53 -100 -53q-42 0 -70.5 23.5t-28.5 60.5q0 60 56 86.5t169 34.5v3q1 4 1 11q0 49 -76 49q-25 0 -49.5 -7.5t-42.5 -17.5l11 55q18 8 43.5 13t49.5 5q57 0 89 -25t32 -70q0 -18 -14 -79l-6 -32q-13 -61 -18 -102h-52zM294 576l4 20q-83 -5 -121.5 -23
t-38.5 -53q0 -20 15.5 -32.5t39.5 -12.5q34 0 63 25.5t38 75.5z" />
    <glyph glyph-name="b.superior" horiz-adv-x="364" 
d="M148 438h-59l87 408h58l-30 -143q15 20 38 31.5t51 11.5q53 0 81.5 -35t28.5 -94q0 -48 -18 -90.5t-52 -69t-80 -26.5q-34 0 -58 18t-35 47zM248 478q46 0 70.5 42.5t24.5 92.5q0 39 -17.5 62.5t-50.5 23.5q-30 0 -52.5 -19.5t-35 -49t-12.5 -59.5q0 -41 19.5 -67
t53.5 -26z" />
    <glyph glyph-name="c.superior" horiz-adv-x="283" 
d="M251 480q13 0 28.5 3t26.5 8l-10 -51q-27 -9 -59 -9q-60 0 -100.5 36t-40.5 101q0 47 21.5 88t61.5 65.5t91 24.5q45 0 80 -16l-10 -49q-36 17 -70 17q-50 0 -81.5 -35.5t-31.5 -91.5q0 -46 26.5 -68.5t67.5 -22.5z" />
    <glyph glyph-name="d.superior" horiz-adv-x="364" 
d="M296 474q-14 -19 -37.5 -31t-51.5 -12q-53 0 -82 36t-29 95q0 47 18 89t52.5 68.5t80.5 26.5q34 0 58 -17.5t35 -45.5l35 163h59l-87 -408h-59zM252 699q-46 0 -70.5 -42.5t-24.5 -92.5q0 -38 17 -62t50 -24q30 0 53 19.5t35 49.5t12 60q0 41 -19 66.5t-53 25.5z" />
    <glyph glyph-name="e.superior" horiz-adv-x="331" 
d="M377 629q0 -24 -8 -54h-216q1 -49 28.5 -72t70.5 -23t81 18l-11 -53q-37 -14 -84 -14q-62 0 -101.5 37t-39.5 100q0 50 22 90.5t60 64t83 23.5q52 0 83.5 -31.5t31.5 -85.5zM157 616h167q1 5 1 15q0 34 -20 52t-50 18q-32 0 -60.5 -23t-37.5 -62z" />
    <glyph glyph-name="f.superior" horiz-adv-x="202" 
d="M175 768q10 46 34 63.5t68 17.5q18 0 33 -4l-9 -45q-10 3 -23 3q-19 0 -29.5 -7.5t-16.5 -31.5l-5 -23h61l-9 -44h-61l-55 -259h-58l54 259h-41l10 44h41z" />
    <glyph glyph-name="g.superior" horiz-adv-x="362" 
d="M350 459q-15 -70 -58 -100t-100 -30t-110 24l12 52q49 -26 99 -26q78 0 97 78l8 30q-35 -44 -89 -44q-53 0 -82 36t-29 95q0 44 18 83.5t51.5 64t79.5 24.5q35 0 59 -16.5t34 -46.5l12 58h58zM252 699q-44 0 -68.5 -37.5t-24.5 -86.5q0 -38 17 -61.5t50 -23.5
q31 0 53.5 19t34 47.5t11.5 55.5q0 39 -19 63t-54 24z" />
    <glyph glyph-name="h.superior" horiz-adv-x="359" 
d="M203 698q16 22 41.5 35.5t58.5 13.5q43 0 65 -21t22 -61q0 -18 -6 -47l-37 -180h-59l37 176q5 19 5 36q0 49 -48 49q-38 0 -64.5 -26.5t-35.5 -71.5l-35 -163h-58l87 408h58z" />
    <glyph glyph-name="i.superior" horiz-adv-x="165" 
d="M162 782l14 64h59l-14 -64h-59zM90 438l64 303h58l-64 -303h-58z" />
    <glyph glyph-name="j.superior" horiz-adv-x="181" 
d="M178 782l14 64h58l-14 -64h-58zM228 741l-67 -313q-11 -53 -32 -72t-60 -19q-17 0 -35 6l10 46q10 -4 18 -4q18 0 26.5 8.5t14.5 33.5l57 270h-47l9 44h106z" />
    <glyph glyph-name="k.superior" horiz-adv-x="324" 
d="M89 438l87 408h58l-49 -231l150 126h76l-171 -144l122 -159h-68l-115 149l-31 -149h-59z" />
    <glyph glyph-name="l.superior" horiz-adv-x="164" 
d="M176 846h58l-86 -408h-59z" />
    <glyph glyph-name="m.superior" horiz-adv-x="540" 
d="M379 691q44 56 110 56q82 0 82 -80q0 -19 -6 -49l-38 -180h-58l37 176q5 20 5 38q0 47 -43 47q-36 0 -61 -26.5t-35 -70.5l-35 -164h-58l38 179q4 17 4 35q0 47 -43 47q-37 0 -62 -26.5t-34 -70.5l-34 -164h-58l64 303h58l-9 -43q17 22 42 35.5t56 13.5q67 0 78 -56z" />
    <glyph glyph-name="uni207F" unicode="&#x207f;" horiz-adv-x="359" 
d="M154 741h58l-9 -43q38 49 100 49q43 0 65 -21t22 -61q0 -18 -6 -47l-38 -180h-58l37 176q5 19 5 36q0 49 -48 49q-38 0 -64.5 -27t-35.5 -71l-34 -163h-58z" />
    <glyph glyph-name="o.superior" horiz-adv-x="348" 
d="M228 431q-58 0 -94.5 35t-36.5 100q0 49 18.5 90t54.5 65.5t86 24.5q58 0 95 -35.5t37 -99.5q0 -47 -19 -88.5t-55.5 -66.5t-85.5 -25zM231 479q44 0 70 38.5t26 92.5q0 41 -19 65t-56 24q-44 0 -69.5 -38.5t-25.5 -93.5q0 -41 19 -64.5t55 -23.5z" />
    <glyph glyph-name="p.superior" horiz-adv-x="364" 
d="M204 702q15 21 37.5 32.5t50.5 11.5q54 0 82.5 -35t28.5 -94q0 -48 -18 -90.5t-52 -69t-80 -26.5q-34 0 -58 18t-35 47l-33 -158h-58l84 403h59zM248 478q31 0 52.5 21t32 52.5t10.5 61.5q0 39 -17.5 62.5t-50.5 23.5q-30 0 -52.5 -19.5t-34.5 -49t-12 -59.5
q0 -42 19 -67.5t53 -25.5z" />
    <glyph glyph-name="q.superior" horiz-adv-x="363" 
d="M296 474q-15 -20 -38 -31.5t-51 -11.5q-53 0 -82 36t-29 95q0 47 18 89t52.5 68.5t80.5 26.5q34 0 58 -17.5t35 -45.5l12 58h59l-86 -403h-59zM252 699q-46 0 -70.5 -42.5t-24.5 -92.5q0 -38 17 -62t50 -24q30 0 53 19.5t35 49.5t12 60q0 41 -19 66.5t-53 25.5z" />
    <glyph glyph-name="r.superior" horiz-adv-x="220" 
d="M293 682q-14 2 -21 2q-38 -1 -59.5 -22.5t-31.5 -69.5l-33 -154h-58l64 303h57l-10 -51q14 23 39 38t54 15q5 0 13 -2z" />
    <glyph glyph-name="s.superior" horiz-adv-x="272" 
d="M83 512q21 -16 46.5 -24.5t49.5 -8.5q29 0 44.5 11t15.5 33q0 13 -9.5 24t-31.5 21l-18 9q-32 17 -46.5 35.5t-14.5 44.5q0 39 31 64t82 25q44 0 94 -23l-11 -53q-20 13 -43 20.5t-45 7.5q-24 0 -37.5 -10t-13.5 -28q0 -12 8.5 -21t27.5 -18l19 -10q35 -16 51.5 -36
t16.5 -46q0 -43 -33 -70.5t-87 -27.5q-28 0 -57.5 7.5t-52.5 20.5z" />
    <glyph glyph-name="t.superior" horiz-adv-x="213" 
d="M166 741l15 72h59l-16 -72h61l-9 -44h-61l-36 -172q-3 -10 -3 -20q0 -20 25 -20q16 0 31 8l-9 -46q-23 -9 -45 -9q-34 0 -48.5 12t-14.5 38q0 13 3 29l39 180h-49l10 44h48z" />
    <glyph glyph-name="u.superior" horiz-adv-x="352" 
d="M286 480q-36 -49 -98 -49q-84 0 -84 81q0 18 5 46l40 183h58l-39 -180q-4 -26 -4 -35q0 -48 45 -48q37 0 62.5 27t34.5 71l35 165h58l-64 -303h-58z" />
    <glyph glyph-name="v.superior" horiz-adv-x="308" 
d="M113 741h59l33 -231l126 231h63l-172 -303h-60z" />
    <glyph glyph-name="w.superior" horiz-adv-x="452" 
d="M177 741l10 -228l105 228h61l15 -228l99 228h66l-145 -303h-62l-17 232l-110 -232h-62l-21 303h61z" />
    <glyph glyph-name="x.superior" horiz-adv-x="308" 
d="M325 741h69l-139 -149l78 -154h-64l-55 110l-102 -110h-68l146 158l-73 145h63l52 -102z" />
    <glyph glyph-name="y.superior" horiz-adv-x="307" 
d="M393 741l-229 -403h-66l64 104l-49 299h61l32 -230l123 230h64z" />
    <glyph glyph-name="z.superior" horiz-adv-x="295" 
d="M306 438h-246l9 45l217 212h-162l10 46h231l-9 -46l-217 -211h177z" />
    <glyph glyph-name="uni2074" unicode="&#x2074;" horiz-adv-x="382" 
d="M354 588h74l-11 -52h-74l-20 -99h-59l21 99h-209l10 48l266 261h57zM295 588l39 178l-180 -178h141z" />
    <glyph glyph-name="uni2075" unicode="&#x2075;" horiz-adv-x="341" 
d="M190 846h223l-11 -52h-177l-32 -100q25 5 45 5q58 0 98 -30.5t40 -85.5q0 -45 -23 -79t-62.5 -52.5t-87.5 -18.5q-35 0 -68 9.5t-58 25.5l12 56q23 -19 54 -29.5t60 -10.5q48 0 80 24.5t32 63.5q0 38 -31.5 58t-81.5 20q-40 0 -79 -13z" />
    <glyph glyph-name="uni2076" unicode="&#x2076;" horiz-adv-x="376" 
d="M283 711q54 0 91 -35t37 -93q0 -66 -44 -108t-113 -42q-71 0 -107 43.5t-36 117.5q0 68 27 127.5t77.5 95.5t116.5 36q56 0 99 -21l-12 -55q-42 24 -90 24q-53 0 -94.5 -36.5t-58.5 -108.5q21 28 46.5 41.5t60.5 13.5zM269 664q-44 0 -71 -28t-27 -72q0 -35 22 -60.5
t61 -25.5q42 0 69.5 29t27.5 73q0 38 -21 61t-61 23z" />
    <glyph glyph-name="uni2077" unicode="&#x2077;" horiz-adv-x="325" 
d="M129 794l11 52h292l-11 -51q-105 -68 -169.5 -154t-80.5 -203h-66q18 119 85.5 207.5t162.5 148.5h-224z" />
    <glyph glyph-name="uni2078" unicode="&#x2078;" horiz-adv-x="381" 
d="M407 560q0 -62 -46 -95.5t-111 -33.5q-63 0 -106 29.5t-43 88.5q0 41 23 70t62 43q-20 13 -31.5 34.5t-11.5 46.5q0 54 42.5 82t100.5 28q56 0 96.5 -25.5t40.5 -75.5q0 -34 -19.5 -61.5t-50.5 -39.5q54 -32 54 -91zM281 674q35 0 58.5 19t23.5 52q0 30 -23 46t-56 16
q-37 0 -60 -18t-23 -49q0 -32 22.5 -49t57.5 -17zM253 477q42 0 68 22.5t26 60.5q0 34 -24 53.5t-66 19.5t-68.5 -22.5t-26.5 -59.5q0 -34 24.5 -54t66.5 -20z" />
    <glyph glyph-name="uni2079" unicode="&#x2079;" horiz-adv-x="375" 
d="M202 431q-52 0 -99 21l13 55q41 -24 90 -24q52 0 93.5 36t58.5 108q-20 -27 -45.5 -40t-60.5 -13q-55 0 -92 34.5t-37 92.5q0 66 44 108.5t113 42.5q71 0 107 -43.5t36 -117.5q0 -68 -27 -127.5t-77.5 -96t-116.5 -36.5zM266 621q43 0 70 27.5t27 71.5q0 35 -22 60.5
t-61 25.5q-43 0 -70 -28.5t-27 -72.5q0 -37 21.5 -60.5t61.5 -23.5z" />
    <glyph glyph-name="uni2070" unicode="&#x2070;" horiz-adv-x="398" 
d="M257 431q-71 0 -107 42.5t-36 119.5q0 61 18.5 120.5t60 99.5t106.5 40q72 0 108.5 -42.5t36.5 -119.5q0 -61 -18.5 -120.5t-60.5 -99.5t-108 -40zM260 477q44 0 72 34t40.5 83.5t12.5 96.5q0 53 -21.5 84.5t-67.5 31.5q-44 0 -71 -35t-39 -84.5t-12 -95.5
q0 -52 21 -83.5t65 -31.5z" />
    <glyph glyph-name="uni2070.aalt" horiz-adv-x="398" 
d="M257 431q-71 0 -107 42.5t-36 119.5q0 61 18.5 120.5t60 99.5t106.5 40q72 0 108.5 -42.5t36.5 -119.5q0 -61 -18.5 -120.5t-60.5 -99.5t-108 -40zM177 634l208 62q-2 51 -23.5 81t-65.5 30q-54 0 -83 -51t-36 -122zM381 647l-207 -62q2 -49 23 -78.5t63 -29.5
q54 0 84 51t37 119z" />
    <glyph glyph-name="period.superior" horiz-adv-x="160" 
d="M151 438h-69l16 72h69z" />
    <glyph glyph-name="hyphen.superior" horiz-adv-x="267" 
d="M295 618l-12 -55h-174l11 55h175z" />
    <glyph glyph-name="comma.superior" horiz-adv-x="162" 
d="M113 438h-30l16 72h69l-16 -76l-53 -86h-36z" />
    <glyph glyph-name="uni207C" unicode="&#x207c;" horiz-adv-x="440" 
d="M445 701v-53h-313v53h313zM445 532v-53h-313v53h313z" />
    <glyph glyph-name="uni207A" unicode="&#x207a;" horiz-adv-x="379" 
d="M287 564v-126h-56v126h-129v52h129v123h56v-123h128v-52h-128z" />
    <glyph glyph-name="uni207B" unicode="&#x207b;" horiz-adv-x="414" 
d="M119 564v52h313v-52h-313z" />
    <glyph glyph-name="uni207D" unicode="&#x207d;" horiz-adv-x="203" 
d="M137 335q-32 81 -32 182q0 94 33.5 177t95.5 152h51q-123 -166 -123 -338q0 -93 25 -173h-50z" />
    <glyph glyph-name="uni207E" unicode="&#x207e;" horiz-adv-x="202" 
d="M202 846q33 -83 33 -182q0 -94 -33.5 -177t-96.5 -152h-51q124 167 124 338q0 90 -26 173h50z" />
    <glyph glyph-name="a.inferior" horiz-adv-x="333" 
d="M153 -127l6 45q-31 -53 -100 -53q-42 0 -70.5 23.5t-28.5 60.5q0 60 56 86.5t169 34.5v3q1 4 1 11q0 49 -76 49q-25 0 -49.5 -7.5t-42.5 -17.5l11 55q18 8 43.5 13t49.5 5q57 0 89 -25t32 -70q0 -18 -14 -79l-6 -32q-13 -61 -18 -102h-52zM175 10l4 20q-83 -5 -121.5 -23
t-38.5 -53q0 -20 15.5 -32.5t39.5 -12.5q34 0 63 25.5t38 75.5z" />
    <glyph glyph-name="b.inferior" horiz-adv-x="364" 
d="M28 -128h-59l87 408h58l-30 -143q15 20 38 31.5t51 11.5q53 0 81.5 -35t28.5 -94q0 -48 -18 -90.5t-52 -69t-80 -26.5q-34 0 -58 18t-35 47zM128 -88q46 0 70.5 42.5t24.5 92.5q0 39 -17.5 62.5t-50.5 23.5q-30 0 -52.5 -19.5t-35 -49t-12.5 -59.5q0 -41 19.5 -67
t53.5 -26z" />
    <glyph glyph-name="c.inferior" horiz-adv-x="283" 
d="M132 -86q13 0 28.5 3t26.5 8l-10 -51q-27 -9 -59 -9q-60 0 -100.5 36t-40.5 101q0 47 21.5 88t61.5 65.5t91 24.5q45 0 80 -16l-10 -49q-36 17 -70 17q-50 0 -81.5 -35.5t-31.5 -91.5q0 -46 26.5 -68.5t67.5 -22.5z" />
    <glyph glyph-name="d.inferior" horiz-adv-x="364" 
d="M177 -92q-14 -19 -37.5 -31t-51.5 -12q-53 0 -82 36t-29 95q0 47 18 89t52.5 68.5t80.5 26.5q34 0 58 -17.5t35 -45.5l35 163h59l-87 -408h-59zM133 133q-46 0 -70.5 -42.5t-24.5 -92.5q0 -38 17 -62t50 -24q30 0 53 19.5t35 49.5t12 60q0 41 -19 66.5t-53 25.5z" />
    <glyph glyph-name="e.inferior" horiz-adv-x="330" 
d="M258 63q0 -24 -8 -54h-216q1 -49 28.5 -72t70.5 -23t81 18l-11 -53q-37 -14 -84 -14q-62 0 -101.5 37t-39.5 100q0 50 22 90.5t60 64t83 23.5q52 0 83.5 -31.5t31.5 -85.5zM38 50h167q1 5 1 15q0 34 -20 52t-50 18q-32 0 -60.5 -23t-37.5 -62z" />
    <glyph glyph-name="f.inferior" horiz-adv-x="202" 
d="M55 202q10 46 34 63.5t68 17.5q18 0 33 -4l-9 -45q-10 3 -23 3q-19 0 -29.5 -7.5t-16.5 -31.5l-5 -23h61l-9 -44h-61l-55 -259h-58l54 259h-41l10 44h41z" />
    <glyph glyph-name="g.inferior" horiz-adv-x="363" 
d="M231 -107q-15 -70 -58 -100t-100 -30t-110 24l12 52q49 -26 99 -26q78 0 97 78l8 30q-35 -44 -89 -44q-53 0 -82 36t-29 95q0 44 18 83.5t51.5 64t79.5 24.5q35 0 59 -16.5t34 -46.5l12 58h58zM133 133q-44 0 -68.5 -37.5t-24.5 -86.5q0 -38 17 -61.5t50 -23.5
q31 0 53.5 19t34 47.5t11.5 55.5q0 39 -19 63t-54 24z" />
    <glyph glyph-name="h.inferior" horiz-adv-x="359" 
d="M83 132q16 22 41.5 35.5t58.5 13.5q43 0 65 -21t22 -61q0 -18 -6 -47l-37 -180h-59l37 176q5 19 5 36q0 49 -48 49q-38 0 -64.5 -26.5t-35.5 -71.5l-35 -163h-58l87 408h58z" />
    <glyph glyph-name="i.inferior" horiz-adv-x="165" 
d="M42 216l14 64h59l-14 -64h-59zM-30 -128l64 303h58l-64 -303h-58z" />
    <glyph glyph-name="j.inferior" horiz-adv-x="180" 
d="M58 216l14 64h58l-14 -64h-58zM108 175l-67 -313q-11 -53 -32 -72t-60 -19q-17 0 -35 6l10 46q10 -4 18 -4q18 0 26.5 8.5t14.5 33.5l57 270h-47l9 44h106z" />
    <glyph glyph-name="k.inferior" horiz-adv-x="325" 
d="M-31 -128l87 408h58l-49 -231l150 126h76l-171 -144l122 -159h-68l-115 149l-31 -149h-59z" />
    <glyph glyph-name="l.inferior" horiz-adv-x="165" 
d="M56 280h58l-86 -408h-59z" />
    <glyph glyph-name="m.inferior" horiz-adv-x="539" 
d="M259 125q44 56 110 56q82 0 82 -80q0 -19 -6 -49l-38 -180h-58l37 176q5 20 5 38q0 47 -43 47q-36 0 -61 -26.5t-35 -70.5l-35 -164h-58l38 179q4 17 4 35q0 47 -43 47q-37 0 -62 -26.5t-34 -70.5l-34 -164h-58l64 303h58l-9 -43q17 22 42 35.5t56 13.5q67 0 78 -56z" />
    <glyph glyph-name="n.inferior" horiz-adv-x="358" 
d="M34 175h58l-9 -43q38 49 100 49q43 0 65 -21t22 -61q0 -18 -6 -47l-38 -180h-58l37 176q5 19 5 36q0 49 -48 49q-38 0 -64.5 -27t-35.5 -71l-34 -163h-58z" />
    <glyph glyph-name="o.inferior" horiz-adv-x="348" 
d="M108 -135q-58 0 -94.5 35t-36.5 100q0 49 18.5 90t54.5 65.5t86 24.5q58 0 95 -35.5t37 -99.5q0 -47 -19 -88.5t-55.5 -66.5t-85.5 -25zM111 -87q44 0 70 38.5t26 92.5q0 41 -19 65t-56 24q-44 0 -69.5 -38.5t-25.5 -93.5q0 -41 19 -64.5t55 -23.5z" />
    <glyph glyph-name="p.inferior" horiz-adv-x="364" 
d="M84 136q15 21 37.5 32.5t50.5 11.5q54 0 82.5 -35t28.5 -94q0 -48 -18 -90.5t-52 -69t-80 -26.5q-34 0 -58 18t-35 47l-33 -158h-58l84 403h59zM128 -88q31 0 52.5 21t32 52.5t10.5 61.5q0 39 -17.5 62.5t-50.5 23.5q-30 0 -52.5 -19.5t-34.5 -49t-12 -59.5
q0 -42 19 -67.5t53 -25.5z" />
    <glyph glyph-name="q.inferior" horiz-adv-x="364" 
d="M177 -92q-15 -20 -38 -31.5t-51 -11.5q-53 0 -82 36t-29 95q0 47 18 89t52.5 68.5t80.5 26.5q34 0 58 -17.5t35 -45.5l12 58h59l-86 -403h-59zM133 133q-46 0 -70.5 -42.5t-24.5 -92.5q0 -38 17 -62t50 -24q30 0 53 19.5t35 49.5t12 60q0 41 -19 66.5t-53 25.5z" />
    <glyph glyph-name="r.inferior" horiz-adv-x="220" 
d="M173 116q-14 2 -21 2q-38 -1 -59.5 -22.5t-31.5 -69.5l-33 -154h-58l64 303h57l-10 -51q14 23 39 38t54 15q5 0 13 -2z" />
    <glyph glyph-name="s.inferior" horiz-adv-x="271" 
d="M-37 -54q21 -16 46.5 -24.5t49.5 -8.5q29 0 44.5 11t15.5 33q0 13 -9.5 24t-31.5 21l-18 9q-32 17 -46.5 35.5t-14.5 44.5q0 39 31 64t82 25q44 0 94 -23l-11 -53q-20 13 -43 20.5t-45 7.5q-24 0 -37.5 -10t-13.5 -28q0 -12 8.5 -21t27.5 -18l19 -10q35 -16 51.5 -36
t16.5 -46q0 -43 -33 -70.5t-87 -27.5q-28 0 -57.5 7.5t-52.5 20.5z" />
    <glyph glyph-name="t.inferior" horiz-adv-x="213" 
d="M46 175l15 72h59l-16 -72h61l-9 -44h-61l-36 -172q-3 -10 -3 -20q0 -20 25 -20q16 0 31 8l-9 -46q-23 -9 -45 -9q-34 0 -48.5 12t-14.5 38q0 13 3 29l39 180h-49l10 44h48z" />
    <glyph glyph-name="u.inferior" horiz-adv-x="353" 
d="M167 -86q-36 -49 -98 -49q-84 0 -84 81q0 18 5 46l40 183h58l-39 -180q-4 -26 -4 -35q0 -48 45 -48q37 0 62.5 27t34.5 71l35 165h58l-64 -303h-58z" />
    <glyph glyph-name="v.inferior" horiz-adv-x="307" 
d="M-7 175h59l33 -231l126 231h63l-172 -303h-60z" />
    <glyph glyph-name="w.inferior" horiz-adv-x="451" 
d="M57 175l10 -228l105 228h61l15 -228l99 228h66l-145 -303h-62l-17 232l-110 -232h-62l-21 303h61z" />
    <glyph glyph-name="x.inferior" horiz-adv-x="308" 
d="M206 175h69l-139 -149l78 -154h-64l-55 110l-102 -110h-68l146 158l-73 145h63l52 -102z" />
    <glyph glyph-name="y.inferior" horiz-adv-x="306" 
d="M273 175l-229 -403h-66l64 104l-49 299h61l32 -230l123 230h64z" />
    <glyph glyph-name="z.inferior" horiz-adv-x="295" 
d="M187 -128h-246l9 45l217 212h-162l10 46h231l-9 -46l-217 -211h177z" />
    <glyph glyph-name="uni2081" unicode="&#x2081;" horiz-adv-x="305" 
d="M119 -76h101l-11 -52h-265l10 52h106l55 260h-92l8 41q53 1 76.5 11t43.5 44h43z" />
    <glyph glyph-name="uni2082" unicode="&#x2082;" horiz-adv-x="337" 
d="M281 183q0 -44 -28 -83t-78 -77.5t-141 -97.5h195l-11 -53h-276l10 52q100 65 152 102.5t83.5 74t31.5 71.5q0 32 -22.5 48.5t-59.5 16.5q-51 0 -106 -31l13 54q23 13 52.5 20t57.5 7q55 0 91 -28.5t36 -75.5z" />
    <glyph glyph-name="uni2083" unicode="&#x2083;" horiz-adv-x="341" 
d="M186 -9q0 31 -27 51t-73 20h-11l10 47h9q121 0 121 68q0 27 -21 43t-58 16q-60 0 -111 -30l14 56q47 25 105 25q57 0 94.5 -27t37.5 -73q0 -42 -27.5 -67.5t-69.5 -33.5q30 -10 49 -35t19 -57q0 -56 -45 -91.5t-116 -35.5q-36 0 -72.5 9.5t-57.5 22.5l10 56
q26 -17 58 -27.5t62 -10.5q44 0 72 20.5t28 53.5z" />
    <glyph glyph-name="uni2084" unicode="&#x2084;" horiz-adv-x="382" 
d="M234 22h74l-11 -52h-74l-20 -99h-59l21 99h-209l10 48l266 261h57zM175 22l39 178l-180 -178h141z" />
    <glyph glyph-name="uni2085" unicode="&#x2085;" horiz-adv-x="342" 
d="M71 280h223l-11 -52h-177l-32 -100q25 5 45 5q58 0 98 -30.5t40 -85.5q0 -45 -23 -79t-62.5 -52.5t-87.5 -18.5q-35 0 -68 9.5t-58 25.5l12 56q23 -19 54 -29.5t60 -10.5q48 0 80 24.5t32 63.5q0 38 -31.5 58t-81.5 20q-40 0 -79 -13z" />
    <glyph glyph-name="uni2086" unicode="&#x2086;" horiz-adv-x="376" 
d="M164 145q54 0 91 -35t37 -93q0 -66 -44 -108t-113 -42q-71 0 -107 43.5t-36 117.5q0 68 27 127.5t77.5 95.5t116.5 36q56 0 99 -21l-12 -55q-42 24 -90 24q-53 0 -94.5 -36.5t-58.5 -108.5q21 28 46.5 41.5t60.5 13.5zM150 98q-44 0 -71 -28t-27 -72q0 -35 22 -60.5
t61 -25.5q42 0 69.5 29t27.5 73q0 38 -21 61t-61 23z" />
    <glyph glyph-name="uni2087" unicode="&#x2087;" horiz-adv-x="324" 
d="M9 228l11 52h292l-11 -51q-105 -68 -169.5 -154t-80.5 -203h-66q18 119 85.5 207.5t162.5 148.5h-224z" />
    <glyph glyph-name="uni2088" unicode="&#x2088;" horiz-adv-x="381" 
d="M287 -6q0 -62 -46 -95.5t-111 -33.5q-63 0 -106 29.5t-43 88.5q0 41 23 70t62 43q-20 13 -31.5 34.5t-11.5 46.5q0 54 42.5 82t100.5 28q56 0 96.5 -25.5t40.5 -75.5q0 -34 -19.5 -61.5t-50.5 -39.5q54 -32 54 -91zM161 108q35 0 58.5 19t23.5 52q0 30 -23 46t-56 16
q-37 0 -60 -18t-23 -49q0 -32 22.5 -49t57.5 -17zM133 -89q42 0 68 22.5t26 60.5q0 34 -24 53.5t-66 19.5t-68.5 -22.5t-26.5 -59.5q0 -34 24.5 -54t66.5 -20z" />
    <glyph glyph-name="uni2089" unicode="&#x2089;" horiz-adv-x="376" 
d="M83 -134q-52 0 -99 21l13 55q41 -24 90 -24q52 0 93.5 36t58.5 108q-20 -27 -45.5 -40t-60.5 -13q-55 0 -92 34.5t-37 92.5q0 66 44 108.5t113 42.5q71 0 107 -43.5t36 -117.5q0 -68 -27 -127.5t-77.5 -96t-116.5 -36.5zM147 56q43 0 70 27.5t27 71.5q0 35 -22 60.5
t-61 25.5q-43 0 -70 -28.5t-27 -72.5q0 -37 21.5 -60.5t61.5 -23.5z" />
    <glyph glyph-name="uni2080" unicode="&#x2080;" horiz-adv-x="398" 
d="M137 -135q-71 0 -107 42.5t-36 119.5q0 61 18.5 120.5t60 99.5t106.5 40q72 0 108.5 -42.5t36.5 -119.5q0 -61 -18.5 -120.5t-60.5 -99.5t-108 -40zM140 -89q44 0 72 34t40.5 83.5t12.5 96.5q0 53 -21.5 84.5t-67.5 31.5q-44 0 -71 -35t-39 -84.5t-12 -95.5
q0 -52 21 -83.5t65 -31.5z" />
    <glyph glyph-name="uni2080.aalt" horiz-adv-x="398" 
d="M137 -135q-71 0 -107 42.5t-36 119.5q0 61 18.5 120.5t60 99.5t106.5 40q72 0 108.5 -42.5t36.5 -119.5q0 -61 -18.5 -120.5t-60.5 -99.5t-108 -40zM57 68l208 62q-2 51 -23.5 81t-65.5 30q-54 0 -83 -51t-36 -122zM261 81l-207 -62q2 -49 23 -78.5t63 -29.5q54 0 84 51
t37 119z" />
    <glyph glyph-name="period.inferior" horiz-adv-x="161" 
d="M32 -128h-69l16 72h69z" />
    <glyph glyph-name="hyphen.inferior" horiz-adv-x="267" 
d="M176 52l-12 -55h-174l11 55h175z" />
    <glyph glyph-name="comma.inferior" horiz-adv-x="163" 
d="M-7 -128h-30l16 72h69l-16 -76l-53 -86h-36z" />
    <glyph glyph-name="equal.inferior" horiz-adv-x="441" 
d="M326 135v-53h-313v53h313zM326 -34v-53h-313v53h313z" />
    <glyph glyph-name="plus.inferior" horiz-adv-x="380" 
d="M168 -2v-126h-56v126h-129v52h129v123h56v-123h128v-52h-128z" />
    <glyph glyph-name="minus.inferior" horiz-adv-x="408" 
d="M-3 -2v52h313v-52h-313z" />
    <glyph glyph-name="uni208D" unicode="&#x208d;" horiz-adv-x="202" 
d="M17 -231q-32 81 -32 182q0 94 33.5 177t95.5 152h51q-123 -166 -123 -338q0 -93 25 -173h-50z" />
    <glyph glyph-name="uni208E" unicode="&#x208e;" horiz-adv-x="201" 
d="M82 280q33 -83 33 -182q0 -94 -33.5 -177t-96.5 -152h-51q124 167 124 338q0 90 -26 173h50z" />
    <glyph glyph-name="one.numr" horiz-adv-x="233" 
d="M178 317h-59l66 312h-92l9 41q52 1 76 11.5t43 43.5h43z" />
    <glyph glyph-name="two.numr" horiz-adv-x="336" 
d="M374 627q0 -44 -27.5 -82.5t-77.5 -76.5t-142 -99h195l-11 -52h-276l10 51q101 66 152.5 103.5t83 73.5t31.5 71q0 32 -22.5 48.5t-59.5 16.5q-49 0 -106 -30l13 53q23 13 52.5 20.5t57.5 7.5q55 0 91 -28.5t36 -76.5z" />
    <glyph glyph-name="three.numr" horiz-adv-x="342" 
d="M279 436q0 31 -27 50.5t-72 19.5h-11l9 47h10q121 0 121 69q0 27 -21 42.5t-58 15.5q-61 0 -112 -30l15 57q45 25 104 25q58 0 95.5 -27.5t37.5 -73.5q0 -42 -28 -67.5t-69 -33.5q29 -10 48 -35t19 -56q0 -56 -45 -92t-116 -36q-35 0 -71 9.5t-59 22.5l11 57
q26 -17 58 -27.5t62 -10.5q43 0 71 20.5t28 53.5z" />
    <glyph glyph-name="four.numr" horiz-adv-x="382" 
d="M328 467h74l-11 -51h-74l-20 -99h-59l21 99h-209l10 47l266 262h57zM269 467l39 179l-180 -179h141z" />
    <glyph glyph-name="five.numr" horiz-adv-x="342" 
d="M165 725h223l-11 -52h-178l-32 -100q25 5 45 5q58 0 98 -30.5t40 -85.5q0 -45 -23 -79t-62.5 -52.5t-86.5 -18.5q-35 0 -68 9.5t-58 25.5l11 56q24 -19 55 -29.5t60 -10.5q48 0 80 24.5t32 63.5q0 37 -32 57.5t-81 20.5q-41 0 -80 -13z" />
    <glyph glyph-name="six.numr" horiz-adv-x="376" 
d="M257 590q55 0 92 -35t37 -93q0 -66 -44 -108t-113 -42q-71 0 -107 43.5t-36 117.5q0 68 27 127.5t77.5 95.5t116.5 36q52 0 99 -21l-13 -55q-40 24 -90 24q-53 0 -94.5 -36.5t-58.5 -108.5q21 28 46.5 41.5t60.5 13.5zM243 543q-44 0 -70.5 -28t-26.5 -72q0 -35 22 -60.5
t61 -25.5q42 0 69 29t27 73q0 38 -21 61t-61 23z" />
    <glyph glyph-name="seven.numr" horiz-adv-x="325" 
d="M103 673l11 52h292l-11 -51q-105 -68 -169.5 -154t-80.5 -203h-66q18 119 85.5 207.5t162.5 148.5h-224z" />
    <glyph glyph-name="eight.numr" horiz-adv-x="381" 
d="M382 439q0 -62 -46.5 -95.5t-111.5 -33.5q-63 0 -106 29.5t-43 88.5q0 41 23.5 70t62.5 43q-20 13 -31.5 34.5t-11.5 46.5q0 54 42.5 82t99.5 28q56 0 97 -25.5t41 -75.5q0 -34 -20 -61.5t-51 -39.5q55 -33 55 -91zM256 553q34 0 58 19t24 52q0 30 -23 46t-57 16
q-36 0 -59.5 -18t-23.5 -49q0 -32 22.5 -49t58.5 -17zM227 356q42 0 68.5 22.5t26.5 60.5q0 34 -24.5 53.5t-66.5 19.5q-41 0 -68 -22.5t-27 -59.5q0 -34 24.5 -54t66.5 -20z" />
    <glyph glyph-name="nine.numr" horiz-adv-x="376" 
d="M177 312q-54 0 -99 20l13 55q41 -24 90 -24q52 0 93.5 36t58.5 108q-20 -27 -45.5 -40t-60.5 -13q-55 0 -92 34.5t-37 92.5q0 66 44 108.5t113 42.5q71 0 107 -43.5t36 -117.5q0 -68 -27 -127.5t-77 -95.5t-117 -36zM241 501q44 0 70.5 27.5t26.5 71.5q0 35 -22 60.5
t-61 25.5q-43 0 -70 -28.5t-27 -72.5q0 -37 21.5 -60.5t61.5 -23.5z" />
    <glyph glyph-name="zero.numr" horiz-adv-x="398" 
d="M231 310q-71 0 -107 42.5t-36 119.5q0 61 18.5 120.5t60 99.5t106.5 40q72 0 108.5 -42.5t36.5 -119.5q0 -61 -18.5 -120.5t-60.5 -99.5t-108 -40zM234 356q44 0 72 34t40.5 83.5t12.5 96.5q0 53 -21.5 84.5t-67.5 31.5q-44 0 -71 -35t-39 -84.5t-12 -95.5
q0 -52 21 -83.5t65 -31.5z" />
    <glyph glyph-name="zero.numr.zero" horiz-adv-x="398" 
d="M231 310q-71 0 -107 42.5t-36 119.5q0 61 18.5 120.5t60 99.5t106.5 40q72 0 108.5 -42.5t36.5 -119.5q0 -61 -18.5 -120.5t-60.5 -99.5t-108 -40zM151 513l208 62q-2 51 -23.5 81t-65.5 30q-54 0 -83 -51t-36 -122zM355 526l-207 -62q2 -49 23 -78.5t63 -29.5
q54 0 84 51t37 119z" />
    <glyph glyph-name="one.dnom" horiz-adv-x="232" 
d="M112 1h-59l66 312h-92l9 41q52 1 76 11.5t43 43.5h43z" />
    <glyph glyph-name="two.dnom" horiz-adv-x="337" 
d="M309 311q0 -44 -27.5 -82.5t-77.5 -76.5t-142 -99h195l-11 -52h-276l10 51q101 66 152.5 103.5t83 73.5t31.5 71q0 32 -22.5 48.5t-59.5 16.5q-49 0 -106 -30l13 53q23 13 52.5 20.5t57.5 7.5q55 0 91 -28.5t36 -76.5z" />
    <glyph glyph-name="three.dnom" horiz-adv-x="342" 
d="M213 120q0 31 -27 50.5t-72 19.5h-11l9 47h10q121 0 121 69q0 27 -21 42.5t-58 15.5q-61 0 -112 -30l15 57q45 25 104 25q58 0 95.5 -27.5t37.5 -73.5q0 -42 -28 -67.5t-69 -33.5q29 -10 48 -35t19 -56q0 -56 -45 -92t-116 -36q-35 0 -71 9.5t-59 22.5l11 57
q26 -17 58 -27.5t62 -10.5q43 0 71 20.5t28 53.5z" />
    <glyph glyph-name="four.dnom" horiz-adv-x="381" 
d="M262 151h74l-11 -51h-74l-20 -99h-59l21 99h-209l10 47l266 262h57zM203 151l39 179l-180 -179h141z" />
    <glyph glyph-name="five.dnom" horiz-adv-x="342" 
d="M98 409h223l-11 -52h-178l-32 -100q25 5 45 5q58 0 98 -30.5t40 -85.5q0 -45 -23 -79t-62.5 -52.5t-86.5 -18.5q-35 0 -68 9.5t-58 25.5l11 56q24 -19 55 -29.5t60 -10.5q48 0 80 24.5t32 63.5q0 37 -32 57.5t-81 20.5q-41 0 -80 -13z" />
    <glyph glyph-name="six.dnom" horiz-adv-x="376" 
d="M190 274q55 0 92 -35t37 -93q0 -66 -44 -108t-113 -42q-71 0 -107 43.5t-36 117.5q0 68 27 127.5t77.5 95.5t116.5 36q52 0 99 -21l-13 -55q-40 24 -90 24q-53 0 -94.5 -36.5t-58.5 -108.5q21 28 46.5 41.5t60.5 13.5zM176 227q-44 0 -70.5 -28t-26.5 -72q0 -35 22 -60.5
t61 -25.5q42 0 69 29t27 73q0 38 -21 61t-61 23z" />
    <glyph glyph-name="seven.dnom" horiz-adv-x="325" 
d="M37 357l11 52h292l-11 -51q-105 -68 -169.5 -154t-80.5 -203h-66q18 119 85.5 207.5t162.5 148.5h-224z" />
    <glyph glyph-name="eight.dnom" horiz-adv-x="381" 
d="M316 123q0 -62 -46.5 -95.5t-111.5 -33.5q-63 0 -106 29.5t-43 88.5q0 41 23.5 70t62.5 43q-20 13 -31.5 34.5t-11.5 46.5q0 54 42.5 82t99.5 28q56 0 97 -25.5t41 -75.5q0 -34 -20 -61.5t-51 -39.5q55 -33 55 -91zM190 237q34 0 58 19t24 52q0 30 -23 46t-57 16
q-36 0 -59.5 -18t-23.5 -49q0 -32 22.5 -49t58.5 -17zM161 40q42 0 68.5 22.5t26.5 60.5q0 34 -24.5 53.5t-66.5 19.5q-41 0 -68 -22.5t-27 -59.5q0 -34 24.5 -54t66.5 -20z" />
    <glyph glyph-name="nine.dnom" horiz-adv-x="376" 
d="M111 -4q-54 0 -99 20l13 55q41 -24 90 -24q52 0 93.5 36t58.5 108q-20 -27 -45.5 -40t-60.5 -13q-55 0 -92 34.5t-37 92.5q0 66 44 108.5t113 42.5q71 0 107 -43.5t36 -117.5q0 -68 -27 -127.5t-77 -95.5t-117 -36zM175 185q44 0 70.5 27.5t26.5 71.5q0 35 -22 60.5
t-61 25.5q-43 0 -70 -28.5t-27 -72.5q0 -37 21.5 -60.5t61.5 -23.5z" />
    <glyph glyph-name="zero.dnom" horiz-adv-x="399" 
d="M164 -6q-71 0 -107 42.5t-36 119.5q0 61 18.5 120.5t60 99.5t106.5 40q72 0 108.5 -42.5t36.5 -119.5q0 -61 -18.5 -120.5t-60.5 -99.5t-108 -40zM167 40q44 0 72 34t40.5 83.5t12.5 96.5q0 53 -21.5 84.5t-67.5 31.5q-44 0 -71 -35t-39 -84.5t-12 -95.5q0 -52 21 -83.5
t65 -31.5z" />
    <glyph glyph-name="zero.dnom.zero" horiz-adv-x="399" 
d="M164 -6q-71 0 -107 42.5t-36 119.5q0 61 18.5 120.5t60 99.5t106.5 40q72 0 108.5 -42.5t36.5 -119.5q0 -61 -18.5 -120.5t-60.5 -99.5t-108 -40zM84 197l208 62q-2 51 -23.5 81t-65.5 30q-54 0 -83 -51t-36 -122zM288 210l-207 -62q2 -49 23 -78.5t63 -29.5q54 0 84 51
t37 119z" />
    <glyph glyph-name="ampersand.aalt" horiz-adv-x="689" 
d="M652 0h-80l-82 107q-106 -120 -247 -120q-57 0 -107 23.5t-80.5 69t-30.5 110.5q0 172 224 231q-36 48 -51.5 82.5t-15.5 69.5q0 75 51 120t131 45q75 0 123 -41t48 -113q0 -66 -48 -109.5t-141 -77.5l147 -192q48 86 75 186h63q-35 -131 -102 -232zM248 574
q0 -31 14.5 -58.5t51.5 -76.5q156 48 156 143q0 46 -27.5 74.5t-79.5 28.5q-51 0 -83 -29.5t-32 -81.5zM455 152l-173 226q-92 -24 -140.5 -69t-48.5 -116q0 -70 44.5 -110.5t111.5 -40.5q119 0 206 110z" />
    <glyph glyph-name="hyphen.case" horiz-adv-x="394" 
d="M371 399l-13 -62h-297l13 62h297z" />
    <glyph glyph-name="endash.aalt" horiz-adv-x="515" 
d="M492 397l-12 -59h-419l12 59h419z" />
    <glyph glyph-name="emdash.aalt" horiz-adv-x="755" 
d="M732 397l-12 -59h-659l12 59h659z" />
    <glyph glyph-name="question.aalt" horiz-adv-x="471" 
d="M119 704q34 16 77 25t86 9q60 0 109 -19.5t77.5 -56.5t28.5 -87q0 -73 -43 -121t-122 -89l-21 -11q-51 -27 -72.5 -52.5t-32.5 -75.5l-9 -34h-65l8 40q14 63 46.5 100t101.5 74l20 10q58 31 89 64.5t31 87.5q0 53 -43 83.5t-110 30.5q-83 0 -169 -43zM188 109l-23 -109
h-73l23 109h73z" />
    <glyph glyph-name="questiondown.aalt" horiz-adv-x="472" 
d="M325 616l24 109h73l-24 -109h-73zM392 21q-33 -16 -76 -25t-86 -9q-60 0 -109 19.5t-77.5 56.5t-28.5 87q0 73 43 121t122 89l21 11q51 27 72.5 52.5t32.5 75.5l8 34h66l-9 -40q-14 -63 -46 -100t-102 -74l-19 -10q-58 -31 -89 -64.5t-31 -87.5q0 -53 43 -83.5t110 -30.5
q83 0 169 43z" />
    <glyph glyph-name="exclam.aalt" horiz-adv-x="242" 
d="M209 509l-84 -318h-39l50 318l46 216h72zM123 109l-23 -109h-73l23 109h73z" />
    <glyph glyph-name="exclamdown.aalt" horiz-adv-x="242" 
d="M158 616l24 109h73l-24 -109h-73zM73 216l85 318h38l-50 -318l-45 -216h-73z" />
    <glyph glyph-name="guilsinglleft.aalt" horiz-adv-x="322" 
d="M244 141h-64l-110 226l205 227h68l-200 -227z" />
    <glyph glyph-name="guilsinglright.aalt" horiz-adv-x="321" 
d="M184 594l109 -227l-204 -226h-68l199 227l-101 226h65z" />
    <glyph glyph-name="guillemotleft.aalt" horiz-adv-x="523" 
d="M244 141h-64l-110 226l205 227h68l-200 -227zM446 141h-64l-110 226l205 227h68l-200 -227z" />
    <glyph glyph-name="guillemotright.aalt" horiz-adv-x="523" 
d="M184 594l109 -227l-204 -226h-68l199 227l-101 226h65zM385 594l109 -227l-204 -226h-68l199 227l-101 226h65z" />
    <glyph glyph-name="parenleft.case" horiz-adv-x="269" 
d="M108 0q-21 52 -35.5 119.5t-14.5 142.5q0 120 51 237.5t147 225.5h68q-94 -107 -146 -227t-52 -242q0 -130 45 -256h-63z" />
    <glyph glyph-name="parenright.case" horiz-adv-x="269" 
d="M201 725q22 -50 36 -117.5t14 -143.5q0 -121 -50.5 -238.5t-146.5 -225.5h-68q94 107 145.5 227t51.5 242q0 137 -45 256h63z" />
    <glyph glyph-name="bracketleft.aalt" horiz-adv-x="306" 
d="M32 0l154 725h179l-12 -54h-114l-130 -616h114l-12 -55h-179z" />
    <glyph glyph-name="bracketright.aalt" horiz-adv-x="296" 
d="M113 671l12 54h180l-155 -725h-178l12 55h113l130 616h-114z" />
    <glyph glyph-name="braceleft.aalt" horiz-adv-x="307" 
d="M176 0q-56 0 -82 18.5t-26 61.5q0 18 7 53l20 91q8 40 8 54q0 27 -13 42t-44 16l10 53q45 1 66 30t32 83l19 90q13 58 25 83.5t41.5 37.5t91.5 12h31l-11 -54h-21q-34 0 -50.5 -6.5t-24 -22.5t-15.5 -52l-19 -89q-14 -67 -38.5 -97t-65.5 -40v-2q28 -8 41 -25t13 -50
q0 -17 -9 -62l-19 -90q-6 -25 -6 -42q0 -23 13.5 -31t48.5 -8h20l-12 -54h-31z" />
    <glyph glyph-name="braceright.aalt" horiz-adv-x="307" 
d="M171 725q56 0 82 -18.5t26 -61.5q0 -25 -7 -53l-20 -91q-8 -40 -8 -54q0 -55 57 -58l-10 -53q-45 -1 -66 -29.5t-32 -82.5l-19 -91q-13 -58 -25 -83.5t-41.5 -37.5t-91.5 -12h-31l11 54h21q34 0 50.5 6.5t24 22.5t15.5 52l19 91q14 66 38.5 96t65.5 40v2q-27 8 -40 25
t-13 50q0 21 8 61l20 90q5 28 5 42q0 23 -13.5 31t-47.5 8h-21l12 54h31z" />
    <glyph glyph-name="bar.aalt" horiz-adv-x="269" 
d="M125 0v725h58v-725h-58z" />
    <glyph glyph-name="brokenbar.aalt" horiz-adv-x="269" 
d="M125 463v262h58v-262h-58zM125 0v262h58v-262h-58z" />
    <glyph glyph-name="periodcentered.aalt" horiz-adv-x="205" 
d="M169 418l-23 -109h-73l23 109h73z" />
    <glyph glyph-name="bullet.aalt" horiz-adv-x="410" 
d="M220 491q56 0 93.5 -36.5t37.5 -89.5q0 -56 -37.5 -93t-93.5 -37q-34 0 -62.5 17t-45.5 47t-17 66q0 34 17 63t45.5 46t62.5 17z" />
    <glyph glyph-name="plus.case" 
d="M390 333v-239h-63v239h-239v60h239v239h63v-239h239v-60h-239z" />
    <glyph glyph-name="minus.case" 
d="M87 333v60h541v-60h-541z" />
    </font>
</defs>
</svg>
