<?xml version="1.0" standalone="no"?>
<!DOCTYPE svg PUBLIC "-//W3C//DTD SVG 1.1//EN" "http://www.w3.org/Graphics/SVG/1.1/DTD/svg11.dtd" >
<svg xmlns="http://www.w3.org/2000/svg" xmlns:xlink="http://www.w3.org/1999/xlink" version="1.1">
<metadata>
Created by Christoph Koeberlin (http://christoph.koe.berlin)
Copyright (c) 2015 Swiss Typefaces Sa`rl. All rights reserved.
</metadata>
<defs>
<font id="Font" horiz-adv-x="240" >
  <font-face 
    font-family="Font"
    font-weight="700"
    font-stretch="condensed"
    units-per-em="1000"
    panose-1="2 11 8 6 0 0 0 0 0 0"
    ascent="800"
    descent="-200"
    x-height="538"
    cap-height="725"
    bbox="-66 -246 815 935"
    underline-thickness="100"
    underline-position="-110"
    unicode-range="U+0020-FB02"
  />
<missing-glyph horiz-adv-x="500" 
 />
    <glyph glyph-name=".notdef" horiz-adv-x="500" 
 />
    <glyph glyph-name="glyph1" horiz-adv-x="0" 
 />
    <glyph glyph-name="glyph2" horiz-adv-x="180" 
 />
    <glyph glyph-name="space" unicode=" " horiz-adv-x="180" 
 />
    <glyph glyph-name="exclam" unicode="!" horiz-adv-x="248" 
d="M47 539v186h154v-186l-23 -318h-108zM43 155h162v-155h-162v155z" />
    <glyph glyph-name="quotedbl" unicode="&#x22;" horiz-adv-x="434" 
d="M71 471l-33 254h158l-33 -254h-92zM271 471l-33 254h158l-33 -254h-92z" />
    <glyph glyph-name="numbersign" unicode="#" horiz-adv-x="589" 
d="M324 187h-112l-26 -187h-113l26 187h-83l13 107h84l21 150h-81l12 108h84l24 173h113l-24 -173h112l24 173h113l-24 -173h86l-13 -108h-88l-21 -150h85l-12 -107h-87l-26 -187h-113zM226 294h112l21 150h-112z" />
    <glyph glyph-name="dollar" unicode="$" horiz-adv-x="522" 
d="M241 -5q-115 6 -166 69t-51 173v6h157v-6q0 -72 18.5 -104.5t68.5 -32.5q40 0 59.5 21.5t19.5 72.5q0 42 -22.5 66.5t-61.5 42.5l-62 28q-42 19 -74 39t-53.5 45.5t-32 58.5t-10.5 79q0 96 57.5 143t152.5 49v72h55v-74q44 -5 79.5 -19t60.5 -40t38.5 -65t13.5 -93v-3
h-155v3q0 64 -20.5 88.5t-62.5 24.5q-34 0 -50 -21t-16 -59q0 -34 12.5 -54.5t42.5 -33.5l70 -32q41 -18 76.5 -36.5t61.5 -44t41 -60.5t15 -85q0 -103 -54.5 -157t-152.5 -61v-84h-55v84z" />
    <glyph glyph-name="percent" unicode="%" horiz-adv-x="789" 
d="M155 370q15 0 23 9t11 25.5t3.5 41t0.5 55.5v39q0 31 -0.5 55.5t-3.5 41.5t-11 26t-23 9t-23.5 -9t-12 -26t-4 -41.5t-0.5 -55.5v-39q0 -31 0.5 -55.5t4 -41t12 -25.5t23.5 -9zM155 310q-40 0 -66 11t-41 33.5t-21 56.5t-6 80v59q0 46 6 80.5t21 57t41 33.5t66 11
q78 0 106 -45t28 -137v-59q0 -92 -28 -136.5t-106 -44.5zM468 725h66l-213 -725h-66zM634 52q15 0 23 9t11 26t3.5 41.5t0.5 55.5v39q0 31 -0.5 55.5t-3.5 41.5t-11 26t-23 9t-23.5 -9t-12 -26t-4 -41.5t-0.5 -55.5v-39q0 -31 0.5 -55.5t4 -41.5t12 -26t23.5 -9zM634 -8
q-40 0 -66 11t-41 33.5t-21 57t-6 80.5v59q0 46 6 80.5t21 57t41 33.5t66 11q78 0 106 -45t28 -137v-59q0 -92 -28 -137t-106 -45z" />
    <glyph glyph-name="ampersand" unicode="&#x26;" horiz-adv-x="645" 
d="M236 -13q-49 0 -90 13.5t-70.5 39.5t-46 65t-16.5 89q0 37 10 65t28.5 50t43.5 41t55 39l20 13l-9 12q-18 23 -30 43t-20 39.5t-11.5 39.5t-3.5 44q0 37 14 66.5t39 49.5t59.5 31t74.5 11q32 0 64 -8.5t58 -27t42.5 -49t16.5 -74.5q0 -33 -8 -59t-23 -47t-36 -39t-47 -36
l-12 -8l100 -130q12 29 20 64t8 76h120q-2 -76 -22 -135.5t-49 -103.5l124 -161h-158l-47 60q-37 -35 -84 -54t-114 -19zM256 92q38 0 65.5 13.5t47.5 38.5l-134 174l-12 -8q-39 -27 -51.5 -51.5t-12.5 -61.5q0 -21 6.5 -40t19 -33.5t30.5 -23t41 -8.5zM223 583
q0 -30 10.5 -50t31.5 -48l9 -12l14 10q28 19 42.5 40.5t14.5 49.5q0 34 -18 49.5t-44 15.5q-23 0 -41.5 -14t-18.5 -41z" />
    <glyph glyph-name="quotesingle" unicode="'" horiz-adv-x="234" 
d="M71 471l-33 254h158l-33 -254h-92z" />
    <glyph glyph-name="parenleft" unicode="(" horiz-adv-x="266" 
d="M285 725q-25 -41 -47 -90.5t-38.5 -106.5t-26 -120.5t-9.5 -132.5t9.5 -132.5t26 -120.5t38.5 -106.5t47 -90.5h-126q-22 33 -46 79t-44.5 104t-33.5 125t-13 142t13 142t33.5 124.5t44.5 104t46 79.5h126z" />
    <glyph glyph-name="parenright" unicode=")" horiz-adv-x="266" 
d="M-18 -175q25 41 47 90.5t38.5 106.5t26 120.5t9.5 132.5t-9.5 133t-26 120.5t-38.5 106t-47 90.5h126q22 -33 46.5 -79t44.5 -104t33 -125t13 -142t-13 -142t-33 -124.5t-44.5 -104t-46.5 -79.5h-126z" />
    <glyph glyph-name="asterisk" unicode="*" horiz-adv-x="375" 
d="M49 451l62 85l-101 36l33 86l97 -37v104h92v-104l99 37l34 -86l-103 -35l62 -85l-72 -54l-65 87l-59 -87z" />
    <glyph glyph-name="plus" unicode="+" horiz-adv-x="548" 
d="M214 211h-198v116h198v211h120v-211h198v-116h-198v-211h-120v211z" />
    <glyph glyph-name="comma" unicode="," horiz-adv-x="238" 
d="M108 0h-70v154h162v-164l-84 -154h-90z" />
    <glyph glyph-name="hyphen" unicode="-" horiz-adv-x="352" 
d="M43 317h266v-131h-266v131z" />
    <glyph glyph-name="period" unicode="." horiz-adv-x="238" 
d="M38 155h162v-155h-162v155z" />
    <glyph glyph-name="slash" unicode="/" horiz-adv-x="393" 
d="M244 725h149l-244 -725h-149z" />
    <glyph glyph-name="zero" unicode="0" horiz-adv-x="548" 
d="M274 87q30 0 46 16.5t23.5 47.5t9 76t1.5 102v69q0 57 -1.5 102t-9 76t-23.5 47.5t-46 16.5t-46.5 -16.5t-24 -47.5t-8.5 -76t-1 -102v-69q0 -57 1 -102t8.5 -76t24 -47.5t46.5 -16.5zM274 -12q-69 0 -114.5 19.5t-72.5 60t-38 101t-11 143.5v103q0 82 11 143t38 101.5
t72.5 60t114.5 19.5t114.5 -19.5t72.5 -60t38 -101.5t11 -143v-103q0 -83 -11 -143.5t-38 -101t-72.5 -60t-114.5 -19.5z" />
    <glyph glyph-name="one" unicode="1" horiz-adv-x="331" 
d="M124 542h-113v94q39 1 64 3.5t40.5 11t24.5 25.5t17 49h120v-725h-153v542z" />
    <glyph glyph-name="two" unicode="2" horiz-adv-x="503" 
d="M30 109l81 101q52 65 90 115t62.5 90.5t36 73.5t11.5 65q0 38 -14 61.5t-50 23.5t-50.5 -30t-14.5 -99v-9h-143v8q0 115 51.5 172t168.5 57q101 0 154.5 -45t53.5 -129q0 -41 -13.5 -82t-38 -84.5t-60 -91.5t-78.5 -103l-69 -87h263v-116h-441v109z" />
    <glyph glyph-name="three" unicode="3" horiz-adv-x="520" 
d="M244 -12q-46 0 -84.5 11t-67 36t-44.5 65t-16 98v4h143v-4q0 -54 14.5 -82.5t57.5 -28.5q27 0 43.5 9.5t25.5 25.5t12 38t3 46q0 25 -3.5 46.5t-14 37.5t-30.5 25t-53 9h-45v103h41q25 0 41 8t25 22.5t12.5 34t3.5 43.5q0 23 -2.5 42.5t-9.5 33.5t-20.5 21.5t-35.5 7.5
q-35 0 -48.5 -22t-13.5 -83v-5h-143v5q0 58 16 97t44.5 63t67.5 34t84 10q46 0 86 -9t69.5 -30.5t46.5 -57.5t17 -91q0 -38 -9.5 -66t-24.5 -48t-34 -32t-38 -18q61 -19 94 -62.5t33 -118.5q0 -60 -16.5 -101.5t-47.5 -67.5t-76 -37.5t-103 -11.5z" />
    <glyph glyph-name="four" unicode="4" horiz-adv-x="529" 
d="M269 174h-250v108l253 443h151v-434h86v-117h-86v-174h-154v174zM269 291v248l-142 -248h142z" />
    <glyph glyph-name="five" unicode="5" horiz-adv-x="508" 
d="M250 -12q-46 0 -85.5 11t-69 36t-46.5 65t-17 98v4h143v-4q0 -54 16 -82.5t59 -28.5q39 0 53.5 34t14.5 94v50q0 60 -16.5 94t-56.5 34q-28 0 -43 -18t-22 -51l-138 5l32 397h382v-116h-263l-15 -189q11 28 43 52t80 24q92 0 133 -56.5t41 -171.5v-53q0 -228 -225 -228z
" />
    <glyph glyph-name="six" unicode="6" horiz-adv-x="523" 
d="M270 -12q-69 0 -113.5 19.5t-71 60t-37 101t-10.5 143.5v103q0 82 10.5 143t37 101.5t71 60t113.5 19.5q55 0 93.5 -14.5t63 -40t35.5 -61t11 -78.5v-6h-143v5q0 54 -15.5 75t-46.5 21q-26 0 -41 -13t-22.5 -38t-9 -63t-1.5 -87v-36q11 29 41.5 53t79.5 24
q91 0 133.5 -57t42.5 -171v-36q0 -115 -53 -171.5t-168 -56.5zM262 87q40 0 56 34t16 94v32q0 60 -16 94t-56 34t-55.5 -34t-15.5 -94v-32q0 -60 15.5 -94t55.5 -34z" />
    <glyph glyph-name="seven" unicode="7" horiz-adv-x="451" 
d="M76 0q1 94 19 178.5t50 160t76 143t97 127.5h-304v116h429v-116q-58 -69 -97.5 -137.5t-64 -142t-35.5 -154.5t-11 -175h-159z" />
    <glyph glyph-name="eight" unicode="8" horiz-adv-x="539" 
d="M269 -12q-116 0 -176.5 49.5t-60.5 168.5q0 75 30.5 118.5t83.5 62.5q-14 6 -31 18t-32 32t-25 48t-10 66q0 55 17 91t47 57.5t70.5 30.5t86.5 9t86.5 -9t70.5 -30.5t47 -57.5t17 -91q0 -38 -10 -66t-25 -48t-32 -32t-31 -18q53 -19 83.5 -62.5t30.5 -118.5
q0 -60 -15.5 -101.5t-45.5 -67.5t-74 -37.5t-102 -11.5zM269 87q27 0 43 9t24.5 25t11 37.5t2.5 45.5v9q0 25 -2.5 46t-11 37t-24.5 25t-43 9t-43 -9t-24.5 -25t-11 -37t-2.5 -46v-9q0 -24 2.5 -45.5t11 -37.5t24.5 -25t43 -9zM269 427q22 0 34.5 7.5t19 21t8 32.5t1.5 42v7
q0 23 -1.5 42t-8 32.5t-19 21t-34.5 7.5t-34.5 -7.5t-19 -21t-8 -32.5t-1.5 -42v-7q0 -23 1.5 -42t8 -32.5t19 -21t34.5 -7.5z" />
    <glyph glyph-name="nine" unicode="9" horiz-adv-x="523" 
d="M253 -12q-55 0 -93.5 14.5t-63 40t-35.5 61t-11 78.5v6h143v-5q0 -54 15.5 -75t46.5 -21q26 0 41 13t22.5 38t9 62.5t1.5 87.5v36q-11 -29 -41.5 -53t-79.5 -24q-91 0 -133.5 57t-42.5 171v36q0 115 53 171.5t168 56.5q69 0 113.5 -19.5t71 -60t37 -101.5t10.5 -143v-103
q0 -83 -10.5 -143.5t-37 -101t-71 -60t-113.5 -19.5zM261 352q40 0 55.5 34t15.5 94v32q0 60 -15.5 94t-55.5 34t-56 -34t-16 -94v-32q0 -60 16 -94t56 -34z" />
    <glyph glyph-name="colon" unicode=":" horiz-adv-x="238" 
d="M38 155h162v-155h-162v155zM38 538h162v-155h-162v155z" />
    <glyph glyph-name="semicolon" unicode=";" horiz-adv-x="238" 
d="M38 538h162v-155h-162v155zM108 0h-70v154h162v-164l-84 -154h-90z" />
    <glyph glyph-name="equal" unicode="=" horiz-adv-x="548" 
d="M59 218h430v-116h-430v116zM59 436h430v-117h-430v117z" />
    <glyph glyph-name="question" unicode="?" horiz-adv-x="474" 
d="M133 254q0 37 8.5 62.5t23.5 45.5t35 37.5t43 37.5q31 27 43 52.5t12 64.5q0 49 -16.5 67t-48.5 18q-17 0 -30 -5.5t-22 -19.5t-13.5 -37.5t-4.5 -60.5v-4h-143v4q0 116 58 169t158 53q46 0 85.5 -9t69 -30.5t46.5 -56.5t17 -87q0 -35 -8 -61.5t-21 -47.5t-28 -36.5
t-28 -27.5q-21 -19 -37.5 -31.5t-28.5 -25.5t-18.5 -30t-6.5 -44v-31h-145v34zM124 155h162v-155h-162v155z" />
    <glyph glyph-name="at" unicode="@" horiz-adv-x="814" 
d="M404 -12q-77 0 -141 27t-110 76t-72 117t-26 151q0 81 29 150.5t79 120.5t116.5 80t141.5 29q69 0 130.5 -22.5t107.5 -64.5t73 -101.5t27 -133.5q0 -60 -15.5 -108.5t-41 -83t-57.5 -53t-65 -18.5q-46 0 -73 24t-31 60q-17 -38 -49.5 -62t-73.5 -24q-24 0 -48 11
t-43.5 33.5t-32 57.5t-12.5 84q0 46 13.5 90t36.5 78t55 54.5t70 20.5q21 0 37.5 -7.5t29 -19.5t21 -27t12.5 -31q2 14 2 34t2 33h72l-23 -226q-6 -55 1.5 -84t32.5 -29q19 0 38 13t34 37t24.5 58.5t9.5 78.5q0 59 -22 107t-58.5 81.5t-84.5 51.5t-101 18q-61 0 -114 -24.5
t-92 -67t-61 -99t-22 -120.5t22 -119t59.5 -95t86 -63t102.5 -23q64 0 106 11t69 28l31 -63q-37 -22 -88 -34t-114 -12zM370 235q21 0 38 13.5t29 36t19 52t7 61.5q0 48 -17.5 73.5t-48.5 25.5q-20 0 -35.5 -13t-27 -34.5t-17.5 -50.5t-6 -61q0 -51 16.5 -77t42.5 -26z" />
    <glyph glyph-name="A" unicode="A" horiz-adv-x="549" 
d="M178 725h192l174 -725h-162l-30 152h-164l-29 -152h-154zM208 253h124l-62 318z" />
    <glyph glyph-name="B" unicode="B" horiz-adv-x="547" 
d="M54 725h216q51 0 94 -8t74 -28t48 -55.5t17 -90.5q0 -38 -9.5 -65t-24.5 -45.5t-34 -29.5t-37 -17q60 -18 93.5 -58.5t33.5 -115.5q0 -64 -16.5 -105t-48 -65t-76.5 -33t-103 -9h-227v725zM271 107q31 0 49.5 8t28.5 22t13 34.5t3 44.5q0 25 -3 45.5t-13.5 34.5t-30.5 22
t-54 8h-51v-219h58zM260 423q51 0 67 26.5t16 73.5t-16 71.5t-67 24.5h-47v-196h47z" />
    <glyph glyph-name="C" unicode="C" horiz-adv-x="541" 
d="M285 -12q-73 0 -121.5 19.5t-78 60t-41.5 101t-12 143.5v103q0 82 12 143t41.5 101.5t78 60t121.5 19.5q116 0 175 -59t59 -188v-9h-158v7q0 45 -4.5 72t-14 42t-24 20t-34.5 5q-31 0 -48 -16.5t-24.5 -47.5t-9 -76t-1.5 -102v-47q0 -57 1.5 -102t9 -76t24.5 -47.5
t48 -16.5q20 0 34.5 5t24 20t14 42t4.5 72v7h158v-9q0 -129 -59 -188t-175 -59z" />
    <glyph glyph-name="D" unicode="D" horiz-adv-x="566" 
d="M233 107q44 0 70.5 8t40 32.5t17.5 70.5t4 122v47q0 75 -4 120.5t-17.5 70.5t-40 33t-70.5 8h-20v-512h20zM54 725h172q78 0 136 -12.5t96.5 -48t57 -98.5t18.5 -164v-84q0 -99 -18.5 -161t-57 -97t-96.5 -47.5t-136 -12.5h-172v725z" />
    <glyph glyph-name="E" unicode="E" horiz-adv-x="475" 
d="M54 725h399v-116h-240v-180h219v-116h-219v-197h240v-116h-399v725z" />
    <glyph glyph-name="F" unicode="F" horiz-adv-x="443" 
d="M54 725h379v-116h-220v-180h199v-116h-199v-313h-159v725z" />
    <glyph glyph-name="G" unicode="G" horiz-adv-x="578" 
d="M269 281v105h260v-386h-112l-5 81q-17 -38 -54 -65.5t-102 -27.5q-62 0 -104.5 20.5t-69 61t-38.5 101t-12 141.5v103q0 82 12.5 143t42.5 101.5t79 60t121 19.5q117 0 177.5 -58t60.5 -171v-6h-158v7q0 37 -5.5 60.5t-16 36t-26 17t-35.5 4.5q-31 0 -48 -16.5
t-24.5 -47.5t-9 -76t-1.5 -102v-47q0 -57 1.5 -102t9 -76t24.5 -47.5t48 -16.5q26 0 46.5 7.5t34 27.5t20.5 54t7 87v7h-123z" />
    <glyph glyph-name="H" unicode="H" horiz-adv-x="590" 
d="M54 725h159v-296h164v296h159v-725h-159v313h-164v-313h-159v725z" />
    <glyph glyph-name="I" unicode="I" horiz-adv-x="267" 
d="M54 725h159v-725h-159v725z" />
    <glyph glyph-name="J" unicode="J" horiz-adv-x="478" 
d="M213 -12q-108 0 -163 51.5t-55 166.5v21h159v-21q0 -34 3 -55t10 -33t17 -16t25 -4t25.5 4t17 16t10 33t3.5 55v520h159v-521q0 -66 -15.5 -108t-43 -66t-66.5 -33.5t-86 -9.5z" />
    <glyph glyph-name="K" unicode="K" horiz-adv-x="566" 
d="M268 288l-55 -85v-203h-159v725h159v-296l184 296h156l-192 -295l210 -430h-163z" />
    <glyph glyph-name="L" unicode="L" horiz-adv-x="464" 
d="M54 725h159v-609h240v-116h-399v725z" />
    <glyph glyph-name="M" unicode="M" horiz-adv-x="742" 
d="M54 725h221l96 -543l96 543h221v-725h-142v570h-2l-7 -57l-104 -513h-124l-104 513l-7 57h-2v-570h-142v725z" />
    <glyph glyph-name="N" unicode="N" horiz-adv-x="590" 
d="M54 725h184l157 -521v521h141v-725h-184l-157 521v-521h-141v725z" />
    <glyph glyph-name="O" unicode="O" horiz-adv-x="570" 
d="M285 629q-31 0 -48 -16.5t-25 -47.5t-9.5 -76t-1.5 -102v-47q0 -57 1.5 -102t9.5 -76t25 -47.5t48 -16.5t48 16.5t25 47.5t9.5 76t1.5 102v47q0 57 -1.5 102t-9.5 76t-25 47.5t-48 16.5zM285 -12q-73 0 -121.5 19.5t-78 60t-41.5 101t-12 143.5v103q0 82 12 143
t41.5 101.5t78 60t121.5 19.5t121.5 -19.5t77.5 -60t41.5 -101.5t12.5 -143v-103q0 -83 -12.5 -143.5t-41.5 -101t-77.5 -60t-121.5 -19.5z" />
    <glyph glyph-name="P" unicode="P" horiz-adv-x="531" 
d="M54 725h206q58 0 106.5 -7.5t82.5 -31t53 -66t19 -111.5t-19 -112.5t-53 -68t-82.5 -33t-106.5 -8.5h-47v-287h-159v725zM240 394q33 0 55 4t34.5 16t17.5 34t5 58t-5 58.5t-17.5 34.5t-34.5 16t-55 4h-27v-225h27z" />
    <glyph glyph-name="Q" unicode="Q" horiz-adv-x="570" 
d="M285 -12q-73 0 -121.5 19.5t-78 60t-41.5 101t-12 143.5v103q0 82 12 143t41.5 101.5t78 60t121.5 19.5t121.5 -19.5t77.5 -60t41.5 -101.5t12.5 -143v-103q0 -97 -16.5 -163.5t-58.5 -105.5l72 -96l-88 -65l-85 113q-17 -3 -36.5 -5t-40.5 -2zM285 629q-31 0 -48 -16.5
t-25 -47.5t-9.5 -76t-1.5 -102v-47q0 -57 1.5 -102t9.5 -76t25 -47.5t48 -16.5t48 16.5t25 47.5t9.5 76t1.5 102v47q0 57 -1.5 102t-9.5 76t-25 47.5t-48 16.5z" />
    <glyph glyph-name="R" unicode="R" horiz-adv-x="564" 
d="M280 313q-6 -1 -12 -1h-55v-312h-159v725h206q71 0 122.5 -9t84.5 -31.5t49 -61t16 -97.5q0 -75 -28.5 -116t-80.5 -62l119 -348h-164zM259 409q33 0 54 4.5t33 16t16 31.5t4 52t-4 52.5t-16 32.5t-33 16.5t-54 4.5h-46v-210h46z" />
    <glyph glyph-name="S" unicode="S" horiz-adv-x="522" 
d="M268 -12q-129 0 -186.5 63.5t-57.5 179.5v7h157v-7q0 -72 18.5 -104t68.5 -32q40 0 59.5 21t19.5 72q0 42 -22.5 66.5t-61.5 42.5l-62 28q-42 19 -74 39t-53.5 45.5t-32 59t-10.5 79.5q0 49 16 85t44.5 59.5t69 35t90.5 11.5q54 0 98 -11.5t74.5 -37t47.5 -67t17 -102.5
v-4h-155v4q0 64 -20.5 88.5t-62.5 24.5q-34 0 -50 -21t-16 -60q0 -34 12.5 -54.5t42.5 -33.5l70 -32q41 -18 76.5 -36.5t61.5 -44t41 -60t15 -84.5q0 -111 -62 -165.5t-173 -54.5z" />
    <glyph glyph-name="T" unicode="T" horiz-adv-x="477" 
d="M159 609h-148v116h455v-116h-148v-609h-159v609z" />
    <glyph glyph-name="U" unicode="U" horiz-adv-x="560" 
d="M280 -12q-75 0 -121.5 14t-72 48.5t-34 91.5t-8.5 144v439h159v-439q0 -48 1 -83t8 -58.5t22.5 -35t45.5 -11.5t45.5 11.5t22.5 35t8 58.5t1 83v439h159v-431q0 -90 -8.5 -149t-34 -94t-72 -49t-121.5 -14z" />
    <glyph glyph-name="V" unicode="V" horiz-adv-x="509" 
d="M5 725h163l91 -564l91 564h154l-153 -725h-192z" />
    <glyph glyph-name="W" unicode="W" horiz-adv-x="730" 
d="M11 725h144l57 -550l86 550h134l86 -550l57 550h144l-91 -725h-180l-83 548l-83 -548h-180z" />
    <glyph glyph-name="X" unicode="X" horiz-adv-x="531" 
d="M189 371l-170 354h169l80 -198l87 198h161l-172 -337l187 -388h-167l-99 233l-106 -233h-159z" />
    <glyph glyph-name="Y" unicode="Y" horiz-adv-x="520" 
d="M178 303l-178 422h161l99 -282l102 282h158l-183 -424v-301h-159v303z" />
    <glyph glyph-name="Z" unicode="Z" horiz-adv-x="514" 
d="M22 107l281 502h-250v116h424v-106l-282 -503h292v-116h-465v107z" />
    <glyph glyph-name="bracketleft" unicode="[" horiz-adv-x="296" 
d="M54 725h237v-100h-114v-699h114v-101h-237v900z" />
    <glyph glyph-name="bracketright" unicode="]" horiz-adv-x="296" 
d="M5 -74h114v699h-114v100h237v-900h-237v101z" />
    <glyph glyph-name="underscore" unicode="_" horiz-adv-x="490" 
d="M22 9h447v-131h-447v131z" />
    <glyph glyph-name="grave" unicode="`" horiz-adv-x="279" 
d="M22 725h174l62 -123h-94z" />
    <glyph glyph-name="a" unicode="a" horiz-adv-x="479" 
d="M170 -12q-66 0 -105 40.5t-39 110.5v6q0 33 11 59.5t40 50t80.5 45.5t132.5 47v30q0 42 -13 63t-45 21q-35 0 -50 -20.5t-15 -62.5v-9h-134v9q0 39 14.5 71.5t41 56t64.5 36.5t86 13t86 -9t64 -31t39 -59t13 -92l-1 -189q0 -51 0.5 -94t7.5 -81h-138l-4 72
q-36 -84 -136 -84zM228 84q15 0 27 7t21 24t13.5 45t4.5 69v35q-41 -12 -64.5 -23.5t-35 -23.5t-14 -25.5t-2.5 -29.5v-9q0 -31 12 -50t38 -19z" />
    <glyph glyph-name="b" unicode="b" horiz-adv-x="520" 
d="M334 285q0 40 -1.5 71t-8 52t-19 32t-33.5 11q-25 0 -40.5 -12.5t-24.5 -36t-12 -56.5t-3 -75t3 -75t12 -56t24.5 -35.5t40.5 -12.5q21 0 33.5 10.5t19 31.5t8 52t1.5 72v27zM491 235q0 -124 -39.5 -185.5t-127.5 -61.5q-45 0 -79 22.5t-48 57.5v-68h-154v725h154v-250
q14 35 48 57.5t79 22.5q88 0 127.5 -61.5t39.5 -185.5v-73z" />
    <glyph glyph-name="c" unicode="c" horiz-adv-x="464" 
d="M245 -12q-112 0 -164 61t-52 182v82q0 120 52 181t164 61q40 0 77 -9.5t65 -32.5t44.5 -61.5t16.5 -96.5v-4h-143v4q0 31 -4 50.5t-11.5 31t-19 15.5t-25.5 4q-22 0 -34 -10.5t-17.5 -31t-6.5 -50.5t-1 -69v-47q0 -39 1 -69t6.5 -50.5t17.5 -31t34 -10.5q15 0 26 4
t18.5 15.5t11.5 31t4 51.5v3h143v-4q0 -58 -16.5 -96.5t-44.5 -61.5t-65 -32.5t-77 -9.5z" />
    <glyph glyph-name="d" unicode="d" horiz-adv-x="520" 
d="M29 308q0 124 39.5 185.5t127.5 61.5q45 0 79 -22.5t48 -57.5v250h154v-725h-154v68q-14 -35 -48 -57.5t-79 -22.5q-88 0 -127.5 61.5t-39.5 185.5v73zM186 258q0 -41 1.5 -72t8 -52t19 -31.5t33.5 -10.5q25 0 40.5 12.5t24.5 35.5t12 56t3 75t-3 75t-12 56.5t-24.5 36
t-40.5 12.5q-21 0 -33.5 -11t-19 -32t-8 -52t-1.5 -71v-27z" />
    <glyph glyph-name="e" unicode="e" horiz-adv-x="491" 
d="M245 -12q-113 0 -164.5 62.5t-51.5 177.5v89q0 117 54 177.5t166 60.5q61 0 102 -16.5t66 -50t36 -84t11 -119.5v-29h-283v-8q0 -39 2 -69t9 -50.5t20.5 -31t35.5 -10.5q14 0 26 3.5t21 13.5t14 27.5t5 46.5v4h143v-5q0 -55 -18.5 -91.5t-48.5 -58t-68 -30.5t-77 -9z
M181 338h142v9q0 60 -14.5 86t-56.5 26q-41 0 -56 -26t-15 -86v-9z" />
    <glyph glyph-name="f" unicode="f" horiz-adv-x="312" 
d="M62 443h-64v95h64v43q0 46 11 74.5t33 44t55 20.5t78 5h68v-91h-37q-31 0 -42.5 -9.5t-11.5 -41.5v-45h91v-95h-91v-443h-154v443z" />
    <glyph glyph-name="g" unicode="g" horiz-adv-x="525" 
d="M252 -194q-43 0 -80.5 9.5t-65 29.5t-43.5 51.5t-16 75.5v2h141v-2q0 -33 19 -49t49 -16q18 0 31.5 3.5t22.5 14.5t13.5 30t4.5 51v92q-14 -34 -42.5 -56.5t-73.5 -22.5q-83 0 -133 56t-50 172v70q0 122 49 180t134 58q45 0 73.5 -23t42.5 -57v63h154v-490
q0 -129 -56 -185.5t-174 -56.5zM253 123q28 0 44 11t24 31.5t10.5 49.5t2.5 65q0 42 -2.5 73.5t-10.5 53.5t-24 33t-44 11q-23 0 -36 -10.5t-20 -30t-9 -48t-2 -64.5v-22q0 -36 2 -64.5t9 -48t20 -30t36 -10.5z" />
    <glyph glyph-name="h" unicode="h" horiz-adv-x="499" 
d="M43 0v725h154v-250q19 42 52.5 61t80.5 19q72 0 100.5 -47t28.5 -136v-372h-154v342q0 22 -1 41t-5.5 33t-13.5 22t-25 8q-23 0 -35.5 -12.5t-18.5 -33.5t-7.5 -49.5t-1.5 -60.5v-290h-154z" />
    <glyph glyph-name="i" unicode="i" 
d="M43 725h154v-128h-154v128zM43 538h154v-538h-154v538z" />
    <glyph glyph-name="j" unicode="j" 
d="M-29 -82h28q16 0 24.5 4t13 13t5.5 24t1 37v542h154v-533q0 -57 -10.5 -92t-33 -54.5t-57.5 -26.5t-83 -7h-42v93zM43 725h154v-128h-154v128z" />
    <glyph glyph-name="k" unicode="k" horiz-adv-x="473" 
d="M250 206l-53 -74v-132h-154v725h154v-399l149 212h141l-148 -207l152 -331h-147z" />
    <glyph glyph-name="l" unicode="l" 
d="M43 725h154v-725h-154v725z" />
    <glyph glyph-name="m" unicode="m" horiz-adv-x="761" 
d="M197 0h-154v538h154v-63q19 42 52.5 61t80.5 19q51 0 78.5 -22.5t39.5 -67.5q23 52 61 71t83 19q72 0 100.5 -47t28.5 -136v-372h-154v342q0 22 -1 41t-5.5 33t-13.5 22t-25 8q-23 0 -35.5 -12.5t-18.5 -33.5t-7.5 -49.5t-1.5 -60.5v-290h-154v342q0 22 -1 41t-5.5 33
t-13.5 22t-25 8q-23 0 -35.5 -12.5t-18.5 -33.5t-7.5 -49.5t-1.5 -60.5v-290z" />
    <glyph glyph-name="n" unicode="n" horiz-adv-x="499" 
d="M43 0v538h154v-63q19 42 52.5 61t80.5 19q72 0 100.5 -47t28.5 -136v-372h-154v342q0 22 -1 41t-5.5 33t-13.5 22t-25 8q-23 0 -35.5 -12.5t-18.5 -33.5t-7.5 -49.5t-1.5 -60.5v-290h-154z" />
    <glyph glyph-name="o" unicode="o" horiz-adv-x="498" 
d="M249 456q-22 0 -34.5 -10.5t-19 -31t-8 -50.5t-1.5 -69v-47q0 -39 1.5 -69t8 -50.5t19 -31t34.5 -10.5t34.5 10.5t19 31t8 50.5t1.5 69v47q0 39 -1.5 69t-8 50.5t-19 31t-34.5 10.5zM249 -12q-113 0 -166.5 61t-53.5 181v83q0 120 53.5 181t166.5 61t166.5 -61t53.5 -181
v-83q0 -120 -53.5 -181t-166.5 -61z" />
    <glyph glyph-name="p" unicode="p" horiz-adv-x="520" 
d="M334 285q0 40 -1.5 71t-8 52t-19 32t-33.5 11q-25 0 -40.5 -12.5t-24.5 -36t-12 -56.5t-3 -75t3 -75t12 -56t24.5 -35.5t40.5 -12.5q21 0 33.5 10.5t19 31.5t8 52t1.5 72v27zM491 235q0 -124 -39.5 -185.5t-127.5 -61.5q-45 0 -79 22.5t-48 57.5v-243h-154v713h154v-63
q14 35 48 57.5t79 22.5q88 0 127.5 -61.5t39.5 -185.5v-73z" />
    <glyph glyph-name="q" unicode="q" horiz-adv-x="520" 
d="M29 308q0 124 39.5 185.5t127.5 61.5q45 0 79 -22.5t48 -57.5v63h154v-713h-154v243q-14 -35 -48 -57.5t-79 -22.5q-88 0 -127.5 61.5t-39.5 185.5v73zM186 258q0 -41 1.5 -72t8 -52t19 -31.5t33.5 -10.5q25 0 40.5 12.5t24.5 35.5t12 56t3 75t-3 75t-12 56.5t-24.5 36
t-40.5 12.5q-21 0 -33.5 -11t-19 -32t-8 -52t-1.5 -71v-27z" />
    <glyph glyph-name="r" unicode="r" horiz-adv-x="338" 
d="M43 538h152v-121q5 21 14 43t22.5 39.5t32.5 28t45 10.5h19v-157h-40q-27 0 -45 -3.5t-28 -14.5t-14 -32t-4 -56v-275h-154v538z" />
    <glyph glyph-name="s" unicode="s" horiz-adv-x="459" 
d="M237 -12q-105 0 -160 51.5t-55 137.5v3h140v-4q0 -42 19 -65.5t56 -23.5q28 0 46 12t18 41t-15.5 44t-50.5 28l-81 31q-60 23 -93 58t-32 98q0 41 16 70.5t43.5 48.5t64 28t77.5 9q37 0 72 -9t62.5 -29.5t44 -53.5t16.5 -82v-2h-136v2q0 23 -6 37.5t-16 23t-22.5 12
t-24.5 3.5q-25 -1 -40 -13.5t-15 -34.5q0 -26 12 -38.5t34 -20.5l74 -30q34 -13 62 -26t48.5 -31t32 -44t11.5 -65q0 -42 -16 -73.5t-43 -52t-64 -30.5t-79 -10z" />
    <glyph glyph-name="t" unicode="t" horiz-adv-x="335" 
d="M199 0q-40 0 -66 7.5t-41.5 25t-21.5 45t-6 67.5v298h-64v95h64v146h154v-146h91v-95h-91v-283q0 -41 11.5 -53t40.5 -12h39v-95h-110z" />
    <glyph glyph-name="u" unicode="u" horiz-adv-x="492" 
d="M182 -11q-79 0 -110.5 47.5t-31.5 147.5v354h154v-313q0 -26 0.5 -50t5 -42t13.5 -28.5t26 -10.5q21 0 32.5 12.5t17 33.5t6 49.5t0.5 60.5v288h154v-538h-149v72q-19 -42 -47 -62.5t-71 -20.5z" />
    <glyph glyph-name="v" unicode="v" horiz-adv-x="436" 
d="M0 538h151l66 -387l75 387h144l-128 -538h-188z" />
    <glyph glyph-name="w" unicode="w" horiz-adv-x="602" 
d="M20 538h128l30 -372l52 372h141l53 -371l30 371h128l-61 -538h-165l-55 408l-56 -408h-164z" />
    <glyph glyph-name="x" unicode="x" horiz-adv-x="485" 
d="M156 0h-146l160 273l-149 265h154l71 -134l74 134h145l-149 -256l159 -282h-156l-80 149z" />
    <glyph glyph-name="y" unicode="y" horiz-adv-x="430" 
d="M43 -80h38q34 0 48.5 14t19.5 43l5 26l-154 535h150l77 -389l63 389h140l-126 -538q-12 -52 -27 -86t-37.5 -53.5t-55 -27.5t-78.5 -8h-63v95z" />
    <glyph glyph-name="z" unicode="z" horiz-adv-x="423" 
d="M22 95l213 348h-190v95h349v-95l-213 -348h221v-95h-380v95z" />
    <glyph glyph-name="braceleft" unicode="{" horiz-adv-x="321" 
d="M311 725v-110h-16q-51 0 -66 -16.5t-15 -54.5v-132q0 -35 -7.5 -58.5t-20 -39.5t-30 -25t-37.5 -14v-2q20 -5 37.5 -14t30 -24.5t20 -39t7.5 -58.5v-131q0 -19 3 -32.5t12 -22t24.5 -12.5t41.5 -4h16v-110h-30q-52 0 -89.5 7.5t-62 27t-36 53t-11.5 85.5v118
q0 23 -2.5 42t-11 32.5t-23.5 21t-40 7.5v110q25 0 40 7.5t23.5 21t11 32.5t2.5 42v120q0 52 11.5 85.5t36 53t62 27t89.5 7.5h30z" />
    <glyph glyph-name="bar" unicode="|" horiz-adv-x="248" 
d="M54 725h140v-815h-140v815z" />
    <glyph glyph-name="braceright" unicode="}" horiz-adv-x="321" 
d="M40 725q52 0 89.5 -7.5t62 -27t36 -53t11.5 -85.5v-120q0 -23 2.5 -42t11 -32.5t23.5 -21t40 -7.5v-110q-25 0 -40 -7.5t-23.5 -21t-11 -32.5t-2.5 -42v-118q0 -52 -11.5 -85.5t-36 -53t-62 -27t-89.5 -7.5h-30v110h16q25 0 41 4t25 12.5t12 22t3 32.5v131q0 35 7.5 58.5
t20 39t30 24.5t37.5 14v2q-20 5 -37.5 14t-30 25t-20 39.5t-7.5 58.5v132q0 38 -15 54.5t-66 16.5h-16v110h30z" />
    <glyph glyph-name="uni00A0" unicode="&#xa0;" horiz-adv-x="180" 
 />
    <glyph glyph-name="exclamdown" unicode="&#xa1;" horiz-adv-x="248" 
d="M47 11l23 319h108l23 -319v-186h-154v186zM43 538h162v-155h-162v155z" />
    <glyph glyph-name="sterling" unicode="&#xa3;" horiz-adv-x="512" 
d="M25 391h94q-19 40 -37 80t-18 92q0 90 57.5 133t155.5 43q103 0 155 -52.5t52 -169.5v-4h-144v10q0 69 -15.5 93t-49.5 24q-36 0 -47.5 -22t-11.5 -59q0 -47 16.5 -87.5t33.5 -80.5h163v-79h-139q1 -7 1.5 -13.5t0.5 -13.5q0 -55 -21.5 -95t-59.5 -62l1 -2q18 7 32.5 8
t27.5 -1q15 -2 28 -7.5t25.5 -10.5t25.5 -9t28 -4q26 1 44.5 8.5t32.5 16.5l46 -95q-35 -23 -63 -32.5t-53 -9.5t-44.5 6t-37.5 13.5t-35 13.5t-38 6q-26 0 -61 -8.5t-79 -32.5l-52 105q65 36 89 76.5t24 91.5q0 27 -6 51h-121v79z" />
    <glyph glyph-name="yen" unicode="&#xa5;" horiz-adv-x="520" 
d="M49 317h126l-175 408h158l102 -282l105 282h155l-179 -408h126v-74h-133v-81h133v-73h-133v-89h-153v89h-132v73h132v81h-132v74z" />
    <glyph glyph-name="dieresis" unicode="&#xa8;" horiz-adv-x="377" 
d="M22 725h134v-123h-134v123zM222 725h134v-123h-134v123z" />
    <glyph glyph-name="copyright" unicode="&#xa9;" horiz-adv-x="825" 
d="M412 48q64 0 119.5 23.5t96 65.5t63.5 100.5t23 127.5t-23 126.5t-63.5 99.5t-96 65t-119.5 23q-65 0 -120 -23t-95 -65t-63 -99.5t-23 -126.5t23 -127.5t63 -100.5t95 -65.5t120 -23.5zM412 -12q-76 0 -143 28t-117.5 78.5t-79.5 119.5t-29 151t29 151t79.5 118.5
t117.5 77t143 27.5t143 -27.5t117.5 -77t80 -118.5t29.5 -151t-29.5 -151t-80 -119.5t-117.5 -78.5t-143 -28zM416 152q-45 0 -74 11t-46.5 33.5t-24 56.5t-6.5 80v65q0 46 6.5 80t24 56.5t46.5 34t74 11.5q71 0 105.5 -33t34.5 -112v-7h-116v5q0 25 -1 38.5t-4 20t-8 7.5
t-12 1q-12 0 -17.5 -8.5t-7 -24t-1 -37.5t0.5 -49v-31q0 -28 -0.5 -50.5t1 -38t7 -23.5t17.5 -8q7 0 12 1t8 7t4 19.5t1 38.5v5h116v-5q0 -80 -34.5 -112t-105.5 -32z" />
    <glyph glyph-name="guillemotleft" unicode="&#xab;" horiz-adv-x="395" 
d="M30 192v180l151 148v-172l-73 -67l73 -67v-173zM214 192v180l151 148v-172l-73 -67l73 -67v-173z" />
    <glyph glyph-name="uni00AD" unicode="&#xad;" horiz-adv-x="352" 
d="M43 317h266v-131h-266v131z" />
    <glyph glyph-name="macron" unicode="&#xaf;" horiz-adv-x="295" 
d="M22 713h252v-101h-252v101z" />
    <glyph glyph-name="degree" unicode="&#xb0;" horiz-adv-x="336" 
d="M168 498q33 0 54 23t21 55q0 33 -21 56.5t-54 23.5q-32 0 -52.5 -23.5t-20.5 -56.5q0 -32 20.5 -55t52.5 -23zM168 416q-33 0 -62 12.5t-51 34.5t-34.5 51t-12.5 62q0 34 12.5 63.5t34.5 51.5t51 34.5t62 12.5t62.5 -12.5t51.5 -34.5t34.5 -51.5t12.5 -63.5
q0 -33 -12.5 -62t-34.5 -51t-51.5 -34.5t-62.5 -12.5z" />
    <glyph glyph-name="acute" unicode="&#xb4;" horiz-adv-x="279" 
d="M84 725h174l-142 -123h-94z" />
    <glyph glyph-name="periodcentered" unicode="&#xb7;" horiz-adv-x="238" 
d="M38 347h162v-155h-162v155z" />
    <glyph glyph-name="cedilla" unicode="&#xb8;" horiz-adv-x="267" 
d="M117 -194q-24 0 -48 3.5t-47 11.5l17 51q11 -6 28.5 -10t34.5 -4q20 0 35.5 6t15.5 23q0 14 -11 21t-28 7q-9 0 -20 -2t-19 -7l-30 17l51 83h58l-32 -52q13 4 38 4q15 0 30.5 -4.5t28 -12.5t20 -21t7.5 -30q0 -22 -11 -37.5t-29 -26t-41.5 -15.5t-47.5 -5z" />
    <glyph glyph-name="guillemotright" unicode="&#xbb;" horiz-adv-x="395" 
d="M30 214l73 67l-73 67v172l151 -148v-180l-151 -151v173zM214 214l73 67l-73 67v172l151 -148v-180l-151 -151v173z" />
    <glyph glyph-name="questiondown" unicode="&#xbf;" horiz-adv-x="474" 
d="M238 -188q-46 0 -85.5 9t-69 30.5t-46.5 56.5t-17 87q0 34 8 61t21 48t27.5 36.5t28.5 27.5q21 19 37.5 31.5t28.5 25.5t18.5 30t6.5 44v32h145v-35q0 -37 -9 -62.5t-24 -45.5t-35 -37.5t-42 -37.5q-31 -27 -43 -52.5t-12 -64.5q0 -49 16.5 -67t48.5 -18q17 0 30 5.5
t22 19.5t13.5 37.5t4.5 60.5v4h143v-4q0 -116 -58 -169t-158 -53zM188 538h162v-155h-162v155z" />
    <glyph glyph-name="Agrave" unicode="&#xc0;" horiz-adv-x="549" 
d="M110 886h188l55 -113h-112zM178 725h192l174 -725h-162l-30 152h-164l-29 -152h-154zM208 253h124l-62 318z" />
    <glyph glyph-name="Aacute" unicode="&#xc1;" horiz-adv-x="549" 
d="M252 886h188l-131 -113h-112zM178 725h192l174 -725h-162l-30 152h-164l-29 -152h-154zM208 253h124l-62 318z" />
    <glyph glyph-name="Acircumflex" unicode="&#xc2;" horiz-adv-x="549" 
d="M178 725h192l174 -725h-162l-30 152h-164l-29 -152h-154zM208 253h124l-62 318zM204 886h140l118 -113h-138l-50 49l-50 -49h-138z" />
    <glyph glyph-name="Atilde" unicode="&#xc3;" horiz-adv-x="549" 
d="M178 725h192l174 -725h-162l-30 152h-164l-29 -152h-154zM208 253h124l-62 318zM326 861q30 0 31 33h83q-4 -57 -33 -90t-72 -33q-15 0 -29 5t-28 11.5t-27.5 11.5t-26.5 5q-30 0 -31 -33h-83q4 57 33 90t72 33q17 0 32.5 -5t29.5 -11.5t26 -11.5t23 -5z" />
    <glyph glyph-name="Adieresis" unicode="&#xc4;" horiz-adv-x="549" 
d="M178 725h192l174 -725h-162l-30 152h-164l-29 -152h-154zM208 253h124l-62 318zM108 886h134v-113h-134v113zM308 886h134v-113h-134v113z" />
    <glyph glyph-name="Aring" unicode="&#xc5;" horiz-adv-x="549" 
d="M178 725h192l174 -725h-162l-30 152h-164l-29 -152h-154zM208 253h124l-62 318zM275 808q17 0 30 11.5t13 30.5t-13 31t-30 12t-30 -12t-13 -31t13 -30.5t30 -11.5zM275 765q-38 0 -64 24t-26 61t26.5 61t63.5 24t63.5 -24t26.5 -61t-26 -61t-64 -24z" />
    <glyph glyph-name="AE" unicode="&#xc6;" horiz-adv-x="837" 
d="M417 725h398v-116h-240v-181h218v-116h-218v-196h240v-116h-398v147h-174l-75 -147h-168zM303 264h114v220z" />
    <glyph glyph-name="Ccedilla" unicode="&#xc7;" horiz-adv-x="541" 
d="M285 -12q-73 0 -121.5 19.5t-78 60t-41.5 101t-12 143.5v103q0 82 12 143t41.5 101.5t78 60t121.5 19.5q116 0 175 -59t59 -188v-9h-158v7q0 45 -4.5 72t-14 42t-24 20t-34.5 5q-31 0 -48 -16.5t-24.5 -47.5t-9 -76t-1.5 -102v-47q0 -57 1.5 -102t9 -76t24.5 -47.5
t48 -16.5q20 0 34.5 5t24 20t14 42t4.5 72v7h158v-9q0 -129 -59 -188t-175 -59zM279 -194q-23 0 -47.5 3.5t-47.5 11.5l17 51q11 -6 28.5 -10t34.5 -4q20 0 35.5 6t15.5 23q0 14 -11 21t-28 7q-9 0 -20 -2t-19 -7l-30 17l51 83h58l-32 -52q13 4 38 4q16 0 31.5 -4.5
t27.5 -12.5t19.5 -21t7.5 -30q0 -22 -11 -37.5t-29 -26t-41.5 -15.5t-47.5 -5z" />
    <glyph glyph-name="Egrave" unicode="&#xc8;" horiz-adv-x="475" 
d="M88 886h188l55 -113h-112zM54 725h399v-116h-240v-180h219v-116h-219v-197h240v-116h-399v725z" />
    <glyph glyph-name="Eacute" unicode="&#xc9;" horiz-adv-x="475" 
d="M234 886h188l-131 -113h-112zM54 725h399v-116h-240v-180h219v-116h-219v-197h240v-116h-399v725z" />
    <glyph glyph-name="Ecircumflex" unicode="&#xca;" horiz-adv-x="475" 
d="M182 886h140l118 -113h-138l-50 49l-50 -49h-138zM54 725h399v-116h-240v-180h219v-116h-219v-197h240v-116h-399v725z" />
    <glyph glyph-name="Edieresis" unicode="&#xcb;" horiz-adv-x="475" 
d="M90 886h134v-113h-134v113zM290 886h134v-113h-134v113zM54 725h399v-116h-240v-180h219v-116h-219v-197h240v-116h-399v725z" />
    <glyph glyph-name="Igrave" unicode="&#xcc;" horiz-adv-x="267" 
d="M-39 886h188l55 -113h-112zM54 725h159v-725h-159v725z" />
    <glyph glyph-name="Iacute" unicode="&#xcd;" horiz-adv-x="267" 
d="M121 886h188l-131 -113h-112zM54 725h159v-725h-159v725z" />
    <glyph glyph-name="Icircumflex" unicode="&#xce;" horiz-adv-x="267" 
d="M65 888h140l108 -113h-128l-50 49l-50 -49h-128zM54 725h159v-725h-159v725z" />
    <glyph glyph-name="Idieresis" unicode="&#xcf;" horiz-adv-x="267" 
d="M-23 888h134v-113h-134v113zM157 888h134v-113h-134v113zM54 725h159v-725h-159v725z" />
    <glyph glyph-name="Eth" unicode="&#xd0;" horiz-adv-x="566" 
d="M-18 425h72v300h172q78 0 136 -12.5t96.5 -48t57 -98.5t18.5 -164v-84q0 -99 -18.5 -161t-57 -97t-96.5 -47.5t-136 -12.5h-172v307h-72v118zM233 107q44 0 70.5 8t40 32.5t17.5 70.5t4 122v47q0 75 -4 120.5t-17.5 70.5t-40 33t-70.5 8h-20v-194h91v-118h-91v-200h20z
" />
    <glyph glyph-name="Ntilde" unicode="&#xd1;" horiz-adv-x="590" 
d="M54 725h184l157 -521v521h141v-725h-184l-157 521v-521h-141v725zM346 861q30 0 31 33h83q-4 -57 -33 -90t-72 -33q-15 0 -29 5t-28 11.5t-27.5 11.5t-26.5 5q-30 0 -31 -33h-83q4 57 33 90t72 33q17 0 32.5 -5t29.5 -11.5t26 -11.5t23 -5z" />
    <glyph glyph-name="Ograve" unicode="&#xd2;" horiz-adv-x="570" 
d="M285 629q-31 0 -48 -16.5t-25 -47.5t-9.5 -76t-1.5 -102v-47q0 -57 1.5 -102t9.5 -76t25 -47.5t48 -16.5t48 16.5t25 47.5t9.5 76t1.5 102v47q0 57 -1.5 102t-9.5 76t-25 47.5t-48 16.5zM285 -12q-73 0 -121.5 19.5t-78 60t-41.5 101t-12 143.5v103q0 82 12 143
t41.5 101.5t78 60t121.5 19.5t121.5 -19.5t77.5 -60t41.5 -101.5t12.5 -143v-103q0 -83 -12.5 -143.5t-41.5 -101t-77.5 -60t-121.5 -19.5zM119 886h188l55 -113h-112z" />
    <glyph glyph-name="Oacute" unicode="&#xd3;" horiz-adv-x="570" 
d="M285 629q-31 0 -48 -16.5t-25 -47.5t-9.5 -76t-1.5 -102v-47q0 -57 1.5 -102t9.5 -76t25 -47.5t48 -16.5t48 16.5t25 47.5t9.5 76t1.5 102v47q0 57 -1.5 102t-9.5 76t-25 47.5t-48 16.5zM285 -12q-73 0 -121.5 19.5t-78 60t-41.5 101t-12 143.5v103q0 82 12 143
t41.5 101.5t78 60t121.5 19.5t121.5 -19.5t77.5 -60t41.5 -101.5t12.5 -143v-103q0 -83 -12.5 -143.5t-41.5 -101t-77.5 -60t-121.5 -19.5zM281 886h188l-131 -113h-112z" />
    <glyph glyph-name="Ocircumflex" unicode="&#xd4;" horiz-adv-x="570" 
d="M223 886h140l118 -113h-138l-50 49l-50 -49h-138zM285 629q-31 0 -48 -16.5t-25 -47.5t-9.5 -76t-1.5 -102v-47q0 -57 1.5 -102t9.5 -76t25 -47.5t48 -16.5t48 16.5t25 47.5t9.5 76t1.5 102v47q0 57 -1.5 102t-9.5 76t-25 47.5t-48 16.5zM285 -12q-73 0 -121.5 19.5
t-78 60t-41.5 101t-12 143.5v103q0 82 12 143t41.5 101.5t78 60t121.5 19.5t121.5 -19.5t77.5 -60t41.5 -101.5t12.5 -143v-103q0 -83 -12.5 -143.5t-41.5 -101t-77.5 -60t-121.5 -19.5z" />
    <glyph glyph-name="Otilde" unicode="&#xd5;" horiz-adv-x="570" 
d="M285 629q-31 0 -48 -16.5t-25 -47.5t-9.5 -76t-1.5 -102v-47q0 -57 1.5 -102t9.5 -76t25 -47.5t48 -16.5t48 16.5t25 47.5t9.5 76t1.5 102v47q0 57 -1.5 102t-9.5 76t-25 47.5t-48 16.5zM285 -12q-73 0 -121.5 19.5t-78 60t-41.5 101t-12 143.5v103q0 82 12 143
t41.5 101.5t78 60t121.5 19.5t121.5 -19.5t77.5 -60t41.5 -101.5t12.5 -143v-103q0 -83 -12.5 -143.5t-41.5 -101t-77.5 -60t-121.5 -19.5zM338 861q30 0 31 33h83q-4 -57 -33 -90t-72 -33q-15 0 -29 5t-28 11.5t-27.5 11.5t-26.5 5q-30 0 -31 -33h-83q4 57 33 90t72 33
q17 0 32.5 -5t29.5 -11.5t26 -11.5t23 -5z" />
    <glyph glyph-name="Odieresis" unicode="&#xd6;" horiz-adv-x="570" 
d="M285 629q-31 0 -48 -16.5t-25 -47.5t-9.5 -76t-1.5 -102v-47q0 -57 1.5 -102t9.5 -76t25 -47.5t48 -16.5t48 16.5t25 47.5t9.5 76t1.5 102v47q0 57 -1.5 102t-9.5 76t-25 47.5t-48 16.5zM285 -12q-73 0 -121.5 19.5t-78 60t-41.5 101t-12 143.5v103q0 82 12 143
t41.5 101.5t78 60t121.5 19.5t121.5 -19.5t77.5 -60t41.5 -101.5t12.5 -143v-103q0 -83 -12.5 -143.5t-41.5 -101t-77.5 -60t-121.5 -19.5zM127 886h134v-113h-134v113zM327 886h134v-113h-134v113z" />
    <glyph glyph-name="multiply" unicode="&#xd7;" horiz-adv-x="548" 
d="M42 114l150 150l-152 153l82 83l153 -154l152 152l82 -82l-152 -152l152 -152l-82 -82l-153 152l-152 -152z" />
    <glyph glyph-name="Oslash" unicode="&#xd8;" horiz-adv-x="570" 
d="M69 -60l43 98q-45 38 -62.5 106t-17.5 168v103q0 82 12 143t41.5 101.5t78 60t121.5 19.5q75 0 127 -23l35 78h58l-47 -106q45 -38 62.5 -106t17.5 -167v-103q0 -83 -12.5 -143.5t-41.5 -101t-77.5 -60t-121.5 -19.5q-77 0 -127 22l-31 -70h-58zM285 629q-31 0 -48 -16.5
t-25 -47.5t-9.5 -76t-1.5 -102v-100q0 -24 1 -46l151 340q-9 23 -25.5 35.5t-42.5 12.5zM369 438q0 24 -1 46l-151 -340q9 -23 25 -34.5t43 -11.5q31 0 48 16.5t25 47.5t9.5 76t1.5 102v98z" />
    <glyph glyph-name="Ugrave" unicode="&#xd9;" horiz-adv-x="560" 
d="M94 886h188l55 -113h-112zM280 -12q-75 0 -121.5 14t-72 48.5t-34 91.5t-8.5 144v439h159v-439q0 -48 1 -83t8 -58.5t22.5 -35t45.5 -11.5t45.5 11.5t22.5 35t8 58.5t1 83v439h159v-431q0 -90 -8.5 -149t-34 -94t-72 -49t-121.5 -14z" />
    <glyph glyph-name="Uacute" unicode="&#xda;" horiz-adv-x="560" 
d="M271 886h188l-131 -113h-112zM280 -12q-75 0 -121.5 14t-72 48.5t-34 91.5t-8.5 144v439h159v-439q0 -48 1 -83t8 -58.5t22.5 -35t45.5 -11.5t45.5 11.5t22.5 35t8 58.5t1 83v439h159v-431q0 -90 -8.5 -149t-34 -94t-72 -49t-121.5 -14z" />
    <glyph glyph-name="Ucircumflex" unicode="&#xdb;" horiz-adv-x="560" 
d="M211 886h140l118 -113h-138l-50 49l-50 -49h-138zM280 -12q-75 0 -121.5 14t-72 48.5t-34 91.5t-8.5 144v439h159v-439q0 -48 1 -83t8 -58.5t22.5 -35t45.5 -11.5t45.5 11.5t22.5 35t8 58.5t1 83v439h159v-431q0 -90 -8.5 -149t-34 -94t-72 -49t-121.5 -14z" />
    <glyph glyph-name="Udieresis" unicode="&#xdc;" horiz-adv-x="560" 
d="M113 886h134v-113h-134v113zM313 886h134v-113h-134v113zM280 -12q-75 0 -121.5 14t-72 48.5t-34 91.5t-8.5 144v439h159v-439q0 -48 1 -83t8 -58.5t22.5 -35t45.5 -11.5t45.5 11.5t22.5 35t8 58.5t1 83v439h159v-431q0 -90 -8.5 -149t-34 -94t-72 -49t-121.5 -14z" />
    <glyph glyph-name="Yacute" unicode="&#xdd;" horiz-adv-x="520" 
d="M243 886h188l-131 -113h-112zM178 303l-178 422h161l99 -282l102 282h158l-183 -424v-301h-159v303z" />
    <glyph glyph-name="Thorn" unicode="&#xde;" horiz-adv-x="531" 
d="M54 725h159v-141h47q58 0 106.5 -7.5t82.5 -31t53 -66t19 -111.5t-19 -112.5t-53 -68t-82.5 -33t-106.5 -8.5h-47v-146h-159v725zM240 253q33 0 55 4t34.5 16t17.5 34t5 58t-5 58.5t-17.5 34.5t-34.5 16t-55 4h-27v-225h27z" />
    <glyph glyph-name="germandbls" unicode="&#xdf;" horiz-adv-x="536" 
d="M43 524q0 65 16.5 106.5t46.5 65.5t71.5 33t91.5 9q48 0 87.5 -10t68 -31.5t44.5 -54.5t16 -79q0 -33 -8.5 -59t-21 -45.5t-28.5 -32t-31 -18.5q22 -7 42 -19.5t35.5 -34t24.5 -54t9 -79.5q0 -62 -12 -104t-38 -68t-67.5 -37.5t-99.5 -11.5h-49v95h32q44 0 63 31.5
t19 94.5t-19 95.5t-64 32.5h-31v96h24q37 0 53.5 24t16.5 75q0 42 -15.5 68.5t-54.5 26.5q-34 0 -51.5 -23t-17.5 -82v-534h-153v524z" />
    <glyph glyph-name="agrave" unicode="&#xe0;" horiz-adv-x="479" 
d="M170 -12q-66 0 -105 40.5t-39 110.5v6q0 33 11 59.5t40 50t80.5 45.5t132.5 47v30q0 42 -13 63t-45 21q-35 0 -50 -20.5t-15 -62.5v-9h-134v9q0 39 14.5 71.5t41 56t64.5 36.5t86 13t86 -9t64 -31t39 -59t13 -92l-1 -189q0 -51 0.5 -94t7.5 -81h-138l-4 72
q-36 -84 -136 -84zM228 84q15 0 27 7t21 24t13.5 45t4.5 69v35q-41 -12 -64.5 -23.5t-35 -23.5t-14 -25.5t-2.5 -29.5v-9q0 -31 12 -50t38 -19zM69 725h174l62 -123h-94z" />
    <glyph glyph-name="aacute" unicode="&#xe1;" horiz-adv-x="479" 
d="M170 -12q-66 0 -105 40.5t-39 110.5v6q0 33 11 59.5t40 50t80.5 45.5t132.5 47v30q0 42 -13 63t-45 21q-35 0 -50 -20.5t-15 -62.5v-9h-134v9q0 39 14.5 71.5t41 56t64.5 36.5t86 13t86 -9t64 -31t39 -59t13 -92l-1 -189q0 -51 0.5 -94t7.5 -81h-138l-4 72
q-36 -84 -136 -84zM228 84q15 0 27 7t21 24t13.5 45t4.5 69v35q-41 -12 -64.5 -23.5t-35 -23.5t-14 -25.5t-2.5 -29.5v-9q0 -31 12 -50t38 -19zM259 725h174l-142 -123h-94z" />
    <glyph glyph-name="acircumflex" unicode="&#xe2;" horiz-adv-x="479" 
d="M177 725h130l120 -123h-118l-67 52l-67 -52h-118zM170 -12q-66 0 -105 40.5t-39 110.5v6q0 33 11 59.5t40 50t80.5 45.5t132.5 47v30q0 42 -13 63t-45 21q-35 0 -50 -20.5t-15 -62.5v-9h-134v9q0 39 14.5 71.5t41 56t64.5 36.5t86 13t86 -9t64 -31t39 -59t13 -92l-1 -189
q0 -51 0.5 -94t7.5 -81h-138l-4 72q-36 -84 -136 -84zM228 84q15 0 27 7t21 24t13.5 45t4.5 69v35q-41 -12 -64.5 -23.5t-35 -23.5t-14 -25.5t-2.5 -29.5v-9q0 -31 12 -50t38 -19z" />
    <glyph glyph-name="atilde" unicode="&#xe3;" horiz-adv-x="479" 
d="M170 -12q-66 0 -105 40.5t-39 110.5v6q0 33 11 59.5t40 50t80.5 45.5t132.5 47v30q0 42 -13 63t-45 21q-35 0 -50 -20.5t-15 -62.5v-9h-134v9q0 39 14.5 71.5t41 56t64.5 36.5t86 13t86 -9t64 -31t39 -59t13 -92l-1 -189q0 -51 0.5 -94t7.5 -81h-138l-4 72
q-36 -84 -136 -84zM228 84q15 0 27 7t21 24t13.5 45t4.5 69v35q-41 -12 -64.5 -23.5t-35 -23.5t-14 -25.5t-2.5 -29.5v-9q0 -31 12 -50t38 -19zM294 692q30 0 31 33h83q-4 -57 -33 -90t-72 -33q-15 0 -29 5t-28 11.5t-27.5 11.5t-26.5 5q-30 0 -31 -33h-83q4 57 33 90t72 33
q17 0 32.5 -5t29.5 -11.5t26 -11.5t23 -5z" />
    <glyph glyph-name="adieresis" unicode="&#xe4;" horiz-adv-x="479" 
d="M79 725h134v-123h-134v123zM279 725h134v-123h-134v123zM170 -12q-66 0 -105 40.5t-39 110.5v6q0 33 11 59.5t40 50t80.5 45.5t132.5 47v30q0 42 -13 63t-45 21q-35 0 -50 -20.5t-15 -62.5v-9h-134v9q0 39 14.5 71.5t41 56t64.5 36.5t86 13t86 -9t64 -31t39 -59t13 -92
l-1 -189q0 -51 0.5 -94t7.5 -81h-138l-4 72q-36 -84 -136 -84zM228 84q15 0 27 7t21 24t13.5 45t4.5 69v35q-41 -12 -64.5 -23.5t-35 -23.5t-14 -25.5t-2.5 -29.5v-9q0 -31 12 -50t38 -19z" />
    <glyph glyph-name="aring" unicode="&#xe5;" horiz-adv-x="479" 
d="M242 638q17 0 29 11.5t12 28.5q0 18 -12 29.5t-29 11.5t-29 -11.5t-12 -29.5q0 -17 12 -28.5t29 -11.5zM242 589q-20 0 -37.5 6.5t-30 18.5t-20 28.5t-7.5 35.5q0 39 28 64.5t67 25.5t67 -25.5t28 -64.5q0 -19 -7.5 -35.5t-20 -28.5t-30 -18.5t-37.5 -6.5zM170 -12
q-66 0 -105 40.5t-39 110.5v6q0 33 11 59.5t40 50t80.5 45.5t132.5 47v30q0 42 -13 63t-45 21q-35 0 -50 -20.5t-15 -62.5v-9h-134v9q0 39 14.5 71.5t41 56t64.5 36.5t86 13t86 -9t64 -31t39 -59t13 -92l-1 -189q0 -51 0.5 -94t7.5 -81h-138l-4 72q-36 -84 -136 -84zM228 84
q15 0 27 7t21 24t13.5 45t4.5 69v35q-41 -12 -64.5 -23.5t-35 -23.5t-14 -25.5t-2.5 -29.5v-9q0 -31 12 -50t38 -19z" />
    <glyph glyph-name="ae" unicode="&#xe6;" horiz-adv-x="748" 
d="M168 -12q-70 0 -108 42t-38 115v11q0 61 41 99q23 22 60 38t85 33l79 26v46q0 32 -12 49t-46 17q-38 0 -51 -17.5t-13 -61.5v-9h-133v9q0 88 51.5 129t147.5 41q46 0 82.5 -12.5t58.5 -38.5q35 50 133 50q61 0 102 -16.5t66.5 -50t36.5 -84t11 -119.5v-29h-283v-37
q2 -63 14 -97t51 -34q14 0 26 3.5t21 13.5t14 27.5t5 46.5v4h144v-5q0 -55 -18.5 -91.5t-48.5 -58t-68 -30.5t-77 -9q-69 0 -114 24.5t-56 57.5q-16 -25 -32.5 -41t-35.5 -25t-42.5 -12.5t-52.5 -3.5zM226 82q35 0 50.5 27.5t15.5 84.5v76q-12 -6 -24.5 -10.5t-23.5 -8.5
q-41 -14 -55.5 -33.5t-14.5 -51.5v-14q0 -31 11 -50.5t41 -19.5zM580 337v18q-1 54 -16.5 78.5t-54.5 24.5q-38 0 -54 -25t-16 -79v-17h141z" />
    <glyph glyph-name="ccedilla" unicode="&#xe7;" horiz-adv-x="464" 
d="M245 -12q-112 0 -164 61t-52 182v82q0 120 52 181t164 61q40 0 77 -9.5t65 -32.5t44.5 -61.5t16.5 -96.5v-4h-143v4q0 31 -4 50.5t-11.5 31t-19 15.5t-25.5 4q-22 0 -34 -10.5t-17.5 -31t-6.5 -50.5t-1 -69v-47q0 -39 1 -69t6.5 -50.5t17.5 -31t34 -10.5q15 0 26 4
t18.5 15.5t11.5 31t4 51.5v3h143v-4q0 -58 -16.5 -96.5t-44.5 -61.5t-65 -32.5t-77 -9.5zM224 -194q-24 0 -48 3.5t-47 11.5l17 51q11 -6 28.5 -10t34.5 -4q20 0 35.5 6t15.5 23q0 14 -11 21t-28 7q-9 0 -20 -2t-19 -7l-30 17l51 83h58l-32 -52q13 4 38 4q15 0 30.5 -4.5
t28 -12.5t20 -21t7.5 -30q0 -22 -11 -37.5t-29 -26t-41.5 -15.5t-47.5 -5z" />
    <glyph glyph-name="egrave" unicode="&#xe8;" horiz-adv-x="491" 
d="M245 -12q-113 0 -164.5 62.5t-51.5 177.5v89q0 117 54 177.5t166 60.5q61 0 102 -16.5t66 -50t36 -84t11 -119.5v-29h-283v-8q0 -39 2 -69t9 -50.5t20.5 -31t35.5 -10.5q14 0 26 3.5t21 13.5t14 27.5t5 46.5v4h143v-5q0 -55 -18.5 -91.5t-48.5 -58t-68 -30.5t-77 -9z
M181 338h142v9q0 60 -14.5 86t-56.5 26q-41 0 -56 -26t-15 -86v-9zM78 725h174l62 -123h-94z" />
    <glyph glyph-name="eacute" unicode="&#xe9;" horiz-adv-x="491" 
d="M245 -12q-113 0 -164.5 62.5t-51.5 177.5v89q0 117 54 177.5t166 60.5q61 0 102 -16.5t66 -50t36 -84t11 -119.5v-29h-283v-8q0 -39 2 -69t9 -50.5t20.5 -31t35.5 -10.5q14 0 26 3.5t21 13.5t14 27.5t5 46.5v4h143v-5q0 -55 -18.5 -91.5t-48.5 -58t-68 -30.5t-77 -9z
M181 338h142v9q0 60 -14.5 86t-56.5 26q-41 0 -56 -26t-15 -86v-9zM243 725h174l-142 -123h-94z" />
    <glyph glyph-name="ecircumflex" unicode="&#xea;" horiz-adv-x="491" 
d="M187 725h130l120 -123h-118l-67 52l-67 -52h-118zM245 -12q-113 0 -164.5 62.5t-51.5 177.5v89q0 117 54 177.5t166 60.5q61 0 102 -16.5t66 -50t36 -84t11 -119.5v-29h-283v-8q0 -39 2 -69t9 -50.5t20.5 -31t35.5 -10.5q14 0 26 3.5t21 13.5t14 27.5t5 46.5v4h143v-5
q0 -55 -18.5 -91.5t-48.5 -58t-68 -30.5t-77 -9zM181 338h142v9q0 60 -14.5 86t-56.5 26q-41 0 -56 -26t-15 -86v-9z" />
    <glyph glyph-name="edieresis" unicode="&#xeb;" horiz-adv-x="491" 
d="M91 725h134v-123h-134v123zM291 725h134v-123h-134v123zM245 -12q-113 0 -164.5 62.5t-51.5 177.5v89q0 117 54 177.5t166 60.5q61 0 102 -16.5t66 -50t36 -84t11 -119.5v-29h-283v-8q0 -39 2 -69t9 -50.5t20.5 -31t35.5 -10.5q14 0 26 3.5t21 13.5t14 27.5t5 46.5v4h143
v-5q0 -55 -18.5 -91.5t-48.5 -58t-68 -30.5t-77 -9zM181 338h142v9q0 60 -14.5 86t-56.5 26q-41 0 -56 -26t-15 -86v-9z" />
    <glyph glyph-name="igrave" unicode="&#xec;" 
d="M-57 725h174l62 -123h-94zM43 538h154v-538h-154v538z" />
    <glyph glyph-name="iacute" unicode="&#xed;" 
d="M117 725h174l-142 -123h-94zM43 538h154v-538h-154v538z" />
    <glyph glyph-name="icircumflex" unicode="&#xee;" 
d="M55 725h130l110 -123h-128l-47 52l-47 -52h-128zM43 538h154v-538h-154v538z" />
    <glyph glyph-name="idieresis" unicode="&#xef;" 
d="M-35 725h134v-123h-134v123zM140 725h134v-123h-134v123zM43 538h154v-538h-154v538z" />
    <glyph glyph-name="eth" unicode="&#xf0;" horiz-adv-x="498" 
d="M81 593l74 46q-24 13 -45 22.5t-35 15.5l97 59q19 -9 39.5 -17.5t40.5 -19.5l54 34l58 -28l-59 -36q33 -21 62.5 -51t52 -73.5t36 -103t13.5 -140.5v-71q0 -120 -53.5 -181t-166.5 -61t-166.5 61t-53.5 181v83q0 120 53.5 181t166.5 61q11 0 25 -3.5t23 -8.5l3 1
q-15 16 -39 32.5t-52 33.5l-71 -44zM249 87q22 0 34.5 10.5t18.5 31t7.5 50.5t1.5 69v47q0 39 -1.5 69t-7.5 50.5t-18.5 31t-34.5 10.5t-34.5 -10.5t-19 -31t-8 -50.5t-1.5 -69v-47q0 -39 1.5 -69t8 -50.5t19 -31t34.5 -10.5z" />
    <glyph glyph-name="ntilde" unicode="&#xf1;" horiz-adv-x="499" 
d="M317 692q30 0 31 33h83q-4 -57 -33 -90t-72 -33q-15 0 -29 5t-28 11.5t-27.5 11.5t-26.5 5q-30 0 -31 -33h-83q4 57 33 90t72 33q17 0 32.5 -5t29.5 -11.5t26 -11.5t23 -5zM43 0v538h154v-63q19 42 52.5 61t80.5 19q72 0 100.5 -47t28.5 -136v-372h-154v342q0 22 -1 41
t-5.5 33t-13.5 22t-25 8q-23 0 -35.5 -12.5t-18.5 -33.5t-7.5 -49.5t-1.5 -60.5v-290h-154z" />
    <glyph glyph-name="ograve" unicode="&#xf2;" horiz-adv-x="498" 
d="M73 725h174l62 -123h-94zM249 456q-22 0 -34.5 -10.5t-19 -31t-8 -50.5t-1.5 -69v-47q0 -39 1.5 -69t8 -50.5t19 -31t34.5 -10.5t34.5 10.5t19 31t8 50.5t1.5 69v47q0 39 -1.5 69t-8 50.5t-19 31t-34.5 10.5zM249 -12q-113 0 -166.5 61t-53.5 181v83q0 120 53.5 181
t166.5 61t166.5 -61t53.5 -181v-83q0 -120 -53.5 -181t-166.5 -61z" />
    <glyph glyph-name="oacute" unicode="&#xf3;" horiz-adv-x="498" 
d="M260 725h174l-142 -123h-94zM249 456q-22 0 -34.5 -10.5t-19 -31t-8 -50.5t-1.5 -69v-47q0 -39 1.5 -69t8 -50.5t19 -31t34.5 -10.5t34.5 10.5t19 31t8 50.5t1.5 69v47q0 39 -1.5 69t-8 50.5t-19 31t-34.5 10.5zM249 -12q-113 0 -166.5 61t-53.5 181v83q0 120 53.5 181
t166.5 61t166.5 -61t53.5 -181v-83q0 -120 -53.5 -181t-166.5 -61z" />
    <glyph glyph-name="ocircumflex" unicode="&#xf4;" horiz-adv-x="498" 
d="M249 456q-22 0 -34.5 -10.5t-19 -31t-8 -50.5t-1.5 -69v-47q0 -39 1.5 -69t8 -50.5t19 -31t34.5 -10.5t34.5 10.5t19 31t8 50.5t1.5 69v47q0 39 -1.5 69t-8 50.5t-19 31t-34.5 10.5zM249 -12q-113 0 -166.5 61t-53.5 181v83q0 120 53.5 181t166.5 61t166.5 -61t53.5 -181
v-83q0 -120 -53.5 -181t-166.5 -61zM184 725h130l120 -123h-118l-67 52l-67 -52h-118z" />
    <glyph glyph-name="otilde" unicode="&#xf5;" horiz-adv-x="498" 
d="M249 456q-22 0 -34.5 -10.5t-19 -31t-8 -50.5t-1.5 -69v-47q0 -39 1.5 -69t8 -50.5t19 -31t34.5 -10.5t34.5 10.5t19 31t8 50.5t1.5 69v47q0 39 -1.5 69t-8 50.5t-19 31t-34.5 10.5zM249 -12q-113 0 -166.5 61t-53.5 181v83q0 120 53.5 181t166.5 61t166.5 -61t53.5 -181
v-83q0 -120 -53.5 -181t-166.5 -61zM300 692q30 0 31 33h83q-4 -57 -33 -90t-72 -33q-15 0 -29 5t-28 11.5t-27.5 11.5t-26.5 5q-30 0 -31 -33h-83q4 57 33 90t72 33q17 0 32.5 -5t29.5 -11.5t26 -11.5t23 -5z" />
    <glyph glyph-name="odieresis" unicode="&#xf6;" horiz-adv-x="498" 
d="M249 456q-22 0 -34.5 -10.5t-19 -31t-8 -50.5t-1.5 -69v-47q0 -39 1.5 -69t8 -50.5t19 -31t34.5 -10.5t34.5 10.5t19 31t8 50.5t1.5 69v47q0 39 -1.5 69t-8 50.5t-19 31t-34.5 10.5zM249 -12q-113 0 -166.5 61t-53.5 181v83q0 120 53.5 181t166.5 61t166.5 -61t53.5 -181
v-83q0 -120 -53.5 -181t-166.5 -61zM82 725h134v-123h-134v123zM282 725h134v-123h-134v123z" />
    <glyph glyph-name="divide" unicode="&#xf7;" horiz-adv-x="548" 
d="M193 160h160v-151h-160v151zM43 324h462v-116h-462v116zM193 523h160v-150h-160v150z" />
    <glyph glyph-name="oslash" unicode="&#xf8;" horiz-adv-x="498" 
d="M74 -60l37 84q-82 57 -82 206v83q0 120 53.5 181t166.5 61q52 0 92 -14l30 66h53l-39 -87q84 -59 84 -207v-83q0 -120 -53.5 -181t-166.5 -61q-52 0 -94 14l-28 -62h-53zM312 325q0 15 -1 28l-108 -243q14 -23 46 -23q22 0 34.5 10.5t19 31t8 50.5t1.5 69v77zM249 456
q-22 0 -34.5 -10.5t-19 -31t-8 -50.5t-1.5 -69v-102l108 241q-16 22 -45 22z" />
    <glyph glyph-name="ugrave" unicode="&#xf9;" horiz-adv-x="492" 
d="M80 725h174l62 -123h-94zM182 -11q-79 0 -110.5 47.5t-31.5 147.5v354h154v-313q0 -26 0.5 -50t5 -42t13.5 -28.5t26 -10.5q21 0 32.5 12.5t17 33.5t6 49.5t0.5 60.5v288h154v-538h-149v72q-19 -42 -47 -62.5t-71 -20.5z" />
    <glyph glyph-name="uacute" unicode="&#xfa;" horiz-adv-x="492" 
d="M243 725h174l-142 -123h-94zM182 -11q-79 0 -110.5 47.5t-31.5 147.5v354h154v-313q0 -26 0.5 -50t5 -42t13.5 -28.5t26 -10.5q21 0 32.5 12.5t17 33.5t6 49.5t0.5 60.5v288h154v-538h-149v72q-19 -42 -47 -62.5t-71 -20.5z" />
    <glyph glyph-name="ucircumflex" unicode="&#xfb;" horiz-adv-x="492" 
d="M175 725h130l120 -123h-118l-67 52l-67 -52h-118zM182 -11q-79 0 -110.5 47.5t-31.5 147.5v354h154v-313q0 -26 0.5 -50t5 -42t13.5 -28.5t26 -10.5q21 0 32.5 12.5t17 33.5t6 49.5t0.5 60.5v288h154v-538h-149v72q-19 -42 -47 -62.5t-71 -20.5z" />
    <glyph glyph-name="udieresis" unicode="&#xfc;" horiz-adv-x="492" 
d="M83 725h134v-123h-134v123zM283 725h134v-123h-134v123zM182 -11q-79 0 -110.5 47.5t-31.5 147.5v354h154v-313q0 -26 0.5 -50t5 -42t13.5 -28.5t26 -10.5q21 0 32.5 12.5t17 33.5t6 49.5t0.5 60.5v288h154v-538h-149v72q-19 -42 -47 -62.5t-71 -20.5z" />
    <glyph glyph-name="yacute" unicode="&#xfd;" horiz-adv-x="430" 
d="M235 725h174l-142 -123h-94zM43 -80h38q34 0 48.5 14t19.5 43l5 26l-154 535h150l77 -389l63 389h140l-126 -538q-12 -52 -27 -86t-37.5 -53.5t-55 -27.5t-78.5 -8h-63v95z" />
    <glyph glyph-name="thorn" unicode="&#xfe;" horiz-adv-x="520" 
d="M43 725h154v-249q14 34 48 56.5t79 22.5q88 0 127.5 -61t39.5 -186v-71q0 -125 -39.5 -186.5t-127.5 -61.5q-45 0 -79 23t-48 57v-242h-154v898zM272 94q21 0 33.5 10.5t19 31.5t8 52t1.5 72v24q0 41 -1.5 72t-8 52t-19 32t-33.5 11q-25 0 -40.5 -12.5t-24.5 -35.5
t-12 -56t-3 -75q0 -41 3 -74t12 -56t24.5 -35.5t40.5 -12.5z" />
    <glyph glyph-name="ydieresis" unicode="&#xff;" horiz-adv-x="430" 
d="M52 725h134v-123h-134v123zM252 725h134v-123h-134v123zM43 -80h38q34 0 48.5 14t19.5 43l5 26l-154 535h150l77 -389l63 389h140l-126 -538q-12 -52 -27 -86t-37.5 -53.5t-55 -27.5t-78.5 -8h-63v95z" />
    <glyph glyph-name="Abreve" unicode="&#x102;" horiz-adv-x="549" 
d="M178 725h192l174 -725h-162l-30 152h-164l-29 -152h-154zM208 253h124l-62 318zM275 769q-76 0 -115 28t-44 89h107q2 -26 14.5 -36t37.5 -10q26 0 38 10t14 36h107q-5 -61 -44 -89t-115 -28z" />
    <glyph glyph-name="Amacron" unicode="&#x100;" horiz-adv-x="549" 
d="M178 725h192l174 -725h-162l-30 152h-164l-29 -152h-154zM208 253h124l-62 318zM149 886h252v-103h-252v103z" />
    <glyph glyph-name="Aogonek" unicode="&#x104;" horiz-adv-x="549" 
d="M178 725h192l174 -725q-38 -18 -63.5 -34t-25.5 -38q0 -20 13 -26.5t31 -6.5q12 0 23.5 2t21.5 4v-81q-20 -4 -42.5 -6t-40.5 -2q-27 0 -52.5 5t-46 16.5t-32.5 29t-12 42.5q0 29 16.5 54t47.5 41l-30 152h-164l-29 -152h-154zM208 253h124l-62 318z" />
    <glyph glyph-name="Cacute" unicode="&#x106;" horiz-adv-x="541" 
d="M285 -12q-73 0 -121.5 19.5t-78 60t-41.5 101t-12 143.5v103q0 82 12 143t41.5 101.5t78 60t121.5 19.5q116 0 175 -59t59 -188v-9h-158v7q0 45 -4.5 72t-14 42t-24 20t-34.5 5q-31 0 -48 -16.5t-24.5 -47.5t-9 -76t-1.5 -102v-47q0 -57 1.5 -102t9 -76t24.5 -47.5
t48 -16.5q20 0 34.5 5t24 20t14 42t4.5 72v7h158v-9q0 -129 -59 -188t-175 -59zM260 886h188l-131 -113h-112z" />
    <glyph glyph-name="Ccaron" unicode="&#x10c;" horiz-adv-x="541" 
d="M215 773l-118 113h138l50 -49l50 49h138l-118 -113h-140zM285 -12q-73 0 -121.5 19.5t-78 60t-41.5 101t-12 143.5v103q0 82 12 143t41.5 101.5t78 60t121.5 19.5q116 0 175 -59t59 -188v-9h-158v7q0 45 -4.5 72t-14 42t-24 20t-34.5 5q-31 0 -48 -16.5t-24.5 -47.5
t-9 -76t-1.5 -102v-47q0 -57 1.5 -102t9 -76t24.5 -47.5t48 -16.5q20 0 34.5 5t24 20t14 42t4.5 72v7h158v-9q0 -129 -59 -188t-175 -59z" />
    <glyph glyph-name="Ccircumflex" unicode="&#x108;" horiz-adv-x="541" 
d="M216 886h140l118 -113h-138l-50 49l-50 -49h-138zM285 -12q-73 0 -121.5 19.5t-78 60t-41.5 101t-12 143.5v103q0 82 12 143t41.5 101.5t78 60t121.5 19.5q116 0 175 -59t59 -188v-9h-158v7q0 45 -4.5 72t-14 42t-24 20t-34.5 5q-31 0 -48 -16.5t-24.5 -47.5t-9 -76
t-1.5 -102v-47q0 -57 1.5 -102t9 -76t24.5 -47.5t48 -16.5q20 0 34.5 5t24 20t14 42t4.5 72v7h158v-9q0 -129 -59 -188t-175 -59z" />
    <glyph glyph-name="Cdotaccent" unicode="&#x10a;" horiz-adv-x="541" 
d="M205 886h160v-113h-160v113zM285 -12q-73 0 -121.5 19.5t-78 60t-41.5 101t-12 143.5v103q0 82 12 143t41.5 101.5t78 60t121.5 19.5q116 0 175 -59t59 -188v-9h-158v7q0 45 -4.5 72t-14 42t-24 20t-34.5 5q-31 0 -48 -16.5t-24.5 -47.5t-9 -76t-1.5 -102v-47
q0 -57 1.5 -102t9 -76t24.5 -47.5t48 -16.5q20 0 34.5 5t24 20t14 42t4.5 72v7h158v-9q0 -129 -59 -188t-175 -59z" />
    <glyph glyph-name="Dcaron" unicode="&#x10e;" horiz-adv-x="566" 
d="M210 773l-118 113h138l50 -49l50 49h138l-118 -113h-140zM233 107q44 0 70.5 8t40 32.5t17.5 70.5t4 122v47q0 75 -4 120.5t-17.5 70.5t-40 33t-70.5 8h-20v-512h20zM54 725h172q78 0 136 -12.5t96.5 -48t57 -98.5t18.5 -164v-84q0 -99 -18.5 -161t-57 -97t-96.5 -47.5
t-136 -12.5h-172v725z" />
    <glyph glyph-name="Dcroat" unicode="&#x110;" horiz-adv-x="566" 
d="M-18 425h72v300h172q78 0 136 -12.5t96.5 -48t57 -98.5t18.5 -164v-84q0 -99 -18.5 -161t-57 -97t-96.5 -47.5t-136 -12.5h-172v307h-72v118zM233 107q44 0 70.5 8t40 32.5t17.5 70.5t4 122v47q0 75 -4 120.5t-17.5 70.5t-40 33t-70.5 8h-20v-194h91v-118h-91v-200h20z
" />
    <glyph glyph-name="Ebreve" unicode="&#x114;" horiz-adv-x="475" 
d="M261 769q-76 0 -115 28t-44 89h107q2 -26 14.5 -36t37.5 -10q26 0 38 10t14 36h107q-5 -61 -44 -89t-115 -28zM54 725h399v-116h-240v-180h219v-116h-219v-197h240v-116h-399v725z" />
    <glyph glyph-name="Ecaron" unicode="&#x11a;" horiz-adv-x="475" 
d="M188 773l-118 113h138l50 -49l50 49h138l-118 -113h-140zM54 725h399v-116h-240v-180h219v-116h-219v-197h240v-116h-399v725z" />
    <glyph glyph-name="Emacron" unicode="&#x112;" horiz-adv-x="475" 
d="M136 886h252v-103h-252v103zM54 725h399v-116h-240v-180h219v-116h-219v-197h240v-116h-399v725z" />
    <glyph glyph-name="Eogonek" unicode="&#x118;" horiz-adv-x="475" 
d="M371 -188q-27 0 -52 5t-44 16.5t-30.5 29t-11.5 42.5q0 29 18 55t41 40h161q-38 -18 -63.5 -34t-25.5 -38q0 -20 13.5 -26.5t30.5 -6.5q12 0 23.5 2t21.5 5v-82q-20 -4 -42.5 -6t-39.5 -2zM54 725h399v-116h-240v-180h219v-116h-219v-197h240v-116h-399v725z" />
    <glyph glyph-name="Edotaccent" unicode="&#x116;" horiz-adv-x="475" 
d="M180 886h160v-113h-160v113zM54 725h399v-116h-240v-180h219v-116h-219v-197h240v-116h-399v725z" />
    <glyph glyph-name="Gbreve" unicode="&#x11e;" horiz-adv-x="578" 
d="M269 281v105h260v-386h-112l-5 81q-17 -38 -54 -65.5t-102 -27.5q-62 0 -104.5 20.5t-69 61t-38.5 101t-12 141.5v103q0 82 12.5 143t42.5 101.5t79 60t121 19.5q117 0 177.5 -58t60.5 -171v-6h-158v7q0 37 -5.5 60.5t-16 36t-26 17t-35.5 4.5q-31 0 -48 -16.5
t-24.5 -47.5t-9 -76t-1.5 -102v-47q0 -57 1.5 -102t9 -76t24.5 -47.5t48 -16.5q26 0 46.5 7.5t34 27.5t20.5 54t7 87v7h-123zM289 769q-76 0 -115 28t-44 89h107q2 -26 14.5 -36t37.5 -10q26 0 38 10t14 36h107q-5 -61 -44 -89t-115 -28z" />
    <glyph glyph-name="Gcircumflex" unicode="&#x11c;" horiz-adv-x="578" 
d="M217 886h140l118 -113h-138l-50 49l-50 -49h-138zM269 281v105h260v-386h-112l-5 81q-17 -38 -54 -65.5t-102 -27.5q-62 0 -104.5 20.5t-69 61t-38.5 101t-12 141.5v103q0 82 12.5 143t42.5 101.5t79 60t121 19.5q117 0 177.5 -58t60.5 -171v-6h-158v7q0 37 -5.5 60.5
t-16 36t-26 17t-35.5 4.5q-31 0 -48 -16.5t-24.5 -47.5t-9 -76t-1.5 -102v-47q0 -57 1.5 -102t9 -76t24.5 -47.5t48 -16.5q26 0 46.5 7.5t34 27.5t20.5 54t7 87v7h-123z" />
    <glyph glyph-name="uni0122" unicode="&#x122;" horiz-adv-x="578" 
d="M262 -150h-35v100h118v-107l-44 -89h-77zM269 281v105h260v-386h-112l-5 81q-17 -38 -54 -65.5t-102 -27.5q-62 0 -104.5 20.5t-69 61t-38.5 101t-12 141.5v103q0 82 12.5 143t42.5 101.5t79 60t121 19.5q117 0 177.5 -58t60.5 -171v-6h-158v7q0 37 -5.5 60.5t-16 36
t-26 17t-35.5 4.5q-31 0 -48 -16.5t-24.5 -47.5t-9 -76t-1.5 -102v-47q0 -57 1.5 -102t9 -76t24.5 -47.5t48 -16.5q26 0 46.5 7.5t34 27.5t20.5 54t7 87v7h-123z" />
    <glyph glyph-name="Gdotaccent" unicode="&#x120;" horiz-adv-x="578" 
d="M207 886h160v-113h-160v113zM269 281v105h260v-386h-112l-5 81q-17 -38 -54 -65.5t-102 -27.5q-62 0 -104.5 20.5t-69 61t-38.5 101t-12 141.5v103q0 82 12.5 143t42.5 101.5t79 60t121 19.5q117 0 177.5 -58t60.5 -171v-6h-158v7q0 37 -5.5 60.5t-16 36t-26 17
t-35.5 4.5q-31 0 -48 -16.5t-24.5 -47.5t-9 -76t-1.5 -102v-47q0 -57 1.5 -102t9 -76t24.5 -47.5t48 -16.5q26 0 46.5 7.5t34 27.5t20.5 54t7 87v7h-123z" />
    <glyph glyph-name="Hbar" unicode="&#x126;" horiz-adv-x="590" 
d="M4 635h50v90h159v-90h164v90h159v-90h50v-116h-50v-519h-159v313h-164v-313h-159v519h-50v116zM377 429v90h-164v-90h164z" />
    <glyph glyph-name="Hcircumflex" unicode="&#x124;" horiz-adv-x="590" 
d="M224 886h140l118 -113h-138l-50 49l-50 -49h-138zM54 725h159v-296h164v296h159v-725h-159v313h-164v-313h-159v725z" />
    <glyph glyph-name="Ibreve" unicode="&#x12c;" horiz-adv-x="267" 
d="M134 771q-76 0 -108.5 28t-37.5 89h107q2 -26 10.5 -36t28.5 -10t28.5 10t10.5 36h107q-5 -61 -37.5 -89t-108.5 -28zM54 725h159v-725h-159v725z" />
    <glyph glyph-name="Idotaccent" unicode="&#x130;" horiz-adv-x="267" 
d="M54 886h160v-113h-160v113zM54 725h159v-725h-159v725z" />
    <glyph glyph-name="Imacron" unicode="&#x12a;" horiz-adv-x="267" 
d="M19 883h232v-103h-232v103zM54 725h159v-725h-159v725z" />
    <glyph glyph-name="Iogonek" unicode="&#x12e;" horiz-adv-x="267" 
d="M54 725h159v-725h-159v725zM132 -188q-27 0 -52 5t-44 16.5t-30.5 29t-11.5 42.5q0 29 18 55t41 40h161q-38 -18 -63.5 -34t-25.5 -38q0 -20 13.5 -26.5t30.5 -6.5q12 0 23.5 2t21.5 5v-82q-20 -4 -42.5 -6t-39.5 -2z" />
    <glyph glyph-name="Itilde" unicode="&#x128;" horiz-adv-x="267" 
d="M-11 775q4 35 14 57t23.5 34.5t30.5 17t34 4.5t28.5 -5.5t20 -11.5t15.5 -11.5t16 -5.5q21 0 25 34h83q-4 -35 -15 -57t-25.5 -34.5t-31 -17t-31.5 -4.5t-25 4.5t-18 10.5t-16 10.5t-19 4.5t-17.5 -6.5t-8.5 -23.5h-83zM54 725h159v-725h-159v725z" />
    <glyph glyph-name="uni1ECA" unicode="&#x1eca;" horiz-adv-x="267" 
d="M67 -57h134v-118h-134v118zM54 725h159v-725h-159v725z" />
    <glyph glyph-name="Jcircumflex" unicode="&#x134;" horiz-adv-x="478" 
d="M274 886h140l118 -113h-138l-50 49l-50 -49h-138zM213 -12q-108 0 -163 51.5t-55 166.5v21h159v-21q0 -34 3 -55t10 -33t17 -16t25 -4t25.5 4t17 16t10 33t3.5 55v520h159v-521q0 -66 -15.5 -108t-43 -66t-66.5 -33.5t-86 -9.5z" />
    <glyph glyph-name="uni0136" unicode="&#x136;" horiz-adv-x="566" 
d="M278 -150h-35v100h118v-107l-44 -89h-77zM268 288l-55 -85v-203h-159v725h159v-296l184 296h156l-192 -295l210 -430h-163z" />
    <glyph glyph-name="Lacute" unicode="&#x139;" horiz-adv-x="464" 
d="M119 886h188l-131 -113h-112zM54 725h159v-609h240v-116h-399v725z" />
    <glyph glyph-name="Lcaron" unicode="&#x13d;" horiz-adv-x="464" 
d="M54 725h159v-609h240v-116h-399v725zM287 725h142l-65 -170h-102z" />
    <glyph glyph-name="uni013B" unicode="&#x13b;" horiz-adv-x="464" 
d="M229 -150h-35v100h118v-107l-44 -89h-77zM54 725h159v-609h240v-116h-399v725z" />
    <glyph glyph-name="Ldot" unicode="&#x13f;" horiz-adv-x="464" 
d="M285 476h160v-113h-160v113zM54 725h159v-609h240v-116h-399v725z" />
    <glyph glyph-name="Lslash" unicode="&#x141;" horiz-adv-x="479" 
d="M0 318l84 53v354h159v-253l166 105v-126l-166 -105v-230h240v-116h-399v246l-84 -53v125z" />
    <glyph glyph-name="Nacute" unicode="&#x143;" horiz-adv-x="590" 
d="M299 886h188l-131 -113h-112zM54 725h184l157 -521v521h141v-725h-184l-157 521v-521h-141v725z" />
    <glyph glyph-name="Ncaron" unicode="&#x147;" horiz-adv-x="590" 
d="M235 773l-118 113h138l50 -49l50 49h138l-118 -113h-140zM54 725h184l157 -521v521h141v-725h-184l-157 521v-521h-141v725z" />
    <glyph glyph-name="uni0145" unicode="&#x145;" horiz-adv-x="590" 
d="M273 -150h-35v100h118v-107l-44 -89h-77zM54 725h184l157 -521v521h141v-725h-184l-157 521v-521h-141v725z" />
    <glyph glyph-name="OE" unicode="&#x152;" horiz-adv-x="805" 
d="M285 629q-31 0 -48 -16.5t-25 -47.5t-9.5 -76t-1.5 -102v-47q0 -57 1.5 -102t9.5 -76t25 -47.5t48 -16.5t48 16.5t25 47.5t9.5 76t1.5 102v47q0 57 -1.5 102t-9.5 76t-25 47.5t-48 16.5zM285 -12q-73 0 -121.5 19.5t-78 60t-41.5 101t-12 143.5v103q0 82 12 143
t41.5 101.5t78 60t121.5 19.5t121.5 -19.5t77.5 -60t41.5 -101.5t12.5 -143v-103q0 -83 -12.5 -143.5t-41.5 -101t-77.5 -60t-121.5 -19.5zM384 725h399v-116h-240v-180h219v-116h-219v-197h240v-116h-399v725z" />
    <glyph glyph-name="Obreve" unicode="&#x14e;" horiz-adv-x="570" 
d="M285 629q-31 0 -48 -16.5t-25 -47.5t-9.5 -76t-1.5 -102v-47q0 -57 1.5 -102t9.5 -76t25 -47.5t48 -16.5t48 16.5t25 47.5t9.5 76t1.5 102v47q0 57 -1.5 102t-9.5 76t-25 47.5t-48 16.5zM285 -12q-73 0 -121.5 19.5t-78 60t-41.5 101t-12 143.5v103q0 82 12 143
t41.5 101.5t78 60t121.5 19.5t121.5 -19.5t77.5 -60t41.5 -101.5t12.5 -143v-103q0 -83 -12.5 -143.5t-41.5 -101t-77.5 -60t-121.5 -19.5zM294 769q-76 0 -115 28t-44 89h107q2 -26 14.5 -36t37.5 -10q26 0 38 10t14 36h107q-5 -61 -44 -89t-115 -28z" />
    <glyph glyph-name="Ohungarumlaut" unicode="&#x150;" horiz-adv-x="570" 
d="M285 629q-31 0 -48 -16.5t-25 -47.5t-9.5 -76t-1.5 -102v-47q0 -57 1.5 -102t9.5 -76t25 -47.5t48 -16.5t48 16.5t25 47.5t9.5 76t1.5 102v47q0 57 -1.5 102t-9.5 76t-25 47.5t-48 16.5zM285 -12q-73 0 -121.5 19.5t-78 60t-41.5 101t-12 143.5v103q0 82 12 143
t41.5 101.5t78 60t121.5 19.5t121.5 -19.5t77.5 -60t41.5 -101.5t12.5 -143v-103q0 -83 -12.5 -143.5t-41.5 -101t-77.5 -60t-121.5 -19.5zM380 886h178l-121 -113h-112zM177 886h178l-121 -113h-112z" />
    <glyph glyph-name="Omacron" unicode="&#x14c;" horiz-adv-x="570" 
d="M167 886h252v-103h-252v103zM285 629q-31 0 -48 -16.5t-25 -47.5t-9.5 -76t-1.5 -102v-47q0 -57 1.5 -102t9.5 -76t25 -47.5t48 -16.5t48 16.5t25 47.5t9.5 76t1.5 102v47q0 57 -1.5 102t-9.5 76t-25 47.5t-48 16.5zM285 -12q-73 0 -121.5 19.5t-78 60t-41.5 101
t-12 143.5v103q0 82 12 143t41.5 101.5t78 60t121.5 19.5t121.5 -19.5t77.5 -60t41.5 -101.5t12.5 -143v-103q0 -83 -12.5 -143.5t-41.5 -101t-77.5 -60t-121.5 -19.5z" />
    <glyph glyph-name="uni1ECC" unicode="&#x1ecc;" horiz-adv-x="570" 
d="M228 -57h134v-118h-134v118zM285 629q-31 0 -48 -16.5t-25 -47.5t-9.5 -76t-1.5 -102v-47q0 -57 1.5 -102t9.5 -76t25 -47.5t48 -16.5t48 16.5t25 47.5t9.5 76t1.5 102v47q0 57 -1.5 102t-9.5 76t-25 47.5t-48 16.5zM285 -12q-73 0 -121.5 19.5t-78 60t-41.5 101
t-12 143.5v103q0 82 12 143t41.5 101.5t78 60t121.5 19.5t121.5 -19.5t77.5 -60t41.5 -101.5t12.5 -143v-103q0 -83 -12.5 -143.5t-41.5 -101t-77.5 -60t-121.5 -19.5z" />
    <glyph glyph-name="Racute" unicode="&#x154;" horiz-adv-x="564" 
d="M271 886h188l-131 -113h-112zM280 313q-6 -1 -12 -1h-55v-312h-159v725h206q71 0 122.5 -9t84.5 -31.5t49 -61t16 -97.5q0 -75 -28.5 -116t-80.5 -62l119 -348h-164zM259 409q33 0 54 4.5t33 16t16 31.5t4 52t-4 52.5t-16 32.5t-33 16.5t-54 4.5h-46v-210h46z" />
    <glyph glyph-name="Rcaron" unicode="&#x158;" horiz-adv-x="564" 
d="M209 773l-118 113h138l50 -49l50 49h138l-118 -113h-140zM280 313q-6 -1 -12 -1h-55v-312h-159v725h206q71 0 122.5 -9t84.5 -31.5t49 -61t16 -97.5q0 -75 -28.5 -116t-80.5 -62l119 -348h-164zM259 409q33 0 54 4.5t33 16t16 31.5t4 52t-4 52.5t-16 32.5t-33 16.5
t-54 4.5h-46v-210h46z" />
    <glyph glyph-name="uni0156" unicode="&#x156;" horiz-adv-x="564" 
d="M271 -150h-35v100h118v-107l-44 -89h-77zM280 313q-6 -1 -12 -1h-55v-312h-159v725h206q71 0 122.5 -9t84.5 -31.5t49 -61t16 -97.5q0 -75 -28.5 -116t-80.5 -62l119 -348h-164zM259 409q33 0 54 4.5t33 16t16 31.5t4 52t-4 52.5t-16 32.5t-33 16.5t-54 4.5h-46v-210h46z
" />
    <glyph glyph-name="Sacute" unicode="&#x15a;" horiz-adv-x="522" 
d="M268 -12q-129 0 -186.5 63.5t-57.5 179.5v7h157v-7q0 -72 18.5 -104t68.5 -32q40 0 59.5 21t19.5 72q0 42 -22.5 66.5t-61.5 42.5l-62 28q-42 19 -74 39t-53.5 45.5t-32 59t-10.5 79.5q0 49 16 85t44.5 59.5t69 35t90.5 11.5q54 0 98 -11.5t74.5 -37t47.5 -67t17 -102.5
v-4h-155v4q0 64 -20.5 88.5t-62.5 24.5q-34 0 -50 -21t-16 -60q0 -34 12.5 -54.5t42.5 -33.5l70 -32q41 -18 76.5 -36.5t61.5 -44t41 -60t15 -84.5q0 -111 -62 -165.5t-173 -54.5zM250 886h188l-131 -113h-112z" />
    <glyph glyph-name="Scaron" unicode="&#x160;" horiz-adv-x="522" 
d="M191 773l-118 113h138l50 -49l50 49h138l-118 -113h-140zM268 -12q-129 0 -186.5 63.5t-57.5 179.5v7h157v-7q0 -72 18.5 -104t68.5 -32q40 0 59.5 21t19.5 72q0 42 -22.5 66.5t-61.5 42.5l-62 28q-42 19 -74 39t-53.5 45.5t-32 59t-10.5 79.5q0 49 16 85t44.5 59.5
t69 35t90.5 11.5q54 0 98 -11.5t74.5 -37t47.5 -67t17 -102.5v-4h-155v4q0 64 -20.5 88.5t-62.5 24.5q-34 0 -50 -21t-16 -60q0 -34 12.5 -54.5t42.5 -33.5l70 -32q41 -18 76.5 -36.5t61.5 -44t41 -60t15 -84.5q0 -111 -62 -165.5t-173 -54.5z" />
    <glyph glyph-name="Scedilla" unicode="&#x15e;" horiz-adv-x="522" 
d="M268 -12q-129 0 -186.5 63.5t-57.5 179.5v7h157v-7q0 -72 18.5 -104t68.5 -32q40 0 59.5 21t19.5 72q0 42 -22.5 66.5t-61.5 42.5l-62 28q-42 19 -74 39t-53.5 45.5t-32 59t-10.5 79.5q0 49 16 85t44.5 59.5t69 35t90.5 11.5q54 0 98 -11.5t74.5 -37t47.5 -67t17 -102.5
v-4h-155v4q0 64 -20.5 88.5t-62.5 24.5q-34 0 -50 -21t-16 -60q0 -34 12.5 -54.5t42.5 -33.5l70 -32q41 -18 76.5 -36.5t61.5 -44t41 -60t15 -84.5q0 -111 -62 -165.5t-173 -54.5zM266 -194q-23 0 -47.5 3.5t-47.5 11.5l17 51q11 -6 28.5 -10t34.5 -4q20 0 35.5 6t15.5 23
q0 14 -11 21t-28 7q-9 0 -20 -2t-19 -7l-30 17l51 83h58l-32 -52q13 4 38 4q16 0 31.5 -4.5t27.5 -12.5t19.5 -21t7.5 -30q0 -22 -11 -37.5t-29 -26t-41.5 -15.5t-47.5 -5z" />
    <glyph glyph-name="Scircumflex" unicode="&#x15c;" horiz-adv-x="522" 
d="M198 886h140l118 -113h-138l-50 49l-50 -49h-138zM268 -12q-129 0 -186.5 63.5t-57.5 179.5v7h157v-7q0 -72 18.5 -104t68.5 -32q40 0 59.5 21t19.5 72q0 42 -22.5 66.5t-61.5 42.5l-62 28q-42 19 -74 39t-53.5 45.5t-32 59t-10.5 79.5q0 49 16 85t44.5 59.5t69 35
t90.5 11.5q54 0 98 -11.5t74.5 -37t47.5 -67t17 -102.5v-4h-155v4q0 64 -20.5 88.5t-62.5 24.5q-34 0 -50 -21t-16 -60q0 -34 12.5 -54.5t42.5 -33.5l70 -32q41 -18 76.5 -36.5t61.5 -44t41 -60t15 -84.5q0 -111 -62 -165.5t-173 -54.5z" />
    <glyph glyph-name="uni0218" unicode="&#x218;" horiz-adv-x="522" 
d="M268 -12q-129 0 -186.5 63.5t-57.5 179.5v7h157v-7q0 -72 18.5 -104t68.5 -32q40 0 59.5 21t19.5 72q0 42 -22.5 66.5t-61.5 42.5l-62 28q-42 19 -74 39t-53.5 45.5t-32 59t-10.5 79.5q0 49 16 85t44.5 59.5t69 35t90.5 11.5q54 0 98 -11.5t74.5 -37t47.5 -67t17 -102.5
v-4h-155v4q0 64 -20.5 88.5t-62.5 24.5q-34 0 -50 -21t-16 -60q0 -34 12.5 -54.5t42.5 -33.5l70 -32q41 -18 76.5 -36.5t61.5 -44t41 -60t15 -84.5q0 -111 -62 -165.5t-173 -54.5zM242 -150h-35v100h118v-107l-44 -89h-77z" />
    <glyph glyph-name="Tcaron" unicode="&#x164;" horiz-adv-x="477" 
d="M159 609h-148v116h455v-116h-148v-609h-159v609zM168 773l-118 113h138l50 -49l50 49h138l-118 -113h-140z" />
    <glyph glyph-name="uni0162" unicode="&#x162;" horiz-adv-x="477" 
d="M214 -150h-35v100h118v-107l-44 -89h-77zM159 609h-148v116h455v-116h-148v-609h-159v609z" />
    <glyph glyph-name="uni021A" unicode="&#x21a;" horiz-adv-x="477" 
d="M214 -150h-35v100h118v-107l-44 -89h-77zM159 609h-148v116h455v-116h-148v-609h-159v609z" />
    <glyph glyph-name="Ubreve" unicode="&#x16c;" horiz-adv-x="560" 
d="M281 769q-76 0 -115 28t-44 89h107q2 -26 14.5 -36t37.5 -10q26 0 38 10t14 36h107q-5 -61 -44 -89t-115 -28zM280 -12q-75 0 -121.5 14t-72 48.5t-34 91.5t-8.5 144v439h159v-439q0 -48 1 -83t8 -58.5t22.5 -35t45.5 -11.5t45.5 11.5t22.5 35t8 58.5t1 83v439h159v-431
q0 -90 -8.5 -149t-34 -94t-72 -49t-121.5 -14z" />
    <glyph glyph-name="Uhungarumlaut" unicode="&#x170;" horiz-adv-x="560" 
d="M280 -12q-75 0 -121.5 14t-72 48.5t-34 91.5t-8.5 144v439h159v-439q0 -48 1 -83t8 -58.5t22.5 -35t45.5 -11.5t45.5 11.5t22.5 35t8 58.5t1 83v439h159v-431q0 -90 -8.5 -149t-34 -94t-72 -49t-121.5 -14zM375 886h178l-121 -113h-112zM172 886h178l-121 -113h-112z" />
    <glyph glyph-name="Umacron" unicode="&#x16a;" horiz-adv-x="560" 
d="M155 886h252v-103h-252v103zM280 -12q-75 0 -121.5 14t-72 48.5t-34 91.5t-8.5 144v439h159v-439q0 -48 1 -83t8 -58.5t22.5 -35t45.5 -11.5t45.5 11.5t22.5 35t8 58.5t1 83v439h159v-431q0 -90 -8.5 -149t-34 -94t-72 -49t-121.5 -14z" />
    <glyph glyph-name="Uogonek" unicode="&#x172;" horiz-adv-x="560" 
d="M280 -12q-75 0 -121.5 14t-72 48.5t-34 91.5t-8.5 144v439h159v-439q0 -48 1 -83t8 -58.5t22.5 -35t45.5 -11.5t45.5 11.5t22.5 35t8 58.5t1 83v439h159v-431q0 -90 -8.5 -149t-34 -94t-72 -49t-121.5 -14zM281 -188q-27 0 -52 5t-44 16.5t-30.5 29t-11.5 42.5
q0 29 18 55t41 40h161q-38 -18 -63.5 -34t-25.5 -38q0 -20 13.5 -26.5t30.5 -6.5q12 0 23.5 2t21.5 5v-82q-20 -4 -42.5 -6t-39.5 -2z" />
    <glyph glyph-name="Uring" unicode="&#x16e;" horiz-adv-x="560" 
d="M281 808q17 0 30 11.5t13 30.5t-13 31t-30 12t-30 -12t-13 -31t13 -30.5t30 -11.5zM281 765q-38 0 -64 24t-26 61t26.5 61t63.5 24t63.5 -24t26.5 -61t-26 -61t-64 -24zM280 -12q-75 0 -121.5 14t-72 48.5t-34 91.5t-8.5 144v439h159v-439q0 -48 1 -83t8 -58.5t22.5 -35
t45.5 -11.5t45.5 11.5t22.5 35t8 58.5t1 83v439h159v-431q0 -90 -8.5 -149t-34 -94t-72 -49t-121.5 -14z" />
    <glyph glyph-name="Utilde" unicode="&#x168;" horiz-adv-x="560" 
d="M332 861q30 0 31 33h83q-4 -57 -33 -90t-72 -33q-15 0 -29 5t-28 11.5t-27.5 11.5t-26.5 5q-30 0 -31 -33h-83q4 57 33 90t72 33q17 0 32.5 -5t29.5 -11.5t26 -11.5t23 -5zM280 -12q-75 0 -121.5 14t-72 48.5t-34 91.5t-8.5 144v439h159v-439q0 -48 1 -83t8 -58.5
t22.5 -35t45.5 -11.5t45.5 11.5t22.5 35t8 58.5t1 83v439h159v-431q0 -90 -8.5 -149t-34 -94t-72 -49t-121.5 -14z" />
    <glyph glyph-name="uni1EE4" unicode="&#x1ee4;" horiz-adv-x="560" 
d="M214 -57h134v-118h-134v118zM280 -12q-75 0 -121.5 14t-72 48.5t-34 91.5t-8.5 144v439h159v-439q0 -48 1 -83t8 -58.5t22.5 -35t45.5 -11.5t45.5 11.5t22.5 35t8 58.5t1 83v439h159v-431q0 -90 -8.5 -149t-34 -94t-72 -49t-121.5 -14z" />
    <glyph glyph-name="Wacute" unicode="&#x1e82;" horiz-adv-x="730" 
d="M362 886h188l-131 -113h-112zM11 725h144l57 -550l86 550h134l86 -550l57 550h144l-91 -725h-180l-83 548l-83 -548h-180z" />
    <glyph glyph-name="Wcircumflex" unicode="&#x174;" horiz-adv-x="730" 
d="M293 886h140l118 -113h-138l-50 49l-50 -49h-138zM11 725h144l57 -550l86 550h134l86 -550l57 550h144l-91 -725h-180l-83 548l-83 -548h-180z" />
    <glyph glyph-name="Wdieresis" unicode="&#x1e84;" horiz-adv-x="730" 
d="M198 886h134v-113h-134v113zM398 886h134v-113h-134v113zM11 725h144l57 -550l86 550h134l86 -550l57 550h144l-91 -725h-180l-83 548l-83 -548h-180z" />
    <glyph glyph-name="Wgrave" unicode="&#x1e80;" horiz-adv-x="730" 
d="M181 886h188l55 -113h-112zM11 725h144l57 -550l86 550h134l86 -550l57 550h144l-91 -725h-180l-83 548l-83 -548h-180z" />
    <glyph glyph-name="Ycircumflex" unicode="&#x176;" horiz-adv-x="520" 
d="M189 886h140l118 -113h-138l-50 49l-50 -49h-138zM178 303l-178 422h161l99 -282l102 282h158l-183 -424v-301h-159v303z" />
    <glyph glyph-name="Ydieresis" unicode="&#x178;" horiz-adv-x="520" 
d="M93 886h134v-113h-134v113zM293 886h134v-113h-134v113zM178 303l-178 422h161l99 -282l102 282h158l-183 -424v-301h-159v303z" />
    <glyph glyph-name="Ygrave" unicode="&#x1ef2;" horiz-adv-x="520" 
d="M92 886h188l55 -113h-112zM178 303l-178 422h161l99 -282l102 282h158l-183 -424v-301h-159v303z" />
    <glyph glyph-name="uni0232" unicode="&#x232;" horiz-adv-x="520" 
d="M134 886h252v-103h-252v103zM178 303l-178 422h161l99 -282l102 282h158l-183 -424v-301h-159v303z" />
    <glyph glyph-name="Zacute" unicode="&#x179;" horiz-adv-x="514" 
d="M245 886h188l-131 -113h-112zM22 107l281 502h-250v116h424v-106l-282 -503h292v-116h-465v107z" />
    <glyph glyph-name="Zcaron" unicode="&#x17d;" horiz-adv-x="514" 
d="M203 773l-118 113h138l50 -49l50 49h138l-118 -113h-140zM22 107l281 502h-250v116h424v-106l-282 -503h292v-116h-465v107z" />
    <glyph glyph-name="Zdotaccent" unicode="&#x17b;" horiz-adv-x="514" 
d="M187 886h160v-113h-160v113zM22 107l281 502h-250v116h424v-106l-282 -503h292v-116h-465v107z" />
    <glyph glyph-name="abreve" unicode="&#x103;" horiz-adv-x="479" 
d="M238 602q-80 0 -113 33t-33 90h103q0 -29 11.5 -38t31.5 -9t31.5 9t11.5 38h103q0 -29 -7.5 -51.5t-24.5 -38.5t-45 -24.5t-69 -8.5zM170 -12q-66 0 -105 40.5t-39 110.5v6q0 33 11 59.5t40 50t80.5 45.5t132.5 47v30q0 42 -13 63t-45 21q-35 0 -50 -20.5t-15 -62.5v-9
h-134v9q0 39 14.5 71.5t41 56t64.5 36.5t86 13t86 -9t64 -31t39 -59t13 -92l-1 -189q0 -51 0.5 -94t7.5 -81h-138l-4 72q-36 -84 -136 -84zM228 84q15 0 27 7t21 24t13.5 45t4.5 69v35q-41 -12 -64.5 -23.5t-35 -23.5t-14 -25.5t-2.5 -29.5v-9q0 -31 12 -50t38 -19z" />
    <glyph glyph-name="amacron" unicode="&#x101;" horiz-adv-x="479" 
d="M119 713h252v-101h-252v101zM170 -12q-66 0 -105 40.5t-39 110.5v6q0 33 11 59.5t40 50t80.5 45.5t132.5 47v30q0 42 -13 63t-45 21q-35 0 -50 -20.5t-15 -62.5v-9h-134v9q0 39 14.5 71.5t41 56t64.5 36.5t86 13t86 -9t64 -31t39 -59t13 -92l-1 -189q0 -51 0.5 -94
t7.5 -81h-138l-4 72q-36 -84 -136 -84zM228 84q15 0 27 7t21 24t13.5 45t4.5 69v35q-41 -12 -64.5 -23.5t-35 -23.5t-14 -25.5t-2.5 -29.5v-9q0 -31 12 -50t38 -19z" />
    <glyph glyph-name="aogonek" unicode="&#x105;" horiz-adv-x="479" 
d="M170 -12q-66 0 -105 40.5t-39 110.5v6q0 33 11 59.5t40 50t80.5 45.5t132.5 47v30q0 42 -13 63t-45 21q-35 0 -50 -20.5t-15 -62.5v-9h-134v9q0 39 14.5 71.5t41 56t64.5 36.5t86 13t86 -9t64 -31t39 -59t13 -92l-1 -189q0 -51 0.5 -94t7.5 -81q-40 -18 -60.5 -34
t-20.5 -39q0 -20 13.5 -26.5t30.5 -6.5q16 0 30.5 3t25.5 7v-82q-19 -5 -46 -8t-47 -3q-27 0 -52 5t-44 16.5t-30.5 29t-11.5 42.5q0 29 21 54.5t53 41.5l-4 72q-36 -84 -136 -84zM228 84q15 0 27 7t21 24t13.5 45t4.5 69v35q-41 -12 -64.5 -23.5t-35 -23.5t-14 -25.5
t-2.5 -29.5v-9q0 -31 12 -50t38 -19z" />
    <glyph glyph-name="cacute" unicode="&#x107;" horiz-adv-x="464" 
d="M245 -12q-112 0 -164 61t-52 182v82q0 120 52 181t164 61q40 0 77 -9.5t65 -32.5t44.5 -61.5t16.5 -96.5v-4h-143v4q0 31 -4 50.5t-11.5 31t-19 15.5t-25.5 4q-22 0 -34 -10.5t-17.5 -31t-6.5 -50.5t-1 -69v-47q0 -39 1 -69t6.5 -50.5t17.5 -31t34 -10.5q15 0 26 4
t18.5 15.5t11.5 31t4 51.5v3h143v-4q0 -58 -16.5 -96.5t-44.5 -61.5t-65 -32.5t-77 -9.5zM254 725h174l-142 -123h-94z" />
    <glyph glyph-name="ccaron" unicode="&#x10d;" horiz-adv-x="464" 
d="M65 725h118l67 -52l67 52h117l-119 -123h-128zM245 -12q-112 0 -164 61t-52 182v82q0 120 52 181t164 61q40 0 77 -9.5t65 -32.5t44.5 -61.5t16.5 -96.5v-4h-143v4q0 31 -4 50.5t-11.5 31t-19 15.5t-25.5 4q-22 0 -34 -10.5t-17.5 -31t-6.5 -50.5t-1 -69v-47q0 -39 1 -69
t6.5 -50.5t17.5 -31t34 -10.5q15 0 26 4t18.5 15.5t11.5 31t4 51.5v3h143v-4q0 -58 -16.5 -96.5t-44.5 -61.5t-65 -32.5t-77 -9.5z" />
    <glyph glyph-name="ccircumflex" unicode="&#x109;" horiz-adv-x="464" 
d="M183 725h130l120 -123h-118l-67 52l-67 -52h-118zM245 -12q-112 0 -164 61t-52 182v82q0 120 52 181t164 61q40 0 77 -9.5t65 -32.5t44.5 -61.5t16.5 -96.5v-4h-143v4q0 31 -4 50.5t-11.5 31t-19 15.5t-25.5 4q-22 0 -34 -10.5t-17.5 -31t-6.5 -50.5t-1 -69v-47
q0 -39 1 -69t6.5 -50.5t17.5 -31t34 -10.5q15 0 26 4t18.5 15.5t11.5 31t4 51.5v3h143v-4q0 -58 -16.5 -96.5t-44.5 -61.5t-65 -32.5t-77 -9.5z" />
    <glyph glyph-name="cdotaccent" unicode="&#x10b;" horiz-adv-x="464" 
d="M181 725h134v-123h-134v123zM245 -12q-112 0 -164 61t-52 182v82q0 120 52 181t164 61q40 0 77 -9.5t65 -32.5t44.5 -61.5t16.5 -96.5v-4h-143v4q0 31 -4 50.5t-11.5 31t-19 15.5t-25.5 4q-22 0 -34 -10.5t-17.5 -31t-6.5 -50.5t-1 -69v-47q0 -39 1 -69t6.5 -50.5
t17.5 -31t34 -10.5q15 0 26 4t18.5 15.5t11.5 31t4 51.5v3h143v-4q0 -58 -16.5 -96.5t-44.5 -61.5t-65 -32.5t-77 -9.5z" />
    <glyph glyph-name="dcaron" unicode="&#x10f;" horiz-adv-x="670" 
d="M29 308q0 124 39.5 185.5t127.5 61.5q45 0 79 -22.5t48 -57.5v250h154v-725h-154v68q-14 -35 -48 -57.5t-79 -22.5q-88 0 -127.5 61.5t-39.5 185.5v73zM186 258q0 -41 1.5 -72t8 -52t19 -31.5t33.5 -10.5q25 0 40.5 12.5t24.5 35.5t12 56t3 75t-3 75t-12 56.5t-24.5 36
t-40.5 12.5q-21 0 -33.5 -11t-19 -32t-8 -52t-1.5 -71v-27zM538 725h142l-65 -170h-102z" />
    <glyph glyph-name="dcroat" unicode="&#x111;" horiz-adv-x="520" 
d="M192 656h131v69h154v-69h62v-81h-62v-575h-154v68q-14 -35 -48 -57.5t-79 -22.5q-88 0 -127.5 61.5t-39.5 185.5v73q0 124 39.5 185.5t127.5 61.5q45 0 79 -22.5t48 -57.5v100h-131v81zM186 258q0 -41 1.5 -72t8 -52t19 -31.5t33.5 -10.5q25 0 40.5 12.5t24.5 35.5t12 56
t3 75t-3 75t-12 56.5t-24.5 36t-40.5 12.5q-21 0 -33.5 -11t-19 -32t-8 -52t-1.5 -71v-27z" />
    <glyph glyph-name="ebreve" unicode="&#x115;" horiz-adv-x="491" 
d="M258 602q-80 0 -113 33t-33 90h103q0 -29 11.5 -38t31.5 -9t31.5 9t11.5 38h103q0 -29 -7.5 -51.5t-24.5 -38.5t-45 -24.5t-69 -8.5zM245 -12q-113 0 -164.5 62.5t-51.5 177.5v89q0 117 54 177.5t166 60.5q61 0 102 -16.5t66 -50t36 -84t11 -119.5v-29h-283v-8
q0 -39 2 -69t9 -50.5t20.5 -31t35.5 -10.5q14 0 26 3.5t21 13.5t14 27.5t5 46.5v4h143v-5q0 -55 -18.5 -91.5t-48.5 -58t-68 -30.5t-77 -9zM181 338h142v9q0 60 -14.5 86t-56.5 26q-41 0 -56 -26t-15 -86v-9z" />
    <glyph glyph-name="ecaron" unicode="&#x11b;" horiz-adv-x="491" 
d="M73 725h118l67 -52l67 52h117l-119 -123h-128zM245 -12q-113 0 -164.5 62.5t-51.5 177.5v89q0 117 54 177.5t166 60.5q61 0 102 -16.5t66 -50t36 -84t11 -119.5v-29h-283v-8q0 -39 2 -69t9 -50.5t20.5 -31t35.5 -10.5q14 0 26 3.5t21 13.5t14 27.5t5 46.5v4h143v-5
q0 -55 -18.5 -91.5t-48.5 -58t-68 -30.5t-77 -9zM181 338h142v9q0 60 -14.5 86t-56.5 26q-41 0 -56 -26t-15 -86v-9z" />
    <glyph glyph-name="emacron" unicode="&#x113;" horiz-adv-x="491" 
d="M131 713h252v-101h-252v101zM245 -12q-113 0 -164.5 62.5t-51.5 177.5v89q0 117 54 177.5t166 60.5q61 0 102 -16.5t66 -50t36 -84t11 -119.5v-29h-283v-8q0 -39 2 -69t9 -50.5t20.5 -31t35.5 -10.5q14 0 26 3.5t21 13.5t14 27.5t5 46.5v4h143v-5q0 -55 -18.5 -91.5
t-48.5 -58t-68 -30.5t-77 -9zM181 338h142v9q0 60 -14.5 86t-56.5 26q-41 0 -56 -26t-15 -86v-9z" />
    <glyph glyph-name="eogonek" unicode="&#x119;" horiz-adv-x="491" 
d="M181 337h142v9q0 60 -14.5 86t-56.5 26q-41 0 -56 -26t-15 -86v-9zM409 -180q-19 -4 -40.5 -6t-38.5 -2q-27 0 -52 5t-44 16.5t-30.5 29t-11.5 42.5q0 17 10.5 41.5t25.5 42.5q-50 0 -87.5 17t-62 48.5t-37 75.5t-12.5 98v88q0 117 54 177.5t166 60.5q61 0 102 -16.5
t66 -50t36 -84t11 -119.5v-29h-283v-7q0 -39 2 -69t9 -50.5t20 -31t35 -10.5q14 0 26 3.5t21 13.5t14 27.5t5 46.5v4h144v-5q0 -56 -18.5 -91t-47.5 -59q-28 -23 -48 -51.5t-20 -47.5q0 -20 13.5 -26.5t30.5 -6.5q11 0 22 2t20 4v-81z" />
    <glyph glyph-name="edotaccent" unicode="&#x117;" horiz-adv-x="491" 
d="M189 725h134v-123h-134v123zM245 -12q-113 0 -164.5 62.5t-51.5 177.5v89q0 117 54 177.5t166 60.5q61 0 102 -16.5t66 -50t36 -84t11 -119.5v-29h-283v-8q0 -39 2 -69t9 -50.5t20.5 -31t35.5 -10.5q14 0 26 3.5t21 13.5t14 27.5t5 46.5v4h143v-5q0 -55 -18.5 -91.5
t-48.5 -58t-68 -30.5t-77 -9zM181 338h142v9q0 60 -14.5 86t-56.5 26q-41 0 -56 -26t-15 -86v-9z" />
    <glyph glyph-name="gbreve" unicode="&#x11f;" horiz-adv-x="525" 
d="M271 602q-80 0 -113 33t-33 90h103q0 -29 11.5 -38t31.5 -9t31.5 9t11.5 38h103q0 -29 -7.5 -51.5t-24.5 -38.5t-45 -24.5t-69 -8.5zM252 -194q-43 0 -80.5 9.5t-65 29.5t-43.5 51.5t-16 75.5v2h141v-2q0 -33 19 -49t49 -16q18 0 31.5 3.5t22.5 14.5t13.5 30t4.5 51v92
q-14 -34 -42.5 -56.5t-73.5 -22.5q-83 0 -133 56t-50 172v70q0 122 49 180t134 58q45 0 73.5 -23t42.5 -57v63h154v-490q0 -129 -56 -185.5t-174 -56.5zM253 123q28 0 44 11t24 31.5t10.5 49.5t2.5 65q0 42 -2.5 73.5t-10.5 53.5t-24 33t-44 11q-23 0 -36 -10.5t-20 -30
t-9 -48t-2 -64.5v-22q0 -36 2 -64.5t9 -48t20 -30t36 -10.5z" />
    <glyph glyph-name="gcircumflex" unicode="&#x11d;" horiz-adv-x="525" 
d="M212 725h130l120 -123h-118l-67 52l-67 -52h-118zM252 -194q-43 0 -80.5 9.5t-65 29.5t-43.5 51.5t-16 75.5v2h141v-2q0 -33 19 -49t49 -16q18 0 31.5 3.5t22.5 14.5t13.5 30t4.5 51v92q-14 -34 -42.5 -56.5t-73.5 -22.5q-83 0 -133 56t-50 172v70q0 122 49 180t134 58
q45 0 73.5 -23t42.5 -57v63h154v-490q0 -129 -56 -185.5t-174 -56.5zM253 123q28 0 44 11t24 31.5t10.5 49.5t2.5 65q0 42 -2.5 73.5t-10.5 53.5t-24 33t-44 11q-23 0 -36 -10.5t-20 -30t-9 -48t-2 -64.5v-22q0 -36 2 -64.5t9 -48t20 -30t36 -10.5z" />
    <glyph glyph-name="uni0123" unicode="&#x123;" horiz-adv-x="525" 
d="M293 713h35v-100h-118v107l44 89h77zM252 -194q-43 0 -80.5 9.5t-65 29.5t-43.5 51.5t-16 75.5v2h141v-2q0 -33 19 -49t49 -16q18 0 31.5 3.5t22.5 14.5t13.5 30t4.5 51v92q-14 -34 -42.5 -56.5t-73.5 -22.5q-83 0 -133 56t-50 172v70q0 122 49 180t134 58q45 0 73.5 -23
t42.5 -57v63h154v-490q0 -129 -56 -185.5t-174 -56.5zM253 123q28 0 44 11t24 31.5t10.5 49.5t2.5 65q0 42 -2.5 73.5t-10.5 53.5t-24 33t-44 11q-23 0 -36 -10.5t-20 -30t-9 -48t-2 -64.5v-22q0 -36 2 -64.5t9 -48t20 -30t36 -10.5z" />
    <glyph glyph-name="gdotaccent" unicode="&#x121;" horiz-adv-x="525" 
d="M199 725h134v-123h-134v123zM252 -194q-43 0 -80.5 9.5t-65 29.5t-43.5 51.5t-16 75.5v2h141v-2q0 -33 19 -49t49 -16q18 0 31.5 3.5t22.5 14.5t13.5 30t4.5 51v92q-14 -34 -42.5 -56.5t-73.5 -22.5q-83 0 -133 56t-50 172v70q0 122 49 180t134 58q45 0 73.5 -23
t42.5 -57v63h154v-490q0 -129 -56 -185.5t-174 -56.5zM253 123q28 0 44 11t24 31.5t10.5 49.5t2.5 65q0 42 -2.5 73.5t-10.5 53.5t-24 33t-44 11q-23 0 -36 -10.5t-20 -30t-9 -48t-2 -64.5v-22q0 -36 2 -64.5t9 -48t20 -30t36 -10.5z" />
    <glyph glyph-name="hbar" unicode="&#x127;" horiz-adv-x="499" 
d="M-22 655h65v70h154v-70h129v-80h-129v-100q19 42 52.5 61t80.5 19q72 0 100.5 -47t28.5 -136v-372h-154v342q0 22 -1 41t-5.5 33t-13.5 22t-25 8q-23 0 -35.5 -12.5t-18.5 -33.5t-7.5 -49.5t-1.5 -60.5v-290h-154v575h-65v80z" />
    <glyph glyph-name="hcircumflex" unicode="&#x125;" horiz-adv-x="499" 
d="M43 0v725h154v-250q19 42 52.5 61t80.5 19q72 0 100.5 -47t28.5 -136v-372h-154v342q0 22 -1 41t-5.5 33t-13.5 22t-25 8q-23 0 -35.5 -12.5t-18.5 -33.5t-7.5 -49.5t-1.5 -60.5v-290h-154zM52 886h140l118 -113h-138l-50 49l-50 -49h-138z" />
    <glyph glyph-name="dotlessi" unicode="&#x131;" 
d="M43 538h154v-538h-154v538z" />
    <glyph glyph-name="ibreve" unicode="&#x12d;" 
d="M119 602q-40 0 -66.5 8.5t-42 24.5t-21.5 38.5t-6 51.5h103q0 -21 6.5 -34t26.5 -13t26.5 13t6.5 34h103q0 -29 -6 -51.5t-21 -38.5t-41.5 -24.5t-67.5 -8.5zM43 538h154v-538h-154v538z" />
    <glyph glyph-name="imacron" unicode="&#x12b;" 
d="M0 713h239v-101h-239v101zM43 538h154v-538h-154v538z" />
    <glyph glyph-name="iogonek" unicode="&#x12f;" 
d="M43 538h154v-538q-38 -18 -63 -33.5t-25 -38.5q0 -20 13.5 -26.5t30.5 -6.5q11 0 22 2t20 4v-81q-19 -4 -40.5 -6t-38.5 -2q-27 0 -52 5t-44 16.5t-30.5 29t-11.5 42.5q0 29 17 54t48 41v538zM43 725h154v-128h-154v128z" />
    <glyph glyph-name="itilde" unicode="&#x129;" 
d="M-30 602q4 35 14 58.5t24 38t31 20.5t34 6t29 -5.5t21 -11.5t16 -11.5t16 -5.5q22 0 31 34h83q-4 -35 -15 -58.5t-25.5 -38t-30.5 -20.5t-31 -6t-25.5 5t-19.5 11.5t-18 11.5t-20 5q-22 0 -31 -33h-83zM43 538h154v-538h-154v538z" />
    <glyph glyph-name="uni1ECB" unicode="&#x1ecb;" 
d="M43 538h154v-538h-154v538zM43 725h154v-128h-154v128zM54 -57h134v-118h-134v118z" />
    <glyph glyph-name="uni0237" unicode="&#x237;" 
d="M-29 -82h28q16 0 24.5 4t13 13t5.5 24t1 37v542h154v-533q0 -57 -10.5 -92t-33 -54.5t-57.5 -26.5t-83 -7h-42v93z" />
    <glyph glyph-name="jcircumflex" unicode="&#x135;" 
d="M46 725h130l110 -123h-128l-47 52l-47 -52h-128zM-29 -82h28q16 0 24.5 4t13 13t5.5 24t1 37v542h154v-533q0 -57 -10.5 -92t-33 -54.5t-57.5 -26.5t-83 -7h-42v93z" />
    <glyph glyph-name="uni0137" unicode="&#x137;" horiz-adv-x="473" 
d="M240 -150h-35v100h118v-107l-44 -89h-77zM250 206l-53 -74v-132h-154v725h154v-399l149 212h141l-148 -207l152 -331h-147z" />
    <glyph glyph-name="lacute" unicode="&#x13a;" 
d="M112 886h188l-131 -113h-112zM43 725h154v-725h-154v725z" />
    <glyph glyph-name="lcaron" unicode="&#x13e;" horiz-adv-x="390" 
d="M43 725h154v-725h-154v725zM258 725h142l-65 -170h-102z" />
    <glyph glyph-name="uni013C" unicode="&#x13c;" 
d="M98 -150h-35v100h118v-107l-44 -89h-77zM43 725h154v-725h-154v725z" />
    <glyph glyph-name="ldot" unicode="&#x140;" horiz-adv-x="385" 
d="M48 725h154v-725h-154v725zM250 482h134v-123h-134v123z" />
    <glyph glyph-name="lslash" unicode="&#x142;" horiz-adv-x="290" 
d="M0 377l71 39v309h154v-223l65 36v-125l-65 -36v-377h-154v291l-71 -39v125z" />
    <glyph glyph-name="nacute" unicode="&#x144;" horiz-adv-x="499" 
d="M259 725h174l-142 -123h-94zM43 0v538h154v-63q19 42 52.5 61t80.5 19q72 0 100.5 -47t28.5 -136v-372h-154v342q0 22 -1 41t-5.5 33t-13.5 22t-25 8q-23 0 -35.5 -12.5t-18.5 -33.5t-7.5 -49.5t-1.5 -60.5v-290h-154z" />
    <glyph glyph-name="ncaron" unicode="&#x148;" horiz-adv-x="499" 
d="M72 725h118l67 -52l67 52h117l-119 -123h-128zM43 0v538h154v-63q19 42 52.5 61t80.5 19q72 0 100.5 -47t28.5 -136v-372h-154v342q0 22 -1 41t-5.5 33t-13.5 22t-25 8q-23 0 -35.5 -12.5t-18.5 -33.5t-7.5 -49.5t-1.5 -60.5v-290h-154z" />
    <glyph glyph-name="uni0146" unicode="&#x146;" horiz-adv-x="499" 
d="M232 -150h-35v100h118v-107l-44 -89h-77zM43 0v538h154v-63q19 42 52.5 61t80.5 19q72 0 100.5 -47t28.5 -136v-372h-154v342q0 22 -1 41t-5.5 33t-13.5 22t-25 8q-23 0 -35.5 -12.5t-18.5 -33.5t-7.5 -49.5t-1.5 -60.5v-290h-154z" />
    <glyph glyph-name="oe" unicode="&#x153;" horiz-adv-x="776" 
d="M248 -12q-113 0 -166 61t-53 181v83q0 120 53 181t166 61q45 0 82.5 -14.5t60.5 -34.5q24 20 61 34t82 14q61 0 102 -16.5t66 -50t36 -84t11 -119.5v-29h-281v-25q0 -32 2.5 -58t9 -45t19 -29.5t33.5 -10.5q14 0 26 3.5t21 13.5t14 27.5t5 46.5v4h144v-5
q0 -55 -18.5 -91.5t-48.5 -58t-68 -30.5t-77 -9q-45 0 -81 14.5t-59 33.5q-23 -20 -60 -34t-82 -14zM248 87q22 0 34.5 10.5t18.5 31t7.5 50.5t1.5 69v47q0 39 -1.5 69t-7.5 50.5t-18.5 31t-34.5 10.5t-34.5 -10.5t-19 -31t-8 -50.5t-1.5 -69v-47q0 -39 1.5 -69t8 -50.5
t19 -31t34.5 -10.5zM609 337v17q0 54 -16 79t-56 25q-41 0 -56 -25t-15 -80v-16h143z" />
    <glyph glyph-name="obreve" unicode="&#x14f;" horiz-adv-x="498" 
d="M249 456q-22 0 -34.5 -10.5t-19 -31t-8 -50.5t-1.5 -69v-47q0 -39 1.5 -69t8 -50.5t19 -31t34.5 -10.5t34.5 10.5t19 31t8 50.5t1.5 69v47q0 39 -1.5 69t-8 50.5t-19 31t-34.5 10.5zM249 -12q-113 0 -166.5 61t-53.5 181v83q0 120 53.5 181t166.5 61t166.5 -61t53.5 -181
v-83q0 -120 -53.5 -181t-166.5 -61zM249 602q-80 0 -113 33t-33 90h103q0 -29 11.5 -38t31.5 -9t31.5 9t11.5 38h103q0 -29 -7.5 -51.5t-24.5 -38.5t-45 -24.5t-69 -8.5z" />
    <glyph glyph-name="ohungarumlaut" unicode="&#x151;" horiz-adv-x="498" 
d="M249 456q-22 0 -34.5 -10.5t-19 -31t-8 -50.5t-1.5 -69v-47q0 -39 1.5 -69t8 -50.5t19 -31t34.5 -10.5t34.5 10.5t19 31t8 50.5t1.5 69v47q0 39 -1.5 69t-8 50.5t-19 31t-34.5 10.5zM249 -12q-113 0 -166.5 61t-53.5 181v83q0 120 53.5 181t166.5 61t166.5 -61t53.5 -181
v-83q0 -120 -53.5 -181t-166.5 -61zM165 725h174l-142 -123h-94zM365 725h174l-142 -123h-94z" />
    <glyph glyph-name="omacron" unicode="&#x14d;" horiz-adv-x="498" 
d="M135 713h252v-101h-252v101zM249 456q-22 0 -34.5 -10.5t-19 -31t-8 -50.5t-1.5 -69v-47q0 -39 1.5 -69t8 -50.5t19 -31t34.5 -10.5t34.5 10.5t19 31t8 50.5t1.5 69v47q0 39 -1.5 69t-8 50.5t-19 31t-34.5 10.5zM249 -12q-113 0 -166.5 61t-53.5 181v83q0 120 53.5 181
t166.5 61t166.5 -61t53.5 -181v-83q0 -120 -53.5 -181t-166.5 -61z" />
    <glyph glyph-name="uni1ECD" unicode="&#x1ecd;" horiz-adv-x="498" 
d="M249 456q-22 0 -34.5 -10.5t-19 -31t-8 -50.5t-1.5 -69v-47q0 -39 1.5 -69t8 -50.5t19 -31t34.5 -10.5t34.5 10.5t19 31t8 50.5t1.5 69v47q0 39 -1.5 69t-8 50.5t-19 31t-34.5 10.5zM249 -12q-113 0 -166.5 61t-53.5 181v83q0 120 53.5 181t166.5 61t166.5 -61t53.5 -181
v-83q0 -120 -53.5 -181t-166.5 -61zM183 -57h134v-118h-134v118z" />
    <glyph glyph-name="racute" unicode="&#x155;" horiz-adv-x="338" 
d="M198 725h174l-142 -123h-94zM43 538h152v-121q5 21 14 43t22.5 39.5t32.5 28t45 10.5h19v-157h-40q-27 0 -45 -3.5t-28 -14.5t-14 -32t-4 -56v-275h-154v538z" />
    <glyph glyph-name="rcaron" unicode="&#x159;" horiz-adv-x="338" 
d="M-1 725h118l67 -52l67 52h117l-119 -123h-128zM43 538h152v-121q5 21 14 43t22.5 39.5t32.5 28t45 10.5h19v-157h-40q-27 0 -45 -3.5t-28 -14.5t-14 -32t-4 -56v-275h-154v538z" />
    <glyph glyph-name="uni0157" unicode="&#x157;" horiz-adv-x="338" 
d="M96 -150h-35v100h118v-107l-44 -89h-77zM43 538h152v-121q5 21 14 43t22.5 39.5t32.5 28t45 10.5h19v-157h-40q-27 0 -45 -3.5t-28 -14.5t-14 -32t-4 -56v-275h-154v538z" />
    <glyph glyph-name="sacute" unicode="&#x15b;" horiz-adv-x="459" 
d="M231 725h174l-142 -123h-94zM237 -12q-105 0 -160 51.5t-55 137.5v3h140v-4q0 -42 19 -65.5t56 -23.5q28 0 46 12t18 41t-15.5 44t-50.5 28l-81 31q-60 23 -93 58t-32 98q0 41 16 70.5t43.5 48.5t64 28t77.5 9q37 0 72 -9t62.5 -29.5t44 -53.5t16.5 -82v-2h-136v2
q0 23 -6 37.5t-16 23t-22.5 12t-24.5 3.5q-25 -1 -40 -13.5t-15 -34.5q0 -26 12 -38.5t34 -20.5l74 -30q34 -13 62 -26t48.5 -31t32 -44t11.5 -65q0 -42 -16 -73.5t-43 -52t-64 -30.5t-79 -10z" />
    <glyph glyph-name="scaron" unicode="&#x161;" horiz-adv-x="459" 
d="M47 725h118l67 -52l67 52h117l-119 -123h-128zM237 -12q-105 0 -160 51.5t-55 137.5v3h140v-4q0 -42 19 -65.5t56 -23.5q28 0 46 12t18 41t-15.5 44t-50.5 28l-81 31q-60 23 -93 58t-32 98q0 41 16 70.5t43.5 48.5t64 28t77.5 9q37 0 72 -9t62.5 -29.5t44 -53.5t16.5 -82
v-2h-136v2q0 23 -6 37.5t-16 23t-22.5 12t-24.5 3.5q-25 -1 -40 -13.5t-15 -34.5q0 -26 12 -38.5t34 -20.5l74 -30q34 -13 62 -26t48.5 -31t32 -44t11.5 -65q0 -42 -16 -73.5t-43 -52t-64 -30.5t-79 -10z" />
    <glyph glyph-name="scedilla" unicode="&#x15f;" horiz-adv-x="459" 
d="M237 -12q-105 0 -160 51.5t-55 137.5v3h140v-4q0 -42 19 -65.5t56 -23.5q28 0 46 12t18 41t-15.5 44t-50.5 28l-81 31q-60 23 -93 58t-32 98q0 41 16 70.5t43.5 48.5t64 28t77.5 9q37 0 72 -9t62.5 -29.5t44 -53.5t16.5 -82v-2h-136v2q0 23 -6 37.5t-16 23t-22.5 12
t-24.5 3.5q-25 -1 -40 -13.5t-15 -34.5q0 -26 12 -38.5t34 -20.5l74 -30q34 -13 62 -26t48.5 -31t32 -44t11.5 -65q0 -42 -16 -73.5t-43 -52t-64 -30.5t-79 -10zM228 -194q-24 0 -48 3.5t-47 11.5l17 51q11 -6 28.5 -10t34.5 -4q20 0 35.5 6t15.5 23q0 14 -11 21t-28 7
q-9 0 -20 -2t-19 -7l-30 17l51 83h58l-32 -52q13 4 38 4q15 0 30.5 -4.5t28 -12.5t20 -21t7.5 -30q0 -22 -11 -37.5t-29 -26t-41.5 -15.5t-47.5 -5z" />
    <glyph glyph-name="scircumflex" unicode="&#x15d;" horiz-adv-x="459" 
d="M163 725h130l120 -123h-118l-67 52l-67 -52h-118zM237 -12q-105 0 -160 51.5t-55 137.5v3h140v-4q0 -42 19 -65.5t56 -23.5q28 0 46 12t18 41t-15.5 44t-50.5 28l-81 31q-60 23 -93 58t-32 98q0 41 16 70.5t43.5 48.5t64 28t77.5 9q37 0 72 -9t62.5 -29.5t44 -53.5
t16.5 -82v-2h-136v2q0 23 -6 37.5t-16 23t-22.5 12t-24.5 3.5q-25 -1 -40 -13.5t-15 -34.5q0 -26 12 -38.5t34 -20.5l74 -30q34 -13 62 -26t48.5 -31t32 -44t11.5 -65q0 -42 -16 -73.5t-43 -52t-64 -30.5t-79 -10z" />
    <glyph glyph-name="uni0219" unicode="&#x219;" horiz-adv-x="459" 
d="M204 -150h-35v100h118v-107l-44 -89h-77zM237 -12q-105 0 -160 51.5t-55 137.5v3h140v-4q0 -42 19 -65.5t56 -23.5q28 0 46 12t18 41t-15.5 44t-50.5 28l-81 31q-60 23 -93 58t-32 98q0 41 16 70.5t43.5 48.5t64 28t77.5 9q37 0 72 -9t62.5 -29.5t44 -53.5t16.5 -82v-2
h-136v2q0 23 -6 37.5t-16 23t-22.5 12t-24.5 3.5q-25 -1 -40 -13.5t-15 -34.5q0 -26 12 -38.5t34 -20.5l74 -30q34 -13 62 -26t48.5 -31t32 -44t11.5 -65q0 -42 -16 -73.5t-43 -52t-64 -30.5t-79 -10z" />
    <glyph glyph-name="tcaron" unicode="&#x165;" horiz-adv-x="450" 
d="M318 725h142l-65 -170h-102zM199 0q-40 0 -66 7.5t-41.5 25t-21.5 45t-6 67.5v298h-64v95h64v146h154v-146h91v-95h-91v-283q0 -41 11.5 -53t40.5 -12h39v-95h-110z" />
    <glyph glyph-name="uni0163" unicode="&#x163;" horiz-adv-x="312" 
d="M142 -150h-35v100h118v-107l-44 -89h-77zM199 0q-40 0 -66 7.5t-41.5 25t-21.5 45t-6 67.5v298h-64v95h64v146h154v-146h91v-95h-91v-283q0 -41 11.5 -53t40.5 -12h39v-95h-110z" />
    <glyph glyph-name="uni021B" unicode="&#x21b;" horiz-adv-x="312" 
d="M142 -150h-35v100h118v-107l-44 -89h-77zM199 0q-40 0 -66 7.5t-41.5 25t-21.5 45t-6 67.5v298h-64v95h64v146h154v-146h91v-95h-91v-283q0 -41 11.5 -53t40.5 -12h39v-95h-110z" />
    <glyph glyph-name="ubreve" unicode="&#x16d;" horiz-adv-x="492" 
d="M246 602q-80 0 -113 33t-33 90h103q0 -29 11.5 -38t31.5 -9t31.5 9t11.5 38h103q0 -29 -7.5 -51.5t-24.5 -38.5t-45 -24.5t-69 -8.5zM182 -11q-79 0 -110.5 47.5t-31.5 147.5v354h154v-313q0 -26 0.5 -50t5 -42t13.5 -28.5t26 -10.5q21 0 32.5 12.5t17 33.5t6 49.5
t0.5 60.5v288h154v-538h-149v72q-19 -42 -47 -62.5t-71 -20.5z" />
    <glyph glyph-name="uhungarumlaut" unicode="&#x171;" horiz-adv-x="492" 
d="M182 -11q-79 0 -110.5 47.5t-31.5 147.5v354h154v-313q0 -26 0.5 -50t5 -42t13.5 -28.5t26 -10.5q21 0 32.5 12.5t17 33.5t6 49.5t0.5 60.5v288h154v-538h-149v72q-19 -42 -47 -62.5t-71 -20.5zM153 725h174l-142 -123h-94zM353 725h174l-142 -123h-94z" />
    <glyph glyph-name="umacron" unicode="&#x16b;" horiz-adv-x="492" 
d="M116 713h252v-101h-252v101zM182 -11q-79 0 -110.5 47.5t-31.5 147.5v354h154v-313q0 -26 0.5 -50t5 -42t13.5 -28.5t26 -10.5q21 0 32.5 12.5t17 33.5t6 49.5t0.5 60.5v288h154v-538h-149v72q-19 -42 -47 -62.5t-71 -20.5z" />
    <glyph glyph-name="uogonek" unicode="&#x173;" horiz-adv-x="492" 
d="M182 -11q-79 0 -110.5 47.5t-31.5 147.5v354h154v-313q0 -26 0.5 -50t5 -42t13.5 -28.5t26 -10.5q21 0 32.5 12.5t17 33.5t6 49.5t0.5 60.5v288h154v-538q-38 -18 -62.5 -33.5t-24.5 -38.5q0 -20 13.5 -26.5t30.5 -6.5q11 0 22 2t20 4v-81q-19 -4 -40.5 -6t-38.5 -2
q-27 0 -52 5t-44 16.5t-30.5 29t-11.5 42.5q0 29 19.5 54t50.5 41h-1v72q-19 -42 -47 -62.5t-71 -20.5z" />
    <glyph glyph-name="uring" unicode="&#x16f;" horiz-adv-x="492" 
d="M246 638q17 0 29 11.5t12 28.5q0 18 -12 29.5t-29 11.5t-29 -11.5t-12 -29.5q0 -17 12 -28.5t29 -11.5zM246 589q-20 0 -37.5 6.5t-30 18.5t-20 28.5t-7.5 35.5q0 39 28 64.5t67 25.5t67 -25.5t28 -64.5q0 -19 -7.5 -35.5t-20 -28.5t-30 -18.5t-37.5 -6.5zM182 -11
q-79 0 -110.5 47.5t-31.5 147.5v354h154v-313q0 -26 0.5 -50t5 -42t13.5 -28.5t26 -10.5q21 0 32.5 12.5t17 33.5t6 49.5t0.5 60.5v288h154v-538h-149v72q-19 -42 -47 -62.5t-71 -20.5z" />
    <glyph glyph-name="utilde" unicode="&#x169;" horiz-adv-x="492" 
d="M182 -11q-79 0 -110.5 47.5t-31.5 147.5v354h154v-313q0 -26 0.5 -50t5 -42t13.5 -28.5t26 -10.5q21 0 32.5 12.5t17 33.5t6 49.5t0.5 60.5v288h154v-538h-149v72q-19 -42 -47 -62.5t-71 -20.5zM307 692q30 0 31 33h83q-4 -57 -33 -90t-72 -33q-15 0 -29 5t-28 11.5
t-27.5 11.5t-26.5 5q-30 0 -31 -33h-83q4 57 33 90t72 33q17 0 32.5 -5t29.5 -11.5t26 -11.5t23 -5z" />
    <glyph glyph-name="uni1EE5" unicode="&#x1ee5;" horiz-adv-x="492" 
d="M176 -57h134v-118h-134v118zM182 -11q-79 0 -110.5 47.5t-31.5 147.5v354h154v-313q0 -26 0.5 -50t5 -42t13.5 -28.5t26 -10.5q21 0 32.5 12.5t17 33.5t6 49.5t0.5 60.5v288h154v-538h-149v72q-19 -42 -47 -62.5t-71 -20.5z" />
    <glyph glyph-name="wacute" unicode="&#x1e83;" horiz-adv-x="602" 
d="M316 725h174l-142 -123h-94zM20 538h128l30 -372l52 372h141l53 -371l30 371h128l-61 -538h-165l-55 408l-56 -408h-164z" />
    <glyph glyph-name="wcircumflex" unicode="&#x175;" horiz-adv-x="602" 
d="M236 725h130l120 -123h-118l-67 52l-67 -52h-118zM20 538h128l30 -372l52 372h141l53 -371l30 371h128l-61 -538h-165l-55 408l-56 -408h-164z" />
    <glyph glyph-name="wdieresis" unicode="&#x1e85;" horiz-adv-x="602" 
d="M136 725h134v-123h-134v123zM336 725h134v-123h-134v123zM20 538h128l30 -372l52 372h141l53 -371l30 371h128l-61 -538h-165l-55 408l-56 -408h-164z" />
    <glyph glyph-name="wgrave" unicode="&#x1e81;" horiz-adv-x="602" 
d="M122 725h174l62 -123h-94zM20 538h128l30 -372l52 372h141l53 -371l30 371h128l-61 -538h-165l-55 408l-56 -408h-164z" />
    <glyph glyph-name="ycircumflex" unicode="&#x177;" horiz-adv-x="430" 
d="M151 725h130l120 -123h-118l-67 52l-67 -52h-118zM43 -80h38q34 0 48.5 14t19.5 43l5 26l-154 535h150l77 -389l63 389h140l-126 -538q-12 -52 -27 -86t-37.5 -53.5t-55 -27.5t-78.5 -8h-63v95z" />
    <glyph glyph-name="ygrave" unicode="&#x1ef3;" horiz-adv-x="430" 
d="M54 725h174l62 -123h-94zM43 -80h38q34 0 48.5 14t19.5 43l5 26l-154 535h150l77 -389l63 389h140l-126 -538q-12 -52 -27 -86t-37.5 -53.5t-55 -27.5t-78.5 -8h-63v95z" />
    <glyph glyph-name="uni0233" unicode="&#x233;" horiz-adv-x="430" 
d="M93 713h252v-101h-252v101zM43 -80h38q34 0 48.5 14t19.5 43l5 26l-154 535h150l77 -389l63 389h140l-126 -538q-12 -52 -27 -86t-37.5 -53.5t-55 -27.5t-78.5 -8h-63v95z" />
    <glyph glyph-name="zacute" unicode="&#x17a;" horiz-adv-x="424" 
d="M229 725h174l-142 -123h-94zM22 95l213 348h-190v95h349v-95l-213 -348h221v-95h-380v95z" />
    <glyph glyph-name="zcaron" unicode="&#x17e;" horiz-adv-x="424" 
d="M45 725h118l67 -52l67 52h117l-119 -123h-128zM22 95l213 348h-190v95h349v-95l-213 -348h221v-95h-380v95z" />
    <glyph glyph-name="zdotaccent" unicode="&#x17c;" horiz-adv-x="424" 
d="M165 725h134v-123h-134v123zM22 95l213 348h-190v95h349v-95l-213 -348h221v-95h-380v95z" />
    <glyph glyph-name="ellipsis" unicode="&#x2026;" horiz-adv-x="714" 
d="M276 155h162v-155h-162v155zM514 155h162v-155h-162v155zM38 155h162v-155h-162v155z" />
    <glyph glyph-name="endash" unicode="&#x2013;" horiz-adv-x="499" 
d="M26 317h447v-131h-447v131z" />
    <glyph glyph-name="emdash" unicode="&#x2014;" horiz-adv-x="726" 
d="M26 317h674v-131h-674v131z" />
    <glyph glyph-name="guilsinglleft" unicode="&#x2039;" horiz-adv-x="211" 
d="M30 192v180l151 148v-172l-73 -67l73 -67v-173z" />
    <glyph glyph-name="guilsinglright" unicode="&#x203a;" horiz-adv-x="211" 
d="M30 214l73 67l-73 67v172l151 -148v-180l-151 -151v173z" />
    <glyph glyph-name="quoteleft" unicode="&#x2018;" horiz-adv-x="238" 
d="M130 561h70v-154h-162v164l84 154h90z" />
    <glyph glyph-name="quoteright" unicode="&#x2019;" horiz-adv-x="238" 
d="M108 571h-70v154h162v-164l-84 -154h-90z" />
    <glyph glyph-name="quotedblleft" unicode="&#x201c;" horiz-adv-x="450" 
d="M342 561h70v-154h-162v164l84 154h90zM130 561h70v-154h-162v164l84 154h90z" />
    <glyph glyph-name="quotedblright" unicode="&#x201d;" horiz-adv-x="450" 
d="M320 571h-70v154h162v-164l-84 -154h-90zM108 571h-70v154h162v-164l-84 -154h-90z" />
    <glyph glyph-name="quotesinglbase" unicode="&#x201a;" horiz-adv-x="238" 
d="M108 0h-70v154h162v-164l-84 -154h-90z" />
    <glyph glyph-name="quotedblbase" unicode="&#x201e;" horiz-adv-x="450" 
d="M320 0h-70v154h162v-164l-84 -154h-90zM108 0h-70v154h162v-164l-84 -154h-90z" />
    <glyph glyph-name="bullet" unicode="&#x2022;" horiz-adv-x="447" 
d="M220 89q-36 0 -68.5 14t-56.5 39t-38 58t-14 72q0 37 14 69t38 56t56.5 38t68.5 14q39 0 72.5 -14t58.5 -38t39 -56t14 -69q0 -39 -14 -72t-39 -58t-58.5 -39t-72.5 -14z" />
    <glyph glyph-name="minus" unicode="&#x2212;" horiz-adv-x="548" 
d="M16 317h516v-131h-516v131z" />
    <glyph glyph-name="Euro" unicode="&#x20ac;" horiz-adv-x="604" 
d="M35 450h63q2 73 14 127.5t39 90.5t72.5 53.5t114.5 17.5q116 0 175 -59t59 -188v-9h-147v7q0 45 -6.5 72t-18 42t-27.5 20t-36 5q-27 0 -43 -12t-25 -35t-12.5 -56.5t-4.5 -75.5h176l-35 -69h-141v-44h129l-36 -69h-93q1 -41 5 -72.5t13 -53t25 -33t42 -11.5q20 0 36 5
t27.5 20t18 42t6.5 72v7h147v-9q0 -129 -59 -188t-175 -59q-68 0 -113 17t-72 51.5t-39.5 87.5t-14.5 124h-99l35 69h63v44h-98z" />
    <glyph glyph-name="uniFB01" unicode="&#xfb01;" horiz-adv-x="552" 
d="M62 443h-64v95h64v43q0 46 11 74.5t33 44t55 20.5t78 5h68v-91h-37q-31 0 -42.5 -9.5t-11.5 -41.5v-45h91v-95h-91v-443h-154v443zM355 725h154v-128h-154v128zM355 538h154v-538h-154v538z" />
    <glyph glyph-name="uniFB02" unicode="&#xfb02;" horiz-adv-x="552" 
d="M62 443h-64v95h64v43q0 46 11 74.5t33 44t55 20.5t78 5h68v-91h-37q-31 0 -42.5 -9.5t-11.5 -41.5v-45h91v-95h-91v-443h-154v443zM355 725h154v-725h-154v725z" />
    <glyph glyph-name="breve" unicode="&#x2d8;" horiz-adv-x="336" 
d="M168 602q-80 0 -113 33t-33 90h103q0 -29 11.5 -38t31.5 -9t31.5 9t11.5 38h103q0 -29 -7.5 -51.5t-24.5 -38.5t-45 -24.5t-69 -8.5z" />
    <glyph glyph-name="caron" unicode="&#x2c7;" horiz-adv-x="412" 
d="M22 725h118l67 -52l67 52h117l-119 -123h-128z" />
    <glyph glyph-name="circumflex" unicode="&#x2c6;" horiz-adv-x="414" 
d="M142 725h130l120 -123h-118l-67 52l-67 -52h-118z" />
    <glyph glyph-name="dotaccent" unicode="&#x2d9;" horiz-adv-x="177" 
d="M22 725h134v-123h-134v123z" />
    <glyph glyph-name="glyph332" 
d="M43 725h154v-128h-154v128z" />
    <glyph glyph-name="glyph333" horiz-adv-x="177" 
d="M22 -57h134v-118h-134v118z" />
    <glyph glyph-name="hungarumlaut" unicode="&#x2dd;" horiz-adv-x="480" 
d="M84 725h174l-142 -123h-94zM284 725h174l-142 -123h-94z" />
    <glyph glyph-name="glyph335" horiz-adv-x="165" 
d="M60 -150h-35v100h118v-107l-44 -89h-77z" />
    <glyph glyph-name="ogonek" unicode="&#x2db;" horiz-adv-x="262" 
d="M160 -188q-27 0 -52 5t-44 16.5t-30.5 29t-11.5 42.5q0 29 19 54t50 41h149q-38 -18 -62.5 -33.5t-24.5 -38.5q0 -20 13.5 -26.5t30.5 -6.5q11 0 22 2t20 4v-81q-19 -4 -40.5 -6t-38.5 -2z" />
    <glyph glyph-name="ring" unicode="&#x2da;" horiz-adv-x="233" 
d="M117 638q17 0 29 11.5t12 28.5q0 18 -12 29.5t-29 11.5t-29 -11.5t-12 -29.5q0 -17 12 -28.5t29 -11.5zM117 589q-20 0 -37.5 6.5t-30 18.5t-20 28.5t-7.5 35.5q0 39 28 64.5t67 25.5t67 -25.5t28 -64.5q0 -19 -7.5 -35.5t-20 -28.5t-30 -18.5t-37.5 -6.5z" />
    <glyph glyph-name="tilde" unicode="&#x2dc;" horiz-adv-x="374" 
d="M238 692q30 0 31 33h83q-4 -57 -33 -90t-72 -33q-15 0 -29 5t-28 11.5t-27.5 11.5t-26.5 5q-30 0 -31 -33h-83q4 57 33 90t72 33q17 0 32.5 -5t29.5 -11.5t26 -11.5t23 -5z" />
    <glyph glyph-name="glyph339" horiz-adv-x="211" 
d="M47 725h142l-65 -170h-102z" />
    <glyph glyph-name="glyph340" horiz-adv-x="286" 
d="M77 886h188l-131 -113h-112z" />
    <glyph glyph-name="glyph341" horiz-adv-x="361" 
d="M181 769q-76 0 -115 28t-44 89h107q2 -26 14.5 -36t37.5 -10q26 0 38 10t14 36h107q-5 -61 -44 -89t-115 -28z" />
    <glyph glyph-name="glyph342" horiz-adv-x="420" 
d="M140 773l-118 113h138l50 -49l50 49h138l-118 -113h-140z" />
    <glyph glyph-name="glyph343" horiz-adv-x="267" 
d="M117 -194q-23 0 -47.5 3.5t-47.5 11.5l17 51q11 -6 28.5 -10t34.5 -4q20 0 35.5 6t15.5 23q0 14 -11 21t-28 7q-9 0 -20 -2t-19 -7l-30 17l51 83h58l-32 -52q13 4 38 4q16 0 31.5 -4.5t27.5 -12.5t19.5 -21t7.5 -30q0 -22 -11 -37.5t-29 -26t-41.5 -15.5t-47.5 -5z" />
    <glyph glyph-name="glyph344" horiz-adv-x="419" 
d="M140 886h140l118 -113h-138l-50 49l-50 -49h-138z" />
    <glyph glyph-name="glyph345" horiz-adv-x="377" 
d="M22 886h134v-113h-134v113zM222 886h134v-113h-134v113z" />
    <glyph glyph-name="glyph346" horiz-adv-x="203" 
d="M22 886h160v-113h-160v113z" />
    <glyph glyph-name="glyph347" horiz-adv-x="286" 
d="M22 886h188l55 -113h-112z" />
    <glyph glyph-name="glyph348" horiz-adv-x="480" 
d="M280 886h178l-121 -113h-112zM77 886h178l-121 -113h-112z" />
    <glyph glyph-name="glyph349" horiz-adv-x="296" 
d="M22 886h252v-103h-252v103z" />
    <glyph glyph-name="glyph350" horiz-adv-x="274" 
d="M160 -188q-27 0 -52 5t-44 16.5t-30.5 29t-11.5 42.5q0 29 18 55t41 40h161q-38 -18 -63.5 -34t-25.5 -38q0 -20 13.5 -26.5t30.5 -6.5q12 0 23.5 2t21.5 5v-82q-20 -4 -42.5 -6t-39.5 -2z" />
    <glyph glyph-name="glyph351" horiz-adv-x="223" 
d="M112 808q17 0 30 11.5t13 30.5t-13 31t-30 12t-30 -12t-13 -31t13 -30.5t30 -11.5zM112 765q-38 0 -64 24t-26 61t26.5 61t63.5 24t63.5 -24t26.5 -61t-26 -61t-64 -24z" />
    <glyph glyph-name="glyph352" horiz-adv-x="374" 
d="M238 861q30 0 31 33h83q-4 -57 -33 -90t-72 -33q-15 0 -29 5t-28 11.5t-27.5 11.5t-26.5 5q-30 0 -31 -33h-83q4 57 33 90t72 33q17 0 32.5 -5t29.5 -11.5t26 -11.5t23 -5z" />
    </font>
</defs>
</svg>
