<?xml version="1.0" standalone="no"?>
<!DOCTYPE svg PUBLIC "-//W3C//DTD SVG 1.1//EN" "http://www.w3.org/Graphics/SVG/1.1/DTD/svg11.dtd" >
<svg xmlns="http://www.w3.org/2000/svg" xmlns:xlink="http://www.w3.org/1999/xlink" version="1.1">
<metadata>
Created by Christoph Koeberlin (http://christoph.koe.berlin)
Copyright (c) 2014 Swiss Typefaces Sa`rl. All rights reserved.
</metadata>
<defs>
<font id="Font" horiz-adv-x="705" >
  <font-face 
    font-family="Font"
    font-weight="300"
    font-stretch="normal"
    units-per-em="1000"
    panose-1="2 0 3 4 6 0 0 0 0 0"
    ascent="800"
    descent="-200"
    x-height="538"
    cap-height="725"
    bbox="-181 -238 1267 943"
    underline-thickness="50"
    underline-position="-60"
    unicode-range="U+0020-FB02"
  />
<missing-glyph horiz-adv-x="500" 
d="M0 725h500v-725h-500v725zM19 696v-667l220 333zM481 29v667l-221 -334zM33 19h433l-216 327zM250 378l216 328h-433z" />
    <glyph glyph-name=".notdef" horiz-adv-x="500" 
d="M0 725h500v-725h-500v725zM19 696v-667l220 333zM481 29v667l-221 -334zM33 19h433l-216 327zM250 378l216 328h-433z" />
    <glyph glyph-name=".null" horiz-adv-x="0" 
 />
    <glyph glyph-name="nonmarkingreturn" horiz-adv-x="290" 
 />
    <glyph glyph-name="space" unicode=" " horiz-adv-x="290" 
 />
    <glyph glyph-name="exclam" unicode="!" horiz-adv-x="288" 
d="M192 725v-200l-29 -311h-38l-29 313v198h96zM84 119h120v-119h-120v119z" />
    <glyph glyph-name="quotedbl" unicode="&#x22;" horiz-adv-x="318" 
d="M125 725l-32 -243h-31l-32 243h95zM288 725l-32 -243h-31l-32 243h95z" />
    <glyph glyph-name="numbersign" unicode="#" horiz-adv-x="634" 
d="M187 523l29 202h63l-29 -202h177l29 202h63l-29 -202h138l-8 -60h-138l-25 -175h139l-9 -60h-138l-32 -228h-64l32 228h-177l-32 -228h-63l32 228h-139l9 60h139l25 175h-140l8 60h140zM217 288h177l25 175h-177z" />
    <glyph glyph-name="dollar" unicode="$" horiz-adv-x="629" 
d="M480 538q-8 60 -47.5 100t-99.5 51v-278l12 -3q57 -15 103.5 -31.5t80 -39.5t51.5 -57t18 -83q0 -53 -21.5 -92t-58 -64.5t-84.5 -39t-101 -14.5v-99h-51v101q-110 8 -178.5 66t-82.5 164h96q4 -33 16.5 -63t32.5 -54t49 -40.5t67 -22.5v296l-22 6q-42 11 -81.5 27.5
t-70 40.5t-49 58.5t-18.5 81.5q0 46 20 81.5t53.5 60t77 37t90.5 14.5v112h51v-114q43 -5 83 -19.5t72.5 -39.5t54.5 -60.5t28 -82.5h-91zM512 174q0 36 -14.5 60t-39.5 40.5t-57 27t-68 19.5v-285q31 1 62.5 8.5t57.5 24t42.5 42t16.5 63.5zM123 562q0 -32 13.5 -54t36 -38
t51 -26.5t58.5 -18.5v268q-75 -2 -117 -37.5t-42 -93.5z" />
    <glyph glyph-name="percent" unicode="%" horiz-adv-x="907" 
d="M50 533q0 52 13 91t36 65t54 39.5t67 13.5t67 -13.5t54 -39.5t36.5 -65t13.5 -91t-13.5 -91t-36.5 -65.5t-54 -40t-67 -13.5t-67 13.5t-54 40t-36 65.5t-13 91zM123 533q0 -86 25 -131t72 -45q46 0 72 45t26 131q0 85 -26 130t-72 45q-47 0 -72 -45t-25 -130zM162 0
l509 725h70l-509 -725h-70zM516 197q0 52 13 91t36 65t54 39.5t67 13.5t67 -13.5t54 -39.5t36.5 -65t13.5 -91t-13.5 -91t-36.5 -65.5t-54 -40t-67 -13.5t-67 13.5t-54 40t-36 65.5t-13 91zM589 197q0 -86 25 -131t72 -45q46 0 72 45t26 131q0 85 -26 130t-72 45
q-47 0 -72 -45t-25 -130z" />
    <glyph glyph-name="ampersand" unicode="&#x26;" horiz-adv-x="792" 
d="M706 31l-58 -54l-126 140q-56 -69 -117.5 -99.5t-127.5 -30.5q-49 0 -93 14t-77.5 41t-53 67t-19.5 92q0 45 18.5 81t48.5 63.5t67.5 48t75.5 33.5l-3 4q-20 22 -38 44.5t-32 45.5t-22 46.5t-8 48.5q0 60 52.5 98.5t146.5 38.5q34 0 66 -7.5t57 -22.5t40 -38t15 -55
q0 -38 -15.5 -67t-40 -52.5t-56 -41.5t-62.5 -33l195 -219q22 30 42 65.5t40 75.5q20 38 18 53t-28 17l-58 3v32h240v-32l-41 -3q-27 -2 -42.5 -23.5t-32.5 -50.5q-7 -14 -19 -34.5t-26.5 -44t-30 -48t-30.5 -46.5zM127 212q0 -35 11.5 -66t32.5 -54.5t50.5 -37.5t66.5 -14
q24 0 49.5 5t51.5 18t52 34t50 54l-224 251q-66 -26 -103 -72t-37 -118zM446 618q0 27 -9 45.5t-24 30t-35 17t-42 5.5t-42 -5.5t-35.5 -17t-24.5 -28.5t-9 -40q0 -34 24.5 -71.5t71.5 -91.5l3 -4q69 33 95.5 72.5t26.5 87.5z" />
    <glyph glyph-name="quotesingle" unicode="'" horiz-adv-x="155" 
d="M125 725l-32 -243h-31l-32 243h95z" />
    <glyph glyph-name="parenleft" unicode="(" horiz-adv-x="235" 
d="M123 278q0 -65 7 -124t21 -116t35 -113t49 -114h-43q-78 111 -117 224t-39 243t39 242t117 225h43q-57 -113 -84.5 -225.5t-27.5 -241.5z" />
    <glyph glyph-name="parenright" unicode=")" horiz-adv-x="235" 
d="M111 278q0 129 -27.5 241.5t-83.5 225.5h43q77 -113 116.5 -225t39.5 -242t-39.5 -243t-116.5 -224h-43q28 58 48.5 114t34.5 113t21 116t7 124z" />
    <glyph glyph-name="asterisk" unicode="*" horiz-adv-x="377" 
d="M214 605l122 39l17 -50l-122 -39l75 -103l-43 -32l-75 103l-74 -102l-44 31l74 102l-120 40l15 51l121 -40v120h54v-120z" />
    <glyph glyph-name="plus" unicode="+" 
d="M321 0v246h-246v60h246v233h63v-233h246v-60h-246v-246h-63z" />
    <glyph glyph-name="comma" unicode="," horiz-adv-x="288" 
d="M84 119h120v-127l-75 -158h-37l42 166h-50v119z" />
    <glyph glyph-name="hyphen" unicode="-" horiz-adv-x="329" 
d="M24 318h281v-82h-281v82z" />
    <glyph glyph-name="period" unicode="." horiz-adv-x="288" 
d="M84 119h120v-119h-120v119z" />
    <glyph glyph-name="slash" unicode="/" horiz-adv-x="358" 
d="M0 0l294 725h64l-294 -725h-64z" />
    <glyph glyph-name="zero" unicode="0" horiz-adv-x="663" 
d="M48 365q0 88 19 158t55 119t89 74.5t121 25.5t120.5 -25.5t88.5 -74.5t55 -119t19 -158q0 -89 -19 -159t-55 -119t-88.5 -74.5t-120.5 -25.5t-121 25.5t-89 74.5t-55 119t-19 159zM140 365q0 -155 46.5 -242t145.5 -87q98 0 144.5 87t46.5 242q0 154 -46.5 241t-144.5 87
q-99 0 -145.5 -87t-46.5 -241z" />
    <glyph glyph-name="one" unicode="1" horiz-adv-x="424" 
d="M290 60q0 -14 6.5 -17.5t22.5 -5.5l52 -4v-33h-280v33l85 4q16 1 22 5t6 18v555h-168v32q55 4 91.5 10t61 16.5t41.5 25.5t34 36h27l-1 -183v-492z" />
    <glyph glyph-name="two" unicode="2" horiz-adv-x="625" 
d="M565 78v-78h-535v63q132 92 216.5 160.5t133 123t67 99t18.5 88.5q0 40 -12 70t-32.5 50t-48 29.5t-58.5 9.5q-50 0 -84 -15.5t-54 -43t-27.5 -65.5t-3.5 -84h-88q-3 62 16.5 110t55 80.5t84.5 49.5t105 17q48 0 91.5 -13.5t76 -39.5t51.5 -64t19 -86q0 -59 -28 -110.5
t-82 -105t-133.5 -113t-182.5 -132.5h435z" />
    <glyph glyph-name="three" unicode="3" horiz-adv-x="638" 
d="M292 -13q-57 0 -103 16t-78.5 44t-50.5 65t-20 79h87q0 -32 10.5 -60.5t31.5 -49.5t52 -33t72 -12q40 0 74 9.5t59 28.5t39.5 48t14.5 68q0 38 -17 69t-47.5 52.5t-72.5 33.5t-92 12h-44v46h44q41 0 78.5 10t66.5 29.5t46 48.5t17 68q0 63 -41 98.5t-115 35.5
q-41 0 -71.5 -12.5t-51 -33.5t-31 -49.5t-10.5 -61.5h-87q3 42 21 79t51 65.5t79.5 45t106.5 16.5q48 0 91.5 -10.5t76 -32t51.5 -55.5t19 -82q0 -43 -19.5 -74.5t-48 -52.5t-60.5 -32t-56 -14v-1q42 -3 79.5 -17.5t66 -38.5t45.5 -58t17 -76q0 -54 -23 -93.5t-61.5 -66
t-89 -39t-106.5 -12.5z" />
    <glyph glyph-name="four" unicode="4" horiz-adv-x="661" 
d="M466 60q0 -14 6.5 -17.5t22.5 -5.5l52 -4v-33h-281v33l86 4q15 1 21.5 5t6.5 18v145h-368v59l382 461h73l-1 -182v-268h147v-70h-147v-145zM380 625l-293 -350h293v350z" />
    <glyph glyph-name="five" unicode="5" horiz-adv-x="658" 
d="M312 -13q-57 0 -103 16.5t-78.5 45t-50.5 66t-20 79.5h87q0 -33 10.5 -61.5t31.5 -50t52 -34t72 -12.5q93 0 140.5 55t47.5 146q0 49 -14.5 85.5t-39.5 60.5t-57 36t-68 12q-71 0 -117.5 -31t-69.5 -90l-52 12l47 403h417l-5 -79h-371l-28 -255q30 48 83 72t110 24
q51 0 97.5 -14t81.5 -43.5t56 -76t21 -111.5q0 -61 -22 -108.5t-60 -80t-89 -49.5t-109 -17z" />
    <glyph glyph-name="six" unicode="6" horiz-adv-x="654" 
d="M334 427q-41 0 -74.5 -15t-57.5 -41.5t-37 -63t-13 -80.5q0 -47 14.5 -82.5t39 -59.5t57 -36.5t67.5 -12.5q42 0 74.5 16.5t54.5 43.5t33.5 62.5t11.5 74.5q0 36 -10.5 70.5t-31.5 62t-53 44.5t-75 17zM362 693q-56 0 -96.5 -28.5t-67 -76t-39 -108.5t-12.5 -127
q15 34 38.5 59t50.5 40.5t55.5 23t53.5 7.5q56 0 102 -19t78.5 -52t50.5 -78.5t18 -99.5t-20.5 -99.5t-56.5 -78t-84 -51t-103 -18.5q-72 0 -123 26t-83.5 72.5t-48 110t-15.5 138.5q0 106 24.5 183t66.5 127t98.5 74t119.5 24q36 0 72.5 -11.5t66.5 -34.5t51.5 -57
t28.5 -80h-86q-8 62 -43.5 98t-96.5 36z" />
    <glyph glyph-name="seven" unicode="7" horiz-adv-x="511" 
d="M6 725h522v-80q-54 -47 -111 -111t-104 -144.5t-76.5 -178t-28.5 -211.5h-105q7 114 40.5 209t84 173.5t113 143t127.5 118.5h-462v81z" />
    <glyph glyph-name="eight" unicode="8" horiz-adv-x="672" 
d="M338 -13q-58 0 -108.5 13t-88 38t-59.5 62t-22 85q0 37 14.5 68.5t40 56t61.5 41.5t79 27l-16 7q-64 27 -103 72.5t-39 108.5q0 39 17 71t48.5 55.5t76 36.5t99.5 13q56 0 101 -12t77 -33.5t49 -51.5t17 -67q0 -34 -14.5 -63t-38 -52t-54.5 -40t-64 -27l29 -12
q36 -15 67 -33.5t54.5 -42t37 -52.5t13.5 -65q0 -47 -20.5 -84.5t-57.5 -64t-87 -41t-109 -14.5zM146 186q0 -69 52.5 -109.5t139.5 -40.5q42 0 77 9.5t60 27t39 43t14 58.5q0 29 -15.5 53t-41 44.5t-59 37.5t-68.5 32l-51 21q-75 -20 -111 -67t-36 -109zM500 570
q0 60 -46 91.5t-118 31.5q-38 0 -67.5 -9t-50.5 -25t-32 -36.5t-11 -42.5q0 -26 11 -47t31.5 -38.5t50 -33t65.5 -31.5l41 -18q60 21 93 62.5t33 95.5z" />
    <glyph glyph-name="nine" unicode="9" horiz-adv-x="654" 
d="M320 302q40 0 73.5 15t57.5 41.5t37.5 63t13.5 80.5q0 47 -14.5 82.5t-39 59.5t-57 36.5t-67.5 12.5q-42 0 -74.5 -16.5t-54.5 -43.5t-33.5 -62.5t-11.5 -73.5q0 -36 10 -70.5t31 -62.5t53 -45t76 -17zM291 36q57 0 97.5 28.5t66.5 76t38.5 109t13.5 127.5
q-15 -35 -38.5 -59.5t-50.5 -40.5t-55.5 -23t-53.5 -7q-56 0 -102 19t-78.5 52t-50.5 78.5t-18 99.5t20.5 99t56.5 78t84 51t103 18q72 0 123 -26t83.5 -72.5t48 -110t15.5 -138.5q0 -106 -24.5 -183t-66.5 -127t-98.5 -74t-119.5 -24q-36 0 -72.5 11.5t-66.5 34.5t-52 57
t-29 80h87q8 -62 43.5 -98t95.5 -36z" />
    <glyph glyph-name="colon" unicode=":" horiz-adv-x="288" 
d="M84 119h120v-119h-120v119zM84 538h120v-119h-120v119z" />
    <glyph glyph-name="semicolon" unicode=";" horiz-adv-x="310" 
d="M84 119h120v-127l-75 -158h-37l42 166h-50v119zM84 538h120v-119h-120v119z" />
    <glyph glyph-name="less" unicode="&#x3c;" 
d="M603 545v-69l-447 -201l447 -200v-68l-520 239v60z" />
    <glyph glyph-name="equal" unicode="=" 
d="M116 353v60h474v-60h-474zM116 145v60h474v-60h-474z" />
    <glyph glyph-name="greater" unicode="&#x3e;" 
d="M622 246l-520 -239v68l447 200l-447 201v69l520 -239v-60z" />
    <glyph glyph-name="question" unicode="?" horiz-adv-x="526" 
d="M263 706q-46 0 -79 -14.5t-54 -39t-30 -57t-7 -67.5h-87q-3 57 15.5 99.5t54 70t85 41.5t108.5 14q53 0 97 -11t75.5 -31.5t49 -49t17.5 -63.5q0 -32 -9.5 -57.5t-29.5 -48t-50 -44.5t-72 -46q-30 -18 -49.5 -34t-31 -34t-16 -38.5t-4.5 -47.5v-34h-55v37q0 39 6 69
t20 54t36 43.5t55 38.5q57 32 82 65t25 78q0 51 -42.5 79t-109.5 28zM162 119h120v-119h-120v119z" />
    <glyph glyph-name="at" unicode="@" horiz-adv-x="850" 
d="M638 161q-48 0 -75 31t-29 79q-23 -48 -64 -76.5t-99 -28.5q-30 0 -56 10t-45.5 31.5t-31 54.5t-11.5 78q0 46 15 89t42 76t66 53t87 20q51 0 80.5 -28.5t38.5 -66.5l11 76h51l-33 -230q-3 -18 -2 -38.5t7.5 -38t19.5 -28.5t35 -11q47 0 80 51.5t33 146.5q0 69 -23 120.5
t-63.5 86t-96.5 51.5t-122 17q-77 0 -139.5 -26t-107 -71t-69 -106t-24.5 -131q0 -68 21 -125.5t60 -98.5t95 -64t126 -23q50 0 103.5 11t98.5 32l20 -52q-50 -22 -110.5 -33.5t-111.5 -11.5q-82 0 -148.5 27t-114 76t-73 116.5t-25.5 147.5q0 81 30 151t83.5 121.5
t126.5 81t160 29.5q77 0 143 -20.5t114 -61t75.5 -101t27.5 -140.5q0 -61 -15 -108t-39.5 -79.5t-56.5 -49t-65 -16.5zM437 524q-33 0 -60.5 -15t-47 -40.5t-30.5 -59t-11 -71.5q0 -61 26.5 -90.5t71.5 -29.5q34 0 61.5 16t46.5 42t29.5 60.5t10.5 71.5q0 57 -25 86.5
t-72 29.5z" />
    <glyph glyph-name="A" unicode="A" horiz-adv-x="714" 
d="M321 732h71l248 -646q5 -14 10 -23t12 -15t17.5 -9.5t27.5 -4.5l11 -1v-33h-262v33l46 3q19 1 30 3.5t15.5 8.5t3 16t-7.5 26l-53 139h-300l-39 -106q-11 -28 -14.5 -44.5t0 -26t14.5 -13t30 -4.5l40 -2v-33h-225v33l12 2q18 1 29 5.5t20 16t17.5 32t21.5 54.5zM210 283
h259l-130 344z" />
    <glyph glyph-name="B" unicode="B" horiz-adv-x="690" 
d="M54 725h124q50 0 97.5 0.5t70.5 0.5q131 0 199.5 -42t68.5 -123q0 -39 -12.5 -68.5t-34 -50.5t-50 -34.5t-59.5 -20.5v-3q35 -5 69 -16.5t61 -32.5t43.5 -53t16.5 -77q0 -41 -13.5 -78t-47.5 -65.5t-91.5 -45.5t-144.5 -17h-171q-59 0 -126 1v34l57 4q16 1 22 5.5t6 17.5
v603q0 13 -6 17.5t-22 5.5l-57 4v34zM231 400h107q55 0 90 11.5t55 31.5t27.5 46.5t7.5 56.5q0 66 -42.5 99.5t-143.5 33.5h-101v-279zM231 46h110q57 0 96 8.5t63 27.5t35 48t11 70q0 44 -13.5 73t-39.5 46t-64 24t-88 7h-110v-304z" />
    <glyph glyph-name="C" unicode="C" horiz-adv-x="735" 
d="M42 366q0 85 24 154.5t69 119t108 76t141 26.5q59 0 111 -16t93.5 -46t69 -74t37.5 -99h-95q-14 92 -69.5 138.5t-145.5 46.5q-51 0 -95 -20t-76 -60.5t-50.5 -102t-18.5 -143.5q0 -81 18 -142.5t49.5 -103t75 -62.5t94.5 -21q96 0 152 46t70 140h95q-10 -58 -38.5 -102
t-70.5 -74t-95 -45t-112 -15q-82 0 -145.5 27.5t-107 78t-66 120t-22.5 153.5z" />
    <glyph glyph-name="D" unicode="D" horiz-adv-x="762" 
d="M617 363q0 106 -29.5 168.5t-76 95.5t-104.5 42.5t-115 9.5h-61v-633h61q57 0 115 9.5t104.5 42.5t76 96t29.5 169zM720 363q0 -105 -33.5 -175t-91.5 -112t-135 -59.5t-165 -17.5h-139q-48 0 -102 1v34l57 4q16 1 22 5.5t6 17.5v603q0 13 -6 17.5t-22 5.5l-57 4v34h102
q41 0 80.5 0.5t58.5 0.5q88 0 165 -17.5t135 -59t91.5 -111.5t33.5 -175z" />
    <glyph glyph-name="E" unicode="E" horiz-adv-x="682" 
d="M615 725v-214h-34l-17 98q-5 25 -11 39t-18.5 20.5t-33 8t-53.5 1.5h-217v-279h279v-51h-279v-301h225q33 0 53 1t32 8t18 21.5t11 40.5l18 96h34v-214h-568v34l57 4q16 1 22 5.5t6 17.5v603q0 13 -6 17.5t-22 5.5l-57 4v34h561z" />
    <glyph glyph-name="F" unicode="F" horiz-adv-x="644" 
d="M624 725v-214h-34l-17 98q-5 25 -11 39t-18.5 20.5t-33 8t-53.5 1.5h-226v-279h268v-51h-268v-286q0 -13 6.5 -17.5t21.5 -5.5l91 -4v-35h-296v34l57 4q16 1 22 5.5t6 17.5v603q0 13 -6 17.5t-22 5.5l-57 4v34h570z" />
    <glyph glyph-name="G" unicode="G" horiz-adv-x="775" 
d="M387 692q-50 0 -94 -20t-77 -60.5t-52 -102t-19 -143.5q0 -81 18 -142t49.5 -102t75 -61.5t94.5 -20.5q40 0 80.5 10.5t72.5 36t52.5 68.5t20.5 107v46h-149v47h235v-355h-53l-21 107q-15 -24 -37 -45.5t-52 -38t-68.5 -26.5t-86.5 -10q-80 0 -142 27.5t-104.5 78
t-65 120t-22.5 153.5q0 85 24.5 154.5t69.5 119t108.5 76t141.5 26.5q59 0 111 -16t93.5 -46t69 -74t37.5 -99h-95q-14 92 -69.5 138.5t-145.5 46.5z" />
    <glyph glyph-name="H" unicode="H" horiz-adv-x="855" 
d="M716 61q0 -13 6 -17.5t22 -5.5l57 -4v-34h-262v34l57 4q15 1 21.5 5.5t6.5 17.5v287h-393v-287q0 -13 6.5 -17.5t21.5 -5.5l57 -4v-34h-262v34l57 4q16 1 22 5.5t6 17.5v603q0 13 -6 17.5t-22 5.5l-57 4v34h262v-34l-57 -4q-15 -1 -21.5 -5.5t-6.5 -17.5v-262h393v262
q0 13 -6.5 17.5t-21.5 5.5l-57 4v34h262v-34l-57 -4q-16 -1 -22 -5.5t-6 -17.5v-603z" />
    <glyph glyph-name="I" unicode="I" horiz-adv-x="370" 
d="M316 0h-262v34l57 4q16 1 22 5.5t6 17.5v603q0 13 -6 17.5t-22 5.5l-57 4v34h262v-34l-57 -4q-15 -1 -21.5 -5.5t-6.5 -17.5v-603q0 -13 6.5 -17.5t21.5 -5.5l57 -4v-34z" />
    <glyph glyph-name="J" unicode="J" horiz-adv-x="366" 
d="M245 165q0 -59 -8.5 -92t-29.5 -49.5t-57.5 -20t-92.5 -3.5h-45v63h45q35 0 54.5 2.5t28.5 12t11 28t2 51.5v507q0 13 -6.5 17.5t-22.5 5.5l-56 4v34h262v-34l-57 -4q-16 -1 -22 -5.5t-6 -17.5v-499z" />
    <glyph glyph-name="K" unicode="K" horiz-adv-x="745" 
d="M231 342l296 290q26 26 24.5 39.5t-25.5 15.5l-55 4v34h253v-34l-31 -2q-15 -1 -27 -4.5t-24.5 -12.5t-29.5 -24.5t-43 -40.5l-177 -168l247 -357q15 -21 31.5 -32.5t48.5 -13.5l32 -2v-34h-285v34l49 4q26 2 27.5 12.5t-18.5 40.5l-196 287l-97 -93v-224
q0 -13 6.5 -17.5t21.5 -5.5l57 -4v-34h-262v34l57 4q16 1 22 5.5t6 17.5v603q0 13 -6 17.5t-22 5.5l-57 4v34h262v-34l-57 -4q-15 -1 -21.5 -5.5t-6.5 -17.5v-322z" />
    <glyph glyph-name="L" unicode="L" horiz-adv-x="634" 
d="M54 34l57 4q16 1 22 5.5t6 17.5v603q0 13 -6 17.5t-22 5.5l-57 4v34h272v-34l-67 -4q-15 -1 -21.5 -5.5t-6.5 -17.5v-617h214q33 0 52.5 1t31.5 8t18 21.5t11 40.5l18 96h34v-214h-556v34z" />
    <glyph glyph-name="M" unicode="M" horiz-adv-x="990" 
d="M850 61q0 -13 6.5 -17.5t21.5 -5.5l57 -4v-34h-262v34l57 4q16 1 22 5.5t6 17.5v601l-260 -662h-42l-260 662v-576q0 -15 1.5 -24.5t6.5 -15t14.5 -7.5t25.5 -3l38 -2v-34h-227v34l36 2q16 1 25.5 3t15 7.5t7 15t1.5 24.5v577q0 21 -29 24l-57 4v34h218l226 -592l233 592
h205v-34l-57 -4q-29 -3 -29 -24v-602v0z" />
    <glyph glyph-name="N" unicode="N" horiz-adv-x="804" 
d="M682 -10h-58l-429 625v-529q0 -15 1.5 -24.5t6.5 -15t14.5 -7.5t25.5 -3l38 -2v-34h-227v34l36 2q16 1 25.5 3t15 7.5t7 15t1.5 24.5v577q0 10 -6 16t-22 8l-57 4v34h173l399 -582v496q0 15 -1.5 24.5t-6.5 15t-14.5 7.5t-25.5 3l-38 2v34h227v-34l-36 -2
q-16 -1 -25.5 -3t-15 -7.5t-7 -15t-1.5 -24.5v-649z" />
    <glyph glyph-name="O" unicode="O" horiz-adv-x="777" 
d="M387 -13q-79 0 -143 27t-109 76.5t-69 119.5t-24 155t25.5 154.5t71.5 119t109.5 76.5t140.5 27q76 0 140 -25.5t109.5 -74t71 -118.5t25.5 -159t-25.5 -159.5t-72 -119t-110.5 -74t-140 -25.5zM632 365q0 82 -18.5 143t-51 102t-77.5 61.5t-97 20.5q-53 0 -97.5 -20.5
t-76.5 -61.5t-50.5 -102t-18.5 -143t18.5 -143.5t50.5 -102.5t76.5 -61.5t97.5 -20.5q52 0 97 20.5t77.5 61.5t51 102.5t18.5 143.5z" />
    <glyph glyph-name="P" unicode="P" horiz-adv-x="606" 
d="M304 727q67 0 123.5 -10.5t97 -35.5t63 -66t22.5 -101t-22.5 -103t-63 -70t-97 -40t-123.5 -13h-73v-228q0 -9 6.5 -15.5t21.5 -7.5l80 -4v-33h-285v34l57 4q16 1 22 5.5t6 17.5v603q0 13 -6 17.5t-22 5.5l-57 4v34q57 0 107 1h42.5t41 0.5t35 0.5h24.5zM231 680v-345h88
q89 0 140.5 42.5t51.5 132.5t-51.5 130t-140.5 40h-88z" />
    <glyph glyph-name="Q" unicode="Q" horiz-adv-x="777" 
d="M387 -13q-79 0 -143 27t-109 76.5t-69 119.5t-24 155t25.5 154.5t71.5 119t109.5 76.5t140.5 27q76 0 140 -25.5t109.5 -74t71 -118.5t25.5 -159q0 -123 -47 -208.5t-128 -128.5l67 -98l-45 -29l-72 105q-29 -9 -59.5 -14t-63.5 -5zM455 182l68 -100q50 38 79.5 107.5
t29.5 175.5q0 82 -18.5 142.5t-51 101t-77.5 60.5t-97 20q-53 0 -97.5 -20t-76.5 -60.5t-50.5 -101t-18.5 -142.5t18.5 -143t50.5 -101.5t76.5 -60.5t97.5 -20q49 0 88 16l-66 97z" />
    <glyph glyph-name="R" unicode="R" horiz-adv-x="703" 
d="M54 725h108h43t41.5 0.5t35 0.5h24.5q67 0 123.5 -9.5t97 -32.5t63 -60.5t22.5 -93.5q0 -78 -41 -123.5t-113 -66.5l151 -252q16 -27 29.5 -39.5t40.5 -13.5l28 -1v-34h-156l-49 87l-138 236q-14 -1 -28.5 -1.5t-29.5 -0.5h-75v-259q0 -13 6.5 -17.5t21.5 -5.5l70 -4v-35
h-275v34l57 4q16 1 22 5.5t6 17.5v603q0 13 -6 17.5t-22 5.5l-57 4v34zM231 679v-311h91q90 0 141 37.5t51 119.5t-51 118t-141 36h-91z" />
    <glyph glyph-name="S" unicode="S" horiz-adv-x="633" 
d="M485 538q-5 35 -20.5 63.5t-40.5 49t-58 31.5t-71 11q-78 0 -122.5 -35.5t-44.5 -95.5q0 -32 14 -54t36.5 -38t51.5 -26.5t59 -18.5l61 -17q57 -15 103.5 -31.5t80 -39.5t51.5 -57t18 -83q0 -55 -22.5 -94.5t-61 -65t-88.5 -38t-105 -12.5q-126 0 -205 58.5t-95 173.5h96
q5 -38 20 -71.5t40.5 -58t62 -39t85.5 -14.5q31 0 64.5 7t60.5 23.5t44.5 42.5t17.5 65q0 36 -14.5 60t-39.5 40.5t-57 27t-68 19.5l-73 20q-42 11 -81.5 27.5t-70 40.5t-49 58.5t-18.5 81.5q0 48 21.5 84.5t57 60.5t81.5 36t94 12t94.5 -12.5t84.5 -37.5t64 -63.5t33 -90.5
h-91z" />
    <glyph glyph-name="T" unicode="T" horiz-adv-x="668" 
d="M638 725v-210h-34l-17 99q-5 25 -11 38.5t-18.5 20t-33 8t-53.5 1.5h-91v-620q0 -13 6.5 -17.5t22.5 -5.5l90 -4v-35h-330v35l90 4q16 1 22.5 5.5t6.5 17.5v620h-91q-33 0 -53.5 -1.5t-33 -8t-19 -20t-10.5 -38.5l-17 -99h-34v210h608z" />
    <glyph glyph-name="U" unicode="U" horiz-adv-x="795" 
d="M412 -13q-86 0 -142.5 21t-90 59t-47 90.5t-13.5 114.5v392q0 13 -6 17.5t-22 5.5l-57 4v34h262v-34l-57 -4q-15 -1 -21.5 -5.5t-6.5 -17.5v-380q0 -55 11.5 -98.5t36 -73.5t64 -46t95.5 -16q113 0 163 60t50 183v346q0 15 -1.5 24.5t-6.5 15t-14.5 7.5t-25.5 3l-38 2v34
h230v-34l-36 -2q-16 -1 -25.5 -3t-15 -7.5t-7 -15t-1.5 -24.5v-346q0 -68 -13.5 -124t-45.5 -96.5t-85.5 -63t-133.5 -22.5z" />
    <glyph glyph-name="V" unicode="V" horiz-adv-x="711" 
d="M391 0h-71l-244 639q-5 13 -10 22.5t-11.5 15.5t-17 9t-27.5 4l-22 1v34h273v-34l-46 -3q-38 -2 -45.5 -12t4.5 -41l199 -535l184 502q10 28 14 44.5t0.5 26t-14.5 12.5t-30 4l-40 2v34h236v-34l-23 -1q-18 -1 -29 -5t-20 -15.5t-18 -32.5t-22 -55z" />
    <glyph glyph-name="W" unicode="W" horiz-adv-x="1008" 
d="M721 100l132 502q8 28 11.5 45t0.5 26t-13 12t-29 4l-40 2v34h237v-34l-23 -1q-18 -1 -30.5 -4.5t-22 -15t-18 -32.5t-18.5 -56l-161 -582h-80l-165 597l-160 -597h-80l-186 639q-4 14 -8.5 23.5t-11.5 15.5t-18 8.5t-28 3.5l-22 1v34h276v-34l-46 -3q-19 -1 -29.5 -3.5
t-14.5 -8t-2.5 -15.5t5.5 -26l139 -535l163 625h81z" />
    <glyph glyph-name="X" unicode="X" horiz-adv-x="754" 
d="M364 321l-166 -205q-21 -27 -32 -42t-11 -23t10.5 -11t31.5 -4l29 -2v-34h-228v34l37 3q23 2 39.5 16.5t41.5 44.5l215 266l-210 274q-17 23 -30.5 35.5t-35.5 14.5l-35 3v34h274v-34l-42 -3q-41 -3 -41.5 -13.5t22.5 -40.5l154 -201l143 176q21 27 31.5 42t10.5 23
t-10.5 10.5t-30.5 4.5l-30 2v34h229v-34l-38 -3q-23 -2 -39.5 -16.5t-40.5 -44.5l-192 -237l232 -303q17 -23 30.5 -35.5t36.5 -14.5l35 -3v-34h-274v34l41 3q21 1 31 4t11 9t-5 16t-17 25z" />
    <glyph glyph-name="Y" unicode="Y" horiz-adv-x="673" 
d="M289 281l-206 363q-7 13 -12.5 21t-12.5 13t-17.5 7.5t-26.5 3.5l-22 2v34h283v-34l-66 -4q-17 -1 -24.5 -10.5t6.5 -35.5l164 -303l169 295q9 16 11.5 26.5t-0.5 16.5t-10 8.5t-15 2.5l-66 4v34h237v-34l-24 -2q-14 -1 -23.5 -3.5t-17 -9t-15 -17.5t-17.5 -28l-203 -335
v-234q0 -13 6 -17.5t22 -5.5l91 -4v-35h-330v35l91 4q15 1 21.5 5.5t6.5 17.5v219z" />
    <glyph glyph-name="Z" unicode="Z" horiz-adv-x="692" 
d="M247 678q-33 0 -53.5 -1.5t-33 -8t-19 -20.5t-10.5 -39l-17 -98h-34v214h558v-46l-494 -632h319q33 0 53.5 1.5t33 8t18.5 20.5t11 39l17 98h34v-214h-594v47l492 631h-281v0z" />
    <glyph glyph-name="bracketleft" unicode="[" horiz-adv-x="276" 
d="M84 745h180v-47h-95v-840h95v-47h-180v934z" />
    <glyph glyph-name="backslash" unicode="\" horiz-adv-x="358" 
d="M358 0h-64l-294 725h64z" />
    <glyph glyph-name="bracketright" unicode="]" horiz-adv-x="276" 
d="M192 -189h-180v47h95v840h-95v47h180v-934z" />
    <glyph glyph-name="asciicircum" unicode="^" horiz-adv-x="431" 
d="M448 332h-72l-160 313l-161 -313h-72l199 393h67z" />
    <glyph glyph-name="underscore" unicode="_" horiz-adv-x="521" 
d="M24 0h473v-67h-473v67z" />
    <glyph glyph-name="grave" unicode="`" horiz-adv-x="286" 
d="M36 745h131l83 -142h-35z" />
    <glyph glyph-name="a" unicode="a" horiz-adv-x="592" 
d="M408 270q-52 -5 -98.5 -12t-81.5 -21t-55.5 -38t-20.5 -63q0 -40 28.5 -68t80.5 -28q31 0 58 11t46.5 35t31 61.5t11.5 89.5v33zM405 374q0 72 -30.5 99.5t-88.5 27.5q-35 0 -58 -10t-37 -26.5t-20.5 -38.5t-8.5 -45h-87q3 38 19.5 68.5t45 52.5t66.5 33.5t83 11.5
q104 0 155.5 -41t50.5 -138q0 -26 -0.5 -48.5t-1 -42.5t-1 -39.5t-0.5 -40.5v-36v-31t0.5 -31t1.5 -35q1 -14 5.5 -17.5t20.5 -5.5l43 -4v-33l-144 -8l-4 101h-2q-23 -47 -67 -78.5t-118 -31.5q-36 0 -66.5 10.5t-53.5 29.5t-36 46t-13 60q0 48 26.5 78.5t73 50.5t110 31.5
t136.5 20.5v60z" />
    <glyph glyph-name="b" unicode="b" horiz-adv-x="638" 
d="M112 685q0 14 -6.5 17.5t-22.5 5.5l-41 4v33h157l-1 -100v-132q0 -20 -0.5 -40t-1.5 -40h2q25 48 65.5 81t106.5 33q46 0 86 -20.5t69.5 -58t46 -89t16.5 -112.5q0 -64 -18.5 -115.5t-50.5 -88t-74.5 -56.5t-90.5 -20q-59 0 -101.5 26.5t-62.5 59.5h-3l-50 -75h-31
q6 94 6 190v497zM190 267q0 -64 12 -107.5t32.5 -70t47.5 -38t58 -11.5q33 0 61 15t48.5 43.5t32.5 71t12 97.5q0 54 -12 96.5t-32.5 71t-48 43.5t-58.5 15q-27 0 -54.5 -12t-49 -39t-35.5 -70t-14 -105z" />
    <glyph glyph-name="c" unicode="c" horiz-adv-x="580" 
d="M50 267q0 60 17.5 111.5t50.5 88.5t79 58t103 21q43 0 81.5 -11.5t69 -34t51.5 -56t28 -78.5h-87q-7 63 -42.5 97t-99.5 34q-46 0 -76.5 -21t-48.5 -54t-25.5 -74t-7.5 -81t7.5 -81t25.5 -74.5t48.5 -54.5t76.5 -21q64 0 100 34t43 97h88q-8 -46 -29 -79.5t-52 -56
t-69.5 -33.5t-81.5 -11q-57 0 -103 21t-79 58.5t-50.5 89t-17.5 111.5z" />
    <glyph glyph-name="d" unicode="d" horiz-adv-x="644" 
d="M447 267q0 63 -12 106.5t-32 70t-47 38t-58 11.5q-33 0 -61 -15t-49 -43.5t-33 -71t-12 -96.5q0 -55 12 -97t33 -71t48.5 -44t58.5 -15q27 0 54 12t48.5 39t35.5 70.5t14 105.5zM527 745l-1 -100v-581q0 -14 6.5 -17.5t21.5 -5.5l42 -4v-33l-147 -8l-4 102h-2
q-25 -47 -67 -79t-107 -32q-47 0 -87 20.5t-69.5 57.5t-46 88.5t-16.5 113.5q0 63 18.5 115t50.5 88.5t74.5 56.5t90.5 20q29 0 53.5 -8.5t44 -22t34.5 -31t24 -35.5h2q-2 43 -2 61v23v150q0 14 -6.5 17t-22.5 5l-52 5v34h168z" />
    <glyph glyph-name="e" unicode="e" horiz-adv-x="589" 
d="M307 36q61 0 98.5 34t44.5 97h87q-8 -45 -30 -79t-54 -56.5t-71 -33.5t-79 -11q-63 0 -110.5 22.5t-79 61t-47.5 89.5t-16 107q0 61 18.5 112.5t52 88.5t80 58t102.5 21q43 0 86.5 -16t77.5 -50t55.5 -88t21.5 -130h-403q1 -49 10.5 -90.5t29.5 -72t51 -47.5t75 -17z
M301 500q-31 0 -58.5 -12t-48.5 -35.5t-34.5 -59t-16.5 -82.5h308q-1 50 -13 85.5t-32.5 58.5t-47.5 34t-57 11z" />
    <glyph glyph-name="f" unicode="f" horiz-adv-x="417" 
d="M345 0h-276v33l42 4q16 2 22 5.5t6 17.5v427h-74v51h74v68q0 39 9.5 66t31 43t57.5 23t90 7h78v-59h-86q-27 0 -44.5 -2.5t-28.5 -10t-15.5 -22t-4.5 -38.5v-75h179v-51h-179v-426q0 -14 6 -18t22 -5l91 -4v-34z" />
    <glyph glyph-name="g" unicode="g" horiz-adv-x="574" 
d="M429 487q20 -22 31.5 -52t11.5 -69t-13.5 -74t-40 -60.5t-64.5 -40.5t-87 -15q-14 0 -27 1.5t-27 3.5q-23 -4 -43.5 -14t-20.5 -32q0 -20 18.5 -30.5t70.5 -13.5l128 -8q53 -3 88 -13t56 -25.5t29.5 -35t8.5 -42.5q0 -30 -15.5 -60t-48.5 -53t-85.5 -37.5t-127.5 -14.5
q-54 0 -97.5 9.5t-74.5 26t-48 39.5t-17 51q0 20 10.5 35.5t28.5 27t41 19.5t48 13q-54 13 -72.5 37t-18.5 50q0 32 28.5 51.5t76.5 30.5q-51 20 -84.5 61.5t-33.5 104.5q0 49 17.5 84.5t47 58.5t68 34.5t80.5 11.5q53 0 97 -18l209 9v-51h-148zM271 222q53 0 85.5 37
t32.5 106q0 66 -32 101.5t-86 35.5q-57 0 -91.5 -34t-34.5 -109q0 -34 11 -59.5t28.5 -43t40 -26t46.5 -8.5zM193 17q-36 -11 -62 -30.5t-26 -48.5q0 -42 42 -63.5t132 -21.5q42 0 77.5 5.5t62 17t41 28t14.5 38.5q0 16 -5.5 27t-19.5 19t-37 12.5t-58 6.5l-128 7z" />
    <glyph glyph-name="h" unicode="h" horiz-adv-x="640" 
d="M542 60q0 -14 6.5 -17.5t22.5 -5.5l41 -4v-33h-226v33l42 4q15 2 21.5 5.5t6.5 17.5v286q0 72 -25 108.5t-83 36.5q-18 0 -42.5 -8t-46 -28t-36.5 -54.5t-15 -86.5v-254q0 -14 6.5 -17.5t22.5 -5.5l41 -4v-33h-226v33l41 4q16 2 22.5 5.5t6.5 17.5v625q0 14 -6.5 17.5
t-22.5 5.5l-41 4v33h157l-1 -100v-142q0 -8 -0.5 -19t-0.5 -21v-23h2q24 49 68.5 78t108.5 29q46 0 76 -16.5t48 -42.5t25 -58t7 -63v-307z" />
    <glyph glyph-name="i" unicode="i" horiz-adv-x="329" 
d="M221 439v-379q0 -14 6.5 -17.5t22.5 -5.5l41 -4v-33h-226v33l42 4q15 2 21.5 5.5t6.5 17.5v415q0 12 -5.5 18t-22.5 8l-43 5v32h158zM135 745h86v-119h-86v119z" />
    <glyph glyph-name="j" unicode="j" horiz-adv-x="317" 
d="M129 475q0 12 -6 18t-23 8l-42 5v32h158l-1 -99v-472q0 -54 -6 -85t-21.5 -46.5t-43 -20t-70.5 -4.5h-74v61h72q19 0 30 2t17 12t8 32t2 61v496zM129 745h86v-119h-86v119z" />
    <glyph glyph-name="k" unicode="k" horiz-adv-x="597" 
d="M209 745l-1 -100v-379l175 188q15 16 22.5 26t7.5 15t-8.5 6.5t-24.5 2.5l-36 1v33h215v-33l-15 -1q-18 -1 -29.5 -2.5t-21.5 -5.5t-18.5 -11t-20.5 -19l-118 -123l147 -246q23 -38 43.5 -50t50.5 -13l20 -1v-33h-151l-169 280l-69 -72v-148q0 -14 6.5 -17.5t22.5 -5.5
l41 -4v-33h-226v33l41 4q16 2 22.5 5.5t6.5 17.5v625q0 14 -6.5 17.5t-22.5 5.5l-41 4v33h157z" />
    <glyph glyph-name="l" unicode="l" horiz-adv-x="324" 
d="M209 745l-1 -100v-585q0 -14 6.5 -17.5t22.5 -5.5l41 -4v-33h-226v33l41 4q16 2 22.5 5.5t6.5 17.5v625q0 14 -6.5 17.5t-22.5 5.5l-41 4v33h157z" />
    <glyph glyph-name="m" unicode="m" horiz-adv-x="963" 
d="M220 440h2q24 49 66 78t106 29q34 0 58.5 -9.5t41.5 -25t27.5 -36.5t15.5 -44q28 58 71.5 86.5t107.5 28.5q45 0 74 -16.5t45.5 -42.5t23 -58t6.5 -63v-307q0 -14 6.5 -17.5t22.5 -5.5l41 -4v-33h-226v33l42 4q16 2 22 5.5t6 17.5v286q0 72 -22 108.5t-76 36.5
q-20 0 -44 -8t-45 -28t-35 -54.5t-14 -86.5v-254q0 -14 6.5 -17.5t22.5 -5.5l41 -4v-33h-226v33l42 4q15 2 21.5 5.5t6.5 17.5v286q0 72 -21.5 108.5t-76.5 36.5q-20 0 -44 -8t-45 -28t-35 -54.5t-14 -86.5v-254q0 -14 6.5 -17.5t22.5 -5.5l41 -4v-33h-226v33l42 4
q15 2 21.5 5.5t6.5 17.5v415q0 12 -5.5 18t-22.5 8l-43 5v32h155z" />
    <glyph glyph-name="n" unicode="n" horiz-adv-x="653" 
d="M555 60q0 -14 6.5 -17.5t22.5 -5.5l41 -4v-33h-226v33l42 4q15 2 21.5 5.5t6.5 17.5v286q0 72 -24.5 108.5t-83.5 36.5q-18 0 -42.5 -8t-46 -28t-36.5 -54.5t-15 -86.5v-254q0 -14 6.5 -17.5t22.5 -5.5l41 -4v-33h-226v33l42 4q15 2 21.5 5.5t6.5 17.5v415q0 12 -5.5 18
t-22.5 8l-43 5v32h155l1 -98h2q24 49 68.5 78t108.5 29q46 0 76.5 -16.5t48 -42.5t24.5 -58t7 -63v-307z" />
    <glyph glyph-name="o" unicode="o" horiz-adv-x="602" 
d="M143 267q0 -59 12 -102.5t33.5 -72t50.5 -42.5t62 -14t62 14t50.5 42.5t33.5 72t12 102.5t-12 102.5t-33.5 72t-50.5 42.5t-62 14t-62 -14t-50.5 -42.5t-33.5 -72t-12 -102.5zM552 267q0 -63 -19 -114.5t-52.5 -88.5t-79.5 -57t-100 -20t-100 20t-79.5 57t-52.5 88.5
t-19 114.5t19 114.5t52.5 88.5t79.5 57t100 20t100 -20t79.5 -57t52.5 -88.5t19 -114.5z" />
    <glyph glyph-name="p" unicode="p" horiz-adv-x="637" 
d="M494 267q0 62 -14 105t-35.5 70t-48.5 39t-54 12q-31 0 -58.5 -15t-48.5 -43.5t-33 -71t-12 -96.5q0 -55 12 -97.5t32.5 -71t49 -43.5t61.5 -15q31 0 58 11.5t47 38t32 70t12 107.5zM193 435h2q25 48 66.5 80t107.5 32q47 0 87 -20.5t69 -58t45.5 -89t16.5 -112.5
q0 -64 -18.5 -115.5t-50.5 -88t-74.5 -56.5t-90.5 -20q-29 0 -53.5 8.5t-44 22t-34.5 31t-24 35.5h-2l2 -75v-138q0 -14 6.5 -18t22.5 -5l63 -4v-33h-248v33l42 4q15 2 21.5 5.5t6.5 17.5v604q0 12 -5.5 18t-22.5 8l-43 5v32h155z" />
    <glyph glyph-name="q" unicode="q" horiz-adv-x="624" 
d="M447 264q0 63 -12 106.5t-32 70t-47 38t-58 11.5q-33 0 -61 -15t-49 -43.5t-33 -71t-12 -96.5q0 -55 12 -96.5t33 -70t48.5 -43t58.5 -14.5q27 0 54 11.5t48.5 38t35.5 69.5t14 105zM440 9q0 28 1 47.5t2 39.5h-2q-25 -48 -66 -78.5t-107 -30.5q-47 0 -87 20t-69 57
t-45.5 88t-16.5 113q0 64 18.5 115.5t50.5 88t74.5 56t90.5 19.5q59 0 101 -27t62 -61h4l14 79h64l-3 -178v-486q0 -14 6.5 -17.5t21.5 -5.5l42 -4v-33h-248v33l63 4q16 1 22.5 5t6.5 18v138z" />
    <glyph glyph-name="r" unicode="r" horiz-adv-x="438" 
d="M221 431h1q18 48 58 80t97 32h55v-80h-80q-67 0 -99 -35t-32 -116v-251q0 -14 6.5 -18t22.5 -5l90 -4v-34h-275v33l42 4q15 2 21.5 5.5t6.5 17.5v415q0 12 -5.5 18t-22.5 8l-43 5v32h155z" />
    <glyph glyph-name="s" unicode="s" horiz-adv-x="543" 
d="M136 168q7 -66 46 -99t101 -33q29 0 54.5 7t44 19.5t29 29.5t10.5 37q0 43 -35 67t-102 38l-65 13q-68 14 -110 51.5t-42 98.5q0 33 14.5 61t40.5 47.5t63.5 30.5t84.5 11q41 0 78 -9.5t66.5 -28.5t48.5 -48t25 -68h-87q-6 54 -45 80t-94 26q-23 0 -44.5 -6t-38 -17
t-26.5 -28t-10 -38q0 -35 28 -56.5t77 -31.5l59 -12q38 -8 73 -20.5t61.5 -31t42 -44t15.5 -61.5q0 -40 -16.5 -71t-46 -52t-69.5 -32t-86 -11q-58 0 -100.5 14.5t-71 39t-43.5 57.5t-18 70h88v0z" />
    <glyph glyph-name="t" unicode="t" horiz-adv-x="397" 
d="M367 487h-163v-348q0 -26 4 -42t12.5 -24.5t22.5 -11.5t35 -3h84v-58h-106q-40 0 -66.5 5.5t-42.5 20t-22.5 40.5t-6.5 67v354h-98v51h98v171h86v-171h163v-51z" />
    <glyph glyph-name="u" unicode="u" horiz-adv-x="606" 
d="M415 94h-2q-24 -50 -64.5 -78.5t-105.5 -28.5q-45 0 -74 16.5t-45.5 42.5t-22.5 58t-6 63v308q0 12 -5.5 18t-22.5 8l-43 5v32h158l-1 -99v-251q0 -72 21.5 -108.5t79.5 -36.5q18 0 41 8t43.5 28t34 54t13.5 86v256q0 12 -6 18t-23 8l-42 5v32h158l-1 -99v-375
q0 -14 6.5 -17.5t21.5 -5.5l42 -4v-33l-153 -8z" />
    <glyph glyph-name="v" unicode="v" horiz-adv-x="530" 
d="M60 470q-5 17 -11.5 24t-25.5 9l-27 2v33h221v-33l-36 -3q-17 -2 -24 -6t-2 -21l119 -361l117 319q5 14 9 26.5t3 21.5t-8.5 14.5t-25.5 7.5l-24 2v33h189v-33l-26 -2q-11 -1 -18.5 -3.5t-13.5 -8.5t-10.5 -15.5t-10.5 -23.5l-174 -453h-47z" />
    <glyph glyph-name="w" unicode="w" horiz-adv-x="769" 
d="M639 433q4 14 6.5 26.5t0.5 21.5t-9.5 15t-22.5 7l-24 2v33h183v-33l-26 -2q-11 -1 -18.5 -3.5t-13 -8t-10 -15t-8.5 -24.5l-129 -453h-54l-137 412l-135 -412h-49l-133 471q-5 17 -11.5 24t-25.5 9l-27 2v33h218v-33l-36 -3q-32 -3 -26 -23l87 -353l129 412h51l136 -412
z" />
    <glyph glyph-name="x" unicode="x" horiz-adv-x="613" 
d="M267 266l-155 204q-12 17 -20.5 24t-25.5 9l-30 2v33h235v-33l-30 -2q-29 -2 -32 -10t9 -24l103 -136l81 100q30 37 33.5 52t-25.5 17l-33 3v33h197v-33l-18 -2q-12 -1 -21.5 -4.5t-20 -11.5t-23.5 -22t-31 -36l-109 -135l173 -226q12 -17 20.5 -24t25.5 -9l30 -2v-33
h-234v33l29 2q29 2 32 10t-9 24l-121 158l-99 -122q-31 -37 -34 -52t25 -17l34 -3v-33h-198v33l19 2q12 1 21.5 4.5t20 11.5t23.5 21.5t31 36.5z" />
    <glyph glyph-name="y" unicode="y" horiz-adv-x="546" 
d="M44 -189v61h72q21 0 35.5 2t26.5 13t23 34.5t26 66.5l7 19l-174 463q-7 19 -12.5 24.5t-24.5 7.5l-27 3v33h224v-33l-36 -3q-33 -3 -26 -23l125 -384l120 338q14 38 12 52.5t-37 17.5l-24 2v33h196v-33l-24 -2q-23 -2 -34.5 -15t-22.5 -36l-178 -466
q-25 -65 -42.5 -100.5t-36 -52t-42 -19.5t-60.5 -3h-66z" />
    <glyph glyph-name="z" unicode="z" horiz-adv-x="540" 
d="M54 50l332 437h-305v51h404v-50l-332 -437h333v-51h-432v50z" />
    <glyph glyph-name="braceleft" unicode="{" horiz-adv-x="282" 
d="M238 -189q-46 0 -72.5 7t-40.5 22t-18 38t-4 56v211q0 20 -2.5 39t-11 33.5t-24 23t-42.5 8.5v59q27 0 42.5 8.5t24 23t11 33.5t2.5 39v209q0 33 4 56.5t18 38.5t40.5 22t72.5 7h44v-47h-13q-29 0 -45 -3t-24 -12t-10 -25.5t-2 -43.5v-193q0 -36 -7 -60.5t-19 -40.5
t-29 -25.5t-38 -14.5v-3q21 -5 38 -14.5t29 -26t19 -41t7 -60.5v-193q0 -27 2 -43.5t10 -25.5t24 -12t45 -3h13v-47h-44v0z" />
    <glyph glyph-name="bar" unicode="|" horiz-adv-x="262" 
d="M96 -90v815h70v-815h-70z" />
    <glyph glyph-name="braceright" unicode="}" horiz-adv-x="282" 
d="M0 -189v47h13q28 0 44 3t24.5 12t10.5 25.5t2 43.5v193q0 36 7 60.5t19 41t29 26t38 14.5v3q-21 5 -38 14.5t-29 25.5t-19 40.5t-7 60.5v193q0 27 -2 43.5t-10.5 25.5t-24.5 12t-44 3h-13v47h44q46 0 72.5 -7t40.5 -22t18 -38.5t4 -56.5v-209q0 -20 2.5 -39t11 -33.5
t24 -23t42.5 -8.5v-59q-27 0 -42.5 -8.5t-24 -23t-11 -33.5t-2.5 -39v-211q0 -33 -4 -56t-18 -38t-40.5 -22t-72.5 -7h-44z" />
    <glyph glyph-name="asciitilde" unicode="~" horiz-adv-x="714" 
d="M472 263q28 0 47.5 18t21.5 56h65q-5 -66 -41.5 -99t-92.5 -33q-31 0 -61 11.5t-59 26t-56.5 26t-53.5 11.5q-28 0 -47.5 -18t-22.5 -57h-64q4 67 41 99.5t93 32.5q36 0 67.5 -11.5t60 -25.5t54 -25.5t48.5 -11.5z" />
    <glyph glyph-name="uni00A0" unicode="&#xa0;" horiz-adv-x="290" 
 />
    <glyph glyph-name="exclamdown" unicode="&#xa1;" horiz-adv-x="288" 
d="M96 -188v195l29 329h38l29 -332v-192h-96zM84 538h120v-119h-120v119z" />
    <glyph glyph-name="cent" unicode="&#xa2;" horiz-adv-x="561" 
d="M49 267q0 57 15.5 105.5t44.5 85t70.5 59t92.5 27.5v76h51v-75q39 -3 73.5 -15.5t61.5 -35t45.5 -54.5t25.5 -74h-87q-6 57 -36 90t-83 39v-458q54 6 84 39.5t36 90.5h88q-7 -43 -26 -75t-46.5 -54t-62 -34.5t-73.5 -15.5v-67h-51v68q-51 5 -92.5 27.5t-70.5 59.5
t-44.5 85.5t-15.5 105.5zM142 267q0 -37 6 -74.5t21 -70t40 -55t63 -29.5v456q-38 -6 -63 -29t-40 -54.5t-21 -69.5t-6 -74z" />
    <glyph glyph-name="sterling" unicode="&#xa3;" horiz-adv-x="614" 
d="M429 401v-42h-187q8 -23 14 -47t6 -50q0 -35 -9.5 -61.5t-26 -47t-38 -35t-45.5 -26.5l1 -2q35 13 72 13q32 0 56 -6.5t46 -15t45.5 -15t54.5 -6.5q32 0 63.5 8t60.5 20l28 -73q-22 -11 -62 -21.5t-81 -10.5q-30 0 -56.5 6t-52 13.5t-52 14t-56.5 6.5q-33 0 -75 -12.5
t-80 -27.5l-27 66q17 7 41.5 20.5t47 36.5t38.5 58t16 85q0 30 -6.5 57t-16.5 53h-119v42h102q-16 36 -28.5 73t-12.5 82q0 49 22.5 84.5t58 58t80 33t89.5 10.5q60 0 105.5 -18t77 -48t48 -69t18.5 -82h-87q0 33 -10.5 63.5t-31 54t-51 37t-70.5 13.5q-26 0 -53.5 -5.5
t-51 -20.5t-38.5 -41.5t-15 -68.5q0 -45 13.5 -82.5t29.5 -73.5h205z" />
    <glyph glyph-name="currency" unicode="&#xa4;" horiz-adv-x="657" 
d="M85 352q0 40 12 76.5t34 66.5l-69 71l46 44l68 -68q31 25 69 38.5t80 13.5q44 0 82.5 -14t70.5 -40l70 70l46 -44l-72 -73q22 -30 34 -65.5t12 -75.5t-12.5 -76t-34.5 -66l73 -72l-46 -45l-72 70q-31 -25 -69.5 -38.5t-81.5 -13.5q-42 0 -79.5 13.5t-68.5 37.5l-69 -69
l-46 45l70 71q-23 30 -35 66t-12 77zM148 352q0 -39 13 -73t36.5 -58.5t55.5 -39t71 -14.5q40 0 73.5 14.5t57.5 39t37.5 58.5t13.5 73t-13.5 73.5t-37.5 59.5t-57.5 39.5t-73.5 14.5q-39 0 -71 -14.5t-55.5 -39.5t-36.5 -59.5t-13 -73.5z" />
    <glyph glyph-name="yen" unicode="&#xa5;" horiz-adv-x="681" 
d="M381 134v-72q0 -13 6 -17.5t22 -5.5l91 -4v-35h-330v35l91 4q15 1 21.5 5.5t6.5 17.5v72h-111v49h111v82h-111v49h92l-187 330q-7 13 -12.5 21t-12.5 13t-17.5 7.5t-26.5 3.5l-22 2v34h283v-34l-66 -4q-17 -1 -24.5 -10.5t6.5 -35.5l164 -303l169 295q9 16 11.5 26.5
t-0.5 16.5t-10 8.5t-15 2.5l-66 4v34h237v-34l-24 -2q-14 -1 -23.5 -3.5t-17 -9t-15 -17.5t-17.5 -28l-192 -317h112v-49h-123v-82h123v-49h-123z" />
    <glyph glyph-name="brokenbar" unicode="&#xa6;" horiz-adv-x="262" 
d="M166 725v-305h-70v305h70zM166 215v-305h-70v305h70z" />
    <glyph glyph-name="section" unicode="&#xa7;" horiz-adv-x="609" 
d="M430 578q-1 24 -10.5 45t-26.5 36.5t-41.5 25t-56.5 9.5q-23 0 -45 -3.5t-39 -12.5t-27.5 -24t-10.5 -37q0 -35 28 -58t75 -48l155 -82q28 -15 53.5 -30t44.5 -33t30 -40t11 -52q0 -32 -12 -58t-32.5 -46.5t-47.5 -35.5t-58 -26q42 -29 67.5 -62.5t25.5 -76.5
q0 -41 -17.5 -72t-47 -52.5t-67.5 -32.5t-79 -11q-45 0 -84.5 12t-70.5 36t-51.5 59t-27.5 81h88q3 -30 14 -55t29.5 -44t44 -29.5t57.5 -10.5q57 0 93.5 25t36.5 73q0 21 -6.5 36.5t-21 30t-36.5 28t-52 29.5l-132 70q-30 16 -56 33.5t-45.5 38t-30.5 46t-11 57.5
q0 26 12 49t32 42t45.5 34t53.5 24q-37 24 -63 56.5t-26 80.5q0 36 17.5 62t46 43t65 25.5t74.5 8.5q42 0 78.5 -9.5t65 -30t48 -51.5t27.5 -73h-86zM390 128q19 7 37.5 18t32 25t22 30.5t8.5 35.5q0 38 -32.5 68t-88.5 61l-132 70l-20 10q-19 -6 -36.5 -16.5t-31 -23.5
t-21.5 -29t-8 -33q0 -23 6.5 -40.5t19.5 -32t32 -27t43 -25.5l139 -74z" />
    <glyph glyph-name="dieresis" unicode="&#xa8;" horiz-adv-x="357" 
d="M24 745h86v-119h-86v119zM247 745h86v-119h-86v119z" />
    <glyph glyph-name="copyright" unicode="&#xa9;" horiz-adv-x="846" 
d="M48 361q0 83 29.5 152.5t80.5 119t119.5 77t146.5 27.5q77 0 145 -27.5t119 -77t80.5 -119t29.5 -152.5t-29.5 -152t-80.5 -118.5t-119 -76.5t-145 -27q-78 0 -146.5 27t-119.5 76.5t-80.5 118.5t-29.5 152zM109 361q0 -72 24.5 -131t67 -101t100 -65.5t123.5 -23.5
q67 0 124.5 23.5t99.5 65.5t65.5 101t23.5 131t-23.5 131.5t-65.5 101.5t-99.5 65t-124.5 23q-66 0 -123.5 -23t-100 -65t-67 -101.5t-24.5 -131.5zM420 211q18 0 36.5 4.5t34.5 14.5t28 24.5t18 35.5l58 -17q-8 -24 -22.5 -45t-36.5 -37t-50.5 -25.5t-65.5 -9.5
q-88 0 -136.5 55.5t-48.5 153.5q0 97 51.5 151t138.5 54q70 0 111.5 -35.5t55.5 -86.5l-57 -20q-10 42 -43 64t-72 22q-24 0 -46 -9t-39.5 -28t-27.5 -47t-10 -65q0 -38 10 -66.5t27.5 -48t39.5 -29.5t46 -10z" />
    <glyph glyph-name="ordfeminine" unicode="&#xaa;" horiz-adv-x="367" 
d="M237 597l-41 -4q-14 -2 -28 -6t-25 -11t-17.5 -18t-6.5 -28q0 -23 14.5 -38t41.5 -15q10 0 21 4t20 14t15 27.5t6 44.5v30zM46 531q0 28 12 44.5t34 26.5q20 9 45.5 14t52.5 9l46 5v17q0 37 -13 52t-45 15q-58 0 -61 -60h-62q3 45 38.5 68.5t86.5 23.5q62 0 92 -24
t28 -81q0 -17 -0.5 -35.5t-0.5 -36.5v-38t2 -37q0 -12 3 -15.5t14 -4.5l24 -3v-21l-95 -7l-4 51h-3q-12 -24 -33.5 -40t-55.5 -16q-21 0 -40 7t-33.5 19t-23 29t-8.5 38z" />
    <glyph glyph-name="guillemotleft" unicode="&#xab;" horiz-adv-x="471" 
d="M10 273l200 234h40l-129 -234l129 -235h-40zM207 273l200 234h40l-129 -234l129 -235h-40z" />
    <glyph glyph-name="logicalnot" unicode="&#xac;" horiz-adv-x="708" 
d="M65 377v60h530v-338h-64v278h-466z" />
    <glyph glyph-name="uni00AD" unicode="&#xad;" horiz-adv-x="329" 
d="M24 318h281v-82h-281v82z" />
    <glyph glyph-name="registered" unicode="&#xae;" horiz-adv-x="846" 
d="M48 361q0 83 29.5 152.5t80.5 119t119.5 77t146.5 27.5q77 0 145 -27.5t119 -77t80.5 -119t29.5 -152.5t-29.5 -152t-80.5 -118.5t-119 -76.5t-145 -27q-78 0 -146.5 27t-119.5 76.5t-80.5 118.5t-29.5 152zM109 361q0 -72 24.5 -131t67 -101t100 -65.5t123.5 -23.5
q67 0 124.5 23.5t99.5 65.5t65.5 101t23.5 131t-23.5 131.5t-65.5 101.5t-99.5 65t-124.5 23q-66 0 -123.5 -23t-100 -65t-67 -101.5t-24.5 -131.5zM456 331q-6 -1 -12 -1h-12h-91v-155h-58v397h119q43 0 77.5 -4.5t58.5 -17.5t37 -36.5t13 -61.5q0 -34 -18 -62.5t-55 -44.5
l90 -170h-67zM526 451q0 19 -7.5 31t-21 19t-31.5 9.5t-40 2.5h-85v-126h89q51 0 73.5 16t22.5 48z" />
    <glyph glyph-name="macron" unicode="&#xaf;" horiz-adv-x="314" 
d="M24 635v67h266v-67h-266z" />
    <glyph glyph-name="degree" unicode="&#xb0;" horiz-adv-x="346" 
d="M24 589q0 31 11.5 58.5t32 47.5t47.5 31.5t57 11.5q31 0 58.5 -11.5t47.5 -31.5t32 -47.5t12 -58.5t-12 -58t-32 -47.5t-47.5 -32t-58.5 -11.5q-30 0 -57 11.5t-47.5 32t-32 47.5t-11.5 58zM90 589q0 -38 22 -65.5t60 -27.5q40 0 63 27.5t23 65.5t-23 65.5t-63 27.5
q-38 0 -60 -27.5t-22 -65.5z" />
    <glyph glyph-name="plusminus" unicode="&#xb1;" 
d="M321 539h63v-182h246v-60h-246v-188h-63v188h-246v60h246v182zM75 0v60h555v-60h-555z" />
    <glyph glyph-name="twosuperior" unicode="&#xb2;" horiz-adv-x="374" 
d="M330 502v-57h-310v57q72 48 118.5 82.5t73.5 62.5t37.5 51.5t10.5 49.5q0 35 -20 54.5t-53 19.5q-50 0 -70 -32t-16 -82h-66q-2 36 10 63.5t33 46.5t49.5 28.5t61.5 9.5q61 0 101 -26t40 -82q0 -32 -20 -62.5t-53.5 -60.5t-77.5 -60.5t-91 -62.5h242z" />
    <glyph glyph-name="threesuperior" unicode="&#xb3;" horiz-adv-x="387" 
d="M184 438q-33 0 -60.5 9t-48 25.5t-32.5 39.5t-13 50h64q0 -37 24.5 -63.5t66.5 -26.5q38 0 64 20t26 62q0 43 -33.5 61t-82.5 18h-18v39h12q22 0 42 4.5t35.5 14.5t25 25t9.5 36q0 33 -22 51.5t-57 18.5q-39 0 -63 -24t-24 -62h-65q1 26 13.5 48t32.5 38t47.5 25t59.5 9
q27 0 53.5 -6t47.5 -18t34 -30.5t13 -43.5q0 -39 -24 -62t-59 -35v-2q45 -11 70 -35t25 -66q0 -32 -13 -54.5t-35.5 -37t-52 -21.5t-62.5 -7z" />
    <glyph glyph-name="acute" unicode="&#xb4;" horiz-adv-x="285" 
d="M71 603h-35l83 142h131z" />
    <glyph glyph-name="mu" unicode="&#xb5;" horiz-adv-x="581" 
d="M74 -189q6 29 7.5 64.5t1.5 91.5v568h63v-285q0 -100 38.5 -154.5t105.5 -54.5q68 0 105.5 54.5t37.5 154.5v285h64v-535h-64v87q-21 -53 -57.5 -76.5t-85.5 -23.5q-48 0 -85.5 23.5t-58.5 76.5v-111q0 -60 -2.5 -98t-7.5 -67h-62v0z" />
    <glyph glyph-name="mu" unicode="&#x3bc;" horiz-adv-x="581" 
d="M74 -189q6 29 7.5 64.5t1.5 91.5v568h63v-285q0 -100 38.5 -154.5t105.5 -54.5q68 0 105.5 54.5t37.5 154.5v285h64v-535h-64v87q-21 -53 -57.5 -76.5t-85.5 -23.5q-48 0 -85.5 23.5t-58.5 76.5v-111q0 -60 -2.5 -98t-7.5 -67h-62v0z" />
    <glyph glyph-name="paragraph" unicode="&#xb6;" horiz-adv-x="531" 
d="M24 534q0 89 60.5 140t184.5 51h178v-816h-64v756h-117v-756h-63v446q-33 4 -65.5 16t-57.5 34t-40.5 54t-15.5 75z" />
    <glyph glyph-name="periodcentered" unicode="&#xb7;" horiz-adv-x="288" 
d="M84 337h120v-119h-120v119z" />
    <glyph glyph-name="cedilla" unicode="&#xb8;" horiz-adv-x="345" 
d="M164 3h48l-37 -53q48 9 78 -13t30 -64q0 -21 -9.5 -37.5t-25 -28.5t-36.5 -18.5t-44 -6.5q-24 0 -42.5 3.5t-43.5 14.5l15 36q12 -7 28 -10t33 -3q25 0 42.5 10t17.5 35q0 20 -14.5 29t-30.5 9q-28 0 -45 -10l-21 19z" />
    <glyph glyph-name="onesuperior" unicode="&#xb9;" horiz-adv-x="261" 
d="M182 487q0 -8 3 -13t16 -7l22 -2v-20h-165v20l41 3q11 2 14.5 6.5t3.5 12.5v285h-91v25q26 1 45.5 4t34.5 8.5t26 14.5t22 21h29l-1 -103v-255z" />
    <glyph glyph-name="ordmasculine" unicode="&#xba;" horiz-adv-x="378" 
d="M264 593q0 66 -22 93t-54 27t-53 -27t-21 -93q0 -67 21.5 -94t52.5 -27q32 0 54 27t22 94zM337 592q0 -36 -11 -64.5t-31 -48.5t-47.5 -30.5t-60.5 -10.5q-65 0 -105.5 42t-40.5 114t40.5 112t106.5 40t107.5 -41t41.5 -113z" />
    <glyph glyph-name="guillemotright" unicode="&#xbb;" horiz-adv-x="471" 
d="M65 38h-41l130 235l-130 234h41l200 -234zM261 38h-41l130 235l-130 234h41l200 -234z" />
    <glyph glyph-name="onequarter" unicode="&#xbc;" horiz-adv-x="892" 
d="M182 375q0 -8 3 -13t16 -7l22 -2v-20h-165v20l41 3q11 1 14.5 6t3.5 13v284h-91v26q26 1 45.5 4t34.5 8.5t26 14.5t22 21h29l-1 -103v-255zM80 0l509 725h70l-509 -725h-70zM859 158v-50h-76v-64q0 -12 3 -15.5t15 -5.5l23 -2v-21h-153v21l27 2q11 2 14.5 5.5t3.5 15.5
v64h-209v38l218 255h58v-243h76zM716 331l-148 -173h148v173z" />
    <glyph glyph-name="onehalf" unicode="&#xbd;" horiz-adv-x="852" 
d="M182 375q0 -8 3 -13t16 -7l22 -2v-20h-165v20l41 3q11 1 14.5 6t3.5 13v284h-91v26q26 1 45.5 4t34.5 8.5t26 14.5t22 21h29l-1 -103v-255zM80 0l509 725h70l-509 -725h-70zM808 57v-57h-310v57q72 47 118.5 82t73.5 62.5t37.5 51.5t10.5 49q0 35 -20 55t-53 20
q-51 0 -70.5 -32t-15.5 -83h-66q-2 36 10 64t33 46.5t49.5 28.5t61.5 10q61 0 101 -26.5t40 -82.5q0 -32 -20 -62.5t-53.5 -60.5t-77.5 -60t-91 -62h242z" />
    <glyph glyph-name="threequarters" unicode="&#xbe;" horiz-adv-x="1018" 
d="M184 325q-33 0 -60.5 9.5t-48 26t-32.5 39.5t-13 50h64q0 -37 24.5 -64t66.5 -27q38 0 64 20t26 62q0 43 -33.5 61.5t-82.5 18.5h-18v38h12q22 0 42 4.5t35.5 14.5t25 25.5t9.5 36.5q0 33 -22 51.5t-57 18.5q-39 0 -63 -24t-24 -63h-65q1 26 13.5 48t32.5 38.5t47.5 25.5
t59.5 9q27 0 53.5 -6t47.5 -18t34 -31t13 -44q0 -38 -24 -61.5t-59 -35.5v-1q45 -11 70 -35.5t25 -66.5q0 -32 -13 -54.5t-35.5 -37t-52 -21.5t-62.5 -7zM206 0l509 725h70l-509 -725h-70zM985 158v-50h-76v-64q0 -12 3 -15.5t15 -5.5l23 -2v-21h-153v21l27 2q11 2 14.5 5.5
t3.5 15.5v64h-209v38l218 255h58v-243h76zM842 331l-148 -173h148v173z" />
    <glyph glyph-name="questiondown" unicode="&#xbf;" horiz-adv-x="526" 
d="M264 -155q46 0 79 14.5t53.5 39t29.5 57t7 67.5h87q3 -57 -15.5 -99.5t-54 -70t-85 -41.5t-108.5 -14q-53 0 -97 11t-75.5 31t-49 49t-17.5 64q0 32 9.5 57.5t29.5 48.5t50.5 44.5t72.5 46.5q30 18 49 34t30.5 34t16 38.5t4.5 47.5v33h56v-37q0 -39 -6 -69t-20 -54
t-36.5 -43.5t-55.5 -38.5q-56 -32 -81.5 -65t-25.5 -78q0 -51 42.5 -79t110.5 -28zM244 538h120v-119h-120v119z" />
    <glyph glyph-name="Agrave" unicode="&#xc0;" horiz-adv-x="714" 
d="M321 732h71l248 -646q5 -14 10 -23t12 -15t17.5 -9.5t27.5 -4.5l11 -1v-33h-262v33l46 3q19 1 30 3.5t15.5 8.5t3 16t-7.5 26l-53 139h-300l-39 -106q-11 -28 -14.5 -44.5t0 -26t14.5 -13t30 -4.5l40 -2v-33h-225v33l12 2q18 1 29 5.5t20 16t17.5 32t21.5 54.5zM210 283
h259l-130 344zM150 890h123l114 -117h-60z" />
    <glyph glyph-name="Aacute" unicode="&#xc1;" horiz-adv-x="714" 
d="M321 732h71l248 -646q5 -14 10 -23t12 -15t17.5 -9.5t27.5 -4.5l11 -1v-33h-262v33l46 3q19 1 30 3.5t15.5 8.5t3 16t-7.5 26l-53 139h-300l-39 -106q-11 -28 -14.5 -44.5t0 -26t14.5 -13t30 -4.5l40 -2v-33h-225v33l12 2q18 1 29 5.5t20 16t17.5 32t21.5 54.5zM210 283
h259l-130 344zM389 773h-60l114 117h123z" />
    <glyph glyph-name="Acircumflex" unicode="&#xc2;" horiz-adv-x="714" 
d="M321 732h71l248 -646q5 -14 10 -23t12 -15t17.5 -9.5t27.5 -4.5l11 -1v-33h-262v33l46 3q19 1 30 3.5t15.5 8.5t3 16t-7.5 26l-53 139h-300l-39 -106q-11 -28 -14.5 -44.5t0 -26t14.5 -13t30 -4.5l40 -2v-33h-225v33l12 2q18 1 29 5.5t20 16t17.5 32t21.5 54.5zM210 283
h259l-130 344zM526 773h-66l-104 58l-104 -58h-66l139 117h64z" />
    <glyph glyph-name="Atilde" unicode="&#xc3;" horiz-adv-x="714" 
d="M321 732h71l248 -646q5 -14 10 -23t12 -15t17.5 -9.5t27.5 -4.5l11 -1v-33h-262v33l46 3q19 1 30 3.5t15.5 8.5t3 16t-7.5 26l-53 139h-300l-39 -106q-11 -28 -14.5 -44.5t0 -26t14.5 -13t30 -4.5l40 -2v-33h-225v33l12 2q18 1 29 5.5t20 16t17.5 32t21.5 54.5zM210 283
h259l-130 344zM429 836q25 0 38 13.5t18 38.5h61q-10 -52 -39 -82.5t-73 -30.5q-23 0 -43 8.5t-38 18t-33.5 18t-30.5 8.5q-24 0 -36 -14t-19 -39h-60q8 56 40 84.5t74 28.5q23 0 42.5 -8t36.5 -18t32 -18t30 -8z" />
    <glyph glyph-name="Adieresis" unicode="&#xc4;" horiz-adv-x="714" 
d="M321 732h71l248 -646q5 -14 10 -23t12 -15t17.5 -9.5t27.5 -4.5l11 -1v-33h-262v33l46 3q19 1 30 3.5t15.5 8.5t3 16t-7.5 26l-53 139h-300l-39 -106q-11 -28 -14.5 -44.5t0 -26t14.5 -13t30 -4.5l40 -2v-33h-225v33l12 2q18 1 29 5.5t20 16t17.5 32t21.5 54.5zM210 283
h259l-130 344zM200 890h86v-117h-86v117zM423 890h86v-117h-86v117z" />
    <glyph glyph-name="Aring" unicode="&#xc5;" horiz-adv-x="714" 
d="M321 732h71l248 -646q5 -14 10 -23t12 -15t17.5 -9.5t27.5 -4.5l11 -1v-33h-262v33l46 3q19 1 30 3.5t15.5 8.5t3 16t-7.5 26l-53 139h-300l-39 -106q-11 -28 -14.5 -44.5t0 -26t14.5 -13t30 -4.5l40 -2v-33h-225v33l12 2q18 1 29 5.5t20 16t17.5 32t21.5 54.5zM210 283
h259l-130 344zM355 943q19 0 36 -6.5t29.5 -18t20 -27.5t7.5 -35q0 -38 -27 -63t-66 -25q-40 0 -67 25t-27 63q0 19 7.5 35t20.5 27.5t30 18t36 6.5zM355 900q-18 0 -31.5 -12.5t-13.5 -31.5q0 -20 13.5 -32t31.5 -12q17 0 30.5 12t13.5 32q0 19 -13.5 31.5t-30.5 12.5z" />
    <glyph glyph-name="AE" unicode="&#xc6;" horiz-adv-x="1030" 
d="M963 725v-214h-33l-18 98q-5 25 -11 39t-18.5 20.5t-33 8t-53.5 1.5h-217v-279h280v-51h-280v-301h225q33 0 53 1t32 8t18.5 21.5t11.5 40.5l17 96h34v-214h-568v34l57 4q16 1 22 5.5t6 17.5v168h-247l-66 -106q-18 -29 -27.5 -46.5t-10 -26.5t7.5 -11.5t24 -3.5l40 -2
v-33h-225v33l12 1q18 1 31 5t26 15t28.5 32t38.5 57l368 582h476zM274 283h213v340z" />
    <glyph glyph-name="Ccedilla" unicode="&#xc7;" horiz-adv-x="735" 
d="M42 366q0 85 24 154.5t69 119t108 76t141 26.5q59 0 111 -16t93.5 -46t69 -74t37.5 -99h-95q-14 92 -69.5 138.5t-145.5 46.5q-51 0 -95 -20t-76 -60.5t-50.5 -102t-18.5 -143.5q0 -81 18 -142.5t49.5 -103t75 -62.5t94.5 -21q96 0 152 46t70 140h95q-10 -58 -38.5 -102
t-70.5 -74t-95 -45t-112 -15q-82 0 -145.5 27.5t-107 78t-66 120t-22.5 153.5zM354 3h48l-37 -53q48 9 78 -13t30 -64q0 -21 -9.5 -37.5t-25 -28.5t-36.5 -18.5t-44 -6.5q-24 0 -42.5 3.5t-43.5 14.5l15 36q12 -7 28 -10t33 -3q25 0 42.5 10t17.5 35q0 20 -14.5 29t-30.5 9
q-28 0 -45 -10l-21 19z" />
    <glyph glyph-name="Egrave" unicode="&#xc8;" horiz-adv-x="682" 
d="M615 725v-214h-34l-17 98q-5 25 -11 39t-18.5 20.5t-33 8t-53.5 1.5h-217v-279h279v-51h-279v-301h225q33 0 53 1t32 8t18 21.5t11 40.5l18 96h34v-214h-568v34l57 4q16 1 22 5.5t6 17.5v603q0 13 -6 17.5t-22 5.5l-57 4v34h561zM161 890h123l114 -117h-60z" />
    <glyph glyph-name="Eacute" unicode="&#xc9;" horiz-adv-x="682" 
d="M615 725v-214h-34l-17 98q-5 25 -11 39t-18.5 20.5t-33 8t-53.5 1.5h-217v-279h279v-51h-279v-301h225q33 0 53 1t32 8t18 21.5t11 40.5l18 96h34v-214h-568v34l57 4q16 1 22 5.5t6 17.5v603q0 13 -6 17.5t-22 5.5l-57 4v34h561zM380 773h-60l114 117h123z" />
    <glyph glyph-name="Ecircumflex" unicode="&#xca;" horiz-adv-x="682" 
d="M615 725v-214h-34l-17 98q-5 25 -11 39t-18.5 20.5t-33 8t-53.5 1.5h-217v-279h279v-51h-279v-301h225q33 0 53 1t32 8t18 21.5t11 40.5l18 96h34v-214h-568v34l57 4q16 1 22 5.5t6 17.5v603q0 13 -6 17.5t-22 5.5l-57 4v34h561zM526 773h-66l-104 58l-104 -58h-66
l139 117h64z" />
    <glyph glyph-name="Edieresis" unicode="&#xcb;" horiz-adv-x="682" 
d="M615 725v-214h-34l-17 98q-5 25 -11 39t-18.5 20.5t-33 8t-53.5 1.5h-217v-279h279v-51h-279v-301h225q33 0 53 1t32 8t18 21.5t11 40.5l18 96h34v-214h-568v34l57 4q16 1 22 5.5t6 17.5v603q0 13 -6 17.5t-22 5.5l-57 4v34h561zM201 890h86v-117h-86v117zM424 890h86
v-117h-86v117z" />
    <glyph glyph-name="Igrave" unicode="&#xcc;" horiz-adv-x="370" 
d="M316 0h-262v34l57 4q16 1 22 5.5t6 17.5v603q0 13 -6 17.5t-22 5.5l-57 4v34h262v-34l-57 -4q-15 -1 -21.5 -5.5t-6.5 -17.5v-603q0 -13 6.5 -17.5t21.5 -5.5l57 -4v-34zM-19 890h123l114 -117h-60z" />
    <glyph glyph-name="Iacute" unicode="&#xcd;" horiz-adv-x="370" 
d="M316 0h-262v34l57 4q16 1 22 5.5t6 17.5v603q0 13 -6 17.5t-22 5.5l-57 4v34h262v-34l-57 -4q-15 -1 -21.5 -5.5t-6.5 -17.5v-603q0 -13 6.5 -17.5t21.5 -5.5l57 -4v-34zM218 773h-60l114 117h123z" />
    <glyph glyph-name="Icircumflex" unicode="&#xce;" horiz-adv-x="370" 
d="M316 0h-262v34l57 4q16 1 22 5.5t6 17.5v603q0 13 -6 17.5t-22 5.5l-57 4v34h262v-34l-57 -4q-15 -1 -21.5 -5.5t-6.5 -17.5v-603q0 -13 6.5 -17.5t21.5 -5.5l57 -4v-34zM358 773h-66l-104 58l-104 -58h-66l139 117h64z" />
    <glyph glyph-name="Idieresis" unicode="&#xcf;" horiz-adv-x="370" 
d="M316 0h-262v34l57 4q16 1 22 5.5t6 17.5v603q0 13 -6 17.5t-22 5.5l-57 4v34h262v-34l-57 -4q-15 -1 -21.5 -5.5t-6.5 -17.5v-603q0 -13 6.5 -17.5t21.5 -5.5l57 -4v-34zM33 890h86v-117h-86v117zM256 890h86v-117h-86v117z" />
    <glyph glyph-name="Eth" unicode="&#xd0;" horiz-adv-x="775" 
d="M733 363q0 -105 -33.5 -175t-91.5 -112t-135 -59.5t-165 -17.5h-139q-48 0 -102 1v34l56 4q16 1 22.5 5.5t6.5 17.5v287h-128v54h128v262q0 13 -6.5 17.5t-22.5 5.5l-56 4v34h102q41 0 80.5 0.5t58.5 0.5q88 0 165 -17.5t135 -59t91.5 -111.5t33.5 -175zM391 348h-148
v-302h62q38 0 77 4t75 15.5t67.5 33t55 56.5t37 86t13.5 122q0 70 -13.5 121t-37 86t-55 56.5t-67.5 33t-75 15.5t-77 4h-62v-277h148v-54z" />
    <glyph glyph-name="Ntilde" unicode="&#xd1;" horiz-adv-x="804" 
d="M682 -10h-58l-429 625v-529q0 -15 1.5 -24.5t6.5 -15t14.5 -7.5t25.5 -3l38 -2v-34h-227v34l36 2q16 1 25.5 3t15 7.5t7 15t1.5 24.5v577q0 10 -6 16t-22 8l-57 4v34h173l399 -582v496q0 15 -1.5 24.5t-6.5 15t-14.5 7.5t-25.5 3l-38 2v34h227v-34l-36 -2
q-16 -1 -25.5 -3t-15 -7.5t-7 -15t-1.5 -24.5v-649zM471 836q25 0 38 13.5t18 38.5h61q-10 -52 -39 -82.5t-73 -30.5q-23 0 -43 8.5t-38 18t-33.5 18t-30.5 8.5q-24 0 -36 -14t-19 -39h-60q8 56 40 84.5t74 28.5q23 0 42.5 -8t36.5 -18t32 -18t30 -8z" />
    <glyph glyph-name="Ograve" unicode="&#xd2;" horiz-adv-x="777" 
d="M387 -13q-79 0 -143 27t-109 76.5t-69 119.5t-24 155t25.5 154.5t71.5 119t109.5 76.5t140.5 27q76 0 140 -25.5t109.5 -74t71 -118.5t25.5 -159t-25.5 -159.5t-72 -119t-110.5 -74t-140 -25.5zM632 365q0 82 -18.5 143t-51 102t-77.5 61.5t-97 20.5q-53 0 -97.5 -20.5
t-76.5 -61.5t-50.5 -102t-18.5 -143t18.5 -143.5t50.5 -102.5t76.5 -61.5t97.5 -20.5q52 0 97 20.5t77.5 61.5t51 102.5t18.5 143.5zM183 890h123l114 -117h-60z" />
    <glyph glyph-name="Oacute" unicode="&#xd3;" horiz-adv-x="777" 
d="M387 -13q-79 0 -143 27t-109 76.5t-69 119.5t-24 155t25.5 154.5t71.5 119t109.5 76.5t140.5 27q76 0 140 -25.5t109.5 -74t71 -118.5t25.5 -159t-25.5 -159.5t-72 -119t-110.5 -74t-140 -25.5zM632 365q0 82 -18.5 143t-51 102t-77.5 61.5t-97 20.5q-53 0 -97.5 -20.5
t-76.5 -61.5t-50.5 -102t-18.5 -143t18.5 -143.5t50.5 -102.5t76.5 -61.5t97.5 -20.5q52 0 97 20.5t77.5 61.5t51 102.5t18.5 143.5zM419 773h-60l114 117h123z" />
    <glyph glyph-name="Ocircumflex" unicode="&#xd4;" horiz-adv-x="777" 
d="M387 -13q-79 0 -143 27t-109 76.5t-69 119.5t-24 155t25.5 154.5t71.5 119t109.5 76.5t140.5 27q76 0 140 -25.5t109.5 -74t71 -118.5t25.5 -159t-25.5 -159.5t-72 -119t-110.5 -74t-140 -25.5zM632 365q0 82 -18.5 143t-51 102t-77.5 61.5t-97 20.5q-53 0 -97.5 -20.5
t-76.5 -61.5t-50.5 -102t-18.5 -143t18.5 -143.5t50.5 -102.5t76.5 -61.5t97.5 -20.5q52 0 97 20.5t77.5 61.5t51 102.5t18.5 143.5zM560 773h-66l-104 58l-104 -58h-66l139 117h64z" />
    <glyph glyph-name="Otilde" unicode="&#xd5;" horiz-adv-x="777" 
d="M387 -13q-79 0 -143 27t-109 76.5t-69 119.5t-24 155t25.5 154.5t71.5 119t109.5 76.5t140.5 27q76 0 140 -25.5t109.5 -74t71 -118.5t25.5 -159t-25.5 -159.5t-72 -119t-110.5 -74t-140 -25.5zM632 365q0 82 -18.5 143t-51 102t-77.5 61.5t-97 20.5q-53 0 -97.5 -20.5
t-76.5 -61.5t-50.5 -102t-18.5 -143t18.5 -143.5t50.5 -102.5t76.5 -61.5t97.5 -20.5q52 0 97 20.5t77.5 61.5t51 102.5t18.5 143.5zM447 836q25 0 38 13.5t18 38.5h61q-10 -52 -39 -82.5t-73 -30.5q-23 0 -43 8.5t-38 18t-33.5 18t-30.5 8.5q-24 0 -36 -14t-19 -39h-60
q8 56 40 84.5t74 28.5q23 0 42.5 -8t36.5 -18t32 -18t30 -8z" />
    <glyph glyph-name="Odieresis" unicode="&#xd6;" horiz-adv-x="777" 
d="M387 -13q-79 0 -143 27t-109 76.5t-69 119.5t-24 155t25.5 154.5t71.5 119t109.5 76.5t140.5 27q76 0 140 -25.5t109.5 -74t71 -118.5t25.5 -159t-25.5 -159.5t-72 -119t-110.5 -74t-140 -25.5zM632 365q0 82 -18.5 143t-51 102t-77.5 61.5t-97 20.5q-53 0 -97.5 -20.5
t-76.5 -61.5t-50.5 -102t-18.5 -143t18.5 -143.5t50.5 -102.5t76.5 -61.5t97.5 -20.5q52 0 97 20.5t77.5 61.5t51 102.5t18.5 143.5zM235 890h86v-117h-86v117zM458 890h86v-117h-86v117z" />
    <glyph glyph-name="multiply" unicode="&#xd7;" 
d="M542 40l-189 189l-189 -189l-45 45l189 189l-189 189l45 45l189 -189l189 189l44 -45l-189 -189l189 -189z" />
    <glyph glyph-name="Oslash" unicode="&#xd8;" horiz-adv-x="777" 
d="M387 -13q-71 0 -128.5 21.5t-101.5 60.5l-69 -81l-33 27l72 85q-42 49 -63.5 116t-21.5 149q0 85 25.5 154.5t71.5 119t109.5 76.5t140.5 27q133 0 221 -73l69 82l33 -26l-72 -84q45 -49 70 -118t25 -158t-25.5 -159.5t-72 -119t-110.5 -74t-140 -25.5zM632 365
q0 66 -12 118.5t-35 92.5l-378 -448q32 -46 78.5 -68.5t102.5 -22.5q52 0 97 20.5t77.5 61.5t51 102.5t18.5 143.5zM145 365q0 -61 10 -110.5t29 -87.5l377 445q-33 40 -77 60t-96 20q-53 0 -97.5 -20.5t-76.5 -61.5t-50.5 -102t-18.5 -143z" />
    <glyph glyph-name="Ugrave" unicode="&#xd9;" horiz-adv-x="795" 
d="M412 -13q-86 0 -142.5 21t-90 59t-47 90.5t-13.5 114.5v392q0 13 -6 17.5t-22 5.5l-57 4v34h262v-34l-57 -4q-15 -1 -21.5 -5.5t-6.5 -17.5v-380q0 -55 11.5 -98.5t36 -73.5t64 -46t95.5 -16q113 0 163 60t50 183v346q0 15 -1.5 24.5t-6.5 15t-14.5 7.5t-25.5 3l-38 2v34
h230v-34l-36 -2q-16 -1 -25.5 -3t-15 -7.5t-7 -15t-1.5 -24.5v-346q0 -68 -13.5 -124t-45.5 -96.5t-85.5 -63t-133.5 -22.5zM219 890h123l114 -117h-60z" />
    <glyph glyph-name="Uacute" unicode="&#xda;" horiz-adv-x="795" 
d="M412 -13q-86 0 -142.5 21t-90 59t-47 90.5t-13.5 114.5v392q0 13 -6 17.5t-22 5.5l-57 4v34h262v-34l-57 -4q-15 -1 -21.5 -5.5t-6.5 -17.5v-380q0 -55 11.5 -98.5t36 -73.5t64 -46t95.5 -16q113 0 163 60t50 183v346q0 15 -1.5 24.5t-6.5 15t-14.5 7.5t-25.5 3l-38 2v34
h230v-34l-36 -2q-16 -1 -25.5 -3t-15 -7.5t-7 -15t-1.5 -24.5v-346q0 -68 -13.5 -124t-45.5 -96.5t-85.5 -63t-133.5 -22.5zM450 773h-60l114 117h123z" />
    <glyph glyph-name="Ucircumflex" unicode="&#xdb;" horiz-adv-x="795" 
d="M412 -13q-86 0 -142.5 21t-90 59t-47 90.5t-13.5 114.5v392q0 13 -6 17.5t-22 5.5l-57 4v34h262v-34l-57 -4q-15 -1 -21.5 -5.5t-6.5 -17.5v-380q0 -55 11.5 -98.5t36 -73.5t64 -46t95.5 -16q113 0 163 60t50 183v346q0 15 -1.5 24.5t-6.5 15t-14.5 7.5t-25.5 3l-38 2v34
h230v-34l-36 -2q-16 -1 -25.5 -3t-15 -7.5t-7 -15t-1.5 -24.5v-346q0 -68 -13.5 -124t-45.5 -96.5t-85.5 -63t-133.5 -22.5zM592 773h-66l-104 58l-104 -58h-66l139 117h64z" />
    <glyph glyph-name="Udieresis" unicode="&#xdc;" horiz-adv-x="795" 
d="M412 -13q-86 0 -142.5 21t-90 59t-47 90.5t-13.5 114.5v392q0 13 -6 17.5t-22 5.5l-57 4v34h262v-34l-57 -4q-15 -1 -21.5 -5.5t-6.5 -17.5v-380q0 -55 11.5 -98.5t36 -73.5t64 -46t95.5 -16q113 0 163 60t50 183v346q0 15 -1.5 24.5t-6.5 15t-14.5 7.5t-25.5 3l-38 2v34
h230v-34l-36 -2q-16 -1 -25.5 -3t-15 -7.5t-7 -15t-1.5 -24.5v-346q0 -68 -13.5 -124t-45.5 -96.5t-85.5 -63t-133.5 -22.5zM265 890h86v-117h-86v117zM488 890h86v-117h-86v117z" />
    <glyph glyph-name="Yacute" unicode="&#xdd;" horiz-adv-x="673" 
d="M289 281l-206 363q-7 13 -12.5 21t-12.5 13t-17.5 7.5t-26.5 3.5l-22 2v34h283v-34l-66 -4q-17 -1 -24.5 -10.5t6.5 -35.5l164 -303l169 295q9 16 11.5 26.5t-0.5 16.5t-10 8.5t-15 2.5l-66 4v34h237v-34l-24 -2q-14 -1 -23.5 -3.5t-17 -9t-15 -17.5t-17.5 -28l-203 -335
v-234q0 -13 6 -17.5t22 -5.5l91 -4v-35h-330v35l91 4q15 1 21.5 5.5t6.5 17.5v219zM387 773h-60l114 117h123z" />
    <glyph glyph-name="Thorn" unicode="&#xde;" horiz-adv-x="606" 
d="M319 204q89 0 140.5 42.5t51.5 132.5t-51.5 130t-140.5 40h-88v-345h88zM304 596q67 0 123.5 -10.5t97 -35.5t63 -66t22.5 -101t-22.5 -103t-63 -70t-97 -40t-123.5 -13h-73v-97q0 -9 6.5 -15.5t21.5 -7.5l80 -4v-33h-285v34l57 4q16 1 22 5.5t6 17.5v603q0 13 -6 17.5
t-22 5.5l-57 4v34h285v-33l-80 -4q-15 -1 -21.5 -7.5t-6.5 -15.5v-69h73z" />
    <glyph glyph-name="germandbls" unicode="&#xdf;" horiz-adv-x="683" 
d="M112 520q0 61 17 105.5t48.5 72.5t76.5 41.5t102 13.5q58 0 100.5 -14t71 -38t42.5 -56.5t14 -69.5q0 -38 -14.5 -66.5t-35.5 -48t-45.5 -31.5t-45.5 -17v-1q32 -5 67 -18t64 -36t48 -59t19 -87q0 -56 -18 -97.5t-51 -70t-78.5 -42.5t-99.5 -14q-42 0 -78.5 4.5
t-64.5 8.5v81h1q29 -16 66.5 -28.5t72.5 -12.5q34 0 63 10.5t50.5 31.5t33.5 53t12 74q0 43 -16.5 75.5t-45 54t-66.5 32t-80 10.5h-38v47h16q82 0 128 32t46 109q0 67 -40 101t-103 34q-82 0 -117.5 -47t-35.5 -153v-302l2 -202h-158v33l41 4q16 2 22.5 5.5t6.5 17.5v460z
" />
    <glyph glyph-name="agrave" unicode="&#xe0;" horiz-adv-x="592" 
d="M408 270q-52 -5 -98.5 -12t-81.5 -21t-55.5 -38t-20.5 -63q0 -40 28.5 -68t80.5 -28q31 0 58 11t46.5 35t31 61.5t11.5 89.5v33zM405 374q0 72 -30.5 99.5t-88.5 27.5q-35 0 -58 -10t-37 -26.5t-20.5 -38.5t-8.5 -45h-87q3 38 19.5 68.5t45 52.5t66.5 33.5t83 11.5
q104 0 155.5 -41t50.5 -138q0 -26 -0.5 -48.5t-1 -42.5t-1 -39.5t-0.5 -40.5v-36v-31t0.5 -31t1.5 -35q1 -14 5.5 -17.5t20.5 -5.5l43 -4v-33l-144 -8l-4 101h-2q-23 -47 -67 -78.5t-118 -31.5q-36 0 -66.5 10.5t-53.5 29.5t-36 46t-13 60q0 48 26.5 78.5t73 50.5t110 31.5
t136.5 20.5v60zM142 745h131l83 -142h-35z" />
    <glyph glyph-name="aacute" unicode="&#xe1;" horiz-adv-x="592" 
d="M408 270q-52 -5 -98.5 -12t-81.5 -21t-55.5 -38t-20.5 -63q0 -40 28.5 -68t80.5 -28q31 0 58 11t46.5 35t31 61.5t11.5 89.5v33zM405 374q0 72 -30.5 99.5t-88.5 27.5q-35 0 -58 -10t-37 -26.5t-20.5 -38.5t-8.5 -45h-87q3 38 19.5 68.5t45 52.5t66.5 33.5t83 11.5
q104 0 155.5 -41t50.5 -138q0 -26 -0.5 -48.5t-1 -42.5t-1 -39.5t-0.5 -40.5v-36v-31t0.5 -31t1.5 -35q1 -14 5.5 -17.5t20.5 -5.5l43 -4v-33l-144 -8l-4 101h-2q-23 -47 -67 -78.5t-118 -31.5q-36 0 -66.5 10.5t-53.5 29.5t-36 46t-13 60q0 48 26.5 78.5t73 50.5t110 31.5
t136.5 20.5v60zM294 603h-35l83 142h131z" />
    <glyph glyph-name="acircumflex" unicode="&#xe2;" horiz-adv-x="592" 
d="M408 270q-52 -5 -98.5 -12t-81.5 -21t-55.5 -38t-20.5 -63q0 -40 28.5 -68t80.5 -28q31 0 58 11t46.5 35t31 61.5t11.5 89.5v33zM405 374q0 72 -30.5 99.5t-88.5 27.5q-35 0 -58 -10t-37 -26.5t-20.5 -38.5t-8.5 -45h-87q3 38 19.5 68.5t45 52.5t66.5 33.5t83 11.5
q104 0 155.5 -41t50.5 -138q0 -26 -0.5 -48.5t-1 -42.5t-1 -39.5t-0.5 -40.5v-36v-31t0.5 -31t1.5 -35q1 -14 5.5 -17.5t20.5 -5.5l43 -4v-33l-144 -8l-4 101h-2q-23 -47 -67 -78.5t-118 -31.5q-36 0 -66.5 10.5t-53.5 29.5t-36 46t-13 60q0 48 26.5 78.5t73 50.5t110 31.5
t136.5 20.5v60zM462 603h-60l-101 73l-104 -73h-60l141 142h47z" />
    <glyph glyph-name="atilde" unicode="&#xe3;" horiz-adv-x="592" 
d="M408 270q-52 -5 -98.5 -12t-81.5 -21t-55.5 -38t-20.5 -63q0 -40 28.5 -68t80.5 -28q31 0 58 11t46.5 35t31 61.5t11.5 89.5v33zM405 374q0 72 -30.5 99.5t-88.5 27.5q-35 0 -58 -10t-37 -26.5t-20.5 -38.5t-8.5 -45h-87q3 38 19.5 68.5t45 52.5t66.5 33.5t83 11.5
q104 0 155.5 -41t50.5 -138q0 -26 -0.5 -48.5t-1 -42.5t-1 -39.5t-0.5 -40.5v-36v-31t0.5 -31t1.5 -35q1 -14 5.5 -17.5t20.5 -5.5l43 -4v-33l-144 -8l-4 101h-2q-23 -47 -67 -78.5t-118 -31.5q-36 0 -66.5 10.5t-53.5 29.5t-36 46t-13 60q0 48 26.5 78.5t73 50.5t110 31.5
t136.5 20.5v60zM361 674q25 0 38 13t18 38h61q-10 -52 -39 -82t-73 -30q-23 0 -43 8t-38 18t-33.5 18t-30.5 8q-24 0 -36 -14t-19 -38h-60q8 56 40 84t74 28q23 0 42.5 -8t36.5 -17.5t32 -17.5t30 -8z" />
    <glyph glyph-name="adieresis" unicode="&#xe4;" horiz-adv-x="592" 
d="M408 270q-52 -5 -98.5 -12t-81.5 -21t-55.5 -38t-20.5 -63q0 -40 28.5 -68t80.5 -28q31 0 58 11t46.5 35t31 61.5t11.5 89.5v33zM405 374q0 72 -30.5 99.5t-88.5 27.5q-35 0 -58 -10t-37 -26.5t-20.5 -38.5t-8.5 -45h-87q3 38 19.5 68.5t45 52.5t66.5 33.5t83 11.5
q104 0 155.5 -41t50.5 -138q0 -26 -0.5 -48.5t-1 -42.5t-1 -39.5t-0.5 -40.5v-36v-31t0.5 -31t1.5 -35q1 -14 5.5 -17.5t20.5 -5.5l43 -4v-33l-144 -8l-4 101h-2q-23 -47 -67 -78.5t-118 -31.5q-36 0 -66.5 10.5t-53.5 29.5t-36 46t-13 60q0 48 26.5 78.5t73 50.5t110 31.5
t136.5 20.5v60zM142 745h86v-119h-86v119zM365 745h86v-119h-86v119z" />
    <glyph glyph-name="aring" unicode="&#xe5;" horiz-adv-x="592" 
d="M408 270q-52 -5 -98.5 -12t-81.5 -21t-55.5 -38t-20.5 -63q0 -40 28.5 -68t80.5 -28q31 0 58 11t46.5 35t31 61.5t11.5 89.5v33zM405 374q0 72 -30.5 99.5t-88.5 27.5q-35 0 -58 -10t-37 -26.5t-20.5 -38.5t-8.5 -45h-87q3 38 19.5 68.5t45 52.5t66.5 33.5t83 11.5
q104 0 155.5 -41t50.5 -138q0 -26 -0.5 -48.5t-1 -42.5t-1 -39.5t-0.5 -40.5v-36v-31t0.5 -31t1.5 -35q1 -14 5.5 -17.5t20.5 -5.5l43 -4v-33l-144 -8l-4 101h-2q-23 -47 -67 -78.5t-118 -31.5q-36 0 -66.5 10.5t-53.5 29.5t-36 46t-13 60q0 48 26.5 78.5t73 50.5t110 31.5
t136.5 20.5v60zM298 768q19 0 36 -6.5t30 -18.5t20.5 -28.5t7.5 -35.5q0 -38 -27.5 -63t-66.5 -25q-40 0 -67 25t-27 63q0 19 7.5 35.5t20.5 28.5t30 18.5t36 6.5zM298 724q-17 0 -31 -13t-14 -32q0 -20 14 -32t31 -12t31 12t14 32q0 19 -14 32t-31 13z" />
    <glyph glyph-name="ae" unicode="&#xe6;" horiz-adv-x="939" 
d="M658 36q62 0 99.5 34t43.5 97h88q-8 -45 -30 -79t-54 -56.5t-71 -33.5t-79 -11q-79 0 -128.5 34t-78.5 90q-24 -51 -76.5 -87.5t-136.5 -36.5q-44 0 -77 13t-55 35.5t-33 51t-11 60.5q0 41 17.5 70t48.5 48q36 23 86.5 35t106.5 18l87 8v46q0 72 -30.5 99t-88.5 27
q-35 0 -58 -10t-37 -26.5t-20.5 -38t-8.5 -44.5h-87q3 38 19.5 68.5t45 52t66.5 33t83 11.5q71 0 115 -18t67 -60q32 37 79.5 57.5t104.5 20.5q43 0 86 -15t77.5 -48.5t55.5 -87t21 -129.5h-403q1 -49 11 -90.5t29.5 -72t50.5 -48t75 -17.5zM409 284l-88 -9q-39 -4 -70 -12
t-53 -23t-34 -38t-12 -57q0 -21 7 -40t21 -33.5t35 -23t48 -8.5q22 0 48 8.5t47.5 31t36 61t14.5 97.5v46zM653 497q-32 0 -59.5 -11.5t-48.5 -34.5t-34 -58t-16 -81h308q-1 50 -13.5 85t-32.5 57.5t-47 32.5t-57 10z" />
    <glyph glyph-name="ccedilla" unicode="&#xe7;" horiz-adv-x="580" 
d="M50 267q0 60 17.5 111.5t50.5 88.5t79 58t103 21q43 0 81.5 -11.5t69 -34t51.5 -56t28 -78.5h-87q-7 63 -42.5 97t-99.5 34q-46 0 -76.5 -21t-48.5 -54t-25.5 -74t-7.5 -81t7.5 -81t25.5 -74.5t48.5 -54.5t76.5 -21q64 0 100 34t43 97h88q-8 -46 -29 -79.5t-52 -56
t-69.5 -33.5t-81.5 -11q-57 0 -103 21t-79 58.5t-50.5 89t-17.5 111.5zM269 3h48l-37 -53q48 9 78 -13t30 -64q0 -21 -9.5 -37.5t-25 -28.5t-36.5 -18.5t-44 -6.5q-24 0 -42.5 3.5t-43.5 14.5l15 36q12 -7 28 -10t33 -3q25 0 42.5 10t17.5 35q0 20 -14.5 29t-30.5 9
q-28 0 -45 -10l-21 19z" />
    <glyph glyph-name="egrave" unicode="&#xe8;" horiz-adv-x="589" 
d="M307 36q61 0 98.5 34t44.5 97h87q-8 -45 -30 -79t-54 -56.5t-71 -33.5t-79 -11q-63 0 -110.5 22.5t-79 61t-47.5 89.5t-16 107q0 61 18.5 112.5t52 88.5t80 58t102.5 21q43 0 86.5 -16t77.5 -50t55.5 -88t21.5 -130h-403q1 -49 10.5 -90.5t29.5 -72t51 -47.5t75 -17z
M301 500q-31 0 -58.5 -12t-48.5 -35.5t-34.5 -59t-16.5 -82.5h308q-1 50 -13 85.5t-32.5 58.5t-47.5 34t-57 11zM110 745h131l83 -142h-35z" />
    <glyph glyph-name="eacute" unicode="&#xe9;" horiz-adv-x="589" 
d="M307 36q61 0 98.5 34t44.5 97h87q-8 -45 -30 -79t-54 -56.5t-71 -33.5t-79 -11q-63 0 -110.5 22.5t-79 61t-47.5 89.5t-16 107q0 61 18.5 112.5t52 88.5t80 58t102.5 21q43 0 86.5 -16t77.5 -50t55.5 -88t21.5 -130h-403q1 -49 10.5 -90.5t29.5 -72t51 -47.5t75 -17z
M301 500q-31 0 -58.5 -12t-48.5 -35.5t-34.5 -59t-16.5 -82.5h308q-1 50 -13 85.5t-32.5 58.5t-47.5 34t-57 11zM313 603h-35l83 142h131z" />
    <glyph glyph-name="ecircumflex" unicode="&#xea;" horiz-adv-x="589" 
d="M307 36q61 0 98.5 34t44.5 97h87q-8 -45 -30 -79t-54 -56.5t-71 -33.5t-79 -11q-63 0 -110.5 22.5t-79 61t-47.5 89.5t-16 107q0 61 18.5 112.5t52 88.5t80 58t102.5 21q43 0 86.5 -16t77.5 -50t55.5 -88t21.5 -130h-403q1 -49 10.5 -90.5t29.5 -72t51 -47.5t75 -17z
M301 500q-31 0 -58.5 -12t-48.5 -35.5t-34.5 -59t-16.5 -82.5h308q-1 50 -13 85.5t-32.5 58.5t-47.5 34t-57 11zM472 603h-60l-101 73l-104 -73h-60l141 142h47z" />
    <glyph glyph-name="edieresis" unicode="&#xeb;" horiz-adv-x="589" 
d="M307 36q61 0 98.5 34t44.5 97h87q-8 -45 -30 -79t-54 -56.5t-71 -33.5t-79 -11q-63 0 -110.5 22.5t-79 61t-47.5 89.5t-16 107q0 61 18.5 112.5t52 88.5t80 58t102.5 21q43 0 86.5 -16t77.5 -50t55.5 -88t21.5 -130h-403q1 -49 10.5 -90.5t29.5 -72t51 -47.5t75 -17z
M301 500q-31 0 -58.5 -12t-48.5 -35.5t-34.5 -59t-16.5 -82.5h308q-1 50 -13 85.5t-32.5 58.5t-47.5 34t-57 11zM156 745h86v-119h-86v119zM379 745h86v-119h-86v119z" />
    <glyph glyph-name="igrave" unicode="&#xec;" horiz-adv-x="329" 
d="M221 439v-379q0 -14 6.5 -17.5t22.5 -5.5l41 -4v-33h-226v33l42 4q15 2 21.5 5.5t6.5 17.5v415q0 12 -5.5 18t-22.5 8l-43 5v32h158zM-20 745h131l83 -142h-35z" />
    <glyph glyph-name="iacute" unicode="&#xed;" horiz-adv-x="329" 
d="M221 439v-379q0 -14 6.5 -17.5t22.5 -5.5l41 -4v-33h-226v33l42 4q15 2 21.5 5.5t6.5 17.5v415q0 12 -5.5 18t-22.5 8l-43 5v32h158zM131 603h-35l83 142h131z" />
    <glyph glyph-name="icircumflex" unicode="&#xee;" horiz-adv-x="329" 
d="M221 439v-379q0 -14 6.5 -17.5t22.5 -5.5l41 -4v-33h-226v33l42 4q15 2 21.5 5.5t6.5 17.5v415q0 12 -5.5 18t-22.5 8l-43 5v32h158zM332 603h-60l-101 73l-104 -73h-60l141 142h47z" />
    <glyph glyph-name="idieresis" unicode="&#xef;" horiz-adv-x="329" 
d="M221 439v-379q0 -14 6.5 -17.5t22.5 -5.5l41 -4v-33h-226v33l42 4q15 2 21.5 5.5t6.5 17.5v415q0 12 -5.5 18t-22.5 8l-43 5v32h158zM23 745h86v-119h-86v119zM246 745h86v-119h-86v119z" />
    <glyph glyph-name="eth" unicode="&#xf0;" horiz-adv-x="569" 
d="M175 696q-23 9 -46 16.5t-48 14.5l11 34q62 -9 118 -28l58 64l31 -28l-47 -51q59 -24 110 -60.5t89 -84.5t60 -108t22 -132q0 -86 -18 -150.5t-51 -108t-79.5 -65.5t-103.5 -22q-54 0 -98.5 20t-75.5 56t-48 87t-17 113q0 63 18.5 115t50.5 89t74.5 57t90.5 20
q29 0 53.5 -8.5t44 -22t34.5 -31t24 -35.5l2 1q-18 75 -76 133t-142 97l-70 -76l-31 28zM439 263q0 63 -12 107t-32 71t-47 39t-58 12q-33 0 -61 -15.5t-49 -44.5t-33 -72t-12 -97q0 -55 12 -97t33 -71t48.5 -44t58.5 -15q27 0 54 12t48.5 39t35.5 70.5t14 105.5z" />
    <glyph glyph-name="ntilde" unicode="&#xf1;" horiz-adv-x="653" 
d="M555 60q0 -14 6.5 -17.5t22.5 -5.5l41 -4v-33h-226v33l42 4q15 2 21.5 5.5t6.5 17.5v286q0 72 -24.5 108.5t-83.5 36.5q-18 0 -42.5 -8t-46 -28t-36.5 -54.5t-15 -86.5v-254q0 -14 6.5 -17.5t22.5 -5.5l41 -4v-33h-226v33l42 4q15 2 21.5 5.5t6.5 17.5v415q0 12 -5.5 18
t-22.5 8l-43 5v32h155l1 -98h2q24 49 68.5 78t108.5 29q46 0 76.5 -16.5t48 -42.5t24.5 -58t7 -63v-307zM418 674q25 0 38 13t18 38h61q-10 -52 -39 -82t-73 -30q-23 0 -43 8t-38 18t-33.5 18t-30.5 8q-24 0 -36 -14t-19 -38h-60q8 56 40 84t74 28q23 0 42.5 -8t36.5 -17.5
t32 -17.5t30 -8z" />
    <glyph glyph-name="ograve" unicode="&#xf2;" horiz-adv-x="602" 
d="M143 267q0 -59 12 -102.5t33.5 -72t50.5 -42.5t62 -14t62 14t50.5 42.5t33.5 72t12 102.5t-12 102.5t-33.5 72t-50.5 42.5t-62 14t-62 -14t-50.5 -42.5t-33.5 -72t-12 -102.5zM552 267q0 -63 -19 -114.5t-52.5 -88.5t-79.5 -57t-100 -20t-100 20t-79.5 57t-52.5 88.5
t-19 114.5t19 114.5t52.5 88.5t79.5 57t100 20t100 -20t79.5 -57t52.5 -88.5t19 -114.5zM111 745h131l83 -142h-35z" />
    <glyph glyph-name="oacute" unicode="&#xf3;" horiz-adv-x="602" 
d="M143 267q0 -59 12 -102.5t33.5 -72t50.5 -42.5t62 -14t62 14t50.5 42.5t33.5 72t12 102.5t-12 102.5t-33.5 72t-50.5 42.5t-62 14t-62 -14t-50.5 -42.5t-33.5 -72t-12 -102.5zM552 267q0 -63 -19 -114.5t-52.5 -88.5t-79.5 -57t-100 -20t-100 20t-79.5 57t-52.5 88.5
t-19 114.5t19 114.5t52.5 88.5t79.5 57t100 20t100 -20t79.5 -57t52.5 -88.5t19 -114.5zM289 603h-35l83 142h131z" />
    <glyph glyph-name="ocircumflex" unicode="&#xf4;" horiz-adv-x="602" 
d="M143 267q0 -59 12 -102.5t33.5 -72t50.5 -42.5t62 -14t62 14t50.5 42.5t33.5 72t12 102.5t-12 102.5t-33.5 72t-50.5 42.5t-62 14t-62 -14t-50.5 -42.5t-33.5 -72t-12 -102.5zM552 267q0 -63 -19 -114.5t-52.5 -88.5t-79.5 -57t-100 -20t-100 20t-79.5 57t-52.5 88.5
t-19 114.5t19 114.5t52.5 88.5t79.5 57t100 20t100 -20t79.5 -57t52.5 -88.5t19 -114.5zM468 603h-60l-101 73l-104 -73h-60l141 142h47z" />
    <glyph glyph-name="otilde" unicode="&#xf5;" horiz-adv-x="602" 
d="M143 267q0 -59 12 -102.5t33.5 -72t50.5 -42.5t62 -14t62 14t50.5 42.5t33.5 72t12 102.5t-12 102.5t-33.5 72t-50.5 42.5t-62 14t-62 -14t-50.5 -42.5t-33.5 -72t-12 -102.5zM552 267q0 -63 -19 -114.5t-52.5 -88.5t-79.5 -57t-100 -20t-100 20t-79.5 57t-52.5 88.5
t-19 114.5t19 114.5t52.5 88.5t79.5 57t100 20t100 -20t79.5 -57t52.5 -88.5t19 -114.5zM374 674q25 0 38 13t18 38h61q-10 -52 -39 -82t-73 -30q-23 0 -43 8t-38 18t-33.5 18t-30.5 8q-24 0 -36 -14t-19 -38h-60q8 56 40 84t74 28q23 0 42.5 -8t36.5 -17.5t32 -17.5t30 -8z
" />
    <glyph glyph-name="odieresis" unicode="&#xf6;" horiz-adv-x="602" 
d="M143 267q0 -59 12 -102.5t33.5 -72t50.5 -42.5t62 -14t62 14t50.5 42.5t33.5 72t12 102.5t-12 102.5t-33.5 72t-50.5 42.5t-62 14t-62 -14t-50.5 -42.5t-33.5 -72t-12 -102.5zM552 267q0 -63 -19 -114.5t-52.5 -88.5t-79.5 -57t-100 -20t-100 20t-79.5 57t-52.5 88.5
t-19 114.5t19 114.5t52.5 88.5t79.5 57t100 20t100 -20t79.5 -57t52.5 -88.5t19 -114.5zM156 745h86v-119h-86v119zM379 745h86v-119h-86v119z" />
    <glyph glyph-name="divide" unicode="&#xf7;" 
d="M310 166h88v-95h-88v95zM310 480h88v-95h-88v95zM97 246v60h511v-60h-511z" />
    <glyph glyph-name="oslash" unicode="&#xf8;" horiz-adv-x="602" 
d="M552 267q0 -63 -19 -114.5t-52.5 -88.5t-79.5 -57t-100 -20q-90 0 -154 52l-48 -62l-33 23l52 67q-32 37 -50 87.5t-18 112.5q0 63 19 114.5t52.5 88.5t79.5 57t100 20q44 0 82 -13t69 -37l49 63l33 -24l-52 -67q33 -37 51.5 -88t18.5 -114zM301 36q33 0 62 14t50.5 42.5
t33.5 72t12 102.5q0 44 -7 78.5t-19 61.5l-245 -315q43 -56 113 -56zM143 267q0 -85 24 -137l244 314q-21 28 -49.5 41t-60.5 13q-33 0 -62 -14t-50.5 -42.5t-33.5 -72t-12 -102.5z" />
    <glyph glyph-name="ugrave" unicode="&#xf9;" horiz-adv-x="606" 
d="M415 94h-2q-24 -50 -64.5 -78.5t-105.5 -28.5q-45 0 -74 16.5t-45.5 42.5t-22.5 58t-6 63v308q0 12 -5.5 18t-22.5 8l-43 5v32h158l-1 -99v-251q0 -72 21.5 -108.5t79.5 -36.5q18 0 41 8t43.5 28t34 54t13.5 86v256q0 12 -6 18t-23 8l-42 5v32h158l-1 -99v-375
q0 -14 6.5 -17.5t21.5 -5.5l42 -4v-33l-153 -8zM106 745h131l83 -142h-35z" />
    <glyph glyph-name="uacute" unicode="&#xfa;" horiz-adv-x="606" 
d="M415 94h-2q-24 -50 -64.5 -78.5t-105.5 -28.5q-45 0 -74 16.5t-45.5 42.5t-22.5 58t-6 63v308q0 12 -5.5 18t-22.5 8l-43 5v32h158l-1 -99v-251q0 -72 21.5 -108.5t79.5 -36.5q18 0 41 8t43.5 28t34 54t13.5 86v256q0 12 -6 18t-23 8l-42 5v32h158l-1 -99v-375
q0 -14 6.5 -17.5t21.5 -5.5l42 -4v-33l-153 -8zM304 603h-35l83 142h131z" />
    <glyph glyph-name="ucircumflex" unicode="&#xfb;" horiz-adv-x="606" 
d="M415 94h-2q-24 -50 -64.5 -78.5t-105.5 -28.5q-45 0 -74 16.5t-45.5 42.5t-22.5 58t-6 63v308q0 12 -5.5 18t-22.5 8l-43 5v32h158l-1 -99v-251q0 -72 21.5 -108.5t79.5 -36.5q18 0 41 8t43.5 28t34 54t13.5 86v256q0 12 -6 18t-23 8l-42 5v32h158l-1 -99v-375
q0 -14 6.5 -17.5t21.5 -5.5l42 -4v-33l-153 -8zM443 603h-60l-101 73l-104 -73h-60l141 142h47z" />
    <glyph glyph-name="udieresis" unicode="&#xfc;" horiz-adv-x="606" 
d="M415 94h-2q-24 -50 -64.5 -78.5t-105.5 -28.5q-45 0 -74 16.5t-45.5 42.5t-22.5 58t-6 63v308q0 12 -5.5 18t-22.5 8l-43 5v32h158l-1 -99v-251q0 -72 21.5 -108.5t79.5 -36.5q18 0 41 8t43.5 28t34 54t13.5 86v256q0 12 -6 18t-23 8l-42 5v32h158l-1 -99v-375
q0 -14 6.5 -17.5t21.5 -5.5l42 -4v-33l-153 -8zM129 745h86v-119h-86v119zM352 745h86v-119h-86v119z" />
    <glyph glyph-name="yacute" unicode="&#xfd;" horiz-adv-x="546" 
d="M44 -189v61h72q21 0 35.5 2t26.5 13t23 34.5t26 66.5l7 19l-174 463q-7 19 -12.5 24.5t-24.5 7.5l-27 3v33h224v-33l-36 -3q-33 -3 -26 -23l125 -384l120 338q14 38 12 52.5t-37 17.5l-24 2v33h196v-33l-24 -2q-23 -2 -34.5 -15t-22.5 -36l-178 -466
q-25 -65 -42.5 -100.5t-36 -52t-42 -19.5t-60.5 -3h-66zM303 603h-35l83 142h131z" />
    <glyph glyph-name="thorn" unicode="&#xfe;" horiz-adv-x="636" 
d="M188 268q0 -64 12 -107.5t32.5 -70.5t47.5 -38.5t58 -11.5q33 0 61 15t49 44t33 71.5t12 97.5q0 54 -12 95.5t-33 69.5t-48.5 42.5t-58.5 14.5q-27 0 -54 -11.5t-49 -37.5t-36 -68.5t-14 -104.5zM196 535q0 -26 -1 -51.5t-3 -51.5h2q25 48 66.5 80t107.5 32q47 0 87 -20
t69 -56.5t45.5 -87.5t16.5 -112q0 -64 -18.5 -116t-50.5 -88.5t-74.5 -56.5t-90.5 -20q-29 0 -53.5 8.5t-44 22t-34.5 31t-24 35.5h-2l2 -75v-138q0 -14 6.5 -18t22.5 -5l63 -4v-33h-248v33l41 4q16 2 22.5 5.5t6.5 17.5v814q0 14 -6.5 17.5t-22.5 5.5l-41 4v33h157l-1 -100
v-110z" />
    <glyph glyph-name="ydieresis" unicode="&#xff;" horiz-adv-x="546" 
d="M44 -189v61h72q21 0 35.5 2t26.5 13t23 34.5t26 66.5l7 19l-174 463q-7 19 -12.5 24.5t-24.5 7.5l-27 3v33h224v-33l-36 -3q-33 -3 -26 -23l125 -384l120 338q14 38 12 52.5t-37 17.5l-24 2v33h196v-33l-24 -2q-23 -2 -34.5 -15t-22.5 -36l-178 -466
q-25 -65 -42.5 -100.5t-36 -52t-42 -19.5t-60.5 -3h-66zM132 745h86v-119h-86v119zM355 745h86v-119h-86v119z" />
    <glyph glyph-name="Abreve" unicode="&#x102;" horiz-adv-x="714" 
d="M321 732h71l248 -646q5 -14 10 -23t12 -15t17.5 -9.5t27.5 -4.5l11 -1v-33h-262v33l46 3q19 1 30 3.5t15.5 8.5t3 16t-7.5 26l-53 139h-300l-39 -106q-11 -28 -14.5 -44.5t0 -26t14.5 -13t30 -4.5l40 -2v-33h-225v33l12 2q18 1 29 5.5t20 16t17.5 32t21.5 54.5zM210 283
h259l-130 344zM515 890q-6 -54 -45 -88t-119 -34q-77 0 -116 34.5t-46 87.5h66q4 -32 32 -49.5t65 -17.5t65 18t33 49h65z" />
    <glyph glyph-name="Amacron" unicode="&#x100;" horiz-adv-x="714" 
d="M321 732h71l248 -646q5 -14 10 -23t12 -15t17.5 -9.5t27.5 -4.5l11 -1v-33h-262v33l46 3q19 1 30 3.5t15.5 8.5t3 16t-7.5 26l-53 139h-300l-39 -106q-11 -28 -14.5 -44.5t0 -26t14.5 -13t30 -4.5l40 -2v-33h-225v33l12 2q18 1 29 5.5t20 16t17.5 32t21.5 54.5zM210 283
h259l-130 344zM199 798v67h311v-67h-311z" />
    <glyph glyph-name="Aogonek" unicode="&#x104;" horiz-adv-x="714" 
d="M456 0v33l46 3q19 1 30 3.5t15.5 8.5t3 16t-7.5 26l-53 139h-300l-39 -106q-11 -28 -14.5 -44.5t0 -26t14.5 -13t30 -4.5l40 -2v-33h-225v33l12 2q18 1 29 5.5t20 16t17.5 32t21.5 54.5l225 589h71l248 -646q5 -14 10 -23t12 -15t17.5 -9.5t27.5 -4.5l11 -1v-33h-77
q-39 -19 -67 -42.5t-28 -49.5q0 -29 22.5 -40.5t48.5 -11.5q31 0 52 9v-44q-14 -6 -34 -9t-43 -3q-21 0 -43.5 4.5t-41.5 14.5t-31 27t-12 43q0 32 31.5 59.5t77.5 42.5h-117zM210 283h259l-130 344z" />
    <glyph glyph-name="Cacute" unicode="&#x106;" horiz-adv-x="735" 
d="M42 366q0 85 24 154.5t69 119t108 76t141 26.5q59 0 111 -16t93.5 -46t69 -74t37.5 -99h-95q-14 92 -69.5 138.5t-145.5 46.5q-51 0 -95 -20t-76 -60.5t-50.5 -102t-18.5 -143.5q0 -81 18 -142.5t49.5 -103t75 -62.5t94.5 -21q96 0 152 46t70 140h95q-10 -58 -38.5 -102
t-70.5 -74t-95 -45t-112 -15q-82 0 -145.5 27.5t-107 78t-66 120t-22.5 153.5zM420 773h-60l114 117h123z" />
    <glyph glyph-name="Ccaron" unicode="&#x10c;" horiz-adv-x="735" 
d="M42 366q0 85 24 154.5t69 119t108 76t141 26.5q59 0 111 -16t93.5 -46t69 -74t37.5 -99h-95q-14 92 -69.5 138.5t-145.5 46.5q-51 0 -95 -20t-76 -60.5t-50.5 -102t-18.5 -143.5q0 -81 18 -142.5t49.5 -103t75 -62.5t94.5 -21q96 0 152 46t70 140h95q-10 -58 -38.5 -102
t-70.5 -74t-95 -45t-112 -15q-82 0 -145.5 27.5t-107 78t-66 120t-22.5 153.5zM216 890h66l103 -58l105 58h66l-140 -117h-65z" />
    <glyph glyph-name="Ccircumflex" unicode="&#x108;" horiz-adv-x="735" 
d="M42 366q0 85 24 154.5t69 119t108 76t141 26.5q59 0 111 -16t93.5 -46t69 -74t37.5 -99h-95q-14 92 -69.5 138.5t-145.5 46.5q-51 0 -95 -20t-76 -60.5t-50.5 -102t-18.5 -143.5q0 -81 18 -142.5t49.5 -103t75 -62.5t94.5 -21q96 0 152 46t70 140h95q-10 -58 -38.5 -102
t-70.5 -74t-95 -45t-112 -15q-82 0 -145.5 27.5t-107 78t-66 120t-22.5 153.5zM556 773h-66l-104 58l-104 -58h-66l139 117h64z" />
    <glyph glyph-name="Cdotaccent" unicode="&#x10a;" horiz-adv-x="735" 
d="M42 366q0 85 24 154.5t69 119t108 76t141 26.5q59 0 111 -16t93.5 -46t69 -74t37.5 -99h-95q-14 92 -69.5 138.5t-145.5 46.5q-51 0 -95 -20t-76 -60.5t-50.5 -102t-18.5 -143.5q0 -81 18 -142.5t49.5 -103t75 -62.5t94.5 -21q96 0 152 46t70 140h95q-10 -58 -38.5 -102
t-70.5 -74t-95 -45t-112 -15q-82 0 -145.5 27.5t-107 78t-66 120t-22.5 153.5zM346 890h86v-117h-86v117z" />
    <glyph glyph-name="Dcaron" unicode="&#x10e;" horiz-adv-x="762" 
d="M617 363q0 106 -29.5 168.5t-76 95.5t-104.5 42.5t-115 9.5h-61v-633h61q57 0 115 9.5t104.5 42.5t76 96t29.5 169zM720 363q0 -105 -33.5 -175t-91.5 -112t-135 -59.5t-165 -17.5h-139q-48 0 -102 1v34l57 4q16 1 22 5.5t6 17.5v603q0 13 -6 17.5t-22 5.5l-57 4v34h102
q41 0 80.5 0.5t58.5 0.5q88 0 165 -17.5t135 -59t91.5 -111.5t33.5 -175zM190 890h66l103 -58l105 58h66l-140 -117h-65z" />
    <glyph glyph-name="Dcroat" unicode="&#x110;" horiz-adv-x="775" 
d="M733 363q0 -105 -33.5 -175t-91.5 -112t-135 -59.5t-165 -17.5h-139q-48 0 -102 1v34l56 4q16 1 22.5 5.5t6.5 17.5v287h-128v54h128v262q0 13 -6.5 17.5t-22.5 5.5l-56 4v34h102q41 0 80.5 0.5t58.5 0.5q88 0 165 -17.5t135 -59t91.5 -111.5t33.5 -175zM391 348h-148
v-302h62q38 0 77 4t75 15.5t67.5 33t55 56.5t37 86t13.5 122q0 70 -13.5 121t-37 86t-55 56.5t-67.5 33t-75 15.5t-77 4h-62v-277h148v-54z" />
    <glyph glyph-name="Ebreve" unicode="&#x114;" horiz-adv-x="682" 
d="M615 725v-214h-34l-17 98q-5 25 -11 39t-18.5 20.5t-33 8t-53.5 1.5h-217v-279h279v-51h-279v-301h225q33 0 53 1t32 8t18 21.5t11 40.5l18 96h34v-214h-568v34l57 4q16 1 22 5.5t6 17.5v603q0 13 -6 17.5t-22 5.5l-57 4v34h561zM514 890q-6 -54 -45 -88t-119 -34
q-77 0 -116 34.5t-46 87.5h66q4 -32 32 -49.5t65 -17.5t65 18t33 49h65z" />
    <glyph glyph-name="Ecaron" unicode="&#x11a;" horiz-adv-x="682" 
d="M615 725v-214h-34l-17 98q-5 25 -11 39t-18.5 20.5t-33 8t-53.5 1.5h-217v-279h279v-51h-279v-301h225q33 0 53 1t32 8t18 21.5t11 40.5l18 96h34v-214h-568v34l57 4q16 1 22 5.5t6 17.5v603q0 13 -6 17.5t-22 5.5l-57 4v34h561zM192 890h66l103 -58l105 58h66l-140 -117
h-65z" />
    <glyph glyph-name="Emacron" unicode="&#x112;" horiz-adv-x="682" 
d="M615 725v-214h-34l-17 98q-5 25 -11 39t-18.5 20.5t-33 8t-53.5 1.5h-217v-279h279v-51h-279v-301h225q33 0 53 1t32 8t18 21.5t11 40.5l18 96h34v-214h-568v34l57 4q16 1 22 5.5t6 17.5v603q0 13 -6 17.5t-22 5.5l-57 4v34h561zM201 798v67h311v-67h-311z" />
    <glyph glyph-name="Eogonek" unicode="&#x118;" horiz-adv-x="679" 
d="M54 0v34l57 4q16 1 22 5.5t6 17.5v603q0 13 -6 17.5t-22 5.5l-57 4v34h561v-214h-34l-17 98q-5 25 -11 39t-18.5 20.5t-33 8t-53.5 1.5h-217v-279h279v-51h-279v-301h225q33 0 53 1t32 8t18 21.5t11 40.5l18 96h34v-214q-40 -19 -67.5 -42.5t-27.5 -49.5
q0 -29 22.5 -40.5t48.5 -11.5q31 0 51 9v-44q-13 -6 -33 -9t-43 -3q-21 0 -43.5 4.5t-41.5 14.5t-31 27t-12 43q0 32 31.5 59.5t76.5 42.5h-499z" />
    <glyph glyph-name="Edotaccent" unicode="&#x116;" horiz-adv-x="682" 
d="M615 725v-214h-34l-17 98q-5 25 -11 39t-18.5 20.5t-33 8t-53.5 1.5h-217v-279h279v-51h-279v-301h225q33 0 53 1t32 8t18 21.5t11 40.5l18 96h34v-214h-568v34l57 4q16 1 22 5.5t6 17.5v603q0 13 -6 17.5t-22 5.5l-57 4v34h561zM316 890h86v-117h-86v117z" />
    <glyph glyph-name="Gbreve" unicode="&#x11e;" horiz-adv-x="775" 
d="M387 692q-50 0 -94 -20t-77 -60.5t-52 -102t-19 -143.5q0 -81 18 -142t49.5 -102t75 -61.5t94.5 -20.5q40 0 80.5 10.5t72.5 36t52.5 68.5t20.5 107v46h-149v47h235v-355h-53l-21 107q-15 -24 -37 -45.5t-52 -38t-68.5 -26.5t-86.5 -10q-80 0 -142 27.5t-104.5 78
t-65 120t-22.5 153.5q0 85 24.5 154.5t69.5 119t108.5 76t141.5 26.5q59 0 111 -16t93.5 -46t69 -74t37.5 -99h-95q-14 92 -69.5 138.5t-145.5 46.5zM542 890q-6 -54 -45 -88t-119 -34q-77 0 -116 34.5t-46 87.5h66q4 -32 32 -49.5t65 -17.5t65 18t33 49h65z" />
    <glyph glyph-name="Gcircumflex" unicode="&#x11c;" horiz-adv-x="775" 
d="M387 692q-50 0 -94 -20t-77 -60.5t-52 -102t-19 -143.5q0 -81 18 -142t49.5 -102t75 -61.5t94.5 -20.5q40 0 80.5 10.5t72.5 36t52.5 68.5t20.5 107v46h-149v47h235v-355h-53l-21 107q-15 -24 -37 -45.5t-52 -38t-68.5 -26.5t-86.5 -10q-80 0 -142 27.5t-104.5 78
t-65 120t-22.5 153.5q0 85 24.5 154.5t69.5 119t108.5 76t141.5 26.5q59 0 111 -16t93.5 -46t69 -74t37.5 -99h-95q-14 92 -69.5 138.5t-145.5 46.5zM547 773h-66l-104 58l-104 -58h-66l139 117h64z" />
    <glyph glyph-name="Gcommaaccent" unicode="&#x122;" horiz-adv-x="775" 
d="M387 692q-50 0 -94 -20t-77 -60.5t-52 -102t-19 -143.5q0 -81 18 -142t49.5 -102t75 -61.5t94.5 -20.5q40 0 80.5 10.5t72.5 36t52.5 68.5t20.5 107v46h-149v47h235v-355h-53l-21 107q-15 -24 -37 -45.5t-52 -38t-68.5 -26.5t-86.5 -10q-80 0 -142 27.5t-104.5 78
t-65 120t-22.5 153.5q0 85 24.5 154.5t69.5 119t108.5 76t141.5 26.5q59 0 111 -16t93.5 -46t69 -74t37.5 -99h-95q-14 92 -69.5 138.5t-145.5 46.5zM316 -37h99v-98l-46 -93h-56l40 99h-37v92z" />
    <glyph glyph-name="Gdotaccent" unicode="&#x120;" horiz-adv-x="775" 
d="M387 692q-50 0 -94 -20t-77 -60.5t-52 -102t-19 -143.5q0 -81 18 -142t49.5 -102t75 -61.5t94.5 -20.5q40 0 80.5 10.5t72.5 36t52.5 68.5t20.5 107v46h-149v47h235v-355h-53l-21 107q-15 -24 -37 -45.5t-52 -38t-68.5 -26.5t-86.5 -10q-80 0 -142 27.5t-104.5 78
t-65 120t-22.5 153.5q0 85 24.5 154.5t69.5 119t108.5 76t141.5 26.5q59 0 111 -16t93.5 -46t69 -74t37.5 -99h-95q-14 92 -69.5 138.5t-145.5 46.5zM338 890h86v-117h-86v117z" />
    <glyph glyph-name="Hbar" unicode="&#x126;" horiz-adv-x="855" 
d="M716 569h85v-54h-85v-454q0 -13 6 -17.5t22 -5.5l57 -4v-34h-262v34l57 4q15 1 21.5 5.5t6.5 17.5v287h-393v-287q0 -13 6.5 -17.5t21.5 -5.5l57 -4v-34h-262v34l57 4q16 1 22 5.5t6 17.5v454h-85v54h85v95q0 13 -6 17.5t-22 5.5l-57 4v34h262v-34l-57 -4
q-15 -1 -21.5 -5.5t-6.5 -17.5v-95h393v95q0 13 -6.5 17.5t-21.5 5.5l-57 4v34h262v-34l-57 -4q-16 -1 -22 -5.5t-6 -17.5v-95zM624 402v113h-393v-113h393z" />
    <glyph glyph-name="Hcircumflex" unicode="&#x124;" horiz-adv-x="855" 
d="M716 61q0 -13 6 -17.5t22 -5.5l57 -4v-34h-262v34l57 4q15 1 21.5 5.5t6.5 17.5v287h-393v-287q0 -13 6.5 -17.5t21.5 -5.5l57 -4v-34h-262v34l57 4q16 1 22 5.5t6 17.5v603q0 13 -6 17.5t-22 5.5l-57 4v34h262v-34l-57 -4q-15 -1 -21.5 -5.5t-6.5 -17.5v-262h393v262
q0 13 -6.5 17.5t-21.5 5.5l-57 4v34h262v-34l-57 -4q-16 -1 -22 -5.5t-6 -17.5v-603zM599 773h-66l-104 58l-104 -58h-66l139 117h64z" />
    <glyph glyph-name="Ibreve" unicode="&#x12c;" horiz-adv-x="370" 
d="M316 0h-262v34l57 4q16 1 22 5.5t6 17.5v603q0 13 -6 17.5t-22 5.5l-57 4v34h262v-34l-57 -4q-15 -1 -21.5 -5.5t-6.5 -17.5v-603q0 -13 6.5 -17.5t21.5 -5.5l57 -4v-34zM349 890q-6 -54 -45 -88t-119 -34q-77 0 -116 34.5t-46 87.5h66q4 -32 32 -49.5t65 -17.5t65 18
t33 49h65z" />
    <glyph glyph-name="Idotaccent" unicode="&#x130;" horiz-adv-x="370" 
d="M316 0h-262v34l57 4q16 1 22 5.5t6 17.5v603q0 13 -6 17.5t-22 5.5l-57 4v34h262v-34l-57 -4q-15 -1 -21.5 -5.5t-6.5 -17.5v-603q0 -13 6.5 -17.5t21.5 -5.5l57 -4v-34zM142 890h86v-117h-86v117z" />
    <glyph glyph-name="Imacron" unicode="&#x12a;" horiz-adv-x="370" 
d="M316 0h-262v34l57 4q16 1 22 5.5t6 17.5v603q0 13 -6 17.5t-22 5.5l-57 4v34h262v-34l-57 -4q-15 -1 -21.5 -5.5t-6.5 -17.5v-603q0 -13 6.5 -17.5t21.5 -5.5l57 -4v-34zM29 798v67h311v-67h-311z" />
    <glyph glyph-name="Iogonek" unicode="&#x12e;" horiz-adv-x="370" 
d="M316 0h-262v34l57 4q16 1 22 5.5t6 17.5v603q0 13 -6 17.5t-22 5.5l-57 4v34h262v-34l-57 -4q-15 -1 -21.5 -5.5t-6.5 -17.5v-603q0 -13 6.5 -17.5t21.5 -5.5l57 -4v-34zM233 0q-40 -19 -67.5 -42.5t-27.5 -49.5q0 -29 22.5 -40.5t48.5 -11.5q31 0 51 9v-44
q-13 -6 -33 -9t-43 -3q-21 0 -43.5 4.5t-41.5 14.5t-31 27t-12 43q0 32 31.5 59.5t76.5 42.5h69z" />
    <glyph glyph-name="Itilde" unicode="&#x128;" horiz-adv-x="370" 
d="M316 0h-262v34l57 4q16 1 22 5.5t6 17.5v603q0 13 -6 17.5t-22 5.5l-57 4v34h262v-34l-57 -4q-15 -1 -21.5 -5.5t-6.5 -17.5v-603q0 -13 6.5 -17.5t21.5 -5.5l57 -4v-34zM253 836q25 0 38 13.5t18 38.5h61q-10 -52 -39 -82.5t-73 -30.5q-23 0 -43 8.5t-38 18t-33.5 18
t-30.5 8.5q-24 0 -36 -14t-19 -39h-60q8 56 40 84.5t74 28.5q23 0 42.5 -8t36.5 -18t32 -18t30 -8z" />
    <glyph glyph-name="uni1ECA" unicode="&#x1eca;" horiz-adv-x="370" 
d="M141 -54h86v-119h-86v119zM316 0h-262v34l57 4q16 1 22 5.5t6 17.5v603q0 13 -6 17.5t-22 5.5l-57 4v34h262v-34l-57 -4q-15 -1 -21.5 -5.5t-6.5 -17.5v-603q0 -13 6.5 -17.5t21.5 -5.5l57 -4v-34z" />
    <glyph glyph-name="Jcircumflex" unicode="&#x134;" horiz-adv-x="366" 
d="M245 165q0 -59 -8.5 -92t-29.5 -49.5t-57.5 -20t-92.5 -3.5h-45v63h45q35 0 54.5 2.5t28.5 12t11 28t2 51.5v507q0 13 -6.5 17.5t-22.5 5.5l-56 4v34h262v-34l-57 -4q-16 -1 -22 -5.5t-6 -17.5v-499zM370 773h-66l-104 58l-104 -58h-66l139 117h64z" />
    <glyph glyph-name="Kcommaaccent" unicode="&#x136;" horiz-adv-x="745" 
d="M231 342l296 290q26 26 24.5 39.5t-25.5 15.5l-55 4v34h253v-34l-31 -2q-15 -1 -27 -4.5t-24.5 -12.5t-29.5 -24.5t-43 -40.5l-177 -168l247 -357q15 -21 31.5 -32.5t48.5 -13.5l32 -2v-34h-285v34l49 4q26 2 27.5 12.5t-18.5 40.5l-196 287l-97 -93v-224
q0 -13 6.5 -17.5t21.5 -5.5l57 -4v-34h-262v34l57 4q16 1 22 5.5t6 17.5v603q0 13 -6 17.5t-22 5.5l-57 4v34h262v-34l-57 -4q-15 -1 -21.5 -5.5t-6.5 -17.5v-322zM338 -37h99v-98l-46 -93h-56l40 99h-37v92z" />
    <glyph glyph-name="Lacute" unicode="&#x139;" horiz-adv-x="634" 
d="M54 34l57 4q16 1 22 5.5t6 17.5v603q0 13 -6 17.5t-22 5.5l-57 4v34h272v-34l-67 -4q-15 -1 -21.5 -5.5t-6.5 -17.5v-617h214q33 0 52.5 1t31.5 8t18 21.5t11 40.5l18 96h34v-214h-556v34zM214 773h-60l114 117h123z" />
    <glyph glyph-name="Lcaron" unicode="&#x13d;" horiz-adv-x="634" 
d="M54 34l57 4q16 1 22 5.5t6 17.5v603q0 13 -6 17.5t-22 5.5l-57 4v34h272v-34l-67 -4q-15 -1 -21.5 -5.5t-6.5 -17.5v-617h214q33 0 52.5 1t31.5 8t18 21.5t11 40.5l18 96h34v-214h-556v34zM398 725h110v-117l-69 -148h-36l42 155h-47v110z" />
    <glyph glyph-name="Lcommaaccent" unicode="&#x13b;" horiz-adv-x="634" 
d="M54 34l57 4q16 1 22 5.5t6 17.5v603q0 13 -6 17.5t-22 5.5l-57 4v34h272v-34l-67 -4q-15 -1 -21.5 -5.5t-6.5 -17.5v-617h214q33 0 52.5 1t31.5 8t18 21.5t11 40.5l18 96h34v-214h-556v34zM293 -37h99v-98l-46 -93h-56l40 99h-37v92z" />
    <glyph glyph-name="Ldot" unicode="&#x13f;" horiz-adv-x="634" 
d="M54 34l57 4q16 1 22 5.5t6 17.5v603q0 13 -6 17.5t-22 5.5l-57 4v34h272v-34l-67 -4q-15 -1 -21.5 -5.5t-6.5 -17.5v-617h214q33 0 52.5 1t31.5 8t18 21.5t11 40.5l18 96h34v-214h-556v34zM352 471h86v-119h-86v119z" />
    <glyph glyph-name="Lslash" unicode="&#x141;" horiz-adv-x="645" 
d="M65 34l57 4q16 1 22 5.5t6 17.5v262l-128 -40l-16 52l144 45v284q0 13 -6 17.5t-22 5.5l-57 4v34h272v-34l-67 -4q-15 -1 -21.5 -5.5t-6.5 -17.5v-255l160 51l17 -53l-177 -56v-304h214q33 0 52.5 1t31.5 8t18 21.5t11 40.5l18 96h34v-214h-556v34z" />
    <glyph glyph-name="Eng" unicode="&#x14a;" horiz-adv-x="804" 
d="M195 615v-529q0 -15 1.5 -24.5t6.5 -15t14.5 -7.5t25.5 -3l38 -2v-34h-227v34l36 2q16 1 25.5 3t15 7.5t7 15t1.5 24.5v577q0 10 -6 16t-22 8l-57 4v34h173l399 -582v496q0 15 -1.5 24.5t-6.5 15t-14.5 7.5t-25.5 3l-38 2v34h227v-34l-36 -2q-16 -1 -25.5 -3t-15 -7.5
t-7 -15t-1.5 -24.5v-663q0 -59 -8 -92t-26.5 -49.5t-48 -20t-72.5 -3.5h-20v59h23q35 0 54.5 3t28.5 13.5t11 29.5t2 52v19z" />
    <glyph glyph-name="Nacute" unicode="&#x143;" horiz-adv-x="804" 
d="M682 -10h-58l-429 625v-529q0 -15 1.5 -24.5t6.5 -15t14.5 -7.5t25.5 -3l38 -2v-34h-227v34l36 2q16 1 25.5 3t15 7.5t7 15t1.5 24.5v577q0 10 -6 16t-22 8l-57 4v34h173l399 -582v496q0 15 -1.5 24.5t-6.5 15t-14.5 7.5t-25.5 3l-38 2v34h227v-34l-36 -2
q-16 -1 -25.5 -3t-15 -7.5t-7 -15t-1.5 -24.5v-649zM409 773h-60l114 117h123z" />
    <glyph glyph-name="Ncaron" unicode="&#x147;" horiz-adv-x="804" 
d="M682 -10h-58l-429 625v-529q0 -15 1.5 -24.5t6.5 -15t14.5 -7.5t25.5 -3l38 -2v-34h-227v34l36 2q16 1 25.5 3t15 7.5t7 15t1.5 24.5v577q0 10 -6 16t-22 8l-57 4v34h173l399 -582v496q0 15 -1.5 24.5t-6.5 15t-14.5 7.5t-25.5 3l-38 2v34h227v-34l-36 -2
q-16 -1 -25.5 -3t-15 -7.5t-7 -15t-1.5 -24.5v-649zM251 890h66l103 -58l105 58h66l-140 -117h-65z" />
    <glyph glyph-name="Ncommaaccent" unicode="&#x145;" horiz-adv-x="804" 
d="M682 -10h-58l-429 625v-529q0 -15 1.5 -24.5t6.5 -15t14.5 -7.5t25.5 -3l38 -2v-34h-227v34l36 2q16 1 25.5 3t15 7.5t7 15t1.5 24.5v577q0 10 -6 16t-22 8l-57 4v34h173l399 -582v496q0 15 -1.5 24.5t-6.5 15t-14.5 7.5t-25.5 3l-38 2v34h227v-34l-36 -2
q-16 -1 -25.5 -3t-15 -7.5t-7 -15t-1.5 -24.5v-649zM373 -37h99v-98l-46 -93h-56l40 99h-37v92z" />
    <glyph glyph-name="OE" unicode="&#x152;" horiz-adv-x="1163" 
d="M387 -13q-79 0 -143 27t-109 76.5t-69 119.5t-24 155t25.5 154.5t71.5 119t109.5 76.5t140.5 27q79 0 136.5 -28.5t95.5 -81.5v93h476v-214h-34l-18 98q-5 25 -11 39t-18.5 20.5t-32.5 8t-53 1.5h-218v-279h280v-51h-280v-301h225q33 0 53.5 1t32.5 8t18 21.5t11 40.5
l17 96h34v-214h-482v102q-38 -55 -96 -85t-138 -30zM632 365q0 82 -18.5 143t-51 102t-77.5 61.5t-97 20.5q-53 0 -97.5 -20.5t-76.5 -61.5t-50.5 -102t-18.5 -143t18.5 -143.5t50.5 -102.5t76.5 -61.5t97.5 -20.5q52 0 97 20.5t77.5 61.5t51 102.5t18.5 143.5z" />
    <glyph glyph-name="Obreve" unicode="&#x14e;" horiz-adv-x="777" 
d="M387 -13q-79 0 -143 27t-109 76.5t-69 119.5t-24 155t25.5 154.5t71.5 119t109.5 76.5t140.5 27q76 0 140 -25.5t109.5 -74t71 -118.5t25.5 -159t-25.5 -159.5t-72 -119t-110.5 -74t-140 -25.5zM632 365q0 82 -18.5 143t-51 102t-77.5 61.5t-97 20.5q-53 0 -97.5 -20.5
t-76.5 -61.5t-50.5 -102t-18.5 -143t18.5 -143.5t50.5 -102.5t76.5 -61.5t97.5 -20.5q52 0 97 20.5t77.5 61.5t51 102.5t18.5 143.5zM542 890q-6 -54 -45 -88t-119 -34q-77 0 -116 34.5t-46 87.5h66q4 -32 32 -49.5t65 -17.5t65 18t33 49h65z" />
    <glyph glyph-name="Ohungarumlaut" unicode="&#x150;" horiz-adv-x="777" 
d="M387 -13q-79 0 -143 27t-109 76.5t-69 119.5t-24 155t25.5 154.5t71.5 119t109.5 76.5t140.5 27q76 0 140 -25.5t109.5 -74t71 -118.5t25.5 -159t-25.5 -159.5t-72 -119t-110.5 -74t-140 -25.5zM632 365q0 82 -18.5 143t-51 102t-77.5 61.5t-97 20.5q-53 0 -97.5 -20.5
t-76.5 -61.5t-50.5 -102t-18.5 -143t18.5 -143.5t50.5 -102.5t76.5 -61.5t97.5 -20.5q52 0 97 20.5t77.5 61.5t51 102.5t18.5 143.5zM324 773h-60l114 117h123zM491 773h-60l114 117h123z" />
    <glyph glyph-name="Omacron" unicode="&#x14c;" horiz-adv-x="777" 
d="M387 -13q-79 0 -143 27t-109 76.5t-69 119.5t-24 155t25.5 154.5t71.5 119t109.5 76.5t140.5 27q76 0 140 -25.5t109.5 -74t71 -118.5t25.5 -159t-25.5 -159.5t-72 -119t-110.5 -74t-140 -25.5zM632 365q0 82 -18.5 143t-51 102t-77.5 61.5t-97 20.5q-53 0 -97.5 -20.5
t-76.5 -61.5t-50.5 -102t-18.5 -143t18.5 -143.5t50.5 -102.5t76.5 -61.5t97.5 -20.5q52 0 97 20.5t77.5 61.5t51 102.5t18.5 143.5zM227 798v67h311v-67h-311z" />
    <glyph glyph-name="uni1ECC" unicode="&#x1ecc;" horiz-adv-x="777" 
d="M343 -54h86v-119h-86v119zM387 -13q-79 0 -143 27t-109 76.5t-69 119.5t-24 155t25.5 154.5t71.5 119t109.5 76.5t140.5 27q76 0 140 -25.5t109.5 -74t71 -118.5t25.5 -159t-25.5 -159.5t-72 -119t-110.5 -74t-140 -25.5zM632 365q0 82 -18.5 143t-51 102t-77.5 61.5
t-97 20.5q-53 0 -97.5 -20.5t-76.5 -61.5t-50.5 -102t-18.5 -143t18.5 -143.5t50.5 -102.5t76.5 -61.5t97.5 -20.5q52 0 97 20.5t77.5 61.5t51 102.5t18.5 143.5z" />
    <glyph glyph-name="Racute" unicode="&#x154;" horiz-adv-x="703" 
d="M54 725h108h43t41.5 0.5t35 0.5h24.5q67 0 123.5 -9.5t97 -32.5t63 -60.5t22.5 -93.5q0 -78 -41 -123.5t-113 -66.5l151 -252q16 -27 29.5 -39.5t40.5 -13.5l28 -1v-34h-156l-49 87l-138 236q-14 -1 -28.5 -1.5t-29.5 -0.5h-75v-259q0 -13 6.5 -17.5t21.5 -5.5l70 -4v-35
h-275v34l57 4q16 1 22 5.5t6 17.5v603q0 13 -6 17.5t-22 5.5l-57 4v34zM231 679v-311h91q90 0 141 37.5t51 119.5t-51 118t-141 36h-91zM361 773h-60l114 117h123z" />
    <glyph glyph-name="Rcaron" unicode="&#x158;" horiz-adv-x="703" 
d="M54 725h108h43t41.5 0.5t35 0.5h24.5q67 0 123.5 -9.5t97 -32.5t63 -60.5t22.5 -93.5q0 -78 -41 -123.5t-113 -66.5l151 -252q16 -27 29.5 -39.5t40.5 -13.5l28 -1v-34h-156l-49 87l-138 236q-14 -1 -28.5 -1.5t-29.5 -0.5h-75v-259q0 -13 6.5 -17.5t21.5 -5.5l70 -4v-35
h-275v34l57 4q16 1 22 5.5t6 17.5v603q0 13 -6 17.5t-22 5.5l-57 4v34zM231 679v-311h91q90 0 141 37.5t51 119.5t-51 118t-141 36h-91zM180 890h66l103 -58l105 58h66l-140 -117h-65z" />
    <glyph glyph-name="Rcommaaccent" unicode="&#x156;" horiz-adv-x="703" 
d="M54 725h108h43t41.5 0.5t35 0.5h24.5q67 0 123.5 -9.5t97 -32.5t63 -60.5t22.5 -93.5q0 -78 -41 -123.5t-113 -66.5l151 -252q16 -27 29.5 -39.5t40.5 -13.5l28 -1v-34h-156l-49 87l-138 236q-14 -1 -28.5 -1.5t-29.5 -0.5h-75v-259q0 -13 6.5 -17.5t21.5 -5.5l70 -4v-35
h-275v34l57 4q16 1 22 5.5t6 17.5v603q0 13 -6 17.5t-22 5.5l-57 4v34zM231 679v-311h91q90 0 141 37.5t51 119.5t-51 118t-141 36h-91zM329 -37h99v-98l-46 -93h-56l40 99h-37v92z" />
    <glyph glyph-name="Sacute" unicode="&#x15a;" horiz-adv-x="633" 
d="M485 538q-5 35 -20.5 63.5t-40.5 49t-58 31.5t-71 11q-78 0 -122.5 -35.5t-44.5 -95.5q0 -32 14 -54t36.5 -38t51.5 -26.5t59 -18.5l61 -17q57 -15 103.5 -31.5t80 -39.5t51.5 -57t18 -83q0 -55 -22.5 -94.5t-61 -65t-88.5 -38t-105 -12.5q-126 0 -205 58.5t-95 173.5h96
q5 -38 20 -71.5t40.5 -58t62 -39t85.5 -14.5q31 0 64.5 7t60.5 23.5t44.5 42.5t17.5 65q0 36 -14.5 60t-39.5 40.5t-57 27t-68 19.5l-73 20q-42 11 -81.5 27.5t-70 40.5t-49 58.5t-18.5 81.5q0 48 21.5 84.5t57 60.5t81.5 36t94 12t94.5 -12.5t84.5 -37.5t64 -63.5t33 -90.5
h-91zM324 773h-60l114 117h123z" />
    <glyph glyph-name="Scaron" unicode="&#x160;" horiz-adv-x="633" 
d="M485 538q-5 35 -20.5 63.5t-40.5 49t-58 31.5t-71 11q-78 0 -122.5 -35.5t-44.5 -95.5q0 -32 14 -54t36.5 -38t51.5 -26.5t59 -18.5l61 -17q57 -15 103.5 -31.5t80 -39.5t51.5 -57t18 -83q0 -55 -22.5 -94.5t-61 -65t-88.5 -38t-105 -12.5q-126 0 -205 58.5t-95 173.5h96
q5 -38 20 -71.5t40.5 -58t62 -39t85.5 -14.5q31 0 64.5 7t60.5 23.5t44.5 42.5t17.5 65q0 36 -14.5 60t-39.5 40.5t-57 27t-68 19.5l-73 20q-42 11 -81.5 27.5t-70 40.5t-49 58.5t-18.5 81.5q0 48 21.5 84.5t57 60.5t81.5 36t94 12t94.5 -12.5t84.5 -37.5t64 -63.5t33 -90.5
h-91zM133 890h66l103 -58l105 58h66l-140 -117h-65z" />
    <glyph glyph-name="Scedilla" unicode="&#x15e;" horiz-adv-x="633" 
d="M485 538q-5 35 -20.5 63.5t-40.5 49t-58 31.5t-71 11q-78 0 -122.5 -35.5t-44.5 -95.5q0 -32 14 -54t36.5 -38t51.5 -26.5t59 -18.5l61 -17q57 -15 103.5 -31.5t80 -39.5t51.5 -57t18 -83q0 -55 -22.5 -94.5t-61 -65t-88.5 -38t-105 -12.5q-126 0 -205 58.5t-95 173.5h96
q5 -38 20 -71.5t40.5 -58t62 -39t85.5 -14.5q31 0 64.5 7t60.5 23.5t44.5 42.5t17.5 65q0 36 -14.5 60t-39.5 40.5t-57 27t-68 19.5l-73 20q-42 11 -81.5 27.5t-70 40.5t-49 58.5t-18.5 81.5q0 48 21.5 84.5t57 60.5t81.5 36t94 12t94.5 -12.5t84.5 -37.5t64 -63.5t33 -90.5
h-91zM287 3h48l-37 -53q48 9 78 -13t30 -64q0 -21 -9.5 -37.5t-25 -28.5t-36.5 -18.5t-44 -6.5q-24 0 -42.5 3.5t-43.5 14.5l15 36q12 -7 28 -10t33 -3q25 0 42.5 10t17.5 35q0 20 -14.5 29t-30.5 9q-28 0 -45 -10l-21 19z" />
    <glyph glyph-name="Scircumflex" unicode="&#x15c;" horiz-adv-x="633" 
d="M485 538q-5 35 -20.5 63.5t-40.5 49t-58 31.5t-71 11q-78 0 -122.5 -35.5t-44.5 -95.5q0 -32 14 -54t36.5 -38t51.5 -26.5t59 -18.5l61 -17q57 -15 103.5 -31.5t80 -39.5t51.5 -57t18 -83q0 -55 -22.5 -94.5t-61 -65t-88.5 -38t-105 -12.5q-126 0 -205 58.5t-95 173.5h96
q5 -38 20 -71.5t40.5 -58t62 -39t85.5 -14.5q31 0 64.5 7t60.5 23.5t44.5 42.5t17.5 65q0 36 -14.5 60t-39.5 40.5t-57 27t-68 19.5l-73 20q-42 11 -81.5 27.5t-70 40.5t-49 58.5t-18.5 81.5q0 48 21.5 84.5t57 60.5t81.5 36t94 12t94.5 -12.5t84.5 -37.5t64 -63.5t33 -90.5
h-91zM483 773h-66l-104 58l-104 -58h-66l139 117h64z" />
    <glyph glyph-name="Scommaaccent" unicode="&#x218;" horiz-adv-x="633" 
d="M485 538q-5 35 -20.5 63.5t-40.5 49t-58 31.5t-71 11q-78 0 -122.5 -35.5t-44.5 -95.5q0 -32 14 -54t36.5 -38t51.5 -26.5t59 -18.5l61 -17q57 -15 103.5 -31.5t80 -39.5t51.5 -57t18 -83q0 -55 -22.5 -94.5t-61 -65t-88.5 -38t-105 -12.5q-126 0 -205 58.5t-95 173.5h96
q5 -38 20 -71.5t40.5 -58t62 -39t85.5 -14.5q31 0 64.5 7t60.5 23.5t44.5 42.5t17.5 65q0 36 -14.5 60t-39.5 40.5t-57 27t-68 19.5l-73 20q-42 11 -81.5 27.5t-70 40.5t-49 58.5t-18.5 81.5q0 48 21.5 84.5t57 60.5t81.5 36t94 12t94.5 -12.5t84.5 -37.5t64 -63.5t33 -90.5
h-91zM274 -37h99v-98l-46 -93h-56l40 99h-37v92z" />
    <glyph glyph-name="Tbar" unicode="&#x166;" horiz-adv-x="668" 
d="M638 725v-210h-34l-17 99q-5 25 -11 38.5t-18.5 20t-33 8t-53.5 1.5h-91v-269h163v-54h-163v-297q0 -13 6.5 -17.5t22.5 -5.5l90 -4v-35h-330v35l90 4q16 1 22.5 5.5t6.5 17.5v297h-164v54h164v269h-91q-33 0 -53.5 -1.5t-33 -8t-19 -20t-10.5 -38.5l-17 -99h-34v210h608
z" />
    <glyph glyph-name="Tcaron" unicode="&#x164;" horiz-adv-x="668" 
d="M638 725v-210h-34l-17 99q-5 25 -11 38.5t-18.5 20t-33 8t-53.5 1.5h-91v-620q0 -13 6.5 -17.5t22.5 -5.5l90 -4v-35h-330v35l90 4q16 1 22.5 5.5t6.5 17.5v620h-91q-33 0 -53.5 -1.5t-33 -8t-19 -20t-10.5 -38.5l-17 -99h-34v210h608zM163 890h66l103 -58l105 58h66
l-140 -117h-65z" />
    <glyph glyph-name="uni0162" unicode="&#x162;" horiz-adv-x="668" 
d="M638 725v-210h-34l-17 99q-5 25 -11 38.5t-18.5 20t-33 8t-53.5 1.5h-91v-620q0 -13 6.5 -17.5t22.5 -5.5l90 -4v-35h-330v35l90 4q16 1 22.5 5.5t6.5 17.5v620h-91q-33 0 -53.5 -1.5t-33 -8t-19 -20t-10.5 -38.5l-17 -99h-34v210h608zM283 -37h99v-98l-46 -93h-56l40 99
h-37v92z" />
    <glyph glyph-name="Tcommaaccent" unicode="&#x21a;" horiz-adv-x="668" 
d="M638 725v-210h-34l-17 99q-5 25 -11 38.5t-18.5 20t-33 8t-53.5 1.5h-91v-620q0 -13 6.5 -17.5t22.5 -5.5l90 -4v-35h-330v35l90 4q16 1 22.5 5.5t6.5 17.5v620h-91q-33 0 -53.5 -1.5t-33 -8t-19 -20t-10.5 -38.5l-17 -99h-34v210h608zM283 -37h99v-98l-46 -93h-56l40 99
h-37v92z" />
    <glyph glyph-name="Ubreve" unicode="&#x16c;" horiz-adv-x="795" 
d="M412 -13q-86 0 -142.5 21t-90 59t-47 90.5t-13.5 114.5v392q0 13 -6 17.5t-22 5.5l-57 4v34h262v-34l-57 -4q-15 -1 -21.5 -5.5t-6.5 -17.5v-380q0 -55 11.5 -98.5t36 -73.5t64 -46t95.5 -16q113 0 163 60t50 183v346q0 15 -1.5 24.5t-6.5 15t-14.5 7.5t-25.5 3l-38 2v34
h230v-34l-36 -2q-16 -1 -25.5 -3t-15 -7.5t-7 -15t-1.5 -24.5v-346q0 -68 -13.5 -124t-45.5 -96.5t-85.5 -63t-133.5 -22.5zM578 890q-6 -54 -45 -88t-119 -34q-77 0 -116 34.5t-46 87.5h66q4 -32 32 -49.5t65 -17.5t65 18t33 49h65z" />
    <glyph glyph-name="Uhungarumlaut" unicode="&#x170;" horiz-adv-x="795" 
d="M412 -13q-86 0 -142.5 21t-90 59t-47 90.5t-13.5 114.5v392q0 13 -6 17.5t-22 5.5l-57 4v34h262v-34l-57 -4q-15 -1 -21.5 -5.5t-6.5 -17.5v-380q0 -55 11.5 -98.5t36 -73.5t64 -46t95.5 -16q113 0 163 60t50 183v346q0 15 -1.5 24.5t-6.5 15t-14.5 7.5t-25.5 3l-38 2v34
h230v-34l-36 -2q-16 -1 -25.5 -3t-15 -7.5t-7 -15t-1.5 -24.5v-346q0 -68 -13.5 -124t-45.5 -96.5t-85.5 -63t-133.5 -22.5zM368 773h-60l114 117h123zM535 773h-60l114 117h123z" />
    <glyph glyph-name="Umacron" unicode="&#x16a;" horiz-adv-x="795" 
d="M412 -13q-86 0 -142.5 21t-90 59t-47 90.5t-13.5 114.5v392q0 13 -6 17.5t-22 5.5l-57 4v34h262v-34l-57 -4q-15 -1 -21.5 -5.5t-6.5 -17.5v-380q0 -55 11.5 -98.5t36 -73.5t64 -46t95.5 -16q113 0 163 60t50 183v346q0 15 -1.5 24.5t-6.5 15t-14.5 7.5t-25.5 3l-38 2v34
h230v-34l-36 -2q-16 -1 -25.5 -3t-15 -7.5t-7 -15t-1.5 -24.5v-346q0 -68 -13.5 -124t-45.5 -96.5t-85.5 -63t-133.5 -22.5zM268 798v67h311v-67h-311z" />
    <glyph glyph-name="Uogonek" unicode="&#x172;" horiz-adv-x="795" 
d="M690 293q0 -64 -12 -117.5t-39.5 -93t-73.5 -64t-114 -29.5q-31 -17 -51.5 -37.5t-20.5 -43.5q0 -29 22.5 -40.5t48.5 -11.5q31 0 51 9v-44q-13 -6 -33 -9t-43 -3q-21 0 -43.5 4.5t-41.5 14.5t-31 27t-12 43t22 49.5t57 40.5q-75 4 -124.5 27t-79 60.5t-41.5 87.5
t-12 109v392q0 13 -6 17.5t-22 5.5l-57 4v34h262v-34l-57 -4q-15 -1 -21.5 -5.5t-6.5 -17.5v-380q0 -55 11.5 -98.5t36 -73.5t64 -46t95.5 -16q113 0 163 60t50 183v346q0 15 -1.5 24.5t-6.5 15t-14.5 7.5t-25.5 3l-38 2v34h230v-34l-36 -2q-16 -1 -25.5 -3t-15 -7.5t-7 -15
t-1.5 -24.5v-346v0z" />
    <glyph glyph-name="Uring" unicode="&#x16e;" horiz-adv-x="795" 
d="M412 -13q-86 0 -142.5 21t-90 59t-47 90.5t-13.5 114.5v392q0 13 -6 17.5t-22 5.5l-57 4v34h262v-34l-57 -4q-15 -1 -21.5 -5.5t-6.5 -17.5v-380q0 -55 11.5 -98.5t36 -73.5t64 -46t95.5 -16q113 0 163 60t50 183v346q0 15 -1.5 24.5t-6.5 15t-14.5 7.5t-25.5 3l-38 2v34
h230v-34l-36 -2q-16 -1 -25.5 -3t-15 -7.5t-7 -15t-1.5 -24.5v-346q0 -68 -13.5 -124t-45.5 -96.5t-85.5 -63t-133.5 -22.5zM419 943q19 0 36 -6.5t29.5 -18t20 -27.5t7.5 -35q0 -38 -27 -63t-66 -25q-40 0 -67 25t-27 63q0 19 7.5 35t20.5 27.5t30 18t36 6.5zM419 900
q-18 0 -31.5 -12.5t-13.5 -31.5q0 -20 13.5 -32t31.5 -12q17 0 30.5 12t13.5 32q0 19 -13.5 31.5t-30.5 12.5z" />
    <glyph glyph-name="Utilde" unicode="&#x168;" horiz-adv-x="795" 
d="M412 -13q-86 0 -142.5 21t-90 59t-47 90.5t-13.5 114.5v392q0 13 -6 17.5t-22 5.5l-57 4v34h262v-34l-57 -4q-15 -1 -21.5 -5.5t-6.5 -17.5v-380q0 -55 11.5 -98.5t36 -73.5t64 -46t95.5 -16q113 0 163 60t50 183v346q0 15 -1.5 24.5t-6.5 15t-14.5 7.5t-25.5 3l-38 2v34
h230v-34l-36 -2q-16 -1 -25.5 -3t-15 -7.5t-7 -15t-1.5 -24.5v-346q0 -68 -13.5 -124t-45.5 -96.5t-85.5 -63t-133.5 -22.5zM492 836q25 0 38 13.5t18 38.5h61q-10 -52 -39 -82.5t-73 -30.5q-23 0 -43 8.5t-38 18t-33.5 18t-30.5 8.5q-24 0 -36 -14t-19 -39h-60
q8 56 40 84.5t74 28.5q23 0 42.5 -8t36.5 -18t32 -18t30 -8z" />
    <glyph glyph-name="uni1EE4" unicode="&#x1ee4;" horiz-adv-x="795" 
d="M367 -54h86v-119h-86v119zM412 -13q-86 0 -142.5 21t-90 59t-47 90.5t-13.5 114.5v392q0 13 -6 17.5t-22 5.5l-57 4v34h262v-34l-57 -4q-15 -1 -21.5 -5.5t-6.5 -17.5v-380q0 -55 11.5 -98.5t36 -73.5t64 -46t95.5 -16q113 0 163 60t50 183v346q0 15 -1.5 24.5t-6.5 15
t-14.5 7.5t-25.5 3l-38 2v34h230v-34l-36 -2q-16 -1 -25.5 -3t-15 -7.5t-7 -15t-1.5 -24.5v-346q0 -68 -13.5 -124t-45.5 -96.5t-85.5 -63t-133.5 -22.5z" />
    <glyph glyph-name="Wacute" unicode="&#x1e82;" horiz-adv-x="1008" 
d="M721 100l132 502q8 28 11.5 45t0.5 26t-13 12t-29 4l-40 2v34h237v-34l-23 -1q-18 -1 -30.5 -4.5t-22 -15t-18 -32.5t-18.5 -56l-161 -582h-80l-165 597l-160 -597h-80l-186 639q-4 14 -8.5 23.5t-11.5 15.5t-18 8.5t-28 3.5l-22 1v34h276v-34l-46 -3q-19 -1 -29.5 -3.5
t-14.5 -8t-2.5 -15.5t5.5 -26l139 -535l163 625h81zM552 773h-60l114 117h123z" />
    <glyph glyph-name="Wcircumflex" unicode="&#x174;" horiz-adv-x="1008" 
d="M721 100l132 502q8 28 11.5 45t0.5 26t-13 12t-29 4l-40 2v34h237v-34l-23 -1q-18 -1 -30.5 -4.5t-22 -15t-18 -32.5t-18.5 -56l-161 -582h-80l-165 597l-160 -597h-80l-186 639q-4 14 -8.5 23.5t-11.5 15.5t-18 8.5t-28 3.5l-22 1v34h276v-34l-46 -3q-19 -1 -29.5 -3.5
t-14.5 -8t-2.5 -15.5t5.5 -26l139 -535l163 625h81zM688 773h-66l-104 58l-104 -58h-66l139 117h64z" />
    <glyph glyph-name="Wdieresis" unicode="&#x1e84;" horiz-adv-x="1008" 
d="M721 100l132 502q8 28 11.5 45t0.5 26t-13 12t-29 4l-40 2v34h237v-34l-23 -1q-18 -1 -30.5 -4.5t-22 -15t-18 -32.5t-18.5 -56l-161 -582h-80l-165 597l-160 -597h-80l-186 639q-4 14 -8.5 23.5t-11.5 15.5t-18 8.5t-28 3.5l-22 1v34h276v-34l-46 -3q-19 -1 -29.5 -3.5
t-14.5 -8t-2.5 -15.5t5.5 -26l139 -535l163 625h81zM360 890h86v-117h-86v117zM583 890h86v-117h-86v117z" />
    <glyph glyph-name="Wgrave" unicode="&#x1e80;" horiz-adv-x="1008" 
d="M721 100l132 502q8 28 11.5 45t0.5 26t-13 12t-29 4l-40 2v34h237v-34l-23 -1q-18 -1 -30.5 -4.5t-22 -15t-18 -32.5t-18.5 -56l-161 -582h-80l-165 597l-160 -597h-80l-186 639q-4 14 -8.5 23.5t-11.5 15.5t-18 8.5t-28 3.5l-22 1v34h276v-34l-46 -3q-19 -1 -29.5 -3.5
t-14.5 -8t-2.5 -15.5t5.5 -26l139 -535l163 625h81zM314 890h123l114 -117h-60z" />
    <glyph glyph-name="Ycircumflex" unicode="&#x176;" horiz-adv-x="673" 
d="M289 281l-206 363q-7 13 -12.5 21t-12.5 13t-17.5 7.5t-26.5 3.5l-22 2v34h283v-34l-66 -4q-17 -1 -24.5 -10.5t6.5 -35.5l164 -303l169 295q9 16 11.5 26.5t-0.5 16.5t-10 8.5t-15 2.5l-66 4v34h237v-34l-24 -2q-14 -1 -23.5 -3.5t-17 -9t-15 -17.5t-17.5 -28l-203 -335
v-234q0 -13 6 -17.5t22 -5.5l91 -4v-35h-330v35l91 4q15 1 21.5 5.5t6.5 17.5v219zM531 773h-66l-104 58l-104 -58h-66l139 117h64z" />
    <glyph glyph-name="Ydieresis" unicode="&#x178;" horiz-adv-x="673" 
d="M289 281l-206 363q-7 13 -12.5 21t-12.5 13t-17.5 7.5t-26.5 3.5l-22 2v34h283v-34l-66 -4q-17 -1 -24.5 -10.5t6.5 -35.5l164 -303l169 295q9 16 11.5 26.5t-0.5 16.5t-10 8.5t-15 2.5l-66 4v34h237v-34l-24 -2q-14 -1 -23.5 -3.5t-17 -9t-15 -17.5t-17.5 -28l-203 -335
v-234q0 -13 6 -17.5t22 -5.5l91 -4v-35h-330v35l91 4q15 1 21.5 5.5t6.5 17.5v219zM204 890h86v-117h-86v117zM427 890h86v-117h-86v117z" />
    <glyph glyph-name="Ygrave" unicode="&#x1ef2;" horiz-adv-x="673" 
d="M289 281l-206 363q-7 13 -12.5 21t-12.5 13t-17.5 7.5t-26.5 3.5l-22 2v34h283v-34l-66 -4q-17 -1 -24.5 -10.5t6.5 -35.5l164 -303l169 295q9 16 11.5 26.5t-0.5 16.5t-10 8.5t-15 2.5l-66 4v34h237v-34l-24 -2q-14 -1 -23.5 -3.5t-17 -9t-15 -17.5t-17.5 -28l-203 -335
v-234q0 -13 6 -17.5t22 -5.5l91 -4v-35h-330v35l91 4q15 1 21.5 5.5t6.5 17.5v219zM155 890h123l114 -117h-60z" />
    <glyph glyph-name="uni0232" unicode="&#x232;" horiz-adv-x="673" 
d="M289 281l-206 363q-7 13 -12.5 21t-12.5 13t-17.5 7.5t-26.5 3.5l-22 2v34h283v-34l-66 -4q-17 -1 -24.5 -10.5t6.5 -35.5l164 -303l169 295q9 16 11.5 26.5t-0.5 16.5t-10 8.5t-15 2.5l-66 4v34h237v-34l-24 -2q-14 -1 -23.5 -3.5t-17 -9t-15 -17.5t-17.5 -28l-203 -335
v-234q0 -13 6 -17.5t22 -5.5l91 -4v-35h-330v35l91 4q15 1 21.5 5.5t6.5 17.5v219zM206 798v67h311v-67h-311z" />
    <glyph glyph-name="Zacute" unicode="&#x179;" horiz-adv-x="692" 
d="M247 678q-33 0 -53.5 -1.5t-33 -8t-19 -20.5t-10.5 -39l-17 -98h-34v214h558v-46l-494 -632h319q33 0 53.5 1.5t33 8t18.5 20.5t11 39l17 98h34v-214h-594v47l492 631h-281v0zM381 773h-60l114 117h123z" />
    <glyph glyph-name="Zcaron" unicode="&#x17d;" horiz-adv-x="692" 
d="M247 678q-33 0 -53.5 -1.5t-33 -8t-19 -20.5t-10.5 -39l-17 -98h-34v214h558v-46l-494 -632h319q33 0 53.5 1.5t33 8t18.5 20.5t11 39l17 98h34v-214h-594v47l492 631h-281v0zM200 890h66l103 -58l105 58h66l-140 -117h-65z" />
    <glyph glyph-name="Zdotaccent" unicode="&#x17b;" horiz-adv-x="692" 
d="M247 678q-33 0 -53.5 -1.5t-33 -8t-19 -20.5t-10.5 -39l-17 -98h-34v214h558v-46l-494 -632h319q33 0 53.5 1.5t33 8t18.5 20.5t11 39l17 98h34v-214h-594v47l492 631h-281v0zM314 890h86v-117h-86v117z" />
    <glyph glyph-name="uni018F" unicode="&#x18f;" horiz-adv-x="745" 
d="M358 -12q-62 0 -110.5 17t-84 45.5t-60 66t-38.5 77.5t-19.5 80.5t-2.5 75.5h558v14q0 81 -17.5 142t-48.5 102.5t-74.5 62.5t-94.5 21q-192 0 -222 -185l-95 1q10 58 39 102t71 73t94.5 44t111.5 15q81 0 144 -27.5t106 -77.5t65.5 -119.5t22.5 -153.5q0 -86 -25.5 -155
t-71.5 -118.5t-109.5 -76t-138.5 -26.5zM357 38q45 0 85 16t72 48t53.5 80.5t29.5 113.5h-449q0 -41 10.5 -86.5t35 -83.5t64.5 -63t99 -25z" />
    <glyph glyph-name="abreve" unicode="&#x103;" horiz-adv-x="592" 
d="M408 270q-52 -5 -98.5 -12t-81.5 -21t-55.5 -38t-20.5 -63q0 -40 28.5 -68t80.5 -28q31 0 58 11t46.5 35t31 61.5t11.5 89.5v33zM405 374q0 72 -30.5 99.5t-88.5 27.5q-35 0 -58 -10t-37 -26.5t-20.5 -38.5t-8.5 -45h-87q3 38 19.5 68.5t45 52.5t66.5 33.5t83 11.5
q104 0 155.5 -41t50.5 -138q0 -26 -0.5 -48.5t-1 -42.5t-1 -39.5t-0.5 -40.5v-36v-31t0.5 -31t1.5 -35q1 -14 5.5 -17.5t20.5 -5.5l43 -4v-33l-144 -8l-4 101h-2q-23 -47 -67 -78.5t-118 -31.5q-36 0 -66.5 10.5t-53.5 29.5t-36 46t-13 60q0 48 26.5 78.5t73 50.5t110 31.5
t136.5 20.5v60zM201 745q8 -91 84 -91q38 0 60.5 23t26.5 68h64q-5 -63 -42.5 -103.5t-109.5 -40.5q-69 0 -105.5 40.5t-41.5 103.5h64v0z" />
    <glyph glyph-name="amacron" unicode="&#x101;" horiz-adv-x="592" 
d="M408 270q-52 -5 -98.5 -12t-81.5 -21t-55.5 -38t-20.5 -63q0 -40 28.5 -68t80.5 -28q31 0 58 11t46.5 35t31 61.5t11.5 89.5v33zM405 374q0 72 -30.5 99.5t-88.5 27.5q-35 0 -58 -10t-37 -26.5t-20.5 -38.5t-8.5 -45h-87q3 38 19.5 68.5t45 52.5t66.5 33.5t83 11.5
q104 0 155.5 -41t50.5 -138q0 -26 -0.5 -48.5t-1 -42.5t-1 -39.5t-0.5 -40.5v-36v-31t0.5 -31t1.5 -35q1 -14 5.5 -17.5t20.5 -5.5l43 -4v-33l-144 -8l-4 101h-2q-23 -47 -67 -78.5t-118 -31.5q-36 0 -66.5 10.5t-53.5 29.5t-36 46t-13 60q0 48 26.5 78.5t73 50.5t110 31.5
t136.5 20.5v60zM157 635v67h266v-67h-266z" />
    <glyph glyph-name="aogonek" unicode="&#x105;" horiz-adv-x="590" 
d="M59 149q0 41 17.5 70t48.5 48q36 23 86.5 35t106.5 18l87 8v47q0 72 -30.5 99t-88.5 27q-35 0 -58 -10t-37 -26.5t-20.5 -38t-8.5 -44.5h-87q3 38 19.5 68.5t45 52t66.5 33t83 11.5q104 0 155.5 -40.5t50.5 -137.5q0 -26 -1 -47.5t-1.5 -40.5t-1 -37.5t-0.5 -39.5v-37
t0.5 -33.5t1 -33.5t1.5 -36q1 -14 5.5 -17.5t20.5 -5.5l41 -4v-33l-49 -3q-34 -19 -55.5 -44t-21.5 -49q0 -29 22.5 -40.5t48.5 -11.5q31 0 51 9v-44q-14 -6 -34 -9t-43 -3q-21 0 -43 4.5t-41 14.5t-31 27t-12 43q0 31 20 54.5t50 44.5l-8 100h-2q-27 -54 -71.5 -82
t-106.5 -28q-44 0 -77 13.5t-55 36t-33 51.5t-11 61zM409 286l-88 -9q-39 -4 -70 -12t-53 -23t-34 -38t-12 -57q0 -21 7 -40t21 -34t35 -24t48 -9q22 0 48 9t47.5 31.5t36 61.5t14.5 98v46z" />
    <glyph glyph-name="cacute" unicode="&#x107;" horiz-adv-x="580" 
d="M50 267q0 60 17.5 111.5t50.5 88.5t79 58t103 21q43 0 81.5 -11.5t69 -34t51.5 -56t28 -78.5h-87q-7 63 -42.5 97t-99.5 34q-46 0 -76.5 -21t-48.5 -54t-25.5 -74t-7.5 -81t7.5 -81t25.5 -74.5t48.5 -54.5t76.5 -21q64 0 100 34t43 97h88q-8 -46 -29 -79.5t-52 -56
t-69.5 -33.5t-81.5 -11q-57 0 -103 21t-79 58.5t-50.5 89t-17.5 111.5zM321 603h-35l83 142h131z" />
    <glyph glyph-name="ccaron" unicode="&#x10d;" horiz-adv-x="580" 
d="M50 267q0 60 17.5 111.5t50.5 88.5t79 58t103 21q43 0 81.5 -11.5t69 -34t51.5 -56t28 -78.5h-87q-7 63 -42.5 97t-99.5 34q-46 0 -76.5 -21t-48.5 -54t-25.5 -74t-7.5 -81t7.5 -81t25.5 -74.5t48.5 -54.5t76.5 -21q64 0 100 34t43 97h88q-8 -46 -29 -79.5t-52 -56
t-69.5 -33.5t-81.5 -11q-57 0 -103 21t-79 58.5t-50.5 89t-17.5 111.5zM141 745h60l103 -73l102 73h60l-140 -142h-47z" />
    <glyph glyph-name="ccircumflex" unicode="&#x109;" horiz-adv-x="580" 
d="M50 267q0 60 17.5 111.5t50.5 88.5t79 58t103 21q43 0 81.5 -11.5t69 -34t51.5 -56t28 -78.5h-87q-7 63 -42.5 97t-99.5 34q-46 0 -76.5 -21t-48.5 -54t-25.5 -74t-7.5 -81t7.5 -81t25.5 -74.5t48.5 -54.5t76.5 -21q64 0 100 34t43 97h88q-8 -46 -29 -79.5t-52 -56
t-69.5 -33.5t-81.5 -11q-57 0 -103 21t-79 58.5t-50.5 89t-17.5 111.5zM468 603h-60l-101 73l-104 -73h-60l141 142h47z" />
    <glyph glyph-name="cdotaccent" unicode="&#x10b;" horiz-adv-x="580" 
d="M50 267q0 60 17.5 111.5t50.5 88.5t79 58t103 21q43 0 81.5 -11.5t69 -34t51.5 -56t28 -78.5h-87q-7 63 -42.5 97t-99.5 34q-46 0 -76.5 -21t-48.5 -54t-25.5 -74t-7.5 -81t7.5 -81t25.5 -74.5t48.5 -54.5t76.5 -21q64 0 100 34t43 97h88q-8 -46 -29 -79.5t-52 -56
t-69.5 -33.5t-81.5 -11q-57 0 -103 21t-79 58.5t-50.5 89t-17.5 111.5zM260 745h86v-119h-86v119z" />
    <glyph glyph-name="dcaron" unicode="&#x10f;" horiz-adv-x="721" 
d="M613 745h93v-99l-58 -125h-31l36 131h-40v93zM447 267q0 63 -12 106.5t-32 70t-47 38t-58 11.5q-33 0 -61 -15t-49 -43.5t-33 -71t-12 -96.5q0 -55 12 -97t33 -71t48.5 -44t58.5 -15q27 0 54 12t48.5 39t35.5 70.5t14 105.5zM527 745l-1 -100v-581q0 -14 6.5 -17.5
t21.5 -5.5l42 -4v-33l-147 -8l-4 102h-2q-25 -47 -67 -79t-107 -32q-47 0 -87 20.5t-69.5 57.5t-46 88.5t-16.5 113.5q0 63 18.5 115t50.5 88.5t74.5 56.5t90.5 20q29 0 53.5 -8.5t44 -22t34.5 -31t24 -35.5h2q-2 43 -2 61v23v150q0 14 -6.5 17t-22.5 5l-52 5v34h168z" />
    <glyph glyph-name="dcroat" unicode="&#x111;" horiz-adv-x="653" 
d="M527 745l-1 -100v-16h103v-51h-103v-514q0 -14 6.5 -17.5t21.5 -5.5l42 -4v-33l-147 -8l-4 102h-2q-25 -47 -67 -79t-107 -32q-47 0 -87 20.5t-69.5 57.5t-46 88.5t-16.5 113.5q0 63 18.5 115t50.5 88.5t74.5 56.5t90.5 20q29 0 53.5 -8.5t44 -22t34.5 -31t24 -35.5h2
q-2 43 -2 61v23v44h-128v51h128v55q0 14 -6.5 17t-22.5 5l-52 5v34h168zM447 267q0 63 -12 106.5t-32 70t-47 38t-58 11.5q-33 0 -61 -15t-49 -43.5t-33 -71t-12 -96.5q0 -55 12 -97t33 -71t48.5 -44t58.5 -15q27 0 54 12t48.5 39t35.5 70.5t14 105.5z" />
    <glyph glyph-name="ebreve" unicode="&#x115;" horiz-adv-x="589" 
d="M307 36q61 0 98.5 34t44.5 97h87q-8 -45 -30 -79t-54 -56.5t-71 -33.5t-79 -11q-63 0 -110.5 22.5t-79 61t-47.5 89.5t-16 107q0 61 18.5 112.5t52 88.5t80 58t102.5 21q43 0 86.5 -16t77.5 -50t55.5 -88t21.5 -130h-403q1 -49 10.5 -90.5t29.5 -72t51 -47.5t75 -17z
M301 500q-31 0 -58.5 -12t-48.5 -35.5t-34.5 -59t-16.5 -82.5h308q-1 50 -13 85.5t-32.5 58.5t-47.5 34t-57 11zM225 745q8 -91 84 -91q38 0 60.5 23t26.5 68h64q-5 -63 -42.5 -103.5t-109.5 -40.5q-69 0 -105.5 40.5t-41.5 103.5h64v0z" />
    <glyph glyph-name="ecaron" unicode="&#x11b;" horiz-adv-x="589" 
d="M307 36q61 0 98.5 34t44.5 97h87q-8 -45 -30 -79t-54 -56.5t-71 -33.5t-79 -11q-63 0 -110.5 22.5t-79 61t-47.5 89.5t-16 107q0 61 18.5 112.5t52 88.5t80 58t102.5 21q43 0 86.5 -16t77.5 -50t55.5 -88t21.5 -130h-403q1 -49 10.5 -90.5t29.5 -72t51 -47.5t75 -17z
M301 500q-31 0 -58.5 -12t-48.5 -35.5t-34.5 -59t-16.5 -82.5h308q-1 50 -13 85.5t-32.5 58.5t-47.5 34t-57 11zM147 745h60l103 -73l102 73h60l-140 -142h-47z" />
    <glyph glyph-name="emacron" unicode="&#x113;" horiz-adv-x="589" 
d="M307 36q61 0 98.5 34t44.5 97h87q-8 -45 -30 -79t-54 -56.5t-71 -33.5t-79 -11q-63 0 -110.5 22.5t-79 61t-47.5 89.5t-16 107q0 61 18.5 112.5t52 88.5t80 58t102.5 21q43 0 86.5 -16t77.5 -50t55.5 -88t21.5 -130h-403q1 -49 10.5 -90.5t29.5 -72t51 -47.5t75 -17z
M301 500q-31 0 -58.5 -12t-48.5 -35.5t-34.5 -59t-16.5 -82.5h308q-1 50 -13 85.5t-32.5 58.5t-47.5 34t-57 11zM177 635v67h266v-67h-266z" />
    <glyph glyph-name="eogonek" unicode="&#x119;" horiz-adv-x="589" 
d="M307 36q61 0 98.5 34t44.5 97h87q-11 -66 -52 -107.5t-95 -62.5q-42 -17 -69.5 -40t-27.5 -49q0 -15 6.5 -25t16.5 -16t23 -8.5t25 -2.5q32 0 52 9v-44q-14 -6 -34 -9t-43 -3q-21 0 -43 4.5t-41 14.5t-31 27t-12 43q0 53 61 91q-56 5 -98 30t-69.5 63t-41.5 86.5
t-14 101.5q0 61 18.5 112t52 87.5t80 57t102.5 20.5q43 0 86.5 -15.5t77.5 -49t55.5 -87t21.5 -129.5h-403q1 -49 10.5 -91t29.5 -73t51 -48.5t75 -17.5zM301 500q-32 0 -59.5 -11.5t-48.5 -35t-34 -58.5t-16 -81h308q-1 50 -13 85t-32.5 57.5t-47.5 33t-57 10.5z" />
    <glyph glyph-name="edotaccent" unicode="&#x117;" horiz-adv-x="589" 
d="M307 36q61 0 98.5 34t44.5 97h87q-8 -45 -30 -79t-54 -56.5t-71 -33.5t-79 -11q-63 0 -110.5 22.5t-79 61t-47.5 89.5t-16 107q0 61 18.5 112.5t52 88.5t80 58t102.5 21q43 0 86.5 -16t77.5 -50t55.5 -88t21.5 -130h-403q1 -49 10.5 -90.5t29.5 -72t51 -47.5t75 -17z
M301 500q-31 0 -58.5 -12t-48.5 -35.5t-34.5 -59t-16.5 -82.5h308q-1 50 -13 85.5t-32.5 58.5t-47.5 34t-57 11zM267 745h86v-119h-86v119z" />
    <glyph glyph-name="gbreve" unicode="&#x11f;" horiz-adv-x="572" 
d="M429 487q20 -22 31.5 -52t11.5 -69t-13.5 -74t-40 -60.5t-64.5 -40.5t-87 -15q-14 0 -27 1.5t-27 3.5q-23 -4 -43.5 -14t-20.5 -32q0 -20 18.5 -30.5t70.5 -13.5l128 -8q53 -3 88 -13t56 -25.5t29.5 -35t8.5 -42.5q0 -30 -15.5 -60t-48.5 -53t-85.5 -37.5t-127.5 -14.5
q-54 0 -97.5 9.5t-74.5 26t-48 39.5t-17 51q0 20 10.5 35.5t28.5 27t41 19.5t48 13q-54 13 -72.5 37t-18.5 50q0 32 28.5 51.5t76.5 30.5q-51 20 -84.5 61.5t-33.5 104.5q0 49 17.5 84.5t47 58.5t68 34.5t80.5 11.5q53 0 97 -18l209 9v-51h-148zM271 222q53 0 85.5 37
t32.5 106q0 66 -32 101.5t-86 35.5q-57 0 -91.5 -34t-34.5 -109q0 -34 11 -59.5t28.5 -43t40 -26t46.5 -8.5zM193 17q-36 -11 -62 -30.5t-26 -48.5q0 -42 42 -63.5t132 -21.5q42 0 77.5 5.5t62 17t41 28t14.5 38.5q0 16 -5.5 27t-19.5 19t-37 12.5t-58 6.5l-128 7zM184 745
q8 -91 84 -91q38 0 60.5 23t26.5 68h64q-5 -63 -42.5 -103.5t-109.5 -40.5q-69 0 -105.5 40.5t-41.5 103.5h64v0z" />
    <glyph glyph-name="gcircumflex" unicode="&#x11d;" horiz-adv-x="574" 
d="M429 487q20 -22 31.5 -52t11.5 -69t-13.5 -74t-40 -60.5t-64.5 -40.5t-87 -15q-14 0 -27 1.5t-27 3.5q-23 -4 -43.5 -14t-20.5 -32q0 -20 18.5 -30.5t70.5 -13.5l128 -8q53 -3 88 -13t56 -25.5t29.5 -35t8.5 -42.5q0 -30 -15.5 -60t-48.5 -53t-85.5 -37.5t-127.5 -14.5
q-54 0 -97.5 9.5t-74.5 26t-48 39.5t-17 51q0 20 10.5 35.5t28.5 27t41 19.5t48 13q-54 13 -72.5 37t-18.5 50q0 32 28.5 51.5t76.5 30.5q-51 20 -84.5 61.5t-33.5 104.5q0 49 17.5 84.5t47 58.5t68 34.5t80.5 11.5q53 0 97 -18l209 9v-51h-148zM271 222q53 0 85.5 37
t32.5 106q0 66 -32 101.5t-86 35.5q-57 0 -91.5 -34t-34.5 -109q0 -34 11 -59.5t28.5 -43t40 -26t46.5 -8.5zM193 17q-36 -11 -62 -30.5t-26 -48.5q0 -42 42 -63.5t132 -21.5q42 0 77.5 5.5t62 17t41 28t14.5 38.5q0 16 -5.5 27t-19.5 19t-37 12.5t-58 6.5l-128 7zM432 603
h-60l-101 73l-104 -73h-60l141 142h47z" />
    <glyph glyph-name="gcommaaccent" unicode="&#x123;" horiz-adv-x="574" 
d="M315 621h-99v99l46 92h56l-41 -99h38v-92zM429 487q20 -22 31.5 -52t11.5 -69t-13.5 -74t-40 -60.5t-64.5 -40.5t-87 -15q-14 0 -27 1.5t-27 3.5q-23 -4 -43.5 -14t-20.5 -32q0 -20 18.5 -30.5t70.5 -13.5l128 -8q53 -3 88 -13t56 -25.5t29.5 -35t8.5 -42.5
q0 -30 -15.5 -60t-48.5 -53t-85.5 -37.5t-127.5 -14.5q-54 0 -97.5 9.5t-74.5 26t-48 39.5t-17 51q0 20 10.5 35.5t28.5 27t41 19.5t48 13q-54 13 -72.5 37t-18.5 50q0 32 28.5 51.5t76.5 30.5q-51 20 -84.5 61.5t-33.5 104.5q0 49 17.5 84.5t47 58.5t68 34.5t80.5 11.5
q53 0 97 -18l209 9v-51h-148zM271 222q53 0 85.5 37t32.5 106q0 66 -32 101.5t-86 35.5q-57 0 -91.5 -34t-34.5 -109q0 -34 11 -59.5t28.5 -43t40 -26t46.5 -8.5zM193 17q-36 -11 -62 -30.5t-26 -48.5q0 -42 42 -63.5t132 -21.5q42 0 77.5 5.5t62 17t41 28t14.5 38.5
q0 16 -5.5 27t-19.5 19t-37 12.5t-58 6.5l-128 7z" />
    <glyph glyph-name="gdotaccent" unicode="&#x121;" horiz-adv-x="574" 
d="M429 487q20 -22 31.5 -52t11.5 -69t-13.5 -74t-40 -60.5t-64.5 -40.5t-87 -15q-14 0 -27 1.5t-27 3.5q-23 -4 -43.5 -14t-20.5 -32q0 -20 18.5 -30.5t70.5 -13.5l128 -8q53 -3 88 -13t56 -25.5t29.5 -35t8.5 -42.5q0 -30 -15.5 -60t-48.5 -53t-85.5 -37.5t-127.5 -14.5
q-54 0 -97.5 9.5t-74.5 26t-48 39.5t-17 51q0 20 10.5 35.5t28.5 27t41 19.5t48 13q-54 13 -72.5 37t-18.5 50q0 32 28.5 51.5t76.5 30.5q-51 20 -84.5 61.5t-33.5 104.5q0 49 17.5 84.5t47 58.5t68 34.5t80.5 11.5q53 0 97 -18l209 9v-51h-148zM271 222q53 0 85.5 37
t32.5 106q0 66 -32 101.5t-86 35.5q-57 0 -91.5 -34t-34.5 -109q0 -34 11 -59.5t28.5 -43t40 -26t46.5 -8.5zM193 17q-36 -11 -62 -30.5t-26 -48.5q0 -42 42 -63.5t132 -21.5q42 0 77.5 5.5t62 17t41 28t14.5 38.5q0 16 -5.5 27t-19.5 19t-37 12.5t-58 6.5l-128 7zM229 745
h86v-119h-86v119z" />
    <glyph glyph-name="hbar" unicode="&#x127;" horiz-adv-x="656" 
d="M557 60q0 -14 6.5 -17.5t22.5 -5.5l41 -4v-33h-226v33l42 4q15 2 21.5 5.5t6.5 17.5v286q0 72 -25 108.5t-83 36.5q-18 0 -42.5 -8t-46 -28t-36.5 -54.5t-15 -86.5v-254q0 -14 6.5 -17.5t22.5 -5.5l41 -4v-33h-226v33l41 4q16 2 22.5 5.5t6.5 17.5v518h-113v51h113v56
q0 14 -6.5 17.5t-22.5 5.5l-41 4v33h157l-1 -100v-16h118v-51h-118v-75q0 -8 -0.5 -19t-0.5 -21v-23h2q24 49 68.5 78t108.5 29q46 0 76 -16.5t48 -42.5t25 -58t7 -63v-307z" />
    <glyph glyph-name="hcircumflex" unicode="&#x125;" horiz-adv-x="640" 
d="M542 60q0 -14 6.5 -17.5t22.5 -5.5l41 -4v-33h-226v33l42 4q15 2 21.5 5.5t6.5 17.5v286q0 72 -25 108.5t-83 36.5q-18 0 -42.5 -8t-46 -28t-36.5 -54.5t-15 -86.5v-254q0 -14 6.5 -17.5t22.5 -5.5l41 -4v-33h-226v33l41 4q16 2 22.5 5.5t6.5 17.5v625q0 14 -6.5 17.5
t-22.5 5.5l-41 4v33h157l-1 -100v-142q0 -8 -0.5 -19t-0.5 -21v-23h2q24 49 68.5 78t108.5 29q46 0 76 -16.5t48 -42.5t25 -58t7 -63v-307zM334 773h-66l-104 58l-104 -58h-66l139 117h64z" />
    <glyph glyph-name="dotlessi" unicode="&#x131;" horiz-adv-x="329" 
d="M221 439v-379q0 -14 6.5 -17.5t22.5 -5.5l41 -4v-33h-226v33l42 4q15 2 21.5 5.5t6.5 17.5v415q0 12 -5.5 18t-22.5 8l-43 5v32h158z" />
    <glyph glyph-name="ibreve" unicode="&#x12d;" horiz-adv-x="329" 
d="M221 439v-379q0 -14 6.5 -17.5t22.5 -5.5l41 -4v-33h-226v33l42 4q15 2 21.5 5.5t6.5 17.5v415q0 12 -5.5 18t-22.5 8l-43 5v32h158zM95 745q8 -91 84 -91q38 0 60.5 23t26.5 68h64q-5 -63 -42.5 -103.5t-109.5 -40.5q-69 0 -105.5 40.5t-41.5 103.5h64v0z" />
    <glyph glyph-name="imacron" unicode="&#x12b;" horiz-adv-x="329" 
d="M221 439v-379q0 -14 6.5 -17.5t22.5 -5.5l41 -4v-33h-226v33l42 4q15 2 21.5 5.5t6.5 17.5v415q0 12 -5.5 18t-22.5 8l-43 5v32h158zM44 635v67h266v-67h-266z" />
    <glyph glyph-name="iogonek" unicode="&#x12f;" horiz-adv-x="329" 
d="M135 745h86v-119h-86v119zM221 439v-379q0 -14 6.5 -17.5t22.5 -5.5l41 -4v-33h-226v33l42 4q15 2 21.5 5.5t6.5 17.5v415q0 12 -5.5 18t-22.5 8l-43 5v32h158zM224 0q-40 -19 -67.5 -42.5t-27.5 -49.5q0 -29 22.5 -40.5t48.5 -11.5q31 0 51 9v-44q-13 -6 -33 -9t-43 -3
q-21 0 -43.5 4.5t-41.5 14.5t-31 27t-12 43q0 32 31.5 59.5t76.5 42.5h69z" />
    <glyph glyph-name="itilde" unicode="&#x129;" horiz-adv-x="329" 
d="M221 439v-379q0 -14 6.5 -17.5t22.5 -5.5l41 -4v-33h-226v33l42 4q15 2 21.5 5.5t6.5 17.5v415q0 12 -5.5 18t-22.5 8l-43 5v32h158zM246 674q25 0 38 13t18 38h61q-10 -52 -39 -82t-73 -30q-23 0 -43 8t-38 18t-33.5 18t-30.5 8q-24 0 -36 -14t-19 -38h-60q8 56 40 84
t74 28q23 0 42.5 -8t36.5 -17.5t32 -17.5t30 -8z" />
    <glyph glyph-name="uni1ECB" unicode="&#x1ecb;" horiz-adv-x="329" 
d="M135 745h86v-119h-86v119zM221 439v-379q0 -14 6.5 -17.5t22.5 -5.5l41 -4v-33h-226v33l42 4q15 2 21.5 5.5t6.5 17.5v415q0 12 -5.5 18t-22.5 8l-43 5v32h158zM133 -54h86v-119h-86v119z" />
    <glyph glyph-name="dotlessj" unicode="&#x237;" horiz-adv-x="317" 
d="M129 475q0 12 -6 18t-23 8l-42 5v32h158l-1 -99v-472q0 -54 -6 -85t-21.5 -46.5t-43 -20t-70.5 -4.5h-74v61h72q19 0 30 2t17 12t8 32t2 61v496z" />
    <glyph glyph-name="jcircumflex" unicode="&#x135;" horiz-adv-x="317" 
d="M336 603h-60l-101 73l-104 -73h-60l141 142h47zM129 475q0 12 -6 18t-23 8l-42 5v32h158l-1 -99v-472q0 -54 -6 -85t-21.5 -46.5t-43 -20t-70.5 -4.5h-74v61h72q19 0 30 2t17 12t8 32t2 61v496z" />
    <glyph glyph-name="kcommaaccent" unicode="&#x137;" horiz-adv-x="597" 
d="M209 745l-1 -100v-379l175 188q15 16 22.5 26t7.5 15t-8.5 6.5t-24.5 2.5l-36 1v33h215v-33l-15 -1q-18 -1 -29.5 -2.5t-21.5 -5.5t-18.5 -11t-20.5 -19l-118 -123l147 -246q23 -38 43.5 -50t50.5 -13l20 -1v-33h-151l-169 280l-69 -72v-148q0 -14 6.5 -17.5t22.5 -5.5
l41 -4v-33h-226v33l41 4q16 2 22.5 5.5t6.5 17.5v625q0 14 -6.5 17.5t-22.5 5.5l-41 4v33h157zM270 -37h99v-98l-46 -93h-56l40 99h-37v92z" />
    <glyph glyph-name="lacute" unicode="&#x13a;" horiz-adv-x="310" 
d="M209 745l-1 -100v-585q0 -14 6.5 -17.5t22.5 -5.5l41 -4v-33h-226v33l41 4q16 2 22.5 5.5t6.5 17.5v625q0 14 -6.5 17.5t-22.5 5.5l-41 4v33h157zM185 773h-60l114 117h123z" />
    <glyph glyph-name="lcaron" unicode="&#x13e;" horiz-adv-x="403" 
d="M295 745h93v-99l-58 -125h-31l36 131h-40v93zM209 745l-1 -100v-585q0 -14 6.5 -17.5t22.5 -5.5l41 -4v-33h-226v33l41 4q16 2 22.5 5.5t6.5 17.5v625q0 14 -6.5 17.5t-22.5 5.5l-41 4v33h157z" />
    <glyph glyph-name="lcommaaccent" unicode="&#x13c;" horiz-adv-x="324" 
d="M209 745l-1 -100v-585q0 -14 6.5 -17.5t22.5 -5.5l41 -4v-33h-226v33l41 4q16 2 22.5 5.5t6.5 17.5v625q0 14 -6.5 17.5t-22.5 5.5l-41 4v33h157zM115 -37h99v-98l-46 -93h-56l40 99h-37v92z" />
    <glyph glyph-name="ldot" unicode="&#x140;" horiz-adv-x="377" 
d="M209 745l-1 -100v-585q0 -14 6.5 -17.5t22.5 -5.5l41 -4v-33h-226v33l41 4q16 2 22.5 5.5t6.5 17.5v625q0 14 -6.5 17.5t-22.5 5.5l-41 4v33h157zM285 471h86v-119h-86v119z" />
    <glyph glyph-name="lslash" unicode="&#x142;" horiz-adv-x="352" 
d="M216 745l-1 -100v-224l108 34l15 -49l-123 -39v-307q0 -14 6.5 -17.5t22.5 -5.5l41 -4v-33h-226v33l41 4q16 2 22.5 5.5t6.5 17.5v281l-105 -33l-14 49l119 37v291q0 14 -6.5 17.5t-22.5 5.5l-41 4v33h157z" />
    <glyph glyph-name="eng" unicode="&#x14b;" horiz-adv-x="583" 
d="M555 -33q0 -54 -6 -85t-21.5 -46.5t-43 -20t-70.5 -4.5h-74v61h72q19 0 30.5 2t17.5 12t7.5 32t1.5 61v367q0 72 -24.5 108.5t-83.5 36.5q-18 0 -42.5 -8t-46 -28t-36.5 -54.5t-15 -86.5v-254q0 -14 6.5 -17.5t22.5 -5.5l41 -4v-33h-226v33l42 4q15 2 21.5 5.5t6.5 17.5
v415q0 12 -5.5 18t-22.5 8l-43 5v32h155l1 -98h2q24 49 68.5 78t108.5 29q46 0 76.5 -16.5t48 -42.5t24.5 -58t7 -63v-400v0z" />
    <glyph glyph-name="nacute" unicode="&#x144;" horiz-adv-x="653" 
d="M555 60q0 -14 6.5 -17.5t22.5 -5.5l41 -4v-33h-226v33l42 4q15 2 21.5 5.5t6.5 17.5v286q0 72 -24.5 108.5t-83.5 36.5q-18 0 -42.5 -8t-46 -28t-36.5 -54.5t-15 -86.5v-254q0 -14 6.5 -17.5t22.5 -5.5l41 -4v-33h-226v33l42 4q15 2 21.5 5.5t6.5 17.5v415q0 12 -5.5 18
t-22.5 8l-43 5v32h155l1 -98h2q24 49 68.5 78t108.5 29q46 0 76.5 -16.5t48 -42.5t24.5 -58t7 -63v-307zM369 603h-35l83 142h131z" />
    <glyph glyph-name="ncaron" unicode="&#x148;" horiz-adv-x="653" 
d="M555 60q0 -14 6.5 -17.5t22.5 -5.5l41 -4v-33h-226v33l42 4q15 2 21.5 5.5t6.5 17.5v286q0 72 -24.5 108.5t-83.5 36.5q-18 0 -42.5 -8t-46 -28t-36.5 -54.5t-15 -86.5v-254q0 -14 6.5 -17.5t22.5 -5.5l41 -4v-33h-226v33l42 4q15 2 21.5 5.5t6.5 17.5v415q0 12 -5.5 18
t-22.5 8l-43 5v32h155l1 -98h2q24 49 68.5 78t108.5 29q46 0 76.5 -16.5t48 -42.5t24.5 -58t7 -63v-307zM188 745h60l103 -73l102 73h60l-140 -142h-47z" />
    <glyph glyph-name="ncommaaccent" unicode="&#x146;" horiz-adv-x="653" 
d="M555 60q0 -14 6.5 -17.5t22.5 -5.5l41 -4v-33h-226v33l42 4q15 2 21.5 5.5t6.5 17.5v286q0 72 -24.5 108.5t-83.5 36.5q-18 0 -42.5 -8t-46 -28t-36.5 -54.5t-15 -86.5v-254q0 -14 6.5 -17.5t22.5 -5.5l41 -4v-33h-226v33l42 4q15 2 21.5 5.5t6.5 17.5v415q0 12 -5.5 18
t-22.5 8l-43 5v32h155l1 -98h2q24 49 68.5 78t108.5 29q46 0 76.5 -16.5t48 -42.5t24.5 -58t7 -63v-307zM295 -37h99v-98l-46 -93h-56l40 99h-37v92z" />
    <glyph glyph-name="oe" unicode="&#x153;" horiz-adv-x="991" 
d="M709 36q62 0 99.5 34t44.5 97h87q-8 -45 -30 -79t-54 -56.5t-71 -33.5t-79 -11q-75 0 -125 31t-79 82q-30 -54 -81.5 -83.5t-119.5 -29.5q-54 0 -100 20t-79.5 57t-52.5 88.5t-19 114.5t19 114.5t52.5 88.5t79.5 57t100 20q68 0 119.5 -32t81.5 -86q30 54 82 86t122 32
q43 0 86 -15.5t77.5 -49.5t55.5 -88t21 -130h-402q1 -49 10.5 -90.5t29 -72t50.5 -48t75 -17.5zM459 267q0 60 -12 103.5t-33 72t-50 42t-63 13.5q-33 0 -62 -13.5t-50.5 -42t-33.5 -72t-12 -103.5q0 -59 12 -102.5t33.5 -72t50.5 -42.5t62 -14q34 0 63 14t50 42.5t33 72
t12 102.5zM854 312q-1 50 -13.5 85.5t-32.5 58.5t-47 33.5t-57 10.5q-32 0 -59.5 -12t-48.5 -35.5t-34 -59t-16 -81.5h308z" />
    <glyph glyph-name="obreve" unicode="&#x14f;" horiz-adv-x="602" 
d="M143 267q0 -59 12 -102.5t33.5 -72t50.5 -42.5t62 -14t62 14t50.5 42.5t33.5 72t12 102.5t-12 102.5t-33.5 72t-50.5 42.5t-62 14t-62 -14t-50.5 -42.5t-33.5 -72t-12 -102.5zM552 267q0 -63 -19 -114.5t-52.5 -88.5t-79.5 -57t-100 -20t-100 20t-79.5 57t-52.5 88.5
t-19 114.5t19 114.5t52.5 88.5t79.5 57t100 20t100 -20t79.5 -57t52.5 -88.5t19 -114.5zM220 745q8 -91 84 -91q38 0 60.5 23t26.5 68h64q-5 -63 -42.5 -103.5t-109.5 -40.5q-69 0 -105.5 40.5t-41.5 103.5h64v0z" />
    <glyph glyph-name="ohungarumlaut" unicode="&#x151;" horiz-adv-x="602" 
d="M143 267q0 -59 12 -102.5t33.5 -72t50.5 -42.5t62 -14t62 14t50.5 42.5t33.5 72t12 102.5t-12 102.5t-33.5 72t-50.5 42.5t-62 14t-62 -14t-50.5 -42.5t-33.5 -72t-12 -102.5zM552 267q0 -63 -19 -114.5t-52.5 -88.5t-79.5 -57t-100 -20t-100 20t-79.5 57t-52.5 88.5
t-19 114.5t19 114.5t52.5 88.5t79.5 57t100 20t100 -20t79.5 -57t52.5 -88.5t19 -114.5zM241 603h-35l83 142h131zM405 603h-35l83 142h131z" />
    <glyph glyph-name="omacron" unicode="&#x14d;" horiz-adv-x="602" 
d="M143 267q0 -59 12 -102.5t33.5 -72t50.5 -42.5t62 -14t62 14t50.5 42.5t33.5 72t12 102.5t-12 102.5t-33.5 72t-50.5 42.5t-62 14t-62 -14t-50.5 -42.5t-33.5 -72t-12 -102.5zM552 267q0 -63 -19 -114.5t-52.5 -88.5t-79.5 -57t-100 -20t-100 20t-79.5 57t-52.5 88.5
t-19 114.5t19 114.5t52.5 88.5t79.5 57t100 20t100 -20t79.5 -57t52.5 -88.5t19 -114.5zM176 635v67h266v-67h-266z" />
    <glyph glyph-name="uni1ECD" unicode="&#x1ecd;" horiz-adv-x="602" 
d="M256 -54h86v-119h-86v119zM143 267q0 -59 12 -102.5t33.5 -72t50.5 -42.5t62 -14t62 14t50.5 42.5t33.5 72t12 102.5t-12 102.5t-33.5 72t-50.5 42.5t-62 14t-62 -14t-50.5 -42.5t-33.5 -72t-12 -102.5zM552 267q0 -63 -19 -114.5t-52.5 -88.5t-79.5 -57t-100 -20
t-100 20t-79.5 57t-52.5 88.5t-19 114.5t19 114.5t52.5 88.5t79.5 57t100 20t100 -20t79.5 -57t52.5 -88.5t19 -114.5z" />
    <glyph glyph-name="racute" unicode="&#x155;" horiz-adv-x="435" 
d="M221 431h1q18 48 58 80t97 32h55v-80h-80q-67 0 -99 -35t-32 -116v-251q0 -14 6.5 -18t22.5 -5l90 -4v-34h-275v33l42 4q15 2 21.5 5.5t6.5 17.5v415q0 12 -5.5 18t-22.5 8l-43 5v32h155zM266 603h-35l83 142h131z" />
    <glyph glyph-name="rcaron" unicode="&#x159;" horiz-adv-x="438" 
d="M221 431h1q18 48 58 80t97 32h55v-80h-80q-67 0 -99 -35t-32 -116v-251q0 -14 6.5 -18t22.5 -5l90 -4v-34h-275v33l42 4q15 2 21.5 5.5t6.5 17.5v415q0 12 -5.5 18t-22.5 8l-43 5v32h155zM102 745h60l103 -73l102 73h60l-140 -142h-47z" />
    <glyph glyph-name="rcommaaccent" unicode="&#x157;" horiz-adv-x="438" 
d="M221 431h1q18 48 58 80t97 32h55v-80h-80q-67 0 -99 -35t-32 -116v-251q0 -14 6.5 -18t22.5 -5l90 -4v-34h-275v33l42 4q15 2 21.5 5.5t6.5 17.5v415q0 12 -5.5 18t-22.5 8l-43 5v32h155zM128 -37h99v-98l-46 -93h-56l40 99h-37v92z" />
    <glyph glyph-name="sacute" unicode="&#x15b;" horiz-adv-x="543" 
d="M136 168q7 -66 46 -99t101 -33q29 0 54.5 7t44 19.5t29 29.5t10.5 37q0 43 -35 67t-102 38l-65 13q-68 14 -110 51.5t-42 98.5q0 33 14.5 61t40.5 47.5t63.5 30.5t84.5 11q41 0 78 -9.5t66.5 -28.5t48.5 -48t25 -68h-87q-6 54 -45 80t-94 26q-23 0 -44.5 -6t-38 -17
t-26.5 -28t-10 -38q0 -35 28 -56.5t77 -31.5l59 -12q38 -8 73 -20.5t61.5 -31t42 -44t15.5 -61.5q0 -40 -16.5 -71t-46 -52t-69.5 -32t-86 -11q-58 0 -100.5 14.5t-71 39t-43.5 57.5t-18 70h88v0zM294 603h-35l83 142h131z" />
    <glyph glyph-name="scaron" unicode="&#x161;" horiz-adv-x="543" 
d="M136 168q7 -66 46 -99t101 -33q29 0 54.5 7t44 19.5t29 29.5t10.5 37q0 43 -35 67t-102 38l-65 13q-68 14 -110 51.5t-42 98.5q0 33 14.5 61t40.5 47.5t63.5 30.5t84.5 11q41 0 78 -9.5t66.5 -28.5t48.5 -48t25 -68h-87q-6 54 -45 80t-94 26q-23 0 -44.5 -6t-38 -17
t-26.5 -28t-10 -38q0 -35 28 -56.5t77 -31.5l59 -12q38 -8 73 -20.5t61.5 -31t42 -44t15.5 -61.5q0 -40 -16.5 -71t-46 -52t-69.5 -32t-86 -11q-58 0 -100.5 14.5t-71 39t-43.5 57.5t-18 70h88v0zM112 745h60l103 -73l102 73h60l-140 -142h-47z" />
    <glyph glyph-name="scedilla" unicode="&#x15f;" horiz-adv-x="543" 
d="M136 168q7 -66 46 -99t101 -33q29 0 54.5 7t44 19.5t29 29.5t10.5 37q0 43 -35 67t-102 38l-65 13q-68 14 -110 51.5t-42 98.5q0 33 14.5 61t40.5 47.5t63.5 30.5t84.5 11q41 0 78 -9.5t66.5 -28.5t48.5 -48t25 -68h-87q-6 54 -45 80t-94 26q-23 0 -44.5 -6t-38 -17
t-26.5 -28t-10 -38q0 -35 28 -56.5t77 -31.5l59 -12q38 -8 73 -20.5t61.5 -31t42 -44t15.5 -61.5q0 -40 -16.5 -71t-46 -52t-69.5 -32t-86 -11q-58 0 -100.5 14.5t-71 39t-43.5 57.5t-18 70h88v0zM257 3h48l-37 -53q48 9 78 -13t30 -64q0 -21 -9.5 -37.5t-25 -28.5
t-36.5 -18.5t-44 -6.5q-24 0 -42.5 3.5t-43.5 14.5l15 36q12 -7 28 -10t33 -3q25 0 42.5 10t17.5 35q0 20 -14.5 29t-30.5 9q-28 0 -45 -10l-21 19z" />
    <glyph glyph-name="scircumflex" unicode="&#x15d;" horiz-adv-x="543" 
d="M136 168q7 -66 46 -99t101 -33q29 0 54.5 7t44 19.5t29 29.5t10.5 37q0 43 -35 67t-102 38l-65 13q-68 14 -110 51.5t-42 98.5q0 33 14.5 61t40.5 47.5t63.5 30.5t84.5 11q41 0 78 -9.5t66.5 -28.5t48.5 -48t25 -68h-87q-6 54 -45 80t-94 26q-23 0 -44.5 -6t-38 -17
t-26.5 -28t-10 -38q0 -35 28 -56.5t77 -31.5l59 -12q38 -8 73 -20.5t61.5 -31t42 -44t15.5 -61.5q0 -40 -16.5 -71t-46 -52t-69.5 -32t-86 -11q-58 0 -100.5 14.5t-71 39t-43.5 57.5t-18 70h88v0zM446 603h-60l-101 73l-104 -73h-60l141 142h47z" />
    <glyph glyph-name="scommaaccent" unicode="&#x219;" horiz-adv-x="543" 
d="M136 168q7 -66 46 -99t101 -33q29 0 54.5 7t44 19.5t29 29.5t10.5 37q0 43 -35 67t-102 38l-65 13q-68 14 -110 51.5t-42 98.5q0 33 14.5 61t40.5 47.5t63.5 30.5t84.5 11q41 0 78 -9.5t66.5 -28.5t48.5 -48t25 -68h-87q-6 54 -45 80t-94 26q-23 0 -44.5 -6t-38 -17
t-26.5 -28t-10 -38q0 -35 28 -56.5t77 -31.5l59 -12q38 -8 73 -20.5t61.5 -31t42 -44t15.5 -61.5q0 -40 -16.5 -71t-46 -52t-69.5 -32t-86 -11q-58 0 -100.5 14.5t-71 39t-43.5 57.5t-18 70h88v0zM233 -37h99v-98l-46 -93h-56l40 99h-37v92z" />
    <glyph glyph-name="tbar" unicode="&#x167;" horiz-adv-x="399" 
d="M118 379v105h-98v51h98v174h87v-174h164v-51h-164v-105h164v-51h-164v-189q0 -26 4 -42t12.5 -24.5t22.5 -11.5t35 -3h84v-58h-107q-40 0 -66.5 5.5t-42.5 20t-22.5 40.5t-6.5 67v195h-98v51h98z" />
    <glyph glyph-name="tcaron" unicode="&#x165;" horiz-adv-x="493" 
d="M425 745h93v-99l-58 -125h-31l36 131h-40v93zM367 487h-163v-348q0 -26 4 -42t12.5 -24.5t22.5 -11.5t35 -3h84v-58h-106q-40 0 -66.5 5.5t-42.5 20t-22.5 40.5t-6.5 67v354h-98v51h98v171h86v-171h163v-51z" />
    <glyph glyph-name="uni0163" unicode="&#x163;" horiz-adv-x="397" 
d="M367 487h-163v-348q0 -26 4 -42t12.5 -24.5t22.5 -11.5t35 -3h84v-58h-106q-40 0 -66.5 5.5t-42.5 20t-22.5 40.5t-6.5 67v354h-98v51h98v171h86v-171h163v-51zM123 -37h99v-98l-46 -93h-56l40 99h-37v92z" />
    <glyph glyph-name="tcommaaccent" unicode="&#x21b;" horiz-adv-x="397" 
d="M367 487h-163v-348q0 -26 4 -42t12.5 -24.5t22.5 -11.5t35 -3h84v-58h-106q-40 0 -66.5 5.5t-42.5 20t-22.5 40.5t-6.5 67v354h-98v51h98v171h86v-171h163v-51zM123 -37h99v-98l-46 -93h-56l40 99h-37v92z" />
    <glyph glyph-name="ubreve" unicode="&#x16d;" horiz-adv-x="606" 
d="M415 94h-2q-24 -50 -64.5 -78.5t-105.5 -28.5q-45 0 -74 16.5t-45.5 42.5t-22.5 58t-6 63v308q0 12 -5.5 18t-22.5 8l-43 5v32h158l-1 -99v-251q0 -72 21.5 -108.5t79.5 -36.5q18 0 41 8t43.5 28t34 54t13.5 86v256q0 12 -6 18t-23 8l-42 5v32h158l-1 -99v-375
q0 -14 6.5 -17.5t21.5 -5.5l42 -4v-33l-153 -8zM178 745q8 -91 84 -91q38 0 60.5 23t26.5 68h64q-5 -63 -42.5 -103.5t-109.5 -40.5q-69 0 -105.5 40.5t-41.5 103.5h64v0z" />
    <glyph glyph-name="uhungarumlaut" unicode="&#x171;" horiz-adv-x="606" 
d="M415 94h-2q-24 -50 -64.5 -78.5t-105.5 -28.5q-45 0 -74 16.5t-45.5 42.5t-22.5 58t-6 63v308q0 12 -5.5 18t-22.5 8l-43 5v32h158l-1 -99v-251q0 -72 21.5 -108.5t79.5 -36.5q18 0 41 8t43.5 28t34 54t13.5 86v256q0 12 -6 18t-23 8l-42 5v32h158l-1 -99v-375
q0 -14 6.5 -17.5t21.5 -5.5l42 -4v-33l-153 -8zM199 603h-35l83 142h131zM363 603h-35l83 142h131z" />
    <glyph glyph-name="umacron" unicode="&#x16b;" horiz-adv-x="606" 
d="M415 94h-2q-24 -50 -64.5 -78.5t-105.5 -28.5q-45 0 -74 16.5t-45.5 42.5t-22.5 58t-6 63v308q0 12 -5.5 18t-22.5 8l-43 5v32h158l-1 -99v-251q0 -72 21.5 -108.5t79.5 -36.5q18 0 41 8t43.5 28t34 54t13.5 86v256q0 12 -6 18t-23 8l-42 5v32h158l-1 -99v-375
q0 -14 6.5 -17.5t21.5 -5.5l42 -4v-33l-153 -8zM143 635v67h266v-67h-266z" />
    <glyph glyph-name="uogonek" unicode="&#x173;" horiz-adv-x="606" 
d="M415 94h-2q-24 -50 -64.5 -78.5t-105.5 -28.5q-45 0 -74 16.5t-45.5 42.5t-22.5 58t-6 63v308q0 12 -5.5 18t-22.5 8l-43 5v32h158l-1 -99v-251q0 -72 21.5 -108.5t79.5 -36.5q18 0 41 8t43.5 28t34 54t13.5 86v256q0 12 -6 18t-23 8l-42 5v32h158l-1 -99v-375
q0 -14 6.5 -17.5t21.5 -5.5l42 -4v-33l-55 -3q-33 -19 -55 -44t-22 -49q0 -29 22.5 -40.5t48.5 -11.5q31 0 51 9v-44q-13 -6 -33 -9t-43 -3q-21 0 -43.5 4.5t-41.5 14.5t-31 27t-12 43q0 31 20.5 54.5t49.5 44.5z" />
    <glyph glyph-name="uring" unicode="&#x16f;" horiz-adv-x="606" 
d="M415 94h-2q-24 -50 -64.5 -78.5t-105.5 -28.5q-45 0 -74 16.5t-45.5 42.5t-22.5 58t-6 63v308q0 12 -5.5 18t-22.5 8l-43 5v32h158l-1 -99v-251q0 -72 21.5 -108.5t79.5 -36.5q18 0 41 8t43.5 28t34 54t13.5 86v256q0 12 -6 18t-23 8l-42 5v32h158l-1 -99v-375
q0 -14 6.5 -17.5t21.5 -5.5l42 -4v-33l-153 -8zM269 768q19 0 36 -6.5t30 -18.5t20.5 -28.5t7.5 -35.5q0 -38 -27.5 -63t-66.5 -25q-40 0 -67 25t-27 63q0 19 7.5 35.5t20.5 28.5t30 18.5t36 6.5zM269 724q-17 0 -31 -13t-14 -32q0 -20 14 -32t31 -12t31 12t14 32
q0 19 -14 32t-31 13z" />
    <glyph glyph-name="utilde" unicode="&#x169;" horiz-adv-x="606" 
d="M415 94h-2q-24 -50 -64.5 -78.5t-105.5 -28.5q-45 0 -74 16.5t-45.5 42.5t-22.5 58t-6 63v308q0 12 -5.5 18t-22.5 8l-43 5v32h158l-1 -99v-251q0 -72 21.5 -108.5t79.5 -36.5q18 0 41 8t43.5 28t34 54t13.5 86v256q0 12 -6 18t-23 8l-42 5v32h158l-1 -99v-375
q0 -14 6.5 -17.5t21.5 -5.5l42 -4v-33l-153 -8zM376 674q25 0 38 13t18 38h61q-10 -52 -39 -82t-73 -30q-23 0 -43 8t-38 18t-33.5 18t-30.5 8q-24 0 -36 -14t-19 -38h-60q8 56 40 84t74 28q23 0 42.5 -8t36.5 -17.5t32 -17.5t30 -8z" />
    <glyph glyph-name="uni1EE5" unicode="&#x1ee5;" horiz-adv-x="606" 
d="M246 -54h86v-119h-86v119zM415 94h-2q-24 -50 -64.5 -78.5t-105.5 -28.5q-45 0 -74 16.5t-45.5 42.5t-22.5 58t-6 63v308q0 12 -5.5 18t-22.5 8l-43 5v32h158l-1 -99v-251q0 -72 21.5 -108.5t79.5 -36.5q18 0 41 8t43.5 28t34 54t13.5 86v256q0 12 -6 18t-23 8l-42 5v32
h158l-1 -99v-375q0 -14 6.5 -17.5t21.5 -5.5l42 -4v-33l-153 -8z" />
    <glyph glyph-name="wacute" unicode="&#x1e83;" horiz-adv-x="769" 
d="M639 433q4 14 6.5 26.5t0.5 21.5t-9.5 15t-22.5 7l-24 2v33h183v-33l-26 -2q-11 -1 -18.5 -3.5t-13 -8t-10 -15t-8.5 -24.5l-129 -453h-54l-137 412l-135 -412h-49l-133 471q-5 17 -11.5 24t-25.5 9l-27 2v33h218v-33l-36 -3q-32 -3 -26 -23l87 -353l129 412h51l136 -412
zM415 603h-35l83 142h131z" />
    <glyph glyph-name="wcircumflex" unicode="&#x175;" horiz-adv-x="769" 
d="M639 433q4 14 6.5 26.5t0.5 21.5t-9.5 15t-22.5 7l-24 2v33h183v-33l-26 -2q-11 -1 -18.5 -3.5t-13 -8t-10 -15t-8.5 -24.5l-129 -453h-54l-137 412l-135 -412h-49l-133 471q-5 17 -11.5 24t-25.5 9l-27 2v33h218v-33l-36 -3q-32 -3 -26 -23l87 -353l129 412h51l136 -412
zM555 603h-60l-101 73l-104 -73h-60l141 142h47z" />
    <glyph glyph-name="wdieresis" unicode="&#x1e85;" horiz-adv-x="769" 
d="M639 433q4 14 6.5 26.5t0.5 21.5t-9.5 15t-22.5 7l-24 2v33h183v-33l-26 -2q-11 -1 -18.5 -3.5t-13 -8t-10 -15t-8.5 -24.5l-129 -453h-54l-137 412l-135 -412h-49l-133 471q-5 17 -11.5 24t-25.5 9l-27 2v33h218v-33l-36 -3q-32 -3 -26 -23l87 -353l129 412h51l136 -412
zM238 745h86v-119h-86v119zM461 745h86v-119h-86v119z" />
    <glyph glyph-name="wgrave" unicode="&#x1e81;" horiz-adv-x="769" 
d="M639 433q4 14 6.5 26.5t0.5 21.5t-9.5 15t-22.5 7l-24 2v33h183v-33l-26 -2q-11 -1 -18.5 -3.5t-13 -8t-10 -15t-8.5 -24.5l-129 -453h-54l-137 412l-135 -412h-49l-133 471q-5 17 -11.5 24t-25.5 9l-27 2v33h218v-33l-36 -3q-32 -3 -26 -23l87 -353l129 412h51l136 -412
zM196 745h131l83 -142h-35z" />
    <glyph glyph-name="ycircumflex" unicode="&#x177;" horiz-adv-x="546" 
d="M44 -189v61h72q21 0 35.5 2t26.5 13t23 34.5t26 66.5l7 19l-174 463q-7 19 -12.5 24.5t-24.5 7.5l-27 3v33h224v-33l-36 -3q-33 -3 -26 -23l125 -384l120 338q14 38 12 52.5t-37 17.5l-24 2v33h196v-33l-24 -2q-23 -2 -34.5 -15t-22.5 -36l-178 -466
q-25 -65 -42.5 -100.5t-36 -52t-42 -19.5t-60.5 -3h-66zM437 603h-60l-101 73l-104 -73h-60l141 142h47z" />
    <glyph glyph-name="ygrave" unicode="&#x1ef3;" horiz-adv-x="546" 
d="M44 -189v61h72q21 0 35.5 2t26.5 13t23 34.5t26 66.5l7 19l-174 463q-7 19 -12.5 24.5t-24.5 7.5l-27 3v33h224v-33l-36 -3q-33 -3 -26 -23l125 -384l120 338q14 38 12 52.5t-37 17.5l-24 2v33h196v-33l-24 -2q-23 -2 -34.5 -15t-22.5 -36l-178 -466
q-25 -65 -42.5 -100.5t-36 -52t-42 -19.5t-60.5 -3h-66zM90 745h131l83 -142h-35z" />
    <glyph glyph-name="uni0233" unicode="&#x233;" horiz-adv-x="546" 
d="M44 -189v61h72q21 0 35.5 2t26.5 13t23 34.5t26 66.5l7 19l-174 463q-7 19 -12.5 24.5t-24.5 7.5l-27 3v33h224v-33l-36 -3q-33 -3 -26 -23l125 -384l120 338q14 38 12 52.5t-37 17.5l-24 2v33h196v-33l-24 -2q-23 -2 -34.5 -15t-22.5 -36l-178 -466
q-25 -65 -42.5 -100.5t-36 -52t-42 -19.5t-60.5 -3h-66zM140 635v67h266v-67h-266z" />
    <glyph glyph-name="zacute" unicode="&#x17a;" horiz-adv-x="540" 
d="M54 50l332 437h-305v51h404v-50l-332 -437h333v-51h-432v50zM302 603h-35l83 142h131z" />
    <glyph glyph-name="zcaron" unicode="&#x17e;" horiz-adv-x="540" 
d="M54 50l332 437h-305v51h404v-50l-332 -437h333v-51h-432v50zM125 745h60l103 -73l102 73h60l-140 -142h-47z" />
    <glyph glyph-name="zdotaccent" unicode="&#x17c;" horiz-adv-x="540" 
d="M54 50l332 437h-305v51h404v-50l-332 -437h333v-51h-432v50zM227 745h86v-119h-86v119z" />
    <glyph glyph-name="uni0259" unicode="&#x259;" horiz-adv-x="593" 
d="M286 495q-62 0 -99 -34t-44 -97h-87q7 45 29.5 78.5t54.5 56t70.5 34t78.5 11.5q63 0 110.5 -23t79 -61.5t47.5 -89t16 -106.5q0 -62 -18.5 -112.5t-51.5 -87t-79.5 -56.5t-103.5 -20q-43 0 -86 15t-77 48.5t-55 86.5t-21 129h402q-1 49 -10.5 90.5t-29.5 72t-51 48
t-75 17.5zM292 35q31 0 58.5 11t48.5 34t34 57.5t16 81.5h-307q1 -50 13 -85t32.5 -57t47.5 -32t57 -10z" />
    <glyph glyph-name="ellipsis" unicode="&#x2026;" horiz-adv-x="834" 
d="M84 119h120v-119h-120v119zM357 119h120v-119h-120v119zM630 119h120v-119h-120v119z" />
    <glyph glyph-name="endash" unicode="&#x2013;" horiz-adv-x="479" 
d="M36 246v60h407v-60h-407z" />
    <glyph glyph-name="emdash" unicode="&#x2014;" horiz-adv-x="707" 
d="M36 246v60h635v-60h-635z" />
    <glyph glyph-name="guilsinglleft" unicode="&#x2039;" horiz-adv-x="274" 
d="M10 273l200 234h40l-129 -234l129 -235h-40z" />
    <glyph glyph-name="guilsinglright" unicode="&#x203a;" horiz-adv-x="275" 
d="M65 38h-41l130 235l-130 234h41l200 -234z" />
    <glyph glyph-name="quoteleft" unicode="&#x2018;" horiz-adv-x="230" 
d="M170 460h-110v117l70 148h35l-41 -155h46v-110z" />
    <glyph glyph-name="quoteright" unicode="&#x2019;" horiz-adv-x="230" 
d="M60 725h110v-117l-69 -148h-36l42 155h-47v110z" />
    <glyph glyph-name="quotedblleft" unicode="&#x201c;" horiz-adv-x="397" 
d="M170 460h-110v117l70 148h35l-41 -155h46v-110zM337 460h-110v117l70 148h35l-41 -155h46v-110z" />
    <glyph glyph-name="quotedblright" unicode="&#x201d;" horiz-adv-x="397" 
d="M60 725h110v-117l-69 -148h-36l42 155h-47v110zM227 725h110v-117l-69 -148h-36l42 155h-47v110z" />
    <glyph glyph-name="quotesinglbase" unicode="&#x201a;" horiz-adv-x="288" 
d="M84 119h120v-127l-75 -158h-37l42 166h-50v119z" />
    <glyph glyph-name="quotedblbase" unicode="&#x201e;" horiz-adv-x="485" 
d="M281 119h120v-127l-75 -158h-37l42 166h-50v119zM84 119h120v-127l-75 -158h-37l42 166h-50v119z" />
    <glyph glyph-name="bullet" unicode="&#x2022;" horiz-adv-x="462" 
d="M48 283q0 37 14 70t38.5 57.5t57 38.5t69.5 14q40 0 74 -14t59 -38.5t39.5 -57.5t14.5 -70q0 -39 -14.5 -73t-39.5 -59t-59 -39.5t-74 -14.5q-37 0 -69.5 14.5t-57 39.5t-38.5 59t-14 73z" />
    <glyph glyph-name="dagger" unicode="&#x2020;" horiz-adv-x="526" 
d="M231 0v431h-207v60h207v234h64v-234h207v-60h-207v-431h-64z" />
    <glyph glyph-name="daggerdbl" unicode="&#x2021;" horiz-adv-x="526" 
d="M502 265v-60h-207v-205h-64v205h-207v60h207v180h-207v61h207v219h64v-219h207v-61h-207v-180h207z" />
    <glyph glyph-name="perthousand" unicode="&#x2030;" horiz-adv-x="1317" 
d="M999 197q0 -86 25 -131t72 -45q46 0 72 45t26 131q0 85 -26 130t-72 45q-47 0 -72 -45t-25 -130zM926 197q0 52 13 91t36 65t54 39.5t67 13.5t67 -13.5t54 -39.5t36.5 -65t13.5 -91t-13.5 -91t-36.5 -65.5t-54 -40t-67 -13.5t-67 13.5t-54 40t-36 65.5t-13 91zM162 0
l509 725h70l-509 -725h-70zM123 533q0 -86 25 -131t72 -45q46 0 72 45t26 131q0 85 -26 130t-72 45q-47 0 -72 -45t-25 -130zM516 197q0 52 13 91t36 65t54 39.5t67 13.5t67 -13.5t54 -39.5t36.5 -65t13.5 -91t-13.5 -91t-36.5 -65.5t-54 -40t-67 -13.5t-67 13.5t-54 40
t-36 65.5t-13 91zM589 197q0 -86 25 -131t72 -45q46 0 72 45t26 131q0 85 -26 130t-72 45q-47 0 -72 -45t-25 -130zM50 533q0 52 13 91t36 65t54 39.5t67 13.5t67 -13.5t54 -39.5t36.5 -65t13.5 -91t-13.5 -91t-36.5 -65.5t-54 -40t-67 -13.5t-67 13.5t-54 40t-36 65.5
t-13 91z" />
    <glyph glyph-name="uni2117" unicode="&#x2117;" horiz-adv-x="846" 
d="M48 361q0 83 29.5 152.5t80.5 119t119.5 77t146.5 27.5q77 0 145 -27.5t119 -77t80.5 -119t29.5 -152.5t-29.5 -152t-80.5 -118.5t-119 -76.5t-145 -27q-78 0 -146.5 27t-119.5 76.5t-80.5 118.5t-29.5 152zM109 361q0 -72 24.5 -131t67 -101t100 -65.5t123.5 -23.5
q67 0 124.5 23.5t99.5 65.5t65.5 101t23.5 131t-23.5 131.5t-65.5 101.5t-99.5 65t-124.5 23q-66 0 -123.5 -23t-100 -65t-67 -101.5t-24.5 -131.5zM351 330v-155h-58v397h119q43 0 77.5 -4.5t58.5 -17.5t37 -36.5t13 -61.5q0 -24 -9.5 -46.5t-28.5 -39t-48.5 -26.5
t-69.5 -10h-91zM536 451q0 19 -7.5 31t-21 19t-31.5 9.5t-40 2.5h-85v-126h89q51 0 73.5 16t22.5 48z" />
    <glyph glyph-name="trademark" unicode="&#x2122;" horiz-adv-x="863" 
d="M156 665h-132v60h324v-60h-132v-346h-60v346zM580 319l-127 353v-353h-60v406h108l117 -334l114 334h107v-406h-61v353l-126 -353h-72z" />
    <glyph glyph-name="lozenge" unicode="&#x25ca;" horiz-adv-x="496" 
d="M71 350l177 -302l177 302l-177 303zM248 771l248 -421l-248 -420l-248 420z" />
    <glyph glyph-name="afii61289" unicode="&#x2113;" horiz-adv-x="409" 
d="M115 218l-82 -62l-33 48l115 88v260q0 93 30 139.5t104 46.5q62 0 93 -44t31 -112q0 -49 -14 -92t-38.5 -80.5t-58 -71t-71.5 -62.5l-13 -10v-125q0 -52 13.5 -75t53.5 -23q35 0 56.5 13t36.5 28l34 -43q-26 -24 -57 -39t-75 -15q-36 0 -60.5 9.5t-38.5 29t-20 48.5
t-6 67v77zM178 340l20 16q57 43 83.5 102.5t26.5 120.5q0 31 -6 51.5t-15 31.5t-21 15.5t-24 4.5q-35 0 -49.5 -29.5t-14.5 -101.5v-211z" />
    <glyph glyph-name="afii61352" unicode="&#x2116;" horiz-adv-x="1096" 
d="M682 -10h-58l-429 625v-529q0 -15 1.5 -24.5t6.5 -15t14.5 -7.5t25.5 -3l38 -2v-34h-227v34l36 2q16 1 25.5 3t15 7.5t7 15t1.5 24.5v577q0 10 -6 16t-22 8l-57 4v34h173l399 -582v496q0 15 -1.5 24.5t-6.5 15t-14.5 7.5t-25.5 3l-38 2v34h227v-34l-36 -2
q-16 -1 -25.5 -3t-15 -7.5t-7 -15t-1.5 -24.5v-649zM1018 593q0 66 -21.5 93t-53.5 27t-53 -27t-21 -93q0 -67 21 -94t53 -27t53.5 27t21.5 94zM1091 592q0 -72 -41.5 -113t-107.5 -41t-106.5 42t-40.5 114t41 112t107 40t107 -41t41 -113zM798 326v61h298v-61h-298z" />
    <glyph glyph-name="apple" horiz-adv-x="462" 
d="M48 283q0 37 14 70t38.5 57.5t57 38.5t69.5 14q40 0 74 -14t59 -38.5t39.5 -57.5t14.5 -70q0 -39 -14.5 -73t-39.5 -59t-59 -39.5t-74 -14.5q-37 0 -69.5 14.5t-57 39.5t-38.5 59t-14 73z" />
    <glyph glyph-name="estimated" unicode="&#x212e;" horiz-adv-x="594" 
d="M549 150q-12 -34 -33.5 -64t-51.5 -52t-70 -34.5t-90 -12.5q-68 0 -119 22t-85.5 60t-52 89t-17.5 110q0 61 19 112.5t54.5 88.5t85 57.5t110.5 20.5q64 0 113 -22.5t82 -60.5t50.5 -88.5t18.5 -106.5h-416v-193q23 -24 68.5 -39.5t96.5 -15.5q72 0 121.5 34.5t74.5 94.5
h41zM147 301h298v159q-23 22 -60.5 37.5t-86.5 15.5q-48 0 -87 -13t-64 -39v-160z" />
    <glyph glyph-name="minus" unicode="&#x2212;" 
d="M608 306v-60h-511v60h511z" />
    <glyph glyph-name="lessequal" unicode="&#x2264;" 
d="M630 187v-65l-555 182v60l555 181v-65l-474 -146zM75 60h555v-60h-555v60z" />
    <glyph glyph-name="greaterequal" unicode="&#x2265;" 
d="M75 480v65l555 -181v-60l-555 -182v65l474 147zM75 0v60h555v-60h-555z" />
    <glyph glyph-name="notequal" unicode="&#x2260;" 
d="M105 412h287l83 143l59 -32l-64 -111h130v-67h-169l-77 -133h246v-67h-285l-96 -167l-59 30l79 137h-134v67h172l77 133h-249v67z" />
    <glyph glyph-name="approxequal" unicode="&#x2248;" 
d="M468 368q28 0 47.5 18t21.5 56h65q-5 -66 -41.5 -99t-92.5 -33q-31 0 -61 11.5t-59 25.5t-56.5 25.5t-53.5 11.5q-28 0 -47.5 -18t-22.5 -56h-64q4 67 41 99.5t93 32.5q36 0 67.5 -11.5t60 -25.5t54 -25.5t48.5 -11.5zM468 186q28 0 47.5 18t21.5 56h65
q-5 -67 -41.5 -99.5t-92.5 -32.5q-31 0 -61 11.5t-59 25.5t-56.5 25.5t-53.5 11.5q-28 0 -47.5 -18t-22.5 -56h-64q4 66 41 99t93 33q36 0 67.5 -11.5t60 -25.5t54 -25.5t48.5 -11.5z" />
    <glyph glyph-name="partialdiff" unicode="&#x2202;" horiz-adv-x="551" 
d="M448 266q0 58 -15.5 100t-40 69t-56 40t-64.5 13q-76 0 -122 -58.5t-46 -163.5t45.5 -164t122.5 -59q32 0 63.5 13t56.5 40.5t40.5 69.5t15.5 100zM272 -13q-52 0 -95.5 19t-74.5 55t-48 87.5t-17 117.5q0 65 17.5 116.5t48.5 87.5t74 55t93 19q52 0 93.5 -20.5
t64.5 -52.5l1 1q-14 42 -41.5 77.5t-64.5 62.5t-80.5 43.5t-89.5 19.5v63q83 -6 150 -39.5t114 -90t72.5 -133t25.5 -169.5q0 -83 -18.5 -143.5t-51 -99.5t-77 -57.5t-96.5 -18.5z" />
    <glyph glyph-name="product" unicode="&#x220f;" horiz-adv-x="687" 
d="M84 -189v914h519v-914h-64v854h-392v-854h-63z" />
    <glyph glyph-name="radical" unicode="&#x221a;" horiz-adv-x="508" 
d="M131 281l171 -395l143 839h63l-158 -914h-84l-169 383l-71 -31l-26 59z" />
    <glyph glyph-name="summation" unicode="&#x2211;" horiz-adv-x="579" 
d="M318 268l-294 398v59h531v-60h-457l294 -397l-294 -397h457v-60h-531v59z" />
    <glyph glyph-name="integral" unicode="&#x222b;" horiz-adv-x="241" 
d="M102 504q0 65 9.5 109t26.5 70.5t41 38t54 11.5q31 0 49.5 -14.5t18.5 -40.5q0 -19 -10.5 -31t-28.5 -12q-16 0 -25.5 10t-9.5 24q0 19 13 32q-45 0 -61.5 -35t-16.5 -107q0 -47 2 -87.5t2 -82.5v-356q0 -65 -9.5 -108.5t-26.5 -70t-41 -38t-54 -11.5q-31 0 -49.5 14
t-18.5 40q0 19 12 31t27 12q17 0 26 -10t9 -24q0 -19 -13 -32q45 0 61.5 35t16.5 107q0 47 -2 87.5t-2 82.5v356z" />
    <glyph glyph-name="infinity" unicode="&#x221e;" horiz-adv-x="790" 
d="M592 416q39 0 71 -12t55 -33.5t35.5 -51.5t12.5 -66q0 -74 -46 -117.5t-122 -43.5q-57 0 -106.5 29t-97.5 86q-44 -50 -91.5 -82.5t-105.5 -32.5q-39 0 -71 11.5t-54.5 32.5t-35 51t-12.5 66q0 37 12.5 67t35.5 51.5t55 33t71 11.5q48 0 97 -25.5t101 -87.5
q52 61 97.5 87t98.5 26zM198 147q51 0 87 30.5t72 76.5q-44 54 -81 80t-83 26q-43 0 -72.5 -28t-29.5 -79q0 -22 7.5 -41.5t22 -33.5t34 -22.5t43.5 -8.5zM590 360q-44 0 -79.5 -26.5t-77.5 -77.5q46 -57 83.5 -83t80.5 -26t73 29t30 77q0 45 -30 76t-80 31z" />
    <glyph glyph-name="Delta" unicode="&#x394;" horiz-adv-x="701" 
d="M350 717l351 -717h-701zM350 583l-251 -523h503z" />
    <glyph glyph-name="Delta" unicode="&#x2206;" horiz-adv-x="701" 
d="M350 717l351 -717h-701zM350 583l-251 -523h503z" />
    <glyph glyph-name="Omega" unicode="&#x3a9;" horiz-adv-x="770" 
d="M391 738q66 0 129.5 -20t113.5 -59.5t81 -98.5t31 -137q0 -64 -20 -114t-51 -86t-69 -59t-73 -32v-72h187v-60h-256v174q99 17 157 82t58 167q0 62 -23 110.5t-62 81.5t-91.5 50t-111.5 17t-111.5 -17t-91.5 -50t-62 -81.5t-23 -110.5q0 -102 58 -167t157 -82v-174h-256
v60h187v72q-35 9 -73 32t-69 59t-51 86t-20 114q0 78 31 137t81 98.5t113.5 59.5t129.5 20z" />
    <glyph glyph-name="Omega" unicode="&#x2126;" horiz-adv-x="770" 
d="M391 738q66 0 129.5 -20t113.5 -59.5t81 -98.5t31 -137q0 -64 -20 -114t-51 -86t-69 -59t-73 -32v-72h187v-60h-256v174q99 17 157 82t58 167q0 62 -23 110.5t-62 81.5t-91.5 50t-111.5 17t-111.5 -17t-91.5 -50t-62 -81.5t-23 -110.5q0 -102 58 -167t157 -82v-174h-256
v60h187v72q-35 9 -73 32t-69 59t-51 86t-20 114q0 78 31 137t81 98.5t113.5 59.5t129.5 20z" />
    <glyph glyph-name="pi" unicode="&#x3c0;" horiz-adv-x="621" 
d="M99 0v475h-75v60h573v-60h-76v-333q0 -27 1 -43.5t7.5 -25.5t20 -12.5t38.5 -3.5h9v-57h-28q-35 0 -56.5 5t-34 19.5t-17 39.5t-4.5 66v345h-294v-475h-64z" />
    <glyph glyph-name="Euro" unicode="&#x20ac;" horiz-adv-x="765" 
d="M222 266q19 -114 76 -172t135 -58q94 0 144 46.5t63 140.5h87q-9 -58 -35 -102t-65 -74t-88 -45t-104 -15q-66 0 -118.5 20t-91.5 56.5t-64 88t-35 114.5h-126l40 60h79q-1 10 -1 19.5v20.5v25.5t2 25.5h-120l40 60h89q12 61 39 110.5t66 83.5t90 52.5t112 18.5
q55 0 103.5 -16t86.5 -46t63.5 -74t33.5 -99h-88q-11 92 -61 139t-137 47q-77 0 -135 -53.5t-79 -162.5h271l-41 -60h-237q-1 -13 -1.5 -25t-0.5 -26v-20.5t1 -19.5h197l-41 -60h-149z" />
    <glyph glyph-name="fi" unicode="&#xfb01;" horiz-adv-x="746" 
d="M638 439v-379q0 -14 6.5 -17.5t22.5 -5.5l41 -4v-33h-226v33l42 4q15 2 21.5 5.5t6.5 17.5v415q0 12 -5.5 18t-22.5 8l-43 5v32h158zM345 0h-276v33l42 4q16 2 22 5.5t6 17.5v427h-74v51h74v68q0 39 9.5 66t31 43t57.5 23t90 7h78v-59h-86q-27 0 -44.5 -2.5t-28.5 -10
t-15.5 -22t-4.5 -38.5v-75h179v-51h-179v-426q0 -14 6 -18t22 -5l91 -4v-34zM552 745h86v-119h-86v119z" />
    <glyph glyph-name="fl" unicode="&#xfb02;" horiz-adv-x="741" 
d="M345 0h-276v33l42 4q16 2 22 5.5t6 17.5v427h-74v51h74v68q0 39 9.5 66t31 43t57.5 23t90 7h78v-59h-86q-27 0 -44.5 -2.5t-28.5 -10t-15.5 -22t-4.5 -38.5v-75h179v-51h-179v-426q0 -14 6 -18t22 -5l91 -4v-34zM626 745l-1 -100v-585q0 -14 6.5 -17.5t22.5 -5.5l41 -4
v-33h-226v33l41 4q16 2 22.5 5.5t6.5 17.5v625q0 14 -6.5 17.5t-22.5 5.5l-41 4v33h157z" />
    <glyph glyph-name="breve" unicode="&#x2d8;" horiz-adv-x="378" 
d="M104 745q8 -91 84 -91q38 0 60.5 23t26.5 68h64q-5 -63 -42.5 -103.5t-109.5 -40.5q-69 0 -105.5 40.5t-41.5 103.5h64v0z" />
    <glyph glyph-name="caron" unicode="&#x2c7;" horiz-adv-x="397" 
d="M36 745h60l103 -73l102 73h60l-140 -142h-47z" />
    <glyph glyph-name="circumflex" unicode="&#x2c6;" horiz-adv-x="397" 
d="M361 603h-60l-101 73l-104 -73h-60l141 142h47z" />
    <glyph glyph-name="dotaccent" unicode="&#x2d9;" horiz-adv-x="134" 
d="M24 745h86v-119h-86v119z" />
    <glyph glyph-name="dot" horiz-adv-x="329" 
d="M135 745h86v-119h-86v119z" />
    <glyph glyph-name="dotaccent.low" horiz-adv-x="134" 
d="M24 -54h86v-119h-86v119z" />
    <glyph glyph-name="hungarumlaut" unicode="&#x2dd;" horiz-adv-x="427" 
d="M59 603h-35l83 142h131zM223 603h-35l83 142h131z" />
    <glyph glyph-name="commaaccent" horiz-adv-x="150" 
d="M27 -37h99v-98l-46 -93h-56l40 99h-37v92z" />
    <glyph glyph-name="ogonek" unicode="&#x2db;" horiz-adv-x="257" 
d="M203 0q-40 -19 -67.5 -42.5t-27.5 -49.5q0 -29 22.5 -40.5t48.5 -11.5q31 0 51 9v-44q-13 -6 -33 -9t-43 -3q-21 0 -43.5 4.5t-41.5 14.5t-31 27t-12 43q0 32 31.5 59.5t76.5 42.5h69z" />
    <glyph glyph-name="ring" unicode="&#x2da;" horiz-adv-x="236" 
d="M118 768q19 0 36 -6.5t30 -18.5t20.5 -28.5t7.5 -35.5q0 -38 -27.5 -63t-66.5 -25q-40 0 -67 25t-27 63q0 19 7.5 35.5t20.5 28.5t30 18.5t36 6.5zM118 724q-17 0 -31 -13t-14 -32q0 -20 14 -32t31 -12t31 12t14 32q0 19 -14 32t-31 13z" />
    <glyph glyph-name="tilde" unicode="&#x2dc;" horiz-adv-x="412" 
d="M274 674q25 0 38 13t18 38h61q-10 -52 -39 -82t-73 -30q-23 0 -43 8t-38 18t-33.5 18t-30.5 8q-24 0 -36 -14t-19 -38h-60q8 56 40 84t74 28q23 0 42.5 -8t36.5 -17.5t32 -17.5t30 -8z" />
    <glyph glyph-name="caron.slovak" horiz-adv-x="133" 
d="M20 745h93v-99l-58 -125h-31l36 131h-40v93z" />
    <glyph glyph-name="uni032C" unicode="&#x32c;" horiz-adv-x="397" 
d="M36 0h60l103 -73l102 73h60l-140 -142h-47z" />
    <glyph glyph-name="zero.slashed" horiz-adv-x="663" 
d="M48 365q0 88 19 158t55 119t89 74.5t121 25.5t120.5 -25.5t88.5 -74.5t55 -119t19 -158q0 -89 -19 -159t-55 -119t-88.5 -74.5t-120.5 -25.5t-121 25.5t-89 74.5t-55 119t-19 159zM140 365q0 -57 6 -103l362 256q-19 84 -62 129.5t-114 45.5q-99 0 -145.5 -87t-46.5 -241
zM523 365q0 26 -1.5 49.5t-3.5 46.5l-362 -257q19 -81 62.5 -124.5t113.5 -43.5q98 0 144.5 87t46.5 242z" />
    <glyph glyph-name="one.pof" horiz-adv-x="380" 
d="M265 62q0 -14 5.5 -18.5t21.5 -6.5l44 -4v-33h-257v33l74 4q16 2 21 6.5t5 18.5v485h-150v33q48 3 80.5 8t55 14.5t38.5 23t32 33.5h31l-1 -166v-431z" />
    <glyph glyph-name="two.pof" horiz-adv-x="562" 
d="M511 76v-76h-488v67q119 81 195 141.5t119.5 108.5t60 87.5t16.5 79.5q0 34 -10.5 59.5t-28.5 43t-42 26t-51 8.5q-43 0 -72.5 -14t-47.5 -38.5t-25 -59t-4 -75.5h-86q-3 57 15 100.5t50.5 73t77.5 45t96 15.5q45 0 85 -11.5t69.5 -34.5t47 -57t17.5 -78
q0 -53 -27.5 -100.5t-77.5 -95.5t-122 -100.5t-160 -114.5h393z" />
    <glyph glyph-name="three.pof" horiz-adv-x="576" 
d="M266 -12q-52 0 -94 14.5t-72.5 40t-48 60t-19.5 74.5h86q0 -30 10 -55.5t29 -45t46.5 -30.5t63.5 -11q34 0 63.5 8.5t51.5 26t34 43t12 60.5q0 34 -15 61t-41.5 45.5t-63.5 28t-81 9.5h-36v47h34q36 0 69.5 8.5t59 26t41 43t15.5 60.5q0 56 -35.5 87.5t-99.5 31.5
q-36 0 -63 -11t-46 -30t-28.5 -44.5t-9.5 -55.5h-86q2 38 19.5 72.5t48 60t73.5 40.5t96 15q43 0 83 -9.5t71 -29t49 -50t18 -72.5q0 -37 -15.5 -64.5t-39 -46.5t-51 -30t-51.5 -16v-1q37 -5 69.5 -18t56.5 -34.5t38 -50.5t14 -66q0 -49 -20.5 -85t-55.5 -60t-81.5 -35.5
t-97.5 -11.5z" />
    <glyph glyph-name="four.pof" horiz-adv-x="603" 
d="M434 61q0 -14 5.5 -18t20.5 -6l45 -4v-33h-251v33l67 4q15 1 20.5 5.5t5.5 18.5v121h-333v56l348 415h73l-1 -165v-238h129v-68h-129v-121zM347 556l-257 -306h257v306z" />
    <glyph glyph-name="five.pof" horiz-adv-x="591" 
d="M283 -12q-51 0 -92.5 15t-71.5 41t-47 60.5t-18 73.5h85q0 -29 9.5 -55t28.5 -45.5t46 -31t62 -11.5q79 0 120.5 49.5t41.5 130.5q0 44 -12.5 76t-34.5 53t-50.5 31.5t-59.5 10.5q-60 0 -102 -28.5t-62 -80.5l-51 10l42 366h384l-3 -76h-339l-23 -214q27 39 73 58.5
t97 19.5q46 0 88 -12.5t73.5 -39t50.5 -68.5t19 -101q0 -55 -20 -98t-54.5 -73t-80.5 -45.5t-99 -15.5z" />
    <glyph glyph-name="six.pof" horiz-adv-x="595" 
d="M306 384q-36 0 -65.5 -13t-50 -36.5t-32 -56.5t-11.5 -72q0 -42 12.5 -74t34 -53.5t49.5 -32.5t59 -11q37 0 65 14.5t47.5 38.5t29.5 56t10 67q0 33 -9 64t-27 55t-46 39t-66 15zM328 621q-47 0 -81.5 -24t-57 -64t-34.5 -92t-13 -109q14 28 34.5 47.5t44.5 32t49 18.5
t49 6q46 0 87 -15.5t72 -44.5t49 -70.5t18 -93.5q0 -49 -19 -90t-51.5 -71t-77 -46.5t-95.5 -16.5q-66 0 -113 23.5t-77 65.5t-44 99.5t-14 124.5q0 94 22 163.5t60 114.5t89 67t109 22q34 0 68 -10t62 -30.5t48 -52t26 -73.5h-85q-6 55 -38.5 87t-86.5 32z" />
    <glyph glyph-name="seven.pof" horiz-adv-x="453" 
d="M1 653h473v-76q-48 -42 -99 -96.5t-92.5 -125t-68 -158.5t-24.5 -197h-103q4 101 33.5 186t74.5 155.5t101.5 128.5t116.5 105h-412v78z" />
    <glyph glyph-name="eight.pof" horiz-adv-x="613" 
d="M309 -12q-53 0 -100 11.5t-82 34.5t-55 56.5t-20 77.5q0 34 14.5 62.5t38.5 50t55.5 36t66.5 22.5l-6 3q-63 26 -99 68t-36 98q0 35 16 64.5t45.5 50.5t71 33t91.5 12q51 0 92 -11t70 -30.5t45 -47t16 -60.5q0 -29 -13 -54.5t-34 -46t-48.5 -36t-57.5 -24.5l22 -9
q33 -14 62.5 -31t51 -38.5t34 -47.5t12.5 -58q0 -42 -19.5 -76.5t-53.5 -59t-80.5 -37.5t-99.5 -13zM138 170q0 -64 47 -99.5t124 -35.5q75 0 121 32t46 89q0 26 -12.5 47t-35 38.5t-52.5 32t-64 28.5l-49 22q-66 -20 -95.5 -61.5t-29.5 -92.5zM452 511q0 27 -11 47.5
t-30.5 34.5t-45.5 21t-57 7q-65 0 -103 -28.5t-38 -70.5q0 -24 10 -42.5t28 -34t44 -29t58 -27.5l37 -16q51 18 79.5 55t28.5 83z" />
    <glyph glyph-name="nine.pof" horiz-adv-x="595" 
d="M289 273q36 0 65 13t50 36t32.5 56t11.5 72q0 42 -12.5 74t-34 53.5t-49.5 32.5t-59 11q-37 0 -65 -14.5t-47.5 -38.5t-29.5 -56t-10 -66q0 -33 9 -64t27.5 -55t46 -39t65.5 -15zM266 35q48 0 82.5 24t57 64t34 92t12.5 109q-14 -28 -34.5 -47.5t-44 -32t-48.5 -18
t-49 -5.5q-47 0 -88 15.5t-71.5 44.5t-48.5 70.5t-18 93.5q0 49 19 90t52 70.5t77 46t95 16.5q65 0 112 -23.5t77 -65.5t44.5 -99.5t14.5 -124.5q0 -94 -22 -163t-60 -114.5t-89 -67.5t-109 -22q-34 0 -68 10t-62 31t-48 52.5t-26 73.5h85q5 -55 37.5 -87.5t86.5 -32.5z" />
    <glyph glyph-name="zero.pof" horiz-adv-x="617" 
d="M47 329q0 81 18 144t52 106.5t82.5 66t109.5 22.5q60 0 108.5 -22.5t82 -66t52 -106.5t18.5 -144t-18.5 -144.5t-52 -107t-82 -66.5t-108.5 -23q-61 0 -109.5 23t-82.5 66.5t-52 107t-18 144.5zM140 329q0 -140 41.5 -217t127.5 -77q85 0 126 77t41 217q0 138 -41.5 215
t-125.5 77q-86 0 -127.5 -76.5t-41.5 -215.5z" />
    <glyph glyph-name="zero.slashed.pof" horiz-adv-x="617" 
d="M47 329q0 81 18 144t52 106.5t82.5 66t109.5 22.5q60 0 108.5 -22.5t82 -66t52 -106.5t18.5 -144t-18.5 -144.5t-52 -107t-82 -66.5t-108.5 -23q-61 0 -109.5 23t-82.5 66.5t-52 107t-18 144.5zM140 329q0 -30 1.5 -57t5.5 -51l318 233q-16 81 -54.5 124t-101.5 43
q-86 0 -127.5 -76.5t-41.5 -215.5zM476 329q0 36 -3 69l-314 -230q19 -65 56 -99t94 -34q85 0 126 77t41 217z" />
    <glyph glyph-name="one.tlf" 
d="M434 60q0 -14 6.5 -17.5t22.5 -5.5l52 -4v-33h-280v33l85 4q16 1 22 5t6 18v555h-168v32q55 4 91.5 10t61 16.5t41.5 25.5t34 36h27l-1 -183v-492z" />
    <glyph glyph-name="two.tlf" 
d="M621 78v-78h-535v63q132 92 216.5 160.5t133 123t67 99t18.5 88.5q0 40 -12 70t-32.5 50t-48 29.5t-58.5 9.5q-50 0 -84 -15.5t-54 -43t-27.5 -65.5t-3.5 -84h-88q-3 62 16.5 110t55 80.5t84.5 49.5t105 17q48 0 91.5 -13.5t76 -39.5t51.5 -64t19 -86q0 -59 -28 -110.5
t-82 -105t-133.5 -113t-182.5 -132.5h435z" />
    <glyph glyph-name="three.tlf" 
d="M332 -13q-57 0 -103 16t-78.5 44t-50.5 65t-20 79h87q0 -32 10.5 -60.5t31.5 -49.5t52 -33t72 -12q40 0 74 9.5t59 28.5t39.5 48t14.5 68q0 38 -17 69t-47.5 52.5t-72.5 33.5t-92 12h-44v46h44q41 0 78.5 10t66.5 29.5t46 48.5t17 68q0 63 -41 98.5t-115 35.5
q-41 0 -71.5 -12.5t-51 -33.5t-31 -49.5t-10.5 -61.5h-87q3 42 21 79t51 65.5t79.5 45t106.5 16.5q48 0 91.5 -10.5t76 -32t51.5 -55.5t19 -82q0 -43 -19.5 -74.5t-48 -52.5t-60.5 -32t-56 -14v-1q42 -3 79.5 -17.5t66 -38.5t45.5 -58t17 -76q0 -54 -23 -93.5t-61.5 -66
t-89 -39t-106.5 -12.5z" />
    <glyph glyph-name="four.tlf" 
d="M644 275v-70h-147v-145q0 -14 6.5 -17.5t22.5 -5.5l52 -4v-33h-281v33l86 4q15 1 21.5 5t6.5 18v145h-368v59l382 461h73l-1 -182v-268h147zM411 625l-293 -350h293v350z" />
    <glyph glyph-name="five.tlf" 
d="M344 -13q-57 0 -103 16.5t-78.5 45t-50.5 66t-20 79.5h87q0 -33 10.5 -61.5t31.5 -50t52 -34t72 -12.5q93 0 140.5 55t47.5 146q0 49 -14.5 85.5t-39.5 60.5t-57 36t-68 12q-71 0 -117.5 -31t-69.5 -90l-52 12l47 403h417l-5 -79h-371l-28 -255q30 48 83 72t110 24
q51 0 97.5 -14t81.5 -43.5t56 -76t21 -111.5q0 -61 -22 -108.5t-60 -80t-89 -49.5t-109 -17z" />
    <glyph glyph-name="six.tlf" 
d="M360 427q-41 0 -74.5 -15t-57.5 -41.5t-37 -63t-13 -80.5q0 -47 14.5 -82.5t39 -59.5t57 -36.5t67.5 -12.5q42 0 74.5 16.5t54.5 43.5t33.5 62.5t11.5 74.5q0 36 -10.5 70.5t-31.5 62t-53 44.5t-75 17zM388 693q-56 0 -96.5 -28.5t-67 -76t-39 -108.5t-12.5 -127
q15 34 38.5 59t50.5 40.5t55.5 23t53.5 7.5q56 0 102 -19t78.5 -52t50.5 -78.5t18 -99.5t-20.5 -99.5t-56.5 -78t-84 -51t-103 -18.5q-72 0 -123 26t-83.5 72.5t-48 110t-15.5 138.5q0 106 24.5 183t66.5 127t98.5 74t119.5 24q36 0 72.5 -11.5t66.5 -34.5t51.5 -57
t28.5 -80h-86q-8 62 -43.5 98t-96.5 36z" />
    <glyph glyph-name="seven.tlf" 
d="M94 725h522v-80q-54 -47 -111 -111t-104 -144.5t-76.5 -178t-28.5 -211.5h-105q7 114 40.5 209t84 173.5t113 143t127.5 118.5h-462v81z" />
    <glyph glyph-name="eight.tlf" 
d="M354 -13q-58 0 -108.5 13t-88 38t-59.5 62t-22 85q0 37 14.5 68.5t40 56t61.5 41.5t79 27l-16 7q-64 27 -103 72.5t-39 108.5q0 39 17 71t48.5 55.5t76 36.5t99.5 13q56 0 101 -12t77 -33.5t49 -51.5t17 -67q0 -34 -14.5 -63t-38 -52t-54.5 -40t-64 -27l29 -12
q36 -15 67 -33.5t54.5 -42t37 -52.5t13.5 -65q0 -47 -20.5 -84.5t-57.5 -64t-87 -41t-109 -14.5zM162 186q0 -69 52.5 -109.5t139.5 -40.5q42 0 77 9.5t60 27t39 43t14 58.5q0 29 -15.5 53t-41 44.5t-59 37.5t-68.5 32l-51 21q-75 -20 -111 -67t-36 -109zM516 570
q0 60 -46 91.5t-118 31.5q-38 0 -67.5 -9t-50.5 -25t-32 -36.5t-11 -42.5q0 -26 11 -47t31.5 -38.5t50 -33t65.5 -31.5l41 -18q60 21 93 62.5t33 95.5z" />
    <glyph glyph-name="nine.tlf" 
d="M346 302q40 0 73.5 15t57.5 41.5t37.5 63t13.5 80.5q0 47 -14.5 82.5t-39 59.5t-57 36.5t-67.5 12.5q-42 0 -74.5 -16.5t-54.5 -43.5t-33.5 -62.5t-11.5 -73.5q0 -36 10 -70.5t31 -62.5t53 -45t76 -17zM317 36q57 0 97.5 28.5t66.5 76t38.5 109t13.5 127.5
q-15 -35 -38.5 -59.5t-50.5 -40.5t-55.5 -23t-53.5 -7q-56 0 -102 19t-78.5 52t-50.5 78.5t-18 99.5t20.5 99t56.5 78t84 51t103 18q72 0 123 -26t83.5 -72.5t48 -110t15.5 -138.5q0 -106 -24.5 -183t-66.5 -127t-98.5 -74t-119.5 -24q-36 0 -72.5 11.5t-66.5 34.5t-52 57
t-29 80h87q8 -62 43.5 -98t95.5 -36z" />
    <glyph glyph-name="zero.tlf" 
d="M70 365q0 88 18.5 158t54.5 119t89 74.5t121 25.5t120.5 -25.5t88.5 -74.5t55 -119t19 -158q0 -89 -18.5 -159t-54.5 -119t-88.5 -74.5t-120.5 -25.5t-121 25.5t-89 74.5t-55 119t-19 159zM162 365q0 -155 46.5 -242t145.5 -87q49 0 85 22.5t59 64.5t34.5 103t11.5 139
q0 154 -46.5 241t-144.5 87q-99 0 -145 -87t-46 -241z" />
    <glyph glyph-name="zero.slashed.tlf" 
d="M70 365q0 88 18.5 158t54.5 119t89 74.5t121 25.5t120.5 -25.5t88.5 -74.5t55 -119t19 -158q0 -89 -18.5 -159t-54.5 -119t-88.5 -74.5t-120.5 -25.5t-121 25.5t-89 74.5t-55 119t-19 159zM162 365q0 -55 6 -103l361 256q-19 84 -62 129.5t-114 45.5q-99 0 -145 -87
t-46 -241zM544 365q0 26 -1.5 49.5t-3.5 46.5l-361 -256q19 -82 62.5 -125.5t113.5 -43.5q49 0 85 22.5t59 64.5t34.5 103t11.5 139z" />
    <glyph glyph-name="one.case" horiz-adv-x="423" 
d="M293 63q0 -14 6.5 -18.5t23.5 -6.5l50 -4v-34h-284v34l84 4q17 1 22.5 6t5.5 19v548h-167v34q54 3 90 9.5t61 16.5t42.5 25.5t34.5 36.5h32l-1 -184v-486z" />
    <glyph glyph-name="two.case" horiz-adv-x="625" 
d="M566 82v-82h-540v70q132 91 216.5 158.5t133 121.5t67 98t18.5 88q0 39 -11.5 68t-32 48.5t-47.5 29t-57 9.5q-48 0 -81.5 -15.5t-53.5 -43t-27.5 -65.5t-4.5 -84h-93q-3 63 16.5 111t56 81t86 50t106.5 17q49 0 92.5 -13t76.5 -38.5t52 -63t19 -86.5q0 -59 -29.5 -111.5
t-84.5 -106.5t-134.5 -112.5t-179.5 -128.5h436z" />
    <glyph glyph-name="three.case" horiz-adv-x="639" 
d="M294 -13q-57 0 -104 16t-80 44.5t-52 66t-21 81.5h92q0 -33 11 -61.5t32 -49.5t52 -33.5t71 -12.5q39 0 72.5 9.5t57.5 28.5t38 47.5t14 67.5q0 38 -16.5 68.5t-46.5 51.5t-71.5 32t-90.5 11h-42v50h41q40 0 77.5 9.5t66 29t45.5 48t17 67.5q0 63 -40.5 98t-112.5 35
q-40 0 -70.5 -12t-51 -33.5t-31 -50t-10.5 -61.5h-92q2 42 21 80t52.5 66.5t81 45t106.5 16.5q48 0 92 -10.5t77.5 -32t53.5 -55.5t20 -81q0 -42 -18.5 -73t-45.5 -52t-58 -33t-56 -16v-1q42 -5 78.5 -19.5t63.5 -38.5t43 -57t16 -74q0 -54 -23 -94t-61.5 -66.5t-89.5 -39
t-108 -12.5z" />
    <glyph glyph-name="four.case" horiz-adv-x="666" 
d="M476 63q0 -15 6 -19t23 -6l51 -4v-34h-280v34l79 4q16 1 22 5.5t6 19.5v140h-369v61l385 461h78l-1 -183v-265h145v-74h-145v-140zM383 620l-288 -343h288v343z" />
    <glyph glyph-name="five.case" horiz-adv-x="657" 
d="M314 -13q-57 0 -103 17t-79 45.5t-51.5 66.5t-20.5 81h92q0 -33 10.5 -61.5t31.5 -50.5t51.5 -34.5t69.5 -12.5q89 0 136 55t47 145q0 49 -14.5 85t-38.5 60t-56 35.5t-67 11.5q-68 0 -114.5 -31.5t-69.5 -90.5l-55 12l47 405h423l-4 -82h-374l-27 -244q30 45 82 67.5
t109 22.5q51 0 97.5 -14t81.5 -43.5t56 -76t21 -111.5q0 -61 -22 -109t-60 -81t-89.5 -50t-109.5 -17z" />
    <glyph glyph-name="six.case" horiz-adv-x="659" 
d="M338 426q-40 0 -73 -14.5t-56.5 -40.5t-36.5 -62.5t-13 -80.5q0 -47 14 -82.5t38 -59.5t55.5 -36t66.5 -12q42 0 73.5 16t53.5 43t33 62.5t11 74.5q0 36 -10 70.5t-30.5 61.5t-52 43.5t-73.5 16.5zM364 691q-54 0 -93 -27.5t-64.5 -73t-38.5 -104.5t-14 -123q15 32 38 55
t50 37.5t55 21.5t54 7q53 0 99 -18t79.5 -50.5t52.5 -78.5t19 -102q0 -54 -21 -99.5t-57 -78.5t-85 -51.5t-105 -18.5q-72 0 -123.5 26t-85 72.5t-49 110.5t-15.5 139q0 105 24.5 181.5t66.5 127t98.5 74.5t120.5 24q37 0 74.5 -11t68 -34t52.5 -57.5t29 -81.5h-91
q-7 62 -43 97.5t-96 35.5z" />
    <glyph glyph-name="seven.case" horiz-adv-x="504" 
d="M4 725h524v-82q-54 -47 -110.5 -109t-103 -141t-76 -177t-27.5 -216h-111q5 113 38 207.5t83 173t113 143t129 117.5h-459v84z" />
    <glyph glyph-name="eight.case" horiz-adv-x="678" 
d="M341 -13q-59 0 -110 13t-89.5 38t-60.5 62.5t-22 85.5q0 38 15 69t41.5 55t62 41t76.5 26l-11 5q-68 29 -107.5 74.5t-39.5 108.5q0 39 17.5 71.5t50 56t77.5 36.5t101 13t101.5 -12t78 -33.5t50 -52t17.5 -67.5q0 -33 -14 -61t-38 -51.5t-54.5 -40.5t-63.5 -27l25 -10
q37 -16 69 -35t56 -42.5t37.5 -52t13.5 -64.5q0 -47 -21.5 -85t-59 -65t-88.5 -41.5t-110 -14.5zM151 188q0 -70 52 -110t138 -40q42 0 76.5 9.5t59 26.5t38.5 42t14 57q0 29 -14.5 53t-39.5 43.5t-58.5 36.5t-70.5 32l-53 22q-37 -10 -63.5 -27.5t-44 -40t-26 -49
t-8.5 -55.5zM501 569q0 59 -45.5 90.5t-115.5 31.5q-73 0 -115.5 -32.5t-42.5 -78.5q0 -26 11 -47t31.5 -38t49 -32.5t64.5 -30.5l42 -18q57 20 89 61.5t32 93.5z" />
    <glyph glyph-name="nine.case" horiz-adv-x="659" 
d="M321 303q40 0 73 14.5t56.5 40.5t36.5 62.5t13 80.5q0 47 -14 82.5t-38 59.5t-55.5 36t-66.5 12q-41 0 -73 -16t-54 -43t-33 -62.5t-11 -73.5q0 -36 10 -70.5t30.5 -62t52 -44t73.5 -16.5zM295 38q54 0 93 27.5t64.5 73t38.5 104.5t14 123q-15 -32 -38 -55t-50 -37.5
t-55 -21t-54 -6.5q-53 0 -99 18t-79.5 50.5t-52.5 78.5t-19 102q0 54 21 99.5t57 78.5t85 51t105 18q72 0 123.5 -26.5t85 -73t49 -110t15.5 -138.5q0 -105 -24.5 -181.5t-66.5 -127t-98.5 -74.5t-120.5 -24q-38 0 -75 11.5t-67.5 34.5t-53 57.5t-29.5 81.5h92q7 -62 43 -98
t96 -36z" />
    <glyph glyph-name="zero.case" horiz-adv-x="677" 
d="M50 365q0 89 19.5 159t57 118.5t91 74t121.5 25.5q67 0 120.5 -25.5t90.5 -74t56.5 -118.5t19.5 -159q0 -90 -19.5 -160t-56.5 -118.5t-90.5 -74t-120.5 -25.5q-68 0 -121.5 25.5t-91 74t-57 118.5t-19.5 160zM149 365q0 -155 46.5 -241t143.5 -86q95 0 141 86t46 241
q0 154 -46 240t-141 86q-97 0 -143.5 -86t-46.5 -240z" />
    <glyph glyph-name="zero.slashed.case" horiz-adv-x="677" 
d="M50 365q0 89 19.5 159t57 118.5t91 74t121.5 25.5q67 0 120.5 -25.5t90.5 -74t56.5 -118.5t19.5 -159q0 -90 -19.5 -160t-56.5 -118.5t-90.5 -74t-120.5 -25.5q-68 0 -121.5 25.5t-91 74t-57 118.5t-19.5 160zM149 365q0 -32 1.5 -60t5.5 -54l357 258q-18 88 -61 135
t-113 47q-97 0 -143.5 -86t-46.5 -240zM526 365q0 23 -1 43.5t-3 40.5l-354 -256q20 -75 62.5 -115t108.5 -40q95 0 141 86t46 241z" />
    <glyph glyph-name="uni21B2" unicode="&#x21b2;" horiz-adv-x="840" 
d="M754 745v-506h-625l241 -237l-39 -43l-307 307l307 307l39 -43l-236 -231h560v446h60z" />
    <glyph glyph-name="uni21B3" unicode="&#x21b3;" horiz-adv-x="840" 
d="M86 745h60v-446h559l-235 231l39 43l307 -307l-307 -307l-39 43l240 237h-624v506z" />
    <glyph glyph-name="uni21B0" unicode="&#x21b0;" horiz-adv-x="840" 
d="M331 573l39 -43l-236 -231h620v-487h-60v427h-565l241 -237l-39 -43l-307 307z" />
    <glyph glyph-name="uni21B1" unicode="&#x21b1;" horiz-adv-x="840" 
d="M86 300h60v-1h559l-235 231l39 43l307 -307l-307 -307l-39 43l240 237h-564v-427h-60v488z" />
    <glyph glyph-name="uni2190" unicode="&#x2190;" horiz-adv-x="840" 
d="M331 573l39 -43l-236 -231h670v-60h-675l241 -237l-39 -43l-307 307z" />
    <glyph glyph-name="uni2191" unicode="&#x2191;" horiz-adv-x="840" 
d="M727 435l-43 -40l-234 237v-632h-60v633l-234 -238l-43 40l307 306z" />
    <glyph glyph-name="uni2192" unicode="&#x2192;" horiz-adv-x="840" 
d="M816 266l-307 -307l-39 43l240 237h-674v60h669l-235 231l39 43z" />
    <glyph glyph-name="uni2193" unicode="&#x2193;" horiz-adv-x="840" 
d="M420 -16l-307 306l43 40l234 -239v634h60v-633l234 238l43 -40z" />
    <glyph glyph-name="uni2196" unicode="&#x2196;" horiz-adv-x="840" 
d="M583 538v-56h-337l476 -477l-41 -41l-477 476v-337h-56v435h435z" />
    <glyph glyph-name="uni2197" unicode="&#x2197;" horiz-adv-x="840" 
d="M692 538v-435h-55v337l-478 -476l-41 41l476 477h-336v56h434z" />
    <glyph glyph-name="uni2198" unicode="&#x2198;" horiz-adv-x="840" 
d="M692 0h-434v56h336l-476 477l41 41l478 -476v337h55v-435z" />
    <glyph glyph-name="uni2199" unicode="&#x2199;" horiz-adv-x="840" 
d="M148 435h56v-337l477 476l41 -41l-476 -477h337v-56h-435v435z" />
    <glyph glyph-name="uni219E" unicode="&#x219e;" horiz-adv-x="840" 
d="M331 573l39 -43l-236 -231h173l274 274l39 -43l-236 -231h420v-60h-425l241 -237l-39 -43l-280 280h-172l241 -237l-39 -43l-307 307z" />
    <glyph glyph-name="uni219F" unicode="&#x219f;" horiz-adv-x="840" 
d="M727 435l-43 -40l-234 237v-171l277 -276l-43 -40l-234 237v-382h-60v383l-234 -238l-43 40l277 277v171l-234 -238l-43 40l307 306z" />
    <glyph glyph-name="uni21A0" unicode="&#x21a0;" horiz-adv-x="840" 
d="M816 266l-307 -307l-39 43l240 237h-171l-280 -280l-39 43l240 237h-424v60h418l-234 231l39 43l274 -274h172l-235 231l39 43z" />
    <glyph glyph-name="uni21A1" unicode="&#x21a1;" horiz-adv-x="840" 
d="M420 -16l-307 306l43 40l234 -239v172l-277 277l43 40l234 -239v384h60v-383l234 238l43 -40l-277 -276v-172l234 238l43 -40z" />
    <glyph glyph-name="uni21A2" unicode="&#x21a2;" horiz-adv-x="840" 
d="M331 573l39 -43l-236 -231h346l275 274l39 -43l-264 -264l264 -264l-39 -43l-281 280h-345l241 -237l-39 -43l-307 307z" />
    <glyph glyph-name="uni21A3" unicode="&#x21a3;" horiz-adv-x="840" 
d="M816 267l-307 -307l-39 43l240 237h-344l-281 -280l-39 43l264 264l-264 264l39 43l275 -274h345l-235 231l39 43z" />
    <glyph glyph-name="uni21A4" unicode="&#x21a4;" horiz-adv-x="840" 
d="M754 0h-60v239h-565l241 -237l-39 -43l-307 307l307 307l39 -43l-236 -231h560v239h60v-538z" />
    <glyph glyph-name="uni21A5" unicode="&#x21a5;" horiz-adv-x="840" 
d="M727 435l-43 -40l-234 237v-572h232v-60h-535v60h243v573l-234 -238l-43 40l307 306z" />
    <glyph glyph-name="uni21A6" unicode="&#x21a6;" horiz-adv-x="840" 
d="M86 538h60v-239h559l-235 231l39 43l307 -307l-307 -307l-39 43l240 237h-564v-239h-60v538z" />
    <glyph glyph-name="uni21A7" unicode="&#x21a7;" horiz-adv-x="840" 
d="M420 -16l-307 306l43 40l234 -239v574h-243v60h535v-60h-232v-573l234 238l43 -40z" />
    <glyph glyph-name="uni25A0" unicode="&#x25a0;" horiz-adv-x="854" 
d="M159 538h536v-538h-536v538z" />
    <glyph glyph-name="uni25A1" unicode="&#x25a1;" horiz-adv-x="854" 
d="M159 538h536v-538h-536v538zM223 64h408v411h-408v-411z" />
    <glyph glyph-name="uni25CB" unicode="&#x25cb;" horiz-adv-x="851" 
d="M147 265q0 58 22 108.5t59.5 88.5t88 60t108.5 22t108.5 -22t88.5 -60t60 -88.5t22 -108.5t-22 -108.5t-60 -88t-88.5 -59.5t-108.5 -22t-108.5 22t-88 59.5t-59.5 88t-22 108.5zM425 48q44 0 83 16.5t68 45.5t45.5 68.5t16.5 86.5t-16.5 87t-45.5 69t-68 45.5t-83 16.5
t-82.5 -16.5t-67.5 -45.5t-45.5 -69t-16.5 -87q0 -45 16.5 -85t45.5 -69t67.5 -46t82.5 -17z" />
    <glyph glyph-name="uni25CF" unicode="&#x25cf;" horiz-adv-x="851" 
d="M147 265q0 58 22 108.5t59.5 88.5t88 60t108.5 22t108.5 -22t88.5 -60t60 -88.5t22 -108.5t-22 -108.5t-60 -88t-88.5 -59.5t-108.5 -22t-108.5 22t-88 59.5t-59.5 88t-22 108.5z" />
    <glyph glyph-name="onethird" unicode="&#x2153;" horiz-adv-x="865" 
d="M182 375q0 -8 3 -13t16 -7l22 -2v-20h-165v20l41 3q11 1 14.5 6t3.5 13v284h-91v26q26 1 45.5 4t34.5 8.5t26 14.5t22 21h29l-1 -103v-255zM80 0l509 725h70l-509 -725h-70zM662 -8q-33 0 -60.5 9.5t-48 26t-32.5 39.5t-13 50h64q0 -37 24.5 -64t66.5 -27q38 0 64 20
t26 62q0 43 -33.5 61.5t-82.5 18.5h-18v38h12q22 0 42 4.5t35.5 14.5t25 25.5t9.5 36.5q0 32 -22 51t-57 19q-39 0 -63 -24t-24 -63h-65q1 26 13.5 48t32.5 38.5t47.5 25.5t59.5 9q27 0 53.5 -6t47.5 -18t34 -31t13 -44q0 -38 -24 -61.5t-59 -35.5v-1q45 -11 70 -35.5
t25 -66.5q0 -32 -13 -54.5t-35.5 -37t-52 -21.5t-62.5 -7z" />
    <glyph glyph-name="uni2155" unicode="&#x2155;" horiz-adv-x="871" 
d="M182 375q0 -8 3 -13t16 -7l22 -2v-20h-165v20l41 3q11 1 14.5 6t3.5 13v284h-91v26q26 1 45.5 4t34.5 8.5t26 14.5t22 21h29l-1 -103v-255zM80 0l509 725h70l-509 -725h-70zM671 -8q-32 0 -58.5 10t-45.5 26.5t-29.5 39t-11.5 47.5h63q0 -35 22.5 -62t60.5 -27
q44 0 66.5 30t22.5 78q0 52 -27 76.5t-64 24.5q-30 0 -56.5 -18t-37.5 -52l-38 9l25 227h251v-56h-215l-13 -105q18 18 43.5 27t55.5 9q29 0 55.5 -7.5t46.5 -24.5t32 -43.5t12 -64.5q0 -33 -12.5 -59.5t-34.5 -45.5t-51 -29t-62 -10z" />
    <glyph glyph-name="uni2159" unicode="&#x2159;" horiz-adv-x="884" 
d="M182 375q0 -8 3 -13t16 -7l22 -2v-20h-165v20l41 3q11 1 14.5 6t3.5 13v284h-91v26q26 1 45.5 4t34.5 8.5t26 14.5t22 21h29l-1 -103v-255zM80 0l509 725h70l-509 -725h-70zM689 235q-42 0 -66.5 -28.5t-24.5 -77.5q0 -51 26 -77t63 -26q42 0 63.5 30.5t21.5 74.5
q0 21 -5 39.5t-15.5 33t-26 23t-36.5 8.5zM696 377q-23 0 -40.5 -12t-30 -32t-20 -47.5t-8.5 -57.5q18 22 45 32.5t60 10.5q22 0 47 -8t46 -24.5t35 -43t14 -63.5q0 -31 -12 -56.5t-33 -44t-50 -29t-62 -10.5q-42 0 -72.5 14.5t-50 41t-29 62t-9.5 77.5q0 55 13.5 97
t37 70.5t55 42.5t68.5 14q24 0 46.5 -6t41 -19t31.5 -32.5t18 -47.5h-64q-4 33 -24 52t-53 19z" />
    <glyph glyph-name="oneeighth" unicode="&#x215b;" horiz-adv-x="896" 
d="M182 375q0 -8 3 -13t16 -7l22 -2v-20h-165v20l41 3q11 1 14.5 6t3.5 13v284h-91v26q26 1 45.5 4t34.5 8.5t26 14.5t22 21h29l-1 -103v-255zM80 0l509 725h70l-509 -725h-70zM688 -8q-35 0 -65 7.5t-53 22t-36 36t-13 48.5q0 21 10 37.5t25 29t33.5 20.5t36.5 13
q-83 38 -83 105q0 45 41.5 72.5t105.5 27.5t104.5 -25.5t40.5 -67.5q0 -34 -28.5 -58.5t-66.5 -37.5l8 -3q45 -20 75 -44.5t30 -64.5q0 -27 -13 -48.5t-35.5 -37t-52.5 -24t-64 -8.5zM589 108q0 -40 27 -61t72 -21t70.5 18t25.5 50q0 16 -5.5 27.5t-17.5 21t-30 18t-43 19.5
l-34 14q-36 -13 -50.5 -37.5t-14.5 -48.5zM772 312q0 33 -25 49t-58 16q-35 0 -57.5 -14.5t-22.5 -42.5t23 -44t59 -31l25 -12q25 11 40.5 33t15.5 46z" />
    <glyph glyph-name="twothirds" unicode="&#x2154;" horiz-adv-x="978" 
d="M330 390v-57h-310v57q72 47 118.5 82t73.5 62.5t37.5 51.5t10.5 49q0 35 -20 55t-53 20q-51 0 -70.5 -32t-15.5 -83h-66q-2 36 10 64t33 46.5t49.5 28.5t61.5 10q61 0 101 -26.5t40 -82.5q0 -32 -20 -62.5t-53.5 -60.5t-77.5 -60t-91 -62h242zM193 0l509 725h70
l-509 -725h-70zM775 -8q-33 0 -60.5 9.5t-48 26t-32.5 39.5t-13 50h64q0 -37 24.5 -64t66.5 -27q38 0 64 20t26 62q0 43 -33.5 61.5t-82.5 18.5h-18v38h12q22 0 42 4.5t35.5 14.5t25 25.5t9.5 36.5q0 32 -22 51t-57 19q-39 0 -63 -24t-24 -63h-65q1 26 13.5 48t32.5 38.5
t47.5 25.5t59.5 9q27 0 53.5 -6t47.5 -18t34 -31t13 -44q0 -38 -24 -61.5t-59 -35.5v-1q45 -11 70 -35.5t25 -66.5q0 -32 -13 -54.5t-35.5 -37t-52 -21.5t-62.5 -7z" />
    <glyph glyph-name="uni2156" unicode="&#x2156;" horiz-adv-x="984" 
d="M330 390v-57h-310v57q72 47 118.5 82t73.5 62.5t37.5 51.5t10.5 49q0 35 -20 55t-53 20q-51 0 -70.5 -32t-15.5 -83h-66q-2 36 10 64t33 46.5t49.5 28.5t61.5 10q61 0 101 -26.5t40 -82.5q0 -32 -20 -62.5t-53.5 -60.5t-77.5 -60t-91 -62h242zM193 0l509 725h70
l-509 -725h-70zM784 -8q-32 0 -58.5 10t-45.5 26.5t-29.5 39t-11.5 47.5h63q0 -35 22.5 -62t60.5 -27q44 0 66.5 30t22.5 78q0 52 -27 76.5t-64 24.5q-30 0 -56.5 -18t-37.5 -52l-38 9l25 227h251v-56h-215l-13 -105q18 18 43.5 27t55.5 9q29 0 55.5 -7.5t46.5 -24.5
t32 -43.5t12 -64.5q0 -33 -12.5 -59.5t-34.5 -45.5t-51 -29t-62 -10z" />
    <glyph glyph-name="uni2157" unicode="&#x2157;" horiz-adv-x="997" 
d="M184 325q-33 0 -60.5 9.5t-48 26t-32.5 39.5t-13 50h64q0 -37 24.5 -64t66.5 -27q38 0 64 20t26 62q0 43 -33.5 61.5t-82.5 18.5h-18v38h12q22 0 42 4.5t35.5 14.5t25 25.5t9.5 36.5q0 33 -22 51.5t-57 18.5q-39 0 -63 -24t-24 -63h-65q1 26 13.5 48t32.5 38.5t47.5 25.5
t59.5 9q27 0 53.5 -6t47.5 -18t34 -31t13 -44q0 -38 -24 -61.5t-59 -35.5v-1q45 -11 70 -35.5t25 -66.5q0 -32 -13 -54.5t-35.5 -37t-52 -21.5t-62.5 -7zM206 0l509 725h70l-509 -725h-70zM797 -8q-32 0 -58.5 10t-45.5 26.5t-29.5 39t-11.5 47.5h63q0 -35 22.5 -62
t60.5 -27q44 0 66.5 30t22.5 78q0 52 -27 76.5t-64 24.5q-30 0 -56.5 -18t-37.5 -52l-38 9l25 227h251v-56h-215l-13 -105q18 18 43.5 27t55.5 9q29 0 55.5 -7.5t46.5 -24.5t32 -43.5t12 -64.5q0 -33 -12.5 -59.5t-34.5 -45.5t-51 -29t-62 -10z" />
    <glyph glyph-name="threeeighths" unicode="&#x215c;" horiz-adv-x="1022" 
d="M184 325q-33 0 -60.5 9.5t-48 26t-32.5 39.5t-13 50h64q0 -37 24.5 -64t66.5 -27q38 0 64 20t26 62q0 43 -33.5 61.5t-82.5 18.5h-18v38h12q22 0 42 4.5t35.5 14.5t25 25.5t9.5 36.5q0 33 -22 51.5t-57 18.5q-39 0 -63 -24t-24 -63h-65q1 26 13.5 48t32.5 38.5t47.5 25.5
t59.5 9q27 0 53.5 -6t47.5 -18t34 -31t13 -44q0 -38 -24 -61.5t-59 -35.5v-1q45 -11 70 -35.5t25 -66.5q0 -32 -13 -54.5t-35.5 -37t-52 -21.5t-62.5 -7zM206 0l509 725h70l-509 -725h-70zM814 -8q-35 0 -65 7.5t-53 22t-36 36t-13 48.5q0 21 10 37.5t25 29t33.5 20.5
t36.5 13q-83 38 -83 105q0 45 41.5 72.5t105.5 27.5t104.5 -25.5t40.5 -67.5q0 -34 -28.5 -58.5t-66.5 -37.5l8 -3q45 -20 75 -44.5t30 -64.5q0 -27 -13 -48.5t-35.5 -37t-52.5 -24t-64 -8.5zM715 108q0 -40 27 -61t72 -21t70.5 18t25.5 50q0 16 -5.5 27.5t-17.5 21t-30 18
t-43 19.5l-34 14q-36 -13 -50.5 -37.5t-14.5 -48.5zM898 312q0 33 -25 49t-58 16q-35 0 -57.5 -14.5t-22.5 -42.5t23 -44t59 -31l25 -12q25 11 40.5 33t15.5 46z" />
    <glyph glyph-name="uni2158" unicode="&#x2158;" horiz-adv-x="1024" 
d="M381 491v-50h-76v-64q0 -12 3 -15.5t15 -5.5l23 -2v-21h-153v21l27 2q11 2 14.5 5.5t3.5 15.5v64h-209v38l218 255h58v-243h76zM238 664l-148 -173h148v173zM233 0l509 725h70l-509 -725h-70zM824 -8q-32 0 -58.5 10t-45.5 26.5t-29.5 39t-11.5 47.5h63q0 -35 22.5 -62
t60.5 -27q44 0 66.5 30t22.5 78q0 52 -27 76.5t-64 24.5q-30 0 -56.5 -18t-37.5 -52l-38 9l25 227h251v-56h-215l-13 -105q18 18 43.5 27t55.5 9q29 0 55.5 -7.5t46.5 -24.5t32 -43.5t12 -64.5q0 -33 -12.5 -59.5t-34.5 -45.5t-51 -29t-62 -10z" />
    <glyph glyph-name="uni215A" unicode="&#x215a;" horiz-adv-x="1016" 
d="M193 325q-32 0 -58.5 10t-45.5 26.5t-29.5 39t-11.5 47.5h63q0 -35 22.5 -62t60.5 -27q44 0 66.5 30t22.5 78q0 52 -27 76.5t-64 24.5q-30 0 -56.5 -18t-37.5 -52l-38 9l25 227h251v-56h-215l-13 -105q18 18 43.5 27t55.5 9q29 0 55.5 -7.5t46.5 -24.5t32 -43.5t12 -63.5
q0 -33 -12.5 -60t-34.5 -46t-51 -29t-62 -10zM212 0l509 725h70l-509 -725h-70zM821 235q-42 0 -66.5 -28.5t-24.5 -77.5q0 -51 26 -77t63 -26q42 0 63.5 30.5t21.5 74.5q0 21 -5 39.5t-15.5 33t-26 23t-36.5 8.5zM828 377q-23 0 -40.5 -12t-30 -32t-20 -47.5t-8.5 -57.5
q18 22 45 32.5t60 10.5q22 0 47 -8t46 -24.5t35 -43t14 -63.5q0 -31 -12 -56.5t-33 -44t-50 -29t-62 -10.5q-42 0 -72.5 14.5t-50 41t-29 62t-9.5 77.5q0 55 13.5 97t37 70.5t55 42.5t68.5 14q24 0 46.5 -6t41 -19t31.5 -32.5t18 -47.5h-64q-4 33 -24 52t-53 19z" />
    <glyph glyph-name="fiveeighths" unicode="&#x215d;" horiz-adv-x="1028" 
d="M193 325q-32 0 -58.5 10t-45.5 26.5t-29.5 39t-11.5 47.5h63q0 -35 22.5 -62t60.5 -27q44 0 66.5 30t22.5 78q0 52 -27 76.5t-64 24.5q-30 0 -56.5 -18t-37.5 -52l-38 9l25 227h251v-56h-215l-13 -105q18 18 43.5 27t55.5 9q29 0 55.5 -7.5t46.5 -24.5t32 -43.5t12 -63.5
q0 -33 -12.5 -60t-34.5 -46t-51 -29t-62 -10zM212 0l509 725h70l-509 -725h-70zM820 -8q-35 0 -65 7.5t-53 22t-36 36t-13 48.5q0 21 10 37.5t25 29t33.5 20.5t36.5 13q-83 38 -83 105q0 45 41.5 72.5t105.5 27.5t104.5 -25.5t40.5 -67.5q0 -34 -28.5 -58.5t-66.5 -37.5
l8 -3q45 -20 75 -44.5t30 -64.5q0 -27 -13 -48.5t-35.5 -37t-52.5 -24t-64 -8.5zM721 108q0 -40 27 -61t72 -21t70.5 18t25.5 50q0 16 -5.5 27.5t-17.5 21t-30 18t-43 19.5l-34 14q-36 -13 -50.5 -37.5t-14.5 -48.5zM904 312q0 33 -25 49t-58 16q-35 0 -57.5 -14.5
t-22.5 -42.5t23 -44t59 -31l25 -12q25 11 40.5 33t15.5 46z" />
    <glyph glyph-name="seveneighths" unicode="&#x215e;" horiz-adv-x="942" 
d="M10 734h296v-52q-29 -25 -59.5 -53.5t-55.5 -68.5t-40.5 -95t-13.5 -132h-77q0 59 16 110.5t43.5 95t63 78.5t74.5 61h-247v56zM126 0l509 725h70l-509 -725h-70zM734 -8q-35 0 -65 7.5t-53 22t-36 36t-13 48.5q0 21 10 37.5t25 29t33.5 20.5t36.5 13q-83 38 -83 105
q0 45 41.5 72.5t105.5 27.5t104.5 -25.5t40.5 -67.5q0 -34 -28.5 -58.5t-66.5 -37.5l8 -3q45 -20 75 -44.5t30 -64.5q0 -27 -13 -48.5t-35.5 -37t-52.5 -24t-64 -8.5zM635 108q0 -40 27 -61t72 -21t70.5 18t25.5 50q0 16 -5.5 27.5t-17.5 21t-30 18t-43 19.5l-34 14
q-36 -13 -50.5 -37.5t-14.5 -48.5zM818 312q0 33 -25 49t-58 16q-35 0 -57.5 -14.5t-22.5 -42.5t23 -44t59 -31l25 -12q25 11 40.5 33t15.5 46z" />
    <glyph glyph-name="uni215F" unicode="&#x215f;" horiz-adv-x="478" 
d="M182 375q0 -8 3 -13t16 -7l22 -2v-20h-165v20l41 3q11 1 14.5 6t3.5 13v284h-91v26q26 1 45.5 4t34.5 8.5t26 14.5t22 21h29l-1 -103v-255zM80 0l509 725h70l-509 -725h-70z" />
    <glyph glyph-name="fraction" unicode="&#x2044;" horiz-adv-x="217" 
d="M-181 0l509 725h70l-509 -725h-70z" />
    <glyph glyph-name="a.superior" horiz-adv-x="367" 
d="M237 597l-41 -4q-14 -2 -28 -6t-25 -11t-17.5 -18t-6.5 -28q0 -23 14.5 -38t41.5 -15q10 0 21 4t20 14t15 27.5t6 44.5v30zM46 531q0 28 12 44.5t34 26.5q20 9 45.5 14t52.5 9l46 5v17q0 37 -13 52t-45 15q-58 0 -61 -60h-62q3 45 38.5 68.5t86.5 23.5q62 0 92 -24
t28 -81q0 -17 -0.5 -35.5t-0.5 -36.5v-38t2 -37q0 -12 3 -15.5t14 -4.5l24 -3v-21l-95 -7l-4 51h-3q-12 -24 -33.5 -40t-55.5 -16q-21 0 -40 7t-33.5 19t-23 29t-8.5 38z" />
    <glyph glyph-name="b.superior" horiz-adv-x="398" 
d="M73 815q0 11 -2.5 14t-14.5 5l-24 2v21h110l-1 -78v-89q13 21 36.5 38.5t58.5 17.5q54 0 87.5 -41t33.5 -113q0 -35 -10 -63.5t-27.5 -48.5t-42 -31t-52.5 -11q-29 0 -53.5 13t-40.5 38h-1l-29 -44h-28q2 26 1 51t-1 51v268zM137 592q0 -35 7 -57.5t17.5 -35.5
t23.5 -17.5t25 -4.5q36 0 55 32t19 83q0 50 -17 83t-53 33q-13 0 -26.5 -5t-25 -18t-18.5 -35.5t-7 -57.5z" />
    <glyph glyph-name="c.superior" horiz-adv-x="361" 
d="M41 592q0 72 41 113t105 41q22 0 44.5 -6t41 -18t31.5 -31.5t18 -46.5h-66q0 20 -7 33.5t-16.5 21.5t-21 11t-20.5 3q-36 0 -56.5 -32t-20.5 -89q0 -58 20 -89t58 -31q9 0 20 3t20.5 11t16.5 21t7 33h66q-5 -27 -18 -46.5t-31.5 -31.5t-41 -18t-44.5 -6q-64 0 -105 41
t-41 113z" />
    <glyph glyph-name="d.superior" horiz-adv-x="396" 
d="M262 593q0 35 -7 57.5t-18 35t-24 17.5t-25 5q-36 0 -55 -32t-19 -83t17 -83.5t52 -32.5q13 0 27 5t25.5 18t19 35.5t7.5 57.5zM325 857l-1 -78v-285q0 -12 3.5 -15.5t14.5 -4.5l23 -2v-21l-106 -8l-1 52h-1q-13 -21 -36.5 -39t-58.5 -18q-54 0 -87.5 41.5t-33.5 112.5
q0 36 10 64.5t28 48.5t42 30.5t52 10.5q29 0 50.5 -15t32.5 -38h1q0 13 -0.5 22t-0.5 27v73q0 11 -3 14.5t-14 4.5l-31 2v21h117z" />
    <glyph glyph-name="e.superior" horiz-adv-x="365" 
d="M192 472q27 0 45.5 17.5t21.5 48.5h66q-10 -51 -49.5 -75.5t-88.5 -24.5q-32 0 -58.5 10.5t-46.5 30.5t-31 48.5t-11 64.5q0 33 10 61t29 49t46 32.5t61 11.5q31 0 56.5 -9.5t44.5 -29t29 -49t9 -69.5h-214q1 -54 21.5 -85.5t59.5 -31.5zM185 714q-30 0 -51 -21t-23 -70
h143q2 50 -18 70.5t-51 20.5z" />
    <glyph glyph-name="f.superior" horiz-adv-x="265" 
d="M208 445h-167v21l23 2q11 2 14.5 6t3.5 15v215h-41v37h41v32q0 28 7.5 44.5t22 25.5t35.5 11.5t48 2.5h53v-39h-61q-22 0 -29.5 -8t-7.5 -27v-42h98v-37h-98v-215q0 -11 3 -14.5t15 -4.5l40 -3v-22z" />
    <glyph glyph-name="g.superior" horiz-adv-x="370" 
d="M260 711q12 -12 19 -29t7 -38q0 -26 -10 -45t-26.5 -31t-38.5 -18t-45 -6q-20 0 -36 4q-7 -3 -10 -9t-3 -11q0 -11 9 -14.5t25 -4.5l81 -7q56 -4 76 -20.5t20 -42.5q0 -18 -11.5 -36t-32.5 -32.5t-50.5 -23.5t-65.5 -9q-37 0 -62.5 5.5t-41 15.5t-22.5 22t-7 26
q0 21 20 35t47 18q-23 6 -33 19t-10 28q0 17 18 28t40 16q-30 10 -50 33t-20 61q0 25 9.5 44t26 31.5t38 19t45.5 6.5q29 0 53 -9l120 4v-37zM166 570q52 0 52 74q0 40 -13 58t-39 18q-52 0 -52 -75t52 -75zM118 456q-10 -5 -16.5 -16t-6.5 -22q0 -21 19 -35.5t57 -14.5
q39 0 65 15t26 36q0 17 -12.5 24t-40.5 9l-83 4h-8z" />
    <glyph glyph-name="h.superior" horiz-adv-x="390" 
d="M322 489q0 -11 3.5 -15t14.5 -6l24 -2v-21h-151v21l23 2q11 2 15 6t4 15v126q0 49 -11.5 69t-40.5 20q-32 0 -47 -24t-15 -57v-134q0 -11 3.5 -15t15.5 -6l23 -2v-21h-151v21l24 2q11 2 14 6t3 15v326q0 11 -3 14t-14 5l-24 2v21h110l-1 -77v-88q14 24 37 39t55 15
q27 0 44.5 -9t27 -24t13.5 -34t4 -40v-150z" />
    <glyph glyph-name="i.superior" horiz-adv-x="224" 
d="M82 857h68v-75h-68v75zM150 664v-175q0 -11 3.5 -15t14.5 -6l24 -2v-21h-151v21l24 2q11 2 14 6t3 15v210q0 11 -3 14t-14 5l-24 3v20h110z" />
    <glyph glyph-name="j.superior" horiz-adv-x="232" 
d="M89 857h67v-75h-67v75zM89 699q0 11 -3.5 14t-14.5 5l-24 3v20h110l-1 -77v-207q0 -39 -5 -62t-16 -35t-29 -15.5t-45 -3.5h-38v42h38q9 0 14.5 2t8.5 8.5t4 20.5t1 38v247z" />
    <glyph glyph-name="k.superior" horiz-adv-x="373" 
d="M142 857l-1 -78v-190l109 109q7 6 4 12t-17 7l-29 4v20h145v-20l-31 -4q-6 -1 -14 -6t-23 -21l-62 -60l86 -140q7 -10 14 -15.5t21 -7.5l13 -1v-21h-101l-81 139l-34 -33v-62q0 -11 3.5 -15t15.5 -6l23 -2v-21h-151v21l24 2q11 2 14 6t3 15v326q0 11 -3 14t-14 5l-24 2
v21h110z" />
    <glyph glyph-name="l.superior" horiz-adv-x="215" 
d="M142 857l-1 -78v-290q0 -11 3.5 -15t15.5 -6l23 -2v-21h-151v21l24 2q11 2 14 6t3 15v326q0 11 -3 14t-14 5l-24 2v21h110z" />
    <glyph glyph-name="m.superior" horiz-adv-x="560" 
d="M149 692h1q13 24 34 39t54 15q35 0 53 -16.5t26 -40.5q12 25 35.5 41t56.5 16q27 0 43.5 -9.5t25.5 -24.5t12 -34t3 -39v-150q0 -11 3 -15t15 -6l24 -2v-21h-151v21l24 2q11 2 14 6t3 15v126q0 49 -10 69t-36 20q-32 0 -44.5 -24t-12.5 -57v-134q0 -11 3.5 -15t14.5 -6
l23 -2v-21h-151v21l24 2q12 2 15 6t3 15v126q0 49 -10 69t-36 20q-33 0 -45.5 -24t-12.5 -57v-134q0 -11 3.5 -15t14.5 -6l24 -2v-21h-151v21l24 2q11 2 14 6t3 15v210q0 11 -3 14t-14 5l-24 3v20h109z" />
    <glyph glyph-name="n.superior" unicode="&#x207f;" horiz-adv-x="397" 
d="M330 489q0 -11 4 -15t15 -6l23 -2v-21h-151v21l24 2q11 2 14.5 6t3.5 15v126q0 49 -12 69t-39 20q-32 0 -47 -24t-15 -57v-134q0 -11 3.5 -15t14.5 -6l24 -2v-21h-151v21l24 2q11 2 14 6t3 15v210q0 11 -3 14t-14 5l-24 3v20h109l-1 -49h1q13 24 36 39t56 15q27 0 44 -9
t26.5 -24t13.5 -34t4 -40v-150z" />
    <glyph glyph-name="o.superior" horiz-adv-x="378" 
d="M264 593q0 66 -22 93t-54 27t-53 -27t-21 -93q0 -67 21.5 -94t52.5 -27q32 0 54 27t22 94zM337 592q0 -36 -11 -64.5t-31 -48.5t-47.5 -30.5t-60.5 -10.5q-65 0 -105.5 42t-40.5 114t40.5 112t106.5 40t107.5 -41t41.5 -113z" />
    <glyph glyph-name="p.superior" horiz-adv-x="391" 
d="M129 592q0 -35 7 -57.5t17.5 -35.5t23.5 -17.5t25 -4.5q36 0 55 32t19 83q0 50 -17 83t-53 33q-13 0 -26.5 -5t-25 -18t-18.5 -35.5t-7 -57.5zM132 690h1q12 20 36 38t59 18q53 0 87 -41t34 -113q0 -35 -10 -63.5t-27.5 -48.5t-42 -31t-52.5 -11q-29 0 -50.5 15.5
t-32.5 37.5h-1v-10.5t0.5 -6.5t0.5 -7v-13v-69q0 -11 3.5 -14.5t14.5 -5.5l39 -2v-22h-166v22l24 2q11 1 14 4.5t3 14.5v315q0 11 -3 14t-14 5l-24 3v20h107v-51z" />
    <glyph glyph-name="q.superior" horiz-adv-x="395" 
d="M262 593q0 35 -7 57.5t-18 35t-24 17.5t-25 5q-36 0 -55 -32t-19 -83t16.5 -83.5t52.5 -32.5q13 0 27 5t25.5 18t19 35.5t7.5 57.5zM256 454v21t1 20h-1q-11 -22 -35 -39.5t-59 -17.5q-54 0 -87.5 41.5t-33.5 112.5q0 36 10 64.5t28 48.5t42 30.5t52 10.5q29 0 53 -13.5
t41 -36.5h1l26 45h31l-1 -106v-251q0 -11 3.5 -14.5t14.5 -4.5l23 -2v-22h-165v22l39 2q11 2 14 5.5t3 14.5v69z" />
    <glyph glyph-name="r.superior" horiz-adv-x="292" 
d="M41 466l24 2q11 2 14 6t3 15v210q0 11 -3 14t-14 5l-24 3v20h109l-1 -67h2q12 32 38 51t58 19h27v-64h-55q-16 0 -28.5 -2.5t-21.5 -10.5t-14 -22t-5 -37v-119q0 -11 3.5 -14.5t14.5 -4.5l40 -3v-22h-167v21z" />
    <glyph glyph-name="s.superior" horiz-adv-x="336" 
d="M169 438q-51 0 -88 25t-41 75h63q3 -27 20 -46.5t53 -19.5q65 0 65 44q0 13 -6.5 22t-16.5 14.5t-22.5 9t-24.5 6.5l-34 6q-16 3 -32 9t-29 16.5t-21 26t-8 36.5q0 23 11 39t28 26t38.5 14.5t42.5 4.5q47 0 82 -22.5t43 -67.5h-62q-1 23 -20.5 40t-48.5 17
q-7 0 -17.5 -1.5t-20 -5.5t-16.5 -11.5t-7 -18.5q0 -38 58 -47l35 -7q20 -4 39 -10t33.5 -16.5t23 -26t8.5 -39.5q0 -26 -10.5 -43.5t-28 -28t-41 -15.5t-48.5 -5z" />
    <glyph glyph-name="t.superior" horiz-adv-x="258" 
d="M220 704h-83v-173q0 -27 8.5 -36.5t35.5 -9.5h39v-40h-49q-30 0 -50 3t-31.5 11t-16 23.5t-4.5 40.5v181h-51v37h51v96h68v-96h83v-37z" />
    <glyph glyph-name="u.superior" horiz-adv-x="383" 
d="M239 491h-1q-12 -23 -34.5 -38t-54.5 -15q-27 0 -44.5 9t-27 24t-13.5 34.5t-4 40.5v153q0 11 -3 14t-14 5l-23 3v20h109l-1 -78v-94q0 -49 11 -69.5t38 -20.5q33 0 47 24.5t14 56.5v139q0 11 -3 14t-14 5l-24 3v20h110l-1 -78v-169q0 -12 3.5 -15.5t14.5 -4.5l24 -2v-21
l-106 -11z" />
    <glyph glyph-name="v.superior" horiz-adv-x="337" 
d="M47 701q-3 8 -6.5 12.5t-14.5 6.5l-15 1v20h141v-20l-22 -3q-11 -1 -13 -4.5t1 -13.5l59 -174l59 160q6 15 7 23t-13 9l-22 3v20h117v-20l-17 -1q-11 -2 -16 -8.5t-12 -25.5l-96 -242h-40z" />
    <glyph glyph-name="w.superior" horiz-adv-x="467" 
d="M366 686q4 15 4.5 23t-10.5 9l-21 3v20h117v-20l-18 -1q-8 -2 -15.5 -8t-12.5 -26l-75 -242h-41l-64 210l-64 -210h-41l-78 257q-5 17 -14 17l-22 3v20h140v-20l-21 -3q-10 -1 -12 -4.5t0 -13.5l40 -164l64 205h42l61 -206z" />
    <glyph glyph-name="x.superior" horiz-adv-x="401" 
d="M166 589l-83 109q-10 12 -15.5 15t-14.5 5l-12 3v20h142v-20l-20 -3q-14 -2 -3 -16l48 -64l58 68q5 5 5 7.5t-11 3.5l-23 4v20h130v-20l-18 -1q-14 -2 -22 -7.5t-16 -15.5l-78 -91l89 -117q10 -12 15 -15.5t16 -5.5l10 -2v-21h-140v21l19 2q13 3 4 16l-56 72l-65 -76
q-3 -4 -3 -6.5t11 -3.5l22 -4v-21h-130v21l19 1q14 2 21.5 7.5t17.5 16.5z" />
    <glyph glyph-name="y.superior" horiz-adv-x="341" 
d="M34 341v40h45q21 0 32.5 12.5t26.5 54.5l2 6l-93 247q-3 9 -7.5 13t-16.5 6l-12 1v20h144v-20l-26 -3q-10 -1 -12 -4.5t1 -13.5l60 -178l61 164q5 14 6.5 22t-11.5 9l-26 4v20h121v-20l-19 -1q-9 -2 -13.5 -7.5t-11.5 -21.5l-98 -251q-12 -28 -21.5 -47t-21 -30.5
t-27.5 -16.5t-40 -5h-43z" />
    <glyph glyph-name="z.superior" horiz-adv-x="337" 
d="M41 482l171 222h-156v37h238v-33l-172 -225h174v-38h-255v37z" />
    <glyph glyph-name="four.superior" unicode="&#x2074;" horiz-adv-x="414" 
d="M381 604v-50h-76v-65q0 -11 3 -15t15 -6l23 -2v-21h-153v21l27 2q11 2 14.5 6t3.5 15v65h-209v38l218 254h58v-242h76zM238 776l-148 -172h148v172z" />
    <glyph glyph-name="five.superior" unicode="&#x2075;" horiz-adv-x="393" 
d="M193 438q-32 0 -58.5 10t-45.5 26.5t-29.5 38.5t-11.5 47h63q0 -35 22.5 -61.5t60.5 -26.5q44 0 66.5 30t22.5 78q0 52 -27 76t-64 24q-30 0 -56.5 -18t-37.5 -52l-38 9l25 227h251v-55h-215l-13 -105q18 18 43.5 27t55.5 9q29 0 55.5 -8t46.5 -24.5t32 -43.5t12 -64
q0 -33 -12.5 -59.5t-34.5 -45.5t-51 -29t-62 -10z" />
    <glyph glyph-name="six.superior" unicode="&#x2076;" horiz-adv-x="406" 
d="M211 680q-42 0 -66.5 -28t-24.5 -78q0 -51 26 -76.5t63 -25.5q42 0 63.5 30.5t21.5 74.5q0 20 -5 38.5t-15.5 33t-26 23t-36.5 8.5zM218 822q-23 0 -40.5 -12t-30 -32t-20 -47t-8.5 -57q18 21 45 31.5t60 10.5q22 0 47 -7.5t46 -24t35 -43t14 -63.5q0 -31 -12 -56.5
t-33 -44t-50 -29t-62 -10.5q-42 0 -72.5 14.5t-50 40.5t-29 61.5t-9.5 77.5q0 56 13.5 98t37 70t55 42t68.5 14q24 0 46.5 -6t41 -19t31.5 -32.5t18 -47.5h-64q-4 34 -24 52.5t-53 18.5z" />
    <glyph glyph-name="seven.superior" unicode="&#x2077;" horiz-adv-x="307" 
d="M10 846h296v-51q-29 -25 -59.5 -54t-55.5 -69t-40.5 -95t-13.5 -132h-77q0 60 16 111.5t43.5 95t63 78.5t74.5 61h-247v55z" />
    <glyph glyph-name="eight.superior" unicode="&#x2078;" horiz-adv-x="418" 
d="M210 438q-35 0 -65 7.5t-53 21.5t-36 35.5t-13 48.5q0 21 10 38t25 29.5t33.5 20.5t36.5 12q-83 41 -83 106q0 45 41.5 72t105.5 27t104.5 -25.5t40.5 -67.5q0 -34 -28.5 -58.5t-66.5 -36.5l8 -3q45 -20 75 -45t30 -64q0 -27 -13 -48.5t-35.5 -37t-52.5 -24t-64 -8.5z
M111 554q0 -41 27 -61.5t72 -20.5t70.5 17.5t25.5 49.5q0 16 -5.5 27.5t-17.5 21t-30 18.5t-43 20l-33 13q-37 -12 -51.5 -36.5t-14.5 -48.5zM294 758q0 32 -25 48t-58 16q-35 0 -57.5 -14t-22.5 -43q0 -28 23 -43.5t59 -31.5l24 -11q25 11 41 32.5t16 46.5z" />
    <glyph glyph-name="nine.superior" unicode="&#x2079;" horiz-adv-x="406" 
d="M195 614q42 0 66.5 28t24.5 79t-26.5 76t-62.5 25q-42 0 -63.5 -30.5t-21.5 -74.5q0 -20 5 -39t15.5 -33t26 -22.5t36.5 -8.5zM187 472q23 0 41 11.5t30.5 32t19.5 47.5t9 57q-18 -21 -45 -31.5t-60 -10.5q-22 0 -47 7.5t-46 24t-35 43t-14 63.5q0 31 12 56.5t33 44
t50 29t62 10.5q42 0 72.5 -14.5t50 -40.5t29 -61.5t9.5 -76.5q0 -56 -13.5 -98.5t-37 -70.5t-55.5 -42t-68 -14q-24 0 -46.5 6t-41 19t-32 33t-17.5 48h64q3 -35 23.5 -53.5t52.5 -18.5z" />
    <glyph glyph-name="zero.superior" unicode="&#x2070;" horiz-adv-x="439" 
d="M49 647q0 52 13 91t36 65t54 39.5t67 13.5t67 -13.5t54 -39.5t36.5 -65t13.5 -91q0 -51 -13.5 -90.5t-36.5 -65.5t-54 -39.5t-67 -13.5t-67 13.5t-54 39.5t-36 65.5t-13 90.5zM122 647q0 -85 25 -130t72 -45q46 0 72 45t26 130t-26 130t-72 45q-47 0 -72 -45t-25 -130z
" />
    <glyph glyph-name="zero.slashed.superior" horiz-adv-x="439" 
d="M49 647q0 52 13 91t36 65t54 39.5t67 13.5t67 -13.5t54 -39.5t36.5 -65t13.5 -91q0 -51 -13.5 -90.5t-36.5 -65.5t-54 -39.5t-67 -13.5t-67 13.5t-54 39.5t-36 65.5t-13 90.5zM317 647q0 10 -0.5 20t-1.5 19l-187 -115q20 -99 91 -99q46 0 72 45t26 130zM122 647v-20.5
t1 -18.5l187 115q-11 48 -34 73.5t-57 25.5q-47 0 -72 -45t-25 -130z" />
    <glyph glyph-name="period.superior" horiz-adv-x="205" 
d="M61 528h83v-83h-83v83z" />
    <glyph glyph-name="hyphen.superior" horiz-adv-x="265" 
d="M55 627h155v-57h-155v57z" />
    <glyph glyph-name="comma.superior" horiz-adv-x="205" 
d="M61 528h83v-88l-48 -98h-27l27 103h-35v83z" />
    <glyph glyph-name="equal.superior" unicode="&#x207c;" horiz-adv-x="358" 
d="M41 634v44h275v-44h-275zM41 521v43h275v-43h-275z" />
    <glyph glyph-name="plus.superior" unicode="&#x207a;" horiz-adv-x="379" 
d="M166 445v130h-129v44h129v125h47v-125h129v-44h-129v-130h-47z" />
    <glyph glyph-name="minus.superior" unicode="&#x207b;" horiz-adv-x="371" 
d="M334 619v-44h-297v44h297z" />
    <glyph glyph-name="parenleft.superior" unicode="&#x207d;" horiz-adv-x="179" 
d="M103 604q0 -72 14.5 -135t46.5 -128h-35q-44 62 -69 124t-25 134q0 73 25 134t69 124h35q-32 -63 -46.5 -122t-14.5 -131z" />
    <glyph glyph-name="parenright.superior" unicode="&#x207e;" horiz-adv-x="179" 
d="M75 604q0 72 -15 131t-46 122h36q44 -63 69 -124t25 -134q0 -72 -25 -134t-69 -124h-36q31 65 46 128t15 135z" />
    <glyph glyph-name="a.inferior" horiz-adv-x="367" 
d="M237 21l-41 -4q-14 -2 -28 -6t-25 -11t-17.5 -18t-6.5 -28q0 -23 14.5 -38t41.5 -15q10 0 21 4t20 14t15 27.5t6 44.5v30zM46 -45q0 28 12 44.5t34 26.5q20 9 45.5 14t52.5 9l46 5v17q0 37 -13 52t-45 15q-58 0 -61 -60h-62q3 45 38.5 68.5t86.5 23.5q62 0 92 -24t28 -81
q0 -17 -0.5 -35.5t-0.5 -36.5v-38t2 -37q0 -12 3 -15.5t14 -4.5l24 -3v-21l-95 -7l-4 51h-3q-12 -24 -33.5 -40t-55.5 -16q-21 0 -40 7t-33.5 19t-23 29t-8.5 38z" />
    <glyph glyph-name="b.inferior" horiz-adv-x="398" 
d="M73 239q0 11 -2.5 14t-14.5 5l-24 2v21h110l-1 -78v-89q13 21 36.5 38.5t58.5 17.5q54 0 87.5 -41t33.5 -113q0 -35 -10 -63.5t-27.5 -48.5t-42 -31t-52.5 -11q-29 0 -53.5 13t-40.5 38h-1l-29 -44h-28q2 26 1 51t-1 51v268zM137 16q0 -35 7 -57.5t17.5 -35.5t23.5 -17.5
t25 -4.5q36 0 55 32t19 83q0 50 -17 83t-53 33q-13 0 -26.5 -5t-25 -18t-18.5 -35.5t-7 -57.5z" />
    <glyph glyph-name="c.inferior" horiz-adv-x="361" 
d="M41 16q0 72 41 113t105 41q22 0 44.5 -6t41 -18t31.5 -31.5t18 -46.5h-66q0 20 -7 33.5t-16.5 21.5t-21 11t-20.5 3q-36 0 -56.5 -32t-20.5 -89q0 -58 20 -89t58 -31q9 0 20 3t20.5 11t16.5 21t7 33h66q-5 -27 -18 -46.5t-31.5 -31.5t-41 -18t-44.5 -6q-64 0 -105 41
t-41 113z" />
    <glyph glyph-name="d.inferior" horiz-adv-x="396" 
d="M262 17q0 35 -7 57.5t-18 35t-24 17.5t-25 5q-36 0 -55 -32t-19 -83t17 -83.5t52 -32.5q13 0 27 5t25.5 18t19 35.5t7.5 57.5zM325 281l-1 -78v-285q0 -12 3.5 -15.5t14.5 -4.5l23 -2v-21l-106 -8l-1 52h-1q-13 -21 -36.5 -39t-58.5 -18q-54 0 -87.5 41.5t-33.5 112.5
q0 36 10 64.5t28 48.5t42 30.5t52 10.5q29 0 50.5 -15t32.5 -38h1q0 13 -0.5 22t-0.5 27v73q0 11 -3 14.5t-14 4.5l-31 2v21h117z" />
    <glyph glyph-name="e.inferior" horiz-adv-x="365" 
d="M192 -104q27 0 45.5 17.5t21.5 48.5h66q-10 -51 -49.5 -75.5t-88.5 -24.5q-32 0 -58.5 10.5t-46.5 30.5t-31 48.5t-11 64.5q0 33 10 61t29 49t46 32.5t61 11.5q31 0 56.5 -9.5t44.5 -29t29 -49t9 -69.5h-214q1 -54 21.5 -85.5t59.5 -31.5zM185 138q-30 0 -51 -21t-23 -70
h143q2 50 -18 70.5t-51 20.5z" />
    <glyph glyph-name="f.inferior" horiz-adv-x="265" 
d="M208 -130h-167v21l23 2q11 2 14.5 6t3.5 15v215h-41v37h41v32q0 28 7.5 44.5t22 25.5t35.5 11.5t48 2.5h53v-39h-61q-22 0 -29.5 -8t-7.5 -27v-42h98v-37h-98v-215q0 -11 3 -14.5t15 -4.5l40 -3v-22z" />
    <glyph glyph-name="g.inferior" horiz-adv-x="370" 
d="M260 135q12 -12 19 -29t7 -38q0 -26 -10 -45t-26.5 -31t-38.5 -18t-45 -6q-20 0 -36 4q-7 -3 -10 -9t-3 -11q0 -11 9 -14.5t25 -4.5l81 -7q56 -4 76 -20.5t20 -42.5q0 -18 -11.5 -36t-32.5 -32.5t-50.5 -23.5t-65.5 -9q-37 0 -62.5 5.5t-41 15.5t-22.5 22t-7 26
q0 21 20 35t47 18q-23 6 -33 19t-10 28q0 17 18 28t40 16q-30 10 -50 33t-20 61q0 25 9.5 44t26 31.5t38 19t45.5 6.5q29 0 53 -9l120 4v-37zM166 -6q52 0 52 74q0 40 -13 58t-39 18q-52 0 -52 -75t52 -75zM118 -120q-10 -5 -16.5 -16t-6.5 -22q0 -21 19 -35.5t57 -14.5
q39 0 65 15t26 36q0 17 -12.5 24t-40.5 9l-83 4h-8z" />
    <glyph glyph-name="h.inferior" horiz-adv-x="390" 
d="M322 -86q0 -11 3.5 -15t14.5 -6l24 -2v-21h-151v21l23 2q11 2 15 6t4 15v126q0 49 -11.5 69t-40.5 20q-32 0 -47 -24t-15 -57v-134q0 -11 3.5 -15t15.5 -6l23 -2v-21h-151v21l24 2q11 2 14 6t3 15v326q0 11 -3 14t-14 5l-24 2v21h110l-1 -77v-88q14 24 37 39t55 15
q27 0 44.5 -9t27 -24t13.5 -34t4 -40v-150z" />
    <glyph glyph-name="i.inferior" horiz-adv-x="224" 
d="M82 282h68v-75h-68v75zM150 89v-175q0 -11 3.5 -15t14.5 -6l24 -2v-21h-151v21l24 2q11 2 14 6t3 15v210q0 11 -3 14t-14 5l-24 3v20h110z" />
    <glyph glyph-name="j.inferior" horiz-adv-x="232" 
d="M89 282h67v-75h-67v75zM89 124q0 11 -3.5 14t-14.5 5l-24 3v20h110l-1 -77v-207q0 -39 -5 -62t-16 -35t-29 -15.5t-45 -3.5h-38v42h38q9 0 14.5 2t8.5 8.5t4 20.5t1 38v247z" />
    <glyph glyph-name="k.inferior" horiz-adv-x="373" 
d="M142 282l-1 -78v-190l109 109q7 6 4 12t-17 7l-29 4v20h145v-20l-31 -4q-6 -1 -14 -6t-23 -21l-62 -60l86 -140q7 -10 14 -15.5t21 -7.5l13 -1v-21h-101l-81 139l-34 -33v-62q0 -11 3.5 -15t15.5 -6l23 -2v-21h-151v21l24 2q11 2 14 6t3 15v326q0 11 -3 14t-14 5l-24 2
v21h110z" />
    <glyph glyph-name="l.inferior" horiz-adv-x="215" 
d="M142 282l-1 -78v-290q0 -11 3.5 -15t15.5 -6l23 -2v-21h-151v21l24 2q11 2 14 6t3 15v326q0 11 -3 14t-14 5l-24 2v21h110z" />
    <glyph glyph-name="m.inferior" horiz-adv-x="560" 
d="M149 117h1q13 24 34 39t54 15q35 0 53 -16.5t26 -40.5q12 25 35.5 41t56.5 16q27 0 43.5 -9.5t25.5 -24.5t12 -34t3 -39v-150q0 -11 3 -15t15 -6l24 -2v-21h-151v21l24 2q11 2 14 6t3 15v126q0 49 -10 69t-36 20q-32 0 -44.5 -24t-12.5 -57v-134q0 -11 3.5 -15t14.5 -6
l23 -2v-21h-151v21l24 2q12 2 15 6t3 15v126q0 49 -10 69t-36 20q-33 0 -45.5 -24t-12.5 -57v-134q0 -11 3.5 -15t14.5 -6l24 -2v-21h-151v21l24 2q11 2 14 6t3 15v210q0 11 -3 14t-14 5l-24 3v20h109z" />
    <glyph glyph-name="n.inferior" horiz-adv-x="397" 
d="M330 -86q0 -11 4 -15t15 -6l23 -2v-21h-151v21l24 2q11 2 14.5 6t3.5 15v126q0 49 -12 69t-39 20q-32 0 -47 -24t-15 -57v-134q0 -11 3.5 -15t14.5 -6l24 -2v-21h-151v21l24 2q11 2 14 6t3 15v210q0 11 -3 14t-14 5l-24 3v20h109l-1 -49h1q13 24 36 39t56 15q27 0 44 -9
t26.5 -24t13.5 -34t4 -40v-150z" />
    <glyph glyph-name="o.inferior" horiz-adv-x="378" 
d="M264 17q0 66 -22 93t-54 27t-53 -27t-21 -93q0 -67 21.5 -94t52.5 -27q32 0 54 27t22 94zM337 16q0 -36 -11 -64.5t-31 -48.5t-47.5 -30.5t-60.5 -10.5q-65 0 -105.5 42t-40.5 114t40.5 112t106.5 40t107.5 -41t41.5 -113z" />
    <glyph glyph-name="p.inferior" horiz-adv-x="391" 
d="M129 16q0 -35 7 -57.5t17.5 -35.5t23.5 -17.5t25 -4.5q36 0 55 32t19 83q0 50 -17 83t-53 33q-13 0 -26.5 -5t-25 -18t-18.5 -35.5t-7 -57.5zM132 114h1q12 20 36 38t59 18q53 0 87 -41t34 -113q0 -35 -10 -63.5t-27.5 -48.5t-42 -31t-52.5 -11q-29 0 -50.5 15.5
t-32.5 37.5h-1v-10.5t0.5 -6.5t0.5 -7v-13v-69q0 -11 3.5 -14.5t14.5 -5.5l39 -2v-22h-166v22l24 2q11 1 14 4.5t3 14.5v315q0 11 -3 14t-14 5l-24 3v20h107v-51z" />
    <glyph glyph-name="q.inferior" horiz-adv-x="395" 
d="M262 17q0 35 -7 57.5t-18 35t-24 17.5t-25 5q-36 0 -55 -32t-19 -83t16.5 -83.5t52.5 -32.5q13 0 27 5t25.5 18t19 35.5t7.5 57.5zM256 -122v21t1 20h-1q-11 -22 -35 -39.5t-59 -17.5q-54 0 -87.5 41.5t-33.5 112.5q0 36 10 64.5t28 48.5t42 30.5t52 10.5q29 0 53 -13.5
t41 -36.5h1l26 45h31l-1 -106v-251q0 -11 3.5 -14.5t14.5 -4.5l23 -2v-22h-165v22l39 2q11 2 14 5.5t3 14.5v69z" />
    <glyph glyph-name="r.inferior" horiz-adv-x="292" 
d="M41 -109l24 2q11 2 14 6t3 15v210q0 11 -3 14t-14 5l-24 3v20h109l-1 -67h2q12 32 38 51t58 19h27v-64h-55q-16 0 -28.5 -2.5t-21.5 -10.5t-14 -22t-5 -37v-119q0 -11 3.5 -14.5t14.5 -4.5l40 -3v-22h-167v21z" />
    <glyph glyph-name="s.inferior" horiz-adv-x="336" 
d="M169 -138q-51 0 -88 25t-41 75h63q3 -27 20 -46.5t53 -19.5q65 0 65 44q0 13 -6.5 22t-16.5 14.5t-22.5 9t-24.5 6.5l-34 6q-16 3 -32 9t-29 16.5t-21 26t-8 36.5q0 23 11 39t28 26t38.5 14.5t42.5 4.5q47 0 82 -22.5t43 -67.5h-62q-1 23 -20.5 40t-48.5 17
q-7 0 -17.5 -1.5t-20 -5.5t-16.5 -11.5t-7 -18.5q0 -38 58 -47l35 -7q20 -4 39 -10t33.5 -16.5t23 -26t8.5 -39.5q0 -26 -10.5 -43.5t-28 -28t-41 -15.5t-48.5 -5z" />
    <glyph glyph-name="t.inferior" horiz-adv-x="258" 
d="M220 129h-83v-173q0 -27 8.5 -36.5t35.5 -9.5h39v-40h-49q-30 0 -50 3t-31.5 11t-16 23.5t-4.5 40.5v181h-51v37h51v96h68v-96h83v-37z" />
    <glyph glyph-name="u.inferior" horiz-adv-x="383" 
d="M239 -84h-1q-12 -23 -34.5 -38t-54.5 -15q-27 0 -44.5 9t-27 24t-13.5 34.5t-4 40.5v153q0 11 -3 14t-14 5l-23 3v20h109l-1 -78v-94q0 -49 11 -69.5t38 -20.5q33 0 47 24.5t14 56.5v139q0 11 -3 14t-14 5l-24 3v20h110l-1 -78v-169q0 -12 3.5 -15.5t14.5 -4.5l24 -2v-21
l-106 -11z" />
    <glyph glyph-name="v.inferior" horiz-adv-x="337" 
d="M47 126q-3 8 -6.5 12.5t-14.5 6.5l-15 1v20h141v-20l-22 -3q-11 -1 -13 -4.5t1 -13.5l59 -174l59 160q6 15 7 23t-13 9l-22 3v20h117v-20l-17 -1q-11 -2 -16 -8.5t-12 -25.5l-96 -242h-40z" />
    <glyph glyph-name="w.inferior" horiz-adv-x="467" 
d="M366 111q4 15 4.5 23t-10.5 9l-21 3v20h117v-20l-18 -1q-8 -2 -15.5 -8t-12.5 -26l-75 -242h-41l-64 210l-64 -210h-41l-78 257q-5 17 -14 17l-22 3v20h140v-20l-21 -3q-10 -1 -12 -4.5t0 -13.5l40 -164l64 205h42l61 -206z" />
    <glyph glyph-name="x.inferior" horiz-adv-x="401" 
d="M166 14l-83 109q-10 12 -15.5 15t-14.5 5l-12 3v20h142v-20l-20 -3q-14 -2 -3 -16l48 -64l58 68q5 5 5 7.5t-11 3.5l-23 4v20h130v-20l-18 -1q-14 -2 -22 -7.5t-16 -15.5l-78 -91l89 -117q10 -12 15 -15.5t16 -5.5l10 -2v-21h-140v21l19 2q13 3 4 16l-56 72l-65 -76
q-3 -4 -3 -6.5t11 -3.5l22 -4v-21h-130v21l19 1q14 2 21.5 7.5t17.5 16.5z" />
    <glyph glyph-name="y.inferior" horiz-adv-x="341" 
d="M34 -234v40h45q21 0 32.5 12.5t26.5 54.5l2 6l-93 247q-3 9 -7.5 13t-16.5 6l-12 1v20h144v-20l-26 -3q-10 -1 -12 -4.5t1 -13.5l60 -178l61 164q5 14 6.5 22t-11.5 9l-26 4v20h121v-20l-19 -1q-9 -2 -13.5 -7.5t-11.5 -21.5l-98 -251q-12 -28 -21.5 -47t-21 -30.5
t-27.5 -16.5t-40 -5h-43z" />
    <glyph glyph-name="z.inferior" horiz-adv-x="337" 
d="M41 -93l171 222h-156v37h238v-33l-172 -225h174v-38h-255v37z" />
    <glyph glyph-name="one.inferior" unicode="&#x2081;" horiz-adv-x="261" 
d="M182 -88q0 -8 3 -13t16 -7l22 -2v-20h-165v20l41 3q11 2 14.5 6.5t3.5 12.5v285h-91v25q26 1 45.5 4t34.5 8.5t26 14.5t22 21h29l-1 -103v-255z" />
    <glyph glyph-name="two.inferior" unicode="&#x2082;" horiz-adv-x="374" 
d="M330 -73v-57h-310v57q72 48 118.5 82.5t73.5 62.5t37.5 51.5t10.5 49.5q0 35 -20 54.5t-53 19.5q-50 0 -70 -32t-16 -82h-66q-2 36 10 63.5t33 46.5t49.5 28.5t61.5 9.5q61 0 101 -26t40 -82q0 -32 -20 -62.5t-53.5 -60.5t-77.5 -60.5t-91 -62.5h242z" />
    <glyph glyph-name="three.inferior" unicode="&#x2083;" horiz-adv-x="387" 
d="M184 -137q-33 0 -60.5 9t-48 25.5t-32.5 39.5t-13 50h64q0 -37 24.5 -63.5t66.5 -26.5q38 0 64 20t26 62q0 43 -33.5 61t-82.5 18h-18v39h12q22 0 42 4.5t35.5 14.5t25 25t9.5 36q0 33 -22 51.5t-57 18.5q-39 0 -63 -24t-24 -62h-65q1 26 13.5 48t32.5 38t47.5 25t59.5 9
q27 0 53.5 -6t47.5 -18t34 -30.5t13 -43.5q0 -39 -24 -62t-59 -35v-2q45 -11 70 -35t25 -66q0 -32 -13 -54.5t-35.5 -37t-52 -21.5t-62.5 -7z" />
    <glyph glyph-name="four.inferior" unicode="&#x2084;" horiz-adv-x="414" 
d="M381 28v-50h-76v-65q0 -11 3 -15t15 -6l23 -2v-21h-153v21l27 2q11 2 14.5 6t3.5 15v65h-209v38l218 254h58v-242h76zM238 200l-148 -172h148v172z" />
    </font>
</defs>
</svg>
