<?xml version="1.0" standalone="no"?>
<!DOCTYPE svg PUBLIC "-//W3C//DTD SVG 1.1//EN" "http://www.w3.org/Graphics/SVG/1.1/DTD/svg11.dtd" >
<svg xmlns="http://www.w3.org/2000/svg" xmlns:xlink="http://www.w3.org/1999/xlink" version="1.1">
<metadata>
Created by Christoph Koeberlin (http://christoph.koe.berlin)
Copyright (c) 2020 Swiss Typefaces Sarl. All rights reserved.
</metadata>
<defs>
<font id="Font" horiz-adv-x="235" >
  <font-face 
    font-family="Font"
    font-weight="400"
    font-stretch="normal"
    units-per-em="1000"
    panose-1="2 11 5 4 0 0 0 0 0 0"
    ascent="800"
    descent="-200"
    x-height="538"
    cap-height="725"
    bbox="-120 -221 1046 935"
    underline-thickness="86"
    underline-position="-88"
    unicode-range="U+0020-FB02"
  />
<missing-glyph horiz-adv-x="660" 
d="M580 0h-500v725h500v-725zM546 706h-433l217 -328zM99 29l220 333l-220 334v-667zM561 696l-221 -334l221 -333v667zM546 19l-216 327l-217 -327h433z" />
    <glyph glyph-name=".notdef" horiz-adv-x="660" 
d="M580 0h-500v725h500v-725zM546 706h-433l217 -328zM99 29l220 333l-220 334v-667zM561 696l-221 -334l221 -333v667zM546 19l-216 327l-217 -327h433z" />
    <glyph glyph-name="glyph1" horiz-adv-x="0" 
 />
    <glyph glyph-name="glyph2" horiz-adv-x="217" 
 />
    <glyph glyph-name="space" unicode=" " horiz-adv-x="217" 
 />
    <glyph glyph-name="exclam" unicode="!" horiz-adv-x="249" 
d="M173 506l-20 -294h-57l-20 294v219h97v-219zM182 115v-115h-115v115h115z" />
    <glyph glyph-name="quotedbl" unicode="&#x22;" horiz-adv-x="344" 
d="M64 479l-20 246h102l-20 -246h-62zM218 479l-20 246h102l-20 -246h-62z" />
    <glyph glyph-name="numbersign" unicode="#" horiz-adv-x="682" 
d="M652 520l-10 -71h-135l-23 -173h135l-10 -71h-135l-28 -205h-74l28 205h-161l-28 -205h-74l28 205h-135l10 71h135l23 173h-135l10 71h135l28 205h74l-28 -205h161l28 205h74l-28 -205h135zM249 276h161l23 173h-161z" />
    <glyph glyph-name="dollar" unicode="$" horiz-adv-x="546" 
d="M298 -9v-84h-55v80h-3q-63 0 -115.5 12t-83.5 31v90q54 -27 94.5 -39.5t105.5 -12.5h2v265l-20 7q-87 31 -134 80.5t-47 124.5q0 76 58.5 126.5t142.5 62.5v84h55v-80q103 -1 170 -32v-89q-76 39 -170 40v-243l14 -5q104 -37 153.5 -87.5t49.5 -123.5q0 -85 -62 -139
t-155 -68zM243 434v219q-48 -8 -78 -34t-30 -72q0 -38 26.5 -65.5t81.5 -47.5zM298 72q57 9 90 37.5t33 75.5q0 42 -30.5 73t-92.5 55v-241z" />
    <glyph glyph-name="percent" unicode="%" horiz-adv-x="929" 
d="M26 521q0 98 43.5 154.5t124.5 56.5t124.5 -56.5t43.5 -154.5t-43.5 -154.5t-124.5 -56.5t-124.5 56.5t-43.5 154.5zM272 521q0 73 -20.5 110.5t-57.5 37.5q-38 0 -58 -37.5t-20 -110.5t20 -110.5t58 -37.5q37 0 57.5 37.5t20.5 110.5zM567 204q0 98 43.5 154.5
t124.5 56.5t124.5 -56.5t43.5 -154.5t-43.5 -154.5t-124.5 -56.5t-124.5 56.5t-43.5 154.5zM813 204q0 73 -20.5 110.5t-57.5 37.5q-38 0 -58 -37.5t-20 -110.5t20 -110.5t58 -37.5q37 0 57.5 37.5t20.5 110.5zM765 725l-500 -725h-101l500 725h101z" />
    <glyph glyph-name="ampersand" unicode="&#x26;" horiz-adv-x="711" 
d="M728 0h-131l-89 94q-57 -54 -113.5 -80.5t-122.5 -26.5q-72 0 -127 28t-84.5 76t-29.5 108q0 149 169 220q-41 46 -59 80.5t-18 72.5q0 49 24.5 87t67 59t96.5 21q47 0 89.5 -17t69 -52t26.5 -87q0 -122 -145 -189l150 -157q17 45 25.5 81.5t10.5 74.5h94
q-8 -111 -66 -222zM218 577q0 -30 19 -57.5t59 -68.5q111 46 111 124q0 42 -27.5 65t-68.5 23q-39 0 -66 -23t-27 -63zM450 155l-195 206q-65 -29 -96 -67t-31 -91q0 -63 42 -100t102 -37q47 0 90 21.5t88 67.5z" />
    <glyph glyph-name="quotesingle" unicode="'" horiz-adv-x="190" 
d="M64 479l-20 246h102l-20 -246h-62z" />
    <glyph glyph-name="parenleft" unicode="(" horiz-adv-x="286" 
d="M178 755h75q-52 -84 -85.5 -211.5t-33.5 -263.5t33.5 -263.5t85.5 -211.5h-75q-53 76 -95.5 206t-42.5 269t42 269t96 206z" />
    <glyph glyph-name="parenright" unicode=")" horiz-adv-x="286" 
d="M108 -195h-75q52 84 85.5 211.5t33.5 263.5t-33.5 263.5t-85.5 211.5h75q54 -76 96 -206t42 -269t-42.5 -269t-95.5 -206z" />
    <glyph glyph-name="asterisk" unicode="*" horiz-adv-x="421" 
d="M177 725h64v-124l117 45l24 -58l-118 -42l77 -101l-52 -39l-79 107l-72 -106l-55 36l74 103l-118 42l21 58l117 -45v124z" />
    <glyph glyph-name="plus" unicode="+" horiz-adv-x="678" 
d="M384 226v-226h-90v226h-226v86h226v226h90v-226h226v-86h-226z" />
    <glyph glyph-name="comma" unicode="," horiz-adv-x="221" 
d="M102 0h-49v115h115v-123l-61 -131h-58z" />
    <glyph glyph-name="hyphen" unicode="-" horiz-adv-x="426" 
d="M372 317v-86h-318v86h318z" />
    <glyph glyph-name="period" unicode="." horiz-adv-x="221" 
d="M168 115v-115h-115v115h115z" />
    <glyph glyph-name="slash" unicode="/" horiz-adv-x="412" 
d="M395 755l-286 -755h-91l285 755h92z" />
    <glyph glyph-name="zero" unicode="0" horiz-adv-x="652" 
d="M44 363q0 177 70.5 276t211.5 99t211.5 -99t70.5 -276q0 -178 -70.5 -277t-211.5 -99t-211.5 99t-70.5 277zM511 363q0 148 -49 223.5t-136 75.5t-136 -75.5t-49 -223.5t49 -224t136 -76t136 76t49 224z" />
    <glyph glyph-name="one" unicode="1" horiz-adv-x="525" 
d="M332 85h173v-85h-458v85h194v481h-193v63q93 3 143.5 21.5t78.5 74.5h62v-640z" />
    <glyph glyph-name="two" unicode="2" horiz-adv-x="548" 
d="M495 546q0 -75 -42.5 -145.5t-106 -133.5t-174.5 -158l-28 -24h371v-85h-492v82q139 116 215 188.5t118.5 137.5t42.5 126q0 60 -42 91.5t-105 31.5q-51 0 -100.5 -16.5t-90.5 -40.5v93q32 18 86 31.5t111 13.5q63 0 117 -21.5t87 -64.5t33 -106z" />
    <glyph glyph-name="three" unicode="3" horiz-adv-x="547" 
d="M409 203q0 73 -58.5 105.5t-154.5 32.5h-15v83h12q97 0 147 29t50 91q0 55 -45.5 84t-108.5 29q-52 0 -102 -15.5t-89 -39.5v93q34 17 87 30t110 13q105 0 174.5 -45t69.5 -139q0 -55 -33.5 -100t-90.5 -68q76 -25 110 -72.5t34 -109.5q0 -70 -38 -119t-99.5 -73.5
t-133.5 -24.5q-57 0 -110.5 13.5t-86.5 32.5v93q40 -25 90 -41.5t101 -16.5q77 0 128.5 35.5t51.5 99.5z" />
    <glyph glyph-name="four" unicode="4" horiz-adv-x="625" 
d="M471 265h133v-85h-133v-180h-92v180h-360v85l359 460h93v-460zM379 265v335l-259 -335h259z" />
    <glyph glyph-name="five" unicode="5" horiz-adv-x="555" 
d="M425 228q0 79 -50 118.5t-124 39.5q-46 0 -96.5 -12t-96.5 -33l28 384h408v-85h-325l-14 -191q62 16 108 16q68 0 126.5 -24t95 -77t36.5 -134t-41 -135.5t-106 -81t-139 -26.5q-57 0 -109 13.5t-85 32.5v93q40 -25 92 -41.5t105 -16.5q80 0 133.5 40.5t53.5 119.5z" />
    <glyph glyph-name="six" unicode="6" horiz-adv-x="591" 
d="M137 382q27 46 75 73.5t116 27.5q67 0 120.5 -31.5t83.5 -87.5t30 -127q0 -68 -32 -125t-90 -91t-133 -34q-134 0 -199 89.5t-65 260.5q0 120 39 210.5t112.5 140.5t173.5 50q76 0 142 -18v-91q-30 12 -66 19t-71 7q-105 0 -168.5 -69t-67.5 -204zM306 63
q70 0 114.5 47.5t44.5 121.5q0 49 -20 88t-56 61.5t-82 22.5q-71 0 -115 -48.5t-44 -123.5t43 -122t115 -47z" />
    <glyph glyph-name="seven" unicode="7" horiz-adv-x="538" 
d="M17 640v85h502v-85q-135 -110 -214.5 -274t-92.5 -366h-110q12 192 93 356.5t218 283.5h-396z" />
    <glyph glyph-name="eight" unicode="8" horiz-adv-x="611" 
d="M548 553q0 -49 -24.5 -94.5t-75.5 -72.5q65 -26 93.5 -75.5t28.5 -106.5q0 -67 -34.5 -116t-94.5 -75t-135 -26q-76 0 -136 26t-94.5 75t-34.5 116q0 57 28.5 106.5t94.5 75.5q-51 27 -75.5 72.5t-24.5 94.5q0 53 29.5 95.5t84.5 66t128 23.5t127.5 -24t84.5 -66t30 -95z
M306 662q-68 0 -109.5 -33t-41.5 -87q0 -55 41.5 -91t109.5 -36q67 0 108.5 36t41.5 91q0 54 -41.5 87t-108.5 33zM138 204q0 -64 45.5 -102.5t122.5 -38.5q76 0 122 38.5t46 102.5t-46 104t-122 40q-77 0 -122.5 -40t-45.5 -104z" />
    <glyph glyph-name="nine" unicode="9" horiz-adv-x="592" 
d="M455 343q-27 -46 -75 -73.5t-116 -27.5q-67 0 -120.5 31.5t-83.5 87.5t-30 127q0 68 32 125t90 91t133 34q134 0 199 -89.5t65 -260.5q0 -120 -39 -210.5t-112.5 -140.5t-173.5 -50q-76 0 -142 18v91q30 -12 66 -19t71 -7q105 0 168.5 69t67.5 204zM286 662
q-70 0 -114.5 -47.5t-44.5 -121.5q0 -49 20 -88t56 -61.5t82 -22.5q71 0 115 48.5t44 123.5t-43 122t-115 47z" />
    <glyph glyph-name="colon" unicode=":" horiz-adv-x="231" 
d="M173 538v-115h-115v115h115zM173 115v-115h-115v115h115z" />
    <glyph glyph-name="semicolon" unicode=";" horiz-adv-x="236" 
d="M176 538v-115h-115v115h115zM110 0h-49v115h115v-123l-61 -131h-58z" />
    <glyph glyph-name="equal" unicode="=" horiz-adv-x="678" 
d="M610 449v-87h-542v87h542zM610 176v-86h-542v86h542z" />
    <glyph glyph-name="question" unicode="?" horiz-adv-x="452" 
d="M17 609v93q34 15 85 25.5t98 10.5q60 0 114 -19.5t88 -59.5t34 -97q0 -119 -135 -206q-35 -22 -51.5 -36.5t-24.5 -32t-8 -44.5v-31h-93v34q0 41 13.5 70t39 52t71.5 52q44 28 68.5 59.5t24.5 73.5q0 48 -43 76t-104 28q-43 0 -91.5 -14t-85.5 -34zM230 115v-115h-115
v115h115z" />
    <glyph glyph-name="at" unicode="@" horiz-adv-x="809" 
d="M505 245q-47 -89 -152 -89q-63 0 -105.5 45t-42.5 134q0 59 25 112.5t72 86.5t108 33q41 0 71 -20.5t44 -55.5l8 59h71l-29 -218q-3 -16 -3 -41q0 -66 40 -66q26 0 47.5 21.5t34.5 61.5t13 94q0 122 -76 187.5t-202 65.5q-91 0 -161.5 -41.5t-110 -114.5t-39.5 -163
q0 -79 33 -141t94.5 -97.5t144.5 -35.5q109 0 194 43l28 -69q-50 -24 -107.5 -36.5t-114.5 -12.5q-103 0 -183 45.5t-124.5 126t-44.5 180.5q0 108 51.5 196.5t141.5 139t200 50.5q100 0 179.5 -35t126.5 -106.5t47 -177.5q0 -78 -25 -135.5t-66 -87.5t-87 -30q-39 0 -67 24
t-34 68zM292 334q0 -52 21.5 -78.5t61.5 -26.5q57 0 90 48t33 117q0 46 -23 72t-64 26q-54 0 -86.5 -46.5t-32.5 -111.5z" />
    <glyph glyph-name="A" unicode="A" horiz-adv-x="660" 
d="M661 0h-110l-73 203h-301l-72 -203h-104l269 725h118zM326 622l-118 -332h238z" />
    <glyph glyph-name="B" unicode="B" horiz-adv-x="641" 
d="M82 0v725h234q116 0 185.5 -39.5t69.5 -139.5q0 -52 -21.5 -95t-58.5 -65q110 -46 110 -172q0 -109 -71.5 -161.5t-188.5 -52.5h-259zM184 639v-225h148q136 0 136 118q0 54 -36.5 80.5t-99.5 26.5h-148zM184 335v-249h158q77 0 115.5 32.5t38.5 94.5q0 63 -39 92.5
t-121 29.5h-152z" />
    <glyph glyph-name="C" unicode="C" horiz-adv-x="629" 
d="M425 73q86 0 168 41v-93q-37 -15 -83.5 -24.5t-94.5 -9.5q-120 0 -204.5 48.5t-127 133.5t-42.5 194q0 107 44.5 192.5t129 134t200.5 48.5q51 0 98 -9t80 -25v-93q-34 18 -78.5 29.5t-89.5 11.5q-131 0 -205.5 -75t-74.5 -214t75 -214.5t205 -75.5z" />
    <glyph glyph-name="D" unicode="D" horiz-adv-x="719" 
d="M280 725q187 0 291 -83t104 -279t-104 -279.5t-291 -83.5h-198v725h198zM277 639h-93v-553h93q89 0 151.5 19.5t102.5 80.5t40 177t-40 176.5t-102.5 80t-151.5 19.5z" />
    <glyph glyph-name="E" unicode="E" horiz-adv-x="577" 
d="M529 0h-447v725h447v-88h-345v-220h322v-88h-322v-241h345v-88z" />
    <glyph glyph-name="F" unicode="F" horiz-adv-x="545" 
d="M184 0h-102v725h436v-88h-334v-220h313v-88h-313v-329z" />
    <glyph glyph-name="G" unicode="G" horiz-adv-x="715" 
d="M666 34q-52 -19 -119.5 -33t-129.5 -14q-120 0 -205 48.5t-128 133.5t-43 194q0 107 47.5 192t136.5 134t210 49q52 0 104.5 -9t84.5 -25v-93q-33 17 -83 29t-96 12q-139 0 -219.5 -75.5t-80.5 -213.5q0 -139 76 -215t206 -76q73 0 143 24v201h-200v88h296v-351z" />
    <glyph glyph-name="H" unicode="H" horiz-adv-x="734" 
d="M550 417v308h102v-725h-102v329h-366v-329h-102v725h102v-308h366z" />
    <glyph glyph-name="I" unicode="I" horiz-adv-x="460" 
d="M421 88v-88h-382v88h140v549h-140v88h382v-88h-140v-549h140z" />
    <glyph glyph-name="J" unicode="J" horiz-adv-x="356" 
d="M35 -3l6 88q34 -10 65 -10q37 0 54 17t17 57v488h-132v88h234v-572q0 -81 -42.5 -123.5t-119.5 -42.5q-42 0 -82 10z" />
    <glyph glyph-name="K" unicode="K" horiz-adv-x="654" 
d="M82 725h102v-365l317 365h127l-329 -371l374 -354h-147l-342 325v-325h-102v725z" />
    <glyph glyph-name="L" unicode="L" horiz-adv-x="514" 
d="M82 725h102v-637h308v-88h-410v725z" />
    <glyph glyph-name="M" unicode="M" horiz-adv-x="862" 
d="M678 632l-193 -462h-108l-193 462v-632h-102v725h171l178 -439l178 439h171v-725h-102v632z" />
    <glyph glyph-name="N" unicode="N" horiz-adv-x="747" 
d="M665 725v-725h-149l-332 619v-619h-102v725h150l331 -617v617h102z" />
    <glyph glyph-name="O" unicode="O" horiz-adv-x="764" 
d="M382 -13q-103 0 -180 48t-118.5 133.5t-41.5 194.5t41.5 194t118.5 133t180 48t180 -48t118.5 -133t41.5 -194t-41.5 -194.5t-118.5 -133.5t-180 -48zM382 73q67 0 120.5 34t84.5 99.5t31 156.5t-31 156t-84.5 99t-120.5 34t-120.5 -34t-84.5 -99t-31 -156t31 -156.5
t84.5 -99.5t120.5 -34z" />
    <glyph glyph-name="P" unicode="P" horiz-adv-x="616" 
d="M289 725q96 0 161.5 -18.5t102.5 -66.5t37 -134t-37 -133.5t-102 -65t-162 -17.5h-105v-290h-102v725h207zM184 639v-263h113q62 0 101.5 8.5t63.5 37t24 84.5t-24 85t-64 38.5t-101 9.5h-113z" />
    <glyph glyph-name="Q" unicode="Q" horiz-adv-x="765" 
d="M624 86l92 -96l-64 -60l-97 101q-77 -44 -173 -44q-103 0 -180 48t-118.5 133.5t-41.5 194.5t41.5 194t118.5 133t180 48t180 -48t118.5 -133t41.5 -194q0 -84 -25.5 -155.5t-72.5 -121.5zM489 99l-111 116l64 61l115 -120q61 79 61 207q0 91 -31 156t-84.5 99t-120.5 34
t-120.5 -34t-84.5 -99t-31 -156t31 -156.5t84.5 -99.5t120.5 -34q58 0 107 26z" />
    <glyph glyph-name="R" unicode="R" horiz-adv-x="633" 
d="M82 0v725h200q94 0 157.5 -17t100 -62.5t36.5 -126.5q0 -85 -44.5 -134.5t-134.5 -66.5l229 -318h-120l-222 309h-100v-309h-102zM184 639v-244h106q59 0 97 8.5t61 35t23 77.5q0 74 -46 98.5t-135 24.5h-106z" />
    <glyph glyph-name="S" unicode="S" horiz-adv-x="553" 
d="M48 30v95q54 -27 94.5 -39.5t105.5 -12.5q76 0 123 28t47 84q0 44 -29 73.5t-92 52.5l-67 24q-84 30 -133.5 80t-49.5 122q0 61 36 106.5t93.5 70t121.5 24.5q108 0 177 -32v-93q-40 20 -82.5 30t-96.5 10q-59 0 -101.5 -25.5t-42.5 -80.5q0 -78 100 -114l67 -24
q105 -37 154 -85.5t49 -119.5q0 -68 -37.5 -117t-100 -74.5t-134.5 -25.5q-63 0 -117.5 12.5t-84.5 30.5z" />
    <glyph glyph-name="T" unicode="T" horiz-adv-x="598" 
d="M350 0h-102v637h-226v88h554v-88h-226v-637z" />
    <glyph glyph-name="U" unicode="U" horiz-adv-x="731" 
d="M75 725h102v-441q0 -108 43.5 -158.5t143.5 -50.5q101 0 145.5 54.5t44.5 165.5v430h102v-422q0 -162 -68.5 -239t-223.5 -77q-102 0 -165.5 30t-93.5 97.5t-30 180.5v430z" />
    <glyph glyph-name="V" unicode="V" horiz-adv-x="624" 
d="M252 0l-249 725h112l201 -620l197 620h107l-246 -725h-122z" />
    <glyph glyph-name="W" unicode="W" horiz-adv-x="916" 
d="M398 725h120l143 -609l134 609h107l-181 -725h-124l-140 596l-137 -596h-124l-184 725h112l140 -609z" />
    <glyph glyph-name="X" unicode="X" horiz-adv-x="650" 
d="M112 0h-115l269 373l-251 352h121l191 -268l193 268h115l-251 -348l269 -377h-120l-210 293z" />
    <glyph glyph-name="Y" unicode="Y" horiz-adv-x="619" 
d="M257 283l-256 442h112l198 -354l202 354h112l-266 -444v-281h-102v283z" />
    <glyph glyph-name="Z" unicode="Z" horiz-adv-x="609" 
d="M55 725h514v-88l-426 -549h442v-88h-563v88l427 549h-394v88z" />
    <glyph glyph-name="bracketleft" unicode="[" horiz-adv-x="334" 
d="M81 -195v950h225v-77h-137v-796h137v-77h-225z" />
    <glyph glyph-name="bracketright" unicode="]" horiz-adv-x="324" 
d="M18 678v77h225v-950h-225v77h137v796h-137z" />
    <glyph glyph-name="underscore" unicode="_" horiz-adv-x="506" 
d="M469 -40v-86h-430v86h430z" />
    <glyph glyph-name="grave" unicode="`" horiz-adv-x="251" 
d="M229 639h-77l-130 116h116z" />
    <glyph glyph-name="a" unicode="a" horiz-adv-x="537" 
d="M381 348q-3 117 -131 117q-44 0 -88.5 -15t-80.5 -37v87q39 22 87 34.5t95 12.5q108 0 159 -50.5t50 -164.5l-1 -129l-1 -68q0 -36 4 -135h-88v85q-25 -45 -70.5 -71.5t-105.5 -26.5q-49 0 -90.5 20.5t-65.5 57.5t-24 85q0 87 91 132.5t260 65.5zM387 271v6
q-123 -10 -190 -39t-67 -83q0 -40 27 -67.5t75 -27.5q62 0 108.5 47t46.5 164z" />
    <glyph glyph-name="b" unicode="b" horiz-adv-x="603" 
d="M72 755h91v-302q26 45 70 69.5t106 24.5q64 0 115.5 -33.5t81.5 -97t30 -149.5q0 -87 -30 -150t-81.5 -96.5t-115.5 -33.5q-62 0 -106 24.5t-70 69.5v-81h-91v755zM316 65q73 0 112 53t39 149t-39 149t-112 53q-42 0 -78 -21.5t-57.5 -67t-21.5 -113.5t21.5 -113.5
t57.5 -67t78 -21.5z" />
    <glyph glyph-name="c" unicode="c" horiz-adv-x="459" 
d="M313 69q56 0 110 25v-85q-23 -10 -54 -16t-63 -6q-85 0 -146 36.5t-92.5 100t-31.5 143.5q0 79 34 143t95.5 100.5t140.5 36.5q68 0 115 -15v-86q-52 19 -108 19q-77 0 -128 -49.5t-51 -148.5t51.5 -148.5t127.5 -49.5z" />
    <glyph glyph-name="d" unicode="d" horiz-adv-x="603" 
d="M440 755h91v-755h-91v81q-26 -45 -70 -69.5t-106 -24.5q-64 0 -115.5 33.5t-81.5 96.5t-30 150q0 86 30 149.5t81.5 97t115.5 33.5q62 0 106 -24.5t70 -69.5v302zM287 469q-73 0 -112 -53t-39 -149t39 -149t112 -53q42 0 78 21.5t57.5 67t21.5 113.5t-21.5 113.5
t-57.5 67t-78 21.5z" />
    <glyph glyph-name="e" unicode="e" horiz-adv-x="549" 
d="M133 243q8 -87 61 -130.5t123 -43.5q50 0 89 13.5t74 36.5v-90q-31 -17 -75.5 -29.5t-95.5 -12.5q-83 0 -145 36.5t-95 100.5t-33 144q0 83 33 146.5t90 98t125 34.5q77 0 130.5 -39.5t79.5 -108.5t21 -156h-382zM134 316h283q-2 77 -41 115.5t-99 38.5q-56 0 -96.5 -37
t-46.5 -117z" />
    <glyph glyph-name="f" unicode="f" horiz-adv-x="319" 
d="M99 592q0 78 33 120.5t109 42.5q47 0 70 -5v-75q-29 4 -57 4q-37 0 -50.5 -19.5t-13.5 -67.5v-54h121v-73h-121v-465h-91v465h-75v73h75v54z" />
    <glyph glyph-name="g" unicode="g" horiz-adv-x="594" 
d="M523 48q0 -133 -69 -193.5t-186 -60.5q-93 0 -163 30v93q32 -20 74.5 -32t87.5 -12q70 0 117.5 35t47.5 123v71q-54 -93 -171 -93q-64 0 -114.5 31.5t-79 92.5t-28.5 145t28.5 144.5t79 92.5t114.5 32q117 0 171 -94v85h91v-490zM284 469q-72 0 -109 -49.5t-37 -141.5
q0 -93 37 -142.5t109 -49.5q66 0 109 47.5t43 144.5q0 96 -43 143.5t-109 47.5z" />
    <glyph glyph-name="h" unicode="h" horiz-adv-x="580" 
d="M163 457q55 90 174 90q177 0 177 -207v-340h-91v313q0 74 -23.5 114.5t-94.5 40.5q-67 0 -104.5 -45.5t-37.5 -130.5v-292h-91v755h91v-298z" />
    <glyph glyph-name="i" unicode="i" 
d="M72 645v110h91v-110h-91zM72 0v538h91v-538h-91z" />
    <glyph glyph-name="j" unicode="j" horiz-adv-x="264" 
d="M101 645v110h91v-110h-91zM19 -203v75q15 -3 38 -3q27 0 35.5 13.5t8.5 54.5v528h-80v73h171v-599q0 -57 -9.5 -86.5t-38 -44t-87.5 -14.5q-20 0 -38 3z" />
    <glyph glyph-name="k" unicode="k" horiz-adv-x="503" 
d="M72 0v755h91v-478l213 261h107l-220 -262l254 -276h-117l-237 253v-253h-91z" />
    <glyph glyph-name="l" unicode="l" 
d="M72 755h91v-755h-91v755z" />
    <glyph glyph-name="m" unicode="m" horiz-adv-x="901" 
d="M163 0h-91v538h91v-81q55 90 162 90q116 0 155 -95q62 95 181 95q90 0 132 -55t42 -152v-340h-91v313q0 73 -23.5 114t-91.5 41q-60 0 -95 -45.5t-35 -130.5v-292h-91v313q0 73 -23.5 114t-91.5 41q-60 0 -95 -45.5t-35 -130.5v-292z" />
    <glyph glyph-name="n" unicode="n" horiz-adv-x="580" 
d="M163 457q55 90 174 90q177 0 177 -207v-340h-91v313q0 74 -23.5 114.5t-94.5 40.5q-67 0 -104.5 -45.5t-37.5 -130.5v-292h-91v538h91v-81z" />
    <glyph glyph-name="o" unicode="o" horiz-adv-x="584" 
d="M292 547q68 0 126 -30.5t93.5 -93.5t35.5 -156t-35.5 -156t-93.5 -93.5t-126 -30.5t-126 30.5t-93.5 93.5t-35.5 156t35.5 156t93.5 93.5t126 30.5zM292 67q69 0 113.5 51t44.5 149q0 101 -44 150.5t-114 49.5t-114 -48t-44 -152q0 -101 44 -150.5t114 -49.5z" />
    <glyph glyph-name="p" unicode="p" horiz-adv-x="603" 
d="M72 538h91v-85q26 45 70 69.5t106 24.5q64 0 115.5 -33.5t81.5 -97t30 -149.5q0 -87 -30 -150t-81.5 -96.5t-115.5 -33.5q-62 0 -106 24.5t-70 69.5v-276h-91v733zM316 65q73 0 112 53t39 149t-39 149t-112 53q-42 0 -78 -21.5t-57.5 -67t-21.5 -113.5t21.5 -113.5
t57.5 -67t78 -21.5z" />
    <glyph glyph-name="q" unicode="q" horiz-adv-x="602" 
d="M531 538v-733h-91v276q-26 -45 -70 -69.5t-106 -24.5q-64 0 -115.5 33.5t-81.5 96.5t-30 150q0 86 30 149.5t81.5 97t115.5 33.5q62 0 106 -24.5t70 -69.5v85h91zM287 469q-73 0 -112 -53t-39 -149t39 -149t112 -53q42 0 78 21.5t57.5 67t21.5 113.5t-21.5 113.5
t-57.5 67t-78 21.5z" />
    <glyph glyph-name="r" unicode="r" horiz-adv-x="355" 
d="M340 443q-38 4 -51 4q-64 0 -95 -39t-31 -126v-282h-91v538h89v-94q20 45 59.5 70t92.5 27q20 0 27 -1v-97z" />
    <glyph glyph-name="s" unicode="s" horiz-adv-x="433" 
d="M40 19v93q30 -19 73 -32t84 -13q56 0 89 17t33 53q0 28 -26 49t-82 42l-16 6q-69 26 -110.5 64.5t-41.5 98.5q0 46 26.5 80t69.5 52t91 18q40 0 77.5 -6t61.5 -16v-86q-38 13 -69.5 20.5t-70.5 7.5q-44 0 -71.5 -15.5t-27.5 -47.5q0 -30 21.5 -49.5t60.5 -33.5l19 -7
q89 -33 131.5 -69.5t42.5 -98.5q0 -51 -29.5 -87t-77 -54t-100.5 -18q-48 0 -90.5 9t-67.5 23z" />
    <glyph glyph-name="t" unicode="t" horiz-adv-x="324" 
d="M95 538v135h91v-135h112v-73h-112v-313q0 -47 12 -64.5t46 -17.5q27 0 57 5v-73q-45 -9 -77 -9q-72 0 -100.5 35.5t-28.5 112.5v324h-85v73h85z" />
    <glyph glyph-name="u" unicode="u" horiz-adv-x="570" 
d="M407 77q-26 -42 -66 -66t-103 -24q-90 0 -131 54.5t-41 152.5v344h91v-317q0 -74 22.5 -114.5t90.5 -40.5q65 0 101 45.5t36 130.5v296h91v-538h-91v77z" />
    <glyph glyph-name="v" unicode="v" horiz-adv-x="501" 
d="M7 538h101l146 -412l146 412h94l-203 -538h-81z" />
    <glyph glyph-name="w" unicode="w" horiz-adv-x="734" 
d="M250 0h-83l-155 538h98l103 -398l107 398h94l107 -398l103 398h98l-155 -538h-83l-119 433z" />
    <glyph glyph-name="x" unicode="x" horiz-adv-x="504" 
d="M385 538h102l-183 -257l201 -281h-109l-146 205l-145 -205h-104l198 277l-186 261h109l131 -185z" />
    <glyph glyph-name="y" unicode="y" horiz-adv-x="501" 
d="M494 538l-276 -733h-95l80 211l-196 522h101l146 -412l146 412h94z" />
    <glyph glyph-name="z" unicode="z" horiz-adv-x="477" 
d="M449 0h-423v79l311 380h-291v79h397v-79l-310 -380h316v-79z" />
    <glyph glyph-name="braceleft" unicode="{" horiz-adv-x="327" 
d="M249 -195q-61 0 -92 13.5t-42.5 44.5t-11.5 90v188q0 53 -15 78t-61 25v73q46 0 61 25t15 78v187q0 59 11.5 90t42.5 44.5t92 13.5h47v-77h-45q-24 0 -36 -6t-16 -20t-4 -44v-190q0 -65 -20.5 -95t-63.5 -41v-3q43 -11 63.5 -41t20.5 -95v-191q0 -30 4 -44t16 -20t36 -6
h45v-77h-47z" />
    <glyph glyph-name="bar" unicode="|" horiz-adv-x="243" 
d="M80 -90v845h83v-845h-83z" />
    <glyph glyph-name="braceright" unicode="}" horiz-adv-x="327" 
d="M31 -195v77h45q24 0 36 6t16 20t4 44v191q0 65 20.5 95t63.5 41v3q-43 11 -63.5 41t-20.5 95v190q0 30 -4 44t-16 20t-36 6h-45v77h47q61 0 92 -13.5t42.5 -44.5t11.5 -90v-187q0 -53 15 -78t61 -25v-73q-46 0 -61 -25t-15 -78v-188q0 -59 -11.5 -90t-42.5 -44.5
t-92 -13.5h-47z" />
    <glyph glyph-name="uni00A0" unicode="&#xa0;" horiz-adv-x="217" 
 />
    <glyph glyph-name="exclamdown" unicode="&#xa1;" horiz-adv-x="239" 
d="M177 538v-115h-115v115h115zM168 33v-208h-97v208l20 293h57z" />
    <glyph glyph-name="sterling" unicode="&#xa3;" horiz-adv-x="555" 
d="M528 85v-85h-493v82q45 19 87.5 59.5t42.5 98.5q0 32 -17 81h-105v64h82q-19 47 -29 83.5t-10 69.5q0 69 35.5 114t92 65.5t120.5 20.5q106 0 169 -36v-91q-78 46 -173 46q-60 0 -103.5 -28t-43.5 -95q0 -31 10 -61.5t33 -87.5h237v-64h-214q13 -41 13 -76
q0 -48 -24.5 -89.5t-75.5 -70.5h366z" />
    <glyph glyph-name="yen" unicode="&#xa5;" horiz-adv-x="651" 
d="M525 725h106l-250 -429h156v-64h-171v-76h171v-64h-171v-92h-92v92h-163v64h163v76h-163v64h149l-242 429h107l198 -375z" />
    <glyph glyph-name="dieresis" unicode="&#xa8;" horiz-adv-x="365" 
d="M113 656h-91v99h91v-99zM251 656v99h92v-99h-92z" />
    <glyph glyph-name="copyright" unicode="&#xa9;" horiz-adv-x="841" 
d="M421 738q103 0 188.5 -48t135.5 -134t50 -195q0 -108 -50 -193.5t-135.5 -133t-188.5 -47.5q-104 0 -189.5 47.5t-135.5 132.5t-50 194q0 110 50 195.5t135.5 133.5t189.5 48zM421 54q85 0 153.5 38.5t107.5 108.5t39 160q0 91 -39 161.5t-107 109.5t-154 39
q-84 0 -153 -39t-108.5 -109.5t-39.5 -161.5q0 -90 39.5 -159.5t108.5 -108.5t153 -39zM445 569q54 0 97 -20v-70q-44 21 -91 21q-63 0 -100.5 -34.5t-37.5 -103.5t37.5 -103t100.5 -34q46 0 91 18v-70q-17 -8 -46 -12.5t-56 -4.5q-66 0 -113.5 28t-71.5 75t-24 103
q0 57 24.5 104t72.5 75t117 28z" />
    <glyph glyph-name="guillemotleft" unicode="&#xab;" horiz-adv-x="556" 
d="M296 44h-98l-159 229l159 228h98l-150 -228zM521 44h-98l-159 229l159 228h98l-150 -228z" />
    <glyph glyph-name="uni00AD" unicode="&#xad;" horiz-adv-x="426" 
d="M372 317v-86h-318v86h318z" />
    <glyph glyph-name="macron" unicode="&#xaf;" horiz-adv-x="344" 
d="M322 740v-75h-300v75h300z" />
    <glyph glyph-name="degree" unicode="&#xb0;" horiz-adv-x="364" 
d="M182 738q65 0 107 -41.5t42 -105.5t-42 -105.5t-107 -41.5t-107 41.5t-42 105.5t42 105.5t107 41.5zM182 512q34 0 55.5 22t21.5 57t-21.5 57t-55.5 22t-55.5 -22.5t-21.5 -56.5t21.5 -56.5t55.5 -22.5z" />
    <glyph glyph-name="acute" unicode="&#xb4;" horiz-adv-x="251" 
d="M112 755h117l-131 -116h-76z" />
    <glyph glyph-name="periodcentered" unicode="&#xb7;" horiz-adv-x="231" 
d="M173 327v-115h-115v115h115z" />
    <glyph glyph-name="cedilla" unicode="&#xb8;" horiz-adv-x="245" 
d="M38 -136q30 -14 58 -14q25 0 43 7.5t18 24.5q0 14 -12.5 22t-31.5 8q-25 0 -38 -9l-30 17l51 83h53l-32 -51q15 3 30 3q36 0 56 -18.5t20 -49.5q0 -37 -33 -59.5t-75 -22.5q-54 0 -93 19z" />
    <glyph glyph-name="guillemotright" unicode="&#xbb;" horiz-adv-x="556" 
d="M133 501l159 -228l-159 -229h-98l151 229l-151 228h98zM358 501l159 -228l-159 -229h-98l151 229l-151 228h98z" />
    <glyph glyph-name="questiondown" unicode="&#xbf;" horiz-adv-x="468" 
d="M346 538v-115h-115v115h115zM444 -71v-93q-34 -15 -85 -25.5t-98 -10.5q-60 0 -114 19.5t-88 59.5t-34 97q0 119 135 206q35 22 51.5 36.5t24.5 32t8 44.5v31h93v-34q0 -41 -13.5 -70t-39 -52t-71.5 -52q-44 -28 -68.5 -59.5t-24.5 -73.5q0 -48 43 -76t104 -28
q43 0 91.5 14t85.5 34z" />
    <glyph glyph-name="Agrave" unicode="&#xc0;" horiz-adv-x="660" 
d="M661 0h-110l-73 203h-301l-72 -203h-104l269 725h118zM326 622l-118 -332h238zM377 773h-91l-148 113h129z" />
    <glyph glyph-name="Aacute" unicode="&#xc1;" horiz-adv-x="660" 
d="M661 0h-110l-73 203h-301l-72 -203h-104l269 725h118zM326 622l-118 -332h238zM396 886h129l-149 -113h-90z" />
    <glyph glyph-name="Acircumflex" unicode="&#xc2;" horiz-adv-x="660" 
d="M661 0h-110l-73 203h-301l-72 -203h-104l269 725h118zM326 622l-118 -332h238zM291 886h83l132 -113h-107l-68 56l-68 -56h-107z" />
    <glyph glyph-name="Atilde" unicode="&#xc3;" horiz-adv-x="660" 
d="M661 0h-110l-73 203h-301l-72 -203h-104l269 725h118zM326 622l-118 -332h238zM444 885h71q-10 -58 -41.5 -85t-74.5 -27q-22 0 -40 7t-40 20q-18 10 -30.5 15.5t-25.5 5.5q-19 0 -31 -12t-14 -34h-71q9 56 40 84t75 28q22 0 39 -7t38 -20q18 -10 31 -15.5t27 -5.5
q19 0 31.5 12t15.5 34z" />
    <glyph glyph-name="Adieresis" unicode="&#xc4;" horiz-adv-x="660" 
d="M661 0h-110l-73 203h-301l-72 -203h-104l269 725h118zM326 622l-118 -332h238zM171 780v99h91v-99h-91zM400 780v99h92v-99h-92z" />
    <glyph glyph-name="Aring" unicode="&#xc5;" horiz-adv-x="660" 
d="M661 0h-110l-73 203h-301l-72 -203h-104l269 725h118zM326 622l-118 -332h238zM422 850q0 -37 -26 -61t-65 -24q-38 0 -64 24.5t-26 60.5q0 37 26.5 61t63.5 24q38 0 64.5 -24t26.5 -61zM288 850q0 -18 13 -30t30 -12q18 0 30.5 12t12.5 30t-12.5 30.5t-30.5 12.5
q-17 0 -30 -12.5t-13 -30.5z" />
    <glyph glyph-name="AE" unicode="&#xc6;" horiz-adv-x="931" 
d="M883 725v-88h-345v-220h322v-88h-322v-241h345v-88h-447v203h-226l-120 -203h-112l438 725h467zM436 583l-174 -293h174v293z" />
    <glyph glyph-name="Ccedilla" unicode="&#xc7;" horiz-adv-x="629" 
d="M425 73q86 0 168 41v-93q-37 -15 -83.5 -24.5t-94.5 -9.5q-120 0 -204.5 48.5t-127 133.5t-42.5 194q0 107 44.5 192.5t129 134t200.5 48.5q51 0 98 -9t80 -25v-93q-34 18 -78.5 29.5t-89.5 11.5q-131 0 -205.5 -75t-74.5 -214t75 -214.5t205 -75.5zM288 -136
q30 -14 58 -14q25 0 43 7.5t18 24.5q0 14 -12.5 22t-31.5 8q-25 0 -38 -9l-30 17l51 83h53l-32 -51q15 3 30 3q36 0 56 -18.5t20 -49.5q0 -37 -33 -59.5t-75 -22.5q-54 0 -93 19z" />
    <glyph glyph-name="Egrave" unicode="&#xc8;" horiz-adv-x="577" 
d="M529 0h-447v725h447v-88h-345v-220h322v-88h-322v-241h345v-88zM368 773h-91l-148 113h129z" />
    <glyph glyph-name="Eacute" unicode="&#xc9;" horiz-adv-x="577" 
d="M529 0h-447v725h447v-88h-345v-220h322v-88h-322v-241h345v-88zM370 886h129l-149 -113h-90z" />
    <glyph glyph-name="Ecircumflex" unicode="&#xca;" horiz-adv-x="577" 
d="M529 0h-447v725h447v-88h-345v-220h322v-88h-322v-241h345v-88zM268 886h83l132 -113h-107l-68 56l-68 -56h-107z" />
    <glyph glyph-name="Edieresis" unicode="&#xcb;" horiz-adv-x="577" 
d="M529 0h-447v725h447v-88h-345v-220h322v-88h-322v-241h345v-88zM154 780v99h91v-99h-91zM383 780v99h92v-99h-92z" />
    <glyph glyph-name="Igrave" unicode="&#xcc;" horiz-adv-x="460" 
d="M421 88v-88h-382v88h140v549h-140v88h382v-88h-140v-549h140zM282 773h-91l-148 113h129z" />
    <glyph glyph-name="Iacute" unicode="&#xcd;" horiz-adv-x="460" 
d="M421 88v-88h-382v88h140v549h-140v88h382v-88h-140v-549h140zM289 886h129l-149 -113h-90z" />
    <glyph glyph-name="Icircumflex" unicode="&#xce;" horiz-adv-x="460" 
d="M190 886h83l132 -113h-107l-68 56l-68 -56h-107zM421 88v-88h-382v88h140v549h-140v88h382v-88h-140v-549h140z" />
    <glyph glyph-name="Idieresis" unicode="&#xcf;" horiz-adv-x="460" 
d="M70 780v99h91v-99h-91zM299 780v99h92v-99h-92zM421 88v-88h-382v88h140v549h-140v88h382v-88h-140v-549h140z" />
    <glyph glyph-name="Eth" unicode="&#xd0;" horiz-adv-x="731" 
d="M292 725q187 0 291 -83.5t104 -278.5q0 -196 -104 -279.5t-291 -83.5h-198v329h-77v79h77v317h198zM289 639h-93v-231h189v-79h-189v-243h93q89 0 151.5 19.5t102.5 80.5t40 177t-40 176.5t-102.5 80t-151.5 19.5z" />
    <glyph glyph-name="Ntilde" unicode="&#xd1;" horiz-adv-x="747" 
d="M665 725v-725h-149l-332 619v-619h-102v725h150l331 -617v617h102zM506 885h71q-10 -58 -41.5 -85t-74.5 -27q-22 0 -40 7t-40 20q-18 10 -30.5 15.5t-25.5 5.5q-19 0 -31 -12t-14 -34h-71q9 56 40 84t75 28q22 0 39 -7t38 -20q18 -10 31 -15.5t27 -5.5q19 0 31.5 12
t15.5 34z" />
    <glyph glyph-name="Ograve" unicode="&#xd2;" horiz-adv-x="764" 
d="M382 -13q-103 0 -180 48t-118.5 133.5t-41.5 194.5t41.5 194t118.5 133t180 48t180 -48t118.5 -133t41.5 -194t-41.5 -194.5t-118.5 -133.5t-180 -48zM382 73q67 0 120.5 34t84.5 99.5t31 156.5t-31 156t-84.5 99t-120.5 34t-120.5 -34t-84.5 -99t-31 -156t31 -156.5
t84.5 -99.5t120.5 -34zM428 773h-91l-148 113h129z" />
    <glyph glyph-name="Oacute" unicode="&#xd3;" horiz-adv-x="764" 
d="M382 -13q-103 0 -180 48t-118.5 133.5t-41.5 194.5t41.5 194t118.5 133t180 48t180 -48t118.5 -133t41.5 -194t-41.5 -194.5t-118.5 -133.5t-180 -48zM382 73q67 0 120.5 34t84.5 99.5t31 156.5t-31 156t-84.5 99t-120.5 34t-120.5 -34t-84.5 -99t-31 -156t31 -156.5
t84.5 -99.5t120.5 -34zM447 886h129l-149 -113h-90z" />
    <glyph glyph-name="Ocircumflex" unicode="&#xd4;" horiz-adv-x="764" 
d="M382 -13q-103 0 -180 48t-118.5 133.5t-41.5 194.5t41.5 194t118.5 133t180 48t180 -48t118.5 -133t41.5 -194t-41.5 -194.5t-118.5 -133.5t-180 -48zM382 73q67 0 120.5 34t84.5 99.5t31 156.5t-31 156t-84.5 99t-120.5 34t-120.5 -34t-84.5 -99t-31 -156t31 -156.5
t84.5 -99.5t120.5 -34zM342 886h83l132 -113h-107l-68 56l-68 -56h-107z" />
    <glyph glyph-name="Otilde" unicode="&#xd5;" horiz-adv-x="764" 
d="M382 -13q-103 0 -180 48t-118.5 133.5t-41.5 194.5t41.5 194t118.5 133t180 48t180 -48t118.5 -133t41.5 -194t-41.5 -194.5t-118.5 -133.5t-180 -48zM382 73q67 0 120.5 34t84.5 99.5t31 156.5t-31 156t-84.5 99t-120.5 34t-120.5 -34t-84.5 -99t-31 -156t31 -156.5
t84.5 -99.5t120.5 -34zM495 885h71q-10 -58 -41.5 -85t-74.5 -27q-22 0 -40 7t-40 20q-18 10 -30.5 15.5t-25.5 5.5q-19 0 -31 -12t-14 -34h-71q9 56 40 84t75 28q22 0 39 -7t38 -20q18 -10 31 -15.5t27 -5.5q19 0 31.5 12t15.5 34z" />
    <glyph glyph-name="Odieresis" unicode="&#xd6;" horiz-adv-x="764" 
d="M382 -13q-103 0 -180 48t-118.5 133.5t-41.5 194.5t41.5 194t118.5 133t180 48t180 -48t118.5 -133t41.5 -194t-41.5 -194.5t-118.5 -133.5t-180 -48zM382 73q67 0 120.5 34t84.5 99.5t31 156.5t-31 156t-84.5 99t-120.5 34t-120.5 -34t-84.5 -99t-31 -156t31 -156.5
t84.5 -99.5t120.5 -34zM222 780v99h91v-99h-91zM451 780v99h92v-99h-92z" />
    <glyph glyph-name="multiply" unicode="&#xd7;" horiz-adv-x="678" 
d="M399 269l170 -169l-61 -62l-172 172l-167 -171l-59 58l169 169l-171 171l62 61l171 -171l169 172l59 -58z" />
    <glyph glyph-name="Oslash" unicode="&#xd8;" horiz-adv-x="774" 
d="M735 695l-79 -89q35 -47 53 -109t18 -134q0 -109 -41.5 -194.5t-118.5 -133.5t-180 -48q-128 0 -216 74l-74 -83l-58 52l79 89q-35 48 -53 110t-18 134q0 109 41.5 194t118.5 133t180 48q128 0 216 -74l74 83zM187 196l353 397q-62 59 -153 59q-67 0 -120.5 -34
t-84.5 -99t-31 -156q0 -97 36 -167zM587 529l-353 -397q62 -59 153 -59q67 0 120.5 34t84.5 99.5t31 156.5q0 97 -36 166z" />
    <glyph glyph-name="Ugrave" unicode="&#xd9;" horiz-adv-x="731" 
d="M75 725h102v-441q0 -108 43.5 -158.5t143.5 -50.5q101 0 145.5 54.5t44.5 165.5v430h102v-422q0 -162 -68.5 -239t-223.5 -77q-102 0 -165.5 30t-93.5 97.5t-30 180.5v430zM411 773h-91l-148 113h129z" />
    <glyph glyph-name="Uacute" unicode="&#xda;" horiz-adv-x="731" 
d="M75 725h102v-441q0 -108 43.5 -158.5t143.5 -50.5q101 0 145.5 54.5t44.5 165.5v430h102v-422q0 -162 -68.5 -239t-223.5 -77q-102 0 -165.5 30t-93.5 97.5t-30 180.5v430zM420 886h129l-149 -113h-90z" />
    <glyph glyph-name="Ucircumflex" unicode="&#xdb;" horiz-adv-x="731" 
d="M75 725h102v-441q0 -108 43.5 -158.5t143.5 -50.5q101 0 145.5 54.5t44.5 165.5v430h102v-422q0 -162 -68.5 -239t-223.5 -77q-102 0 -165.5 30t-93.5 97.5t-30 180.5v430zM325 886h83l132 -113h-107l-68 56l-68 -56h-107z" />
    <glyph glyph-name="Udieresis" unicode="&#xdc;" horiz-adv-x="731" 
d="M75 725h102v-441q0 -108 43.5 -158.5t143.5 -50.5q101 0 145.5 54.5t44.5 165.5v430h102v-422q0 -162 -68.5 -239t-223.5 -77q-102 0 -165.5 30t-93.5 97.5t-30 180.5v430zM205 780v99h91v-99h-91zM434 780v99h92v-99h-92z" />
    <glyph glyph-name="Yacute" unicode="&#xdd;" horiz-adv-x="619" 
d="M257 283l-256 442h112l198 -354l202 354h112l-266 -444v-281h-102v283zM358 886h129l-149 -113h-90z" />
    <glyph glyph-name="Thorn" unicode="&#xde;" horiz-adv-x="637" 
d="M299 589q96 0 161.5 -18.5t102.5 -66.5t37 -134t-37 -133.5t-102 -65t-162 -17.5h-115v-154h-102v725h102v-136h115zM184 503v-263h123q62 0 101.5 8.5t63.5 37t24 84.5t-24 85t-64 38.5t-101 9.5h-123z" />
    <glyph glyph-name="germandbls" unicode="&#xdf;" horiz-adv-x="631" 
d="M163 0h-91v516q0 63 14 106t41 71q66 69 201 69q64 0 115.5 -22t81 -62.5t29.5 -92.5q0 -56 -27 -97.5t-82 -64.5q69 -18 110 -67t41 -132q0 -81 -37 -134t-97.5 -78t-132.5 -25q-56 0 -109 11l20 86q45 -15 93 -15q70 0 117.5 38.5t47.5 115.5q0 78 -54 114t-149 36h-17
v83h16q79 0 123.5 31.5t44.5 86.5q0 49 -37.5 81t-97.5 32q-45 0 -78.5 -11t-54.5 -38q-31 -41 -31 -122v-516z" />
    <glyph glyph-name="agrave" unicode="&#xe0;" horiz-adv-x="537" 
d="M381 348q-3 117 -131 117q-44 0 -88.5 -15t-80.5 -37v87q39 22 87 34.5t95 12.5q108 0 159 -50.5t50 -164.5l-1 -129l-1 -68q0 -36 4 -135h-88v85q-25 -45 -70.5 -71.5t-105.5 -26.5q-49 0 -90.5 20.5t-65.5 57.5t-24 85q0 87 91 132.5t260 65.5zM387 271v6
q-123 -10 -190 -39t-67 -83q0 -40 27 -67.5t75 -27.5q62 0 108.5 47t46.5 164zM321 639h-77l-130 116h116z" />
    <glyph glyph-name="aacute" unicode="&#xe1;" horiz-adv-x="537" 
d="M381 348q-3 117 -131 117q-44 0 -88.5 -15t-80.5 -37v87q39 22 87 34.5t95 12.5q108 0 159 -50.5t50 -164.5l-1 -129l-1 -68q0 -36 4 -135h-88v85q-25 -45 -70.5 -71.5t-105.5 -26.5q-49 0 -90.5 20.5t-65.5 57.5t-24 85q0 87 91 132.5t260 65.5zM387 271v6
q-123 -10 -190 -39t-67 -83q0 -40 27 -67.5t75 -27.5q62 0 108.5 47t46.5 164zM324 755h117l-131 -116h-76z" />
    <glyph glyph-name="acircumflex" unicode="&#xe2;" horiz-adv-x="537" 
d="M381 348q-3 117 -131 117q-44 0 -88.5 -15t-80.5 -37v87q39 22 87 34.5t95 12.5q108 0 159 -50.5t50 -164.5l-1 -129l-1 -68q0 -36 4 -135h-88v85q-25 -45 -70.5 -71.5t-105.5 -26.5q-49 0 -90.5 20.5t-65.5 57.5t-24 85q0 87 91 132.5t260 65.5zM387 271v6
q-123 -10 -190 -39t-67 -83q0 -40 27 -67.5t75 -27.5q62 0 108.5 47t46.5 164zM239 755h89l129 -116h-96l-79 54l-79 -54h-96z" />
    <glyph glyph-name="atilde" unicode="&#xe3;" horiz-adv-x="537" 
d="M381 348q-3 117 -131 117q-44 0 -88.5 -15t-80.5 -37v87q39 22 87 34.5t95 12.5q108 0 159 -50.5t50 -164.5l-1 -129l-1 -68q0 -36 4 -135h-88v85q-25 -45 -70.5 -71.5t-105.5 -26.5q-49 0 -90.5 20.5t-65.5 57.5t-24 85q0 87 91 132.5t260 65.5zM387 271v6
q-123 -10 -190 -39t-67 -83q0 -40 27 -67.5t75 -27.5q62 0 108.5 47t46.5 164zM385 755h71q-10 -58 -41.5 -85.5t-74.5 -27.5q-22 0 -40 7t-40 20q-18 10 -30.5 15.5t-25.5 5.5q-19 0 -31 -11.5t-14 -32.5h-71q9 56 40 84t75 28q22 0 39 -7t38 -20q18 -10 31 -15.5t27 -5.5
q19 0 31.5 11.5t15.5 33.5z" />
    <glyph glyph-name="adieresis" unicode="&#xe4;" horiz-adv-x="537" 
d="M381 348q-3 117 -131 117q-44 0 -88.5 -15t-80.5 -37v87q39 22 87 34.5t95 12.5q108 0 159 -50.5t50 -164.5l-1 -129l-1 -68q0 -36 4 -135h-88v85q-25 -45 -70.5 -71.5t-105.5 -26.5q-49 0 -90.5 20.5t-65.5 57.5t-24 85q0 87 91 132.5t260 65.5zM387 271v6
q-123 -10 -190 -39t-67 -83q0 -40 27 -67.5t75 -27.5q62 0 108.5 47t46.5 164zM203 656h-91v99h91v-99zM341 656v99h92v-99h-92z" />
    <glyph glyph-name="aring" unicode="&#xe5;" horiz-adv-x="537" 
d="M381 348q-3 117 -131 117q-44 0 -88.5 -15t-80.5 -37v87q39 22 87 34.5t95 12.5q108 0 159 -50.5t50 -164.5l-1 -129l-1 -68q0 -36 4 -135h-88v85q-25 -45 -70.5 -71.5t-105.5 -26.5q-49 0 -90.5 20.5t-65.5 57.5t-24 85q0 87 91 132.5t260 65.5zM387 271v6
q-123 -10 -190 -39t-67 -83q0 -40 27 -67.5t75 -27.5q62 0 108.5 47t46.5 164zM373 707q0 -37 -26 -61t-65 -24q-38 0 -64 24.5t-26 60.5q0 37 26.5 61t63.5 24q38 0 64.5 -24t26.5 -61zM239 707q0 -18 13 -30t30 -12q18 0 30.5 12t12.5 30t-12.5 30.5t-30.5 12.5
q-17 0 -30 -12.5t-13 -30.5z" />
    <glyph glyph-name="ae" unicode="&#xe6;" horiz-adv-x="886" 
d="M81 413v87q39 22 87 34.5t95 12.5q70 0 115.5 -20.5t68.5 -64.5q31 41 75.5 63t98.5 22q77 0 130.5 -39.5t79.5 -108.5t21 -156h-382q8 -87 61 -130.5t123 -43.5q50 0 89 13.5t74 36.5v-90q-31 -17 -75.5 -29.5t-95.5 -12.5q-78 0 -134 33t-87 91q-27 -62 -84 -93
t-122 -31q-83 0 -136 44.5t-53 118.5q0 87 91 132.5t260 65.5q-3 117 -131 117q-44 0 -88.5 -15t-80.5 -37zM471 316h283q-2 77 -41 115.5t-99 38.5q-56 0 -96.5 -37t-46.5 -117zM387 271v6q-123 -10 -190 -39t-67 -83q0 -40 27 -67.5t75 -27.5q62 0 108.5 47t46.5 164z" />
    <glyph glyph-name="ccedilla" unicode="&#xe7;" horiz-adv-x="459" 
d="M313 69q56 0 110 25v-85q-23 -10 -54 -16t-63 -6q-85 0 -146 36.5t-92.5 100t-31.5 143.5q0 79 34 143t95.5 100.5t140.5 36.5q68 0 115 -15v-86q-52 19 -108 19q-77 0 -128 -49.5t-51 -148.5t51.5 -148.5t127.5 -49.5zM189 -136q30 -14 58 -14q25 0 43 7.5t18 24.5
q0 14 -12.5 22t-31.5 8q-25 0 -38 -9l-30 17l51 83h53l-32 -51q15 3 30 3q36 0 56 -18.5t20 -49.5q0 -37 -33 -59.5t-75 -22.5q-54 0 -93 19z" />
    <glyph glyph-name="egrave" unicode="&#xe8;" horiz-adv-x="549" 
d="M133 243q8 -87 61 -130.5t123 -43.5q50 0 89 13.5t74 36.5v-90q-31 -17 -75.5 -29.5t-95.5 -12.5q-83 0 -145 36.5t-95 100.5t-33 144q0 83 33 146.5t90 98t125 34.5q77 0 130.5 -39.5t79.5 -108.5t21 -156h-382zM134 316h283q-2 77 -41 115.5t-99 38.5q-56 0 -96.5 -37
t-46.5 -117zM328 639h-77l-130 116h116z" />
    <glyph glyph-name="eacute" unicode="&#xe9;" horiz-adv-x="549" 
d="M133 243q8 -87 61 -130.5t123 -43.5q50 0 89 13.5t74 36.5v-90q-31 -17 -75.5 -29.5t-95.5 -12.5q-83 0 -145 36.5t-95 100.5t-33 144q0 83 33 146.5t90 98t125 34.5q77 0 130.5 -39.5t79.5 -108.5t21 -156h-382zM134 316h283q-2 77 -41 115.5t-99 38.5q-56 0 -96.5 -37
t-46.5 -117zM341 755h117l-131 -116h-76z" />
    <glyph glyph-name="ecircumflex" unicode="&#xea;" horiz-adv-x="549" 
d="M133 243q8 -87 61 -130.5t123 -43.5q50 0 89 13.5t74 36.5v-90q-31 -17 -75.5 -29.5t-95.5 -12.5q-83 0 -145 36.5t-95 100.5t-33 144q0 83 33 146.5t90 98t125 34.5q77 0 130.5 -39.5t79.5 -108.5t21 -156h-382zM134 316h283q-2 77 -41 115.5t-99 38.5q-56 0 -96.5 -37
t-46.5 -117zM246 755h89l129 -116h-96l-79 54l-79 -54h-96z" />
    <glyph glyph-name="edieresis" unicode="&#xeb;" horiz-adv-x="549" 
d="M133 243q8 -87 61 -130.5t123 -43.5q50 0 89 13.5t74 36.5v-90q-31 -17 -75.5 -29.5t-95.5 -12.5q-83 0 -145 36.5t-95 100.5t-33 144q0 83 33 146.5t90 98t125 34.5q77 0 130.5 -39.5t79.5 -108.5t21 -156h-382zM134 316h283q-2 77 -41 115.5t-99 38.5q-56 0 -96.5 -37
t-46.5 -117zM220 656h-91v99h91v-99zM358 656v99h92v-99h-92z" />
    <glyph glyph-name="igrave" unicode="&#xec;" 
d="M72 0v538h91v-538h-91zM157 639h-77l-130 116h116z" />
    <glyph glyph-name="iacute" unicode="&#xed;" 
d="M72 0v538h91v-538h-91zM169 755h117l-131 -116h-76z" />
    <glyph glyph-name="icircumflex" unicode="&#xee;" 
d="M74 755h89l119 -116h-96l-69 54l-69 -54h-96zM72 0v538h91v-538h-91z" />
    <glyph glyph-name="idieresis" unicode="&#xef;" 
d="M72 0v538h91v-538h-91zM49 656h-91v99h91v-99zM187 656v99h92v-99h-92z" />
    <glyph glyph-name="eth" unicode="&#xf0;" horiz-adv-x="575" 
d="M362 675q171 -139 171 -359q0 -161 -68 -245t-184 -84q-75 0 -130 34t-84.5 97.5t-29.5 149.5q0 84 30 147.5t82.5 97.5t119.5 34q49 0 88.5 -21t65.5 -58l1 1q-36 88 -137 160l-85 -52l-23 38l67 41q-32 20 -71 37l44 69q54 -24 105 -58l74 45l23 -38zM434 268
q0 98 -42.5 149.5t-109.5 51.5q-71 0 -108.5 -54t-37.5 -147q0 -94 37.5 -148.5t108.5 -54.5q68 0 110 52t42 151z" />
    <glyph glyph-name="ntilde" unicode="&#xf1;" horiz-adv-x="580" 
d="M163 457q55 90 174 90q177 0 177 -207v-340h-91v313q0 74 -23.5 114.5t-94.5 40.5q-67 0 -104.5 -45.5t-37.5 -130.5v-292h-91v538h91v-81zM416 755h71q-10 -58 -41.5 -85.5t-74.5 -27.5q-22 0 -40 7t-40 20q-18 10 -30.5 15.5t-25.5 5.5q-19 0 -31 -11.5t-14 -32.5h-71
q9 56 40 84t75 28q22 0 39 -7t38 -20q18 -10 31 -15.5t27 -5.5q19 0 31.5 11.5t15.5 33.5z" />
    <glyph glyph-name="ograve" unicode="&#xf2;" horiz-adv-x="584" 
d="M292 547q68 0 126 -30.5t93.5 -93.5t35.5 -156t-35.5 -156t-93.5 -93.5t-126 -30.5t-126 30.5t-93.5 93.5t-35.5 156t35.5 156t93.5 93.5t126 30.5zM292 67q69 0 113.5 51t44.5 149q0 101 -44 150.5t-114 49.5t-114 -48t-44 -152q0 -101 44 -150.5t114 -49.5zM331 639
h-77l-130 116h116z" />
    <glyph glyph-name="oacute" unicode="&#xf3;" horiz-adv-x="584" 
d="M292 547q68 0 126 -30.5t93.5 -93.5t35.5 -156t-35.5 -156t-93.5 -93.5t-126 -30.5t-126 30.5t-93.5 93.5t-35.5 156t35.5 156t93.5 93.5t126 30.5zM292 67q69 0 113.5 51t44.5 149q0 101 -44 150.5t-114 49.5t-114 -48t-44 -152q0 -101 44 -150.5t114 -49.5zM344 755
h117l-131 -116h-76z" />
    <glyph glyph-name="ocircumflex" unicode="&#xf4;" horiz-adv-x="584" 
d="M292 547q68 0 126 -30.5t93.5 -93.5t35.5 -156t-35.5 -156t-93.5 -93.5t-126 -30.5t-126 30.5t-93.5 93.5t-35.5 156t35.5 156t93.5 93.5t126 30.5zM292 67q69 0 113.5 51t44.5 149q0 101 -44 150.5t-114 49.5t-114 -48t-44 -152q0 -101 44 -150.5t114 -49.5zM249 755h89
l129 -116h-96l-79 54l-79 -54h-96z" />
    <glyph glyph-name="otilde" unicode="&#xf5;" horiz-adv-x="584" 
d="M292 547q68 0 126 -30.5t93.5 -93.5t35.5 -156t-35.5 -156t-93.5 -93.5t-126 -30.5t-126 30.5t-93.5 93.5t-35.5 156t35.5 156t93.5 93.5t126 30.5zM292 67q69 0 113.5 51t44.5 149q0 101 -44 150.5t-114 49.5t-114 -48t-44 -152q0 -101 44 -150.5t114 -49.5zM405 755h71
q-10 -58 -41.5 -85.5t-74.5 -27.5q-22 0 -40 7t-40 20q-18 10 -30.5 15.5t-25.5 5.5q-19 0 -31 -11.5t-14 -32.5h-71q9 56 40 84t75 28q22 0 39 -7t38 -20q18 -10 31 -15.5t27 -5.5q19 0 31.5 11.5t15.5 33.5z" />
    <glyph glyph-name="odieresis" unicode="&#xf6;" horiz-adv-x="584" 
d="M292 547q68 0 126 -30.5t93.5 -93.5t35.5 -156t-35.5 -156t-93.5 -93.5t-126 -30.5t-126 30.5t-93.5 93.5t-35.5 156t35.5 156t93.5 93.5t126 30.5zM292 67q69 0 113.5 51t44.5 149q0 101 -44 150.5t-114 49.5t-114 -48t-44 -152q0 -101 44 -150.5t114 -49.5zM223 656
h-91v99h91v-99zM361 656v99h92v-99h-92z" />
    <glyph glyph-name="divide" unicode="&#xf7;" horiz-adv-x="678" 
d="M399 402h-115v115h115v-115zM610 312v-86h-542v86h542zM399 21h-115v115h115v-115z" />
    <glyph glyph-name="oslash" unicode="&#xf8;" horiz-adv-x="598" 
d="M561 514l-58 -66q51 -72 51 -181q0 -93 -35.5 -156t-93.5 -93.5t-126 -30.5q-91 0 -157 51l-54 -62l-52 44l59 67q-51 70 -51 180q0 93 35.5 156t93.5 93.5t126 30.5q90 0 156 -50l54 61zM159 160l239 272q-39 35 -99 35q-70 0 -114 -48t-44 -152q0 -61 18 -107zM439 375
l-240 -273q39 -35 100 -35q69 0 113.5 51t44.5 149q0 61 -18 108z" />
    <glyph glyph-name="ugrave" unicode="&#xf9;" horiz-adv-x="570" 
d="M407 77q-26 -42 -66 -66t-103 -24q-90 0 -131 54.5t-41 152.5v344h91v-317q0 -74 22.5 -114.5t90.5 -40.5q65 0 101 45.5t36 130.5v296h91v-538h-91v77zM344 639h-77l-130 116h116z" />
    <glyph glyph-name="uacute" unicode="&#xfa;" horiz-adv-x="570" 
d="M407 77q-26 -42 -66 -66t-103 -24q-90 0 -131 54.5t-41 152.5v344h91v-317q0 -74 22.5 -114.5t90.5 -40.5q65 0 101 45.5t36 130.5v296h91v-538h-91v77zM337 755h117l-131 -116h-76z" />
    <glyph glyph-name="ucircumflex" unicode="&#xfb;" horiz-adv-x="570" 
d="M407 77q-26 -42 -66 -66t-103 -24q-90 0 -131 54.5t-41 152.5v344h91v-317q0 -74 22.5 -114.5t90.5 -40.5q65 0 101 45.5t36 130.5v296h91v-538h-91v77zM242 755h89l129 -116h-96l-79 54l-79 -54h-96z" />
    <glyph glyph-name="udieresis" unicode="&#xfc;" horiz-adv-x="570" 
d="M407 77q-26 -42 -66 -66t-103 -24q-90 0 -131 54.5t-41 152.5v344h91v-317q0 -74 22.5 -114.5t90.5 -40.5q65 0 101 45.5t36 130.5v296h91v-538h-91v77zM216 656h-91v99h91v-99zM354 656v99h92v-99h-92z" />
    <glyph glyph-name="yacute" unicode="&#xfd;" horiz-adv-x="501" 
d="M494 538l-276 -733h-95l80 211l-196 522h101l146 -412l146 412h94zM310 755h117l-131 -116h-76z" />
    <glyph glyph-name="thorn" unicode="&#xfe;" horiz-adv-x="601" 
d="M72 755h91v-302q26 45 70 69.5t106 24.5q64 0 115 -33.5t80.5 -97t29.5 -149.5q0 -87 -29.5 -150t-80.5 -96.5t-115 -33.5q-62 0 -106 24.5t-70 69.5v-276h-91v950zM316 65q73 0 112 53t39 149t-39 149t-112 53q-42 0 -78 -21.5t-57.5 -67t-21.5 -113.5t21.5 -113.5
t57.5 -67t78 -21.5z" />
    <glyph glyph-name="ydieresis" unicode="&#xff;" horiz-adv-x="501" 
d="M494 538l-276 -733h-95l80 211l-196 522h101l146 -412l146 412h94zM200 656h-91v99h91v-99zM338 656v99h92v-99h-92z" />
    <glyph glyph-name="Abreve" unicode="&#x102;" horiz-adv-x="660" 
d="M661 0h-110l-73 203h-301l-72 -203h-104l269 725h118zM326 622l-118 -332h238zM489 886q-6 -55 -46 -87t-113 -32q-71 0 -110 32t-46 87h77q9 -58 80 -58q70 0 81 58h77z" />
    <glyph glyph-name="Amacron" unicode="&#x100;" horiz-adv-x="660" 
d="M661 0h-110l-73 203h-301l-72 -203h-104l269 725h118zM326 622l-118 -332h238zM481 866v-75h-300v75h300z" />
    <glyph glyph-name="Aogonek" unicode="&#x104;" horiz-adv-x="660" 
d="M620 -125q22 0 41 9v-61q-25 -11 -60 -11q-46 0 -78.5 23t-32.5 72q0 28 15 49.5t46 43.5l-73 203h-301l-72 -203h-104l269 725h118l273 -725q-42 -21 -65 -40t-23 -40q0 -23 13.5 -34t33.5 -11zM326 622l-118 -332h238z" />
    <glyph glyph-name="Cacute" unicode="&#x106;" horiz-adv-x="629" 
d="M425 73q86 0 168 41v-93q-37 -15 -83.5 -24.5t-94.5 -9.5q-120 0 -204.5 48.5t-127 133.5t-42.5 194q0 107 44.5 192.5t129 134t200.5 48.5q51 0 98 -9t80 -25v-93q-34 18 -78.5 29.5t-89.5 11.5q-131 0 -205.5 -75t-74.5 -214t75 -214.5t205 -75.5zM443 886h129
l-149 -113h-90z" />
    <glyph glyph-name="Ccaron" unicode="&#x10c;" horiz-adv-x="629" 
d="M425 73q86 0 168 41v-93q-37 -15 -83.5 -24.5t-94.5 -9.5q-120 0 -204.5 48.5t-127 133.5t-42.5 194q0 107 44.5 192.5t129 134t200.5 48.5q51 0 98 -9t80 -25v-93q-34 18 -78.5 29.5t-89.5 11.5q-131 0 -205.5 -75t-74.5 -214t75 -214.5t205 -75.5zM435 773h-84
l-131 113h107l67 -56l69 56h107z" />
    <glyph glyph-name="Ccircumflex" unicode="&#x108;" horiz-adv-x="629" 
d="M425 73q86 0 168 41v-93q-37 -15 -83.5 -24.5t-94.5 -9.5q-120 0 -204.5 48.5t-127 133.5t-42.5 194q0 107 44.5 192.5t129 134t200.5 48.5q51 0 98 -9t80 -25v-93q-34 18 -78.5 29.5t-89.5 11.5q-131 0 -205.5 -75t-74.5 -214t75 -214.5t205 -75.5zM341 886h83l132 -113
h-107l-68 56l-68 -56h-107z" />
    <glyph glyph-name="Cdotaccent" unicode="&#x10a;" horiz-adv-x="629" 
d="M425 73q86 0 168 41v-93q-37 -15 -83.5 -24.5t-94.5 -9.5q-120 0 -204.5 48.5t-127 133.5t-42.5 194q0 107 44.5 192.5t129 134t200.5 48.5q51 0 98 -9t80 -25v-93q-34 18 -78.5 29.5t-89.5 11.5q-131 0 -205.5 -75t-74.5 -214t75 -214.5t205 -75.5zM346 781v99h91v-99
h-91z" />
    <glyph glyph-name="Dcaron" unicode="&#x10e;" horiz-adv-x="719" 
d="M280 725q187 0 291 -83t104 -279t-104 -279.5t-291 -83.5h-198v725h198zM277 639h-93v-553h93q89 0 151.5 19.5t102.5 80.5t40 177t-40 176.5t-102.5 80t-151.5 19.5zM398 773h-84l-131 113h107l67 -56l69 56h107z" />
    <glyph glyph-name="Dcroat" unicode="&#x110;" horiz-adv-x="731" 
d="M292 725q187 0 291 -83.5t104 -278.5q0 -196 -104 -279.5t-291 -83.5h-198v329h-77v79h77v317h198zM289 639h-93v-231h189v-79h-189v-243h93q89 0 151.5 19.5t102.5 80.5t40 177t-40 176.5t-102.5 80t-151.5 19.5z" />
    <glyph glyph-name="Ebreve" unicode="&#x114;" horiz-adv-x="577" 
d="M529 0h-447v725h447v-88h-345v-220h322v-88h-322v-241h345v-88zM474 886q-6 -55 -46 -87t-113 -32q-71 0 -110 32t-46 87h77q9 -58 80 -58q70 0 81 58h77z" />
    <glyph glyph-name="Ecaron" unicode="&#x11a;" horiz-adv-x="577" 
d="M529 0h-447v725h447v-88h-345v-220h322v-88h-322v-241h345v-88zM356 773h-84l-131 113h107l67 -56l69 56h107z" />
    <glyph glyph-name="Emacron" unicode="&#x112;" horiz-adv-x="577" 
d="M529 0h-447v725h447v-88h-345v-220h322v-88h-322v-241h345v-88zM463 866v-75h-300v75h300z" />
    <glyph glyph-name="Eogonek" unicode="&#x118;" horiz-adv-x="577" 
d="M82 0v725h447v-88h-345v-220h322v-88h-322v-241h345v-88q-40 -20 -64 -40.5t-24 -39.5q0 -23 13.5 -34t33.5 -11q22 0 41 9v-61q-25 -11 -60 -11q-46 0 -78.5 23t-32.5 72q0 55 69 93h-345z" />
    <glyph glyph-name="Edotaccent" unicode="&#x116;" horiz-adv-x="577" 
d="M529 0h-447v725h447v-88h-345v-220h322v-88h-322v-241h345v-88zM268 781v99h91v-99h-91z" />
    <glyph glyph-name="Gbreve" unicode="&#x11e;" horiz-adv-x="715" 
d="M666 34q-52 -19 -119.5 -33t-129.5 -14q-120 0 -205 48.5t-128 133.5t-43 194q0 107 47.5 192t136.5 134t210 49q52 0 104.5 -9t84.5 -25v-93q-33 17 -83 29t-96 12q-139 0 -219.5 -75.5t-80.5 -213.5q0 -139 76 -215t206 -76q73 0 143 24v201h-200v88h296v-351zM555 886
q-6 -55 -46 -87t-113 -32q-71 0 -110 32t-46 87h77q9 -58 80 -58q70 0 81 58h77z" />
    <glyph glyph-name="Gcircumflex" unicode="&#x11c;" horiz-adv-x="715" 
d="M666 34q-52 -19 -119.5 -33t-129.5 -14q-120 0 -205 48.5t-128 133.5t-43 194q0 107 47.5 192t136.5 134t210 49q52 0 104.5 -9t84.5 -25v-93q-33 17 -83 29t-96 12q-139 0 -219.5 -75.5t-80.5 -213.5q0 -139 76 -215t206 -76q73 0 143 24v201h-200v88h296v-351zM359 886
h83l132 -113h-107l-68 56l-68 -56h-107z" />
    <glyph glyph-name="uni0122" unicode="&#x122;" horiz-adv-x="715" 
d="M666 34q-52 -19 -119.5 -33t-129.5 -14q-120 0 -205 48.5t-128 133.5t-43 194q0 107 47.5 192t136.5 134t210 49q52 0 104.5 -9t84.5 -25v-93q-33 17 -83 29t-96 12q-139 0 -219.5 -75.5t-80.5 -213.5q0 -139 76 -215t206 -76q73 0 143 24v201h-200v88h296v-351z
M398 -125h-36v89h95v-95l-44 -90h-54z" />
    <glyph glyph-name="Gdotaccent" unicode="&#x120;" horiz-adv-x="715" 
d="M666 34q-52 -19 -119.5 -33t-129.5 -14q-120 0 -205 48.5t-128 133.5t-43 194q0 107 47.5 192t136.5 134t210 49q52 0 104.5 -9t84.5 -25v-93q-33 17 -83 29t-96 12q-139 0 -219.5 -75.5t-80.5 -213.5q0 -139 76 -215t206 -76q73 0 143 24v201h-200v88h296v-351zM344 781
v99h91v-99h-91z" />
    <glyph glyph-name="Hbar" unicode="&#x126;" horiz-adv-x="764" 
d="M565 596v129h102v-129h77v-79h-77v-517h-102v329h-366v-329h-102v517h-77v79h77v129h102v-129h366zM199 517v-100h366v100h-366z" />
    <glyph glyph-name="Hcircumflex" unicode="&#x124;" horiz-adv-x="734" 
d="M550 417v308h102v-725h-102v329h-366v-329h-102v725h102v-308h366zM334 886h83l132 -113h-107l-68 56l-68 -56h-107z" />
    <glyph glyph-name="Ibreve" unicode="&#x12c;" horiz-adv-x="460" 
d="M388 886q-6 -55 -46 -87t-113 -32q-71 0 -110 32t-46 87h77q9 -58 80 -58q70 0 81 58h77zM421 88v-88h-382v88h140v549h-140v88h382v-88h-140v-549h140z" />
    <glyph glyph-name="Idotaccent" unicode="&#x130;" horiz-adv-x="460" 
d="M421 88v-88h-382v88h140v549h-140v88h382v-88h-140v-549h140zM184 781v99h91v-99h-91z" />
    <glyph glyph-name="Imacron" unicode="&#x12a;" horiz-adv-x="460" 
d="M380 866v-75h-300v75h300zM421 88v-88h-382v88h140v549h-140v88h382v-88h-140v-549h140z" />
    <glyph glyph-name="Iogonek" unicode="&#x12e;" horiz-adv-x="460" 
d="M39 0v88h140v549h-140v88h382v-88h-140v-549h140v-88h-139q-40 -20 -64 -40.5t-24 -39.5q0 -23 13.5 -34t33.5 -11q22 0 41 9v-61q-25 -11 -60 -11q-46 0 -78.5 23t-32.5 72q0 55 69 93h-141z" />
    <glyph glyph-name="Itilde" unicode="&#x128;" horiz-adv-x="460" 
d="M343 885h71q-10 -58 -41.5 -85t-74.5 -27q-22 0 -40 7t-40 20q-18 10 -30.5 15.5t-25.5 5.5q-19 0 -31 -12t-14 -34h-71q9 56 40 84t75 28q22 0 39 -7t38 -20q18 -10 31 -15.5t27 -5.5q19 0 31.5 12t15.5 34zM421 88v-88h-382v88h140v549h-140v88h382v-88h-140v-549h140z
" />
    <glyph glyph-name="uni1ECA" unicode="&#x1eca;" horiz-adv-x="460" 
d="M184 -175v99h91v-99h-91zM421 88v-88h-382v88h140v549h-140v88h382v-88h-140v-549h140z" />
    <glyph glyph-name="Jcircumflex" unicode="&#x134;" horiz-adv-x="356" 
d="M169 886h83l122 -113h-107l-58 56l-58 -56h-107zM35 -3l6 88q34 -10 65 -10q37 0 54 17t17 57v488h-132v88h234v-572q0 -81 -42.5 -123.5t-119.5 -42.5q-42 0 -82 10z" />
    <glyph glyph-name="uni0136" unicode="&#x136;" horiz-adv-x="654" 
d="M82 725h102v-365l317 365h127l-329 -371l374 -354h-147l-342 325v-325h-102v725zM345 -125h-36v89h95v-95l-44 -90h-54z" />
    <glyph glyph-name="Lacute" unicode="&#x139;" horiz-adv-x="514" 
d="M82 725h102v-637h308v-88h-410v725zM194 886h129l-149 -113h-90z" />
    <glyph glyph-name="Lcaron" unicode="&#x13d;" horiz-adv-x="515" 
d="M82 725h102v-637h308v-88h-410v725zM306 726h98l-70 -170h-58z" />
    <glyph glyph-name="uni013B" unicode="&#x13b;" horiz-adv-x="514" 
d="M82 725h102v-637h308v-88h-410v725zM294 -125h-36v89h95v-95l-44 -90h-54z" />
    <glyph glyph-name="Ldot" unicode="&#x13f;" horiz-adv-x="515" 
d="M82 725h102v-637h308v-88h-410v725zM345 355v99h91v-99h-91z" />
    <glyph glyph-name="Lslash" unicode="&#x141;" horiz-adv-x="553" 
d="M120 725h102v-302l189 129v-91l-189 -129v-244h308v-88h-410v262l-86 -59v91l86 59v372z" />
    <glyph glyph-name="Nacute" unicode="&#x143;" horiz-adv-x="747" 
d="M665 725v-725h-149l-332 619v-619h-102v725h150l331 -617v617h102zM438 886h129l-149 -113h-90z" />
    <glyph glyph-name="Ncaron" unicode="&#x147;" horiz-adv-x="747" 
d="M665 725v-725h-149l-332 619v-619h-102v725h150l331 -617v617h102zM436 773h-84l-131 113h107l67 -56l69 56h107z" />
    <glyph glyph-name="uni0145" unicode="&#x145;" horiz-adv-x="747" 
d="M665 725v-725h-149l-332 619v-619h-102v725h150l331 -617v617h102zM363 -125h-36v89h95v-95l-44 -90h-54z" />
    <glyph glyph-name="OE" unicode="&#x152;" horiz-adv-x="1094" 
d="M620 99q-40 -55 -100.5 -83.5t-138.5 -28.5q-102 0 -179 48t-118.5 133.5t-41.5 194.5t42 194t119.5 133t179.5 48q154 0 237 -111v98h426v-88h-345v-220h322v-88h-322v-241h345v-88h-426v99zM382 652q-67 0 -120.5 -34t-84.5 -99.5t-31 -155.5q0 -91 31 -156.5
t84.5 -99.5t120.5 -34t120.5 34t84.5 99.5t31 156.5q0 90 -31 155.5t-84.5 99.5t-120.5 34z" />
    <glyph glyph-name="Obreve" unicode="&#x14e;" horiz-adv-x="764" 
d="M382 -13q-103 0 -180 48t-118.5 133.5t-41.5 194.5t41.5 194t118.5 133t180 48t180 -48t118.5 -133t41.5 -194t-41.5 -194.5t-118.5 -133.5t-180 -48zM382 73q67 0 120.5 34t84.5 99.5t31 156.5t-31 156t-84.5 99t-120.5 34t-120.5 -34t-84.5 -99t-31 -156t31 -156.5
t84.5 -99.5t120.5 -34zM540 886q-6 -55 -46 -87t-113 -32q-71 0 -110 32t-46 87h77q9 -58 80 -58q70 0 81 58h77z" />
    <glyph glyph-name="Ohungarumlaut" unicode="&#x150;" horiz-adv-x="764" 
d="M382 -13q-103 0 -180 48t-118.5 133.5t-41.5 194.5t41.5 194t118.5 133t180 48t180 -48t118.5 -133t41.5 -194t-41.5 -194.5t-118.5 -133.5t-180 -48zM382 73q67 0 120.5 34t84.5 99.5t31 156.5t-31 156t-84.5 99t-120.5 34t-120.5 -34t-84.5 -99t-31 -156t31 -156.5
t84.5 -99.5t120.5 -34zM364 886h129l-149 -113h-90zM531 886h129l-149 -113h-90z" />
    <glyph glyph-name="Omacron" unicode="&#x14c;" horiz-adv-x="764" 
d="M382 -13q-103 0 -180 48t-118.5 133.5t-41.5 194.5t41.5 194t118.5 133t180 48t180 -48t118.5 -133t41.5 -194t-41.5 -194.5t-118.5 -133.5t-180 -48zM382 73q67 0 120.5 34t84.5 99.5t31 156.5t-31 156t-84.5 99t-120.5 34t-120.5 -34t-84.5 -99t-31 -156t31 -156.5
t84.5 -99.5t120.5 -34zM532 866v-75h-300v75h300z" />
    <glyph glyph-name="uni1ECC" unicode="&#x1ecc;" horiz-adv-x="764" 
d="M382 -13q-103 0 -180 48t-118.5 133.5t-41.5 194.5t41.5 194t118.5 133t180 48t180 -48t118.5 -133t41.5 -194t-41.5 -194.5t-118.5 -133.5t-180 -48zM382 73q67 0 120.5 34t84.5 99.5t31 156.5t-31 156t-84.5 99t-120.5 34t-120.5 -34t-84.5 -99t-31 -156t31 -156.5
t84.5 -99.5t120.5 -34zM337 -175v99h91v-99h-91z" />
    <glyph glyph-name="Racute" unicode="&#x154;" horiz-adv-x="633" 
d="M82 0v725h200q94 0 157.5 -17t100 -62.5t36.5 -126.5q0 -85 -44.5 -134.5t-134.5 -66.5l229 -318h-120l-222 309h-100v-309h-102zM184 639v-244h106q59 0 97 8.5t61 35t23 77.5q0 74 -46 98.5t-135 24.5h-106zM385 886h129l-149 -113h-90z" />
    <glyph glyph-name="Rcaron" unicode="&#x158;" horiz-adv-x="633" 
d="M82 0v725h200q94 0 157.5 -17t100 -62.5t36.5 -126.5q0 -85 -44.5 -134.5t-134.5 -66.5l229 -318h-120l-222 309h-100v-309h-102zM184 639v-244h106q59 0 97 8.5t61 35t23 77.5q0 74 -46 98.5t-135 24.5h-106zM343 773h-84l-131 113h107l67 -56l69 56h107z" />
    <glyph glyph-name="uni0156" unicode="&#x156;" horiz-adv-x="633" 
d="M82 0v725h200q94 0 157.5 -17t100 -62.5t36.5 -126.5q0 -85 -44.5 -134.5t-134.5 -66.5l229 -318h-120l-222 309h-100v-309h-102zM184 639v-244h106q59 0 97 8.5t61 35t23 77.5q0 74 -46 98.5t-135 24.5h-106zM316 -125h-36v89h95v-95l-44 -90h-54z" />
    <glyph glyph-name="Sacute" unicode="&#x15a;" horiz-adv-x="553" 
d="M48 30v95q54 -27 94.5 -39.5t105.5 -12.5q76 0 123 28t47 84q0 44 -29 73.5t-92 52.5l-67 24q-84 30 -133.5 80t-49.5 122q0 61 36 106.5t93.5 70t121.5 24.5q108 0 177 -32v-93q-40 20 -82.5 30t-96.5 10q-59 0 -101.5 -25.5t-42.5 -80.5q0 -78 100 -114l67 -24
q105 -37 154 -85.5t49 -119.5q0 -68 -37.5 -117t-100 -74.5t-134.5 -25.5q-63 0 -117.5 12.5t-84.5 30.5zM359 886h129l-149 -113h-90z" />
    <glyph glyph-name="Scaron" unicode="&#x160;" horiz-adv-x="553" 
d="M48 30v95q54 -27 94.5 -39.5t105.5 -12.5q76 0 123 28t47 84q0 44 -29 73.5t-92 52.5l-67 24q-84 30 -133.5 80t-49.5 122q0 61 36 106.5t93.5 70t121.5 24.5q108 0 177 -32v-93q-40 20 -82.5 30t-96.5 10q-59 0 -101.5 -25.5t-42.5 -80.5q0 -78 100 -114l67 -24
q105 -37 154 -85.5t49 -119.5q0 -68 -37.5 -117t-100 -74.5t-134.5 -25.5q-63 0 -117.5 12.5t-84.5 30.5zM342 773h-84l-131 113h107l67 -56l69 56h107z" />
    <glyph glyph-name="Scedilla" unicode="&#x15e;" horiz-adv-x="553" 
d="M48 30v95q54 -27 94.5 -39.5t105.5 -12.5q76 0 123 28t47 84q0 44 -29 73.5t-92 52.5l-67 24q-84 30 -133.5 80t-49.5 122q0 61 36 106.5t93.5 70t121.5 24.5q108 0 177 -32v-93q-40 20 -82.5 30t-96.5 10q-59 0 -101.5 -25.5t-42.5 -80.5q0 -78 100 -114l67 -24
q105 -37 154 -85.5t49 -119.5q0 -68 -37.5 -117t-100 -74.5t-134.5 -25.5q-63 0 -117.5 12.5t-84.5 30.5zM195 -136q30 -14 58 -14q25 0 43 7.5t18 24.5q0 14 -12.5 22t-31.5 8q-25 0 -38 -9l-30 17l51 83h53l-32 -51q15 3 30 3q36 0 56 -18.5t20 -49.5q0 -37 -33 -59.5
t-75 -22.5q-54 0 -93 19z" />
    <glyph glyph-name="Scircumflex" unicode="&#x15c;" horiz-adv-x="553" 
d="M48 30v95q54 -27 94.5 -39.5t105.5 -12.5q76 0 123 28t47 84q0 44 -29 73.5t-92 52.5l-67 24q-84 30 -133.5 80t-49.5 122q0 61 36 106.5t93.5 70t121.5 24.5q108 0 177 -32v-93q-40 20 -82.5 30t-96.5 10q-59 0 -101.5 -25.5t-42.5 -80.5q0 -78 100 -114l67 -24
q105 -37 154 -85.5t49 -119.5q0 -68 -37.5 -117t-100 -74.5t-134.5 -25.5q-63 0 -117.5 12.5t-84.5 30.5zM251 886h83l132 -113h-107l-68 56l-68 -56h-107z" />
    <glyph glyph-name="uni0218" unicode="&#x218;" horiz-adv-x="553" 
d="M48 30v95q54 -27 94.5 -39.5t105.5 -12.5q76 0 123 28t47 84q0 44 -29 73.5t-92 52.5l-67 24q-84 30 -133.5 80t-49.5 122q0 61 36 106.5t93.5 70t121.5 24.5q108 0 177 -32v-93q-40 20 -82.5 30t-96.5 10q-59 0 -101.5 -25.5t-42.5 -80.5q0 -78 100 -114l67 -24
q105 -37 154 -85.5t49 -119.5q0 -68 -37.5 -117t-100 -74.5t-134.5 -25.5q-63 0 -117.5 12.5t-84.5 30.5zM244 -125h-36v89h95v-95l-44 -90h-54z" />
    <glyph glyph-name="Tcaron" unicode="&#x164;" horiz-adv-x="598" 
d="M350 0h-102v637h-226v88h554v-88h-226v-637zM349 773h-84l-131 113h107l67 -56l69 56h107z" />
    <glyph glyph-name="uni0162" unicode="&#x162;" horiz-adv-x="598" 
d="M350 0h-102v637h-226v88h554v-88h-226v-637zM286 -125h-36v89h95v-95l-44 -90h-54z" />
    <glyph glyph-name="uni021A" unicode="&#x21a;" horiz-adv-x="598" 
d="M350 0h-102v637h-226v88h554v-88h-226v-637zM286 -125h-36v89h95v-95l-44 -90h-54z" />
    <glyph glyph-name="Ubreve" unicode="&#x16c;" horiz-adv-x="731" 
d="M75 725h102v-441q0 -108 43.5 -158.5t143.5 -50.5q101 0 145.5 54.5t44.5 165.5v430h102v-422q0 -162 -68.5 -239t-223.5 -77q-102 0 -165.5 30t-93.5 97.5t-30 180.5v430zM524 886q-6 -55 -46 -87t-113 -32q-71 0 -110 32t-46 87h77q9 -58 80 -58q70 0 81 58h77z" />
    <glyph glyph-name="Uhungarumlaut" unicode="&#x170;" horiz-adv-x="731" 
d="M75 725h102v-441q0 -108 43.5 -158.5t143.5 -50.5q101 0 145.5 54.5t44.5 165.5v430h102v-422q0 -162 -68.5 -239t-223.5 -77q-102 0 -165.5 30t-93.5 97.5t-30 180.5v430zM347 886h129l-149 -113h-90zM514 886h129l-149 -113h-90z" />
    <glyph glyph-name="Umacron" unicode="&#x16a;" horiz-adv-x="731" 
d="M75 725h102v-441q0 -108 43.5 -158.5t143.5 -50.5q101 0 145.5 54.5t44.5 165.5v430h102v-422q0 -162 -68.5 -239t-223.5 -77q-102 0 -165.5 30t-93.5 97.5t-30 180.5v430zM515 866v-75h-300v75h300z" />
    <glyph glyph-name="Uogonek" unicode="&#x172;" horiz-adv-x="731" 
d="M268 -93q0 25 11.5 44t38.5 38q-127 9 -185 80.5t-58 225.5v430h102v-441q0 -108 43.5 -158.5t143.5 -50.5q101 0 145.5 54.5t44.5 165.5v430h102v-422q0 -98 -22 -161.5t-73.5 -101.5t-140.5 -55q-27 -5 -48 -25t-21 -40q0 -23 13.5 -34t33.5 -11q22 0 41 9v-61
q-25 -11 -60 -11q-46 0 -78.5 23t-32.5 72z" />
    <glyph glyph-name="Uring" unicode="&#x16e;" horiz-adv-x="731" 
d="M75 725h102v-441q0 -108 43.5 -158.5t143.5 -50.5q101 0 145.5 54.5t44.5 165.5v430h102v-422q0 -162 -68.5 -239t-223.5 -77q-102 0 -165.5 30t-93.5 97.5t-30 180.5v430zM456 850q0 -37 -26 -61t-65 -24q-38 0 -64 24.5t-26 60.5q0 37 26.5 61t63.5 24q38 0 64.5 -24
t26.5 -61zM322 850q0 -18 13 -30t30 -12q18 0 30.5 12t12.5 30t-12.5 30.5t-30.5 12.5q-17 0 -30 -12.5t-13 -30.5z" />
    <glyph glyph-name="Utilde" unicode="&#x168;" horiz-adv-x="731" 
d="M75 725h102v-441q0 -108 43.5 -158.5t143.5 -50.5q101 0 145.5 54.5t44.5 165.5v430h102v-422q0 -162 -68.5 -239t-223.5 -77q-102 0 -165.5 30t-93.5 97.5t-30 180.5v430zM491 885h71q-10 -58 -41.5 -85t-74.5 -27q-22 0 -40 7t-40 20q-18 10 -30.5 15.5t-25.5 5.5
q-19 0 -31 -12t-14 -34h-71q9 56 40 84t75 28q22 0 39 -7t38 -20q18 -10 31 -15.5t27 -5.5q19 0 31.5 12t15.5 34z" />
    <glyph glyph-name="uni1EE4" unicode="&#x1ee4;" horiz-adv-x="731" 
d="M75 725h102v-441q0 -108 43.5 -158.5t143.5 -50.5q101 0 145.5 54.5t44.5 165.5v430h102v-422q0 -162 -68.5 -239t-223.5 -77q-102 0 -165.5 30t-93.5 97.5t-30 180.5v430zM320 -175v99h91v-99h-91z" />
    <glyph glyph-name="Wacute" unicode="&#x1e82;" horiz-adv-x="916" 
d="M398 725h120l143 -609l134 609h107l-181 -725h-124l-140 596l-137 -596h-124l-184 725h112l140 -609zM522 886h129l-149 -113h-90z" />
    <glyph glyph-name="Wcircumflex" unicode="&#x174;" horiz-adv-x="916" 
d="M398 725h120l143 -609l134 609h107l-181 -725h-124l-140 596l-137 -596h-124l-184 725h112l140 -609zM417 886h83l132 -113h-107l-68 56l-68 -56h-107z" />
    <glyph glyph-name="Wdieresis" unicode="&#x1e84;" horiz-adv-x="916" 
d="M398 725h120l143 -609l134 609h107l-181 -725h-124l-140 596l-137 -596h-124l-184 725h112l140 -609zM297 780v99h91v-99h-91zM526 780v99h92v-99h-92z" />
    <glyph glyph-name="Wgrave" unicode="&#x1e80;" horiz-adv-x="916" 
d="M398 725h120l143 -609l134 609h107l-181 -725h-124l-140 596l-137 -596h-124l-184 725h112l140 -609zM503 773h-91l-148 113h129z" />
    <glyph glyph-name="Ycircumflex" unicode="&#x176;" horiz-adv-x="619" 
d="M257 283l-256 442h112l198 -354l202 354h112l-266 -444v-281h-102v283zM273 886h83l132 -113h-107l-68 56l-68 -56h-107z" />
    <glyph glyph-name="Ydieresis" unicode="&#x178;" horiz-adv-x="619" 
d="M257 283l-256 442h112l198 -354l202 354h112l-266 -444v-281h-102v283zM153 780v99h91v-99h-91zM382 780v99h92v-99h-92z" />
    <glyph glyph-name="Ygrave" unicode="&#x1ef2;" horiz-adv-x="619" 
d="M257 283l-256 442h112l198 -354l202 354h112l-266 -444v-281h-102v283zM379 773h-91l-148 113h129z" />
    <glyph glyph-name="uni0232" unicode="&#x232;" horiz-adv-x="619" 
d="M257 283l-256 442h112l198 -354l202 354h112l-266 -444v-281h-102v283zM463 866v-75h-300v75h300z" />
    <glyph glyph-name="Zacute" unicode="&#x179;" horiz-adv-x="609" 
d="M55 725h514v-88l-426 -549h442v-88h-563v88l427 549h-394v88zM368 886h129l-149 -113h-90z" />
    <glyph glyph-name="Zcaron" unicode="&#x17d;" horiz-adv-x="609" 
d="M55 725h514v-88l-426 -549h442v-88h-563v88l427 549h-394v88zM353 773h-84l-131 113h107l67 -56l69 56h107z" />
    <glyph glyph-name="Zdotaccent" unicode="&#x17b;" horiz-adv-x="609" 
d="M55 725h514v-88l-426 -549h442v-88h-563v88l427 549h-394v88zM270 781v99h91v-99h-91z" />
    <glyph glyph-name="glyph242" horiz-adv-x="757" 
d="M40 355q0 30 3 61h565q-19 108 -94.5 166t-190.5 58q-68 0 -123 -13t-89 -36v103q39 20 93.5 32t118.5 12q127 0 215 -47t133 -133t45 -201q0 -112 -42 -195.5t-120 -129t-182 -45.5q-97 0 -172.5 45.5t-117.5 129t-42 193.5zM613 320h-464q5 -118 66 -182t162 -64
q58 0 110 25.5t87 81t39 139.5z" />
    <glyph glyph-name="abreve" unicode="&#x103;" horiz-adv-x="537" 
d="M381 348q-3 117 -131 117q-44 0 -88.5 -15t-80.5 -37v87q39 22 87 34.5t95 12.5q108 0 159 -50.5t50 -164.5l-1 -129l-1 -68q0 -36 4 -135h-88v85q-25 -45 -70.5 -71.5t-105.5 -26.5q-49 0 -90.5 20.5t-65.5 57.5t-24 85q0 87 91 132.5t260 65.5zM387 271v6
q-123 -10 -190 -39t-67 -83q0 -40 27 -67.5t75 -27.5q62 0 108.5 47t46.5 164zM443 755q-6 -52 -43.5 -86.5t-116.5 -34.5q-77 0 -114.5 34.5t-42.5 86.5h71q3 -26 24.5 -43.5t62.5 -17.5t63 17.5t25 43.5h71z" />
    <glyph glyph-name="amacron" unicode="&#x101;" horiz-adv-x="537" 
d="M381 348q-3 117 -131 117q-44 0 -88.5 -15t-80.5 -37v87q39 22 87 34.5t95 12.5q108 0 159 -50.5t50 -164.5l-1 -129l-1 -68q0 -36 4 -135h-88v85q-25 -45 -70.5 -71.5t-105.5 -26.5q-49 0 -90.5 20.5t-65.5 57.5t-24 85q0 87 91 132.5t260 65.5zM387 271v6
q-123 -10 -190 -39t-67 -83q0 -40 27 -67.5t75 -27.5q62 0 108.5 47t46.5 164zM432 740v-75h-300v75h300z" />
    <glyph glyph-name="aogonek" unicode="&#x105;" horiz-adv-x="537" 
d="M379 -85q0 -21 15.5 -30t39.5 -9q20 0 42 6v-61q-25 -9 -64 -9q-48 0 -82 21t-34 69q0 31 21.5 54.5t68.5 43.5v85q-25 -45 -70.5 -71.5t-105.5 -26.5q-49 0 -90.5 20.5t-65.5 57.5t-24 85q0 87 91 132.5t260 65.5q-3 117 -131 117q-44 0 -88.5 -15t-80.5 -37v87
q39 22 87 34.5t95 12.5q108 0 159 -50.5t50 -164.5l-1 -129l-1 -68q0 -36 4 -135q-45 -19 -70 -41t-25 -44zM387 271v6q-123 -10 -190 -39t-67 -83q0 -40 27 -67.5t75 -27.5q62 0 108.5 47t46.5 164z" />
    <glyph glyph-name="cacute" unicode="&#x107;" horiz-adv-x="459" 
d="M313 69q56 0 110 25v-85q-23 -10 -54 -16t-63 -6q-85 0 -146 36.5t-92.5 100t-31.5 143.5q0 79 34 143t95.5 100.5t140.5 36.5q68 0 115 -15v-86q-52 19 -108 19q-77 0 -128 -49.5t-51 -148.5t51.5 -148.5t127.5 -49.5zM326 755h117l-131 -116h-76z" />
    <glyph glyph-name="ccaron" unicode="&#x10d;" horiz-adv-x="459" 
d="M313 69q56 0 110 25v-85q-23 -10 -54 -16t-63 -6q-85 0 -146 36.5t-92.5 100t-31.5 143.5q0 79 34 143t95.5 100.5t140.5 36.5q68 0 115 -15v-86q-52 19 -108 19q-77 0 -128 -49.5t-51 -148.5t51.5 -148.5t127.5 -49.5zM331 639h-88l-129 116h96l78 -54l80 54h96z" />
    <glyph glyph-name="ccircumflex" unicode="&#x109;" horiz-adv-x="459" 
d="M313 69q56 0 110 25v-85q-23 -10 -54 -16t-63 -6q-85 0 -146 36.5t-92.5 100t-31.5 143.5q0 79 34 143t95.5 100.5t140.5 36.5q68 0 115 -15v-86q-52 19 -108 19q-77 0 -128 -49.5t-51 -148.5t51.5 -148.5t127.5 -49.5zM247 755h89l129 -116h-96l-79 54l-79 -54h-96z" />
    <glyph glyph-name="cdotaccent" unicode="&#x10b;" horiz-adv-x="459" 
d="M313 69q56 0 110 25v-85q-23 -10 -54 -16t-63 -6q-85 0 -146 36.5t-92.5 100t-31.5 143.5q0 79 34 143t95.5 100.5t140.5 36.5q68 0 115 -15v-86q-52 19 -108 19q-77 0 -128 -49.5t-51 -148.5t51.5 -148.5t127.5 -49.5zM243 656v99h91v-99h-91z" />
    <glyph glyph-name="dcaron" unicode="&#x10f;" horiz-adv-x="613" 
d="M440 755h91v-755h-91v81q-26 -45 -70 -69.5t-106 -24.5q-64 0 -115.5 33.5t-81.5 96.5t-30 150q0 86 30 149.5t81.5 97t115.5 33.5q62 0 106 -24.5t70 -69.5v302zM287 469q-73 0 -112 -53t-39 -149t39 -149t112 -53q42 0 78 21.5t57.5 67t21.5 113.5t-21.5 113.5
t-57.5 67t-78 21.5zM602 755h98l-70 -170h-58z" />
    <glyph glyph-name="dcroat" unicode="&#x111;" horiz-adv-x="603" 
d="M531 0h-91v81q-26 -45 -70 -69.5t-106 -24.5q-64 0 -115.5 33.5t-81.5 96.5t-30 150q0 86 30 149.5t81.5 97t115.5 33.5q62 0 106 -24.5t70 -69.5v147h-155v73h155v82h91v-82h84v-73h-84v-600zM287 469q-73 0 -112 -53t-39 -149t39 -149t112 -53q42 0 78 21.5t57.5 67
t21.5 113.5t-21.5 113.5t-57.5 67t-78 21.5z" />
    <glyph glyph-name="ebreve" unicode="&#x115;" horiz-adv-x="549" 
d="M133 243q8 -87 61 -130.5t123 -43.5q50 0 89 13.5t74 36.5v-90q-31 -17 -75.5 -29.5t-95.5 -12.5q-83 0 -145 36.5t-95 100.5t-33 144q0 83 33 146.5t90 98t125 34.5q77 0 130.5 -39.5t79.5 -108.5t21 -156h-382zM134 316h283q-2 77 -41 115.5t-99 38.5q-56 0 -96.5 -37
t-46.5 -117zM448 755q-6 -52 -43.5 -86.5t-116.5 -34.5q-77 0 -114.5 34.5t-42.5 86.5h71q3 -26 24.5 -43.5t62.5 -17.5t63 17.5t25 43.5h71z" />
    <glyph glyph-name="ecaron" unicode="&#x11b;" horiz-adv-x="549" 
d="M133 243q8 -87 61 -130.5t123 -43.5q50 0 89 13.5t74 36.5v-90q-31 -17 -75.5 -29.5t-95.5 -12.5q-83 0 -145 36.5t-95 100.5t-33 144q0 83 33 146.5t90 98t125 34.5q77 0 130.5 -39.5t79.5 -108.5t21 -156h-382zM134 316h283q-2 77 -41 115.5t-99 38.5q-56 0 -96.5 -37
t-46.5 -117zM331 639h-88l-129 116h96l78 -54l80 54h96z" />
    <glyph glyph-name="emacron" unicode="&#x113;" horiz-adv-x="549" 
d="M133 243q8 -87 61 -130.5t123 -43.5q50 0 89 13.5t74 36.5v-90q-31 -17 -75.5 -29.5t-95.5 -12.5q-83 0 -145 36.5t-95 100.5t-33 144q0 83 33 146.5t90 98t125 34.5q77 0 130.5 -39.5t79.5 -108.5t21 -156h-382zM134 316h283q-2 77 -41 115.5t-99 38.5q-56 0 -96.5 -37
t-46.5 -117zM439 740v-75h-300v75h300z" />
    <glyph glyph-name="eogonek" unicode="&#x119;" horiz-adv-x="549" 
d="M515 243h-382q8 -87 61 -130.5t123 -43.5q50 0 89 13.5t74 36.5v-90q-40 -20 -68.5 -49t-28.5 -57q0 -24 15.5 -35.5t39.5 -11.5q20 0 42 6v-61q-25 -9 -64 -9q-48 0 -82 21t-34 69q0 50 63 89q-34 -4 -54 -4q-83 0 -145 36.5t-95 100.5t-33 144q0 83 33 146.5t90 98
t125 34.5q77 0 130.5 -39.5t79.5 -108.5t21 -156zM417 316q-2 77 -41 115.5t-99 38.5q-56 0 -96.5 -37t-46.5 -117h283z" />
    <glyph glyph-name="edotaccent" unicode="&#x117;" horiz-adv-x="549" 
d="M133 243q8 -87 61 -130.5t123 -43.5q50 0 89 13.5t74 36.5v-90q-31 -17 -75.5 -29.5t-95.5 -12.5q-83 0 -145 36.5t-95 100.5t-33 144q0 83 33 146.5t90 98t125 34.5q77 0 130.5 -39.5t79.5 -108.5t21 -156h-382zM134 316h283q-2 77 -41 115.5t-99 38.5q-56 0 -96.5 -37
t-46.5 -117zM244 656v99h91v-99h-91z" />
    <glyph glyph-name="gbreve" unicode="&#x11f;" horiz-adv-x="594" 
d="M523 48q0 -133 -69 -193.5t-186 -60.5q-93 0 -163 30v93q32 -20 74.5 -32t87.5 -12q70 0 117.5 35t47.5 123v71q-54 -93 -171 -93q-64 0 -114.5 31.5t-79 92.5t-28.5 145t28.5 144.5t79 92.5t114.5 32q117 0 171 -94v85h91v-490zM284 469q-72 0 -109 -49.5t-37 -141.5
q0 -93 37 -142.5t109 -49.5q66 0 109 47.5t43 144.5q0 96 -43 143.5t-109 47.5zM444 755q-6 -52 -43.5 -86.5t-116.5 -34.5q-77 0 -114.5 34.5t-42.5 86.5h71q3 -26 24.5 -43.5t62.5 -17.5t63 17.5t25 43.5h71z" />
    <glyph glyph-name="gcircumflex" unicode="&#x11d;" horiz-adv-x="594" 
d="M523 48q0 -133 -69 -193.5t-186 -60.5q-93 0 -163 30v93q32 -20 74.5 -32t87.5 -12q70 0 117.5 35t47.5 123v71q-54 -93 -171 -93q-64 0 -114.5 31.5t-79 92.5t-28.5 145t28.5 144.5t79 92.5t114.5 32q117 0 171 -94v85h91v-490zM284 469q-72 0 -109 -49.5t-37 -141.5
q0 -93 37 -142.5t109 -49.5q66 0 109 47.5t43 144.5q0 96 -43 143.5t-109 47.5zM248 755h89l129 -116h-96l-79 54l-79 -54h-96z" />
    <glyph glyph-name="uni0123" unicode="&#x123;" horiz-adv-x="594" 
d="M299 689h36v-89h-95v95l44 90h54zM523 48q0 -133 -69 -193.5t-186 -60.5q-93 0 -163 30v93q32 -20 74.5 -32t87.5 -12q70 0 117.5 35t47.5 123v71q-54 -93 -171 -93q-64 0 -114.5 31.5t-79 92.5t-28.5 145t28.5 144.5t79 92.5t114.5 32q117 0 171 -94v85h91v-490z
M284 469q-72 0 -109 -49.5t-37 -141.5q0 -93 37 -142.5t109 -49.5q66 0 109 47.5t43 144.5q0 96 -43 143.5t-109 47.5z" />
    <glyph glyph-name="gdotaccent" unicode="&#x121;" horiz-adv-x="594" 
d="M523 48q0 -133 -69 -193.5t-186 -60.5q-93 0 -163 30v93q32 -20 74.5 -32t87.5 -12q70 0 117.5 35t47.5 123v71q-54 -93 -171 -93q-64 0 -114.5 31.5t-79 92.5t-28.5 145t28.5 144.5t79 92.5t114.5 32q117 0 171 -94v85h91v-490zM284 469q-72 0 -109 -49.5t-37 -141.5
q0 -93 37 -142.5t109 -49.5q66 0 109 47.5t43 144.5q0 96 -43 143.5t-109 47.5zM250 656v99h91v-99h-91z" />
    <glyph glyph-name="hbar" unicode="&#x127;" horiz-adv-x="580" 
d="M163 755v-82h155v-73h-155v-143q55 90 174 90q177 0 177 -207v-340h-91v313q0 74 -23.5 114.5t-94.5 40.5q-67 0 -104.5 -45.5t-37.5 -130.5v-292h-91v600h-84v73h84v82h91z" />
    <glyph glyph-name="hcircumflex" unicode="&#x125;" horiz-adv-x="580" 
d="M163 457q55 90 174 90q177 0 177 -207v-340h-91v313q0 74 -23.5 114.5t-94.5 40.5q-67 0 -104.5 -45.5t-37.5 -130.5v-292h-91v755h91v-298zM277 906h83l132 -113h-107l-68 56l-68 -56h-107z" />
    <glyph glyph-name="dotlessi" unicode="&#x131;" 
d="M72 0v538h91v-538h-91z" />
    <glyph glyph-name="ibreve" unicode="&#x12d;" 
d="M72 0v538h91v-538h-91zM277 755q-6 -52 -43.5 -86.5t-116.5 -34.5q-77 0 -114.5 34.5t-42.5 86.5h71q3 -26 24.5 -43.5t62.5 -17.5t63 17.5t25 43.5h71z" />
    <glyph glyph-name="imacron" unicode="&#x12b;" 
d="M72 0v538h91v-538h-91zM268 740v-75h-300v75h300z" />
    <glyph glyph-name="iogonek" unicode="&#x12f;" 
d="M72 645v110h91v-110h-91zM72 538h91v-538q-46 -19 -72 -41.5t-26 -43.5t15.5 -30t39.5 -9q20 0 42 6v-61q-25 -9 -64 -9q-48 0 -82 21t-34 69q0 31 21.5 54.5t68.5 43.5v538z" />
    <glyph glyph-name="itilde" unicode="&#x129;" 
d="M72 0v538h91v-538h-91zM231 755h71q-10 -58 -41.5 -85.5t-74.5 -27.5q-22 0 -40 7t-40 20q-18 10 -30.5 15.5t-25.5 5.5q-19 0 -31 -11.5t-14 -32.5h-71q9 56 40 84t75 28q22 0 39 -7t38 -20q18 -10 31 -15.5t27 -5.5q19 0 31.5 11.5t15.5 33.5z" />
    <glyph glyph-name="uni1ECB" unicode="&#x1ecb;" 
d="M72 645v110h91v-110h-91zM72 0v538h91v-538h-91zM72 -175v99h91v-99h-91z" />
    <glyph glyph-name="uni0237" unicode="&#x237;" horiz-adv-x="264" 
d="M19 -203v75q15 -3 38 -3q27 0 35.5 13.5t8.5 54.5v528h-80v73h171v-599q0 -57 -9.5 -86.5t-38 -44t-87.5 -14.5q-20 0 -38 3z" />
    <glyph glyph-name="jcircumflex" unicode="&#x135;" horiz-adv-x="264" 
d="M92 755h89l119 -116h-96l-69 54l-69 -54h-96zM19 -203v75q15 -3 38 -3q27 0 35.5 13.5t8.5 54.5v528h-80v73h171v-599q0 -57 -9.5 -86.5t-38 -44t-87.5 -14.5q-20 0 -38 3z" />
    <glyph glyph-name="uni0137" unicode="&#x137;" horiz-adv-x="503" 
d="M72 0v755h91v-478l213 261h107l-220 -262l254 -276h-117l-237 253v-253h-91zM270 -125h-36v89h95v-95l-44 -90h-54z" />
    <glyph glyph-name="lacute" unicode="&#x13a;" 
d="M72 755h91v-755h-91v755zM182 906h129l-149 -113h-90z" />
    <glyph glyph-name="lcaron" unicode="&#x13e;" 
d="M234 755h98l-70 -170h-58zM72 755h91v-755h-91v755z" />
    <glyph glyph-name="uni013C" unicode="&#x13c;" 
d="M72 755h91v-755h-91v755zM107 -125h-36v89h95v-95l-44 -90h-54z" />
    <glyph glyph-name="ldot" unicode="&#x140;" horiz-adv-x="326" 
d="M72 755h91v-755h-91v755zM235 350v99h91v-99h-91z" />
    <glyph glyph-name="lslash" unicode="&#x142;" horiz-adv-x="298" 
d="M102 755h91v-283l73 50v-77l-73 -50v-395h-91v343l-72 -49v77l72 49v335z" />
    <glyph glyph-name="nacute" unicode="&#x144;" horiz-adv-x="580" 
d="M163 457q55 90 174 90q177 0 177 -207v-340h-91v313q0 74 -23.5 114.5t-94.5 40.5q-67 0 -104.5 -45.5t-37.5 -130.5v-292h-91v538h91v-81zM345 755h117l-131 -116h-76z" />
    <glyph glyph-name="ncaron" unicode="&#x148;" horiz-adv-x="580" 
d="M163 457q55 90 174 90q177 0 177 -207v-340h-91v313q0 74 -23.5 114.5t-94.5 40.5q-67 0 -104.5 -45.5t-37.5 -130.5v-292h-91v538h91v-81zM345 639h-88l-129 116h96l78 -54l80 54h96z" />
    <glyph glyph-name="uni0146" unicode="&#x146;" horiz-adv-x="580" 
d="M163 457q55 90 174 90q177 0 177 -207v-340h-91v313q0 74 -23.5 114.5t-94.5 40.5q-67 0 -104.5 -45.5t-37.5 -130.5v-292h-91v538h91v-81zM279 -125h-36v89h95v-95l-44 -90h-54z" />
    <glyph glyph-name="oe" unicode="&#x153;" horiz-adv-x="954" 
d="M497 436q32 53 82.5 82t111.5 29q76 0 129 -39.5t79 -108.5t21 -156h-382q8 -87 61.5 -130.5t122.5 -43.5q50 0 89 13.5t74 36.5v-90q-31 -17 -75.5 -29.5t-95.5 -12.5q-74 0 -128.5 29.5t-87.5 83.5q-33 -56 -87 -84.5t-119 -28.5q-68 0 -126 30.5t-93.5 93.5t-35.5 156
t35.5 156t93.5 93.5t126 30.5q65 0 118.5 -28t86.5 -83zM539 316h283q-2 77 -41 115.5t-99 38.5q-56 0 -96.5 -37t-46.5 -117zM134 267q0 -101 44 -150.5t114 -49.5q69 0 113.5 51t44.5 149q0 101 -44 150.5t-114 49.5t-114 -48t-44 -152z" />
    <glyph glyph-name="obreve" unicode="&#x14f;" horiz-adv-x="584" 
d="M292 547q68 0 126 -30.5t93.5 -93.5t35.5 -156t-35.5 -156t-93.5 -93.5t-126 -30.5t-126 30.5t-93.5 93.5t-35.5 156t35.5 156t93.5 93.5t126 30.5zM292 67q69 0 113.5 51t44.5 149q0 101 -44 150.5t-114 49.5t-114 -48t-44 -152q0 -101 44 -150.5t114 -49.5zM451 755
q-6 -52 -43.5 -86.5t-116.5 -34.5q-77 0 -114.5 34.5t-42.5 86.5h71q3 -26 24.5 -43.5t62.5 -17.5t63 17.5t25 43.5h71z" />
    <glyph glyph-name="ohungarumlaut" unicode="&#x151;" horiz-adv-x="584" 
d="M292 547q68 0 126 -30.5t93.5 -93.5t35.5 -156t-35.5 -156t-93.5 -93.5t-126 -30.5t-126 30.5t-93.5 93.5t-35.5 156t35.5 156t93.5 93.5t126 30.5zM292 67q69 0 113.5 51t44.5 149q0 101 -44 150.5t-114 49.5t-114 -48t-44 -152q0 -101 44 -150.5t114 -49.5zM265 755
h117l-131 -116h-76zM424 755h116l-130 -116h-77z" />
    <glyph glyph-name="omacron" unicode="&#x14d;" horiz-adv-x="584" 
d="M292 547q68 0 126 -30.5t93.5 -93.5t35.5 -156t-35.5 -156t-93.5 -93.5t-126 -30.5t-126 30.5t-93.5 93.5t-35.5 156t35.5 156t93.5 93.5t126 30.5zM292 67q69 0 113.5 51t44.5 149q0 101 -44 150.5t-114 49.5t-114 -48t-44 -152q0 -101 44 -150.5t114 -49.5zM442 740
v-75h-300v75h300z" />
    <glyph glyph-name="uni1ECD" unicode="&#x1ecd;" horiz-adv-x="584" 
d="M292 547q68 0 126 -30.5t93.5 -93.5t35.5 -156t-35.5 -156t-93.5 -93.5t-126 -30.5t-126 30.5t-93.5 93.5t-35.5 156t35.5 156t93.5 93.5t126 30.5zM292 67q69 0 113.5 51t44.5 149q0 101 -44 150.5t-114 49.5t-114 -48t-44 -152q0 -101 44 -150.5t114 -49.5zM247 -175
v99h91v-99h-91z" />
    <glyph glyph-name="racute" unicode="&#x155;" horiz-adv-x="355" 
d="M340 443q-38 4 -51 4q-64 0 -95 -39t-31 -126v-282h-91v538h89v-94q20 45 59.5 70t92.5 27q20 0 27 -1v-97zM258 755h117l-131 -116h-76z" />
    <glyph glyph-name="rcaron" unicode="&#x159;" horiz-adv-x="355" 
d="M340 443q-38 4 -51 4q-64 0 -95 -39t-31 -126v-282h-91v538h89v-94q20 45 59.5 70t92.5 27q20 0 27 -1v-97zM248 639h-88l-129 116h96l78 -54l80 54h96z" />
    <glyph glyph-name="uni0157" unicode="&#x157;" horiz-adv-x="355" 
d="M340 443q-38 4 -51 4q-64 0 -95 -39t-31 -126v-282h-91v538h89v-94q20 45 59.5 70t92.5 27q20 0 27 -1v-97zM107 -125h-36v89h95v-95l-44 -90h-54z" />
    <glyph glyph-name="sacute" unicode="&#x15b;" horiz-adv-x="433" 
d="M40 19v93q30 -19 73 -32t84 -13q56 0 89 17t33 53q0 28 -26 49t-82 42l-16 6q-69 26 -110.5 64.5t-41.5 98.5q0 46 26.5 80t69.5 52t91 18q40 0 77.5 -6t61.5 -16v-86q-38 13 -69.5 20.5t-70.5 7.5q-44 0 -71.5 -15.5t-27.5 -47.5q0 -30 21.5 -49.5t60.5 -33.5l19 -7
q89 -33 131.5 -69.5t42.5 -98.5q0 -51 -29.5 -87t-77 -54t-100.5 -18q-48 0 -90.5 9t-67.5 23zM286 755h117l-131 -116h-76z" />
    <glyph glyph-name="scaron" unicode="&#x161;" horiz-adv-x="433" 
d="M40 19v93q30 -19 73 -32t84 -13q56 0 89 17t33 53q0 28 -26 49t-82 42l-16 6q-69 26 -110.5 64.5t-41.5 98.5q0 46 26.5 80t69.5 52t91 18q40 0 77.5 -6t61.5 -16v-86q-38 13 -69.5 20.5t-70.5 7.5q-44 0 -71.5 -15.5t-27.5 -47.5q0 -30 21.5 -49.5t60.5 -33.5l19 -7
q89 -33 131.5 -69.5t42.5 -98.5q0 -51 -29.5 -87t-77 -54t-100.5 -18q-48 0 -90.5 9t-67.5 23zM267 639h-88l-129 116h96l78 -54l80 54h96z" />
    <glyph glyph-name="scedilla" unicode="&#x15f;" horiz-adv-x="433" 
d="M40 19v93q30 -19 73 -32t84 -13q56 0 89 17t33 53q0 28 -26 49t-82 42l-16 6q-69 26 -110.5 64.5t-41.5 98.5q0 46 26.5 80t69.5 52t91 18q40 0 77.5 -6t61.5 -16v-86q-38 13 -69.5 20.5t-70.5 7.5q-44 0 -71.5 -15.5t-27.5 -47.5q0 -30 21.5 -49.5t60.5 -33.5l19 -7
q89 -33 131.5 -69.5t42.5 -98.5q0 -51 -29.5 -87t-77 -54t-100.5 -18q-48 0 -90.5 9t-67.5 23zM148 -136q30 -14 58 -14q25 0 43 7.5t18 24.5q0 14 -12.5 22t-31.5 8q-25 0 -38 -9l-30 17l51 83h53l-32 -51q15 3 30 3q36 0 56 -18.5t20 -49.5q0 -37 -33 -59.5t-75 -22.5
q-54 0 -93 19z" />
    <glyph glyph-name="scircumflex" unicode="&#x15d;" horiz-adv-x="433" 
d="M40 19v93q30 -19 73 -32t84 -13q56 0 89 17t33 53q0 28 -26 49t-82 42l-16 6q-69 26 -110.5 64.5t-41.5 98.5q0 46 26.5 80t69.5 52t91 18q40 0 77.5 -6t61.5 -16v-86q-38 13 -69.5 20.5t-70.5 7.5q-44 0 -71.5 -15.5t-27.5 -47.5q0 -30 21.5 -49.5t60.5 -33.5l19 -7
q89 -33 131.5 -69.5t42.5 -98.5q0 -51 -29.5 -87t-77 -54t-100.5 -18q-48 0 -90.5 9t-67.5 23zM183 755h89l129 -116h-96l-79 54l-79 -54h-96z" />
    <glyph glyph-name="uni0219" unicode="&#x219;" horiz-adv-x="433" 
d="M40 19v93q30 -19 73 -32t84 -13q56 0 89 17t33 53q0 28 -26 49t-82 42l-16 6q-69 26 -110.5 64.5t-41.5 98.5q0 46 26.5 80t69.5 52t91 18q40 0 77.5 -6t61.5 -16v-86q-38 13 -69.5 20.5t-70.5 7.5q-44 0 -71.5 -15.5t-27.5 -47.5q0 -30 21.5 -49.5t60.5 -33.5l19 -7
q89 -33 131.5 -69.5t42.5 -98.5q0 -51 -29.5 -87t-77 -54t-100.5 -18q-48 0 -90.5 9t-67.5 23zM206 -125h-36v89h95v-95l-44 -90h-54z" />
    <glyph glyph-name="tcaron" unicode="&#x165;" horiz-adv-x="324" 
d="M95 538v135h91v-135h112v-73h-112v-313q0 -47 12 -64.5t46 -17.5q27 0 57 5v-73q-45 -9 -77 -9q-72 0 -100.5 35.5t-28.5 112.5v324h-85v73h85zM259 755h98l-70 -170h-58z" />
    <glyph glyph-name="uni0163" unicode="&#x163;" horiz-adv-x="324" 
d="M95 538v135h91v-135h112v-73h-112v-313q0 -47 12 -64.5t46 -17.5q27 0 57 5v-73q-45 -9 -77 -9q-72 0 -100.5 35.5t-28.5 112.5v324h-85v73h85zM195 -125h-36v89h95v-95l-44 -90h-54z" />
    <glyph glyph-name="uni021B" unicode="&#x21b;" horiz-adv-x="324" 
d="M95 538v135h91v-135h112v-73h-112v-313q0 -47 12 -64.5t46 -17.5q27 0 57 5v-73q-45 -9 -77 -9q-72 0 -100.5 35.5t-28.5 112.5v324h-85v73h85zM195 -125h-36v89h95v-95l-44 -90h-54z" />
    <glyph glyph-name="ubreve" unicode="&#x16d;" horiz-adv-x="570" 
d="M407 77q-26 -42 -66 -66t-103 -24q-90 0 -131 54.5t-41 152.5v344h91v-317q0 -74 22.5 -114.5t90.5 -40.5q65 0 101 45.5t36 130.5v296h91v-538h-91v77zM444 755q-6 -52 -43.5 -86.5t-116.5 -34.5q-77 0 -114.5 34.5t-42.5 86.5h71q3 -26 24.5 -43.5t62.5 -17.5t63 17.5
t25 43.5h71z" />
    <glyph glyph-name="uhungarumlaut" unicode="&#x171;" horiz-adv-x="570" 
d="M407 77q-26 -42 -66 -66t-103 -24q-90 0 -131 54.5t-41 152.5v344h91v-317q0 -74 22.5 -114.5t90.5 -40.5q65 0 101 45.5t36 130.5v296h91v-538h-91v77zM258 755h117l-131 -116h-76zM417 755h116l-130 -116h-77z" />
    <glyph glyph-name="umacron" unicode="&#x16b;" horiz-adv-x="570" 
d="M407 77q-26 -42 -66 -66t-103 -24q-90 0 -131 54.5t-41 152.5v344h91v-317q0 -74 22.5 -114.5t90.5 -40.5q65 0 101 45.5t36 130.5v296h91v-538h-91v77zM435 740v-75h-300v75h300z" />
    <glyph glyph-name="uogonek" unicode="&#x173;" horiz-adv-x="570" 
d="M320 -98q0 30 20.5 53.5t66.5 44.5v77q-26 -42 -66 -66t-103 -24q-90 0 -131 54.5t-41 152.5v344h91v-317q0 -74 22.5 -114.5t90.5 -40.5q65 0 101 45.5t36 130.5v296h91v-538q-45 -20 -70 -42t-25 -43t15.5 -30t39.5 -9q20 0 42 6v-61q-25 -9 -64 -9q-48 0 -82 21
t-34 69z" />
    <glyph glyph-name="uring" unicode="&#x16f;" horiz-adv-x="570" 
d="M407 77q-26 -42 -66 -66t-103 -24q-90 0 -131 54.5t-41 152.5v344h91v-317q0 -74 22.5 -114.5t90.5 -40.5q65 0 101 45.5t36 130.5v296h91v-538h-91v77zM376 707q0 -37 -26 -61t-65 -24q-38 0 -64 24.5t-26 60.5q0 37 26.5 61t63.5 24q38 0 64.5 -24t26.5 -61zM242 707
q0 -18 13 -30t30 -12q18 0 30.5 12t12.5 30t-12.5 30.5t-30.5 12.5q-17 0 -30 -12.5t-13 -30.5z" />
    <glyph glyph-name="utilde" unicode="&#x169;" horiz-adv-x="570" 
d="M407 77q-26 -42 -66 -66t-103 -24q-90 0 -131 54.5t-41 152.5v344h91v-317q0 -74 22.5 -114.5t90.5 -40.5q65 0 101 45.5t36 130.5v296h91v-538h-91v77zM402 755h71q-10 -58 -41.5 -85.5t-74.5 -27.5q-22 0 -40 7t-40 20q-18 10 -30.5 15.5t-25.5 5.5q-19 0 -31 -11.5
t-14 -32.5h-71q9 56 40 84t75 28q22 0 39 -7t38 -20q18 -10 31 -15.5t27 -5.5q19 0 31.5 11.5t15.5 33.5z" />
    <glyph glyph-name="uni1EE5" unicode="&#x1ee5;" horiz-adv-x="570" 
d="M407 77q-26 -42 -66 -66t-103 -24q-90 0 -131 54.5t-41 152.5v344h91v-317q0 -74 22.5 -114.5t90.5 -40.5q65 0 101 45.5t36 130.5v296h91v-538h-91v77zM240 -175v99h91v-99h-91z" />
    <glyph glyph-name="wacute" unicode="&#x1e83;" horiz-adv-x="734" 
d="M250 0h-83l-155 538h98l103 -398l107 398h94l107 -398l103 398h98l-155 -538h-83l-119 433zM414 755h117l-131 -116h-76z" />
    <glyph glyph-name="wcircumflex" unicode="&#x175;" horiz-adv-x="734" 
d="M250 0h-83l-155 538h98l103 -398l107 398h94l107 -398l103 398h98l-155 -538h-83l-119 433zM319 755h89l129 -116h-96l-79 54l-79 -54h-96z" />
    <glyph glyph-name="wdieresis" unicode="&#x1e85;" horiz-adv-x="734" 
d="M250 0h-83l-155 538h98l103 -398l107 398h94l107 -398l103 398h98l-155 -538h-83l-119 433zM293 656h-91v99h91v-99zM431 656v99h92v-99h-92z" />
    <glyph glyph-name="wgrave" unicode="&#x1e81;" horiz-adv-x="734" 
d="M250 0h-83l-155 538h98l103 -398l107 398h94l107 -398l103 398h98l-155 -538h-83l-119 433zM401 639h-77l-130 116h116z" />
    <glyph glyph-name="ycircumflex" unicode="&#x177;" horiz-adv-x="501" 
d="M494 538l-276 -733h-95l80 211l-196 522h101l146 -412l146 412h94zM214 755h89l129 -116h-96l-79 54l-79 -54h-96z" />
    <glyph glyph-name="ygrave" unicode="&#x1ef3;" horiz-adv-x="501" 
d="M494 538l-276 -733h-95l80 211l-196 522h101l146 -412l146 412h94zM309 639h-77l-130 116h116z" />
    <glyph glyph-name="uni0233" unicode="&#x233;" horiz-adv-x="501" 
d="M494 538l-276 -733h-95l80 211l-196 522h101l146 -412l146 412h94zM404 740v-75h-300v75h300z" />
    <glyph glyph-name="zacute" unicode="&#x17a;" horiz-adv-x="477" 
d="M449 0h-423v79l311 380h-291v79h397v-79l-310 -380h316v-79zM289 755h117l-131 -116h-76z" />
    <glyph glyph-name="zcaron" unicode="&#x17e;" horiz-adv-x="477" 
d="M449 0h-423v79l311 380h-291v79h397v-79l-310 -380h316v-79zM299 639h-88l-129 116h96l78 -54l80 54h96z" />
    <glyph glyph-name="zdotaccent" unicode="&#x17c;" horiz-adv-x="477" 
d="M449 0h-423v79l311 380h-291v79h397v-79l-310 -380h316v-79zM207 656v99h91v-99h-91z" />
    <glyph glyph-name="glyph313" horiz-adv-x="549" 
d="M416 291q-8 87 -61 130.5t-123 43.5q-50 0 -89 -13.5t-74 -36.5v90q31 17 75.5 29.5t95.5 12.5q83 0 145 -36.5t95 -100.5t33 -144q0 -83 -33 -146.5t-90 -98t-125 -34.5q-77 0 -130.5 39.5t-79.5 108.5t-21 156h382zM415 218h-283q2 -77 41 -115.5t99 -38.5
q56 0 96.5 37t46.5 117z" />
    <glyph glyph-name="uni0410" unicode="&#x410;" horiz-adv-x="660" 
d="M661 0h-110l-73 203h-301l-72 -203h-104l269 725h118zM326 622l-118 -332h238z" />
    <glyph glyph-name="uni0411" unicode="&#x411;" horiz-adv-x="619" 
d="M184 637v-206h145q259 0 259 -210q0 -114 -70 -167.5t-194 -53.5h-242v725h452v-88h-350zM325 88q76 0 117 33.5t41 98.5q0 70 -40.5 98.5t-121.5 28.5h-137v-259h141z" />
    <glyph glyph-name="uni0412" unicode="&#x412;" horiz-adv-x="641" 
d="M82 0v725h234q116 0 185.5 -39.5t69.5 -139.5q0 -52 -21.5 -95t-58.5 -65q110 -46 110 -172q0 -109 -71.5 -161.5t-188.5 -52.5h-259zM184 639v-225h148q136 0 136 118q0 54 -36.5 80.5t-99.5 26.5h-148zM184 335v-249h158q77 0 115.5 32.5t38.5 94.5q0 63 -39 92.5
t-121 29.5h-152z" />
    <glyph glyph-name="uni0413" unicode="&#x413;" horiz-adv-x="539" 
d="M82 725h436v-88h-334v-637h-102v725z" />
    <glyph glyph-name="uni0414" unicode="&#x414;" horiz-adv-x="765" 
d="M735 88v-245h-94v157h-531v-157h-94v245h65q32 40 43.5 120.5t18.5 221.5l13 295h491v-637h88zM545 88v549h-298l-9 -207q-6 -134 -16.5 -218t-31.5 -124h355z" />
    <glyph glyph-name="uni0415" unicode="&#x415;" horiz-adv-x="577" 
d="M529 0h-447v725h447v-88h-345v-220h322v-88h-322v-241h345v-88z" />
    <glyph glyph-name="uni0401" unicode="&#x401;" horiz-adv-x="577" 
d="M529 0h-447v725h447v-88h-345v-220h322v-88h-322v-241h345v-88zM154 780v99h91v-99h-91zM383 780v99h92v-99h-92z" />
    <glyph glyph-name="uni0416" unicode="&#x416;" horiz-adv-x="954" 
d="M426 360v365h102v-365l290 365h120l-297 -371l321 -354h-139l-295 325v-325h-102v325l-295 -325h-134l315 347l-304 378h128z" />
    <glyph glyph-name="uni0417" unicode="&#x417;" horiz-adv-x="573" 
d="M41 32v96q92 -54 211 -54q85 0 131.5 36.5t46.5 99.5q0 59 -41 90t-123 31h-106v88h100q65 0 104 29.5t39 83.5q0 58 -36.5 89t-101.5 31q-99 0 -205 -52v94q101 44 207 44q110 0 175 -51.5t65 -143.5q0 -54 -26.5 -94.5t-74.5 -65.5q60 -19 94 -62.5t34 -112.5
q0 -74 -38 -123.5t-102 -73t-141 -23.5q-63 0 -114.5 10.5t-97.5 33.5z" />
    <glyph glyph-name="uni0418" unicode="&#x418;" horiz-adv-x="744" 
d="M184 151l376 574h102v-725h-102v574l-376 -574h-102v725h102v-574z" />
    <glyph glyph-name="uni0419" unicode="&#x419;" horiz-adv-x="744" 
d="M184 151l376 574h102v-725h-102v574l-376 -574h-102v725h102v-574zM530 886q-6 -55 -46 -87t-113 -32q-71 0 -110 32t-46 87h79q9 -60 78 -60q68 0 79 60h79z" />
    <glyph glyph-name="uni041A" unicode="&#x41a;" horiz-adv-x="640" 
d="M82 725h102v-339l317 339h127l-329 -345l354 -380h-147l-322 351v-351h-102v725z" />
    <glyph glyph-name="uni041B" unicode="&#x41b;" horiz-adv-x="729" 
d="M647 0h-102v637h-288l-12 -275q-6 -131 -24.5 -211.5t-57 -120.5t-103.5 -40q-26 0 -44 10v94q10 -7 38 -7q50 0 70 66.5t26 206.5l16 365h481v-725z" />
    <glyph glyph-name="uni041C" unicode="&#x41c;" horiz-adv-x="862" 
d="M678 632l-193 -462h-108l-193 462v-632h-102v725h171l178 -439l178 439h171v-725h-102v632z" />
    <glyph glyph-name="uni041D" unicode="&#x41d;" horiz-adv-x="734" 
d="M550 417v308h102v-725h-102v329h-366v-329h-102v725h102v-308h366z" />
    <glyph glyph-name="uni041E" unicode="&#x41e;" horiz-adv-x="764" 
d="M382 -13q-103 0 -180 48t-118.5 133.5t-41.5 194.5t41.5 194t118.5 133t180 48t180 -48t118.5 -133t41.5 -194t-41.5 -194.5t-118.5 -133.5t-180 -48zM382 73q67 0 120.5 34t84.5 99.5t31 156.5t-31 156t-84.5 99t-120.5 34t-120.5 -34t-84.5 -99t-31 -156t31 -156.5
t84.5 -99.5t120.5 -34z" />
    <glyph glyph-name="uni041F" unicode="&#x41f;" horiz-adv-x="724" 
d="M642 725v-725h-102v637h-356v-637h-102v725h560z" />
    <glyph glyph-name="uni0420" unicode="&#x420;" horiz-adv-x="616" 
d="M289 725q96 0 161.5 -18.5t102.5 -66.5t37 -134t-37 -133.5t-102 -65t-162 -17.5h-105v-290h-102v725h207zM184 639v-263h113q62 0 101.5 8.5t63.5 37t24 84.5t-24 85t-64 38.5t-101 9.5h-113z" />
    <glyph glyph-name="uni0421" unicode="&#x421;" horiz-adv-x="629" 
d="M425 73q86 0 168 41v-93q-37 -15 -83.5 -24.5t-94.5 -9.5q-120 0 -204.5 48.5t-127 133.5t-42.5 194q0 107 44.5 192.5t129 134t200.5 48.5q51 0 98 -9t80 -25v-93q-34 18 -78.5 29.5t-89.5 11.5q-131 0 -205.5 -75t-74.5 -214t75 -214.5t205 -75.5z" />
    <glyph glyph-name="uni0422" unicode="&#x422;" horiz-adv-x="598" 
d="M350 0h-102v637h-226v88h554v-88h-226v-637z" />
    <glyph glyph-name="uni0423" unicode="&#x423;" horiz-adv-x="640" 
d="M113 0v92q28 -18 68 -18q30 0 51.5 11t35.5 37l14 26l-270 577h112l210 -471l195 471h111l-267 -606q-28 -64 -74.5 -98.5t-106.5 -34.5q-20 0 -42.5 4.5t-36.5 9.5z" />
    <glyph glyph-name="uni0424" unicode="&#x424;" horiz-adv-x="864" 
d="M483 665q111 -4 188 -43t116.5 -105t39.5 -151t-39.5 -152t-117 -106.5t-187.5 -43.5v-84h-102v84q-110 4 -187.5 44t-117 107.5t-39.5 154.5q0 84 39.5 149t117 103.5t187.5 42.5v80h102v-80zM381 580q-113 -6 -176.5 -61t-63.5 -151q0 -99 63.5 -156t176.5 -63v431z
M483 149q112 6 176 63t64 156q0 96 -63.5 150.5t-176.5 61.5v-431z" />
    <glyph glyph-name="uni0425" unicode="&#x425;" horiz-adv-x="650" 
d="M112 0h-115l269 373l-251 352h121l191 -268l193 268h115l-251 -348l269 -377h-120l-210 293z" />
    <glyph glyph-name="uni0426" unicode="&#x426;" horiz-adv-x="760" 
d="M642 88h88v-245h-94v157h-554v725h102v-637h356v637h102v-637z" />
    <glyph glyph-name="uni0427" unicode="&#x427;" horiz-adv-x="663" 
d="M581 725v-725h-102v294q-34 -5 -83.5 -8t-89.5 -3q-133 0 -198 57.5t-65 180.5v204h102v-197q0 -86 42.5 -121.5t123.5 -35.5q102 0 168 11v343h102z" />
    <glyph glyph-name="uni0428" unicode="&#x428;" horiz-adv-x="1002" 
d="M920 725v-725h-838v725h102v-637h266v637h102v-637h266v637h102z" />
    <glyph glyph-name="uni0429" unicode="&#x429;" horiz-adv-x="1036" 
d="M918 88h88v-245h-94v157h-830v725h102v-637h266v637h101v-637h266v637h101v-637z" />
    <glyph glyph-name="uni042A" unicode="&#x42a;" horiz-adv-x="716" 
d="M181 0v637h-168v88h270v-267h97q150 0 229.5 -49t79.5 -180q0 -129 -80 -179t-229 -50h-199zM387 88q94 0 146 29.5t52 111.5q0 83 -51.5 112t-146.5 29h-104v-282h104z" />
    <glyph glyph-name="uni042B" unicode="&#x42b;" horiz-adv-x="854" 
d="M82 0v725h102v-267h77q150 0 229.5 -49t79.5 -180q0 -129 -80 -179t-229 -50h-179zM772 725v-725h-102v725h102zM265 88q94 0 146 29.5t52 111.5q0 83 -51.5 112t-146.5 29h-81v-282h81z" />
    <glyph glyph-name="uni042C" unicode="&#x42c;" horiz-adv-x="617" 
d="M82 0v725h102v-267h97q150 0 229.5 -49t79.5 -180q0 -129 -80 -179t-229 -50h-199zM288 88q94 0 146 29.5t52 111.5q0 83 -51.5 112t-146.5 29h-104v-282h104z" />
    <glyph glyph-name="uni042D" unicode="&#x42d;" horiz-adv-x="639" 
d="M597 359q0 -108 -39.5 -192t-122.5 -132t-207 -48q-55 0 -106 12t-92 33v95q91 -54 198 -54q122 0 189 64.5t75 188.5h-345v88h343q-12 117 -77.5 177.5t-179.5 60.5q-56 0 -98.5 -13.5t-87.5 -39.5v97q91 42 179 42q119 0 202.5 -47t126 -132.5t42.5 -199.5z" />
    <glyph glyph-name="uni042E" unicode="&#x42e;" horiz-adv-x="1024" 
d="M982 363q0 -112 -42 -197t-118 -132t-176 -47q-96 0 -169.5 43t-116 120.5t-48.5 178.5h-128v-329h-102v725h102v-308h130q10 97 53 169.5t114.5 112t164.5 39.5q100 0 176 -47t118 -132t42 -196zM878 363q0 91 -30 156t-82.5 99t-119.5 34t-119.5 -34t-82.5 -99
t-30 -156t30 -156.5t82.5 -99.5t119.5 -34t119.5 34t82.5 99.5t30 156.5z" />
    <glyph glyph-name="uni042F" unicode="&#x42f;" horiz-adv-x="636" 
d="M554 0h-102v278h-124l-189 -278h-117l204 301q-76 9 -120 62.5t-44 138.5q0 121 76.5 172t213.5 51h202v-725zM365 637q-97 0 -147.5 -28.5t-50.5 -106.5q0 -77 51 -106.5t147 -29.5h87v271h-87z" />
    <glyph glyph-name="uni0402" unicode="&#x402;" horiz-adv-x="771" 
d="M325 0h-102v637h-211v88h554v-88h-241v-216q40 8 88.5 14.5t84.5 6.5q238 0 238 -242q0 -113 -67 -200t-193 -134l-36 80q94 37 144.5 102t50.5 151q0 77 -37 116t-107 39q-45 0 -83 -5.5t-83 -15.5v-333z" />
    <glyph glyph-name="uni0403" unicode="&#x403;" horiz-adv-x="539" 
d="M82 725h436v-88h-334v-637h-102v725zM352 886h129l-149 -113h-90z" />
    <glyph glyph-name="uni0404" unicode="&#x404;" horiz-adv-x="645" 
d="M608 127v-95q-41 -21 -92 -33t-106 -12q-120 0 -203 48.5t-124.5 132.5t-41.5 191q0 113 45 199t129.5 133t199.5 47q102 0 191 -42v-97q-45 26 -87.5 39.5t-98.5 13.5q-115 0 -186.5 -61t-85.5 -177h343v-88h-345q9 -122 78.5 -187.5t185.5 -65.5q107 0 198 54z" />
    <glyph glyph-name="uni0405" unicode="&#x405;" horiz-adv-x="553" 
d="M48 30v95q54 -27 94.5 -39.5t105.5 -12.5q76 0 123 28t47 84q0 44 -29 73.5t-92 52.5l-67 24q-84 30 -133.5 80t-49.5 122q0 61 36 106.5t93.5 70t121.5 24.5q108 0 177 -32v-93q-40 20 -82.5 30t-96.5 10q-59 0 -101.5 -25.5t-42.5 -80.5q0 -78 100 -114l67 -24
q105 -37 154 -85.5t49 -119.5q0 -68 -37.5 -117t-100 -74.5t-134.5 -25.5q-63 0 -117.5 12.5t-84.5 30.5z" />
    <glyph glyph-name="uni0406" unicode="&#x406;" horiz-adv-x="460" 
d="M421 88v-88h-382v88h140v549h-140v88h382v-88h-140v-549h140z" />
    <glyph glyph-name="uni0407" unicode="&#x407;" horiz-adv-x="460" 
d="M421 88v-88h-382v88h140v549h-140v88h382v-88h-140v-549h140zM70 780v99h91v-99h-91zM299 780v99h92v-99h-92z" />
    <glyph glyph-name="uni0408" unicode="&#x408;" horiz-adv-x="356" 
d="M35 -3l6 88q34 -10 65 -10q37 0 54 17t17 57v488h-132v88h234v-572q0 -81 -42.5 -123.5t-119.5 -42.5q-42 0 -82 10z" />
    <glyph glyph-name="uni0409" unicode="&#x409;" horiz-adv-x="1036" 
d="M166 725h444v-267h90q150 0 229.5 -49t79.5 -180q0 -129 -80 -179t-229 -50h-192v637h-251l-12 -275q-6 -131 -24.5 -211.5t-57 -120.5t-103.5 -40q-26 0 -44 10v94q10 -7 38 -7q50 0 70 66.5t26 206.5zM704 88q94 0 146 29.5t52 111.5q0 83 -51.5 112t-146.5 29h-94
v-282h94z" />
    <glyph glyph-name="uni040A" unicode="&#x40a;" horiz-adv-x="1022" 
d="M694 449q146 0 224 -48t78 -176q0 -127 -78.5 -176t-223.5 -49h-189v361h-321v-361h-102v725h102v-276h321v276h102v-276h87zM698 88q91 0 141 28.5t50 108.5t-49.5 108t-141.5 28h-91v-273h91z" />
    <glyph glyph-name="uni040B" unicode="&#x40b;" horiz-adv-x="775" 
d="M731 214v-214h-102v207q0 81 -34.5 114t-101.5 33q-74 0 -168 -21v-333h-102v637h-211v88h554v-88h-241v-216q40 8 88.5 14.5t84.5 6.5q118 0 175.5 -55t57.5 -173z" />
    <glyph glyph-name="uni040C" unicode="&#x40c;" horiz-adv-x="640" 
d="M82 725h102v-339l317 339h127l-329 -345l354 -380h-147l-322 351v-351h-102v725zM385 886h129l-149 -113h-90z" />
    <glyph glyph-name="uni040E" unicode="&#x40e;" horiz-adv-x="640" 
d="M113 0v92q28 -18 68 -18q30 0 51.5 11t35.5 37l14 26l-270 577h112l210 -471l195 471h111l-267 -606q-28 -64 -74.5 -98.5t-106.5 -34.5q-20 0 -42.5 4.5t-36.5 9.5zM483 886q-6 -55 -46 -87t-113 -32q-71 0 -110 32t-46 87h79q9 -60 78 -60q68 0 79 60h79z" />
    <glyph glyph-name="uni040F" unicode="&#x40f;" horiz-adv-x="724" 
d="M642 0h-233v-157h-94v157h-233v725h102v-637h356v637h102v-725z" />
    <glyph glyph-name="uni0490" unicode="&#x490;" horiz-adv-x="539" 
d="M518 882v-245h-334v-637h-102v725h342v157h94z" />
    <glyph glyph-name="uni0462" unicode="&#x462;" horiz-adv-x="709" 
d="M371 437q150 0 230 -47t80 -168q0 -124 -80.5 -173t-229.5 -49h-198v548h-151v83h151v94h102v-94h215v-83h-215v-111h96zM380 88q96 0 146.5 28.5t50.5 105.5q0 76 -49.5 101.5t-147.5 25.5h-105v-261h105z" />
    <glyph glyph-name="uni0472" unicode="&#x472;" horiz-adv-x="764" 
d="M722 363q0 -109 -41.5 -194.5t-118.5 -133.5t-180 -48t-180 48t-118.5 133.5t-41.5 194.5t41.5 194t118.5 133t180 48t180 -48t118.5 -133t41.5 -194zM144 408q43 35 108 35q36 0 67.5 -9t73.5 -27q38 -16 64 -24t54 -8q38 0 66.5 11.5t40.5 32.5q-14 110 -78.5 171.5
t-157.5 61.5q-62 0 -113 -28.5t-84 -83.5t-41 -132zM620 328q-44 -33 -109 -33q-36 0 -67.5 9t-73.5 27q-38 16 -64 24t-54 8q-38 0 -67 -11.5t-41 -32.5q8 -78 41 -133.5t84 -84t113 -28.5q63 0 115 29.5t84.5 87.5t38.5 138z" />
    <glyph glyph-name="uni0474" unicode="&#x474;" horiz-adv-x="706" 
d="M557 539l-183 -539h-122l-249 725h112l201 -619l144 454q29 89 67.5 132t107.5 43q35 0 53 -10v-97q-17 10 -41 10q-35 0 -53 -22t-37 -77z" />
    <glyph glyph-name="uni0492" unicode="&#x492;" horiz-adv-x="553" 
d="M530 637h-334v-229h189v-79h-189v-329h-102v329h-77v79h77v317h436v-88z" />
    <glyph glyph-name="uni0496" unicode="&#x496;" horiz-adv-x="963" 
d="M867 -157v157h-44l-295 325v-325h-102v325l-295 -325h-134l315 347l-303 378h128l289 -365v365h102v-365l290 365h120l-297 -371l241 -266h79v-245h-94z" />
    <glyph glyph-name="uni049A" unicode="&#x49a;" horiz-adv-x="650" 
d="M82 725h102v-365l317 365h127l-329 -371l266 -266h79v-245h-94v157h-44l-322 325v-325h-102v725z" />
    <glyph glyph-name="uni04A2" unicode="&#x4a2;" horiz-adv-x="770" 
d="M652 88h88v-245h-94v157h-96v329h-366v-329h-102v725h102v-308h366v308h102v-637z" />
    <glyph glyph-name="uni04AE" unicode="&#x4ae;" horiz-adv-x="619" 
d="M257 283l-256 442h112l198 -354l202 354h112l-266 -444v-281h-102v283z" />
    <glyph glyph-name="uni04B0" unicode="&#x4b0;" horiz-adv-x="621" 
d="M514 725h112l-265 -442h149v-88h-150v-195h-102v195h-150v88h150l-256 442h112l198 -354z" />
    <glyph glyph-name="uni04B2" unicode="&#x4b2;" horiz-adv-x="664" 
d="M112 0h-115l269 373l-251 352h121l191 -268l193 268h115l-251 -348l206 -289h79v-245h-94v157h-42l-210 293z" />
    <glyph glyph-name="uni04B6" unicode="&#x4b6;" horiz-adv-x="699" 
d="M669 88v-245h-94v157h-96v294q-69 -11 -183 -11q-253 0 -253 238v204h102v-197q0 -157 156 -157q116 0 178 11v343h102v-637h88z" />
    <glyph glyph-name="uni04BA" unicode="&#x4ba;" horiz-adv-x="665" 
d="M82 0v725h102v-284q40 9 92 15t91 6q128 0 190.5 -57.5t62.5 -180.5v-224h-102v217q0 86 -40 121.5t-116 35.5q-87 0 -178 -21v-353h-102z" />
    <glyph glyph-name="uni04C0" unicode="&#x4c0;" horiz-adv-x="450" 
d="M417 88v-88h-382v88h140v549h-140v88h382v-88h-140v-549h140z" />
    <glyph glyph-name="uni04D8" unicode="&#x4d8;" horiz-adv-x="757" 
d="M40 355q0 30 3 61h565q-19 108 -94.5 166t-190.5 58q-68 0 -123 -13t-89 -36v103q39 20 93.5 32t118.5 12q127 0 215 -47t133 -133t45 -201q0 -112 -42 -195.5t-120 -129t-182 -45.5q-97 0 -172.5 45.5t-117.5 129t-42 193.5zM613 320h-464q5 -118 66 -182t162 -64
q58 0 110 25.5t87 81t39 139.5z" />
    <glyph glyph-name="uni04E2" unicode="&#x4e2;" horiz-adv-x="744" 
d="M184 151l376 574h102v-725h-102v574l-376 -574h-102v725h102v-574zM522 866v-75h-300v75h300z" />
    <glyph glyph-name="uni04E8" unicode="&#x4e8;" horiz-adv-x="767" 
d="M383 -13q-102 0 -179.5 47.5t-119.5 132.5t-42 196q0 110 42 195t119.5 132.5t179.5 47.5q101 0 179 -47t120.5 -132t42.5 -196q0 -112 -42.5 -197t-120 -132t-179.5 -47zM153 419h460q-13 109 -75.5 171t-154.5 62q-91 0 -154 -62t-76 -171zM616 331h-465
q4 -80 35 -138.5t82.5 -89t114.5 -30.5t114.5 30.5t83 89t35.5 138.5z" />
    <glyph glyph-name="uni04EE" unicode="&#x4ee;" horiz-adv-x="640" 
d="M113 0v92q28 -18 68 -18q30 0 51.5 11t35.5 37l14 26l-270 577h112l210 -471l195 471h111l-267 -606q-28 -64 -74.5 -98.5t-106.5 -34.5q-20 0 -42.5 4.5t-36.5 9.5zM476 866v-75h-300v75h300z" />
    <glyph glyph-name="uni0430" unicode="&#x430;" horiz-adv-x="537" 
d="M381 348q-3 117 -131 117q-44 0 -88.5 -15t-80.5 -37v87q39 22 87 34.5t95 12.5q108 0 159 -50.5t50 -164.5l-1 -129l-1 -68q0 -36 4 -135h-88v85q-25 -45 -70.5 -71.5t-105.5 -26.5q-49 0 -90.5 20.5t-65.5 57.5t-24 85q0 87 91 132.5t260 65.5zM387 271v6
q-123 -10 -190 -39t-67 -83q0 -40 27 -67.5t75 -27.5q62 0 108.5 47t46.5 164z" />
    <glyph glyph-name="uni0431" unicode="&#x431;" horiz-adv-x="603" 
d="M566 262q0 -86 -33.5 -148.5t-90.5 -94.5t-126 -32q-73 0 -132 32t-93.5 98t-34.5 163v71q0 171 64.5 267.5t218.5 110.5q132 12 187 26v-81q-55 -16 -182 -28q-103 -10 -149.5 -66.5t-48.5 -162.5q26 55 75 82.5t111 27.5q64 0 117.5 -30t85 -89.5t31.5 -145.5zM469 260
q0 92 -42 140t-110 48q-69 0 -116 -47t-47 -140q0 -91 44.5 -143t117.5 -52q70 0 111.5 50.5t41.5 143.5z" />
    <glyph glyph-name="uni0432" unicode="&#x432;" horiz-adv-x="539" 
d="M296 538q86 0 136 -30.5t50 -106.5q0 -86 -75 -118q44 -13 70.5 -44t26.5 -82q0 -80 -55 -118.5t-147 -38.5h-230v538h224zM290 312q48 0 72.5 17.5t24.5 61.5q0 39 -25 53.5t-75 14.5h-124v-147h127zM163 237v-158h135q56 0 83.5 19t27.5 60q0 43 -27.5 61t-86.5 18
h-132z" />
    <glyph glyph-name="uni0433" unicode="&#x433;" horiz-adv-x="440" 
d="M415 538v-79h-252v-459h-91v538h343z" />
    <glyph glyph-name="uni0434" unicode="&#x434;" horiz-adv-x="618" 
d="M588 79v-223h-86v144h-400v-144h-86v223h47q60 54 65 244l6 215h384v-459h70zM427 79v380h-209l-4 -138q-2 -82 -15 -146.5t-35 -95.5h263z" />
    <glyph glyph-name="uni0435" unicode="&#x435;" horiz-adv-x="549" 
d="M133 243q8 -87 61 -130.5t123 -43.5q50 0 89 13.5t74 36.5v-90q-31 -17 -75.5 -29.5t-95.5 -12.5q-83 0 -145 36.5t-95 100.5t-33 144q0 83 33 146.5t90 98t125 34.5q77 0 130.5 -39.5t79.5 -108.5t21 -156h-382zM134 316h283q-2 77 -41 115.5t-99 38.5q-56 0 -96.5 -37
t-46.5 -117z" />
    <glyph glyph-name="uni0451" unicode="&#x451;" horiz-adv-x="549" 
d="M133 243q8 -87 61 -130.5t123 -43.5q50 0 89 13.5t74 36.5v-90q-31 -17 -75.5 -29.5t-95.5 -12.5q-83 0 -145 36.5t-95 100.5t-33 144q0 83 33 146.5t90 98t125 34.5q77 0 130.5 -39.5t79.5 -108.5t21 -156h-382zM134 316h283q-2 77 -41 115.5t-99 38.5q-56 0 -96.5 -37
t-46.5 -117zM220 656h-91v99h91v-99zM358 656v99h92v-99h-92z" />
    <glyph glyph-name="uni0436" unicode="&#x436;" horiz-adv-x="765" 
d="M337 538h91v-261l213 261h107l-220 -262l242 -276h-117l-225 253v-253h-91v253l-225 -253h-117l242 276l-220 262h109l211 -261v261z" />
    <glyph glyph-name="uni0437" unicode="&#x437;" horiz-adv-x="461" 
d="M31 29v85q70 -50 169 -50q60 0 95 25t35 67q0 79 -115 79h-86v79h81q48 0 75.5 21t27.5 61q0 74 -113 74q-93 0 -157 -44v85q66 39 160 39q91 0 147.5 -36.5t56.5 -115.5q0 -39 -24 -69.5t-63 -46.5q47 -12 77 -44.5t30 -84.5q0 -82 -65.5 -124t-162.5 -42q-99 0 -168 42
z" />
    <glyph glyph-name="uni0438" unicode="&#x438;" horiz-adv-x="591" 
d="M519 538v-538h-91v406l-265 -406h-91v538h91v-406l265 406h91z" />
    <glyph glyph-name="uni0439" unicode="&#x439;" horiz-adv-x="591" 
d="M519 538v-538h-91v406l-265 -406h-91v538h91v-406l265 406h91zM137 755h71q3 -26 24.5 -43.5t62.5 -17.5t63 17.5t25 43.5h71q-6 -52 -43.5 -86.5t-116.5 -34.5q-77 0 -114.5 34.5t-42.5 86.5z" />
    <glyph glyph-name="uni043A" unicode="&#x43a;" horiz-adv-x="494" 
d="M72 0v538h91v-261l213 261h107l-220 -262l242 -276h-117l-225 253v-253h-91z" />
    <glyph glyph-name="uni043B" unicode="&#x43b;" horiz-adv-x="572" 
d="M18 0v89q10 -5 29 -5q36 0 54 50.5t23 154.5l11 249h365v-538h-91v459h-191l-8 -171q-7 -146 -43.5 -219.5t-116.5 -73.5q-24 0 -32 5z" />
    <glyph glyph-name="uni043C" unicode="&#x43c;" horiz-adv-x="712" 
d="M360 237l160 301h120v-538h-89v439l-163 -307h-65l-162 301v-433h-89v538h125z" />
    <glyph glyph-name="uni043D" unicode="&#x43d;" horiz-adv-x="581" 
d="M509 538v-538h-91v235h-255v-235h-91v538h91v-224h255v224h91z" />
    <glyph glyph-name="uni043E" unicode="&#x43e;" horiz-adv-x="584" 
d="M292 547q68 0 126 -30.5t93.5 -93.5t35.5 -156t-35.5 -156t-93.5 -93.5t-126 -30.5t-126 30.5t-93.5 93.5t-35.5 156t35.5 156t93.5 93.5t126 30.5zM292 67q69 0 113.5 51t44.5 149q0 101 -44 150.5t-114 49.5t-114 -48t-44 -152q0 -101 44 -150.5t114 -49.5z" />
    <glyph glyph-name="uni043F" unicode="&#x43f;" horiz-adv-x="576" 
d="M72 538h432v-538h-91v459h-250v-459h-91v538z" />
    <glyph glyph-name="uni0440" unicode="&#x440;" horiz-adv-x="603" 
d="M72 538h91v-85q26 45 70 69.5t106 24.5q64 0 115.5 -33.5t81.5 -97t30 -149.5q0 -87 -30 -150t-81.5 -96.5t-115.5 -33.5q-62 0 -106 24.5t-70 69.5v-276h-91v733zM316 65q73 0 112 53t39 149t-39 149t-112 53q-42 0 -78 -21.5t-57.5 -67t-21.5 -113.5t21.5 -113.5
t57.5 -67t78 -21.5z" />
    <glyph glyph-name="uni0441" unicode="&#x441;" horiz-adv-x="459" 
d="M313 69q56 0 110 25v-85q-23 -10 -54 -16t-63 -6q-85 0 -146 36.5t-92.5 100t-31.5 143.5q0 79 34 143t95.5 100.5t140.5 36.5q68 0 115 -15v-86q-52 19 -108 19q-77 0 -128 -49.5t-51 -148.5t51.5 -148.5t127.5 -49.5z" />
    <glyph glyph-name="uni0442" unicode="&#x442;" horiz-adv-x="499" 
d="M474 538v-79h-179v-459h-91v459h-179v79h449z" />
    <glyph glyph-name="uni0443" unicode="&#x443;" horiz-adv-x="501" 
d="M494 538l-276 -733h-95l80 211l-196 522h101l146 -412l146 412h94z" />
    <glyph glyph-name="uni0444" unicode="&#x444;" horiz-adv-x="719" 
d="M405 543q126 -7 201.5 -75t75.5 -201q0 -136 -75.5 -202.5t-201.5 -74.5v-185h-91v185q-127 8 -202 74.5t-75 202.5q0 133 76 201t201 75v212h91v-212zM314 465q-84 -7 -132 -55.5t-48 -145.5q0 -95 47.5 -141.5t132.5 -54.5v397zM405 68q180 17 180 196
q0 97 -47.5 145.5t-132.5 55.5v-397z" />
    <glyph glyph-name="uni0445" unicode="&#x445;" horiz-adv-x="504" 
d="M385 538h102l-183 -257l201 -281h-109l-146 205l-145 -205h-104l198 277l-186 261h109l131 -185z" />
    <glyph glyph-name="uni0446" unicode="&#x446;" horiz-adv-x="599" 
d="M499 538v-459h70v-223h-86v144h-411v538h91v-459h245v459h91z" />
    <glyph glyph-name="uni0447" unicode="&#x447;" horiz-adv-x="532" 
d="M460 0h-91v217q-81 -21 -144 -21q-97 0 -142.5 43t-45.5 135v164h91v-156q0 -58 26.5 -82.5t80.5 -24.5q55 0 134 19v244h91v-538z" />
    <glyph glyph-name="uni0448" unicode="&#x448;" horiz-adv-x="807" 
d="M644 538h91v-538h-663v538h91v-459h195v459h91v-459h195v459z" />
    <glyph glyph-name="uni0449" unicode="&#x449;" horiz-adv-x="835" 
d="M735 79h70v-223h-86v144h-647v538h91v-459h195v459h91v-459h195v459h91v-459z" />
    <glyph glyph-name="uni044A" unicode="&#x44a;" horiz-adv-x="583" 
d="M356 348q104 0 153 -42t49 -128q0 -95 -52 -136.5t-150 -41.5h-195v459h-147v79h238v-190h104zM348 79q62 0 91.5 23t29.5 76q0 52 -29.5 71.5t-94.5 19.5h-93v-190h96z" />
    <glyph glyph-name="uni044B" unicode="&#x44b;" horiz-adv-x="720" 
d="M72 0v538h91v-190h104q103 0 152 -42t49 -128q0 -95 -52 -136.5t-150 -41.5h-194zM648 538v-538h-91v538h91zM163 269v-190h95q62 0 91.5 23t29.5 76q0 52 -29.5 71.5t-94.5 19.5h-92z" />
    <glyph glyph-name="uni044C" unicode="&#x44c;" horiz-adv-x="517" 
d="M291 348q104 0 152.5 -42t48.5 -128q0 -95 -52 -136.5t-150 -41.5h-218v538h91v-190h128zM282 79q62 0 91.5 23t29.5 76q0 51 -29.5 71t-93.5 20h-117v-190h119z" />
    <glyph glyph-name="uni044D" unicode="&#x44d;" horiz-adv-x="475" 
d="M439 269q0 -81 -32 -145t-91.5 -100.5t-139.5 -36.5q-88 0 -139 28v87q49 -33 131 -33q75 0 121.5 40t54.5 123h-241v79h241q-10 79 -54.5 116.5t-122.5 37.5q-80 0 -128 -24v87q51 19 130 19q89 0 149.5 -36t90.5 -98.5t30 -143.5z" />
    <glyph glyph-name="uni044E" unicode="&#x44e;" horiz-adv-x="808" 
d="M772 267q0 -93 -37 -156t-96 -93.5t-125 -30.5q-59 0 -112.5 27t-89.5 83t-42 138h-107v-235h-91v538h91v-224h109q9 77 45 129.5t88 78t109 25.5q66 0 125 -30.5t96 -93.5t37 -156zM675 267q0 100 -46.5 150t-114.5 50q-63 0 -105.5 -48.5t-42.5 -151.5q0 -100 43 -150
t105 -50q43 0 79.5 22t59 67t22.5 111z" />
    <glyph glyph-name="uni044F" unicode="&#x44f;" horiz-adv-x="530" 
d="M458 538v-538h-91v191h-103l-145 -191h-111l162 215q-52 16 -82.5 53.5t-30.5 99.5q0 83 55 126.5t150 43.5h196zM262 459q-52 0 -82 -23t-30 -70q0 -51 33.5 -73.5t86.5 -22.5h97v189h-105z" />
    <glyph glyph-name="uni0452" unicode="&#x452;" horiz-adv-x="580" 
d="M514 69q0 -146 -42.5 -210.5t-139.5 -64.5q-26 0 -45 5v78q16 -4 45 -4q49 0 70 47t21 150v243q0 74 -23.5 114.5t-94.5 40.5q-67 0 -104.5 -45.5t-37.5 -130.5v-292h-91v600h-84v73h84v82h91v-82h155v-73h-155v-143q55 90 174 90q177 0 177 -207v-271z" />
    <glyph glyph-name="uni0453" unicode="&#x453;" horiz-adv-x="440" 
d="M415 538v-79h-252v-459h-91v538h343zM296 755h117l-131 -116h-76z" />
    <glyph glyph-name="uni0454" unicode="&#x454;" horiz-adv-x="474" 
d="M438 99v-85q-46 -27 -139 -27q-80 0 -139.5 36.5t-91.5 100t-32 143.5t32 143.5t93 100t145 36.5q88 0 130 -20v-86q-47 24 -127 24q-69 0 -117.5 -38.5t-59.5 -115.5h230v-79h-231q9 -82 58 -122.5t118 -40.5q75 0 131 30z" />
    <glyph glyph-name="uni0455" unicode="&#x455;" horiz-adv-x="433" 
d="M40 19v93q30 -19 73 -32t84 -13q56 0 89 17t33 53q0 28 -26 49t-82 42l-16 6q-69 26 -110.5 64.5t-41.5 98.5q0 46 26.5 80t69.5 52t91 18q40 0 77.5 -6t61.5 -16v-86q-38 13 -69.5 20.5t-70.5 7.5q-44 0 -71.5 -15.5t-27.5 -47.5q0 -30 21.5 -49.5t60.5 -33.5l19 -7
q89 -33 131.5 -69.5t42.5 -98.5q0 -51 -29.5 -87t-77 -54t-100.5 -18q-48 0 -90.5 9t-67.5 23z" />
    <glyph glyph-name="uni0456" unicode="&#x456;" 
d="M72 645v110h91v-110h-91zM72 0v538h91v-538h-91z" />
    <glyph glyph-name="uni0457" unicode="&#x457;" 
d="M15 645v110h86v-110h-86zM134 645v110h86v-110h-86zM163 0h-91v538h91v-538z" />
    <glyph glyph-name="uni0458" unicode="&#x458;" horiz-adv-x="264" 
d="M101 645v110h91v-110h-91zM19 -203v75q15 -3 38 -3q27 0 35.5 13.5t8.5 54.5v528h-80v73h171v-599q0 -57 -9.5 -86.5t-38 -44t-87.5 -14.5q-20 0 -38 3z" />
    <glyph glyph-name="uni0459" unicode="&#x459;" horiz-adv-x="818" 
d="M135 538h353v-190h104q103 0 152 -42t49 -128q0 -95 -52 -136.5t-150 -41.5h-194v459h-179l-8 -171q-7 -146 -43.5 -219.5t-116.5 -73.5q-24 0 -32 5v89q10 -5 29 -5q36 0 54 50.5t23 154.5zM583 79q62 0 91.5 23t29.5 76q0 52 -29.5 71.5t-94.5 19.5h-92v-190h95z" />
    <glyph glyph-name="uni045A" unicode="&#x45a;" horiz-adv-x="809" 
d="M584 338q104 0 152.5 -40.5t48.5 -124.5q0 -92 -52 -132.5t-150 -40.5h-194v259h-226v-259h-91v538h91v-200h226v200h91v-200h104zM575 79q62 0 91.5 22t29.5 72q0 49 -29.5 67.5t-94.5 18.5h-92v-180h95z" />
    <glyph glyph-name="uni045B" unicode="&#x45b;" horiz-adv-x="580" 
d="M163 755v-82h155v-73h-155v-143q55 90 174 90q177 0 177 -207v-340h-91v313q0 74 -23.5 114.5t-94.5 40.5q-67 0 -104.5 -45.5t-37.5 -130.5v-292h-91v600h-84v73h84v82h91z" />
    <glyph glyph-name="uni045C" unicode="&#x45c;" horiz-adv-x="494" 
d="M72 0v538h91v-261l213 261h107l-220 -262l242 -276h-117l-225 253v-253h-91zM307 755h117l-131 -116h-76z" />
    <glyph glyph-name="uni045E" unicode="&#x45e;" horiz-adv-x="501" 
d="M494 538l-276 -733h-95l80 211l-196 522h101l146 -412l146 412h94zM96 755h71q3 -26 24.5 -43.5t62.5 -17.5t63 17.5t25 43.5h71q-6 -52 -43.5 -86.5t-116.5 -34.5q-77 0 -114.5 34.5t-42.5 86.5z" />
    <glyph glyph-name="uni045F" unicode="&#x45f;" horiz-adv-x="576" 
d="M504 538v-538h-173v-144h-86v144h-173v538h91v-459h250v459h91z" />
    <glyph glyph-name="uni0491" unicode="&#x491;" horiz-adv-x="440" 
d="M415 682v-223h-252v-459h-91v538h255v144h88z" />
    <glyph glyph-name="uni0463" unicode="&#x463;" horiz-adv-x="566" 
d="M334 348q104 0 155.5 -41.5t51.5 -127.5q0 -94 -53.5 -136.5t-153.5 -42.5h-211v465h-109v73h109v217h91v-217h162v-73h-162v-117h120zM331 79q61 0 91 23.5t30 75.5q0 51 -30 71t-94 20h-114v-190h117z" />
    <glyph glyph-name="uni0473" unicode="&#x473;" horiz-adv-x="584" 
d="M547 267q0 -93 -35.5 -156t-93.5 -93.5t-126 -30.5t-126 30.5t-93.5 93.5t-35.5 156t35.5 156t93.5 93.5t126 30.5t126 -30.5t93.5 -93.5t35.5 -156zM133 304q32 30 80 30q20 0 39 -6.5t47 -19.5q24 -11 40.5 -17t31.5 -6q28 0 48 9t30 27q-11 74 -53.5 110t-103.5 36
q-65 0 -108 -39.5t-51 -123.5zM452 235q-33 -30 -81 -30q-20 0 -39 6.5t-47 19.5q-24 11 -40.5 17t-31.5 6q-28 0 -48.5 -10t-29.5 -28q11 -76 53 -112.5t104 -36.5q64 0 108 42.5t52 125.5z" />
    <glyph glyph-name="uni0475" unicode="&#x475;" horiz-adv-x="557" 
d="M431 373l-140 -373h-81l-203 538h101l146 -412l100 280q26 73 56.5 107t86.5 34q26 0 39 -5v-89q-10 5 -29 5q-26 0 -42 -18.5t-34 -66.5z" />
    <glyph glyph-name="uni0493" unicode="&#x493;" horiz-adv-x="457" 
d="M432 459h-252v-142h150v-73h-150v-244h-91v244h-71v73h71v221h343v-79z" />
    <glyph glyph-name="uni0497" unicode="&#x497;" horiz-adv-x="781" 
d="M701 -144v144h-48l-225 253v-253h-91v253l-225 -253h-117l242 276l-220 262h109l211 -261v261h91v-261l213 261h107l-220 -262l173 -197h86v-223h-86z" />
    <glyph glyph-name="uni049B" unicode="&#x49b;" horiz-adv-x="509" 
d="M72 0v538h91v-261l213 261h107l-220 -262l173 -197h86v-223h-86v144h-48l-225 253v-253h-91z" />
    <glyph glyph-name="uni04A3" unicode="&#x4a3;" horiz-adv-x="609" 
d="M509 79h70v-223h-86v144h-75v235h-255v-235h-91v538h91v-224h255v224h91v-459z" />
    <glyph glyph-name="uni04AF" unicode="&#x4af;" horiz-adv-x="518" 
d="M305 0v-195h-91v195l-208 538h101l155 -434l156 434h94z" />
    <glyph glyph-name="uni04B1" unicode="&#x4b1;" horiz-adv-x="518" 
d="M305 -73v-122h-91v122h-105v73h105l-208 538h101l155 -434l156 434h94l-207 -538h105v-73h-105z" />
    <glyph glyph-name="uni04B3" unicode="&#x4b3;" horiz-adv-x="523" 
d="M448 79h86v-223h-86v144h-52l-146 205l-145 -205h-104l198 277l-186 261h109l131 -185l132 185h102l-183 -257z" />
    <glyph glyph-name="uni04B7" unicode="&#x4b7;" horiz-adv-x="560" 
d="M530 79v-223h-86v144h-75v217q-81 -21 -144 -21q-97 0 -142.5 43t-45.5 135v164h91v-156q0 -58 26.5 -82.5t80.5 -24.5q55 0 134 19v244h91v-459h70z" />
    <glyph glyph-name="uni04BB" unicode="&#x4bb;" horiz-adv-x="580" 
d="M163 457q55 90 174 90q177 0 177 -207v-340h-91v313q0 74 -23.5 114.5t-94.5 40.5q-67 0 -104.5 -45.5t-37.5 -130.5v-292h-91v755h91v-298z" />
    <glyph glyph-name="uni04CF" unicode="&#x4cf;" 
d="M72 755h91v-755h-91v755z" />
    <glyph glyph-name="uni04D9" unicode="&#x4d9;" horiz-adv-x="549" 
d="M416 291q-8 87 -61 130.5t-123 43.5q-50 0 -89 -13.5t-74 -36.5v90q31 17 75.5 29.5t95.5 12.5q83 0 145 -36.5t95 -100.5t33 -144q0 -83 -33 -146.5t-90 -98t-125 -34.5q-77 0 -130.5 39.5t-79.5 108.5t-21 156h382zM415 218h-283q2 -77 41 -115.5t99 -38.5
q56 0 96.5 37t46.5 117z" />
    <glyph glyph-name="uni04E3" unicode="&#x4e3;" horiz-adv-x="591" 
d="M519 538v-538h-91v406l-265 -406h-91v538h91v-406l265 406h91zM445 740v-75h-300v75h300z" />
    <glyph glyph-name="uni04E9" unicode="&#x4e9;" horiz-adv-x="592" 
d="M555 268q0 -92 -35 -155.5t-94 -94.5t-131 -31t-130.5 31t-93 94.5t-34.5 155.5q0 91 34.5 154.5t93 94.5t130.5 31t131 -31t94 -94.5t35 -154.5zM133 310h325q-7 75 -51.5 116.5t-111.5 41.5q-66 0 -110.5 -41.5t-51.5 -116.5zM132 231q6 -78 50.5 -121t112.5 -43
t112.5 43t50.5 121h-326z" />
    <glyph glyph-name="uni04EF" unicode="&#x4ef;" horiz-adv-x="501" 
d="M494 538l-276 -733h-95l80 211l-196 522h101l146 -412l146 412h94zM410 740v-75h-300v75h300z" />
    <glyph glyph-name="uniF6D4" unicode="&#xf6d4;" horiz-adv-x="406" 
d="M45 755h71q3 -26 24.5 -43.5t62.5 -17.5t63 17.5t25 43.5h71q-6 -52 -43.5 -86.5t-116.5 -34.5q-77 0 -114.5 34.5t-42.5 86.5z" />
    <glyph glyph-name="uniF6D1" unicode="&#xf6d1;" horiz-adv-x="359" 
d="M337 886q-6 -55 -46 -87t-113 -32q-71 0 -110 32t-46 87h79q9 -60 78 -60q68 0 79 60h79z" />
    <glyph glyph-name="uni20BD" unicode="&#x20bd;" horiz-adv-x="673" 
d="M236 295v-76h257v-64h-257v-155h-102v155h-91v64h91v76h-91v64h91v366h196q148 0 227 -48t79 -172q0 -111 -74.5 -160.5t-219.5 -49.5h-106zM347 374q93 0 139 29.5t46 103.5q0 76 -51.5 104t-145.5 28h-99v-265h111z" />
    <glyph glyph-name="uni20B4" unicode="&#x20b4;" horiz-adv-x="622" 
d="M543 555q0 -53 -34 -91h73v-64h-549v64h371q48 29 48 87q0 51 -42 76.5t-109 25.5q-45 0 -91.5 -10.5t-84.5 -29.5v92q95 33 189 33q64 0 116.5 -21.5t82.5 -63t30 -98.5zM87 189q0 37 16 71h-70v64h549v-64h-377q-25 -28 -25 -70q0 -52 41 -85t128 -33q64 0 103.5 14
t89.5 45v-93q-30 -22 -84 -36.5t-115 -14.5q-115 0 -185.5 53t-70.5 149z" />
    <glyph glyph-name="ellipsis" unicode="&#x2026;" horiz-adv-x="711" 
d="M168 115v-115h-115v115h115zM413 115v-115h-115v115h115zM658 115v-115h-115v115h115z" />
    <glyph glyph-name="endash" unicode="&#x2013;" horiz-adv-x="538" 
d="M484 317v-86h-430v86h430z" />
    <glyph glyph-name="emdash" unicode="&#x2014;" horiz-adv-x="778" 
d="M724 317v-86h-670v86h670z" />
    <glyph glyph-name="guilsinglleft" unicode="&#x2039;" horiz-adv-x="331" 
d="M296 44h-98l-159 229l159 228h98l-150 -228z" />
    <glyph glyph-name="guilsinglright" unicode="&#x203a;" horiz-adv-x="331" 
d="M133 501l159 -228l-159 -229h-98l151 229l-151 228h98z" />
    <glyph glyph-name="quoteleft" unicode="&#x2018;" horiz-adv-x="214" 
d="M114 586h48v-115h-115v123l61 131h58z" />
    <glyph glyph-name="quoteright" unicode="&#x2019;" horiz-adv-x="207" 
d="M102 610h-49v115h115v-123l-61 -131h-58z" />
    <glyph glyph-name="quotedblleft" unicode="&#x201c;" horiz-adv-x="381" 
d="M114 586h48v-115h-115v123l61 131h58zM281 586h48v-115h-115v123l61 131h58z" />
    <glyph glyph-name="quotedblright" unicode="&#x201d;" horiz-adv-x="375" 
d="M102 610h-49v115h115v-123l-61 -131h-58zM270 610h-49v115h115v-123l-61 -131h-58z" />
    <glyph glyph-name="quotesinglbase" unicode="&#x201a;" horiz-adv-x="221" 
d="M102 0h-49v115h115v-123l-61 -131h-58z" />
    <glyph glyph-name="quotedblbase" unicode="&#x201e;" horiz-adv-x="398" 
d="M102 0h-49v115h115v-123l-61 -131h-58zM279 0h-49v115h115v-123l-61 -131h-58z" />
    <glyph glyph-name="bullet" unicode="&#x2022;" horiz-adv-x="418" 
d="M206 420q41 0 75 -19t53 -51.5t19 -71.5q0 -41 -19 -74.5t-53 -52.5t-75 -19q-38 0 -70.5 19t-51.5 52.5t-19 74.5q0 39 19 71.5t51.5 51.5t70.5 19z" />
    <glyph glyph-name="minus" unicode="&#x2212;" horiz-adv-x="678" 
d="M68 226v86h542v-86h-542z" />
    <glyph glyph-name="Euro" unicode="&#x20ac;" horiz-adv-x="749" 
d="M255 322h309l-43 -64h-256q25 -93 94.5 -141.5t173.5 -48.5q86 0 168 41v-88q-37 -15 -83.5 -24.5t-94.5 -9.5q-149 0 -240 73t-118 198h-131l43 64h79q-1 13 -1 41q0 29 2 44h-123l43 63h90q29 122 121 195t235 73q51 0 98 -9t80 -25v-88q-34 18 -78.5 29.5t-89.5 11.5
q-104 0 -173 -48t-94 -139h389l-43 -63h-357q-2 -14 -2 -44q0 -15 2 -41z" />
    <glyph glyph-name="uniFB01" unicode="&#xfb01;" horiz-adv-x="552" 
d="M389 0v538h91v-538h-91zM99 592q0 78 33 120.5t109 42.5q47 0 70 -5v-75q-29 4 -57 4q-37 0 -50.5 -19.5t-13.5 -67.5v-54h121v-73h-121v-465h-91v465h-75v73h75v54zM389 645v110h91v-110h-91z" />
    <glyph glyph-name="uniFB02" unicode="&#xfb02;" horiz-adv-x="552" 
d="M99 592q0 78 33 120.5t109 42.5q47 0 70 -5v-75q-29 4 -57 4q-37 0 -50.5 -19.5t-13.5 -67.5v-54h121v-73h-121v-465h-91v465h-75v73h75v54zM389 755h91v-755h-91v755z" />
    <glyph glyph-name="glyph462" 
d="M72 645v110h91v-110h-91z" />
    <glyph glyph-name="breve" unicode="&#x2d8;" horiz-adv-x="361" 
d="M339 755q-6 -52 -43.5 -86.5t-116.5 -34.5q-77 0 -114.5 34.5t-42.5 86.5h71q3 -26 24.5 -43.5t62.5 -17.5t63 17.5t25 43.5h71z" />
    <glyph glyph-name="caron" unicode="&#x2c7;" horiz-adv-x="394" 
d="M239 639h-88l-129 116h96l78 -54l80 54h96z" />
    <glyph glyph-name="circumflex" unicode="&#x2c6;" horiz-adv-x="394" 
d="M154 755h89l129 -116h-96l-79 54l-79 -54h-96z" />
    <glyph glyph-name="dotaccent" unicode="&#x2d9;" horiz-adv-x="135" 
d="M22 656v99h91v-99h-91z" />
    <glyph glyph-name="glyph467" horiz-adv-x="135" 
d="M22 -175v99h91v-99h-91z" />
    <glyph glyph-name="hungarumlaut" unicode="&#x2dd;" horiz-adv-x="409" 
d="M112 755h117l-131 -116h-76zM271 755h116l-130 -116h-77z" />
    <glyph glyph-name="ogonek" unicode="&#x2db;" horiz-adv-x="242" 
d="M203 0q-46 -19 -72 -41.5t-26 -43.5t15.5 -30t39.5 -9q20 0 42 6v-61q-25 -9 -64 -9q-48 0 -82 21t-34 69q0 31 21.5 54.5t68.5 43.5h91z" />
    <glyph glyph-name="ring" unicode="&#x2da;" horiz-adv-x="225" 
d="M203 707q0 -37 -26 -61t-65 -24q-38 0 -64 24.5t-26 60.5q0 37 26.5 61t63.5 24q38 0 64.5 -24t26.5 -61zM69 707q0 -18 13 -30t30 -12q18 0 30.5 12t12.5 30t-12.5 30.5t-30.5 12.5q-17 0 -30 -12.5t-13 -30.5z" />
    <glyph glyph-name="tilde" unicode="&#x2dc;" horiz-adv-x="412" 
d="M319 755h71q-10 -58 -41.5 -85.5t-74.5 -27.5q-22 0 -40 7t-40 20q-18 10 -30.5 15.5t-25.5 5.5q-19 0 -31 -11.5t-14 -32.5h-71q9 56 40 84t75 28q22 0 39 -7t38 -20q18 -10 31 -15.5t27 -5.5q19 0 31.5 11.5t15.5 33.5z" />
    <glyph glyph-name="glyph472" horiz-adv-x="172" 
d="M52 755h98l-70 -170h-58z" />
    <glyph glyph-name="glyph473" horiz-adv-x="0" 
d="M-81 -125h-36v89h95v-95l-44 -90h-54z" />
    <glyph glyph-name="glyph474" horiz-adv-x="283" 
d="M132 886h129l-149 -113h-90z" />
    <glyph glyph-name="glyph475" horiz-adv-x="359" 
d="M337 886q-6 -55 -46 -87t-113 -32q-71 0 -110 32t-46 87h77q9 -58 80 -58q70 0 81 58h77z" />
    <glyph glyph-name="glyph476" horiz-adv-x="394" 
d="M237 773h-84l-131 113h107l67 -56l69 56h107z" />
    <glyph glyph-name="glyph477" horiz-adv-x="245" 
d="M38 -136q30 -14 58 -14q25 0 43 7.5t18 24.5q0 14 -12.5 22t-31.5 8q-25 0 -38 -9l-30 17l51 83h53l-32 -51q15 3 30 3q36 0 56 -18.5t20 -49.5q0 -37 -33 -59.5t-75 -22.5q-54 0 -93 19z" />
    <glyph glyph-name="glyph478" horiz-adv-x="394" 
d="M157 886h83l132 -113h-107l-68 56l-68 -56h-107z" />
    <glyph glyph-name="glyph479" horiz-adv-x="365" 
d="M22 780v99h91v-99h-91zM251 780v99h92v-99h-92z" />
    <glyph glyph-name="glyph480" horiz-adv-x="135" 
d="M22 781v99h91v-99h-91z" />
    <glyph glyph-name="glyph481" horiz-adv-x="283" 
d="M261 773h-91l-148 113h129z" />
    <glyph glyph-name="glyph482" horiz-adv-x="450" 
d="M132 886h129l-149 -113h-90zM299 886h129l-149 -113h-90z" />
    <glyph glyph-name="glyph483" horiz-adv-x="344" 
d="M322 866v-75h-300v75h300z" />
    <glyph glyph-name="glyph484" horiz-adv-x="225" 
d="M203 850q0 -37 -26 -61t-65 -24q-38 0 -64 24.5t-26 60.5q0 37 26.5 61t63.5 24q38 0 64.5 -24t26.5 -61zM69 850q0 -18 13 -30t30 -12q18 0 30.5 12t12.5 30t-12.5 30.5t-30.5 12.5q-17 0 -30 -12.5t-13 -30.5z" />
    <glyph glyph-name="glyph485" horiz-adv-x="412" 
d="M319 885h71q-10 -58 -41.5 -85t-74.5 -27q-22 0 -40 7t-40 20q-18 10 -30.5 15.5t-25.5 5.5q-19 0 -31 -12t-14 -34h-71q9 56 40 84t75 28q22 0 39 -7t38 -20q18 -10 31 -15.5t27 -5.5q19 0 31.5 12t15.5 34z" />
    </font>
</defs>
</svg>
