<?xml version="1.0" standalone="no"?>
<!DOCTYPE svg PUBLIC "-//W3C//DTD SVG 1.1//EN" "http://www.w3.org/Graphics/SVG/1.1/DTD/svg11.dtd" >
<svg xmlns="http://www.w3.org/2000/svg" xmlns:xlink="http://www.w3.org/1999/xlink" version="1.1">
<metadata>
Created by Christoph Koeberlin (http://christoph.koe.berlin)
Copyright (c) 2014 Swiss Typefaces Sa`rl. All rights reserved.
</metadata>
<defs>
<font id="Font" horiz-adv-x="760" >
  <font-face 
    font-family="Font"
    font-weight="700"
    font-style="italic"
    font-stretch="normal"
    units-per-em="1000"
    panose-1="2 2 8 4 6 0 0 0 0 0"
    ascent="800"
    descent="-200"
    x-height="538"
    cap-height="725"
    bbox="-119 -311 1162 986"
    underline-thickness="60"
    underline-position="-50"
    slope="-14"
    unicode-range="U+0020-FB02"
  />
<missing-glyph horiz-adv-x="500" 
d="M0 725h500v-725h-500v725zM19 696v-667l220 333zM481 29v667l-221 -334zM33 19h433l-216 327zM250 378l216 328h-433z" />
    <glyph glyph-name=".notdef" horiz-adv-x="500" 
d="M0 725h500v-725h-500v725zM19 696v-667l220 333zM481 29v667l-221 -334zM33 19h433l-216 327zM250 378l216 328h-433z" />
    <glyph glyph-name=".null" horiz-adv-x="0" 
 />
    <glyph glyph-name="nonmarkingreturn" horiz-adv-x="200" 
 />
    <glyph glyph-name="space" unicode=" " horiz-adv-x="200" 
 />
    <glyph glyph-name="exclam" unicode="!" horiz-adv-x="423" 
d="M221 708q4 15 20.5 25.5t38.5 16t46.5 5t44.5 -5.5t31.5 -15.5t7.5 -25.5l-64 -256l-144 -240h-20l-25 241zM169 -13q-39 0 -65.5 27t-26.5 66t26.5 66.5t65.5 27.5q42 0 68.5 -27.5t26.5 -66.5t-26.5 -66t-68.5 -27z" />
    <glyph glyph-name="quotedbl" unicode="&#x22;" horiz-adv-x="410" 
d="M229 725l-43 -273h-55l-44 273h142zM409 725l-43 -273h-55l-44 273h142z" />
    <glyph glyph-name="numbersign" unicode="#" horiz-adv-x="676" 
d="M209 535l27 190h75l-27 -190h159l27 190h75l-27 -190h136l-10 -72h-136l-24 -166h136l-9 -72h-137l-31 -225h-75l31 225h-158l-31 -225h-76l31 225h-143l10 72h143l24 166h-143l10 72h143zM251 297h158l24 166h-159z" />
    <glyph glyph-name="dollar" unicode="$" horiz-adv-x="673" 
d="M244 -12q-51 3 -95 20.5t-75.5 45.5t-47.5 64t-10 76h160q-9 -30 -9.5 -59t8.5 -52.5t28 -39.5t50 -20l67 268l-52 37q-62 42 -96.5 86t-34.5 100q0 58 26 100.5t68 70.5t95 42t107 15l26 103h47l-27 -106q48 -5 88.5 -23.5t69.5 -45.5t43.5 -62t9.5 -73h-160q8 29 9 56
t-6 49.5t-22.5 39t-40.5 23.5l-61 -244l41 -28q34 -24 62.5 -45t49.5 -43.5t32.5 -47t11.5 -55.5q0 -64 -27 -110.5t-71.5 -77t-101 -46t-115.5 -18.5l-22 -90h-47zM449 144q0 35 -23.5 62.5t-65.5 56.5l-60 -241q27 2 53.5 8.5t47.5 20t34.5 36t13.5 57.5zM288 597
q0 -29 15.5 -52t43.5 -43l22 -16l56 222q-25 -1 -49.5 -6.5t-44 -18t-31.5 -33.5t-12 -53z" />
    <glyph glyph-name="percent" unicode="%" horiz-adv-x="1109" 
d="M199 329q31 0 55.5 34t41.5 84.5t25.5 108.5t8.5 105q0 26 -7 40.5t-27 14.5t-37.5 -15.5t-32.5 -41.5t-26 -60t-19 -71t-12 -73.5t-4 -68.5q0 -26 8 -41.5t26 -15.5zM61 488q0 56 22.5 101.5t57 78t76 50t78.5 17.5q28 0 53.5 -11.5t45 -33.5t30.5 -54t11 -74
q0 -54 -23 -100t-58 -79.5t-76.5 -53t-79.5 -19.5q-27 0 -52 11.5t-43.5 34t-30 55.5t-11.5 77zM263 0l508 725h75l-508 -725h-75zM857 12q31 0 55.5 34t41.5 84.5t25.5 108.5t8.5 105q0 26 -7 40.5t-27 14.5t-37.5 -15.5t-32.5 -41.5t-26 -60t-19 -71t-12 -73.5t-4 -68.5
q0 -26 8 -41.5t26 -15.5zM719 171q0 56 22.5 101.5t57 78t76 50t78.5 17.5q28 0 53.5 -11.5t45 -33.5t30.5 -54t11 -74q0 -54 -23 -100t-58 -79.5t-76.5 -53t-79.5 -19.5q-27 0 -52 11.5t-43.5 34t-30 55.5t-11.5 77z" />
    <glyph glyph-name="ampersand" unicode="&#x26;" horiz-adv-x="798" 
d="M31 181q0 55 23 96.5t61 71.5t88 49t104 29q-40 68 -40 127q0 52 23 88.5t59.5 59t81.5 32.5t89 10q43 0 77.5 -9t59.5 -24.5t38.5 -36t13.5 -43.5q0 -40 -23.5 -70.5t-58 -53t-74 -37t-71.5 -23.5q2 -4 4 -5l136 -181q17 29 27.5 59.5t16.5 59t8.5 54t2.5 44.5h116
q-10 -43 -27 -77.5t-37.5 -63t-43 -53t-44.5 -47.5l114 -151l-135 -105l-92 130q-34 -32 -65 -55.5t-62.5 -38.5t-66 -22.5t-74.5 -7.5q-49 0 -91 14.5t-72.5 40.5t-48 61.5t-17.5 77.5zM323 401q-31 -13 -52 -32t-34 -42.5t-19 -49.5t-6 -52q0 -32 11 -60t30 -49t44.5 -33
t55.5 -12q38 0 78.5 17t77.5 50l-177 251zM605 629q0 21 -8 37.5t-21 27t-29 16t-32 5.5q-52 0 -77 -30.5t-25 -71.5q0 -33 15 -70.5t37 -70.5q28 12 53 26.5t44.5 33t31 42.5t11.5 55z" />
    <glyph glyph-name="quotesingle" unicode="'" horiz-adv-x="229" 
d="M229 725l-43 -273h-55l-44 273h142z" />
    <glyph glyph-name="parenleft" unicode="(" horiz-adv-x="333" 
d="M438 785q-52 -51 -94 -114t-73.5 -132.5t-54 -141t-37 -139.5t-21 -128.5t-6.5 -107.5q0 -56 2 -97.5t6.5 -72t11 -52t14.5 -36.5l-21 -14q-23 34 -48 75t-46 88.5t-34.5 102t-13.5 114.5q0 106 28 200.5t80 178t127 156.5t170 138z" />
    <glyph glyph-name="parenright" unicode=")" horiz-adv-x="350" 
d="M-88 -233q52 51 94 114.5t73.5 132.5t54 141t37 140t21 128.5t6.5 107.5q0 56 -2 97.5t-6.5 72t-11 51.5t-14.5 36l21 15q23 -34 48 -75t46 -89t34.5 -102t13.5 -114q0 -106 -28 -200.5t-80 -178t-127.5 -157t-169.5 -137.5z" />
    <glyph glyph-name="asterisk" unicode="*" horiz-adv-x="387" 
d="M279 607l118 43l21 -55l-118 -39l71 -101l-45 -34l-75 103l-71 -103l-49 33l72 101l-117 40l19 55l116 -43v121h58v-121z" />
    <glyph glyph-name="plus" unicode="+" horiz-adv-x="678" 
d="M279 0v236h-236v76h236v226h81v-226h235v-76h-235v-236h-81z" />
    <glyph glyph-name="comma" unicode="," horiz-adv-x="349" 
d="M148 -10q-39 1 -64 26.5t-25 64.5q0 38 26 65.5t67 27.5q42 0 67.5 -29.5t25.5 -74.5q0 -53 -26 -98t-64.5 -80.5t-82.5 -60.5t-81 -38l-7 16q21 12 49.5 30t54 41.5t43 51t17.5 58.5z" />
    <glyph glyph-name="hyphen" unicode="-" horiz-adv-x="368" 
d="M67 318h258l-23 -91h-258z" />
    <glyph glyph-name="period" unicode="." horiz-adv-x="347" 
d="M149 -13q-39 0 -65.5 27t-26.5 66t26.5 66.5t65.5 27.5q42 0 68.5 -27.5t26.5 -66.5t-26.5 -66t-68.5 -27z" />
    <glyph glyph-name="slash" unicode="/" horiz-adv-x="509" 
d="M-55 -72l558 858h71l-558 -858h-71z" />
    <glyph glyph-name="zero" unicode="0" horiz-adv-x="714" 
d="M277 22q39 0 72.5 28t61 74.5t49 106t36 122t22 123.5t7.5 110q0 54 -17 88t-60 34q-38 0 -71.5 -28t-61 -73.5t-49 -104.5t-36.5 -121.5t-22.5 -123.5t-7.5 -111q0 -55 17.5 -89.5t59.5 -34.5zM44 276q0 93 36 177t94.5 148.5t131 102.5t146.5 38q51 0 93.5 -20t73 -57
t47 -89t16.5 -116q0 -60 -16.5 -118.5t-46 -111t-69 -97t-85 -77t-95 -51t-98.5 -18.5q-51 0 -93 20.5t-72 58.5t-46.5 91t-16.5 119z" />
    <glyph glyph-name="one" unicode="1" horiz-adv-x="515" 
d="M302 136q-9 -38 -12 -60t1.5 -34t17.5 -17t36 -8l-4 -17h-335l4 17q35 3 56.5 8.5t35 19t22 37.5t18.5 63l118 474h-132l5 20q80 9 158.5 32t139.5 68h21z" />
    <glyph glyph-name="two" unicode="2" horiz-adv-x="589" 
d="M-86 12q109 87 198.5 159t154 135.5t100 121t35.5 116.5q0 52 -31.5 80t-79.5 28q-55 0 -102 -27.5t-70 -87.5h-32q33 103 109 154.5t183 51.5q41 0 76.5 -10.5t62 -30t41.5 -47.5t15 -63q0 -41 -19 -79.5t-53.5 -77t-83 -78t-107.5 -81.5l-184 -132h344l-36 -144h-524z
" />
    <glyph glyph-name="three" unicode="3" horiz-adv-x="584" 
d="M135 -11q-56 0 -102 9t-75 21l45 182h18q1 -47 10.5 -79t26.5 -52t41 -29t53 -9q36 0 69 14.5t58 39t40 57.5t15 71q0 22 -7 45.5t-24 44.5t-45.5 37t-72.5 23l6 22l24 10q49 19 82 43.5t53 49.5t28.5 48t8.5 38q0 38 -27 57t-69 20q-57 0 -104 -27t-70 -88h-32
q16 50 45.5 88.5t68.5 64.5t86 39t98 13q34 0 66 -8t56.5 -23t39 -37.5t14.5 -50.5q0 -36 -21.5 -64.5t-52 -50t-64 -36.5t-57.5 -24l-1 -3q64 -24 104.5 -70.5t40.5 -111.5q0 -66 -34.5 -117t-88.5 -86t-120 -53t-130 -18z" />
    <glyph glyph-name="four" unicode="4" horiz-adv-x="677" 
d="M271 0l44 178h-341l30 118l466 429h145l-104 -415h125l-33 -132h-125l-44 -178h-163zM427 627l-346 -317h267z" />
    <glyph glyph-name="five" unicode="5" horiz-adv-x="561" 
d="M274 725h327l-77 -143h-294l-43 -71q143 -19 218.5 -84t75.5 -160q0 -58 -31 -109t-81 -88.5t-113 -59t-128 -21.5q-52 0 -97.5 9.5t-74.5 20.5l45 182h18q4 -88 38 -128.5t93 -40.5q34 0 64 12.5t52.5 34.5t35.5 51.5t13 63.5q0 75 -62.5 125t-190.5 57z" />
    <glyph glyph-name="six" unicode="6" horiz-adv-x="670" 
d="M614 322q0 -68 -28 -129t-74 -106.5t-106 -72.5t-123 -27q-54 0 -98.5 17t-77 49t-50 77.5t-17.5 103.5q0 71 25 134t67.5 116.5t99.5 98.5t121.5 81t133 63t134.5 45l6 -31q-67 -21 -123.5 -55.5t-103 -78.5t-82 -96.5t-59.5 -108.5q45 55 90.5 77.5t96.5 22.5
q36 0 67 -12t53.5 -34.5t35 -56.5t12.5 -77zM358 424q-54 0 -114 -60q-17 -48 -25.5 -97t-8.5 -97q0 -29 3 -55.5t11 -46.5t23 -31.5t38 -11.5q30 0 57.5 22.5t48.5 60t33 84.5t12 97q0 18 -2 41t-9.5 44t-23.5 35.5t-43 14.5z" />
    <glyph glyph-name="seven" unicode="7" horiz-adv-x="619" 
d="M55 0q21 110 75.5 200t130.5 162t167 126.5t185 93.5h-509l34 143h547l-34 -145q-86 -50 -158 -109.5t-125.5 -131t-87.5 -156t-44 -183.5h-181v0z" />
    <glyph glyph-name="eight" unicode="8" horiz-adv-x="660" 
d="M16 158q0 44 22 78t55 59.5t72.5 43.5t74.5 30q-41 36 -71.5 81t-30.5 100q0 41 21 76t58 61t88.5 40.5t112.5 14.5q46 0 86 -10t69.5 -29t46.5 -46t17 -61q0 -37 -19.5 -65.5t-49.5 -49.5t-64.5 -35.5t-64.5 -24.5q31 -24 60.5 -48.5t52.5 -51t37 -56t14 -62.5
q0 -61 -32.5 -102.5t-82.5 -66.5t-109.5 -36t-114.5 -11q-49 0 -93.5 12t-79 34.5t-55 54t-20.5 70.5zM116 156q0 -55 38.5 -93t118.5 -38q31 0 63 5t58 18.5t42 36.5t16 58q0 21 -9 40t-24.5 36.5t-36 34.5t-42.5 35l-65 52q-2 2 -5 3.5t-5 3.5q-32 -15 -59 -33.5t-47 -42
t-31.5 -52.5t-11.5 -64zM540 591q0 57 -34 85.5t-91 28.5q-29 0 -54 -5.5t-44 -17t-30 -29t-11 -42.5q0 -38 21 -66.5t64 -61.5l55 -44q54 29 89 64.5t35 87.5z" />
    <glyph glyph-name="nine" unicode="9" horiz-adv-x="647" 
d="M64 409q0 68 28 129t74.5 107t106 73t122.5 27q54 0 98.5 -17t77 -49t50 -77.5t17.5 -103.5q0 -71 -24.5 -134t-67 -116.5t-99.5 -98.5t-121.5 -81t-133 -63t-134.5 -45l-7 30q67 20 123.5 54t102.5 78.5t81.5 96.5t59.5 108q-45 -54 -90.5 -76t-95.5 -22q-36 0 -67 12
t-53.5 35t-35 56.5t-12.5 76.5zM321 308q50 0 112 57q35 99 35 196q0 30 -3 56t-11.5 46t-23 31.5t-37.5 11.5q-30 0 -57.5 -22.5t-48.5 -60t-33 -85t-12 -96.5q0 -18 2 -41t10 -43.5t24 -35t43 -14.5z" />
    <glyph glyph-name="colon" unicode=":" horiz-adv-x="395" 
d="M149 -13q-39 0 -65.5 27t-26.5 66t26.5 66.5t65.5 27.5q42 0 68.5 -27.5t26.5 -66.5t-26.5 -66t-68.5 -27zM241 357q-39 0 -65.5 27t-26.5 66t26.5 66.5t65.5 27.5q42 0 68.5 -27.5t26.5 -66.5t-26.5 -66t-68.5 -27z" />
    <glyph glyph-name="semicolon" unicode=";" horiz-adv-x="398" 
d="M148 -10q-39 1 -64 26.5t-25 64.5q0 38 26 65.5t67 27.5q42 0 67.5 -29.5t25.5 -74.5q0 -53 -26 -98t-64.5 -80.5t-82.5 -60.5t-81 -38l-7 16q21 12 49.5 30t54 41.5t43 51t17.5 58.5zM243 357q-39 0 -65.5 27t-26.5 66t26.5 66.5t65.5 27.5q42 0 68.5 -27.5t26.5 -66.5
t-26.5 -66t-68.5 -27z" />
    <glyph glyph-name="equal" unicode="=" horiz-adv-x="678" 
d="M72 344v75h495v-75h-495zM72 138v75h495v-75h-495z" />
    <glyph glyph-name="question" unicode="?" horiz-adv-x="629" 
d="M624 621q0 -50 -24 -83.5t-60.5 -58t-81.5 -45t-86.5 -45.5t-74.5 -59t-47 -85l-3 -11h-31l2 9q16 72 40.5 118.5t52 76.5t55.5 49.5t50 38.5t36 42.5t14 62.5q0 38 -22.5 57t-57.5 19q-34 0 -64.5 -15.5t-57.5 -42t-50 -61.5t-43 -73h-20l50 201q34 14 85.5 25t108.5 11
q51 0 93 -8.5t72 -25t47 -41t17 -56.5zM208 -13q-39 0 -65.5 27t-26.5 66t26.5 66.5t65.5 27.5q42 0 68.5 -27.5t26.5 -66.5t-26.5 -66t-68.5 -27z" />
    <glyph glyph-name="at" unicode="@" horiz-adv-x="853" 
d="M816 413q0 -62 -15.5 -109.5t-41 -80t-58 -49.5t-66.5 -17q-44 0 -71.5 27.5t-31.5 73.5q-23 -45 -62.5 -70.5t-95.5 -25.5q-30 0 -56.5 10.5t-47 32t-32.5 55t-12 80.5q0 45 14.5 87.5t41.5 76t66 53.5t87 20q46 0 75.5 -24.5t42.5 -61.5l8 67h64l-32 -224
q-1 -8 -1.5 -16.5t-0.5 -18.5q0 -14 2 -27.5t8 -24.5t16 -18t26 -7q43 0 74 48.5t31 138.5q0 66 -21.5 115.5t-60.5 82.5t-93 50t-118 17q-73 0 -133 -24.5t-103 -68t-66.5 -102.5t-23.5 -127q0 -65 20 -119.5t57 -94t90.5 -61.5t120.5 -22q48 0 101 10.5t98 31.5l24 -63
q-51 -23 -111.5 -35t-111.5 -12q-81 0 -147 27.5t-113.5 76.5t-73 116t-25.5 147q0 81 30.5 151t83.5 121.5t126 80.5t159 29q75 0 140.5 -20t114 -60t76.5 -100.5t28 -142.5zM528 403q0 52 -24 79.5t-68 27.5q-30 0 -55 -14t-42 -37.5t-26.5 -55t-9.5 -65.5
q0 -57 23.5 -84.5t66.5 -27.5q31 0 56.5 14.5t42.5 39t26.5 56.5t9.5 67z" />
    <glyph glyph-name="A" unicode="A" 
d="M-74 16q22 4 39.5 11t36 24.5t41.5 50t57 86.5l324 528q28 5 57 17t48 32h4l82 -644q3 -27 7 -45t11.5 -30t19.5 -19t32 -11l-4 -16h-316l5 16q43 6 59 22t9 61l-16 141h-236l-10 -18q-42 -71 -56.5 -111t-11 -60t21 -26t40.5 -9l-5 -16h-243zM214 286h203l-31 288z" />
    <glyph glyph-name="B" unicode="B" horiz-adv-x="753" 
d="M287 725q40 0 84.5 1t106.5 1q136 0 194.5 -33.5t58.5 -97.5q0 -39 -16 -72.5t-44 -60.5t-66 -46t-81 -28l-1 -2q32 -5 62 -17t53 -31.5t37 -47t14 -63.5q0 -48 -19 -83.5t-50.5 -61t-73 -42t-87 -26t-92 -13.5t-88.5 -4q-36 0 -72 1t-78 1h-175l4 16q34 4 55 10.5
t34.5 20t22.5 37t19 62.5l108 433q9 37 12 60.5t-4 37.5t-25 20.5t-50 11.5l4 16h153zM253 99q-6 -22 -6.5 -35t4 -19.5t15 -8t26.5 -1.5q53 0 92 15.5t64.5 42.5t38 64.5t12.5 82.5q0 61 -31 90t-108 29h-42zM326 391h45q44 0 78 15.5t56.5 42.5t34 63t11.5 78
q0 48 -25.5 73.5t-87.5 25.5h-37z" />
    <glyph glyph-name="C" unicode="C" horiz-adv-x="723" 
d="M668 470q-4 50 -10 92.5t-21.5 74t-44 49t-77.5 17.5q-47 0 -86.5 -22.5t-71 -60.5t-55.5 -87t-40 -101.5t-24 -105.5t-8 -98q0 -90 37 -139.5t116 -49.5q72 0 134.5 43t117.5 140l26 -15q-23 -49 -52.5 -89.5t-69 -69.5t-90.5 -45t-116 -16q-62 0 -116 19t-93.5 55.5
t-62 89t-22.5 118.5q0 104 41.5 191t110.5 149.5t157.5 97.5t182.5 35q60 0 111 -12.5t87 -29.5l-40 -230h-21v0z" />
    <glyph glyph-name="D" unicode="D" horiz-adv-x="822" 
d="M415 725q79 0 150.5 -16t125.5 -50.5t86 -89t32 -131.5q0 -78 -23 -141t-63.5 -111.5t-94.5 -83.5t-116.5 -57.5t-130 -33.5t-134.5 -11h-292l3 16q34 4 55 10.5t34.5 20t22.5 37t19 62.5l108 433q10 38 13 61.5t-4 37t-25 20t-50 11.5l3 16h281zM265 36q84 0 149.5 35
t111 93.5t69 135.5t23.5 161q0 121 -45.5 174.5t-146.5 53.5h-25l-163 -653h27z" />
    <glyph glyph-name="E" unicode="E" horiz-adv-x="718" 
d="M478 725h127.5t130.5 2l-49 -267h-22q-2 58 -10 101.5t-33.5 71.5t-74 42t-131.5 14h-16l-73 -293h137l89 120h19l-71 -285h-19l-29 121h-137l-70 -279q-6 -24 4.5 -30.5t47.5 -6.5q63 0 111 14t87 42.5t71 71.5t63 101h22l-86 -267q-65 2 -136 2h-135h-340l3 16
q34 4 55 10.5t34.5 20t22.5 37t19 62.5l108 433q10 38 13 61.5t-4 37t-25 20t-50 11.5l3 16h344z" />
    <glyph glyph-name="F" unicode="F" horiz-adv-x="658" 
d="M-42 16q34 4 55 10.5t34.5 20t22.5 37t19 62.5l108 433q10 40 12.5 63.5t-4.5 37t-25.5 19t-49.5 10.5l4 16h355h122t125 2l-50 -267h-22q-2 58 -9.5 101.5t-33 71.5t-74 42t-131.5 14h-15l-73 -293h136l88 120h19l-71 -285h-19l-28 121h-136l-52 -206
q-9 -39 -12.5 -62.5t4.5 -37t29.5 -20t60.5 -10.5l-4 -16h-389z" />
    <glyph glyph-name="G" unicode="G" horiz-adv-x="787" 
d="M360 -13q-76 0 -137.5 20t-105 57t-67 90t-23.5 119q0 95 38 180.5t105.5 149.5t161 101.5t204.5 37.5q22 0 50.5 -3t57.5 -8.5t56 -13t48 -17.5l-39 -230h-20q-4 50 -11.5 92.5t-25 74t-48 49t-79.5 17.5q-51 0 -93 -21t-76 -57t-60 -83.5t-43.5 -100t-26 -107.5
t-8.5 -106q0 -45 9.5 -82t29 -63.5t47.5 -41.5t66 -15q42 0 75.5 20.5t47.5 75.5l11 42q10 39 13 62.5t-5 37t-28.5 19.5t-56.5 11l5 18h349l-5 -18q-26 -4 -41 -8.5t-24.5 -17t-16.5 -36.5t-17 -68l-25 -100q-54 -37 -132.5 -57t-159.5 -20z" />
    <glyph glyph-name="H" unicode="H" horiz-adv-x="882" 
d="M703 146q-9 -38 -12 -61t4 -37t25 -21t50 -11l-4 -16h-373l3 16q34 4 55 10.5t34.5 20t22.5 37t19 62.5l51 206h-262l-51 -206q-9 -38 -12 -61t4 -37t25 -21t50 -11l-4 -16h-373l3 16q34 4 55 10.5t34.5 20t22.5 37t19 62.5l108 433q10 38 13 61.5t-4 37t-25 20t-50 11.5
l3 16h375l-4 -16q-34 -5 -55 -11t-35 -19.5t-23 -37t-19 -62.5l-46 -183h262l46 183q10 38 13 61.5t-4 37t-25 20t-50 11.5l3 16h375l-4 -16q-34 -5 -55 -11t-35 -19.5t-23 -37t-19 -62.5z" />
    <glyph glyph-name="I" unicode="I" horiz-adv-x="445" 
d="M265 146q-9 -38 -12 -61t4 -37t25 -21t50 -11l-4 -16h-373l3 16q34 4 55 10.5t34.5 20t22.5 37t19 62.5l108 433q10 38 13 61.5t-4 37t-25 20t-50 11.5l3 16h375l-4 -16q-34 -5 -55 -11t-35 -19.5t-23 -37t-19 -62.5z" />
    <glyph glyph-name="J" unicode="J" horiz-adv-x="503" 
d="M367 231q-19 -75 -53.5 -122.5t-76.5 -74.5t-88.5 -37t-90.5 -10q-29 0 -62 4t-52 10l48 191h11q5 -24 12 -52.5t17 -54t23.5 -42.5t32.5 -17q12 0 23 4.5t22 23.5t24 57.5t30 106.5l90 361q9 37 12 60.5t-4 37.5t-25 20.5t-50 11.5l5 16h374l-4 -16q-34 -5 -55.5 -11
t-35 -19.5t-22.5 -37t-19 -62.5z" />
    <glyph glyph-name="K" unicode="K" horiz-adv-x="814" 
d="M265 146q-9 -38 -12 -61t4 -37t25 -21t50 -11l-4 -16h-373l3 16q34 4 55 10.5t34.5 20t22.5 37t19 62.5l108 433q10 38 13 61.5t-4 37t-25 20t-50 11.5l3 16h375l-4 -16q-34 -5 -55 -11t-35 -19.5t-23 -37t-19 -62.5zM573 573q79 69 87 101t-54 35l3 16h265l-3 -16
q-26 -3 -50 -10.5t-51 -23.5t-59.5 -40.5t-74.5 -60.5l-166 -141l162 -314q28 -55 56 -78.5t63 -24.5l-3 -16h-355l3 16q37 1 56 18t3 50l-137 272z" />
    <glyph glyph-name="L" unicode="L" horiz-adv-x="651" 
d="M247 72q-5 -20 3.5 -28t22.5 -8q67 0 115.5 16t86.5 48t69 80.5t64 113.5h21l-92 -294h-582l3 16q34 4 55 10.5t34.5 20t22.5 37t19 62.5l108 433q10 38 13 61.5t-4 37t-25 20t-50 11.5l3 16h375l-4 -16q-34 -5 -55 -11t-35 -19.5t-23 -37t-19 -62.5z" />
    <glyph glyph-name="M" unicode="M" horiz-adv-x="1000" 
d="M1061 709q-34 -5 -55.5 -11t-35 -19.5t-22.5 -37t-19 -62.5l-108 -433q-9 -38 -12 -61.5t4 -37t24.5 -20.5t49.5 -11l-3 -16h-374l3 16q34 4 55.5 10.5t35 20t22.5 37t19 62.5l121 483l-371 -600h-49l-84 615l-125 -498q-9 -38 -12 -61t4 -37t25 -21t50 -11l-3 -16h-246
l3 16q34 4 55 10.5t34.5 20t22.5 37t19 62.5l108 433q10 38 13 61.5t-4 37t-25 20t-50 11.5l3 16h287l65 -468l288 468h290z" />
    <glyph glyph-name="N" unicode="N" horiz-adv-x="807" 
d="M715 579q9 37 12 60.5t-4 37.5t-25 20.5t-50 11.5l4 16h246l-3 -16q-34 -5 -55.5 -11t-35 -19.5t-22.5 -37t-19 -62.5l-144 -579h-149l-231 555l-102 -409q-9 -38 -12 -61t4 -37t25 -21t50 -11l-3 -16h-246l3 16q34 4 55 10.5t34.5 20t22.5 37t19 62.5l120 482l-1 4
q-17 40 -29 57t-29 23l4 13h208l244 -585l109 439v0z" />
    <glyph glyph-name="O" unicode="O" horiz-adv-x="814" 
d="M38 269q0 87 35 172t96.5 152t146 108t183.5 41q60 0 112 -19t91 -55t61.5 -88.5t22.5 -118.5q0 -88 -35 -173t-96.5 -152t-146 -108t-183.5 -41q-60 0 -112 19t-91 55.5t-61.5 89t-22.5 118.5zM229 228q0 -45 5.5 -82t18.5 -63.5t34 -41.5t52 -15q42 0 77 22.5
t63.5 60.5t50.5 87t36.5 101.5t22 105.5t7.5 98t-6 82t-19 63.5t-34.5 41.5t-51.5 15q-42 0 -77 -22.5t-63.5 -60.5t-50 -87t-36 -101.5t-22 -105.5t-7.5 -98z" />
    <glyph glyph-name="P" unicode="P" horiz-adv-x="720" 
d="M295 725h27t50 0.5t49.5 0.5h25.5q68 0 125 -8.5t98.5 -28.5t64.5 -52.5t23 -81.5q0 -67 -32.5 -113t-83.5 -75t-114.5 -42t-125.5 -13q-21 0 -47 0.5t-47 4.5l-43 -171q-10 -38 -12.5 -61t5.5 -37t29 -21t58 -11l-3 -16h-387l3 16q34 4 55 10.5t34.5 20t22.5 37t19 62.5
l108 433q10 40 12.5 63.5t-4.5 37t-25.5 19t-49.5 10.5l4 16h161zM312 335q5 0 10.5 -0.5t10.5 -0.5q52 0 94.5 15.5t72.5 45t46.5 71t16.5 92.5q0 38 -9.5 63.5t-27.5 41.5t-43.5 22.5t-56.5 6.5h-25z" />
    <glyph glyph-name="Q" unicode="Q" horiz-adv-x="814" 
d="M38 269q0 87 35 172t96.5 152t146 108t183.5 41q60 0 112 -19t91 -55t61.5 -88.5t22.5 -118.5q0 -56 -15 -112t-42.5 -107.5t-66.5 -96t-87 -78.5t-105 -54.5t-119 -24.5l-56 -37q-5 -3 -11 -7t-12 -7l-14 -8l1 -2q17 7 44 13t67 6q45 0 72.5 -9.5t44.5 -24.5t27.5 -31.5
t22.5 -31.5t29 -24.5t47 -9.5q25 0 36.5 2.5t20.5 6.5l8 -29q-6 -3 -36 -12.5t-87 -9.5q-67 0 -106.5 10t-62.5 25t-34.5 33t-21 33t-22 25t-38.5 10q-25 0 -44 -8.5t-46 -25.5l-16 26l132 88q-54 4 -101.5 25t-82 57t-54.5 86t-20 112zM229 228q0 -45 5.5 -82t18.5 -63.5
t34 -41.5t52 -15q42 0 77 22.5t63.5 60.5t50.5 87t36.5 101.5t22 105.5t7.5 98t-6 82t-19 63.5t-34.5 41.5t-51.5 15q-42 0 -77 -22.5t-63.5 -60.5t-50 -87t-36 -101.5t-22 -105.5t-7.5 -98z" />
    <glyph glyph-name="R" unicode="R" horiz-adv-x="796" 
d="M295 725h25.5t48.5 0.5t48 0.5h24q64 0 121 -7.5t99 -24.5t66.5 -45.5t24.5 -71.5q0 -47 -19 -81t-50.5 -58.5t-72.5 -40t-85 -24.5q17 -13 33 -41.5t35 -77.5l54 -147q10 -26 18 -42t18.5 -26t26 -14.5t39.5 -8.5l-3 -16h-256q-9 35 -21.5 72.5t-27.5 79.5l-71 193h-55
l-50 -199q-10 -38 -12.5 -61t5.5 -37t29 -21t58 -11l-3 -16h-387l3 16q34 4 55 10.5t34.5 20t22.5 37t19 62.5l108 433q10 40 12.5 63.5t-4.5 37t-25.5 19t-49.5 10.5l4 16h161zM401 690l-77 -308h27q48 0 87 11t67.5 35.5t44 63.5t15.5 95q0 57 -35.5 80t-101.5 23h-27z
" />
    <glyph glyph-name="S" unicode="S" horiz-adv-x="660" 
d="M584 240q0 -68 -32 -116t-83 -78.5t-114 -44.5t-125 -14q-80 0 -137 15t-98 38l59 241h19q1 -44 5.5 -89t20.5 -82t49 -60.5t92 -23.5q28 0 61 4t60.5 16.5t46 35.5t18.5 62q0 35 -23 63t-65 57l-92 64q-62 42 -96.5 86t-34.5 100q0 59 28.5 102t74 71t101.5 41.5
t112 13.5q25 0 55 -2.5t59 -7.5t56 -12.5t46 -16.5l-54 -214h-20q-3 34 -9 72t-21.5 69.5t-43.5 52t-76 20.5q-26 0 -53.5 -4t-50.5 -16t-38 -32.5t-15 -53.5q0 -29 15.5 -52t43.5 -43l102 -71q34 -24 63 -45t50 -43.5t32.5 -47t11.5 -55.5z" />
    <glyph glyph-name="T" unicode="T" horiz-adv-x="721" 
d="M368 688q-54 0 -96.5 -15.5t-78 -46t-66 -75.5t-60.5 -103h-22l87 279q30 -1 64.5 -1.5t69.5 -0.5h69h64h130h132.5t135.5 2l-52 -279h-22q-2 58 -6.5 103t-22 75.5t-52.5 46t-98 15.5l-136 -542q-9 -38 -12 -61.5t5 -37t28 -20.5t56 -11l-4 -16h-397l5 16
q38 4 61.5 10.5t38.5 20t24 37t19 62.5z" />
    <glyph glyph-name="U" unicode="U" horiz-adv-x="830" 
d="M723 298q-21 -86 -57 -145.5t-83 -96t-103 -53t-119 -16.5q-72 0 -128 16t-90.5 50.5t-44.5 90t10 134.5l75 301q9 38 12 61.5t-4 37t-24.5 20t-49.5 11.5l4 16h375l-5 -16q-34 -5 -55 -11t-35 -19.5t-23 -37t-19 -62.5l-70 -281q-14 -60 -15.5 -105t13.5 -75t47 -45.5
t85 -15.5q103 0 162.5 60t88.5 178l70 284q9 38 12 61.5t-4 37t-24.5 20t-49.5 11.5l4 16h251l-4 -16q-34 -5 -55.5 -11t-35 -19.5t-22.5 -37t-19 -62.5z" />
    <glyph glyph-name="V" unicode="V" horiz-adv-x="736" 
d="M170 608q-3 27 -7 44.5t-11.5 29t-20 17.5t-31.5 10l3 16h326l-4 -16q-45 -6 -58 -23.5t-10 -55.5l36 -474l201 347q40 69 53 109t7.5 60t-24.5 27t-43 10l3 16h248l-3 -16q-23 -4 -40 -10.5t-35.5 -24t-40.5 -49.5t-55 -88l-310 -537h-122z" />
    <glyph glyph-name="W" unicode="W" horiz-adv-x="1033" 
d="M1132 709q-23 -4 -41.5 -10t-38 -23t-41.5 -49.5t-50 -89.5l-263 -537h-137l-18 440l-213 -440h-137l-25 607q-2 28 -5.5 46t-11 29t-20 17t-31.5 10l3 16h320l-3 -16q-44 -6 -57.5 -24.5t-13.5 -55.5l5 -473l185 375l-3 87q-2 28 -5.5 44t-11 25.5t-20 13.5t-31.5 8
l3 16h320l-3 -16q-22 -3 -36 -7.5t-21.5 -12t-10.5 -19.5t-3 -30l5 -484l169 347q34 70 46 110t8 60t-20.5 26.5t-40.5 9.5l3 16h248z" />
    <glyph glyph-name="X" unicode="X" horiz-adv-x="815" 
d="M365 292l-167 -162q-22 -22 -37 -41t-17 -34t11.5 -25.5t47.5 -13.5l-4 -16h-277l3 16q33 3 60.5 13t51 24t45 33t43.5 40l220 213l-121 279q-12 28 -24 46t-23.5 27.5t-22.5 13.5t-22 4l3 16h372l-3 -16q-61 -6 -81.5 -21t-6.5 -48l70 -164l123 119q22 22 37 41t17 34
t-11.5 25.5t-47.5 13.5l4 16h278l-3 -16q-34 -3 -61.5 -13t-51 -24t-45 -33t-43.5 -40l-175 -170l139 -322q12 -29 24 -46.5t23.5 -27t23 -13.5t22.5 -4l-4 -16h-372l3 16q62 6 82.5 21t6.5 48z" />
    <glyph glyph-name="Y" unicode="Y" 
d="M410 146q-10 -39 -12.5 -62.5t6 -37t29 -20t55.5 -10.5l-4 -16h-396l3 16q38 4 61.5 10.5t38.5 20t24 37t19 62.5l35 140l-102 332q-9 27 -15 44t-12.5 26.5t-16 13.5t-24.5 7l3 16h320l-3 -16q-45 -6 -62.5 -19.5t-8.5 -49.5l86 -299l188 217q37 44 54 71.5t16.5 44
t-17 24t-44.5 11.5l3 16h228l-3 -16q-20 -4 -34.5 -9t-33 -19.5t-45.5 -43.5t-72 -81l-227 -262l-37 -148v0z" />
    <glyph glyph-name="Z" unicode="Z" horiz-adv-x="706" 
d="M262 36q75 0 128 14t92.5 42t70.5 71t61 102h21l-84 -267q-60 2 -122 2h-122h-342l3 13l563 676h-46q-83 0 -137 -14t-91.5 -42t-65.5 -71.5t-58 -101.5h-22l84 267q61 -2 123 -2h122h320l-3 -13l-564 -676h69z" />
    <glyph glyph-name="bracketleft" unicode="[" horiz-adv-x="386" 
d="M217 772h234l-13 -52h-85l-219 -884h85l-13 -52h-234z" />
    <glyph glyph-name="bracketright" unicode="]" horiz-adv-x="391" 
d="M179 -216h-234l13 52h85l219 884h-86l14 52h234z" />
    <glyph glyph-name="underscore" unicode="_" horiz-adv-x="444" 
d="M3 -1h393l-19 -78h-393z" />
    <glyph glyph-name="grave" unicode="`" horiz-adv-x="306" 
d="M229 772l31 -169h-14l-207 169h190z" />
    <glyph glyph-name="a" unicode="a" horiz-adv-x="620" 
d="M143 -13q-54 0 -87.5 43t-33.5 123q0 44 11.5 90.5t32.5 90.5t50.5 82.5t65 67.5t76 46t84.5 17q23 0 41 -5.5t34 -16.5l158 22q-11 -39 -25.5 -94.5t-34.5 -130.5l-51 -205q-2 -12 -3 -23.5t1.5 -20t7.5 -14t15 -5.5q13 0 28 8.5t29 22.5t27.5 32t25.5 37l16 -9
q-43 -84 -92 -121t-95 -37q-55 0 -85.5 28.5t-30.5 84.5q0 20 3 43q-27 -72 -68.5 -114t-99.5 -42zM227 73q12 0 27 16t33 51t38 90.5t40 135.5l30 123q-7 9 -17.5 15.5t-23.5 6.5q-23 0 -43.5 -18t-38 -48t-31.5 -68.5t-23.5 -79.5t-15 -82t-5.5 -75q0 -26 6 -46.5
t24 -20.5z" />
    <glyph glyph-name="b" unicode="b" horiz-adv-x="581" 
d="M168 616q8 33 11.5 52.5t0 29.5t-16.5 13.5t-38 4.5l4 16l252 71q-10 -39 -25 -94t-35 -130l-52 -189q27 72 69 114.5t100 42.5q54 0 87.5 -43t33.5 -123q0 -44 -11.5 -90.5t-32.5 -90.5t-50.5 -82.5t-64.5 -67.5t-76 -46t-84 -17q-33 0 -63.5 6t-57.5 15.5t-50.5 21.5
t-41.5 24zM187 49q2 -9 13 -17.5t28 -8.5q23 0 43.5 18t37.5 47.5t31 68t24 80t15 82t5 75.5q0 26 -6.5 46t-24.5 20q-11 0 -26.5 -15.5t-33 -50t-37 -90t-39.5 -135.5z" />
    <glyph glyph-name="c" unicode="c" horiz-adv-x="496" 
d="M22 166q0 78 27 147.5t72 121t103 82t121 30.5q44 0 72 -14t44 -38.5t20.5 -57t1.5 -69.5h-143q7 21 15 46t10.5 47t-3.5 36.5t-28 14.5q-33 0 -59 -33t-44 -81t-28 -101.5t-10 -95.5q0 -49 19.5 -78.5t57.5 -29.5q14 0 33.5 5t41 19t43 39t39.5 66l19 -8
q-18 -47 -43 -88t-58 -72t-75 -49t-94 -18q-40 0 -69 13.5t-48 37.5t-28 57t-9 71z" />
    <glyph glyph-name="d" unicode="d" horiz-adv-x="622" 
d="M427 616q8 33 11.5 52.5t0 29.5t-16.5 13.5t-38 4.5l4 16l252 71q-11 -39 -26 -94t-34 -130l-116 -460q-5 -25 -2 -45t23 -20q13 0 28 8.5t29 22.5t27.5 32t25.5 37l16 -9q-43 -84 -92 -121t-95 -37q-56 0 -85 29t-31 84q0 20 3 43q-27 -72 -68.5 -114t-99.5 -42
q-54 0 -87.5 43.5t-33.5 123.5q0 45 11.5 91t32.5 89.5t50.5 82t64.5 67t75.5 45t84.5 16.5q38 0 65 -14zM227 73q12 0 27 16t33 51t37.5 90.5t39.5 135.5l31 122q-7 10 -17.5 16.5t-24.5 6.5q-23 0 -43.5 -18t-37.5 -47.5t-31 -68t-24 -79.5t-15 -82t-5 -75q0 -26 6 -47
t24 -21z" />
    <glyph glyph-name="e" unicode="e" horiz-adv-x="507" 
d="M22 166q0 78 27 147.5t72.5 121t107 82t130.5 30.5q27 0 52.5 -6t45.5 -18.5t32.5 -31.5t12.5 -46q0 -50 -32 -80.5t-90 -44.5l-186 -47q-6 -39 -6 -73q0 -49 20 -78t61 -29q14 0 33 4.5t40.5 18t43.5 39t42 67.5l19 -8q-18 -47 -43 -88t-58 -72t-75 -49t-94 -18
q-40 0 -69 13.5t-48 37.5t-28.5 57t-9.5 71zM328 512q-22 0 -41.5 -18.5t-36 -47.5t-29.5 -66.5t-21 -74.5l35 9q35 9 59 26t38.5 38t20.5 44t6 45q0 19 -6.5 32t-24.5 13z" />
    <glyph glyph-name="f" unicode="f" horiz-adv-x="417" 
d="M142 488h-79l12 50h79v3q15 60 47.5 103.5t75 72t93 42t103.5 13.5q26 0 53 -3l-35 -141h-11q-9 16 -18 31.5t-19.5 28.5t-22.5 21t-28 8q-19 0 -35.5 -5t-28.5 -20.5t-18 -44.5t-3 -78l2 -31h147l-12 -50h-140l-122 -488h-162z" />
    <glyph glyph-name="g" unicode="g" horiz-adv-x="603" 
d="M76 325q0 41 21 81t58.5 71.5t89.5 50.5t114 19q35 0 65 -9h210l-12 -50l-124 5q16 -17 25 -40t9 -50q0 -42 -21 -81.5t-58.5 -71t-89.5 -50.5t-114 -19q-40 0 -70 10q-7 -4 -16.5 -9.5t-17.5 -12t-14 -14t-6 -14.5q0 -17 47 -23l146 -21q40 -6 75 -15t60 -23.5
t39.5 -35.5t14.5 -50q0 -48 -33 -85t-84.5 -62.5t-115.5 -38.5t-126 -13q-41 0 -79.5 6t-68 18.5t-47 31t-17.5 43.5q0 29 18 47.5t44.5 30t55.5 18t52 10.5q-47 13 -67 38t-20 50q0 23 12.5 43t32 36.5t42.5 30.5t45 26q-35 18 -55 49t-20 73zM136 -27l-10 2l3 -1
q-15 -5 -30.5 -12.5t-28 -18.5t-20.5 -25.5t-8 -32.5t12 -31t31.5 -22t45.5 -13t53 -4q34 0 67.5 6t60.5 17t44 27t17 37q0 24 -30 34.5t-84 18.5zM392 433q0 43 -12.5 61.5t-39.5 18.5q-28 0 -51 -19.5t-39 -51t-24.5 -70.5t-8.5 -78q0 -42 13 -60.5t39 -18.5q28 0 51 20
t39 51.5t24.5 70t8.5 76.5z" />
    <glyph glyph-name="h" unicode="h" horiz-adv-x="628" 
d="M259 339q16 41 33.5 79t39 66.5t49 45.5t63.5 17q30 0 53.5 -12.5t36.5 -40.5t12 -72t-19 -108l-56 -199q-7 -26 -4.5 -43.5t22.5 -17.5q13 0 28 8.5t29 22.5t28 32t26 37l15 -9q-43 -84 -90 -121t-93 -37q-36 0 -63 10.5t-41 35t-14.5 65.5t17.5 101l40 139
q17 61 14 92.5t-20 31.5q-16 0 -38 -31.5t-45.5 -83.5t-46.5 -118.5t-39 -135.5l-22 -93h-161l154 616q8 33 11.5 52.5t0 29.5t-16.5 13.5t-38 4.5l4 16l252 71q-11 -39 -26 -94t-34 -130l-61 -240v0z" />
    <glyph glyph-name="i" unicode="i" horiz-adv-x="349" 
d="M350 699q0 -21 -8 -39.5t-22 -32.5t-32.5 -22t-39.5 -8t-39.5 8t-32.5 22t-22 32.5t-8 39.5t8 39t22 31.5t32.5 21.5t39.5 8t39.5 -8t32.5 -21.5t22 -31.5t8 -39zM93 360q8 33 11.5 52.5t-0.5 29.5t-17 13.5t-38 4.5l4 16l252 71q-11 -39 -26 -94t-34 -130l-52 -208
q-6 -23 -2.5 -42t23.5 -19q13 0 28 8.5t29 22.5t27.5 32t25.5 37l16 -9q-43 -84 -92 -121t-95 -37q-36 0 -62 9.5t-40.5 31.5t-16 58t11.5 89z" />
    <glyph glyph-name="j" unicode="j" horiz-adv-x="360" 
d="M133 360q8 33 11.5 52.5t-0.5 29.5t-17 13.5t-38 4.5l4 16l252 71q-11 -39 -26 -94t-34 -130l-55 -218q-20 -80 -50.5 -134.5t-72.5 -93.5t-96 -67.5t-122 -55.5l-8 16q42 35 71.5 73t50.5 77.5t35.5 81.5t25.5 86zM390 699q0 -21 -8 -39.5t-22 -32.5t-32.5 -22t-39.5 -8
t-39.5 8t-32.5 22t-22 32.5t-8 39.5t8 39t22 31.5t32.5 21.5t39.5 8t39.5 -8t32.5 -21.5t22 -31.5t8 -39z" />
    <glyph glyph-name="k" unicode="k" horiz-adv-x="633" 
d="M177 616q8 33 11.5 52.5t0 29.5t-16.5 13.5t-38 4.5l4 16l252 71q-11 -39 -26 -94t-34 -130l-145 -579h-162zM260 286l164 148q22 20 36 35t17.5 25.5t-6.5 17t-36 9.5l4 17h205l-4 -17q-19 -1 -36 -4.5t-36 -12.5t-41.5 -25t-52.5 -43l-75 -68l67 -238q13 -43 23 -60.5
t33 -17.5q22 0 42.5 29t37.5 72l16 -7q-27 -89 -70 -124t-101 -35q-63 0 -95.5 34t-47.5 94z" />
    <glyph glyph-name="l" unicode="l" horiz-adv-x="351" 
d="M155 616q8 33 11.5 52.5t0 29.5t-16.5 13.5t-38 4.5l4 16l252 71q-11 -39 -26 -94t-34 -130l-116 -462q-7 -27 -3 -45t24 -18q13 0 28 8.5t29 22.5t27.5 32t25.5 37l16 -9q-43 -84 -92 -121t-95 -37q-76 0 -104 44.5t-3 143.5l110 441v0z" />
    <glyph glyph-name="m" unicode="m" horiz-adv-x="911" 
d="M712 -13q-35 0 -62 8.5t-42 30.5t-16 61t16 100l43 151q10 35 13.5 58.5t1.5 38t-8.5 21t-15.5 6.5q-15 0 -36.5 -32t-45.5 -83.5t-47 -118t-40 -135.5l-23 -93h-157l84 338q14 57 14 90.5t-20 33.5q-15 0 -37 -32t-46 -83.5t-47.5 -118t-40.5 -135.5l-23 -93h-157
l89 360q8 33 11.5 52.5t-0.5 29.5t-17 13.5t-38 4.5l4 16l252 71l-54 -208q16 41 33.5 79t39.5 66.5t49.5 45.5t63.5 17q27 0 49 -8.5t35 -29.5t16 -56t-7 -88l-2 -12t-3 -13q16 41 33 78.5t38.5 66t48.5 45.5t63 17q29 0 52.5 -12t36.5 -39t12.5 -71.5t-18.5 -110.5
l-55 -199q-7 -25 -3.5 -43t23.5 -18q13 0 28 8.5t29 22.5t28 32t26 37l15 -9q-43 -84 -91.5 -121t-94.5 -37z" />
    <glyph glyph-name="n" unicode="n" horiz-adv-x="635" 
d="M266 339q16 41 33.5 79t39 66.5t49 45.5t63.5 17q30 0 53.5 -12.5t36.5 -40.5t12 -72t-19 -108l-56 -199q-7 -26 -4.5 -43.5t22.5 -17.5q13 0 28 8.5t29 22.5t28 32t26 37l15 -9q-43 -84 -90 -121t-93 -37q-36 0 -63 10.5t-41 35t-14.5 65.5t17.5 101l40 139
q17 61 14 92.5t-20 31.5q-16 0 -37 -31.5t-44 -83.5t-46 -118t-42 -136l-26 -93h-157l88 360q8 33 11.5 52.5t-0.5 29.5t-17 13.5t-38 4.5l4 16l252 71z" />
    <glyph glyph-name="o" unicode="o" horiz-adv-x="586" 
d="M398 399q0 113 -56 113q-36 0 -64.5 -33.5t-48.5 -87.5t-30.5 -122t-10.5 -137q0 -56 15 -83t41 -27q36 0 65 33t48.5 86.5t30 121t10.5 136.5zM22 205q0 64 25 125.5t69.5 109.5t106 77.5t134.5 29.5q44 0 82 -15.5t65.5 -44.5t43.5 -70t16 -92q0 -64 -25 -124.5
t-69.5 -108t-106.5 -76.5t-135 -29q-44 0 -82 15t-65.5 43.5t-43 68.5t-15.5 91z" />
    <glyph glyph-name="p" unicode="p" horiz-adv-x="584" 
d="M273 390q27 72 69 115t99 43q54 0 87.5 -43.5t33.5 -123.5q0 -44 -11.5 -90.5t-32.5 -90.5t-50 -82.5t-64.5 -67.5t-76 -46t-83.5 -17q-19 0 -35 4t-30 11l-54 -218h-162l144 576q8 33 11.5 52.5t-0.5 29.5t-17 13.5t-38 4.5l4 16l248 71zM190 44q7 -9 17.5 -15t24.5 -6
q22 0 42.5 18t38 47.5t31.5 68t23.5 80t15 82t5.5 75.5q0 26 -6.5 46.5t-24.5 20.5q-11 0 -26.5 -15.5t-33 -50t-37 -90.5t-39.5 -136z" />
    <glyph glyph-name="q" unicode="q" horiz-adv-x="590" 
d="M311 145q-27 -72 -68.5 -115t-99.5 -43q-54 0 -87.5 43.5t-33.5 123.5q0 67 25.5 136.5t69 126.5t101.5 93.5t123 36.5q44 0 75 -22l156 22q-11 -39 -25.5 -94t-34.5 -130l-129 -539h-162zM227 73q12 0 27 16t33 51t37.5 91t39.5 136l30 122q-7 9 -17.5 15.5t-23.5 6.5
q-23 0 -43.5 -18t-37.5 -47.5t-31 -68t-24 -79.5t-15 -82t-5 -75q0 -26 6 -47t24 -21z" />
    <glyph glyph-name="r" unicode="r" horiz-adv-x="447" 
d="M279 399q13 23 34 49t46.5 48.5t54 37t57.5 14.5q5 0 9 -0.5t9 -1.5l-41 -163h-7q-14 11 -34.5 17t-42.5 6q-23 0 -49 -9t-40 -23l-93 -374h-162l90 360q8 33 11.5 52.5t-0.5 29.5t-17 13.5t-38 4.5l4 16l244 71z" />
    <glyph glyph-name="s" unicode="s" horiz-adv-x="503" 
d="M436 183q0 -48 -25.5 -85t-65 -61.5t-86.5 -37t-90 -12.5q-51 0 -95 10t-74 27l62 230h19q-8 -115 15 -171.5t82 -56.5q21 0 42 5.5t37 16t26 26t10 35.5q0 23 -14.5 43t-49.5 43l-37 24q-43 29 -72 68.5t-29 89.5q0 42 21.5 73.5t55.5 53t75 32.5t80 11q50 0 95 -9
t69 -23l-48 -177h-16q2 81 -29.5 126.5t-83.5 45.5q-44 0 -65.5 -20.5t-21.5 -46.5q0 -21 14 -39t31 -30l57 -38q57 -37 84 -72.5t27 -80.5z" />
    <glyph glyph-name="t" unicode="t" horiz-adv-x="422" 
d="M129 488h-81l12 50h85l19 76l185 103l-45 -179h144l-12 -50h-145l-93 -373q-6 -28 0 -44.5t25 -16.5q13 0 29 8.5t31.5 22.5t30 32t26.5 37l16 -9q-43 -83 -95.5 -120.5t-98.5 -37.5q-35 0 -61.5 9.5t-41.5 32t-17.5 58t9.5 88.5z" />
    <glyph glyph-name="u" unicode="u" horiz-adv-x="637" 
d="M108 360q9 33 13 52t-0.5 29.5t-18 14t-38.5 4.5l4 16l251 71l-96 -351q-10 -36 -13 -60t-1.5 -38t7 -20t12.5 -6q17 0 38.5 32t45 84t46.5 118t42 135l27 97h151l-108 -423q-6 -25 -3 -43t22 -18q13 0 28 8.5t29 22.5t28 32t26 37l15 -9q-43 -84 -86 -121t-89 -37
q-57 0 -89.5 26.5t-29.5 92.5q2 19 5.5 41t11.5 48q-16 -41 -34 -78.5t-39.5 -66.5t-49 -46t-63.5 -17q-28 0 -51.5 12t-37 39.5t-14 72t18.5 109.5l40 140v0z" />
    <glyph glyph-name="v" unicode="v" horiz-adv-x="540" 
d="M73 460q-1 15 -3 24.5t-6.5 16t-13.5 11.5t-24 10l3 16h286l-3 -16q-26 -5 -40 -9.5t-20.5 -12.5t-7.5 -20.5t0 -31.5l19 -327l150 275q18 33 27.5 55t9 36.5t-12 22t-34.5 12.5l3 16h177l-3 -16q-22 -6 -35 -10.5t-23 -13.5t-20 -25t-25 -43l-236 -430h-127z" />
    <glyph glyph-name="w" unicode="w" horiz-adv-x="815" 
d="M392 385l-156 -385h-148l-17 460q0 15 -1.5 24.5t-6 16t-13.5 11.5t-24 10l4 16h286l-4 -16q-26 -5 -40 -9.5t-20.5 -12.5t-8 -20.5t-1.5 -31.5v-327l163 417h141v-417l138 275q17 34 26.5 56t9 36t-10.5 21.5t-32 12.5l4 16h177l-4 -16q-22 -6 -35.5 -10t-24.5 -13
t-21 -25t-25 -44l-219 -430h-137v385z" />
    <glyph glyph-name="x" unicode="x" horiz-adv-x="572" 
d="M458 78q14 -32 29.5 -44.5t37.5 -16.5l-3 -17h-275l4 17q38 4 41.5 19t-13.5 54l-44 106l-79 -86q-49 -54 -52.5 -72t37.5 -21l-4 -17h-198l4 17q41 2 85.5 32.5t104.5 96.5l84 91l-92 223q-8 19 -15.5 30t-15.5 17t-17 9t-19 5l4 17h273l-4 -17q-20 -2 -30 -6t-12.5 -12
t2 -21t13.5 -34l33 -81l56 60q44 47 44 69t-42 25l5 17h208l-4 -17q-41 -3 -85 -33.5t-105 -95.5l-60 -66l104 -248v0z" />
    <glyph glyph-name="y" unicode="y" horiz-adv-x="570" 
d="M259 -13q-35 -66 -68.5 -107t-65.5 -63.5t-64 -30t-64 -7.5q-37 0 -70 11l34 143h6q17 -14 45.5 -23t64.5 -9q38 0 66.5 10.5t42.5 37.5l9 17l-103 494q-3 12 -4.5 21.5t-6 17t-13 13t-25.5 10.5l4 16h273l-4 -16q-18 -4 -29 -8.5t-17 -12t-6.5 -20t3.5 -33.5l48 -273
l115 221q14 27 22 48.5t8 37t-10 26t-33 14.5l4 16h182l-4 -16q-22 -6 -35.5 -11t-25 -15t-22.5 -26.5t-27 -46.5l-230 -436v0z" />
    <glyph glyph-name="z" unicode="z" horiz-adv-x="604" 
d="M-25 0l1 9l415 482h-33q-44 0 -79 -8t-63.5 -28t-52 -54t-45.5 -87h-22l79 226q48 -2 95 -2h95h244l-1 -10l-415 -481h72q44 0 79 8t63.5 28t52.5 54t46 87h21l-78 -226q-48 2 -95 2h-95h-284z" />
    <glyph glyph-name="braceleft" unicode="{" horiz-adv-x="380" 
d="M171 -216q-45 0 -78.5 4t-56 14.5t-33.5 29t-11 47.5q0 13 1.5 27.5t6.5 31.5l51 209q3 14 5.5 28t2.5 27q0 25 -12 41.5t-47 16.5l10 41q26 0 44.5 10t31 26t20 36.5t12.5 40.5l57 235q10 37 27 60.5t45.5 37.5t70 19.5t99.5 5.5h43l-7 -31h-14q-49 0 -70.5 -23.5
t-30.5 -60.5l-58 -233q-18 -72 -58.5 -106t-110.5 -36v-2q22 -5 40.5 -11.5t32 -18.5t21 -29.5t7.5 -44.5q0 -28 -9 -65l-54 -213q-5 -20 -5 -34q0 -23 14 -36.5t50 -13.5h14l-7 -30h-44z" />
    <glyph glyph-name="bar" unicode="|" horiz-adv-x="239" 
d="M82 -90v815h75v-815h-75z" />
    <glyph glyph-name="braceright" unicode="}" horiz-adv-x="401" 
d="M227 772q45 0 78.5 -4t56 -14.5t34 -29t11.5 -48.5q0 -23 -8 -58l-52 -210q-3 -14 -5.5 -27t-2.5 -26q0 -25 12.5 -42t47.5 -17l-10 -42q-27 0 -45 -10t-30.5 -26t-20 -36t-12.5 -40l-58 -235q-9 -37 -26 -60.5t-45.5 -37.5t-70 -19.5t-99.5 -5.5h-44l8 30h14
q48 0 69.5 23.5t30.5 60.5l58 234q18 72 59 106t110 36v2q-22 4 -40 11t-31.5 18.5t-21 29t-7.5 43.5q0 27 9 66l53 213q5 20 5 34q0 23 -14 36.5t-50 13.5h-14l8 31h43z" />
    <glyph glyph-name="uni00A0" unicode="&#xa0;" horiz-adv-x="200" 
 />
    <glyph glyph-name="exclamdown" unicode="&#xa1;" horiz-adv-x="423" 
d="M230 -176q-4 -16 -20.5 -26.5t-38.5 -15.5t-46.5 -5t-44.5 5t-31.5 15.5t-7.5 26.5l68 259l144 240h20l25 -241zM283 361q-39 0 -65.5 27t-26.5 66t26.5 66.5t65.5 27.5q42 0 68.5 -27.5t26.5 -66.5t-26.5 -66t-68.5 -27z" />
    <glyph glyph-name="sterling" unicode="&#xa3;" horiz-adv-x="678" 
d="M314 544q0 -35 9.5 -67.5t17.5 -64.5h183l-13 -51h-161q1 -5 1 -13q0 -45 -27 -78.5t-65.5 -58.5t-79.5 -43t-69 -32l2 -1q42 17 73.5 23.5t56.5 6.5q31 0 55.5 -6.5t46.5 -14.5t43 -14.5t46 -6.5q20 0 43 6t53 21l47 -123q-39 -23 -80 -31.5t-75 -8.5t-64 6t-58 13.5
t-54.5 13.5t-53.5 6q-54 0 -93.5 -11t-78.5 -31l-45 125q41 15 78 34.5t64.5 45.5t44 60t16.5 80q0 15 -3 32h-129l13 51h104q-8 27 -14.5 54.5t-6.5 56.5q0 65 29 107.5t74.5 67t101 34.5t107.5 10q61 0 108.5 -15t79.5 -41.5t48.5 -62t16.5 -77.5h-160q8 30 7.5 59t-12 52
t-34.5 37t-59 14q-39 0 -64.5 -13.5t-41 -36.5t-22 -52.5t-6.5 -61.5z" />
    <glyph glyph-name="yen" unicode="&#xa5;" horiz-adv-x="703" 
d="M203 142h-163l11 45h163l20 75h-163l10 44h154l-71 312q-6 26 -10 42t-11 25.5t-17.5 14.5t-28.5 9l3 16h312l-3 -16q-45 -6 -62.5 -21.5t-8.5 -47.5l65 -293l123 159q51 65 70 103.5t16 59.5t-21.5 29t-40.5 11l3 16h239l-3 -16q-23 -4 -40.5 -12t-37.5 -26.5t-47 -50
t-67 -83.5l-179 -231h154l-11 -44h-164l-20 -75h164l-11 -45h-164l-4 -16q-10 -39 -13.5 -59.5t2.5 -30.5t23.5 -13.5t49.5 -6.5l-3 -16h-342l4 16q34 3 52.5 6.5t29.5 14t18 31t16 58.5z" />
    <glyph glyph-name="dieresis" unicode="&#xa8;" horiz-adv-x="429" 
d="M22 694q0 32 22 55t54 23t55 -23t23 -55q0 -15 -6 -29t-16.5 -24.5t-25 -16.5t-30.5 -6q-32 0 -54 22.5t-22 53.5zM252 694q0 32 23 55t55 23q16 0 30 -6t24.5 -16.5t16.5 -25t6 -30.5q0 -31 -22.5 -53.5t-54.5 -22.5q-16 0 -30.5 6t-25 16.5t-16.5 24.5t-6 29z" />
    <glyph glyph-name="copyright" unicode="&#xa9;" horiz-adv-x="837" 
d="M431 -13q-78 0 -146.5 27t-119.5 76.5t-80.5 118.5t-29.5 152t29.5 152.5t80.5 119t119.5 77t146.5 27.5q77 0 145 -27.5t119 -77t80.5 -119t29.5 -152.5t-29.5 -152t-80.5 -118.5t-119 -76.5t-145 -27zM431 675q-65 0 -121 -22.5t-97.5 -64t-65 -99.5t-23.5 -128
t23.5 -127.5t65 -99t97.5 -64t121 -22.5t121 22.5t97 64t64 99t23 127.5t-23 128t-64 99.5t-97 64t-121 22.5zM315 368q0 -73 33 -111t80 -38q35 0 66 18t43 60l67 -19q-8 -24 -22.5 -45.5t-36.5 -38t-51 -26t-66 -9.5q-90 0 -138 55.5t-48 153.5q0 97 51.5 150.5
t139.5 53.5q71 0 112.5 -35t55.5 -88l-67 -21q-10 42 -39 63t-67 21q-47 0 -80 -35.5t-33 -108.5z" />
    <glyph glyph-name="guillemotleft" unicode="&#xab;" horiz-adv-x="618" 
d="M33 273l283 234h53l-173 -234l52 -235h-45zM260 273l283 234h53l-173 -234l52 -235h-45z" />
    <glyph glyph-name="uni00AD" unicode="&#xad;" horiz-adv-x="368" 
d="M67 318h258l-23 -91h-258z" />
    <glyph glyph-name="macron" unicode="&#xaf;" horiz-adv-x="365" 
d="M14 665l16 68h321l-16 -68h-321z" />
    <glyph glyph-name="degree" unicode="&#xb0;" horiz-adv-x="360" 
d="M237 440q-30 0 -57 11.5t-47.5 32t-32 47.5t-11.5 58t11.5 58t32 47.5t47.5 32t57 11.5q31 0 58.5 -11.5t47.5 -32t32 -47.5t12 -58t-12 -58t-32 -47.5t-47.5 -32t-58.5 -11.5zM237 675q-35 0 -56 -25t-21 -61q0 -35 21 -60.5t56 -25.5q37 0 58.5 25.5t21.5 60.5
q0 36 -21.5 61t-58.5 25z" />
    <glyph glyph-name="acute" unicode="&#xb4;" horiz-adv-x="307" 
d="M15 603h-14l115 169h190z" />
    <glyph glyph-name="periodcentered" unicode="&#xb7;" horiz-adv-x="342" 
d="M169 186q-39 0 -65.5 27t-26.5 66t26.5 66.5t65.5 27.5q42 0 68.5 -27.5t26.5 -66.5t-26.5 -66t-68.5 -27z" />
    <glyph glyph-name="cedilla" unicode="&#xb8;" horiz-adv-x="261" 
d="M154 3h37l-72 -86q11 5 22.5 7t20.5 2q32 0 51.5 -19t19.5 -43q0 -25 -12 -44t-31.5 -31.5t-44.5 -19t-50 -6.5q-26 0 -49.5 6.5t-41.5 18.5l12 20q24 -12 59 -12q14 0 28 3t24.5 9.5t17 16.5t6.5 24q0 18 -15.5 27.5t-35.5 9.5q-21 0 -41 -10l-8 5z" />
    <glyph glyph-name="guillemotright" unicode="&#xbb;" horiz-adv-x="618" 
d="M585 272l-282 -234h-54l174 234l-53 235h45zM358 272l-281 -234h-55l175 234l-54 235h46zM358 272l-282 -234h-54l174 234l-53 235h45zM585 272l-282 -234h-54l174 234l-53 235h45z" />
    <glyph glyph-name="questiondown" unicode="&#xbf;" horiz-adv-x="629" 
d="M30 -93q0 51 24 84.5t60.5 59t81.5 47t86.5 47t74.5 60t47 85.5l3 11h31l-2 -9q-16 -72 -40.5 -119t-52 -78t-55.5 -51.5t-50 -40t-36 -44t-14 -62.5t22.5 -57t57.5 -19q34 0 64.5 15.5t57.5 42t50 61.5t43 73h20l-50 -201q-34 -14 -85.5 -25t-108.5 -11q-51 0 -93 8.5
t-72 25t-47 41t-17 56.5zM443 361q-39 0 -65.5 27t-26.5 66t26.5 66.5t65.5 27.5q42 0 68.5 -27.5t26.5 -66.5t-26.5 -66t-68.5 -27z" />
    <glyph glyph-name="Agrave" unicode="&#xc0;" 
d="M-74 16q22 4 39.5 11t36 24.5t41.5 50t57 86.5l324 528q28 5 57 17t48 32h4l82 -644q3 -27 7 -45t11.5 -30t19.5 -19t32 -11l-4 -16h-316l5 16q43 6 59 22t9 61l-16 141h-236l-10 -18q-42 -71 -56.5 -111t-11 -60t21 -26t40.5 -9l-5 -16h-243zM214 286h203l-31 288z
M475 922l20 -129h-16l-205 129h201z" />
    <glyph glyph-name="Aacute" unicode="&#xc1;" 
d="M464 793h-16l84 129h201zM-74 16q22 4 39.5 11t36 24.5t41.5 50t57 86.5l324 528q28 5 57 17t48 32h4l82 -644q3 -27 7 -45t11.5 -30t19.5 -19t32 -11l-4 -16h-316l5 16q43 6 59 22t9 61l-16 141h-236l-10 -18q-42 -71 -56.5 -111t-11 -60t21 -26t40.5 -9l-5 -16h-243z
M214 286h203l-31 288z" />
    <glyph glyph-name="Acircumflex" unicode="&#xc2;" 
d="M-74 16q22 4 39.5 11t36 24.5t41.5 50t57 86.5l324 528q28 5 57 17t48 32h4l82 -644q3 -27 7 -45t11.5 -30t19.5 -19t32 -11l-4 -16h-316l5 16q43 6 59 22t9 61l-16 141h-236l-10 -18q-42 -71 -56.5 -111t-11 -60t21 -26t40.5 -9l-5 -16h-243zM214 286h203l-31 288z
M531 922l123 -129h-21l-127 46l-155 -46h-23l187 129h16z" />
    <glyph glyph-name="Atilde" unicode="&#xc3;" 
d="M-74 16q22 4 39.5 11t36 24.5t41.5 50t57 86.5l324 528q28 5 57 17t48 32h4l82 -644q3 -27 7 -45t11.5 -30t19.5 -19t32 -11l-4 -16h-316l5 16q43 6 59 22t9 61l-16 141h-236l-10 -18q-42 -71 -56.5 -111t-11 -60t21 -26t40.5 -9l-5 -16h-243zM214 286h203l-31 288z
M586 866q25 0 40.5 11.5t20.5 38.5h16q0 -24 -5.5 -46.5t-17 -40.5t-29 -28.5t-41.5 -10.5q-25 0 -45 9.5t-38.5 21t-37.5 21t-42 9.5q-26 0 -41.5 -12t-20.5 -39h-16q0 24 5.5 47t17 41t29 28.5t41.5 10.5t44.5 -9.5t39.5 -21t38.5 -21t41.5 -9.5z" />
    <glyph glyph-name="Adieresis" unicode="&#xc4;" 
d="M-74 16q22 4 39.5 11t36 24.5t41.5 50t57 86.5l324 528q28 5 57 17t48 32h4l82 -644q3 -27 7 -45t11.5 -30t19.5 -19t32 -11l-4 -16h-316l5 16q43 6 59 22t9 61l-16 141h-236l-10 -18q-42 -71 -56.5 -111t-11 -60t21 -26t40.5 -9l-5 -16h-243zM214 286h203l-31 288z
M552 859q0 27 19.5 47t47.5 20q27 0 46.5 -20t19.5 -47t-19.5 -46t-46.5 -19q-28 0 -47.5 19t-19.5 46zM330 859q0 27 19 47t45 20q29 0 48.5 -20t19.5 -47t-19.5 -46t-48.5 -19q-26 0 -45 19t-19 46z" />
    <glyph glyph-name="Aring" unicode="&#xc5;" 
d="M-74 16q22 4 39.5 11t36 24.5t41.5 50t57 86.5l324 528q28 5 57 17t48 32h4l82 -644q3 -27 7 -45t11.5 -30t19.5 -19t32 -11l-4 -16h-316l5 16q43 6 59 22t9 61l-16 141h-236l-10 -18q-42 -71 -56.5 -111t-11 -60t21 -26t40.5 -9l-5 -16h-243zM214 286h203l-31 288z
M384 886q0 21 8 39t22.5 31.5t33 21.5t39.5 8q22 0 40.5 -8t32.5 -21.5t22 -31.5t8 -39t-8 -39t-22 -31.5t-32.5 -21t-40.5 -7.5q-21 0 -39.5 7.5t-33 21t-22.5 31.5t-8 39zM429 886q0 -26 16 -43t42 -17q28 0 43.5 17t15.5 43q0 27 -17.5 43.5t-41.5 16.5q-26 0 -42 -17
t-16 -43z" />
    <glyph glyph-name="AE" unicode="&#xc6;" horiz-adv-x="1105" 
d="M865 725h127.5t130.5 2l-49 -267h-22q-2 58 -9.5 101.5t-33 71.5t-74.5 42t-132 14h-15l-73 -293h136l90 120h18l-71 -285h-18l-30 121h-136l-70 -279q-8 -25 3.5 -31t47.5 -6q63 0 111 14t87 42.5t71 71.5t63 101h22l-85 -267q-65 2 -136.5 2h-135.5h-340l4 16
q33 4 54 10.5t34.5 20t23 37t19.5 62.5l23 94h-232l-15 -18q-53 -64 -78 -103t-28.5 -61t9.5 -30.5t36 -11.5l-5 -16h-265l4 16q22 4 46 13.5t52 28.5t61 50.5t75 79.5l461 537h244zM306 286h206l87 348z" />
    <glyph glyph-name="Ccedilla" unicode="&#xc7;" horiz-adv-x="723" 
d="M668 470q-4 50 -10 92.5t-21.5 74t-44 49t-77.5 17.5q-47 0 -86.5 -22.5t-71 -60.5t-55.5 -87t-40 -101.5t-24 -105.5t-8 -98q0 -90 37 -139.5t116 -49.5q72 0 134.5 43t117.5 140l26 -15q-23 -49 -52.5 -89.5t-69 -69.5t-90.5 -45t-116 -16q-62 0 -116 19t-93.5 55.5
t-62 89t-22.5 118.5q0 104 41.5 191t110.5 149.5t157.5 97.5t182.5 35q60 0 111 -12.5t87 -29.5l-40 -230h-21v0zM304 3h37l-72 -86q11 5 22.5 7t20.5 2q32 0 51.5 -19t19.5 -43q0 -25 -12 -44t-31.5 -31.5t-44.5 -19t-50 -6.5q-26 0 -49.5 6.5t-41.5 18.5l12 20
q24 -12 59 -12q14 0 28 3t24.5 9.5t17 16.5t6.5 24q0 18 -15.5 27.5t-35.5 9.5q-21 0 -41 -10l-8 5z" />
    <glyph glyph-name="Egrave" unicode="&#xc8;" horiz-adv-x="718" 
d="M478 725h127.5t130.5 2l-49 -267h-22q-2 58 -10 101.5t-33.5 71.5t-74 42t-131.5 14h-16l-73 -293h137l89 120h19l-71 -285h-19l-29 121h-137l-70 -279q-6 -24 4.5 -30.5t47.5 -6.5q63 0 111 14t87 42.5t71 71.5t63 101h22l-86 -267q-65 2 -136 2h-135h-340l3 16
q34 4 55 10.5t34.5 20t22.5 37t19 62.5l108 433q10 38 13 61.5t-4 37t-25 20t-50 11.5l3 16h344zM520 922l20 -129h-16l-205 129h201z" />
    <glyph glyph-name="Eacute" unicode="&#xc9;" horiz-adv-x="718" 
d="M478 725h127.5t130.5 2l-49 -267h-22q-2 58 -10 101.5t-33.5 71.5t-74 42t-131.5 14h-16l-73 -293h137l89 120h19l-71 -285h-19l-29 121h-137l-70 -279q-6 -24 4.5 -30.5t47.5 -6.5q63 0 111 14t87 42.5t71 71.5t63 101h22l-86 -267q-65 2 -136 2h-135h-340l3 16
q34 4 55 10.5t34.5 20t22.5 37t19 62.5l108 433q10 38 13 61.5t-4 37t-25 20t-50 11.5l3 16h344zM443 793h-16l84 129h201z" />
    <glyph glyph-name="Ecircumflex" unicode="&#xca;" horiz-adv-x="718" 
d="M478 725h127.5t130.5 2l-49 -267h-22q-2 58 -10 101.5t-33.5 71.5t-74 42t-131.5 14h-16l-73 -293h137l89 120h19l-71 -285h-19l-29 121h-137l-70 -279q-6 -24 4.5 -30.5t47.5 -6.5q63 0 111 14t87 42.5t71 71.5t63 101h22l-86 -267q-65 2 -136 2h-135h-340l3 16
q34 4 55 10.5t34.5 20t22.5 37t19 62.5l108 433q10 38 13 61.5t-4 37t-25 20t-50 11.5l3 16h344zM536 922l123 -129h-21l-127 46l-155 -46h-23l187 129h16z" />
    <glyph glyph-name="Edieresis" unicode="&#xcb;" horiz-adv-x="718" 
d="M478 725h127.5t130.5 2l-49 -267h-22q-2 58 -10 101.5t-33.5 71.5t-74 42t-131.5 14h-16l-73 -293h137l89 120h19l-71 -285h-19l-29 121h-137l-70 -279q-6 -24 4.5 -30.5t47.5 -6.5q63 0 111 14t87 42.5t71 71.5t63 101h22l-86 -267q-65 2 -136 2h-135h-340l3 16
q34 4 55 10.5t34.5 20t22.5 37t19 62.5l108 433q10 38 13 61.5t-4 37t-25 20t-50 11.5l3 16h344zM543 859q0 27 19.5 47t47.5 20q27 0 46.5 -20t19.5 -47t-19.5 -46t-46.5 -19q-28 0 -47.5 19t-19.5 46zM321 859q0 27 19 47t45 20q29 0 48.5 -20t19.5 -47t-19.5 -46
t-48.5 -19q-26 0 -45 19t-19 46z" />
    <glyph glyph-name="Igrave" unicode="&#xcc;" horiz-adv-x="445" 
d="M265 146q-9 -38 -12 -61t4 -37t25 -21t50 -11l-4 -16h-373l3 16q34 4 55 10.5t34.5 20t22.5 37t19 62.5l108 433q10 38 13 61.5t-4 37t-25 20t-50 11.5l3 16h375l-4 -16q-34 -5 -55 -11t-35 -19.5t-23 -37t-19 -62.5zM394 922l20 -129h-16l-205 129h201z" />
    <glyph glyph-name="Iacute" unicode="&#xcd;" horiz-adv-x="445" 
d="M265 146q-9 -38 -12 -61t4 -37t25 -21t50 -11l-4 -16h-373l3 16q34 4 55 10.5t34.5 20t22.5 37t19 62.5l108 433q10 38 13 61.5t-4 37t-25 20t-50 11.5l3 16h375l-4 -16q-34 -5 -55 -11t-35 -19.5t-23 -37t-19 -62.5zM275 793h-16l84 129h201z" />
    <glyph glyph-name="Icircumflex" unicode="&#xce;" horiz-adv-x="445" 
d="M265 146q-9 -38 -12 -61t4 -37t25 -21t50 -11l-4 -16h-373l3 16q34 4 55 10.5t34.5 20t22.5 37t19 62.5l108 433q10 38 13 61.5t-4 37t-25 20t-50 11.5l3 16h375l-4 -16q-34 -5 -55 -11t-35 -19.5t-23 -37t-19 -62.5zM373 922l123 -129h-21l-127 46l-155 -46h-23l187 129
h16z" />
    <glyph glyph-name="Idieresis" unicode="&#xcf;" horiz-adv-x="445" 
d="M265 146q-9 -38 -12 -61t4 -37t25 -21t50 -11l-4 -16h-373l3 16q34 4 55 10.5t34.5 20t22.5 37t19 62.5l108 433q10 38 13 61.5t-4 37t-25 20t-50 11.5l3 16h375l-4 -16q-34 -5 -55 -11t-35 -19.5t-23 -37t-19 -62.5zM386 859q0 27 19.5 47t47.5 20q27 0 46.5 -20
t19.5 -47t-19.5 -46t-46.5 -19q-28 0 -47.5 19t-19.5 46zM164 859q0 27 19 47t45 20q29 0 48.5 -20t19.5 -47t-19.5 -46t-48.5 -19q-26 0 -45 19t-19 46z" />
    <glyph glyph-name="Eth" unicode="&#xd0;" horiz-adv-x="839" 
d="M432 725q79 0 150.5 -16t125.5 -50.5t86 -89t32 -131.5q0 -78 -23 -141t-63.5 -111.5t-94.5 -83.5t-116.5 -57.5t-130 -33.5t-134.5 -11h-292l3 16q34 4 55 10.5t34.5 20t22.5 37t19 62.5l51 206h-105l12 44h104l46 183q10 38 13 61.5t-4 37t-25 20t-50 11.5l3 16h281z
M282 36q84 0 149.5 35t111 93.5t69 135.5t23.5 161q0 121 -45.5 174.5t-146.5 53.5h-25l-73 -293h127l-12 -44h-126l-79 -316h27z" />
    <glyph glyph-name="Ntilde" unicode="&#xd1;" horiz-adv-x="807" 
d="M715 579q9 37 12 60.5t-4 37.5t-25 20.5t-50 11.5l4 16h246l-3 -16q-34 -5 -55.5 -11t-35 -19.5t-22.5 -37t-19 -62.5l-144 -579h-149l-231 555l-102 -409q-9 -38 -12 -61t4 -37t25 -21t50 -11l-3 -16h-246l3 16q34 4 55 10.5t34.5 20t22.5 37t19 62.5l120 482l-1 4
q-17 40 -29 57t-29 23l4 13h208l244 -585l109 439v0zM641 866q25 0 40.5 11.5t20.5 38.5h16q0 -24 -5.5 -46.5t-17 -40.5t-29 -28.5t-41.5 -10.5q-25 0 -45 9.5t-38.5 21t-37.5 21t-42 9.5q-26 0 -41.5 -12t-20.5 -39h-16q0 24 5.5 47t17 41t29 28.5t41.5 10.5t44.5 -9.5
t39.5 -21t38.5 -21t41.5 -9.5z" />
    <glyph glyph-name="Ograve" unicode="&#xd2;" horiz-adv-x="814" 
d="M38 269q0 87 35 172t96.5 152t146 108t183.5 41q60 0 112 -19t91 -55t61.5 -88.5t22.5 -118.5q0 -88 -35 -173t-96.5 -152t-146 -108t-183.5 -41q-60 0 -112 19t-91 55.5t-61.5 89t-22.5 118.5zM229 228q0 -45 5.5 -82t18.5 -63.5t34 -41.5t52 -15q42 0 77 22.5
t63.5 60.5t50.5 87t36.5 101.5t22 105.5t7.5 98t-6 82t-19 63.5t-34.5 41.5t-51.5 15q-42 0 -77 -22.5t-63.5 -60.5t-50 -87t-36 -101.5t-22 -105.5t-7.5 -98zM568 922l20 -129h-16l-205 129h201z" />
    <glyph glyph-name="Oacute" unicode="&#xd3;" horiz-adv-x="814" 
d="M38 269q0 87 35 172t96.5 152t146 108t183.5 41q60 0 112 -19t91 -55t61.5 -88.5t22.5 -118.5q0 -88 -35 -173t-96.5 -152t-146 -108t-183.5 -41q-60 0 -112 19t-91 55.5t-61.5 89t-22.5 118.5zM229 228q0 -45 5.5 -82t18.5 -63.5t34 -41.5t52 -15q42 0 77 22.5
t63.5 60.5t50.5 87t36.5 101.5t22 105.5t7.5 98t-6 82t-19 63.5t-34.5 41.5t-51.5 15q-42 0 -77 -22.5t-63.5 -60.5t-50 -87t-36 -101.5t-22 -105.5t-7.5 -98zM481 793h-16l84 129h201z" />
    <glyph glyph-name="Ocircumflex" unicode="&#xd4;" horiz-adv-x="814" 
d="M38 269q0 87 35 172t96.5 152t146 108t183.5 41q60 0 112 -19t91 -55t61.5 -88.5t22.5 -118.5q0 -88 -35 -173t-96.5 -152t-146 -108t-183.5 -41q-60 0 -112 19t-91 55.5t-61.5 89t-22.5 118.5zM229 228q0 -45 5.5 -82t18.5 -63.5t34 -41.5t52 -15q42 0 77 22.5
t63.5 60.5t50.5 87t36.5 101.5t22 105.5t7.5 98t-6 82t-19 63.5t-34.5 41.5t-51.5 15q-42 0 -77 -22.5t-63.5 -60.5t-50 -87t-36 -101.5t-22 -105.5t-7.5 -98zM552 922l123 -129h-21l-127 46l-155 -46h-23l187 129h16z" />
    <glyph glyph-name="Otilde" unicode="&#xd5;" horiz-adv-x="814" 
d="M38 269q0 87 35 172t96.5 152t146 108t183.5 41q60 0 112 -19t91 -55t61.5 -88.5t22.5 -118.5q0 -88 -35 -173t-96.5 -152t-146 -108t-183.5 -41q-60 0 -112 19t-91 55.5t-61.5 89t-22.5 118.5zM229 228q0 -45 5.5 -82t18.5 -63.5t34 -41.5t52 -15q42 0 77 22.5
t63.5 60.5t50.5 87t36.5 101.5t22 105.5t7.5 98t-6 82t-19 63.5t-34.5 41.5t-51.5 15q-42 0 -77 -22.5t-63.5 -60.5t-50 -87t-36 -101.5t-22 -105.5t-7.5 -98zM616 866q25 0 40.5 11.5t20.5 38.5h16q0 -24 -5.5 -46.5t-17 -40.5t-29 -28.5t-41.5 -10.5q-25 0 -45 9.5
t-38.5 21t-37.5 21t-42 9.5q-26 0 -41.5 -12t-20.5 -39h-16q0 24 5.5 47t17 41t29 28.5t41.5 10.5t44.5 -9.5t39.5 -21t38.5 -21t41.5 -9.5z" />
    <glyph glyph-name="Odieresis" unicode="&#xd6;" horiz-adv-x="814" 
d="M38 269q0 87 35 172t96.5 152t146 108t183.5 41q60 0 112 -19t91 -55t61.5 -88.5t22.5 -118.5q0 -88 -35 -173t-96.5 -152t-146 -108t-183.5 -41q-60 0 -112 19t-91 55.5t-61.5 89t-22.5 118.5zM229 228q0 -45 5.5 -82t18.5 -63.5t34 -41.5t52 -15q42 0 77 22.5
t63.5 60.5t50.5 87t36.5 101.5t22 105.5t7.5 98t-6 82t-19 63.5t-34.5 41.5t-51.5 15q-42 0 -77 -22.5t-63.5 -60.5t-50 -87t-36 -101.5t-22 -105.5t-7.5 -98zM557 859q0 27 19.5 47t47.5 20q27 0 46.5 -20t19.5 -47t-19.5 -46t-46.5 -19q-28 0 -47.5 19t-19.5 46zM335 859
q0 27 19 47t45 20q29 0 48.5 -20t19.5 -47t-19.5 -46t-48.5 -19q-26 0 -45 19t-19 46z" />
    <glyph glyph-name="multiply" unicode="&#xd7;" horiz-adv-x="678" 
d="M498 35l-181 181l-178 -178l-57 57l178 178l-178 179l57 57l178 -179l178 178l57 -57l-178 -178l181 -181z" />
    <glyph glyph-name="Oslash" unicode="&#xd8;" horiz-adv-x="814" 
d="M38 269q0 87 35 172t96.5 152t146 108t183.5 41q46 0 87.5 -11.5t76.5 -33.5l91 99l29 -23l-90 -97q43 -36 68 -90.5t25 -124.5q0 -88 -35 -173t-96.5 -152t-146 -108t-183.5 -41q-60 0 -111.5 18.5t-89.5 54.5l-100 -108l-28 23l103 111q-29 35 -45 80.5t-16 102.5z
M596 501q0 17 -1 33.5t-3 31.5l-361 -390q6 -69 30.5 -109.5t77.5 -40.5q42 0 77 22.5t63.5 60.5t50.5 87t36.5 101.5t22 105.5t7.5 98zM229 227l355 384q-12 43 -36 67.5t-63 24.5q-42 0 -77 -22.5t-63.5 -60.5t-50 -87t-36 -101.5t-22 -105.5t-7.5 -98v-1z" />
    <glyph glyph-name="Ugrave" unicode="&#xd9;" horiz-adv-x="830" 
d="M723 298q-21 -86 -57 -145.5t-83 -96t-103 -53t-119 -16.5q-72 0 -128 16t-90.5 50.5t-44.5 90t10 134.5l75 301q9 38 12 61.5t-4 37t-24.5 20t-49.5 11.5l4 16h375l-5 -16q-34 -5 -55 -11t-35 -19.5t-23 -37t-19 -62.5l-70 -281q-14 -60 -15.5 -105t13.5 -75t47 -45.5
t85 -15.5q103 0 162.5 60t88.5 178l70 284q9 38 12 61.5t-4 37t-24.5 20t-49.5 11.5l4 16h251l-4 -16q-34 -5 -55.5 -11t-35 -19.5t-22.5 -37t-19 -62.5zM593 922l20 -129h-16l-205 129h201z" />
    <glyph glyph-name="Uacute" unicode="&#xda;" horiz-adv-x="830" 
d="M723 298q-21 -86 -57 -145.5t-83 -96t-103 -53t-119 -16.5q-72 0 -128 16t-90.5 50.5t-44.5 90t10 134.5l75 301q9 38 12 61.5t-4 37t-24.5 20t-49.5 11.5l4 16h375l-5 -16q-34 -5 -55 -11t-35 -19.5t-23 -37t-19 -62.5l-70 -281q-14 -60 -15.5 -105t13.5 -75t47 -45.5
t85 -15.5q103 0 162.5 60t88.5 178l70 284q9 38 12 61.5t-4 37t-24.5 20t-49.5 11.5l4 16h251l-4 -16q-34 -5 -55.5 -11t-35 -19.5t-22.5 -37t-19 -62.5zM560 793h-16l84 129h201z" />
    <glyph glyph-name="Ucircumflex" unicode="&#xdb;" horiz-adv-x="830" 
d="M723 298q-21 -86 -57 -145.5t-83 -96t-103 -53t-119 -16.5q-72 0 -128 16t-90.5 50.5t-44.5 90t10 134.5l75 301q9 38 12 61.5t-4 37t-24.5 20t-49.5 11.5l4 16h375l-5 -16q-34 -5 -55 -11t-35 -19.5t-23 -37t-19 -62.5l-70 -281q-14 -60 -15.5 -105t13.5 -75t47 -45.5
t85 -15.5q103 0 162.5 60t88.5 178l70 284q9 38 12 61.5t-4 37t-24.5 20t-49.5 11.5l4 16h251l-4 -16q-34 -5 -55.5 -11t-35 -19.5t-22.5 -37t-19 -62.5zM630 922l123 -129h-21l-127 46l-155 -46h-23l187 129h16z" />
    <glyph glyph-name="Udieresis" unicode="&#xdc;" horiz-adv-x="830" 
d="M723 298q-21 -86 -57 -145.5t-83 -96t-103 -53t-119 -16.5q-72 0 -128 16t-90.5 50.5t-44.5 90t10 134.5l75 301q9 38 12 61.5t-4 37t-24.5 20t-49.5 11.5l4 16h375l-5 -16q-34 -5 -55 -11t-35 -19.5t-23 -37t-19 -62.5l-70 -281q-14 -60 -15.5 -105t13.5 -75t47 -45.5
t85 -15.5q103 0 162.5 60t88.5 178l70 284q9 38 12 61.5t-4 37t-24.5 20t-49.5 11.5l4 16h251l-4 -16q-34 -5 -55.5 -11t-35 -19.5t-22.5 -37t-19 -62.5zM646 859q0 27 19.5 47t47.5 20q27 0 46.5 -20t19.5 -47t-19.5 -46t-46.5 -19q-28 0 -47.5 19t-19.5 46zM424 859
q0 27 19 47t45 20q29 0 48.5 -20t19.5 -47t-19.5 -46t-48.5 -19q-26 0 -45 19t-19 46z" />
    <glyph glyph-name="Yacute" unicode="&#xdd;" 
d="M410 146q-10 -39 -12.5 -62.5t6 -37t29 -20t55.5 -10.5l-4 -16h-396l3 16q38 4 61.5 10.5t38.5 20t24 37t19 62.5l35 140l-102 332q-9 27 -15 44t-12.5 26.5t-16 13.5t-24.5 7l3 16h320l-3 -16q-45 -6 -62.5 -19.5t-8.5 -49.5l86 -299l188 217q37 44 54 71.5t16.5 44
t-17 24t-44.5 11.5l3 16h228l-3 -16q-20 -4 -34.5 -9t-33 -19.5t-45.5 -43.5t-72 -81l-227 -262l-37 -148v0zM521 793h-16l84 129h201z" />
    <glyph glyph-name="Thorn" unicode="&#xde;" horiz-adv-x="685" 
d="M277 194q5 0 9.5 -0.5t9.5 -0.5q52 0 95 15.5t73.5 44.5t47 70.5t16.5 93.5q0 38 -9.5 64t-27.5 41.5t-43.5 22t-56.5 6.5h-24zM410 725l-36 -141h38q68 0 125 -8.5t98.5 -28t64.5 -52t23 -81.5q0 -67 -32.5 -113t-83.5 -75t-114.5 -42t-125.5 -13q-21 0 -47 0.5t-47 4.5
l-8 -30q-10 -38 -12.5 -61t5.5 -37t29 -21t58 -11l-3 -16h-387l3 16q34 4 55 10.5t34.5 20t22.5 37t19 62.5l108 433q10 40 12.5 63.5t-4.5 37t-25.5 19t-49.5 10.5l4 16h276z" />
    <glyph glyph-name="germandbls" unicode="&#xdf;" horiz-adv-x="688" 
d="M20 0l112 453q20 81 57 141t85 99.5t104.5 59t116.5 19.5q85 0 137.5 -26t52.5 -79q0 -32 -19 -59.5t-47 -49.5t-59.5 -38.5t-55.5 -25.5l-1 -3q69 -26 109 -81t40 -123q0 -71 -32 -127t-82 -94.5t-110 -58.5t-116 -20q-17 0 -37 1.5t-38 4.5l21 85h6q17 -19 33.5 -27
t39.5 -8q28 0 54.5 14t47.5 39.5t34 62.5t13 83q0 28 -7.5 54.5t-25 49t-46.5 38.5t-72 23l5 22l25 9q47 17 81 42.5t56 55t32.5 62t10.5 62.5q0 23 -6.5 37.5t-16.5 23t-23.5 11.5t-26.5 3q-50 0 -90 -45.5t-66 -150.5l-132 -539h-164z" />
    <glyph glyph-name="agrave" unicode="&#xe0;" horiz-adv-x="620" 
d="M143 -13q-54 0 -87.5 43t-33.5 123q0 44 11.5 90.5t32.5 90.5t50.5 82.5t65 67.5t76 46t84.5 17q23 0 41 -5.5t34 -16.5l158 22q-11 -39 -25.5 -94.5t-34.5 -130.5l-51 -205q-2 -12 -3 -23.5t1.5 -20t7.5 -14t15 -5.5q13 0 28 8.5t29 22.5t27.5 32t25.5 37l16 -9
q-43 -84 -92 -121t-95 -37q-55 0 -85.5 28.5t-30.5 84.5q0 20 3 43q-27 -72 -68.5 -114t-99.5 -42zM227 73q12 0 27 16t33 51t38 90.5t40 135.5l30 123q-7 9 -17.5 15.5t-23.5 6.5q-23 0 -43.5 -18t-38 -48t-31.5 -68.5t-23.5 -79.5t-15 -82t-5.5 -75q0 -26 6 -46.5
t24 -20.5zM385 772l31 -169h-14l-207 169h190z" />
    <glyph glyph-name="aacute" unicode="&#xe1;" horiz-adv-x="620" 
d="M375 603h-14l115 169h190zM143 -13q-54 0 -87.5 43t-33.5 123q0 44 11.5 90.5t32.5 90.5t50.5 82.5t65 67.5t76 46t84.5 17q23 0 41 -5.5t34 -16.5l158 22q-11 -39 -25.5 -94.5t-34.5 -130.5l-51 -205q-2 -12 -3 -23.5t1.5 -20t7.5 -14t15 -5.5q13 0 28 8.5t29 22.5
t27.5 32t25.5 37l16 -9q-43 -84 -92 -121t-95 -37q-55 0 -85.5 28.5t-30.5 84.5q0 20 3 43q-27 -72 -68.5 -114t-99.5 -42zM227 73q12 0 27 16t33 51t38 90.5t40 135.5l30 123q-7 9 -17.5 15.5t-23.5 6.5q-23 0 -43.5 -18t-38 -48t-31.5 -68.5t-23.5 -79.5t-15 -82t-5.5 -75
q0 -26 6 -46.5t24 -20.5z" />
    <glyph glyph-name="acircumflex" unicode="&#xe2;" horiz-adv-x="620" 
d="M143 -13q-54 0 -87.5 43t-33.5 123q0 44 11.5 90.5t32.5 90.5t50.5 82.5t65 67.5t76 46t84.5 17q23 0 41 -5.5t34 -16.5l158 22q-11 -39 -25.5 -94.5t-34.5 -130.5l-51 -205q-2 -12 -3 -23.5t1.5 -20t7.5 -14t15 -5.5q13 0 28 8.5t29 22.5t27.5 32t25.5 37l16 -9
q-43 -84 -92 -121t-95 -37q-55 0 -85.5 28.5t-30.5 84.5q0 20 3 43q-27 -72 -68.5 -114t-99.5 -42zM227 73q12 0 27 16t33 51t38 90.5t40 135.5l30 123q-7 9 -17.5 15.5t-23.5 6.5q-23 0 -43.5 -18t-38 -48t-31.5 -68.5t-23.5 -79.5t-15 -82t-5.5 -75q0 -26 6 -46.5
t24 -20.5zM571 603h-17l-130 71l-180 -71h-16l206 169h14z" />
    <glyph glyph-name="atilde" unicode="&#xe3;" horiz-adv-x="620" 
d="M143 -13q-54 0 -87.5 43t-33.5 123q0 44 11.5 90.5t32.5 90.5t50.5 82.5t65 67.5t76 46t84.5 17q23 0 41 -5.5t34 -16.5l158 22q-11 -39 -25.5 -94.5t-34.5 -130.5l-51 -205q-2 -12 -3 -23.5t1.5 -20t7.5 -14t15 -5.5q13 0 28 8.5t29 22.5t27.5 32t25.5 37l16 -9
q-43 -84 -92 -121t-95 -37q-55 0 -85.5 28.5t-30.5 84.5q0 20 3 43q-27 -72 -68.5 -114t-99.5 -42zM227 73q12 0 27 16t33 51t38 90.5t40 135.5l30 123q-7 9 -17.5 15.5t-23.5 6.5q-23 0 -43.5 -18t-38 -48t-31.5 -68.5t-23.5 -79.5t-15 -82t-5.5 -75q0 -26 6 -46.5
t24 -20.5zM265 630q0 23 5.5 48.5t16.5 47t29 35.5t43 14q21 0 42.5 -9t42.5 -20t40 -20t36 -9q27 0 40 11.5t15 43.5h19q0 -41 -8 -67.5t-20 -43t-27 -23t-31 -6.5q-25 0 -47 9t-42.5 20.5t-39.5 20.5t-39 9q-24 0 -39 -15t-17 -46h-19z" />
    <glyph glyph-name="adieresis" unicode="&#xe4;" horiz-adv-x="620" 
d="M143 -13q-54 0 -87.5 43t-33.5 123q0 44 11.5 90.5t32.5 90.5t50.5 82.5t65 67.5t76 46t84.5 17q23 0 41 -5.5t34 -16.5l158 22q-11 -39 -25.5 -94.5t-34.5 -130.5l-51 -205q-2 -12 -3 -23.5t1.5 -20t7.5 -14t15 -5.5q13 0 28 8.5t29 22.5t27.5 32t25.5 37l16 -9
q-43 -84 -92 -121t-95 -37q-55 0 -85.5 28.5t-30.5 84.5q0 20 3 43q-27 -72 -68.5 -114t-99.5 -42zM227 73q12 0 27 16t33 51t38 90.5t40 135.5l30 123q-7 9 -17.5 15.5t-23.5 6.5q-23 0 -43.5 -18t-38 -48t-31.5 -68.5t-23.5 -79.5t-15 -82t-5.5 -75q0 -26 6 -46.5
t24 -20.5zM225 694q0 32 22 55t54 23t55 -23t23 -55q0 -15 -6 -29t-16.5 -24.5t-25 -16.5t-30.5 -6q-32 0 -54 22.5t-22 53.5zM455 694q0 32 23 55t55 23q16 0 30 -6t24.5 -16.5t16.5 -25t6 -30.5q0 -31 -22.5 -53.5t-54.5 -22.5q-16 0 -30.5 6t-25 16.5t-16.5 24.5t-6 29z
" />
    <glyph glyph-name="aring" unicode="&#xe5;" horiz-adv-x="620" 
d="M143 -13q-54 0 -87.5 43t-33.5 123q0 44 11.5 90.5t32.5 90.5t50.5 82.5t65 67.5t76 46t84.5 17q23 0 41 -5.5t34 -16.5l158 22q-11 -39 -25.5 -94.5t-34.5 -130.5l-51 -205q-2 -12 -3 -23.5t1.5 -20t7.5 -14t15 -5.5q13 0 28 8.5t29 22.5t27.5 32t25.5 37l16 -9
q-43 -84 -92 -121t-95 -37q-55 0 -85.5 28.5t-30.5 84.5q0 20 3 43q-27 -72 -68.5 -114t-99.5 -42zM227 73q12 0 27 16t33 51t38 90.5t40 135.5l30 123q-7 9 -17.5 15.5t-23.5 6.5q-23 0 -43.5 -18t-38 -48t-31.5 -68.5t-23.5 -79.5t-15 -82t-5.5 -75q0 -26 6 -46.5
t24 -20.5zM324 723q0 21 8 39t22.5 31.5t33 21.5t39.5 8q22 0 40.5 -8t32.5 -21.5t22 -31.5t8 -39t-8 -39t-22 -31.5t-32.5 -21t-40.5 -7.5q-21 0 -39.5 7.5t-33 21t-22.5 31.5t-8 39zM369 723q0 -26 16 -43t42 -17q28 0 43.5 17t15.5 43q0 27 -17.5 43.5t-41.5 16.5
q-26 0 -42 -17t-16 -43z" />
    <glyph glyph-name="ae" unicode="&#xe6;" horiz-adv-x="810" 
d="M514 498q35 22 73 34t75 12q27 0 52.5 -6t45.5 -18t32.5 -31t12.5 -46q0 -50 -32.5 -80.5t-89.5 -44.5l-186 -46q-3 -20 -5 -39t-2 -35q0 -49 20.5 -77t60.5 -28q14 0 33 4.5t41 18t44 39t42 67.5l18 -8q-18 -47 -43 -88t-58 -72t-75 -49t-94 -18q-72 0 -110 42t-44 111
q-1 7 -1 13.5v13.5q-31 -90 -77.5 -135t-103.5 -45q-54 0 -87.5 42.5t-33.5 122.5q0 67 25.5 136.5t69 126.5t101.5 93t123 36q41 0 73 -21l114 21q-4 -11 -7 -22t-7 -24zM197 139q0 -26 6 -46t24 -20q12 0 27 15.5t33 50t37.5 90t39.5 135.5l30 122q-7 9 -17.5 15.5
t-23.5 6.5q-23 0 -43.5 -18t-37.5 -47.5t-31 -67.5t-24 -79t-15 -82t-5 -75zM662 465q0 19 -7 31.5t-25 12.5q-22 0 -41.5 -18t-36 -47.5t-29.5 -66.5t-21 -75l35 10q35 9 59 26t38.5 38t21 44t6.5 45z" />
    <glyph glyph-name="ccedilla" unicode="&#xe7;" horiz-adv-x="496" 
d="M160 3h37l-72 -86q11 5 22.5 7t20.5 2q32 0 51.5 -19t19.5 -43q0 -25 -12 -44t-31.5 -31.5t-44.5 -19t-50 -6.5q-26 0 -49.5 6.5t-41.5 18.5l12 20q24 -12 59 -12q14 0 28 3t24.5 9.5t17 16.5t6.5 24q0 18 -15.5 27.5t-35.5 9.5q-21 0 -41 -10l-8 5zM22 166
q0 78 27 147.5t72 121t103 82t121 30.5q44 0 72 -14t44 -38.5t20.5 -57t1.5 -69.5h-143q7 21 15 46t10.5 47t-3.5 36.5t-28 14.5q-33 0 -59 -33t-44 -81t-28 -101.5t-10 -95.5q0 -49 19.5 -78.5t57.5 -29.5q14 0 33.5 5t41 19t43 39t39.5 66l19 -8q-18 -47 -43 -88t-58 -72
t-75 -49t-94 -18q-40 0 -69 13.5t-48 37.5t-28 57t-9 71z" />
    <glyph glyph-name="egrave" unicode="&#xe8;" horiz-adv-x="507" 
d="M22 166q0 78 27 147.5t72.5 121t107 82t130.5 30.5q27 0 52.5 -6t45.5 -18.5t32.5 -31.5t12.5 -46q0 -50 -32 -80.5t-90 -44.5l-186 -47q-6 -39 -6 -73q0 -49 20 -78t61 -29q14 0 33 4.5t40.5 18t43.5 39t42 67.5l19 -8q-18 -47 -43 -88t-58 -72t-75 -49t-94 -18
q-40 0 -69 13.5t-48 37.5t-28.5 57t-9.5 71zM328 512q-22 0 -41.5 -18.5t-36 -47.5t-29.5 -66.5t-21 -74.5l35 9q35 9 59 26t38.5 38t20.5 44t6 45q0 19 -6.5 32t-24.5 13zM340 772l31 -169h-14l-207 169h190z" />
    <glyph glyph-name="eacute" unicode="&#xe9;" horiz-adv-x="507" 
d="M22 166q0 78 27 147.5t72.5 121t107 82t130.5 30.5q27 0 52.5 -6t45.5 -18.5t32.5 -31.5t12.5 -46q0 -50 -32 -80.5t-90 -44.5l-186 -47q-6 -39 -6 -73q0 -49 20 -78t61 -29q14 0 33 4.5t40.5 18t43.5 39t42 67.5l19 -8q-18 -47 -43 -88t-58 -72t-75 -49t-94 -18
q-40 0 -69 13.5t-48 37.5t-28.5 57t-9.5 71zM328 512q-22 0 -41.5 -18.5t-36 -47.5t-29.5 -66.5t-21 -74.5l35 9q35 9 59 26t38.5 38t20.5 44t6 45q0 19 -6.5 32t-24.5 13zM320 603h-14l115 169h190z" />
    <glyph glyph-name="ecircumflex" unicode="&#xea;" horiz-adv-x="507" 
d="M22 166q0 78 27 147.5t72.5 121t107 82t130.5 30.5q27 0 52.5 -6t45.5 -18.5t32.5 -31.5t12.5 -46q0 -50 -32 -80.5t-90 -44.5l-186 -47q-6 -39 -6 -73q0 -49 20 -78t61 -29q14 0 33 4.5t40.5 18t43.5 39t42 67.5l19 -8q-18 -47 -43 -88t-58 -72t-75 -49t-94 -18
q-40 0 -69 13.5t-48 37.5t-28.5 57t-9.5 71zM328 512q-22 0 -41.5 -18.5t-36 -47.5t-29.5 -66.5t-21 -74.5l35 9q35 9 59 26t38.5 38t20.5 44t6 45q0 19 -6.5 32t-24.5 13zM537 603h-17l-130 71l-180 -71h-16l206 169h14z" />
    <glyph glyph-name="edieresis" unicode="&#xeb;" horiz-adv-x="507" 
d="M22 166q0 78 27 147.5t72.5 121t107 82t130.5 30.5q27 0 52.5 -6t45.5 -18.5t32.5 -31.5t12.5 -46q0 -50 -32 -80.5t-90 -44.5l-186 -47q-6 -39 -6 -73q0 -49 20 -78t61 -29q14 0 33 4.5t40.5 18t43.5 39t42 67.5l19 -8q-18 -47 -43 -88t-58 -72t-75 -49t-94 -18
q-40 0 -69 13.5t-48 37.5t-28.5 57t-9.5 71zM328 512q-22 0 -41.5 -18.5t-36 -47.5t-29.5 -66.5t-21 -74.5l35 9q35 9 59 26t38.5 38t20.5 44t6 45q0 19 -6.5 32t-24.5 13zM181 694q0 32 22 55t54 23t55 -23t23 -55q0 -15 -6 -29t-16.5 -24.5t-25 -16.5t-30.5 -6
q-32 0 -54 22.5t-22 53.5zM411 694q0 32 23 55t55 23q16 0 30 -6t24.5 -16.5t16.5 -25t6 -30.5q0 -31 -22.5 -53.5t-54.5 -22.5q-16 0 -30.5 6t-25 16.5t-16.5 24.5t-6 29z" />
    <glyph glyph-name="igrave" unicode="&#xec;" horiz-adv-x="349" 
d="M93 360q8 33 11.5 52.5t-0.5 29.5t-17 13.5t-38 4.5l4 16l252 71q-11 -39 -26 -94t-34 -130l-52 -208q-6 -23 -2.5 -42t23.5 -19q13 0 28 8.5t29 22.5t27.5 32t25.5 37l16 -9q-43 -84 -92 -121t-95 -37q-36 0 -62 9.5t-40.5 31.5t-16 58t11.5 89l47 185v0zM250 772
l31 -169h-14l-207 169h190z" />
    <glyph glyph-name="iacute" unicode="&#xed;" horiz-adv-x="349" 
d="M93 360q8 33 11.5 52.5t-0.5 29.5t-17 13.5t-38 4.5l4 16l252 71q-11 -39 -26 -94t-34 -130l-52 -208q-6 -23 -2.5 -42t23.5 -19q13 0 28 8.5t29 22.5t27.5 32t25.5 37l16 -9q-43 -84 -92 -121t-95 -37q-36 0 -62 9.5t-40.5 31.5t-16 58t11.5 89l47 185v0zM164 603h-14
l115 169h190z" />
    <glyph glyph-name="icircumflex" unicode="&#xee;" horiz-adv-x="349" 
d="M93 360q8 33 11.5 52.5t-0.5 29.5t-17 13.5t-38 4.5l4 16l252 71q-11 -39 -26 -94t-34 -130l-52 -208q-6 -23 -2.5 -42t23.5 -19q13 0 28 8.5t29 22.5t27.5 32t25.5 37l16 -9q-43 -84 -92 -121t-95 -37q-36 0 -62 9.5t-40.5 31.5t-16 58t11.5 89l47 185v0zM403 603h-17
l-130 71l-180 -71h-16l206 169h14z" />
    <glyph glyph-name="idieresis" unicode="&#xef;" horiz-adv-x="349" 
d="M93 360q8 33 11.5 52.5t-0.5 29.5t-17 13.5t-38 4.5l4 16l252 71q-11 -39 -26 -94t-34 -130l-52 -208q-6 -23 -2.5 -42t23.5 -19q13 0 28 8.5t29 22.5t27.5 32t25.5 37l16 -9q-43 -84 -92 -121t-95 -37q-36 0 -62 9.5t-40.5 31.5t-16 58t11.5 89l47 185v0zM46 694
q0 32 22 55t54 23t55 -23t23 -55q0 -15 -6 -29t-16.5 -24.5t-25 -16.5t-30.5 -6q-32 0 -54 22.5t-22 53.5zM276 694q0 32 23 55t55 23q16 0 30 -6t24.5 -16.5t16.5 -25t6 -30.5q0 -31 -22.5 -53.5t-54.5 -22.5q-16 0 -30.5 6t-25 16.5t-16.5 24.5t-6 29z" />
    <glyph glyph-name="eth" unicode="&#xf0;" horiz-adv-x="593" 
d="M304 694q-34 25 -80 46l12 19q27 -7 53 -15.5t50 -19.5l82 71l19 -21l-74 -64q46 -25 84 -59t65 -76t41.5 -90.5t14.5 -103.5q0 -75 -27.5 -146t-75 -126t-111.5 -88.5t-137 -33.5q-56 0 -93.5 15t-61 40.5t-33.5 58.5t-10 69q0 52 14.5 99.5t39.5 89.5t58.5 76t70.5 58
t75.5 37.5t74.5 13.5q27 0 50 -9q-10 42 -28.5 77t-50.5 64l-86 -74l-18 21zM417 425q0 12 -0.5 24.5t-1.5 23.5q-5 14 -18 24.5t-30 10.5q-26 0 -50 -21.5t-44.5 -56.5t-36.5 -79t-27.5 -88.5t-17.5 -86t-6 -70.5q0 -15 1.5 -30t6 -27t14 -19.5t26.5 -7.5q29 0 61.5 30.5
t59.5 84.5t45 128t18 160z" />
    <glyph glyph-name="ntilde" unicode="&#xf1;" horiz-adv-x="635" 
d="M266 339q16 41 33.5 79t39 66.5t49 45.5t63.5 17q30 0 53.5 -12.5t36.5 -40.5t12 -72t-19 -108l-56 -199q-7 -26 -4.5 -43.5t22.5 -17.5q13 0 28 8.5t29 22.5t28 32t26 37l15 -9q-43 -84 -90 -121t-93 -37q-36 0 -63 10.5t-41 35t-14.5 65.5t17.5 101l40 139
q17 61 14 92.5t-20 31.5q-16 0 -37 -31.5t-44 -83.5t-46 -118t-42 -136l-26 -93h-157l88 360q8 33 11.5 52.5t-0.5 29.5t-17 13.5t-38 4.5l4 16l252 71zM227 630q0 23 5.5 48.5t16.5 47t29 35.5t43 14q21 0 42.5 -9t42.5 -20t40 -20t36 -9q27 0 40 11.5t15 43.5h19
q0 -41 -8 -67.5t-20 -43t-27 -23t-31 -6.5q-25 0 -47 9t-42.5 20.5t-39.5 20.5t-39 9q-24 0 -39 -15t-17 -46h-19z" />
    <glyph glyph-name="ograve" unicode="&#xf2;" horiz-adv-x="586" 
d="M398 399q0 113 -56 113q-36 0 -64.5 -33.5t-48.5 -87.5t-30.5 -122t-10.5 -137q0 -56 15 -83t41 -27q36 0 65 33t48.5 86.5t30 121t10.5 136.5zM22 205q0 64 25 125.5t69.5 109.5t106 77.5t134.5 29.5q44 0 82 -15.5t65.5 -44.5t43.5 -70t16 -92q0 -64 -25 -124.5
t-69.5 -108t-106.5 -76.5t-135 -29q-44 0 -82 15t-65.5 43.5t-43 68.5t-15.5 91zM369 772l31 -169h-14l-207 169h190z" />
    <glyph glyph-name="oacute" unicode="&#xf3;" horiz-adv-x="586" 
d="M398 399q0 113 -56 113q-36 0 -64.5 -33.5t-48.5 -87.5t-30.5 -122t-10.5 -137q0 -56 15 -83t41 -27q36 0 65 33t48.5 86.5t30 121t10.5 136.5zM22 205q0 64 25 125.5t69.5 109.5t106 77.5t134.5 29.5q44 0 82 -15.5t65.5 -44.5t43.5 -70t16 -92q0 -64 -25 -124.5
t-69.5 -108t-106.5 -76.5t-135 -29q-44 0 -82 15t-65.5 43.5t-43 68.5t-15.5 91zM328 603h-14l115 169h190z" />
    <glyph glyph-name="ocircumflex" unicode="&#xf4;" horiz-adv-x="586" 
d="M398 399q0 113 -56 113q-36 0 -64.5 -33.5t-48.5 -87.5t-30.5 -122t-10.5 -137q0 -56 15 -83t41 -27q36 0 65 33t48.5 86.5t30 121t10.5 136.5zM22 205q0 64 25 125.5t69.5 109.5t106 77.5t134.5 29.5q44 0 82 -15.5t65.5 -44.5t43.5 -70t16 -92q0 -64 -25 -124.5
t-69.5 -108t-106.5 -76.5t-135 -29q-44 0 -82 15t-65.5 43.5t-43 68.5t-15.5 91zM533 603h-17l-130 71l-180 -71h-16l206 169h14z" />
    <glyph glyph-name="otilde" unicode="&#xf5;" horiz-adv-x="586" 
d="M398 399q0 113 -56 113q-36 0 -64.5 -33.5t-48.5 -87.5t-30.5 -122t-10.5 -137q0 -56 15 -83t41 -27q36 0 65 33t48.5 86.5t30 121t10.5 136.5zM22 205q0 64 25 125.5t69.5 109.5t106 77.5t134.5 29.5q44 0 82 -15.5t65.5 -44.5t43.5 -70t16 -92q0 -64 -25 -124.5
t-69.5 -108t-106.5 -76.5t-135 -29q-44 0 -82 15t-65.5 43.5t-43 68.5t-15.5 91zM214 630q0 23 5.5 48.5t16.5 47t29 35.5t43 14q21 0 42.5 -9t42.5 -20t40 -20t36 -9q27 0 40 11.5t15 43.5h19q0 -41 -8 -67.5t-20 -43t-27 -23t-31 -6.5q-25 0 -47 9t-42.5 20.5t-39.5 20.5
t-39 9q-24 0 -39 -15t-17 -46h-19z" />
    <glyph glyph-name="odieresis" unicode="&#xf6;" horiz-adv-x="586" 
d="M398 399q0 113 -56 113q-36 0 -64.5 -33.5t-48.5 -87.5t-30.5 -122t-10.5 -137q0 -56 15 -83t41 -27q36 0 65 33t48.5 86.5t30 121t10.5 136.5zM22 205q0 64 25 125.5t69.5 109.5t106 77.5t134.5 29.5q44 0 82 -15.5t65.5 -44.5t43.5 -70t16 -92q0 -64 -25 -124.5
t-69.5 -108t-106.5 -76.5t-135 -29q-44 0 -82 15t-65.5 43.5t-43 68.5t-15.5 91zM184 694q0 32 22 55t54 23t55 -23t23 -55q0 -15 -6 -29t-16.5 -24.5t-25 -16.5t-30.5 -6q-32 0 -54 22.5t-22 53.5zM414 694q0 32 23 55t55 23q16 0 30 -6t24.5 -16.5t16.5 -25t6 -30.5
q0 -31 -22.5 -53.5t-54.5 -22.5q-16 0 -30.5 6t-25 16.5t-16.5 24.5t-6 29z" />
    <glyph glyph-name="divide" unicode="&#xf7;" horiz-adv-x="678" 
d="M269 156h105v-107h-105v107zM269 494h105v-109h-105v109zM58 230v76h522v-76h-522z" />
    <glyph glyph-name="oslash" unicode="&#xf8;" horiz-adv-x="586" 
d="M22 205q0 64 25 125.5t69.5 109.5t106 77.5t134.5 29.5q45 0 83 -16t66 -45l67 72l29 -23l-74 -79q17 -26 26.5 -59.5t9.5 -71.5q0 -64 -25 -124.5t-69.5 -108t-106.5 -76.5t-135 -29q-63 0 -110 29l-68 -73l-28 23l67 71q-32 29 -49.5 71t-17.5 97zM398 399
q0 113 -56 113q-35 0 -63.5 -32t-48 -84.5t-30.5 -118.5t-12 -133l209 225q1 8 1 15v15zM244 22q30 0 55.5 23.5t44.5 63.5t31.5 92.5t18.5 109.5l-204 -218q10 -71 54 -71z" />
    <glyph glyph-name="ugrave" unicode="&#xf9;" horiz-adv-x="637" 
d="M108 360q9 33 13 52t-0.5 29.5t-18 14t-38.5 4.5l4 16l251 71l-96 -351q-10 -36 -13 -60t-1.5 -38t7 -20t12.5 -6q17 0 38.5 32t45 84t46.5 118t42 135l27 97h151l-108 -423q-6 -25 -3 -43t22 -18q13 0 28 8.5t29 22.5t28 32t26 37l15 -9q-43 -84 -86 -121t-89 -37
q-57 0 -89.5 26.5t-29.5 92.5q2 19 5.5 41t11.5 48q-16 -41 -34 -78.5t-39.5 -66.5t-49 -46t-63.5 -17q-28 0 -51.5 12t-37 39.5t-14 72t18.5 109.5l40 140v0zM406 772l31 -169h-14l-207 169h190z" />
    <glyph glyph-name="uacute" unicode="&#xfa;" horiz-adv-x="637" 
d="M108 360q9 33 13 52t-0.5 29.5t-18 14t-38.5 4.5l4 16l251 71l-96 -351q-10 -36 -13 -60t-1.5 -38t7 -20t12.5 -6q17 0 38.5 32t45 84t46.5 118t42 135l27 97h151l-108 -423q-6 -25 -3 -43t22 -18q13 0 28 8.5t29 22.5t28 32t26 37l15 -9q-43 -84 -86 -121t-89 -37
q-57 0 -89.5 26.5t-29.5 92.5q2 19 5.5 41t11.5 48q-16 -41 -34 -78.5t-39.5 -66.5t-49 -46t-63.5 -17q-28 0 -51.5 12t-37 39.5t-14 72t18.5 109.5l40 140v0zM362 603h-14l115 169h190z" />
    <glyph glyph-name="ucircumflex" unicode="&#xfb;" horiz-adv-x="637" 
d="M108 360q9 33 13 52t-0.5 29.5t-18 14t-38.5 4.5l4 16l251 71l-96 -351q-10 -36 -13 -60t-1.5 -38t7 -20t12.5 -6q17 0 38.5 32t45 84t46.5 118t42 135l27 97h151l-108 -423q-6 -25 -3 -43t22 -18q13 0 28 8.5t29 22.5t28 32t26 37l15 -9q-43 -84 -86 -121t-89 -37
q-57 0 -89.5 26.5t-29.5 92.5q2 19 5.5 41t11.5 48q-16 -41 -34 -78.5t-39.5 -66.5t-49 -46t-63.5 -17q-28 0 -51.5 12t-37 39.5t-14 72t18.5 109.5l40 140v0zM552 603h-17l-130 71l-180 -71h-16l206 169h14z" />
    <glyph glyph-name="udieresis" unicode="&#xfc;" horiz-adv-x="637" 
d="M108 360q9 33 13 52t-0.5 29.5t-18 14t-38.5 4.5l4 16l251 71l-96 -351q-10 -36 -13 -60t-1.5 -38t7 -20t12.5 -6q17 0 38.5 32t45 84t46.5 118t42 135l27 97h151l-108 -423q-6 -25 -3 -43t22 -18q13 0 28 8.5t29 22.5t28 32t26 37l15 -9q-43 -84 -86 -121t-89 -37
q-57 0 -89.5 26.5t-29.5 92.5q2 19 5.5 41t11.5 48q-16 -41 -34 -78.5t-39.5 -66.5t-49 -46t-63.5 -17q-28 0 -51.5 12t-37 39.5t-14 72t18.5 109.5l40 140v0zM203 694q0 32 22 55t54 23t55 -23t23 -55q0 -15 -6 -29t-16.5 -24.5t-25 -16.5t-30.5 -6q-32 0 -54 22.5
t-22 53.5zM433 694q0 32 23 55t55 23q16 0 30 -6t24.5 -16.5t16.5 -25t6 -30.5q0 -31 -22.5 -53.5t-54.5 -22.5q-16 0 -30.5 6t-25 16.5t-16.5 24.5t-6 29z" />
    <glyph glyph-name="yacute" unicode="&#xfd;" horiz-adv-x="570" 
d="M259 -13q-35 -66 -68.5 -107t-65.5 -63.5t-64 -30t-64 -7.5q-37 0 -70 11l34 143h6q17 -14 45.5 -23t64.5 -9q38 0 66.5 10.5t42.5 37.5l9 17l-103 494q-3 12 -4.5 21.5t-6 17t-13 13t-25.5 10.5l4 16h273l-4 -16q-18 -4 -29 -8.5t-17 -12t-6.5 -20t3.5 -33.5l48 -273
l115 221q14 27 22 48.5t8 37t-10 26t-33 14.5l4 16h182l-4 -16q-22 -6 -35.5 -11t-25 -15t-22.5 -26.5t-27 -46.5l-230 -436v0zM353 603h-14l115 169h190z" />
    <glyph glyph-name="thorn" unicode="&#xfe;" horiz-adv-x="584" 
d="M171 616q8 33 11.5 52.5t-0.5 29.5t-16.5 13.5t-37.5 4.5l4 16l252 71q-11 -39 -26 -94t-34 -130l-51 -189q27 72 69 115t99 43q54 0 87.5 -43.5t33.5 -123.5q0 -44 -11.5 -90.5t-32.5 -90.5t-50 -82.5t-64.5 -67.5t-76 -46t-83.5 -17q-19 0 -35 4t-30 11l-54 -218h-162z
M190 44q7 -9 17.5 -15t24.5 -6q22 0 42.5 18t38 47.5t31.5 68t23.5 80t15 82t5.5 75.5q0 26 -6.5 46.5t-24.5 20.5q-11 0 -26.5 -15.5t-33 -50t-37 -90.5t-39.5 -136z" />
    <glyph glyph-name="ydieresis" unicode="&#xff;" horiz-adv-x="570" 
d="M259 -13q-35 -66 -68.5 -107t-65.5 -63.5t-64 -30t-64 -7.5q-37 0 -70 11l34 143h6q17 -14 45.5 -23t64.5 -9q38 0 66.5 10.5t42.5 37.5l9 17l-103 494q-3 12 -4.5 21.5t-6 17t-13 13t-25.5 10.5l4 16h273l-4 -16q-18 -4 -29 -8.5t-17 -12t-6.5 -20t3.5 -33.5l48 -273
l115 221q14 27 22 48.5t8 37t-10 26t-33 14.5l4 16h182l-4 -16q-22 -6 -35.5 -11t-25 -15t-22.5 -26.5t-27 -46.5l-230 -436v0zM174 694q0 32 22 55t54 23t55 -23t23 -55q0 -15 -6 -29t-16.5 -24.5t-25 -16.5t-30.5 -6q-32 0 -54 22.5t-22 53.5zM404 694q0 32 23 55t55 23
q16 0 30 -6t24.5 -16.5t16.5 -25t6 -30.5q0 -31 -22.5 -53.5t-54.5 -22.5q-16 0 -30.5 6t-25 16.5t-16.5 24.5t-6 29z" />
    <glyph glyph-name="Abreve" unicode="&#x102;" 
d="M-74 16q22 4 39.5 11t36 24.5t41.5 50t57 86.5l324 528q28 5 57 17t48 32h4l82 -644q3 -27 7 -45t11.5 -30t19.5 -19t32 -11l-4 -16h-316l5 16q43 6 59 22t9 61l-16 141h-236l-10 -18q-42 -71 -56.5 -111t-11 -60t21 -26t40.5 -9l-5 -16h-243zM214 286h203l-31 288z
M486 791q-38 0 -62.5 12.5t-37.5 33t-15.5 45.5t3.5 50h49q-8 -47 7.5 -73t61.5 -26t75 26t44 73h53q-7 -26 -21.5 -51t-36.5 -45t-52 -32.5t-68 -12.5z" />
    <glyph glyph-name="Amacron" unicode="&#x100;" 
d="M-74 16q22 4 39.5 11t36 24.5t41.5 50t57 86.5l324 528q28 5 57 17t48 32h4l82 -644q3 -27 7 -45t11.5 -30t19.5 -19t32 -11l-4 -16h-316l5 16q43 6 59 22t9 61l-16 141h-236l-10 -18q-42 -71 -56.5 -111t-11 -60t21 -26t40.5 -9l-5 -16h-243zM214 286h203l-31 288z
M340 818l16 68h296l-16 -68h-296z" />
    <glyph glyph-name="Aogonek" unicode="&#x104;" 
d="M-74 16q22 4 39.5 11t36 24.5t41.5 50t57 86.5l324 528q28 5 57 17t48 32h4l82 -644q3 -27 7 -45t11.5 -30t19.5 -19t32 -11l-4 -16h-316l5 16q43 6 59 22t9 61l-16 141h-236l-10 -18q-42 -71 -56.5 -111t-11 -60t21 -26t40.5 -9l-5 -16h-243zM214 286h203l-31 288z
M587 -201q-25 -15 -54 -25t-58 -10q-34 0 -61 16.5t-27 54.5q0 31 19.5 59t49.5 51.5t65 42.5t65 34h12q-19 -12 -39 -29.5t-36.5 -39t-27 -46t-10.5 -49.5q0 -26 15 -42.5t43 -16.5q19 0 42 9z" />
    <glyph glyph-name="Cacute" unicode="&#x106;" horiz-adv-x="723" 
d="M668 470q-4 50 -10 92.5t-21.5 74t-44 49t-77.5 17.5q-47 0 -86.5 -22.5t-71 -60.5t-55.5 -87t-40 -101.5t-24 -105.5t-8 -98q0 -90 37 -139.5t116 -49.5q72 0 134.5 43t117.5 140l26 -15q-23 -49 -52.5 -89.5t-69 -69.5t-90.5 -45t-116 -16q-62 0 -116 19t-93.5 55.5
t-62 89t-22.5 118.5q0 104 41.5 191t110.5 149.5t157.5 97.5t182.5 35q60 0 111 -12.5t87 -29.5l-40 -230h-21v0zM480 793h-16l84 129h201z" />
    <glyph glyph-name="Ccaron" unicode="&#x10c;" horiz-adv-x="723" 
d="M668 470q-4 50 -10 92.5t-21.5 74t-44 49t-77.5 17.5q-47 0 -86.5 -22.5t-71 -60.5t-55.5 -87t-40 -101.5t-24 -105.5t-8 -98q0 -90 37 -139.5t116 -49.5q72 0 134.5 43t117.5 140l26 -15q-23 -49 -52.5 -89.5t-69 -69.5t-90.5 -45t-116 -16q-62 0 -116 19t-93.5 55.5
t-62 89t-22.5 118.5q0 104 41.5 191t110.5 149.5t157.5 97.5t182.5 35q60 0 111 -12.5t87 -29.5l-40 -230h-21v0zM515 793l-123 129h21l127 -46l155 46h23l-187 -129h-16z" />
    <glyph glyph-name="Ccircumflex" unicode="&#x108;" horiz-adv-x="723" 
d="M668 470q-4 50 -10 92.5t-21.5 74t-44 49t-77.5 17.5q-47 0 -86.5 -22.5t-71 -60.5t-55.5 -87t-40 -101.5t-24 -105.5t-8 -98q0 -90 37 -139.5t116 -49.5q72 0 134.5 43t117.5 140l26 -15q-23 -49 -52.5 -89.5t-69 -69.5t-90.5 -45t-116 -16q-62 0 -116 19t-93.5 55.5
t-62 89t-22.5 118.5q0 104 41.5 191t110.5 149.5t157.5 97.5t182.5 35q60 0 111 -12.5t87 -29.5l-40 -230h-21v0zM561 922l123 -129h-21l-127 46l-155 -46h-23l187 129h16z" />
    <glyph glyph-name="Cdotaccent" unicode="&#x10a;" horiz-adv-x="723" 
d="M668 470q-4 50 -10 92.5t-21.5 74t-44 49t-77.5 17.5q-47 0 -86.5 -22.5t-71 -60.5t-55.5 -87t-40 -101.5t-24 -105.5t-8 -98q0 -90 37 -139.5t116 -49.5q72 0 134.5 43t117.5 140l26 -15q-23 -49 -52.5 -89.5t-69 -69.5t-90.5 -45t-116 -16q-62 0 -116 19t-93.5 55.5
t-62 89t-22.5 118.5q0 104 41.5 191t110.5 149.5t157.5 97.5t182.5 35q60 0 111 -12.5t87 -29.5l-40 -230h-21v0zM457 866q0 32 22 54.5t54 22.5q16 0 30.5 -6t25 -16.5t16.5 -24.5t6 -30t-6 -30t-16.5 -24.5t-25 -16.5t-30.5 -6q-32 0 -54 22.5t-22 54.5z" />
    <glyph glyph-name="Dcaron" unicode="&#x10e;" horiz-adv-x="822" 
d="M415 725q79 0 150.5 -16t125.5 -50.5t86 -89t32 -131.5q0 -78 -23 -141t-63.5 -111.5t-94.5 -83.5t-116.5 -57.5t-130 -33.5t-134.5 -11h-292l3 16q34 4 55 10.5t34.5 20t22.5 37t19 62.5l108 433q10 38 13 61.5t-4 37t-25 20t-50 11.5l3 16h281zM265 36q84 0 149.5 35
t111 93.5t69 135.5t23.5 161q0 121 -45.5 174.5t-146.5 53.5h-25l-163 -653h27zM466 793l-123 129h21l127 -46l155 46h23l-187 -129h-16z" />
    <glyph glyph-name="Dcroat" unicode="&#x110;" horiz-adv-x="839" 
d="M432 725q79 0 150.5 -16t125.5 -50.5t86 -89t32 -131.5q0 -78 -23 -141t-63.5 -111.5t-94.5 -83.5t-116.5 -57.5t-130 -33.5t-134.5 -11h-292l3 16q34 4 55 10.5t34.5 20t22.5 37t19 62.5l51 206h-105l12 44h104l46 183q10 38 13 61.5t-4 37t-25 20t-50 11.5l3 16h281z
M282 36q84 0 149.5 35t111 93.5t69 135.5t23.5 161q0 121 -45.5 174.5t-146.5 53.5h-25l-73 -293h127l-12 -44h-126l-79 -316h27z" />
    <glyph glyph-name="Ebreve" unicode="&#x114;" horiz-adv-x="718" 
d="M478 725h127.5t130.5 2l-49 -267h-22q-2 58 -10 101.5t-33.5 71.5t-74 42t-131.5 14h-16l-73 -293h137l89 120h19l-71 -285h-19l-29 121h-137l-70 -279q-6 -24 4.5 -30.5t47.5 -6.5q63 0 111 14t87 42.5t71 71.5t63 101h22l-86 -267q-65 2 -136 2h-135h-340l3 16
q34 4 55 10.5t34.5 20t22.5 37t19 62.5l108 433q10 38 13 61.5t-4 37t-25 20t-50 11.5l3 16h344zM479 791q-38 0 -62.5 12.5t-37.5 33t-15.5 45.5t3.5 50h49q-8 -47 7.5 -73t61.5 -26t75 26t44 73h53q-7 -26 -21.5 -51t-36.5 -45t-52 -32.5t-68 -12.5z" />
    <glyph glyph-name="Ecaron" unicode="&#x11a;" horiz-adv-x="718" 
d="M478 725h127.5t130.5 2l-49 -267h-22q-2 58 -10 101.5t-33.5 71.5t-74 42t-131.5 14h-16l-73 -293h137l89 120h19l-71 -285h-19l-29 121h-137l-70 -279q-6 -24 4.5 -30.5t47.5 -6.5q63 0 111 14t87 42.5t71 71.5t63 101h22l-86 -267q-65 2 -136 2h-135h-340l3 16
q34 4 55 10.5t34.5 20t22.5 37t19 62.5l108 433q10 38 13 61.5t-4 37t-25 20t-50 11.5l3 16h344zM478 793l-123 129h21l127 -46l155 46h23l-187 -129h-16z" />
    <glyph glyph-name="Emacron" unicode="&#x112;" horiz-adv-x="718" 
d="M478 725h127.5t130.5 2l-49 -267h-22q-2 58 -10 101.5t-33.5 71.5t-74 42t-131.5 14h-16l-73 -293h137l89 120h19l-71 -285h-19l-29 121h-137l-70 -279q-6 -24 4.5 -30.5t47.5 -6.5q63 0 111 14t87 42.5t71 71.5t63 101h22l-86 -267q-65 2 -136 2h-135h-340l3 16
q34 4 55 10.5t34.5 20t22.5 37t19 62.5l108 433q10 38 13 61.5t-4 37t-25 20t-50 11.5l3 16h344zM359 818l16 68h296l-16 -68h-296z" />
    <glyph glyph-name="Eogonek" unicode="&#x118;" horiz-adv-x="718" 
d="M478 725h127.5t130.5 2l-49 -267h-22q-2 58 -10 101.5t-33.5 71.5t-74 42t-131.5 14h-16l-73 -293h137l89 120h19l-71 -285h-19l-29 121h-137l-70 -279q-6 -24 4.5 -30.5t47.5 -6.5q63 0 111 14t87 42.5t71 71.5t63 101h22l-86 -267q-65 2 -136 2h-135h-340l3 16
q34 4 55 10.5t34.5 20t22.5 37t19 62.5l108 433q10 38 13 61.5t-4 37t-25 20t-50 11.5l3 16h344zM505 -201q-25 -15 -54 -25t-58 -10q-34 0 -61 16.5t-27 54.5q0 31 19.5 59t49.5 51.5t65 42.5t65 34h12q-19 -12 -39 -29.5t-36.5 -39t-27 -46t-10.5 -49.5q0 -26 15 -42.5
t43 -16.5q19 0 42 9z" />
    <glyph glyph-name="Edotaccent" unicode="&#x116;" horiz-adv-x="718" 
d="M478 725h127.5t130.5 2l-49 -267h-22q-2 58 -10 101.5t-33.5 71.5t-74 42t-131.5 14h-16l-73 -293h137l89 120h19l-71 -285h-19l-29 121h-137l-70 -279q-6 -24 4.5 -30.5t47.5 -6.5q63 0 111 14t87 42.5t71 71.5t63 101h22l-86 -267q-65 2 -136 2h-135h-340l3 16
q34 4 55 10.5t34.5 20t22.5 37t19 62.5l108 433q10 38 13 61.5t-4 37t-25 20t-50 11.5l3 16h344zM411 866q0 32 22 54.5t54 22.5q16 0 30.5 -6t25 -16.5t16.5 -24.5t6 -30t-6 -30t-16.5 -24.5t-25 -16.5t-30.5 -6q-32 0 -54 22.5t-22 54.5z" />
    <glyph glyph-name="Gbreve" unicode="&#x11e;" horiz-adv-x="787" 
d="M360 -13q-76 0 -137.5 20t-105 57t-67 90t-23.5 119q0 95 38 180.5t105.5 149.5t161 101.5t204.5 37.5q22 0 50.5 -3t57.5 -8.5t56 -13t48 -17.5l-39 -230h-20q-4 50 -11.5 92.5t-25 74t-48 49t-79.5 17.5q-51 0 -93 -21t-76 -57t-60 -83.5t-43.5 -100t-26 -107.5
t-8.5 -106q0 -45 9.5 -82t29 -63.5t47.5 -41.5t66 -15q42 0 75.5 20.5t47.5 75.5l11 42q10 39 13 62.5t-5 37t-28.5 19.5t-56.5 11l5 18h349l-5 -18q-26 -4 -41 -8.5t-24.5 -17t-16.5 -36.5t-17 -68l-25 -100q-54 -37 -132.5 -57t-159.5 -20zM523 791q-38 0 -62.5 12.5
t-37.5 33t-15.5 45.5t3.5 50h49q-8 -47 7.5 -73t61.5 -26t75 26t44 73h53q-7 -26 -21.5 -51t-36.5 -45t-52 -32.5t-68 -12.5z" />
    <glyph glyph-name="Gcircumflex" unicode="&#x11c;" horiz-adv-x="787" 
d="M360 -13q-76 0 -137.5 20t-105 57t-67 90t-23.5 119q0 95 38 180.5t105.5 149.5t161 101.5t204.5 37.5q22 0 50.5 -3t57.5 -8.5t56 -13t48 -17.5l-39 -230h-20q-4 50 -11.5 92.5t-25 74t-48 49t-79.5 17.5q-51 0 -93 -21t-76 -57t-60 -83.5t-43.5 -100t-26 -107.5
t-8.5 -106q0 -45 9.5 -82t29 -63.5t47.5 -41.5t66 -15q42 0 75.5 20.5t47.5 75.5l11 42q10 39 13 62.5t-5 37t-28.5 19.5t-56.5 11l5 18h349l-5 -18q-26 -4 -41 -8.5t-24.5 -17t-16.5 -36.5t-17 -68l-25 -100q-54 -37 -132.5 -57t-159.5 -20zM562 922l123 -129h-21l-127 46
l-155 -46h-23l187 129h16z" />
    <glyph glyph-name="Gcommaaccent" unicode="&#x122;" horiz-adv-x="787" 
d="M360 -13q-76 0 -137.5 20t-105 57t-67 90t-23.5 119q0 95 38 180.5t105.5 149.5t161 101.5t204.5 37.5q22 0 50.5 -3t57.5 -8.5t56 -13t48 -17.5l-39 -230h-20q-4 50 -11.5 92.5t-25 74t-48 49t-79.5 17.5q-51 0 -93 -21t-76 -57t-60 -83.5t-43.5 -100t-26 -107.5
t-8.5 -106q0 -45 9.5 -82t29 -63.5t47.5 -41.5t66 -15q42 0 75.5 20.5t47.5 75.5l11 42q10 39 13 62.5t-5 37t-28.5 19.5t-56.5 11l5 18h349l-5 -18q-26 -4 -41 -8.5t-24.5 -17t-16.5 -36.5t-17 -68l-25 -100q-54 -37 -132.5 -57t-159.5 -20zM316 -187q-26 1 -46.5 19
t-20.5 46t20 47.5t49 19.5q30 0 47.5 -21t17.5 -54q0 -31 -14 -58.5t-38 -51t-56.5 -41.5t-69.5 -30l-5 10q17 9 37 21t37.5 26.5t29.5 31t12 35.5z" />
    <glyph glyph-name="Gdotaccent" unicode="&#x120;" horiz-adv-x="787" 
d="M360 -13q-76 0 -137.5 20t-105 57t-67 90t-23.5 119q0 95 38 180.5t105.5 149.5t161 101.5t204.5 37.5q22 0 50.5 -3t57.5 -8.5t56 -13t48 -17.5l-39 -230h-20q-4 50 -11.5 92.5t-25 74t-48 49t-79.5 17.5q-51 0 -93 -21t-76 -57t-60 -83.5t-43.5 -100t-26 -107.5
t-8.5 -106q0 -45 9.5 -82t29 -63.5t47.5 -41.5t66 -15q42 0 75.5 20.5t47.5 75.5l11 42q10 39 13 62.5t-5 37t-28.5 19.5t-56.5 11l5 18h349l-5 -18q-26 -4 -41 -8.5t-24.5 -17t-16.5 -36.5t-17 -68l-25 -100q-54 -37 -132.5 -57t-159.5 -20zM470 866q0 32 22 54.5t54 22.5
q16 0 30.5 -6t25 -16.5t16.5 -24.5t6 -30t-6 -30t-16.5 -24.5t-25 -16.5t-30.5 -6q-32 0 -54 22.5t-22 54.5z" />
    <glyph glyph-name="Hbar" unicode="&#x126;" horiz-adv-x="922" 
d="M826 560h100l-12 -45h-99l-92 -369q-9 -38 -12 -61t4 -37t25 -21t50 -11l-4 -16h-373l3 16q34 4 55 10.5t34.5 20t22.5 37t19 62.5l51 206h-262l-51 -206q-9 -38 -12 -61t4 -37t25 -21t50 -11l-4 -16h-373l3 16q34 4 55 10.5t34.5 20t22.5 37t19 62.5l92 369h-99l12 45
h98l5 19q10 38 13 61.5t-4 37t-25 20t-50 11.5l3 16h375l-4 -16q-34 -5 -55 -11t-35 -19.5t-23 -37t-19 -62.5l-5 -19h262l5 19q10 38 13 61.5t-4 37t-25 20t-50 11.5l3 16h375l-4 -16q-34 -5 -55 -11t-35 -19.5t-23 -37t-19 -62.5zM609 396l30 119h-262l-30 -119h262z" />
    <glyph glyph-name="Hcircumflex" unicode="&#x124;" horiz-adv-x="882" 
d="M703 146q-9 -38 -12 -61t4 -37t25 -21t50 -11l-4 -16h-373l3 16q34 4 55 10.5t34.5 20t22.5 37t19 62.5l51 206h-262l-51 -206q-9 -38 -12 -61t4 -37t25 -21t50 -11l-4 -16h-373l3 16q34 4 55 10.5t34.5 20t22.5 37t19 62.5l108 433q10 38 13 61.5t-4 37t-25 20t-50 11.5
l3 16h375l-4 -16q-34 -5 -55 -11t-35 -19.5t-23 -37t-19 -62.5l-46 -183h262l46 183q10 38 13 61.5t-4 37t-25 20t-50 11.5l3 16h375l-4 -16q-34 -5 -55 -11t-35 -19.5t-23 -37t-19 -62.5zM590 922l123 -129h-21l-127 46l-155 -46h-23l187 129h16z" />
    <glyph glyph-name="Ibreve" unicode="&#x12c;" horiz-adv-x="445" 
d="M265 146q-9 -38 -12 -61t4 -37t25 -21t50 -11l-4 -16h-373l3 16q34 4 55 10.5t34.5 20t22.5 37t19 62.5l108 433q10 38 13 61.5t-4 37t-25 20t-50 11.5l3 16h375l-4 -16q-34 -5 -55 -11t-35 -19.5t-23 -37t-19 -62.5zM337 791q-38 0 -62.5 12.5t-37.5 33t-15.5 45.5
t3.5 50h49q-8 -47 7.5 -73t61.5 -26t75 26t44 73h53q-7 -26 -21.5 -51t-36.5 -45t-52 -32.5t-68 -12.5z" />
    <glyph glyph-name="Idotaccent" unicode="&#x130;" horiz-adv-x="445" 
d="M265 146q-9 -38 -12 -61t4 -37t25 -21t50 -11l-4 -16h-373l3 16q34 4 55 10.5t34.5 20t22.5 37t19 62.5l108 433q10 38 13 61.5t-4 37t-25 20t-50 11.5l3 16h375l-4 -16q-34 -5 -55 -11t-35 -19.5t-23 -37t-19 -62.5zM275 866q0 32 22 54.5t54 22.5q16 0 30.5 -6
t25 -16.5t16.5 -24.5t6 -30t-6 -30t-16.5 -24.5t-25 -16.5t-30.5 -6q-32 0 -54 22.5t-22 54.5z" />
    <glyph glyph-name="Imacron" unicode="&#x12a;" horiz-adv-x="445" 
d="M265 146q-9 -38 -12 -61t4 -37t25 -21t50 -11l-4 -16h-373l3 16q34 4 55 10.5t34.5 20t22.5 37t19 62.5l108 433q10 38 13 61.5t-4 37t-25 20t-50 11.5l3 16h375l-4 -16q-34 -5 -55 -11t-35 -19.5t-23 -37t-19 -62.5zM193 818l16 68h296l-16 -68h-296z" />
    <glyph glyph-name="Iogonek" unicode="&#x12e;" horiz-adv-x="445" 
d="M265 146q-9 -38 -12 -61t4 -37t25 -21t50 -11l-4 -16h-373l3 16q34 4 55 10.5t34.5 20t22.5 37t19 62.5l108 433q10 38 13 61.5t-4 37t-25 20t-50 11.5l3 16h375l-4 -16q-34 -5 -55 -11t-35 -19.5t-23 -37t-19 -62.5zM187 -201q-25 -15 -54 -25t-58 -10q-34 0 -61 16.5
t-27 54.5q0 31 19.5 59t49.5 51.5t65 42.5t65 34h12q-19 -12 -39 -29.5t-36.5 -39t-27 -46t-10.5 -49.5q0 -26 15 -42.5t43 -16.5q19 0 42 9z" />
    <glyph glyph-name="Itilde" unicode="&#x128;" horiz-adv-x="445" 
d="M265 146q-9 -38 -12 -61t4 -37t25 -21t50 -11l-4 -16h-373l3 16q34 4 55 10.5t34.5 20t22.5 37t19 62.5l108 433q10 38 13 61.5t-4 37t-25 20t-50 11.5l3 16h375l-4 -16q-34 -5 -55 -11t-35 -19.5t-23 -37t-19 -62.5zM436 866q25 0 40.5 11.5t20.5 38.5h16
q0 -24 -5.5 -46.5t-17 -40.5t-29 -28.5t-41.5 -10.5q-25 0 -45 9.5t-38.5 21t-37.5 21t-42 9.5q-26 0 -41.5 -12t-20.5 -39h-16q0 24 5.5 47t17 41t29 28.5t41.5 10.5t44.5 -9.5t39.5 -21t38.5 -21t41.5 -9.5z" />
    <glyph glyph-name="uni1ECA" unicode="&#x1eca;" horiz-adv-x="445" 
d="M265 146q-9 -38 -12 -61t4 -37t25 -21t50 -11l-4 -16h-373l3 16q34 4 55 10.5t34.5 20t22.5 37t19 62.5l108 433q10 38 13 61.5t-4 37t-25 20t-50 11.5l3 16h375l-4 -16q-34 -5 -55 -11t-35 -19.5t-23 -37t-19 -62.5zM46 -150q0 16 6 30.5t16.5 25t24.5 16.5t30 6
q32 0 54.5 -23t22.5 -55q0 -31 -22.5 -53.5t-54.5 -22.5t-54.5 22.5t-22.5 53.5z" />
    <glyph glyph-name="Jcircumflex" unicode="&#x134;" horiz-adv-x="503" 
d="M367 231q-19 -75 -53.5 -122.5t-76.5 -74.5t-88.5 -37t-90.5 -10q-29 0 -62 4t-52 10l48 191h11q5 -24 12 -52.5t17 -54t23.5 -42.5t32.5 -17q12 0 23 4.5t22 23.5t24 57.5t30 106.5l90 361q9 37 12 60.5t-4 37.5t-25 20.5t-50 11.5l5 16h374l-4 -16q-34 -5 -55.5 -11
t-35 -19.5t-22.5 -37t-19 -62.5zM449 922l123 -129h-21l-127 46l-155 -46h-23l187 129h16z" />
    <glyph glyph-name="Kcommaaccent" unicode="&#x136;" horiz-adv-x="814" 
d="M265 146q-9 -38 -12 -61t4 -37t25 -21t50 -11l-4 -16h-373l3 16q34 4 55 10.5t34.5 20t22.5 37t19 62.5l108 433q10 38 13 61.5t-4 37t-25 20t-50 11.5l3 16h375l-4 -16q-34 -5 -55 -11t-35 -19.5t-23 -37t-19 -62.5zM573 573q79 69 87 101t-54 35l3 16h265l-3 -16
q-26 -3 -50 -10.5t-51 -23.5t-59.5 -40.5t-74.5 -60.5l-166 -141l162 -314q28 -55 56 -78.5t63 -24.5l-3 -16h-355l3 16q37 1 56 18t3 50l-137 272zM327 -187q-26 1 -46.5 19t-20.5 46t20 47.5t49 19.5q30 0 47.5 -21t17.5 -54q0 -31 -14 -58.5t-38 -51t-56.5 -41.5
t-69.5 -30l-5 10q17 9 37 21t37.5 26.5t29.5 31t12 35.5z" />
    <glyph glyph-name="Lacute" unicode="&#x139;" horiz-adv-x="651" 
d="M247 72q-5 -20 3.5 -28t22.5 -8q67 0 115.5 16t86.5 48t69 80.5t64 113.5h21l-92 -294h-582l3 16q34 4 55 10.5t34.5 20t22.5 37t19 62.5l108 433q10 38 13 61.5t-4 37t-25 20t-50 11.5l3 16h375l-4 -16q-34 -5 -55 -11t-35 -19.5t-23 -37t-19 -62.5zM290 793h-16l84 129
h201z" />
    <glyph glyph-name="Lcaron" unicode="&#x13d;" horiz-adv-x="651" 
d="M247 72q-5 -20 3.5 -28t22.5 -8q67 0 115.5 16t86.5 48t69 80.5t64 113.5h21l-92 -294h-582l3 16q34 4 55 10.5t34.5 20t22.5 37t19 62.5l108 433q10 38 13 61.5t-4 37t-25 20t-50 11.5l3 16h375l-4 -16q-34 -5 -55 -11t-35 -19.5t-23 -37t-19 -62.5zM615 611
q-26 1 -46.5 19t-20.5 46t20 47.5t49 19.5q30 0 47.5 -21t17.5 -54q0 -31 -14 -58.5t-38 -51t-56.5 -41.5t-69.5 -30l-5 10q17 9 37 21t37.5 26.5t29.5 31t12 35.5z" />
    <glyph glyph-name="Lcommaaccent" unicode="&#x13b;" horiz-adv-x="651" 
d="M247 72q-5 -20 3.5 -28t22.5 -8q67 0 115.5 16t86.5 48t69 80.5t64 113.5h21l-92 -294h-582l3 16q34 4 55 10.5t34.5 20t22.5 37t19 62.5l108 433q10 38 13 61.5t-4 37t-25 20t-50 11.5l3 16h375l-4 -16q-34 -5 -55 -11t-35 -19.5t-23 -37t-19 -62.5zM266 -187
q-26 1 -46.5 19t-20.5 46t20 47.5t49 19.5q30 0 47.5 -21t17.5 -54q0 -31 -14 -58.5t-38 -51t-56.5 -41.5t-69.5 -30l-5 10q17 9 37 21t37.5 26.5t29.5 31t12 35.5z" />
    <glyph glyph-name="Ldot" unicode="&#x13f;" horiz-adv-x="651" 
d="M453 452q0 32 22 54.5t54 22.5q16 0 30.5 -6t25 -16.5t16.5 -24.5t6 -30t-6 -30t-16.5 -24.5t-25 -16.5t-30.5 -6q-32 0 -54 22.5t-22 54.5zM247 72q-5 -20 3.5 -28t22.5 -8q67 0 115.5 16t86.5 48t69 80.5t64 113.5h21l-92 -294h-582l3 16q34 4 55 10.5t34.5 20t22.5 37
t19 62.5l108 433q10 38 13 61.5t-4 37t-25 20t-50 11.5l3 16h375l-4 -16q-34 -5 -55 -11t-35 -19.5t-23 -37t-19 -62.5z" />
    <glyph glyph-name="Lslash" unicode="&#x141;" horiz-adv-x="651" 
d="M341 452l84 39l20 -40l-118 -55l-80 -324q-5 -20 3.5 -28t22.5 -8q67 0 115.5 16t86.5 48t69 80.5t64 113.5h21l-92 -294h-582l3 16q34 4 55 10.5t34.5 20t22.5 37t19 62.5l39 157l-89 -41l-21 40l124 58l55 219q10 38 13 61.5t-4 37t-25 20t-50 11.5l3 16h375l-4 -16
q-34 -5 -55 -11t-35 -19.5t-23 -37t-19 -62.5z" />
    <glyph glyph-name="Nacute" unicode="&#x143;" horiz-adv-x="807" 
d="M715 579q9 37 12 60.5t-4 37.5t-25 20.5t-50 11.5l4 16h246l-3 -16q-34 -5 -55.5 -11t-35 -19.5t-22.5 -37t-19 -62.5l-144 -579h-149l-231 555l-102 -409q-9 -38 -12 -61t4 -37t25 -21t50 -11l-3 -16h-246l3 16q34 4 55 10.5t34.5 20t22.5 37t19 62.5l120 482l-1 4
q-17 40 -29 57t-29 23l4 13h208l244 -585l109 439v0zM513 793h-16l84 129h201z" />
    <glyph glyph-name="Ncaron" unicode="&#x147;" horiz-adv-x="807" 
d="M715 579q9 37 12 60.5t-4 37.5t-25 20.5t-50 11.5l4 16h246l-3 -16q-34 -5 -55.5 -11t-35 -19.5t-22.5 -37t-19 -62.5l-144 -579h-149l-231 555l-102 -409q-9 -38 -12 -61t4 -37t25 -21t50 -11l-3 -16h-246l3 16q34 4 55 10.5t34.5 20t22.5 37t19 62.5l120 482l-1 4
q-17 40 -29 57t-29 23l4 13h208l244 -585l109 439v0zM531 793l-123 129h21l127 -46l155 46h23l-187 -129h-16z" />
    <glyph glyph-name="Ncommaaccent" unicode="&#x145;" horiz-adv-x="807" 
d="M715 579q9 37 12 60.5t-4 37.5t-25 20.5t-50 11.5l4 16h246l-3 -16q-34 -5 -55.5 -11t-35 -19.5t-22.5 -37t-19 -62.5l-144 -579h-149l-231 555l-102 -409q-9 -38 -12 -61t4 -37t25 -21t50 -11l-3 -16h-246l3 16q34 4 55 10.5t34.5 20t22.5 37t19 62.5l120 482l-1 4
q-17 40 -29 57t-29 23l4 13h208l244 -585l109 439v0zM323 -187q-26 1 -46.5 19t-20.5 46t20 47.5t49 19.5q30 0 47.5 -21t17.5 -54q0 -31 -14 -58.5t-38 -51t-56.5 -41.5t-69.5 -30l-5 10q17 9 37 21t37.5 26.5t29.5 31t12 35.5z" />
    <glyph glyph-name="OE" unicode="&#x152;" horiz-adv-x="1144" 
d="M904 725h127.5t130.5 2l-50 -267h-21q-2 58 -10 101.5t-33.5 71.5t-74 42t-131.5 14h-16l-73 -293h137l89 120h19l-71 -285h-19l-29 121h-137l-70 -279q-4 -25 5.5 -31t46.5 -6q63 0 111 14t87 42.5t71 71.5t63 101h21l-85 -267q-65 2 -136 2h-136h-242l10 43
q-38 -26 -80 -41t-88 -15q-58 0 -109 19t-89.5 55.5t-61 89t-22.5 118.5q0 87 35 172t95.5 152t143 108t178.5 41q57 0 94 -22t60 -58l16 63h244zM229 228q0 -45 5.5 -82t18.5 -63.5t34 -41.5t52 -15q42 0 77 22.5t63.5 60.5t50.5 87t36.5 101.5t22 105.5t7.5 98t-6 82
t-19 63.5t-34.5 41.5t-51.5 15q-42 0 -77 -22.5t-63.5 -60.5t-50 -87t-36 -101.5t-22 -105.5t-7.5 -98z" />
    <glyph glyph-name="Obreve" unicode="&#x14e;" horiz-adv-x="814" 
d="M38 269q0 87 35 172t96.5 152t146 108t183.5 41q60 0 112 -19t91 -55t61.5 -88.5t22.5 -118.5q0 -88 -35 -173t-96.5 -152t-146 -108t-183.5 -41q-60 0 -112 19t-91 55.5t-61.5 89t-22.5 118.5zM229 228q0 -45 5.5 -82t18.5 -63.5t34 -41.5t52 -15q42 0 77 22.5
t63.5 60.5t50.5 87t36.5 101.5t22 105.5t7.5 98t-6 82t-19 63.5t-34.5 41.5t-51.5 15q-42 0 -77 -22.5t-63.5 -60.5t-50 -87t-36 -101.5t-22 -105.5t-7.5 -98zM519 791q-38 0 -62.5 12.5t-37.5 33t-15.5 45.5t3.5 50h49q-8 -47 7.5 -73t61.5 -26t75 26t44 73h53
q-7 -26 -21.5 -51t-36.5 -45t-52 -32.5t-68 -12.5z" />
    <glyph glyph-name="Ohungarumlaut" unicode="&#x150;" horiz-adv-x="814" 
d="M38 269q0 87 35 172t96.5 152t146 108t183.5 41q60 0 112 -19t91 -55t61.5 -88.5t22.5 -118.5q0 -88 -35 -173t-96.5 -152t-146 -108t-183.5 -41q-60 0 -112 19t-91 55.5t-61.5 89t-22.5 118.5zM229 228q0 -45 5.5 -82t18.5 -63.5t34 -41.5t52 -15q42 0 77 22.5
t63.5 60.5t50.5 87t36.5 101.5t22 105.5t7.5 98t-6 82t-19 63.5t-34.5 41.5t-51.5 15q-42 0 -77 -22.5t-63.5 -60.5t-50 -87t-36 -101.5t-22 -105.5t-7.5 -98zM609 793h-16l84 129h201zM382 793h-16l84 129h201z" />
    <glyph glyph-name="Omacron" unicode="&#x14c;" horiz-adv-x="814" 
d="M38 269q0 87 35 172t96.5 152t146 108t183.5 41q60 0 112 -19t91 -55t61.5 -88.5t22.5 -118.5q0 -88 -35 -173t-96.5 -152t-146 -108t-183.5 -41q-60 0 -112 19t-91 55.5t-61.5 89t-22.5 118.5zM229 228q0 -45 5.5 -82t18.5 -63.5t34 -41.5t52 -15q42 0 77 22.5
t63.5 60.5t50.5 87t36.5 101.5t22 105.5t7.5 98t-6 82t-19 63.5t-34.5 41.5t-51.5 15q-42 0 -77 -22.5t-63.5 -60.5t-50 -87t-36 -101.5t-22 -105.5t-7.5 -98zM367 818l16 68h296l-16 -68h-296z" />
    <glyph glyph-name="uni1ECC" unicode="&#x1ecc;" horiz-adv-x="814" 
d="M38 269q0 87 35 172t96.5 152t146 108t183.5 41q60 0 112 -19t91 -55t61.5 -88.5t22.5 -118.5q0 -88 -35 -173t-96.5 -152t-146 -108t-183.5 -41q-60 0 -112 19t-91 55.5t-61.5 89t-22.5 118.5zM229 228q0 -45 5.5 -82t18.5 -63.5t34 -41.5t52 -15q42 0 77 22.5
t63.5 60.5t50.5 87t36.5 101.5t22 105.5t7.5 98t-6 82t-19 63.5t-34.5 41.5t-51.5 15q-42 0 -77 -22.5t-63.5 -60.5t-50 -87t-36 -101.5t-22 -105.5t-7.5 -98zM203 -150q0 16 6 30.5t16.5 25t24.5 16.5t30 6q32 0 54.5 -23t22.5 -55q0 -31 -22.5 -53.5t-54.5 -22.5
t-54.5 22.5t-22.5 53.5z" />
    <glyph glyph-name="Racute" unicode="&#x154;" horiz-adv-x="796" 
d="M295 725h25.5t48.5 0.5t48 0.5h24q64 0 121 -7.5t99 -24.5t66.5 -45.5t24.5 -71.5q0 -47 -19 -81t-50.5 -58.5t-72.5 -40t-85 -24.5q17 -13 33 -41.5t35 -77.5l54 -147q10 -26 18 -42t18.5 -26t26 -14.5t39.5 -8.5l-3 -16h-256q-9 35 -21.5 72.5t-27.5 79.5l-71 193h-55
l-50 -199q-10 -38 -12.5 -61t5.5 -37t29 -21t58 -11l-3 -16h-387l3 16q34 4 55 10.5t34.5 20t22.5 37t19 62.5l108 433q10 40 12.5 63.5t-4.5 37t-25.5 19t-49.5 10.5l4 16h161zM401 690l-77 -308h27q48 0 87 11t67.5 35.5t44 63.5t15.5 95q0 57 -35.5 80t-101.5 23h-27z
M438 793h-16l84 129h201z" />
    <glyph glyph-name="Rcaron" unicode="&#x158;" horiz-adv-x="796" 
d="M295 725h25.5t48.5 0.5t48 0.5h24q64 0 121 -7.5t99 -24.5t66.5 -45.5t24.5 -71.5q0 -47 -19 -81t-50.5 -58.5t-72.5 -40t-85 -24.5q17 -13 33 -41.5t35 -77.5l54 -147q10 -26 18 -42t18.5 -26t26 -14.5t39.5 -8.5l-3 -16h-256q-9 35 -21.5 72.5t-27.5 79.5l-71 193h-55
l-50 -199q-10 -38 -12.5 -61t5.5 -37t29 -21t58 -11l-3 -16h-387l3 16q34 4 55 10.5t34.5 20t22.5 37t19 62.5l108 433q10 40 12.5 63.5t-4.5 37t-25.5 19t-49.5 10.5l4 16h161zM401 690l-77 -308h27q48 0 87 11t67.5 35.5t44 63.5t15.5 95q0 57 -35.5 80t-101.5 23h-27z
M466 793l-123 129h21l127 -46l155 46h23l-187 -129h-16z" />
    <glyph glyph-name="Rcommaaccent" unicode="&#x156;" horiz-adv-x="796" 
d="M295 725h25.5t48.5 0.5t48 0.5h24q64 0 121 -7.5t99 -24.5t66.5 -45.5t24.5 -71.5q0 -47 -19 -81t-50.5 -58.5t-72.5 -40t-85 -24.5q17 -13 33 -41.5t35 -77.5l54 -147q10 -26 18 -42t18.5 -26t26 -14.5t39.5 -8.5l-3 -16h-256q-9 35 -21.5 72.5t-27.5 79.5l-71 193h-55
l-50 -199q-10 -38 -12.5 -61t5.5 -37t29 -21t58 -11l-3 -16h-387l3 16q34 4 55 10.5t34.5 20t22.5 37t19 62.5l108 433q10 40 12.5 63.5t-4.5 37t-25.5 19t-49.5 10.5l4 16h161zM401 690l-77 -308h27q48 0 87 11t67.5 35.5t44 63.5t15.5 95q0 57 -35.5 80t-101.5 23h-27z
M361 -187q-26 1 -46.5 19t-20.5 46t20 47.5t49 19.5q30 0 47.5 -21t17.5 -54q0 -31 -14 -58.5t-38 -51t-56.5 -41.5t-69.5 -30l-5 10q17 9 37 21t37.5 26.5t29.5 31t12 35.5z" />
    <glyph glyph-name="Sacute" unicode="&#x15a;" horiz-adv-x="660" 
d="M584 240q0 -68 -32 -116t-83 -78.5t-114 -44.5t-125 -14q-80 0 -137 15t-98 38l59 241h19q1 -44 5.5 -89t20.5 -82t49 -60.5t92 -23.5q28 0 61 4t60.5 16.5t46 35.5t18.5 62q0 35 -23 63t-65 57l-92 64q-62 42 -96.5 86t-34.5 100q0 59 28.5 102t74 71t101.5 41.5
t112 13.5q25 0 55 -2.5t59 -7.5t56 -12.5t46 -16.5l-54 -214h-20q-3 34 -9 72t-21.5 69.5t-43.5 52t-76 20.5q-26 0 -53.5 -4t-50.5 -16t-38 -32.5t-15 -53.5q0 -29 15.5 -52t43.5 -43l102 -71q34 -24 63 -45t50 -43.5t32.5 -47t11.5 -55.5zM421 793h-16l84 129h201z" />
    <glyph glyph-name="Scaron" unicode="&#x160;" horiz-adv-x="660" 
d="M584 240q0 -68 -32 -116t-83 -78.5t-114 -44.5t-125 -14q-80 0 -137 15t-98 38l59 241h19q1 -44 5.5 -89t20.5 -82t49 -60.5t92 -23.5q28 0 61 4t60.5 16.5t46 35.5t18.5 62q0 35 -23 63t-65 57l-92 64q-62 42 -96.5 86t-34.5 100q0 59 28.5 102t74 71t101.5 41.5
t112 13.5q25 0 55 -2.5t59 -7.5t56 -12.5t46 -16.5l-54 -214h-20q-3 34 -9 72t-21.5 69.5t-43.5 52t-76 20.5q-26 0 -53.5 -4t-50.5 -16t-38 -32.5t-15 -53.5q0 -29 15.5 -52t43.5 -43l102 -71q34 -24 63 -45t50 -43.5t32.5 -47t11.5 -55.5zM442 793l-123 129h21l127 -46
l155 46h23l-187 -129h-16z" />
    <glyph glyph-name="Scedilla" unicode="&#x15e;" horiz-adv-x="660" 
d="M584 240q0 -68 -32 -116t-83 -78.5t-114 -44.5t-125 -14q-80 0 -137 15t-98 38l59 241h19q1 -44 5.5 -89t20.5 -82t49 -60.5t92 -23.5q28 0 61 4t60.5 16.5t46 35.5t18.5 62q0 35 -23 63t-65 57l-92 64q-62 42 -96.5 86t-34.5 100q0 59 28.5 102t74 71t101.5 41.5
t112 13.5q25 0 55 -2.5t59 -7.5t56 -12.5t46 -16.5l-54 -214h-20q-3 34 -9 72t-21.5 69.5t-43.5 52t-76 20.5q-26 0 -53.5 -4t-50.5 -16t-38 -32.5t-15 -53.5q0 -29 15.5 -52t43.5 -43l102 -71q34 -24 63 -45t50 -43.5t32.5 -47t11.5 -55.5zM224 3h37l-72 -86q11 5 22.5 7
t20.5 2q32 0 51.5 -19t19.5 -43q0 -25 -12 -44t-31.5 -31.5t-44.5 -19t-50 -6.5q-26 0 -49.5 6.5t-41.5 18.5l12 20q24 -12 59 -12q14 0 28 3t24.5 9.5t17 16.5t6.5 24q0 18 -15.5 27.5t-35.5 9.5q-21 0 -41 -10l-8 5z" />
    <glyph glyph-name="Scircumflex" unicode="&#x15c;" horiz-adv-x="660" 
d="M584 240q0 -68 -32 -116t-83 -78.5t-114 -44.5t-125 -14q-80 0 -137 15t-98 38l59 241h19q1 -44 5.5 -89t20.5 -82t49 -60.5t92 -23.5q28 0 61 4t60.5 16.5t46 35.5t18.5 62q0 35 -23 63t-65 57l-92 64q-62 42 -96.5 86t-34.5 100q0 59 28.5 102t74 71t101.5 41.5
t112 13.5q25 0 55 -2.5t59 -7.5t56 -12.5t46 -16.5l-54 -214h-20q-3 34 -9 72t-21.5 69.5t-43.5 52t-76 20.5q-26 0 -53.5 -4t-50.5 -16t-38 -32.5t-15 -53.5q0 -29 15.5 -52t43.5 -43l102 -71q34 -24 63 -45t50 -43.5t32.5 -47t11.5 -55.5zM486 922l123 -129h-21l-127 46
l-155 -46h-23l187 129h16z" />
    <glyph glyph-name="Scommaaccent" unicode="&#x218;" horiz-adv-x="660" 
d="M584 240q0 -68 -32 -116t-83 -78.5t-114 -44.5t-125 -14q-80 0 -137 15t-98 38l59 241h19q1 -44 5.5 -89t20.5 -82t49 -60.5t92 -23.5q28 0 61 4t60.5 16.5t46 35.5t18.5 62q0 35 -23 63t-65 57l-92 64q-62 42 -96.5 86t-34.5 100q0 59 28.5 102t74 71t101.5 41.5
t112 13.5q25 0 55 -2.5t59 -7.5t56 -12.5t46 -16.5l-54 -214h-20q-3 34 -9 72t-21.5 69.5t-43.5 52t-76 20.5q-26 0 -53.5 -4t-50.5 -16t-38 -32.5t-15 -53.5q0 -29 15.5 -52t43.5 -43l102 -71q34 -24 63 -45t50 -43.5t32.5 -47t11.5 -55.5zM227 -187q-26 1 -46.5 19
t-20.5 46t20 47.5t49 19.5q30 0 47.5 -21t17.5 -54q0 -31 -14 -58.5t-38 -51t-56.5 -41.5t-69.5 -30l-5 10q17 9 37 21t37.5 26.5t29.5 31t12 35.5z" />
    <glyph glyph-name="Tcaron" unicode="&#x164;" horiz-adv-x="721" 
d="M368 688q-54 0 -96.5 -15.5t-78 -46t-66 -75.5t-60.5 -103h-22l87 279q30 -1 64.5 -1.5t69.5 -0.5h69h64h130h132.5t135.5 2l-52 -279h-22q-2 58 -6.5 103t-22 75.5t-52.5 46t-98 15.5l-136 -542q-9 -38 -12 -61.5t5 -37t28 -20.5t56 -11l-4 -16h-397l5 16
q38 4 61.5 10.5t38.5 20t24 37t19 62.5zM465 793l-123 129h21l127 -46l155 46h23l-187 -129h-16z" />
    <glyph glyph-name="uni0162" unicode="&#x162;" horiz-adv-x="721" 
d="M368 688q-54 0 -96.5 -15.5t-78 -46t-66 -75.5t-60.5 -103h-22l87 279q30 -1 64.5 -1.5t69.5 -0.5h69h64h130h132.5t135.5 2l-52 -279h-22q-2 58 -6.5 103t-22 75.5t-52.5 46t-98 15.5l-136 -542q-9 -38 -12 -61.5t5 -37t28 -20.5t56 -11l-4 -16h-397l5 16
q38 4 61.5 10.5t38.5 20t24 37t19 62.5zM264 -187q-26 1 -46.5 19t-20.5 46t20 47.5t49 19.5q30 0 47.5 -21t17.5 -54q0 -31 -14 -58.5t-38 -51t-56.5 -41.5t-69.5 -30l-5 10q17 9 37 21t37.5 26.5t29.5 31t12 35.5z" />
    <glyph glyph-name="Tcommaaccent" unicode="&#x21a;" horiz-adv-x="721" 
d="M368 688q-54 0 -96.5 -15.5t-78 -46t-66 -75.5t-60.5 -103h-22l87 279q30 -1 64.5 -1.5t69.5 -0.5h69h64h130h132.5t135.5 2l-52 -279h-22q-2 58 -6.5 103t-22 75.5t-52.5 46t-98 15.5l-136 -542q-9 -38 -12 -61.5t5 -37t28 -20.5t56 -11l-4 -16h-397l5 16
q38 4 61.5 10.5t38.5 20t24 37t19 62.5zM264 -187q-26 1 -46.5 19t-20.5 46t20 47.5t49 19.5q30 0 47.5 -21t17.5 -54q0 -31 -14 -58.5t-38 -51t-56.5 -41.5t-69.5 -30l-5 10q17 9 37 21t37.5 26.5t29.5 31t12 35.5z" />
    <glyph glyph-name="Ubreve" unicode="&#x16c;" horiz-adv-x="830" 
d="M723 298q-21 -86 -57 -145.5t-83 -96t-103 -53t-119 -16.5q-72 0 -128 16t-90.5 50.5t-44.5 90t10 134.5l75 301q9 38 12 61.5t-4 37t-24.5 20t-49.5 11.5l4 16h375l-5 -16q-34 -5 -55 -11t-35 -19.5t-23 -37t-19 -62.5l-70 -281q-14 -60 -15.5 -105t13.5 -75t47 -45.5
t85 -15.5q103 0 162.5 60t88.5 178l70 284q9 38 12 61.5t-4 37t-24.5 20t-49.5 11.5l4 16h251l-4 -16q-34 -5 -55.5 -11t-35 -19.5t-22.5 -37t-19 -62.5zM593 791q-38 0 -62.5 12.5t-37.5 33t-15.5 45.5t3.5 50h49q-8 -47 7.5 -73t61.5 -26t75 26t44 73h53q-7 -26 -21.5 -51
t-36.5 -45t-52 -32.5t-68 -12.5z" />
    <glyph glyph-name="Uhungarumlaut" unicode="&#x170;" horiz-adv-x="830" 
d="M723 298q-21 -86 -57 -145.5t-83 -96t-103 -53t-119 -16.5q-72 0 -128 16t-90.5 50.5t-44.5 90t10 134.5l75 301q9 38 12 61.5t-4 37t-24.5 20t-49.5 11.5l4 16h375l-5 -16q-34 -5 -55 -11t-35 -19.5t-23 -37t-19 -62.5l-70 -281q-14 -60 -15.5 -105t13.5 -75t47 -45.5
t85 -15.5q103 0 162.5 60t88.5 178l70 284q9 38 12 61.5t-4 37t-24.5 20t-49.5 11.5l4 16h251l-4 -16q-34 -5 -55.5 -11t-35 -19.5t-22.5 -37t-19 -62.5zM663 793h-16l84 129h201zM436 793h-16l84 129h201z" />
    <glyph glyph-name="Umacron" unicode="&#x16a;" horiz-adv-x="830" 
d="M723 298q-21 -86 -57 -145.5t-83 -96t-103 -53t-119 -16.5q-72 0 -128 16t-90.5 50.5t-44.5 90t10 134.5l75 301q9 38 12 61.5t-4 37t-24.5 20t-49.5 11.5l4 16h375l-5 -16q-34 -5 -55 -11t-35 -19.5t-23 -37t-19 -62.5l-70 -281q-14 -60 -15.5 -105t13.5 -75t47 -45.5
t85 -15.5q103 0 162.5 60t88.5 178l70 284q9 38 12 61.5t-4 37t-24.5 20t-49.5 11.5l4 16h251l-4 -16q-34 -5 -55.5 -11t-35 -19.5t-22.5 -37t-19 -62.5zM445 818l16 68h296l-16 -68h-296z" />
    <glyph glyph-name="Uogonek" unicode="&#x172;" horiz-adv-x="830" 
d="M723 298q-21 -86 -57 -145.5t-83 -96t-103 -53t-119 -16.5q-72 0 -128 16t-90.5 50.5t-44.5 90t10 134.5l75 301q9 38 12 61.5t-4 37t-24.5 20t-49.5 11.5l4 16h375l-5 -16q-34 -5 -55 -11t-35 -19.5t-23 -37t-19 -62.5l-70 -281q-14 -60 -15.5 -105t13.5 -75t47 -45.5
t85 -15.5q103 0 162.5 60t88.5 178l70 284q9 38 12 61.5t-4 37t-24.5 20t-49.5 11.5l4 16h251l-4 -16q-34 -5 -55.5 -11t-35 -19.5t-22.5 -37t-19 -62.5zM383 -201q-25 -15 -54 -25t-58 -10q-34 0 -61 16.5t-27 54.5q0 31 19.5 59t49.5 51.5t65 42.5t65 34h12
q-19 -12 -39 -29.5t-36.5 -39t-27 -46t-10.5 -49.5q0 -26 15 -42.5t43 -16.5q19 0 42 9z" />
    <glyph glyph-name="Uring" unicode="&#x16e;" horiz-adv-x="830" 
d="M723 298q-21 -86 -57 -145.5t-83 -96t-103 -53t-119 -16.5q-72 0 -128 16t-90.5 50.5t-44.5 90t10 134.5l75 301q9 38 12 61.5t-4 37t-24.5 20t-49.5 11.5l4 16h375l-5 -16q-34 -5 -55 -11t-35 -19.5t-23 -37t-19 -62.5l-70 -281q-14 -60 -15.5 -105t13.5 -75t47 -45.5
t85 -15.5q103 0 162.5 60t88.5 178l70 284q9 38 12 61.5t-4 37t-24.5 20t-49.5 11.5l4 16h251l-4 -16q-34 -5 -55.5 -11t-35 -19.5t-22.5 -37t-19 -62.5zM493 886q0 21 8 39t22.5 31.5t33 21.5t39.5 8q22 0 40.5 -8t32.5 -21.5t22 -31.5t8 -39t-8 -39t-22 -31.5t-32.5 -21
t-40.5 -7.5q-21 0 -39.5 7.5t-33 21t-22.5 31.5t-8 39zM538 886q0 -26 16 -43t42 -17q28 0 43.5 17t15.5 43q0 27 -17.5 43.5t-41.5 16.5q-26 0 -42 -17t-16 -43z" />
    <glyph glyph-name="Utilde" unicode="&#x168;" horiz-adv-x="830" 
d="M723 298q-21 -86 -57 -145.5t-83 -96t-103 -53t-119 -16.5q-72 0 -128 16t-90.5 50.5t-44.5 90t10 134.5l75 301q9 38 12 61.5t-4 37t-24.5 20t-49.5 11.5l4 16h375l-5 -16q-34 -5 -55 -11t-35 -19.5t-23 -37t-19 -62.5l-70 -281q-14 -60 -15.5 -105t13.5 -75t47 -45.5
t85 -15.5q103 0 162.5 60t88.5 178l70 284q9 38 12 61.5t-4 37t-24.5 20t-49.5 11.5l4 16h251l-4 -16q-34 -5 -55.5 -11t-35 -19.5t-22.5 -37t-19 -62.5zM691 866q25 0 40.5 11.5t20.5 38.5h16q0 -24 -5.5 -46.5t-17 -40.5t-29 -28.5t-41.5 -10.5q-25 0 -45 9.5t-38.5 21
t-37.5 21t-42 9.5q-26 0 -41.5 -12t-20.5 -39h-16q0 24 5.5 47t17 41t29 28.5t41.5 10.5t44.5 -9.5t39.5 -21t38.5 -21t41.5 -9.5z" />
    <glyph glyph-name="uni1EE4" unicode="&#x1ee4;" horiz-adv-x="830" 
d="M723 298q-21 -86 -57 -145.5t-83 -96t-103 -53t-119 -16.5q-72 0 -128 16t-90.5 50.5t-44.5 90t10 134.5l75 301q9 38 12 61.5t-4 37t-24.5 20t-49.5 11.5l4 16h375l-5 -16q-34 -5 -55 -11t-35 -19.5t-23 -37t-19 -62.5l-70 -281q-14 -60 -15.5 -105t13.5 -75t47 -45.5
t85 -15.5q103 0 162.5 60t88.5 178l70 284q9 38 12 61.5t-4 37t-24.5 20t-49.5 11.5l4 16h251l-4 -16q-34 -5 -55.5 -11t-35 -19.5t-22.5 -37t-19 -62.5zM263 -150q0 16 6 30.5t16.5 25t24.5 16.5t30 6q32 0 54.5 -23t22.5 -55q0 -31 -22.5 -53.5t-54.5 -22.5t-54.5 22.5
t-22.5 53.5z" />
    <glyph glyph-name="Wacute" unicode="&#x1e82;" horiz-adv-x="1033" 
d="M1132 709q-23 -4 -41.5 -10t-38 -23t-41.5 -49.5t-50 -89.5l-263 -537h-137l-18 440l-213 -440h-137l-25 607q-2 28 -5.5 46t-11 29t-20 17t-31.5 10l3 16h320l-3 -16q-44 -6 -57.5 -24.5t-13.5 -55.5l5 -473l185 375l-3 87q-2 28 -5.5 44t-11 25.5t-20 13.5t-31.5 8
l3 16h320l-3 -16q-22 -3 -36 -7.5t-21.5 -12t-10.5 -19.5t-3 -30l5 -484l169 347q34 70 46 110t8 60t-20.5 26.5t-40.5 9.5l3 16h248zM619 793h-16l84 129h201z" />
    <glyph glyph-name="Wcircumflex" unicode="&#x174;" horiz-adv-x="1033" 
d="M1132 709q-23 -4 -41.5 -10t-38 -23t-41.5 -49.5t-50 -89.5l-263 -537h-137l-18 440l-213 -440h-137l-25 607q-2 28 -5.5 46t-11 29t-20 17t-31.5 10l3 16h320l-3 -16q-44 -6 -57.5 -24.5t-13.5 -55.5l5 -473l185 375l-3 87q-2 28 -5.5 44t-11 25.5t-20 13.5t-31.5 8
l3 16h320l-3 -16q-22 -3 -36 -7.5t-21.5 -12t-10.5 -19.5t-3 -30l5 -484l169 347q34 70 46 110t8 60t-20.5 26.5t-40.5 9.5l3 16h248zM687 922l123 -129h-21l-127 46l-155 -46h-23l187 129h16z" />
    <glyph glyph-name="Wdieresis" unicode="&#x1e84;" horiz-adv-x="1033" 
d="M1132 709q-23 -4 -41.5 -10t-38 -23t-41.5 -49.5t-50 -89.5l-263 -537h-137l-18 440l-213 -440h-137l-25 607q-2 28 -5.5 46t-11 29t-20 17t-31.5 10l3 16h320l-3 -16q-44 -6 -57.5 -24.5t-13.5 -55.5l5 -473l185 375l-3 87q-2 28 -5.5 44t-11 25.5t-20 13.5t-31.5 8
l3 16h320l-3 -16q-22 -3 -36 -7.5t-21.5 -12t-10.5 -19.5t-3 -30l5 -484l169 347q34 70 46 110t8 60t-20.5 26.5t-40.5 9.5l3 16h248zM682 859q0 27 19.5 47t47.5 20q27 0 46.5 -20t19.5 -47t-19.5 -46t-46.5 -19q-28 0 -47.5 19t-19.5 46zM460 859q0 27 19 47t45 20
q29 0 48.5 -20t19.5 -47t-19.5 -46t-48.5 -19q-26 0 -45 19t-19 46z" />
    <glyph glyph-name="Wgrave" unicode="&#x1e80;" horiz-adv-x="1033" 
d="M1132 709q-23 -4 -41.5 -10t-38 -23t-41.5 -49.5t-50 -89.5l-263 -537h-137l-18 440l-213 -440h-137l-25 607q-2 28 -5.5 46t-11 29t-20 17t-31.5 10l3 16h320l-3 -16q-44 -6 -57.5 -24.5t-13.5 -55.5l5 -473l185 375l-3 87q-2 28 -5.5 44t-11 25.5t-20 13.5t-31.5 8
l3 16h320l-3 -16q-22 -3 -36 -7.5t-21.5 -12t-10.5 -19.5t-3 -30l5 -484l169 347q34 70 46 110t8 60t-20.5 26.5t-40.5 9.5l3 16h248zM684 922l20 -129h-16l-205 129h201z" />
    <glyph glyph-name="Ycircumflex" unicode="&#x176;" 
d="M410 146q-10 -39 -12.5 -62.5t6 -37t29 -20t55.5 -10.5l-4 -16h-396l3 16q38 4 61.5 10.5t38.5 20t24 37t19 62.5l35 140l-102 332q-9 27 -15 44t-12.5 26.5t-16 13.5t-24.5 7l3 16h320l-3 -16q-45 -6 -62.5 -19.5t-8.5 -49.5l86 -299l188 217q37 44 54 71.5t16.5 44
t-17 24t-44.5 11.5l3 16h228l-3 -16q-20 -4 -34.5 -9t-33 -19.5t-45.5 -43.5t-72 -81l-227 -262l-37 -148v0zM567 922l123 -129h-21l-127 46l-155 -46h-23l187 129h16z" />
    <glyph glyph-name="Ydieresis" unicode="&#x178;" 
d="M410 146q-10 -39 -12.5 -62.5t6 -37t29 -20t55.5 -10.5l-4 -16h-396l3 16q38 4 61.5 10.5t38.5 20t24 37t19 62.5l35 140l-102 332q-9 27 -15 44t-12.5 26.5t-16 13.5t-24.5 7l3 16h320l-3 -16q-45 -6 -62.5 -19.5t-8.5 -49.5l86 -299l188 217q37 44 54 71.5t16.5 44
t-17 24t-44.5 11.5l3 16h228l-3 -16q-20 -4 -34.5 -9t-33 -19.5t-45.5 -43.5t-72 -81l-227 -262l-37 -148v0zM598 859q0 27 19.5 47t47.5 20q27 0 46.5 -20t19.5 -47t-19.5 -46t-46.5 -19q-28 0 -47.5 19t-19.5 46zM376 859q0 27 19 47t45 20q29 0 48.5 -20t19.5 -47
t-19.5 -46t-48.5 -19q-26 0 -45 19t-19 46z" />
    <glyph glyph-name="Ygrave" unicode="&#x1ef2;" 
d="M410 146q-10 -39 -12.5 -62.5t6 -37t29 -20t55.5 -10.5l-4 -16h-396l3 16q38 4 61.5 10.5t38.5 20t24 37t19 62.5l35 140l-102 332q-9 27 -15 44t-12.5 26.5t-16 13.5t-24.5 7l3 16h320l-3 -16q-45 -6 -62.5 -19.5t-8.5 -49.5l86 -299l188 217q37 44 54 71.5t16.5 44
t-17 24t-44.5 11.5l3 16h228l-3 -16q-20 -4 -34.5 -9t-33 -19.5t-45.5 -43.5t-72 -81l-227 -262l-37 -148v0zM573 922l20 -129h-16l-205 129h201z" />
    <glyph glyph-name="uni0232" unicode="&#x232;" 
d="M410 146q-10 -39 -12.5 -62.5t6 -37t29 -20t55.5 -10.5l-4 -16h-396l3 16q38 4 61.5 10.5t38.5 20t24 37t19 62.5l35 140l-102 332q-9 27 -15 44t-12.5 26.5t-16 13.5t-24.5 7l3 16h320l-3 -16q-45 -6 -62.5 -19.5t-8.5 -49.5l86 -299l188 217q37 44 54 71.5t16.5 44
t-17 24t-44.5 11.5l3 16h228l-3 -16q-20 -4 -34.5 -9t-33 -19.5t-45.5 -43.5t-72 -81l-227 -262l-37 -148v0zM402 818l16 68h296l-16 -68h-296z" />
    <glyph glyph-name="Zacute" unicode="&#x179;" horiz-adv-x="706" 
d="M262 36q75 0 128 14t92.5 42t70.5 71t61 102h21l-84 -267q-60 2 -122 2h-122h-342l3 13l563 676h-46q-83 0 -137 -14t-91.5 -42t-65.5 -71.5t-58 -101.5h-22l84 267q61 -2 123 -2h122h320l-3 -13l-564 -676h69zM447 793h-16l84 129h201z" />
    <glyph glyph-name="Zcaron" unicode="&#x17d;" horiz-adv-x="706" 
d="M262 36q75 0 128 14t92.5 42t70.5 71t61 102h21l-84 -267q-60 2 -122 2h-122h-342l3 13l563 676h-46q-83 0 -137 -14t-91.5 -42t-65.5 -71.5t-58 -101.5h-22l84 267q61 -2 123 -2h122h320l-3 -13l-564 -676h69zM485 793l-123 129h21l127 -46l155 46h23l-187 -129h-16z
" />
    <glyph glyph-name="Zdotaccent" unicode="&#x17b;" horiz-adv-x="706" 
d="M262 36q75 0 128 14t92.5 42t70.5 71t61 102h21l-84 -267q-60 2 -122 2h-122h-342l3 13l563 676h-46q-83 0 -137 -14t-91.5 -42t-65.5 -71.5t-58 -101.5h-22l84 267q61 -2 123 -2h122h320l-3 -13l-564 -676h69zM437 866q0 32 22 54.5t54 22.5q16 0 30.5 -6t25 -16.5
t16.5 -24.5t6 -30t-6 -30t-16.5 -24.5t-25 -16.5t-30.5 -6q-32 0 -54 22.5t-22 54.5z" />
    <glyph glyph-name="abreve" unicode="&#x103;" horiz-adv-x="620" 
d="M143 -13q-54 0 -87.5 43t-33.5 123q0 44 11.5 90.5t32.5 90.5t50.5 82.5t65 67.5t76 46t84.5 17q23 0 41 -5.5t34 -16.5l158 22q-11 -39 -25.5 -94.5t-34.5 -130.5l-51 -205q-2 -12 -3 -23.5t1.5 -20t7.5 -14t15 -5.5q13 0 28 8.5t29 22.5t27.5 32t25.5 37l16 -9
q-43 -84 -92 -121t-95 -37q-55 0 -85.5 28.5t-30.5 84.5q0 20 3 43q-27 -72 -68.5 -114t-99.5 -42zM227 73q12 0 27 16t33 51t38 90.5t40 135.5l30 123q-7 9 -17.5 15.5t-23.5 6.5q-23 0 -43.5 -18t-38 -48t-31.5 -68.5t-23.5 -79.5t-15 -82t-5.5 -75q0 -26 6 -46.5
t24 -20.5zM417 663q46 0 75 26t44 73h53q-7 -26 -21.5 -51t-36.5 -45t-52 -32.5t-68 -12.5t-62.5 12.5t-37.5 33t-15.5 45.5t3.5 50h49q-8 -47 7.5 -73t61.5 -26z" />
    <glyph glyph-name="amacron" unicode="&#x101;" horiz-adv-x="620" 
d="M143 -13q-54 0 -87.5 43t-33.5 123q0 44 11.5 90.5t32.5 90.5t50.5 82.5t65 67.5t76 46t84.5 17q23 0 41 -5.5t34 -16.5l158 22q-11 -39 -25.5 -94.5t-34.5 -130.5l-51 -205q-2 -12 -3 -23.5t1.5 -20t7.5 -14t15 -5.5q13 0 28 8.5t29 22.5t27.5 32t25.5 37l16 -9
q-43 -84 -92 -121t-95 -37q-55 0 -85.5 28.5t-30.5 84.5q0 20 3 43q-27 -72 -68.5 -114t-99.5 -42zM227 73q12 0 27 16t33 51t38 90.5t40 135.5l30 123q-7 9 -17.5 15.5t-23.5 6.5q-23 0 -43.5 -18t-38 -48t-31.5 -68.5t-23.5 -79.5t-15 -82t-5.5 -75q0 -26 6 -46.5
t24 -20.5zM250 665l16 68h321l-16 -68h-321z" />
    <glyph glyph-name="aogonek" unicode="&#x105;" horiz-adv-x="620" 
d="M143 -13q-54 0 -87.5 43t-33.5 123q0 44 11.5 90.5t32.5 90.5t50.5 82.5t65 67.5t76 46t84.5 17q23 0 41 -5.5t34 -16.5l158 22q-11 -39 -25.5 -94.5t-34.5 -130.5l-51 -205q-2 -12 -3 -23.5t1.5 -20t7.5 -14t15 -5.5q13 0 28 8.5t29 22.5t27.5 32t25.5 37l16 -9
q-43 -84 -92 -121t-95 -37q-55 0 -85.5 28.5t-30.5 84.5q0 20 3 43q-27 -72 -68.5 -114t-99.5 -42zM227 73q12 0 27 16t33 51t38 90.5t40 135.5l30 123q-7 9 -17.5 15.5t-23.5 6.5q-23 0 -43.5 -18t-38 -48t-31.5 -68.5t-23.5 -79.5t-15 -82t-5.5 -75q0 -26 6 -46.5
t24 -20.5zM467 -201q-25 -15 -54 -25t-58 -10q-34 0 -61 16.5t-27 54.5q0 31 19.5 59t49.5 51.5t65 42.5t65 34h12q-19 -12 -39 -29.5t-36.5 -39t-27 -46t-10.5 -49.5q0 -26 15 -42.5t43 -16.5q19 0 42 9z" />
    <glyph glyph-name="cacute" unicode="&#x107;" horiz-adv-x="496" 
d="M22 166q0 78 27 147.5t72 121t103 82t121 30.5q44 0 72 -14t44 -38.5t20.5 -57t1.5 -69.5h-143q7 21 15 46t10.5 47t-3.5 36.5t-28 14.5q-33 0 -59 -33t-44 -81t-28 -101.5t-10 -95.5q0 -49 19.5 -78.5t57.5 -29.5q14 0 33.5 5t41 19t43 39t39.5 66l19 -8
q-18 -47 -43 -88t-58 -72t-75 -49t-94 -18q-40 0 -69 13.5t-48 37.5t-28 57t-9 71zM317 603h-14l115 169h190z" />
    <glyph glyph-name="ccaron" unicode="&#x10d;" horiz-adv-x="496" 
d="M22 166q0 78 27 147.5t72 121t103 82t121 30.5q44 0 72 -14t44 -38.5t20.5 -57t1.5 -69.5h-143q7 21 15 46t10.5 47t-3.5 36.5t-28 14.5q-33 0 -59 -33t-44 -81t-28 -101.5t-10 -95.5q0 -49 19.5 -78.5t57.5 -29.5q14 0 33.5 5t41 19t43 39t39.5 66l19 -8
q-18 -47 -43 -88t-58 -72t-75 -49t-94 -18q-40 0 -69 13.5t-48 37.5t-28 57t-9 71zM222 772h17l130 -71l180 71h16l-206 -169h-14z" />
    <glyph glyph-name="ccircumflex" unicode="&#x109;" horiz-adv-x="496" 
d="M22 166q0 78 27 147.5t72 121t103 82t121 30.5q44 0 72 -14t44 -38.5t20.5 -57t1.5 -69.5h-143q7 21 15 46t10.5 47t-3.5 36.5t-28 14.5q-33 0 -59 -33t-44 -81t-28 -101.5t-10 -95.5q0 -49 19.5 -78.5t57.5 -29.5q14 0 33.5 5t41 19t43 39t39.5 66l19 -8
q-18 -47 -43 -88t-58 -72t-75 -49t-94 -18q-40 0 -69 13.5t-48 37.5t-28 57t-9 71zM521 603h-17l-130 71l-180 -71h-16l206 169h14z" />
    <glyph glyph-name="cdotaccent" unicode="&#x10b;" horiz-adv-x="496" 
d="M22 166q0 78 27 147.5t72 121t103 82t121 30.5q44 0 72 -14t44 -38.5t20.5 -57t1.5 -69.5h-143q7 21 15 46t10.5 47t-3.5 36.5t-28 14.5q-33 0 -59 -33t-44 -81t-28 -101.5t-10 -95.5q0 -49 19.5 -78.5t57.5 -29.5q14 0 33.5 5t41 19t43 39t39.5 66l19 -8
q-18 -47 -43 -88t-58 -72t-75 -49t-94 -18q-40 0 -69 13.5t-48 37.5t-28 57t-9 71zM302 694q0 16 6 30.5t16.5 25t24.5 16.5t30 6q32 0 54.5 -23t22.5 -55q0 -31 -22.5 -53.5t-54.5 -22.5t-54.5 22.5t-22.5 53.5z" />
    <glyph glyph-name="dcaron" unicode="&#x10f;" horiz-adv-x="734" 
d="M427 616q8 33 11.5 52.5t0 29.5t-16.5 13.5t-38 4.5l4 16l252 71q-11 -39 -26 -94t-34 -130l-116 -460q-5 -25 -2 -45t23 -20q13 0 28 8.5t29 22.5t27.5 32t25.5 37l16 -9q-43 -84 -92 -121t-95 -37q-56 0 -85 29t-31 84q0 20 3 43q-27 -72 -68.5 -114t-99.5 -42
q-54 0 -87.5 43.5t-33.5 123.5q0 45 11.5 91t32.5 89.5t50.5 82t64.5 67t75.5 45t84.5 16.5q38 0 65 -14zM227 73q12 0 27 16t33 51t37.5 90.5t39.5 135.5l31 122q-7 10 -17.5 16.5t-24.5 6.5q-23 0 -43.5 -18t-37.5 -47.5t-31 -68t-24 -79.5t-15 -82t-5 -75q0 -26 6 -47
t24 -21zM746 640q-26 1 -46.5 19t-20.5 46t20 47.5t49 19.5q30 0 47.5 -21t17.5 -54q0 -31 -14 -58.5t-38 -51t-56.5 -41.5t-69.5 -30l-5 10q17 9 37 21t37.5 26.5t29.5 31t12 35.5z" />
    <glyph glyph-name="dcroat" unicode="&#x111;" horiz-adv-x="643" 
d="M431 633q6 27 8 43t-2.5 24.5t-17 11.5t-35.5 4l4 16l252 71q-9 -32 -21 -74t-26 -96h117l-12 -50h-117q-1 -2 -1 -4l-116 -460q-5 -25 -2 -45t23 -20q13 0 28 8.5t29 22.5t27.5 32t25.5 37l16 -9q-43 -84 -92 -121t-95 -37q-56 0 -85 29t-31 84q0 20 3 43
q-27 -72 -68.5 -114t-99.5 -42q-54 0 -87.5 43.5t-33.5 123.5q0 45 11.5 91t32.5 89.5t50.5 82t64.5 67t75.5 45t84.5 16.5q38 0 65 -14l13 52h-110l12 50h110zM227 73q12 0 27 16t33 51t37.5 90.5t39.5 135.5l31 122q-7 10 -17.5 16.5t-24.5 6.5q-23 0 -43.5 -18
t-37.5 -47.5t-31 -68t-24 -79.5t-15 -82t-5 -75q0 -26 6 -47t24 -21z" />
    <glyph glyph-name="ebreve" unicode="&#x115;" horiz-adv-x="507" 
d="M22 166q0 78 27 147.5t72.5 121t107 82t130.5 30.5q27 0 52.5 -6t45.5 -18.5t32.5 -31.5t12.5 -46q0 -50 -32 -80.5t-90 -44.5l-186 -47q-6 -39 -6 -73q0 -49 20 -78t61 -29q14 0 33 4.5t40.5 18t43.5 39t42 67.5l19 -8q-18 -47 -43 -88t-58 -72t-75 -49t-94 -18
q-40 0 -69 13.5t-48 37.5t-28.5 57t-9.5 71zM328 512q-22 0 -41.5 -18.5t-36 -47.5t-29.5 -66.5t-21 -74.5l35 9q35 9 59 26t38.5 38t20.5 44t6 45q0 19 -6.5 32t-24.5 13zM375 663q46 0 75 26t44 73h53q-7 -26 -21.5 -51t-36.5 -45t-52 -32.5t-68 -12.5t-62.5 12.5
t-37.5 33t-15.5 45.5t3.5 50h49q-8 -47 7.5 -73t61.5 -26z" />
    <glyph glyph-name="ecaron" unicode="&#x11b;" horiz-adv-x="507" 
d="M22 166q0 78 27 147.5t72.5 121t107 82t130.5 30.5q27 0 52.5 -6t45.5 -18.5t32.5 -31.5t12.5 -46q0 -50 -32 -80.5t-90 -44.5l-186 -47q-6 -39 -6 -73q0 -49 20 -78t61 -29q14 0 33 4.5t40.5 18t43.5 39t42 67.5l19 -8q-18 -47 -43 -88t-58 -72t-75 -49t-94 -18
q-40 0 -69 13.5t-48 37.5t-28.5 57t-9.5 71zM328 512q-22 0 -41.5 -18.5t-36 -47.5t-29.5 -66.5t-21 -74.5l35 9q35 9 59 26t38.5 38t20.5 44t6 45q0 19 -6.5 32t-24.5 13zM235 772h17l130 -71l180 71h16l-206 -169h-14z" />
    <glyph glyph-name="emacron" unicode="&#x113;" horiz-adv-x="507" 
d="M22 166q0 78 27 147.5t72.5 121t107 82t130.5 30.5q27 0 52.5 -6t45.5 -18.5t32.5 -31.5t12.5 -46q0 -50 -32 -80.5t-90 -44.5l-186 -47q-6 -39 -6 -73q0 -49 20 -78t61 -29q14 0 33 4.5t40.5 18t43.5 39t42 67.5l19 -8q-18 -47 -43 -88t-58 -72t-75 -49t-94 -18
q-40 0 -69 13.5t-48 37.5t-28.5 57t-9.5 71zM328 512q-22 0 -41.5 -18.5t-36 -47.5t-29.5 -66.5t-21 -74.5l35 9q35 9 59 26t38.5 38t20.5 44t6 45q0 19 -6.5 32t-24.5 13zM212 665l16 68h321l-16 -68h-321z" />
    <glyph glyph-name="eogonek" unicode="&#x119;" horiz-adv-x="507" 
d="M22 166q0 78 27 147.5t72.5 121t107 82t130.5 30.5q27 0 52.5 -6t45.5 -18.5t32.5 -31.5t12.5 -46q0 -50 -32 -80.5t-90 -44.5l-186 -47q-6 -39 -6 -73q0 -49 20 -78t61 -29q14 0 33 4.5t40.5 18t43.5 39t42 67.5l19 -8q-18 -47 -43 -88t-58 -72t-75 -49t-94 -18
q-40 0 -69 13.5t-48 37.5t-28.5 57t-9.5 71zM328 512q-22 0 -41.5 -18.5t-36 -47.5t-29.5 -66.5t-21 -74.5l35 9q35 9 59 26t38.5 38t20.5 44t6 45q0 19 -6.5 32t-24.5 13zM294 -201q-25 -15 -54 -25t-58 -10q-34 0 -61 16.5t-27 54.5q0 31 19.5 59t49.5 51.5t65 42.5t65 34
h12q-19 -12 -39 -29.5t-36.5 -39t-27 -46t-10.5 -49.5q0 -26 15 -42.5t43 -16.5q19 0 42 9z" />
    <glyph glyph-name="edotaccent" unicode="&#x117;" horiz-adv-x="507" 
d="M22 166q0 78 27 147.5t72.5 121t107 82t130.5 30.5q27 0 52.5 -6t45.5 -18.5t32.5 -31.5t12.5 -46q0 -50 -32 -80.5t-90 -44.5l-186 -47q-6 -39 -6 -73q0 -49 20 -78t61 -29q14 0 33 4.5t40.5 18t43.5 39t42 67.5l19 -8q-18 -47 -43 -88t-58 -72t-75 -49t-94 -18
q-40 0 -69 13.5t-48 37.5t-28.5 57t-9.5 71zM328 512q-22 0 -41.5 -18.5t-36 -47.5t-29.5 -66.5t-21 -74.5l35 9q35 9 59 26t38.5 38t20.5 44t6 45q0 19 -6.5 32t-24.5 13zM308 694q0 16 6 30.5t16.5 25t24.5 16.5t30 6q32 0 54.5 -23t22.5 -55q0 -31 -22.5 -53.5
t-54.5 -22.5t-54.5 22.5t-22.5 53.5z" />
    <glyph glyph-name="gbreve" unicode="&#x11f;" horiz-adv-x="603" 
d="M76 325q0 41 21 81t58.5 71.5t89.5 50.5t114 19q35 0 65 -9h210l-12 -50l-124 5q16 -17 25 -40t9 -50q0 -42 -21 -81.5t-58.5 -71t-89.5 -50.5t-114 -19q-40 0 -70 10q-7 -4 -16.5 -9.5t-17.5 -12t-14 -14t-6 -14.5q0 -17 47 -23l146 -21q40 -6 75 -15t60 -23.5
t39.5 -35.5t14.5 -50q0 -48 -33 -85t-84.5 -62.5t-115.5 -38.5t-126 -13q-41 0 -79.5 6t-68 18.5t-47 31t-17.5 43.5q0 29 18 47.5t44.5 30t55.5 18t52 10.5q-47 13 -67 38t-20 50q0 23 12.5 43t32 36.5t42.5 30.5t45 26q-35 18 -55 49t-20 73zM136 -27l-10 2l3 -1
q-15 -5 -30.5 -12.5t-28 -18.5t-20.5 -25.5t-8 -32.5t12 -31t31.5 -22t45.5 -13t53 -4q34 0 67.5 6t60.5 17t44 27t17 37q0 24 -30 34.5t-84 18.5zM392 433q0 43 -12.5 61.5t-39.5 18.5q-28 0 -51 -19.5t-39 -51t-24.5 -70.5t-8.5 -78q0 -42 13 -60.5t39 -18.5q28 0 51 20
t39 51.5t24.5 70t8.5 76.5zM382 663q46 0 75 26t44 73h53q-7 -26 -21.5 -51t-36.5 -45t-52 -32.5t-68 -12.5t-62.5 12.5t-37.5 33t-15.5 45.5t3.5 50h49q-8 -47 7.5 -73t61.5 -26z" />
    <glyph glyph-name="gcircumflex" unicode="&#x11d;" horiz-adv-x="603" 
d="M76 325q0 41 21 81t58.5 71.5t89.5 50.5t114 19q35 0 65 -9h210l-12 -50l-124 5q16 -17 25 -40t9 -50q0 -42 -21 -81.5t-58.5 -71t-89.5 -50.5t-114 -19q-40 0 -70 10q-7 -4 -16.5 -9.5t-17.5 -12t-14 -14t-6 -14.5q0 -17 47 -23l146 -21q40 -6 75 -15t60 -23.5
t39.5 -35.5t14.5 -50q0 -48 -33 -85t-84.5 -62.5t-115.5 -38.5t-126 -13q-41 0 -79.5 6t-68 18.5t-47 31t-17.5 43.5q0 29 18 47.5t44.5 30t55.5 18t52 10.5q-47 13 -67 38t-20 50q0 23 12.5 43t32 36.5t42.5 30.5t45 26q-35 18 -55 49t-20 73zM136 -27l-10 2l3 -1
q-15 -5 -30.5 -12.5t-28 -18.5t-20.5 -25.5t-8 -32.5t12 -31t31.5 -22t45.5 -13t53 -4q34 0 67.5 6t60.5 17t44 27t17 37q0 24 -30 34.5t-84 18.5zM392 433q0 43 -12.5 61.5t-39.5 18.5q-28 0 -51 -19.5t-39 -51t-24.5 -70.5t-8.5 -78q0 -42 13 -60.5t39 -18.5q28 0 51 20
t39 51.5t24.5 70t8.5 76.5zM535 603h-17l-130 71l-180 -71h-16l206 169h14z" />
    <glyph glyph-name="gcommaaccent" unicode="&#x123;" horiz-adv-x="603" 
d="M394 758q26 -2 46 -19.5t20 -45.5t-19.5 -48t-49.5 -20t-47.5 21.5t-17.5 54.5q0 31 14 58.5t38.5 50.5t57 41.5t68.5 30.5l5 -10q-17 -9 -37 -21t-37 -26.5t-29 -31t-12 -35.5zM76 325q0 41 21 81t58.5 71.5t89.5 50.5t114 19q35 0 65 -9h210l-12 -50l-124 5
q16 -17 25 -40t9 -50q0 -42 -21 -81.5t-58.5 -71t-89.5 -50.5t-114 -19q-40 0 -70 10q-7 -4 -16.5 -9.5t-17.5 -12t-14 -14t-6 -14.5q0 -17 47 -23l146 -21q40 -6 75 -15t60 -23.5t39.5 -35.5t14.5 -50q0 -48 -33 -85t-84.5 -62.5t-115.5 -38.5t-126 -13q-41 0 -79.5 6
t-68 18.5t-47 31t-17.5 43.5q0 29 18 47.5t44.5 30t55.5 18t52 10.5q-47 13 -67 38t-20 50q0 23 12.5 43t32 36.5t42.5 30.5t45 26q-35 18 -55 49t-20 73zM136 -27l-10 2l3 -1q-15 -5 -30.5 -12.5t-28 -18.5t-20.5 -25.5t-8 -32.5t12 -31t31.5 -22t45.5 -13t53 -4
q34 0 67.5 6t60.5 17t44 27t17 37q0 24 -30 34.5t-84 18.5zM392 433q0 43 -12.5 61.5t-39.5 18.5q-28 0 -51 -19.5t-39 -51t-24.5 -70.5t-8.5 -78q0 -42 13 -60.5t39 -18.5q28 0 51 20t39 51.5t24.5 70t8.5 76.5z" />
    <glyph glyph-name="gdotaccent" unicode="&#x121;" horiz-adv-x="603" 
d="M76 325q0 41 21 81t58.5 71.5t89.5 50.5t114 19q35 0 65 -9h210l-12 -50l-124 5q16 -17 25 -40t9 -50q0 -42 -21 -81.5t-58.5 -71t-89.5 -50.5t-114 -19q-40 0 -70 10q-7 -4 -16.5 -9.5t-17.5 -12t-14 -14t-6 -14.5q0 -17 47 -23l146 -21q40 -6 75 -15t60 -23.5
t39.5 -35.5t14.5 -50q0 -48 -33 -85t-84.5 -62.5t-115.5 -38.5t-126 -13q-41 0 -79.5 6t-68 18.5t-47 31t-17.5 43.5q0 29 18 47.5t44.5 30t55.5 18t52 10.5q-47 13 -67 38t-20 50q0 23 12.5 43t32 36.5t42.5 30.5t45 26q-35 18 -55 49t-20 73zM136 -27l-10 2l3 -1
q-15 -5 -30.5 -12.5t-28 -18.5t-20.5 -25.5t-8 -32.5t12 -31t31.5 -22t45.5 -13t53 -4q34 0 67.5 6t60.5 17t44 27t17 37q0 24 -30 34.5t-84 18.5zM392 433q0 43 -12.5 61.5t-39.5 18.5q-28 0 -51 -19.5t-39 -51t-24.5 -70.5t-8.5 -78q0 -42 13 -60.5t39 -18.5q28 0 51 20
t39 51.5t24.5 70t8.5 76.5zM312 694q0 16 6 30.5t16.5 25t24.5 16.5t30 6q32 0 54.5 -23t22.5 -55q0 -31 -22.5 -53.5t-54.5 -22.5t-54.5 22.5t-22.5 53.5z" />
    <glyph glyph-name="hbar" unicode="&#x127;" horiz-adv-x="628" 
d="M259 339q16 41 33.5 79t39 66.5t49 45.5t63.5 17q30 0 53.5 -12.5t36.5 -40.5t12 -72t-19 -108l-56 -199q-7 -26 -4.5 -43.5t22.5 -17.5q13 0 28 8.5t29 22.5t28 32t26 37l15 -9q-43 -84 -90 -121t-93 -37q-36 0 -63 10.5t-41 35t-14.5 65.5t17.5 101l40 139
q17 61 14 92.5t-20 31.5q-16 0 -38 -31.5t-45.5 -83.5t-46.5 -118.5t-39 -135.5l-22 -93h-161l145 583h-108l12 50h109q6 27 8 43t-2.5 24.5t-17 11.5t-35.5 4l4 16l252 71q-9 -32 -21 -74t-26 -96h118l-12 -50h-118q-1 -2 -1 -4l-61 -240v0z" />
    <glyph glyph-name="hcircumflex" unicode="&#x125;" horiz-adv-x="628" 
d="M259 339q16 41 33.5 79t39 66.5t49 45.5t63.5 17q30 0 53.5 -12.5t36.5 -40.5t12 -72t-19 -108l-56 -199q-7 -26 -4.5 -43.5t22.5 -17.5q13 0 28 8.5t29 22.5t28 32t26 37l15 -9q-43 -84 -90 -121t-93 -37q-36 0 -63 10.5t-41 35t-14.5 65.5t17.5 101l40 139
q17 61 14 92.5t-20 31.5q-16 0 -38 -31.5t-45.5 -83.5t-46.5 -118.5t-39 -135.5l-22 -93h-161l154 616q8 33 11.5 52.5t0 29.5t-16.5 13.5t-38 4.5l4 16l252 71q-11 -39 -26 -94t-34 -130l-61 -240v0zM332 922l123 -129h-21l-127 46l-155 -46h-23l187 129h16z" />
    <glyph glyph-name="dotlessi" unicode="&#x131;" horiz-adv-x="349" 
d="M93 360q8 33 11.5 52.5t-0.5 29.5t-17 13.5t-38 4.5l4 16l252 71q-11 -39 -26 -94t-34 -130l-52 -208q-6 -23 -2.5 -42t23.5 -19q13 0 28 8.5t29 22.5t27.5 32t25.5 37l16 -9q-43 -84 -92 -121t-95 -37q-36 0 -62 9.5t-40.5 31.5t-16 58t11.5 89l47 185v0z" />
    <glyph glyph-name="ibreve" unicode="&#x12d;" horiz-adv-x="349" 
d="M93 360q8 33 11.5 52.5t-0.5 29.5t-17 13.5t-38 4.5l4 16l252 71q-11 -39 -26 -94t-34 -130l-52 -208q-6 -23 -2.5 -42t23.5 -19q13 0 28 8.5t29 22.5t27.5 32t25.5 37l16 -9q-43 -84 -92 -121t-95 -37q-36 0 -62 9.5t-40.5 31.5t-16 58t11.5 89l47 185v0zM251 663
q46 0 75 26t44 73h53q-7 -26 -21.5 -51t-36.5 -45t-52 -32.5t-68 -12.5t-62.5 12.5t-37.5 33t-15.5 45.5t3.5 50h49q-8 -47 7.5 -73t61.5 -26z" />
    <glyph glyph-name="imacron" unicode="&#x12b;" horiz-adv-x="349" 
d="M93 360q8 33 11.5 52.5t-0.5 29.5t-17 13.5t-38 4.5l4 16l252 71q-11 -39 -26 -94t-34 -130l-52 -208q-6 -23 -2.5 -42t23.5 -19q13 0 28 8.5t29 22.5t27.5 32t25.5 37l16 -9q-43 -84 -92 -121t-95 -37q-36 0 -62 9.5t-40.5 31.5t-16 58t11.5 89l47 185v0zM73 665l16 68
h321l-16 -68h-321z" />
    <glyph glyph-name="iogonek" unicode="&#x12f;" horiz-adv-x="349" 
d="M93 360q8 33 11.5 52.5t-0.5 29.5t-17 13.5t-38 4.5l4 16l252 71q-11 -39 -26 -94t-34 -130l-52 -208q-6 -23 -2.5 -42t23.5 -19q13 0 28 8.5t29 22.5t27.5 32t25.5 37l16 -9q-43 -84 -92 -121t-95 -37q-36 0 -62 9.5t-40.5 31.5t-16 58t11.5 89l47 185v0zM350 699
q0 -21 -8 -39.5t-22 -32.5t-32.5 -22t-39.5 -8t-39.5 8t-32.5 22t-22 32.5t-8 39.5t8 39t22 31.5t32.5 21.5t39.5 8t39.5 -8t32.5 -21.5t22 -31.5t8 -39zM175 -201q-25 -15 -54 -25t-58 -10q-34 0 -61 16.5t-27 54.5q0 31 19.5 59t49.5 51.5t65 42.5t65 34h12
q-19 -12 -39 -29.5t-36.5 -39t-27 -46t-10.5 -49.5q0 -26 15 -42.5t43 -16.5q19 0 42 9z" />
    <glyph glyph-name="itilde" unicode="&#x129;" horiz-adv-x="349" 
d="M93 360q8 33 11.5 52.5t-0.5 29.5t-17 13.5t-38 4.5l4 16l252 71q-11 -39 -26 -94t-34 -130l-52 -208q-6 -23 -2.5 -42t23.5 -19q13 0 28 8.5t29 22.5t27.5 32t25.5 37l16 -9q-43 -84 -92 -121t-95 -37q-36 0 -62 9.5t-40.5 31.5t-16 58t11.5 89l47 185v0zM74 630
q0 23 5.5 48.5t16.5 47t29 35.5t43 14q21 0 42.5 -9t42.5 -20t40 -20t36 -9q27 0 40 11.5t15 43.5h19q0 -41 -8 -67.5t-20 -43t-27 -23t-31 -6.5q-25 0 -47 9t-42.5 20.5t-39.5 20.5t-39 9q-24 0 -39 -15t-17 -46h-19z" />
    <glyph glyph-name="uni1ECB" unicode="&#x1ecb;" horiz-adv-x="349" 
d="M350 699q0 -21 -8 -39.5t-22 -32.5t-32.5 -22t-39.5 -8t-39.5 8t-32.5 22t-22 32.5t-8 39.5t8 39t22 31.5t32.5 21.5t39.5 8t39.5 -8t32.5 -21.5t22 -31.5t8 -39zM93 360q8 33 11.5 52.5t-0.5 29.5t-17 13.5t-38 4.5l4 16l252 71q-11 -39 -26 -94t-34 -130l-52 -208
q-6 -23 -2.5 -42t23.5 -19q13 0 28 8.5t29 22.5t27.5 32t25.5 37l16 -9q-43 -84 -92 -121t-95 -37q-36 0 -62 9.5t-40.5 31.5t-16 58t11.5 89l47 185v0zM21 -150q0 16 6 30.5t16.5 25t24.5 16.5t30 6q32 0 54.5 -23t22.5 -55q0 -31 -22.5 -53.5t-54.5 -22.5t-54.5 22.5
t-22.5 53.5z" />
    <glyph glyph-name="dotlessj" unicode="&#x237;" horiz-adv-x="360" 
d="M133 360q8 33 11.5 52.5t-0.5 29.5t-17 13.5t-38 4.5l4 16l252 71q-11 -39 -26 -94t-34 -130l-55 -218q-20 -80 -50.5 -134.5t-72.5 -93.5t-96 -67.5t-122 -55.5l-8 16q42 35 71.5 73t50.5 77.5t35.5 81.5t25.5 86l69 272v0z" />
    <glyph glyph-name="jcircumflex" unicode="&#x135;" horiz-adv-x="360" 
d="M439 603h-17l-130 71l-180 -71h-16l206 169h14zM133 360q8 33 11.5 52.5t-0.5 29.5t-17 13.5t-38 4.5l4 16l252 71q-11 -39 -26 -94t-34 -130l-55 -218q-20 -80 -50.5 -134.5t-72.5 -93.5t-96 -67.5t-122 -55.5l-8 16q42 35 71.5 73t50.5 77.5t35.5 81.5t25.5 86l69 272
v0z" />
    <glyph glyph-name="kcommaaccent" unicode="&#x137;" horiz-adv-x="633" 
d="M177 616q8 33 11.5 52.5t0 29.5t-16.5 13.5t-38 4.5l4 16l252 71q-11 -39 -26 -94t-34 -130l-145 -579h-162zM260 286l164 148q22 20 36 35t17.5 25.5t-6.5 17t-36 9.5l4 17h205l-4 -17q-19 -1 -36 -4.5t-36 -12.5t-41.5 -25t-52.5 -43l-75 -68l67 -238q13 -43 23 -60.5
t33 -17.5q22 0 42.5 29t37.5 72l16 -7q-27 -89 -70 -124t-101 -35q-63 0 -95.5 34t-47.5 94zM232 -187q-26 1 -46.5 19t-20.5 46t20 47.5t49 19.5q30 0 47.5 -21t17.5 -54q0 -31 -14 -58.5t-38 -51t-56.5 -41.5t-69.5 -30l-5 10q17 9 37 21t37.5 26.5t29.5 31t12 35.5z" />
    <glyph glyph-name="lacute" unicode="&#x13a;" horiz-adv-x="351" 
d="M155 616q8 33 11.5 52.5t0 29.5t-16.5 13.5t-38 4.5l4 16l252 71q-11 -39 -26 -94t-34 -130l-116 -462q-7 -27 -3 -45t24 -18q13 0 28 8.5t29 22.5t27.5 32t25.5 37l16 -9q-43 -84 -92 -121t-95 -37q-76 0 -104 44.5t-3 143.5l110 441v0zM213 793h-16l84 129h201z" />
    <glyph glyph-name="lcaron" unicode="&#x13e;" horiz-adv-x="464" 
d="M476 640q-26 1 -46.5 19t-20.5 46t20 47.5t49 19.5q30 0 47.5 -21t17.5 -54q0 -31 -14 -58.5t-38 -51t-56.5 -41.5t-69.5 -30l-5 10q17 9 37 21t37.5 26.5t29.5 31t12 35.5zM155 616q8 33 11.5 52.5t0 29.5t-16.5 13.5t-38 4.5l4 16l252 71q-11 -39 -26 -94t-34 -130
l-116 -462q-7 -27 -3 -45t24 -18q13 0 28 8.5t29 22.5t27.5 32t25.5 37l16 -9q-43 -84 -92 -121t-95 -37q-76 0 -104 44.5t-3 143.5l110 441v0z" />
    <glyph glyph-name="lcommaaccent" unicode="&#x13c;" horiz-adv-x="350" 
d="M155 616q8 33 11.5 52.5t0 29.5t-16.5 13.5t-38 4.5l4 16l252 71q-11 -39 -26 -94t-34 -130l-116 -462q-7 -27 -3 -45t24 -18q13 0 28 8.5t29 22.5t27.5 32t25.5 37l16 -9q-43 -84 -92 -121t-95 -37q-76 0 -104 44.5t-3 143.5l110 441v0zM84 -187q-26 1 -46.5 19
t-20.5 46t20 47.5t49 19.5q30 0 47.5 -21t17.5 -54q0 -31 -14 -58.5t-38 -51t-56.5 -41.5t-69.5 -30l-5 10q17 9 37 21t37.5 26.5t29.5 31t12 35.5z" />
    <glyph glyph-name="ldot" unicode="&#x140;" horiz-adv-x="473" 
d="M155 616q8 33 11.5 52.5t0 29.5t-16.5 13.5t-38 4.5l4 16l252 71q-11 -39 -26 -94t-34 -130l-116 -462q-7 -27 -3 -45t24 -18q13 0 28 8.5t29 22.5t27.5 32t25.5 37l16 -9q-43 -84 -92 -121t-95 -37q-76 0 -104 44.5t-3 143.5l110 441v0zM365 452q0 32 22 54.5t54 22.5
q16 0 30.5 -6t25 -16.5t16.5 -24.5t6 -30t-6 -30t-16.5 -24.5t-25 -16.5t-30.5 -6q-32 0 -54 22.5t-22 54.5z" />
    <glyph glyph-name="lslash" unicode="&#x142;" horiz-adv-x="397" 
d="M174 616q8 33 11.5 52.5t0 29.5t-16.5 13.5t-38 4.5l4 16l252 71q-11 -39 -26 -94t-34 -130l-34 -134l99 46l21 -40l-134 -62l-68 -272q-7 -27 -3 -45t24 -18q13 0 28 8.5t29 22.5t27.5 32t25.5 37l16 -9q-43 -84 -92 -121t-95 -37q-76 0 -104 44.5t-3 143.5l32 128
l-89 -41l-21 40l124 57l64 257v0z" />
    <glyph glyph-name="nacute" unicode="&#x144;" horiz-adv-x="635" 
d="M266 339q16 41 33.5 79t39 66.5t49 45.5t63.5 17q30 0 53.5 -12.5t36.5 -40.5t12 -72t-19 -108l-56 -199q-7 -26 -4.5 -43.5t22.5 -17.5q13 0 28 8.5t29 22.5t28 32t26 37l15 -9q-43 -84 -90 -121t-93 -37q-36 0 -63 10.5t-41 35t-14.5 65.5t17.5 101l40 139
q17 61 14 92.5t-20 31.5q-16 0 -37 -31.5t-44 -83.5t-46 -118t-42 -136l-26 -93h-157l88 360q8 33 11.5 52.5t-0.5 29.5t-17 13.5t-38 4.5l4 16l252 71zM384 603h-14l115 169h190z" />
    <glyph glyph-name="ncaron" unicode="&#x148;" horiz-adv-x="635" 
d="M266 339q16 41 33.5 79t39 66.5t49 45.5t63.5 17q30 0 53.5 -12.5t36.5 -40.5t12 -72t-19 -108l-56 -199q-7 -26 -4.5 -43.5t22.5 -17.5q13 0 28 8.5t29 22.5t28 32t26 37l15 -9q-43 -84 -90 -121t-93 -37q-36 0 -63 10.5t-41 35t-14.5 65.5t17.5 101l40 139
q17 61 14 92.5t-20 31.5q-16 0 -37 -31.5t-44 -83.5t-46 -118t-42 -136l-26 -93h-157l88 360q8 33 11.5 52.5t-0.5 29.5t-17 13.5t-38 4.5l4 16l252 71zM246 772h17l130 -71l180 71h16l-206 -169h-14z" />
    <glyph glyph-name="ncommaaccent" unicode="&#x146;" horiz-adv-x="635" 
d="M266 339q16 41 33.5 79t39 66.5t49 45.5t63.5 17q30 0 53.5 -12.5t36.5 -40.5t12 -72t-19 -108l-56 -199q-7 -26 -4.5 -43.5t22.5 -17.5q13 0 28 8.5t29 22.5t28 32t26 37l15 -9q-43 -84 -90 -121t-93 -37q-36 0 -63 10.5t-41 35t-14.5 65.5t17.5 101l40 139
q17 61 14 92.5t-20 31.5q-16 0 -37 -31.5t-44 -83.5t-46 -118t-42 -136l-26 -93h-157l88 360q8 33 11.5 52.5t-0.5 29.5t-17 13.5t-38 4.5l4 16l252 71zM244 -187q-26 1 -46.5 19t-20.5 46t20 47.5t49 19.5q30 0 47.5 -21t17.5 -54q0 -31 -14 -58.5t-38 -51t-56.5 -41.5
t-69.5 -30l-5 10q17 9 37 21t37.5 26.5t29.5 31t12 35.5z" />
    <glyph glyph-name="oe" unicode="&#x153;" horiz-adv-x="852" 
d="M22 205q0 64 25 125t69.5 108.5t106 76.5t134.5 29q54 0 90 -21.5t56 -62.5q40 39 90.5 61.5t110.5 22.5q27 0 52.5 -6t45.5 -18t32.5 -31t12.5 -46q0 -50 -32 -80.5t-90 -44.5l-186 -47q-6 -39 -6 -73q0 -49 20 -77t61 -28q14 0 33 4.5t40.5 18t43.5 39t42 67.5l19 -8
q-18 -47 -43 -88t-58 -72t-75 -49t-94 -18q-45 0 -72 16t-41 45q-35 -29 -80.5 -45t-100.5 -16q-44 0 -82 15t-65.5 43.5t-43 68.5t-15.5 91zM398 399q0 110 -56 110q-36 0 -64.5 -33t-48.5 -86.5t-30.5 -121t-10.5 -136.5q0 -56 15 -83t41 -27q36 0 65 33t48.5 86.5t30 121
t10.5 136.5zM673 509q-22 0 -42 -18t-36.5 -47.5t-29 -66.5t-20.5 -75l35 10q35 9 59 26t38.5 38t20.5 44t6 45q0 19 -6.5 31.5t-24.5 12.5z" />
    <glyph glyph-name="obreve" unicode="&#x14f;" horiz-adv-x="586" 
d="M398 399q0 113 -56 113q-36 0 -64.5 -33.5t-48.5 -87.5t-30.5 -122t-10.5 -137q0 -56 15 -83t41 -27q36 0 65 33t48.5 86.5t30 121t10.5 136.5zM22 205q0 64 25 125.5t69.5 109.5t106 77.5t134.5 29.5q44 0 82 -15.5t65.5 -44.5t43.5 -70t16 -92q0 -64 -25 -124.5
t-69.5 -108t-106.5 -76.5t-135 -29q-44 0 -82 15t-65.5 43.5t-43 68.5t-15.5 91zM376 663q46 0 75 26t44 73h53q-7 -26 -21.5 -51t-36.5 -45t-52 -32.5t-68 -12.5t-62.5 12.5t-37.5 33t-15.5 45.5t3.5 50h49q-8 -47 7.5 -73t61.5 -26z" />
    <glyph glyph-name="ohungarumlaut" unicode="&#x151;" horiz-adv-x="586" 
d="M398 399q0 113 -56 113q-36 0 -64.5 -33.5t-48.5 -87.5t-30.5 -122t-10.5 -137q0 -56 15 -83t41 -27q36 0 65 33t48.5 86.5t30 121t10.5 136.5zM22 205q0 64 25 125.5t69.5 109.5t106 77.5t134.5 29.5q44 0 82 -15.5t65.5 -44.5t43.5 -70t16 -92q0 -64 -25 -124.5
t-69.5 -108t-106.5 -76.5t-135 -29q-44 0 -82 15t-65.5 43.5t-43 68.5t-15.5 91zM741 772l-291 -169h-14l115 169h190zM526 772l-291 -169h-14l115 169h190z" />
    <glyph glyph-name="omacron" unicode="&#x14d;" horiz-adv-x="586" 
d="M398 399q0 113 -56 113q-36 0 -64.5 -33.5t-48.5 -87.5t-30.5 -122t-10.5 -137q0 -56 15 -83t41 -27q36 0 65 33t48.5 86.5t30 121t10.5 136.5zM22 205q0 64 25 125.5t69.5 109.5t106 77.5t134.5 29.5q44 0 82 -15.5t65.5 -44.5t43.5 -70t16 -92q0 -64 -25 -124.5
t-69.5 -108t-106.5 -76.5t-135 -29q-44 0 -82 15t-65.5 43.5t-43 68.5t-15.5 91zM213 665l16 68h321l-16 -68h-321z" />
    <glyph glyph-name="uni1ECD" unicode="&#x1ecd;" horiz-adv-x="586" 
d="M398 399q0 113 -56 113q-36 0 -64.5 -33.5t-48.5 -87.5t-30.5 -122t-10.5 -137q0 -56 15 -83t41 -27q36 0 65 33t48.5 86.5t30 121t10.5 136.5zM22 205q0 64 25 125.5t69.5 109.5t106 77.5t134.5 29.5q44 0 82 -15.5t65.5 -44.5t43.5 -70t16 -92q0 -64 -25 -124.5
t-69.5 -108t-106.5 -76.5t-135 -29q-44 0 -82 15t-65.5 43.5t-43 68.5t-15.5 91zM122 -150q0 16 6 30.5t16.5 25t24.5 16.5t30 6q32 0 54.5 -23t22.5 -55q0 -31 -22.5 -53.5t-54.5 -22.5t-54.5 22.5t-22.5 53.5z" />
    <glyph glyph-name="racute" unicode="&#x155;" horiz-adv-x="447" 
d="M279 399q13 23 34 49t46.5 48.5t54 37t57.5 14.5q5 0 9 -0.5t9 -1.5l-41 -163h-7q-14 11 -34.5 17t-42.5 6q-23 0 -49 -9t-40 -23l-93 -374h-162l90 360q8 33 11.5 52.5t-0.5 29.5t-17 13.5t-38 4.5l4 16l244 71zM337 603h-14l115 169h190z" />
    <glyph glyph-name="rcaron" unicode="&#x159;" horiz-adv-x="447" 
d="M279 399q13 23 34 49t46.5 48.5t54 37t57.5 14.5q5 0 9 -0.5t9 -1.5l-41 -163h-7q-14 11 -34.5 17t-42.5 6q-23 0 -49 -9t-40 -23l-93 -374h-162l90 360q8 33 11.5 52.5t-0.5 29.5t-17 13.5t-38 4.5l4 16l244 71zM195 772h17l130 -71l180 71h16l-206 -169h-14z" />
    <glyph glyph-name="rcommaaccent" unicode="&#x157;" horiz-adv-x="447" 
d="M279 399q13 23 34 49t46.5 48.5t54 37t57.5 14.5q5 0 9 -0.5t9 -1.5l-41 -163h-7q-14 11 -34.5 17t-42.5 6q-23 0 -49 -9t-40 -23l-93 -374h-162l90 360q8 33 11.5 52.5t-0.5 29.5t-17 13.5t-38 4.5l4 16l244 71zM82 -187q-26 1 -46.5 19t-20.5 46t20 47.5t49 19.5
q30 0 47.5 -21t17.5 -54q0 -31 -14 -58.5t-38 -51t-56.5 -41.5t-69.5 -30l-5 10q17 9 37 21t37.5 26.5t29.5 31t12 35.5z" />
    <glyph glyph-name="sacute" unicode="&#x15b;" horiz-adv-x="503" 
d="M436 183q0 -48 -25.5 -85t-65 -61.5t-86.5 -37t-90 -12.5q-51 0 -95 10t-74 27l62 230h19q-8 -115 15 -171.5t82 -56.5q21 0 42 5.5t37 16t26 26t10 35.5q0 23 -14.5 43t-49.5 43l-37 24q-43 29 -72 68.5t-29 89.5q0 42 21.5 73.5t55.5 53t75 32.5t80 11q50 0 95 -9
t69 -23l-48 -177h-16q2 81 -29.5 126.5t-83.5 45.5q-44 0 -65.5 -20.5t-21.5 -46.5q0 -21 14 -39t31 -30l57 -38q57 -37 84 -72.5t27 -80.5zM314 603h-14l115 169h190z" />
    <glyph glyph-name="scaron" unicode="&#x161;" horiz-adv-x="503" 
d="M436 183q0 -48 -25.5 -85t-65 -61.5t-86.5 -37t-90 -12.5q-51 0 -95 10t-74 27l62 230h19q-8 -115 15 -171.5t82 -56.5q21 0 42 5.5t37 16t26 26t10 35.5q0 23 -14.5 43t-49.5 43l-37 24q-43 29 -72 68.5t-29 89.5q0 42 21.5 73.5t55.5 53t75 32.5t80 11q50 0 95 -9
t69 -23l-48 -177h-16q2 81 -29.5 126.5t-83.5 45.5q-44 0 -65.5 -20.5t-21.5 -46.5q0 -21 14 -39t31 -30l57 -38q57 -37 84 -72.5t27 -80.5zM216 772h17l130 -71l180 71h16l-206 -169h-14z" />
    <glyph glyph-name="scedilla" unicode="&#x15f;" horiz-adv-x="503" 
d="M436 183q0 -48 -25.5 -85t-65 -61.5t-86.5 -37t-90 -12.5q-51 0 -95 10t-74 27l62 230h19q-8 -115 15 -171.5t82 -56.5q21 0 42 5.5t37 16t26 26t10 35.5q0 23 -14.5 43t-49.5 43l-37 24q-43 29 -72 68.5t-29 89.5q0 42 21.5 73.5t55.5 53t75 32.5t80 11q50 0 95 -9
t69 -23l-48 -177h-16q2 81 -29.5 126.5t-83.5 45.5q-44 0 -65.5 -20.5t-21.5 -46.5q0 -21 14 -39t31 -30l57 -38q57 -37 84 -72.5t27 -80.5zM171 3h37l-72 -86q11 5 22.5 7t20.5 2q32 0 51.5 -19t19.5 -43q0 -25 -12 -44t-31.5 -31.5t-44.5 -19t-50 -6.5q-26 0 -49.5 6.5
t-41.5 18.5l12 20q24 -12 59 -12q14 0 28 3t24.5 9.5t17 16.5t6.5 24q0 18 -15.5 27.5t-35.5 9.5q-21 0 -41 -10l-8 5z" />
    <glyph glyph-name="scircumflex" unicode="&#x15d;" horiz-adv-x="503" 
d="M436 183q0 -48 -25.5 -85t-65 -61.5t-86.5 -37t-90 -12.5q-51 0 -95 10t-74 27l62 230h19q-8 -115 15 -171.5t82 -56.5q21 0 42 5.5t37 16t26 26t10 35.5q0 23 -14.5 43t-49.5 43l-37 24q-43 29 -72 68.5t-29 89.5q0 42 21.5 73.5t55.5 53t75 32.5t80 11q50 0 95 -9
t69 -23l-48 -177h-16q2 81 -29.5 126.5t-83.5 45.5q-44 0 -65.5 -20.5t-21.5 -46.5q0 -21 14 -39t31 -30l57 -38q57 -37 84 -72.5t27 -80.5zM521 603h-17l-130 71l-180 -71h-16l206 169h14z" />
    <glyph glyph-name="scommaaccent" unicode="&#x219;" horiz-adv-x="503" 
d="M436 183q0 -48 -25.5 -85t-65 -61.5t-86.5 -37t-90 -12.5q-51 0 -95 10t-74 27l62 230h19q-8 -115 15 -171.5t82 -56.5q21 0 42 5.5t37 16t26 26t10 35.5q0 23 -14.5 43t-49.5 43l-37 24q-43 29 -72 68.5t-29 89.5q0 42 21.5 73.5t55.5 53t75 32.5t80 11q50 0 95 -9
t69 -23l-48 -177h-16q2 81 -29.5 126.5t-83.5 45.5q-44 0 -65.5 -20.5t-21.5 -46.5q0 -21 14 -39t31 -30l57 -38q57 -37 84 -72.5t27 -80.5zM137 -187q-26 1 -46.5 19t-20.5 46t20 47.5t49 19.5q30 0 47.5 -21t17.5 -54q0 -31 -14 -58.5t-38 -51t-56.5 -41.5t-69.5 -30
l-5 10q17 9 37 21t37.5 26.5t29.5 31t12 35.5z" />
    <glyph glyph-name="tcaron" unicode="&#x165;" horiz-adv-x="627" 
d="M586 640q-26 1 -46.5 19t-20.5 46t20 47.5t49 19.5q30 0 47.5 -21t17.5 -54q0 -31 -14 -58.5t-38 -51t-56.5 -41.5t-69.5 -30l-5 10q17 9 37 21t37.5 26.5t29.5 31t12 35.5zM129 488h-81l12 50h85l19 76l185 103l-45 -179h144l-12 -50h-145l-93 -373q-6 -28 0 -44.5
t25 -16.5q13 0 29 8.5t31.5 22.5t30 32t26.5 37l16 -9q-43 -83 -95.5 -120.5t-98.5 -37.5q-35 0 -61.5 9.5t-41.5 32t-17.5 58t9.5 88.5z" />
    <glyph glyph-name="uni0163" unicode="&#x163;" horiz-adv-x="422" 
d="M100 -187q-26 1 -46.5 19t-20.5 46t20 47.5t49 19.5q30 0 47.5 -21t17.5 -54q0 -31 -14 -58.5t-38 -51t-56.5 -41.5t-69.5 -30l-5 10q17 9 37 21t37.5 26.5t29.5 31t12 35.5zM129 488h-81l12 50h85l19 76l185 103l-45 -179h144l-12 -50h-145l-93 -373q-6 -28 0 -44.5
t25 -16.5q13 0 29 8.5t31.5 22.5t30 32t26.5 37l16 -9q-43 -83 -95.5 -120.5t-98.5 -37.5q-35 0 -61.5 9.5t-41.5 32t-17.5 58t9.5 88.5z" />
    <glyph glyph-name="tcommaaccent" unicode="&#x21b;" horiz-adv-x="422" 
d="M100 -187q-26 1 -46.5 19t-20.5 46t20 47.5t49 19.5q30 0 47.5 -21t17.5 -54q0 -31 -14 -58.5t-38 -51t-56.5 -41.5t-69.5 -30l-5 10q17 9 37 21t37.5 26.5t29.5 31t12 35.5zM129 488h-81l12 50h85l19 76l185 103l-45 -179h144l-12 -50h-145l-93 -373q-6 -28 0 -44.5
t25 -16.5q13 0 29 8.5t31.5 22.5t30 32t26.5 37l16 -9q-43 -83 -95.5 -120.5t-98.5 -37.5q-35 0 -61.5 9.5t-41.5 32t-17.5 58t9.5 88.5z" />
    <glyph glyph-name="ubreve" unicode="&#x16d;" horiz-adv-x="637" 
d="M108 360q9 33 13 52t-0.5 29.5t-18 14t-38.5 4.5l4 16l251 71l-96 -351q-10 -36 -13 -60t-1.5 -38t7 -20t12.5 -6q17 0 38.5 32t45 84t46.5 118t42 135l27 97h151l-108 -423q-6 -25 -3 -43t22 -18q13 0 28 8.5t29 22.5t28 32t26 37l15 -9q-43 -84 -86 -121t-89 -37
q-57 0 -89.5 26.5t-29.5 92.5q2 19 5.5 41t11.5 48q-16 -41 -34 -78.5t-39.5 -66.5t-49 -46t-63.5 -17q-28 0 -51.5 12t-37 39.5t-14 72t18.5 109.5l40 140v0zM396 663q46 0 75 26t44 73h53q-7 -26 -21.5 -51t-36.5 -45t-52 -32.5t-68 -12.5t-62.5 12.5t-37.5 33t-15.5 45.5
t3.5 50h49q-8 -47 7.5 -73t61.5 -26z" />
    <glyph glyph-name="uhungarumlaut" unicode="&#x171;" horiz-adv-x="637" 
d="M108 360q9 33 13 52t-0.5 29.5t-18 14t-38.5 4.5l4 16l251 71l-96 -351q-10 -36 -13 -60t-1.5 -38t7 -20t12.5 -6q17 0 38.5 32t45 84t46.5 118t42 135l27 97h151l-108 -423q-6 -25 -3 -43t22 -18q13 0 28 8.5t29 22.5t28 32t26 37l15 -9q-43 -84 -86 -121t-89 -37
q-57 0 -89.5 26.5t-29.5 92.5q2 19 5.5 41t11.5 48q-16 -41 -34 -78.5t-39.5 -66.5t-49 -46t-63.5 -17q-28 0 -51.5 12t-37 39.5t-14 72t18.5 109.5l40 140v0zM744 772l-291 -169h-14l115 169h190zM529 772l-291 -169h-14l115 169h190z" />
    <glyph glyph-name="umacron" unicode="&#x16b;" horiz-adv-x="637" 
d="M108 360q9 33 13 52t-0.5 29.5t-18 14t-38.5 4.5l4 16l251 71l-96 -351q-10 -36 -13 -60t-1.5 -38t7 -20t12.5 -6q17 0 38.5 32t45 84t46.5 118t42 135l27 97h151l-108 -423q-6 -25 -3 -43t22 -18q13 0 28 8.5t29 22.5t28 32t26 37l15 -9q-43 -84 -86 -121t-89 -37
q-57 0 -89.5 26.5t-29.5 92.5q2 19 5.5 41t11.5 48q-16 -41 -34 -78.5t-39.5 -66.5t-49 -46t-63.5 -17q-28 0 -51.5 12t-37 39.5t-14 72t18.5 109.5l40 140v0zM248 665l16 68h321l-16 -68h-321z" />
    <glyph glyph-name="uogonek" unicode="&#x173;" horiz-adv-x="637" 
d="M108 360q9 33 13 52t-0.5 29.5t-18 14t-38.5 4.5l4 16l251 71l-96 -351q-10 -36 -13 -60t-1.5 -38t7 -20t12.5 -6q17 0 38.5 32t45 84t46.5 118t42 135l27 97h151l-108 -423q-6 -25 -3 -43t22 -18q13 0 28 8.5t29 22.5t28 32t26 37l15 -9q-43 -84 -86 -121t-89 -37
q-57 0 -89.5 26.5t-29.5 92.5q2 19 5.5 41t11.5 48q-16 -41 -34 -78.5t-39.5 -66.5t-49 -46t-63.5 -17q-28 0 -51.5 12t-37 39.5t-14 72t18.5 109.5l40 140v0zM452 -201q-25 -15 -54 -25t-58 -10q-34 0 -61 16.5t-27 54.5q0 31 19.5 59t49.5 51.5t65 42.5t65 34h12
q-19 -12 -39 -29.5t-36.5 -39t-27 -46t-10.5 -49.5q0 -26 15 -42.5t43 -16.5q19 0 42 9z" />
    <glyph glyph-name="uring" unicode="&#x16f;" horiz-adv-x="637" 
d="M108 360q9 33 13 52t-0.5 29.5t-18 14t-38.5 4.5l4 16l251 71l-96 -351q-10 -36 -13 -60t-1.5 -38t7 -20t12.5 -6q17 0 38.5 32t45 84t46.5 118t42 135l27 97h151l-108 -423q-6 -25 -3 -43t22 -18q13 0 28 8.5t29 22.5t28 32t26 37l15 -9q-43 -84 -86 -121t-89 -37
q-57 0 -89.5 26.5t-29.5 92.5q2 19 5.5 41t11.5 48q-16 -41 -34 -78.5t-39.5 -66.5t-49 -46t-63.5 -17q-28 0 -51.5 12t-37 39.5t-14 72t18.5 109.5l40 140v0zM297 723q0 21 8 39t22.5 31.5t33 21.5t39.5 8q22 0 40.5 -8t32.5 -21.5t22 -31.5t8 -39t-8 -39t-22 -31.5
t-32.5 -21t-40.5 -7.5q-21 0 -39.5 7.5t-33 21t-22.5 31.5t-8 39zM342 723q0 -26 16 -43t42 -17q28 0 43.5 17t15.5 43q0 27 -17.5 43.5t-41.5 16.5q-26 0 -42 -17t-16 -43z" />
    <glyph glyph-name="utilde" unicode="&#x169;" horiz-adv-x="637" 
d="M108 360q9 33 13 52t-0.5 29.5t-18 14t-38.5 4.5l4 16l251 71l-96 -351q-10 -36 -13 -60t-1.5 -38t7 -20t12.5 -6q17 0 38.5 32t45 84t46.5 118t42 135l27 97h151l-108 -423q-6 -25 -3 -43t22 -18q13 0 28 8.5t29 22.5t28 32t26 37l15 -9q-43 -84 -86 -121t-89 -37
q-57 0 -89.5 26.5t-29.5 92.5q2 19 5.5 41t11.5 48q-16 -41 -34 -78.5t-39.5 -66.5t-49 -46t-63.5 -17q-28 0 -51.5 12t-37 39.5t-14 72t18.5 109.5l40 140v0zM239 630q0 23 5.5 48.5t16.5 47t29 35.5t43 14q21 0 42.5 -9t42.5 -20t40 -20t36 -9q27 0 40 11.5t15 43.5h19
q0 -41 -8 -67.5t-20 -43t-27 -23t-31 -6.5q-25 0 -47 9t-42.5 20.5t-39.5 20.5t-39 9q-24 0 -39 -15t-17 -46h-19z" />
    <glyph glyph-name="uni1EE5" unicode="&#x1ee5;" horiz-adv-x="637" 
d="M108 360q9 33 13 52t-0.5 29.5t-18 14t-38.5 4.5l4 16l251 71l-96 -351q-10 -36 -13 -60t-1.5 -38t7 -20t12.5 -6q17 0 38.5 32t45 84t46.5 118t42 135l27 97h151l-108 -423q-6 -25 -3 -43t22 -18q13 0 28 8.5t29 22.5t28 32t26 37l15 -9q-43 -84 -86 -121t-89 -37
q-57 0 -89.5 26.5t-29.5 92.5q2 19 5.5 41t11.5 48q-16 -41 -34 -78.5t-39.5 -66.5t-49 -46t-63.5 -17q-28 0 -51.5 12t-37 39.5t-14 72t18.5 109.5l40 140v0zM142 -150q0 16 6 30.5t16.5 25t24.5 16.5t30 6q32 0 54.5 -23t22.5 -55q0 -31 -22.5 -53.5t-54.5 -22.5
t-54.5 22.5t-22.5 53.5z" />
    <glyph glyph-name="wacute" unicode="&#x1e83;" horiz-adv-x="815" 
d="M392 385l-156 -385h-148l-17 460q0 15 -1.5 24.5t-6 16t-13.5 11.5t-24 10l4 16h286l-4 -16q-26 -5 -40 -9.5t-20.5 -12.5t-8 -20.5t-1.5 -31.5v-327l163 417h141v-417l138 275q17 34 26.5 56t9 36t-10.5 21.5t-32 12.5l4 16h177l-4 -16q-22 -6 -35.5 -10t-24.5 -13
t-21 -25t-25 -44l-219 -430h-137v385zM433 603h-14l115 169h190z" />
    <glyph glyph-name="wcircumflex" unicode="&#x175;" horiz-adv-x="815" 
d="M392 385l-156 -385h-148l-17 460q0 15 -1.5 24.5t-6 16t-13.5 11.5t-24 10l4 16h286l-4 -16q-26 -5 -40 -9.5t-20.5 -12.5t-8 -20.5t-1.5 -31.5v-327l163 417h141v-417l138 275q17 34 26.5 56t9 36t-10.5 21.5t-32 12.5l4 16h177l-4 -16q-22 -6 -35.5 -10t-24.5 -13
t-21 -25t-25 -44l-219 -430h-137v385zM645 603h-17l-130 71l-180 -71h-16l206 169h14z" />
    <glyph glyph-name="wdieresis" unicode="&#x1e85;" horiz-adv-x="815" 
d="M392 385l-156 -385h-148l-17 460q0 15 -1.5 24.5t-6 16t-13.5 11.5t-24 10l4 16h286l-4 -16q-26 -5 -40 -9.5t-20.5 -12.5t-8 -20.5t-1.5 -31.5v-327l163 417h141v-417l138 275q17 34 26.5 56t9 36t-10.5 21.5t-32 12.5l4 16h177l-4 -16q-22 -6 -35.5 -10t-24.5 -13
t-21 -25t-25 -44l-219 -430h-137v385zM295 694q0 32 22 55t54 23t55 -23t23 -55q0 -15 -6 -29t-16.5 -24.5t-25 -16.5t-30.5 -6q-32 0 -54 22.5t-22 53.5zM525 694q0 32 23 55t55 23q16 0 30 -6t24.5 -16.5t16.5 -25t6 -30.5q0 -31 -22.5 -53.5t-54.5 -22.5q-16 0 -30.5 6
t-25 16.5t-16.5 24.5t-6 29z" />
    <glyph glyph-name="wgrave" unicode="&#x1e81;" horiz-adv-x="815" 
d="M392 385l-156 -385h-148l-17 460q0 15 -1.5 24.5t-6 16t-13.5 11.5t-24 10l4 16h286l-4 -16q-26 -5 -40 -9.5t-20.5 -12.5t-8 -20.5t-1.5 -31.5v-327l163 417h141v-417l138 275q17 34 26.5 56t9 36t-10.5 21.5t-32 12.5l4 16h177l-4 -16q-22 -6 -35.5 -10t-24.5 -13
t-21 -25t-25 -44l-219 -430h-137v385zM490 772l31 -169h-14l-207 169h190z" />
    <glyph glyph-name="ycircumflex" unicode="&#x177;" horiz-adv-x="570" 
d="M259 -13q-35 -66 -68.5 -107t-65.5 -63.5t-64 -30t-64 -7.5q-37 0 -70 11l34 143h6q17 -14 45.5 -23t64.5 -9q38 0 66.5 10.5t42.5 37.5l9 17l-103 494q-3 12 -4.5 21.5t-6 17t-13 13t-25.5 10.5l4 16h273l-4 -16q-18 -4 -29 -8.5t-17 -12t-6.5 -20t3.5 -33.5l48 -273
l115 221q14 27 22 48.5t8 37t-10 26t-33 14.5l4 16h182l-4 -16q-22 -6 -35.5 -11t-25 -15t-22.5 -26.5t-27 -46.5l-230 -436v0zM521 603h-17l-130 71l-180 -71h-16l206 169h14z" />
    <glyph glyph-name="ygrave" unicode="&#x1ef3;" horiz-adv-x="570" 
d="M259 -13q-35 -66 -68.5 -107t-65.5 -63.5t-64 -30t-64 -7.5q-37 0 -70 11l34 143h6q17 -14 45.5 -23t64.5 -9q38 0 66.5 10.5t42.5 37.5l9 17l-103 494q-3 12 -4.5 21.5t-6 17t-13 13t-25.5 10.5l4 16h273l-4 -16q-18 -4 -29 -8.5t-17 -12t-6.5 -20t3.5 -33.5l48 -273
l115 221q14 27 22 48.5t8 37t-10 26t-33 14.5l4 16h182l-4 -16q-22 -6 -35.5 -11t-25 -15t-22.5 -26.5t-27 -46.5l-230 -436v0zM378 772l31 -169h-14l-207 169h190z" />
    <glyph glyph-name="uni0233" unicode="&#x233;" horiz-adv-x="570" 
d="M259 -13q-35 -66 -68.5 -107t-65.5 -63.5t-64 -30t-64 -7.5q-37 0 -70 11l34 143h6q17 -14 45.5 -23t64.5 -9q38 0 66.5 10.5t42.5 37.5l9 17l-103 494q-3 12 -4.5 21.5t-6 17t-13 13t-25.5 10.5l4 16h273l-4 -16q-18 -4 -29 -8.5t-17 -12t-6.5 -20t3.5 -33.5l48 -273
l115 221q14 27 22 48.5t8 37t-10 26t-33 14.5l4 16h182l-4 -16q-22 -6 -35.5 -11t-25 -15t-22.5 -26.5t-27 -46.5l-230 -436v0zM200 665l16 68h321l-16 -68h-321z" />
    <glyph glyph-name="zacute" unicode="&#x17a;" horiz-adv-x="604" 
d="M-25 0l1 9l415 482h-33q-44 0 -79 -8t-63.5 -28t-52 -54t-45.5 -87h-22l79 226q48 -2 95 -2h95h244l-1 -10l-415 -481h72q44 0 79 8t63.5 28t52.5 54t46 87h21l-78 -226q-48 2 -95 2h-95h-284zM385 603h-14l115 169h190z" />
    <glyph glyph-name="zcaron" unicode="&#x17e;" horiz-adv-x="604" 
d="M-25 0l1 9l415 482h-33q-44 0 -79 -8t-63.5 -28t-52 -54t-45.5 -87h-22l79 226q48 -2 95 -2h95h244l-1 -10l-415 -481h72q44 0 79 8t63.5 28t52.5 54t46 87h21l-78 -226q-48 2 -95 2h-95h-284zM286 772h17l130 -71l180 71h16l-206 -169h-14z" />
    <glyph glyph-name="zdotaccent" unicode="&#x17c;" horiz-adv-x="604" 
d="M-25 0l1 9l415 482h-33q-44 0 -79 -8t-63.5 -28t-52 -54t-45.5 -87h-22l79 226q48 -2 95 -2h95h244l-1 -10l-415 -481h72q44 0 79 8t63.5 28t52.5 54t46 87h21l-78 -226q-48 2 -95 2h-95h-284zM358 694q0 16 6 30.5t16.5 25t24.5 16.5t30 6q32 0 54.5 -23t22.5 -55
q0 -31 -22.5 -53.5t-54.5 -22.5t-54.5 22.5t-22.5 53.5z" />
    <glyph glyph-name="ellipsis" unicode="&#x2026;" horiz-adv-x="1041" 
d="M149 -13q-39 0 -65.5 27t-26.5 66t26.5 66.5t65.5 27.5q42 0 68.5 -27.5t26.5 -66.5t-26.5 -66t-68.5 -27zM496 -13q-39 0 -65.5 27t-26.5 66t26.5 66.5t65.5 27.5q42 0 68.5 -27.5t26.5 -66.5t-26.5 -66t-68.5 -27zM843 -13q-39 0 -65.5 27t-26.5 66t26.5 66.5
t65.5 27.5q42 0 68.5 -27.5t26.5 -66.5t-26.5 -66t-68.5 -27z" />
    <glyph glyph-name="endash" unicode="&#x2013;" horiz-adv-x="516" 
d="M34 239l19 77h428l-19 -77h-428z" />
    <glyph glyph-name="emdash" unicode="&#x2014;" horiz-adv-x="742" 
d="M34 239l19 77h654l-19 -77h-654z" />
    <glyph glyph-name="guilsinglleft" unicode="&#x2039;" horiz-adv-x="391" 
d="M33 273l283 234h53l-173 -234l52 -235h-45z" />
    <glyph glyph-name="guilsinglright" unicode="&#x203a;" horiz-adv-x="391" 
d="M358 272l-282 -234h-54l174 234l-53 235h45z" />
    <glyph glyph-name="quoteleft" unicode="&#x2018;" horiz-adv-x="272" 
d="M148 602q40 2 63.5 -22.5t23.5 -60.5q0 -35 -23.5 -60.5t-62.5 -25.5t-61.5 27.5t-22.5 69.5q0 37 18 73t46.5 68t63.5 57.5t70 40.5l9 -15q-17 -10 -37.5 -25.5t-39.5 -35t-32 -43t-15 -48.5z" />
    <glyph glyph-name="quoteright" unicode="&#x2019;" horiz-adv-x="272" 
d="M200 600q-40 -2 -63.5 22.5t-23.5 60.5q0 35 23.5 60.5t62.5 25.5t61.5 -27.5t22.5 -69.5q0 -37 -18 -73t-46.5 -68t-64 -57.5t-69.5 -40.5l-9 15q17 10 37.5 25.5t39.5 35t32 43t15 48.5z" />
    <glyph glyph-name="quotedblleft" unicode="&#x201c;" horiz-adv-x="494" 
d="M148 602q40 2 63.5 -22.5t23.5 -60.5q0 -35 -23.5 -60.5t-62.5 -25.5t-61.5 27.5t-22.5 69.5q0 37 18 73t46.5 68t63.5 57.5t70 40.5l9 -15q-17 -10 -37.5 -25.5t-39.5 -35t-32 -43t-15 -48.5zM370 602q40 2 63.5 -22.5t23.5 -60.5q0 -35 -23.5 -60.5t-62.5 -25.5
t-61.5 27.5t-22.5 69.5q0 37 18 73t46.5 68t63.5 57.5t70 40.5l9 -15q-17 -10 -37.5 -25.5t-39.5 -35t-32 -43t-15 -48.5z" />
    <glyph glyph-name="quotedblright" unicode="&#x201d;" horiz-adv-x="494" 
d="M200 600q-40 -2 -63.5 22.5t-23.5 60.5q0 35 23.5 60.5t62.5 25.5t61.5 -27.5t22.5 -69.5q0 -37 -18 -73t-46.5 -68t-64 -57.5t-69.5 -40.5l-9 15q17 10 37.5 25.5t39.5 35t32 43t15 48.5zM422 600q-40 -2 -63.5 22.5t-23.5 60.5q0 35 23.5 60.5t62.5 25.5t61.5 -27.5
t22.5 -69.5q0 -37 -18 -73t-46.5 -68t-64 -57.5t-69.5 -40.5l-9 15q17 10 37.5 25.5t39.5 35t32 43t15 48.5z" />
    <glyph glyph-name="quotesinglbase" unicode="&#x201a;" horiz-adv-x="349" 
d="M148 -10q-39 1 -64 26.5t-25 64.5q0 38 26 65.5t67 27.5q42 0 67.5 -29.5t25.5 -74.5q0 -53 -26 -98t-64.5 -80.5t-82.5 -60.5t-81 -38l-7 16q21 12 49.5 30t54 41.5t43 51t17.5 58.5z" />
    <glyph glyph-name="quotedblbase" unicode="&#x201e;" horiz-adv-x="594" 
d="M148 -10q-39 1 -64 26.5t-25 64.5q0 38 26 65.5t67 27.5q42 0 67.5 -29.5t25.5 -74.5q0 -53 -26 -98t-64.5 -80.5t-82.5 -60.5t-81 -38l-7 16q21 12 49.5 30t54 41.5t43 51t17.5 58.5zM392 -10q-38 1 -63 26.5t-25 64.5q0 38 25.5 65.5t67.5 27.5t67.5 -29.5t25.5 -74.5
q0 -53 -26 -98t-64.5 -80.5t-83 -60.5t-81.5 -38l-6 16q21 12 49 30t53.5 41.5t43 51t17.5 58.5z" />
    <glyph glyph-name="bullet" unicode="&#x2022;" horiz-adv-x="453" 
d="M223 97q-37 0 -69.5 14.5t-57 39.5t-38.5 59t-14 73q0 37 14 70t38.5 57.5t57 38.5t69.5 14q40 0 74 -14t59 -38.5t39.5 -57.5t14.5 -70q0 -39 -14.5 -73t-39.5 -59t-59 -39.5t-74 -14.5z" />
    <glyph glyph-name="minus" unicode="&#x2212;" horiz-adv-x="678" 
d="M586 312v-76h-534v76h534z" />
    <glyph glyph-name="Euro" unicode="&#x20ac;" horiz-adv-x="857" 
d="M288 266v-29q0 -46 7.5 -85t24 -68t43.5 -45.5t66 -16.5q68 0 120.5 50.5t72.5 158.5h158q-23 -73 -63.5 -120t-90 -74.5t-103 -38.5t-101.5 -11q-146 0 -223 74.5t-78 204.5h-141l56 64h88q6 43 18 87h-126l57 63h92q25 55 62.5 103t88 83.5t112 55.5t134.5 20
q58 0 106 -16.5t82.5 -48t53.5 -77t19 -102.5h-158q7 42 6 80t-13.5 67t-37.5 46t-67 17q-39 0 -72 -18.5t-60.5 -50t-50 -72.5t-38.5 -87h249l-57 -63h-211q-5 -23 -10 -44.5t-8 -42.5h167l-57 -64h-117z" />
    <glyph glyph-name="fi" unicode="&#xfb01;" horiz-adv-x="766" 
d="M767 699q0 -21 -8 -39.5t-22 -32.5t-32.5 -22t-39.5 -8t-39.5 8t-32.5 22t-22 32.5t-8 39.5t8 39t22 31.5t32.5 21.5t39.5 8t39.5 -8t32.5 -21.5t22 -31.5t8 -39zM510 360q8 33 11.5 52.5t-0.5 29.5t-17 13.5t-38 4.5l4 16l252 71q-11 -39 -26 -94t-34 -130l-52 -208
q-6 -23 -2.5 -42t23.5 -19q13 0 28 8.5t29 22.5t27.5 32t25.5 37l16 -9q-43 -84 -92 -121t-95 -37q-36 0 -62 9.5t-40.5 31.5t-16 58t11.5 89l47 185v0zM142 488h-79l12 50h79v3q15 60 47.5 103.5t75 72t93 42t103.5 13.5q26 0 53 -3l-35 -141h-11q-9 16 -18 31.5
t-19.5 28.5t-22.5 21t-28 8q-19 0 -35.5 -5t-28.5 -20.5t-18 -44.5t-3 -78l2 -31h147l-12 -50h-140l-122 -488h-162z" />
    <glyph glyph-name="fl" unicode="&#xfb02;" horiz-adv-x="768" 
d="M142 488h-79l12 50h79v3q15 60 47.5 103.5t75 72t93 42t103.5 13.5q26 0 53 -3l-35 -141h-11q-9 16 -18 31.5t-19.5 28.5t-22.5 21t-28 8q-19 0 -35.5 -5t-28.5 -20.5t-18 -44.5t-3 -78l2 -31h147l-12 -50h-140l-122 -488h-162zM572 616q8 33 11.5 52.5t0 29.5
t-16.5 13.5t-38 4.5l4 16l252 71q-11 -39 -26 -94t-34 -130l-116 -462q-7 -27 -3 -45t24 -18q13 0 28 8.5t29 22.5t27.5 32t25.5 37l16 -9q-43 -84 -92 -121t-95 -37q-76 0 -104 44.5t-3 143.5l110 441v0z" />
    <glyph glyph-name="breve" unicode="&#x2d8;" horiz-adv-x="334" 
d="M158 663q46 0 75 26t44 73h53q-7 -26 -21.5 -51t-36.5 -45t-52 -32.5t-68 -12.5t-62.5 12.5t-37.5 33t-15.5 45.5t3.5 50h49q-8 -47 7.5 -73t61.5 -26z" />
    <glyph glyph-name="caron" unicode="&#x2c7;" horiz-adv-x="387" 
d="M44 772h17l130 -71l180 71h16l-206 -169h-14z" />
    <glyph glyph-name="circumflex" unicode="&#x2c6;" horiz-adv-x="387" 
d="M345 603h-17l-130 71l-180 -71h-16l206 169h14z" />
    <glyph glyph-name="dotaccent" unicode="&#x2d9;" horiz-adv-x="198" 
d="M22 694q0 16 6 30.5t16.5 25t24.5 16.5t30 6q32 0 54.5 -23t22.5 -55q0 -31 -22.5 -53.5t-54.5 -22.5t-54.5 22.5t-22.5 53.5z" />
    <glyph glyph-name="dot" horiz-adv-x="349" 
d="M350 699q0 -21 -8 -39.5t-22 -32.5t-32.5 -22t-39.5 -8t-39.5 8t-32.5 22t-22 32.5t-8 39.5t8 39t22 31.5t32.5 21.5t39.5 8t39.5 -8t32.5 -21.5t22 -31.5t8 -39z" />
    <glyph glyph-name="dotaccent.low" horiz-adv-x="198" 
d="M22 -150q0 16 6 30.5t16.5 25t24.5 16.5t30 6q32 0 54.5 -23t22.5 -55q0 -31 -22.5 -53.5t-54.5 -22.5t-54.5 22.5t-22.5 53.5z" />
    <glyph glyph-name="hungarumlaut" unicode="&#x2dd;" horiz-adv-x="522" 
d="M531 772l-291 -169h-14l115 169h190zM316 772l-291 -169h-14l115 169h190z" />
    <glyph glyph-name="commaaccent" horiz-adv-x="181" 
d="M107 -187q-26 1 -46.5 19t-20.5 46t20 47.5t49 19.5q30 0 47.5 -21t17.5 -54q0 -31 -14 -58.5t-38 -51t-56.5 -41.5t-69.5 -30l-5 10q17 9 37 21t37.5 26.5t29.5 31t12 35.5z" />
    <glyph glyph-name="ogonek" unicode="&#x2db;" horiz-adv-x="255" 
d="M209 -201q-25 -15 -54 -25t-58 -10q-34 0 -61 16.5t-27 54.5q0 31 19.5 59t49.5 51.5t65 42.5t65 34h12q-19 -12 -39 -29.5t-36.5 -39t-27 -46t-10.5 -49.5q0 -26 15 -42.5t43 -16.5q19 0 42 9z" />
    <glyph glyph-name="ring" unicode="&#x2da;" horiz-adv-x="250" 
d="M22 723q0 21 8 39t22.5 31.5t33 21.5t39.5 8q22 0 40.5 -8t32.5 -21.5t22 -31.5t8 -39t-8 -39t-22 -31.5t-32.5 -21t-40.5 -7.5q-21 0 -39.5 7.5t-33 21t-22.5 31.5t-8 39zM67 723q0 -26 16 -43t42 -17q28 0 43.5 17t15.5 43q0 27 -17.5 43.5t-41.5 16.5q-26 0 -42 -17
t-16 -43z" />
    <glyph glyph-name="tilde" unicode="&#x2dc;" horiz-adv-x="389" 
d="M28 630q0 23 5.5 48.5t16.5 47t29 35.5t43 14q21 0 42.5 -9t42.5 -20t40 -20t36 -9q27 0 40 11.5t15 43.5h19q0 -41 -8 -67.5t-20 -43t-27 -23t-31 -6.5q-25 0 -47 9t-42.5 20.5t-39.5 20.5t-39 9q-24 0 -39 -15t-17 -46h-19z" />
    <glyph glyph-name="caron.slovak" horiz-adv-x="271" 
d="M160 640q-26 1 -46.5 19t-20.5 46t20 47.5t49 19.5q30 0 47.5 -21t17.5 -54q0 -31 -14 -58.5t-38 -51t-56.5 -41.5t-69.5 -30l-5 10q17 9 37 21t37.5 26.5t29.5 31t12 35.5z" />
    <glyph glyph-name="acute.case" horiz-adv-x="297" 
d="M32 793h-16l84 129h201z" />
    <glyph glyph-name="breve.case" horiz-adv-x="314" 
d="M152 791q-38 0 -62.5 12.5t-37.5 33t-15.5 45.5t3.5 50h49q-8 -47 7.5 -73t61.5 -26t75 26t44 73h53q-7 -26 -21.5 -51t-36.5 -45t-52 -32.5t-68 -12.5z" />
    <glyph glyph-name="caron.case" horiz-adv-x="369" 
d="M163 793l-123 129h21l127 -46l155 46h23l-187 -129h-16z" />
    <glyph glyph-name="cedilla.case" horiz-adv-x="261" 
d="M154 3h37l-72 -86q11 5 22.5 7t20.5 2q32 0 51.5 -19t19.5 -43q0 -25 -12 -44t-31.5 -31.5t-44.5 -19t-50 -6.5q-26 0 -49.5 6.5t-41.5 18.5l12 20q24 -12 59 -12q14 0 28 3t24.5 9.5t17 16.5t6.5 24q0 18 -15.5 27.5t-35.5 9.5q-21 0 -41 -10l-8 5z" />
    <glyph glyph-name="circumflex.case" horiz-adv-x="369" 
d="M208 922l123 -129h-21l-127 46l-155 -46h-23l187 129h16z" />
    <glyph glyph-name="dieresis.case" horiz-adv-x="399" 
d="M244 859q0 27 19.5 47t47.5 20q27 0 46.5 -20t19.5 -47t-19.5 -46t-46.5 -19q-28 0 -47.5 19t-19.5 46zM22 859q0 27 19 47t45 20q29 0 48.5 -20t19.5 -47t-19.5 -46t-48.5 -19q-26 0 -45 19t-19 46z" />
    <glyph glyph-name="dotaccent.case" horiz-adv-x="176" 
d="M11 866q0 32 22 54.5t54 22.5q16 0 30.5 -6t25 -16.5t16.5 -24.5t6 -30t-6 -30t-16.5 -24.5t-25 -16.5t-30.5 -6q-32 0 -54 22.5t-22 54.5z" />
    <glyph glyph-name="grave.case" horiz-adv-x="297" 
d="M239 922l20 -129h-16l-205 129h201z" />
    <glyph glyph-name="hungarumlaut.case" horiz-adv-x="509" 
d="M259 793h-16l84 129h201zM32 793h-16l84 129h201z" />
    <glyph glyph-name="macron.case" horiz-adv-x="345" 
d="M15 818l16 68h296l-16 -68h-296z" />
    <glyph glyph-name="ogonek.case" horiz-adv-x="255" 
d="M209 -201q-25 -15 -54 -25t-58 -10q-34 0 -61 16.5t-27 54.5q0 31 19.5 59t49.5 51.5t65 42.5t65 34h12q-19 -12 -39 -29.5t-36.5 -39t-27 -46t-10.5 -49.5q0 -26 15 -42.5t43 -16.5q19 0 42 9z" />
    <glyph glyph-name="ring.case" horiz-adv-x="231" 
d="M22 880q0 39 27 66.5t66 27.5q19 0 36.5 -7.5t30 -20t20 -30t7.5 -36.5t-7.5 -36t-20 -29.5t-30 -20t-36.5 -7.5q-20 0 -36.5 7.5t-29.5 20t-20 29.5t-7 36zM61 880q0 -25 15 -40.5t39 -15.5q23 0 38.5 15.5t15.5 40.5t-15.5 41t-38.5 16q-24 0 -39 -16t-15 -41z" />
    <glyph glyph-name="tilde.case" horiz-adv-x="378" 
d="M279 866q25 0 40.5 11.5t20.5 38.5h16q0 -24 -5.5 -46.5t-17 -40.5t-29 -28.5t-41.5 -10.5q-25 0 -45 9.5t-38.5 21t-37.5 21t-42 9.5q-26 0 -41.5 -12t-20.5 -39h-16q0 24 5.5 47t17 41t29 28.5t41.5 10.5t44.5 -9.5t39.5 -21t38.5 -21t41.5 -9.5z" />
    </font>
</defs>
</svg>
