<?xml version="1.0" standalone="no"?>
<!DOCTYPE svg PUBLIC "-//W3C//DTD SVG 1.1//EN" "http://www.w3.org/Graphics/SVG/1.1/DTD/svg11.dtd" >
<svg xmlns="http://www.w3.org/2000/svg" xmlns:xlink="http://www.w3.org/1999/xlink" version="1.1">
<metadata>
Created by Christoph Koeberlin (http://christoph.koe.berlin)
Copyright (c) 2020 Swiss Typefaces Sarl. All rights reserved.
</metadata>
<defs>
<font id="Font" horiz-adv-x="618" >
  <font-face 
    font-family="Font"
    font-weight="700"
    font-style="italic"
    font-stretch="normal"
    units-per-em="1000"
    panose-1="2 11 8 4 0 0 0 0 0 0"
    ascent="800"
    descent="-200"
    x-height="538"
    cap-height="725"
    bbox="-252 -231 1181 966"
    underline-thickness="100"
    underline-position="-88"
    slope="-12"
    unicode-range="U+0020-FB02"
  />
<missing-glyph horiz-adv-x="703" 
d="M619 0h-500v725h500v-725zM585 706h-433l217 -328zM138 29l220 333l-220 334v-667zM600 696l-221 -334l221 -333v667zM585 19l-216 327l-217 -327h433z" />
    <glyph glyph-name=".notdef" horiz-adv-x="703" 
d="M619 0h-500v725h500v-725zM585 706h-433l217 -328zM138 29l220 333l-220 334v-667zM600 696l-221 -334l221 -333v667zM585 19l-216 327l-217 -327h433z" />
    <glyph glyph-name="glyph1" horiz-adv-x="0" 
 />
    <glyph glyph-name="glyph2" horiz-adv-x="204" 
 />
    <glyph glyph-name="space" unicode=" " horiz-adv-x="204" 
 />
    <glyph glyph-name="exclam" unicode="!" horiz-adv-x="305" 
d="M101 527l44 198h207l-43 -198l-111 -296h-110zM224 178l-38 -178h-186l38 178h186z" />
    <glyph glyph-name="quotedbl" unicode="&#x22;" horiz-adv-x="443" 
d="M86 425l41 300h166l-87 -300h-120zM296 425l41 300h166l-87 -300h-120z" />
    <glyph glyph-name="numbersign" unicode="#" horiz-adv-x="786" 
d="M782 565l-20 -137h-118l-19 -130h118l-20 -138h-118l-23 -160h-157l23 160h-133l-23 -160h-157l23 160h-118l20 138h118l19 130h-118l20 137h118l23 160h157l-23 -160h133l23 160h157l-23 -160h118zM335 298h133l19 130h-133z" />
    <glyph glyph-name="dollar" unicode="$" horiz-adv-x="626" 
d="M582 536q-36 25 -80 41t-89 21l-36 -164l14 -7q91 -44 138 -92t47 -116t-39.5 -120t-106.5 -81t-149 -31l-17 -80h-58l18 82q-103 10 -211 62l34 159q40 -33 95 -57t111 -29l40 186l-31 14q-83 39 -124.5 85t-41.5 115q0 66 37 114t103 73.5t149 25.5l17 81h58l-18 -84
q84 -9 172 -50zM325 459l30 142q-50 -2 -76.5 -18t-26.5 -44q0 -23 18 -42t55 -38zM345 282l-34 -157q46 5 71 25t25 55q0 21 -14.5 39.5t-47.5 37.5z" />
    <glyph glyph-name="percent" unicode="%" horiz-adv-x="977" 
d="M244 310q-79 0 -123 46t-44 128q0 63 21 120t65.5 93.5t112.5 36.5q80 0 124 -46t44 -128q0 -63 -21 -120t-66 -93.5t-113 -36.5zM250 407q35 0 51 45t16 98q0 84 -45 84q-36 0 -52 -45t-16 -99q0 -83 46 -83zM737 -7q-79 0 -123 46t-44 128q0 63 21 120t65.5 93.5
t112.5 36.5q80 0 124 -46t44 -128q0 -63 -21 -120t-66 -93.5t-113 -36.5zM743 90q35 0 51 45t16 98q0 84 -45 84q-36 0 -52 -45t-16 -99q0 -83 46 -83zM927 725l-682 -725h-158l682 725h158z" />
    <glyph glyph-name="ampersand" unicode="&#x26;" horiz-adv-x="781" 
d="M757 0h-211l-52 60q-53 -37 -108.5 -55t-122.5 -18q-81 0 -137 28.5t-84 75t-28 101.5q0 158 182 216q-28 37 -40.5 68.5t-12.5 63.5q0 63 31 107.5t84 67t119 22.5q97 0 153.5 -44t56.5 -117q0 -65 -37.5 -114.5t-120.5 -84.5l83 -95q42 73 52 142h160
q-10 -62 -37.5 -124t-77.5 -130zM312 546q0 -19 10.5 -38t35.5 -49q73 32 73 94q0 26 -16 41t-41 15q-24 0 -43 -17.5t-19 -45.5zM407 162l-133 154q-47 -20 -69 -45.5t-22 -58.5q0 -40 30 -65.5t75 -25.5q34 0 62 9.5t57 31.5z" />
    <glyph glyph-name="quotesingle" unicode="'" horiz-adv-x="233" 
d="M86 425l41 300h166l-87 -300h-120z" />
    <glyph glyph-name="parenleft" unicode="(" horiz-adv-x="344" 
d="M98 -195q-27 50 -51.5 162t-24.5 202q0 177 73 327t178 259h160q-123 -149 -184.5 -293t-61.5 -309q0 -85 19.5 -187t43.5 -161h-152z" />
    <glyph glyph-name="parenright" unicode=")" horiz-adv-x="344" 
d="M247 755q27 -50 51.5 -162t24.5 -202q0 -177 -73 -327t-178 -259h-160q123 149 184.5 293t61.5 309q0 85 -19.5 187t-43.5 161h152z" />
    <glyph glyph-name="asterisk" unicode="*" horiz-adv-x="458" 
d="M231 725h107v-106l100 38l38 -99l-102 -37l61 -85l-84 -63l-65 89l-60 -89l-91 61l63 87l-103 37l38 99l98 -38v106z" />
    <glyph glyph-name="plus" unicode="+" horiz-adv-x="678" 
d="M414 200v-200h-155v200h-212v139h212v199h155v-199h211v-139h-211z" />
    <glyph glyph-name="comma" unicode="," horiz-adv-x="276" 
d="M65 0h-73l38 178h186l-40 -188l-135 -148h-97z" />
    <glyph glyph-name="hyphen" unicode="-" horiz-adv-x="449" 
d="M414 338l-31 -145h-353l31 145h353z" />
    <glyph glyph-name="period" unicode="." horiz-adv-x="276" 
d="M216 178l-38 -178h-186l38 178h186z" />
    <glyph glyph-name="slash" unicode="/" horiz-adv-x="362" 
d="M438 755l-305 -755h-165l305 755h165z" />
    <glyph glyph-name="zero" unicode="0" horiz-adv-x="703" 
d="M334 -13q-137 0 -207 83t-70 224q0 115 34 215t111 164t198 64q141 0 211.5 -82.5t70.5 -224.5q0 -114 -34.5 -214.5t-112.5 -164.5t-201 -64zM345 109q62 0 100 52.5t54 125.5t16 142q0 85 -31.5 135.5t-89.5 50.5q-62 0 -100 -52.5t-54 -125.5t-16 -142
q0 -85 31.5 -135.5t89.5 -50.5z" />
    <glyph glyph-name="one" unicode="1" horiz-adv-x="599" 
d="M375 135h175l-29 -135h-526l29 135h187l79 372h-186l26 121q101 2 158 23.5t88 73.5h125z" />
    <glyph glyph-name="two" unicode="2" horiz-adv-x="590" 
d="M604 559q0 -71 -38.5 -131t-107 -117t-211.5 -162l-19 -14h290l-29 -135h-514l29 135q58 42 128 90q107 75 165.5 120t96 90t37.5 85q0 38 -30.5 58t-88.5 20q-45 0 -102 -14t-102 -36l32 146q42 20 105 31.5t123 11.5q107 0 171.5 -48t64.5 -130z" />
    <glyph glyph-name="three" unicode="3" horiz-adv-x="584" 
d="M225 303h-46l28 136h43q78 0 125 24.5t47 69.5q0 33 -33.5 49t-88.5 16q-46 0 -97 -10.5t-92 -28.5l32 146q31 15 81 23.5t106 8.5q72 0 132 -20.5t95.5 -60t35.5 -94.5q0 -64 -39.5 -112.5t-100.5 -74.5q37 -21 56.5 -58.5t19.5 -84.5q0 -74 -42 -130t-114 -85.5
t-159 -29.5q-66 0 -130 16t-97 37l32 146q38 -26 95 -43t107 -17q67 0 103 29t36 72q0 36 -36.5 56t-98.5 20z" />
    <glyph glyph-name="four" unicode="4" horiz-adv-x="662" 
d="M538 298h99l-28 -135h-100l-35 -163h-165l35 163h-352l25 119l459 443h153zM373 298l45 212l-217 -212h172z" />
    <glyph glyph-name="five" unicode="5" horiz-adv-x="589" 
d="M188 725h435l-28 -135h-298l-39 -116q25 4 57 4q66 0 119.5 -24.5t84.5 -71t31 -111.5q0 -85 -45.5 -149.5t-124.5 -99.5t-178 -35q-57 0 -113.5 12.5t-96.5 31.5l32 149q31 -20 94.5 -37t105.5 -17q79 0 117.5 32.5t38.5 81.5q0 52 -50.5 79t-128.5 27q-75 0 -144 -21z
" />
    <glyph glyph-name="six" unicode="6" horiz-adv-x="649" 
d="M50 286q0 124 50.5 227t144.5 163.5t218 60.5q98 0 194 -35l-32 -146q-94 42 -183 42q-64 0 -118 -35t-81 -119q51 47 140 47q63 0 116.5 -27.5t84.5 -79.5t31 -120q0 -79 -38.5 -142.5t-105 -99t-147.5 -35.5q-89 0 -150.5 38t-92.5 105.5t-31 155.5zM340 367
q-56 0 -91.5 -38.5t-35.5 -97.5q0 -53 29.5 -87.5t77.5 -34.5q55 0 91.5 40.5t36.5 105.5q0 52 -28 82t-80 30z" />
    <glyph glyph-name="seven" unicode="7" horiz-adv-x="582" 
d="M86 590l28 135h543l-28 -134q-129 -82 -210 -160t-132 -180.5t-77 -250.5h-175q30 208 136.5 347t283.5 243h-369z" />
    <glyph glyph-name="eight" unicode="8" horiz-adv-x="663" 
d="M614 237q0 -84 -43.5 -140.5t-112.5 -83.5t-145 -27q-71 0 -135.5 23t-105.5 72.5t-41 125.5q0 62 32.5 112t93.5 81q-27 23 -40.5 56.5t-13.5 72.5q0 68 41 115t104.5 70t130.5 23q71 0 131.5 -21.5t97.5 -64.5t37 -105q0 -54 -28.5 -98t-73.5 -71q38 -30 54.5 -64.5
t16.5 -75.5zM366 437q51 0 82.5 23t31.5 69q0 38 -28.5 62t-79.5 24q-48 0 -78.5 -23.5t-30.5 -66.5q0 -42 27 -65t76 -23zM319 109q51 0 88.5 31.5t37.5 84.5q0 50 -29.5 77t-88.5 27q-55 0 -90.5 -31t-35.5 -81q0 -49 31 -78.5t87 -29.5z" />
    <glyph glyph-name="nine" unicode="9" horiz-adv-x="650" 
d="M635 438q0 -124 -50.5 -227t-144.5 -163.5t-218 -60.5q-98 0 -194 35l32 146q94 -42 183 -42q64 0 118 35t81 119q-51 -47 -140 -47q-63 0 -116.5 27.5t-84.5 79.5t-31 120q0 79 38.5 142.5t105 99t147.5 35.5q89 0 150.5 -38t92.5 -105.5t31 -155.5zM345 357
q56 0 91.5 38.5t35.5 97.5q0 53 -29.5 87.5t-77.5 34.5q-55 0 -91.5 -40.5t-36.5 -105.5q0 -52 28 -82t80 -30z" />
    <glyph glyph-name="colon" unicode=":" horiz-adv-x="284" 
d="M290 538l-38 -178h-186l38 178h186zM214 178l-38 -178h-186l38 178h186z" />
    <glyph glyph-name="semicolon" unicode=";" horiz-adv-x="297" 
d="M299 538l-38 -178h-186l38 178h186zM72 0h-73l38 178h186l-40 -188l-135 -148h-97z" />
    <glyph glyph-name="equal" unicode="=" horiz-adv-x="678" 
d="M626 478v-139h-578v139h578zM626 200v-138h-578v138h578z" />
    <glyph glyph-name="question" unicode="?" horiz-adv-x="519" 
d="M103 707q32 14 84 22t107 8q73 0 135 -20.5t100 -61.5t38 -99q0 -62 -32 -104.5t-106 -79.5l-18 -9q-44 -22 -63 -35.5t-27 -28t-14 -44.5l-5 -25h-162l8 38q11 53 29 85.5t43.5 53t67.5 41.5l18 9q52 26 72 41.5t20 39.5q0 27 -34 43.5t-92 16.5q-49 0 -106.5 -13
t-96.5 -34zM305 178l-38 -178h-186l38 178h186z" />
    <glyph glyph-name="at" unicode="@" horiz-adv-x="839" 
d="M519 236q-42 -73 -122 -73q-65 0 -109 44.5t-44 128.5q0 62 27 112.5t71.5 79.5t95.5 29q71 0 104 -56l7 40h102l-34 -209q-3 -16 -3 -30q0 -47 38 -47q34 0 54 37.5t20 107.5q0 116 -70.5 174.5t-187.5 58.5q-88 0 -154.5 -37t-102.5 -102.5t-36 -146.5q0 -77 33.5 -138
t94 -95t137.5 -34q89 0 174 44l41 -101q-52 -26 -110 -38.5t-112 -12.5q-111 0 -198 48t-136 133t-49 193q0 114 55 204t151.5 140.5t215.5 50.5q100 0 186 -36.5t138.5 -112t52.5 -184.5q0 -81 -29 -139t-76 -87.5t-99 -29.5q-47 0 -79 22.5t-47 61.5zM366 340
q0 -33 14.5 -51t40.5 -18q41 0 64.5 30t23.5 75q0 73 -60 73q-37 0 -60 -32t-23 -77z" />
    <glyph glyph-name="A" unicode="A" horiz-adv-x="718" 
d="M667 0h-181l-22 176h-248l-97 -176h-187l427 725h188zM419 543l-126 -228h154z" />
    <glyph glyph-name="B" unicode="B" horiz-adv-x="675" 
d="M5 0l154 725h270q111 0 177 -41.5t66 -126.5q0 -56 -33 -102t-91 -73q85 -50 85 -143q0 -71 -37.5 -125t-108 -84t-166.5 -30h-316zM299 581l-31 -146h105q52 0 81.5 20t29.5 61q0 27 -21.5 46t-58.5 19h-105zM241 308l-34 -164h114q65 0 97 22t32 69q0 32 -25 52.5
t-70 20.5h-114z" />
    <glyph glyph-name="C" unicode="C" horiz-adv-x="651" 
d="M430 133q34 0 79.5 9.5t76.5 20.5l-34 -159q-74 -17 -150 -17q-102 0 -182.5 40t-126 114.5t-45.5 174.5q0 128 59.5 223.5t159.5 146.5t217 51q130 0 216 -35l-34 -158q-44 22 -85.5 34.5t-103.5 12.5q-71 0 -127.5 -34t-88.5 -95t-32 -140q0 -92 53 -140.5t148 -48.5z
" />
    <glyph glyph-name="D" unicode="D" horiz-adv-x="745" 
d="M353 725q107 0 192.5 -32.5t136 -100t50.5 -168.5q0 -229 -151.5 -326.5t-381.5 -97.5h-194l154 725h194zM326 581h-27l-92 -437h25q137 0 226.5 56t89.5 209q0 94 -63 133t-159 39z" />
    <glyph glyph-name="E" unicode="E" horiz-adv-x="616" 
d="M511 0h-506l154 725h506l-32 -151h-335l-27 -126h314l-32 -151h-314l-31 -146h335z" />
    <glyph glyph-name="F" unicode="F" horiz-adv-x="579" 
d="M176 0h-171l154 725h484l-32 -151h-313l-27 -126h291l-32 -151h-291z" />
    <glyph glyph-name="G" unicode="G" horiz-adv-x="744" 
d="M47 316q0 127 62.5 223t165.5 147t221 51q130 0 216 -35l-34 -158q-44 22 -85.5 34.5t-103.5 12.5q-71 0 -131 -34t-95 -95t-35 -140q0 -92 53 -141t148 -49q34 0 67 9l30 141h-157l30 140h327l-85 -402q-99 -33 -234 -33q-104 0 -186 41t-128 116t-46 172z" />
    <glyph glyph-name="H" unicode="H" horiz-adv-x="750" 
d="M549 448l59 277h171l-154 -725h-171l63 297h-278l-63 -297h-171l154 725h171l-59 -277h278z" />
    <glyph glyph-name="I" unicode="I" horiz-adv-x="509" 
d="M440 151l-32 -151h-427l32 151h128l90 423h-128l32 151h427l-32 -151h-128l-90 -423h128z" />
    <glyph glyph-name="J" unicode="J" horiz-adv-x="430" 
d="M-31 5l45 148q45 -19 87 -19q33 0 50.5 14.5t25.5 39.5t20 82l64 304h-141l32 151h312l-105 -493q-25 -120 -86.5 -182.5t-172.5 -62.5q-63 0 -131 18z" />
    <glyph glyph-name="K" unicode="K" horiz-adv-x="694" 
d="M159 725h171l-66 -309l308 309h216l-369 -362l238 -363h-203l-210 324l-68 -324h-171z" />
    <glyph glyph-name="L" unicode="L" horiz-adv-x="555" 
d="M159 725h171l-122 -574h298l-32 -151h-469z" />
    <glyph glyph-name="M" unicode="M" horiz-adv-x="898" 
d="M730 581l-217 -381h-161l-58 380l-123 -580h-166l154 725h256l51 -340l194 340h267l-154 -725h-166z" />
    <glyph glyph-name="N" unicode="N" horiz-adv-x="782" 
d="M811 725l-154 -725h-210l-169 512l-109 -512h-164l154 725h206l170 -513l109 513h167z" />
    <glyph glyph-name="O" unicode="O" horiz-adv-x="790" 
d="M362 -13q-91 0 -163 35t-113 103.5t-41 165.5q0 120 50 222t144.5 163t222.5 61q91 0 163 -35t113 -103.5t41 -165.5q0 -120 -50 -222t-144.5 -163t-222.5 -61zM378 128q70 0 119.5 42t75 107.5t25.5 133.5q0 85 -40.5 135t-111.5 50q-70 0 -119.5 -42t-75 -107.5
t-25.5 -133.5q0 -85 40.5 -135t111.5 -50z" />
    <glyph glyph-name="P" unicode="P" horiz-adv-x="656" 
d="M398 725q135 0 210.5 -45t75.5 -154q0 -138 -101.5 -206.5t-285.5 -68.5h-68l-53 -251h-171l154 725h239zM299 581l-39 -186h73q166 0 166 97q0 42 -32.5 65.5t-94.5 23.5h-73z" />
    <glyph glyph-name="Q" unicode="Q" horiz-adv-x="793" 
d="M629 81l72 -106l-102 -70l-76 112q-76 -30 -161 -30q-91 0 -163 35t-113 103.5t-41 165.5q0 120 50 222t144.5 163t222.5 61q91 0 163 -35t113 -103.5t41 -165.5q0 -105 -39 -197.5t-111 -154.5zM440 138l-78 114l102 70l74 -108q29 40 44.5 92.5t15.5 104.5
q0 85 -40.5 135t-111.5 50q-70 0 -119.5 -42t-75 -107.5t-25.5 -133.5q0 -85 40.5 -135t111.5 -50q30 0 62 10z" />
    <glyph glyph-name="R" unicode="R" horiz-adv-x="672" 
d="M436 0l-136 283h-64l-60 -283h-171l154 725h239q128 0 200 -43.5t72 -145.5q0 -87 -50.5 -149.5t-146.5 -85.5l148 -301h-185zM299 581l-32 -154h73q79 0 112 20t33 60q0 42 -29.5 58t-83.5 16h-73z" />
    <glyph glyph-name="S" unicode="S" horiz-adv-x="604" 
d="M5 51l36 169q45 -38 106 -62.5t123 -24.5q122 0 122 72q0 26 -24.5 49.5t-81.5 47.5l-42 18q-77 34 -116.5 82t-39.5 118q0 67 38.5 116t106.5 75t154 26q131 0 220 -51l-34 -158q-44 30 -101.5 46.5t-111.5 16.5q-53 0 -81 -14t-28 -42q0 -25 25 -44t82 -45l41 -19
q169 -75 169 -198q0 -72 -41 -127t-111 -85t-154 -30q-141 0 -257 64z" />
    <glyph glyph-name="T" unicode="T" horiz-adv-x="639" 
d="M345 0h-172l122 574h-212l32 151h597l-32 -151h-213z" />
    <glyph glyph-name="U" unicode="U" horiz-adv-x="743" 
d="M343 127q57 0 91.5 20.5t52.5 57.5t31 97l90 423h171l-87 -409q-25 -119 -68 -190.5t-115 -105t-185 -33.5q-134 0 -203.5 50.5t-69.5 164.5q0 50 13 108l88 415h171l-92 -433q-9 -39 -9 -70q0 -48 28 -71.5t93 -23.5z" />
    <glyph glyph-name="V" unicode="V" horiz-adv-x="676" 
d="M86 725h179l53 -533l268 533h190l-404 -725h-187z" />
    <glyph glyph-name="W" unicode="W" horiz-adv-x="932" 
d="M466 725h176l3 -503l186 503h180l-290 -725h-206v522l-220 -522h-194v725h178l-16 -501z" />
    <glyph glyph-name="X" unicode="X" horiz-adv-x="698" 
d="M130 0h-200l341 375l-177 350h189l110 -217l197 217h202l-327 -359l186 -366h-189l-119 233z" />
    <glyph glyph-name="Y" unicode="Y" horiz-adv-x="694" 
d="M259 271l-180 454h176l118 -300l232 300h198l-374 -456l-57 -269h-171z" />
    <glyph glyph-name="Z" unicode="Z" horiz-adv-x="659" 
d="M144 725h572l-28 -131l-467 -443h380l-32 -151h-604l28 131l467 444h-348z" />
    <glyph glyph-name="bracketleft" unicode="[" horiz-adv-x="371" 
d="M-35 -195l198 950h278l-28 -135h-115l-144 -680h116l-28 -135h-277z" />
    <glyph glyph-name="bracketright" unicode="]" horiz-adv-x="361" 
d="M397 755l-198 -950h-277l28 135h114l143 680h-116l28 135h278z" />
    <glyph glyph-name="underscore" unicode="_" horiz-adv-x="517" 
d="M426 -27l-30 -139h-460l30 139h460z" />
    <glyph glyph-name="grave" unicode="`" horiz-adv-x="326" 
d="M293 639h-113l-134 116h183z" />
    <glyph glyph-name="a" unicode="a" horiz-adv-x="578" 
d="M387 349v12q0 60 -119 60q-45 0 -84 -10t-83 -31l29 135q84 39 190 39q111 0 166.5 -46t55.5 -132q0 -30 -6.5 -70t-24.5 -110q-13 -51 -23 -105.5t-13 -90.5h-154l11 75q-30 -43 -73 -65.5t-95 -22.5q-50 0 -88.5 19.5t-59 53t-20.5 74.5q0 102 97 150.5t294 64.5z
M367 231l7 24q-205 -7 -205 -100q0 -26 15 -41t46 -15q99 0 137 132z" />
    <glyph glyph-name="b" unicode="b" horiz-adv-x="643" 
d="M265 473q31 40 73 58.5t84 18.5q58 0 102.5 -27.5t69 -77.5t24.5 -115q0 -86 -33 -165t-97 -128.5t-152 -49.5q-58 0 -96 26.5t-57 66.5l-17 -80h-167l160 755h165zM305 115q72 0 107 56.5t35 132.5q0 53 -24 85.5t-69 32.5q-49 0 -82 -31.5t-48.5 -77t-15.5 -86.5
q0 -48 25.5 -80t71.5 -32z" />
    <glyph glyph-name="c" unicode="c" horiz-adv-x="493" 
d="M327 122q44 0 99 15l-30 -137q-67 -13 -109 -13q-120 0 -191 62.5t-71 175.5q0 102 45 176.5t122 113.5t172 39q77 0 150 -24l-30 -137q-34 13 -62.5 19.5t-61.5 6.5q-47 0 -85 -21t-59.5 -59.5t-21.5 -89.5q0 -61 34 -94t99 -33z" />
    <glyph glyph-name="d" unicode="d" horiz-adv-x="641" 
d="M374 62q-31 -40 -72 -57.5t-83 -17.5q-58 0 -102.5 27.5t-69 77.5t-24.5 115q0 86 33 165t97 128.5t152 49.5q58 0 96 -26.5t57 -66.5l63 298h165l-160 -755h-165zM336 422q-72 0 -107 -56.5t-35 -132.5q0 -53 24 -85.5t69 -32.5q49 0 82 31.5t48.5 77t15.5 86.5
q0 48 -25.5 80t-71.5 32z" />
    <glyph glyph-name="e" unicode="e" horiz-adv-x="598" 
d="M576 313q0 -44 -10 -85h-378q8 -54 44 -80t107 -26q89 0 166 29l-30 -138q-27 -12 -73.5 -19t-85.5 -7q-136 0 -213 64.5t-77 185.5q0 88 39.5 160.5t112.5 114.5t169 42q74 0 125.5 -32.5t77.5 -87t26 -121.5zM195 327h230q1 51 -25 77t-72 26q-43 0 -80.5 -25.5
t-52.5 -77.5z" />
    <glyph glyph-name="f" unicode="f" horiz-adv-x="383" 
d="M160 591q20 97 76.5 135t154.5 38q20 0 47 -3t45 -7l-25 -118q-10 3 -27.5 4.5t-29.5 1.5q-35 0 -53 -15t-27 -54l-7 -35h119l-25 -117h-119l-89 -421h-165l89 421h-73l25 117h73z" />
    <glyph glyph-name="g" unicode="g" horiz-adv-x="638" 
d="M379 89q-31 -37 -73.5 -53.5t-84.5 -16.5q-57 0 -101 27t-68.5 74.5t-24.5 108.5q0 80 33 154t96 120.5t150 46.5q57 0 94.5 -24.5t56.5 -62.5l16 75h165l-99 -466q-30 -141 -118 -209.5t-224 -68.5q-62 0 -122 10.5t-99 27.5l31 150q38 -29 86 -42t99 -13q68 0 117.5 33
t61.5 92zM335 422q-71 0 -104 -48t-33 -119q0 -49 24 -78.5t68 -29.5q49 0 80.5 27t46 67t14.5 78q0 45 -25 74t-71 29z" />
    <glyph glyph-name="h" unicode="h" horiz-adv-x="630" 
d="M263 466q31 39 73.5 61.5t104.5 22.5q75 0 115 -39t40 -118q0 -39 -11 -91l-64 -302h-165l60 280q9 39 9 67q0 75 -68 75q-50 0 -84 -35.5t-49 -106.5l-60 -280h-165l160 755h165z" />
    <glyph glyph-name="i" unicode="i" horiz-adv-x="279" 
d="M132 623l28 132h165l-28 -132h-165zM-2 0l115 538h166l-115 -538h-166z" />
    <glyph glyph-name="j" unicode="j" horiz-adv-x="321" 
d="M173 623l28 132h165l-28 -132h-165zM-94 -192l25 117q33 -12 53 -12q22 0 33.5 12.5t16.5 39.5l96 456h-79l25 117h244l-122 -577q-35 -167 -192 -167q-44 0 -100 14z" />
    <glyph glyph-name="k" unicode="k" horiz-adv-x="581" 
d="M-1 0l160 755h165l-91 -428l203 211h205l-264 -271l166 -267h-192l-138 232l-49 -232h-165z" />
    <glyph glyph-name="l" unicode="l" horiz-adv-x="279" 
d="M159 755h165l-160 -755h-165z" />
    <glyph glyph-name="m" unicode="m" horiz-adv-x="966" 
d="M579 458q34 44 85.5 68t116.5 24q151 0 151 -154q0 -39 -11 -94l-64 -302h-165l60 280q9 41 9 69q0 37 -16 55t-49 18q-49 0 -79.5 -34.5t-46.5 -107.5l-60 -280h-165l60 280q9 41 9 70q0 72 -64 72q-49 0 -80 -35t-46 -107l-60 -280h-165l114 538h160l-14 -69
q33 38 74 59.5t102 21.5q56 0 93.5 -23t50.5 -69z" />
    <glyph glyph-name="n" unicode="n" horiz-adv-x="630" 
d="M113 538h162l-15 -72q69 84 181 84q75 0 115 -39t40 -118q0 -38 -11 -91l-64 -302h-165l60 280q9 39 9 68q0 38 -16.5 56t-50.5 18q-50 0 -84.5 -35.5t-49.5 -106.5l-60 -280h-165z" />
    <glyph glyph-name="o" unicode="o" 
d="M23 220q0 76 33.5 153t105 129t179.5 52q113 0 183 -59.5t70 -173.5q0 -76 -33.5 -153t-105 -129t-178.5 -52q-113 0 -183.5 59.5t-70.5 173.5zM424 313q0 56 -24 84.5t-71 28.5q-64 0 -100 -58t-36 -140q0 -56 24 -84.5t71 -28.5q64 0 100 58t36 140z" />
    <glyph glyph-name="p" unicode="p" horiz-adv-x="641" 
d="M264 473q31 40 72.5 58.5t83.5 18.5q58 0 102.5 -27.5t69 -77.5t24.5 -115q0 -86 -33 -165t-97 -128.5t-152 -49.5q-58 0 -96 26.5t-57 66.5l-58 -275h-165l155 733h164zM303 115q72 0 107 56.5t35 132.5q0 53 -24 85.5t-69 32.5q-49 0 -82 -31.5t-48.5 -77t-15.5 -86.5
q0 -48 25.5 -80t71.5 -32z" />
    <glyph glyph-name="q" unicode="q" horiz-adv-x="640" 
d="M374 62q-31 -40 -72 -57.5t-83 -17.5q-58 0 -102.5 27.5t-69 77.5t-24.5 115q0 86 33 165t97 128.5t152 49.5q58 0 96 -26.5t57 -66.5l17 81h165l-155 -733h-165zM336 422q-72 0 -107 -56.5t-35 -132.5q0 -53 24 -85.5t69 -32.5q49 0 82 31.5t48.5 77t15.5 86.5
q0 48 -25.5 80t-71.5 32z" />
    <glyph glyph-name="r" unicode="r" horiz-adv-x="406" 
d="M415 378q-25 5 -57 5q-56 0 -89.5 -23.5t-45.5 -80.5l-59 -279h-165l114 538h160l-21 -99q31 47 77 75t104 28q9 0 17 -1z" />
    <glyph glyph-name="s" unicode="s" horiz-adv-x="477" 
d="M13 168q47 -24 95.5 -36.5t88.5 -12.5q34 0 53.5 11t19.5 30q0 18 -14.5 30t-48.5 26l-23 9q-120 46 -120 153q0 51 28 90.5t82 62.5t130 23q86 0 166 -31l-30 -137q-83 36 -151 36q-36 0 -54.5 -9t-18.5 -25q0 -13 13.5 -24.5t48.5 -26.5l23 -10q70 -31 101.5 -65.5
t31.5 -84.5q0 -55 -30 -98t-86.5 -67.5t-132.5 -24.5q-109 0 -202 43z" />
    <glyph glyph-name="t" unicode="t" horiz-adv-x="436" 
d="M79 107q0 29 7 60l54 254h-105l25 117h105l31 147h165l-31 -147h138l-25 -117h-138l-46 -217q-5 -21 -5 -41q0 -28 13 -37t38 -9q39 0 78 15l-27 -127q-64 -18 -114 -18q-78 0 -120.5 27t-42.5 93z" />
    <glyph glyph-name="u" unicode="u" 
d="M357 69q-66 -82 -176 -82q-72 0 -110.5 39t-38.5 117q0 37 11 90l64 305h165l-60 -282q-9 -39 -9 -67q0 -74 65 -74q46 0 77.5 35.5t46.5 105.5l60 282h165l-114 -538h-161z" />
    <glyph glyph-name="v" unicode="v" horiz-adv-x="546" 
d="M51 538h164l37 -379l176 379h173l-287 -538h-191z" />
    <glyph glyph-name="w" unicode="w" horiz-adv-x="820" 
d="M234 538l-14 -354l149 354h190l-3 -353l139 353h174l-233 -538h-201v386l-163 -386h-208l3 538h167z" />
    <glyph glyph-name="x" unicode="x" horiz-adv-x="575" 
d="M446 538h186l-256 -269l151 -269h-169l-89 156l-148 -156h-186l265 279l-146 259h172l81 -146z" />
    <glyph glyph-name="y" unicode="y" horiz-adv-x="558" 
d="M623 538l-443 -733h-171l135 222l-95 511h168l57 -316l177 316h172z" />
    <glyph glyph-name="z" unicode="z" horiz-adv-x="558" 
d="M474 0h-505l28 131l335 276h-261l28 131h475l-28 -131l-335 -276h291z" />
    <glyph glyph-name="braceleft" unicode="{" horiz-adv-x="390" 
d="M200 -195q-84 0 -128 32.5t-44 96.5q0 21 6 47l28 129q7 33 7 50q0 27 -14 40.5t-48 13.5l29 133q46 0 66.5 25t31.5 78l28 129q15 71 43 108.5t78.5 52.5t141.5 15h36l-27 -130h-26q-38 0 -57 -10t-25 -38l-33 -159q-13 -63 -47 -93.5t-83 -42.5l-1 -3
q36 -10 56.5 -31.5t20.5 -62.5q0 -15 -5 -42l-33 -160q-2 -12 -2 -16q0 -19 15 -25.5t47 -6.5h26l-27 -130h-60z" />
    <glyph glyph-name="bar" unicode="|" horiz-adv-x="347" 
d="M106 -90v845h158v-845h-158z" />
    <glyph glyph-name="braceright" unicode="}" horiz-adv-x="390" 
d="M191 755q85 0 128.5 -32.5t43.5 -96.5q0 -21 -6 -47l-28 -129q-7 -33 -7 -50q0 -27 14 -40.5t48 -13.5l-29 -133q-46 0 -66.5 -25t-31.5 -78l-28 -129q-15 -71 -43 -108.5t-78.5 -52.5t-141.5 -15h-36l27 130h26q38 0 57 10t25 38l33 159q13 64 46.5 94.5t83.5 42.5l1 3
q-36 10 -56.5 31t-20.5 62q0 15 5 42l33 160q2 12 2 16q0 19 -15 25.5t-47 6.5h-26l27 130h60z" />
    <glyph glyph-name="uni00A0" unicode="&#xa0;" horiz-adv-x="204" 
 />
    <glyph glyph-name="exclamdown" unicode="&#xa1;" horiz-adv-x="295" 
d="M296 538l-38 -178h-186l38 178h186zM101 319h110l-13 -296l-44 -198h-207l43 198z" />
    <glyph glyph-name="sterling" unicode="&#xa3;" horiz-adv-x="608" 
d="M303 511q0 -23 6 -50t18 -67h190l-21 -80h-151q1 -6 1 -17q0 -48 -36.5 -88.5t-94.5 -73.5h333l-29 -135h-538l23 113q60 28 95.5 50t57 51.5t21.5 68.5q0 15 -3 31h-135l21 80h96q-12 46 -17.5 72.5t-5.5 47.5q0 62 32 112.5t96 80.5t157 30q70 0 130 -17t102 -42
l-32 -136q-42 26 -96 41t-102 15q-60 0 -89 -23t-29 -64z" />
    <glyph glyph-name="yen" unicode="&#xa5;" horiz-adv-x="758" 
d="M631 725h203l-349 -413h140l-17 -80h-161l-14 -64h161l-16 -79h-162l-19 -89h-165l19 89h-156l16 79h157l13 64h-156l17 80h137l-169 413h191l106 -278z" />
    <glyph glyph-name="dieresis" unicode="&#xa8;" horiz-adv-x="415" 
d="M237 628h-148l26 127h148zM313 628l26 127h147l-26 -127h-147z" />
    <glyph glyph-name="copyright" unicode="&#xa9;" horiz-adv-x="893" 
d="M465 741q114 0 203 -48.5t139 -135t50 -196.5q0 -109 -50 -195t-139 -134t-203 -48t-203.5 48.5t-139.5 134t-50 194.5q0 110 50 196.5t139.5 135t203.5 48.5zM465 91q81 0 141.5 33.5t93.5 94.5t33 142t-33 143t-93.5 96t-141.5 34t-141.5 -34t-94 -96t-33.5 -143
t33 -142t94 -94.5t142 -33.5zM484 551q29 0 57 -4.5t41 -13.5v-94q-45 18 -80 18q-42 0 -72 -25t-30 -70q0 -46 30 -70t72 -24q46 0 87 24v-93q-19 -12 -48.5 -18.5t-56.5 -6.5q-64 0 -109.5 25t-68.5 68t-23 95t23.5 95t69 68.5t108.5 25.5z" />
    <glyph glyph-name="guillemotleft" unicode="&#xab;" horiz-adv-x="646" 
d="M292 41h-142l-119 233l217 231h159l-183 -232zM553 41h-142l-119 233l217 231h159l-183 -232z" />
    <glyph glyph-name="uni00AD" unicode="&#xad;" horiz-adv-x="449" 
d="M414 338l-31 -145h-353l31 145h353z" />
    <glyph glyph-name="macron" unicode="&#xaf;" horiz-adv-x="357" 
d="M425 751l-20 -98h-313l20 98h313z" />
    <glyph glyph-name="degree" unicode="&#xb0;" horiz-adv-x="399" 
d="M257 738q48 0 89 -23.5t64.5 -64t23.5 -88.5t-24 -88.5t-64.5 -64t-88.5 -23.5q-47 0 -87.5 23.5t-64 64t-23.5 88.5t23.5 88.5t64 64t87.5 23.5zM257 483q33 0 54.5 23t21.5 56t-21.5 56t-54.5 23q-32 0 -52.5 -23t-20.5 -56t20.5 -56t52.5 -23z" />
    <glyph glyph-name="acute" unicode="&#xb4;" horiz-adv-x="326" 
d="M268 755h188l-170 -116h-124z" />
    <glyph glyph-name="periodcentered" unicode="&#xb7;" horiz-adv-x="284" 
d="M252 358l-38 -178h-186l38 178h186z" />
    <glyph glyph-name="cedilla" unicode="&#xb8;" horiz-adv-x="317" 
d="M-15 -84l70 85h62l-44 -52q16 4 29 4q40 0 62.5 -16t22.5 -44q0 -48 -43.5 -71t-105.5 -23q-51 0 -91 14l16 52q31 -12 64 -12q26 0 42 8t16 24q0 12 -10.5 18.5t-27.5 6.5t-34 -9z" />
    <glyph glyph-name="guillemotright" unicode="&#xbb;" horiz-adv-x="647" 
d="M232 505l120 -234l-218 -230h-158l183 231l-69 233h142zM493 505l120 -234l-218 -230h-158l183 231l-69 233h142z" />
    <glyph glyph-name="questiondown" unicode="&#xbf;" horiz-adv-x="555" 
d="M230 360l38 178h186l-38 -178h-186zM432 -169q-32 -14 -84 -22t-107 -8q-73 0 -135 20.5t-100 61.5t-38 99q0 62 32 104.5t106 79.5l18 9q44 22 63 35.5t27 28t14 44.5l5 25h162l-8 -38q-11 -53 -29 -85.5t-43.5 -53t-67.5 -41.5l-18 -9q-52 -26 -72 -41.5t-20 -39.5
q0 -27 34 -43.5t92 -16.5q49 0 106.5 13t96.5 34z" />
    <glyph glyph-name="Agrave" unicode="&#xc0;" horiz-adv-x="718" 
d="M667 0h-181l-22 176h-248l-97 -176h-187l427 725h188zM419 543l-126 -228h154zM518 773h-136l-145 113h201z" />
    <glyph glyph-name="Aacute" unicode="&#xc1;" horiz-adv-x="718" 
d="M495 886h202l-176 -113h-142zM667 0h-181l-22 176h-248l-97 -176h-187l427 725h188zM419 543l-126 -228h154z" />
    <glyph glyph-name="Acircumflex" unicode="&#xc2;" horiz-adv-x="718" 
d="M667 0h-181l-22 176h-248l-97 -176h-187l427 725h188zM419 543l-126 -228h154zM406 886h162l112 -113h-158l-50 49l-73 -49h-158z" />
    <glyph glyph-name="Atilde" unicode="&#xc3;" horiz-adv-x="718" 
d="M667 0h-181l-22 176h-248l-97 -176h-187l427 725h188zM419 543l-126 -228h154zM477 868q15 -9 25 -13t23 -4q44 0 62 42h97q-15 -62 -56.5 -94.5t-99.5 -32.5q-29 0 -47.5 7t-39.5 19q-16 8 -25.5 12t-20.5 4q-43 0 -60 -42h-97q14 60 54.5 93.5t100.5 33.5
q28 0 46.5 -6.5t37.5 -18.5z" />
    <glyph glyph-name="Adieresis" unicode="&#xc4;" horiz-adv-x="718" 
d="M667 0h-181l-22 176h-248l-97 -176h-187l427 725h188zM419 543l-126 -228h154zM272 773l25 113h147l-25 -113h-147zM501 773l25 113h147l-25 -113h-147z" />
    <glyph glyph-name="Aring" unicode="&#xc5;" horiz-adv-x="718" 
d="M667 0h-181l-22 176h-248l-97 -176h-187l427 725h188zM419 543l-126 -228h154zM583 859q0 -45 -33 -76t-80 -31q-48 0 -81 30.5t-33 76.5t33.5 76.5t80.5 30.5t80 -30.5t33 -76.5zM426 859q0 -18 12.5 -30.5t31.5 -12.5q18 0 31 12.5t13 30.5q0 19 -13 31.5t-31 12.5
q-19 0 -31.5 -12.5t-12.5 -31.5z" />
    <glyph glyph-name="AE" unicode="&#xc6;" horiz-adv-x="1003" 
d="M1052 725l-32 -151h-319l-27 -126h298l-32 -151h-298l-31 -146h319l-32 -151h-490l29 139h-225l-109 -139h-189l581 725h557zM521 535l-200 -257h146z" />
    <glyph glyph-name="Ccedilla" unicode="&#xc7;" horiz-adv-x="651" 
d="M430 133q34 0 79.5 9.5t76.5 20.5l-34 -159q-74 -17 -150 -17q-102 0 -182.5 40t-126 114.5t-45.5 174.5q0 128 59.5 223.5t159.5 146.5t217 51q130 0 216 -35l-34 -158q-44 22 -85.5 34.5t-103.5 12.5q-71 0 -127.5 -34t-88.5 -95t-32 -140q0 -92 53 -140.5t148 -48.5z
M222 -84l70 85h62l-44 -52q16 4 29 4q40 0 62.5 -16t22.5 -44q0 -48 -43.5 -71t-105.5 -23q-51 0 -91 14l16 52q31 -12 64 -12q26 0 42 8t16 24q0 12 -10.5 18.5t-27.5 6.5t-34 -9z" />
    <glyph glyph-name="Egrave" unicode="&#xc8;" horiz-adv-x="616" 
d="M511 0h-506l154 725h506l-32 -151h-335l-27 -126h314l-32 -151h-314l-31 -146h335zM514 773h-136l-145 113h201z" />
    <glyph glyph-name="Eacute" unicode="&#xc9;" horiz-adv-x="616" 
d="M511 0h-506l154 725h506l-32 -151h-335l-27 -126h314l-32 -151h-314l-31 -146h335zM457 886h202l-176 -113h-142z" />
    <glyph glyph-name="Ecircumflex" unicode="&#xca;" horiz-adv-x="616" 
d="M511 0h-506l154 725h506l-32 -151h-335l-27 -126h314l-32 -151h-314l-31 -146h335zM367 886h162l112 -113h-158l-50 49l-73 -49h-158z" />
    <glyph glyph-name="Edieresis" unicode="&#xcb;" horiz-adv-x="616" 
d="M511 0h-506l154 725h506l-32 -151h-335l-27 -126h314l-32 -151h-314l-31 -146h335zM239 773l25 113h147l-25 -113h-147zM468 773l25 113h147l-25 -113h-147z" />
    <glyph glyph-name="Igrave" unicode="&#xcc;" horiz-adv-x="509" 
d="M440 151l-32 -151h-427l32 151h128l90 423h-128l32 151h427l-32 -151h-128l-90 -423h128zM455 773h-136l-145 113h201z" />
    <glyph glyph-name="Iacute" unicode="&#xcd;" horiz-adv-x="509" 
d="M440 151l-32 -151h-427l32 151h128l90 423h-128l32 151h427l-32 -151h-128l-90 -423h128zM394 886h202l-176 -113h-142z" />
    <glyph glyph-name="Icircumflex" unicode="&#xce;" horiz-adv-x="509" 
d="M440 151l-32 -151h-427l32 151h128l90 423h-128l32 151h427l-32 -151h-128l-90 -423h128zM295 886h162l112 -113h-158l-50 49l-73 -49h-158z" />
    <glyph glyph-name="Idieresis" unicode="&#xcf;" horiz-adv-x="509" 
d="M440 151l-32 -151h-427l32 151h128l90 423h-128l32 151h427l-32 -151h-128l-90 -423h128zM169 773l25 113h147l-25 -113h-147zM398 773l25 113h147l-25 -113h-147z" />
    <glyph glyph-name="Eth" unicode="&#xd0;" horiz-adv-x="789" 
d="M397 725q107 0 192.5 -32.5t136 -100t50.5 -168.5q0 -229 -151.5 -326.5t-381.5 -97.5h-194l63 297h-89l30 140h89l61 288h194zM276 144q137 0 226.5 56t89.5 209q0 94 -63 133t-159 39h-27l-31 -144h155l-30 -140h-154l-32 -153h25z" />
    <glyph glyph-name="Ntilde" unicode="&#xd1;" horiz-adv-x="782" 
d="M811 725l-154 -725h-210l-169 512l-109 -512h-164l154 725h206l170 -513l109 513h167zM529 868q15 -9 25 -13t23 -4q44 0 62 42h97q-15 -62 -56.5 -94.5t-99.5 -32.5q-29 0 -47.5 7t-39.5 19q-16 8 -25.5 12t-20.5 4q-43 0 -60 -42h-97q14 60 54.5 93.5t100.5 33.5
q28 0 46.5 -6.5t37.5 -18.5z" />
    <glyph glyph-name="Ograve" unicode="&#xd2;" horiz-adv-x="790" 
d="M362 -13q-91 0 -163 35t-113 103.5t-41 165.5q0 120 50 222t144.5 163t222.5 61q91 0 163 -35t113 -103.5t41 -165.5q0 -120 -50 -222t-144.5 -163t-222.5 -61zM378 128q70 0 119.5 42t75 107.5t25.5 133.5q0 85 -40.5 135t-111.5 50q-70 0 -119.5 -42t-75 -107.5
t-25.5 -133.5q0 -85 40.5 -135t111.5 -50zM537 773h-136l-145 113h201z" />
    <glyph glyph-name="Oacute" unicode="&#xd3;" horiz-adv-x="790" 
d="M362 -13q-91 0 -163 35t-113 103.5t-41 165.5q0 120 50 222t144.5 163t222.5 61q91 0 163 -35t113 -103.5t41 -165.5q0 -120 -50 -222t-144.5 -163t-222.5 -61zM378 128q70 0 119.5 42t75 107.5t25.5 133.5q0 85 -40.5 135t-111.5 50q-70 0 -119.5 -42t-75 -107.5
t-25.5 -133.5q0 -85 40.5 -135t111.5 -50zM515 886h202l-176 -113h-142z" />
    <glyph glyph-name="Ocircumflex" unicode="&#xd4;" horiz-adv-x="790" 
d="M362 -13q-91 0 -163 35t-113 103.5t-41 165.5q0 120 50 222t144.5 163t222.5 61q91 0 163 -35t113 -103.5t41 -165.5q0 -120 -50 -222t-144.5 -163t-222.5 -61zM378 128q70 0 119.5 42t75 107.5t25.5 133.5q0 85 -40.5 135t-111.5 50q-70 0 -119.5 -42t-75 -107.5
t-25.5 -133.5q0 -85 40.5 -135t111.5 -50zM424 886h162l112 -113h-158l-50 49l-73 -49h-158z" />
    <glyph glyph-name="Otilde" unicode="&#xd5;" horiz-adv-x="790" 
d="M362 -13q-91 0 -163 35t-113 103.5t-41 165.5q0 120 50 222t144.5 163t222.5 61q91 0 163 -35t113 -103.5t41 -165.5q0 -120 -50 -222t-144.5 -163t-222.5 -61zM378 128q70 0 119.5 42t75 107.5t25.5 133.5q0 85 -40.5 135t-111.5 50q-70 0 -119.5 -42t-75 -107.5
t-25.5 -133.5q0 -85 40.5 -135t111.5 -50zM515 868q15 -9 25 -13t23 -4q44 0 62 42h97q-15 -62 -56.5 -94.5t-99.5 -32.5q-29 0 -47.5 7t-39.5 19q-16 8 -25.5 12t-20.5 4q-43 0 -60 -42h-97q14 60 54.5 93.5t100.5 33.5q28 0 46.5 -6.5t37.5 -18.5z" />
    <glyph glyph-name="Odieresis" unicode="&#xd6;" horiz-adv-x="790" 
d="M362 -13q-91 0 -163 35t-113 103.5t-41 165.5q0 120 50 222t144.5 163t222.5 61q91 0 163 -35t113 -103.5t41 -165.5q0 -120 -50 -222t-144.5 -163t-222.5 -61zM378 128q70 0 119.5 42t75 107.5t25.5 133.5q0 85 -40.5 135t-111.5 50q-70 0 -119.5 -42t-75 -107.5
t-25.5 -133.5q0 -85 40.5 -135t111.5 -50zM285 773l25 113h147l-25 -113h-147zM514 773l25 113h147l-25 -113h-147z" />
    <glyph glyph-name="multiply" unicode="&#xd7;" horiz-adv-x="678" 
d="M453 270l154 -147l-115 -110l-153 147l-156 -147l-114 108l155 149l-156 148l116 109l155 -149l154 151l115 -110z" />
    <glyph glyph-name="Oslash" unicode="&#xd8;" horiz-adv-x="792" 
d="M817 667l-75 -73q38 -70 38 -161q0 -120 -50 -222t-144.5 -163t-222.5 -61q-112 0 -193 52l-77 -74l-84 92l75 73q-38 70 -38 161q0 120 50 222t144.5 163t222.5 61q112 0 193 -52l77 74zM230 271l306 297q-37 28 -89 28q-70 0 -119.5 -42t-75 -107.5t-25.5 -133.5
q0 -22 3 -42zM596 453l-306 -297q37 -28 89 -28q70 0 119.5 42t75 107.5t25.5 133.5q0 23 -3 42z" />
    <glyph glyph-name="Ugrave" unicode="&#xd9;" horiz-adv-x="743" 
d="M343 127q57 0 91.5 20.5t52.5 57.5t31 97l90 423h171l-87 -409q-25 -119 -68 -190.5t-115 -105t-185 -33.5q-134 0 -203.5 50.5t-69.5 164.5q0 50 13 108l88 415h171l-92 -433q-9 -39 -9 -70q0 -48 28 -71.5t93 -23.5zM541 773h-136l-145 113h201z" />
    <glyph glyph-name="Uacute" unicode="&#xda;" horiz-adv-x="743" 
d="M343 127q57 0 91.5 20.5t52.5 57.5t31 97l90 423h171l-87 -409q-25 -119 -68 -190.5t-115 -105t-185 -33.5q-134 0 -203.5 50.5t-69.5 164.5q0 50 13 108l88 415h171l-92 -433q-9 -39 -9 -70q0 -48 28 -71.5t93 -23.5zM503 886h202l-176 -113h-142z" />
    <glyph glyph-name="Ucircumflex" unicode="&#xdb;" horiz-adv-x="743" 
d="M343 127q57 0 91.5 20.5t52.5 57.5t31 97l90 423h171l-87 -409q-25 -119 -68 -190.5t-115 -105t-185 -33.5q-134 0 -203.5 50.5t-69.5 164.5q0 50 13 108l88 415h171l-92 -433q-9 -39 -9 -70q0 -48 28 -71.5t93 -23.5zM417 886h162l112 -113h-158l-50 49l-73 -49h-158z
" />
    <glyph glyph-name="Udieresis" unicode="&#xdc;" horiz-adv-x="743" 
d="M343 127q57 0 91.5 20.5t52.5 57.5t31 97l90 423h171l-87 -409q-25 -119 -68 -190.5t-115 -105t-185 -33.5q-134 0 -203.5 50.5t-69.5 164.5q0 50 13 108l88 415h171l-92 -433q-9 -39 -9 -70q0 -48 28 -71.5t93 -23.5zM286 773l25 113h147l-25 -113h-147zM515 773l25 113
h147l-25 -113h-147z" />
    <glyph glyph-name="Yacute" unicode="&#xdd;" horiz-adv-x="694" 
d="M259 271l-180 454h176l118 -300l232 300h198l-374 -456l-57 -269h-171zM473 886h202l-176 -113h-142z" />
    <glyph glyph-name="Thorn" unicode="&#xde;" horiz-adv-x="685" 
d="M394 611q135 0 210.5 -45t75.5 -154q0 -138 -101.5 -206.5t-285.5 -68.5h-88l-29 -137h-171l154 725h170l-27 -114h92zM275 467l-39 -186h84q86 0 130.5 22.5t44.5 74.5q0 42 -32.5 65.5t-94.5 23.5h-93z" />
    <glyph glyph-name="germandbls" unicode="&#xdf;" horiz-adv-x="693" 
d="M166 0h-165l106 516q27 131 110.5 189.5t214.5 58.5q68 0 124 -21t88.5 -62.5t32.5 -99.5q0 -55 -29.5 -99t-89.5 -66q42 -21 70.5 -61.5t28.5 -106.5q0 -73 -36 -132.5t-103.5 -94t-156.5 -34.5q-64 0 -125 13l29 136q51 -12 93 -12q55 0 90.5 27.5t35.5 85.5
q0 50 -33 75.5t-92 25.5h-33l26 128h28q52 0 92.5 19t40.5 68q0 34 -22.5 57t-74.5 23q-58 0 -92.5 -24.5t-50.5 -99.5z" />
    <glyph glyph-name="agrave" unicode="&#xe0;" horiz-adv-x="578" 
d="M387 349v12q0 60 -119 60q-45 0 -84 -10t-83 -31l29 135q84 39 190 39q111 0 166.5 -46t55.5 -132q0 -30 -6.5 -70t-24.5 -110q-13 -51 -23 -105.5t-13 -90.5h-154l11 75q-30 -43 -73 -65.5t-95 -22.5q-50 0 -88.5 19.5t-59 53t-20.5 74.5q0 102 97 150.5t294 64.5z
M367 231l7 24q-205 -7 -205 -100q0 -26 15 -41t46 -15q99 0 137 132zM416 639h-113l-134 116h183z" />
    <glyph glyph-name="aacute" unicode="&#xe1;" horiz-adv-x="578" 
d="M387 349v12q0 60 -119 60q-45 0 -84 -10t-83 -31l29 135q84 39 190 39q111 0 166.5 -46t55.5 -132q0 -30 -6.5 -70t-24.5 -110q-13 -51 -23 -105.5t-13 -90.5h-154l11 75q-30 -43 -73 -65.5t-95 -22.5q-50 0 -88.5 19.5t-59 53t-20.5 74.5q0 102 97 150.5t294 64.5z
M367 231l7 24q-205 -7 -205 -100q0 -26 15 -41t46 -15q99 0 137 132zM412 755h188l-170 -116h-124z" />
    <glyph glyph-name="acircumflex" unicode="&#xe2;" horiz-adv-x="578" 
d="M387 349v12q0 60 -119 60q-45 0 -84 -10t-83 -31l29 135q84 39 190 39q111 0 166.5 -46t55.5 -132q0 -30 -6.5 -70t-24.5 -110q-13 -51 -23 -105.5t-13 -90.5h-154l11 75q-30 -43 -73 -65.5t-95 -22.5q-50 0 -88.5 19.5t-59 53t-20.5 74.5q0 102 97 150.5t294 64.5z
M367 231l7 24q-205 -7 -205 -100q0 -26 15 -41t46 -15q99 0 137 132zM316 755h150l112 -116h-145l-53 46l-72 -46h-157z" />
    <glyph glyph-name="atilde" unicode="&#xe3;" horiz-adv-x="578" 
d="M387 349v12q0 60 -119 60q-45 0 -84 -10t-83 -31l29 135q84 39 190 39q111 0 166.5 -46t55.5 -132q0 -30 -6.5 -70t-24.5 -110q-13 -51 -23 -105.5t-13 -90.5h-154l11 75q-30 -43 -73 -65.5t-95 -22.5q-50 0 -88.5 19.5t-59 53t-20.5 74.5q0 102 97 150.5t294 64.5z
M367 231l7 24q-205 -7 -205 -100q0 -26 15 -41t46 -15q99 0 137 132zM478 766h95q-14 -59 -50.5 -93t-84.5 -34q-22 0 -40 6.5t-40 18.5q-19 10 -31 14.5t-25 4.5q-20 0 -33.5 -11.5t-18.5 -32.5h-95q14 59 50.5 93t84.5 34q22 0 38.5 -6t39.5 -19q17 -10 29.5 -14.5
t26.5 -4.5q21 0 35.5 12t18.5 32z" />
    <glyph glyph-name="adieresis" unicode="&#xe4;" horiz-adv-x="578" 
d="M387 349v12q0 60 -119 60q-45 0 -84 -10t-83 -31l29 135q84 39 190 39q111 0 166.5 -46t55.5 -132q0 -30 -6.5 -70t-24.5 -110q-13 -51 -23 -105.5t-13 -90.5h-154l11 75q-30 -43 -73 -65.5t-95 -22.5q-50 0 -88.5 19.5t-59 53t-20.5 74.5q0 102 97 150.5t294 64.5z
M367 231l7 24q-205 -7 -205 -100q0 -26 15 -41t46 -15q99 0 137 132zM325 628h-148l26 127h148zM401 628l26 127h147l-26 -127h-147z" />
    <glyph glyph-name="aring" unicode="&#xe5;" horiz-adv-x="578" 
d="M387 349v12q0 60 -119 60q-45 0 -84 -10t-83 -31l29 135q84 39 190 39q111 0 166.5 -46t55.5 -132q0 -30 -6.5 -70t-24.5 -110q-13 -51 -23 -105.5t-13 -90.5h-154l11 75q-30 -43 -73 -65.5t-95 -22.5q-50 0 -88.5 19.5t-59 53t-20.5 74.5q0 102 97 150.5t294 64.5z
M367 231l7 24q-205 -7 -205 -100q0 -26 15 -41t46 -15q99 0 137 132zM486 708q0 -45 -33 -76t-80 -31q-48 0 -81 30.5t-33 76.5t33.5 76.5t80.5 30.5t80 -30.5t33 -76.5zM329 708q0 -18 12.5 -30.5t31.5 -12.5q18 0 31 12.5t13 30.5q0 19 -13 31.5t-31 12.5
q-19 0 -31.5 -12.5t-12.5 -31.5z" />
    <glyph glyph-name="ae" unicode="&#xe6;" horiz-adv-x="939" 
d="M917 313q0 -44 -10 -85h-378q8 -54 44 -80t107 -26q89 0 166 29l-30 -138q-28 -12 -72.5 -19t-83.5 -7q-189 0 -253 125q-34 -65 -99 -95t-142 -30q-51 0 -89.5 19.5t-59.5 53t-21 74.5q0 102 97 150.5t294 64.5v12q0 60 -119 60q-45 0 -84 -10t-83 -31l29 135
q84 39 190 39q122 0 179 -56q82 56 189 56q74 0 125.5 -32.5t77.5 -87t26 -121.5zM536 327h230q1 51 -25 77t-72 26q-43 0 -80.5 -25.5t-52.5 -77.5zM374 255q-205 -7 -205 -100q0 -26 15 -41t46 -15q99 0 137 132z" />
    <glyph glyph-name="ccedilla" unicode="&#xe7;" horiz-adv-x="493" 
d="M327 122q44 0 99 15l-30 -137q-67 -13 -109 -13q-120 0 -191 62.5t-71 175.5q0 102 45 176.5t122 113.5t172 39q77 0 150 -24l-30 -137q-34 13 -62.5 19.5t-61.5 6.5q-47 0 -85 -21t-59.5 -59.5t-21.5 -89.5q0 -61 34 -94t99 -33zM138 -84l70 85h62l-44 -52q16 4 29 4
q40 0 62.5 -16t22.5 -44q0 -48 -43.5 -71t-105.5 -23q-51 0 -91 14l16 52q31 -12 64 -12q26 0 42 8t16 24q0 12 -10.5 18.5t-27.5 6.5t-34 -9z" />
    <glyph glyph-name="egrave" unicode="&#xe8;" horiz-adv-x="598" 
d="M576 313q0 -44 -10 -85h-378q8 -54 44 -80t107 -26q89 0 166 29l-30 -138q-27 -12 -73.5 -19t-85.5 -7q-136 0 -213 64.5t-77 185.5q0 88 39.5 160.5t112.5 114.5t169 42q74 0 125.5 -32.5t77.5 -87t26 -121.5zM195 327h230q1 51 -25 77t-72 26q-43 0 -80.5 -25.5
t-52.5 -77.5zM419 639h-113l-134 116h183z" />
    <glyph glyph-name="eacute" unicode="&#xe9;" horiz-adv-x="598" 
d="M576 313q0 -44 -10 -85h-378q8 -54 44 -80t107 -26q89 0 166 29l-30 -138q-27 -12 -73.5 -19t-85.5 -7q-136 0 -213 64.5t-77 185.5q0 88 39.5 160.5t112.5 114.5t169 42q74 0 125.5 -32.5t77.5 -87t26 -121.5zM195 327h230q1 51 -25 77t-72 26q-43 0 -80.5 -25.5
t-52.5 -77.5zM394 755h188l-170 -116h-124z" />
    <glyph glyph-name="ecircumflex" unicode="&#xea;" horiz-adv-x="598" 
d="M576 313q0 -44 -10 -85h-378q8 -54 44 -80t107 -26q89 0 166 29l-30 -138q-27 -12 -73.5 -19t-85.5 -7q-136 0 -213 64.5t-77 185.5q0 88 39.5 160.5t112.5 114.5t169 42q74 0 125.5 -32.5t77.5 -87t26 -121.5zM195 327h230q1 51 -25 77t-72 26q-43 0 -80.5 -25.5
t-52.5 -77.5zM308 755h150l112 -116h-145l-53 46l-72 -46h-157z" />
    <glyph glyph-name="edieresis" unicode="&#xeb;" horiz-adv-x="598" 
d="M576 313q0 -44 -10 -85h-378q8 -54 44 -80t107 -26q89 0 166 29l-30 -138q-27 -12 -73.5 -19t-85.5 -7q-136 0 -213 64.5t-77 185.5q0 88 39.5 160.5t112.5 114.5t169 42q74 0 125.5 -32.5t77.5 -87t26 -121.5zM195 327h230q1 51 -25 77t-72 26q-43 0 -80.5 -25.5
t-52.5 -77.5zM321 628h-148l26 127h148zM397 628l26 127h147l-26 -127h-147z" />
    <glyph glyph-name="igrave" unicode="&#xec;" horiz-adv-x="279" 
d="M284 639h-113l-134 116h183zM-2 0l115 538h166l-115 -538h-166z" />
    <glyph glyph-name="iacute" unicode="&#xed;" horiz-adv-x="279" 
d="M233 755h188l-170 -116h-124zM-2 0l115 538h166l-115 -538h-166z" />
    <glyph glyph-name="icircumflex" unicode="&#xee;" horiz-adv-x="279" 
d="M171 755h150l102 -116h-145l-43 46l-62 -46h-157zM-2 0l115 538h166l-115 -538h-166z" />
    <glyph glyph-name="idieresis" unicode="&#xef;" horiz-adv-x="279" 
d="M-2 0l115 538h166l-115 -538h-166zM181 628h-148l26 127h148zM257 628l26 127h147l-26 -127h-147z" />
    <glyph glyph-name="eth" unicode="&#xf0;" horiz-adv-x="631" 
d="M488 676q58 -59 90 -138.5t32 -177.5q0 -93 -34 -178t-108 -140t-187 -55q-115 0 -184.5 64t-69.5 194q0 78 34 148t96.5 113.5t143.5 43.5q113 0 159 -85l1 1q-6 36 -30 75.5t-60 74.5l-92 -48l-23 44l74 38q-34 25 -67 39l84 84q52 -23 101 -61l94 48l23 -44zM428 309
q0 56 -24 84.5t-71 28.5q-64 0 -100 -56.5t-36 -137.5q0 -56 24 -84.5t71 -28.5q64 0 100 56.5t36 137.5z" />
    <glyph glyph-name="ntilde" unicode="&#xf1;" horiz-adv-x="630" 
d="M526 766h95q-14 -59 -50.5 -93t-84.5 -34q-22 0 -40 6.5t-40 18.5q-19 10 -31 14.5t-25 4.5q-20 0 -33.5 -11.5t-18.5 -32.5h-95q14 59 50.5 93t84.5 34q22 0 38.5 -6t39.5 -19q17 -10 29.5 -14.5t26.5 -4.5q21 0 35.5 12t18.5 32zM113 538h162l-15 -72q69 84 181 84
q75 0 115 -39t40 -118q0 -38 -11 -91l-64 -302h-165l60 280q9 39 9 68q0 38 -16.5 56t-50.5 18q-50 0 -84.5 -35.5t-49.5 -106.5l-60 -280h-165z" />
    <glyph glyph-name="ograve" unicode="&#xf2;" 
d="M23 220q0 76 33.5 153t105 129t179.5 52q113 0 183 -59.5t70 -173.5q0 -76 -33.5 -153t-105 -129t-178.5 -52q-113 0 -183.5 59.5t-70.5 173.5zM424 313q0 56 -24 84.5t-71 28.5q-64 0 -100 -58t-36 -140q0 -56 24 -84.5t71 -28.5q64 0 100 58t36 140zM445 639h-113
l-134 116h183z" />
    <glyph glyph-name="oacute" unicode="&#xf3;" 
d="M23 220q0 76 33.5 153t105 129t179.5 52q113 0 183 -59.5t70 -173.5q0 -76 -33.5 -153t-105 -129t-178.5 -52q-113 0 -183.5 59.5t-70.5 173.5zM424 313q0 56 -24 84.5t-71 28.5q-64 0 -100 -58t-36 -140q0 -56 24 -84.5t71 -28.5q64 0 100 58t36 140zM400 755h188
l-170 -116h-124z" />
    <glyph glyph-name="ocircumflex" unicode="&#xf4;" 
d="M23 220q0 76 33.5 153t105 129t179.5 52q113 0 183 -59.5t70 -173.5q0 -76 -33.5 -153t-105 -129t-178.5 -52q-113 0 -183.5 59.5t-70.5 173.5zM424 313q0 56 -24 84.5t-71 28.5q-64 0 -100 -58t-36 -140q0 -56 24 -84.5t71 -28.5q64 0 100 58t36 140zM331 755h150
l112 -116h-145l-53 46l-72 -46h-157z" />
    <glyph glyph-name="otilde" unicode="&#xf5;" 
d="M23 220q0 76 33.5 153t105 129t179.5 52q113 0 183 -59.5t70 -173.5q0 -76 -33.5 -153t-105 -129t-178.5 -52q-113 0 -183.5 59.5t-70.5 173.5zM424 313q0 56 -24 84.5t-71 28.5q-64 0 -100 -58t-36 -140q0 -56 24 -84.5t71 -28.5q64 0 100 58t36 140zM516 766h95
q-14 -59 -50.5 -93t-84.5 -34q-22 0 -40 6.5t-40 18.5q-19 10 -31 14.5t-25 4.5q-20 0 -33.5 -11.5t-18.5 -32.5h-95q14 59 50.5 93t84.5 34q22 0 38.5 -6t39.5 -19q17 -10 29.5 -14.5t26.5 -4.5q21 0 35.5 12t18.5 32z" />
    <glyph glyph-name="odieresis" unicode="&#xf6;" 
d="M23 220q0 76 33.5 153t105 129t179.5 52q113 0 183 -59.5t70 -173.5q0 -76 -33.5 -153t-105 -129t-178.5 -52q-113 0 -183.5 59.5t-70.5 173.5zM424 313q0 56 -24 84.5t-71 28.5q-64 0 -100 -58t-36 -140q0 -56 24 -84.5t71 -28.5q64 0 100 58t36 140zM343 628h-148
l26 127h148zM419 628l26 127h147l-26 -127h-147z" />
    <glyph glyph-name="divide" unicode="&#xf7;" horiz-adv-x="678" 
d="M420 381h-166v158h166v-158zM626 339v-139h-578v139h578zM420 0h-166v158h166v-158z" />
    <glyph glyph-name="oslash" unicode="&#xf8;" 
d="M628 508l-64 -62q30 -52 30 -125q0 -76 -33.5 -153t-105 -129t-178.5 -52q-91 0 -154 38l-66 -64l-68 72l65 62q-31 51 -31 125q0 76 33.5 153t105 129t179.5 52q91 0 153 -37l66 63zM193 228l191 184q-22 14 -55 14q-64 0 -100 -58t-36 -140zM424 313l-191 -184
q22 -14 55 -14q64 0 100 58t36 140z" />
    <glyph glyph-name="ugrave" unicode="&#xf9;" 
d="M357 69q-66 -82 -176 -82q-72 0 -110.5 39t-38.5 117q0 37 11 90l64 305h165l-60 -282q-9 -39 -9 -67q0 -74 65 -74q46 0 77.5 35.5t46.5 105.5l60 282h165l-114 -538h-161zM468 639h-113l-134 116h183z" />
    <glyph glyph-name="uacute" unicode="&#xfa;" 
d="M357 69q-66 -82 -176 -82q-72 0 -110.5 39t-38.5 117q0 37 11 90l64 305h165l-60 -282q-9 -39 -9 -67q0 -74 65 -74q46 0 77.5 35.5t46.5 105.5l60 282h165l-114 -538h-161zM391 755h188l-170 -116h-124z" />
    <glyph glyph-name="ucircumflex" unicode="&#xfb;" 
d="M357 69q-66 -82 -176 -82q-72 0 -110.5 39t-38.5 117q0 37 11 90l64 305h165l-60 -282q-9 -39 -9 -67q0 -74 65 -74q46 0 77.5 35.5t46.5 105.5l60 282h165l-114 -538h-161zM326 755h150l112 -116h-145l-53 46l-72 -46h-157z" />
    <glyph glyph-name="udieresis" unicode="&#xfc;" 
d="M357 69q-66 -82 -176 -82q-72 0 -110.5 39t-38.5 117q0 37 11 90l64 305h165l-60 -282q-9 -39 -9 -67q0 -74 65 -74q46 0 77.5 35.5t46.5 105.5l60 282h165l-114 -538h-161zM338 628h-148l26 127h148zM414 628l26 127h147l-26 -127h-147z" />
    <glyph glyph-name="yacute" unicode="&#xfd;" horiz-adv-x="558" 
d="M623 538l-443 -733h-171l135 222l-95 511h168l57 -316l177 316h172zM368 755h188l-170 -116h-124z" />
    <glyph glyph-name="thorn" unicode="&#xfe;" horiz-adv-x="641" 
d="M264 473q31 40 72.5 58.5t83.5 18.5q58 0 102.5 -27.5t69 -77.5t24.5 -115q0 -86 -33 -165t-97 -128.5t-152 -49.5q-58 0 -96 26.5t-57 66.5l-58 -275h-165l201 950h164zM303 115q72 0 107 56.5t35 132.5q0 53 -24 85.5t-69 32.5q-49 0 -82 -31.5t-48.5 -77t-15.5 -86.5
q0 -48 25.5 -80t71.5 -32z" />
    <glyph glyph-name="ydieresis" unicode="&#xff;" horiz-adv-x="558" 
d="M623 538l-443 -733h-171l135 222l-95 511h168l57 -316l177 316h172zM314 628h-148l26 127h148zM390 628l26 127h147l-26 -127h-147z" />
    <glyph glyph-name="Abreve" unicode="&#x102;" horiz-adv-x="718" 
d="M667 0h-181l-22 176h-248l-97 -176h-187l427 725h188zM419 543l-126 -228h154zM674 886q-33 -117 -206 -117q-182 0 -176 117h118q0 -46 67 -46q70 0 79 46h118z" />
    <glyph glyph-name="Amacron" unicode="&#x100;" horiz-adv-x="718" 
d="M667 0h-181l-22 176h-248l-97 -176h-187l427 725h188zM419 543l-126 -228h154zM653 879l-20 -100h-335l20 100h335z" />
    <glyph glyph-name="Aogonek" unicode="&#x104;" horiz-adv-x="718" 
d="M586 -105q20 0 38 4l-17 -78q-36 -9 -78 -9q-56 0 -94 19.5t-38 65.5q0 29 23.5 56.5t65.5 46.5l-22 176h-248l-97 -176h-187l427 725h188l120 -725q-46 -9 -85.5 -30.5t-39.5 -47.5q0 -27 44 -27zM419 543l-126 -228h154z" />
    <glyph glyph-name="Cacute" unicode="&#x106;" horiz-adv-x="651" 
d="M430 133q34 0 79.5 9.5t76.5 20.5l-34 -159q-74 -17 -150 -17q-102 0 -182.5 40t-126 114.5t-45.5 174.5q0 128 59.5 223.5t159.5 146.5t217 51q130 0 216 -35l-34 -158q-44 22 -85.5 34.5t-103.5 12.5q-71 0 -127.5 -34t-88.5 -95t-32 -140q0 -92 53 -140.5t148 -48.5z
M497 886h202l-176 -113h-142z" />
    <glyph glyph-name="Ccaron" unicode="&#x10c;" horiz-adv-x="651" 
d="M430 133q34 0 79.5 9.5t76.5 20.5l-34 -159q-74 -17 -150 -17q-102 0 -182.5 40t-126 114.5t-45.5 174.5q0 128 59.5 223.5t159.5 146.5t217 51q130 0 216 -35l-34 -158q-44 22 -85.5 34.5t-103.5 12.5q-71 0 -127.5 -34t-88.5 -95t-32 -140q0 -92 53 -140.5t148 -48.5z
M559 773h-162l-112 113h164l44 -50l73 50h158z" />
    <glyph glyph-name="Ccircumflex" unicode="&#x108;" horiz-adv-x="651" 
d="M430 133q34 0 79.5 9.5t76.5 20.5l-34 -159q-74 -17 -150 -17q-102 0 -182.5 40t-126 114.5t-45.5 174.5q0 128 59.5 223.5t159.5 146.5t217 51q130 0 216 -35l-34 -158q-44 22 -85.5 34.5t-103.5 12.5q-71 0 -127.5 -34t-88.5 -95t-32 -140q0 -92 53 -140.5t148 -48.5z
M426 886h162l112 -113h-158l-50 49l-73 -49h-158z" />
    <glyph glyph-name="Cdotaccent" unicode="&#x10a;" horiz-adv-x="651" 
d="M430 133q34 0 79.5 9.5t76.5 20.5l-34 -159q-74 -17 -150 -17q-102 0 -182.5 40t-126 114.5t-45.5 174.5q0 128 59.5 223.5t159.5 146.5t217 51q130 0 216 -35l-34 -158q-44 22 -85.5 34.5t-103.5 12.5q-71 0 -127.5 -34t-88.5 -95t-32 -140q0 -92 53 -140.5t148 -48.5z
M394 773l24 113h171l-25 -113h-170z" />
    <glyph glyph-name="Dcaron" unicode="&#x10e;" horiz-adv-x="745" 
d="M353 725q107 0 192.5 -32.5t136 -100t50.5 -168.5q0 -229 -151.5 -326.5t-381.5 -97.5h-194l154 725h194zM326 581h-27l-92 -437h25q137 0 226.5 56t89.5 209q0 94 -63 133t-159 39zM503 773h-162l-112 113h164l44 -50l73 50h158z" />
    <glyph glyph-name="Dcroat" unicode="&#x110;" horiz-adv-x="789" 
d="M397 725q107 0 192.5 -32.5t136 -100t50.5 -168.5q0 -229 -151.5 -326.5t-381.5 -97.5h-194l63 297h-89l30 140h89l61 288h194zM276 144q137 0 226.5 56t89.5 209q0 94 -63 133t-159 39h-27l-31 -144h155l-30 -140h-154l-32 -153h25z" />
    <glyph glyph-name="Ebreve" unicode="&#x114;" horiz-adv-x="616" 
d="M511 0h-506l154 725h506l-32 -151h-335l-27 -126h314l-32 -151h-314l-31 -146h335zM644 886q-33 -117 -206 -117q-182 0 -176 117h118q0 -46 67 -46q70 0 79 46h118z" />
    <glyph glyph-name="Ecaron" unicode="&#x11a;" horiz-adv-x="616" 
d="M511 0h-506l154 725h506l-32 -151h-335l-27 -126h314l-32 -151h-314l-31 -146h335zM509 773h-162l-112 113h164l44 -50l73 50h158z" />
    <glyph glyph-name="Emacron" unicode="&#x112;" horiz-adv-x="616" 
d="M511 0h-506l154 725h506l-32 -151h-335l-27 -126h314l-32 -151h-314l-31 -146h335zM618 879l-20 -100h-335l20 100h335z" />
    <glyph glyph-name="Eogonek" unicode="&#x118;" horiz-adv-x="616" 
d="M5 0l154 725h506l-32 -151h-335l-27 -126h314l-32 -151h-314l-31 -146h335l-32 -151q-45 -19 -74.5 -36.5t-29.5 -41.5q0 -27 44 -27q20 0 38 4l-17 -78q-36 -9 -78 -9q-56 0 -94 19.5t-38 65.5q0 30 23.5 57t65.5 46h-346z" />
    <glyph glyph-name="Edotaccent" unicode="&#x116;" horiz-adv-x="616" 
d="M511 0h-506l154 725h506l-32 -151h-335l-27 -126h314l-32 -151h-314l-31 -146h335zM351 773l24 113h171l-25 -113h-170z" />
    <glyph glyph-name="Gbreve" unicode="&#x11e;" horiz-adv-x="744" 
d="M47 316q0 127 62.5 223t165.5 147t221 51q130 0 216 -35l-34 -158q-44 22 -85.5 34.5t-103.5 12.5q-71 0 -131 -34t-95 -95t-35 -140q0 -92 53 -141t148 -49q34 0 67 9l30 141h-157l30 140h327l-85 -402q-99 -33 -234 -33q-104 0 -186 41t-128 116t-46 172zM704 886
q-33 -117 -206 -117q-182 0 -176 117h118q0 -46 67 -46q70 0 79 46h118z" />
    <glyph glyph-name="Gcircumflex" unicode="&#x11c;" horiz-adv-x="744" 
d="M47 316q0 127 62.5 223t165.5 147t221 51q130 0 216 -35l-34 -158q-44 22 -85.5 34.5t-103.5 12.5q-71 0 -131 -34t-95 -95t-35 -140q0 -92 53 -141t148 -49q34 0 67 9l30 141h-157l30 140h327l-85 -402q-99 -33 -234 -33q-104 0 -186 41t-128 116t-46 172zM450 886h162
l112 -113h-158l-50 49l-73 -49h-158z" />
    <glyph glyph-name="uni0122" unicode="&#x122;" horiz-adv-x="744" 
d="M47 316q0 127 62.5 223t165.5 147t221 51q130 0 216 -35l-34 -158q-44 22 -85.5 34.5t-103.5 12.5q-71 0 -131 -34t-95 -95t-35 -140q0 -92 53 -141t148 -49q34 0 67 9l30 141h-157l30 140h327l-85 -402q-99 -33 -234 -33q-104 0 -186 41t-128 116t-46 172zM318 -136h-35
l21 100h127l-22 -105l-64 -90h-86z" />
    <glyph glyph-name="Gdotaccent" unicode="&#x120;" horiz-adv-x="744" 
d="M47 316q0 127 62.5 223t165.5 147t221 51q130 0 216 -35l-34 -158q-44 22 -85.5 34.5t-103.5 12.5q-71 0 -131 -34t-95 -95t-35 -140q0 -92 53 -141t148 -49q34 0 67 9l30 141h-157l30 140h327l-85 -402q-99 -33 -234 -33q-104 0 -186 41t-128 116t-46 172zM404 773
l24 113h171l-25 -113h-170z" />
    <glyph glyph-name="Hbar" unicode="&#x126;" horiz-adv-x="776" 
d="M607 658l14 67h171l-14 -67h56l-30 -140h-56l-110 -518h-171l63 297h-278l-63 -297h-171l110 518h-56l30 140h56l14 67h171l-14 -67h278zM299 518l-15 -70h278l15 70h-278z" />
    <glyph glyph-name="Hcircumflex" unicode="&#x124;" horiz-adv-x="750" 
d="M549 448l59 277h171l-154 -725h-171l63 297h-278l-63 -297h-171l154 725h171l-59 -277h278zM425 886h162l112 -113h-158l-50 49l-73 -49h-158z" />
    <glyph glyph-name="Ibreve" unicode="&#x12c;" horiz-adv-x="509" 
d="M440 151l-32 -151h-427l32 151h128l90 423h-128l32 151h427l-32 -151h-128l-90 -423h128zM564 886q-33 -117 -206 -117q-182 0 -176 117h118q0 -46 67 -46q70 0 79 46h118z" />
    <glyph glyph-name="Idotaccent" unicode="&#x130;" horiz-adv-x="509" 
d="M263 773l24 113h171l-25 -113h-170zM440 151l-32 -151h-427l32 151h128l90 423h-128l32 151h427l-32 -151h-128l-90 -423h128z" />
    <glyph glyph-name="Imacron" unicode="&#x12a;" horiz-adv-x="509" 
d="M539 879l-20 -100h-335l20 100h335zM440 151l-32 -151h-427l32 151h128l90 423h-128l32 151h427l-32 -151h-128l-90 -423h128z" />
    <glyph glyph-name="Iogonek" unicode="&#x12e;" horiz-adv-x="509" 
d="M-19 0l32 151h128l90 423h-128l32 151h427l-32 -151h-128l-90 -423h128l-32 -151h-120q-45 -19 -74.5 -36.5t-29.5 -41.5q0 -27 44 -27q20 0 38 4l-17 -78q-36 -9 -78 -9q-56 0 -94 19.5t-38 65.5q0 30 23.5 57t65.5 46h-147z" />
    <glyph glyph-name="Itilde" unicode="&#x128;" horiz-adv-x="509" 
d="M376 868q15 -9 25 -13t23 -4q44 0 62 42h97q-15 -62 -56.5 -94.5t-99.5 -32.5q-29 0 -47.5 7t-39.5 19q-16 8 -25.5 12t-20.5 4q-43 0 -60 -42h-97q14 60 54.5 93.5t100.5 33.5q28 0 46.5 -6.5t37.5 -18.5zM440 151l-32 -151h-427l32 151h128l90 423h-128l32 151h427
l-32 -151h-128l-90 -423h128z" />
    <glyph glyph-name="uni1ECA" unicode="&#x1eca;" horiz-adv-x="509" 
d="M81 -175l29 118h148l-29 -118h-148zM440 151l-32 -151h-427l32 151h128l90 423h-128l32 151h427l-32 -151h-128l-90 -423h128z" />
    <glyph glyph-name="Jcircumflex" unicode="&#x134;" horiz-adv-x="430" 
d="M296 886h162l101 -113h-158l-39 49l-62 -49h-158zM-31 5l45 148q45 -19 87 -19q33 0 50.5 14.5t25.5 39.5t20 82l64 304h-141l32 151h312l-105 -493q-25 -120 -86.5 -182.5t-172.5 -62.5q-63 0 -131 18z" />
    <glyph glyph-name="uni0136" unicode="&#x136;" horiz-adv-x="694" 
d="M159 725h171l-66 -309l308 309h216l-369 -362l238 -363h-203l-210 324l-68 -324h-171zM254 -136h-35l21 100h127l-22 -105l-64 -90h-86z" />
    <glyph glyph-name="Lacute" unicode="&#x139;" horiz-adv-x="555" 
d="M159 725h171l-122 -574h298l-32 -151h-469zM289 886h202l-176 -113h-142z" />
    <glyph glyph-name="Lcaron" unicode="&#x13d;" horiz-adv-x="560" 
d="M159 725h171l-122 -574h298l-32 -151h-469zM431 726h151l-95 -170h-112z" />
    <glyph glyph-name="uni013B" unicode="&#x13b;" horiz-adv-x="555" 
d="M159 725h171l-122 -574h298l-32 -151h-469zM193 -136h-35l21 100h127l-22 -105l-64 -90h-86z" />
    <glyph glyph-name="Ldot" unicode="&#x13f;" horiz-adv-x="555" 
d="M159 725h171l-122 -574h298l-32 -151h-469zM357 351l24 113h171l-25 -113h-170z" />
    <glyph glyph-name="Lslash" unicode="&#x141;" horiz-adv-x="611" 
d="M214 725h171l-50 -230l193 103l-33 -158l-194 -103l-38 -186h298l-32 -151h-469l49 235l-100 -53l33 158l100 53z" />
    <glyph glyph-name="Nacute" unicode="&#x143;" horiz-adv-x="782" 
d="M811 725l-154 -725h-210l-169 512l-109 -512h-164l154 725h206l170 -513l109 513h167zM535 886h202l-176 -113h-142z" />
    <glyph glyph-name="Ncaron" unicode="&#x147;" horiz-adv-x="782" 
d="M811 725l-154 -725h-210l-169 512l-109 -512h-164l154 725h206l170 -513l109 513h167zM566 773h-162l-112 113h164l44 -50l73 50h158z" />
    <glyph glyph-name="uni0145" unicode="&#x145;" horiz-adv-x="782" 
d="M811 725l-154 -725h-210l-169 512l-109 -512h-164l154 725h206l170 -513l109 513h167zM286 -136h-35l21 100h127l-22 -105l-64 -90h-86z" />
    <glyph glyph-name="OE" unicode="&#x152;" horiz-adv-x="1132" 
d="M541 50q-49 -35 -98.5 -49t-119.5 -14t-134 36.5t-104 105.5t-40 162q0 120 50.5 222t145 163t222.5 61q127 0 212 -60l10 48h496l-32 -151h-335l-27 -126h314l-32 -151h-314l-31 -146h335l-32 -151h-496zM389 128q73 0 125.5 42t79 107.5t26.5 133.5q0 85 -43.5 135
t-119.5 50q-73 0 -125.5 -42t-79 -107.5t-26.5 -133.5q0 -85 43.5 -135t119.5 -50z" />
    <glyph glyph-name="Obreve" unicode="&#x14e;" horiz-adv-x="790" 
d="M362 -13q-91 0 -163 35t-113 103.5t-41 165.5q0 120 50 222t144.5 163t222.5 61q91 0 163 -35t113 -103.5t41 -165.5q0 -120 -50 -222t-144.5 -163t-222.5 -61zM378 128q70 0 119.5 42t75 107.5t25.5 133.5q0 85 -40.5 135t-111.5 50q-70 0 -119.5 -42t-75 -107.5
t-25.5 -133.5q0 -85 40.5 -135t111.5 -50zM688 886q-33 -117 -206 -117q-182 0 -176 117h118q0 -46 67 -46q70 0 79 46h118z" />
    <glyph glyph-name="Ohungarumlaut" unicode="&#x150;" horiz-adv-x="790" 
d="M362 -13q-91 0 -163 35t-113 103.5t-41 165.5q0 120 50 222t144.5 163t222.5 61q91 0 163 -35t113 -103.5t41 -165.5q0 -120 -50 -222t-144.5 -163t-222.5 -61zM378 128q70 0 119.5 42t75 107.5t25.5 133.5q0 85 -40.5 135t-111.5 50q-70 0 -119.5 -42t-75 -107.5
t-25.5 -133.5q0 -85 40.5 -135t111.5 -50zM400 886h202l-160 -113h-145zM620 886h201l-159 -113h-145z" />
    <glyph glyph-name="Omacron" unicode="&#x14c;" horiz-adv-x="790" 
d="M362 -13q-91 0 -163 35t-113 103.5t-41 165.5q0 120 50 222t144.5 163t222.5 61q91 0 163 -35t113 -103.5t41 -165.5q0 -120 -50 -222t-144.5 -163t-222.5 -61zM378 128q70 0 119.5 42t75 107.5t25.5 133.5q0 85 -40.5 135t-111.5 50q-70 0 -119.5 -42t-75 -107.5
t-25.5 -133.5q0 -85 40.5 -135t111.5 -50zM672 879l-20 -100h-335l20 100h335z" />
    <glyph glyph-name="uni1ECC" unicode="&#x1ecc;" horiz-adv-x="790" 
d="M243 -175l29 118h148l-29 -118h-148zM362 -13q-91 0 -163 35t-113 103.5t-41 165.5q0 120 50 222t144.5 163t222.5 61q91 0 163 -35t113 -103.5t41 -165.5q0 -120 -50 -222t-144.5 -163t-222.5 -61zM378 128q70 0 119.5 42t75 107.5t25.5 133.5q0 85 -40.5 135t-111.5 50
q-70 0 -119.5 -42t-75 -107.5t-25.5 -133.5q0 -85 40.5 -135t111.5 -50z" />
    <glyph glyph-name="Racute" unicode="&#x154;" horiz-adv-x="672" 
d="M436 0l-136 283h-64l-60 -283h-171l154 725h239q128 0 200 -43.5t72 -145.5q0 -87 -50.5 -149.5t-146.5 -85.5l148 -301h-185zM299 581l-32 -154h73q79 0 112 20t33 60q0 42 -29.5 58t-83.5 16h-73zM465 886h202l-176 -113h-142z" />
    <glyph glyph-name="Rcaron" unicode="&#x158;" horiz-adv-x="672" 
d="M436 0l-136 283h-64l-60 -283h-171l154 725h239q128 0 200 -43.5t72 -145.5q0 -87 -50.5 -149.5t-146.5 -85.5l148 -301h-185zM299 581l-32 -154h73q79 0 112 20t33 60q0 42 -29.5 58t-83.5 16h-73zM489 773h-162l-112 113h164l44 -50l73 50h158z" />
    <glyph glyph-name="uni0156" unicode="&#x156;" horiz-adv-x="672" 
d="M436 0l-136 283h-64l-60 -283h-171l154 725h239q128 0 200 -43.5t72 -145.5q0 -87 -50.5 -149.5t-146.5 -85.5l148 -301h-185zM299 581l-32 -154h73q79 0 112 20t33 60q0 42 -29.5 58t-83.5 16h-73zM251 -136h-35l21 100h127l-22 -105l-64 -90h-86z" />
    <glyph glyph-name="Sacute" unicode="&#x15a;" horiz-adv-x="604" 
d="M5 51l36 169q45 -38 106 -62.5t123 -24.5q122 0 122 72q0 26 -24.5 49.5t-81.5 47.5l-42 18q-77 34 -116.5 82t-39.5 118q0 67 38.5 116t106.5 75t154 26q131 0 220 -51l-34 -158q-44 30 -101.5 46.5t-111.5 16.5q-53 0 -81 -14t-28 -42q0 -25 25 -44t82 -45l41 -19
q169 -75 169 -198q0 -72 -41 -127t-111 -85t-154 -30q-141 0 -257 64zM406 886h202l-176 -113h-142z" />
    <glyph glyph-name="Scaron" unicode="&#x160;" horiz-adv-x="604" 
d="M5 51l36 169q45 -38 106 -62.5t123 -24.5q122 0 122 72q0 26 -24.5 49.5t-81.5 47.5l-42 18q-77 34 -116.5 82t-39.5 118q0 67 38.5 116t106.5 75t154 26q131 0 220 -51l-34 -158q-44 30 -101.5 46.5t-111.5 16.5q-53 0 -81 -14t-28 -42q0 -25 25 -44t82 -45l41 -19
q169 -75 169 -198q0 -72 -41 -127t-111 -85t-154 -30q-141 0 -257 64zM467 773h-162l-112 113h164l44 -50l73 50h158z" />
    <glyph glyph-name="Scedilla" unicode="&#x15e;" horiz-adv-x="604" 
d="M5 51l36 169q45 -38 106 -62.5t123 -24.5q122 0 122 72q0 26 -24.5 49.5t-81.5 47.5l-42 18q-77 34 -116.5 82t-39.5 118q0 67 38.5 116t106.5 75t154 26q131 0 220 -51l-34 -158q-44 30 -101.5 46.5t-111.5 16.5q-53 0 -81 -14t-28 -42q0 -25 25 -44t82 -45l41 -19
q169 -75 169 -198q0 -72 -41 -127t-111 -85t-154 -30q-141 0 -257 64zM170 -84l70 85h62l-44 -52q16 4 29 4q40 0 62.5 -16t22.5 -44q0 -48 -43.5 -71t-105.5 -23q-51 0 -91 14l16 52q31 -12 64 -12q26 0 42 8t16 24q0 12 -10.5 18.5t-27.5 6.5t-34 -9z" />
    <glyph glyph-name="Scircumflex" unicode="&#x15c;" horiz-adv-x="604" 
d="M5 51l36 169q45 -38 106 -62.5t123 -24.5q122 0 122 72q0 26 -24.5 49.5t-81.5 47.5l-42 18q-77 34 -116.5 82t-39.5 118q0 67 38.5 116t106.5 75t154 26q131 0 220 -51l-34 -158q-44 30 -101.5 46.5t-111.5 16.5q-53 0 -81 -14t-28 -42q0 -25 25 -44t82 -45l41 -19
q169 -75 169 -198q0 -72 -41 -127t-111 -85t-154 -30q-141 0 -257 64zM335 886h162l112 -113h-158l-50 49l-73 -49h-158z" />
    <glyph glyph-name="uni0218" unicode="&#x218;" horiz-adv-x="604" 
d="M5 51l36 169q45 -38 106 -62.5t123 -24.5q122 0 122 72q0 26 -24.5 49.5t-81.5 47.5l-42 18q-77 34 -116.5 82t-39.5 118q0 67 38.5 116t106.5 75t154 26q131 0 220 -51l-34 -158q-44 30 -101.5 46.5t-111.5 16.5q-53 0 -81 -14t-28 -42q0 -25 25 -44t82 -45l41 -19
q169 -75 169 -198q0 -72 -41 -127t-111 -85t-154 -30q-141 0 -257 64zM232 -136h-35l21 100h127l-22 -105l-64 -90h-86z" />
    <glyph glyph-name="Tcaron" unicode="&#x164;" horiz-adv-x="639" 
d="M490 773h-162l-112 113h164l44 -50l73 50h158zM345 0h-172l122 574h-212l32 151h597l-32 -151h-213z" />
    <glyph glyph-name="uni0162" unicode="&#x162;" horiz-adv-x="639" 
d="M345 0h-172l122 574h-212l32 151h597l-32 -151h-213zM202 -136h-35l21 100h127l-22 -105l-64 -90h-86z" />
    <glyph glyph-name="uni021A" unicode="&#x21a;" horiz-adv-x="639" 
d="M345 0h-172l122 574h-212l32 151h597l-32 -151h-213zM202 -136h-35l21 100h127l-22 -105l-64 -90h-86z" />
    <glyph glyph-name="Ubreve" unicode="&#x16c;" horiz-adv-x="743" 
d="M343 127q57 0 91.5 20.5t52.5 57.5t31 97l90 423h171l-87 -409q-25 -119 -68 -190.5t-115 -105t-185 -33.5q-134 0 -203.5 50.5t-69.5 164.5q0 50 13 108l88 415h171l-92 -433q-9 -39 -9 -70q0 -48 28 -71.5t93 -23.5zM679 886q-33 -117 -206 -117q-182 0 -176 117h118
q0 -46 67 -46q70 0 79 46h118z" />
    <glyph glyph-name="Uhungarumlaut" unicode="&#x170;" horiz-adv-x="743" 
d="M343 127q57 0 91.5 20.5t52.5 57.5t31 97l90 423h171l-87 -409q-25 -119 -68 -190.5t-115 -105t-185 -33.5q-134 0 -203.5 50.5t-69.5 164.5q0 50 13 108l88 415h171l-92 -433q-9 -39 -9 -70q0 -48 28 -71.5t93 -23.5zM380 886h202l-160 -113h-145zM600 886h201
l-159 -113h-145z" />
    <glyph glyph-name="Umacron" unicode="&#x16a;" horiz-adv-x="743" 
d="M343 127q57 0 91.5 20.5t52.5 57.5t31 97l90 423h171l-87 -409q-25 -119 -68 -190.5t-115 -105t-185 -33.5q-134 0 -203.5 50.5t-69.5 164.5q0 50 13 108l88 415h171l-92 -433q-9 -39 -9 -70q0 -48 28 -71.5t93 -23.5zM662 879l-20 -100h-335l20 100h335z" />
    <glyph glyph-name="Uogonek" unicode="&#x172;" horiz-adv-x="743" 
d="M343 127q57 0 91.5 20.5t52.5 57.5t31 97l90 423h171l-87 -409q-23 -106 -59 -173.5t-93 -104.5t-144 -47q-35 -15 -58.5 -32t-23.5 -37q0 -27 44 -27q20 0 38 4l-17 -78q-36 -9 -78 -9q-56 0 -94 19.5t-38 65.5q0 27 19 52t54 44q-94 13 -142.5 63.5t-48.5 145.5
q0 50 13 108l88 415h171l-92 -433q-9 -39 -9 -70q0 -48 28 -71.5t93 -23.5z" />
    <glyph glyph-name="Uring" unicode="&#x16e;" horiz-adv-x="743" 
d="M343 127q57 0 91.5 20.5t52.5 57.5t31 97l90 423h171l-87 -409q-25 -119 -68 -190.5t-115 -105t-185 -33.5q-134 0 -203.5 50.5t-69.5 164.5q0 50 13 108l88 415h171l-92 -433q-9 -39 -9 -70q0 -48 28 -71.5t93 -23.5zM582 859q0 -45 -33 -76t-80 -31q-48 0 -81 30.5
t-33 76.5t33.5 76.5t80.5 30.5t80 -30.5t33 -76.5zM425 859q0 -18 12.5 -30.5t31.5 -12.5q18 0 31 12.5t13 30.5q0 19 -13 31.5t-31 12.5q-19 0 -31.5 -12.5t-12.5 -31.5z" />
    <glyph glyph-name="Utilde" unicode="&#x168;" horiz-adv-x="743" 
d="M343 127q57 0 91.5 20.5t52.5 57.5t31 97l90 423h171l-87 -409q-25 -119 -68 -190.5t-115 -105t-185 -33.5q-134 0 -203.5 50.5t-69.5 164.5q0 50 13 108l88 415h171l-92 -433q-9 -39 -9 -70q0 -48 28 -71.5t93 -23.5zM507 868q15 -9 25 -13t23 -4q44 0 62 42h97
q-15 -62 -56.5 -94.5t-99.5 -32.5q-29 0 -47.5 7t-39.5 19q-16 8 -25.5 12t-20.5 4q-43 0 -60 -42h-97q14 60 54.5 93.5t100.5 33.5q28 0 46.5 -6.5t37.5 -18.5z" />
    <glyph glyph-name="uni1EE4" unicode="&#x1ee4;" horiz-adv-x="743" 
d="M196 -175l29 118h148l-29 -118h-148zM343 127q57 0 91.5 20.5t52.5 57.5t31 97l90 423h171l-87 -409q-25 -119 -68 -190.5t-115 -105t-185 -33.5q-134 0 -203.5 50.5t-69.5 164.5q0 50 13 108l88 415h171l-92 -433q-9 -39 -9 -70q0 -48 28 -71.5t93 -23.5z" />
    <glyph glyph-name="Wacute" unicode="&#x1e82;" horiz-adv-x="932" 
d="M466 725h176l3 -503l186 503h180l-290 -725h-206v522l-220 -522h-194v725h178l-16 -501zM600 886h202l-176 -113h-142z" />
    <glyph glyph-name="Wcircumflex" unicode="&#x174;" horiz-adv-x="932" 
d="M466 725h176l3 -503l186 503h180l-290 -725h-206v522l-220 -522h-194v725h178l-16 -501zM502 886h162l112 -113h-158l-50 49l-73 -49h-158z" />
    <glyph glyph-name="Wdieresis" unicode="&#x1e84;" horiz-adv-x="932" 
d="M466 725h176l3 -503l186 503h180l-290 -725h-206v522l-220 -522h-194v725h178l-16 -501zM373 773l25 113h147l-25 -113h-147zM602 773l25 113h147l-25 -113h-147z" />
    <glyph glyph-name="Wgrave" unicode="&#x1e80;" horiz-adv-x="932" 
d="M466 725h176l3 -503l186 503h180l-290 -725h-206v522l-220 -522h-194v725h178l-16 -501zM626 773h-136l-145 113h201z" />
    <glyph glyph-name="Ycircumflex" unicode="&#x176;" horiz-adv-x="694" 
d="M259 271l-180 454h176l118 -300l232 300h198l-374 -456l-57 -269h-171zM388 886h162l112 -113h-158l-50 49l-73 -49h-158z" />
    <glyph glyph-name="Ydieresis" unicode="&#x178;" horiz-adv-x="694" 
d="M259 271l-180 454h176l118 -300l232 300h198l-374 -456l-57 -269h-171zM248 773l25 113h147l-25 -113h-147zM477 773l25 113h147l-25 -113h-147z" />
    <glyph glyph-name="Ygrave" unicode="&#x1ef2;" horiz-adv-x="694" 
d="M259 271l-180 454h176l118 -300l232 300h198l-374 -456l-57 -269h-171zM508 773h-136l-145 113h201z" />
    <glyph glyph-name="uni0232" unicode="&#x232;" horiz-adv-x="694" 
d="M259 271l-180 454h176l118 -300l232 300h198l-374 -456l-57 -269h-171zM621 879l-20 -100h-335l20 100h335z" />
    <glyph glyph-name="Zacute" unicode="&#x179;" horiz-adv-x="659" 
d="M144 725h572l-28 -131l-467 -443h380l-32 -151h-604l28 131l467 444h-348zM476 886h202l-176 -113h-142z" />
    <glyph glyph-name="Zcaron" unicode="&#x17d;" horiz-adv-x="659" 
d="M144 725h572l-28 -131l-467 -443h380l-32 -151h-604l28 131l467 444h-348zM520 773h-162l-112 113h164l44 -50l73 50h158z" />
    <glyph glyph-name="Zdotaccent" unicode="&#x17b;" horiz-adv-x="659" 
d="M144 725h572l-28 -131l-467 -443h380l-32 -151h-604l28 131l467 444h-348zM346 773l24 113h171l-25 -113h-170z" />
    <glyph glyph-name="abreve" unicode="&#x103;" horiz-adv-x="578" 
d="M387 349v12q0 60 -119 60q-45 0 -84 -10t-83 -31l29 135q84 39 190 39q111 0 166.5 -46t55.5 -132q0 -30 -6.5 -70t-24.5 -110q-13 -51 -23 -105.5t-13 -90.5h-154l11 75q-30 -43 -73 -65.5t-95 -22.5q-50 0 -88.5 19.5t-59 53t-20.5 74.5q0 102 97 150.5t294 64.5z
M367 231l7 24q-205 -7 -205 -100q0 -26 15 -41t46 -15q99 0 137 132zM575 755q-18 -51 -68 -86t-129 -35q-78 0 -113 35.5t-29 85.5h108q-1 -17 12.5 -28.5t39.5 -11.5t45 11.5t26 28.5h108z" />
    <glyph glyph-name="amacron" unicode="&#x101;" horiz-adv-x="578" 
d="M387 349v12q0 60 -119 60q-45 0 -84 -10t-83 -31l29 135q84 39 190 39q111 0 166.5 -46t55.5 -132q0 -30 -6.5 -70t-24.5 -110q-13 -51 -23 -105.5t-13 -90.5h-154l11 75q-30 -43 -73 -65.5t-95 -22.5q-50 0 -88.5 19.5t-59 53t-20.5 74.5q0 102 97 150.5t294 64.5z
M367 231l7 24q-205 -7 -205 -100q0 -26 15 -41t46 -15q99 0 137 132zM532 751l-20 -98h-313l20 98h313z" />
    <glyph glyph-name="aogonek" unicode="&#x105;" horiz-adv-x="578" 
d="M-4 134q0 102 97 150.5t294 64.5v12q0 60 -119 60q-45 0 -84 -10t-83 -31l29 135q84 39 190 39q111 0 166.5 -46t55.5 -132q0 -30 -6.5 -70t-24.5 -110q-13 -51 -23 -105.5t-13 -90.5q-37 -16 -65 -35t-28 -43q0 -27 44 -27q20 0 38 4l-16 -78q-38 -9 -79 -9
q-56 0 -94 19.5t-38 65.5q0 29 22.5 56.5t61.5 46.5l11 75q-30 -43 -73 -65.5t-95 -22.5q-50 0 -88.5 19.5t-59 53t-20.5 74.5zM367 231l7 24q-205 -7 -205 -100q0 -26 15 -41t46 -15q99 0 137 132z" />
    <glyph glyph-name="cacute" unicode="&#x107;" horiz-adv-x="493" 
d="M327 122q44 0 99 15l-30 -137q-67 -13 -109 -13q-120 0 -191 62.5t-71 175.5q0 102 45 176.5t122 113.5t172 39q77 0 150 -24l-30 -137q-34 13 -62.5 19.5t-61.5 6.5q-47 0 -85 -21t-59.5 -59.5t-21.5 -89.5q0 -61 34 -94t99 -33zM387 755h188l-170 -116h-124z" />
    <glyph glyph-name="ccaron" unicode="&#x10d;" horiz-adv-x="493" 
d="M327 122q44 0 99 15l-30 -137q-67 -13 -109 -13q-120 0 -191 62.5t-71 175.5q0 102 45 176.5t122 113.5t172 39q77 0 150 -24l-30 -137q-34 13 -62.5 19.5t-61.5 6.5q-47 0 -85 -21t-59.5 -59.5t-21.5 -89.5q0 -61 34 -94t99 -33zM444 639h-149l-113 116h146l52 -46
l72 46h157z" />
    <glyph glyph-name="ccircumflex" unicode="&#x109;" horiz-adv-x="493" 
d="M327 122q44 0 99 15l-30 -137q-67 -13 -109 -13q-120 0 -191 62.5t-71 175.5q0 102 45 176.5t122 113.5t172 39q77 0 150 -24l-30 -137q-34 13 -62.5 19.5t-61.5 6.5q-47 0 -85 -21t-59.5 -59.5t-21.5 -89.5q0 -61 34 -94t99 -33zM316 755h150l112 -116h-145l-53 46
l-72 -46h-157z" />
    <glyph glyph-name="cdotaccent" unicode="&#x10b;" horiz-adv-x="493" 
d="M327 122q44 0 99 15l-30 -137q-67 -13 -109 -13q-120 0 -191 62.5t-71 175.5q0 102 45 176.5t122 113.5t172 39q77 0 150 -24l-30 -137q-34 13 -62.5 19.5t-61.5 6.5q-47 0 -85 -21t-59.5 -59.5t-21.5 -89.5q0 -61 34 -94t99 -33zM288 639l24 116h148l-24 -116h-148z" />
    <glyph glyph-name="dcaron" unicode="&#x10f;" horiz-adv-x="661" 
d="M746 755h151l-95 -170h-112zM374 62q-31 -40 -72 -57.5t-83 -17.5q-58 0 -102.5 27.5t-69 77.5t-24.5 115q0 86 33 165t97 128.5t152 49.5q58 0 96 -26.5t57 -66.5l63 298h165l-160 -755h-165zM336 422q-72 0 -107 -56.5t-35 -132.5q0 -53 24 -85.5t69 -32.5
q49 0 82 31.5t48.5 77t15.5 86.5q0 48 -25.5 80t-71.5 32z" />
    <glyph glyph-name="dcroat" unicode="&#x111;" horiz-adv-x="641" 
d="M374 62q-31 -40 -72 -57.5t-83 -17.5q-58 0 -102.5 27.5t-69 77.5t-24.5 115q0 86 33 165t97 128.5t152 49.5q58 0 96 -26.5t57 -66.5l27 130h-120l21 100h120l15 68h165l-15 -68h76l-21 -100h-76l-124 -587h-165zM336 422q-72 0 -107 -56.5t-35 -132.5q0 -53 24 -85.5
t69 -32.5q49 0 82 31.5t48.5 77t15.5 86.5q0 48 -25.5 80t-71.5 32z" />
    <glyph glyph-name="ebreve" unicode="&#x115;" horiz-adv-x="598" 
d="M576 313q0 -44 -10 -85h-378q8 -54 44 -80t107 -26q89 0 166 29l-30 -138q-27 -12 -73.5 -19t-85.5 -7q-136 0 -213 64.5t-77 185.5q0 88 39.5 160.5t112.5 114.5t169 42q74 0 125.5 -32.5t77.5 -87t26 -121.5zM195 327h230q1 51 -25 77t-72 26q-43 0 -80.5 -25.5
t-52.5 -77.5zM560 755q-18 -51 -68 -86t-129 -35q-78 0 -113 35.5t-29 85.5h108q-1 -17 12.5 -28.5t39.5 -11.5t45 11.5t26 28.5h108z" />
    <glyph glyph-name="ecaron" unicode="&#x11b;" horiz-adv-x="598" 
d="M576 313q0 -44 -10 -85h-378q8 -54 44 -80t107 -26q89 0 166 29l-30 -138q-27 -12 -73.5 -19t-85.5 -7q-136 0 -213 64.5t-77 185.5q0 88 39.5 160.5t112.5 114.5t169 42q74 0 125.5 -32.5t77.5 -87t26 -121.5zM195 327h230q1 51 -25 77t-72 26q-43 0 -80.5 -25.5
t-52.5 -77.5zM444 639h-149l-113 116h146l52 -46l72 46h157z" />
    <glyph glyph-name="emacron" unicode="&#x113;" horiz-adv-x="598" 
d="M576 313q0 -44 -10 -85h-378q8 -54 44 -80t107 -26q89 0 166 29l-30 -138q-27 -12 -73.5 -19t-85.5 -7q-136 0 -213 64.5t-77 185.5q0 88 39.5 160.5t112.5 114.5t169 42q74 0 125.5 -32.5t77.5 -87t26 -121.5zM195 327h230q1 51 -25 77t-72 26q-43 0 -80.5 -25.5
t-52.5 -77.5zM542 751l-20 -98h-313l20 98h313z" />
    <glyph glyph-name="eogonek" unicode="&#x119;" horiz-adv-x="598" 
d="M576 313q0 -44 -10 -85h-378q8 -54 44 -80t107 -26q89 0 166 29l-30 -138q-44 -20 -75 -40t-31 -46q0 -32 44 -32q20 0 38 4l-16 -78q-38 -9 -79 -9q-56 0 -94 19.5t-38 65.5q0 28 18.5 49.5t54.5 40.5q-127 5 -199 69t-72 181q0 88 39.5 160.5t112.5 114.5t169 42
q74 0 125.5 -32.5t77.5 -87t26 -121.5zM195 327h230q1 51 -25 77t-72 26q-43 0 -80.5 -25.5t-52.5 -77.5z" />
    <glyph glyph-name="edotaccent" unicode="&#x117;" horiz-adv-x="598" 
d="M576 313q0 -44 -10 -85h-378q8 -54 44 -80t107 -26q89 0 166 29l-30 -138q-27 -12 -73.5 -19t-85.5 -7q-136 0 -213 64.5t-77 185.5q0 88 39.5 160.5t112.5 114.5t169 42q74 0 125.5 -32.5t77.5 -87t26 -121.5zM195 327h230q1 51 -25 77t-72 26q-43 0 -80.5 -25.5
t-52.5 -77.5zM284 639l24 116h148l-24 -116h-148z" />
    <glyph glyph-name="gbreve" unicode="&#x11f;" horiz-adv-x="638" 
d="M379 89q-31 -37 -73.5 -53.5t-84.5 -16.5q-57 0 -101 27t-68.5 74.5t-24.5 108.5q0 80 33 154t96 120.5t150 46.5q57 0 94.5 -24.5t56.5 -62.5l16 75h165l-99 -466q-30 -141 -118 -209.5t-224 -68.5q-62 0 -122 10.5t-99 27.5l31 150q38 -29 86 -42t99 -13q68 0 117.5 33
t61.5 92zM335 422q-71 0 -104 -48t-33 -119q0 -49 24 -78.5t68 -29.5q49 0 80.5 27t46 67t14.5 78q0 45 -25 74t-71 29zM579 755q-18 -51 -68 -86t-129 -35q-78 0 -113 35.5t-29 85.5h108q-1 -17 12.5 -28.5t39.5 -11.5t45 11.5t26 28.5h108z" />
    <glyph glyph-name="gcircumflex" unicode="&#x11d;" horiz-adv-x="638" 
d="M379 89q-31 -37 -73.5 -53.5t-84.5 -16.5q-57 0 -101 27t-68.5 74.5t-24.5 108.5q0 80 33 154t96 120.5t150 46.5q57 0 94.5 -24.5t56.5 -62.5l16 75h165l-99 -466q-30 -141 -118 -209.5t-224 -68.5q-62 0 -122 10.5t-99 27.5l31 150q38 -29 86 -42t99 -13q68 0 117.5 33
t61.5 92zM335 422q-71 0 -104 -48t-33 -119q0 -49 24 -78.5t68 -29.5q49 0 80.5 27t46 67t14.5 78q0 45 -25 74t-71 29zM346 755h150l112 -116h-145l-53 46l-72 -46h-157z" />
    <glyph glyph-name="uni0123" unicode="&#x123;" horiz-adv-x="638" 
d="M408 700h35l-21 -100h-127l22 105l64 90h86zM379 89q-31 -37 -73.5 -53.5t-84.5 -16.5q-57 0 -101 27t-68.5 74.5t-24.5 108.5q0 80 33 154t96 120.5t150 46.5q57 0 94.5 -24.5t56.5 -62.5l16 75h165l-99 -466q-30 -141 -118 -209.5t-224 -68.5q-62 0 -122 10.5t-99 27.5
l31 150q38 -29 86 -42t99 -13q68 0 117.5 33t61.5 92zM335 422q-71 0 -104 -48t-33 -119q0 -49 24 -78.5t68 -29.5q49 0 80.5 27t46 67t14.5 78q0 45 -25 74t-71 29z" />
    <glyph glyph-name="gdotaccent" unicode="&#x121;" horiz-adv-x="638" 
d="M379 89q-31 -37 -73.5 -53.5t-84.5 -16.5q-57 0 -101 27t-68.5 74.5t-24.5 108.5q0 80 33 154t96 120.5t150 46.5q57 0 94.5 -24.5t56.5 -62.5l16 75h165l-99 -466q-30 -141 -118 -209.5t-224 -68.5q-62 0 -122 10.5t-99 27.5l31 150q38 -29 86 -42t99 -13q68 0 117.5 33
t61.5 92zM335 422q-71 0 -104 -48t-33 -119q0 -49 24 -78.5t68 -29.5q49 0 80.5 27t46 67t14.5 78q0 45 -25 74t-71 29zM312 639l24 116h148l-24 -116h-148z" />
    <glyph glyph-name="hbar" unicode="&#x127;" horiz-adv-x="630" 
d="M324 755l-15 -68h121l-22 -100h-120l-25 -121q31 38 73.5 60.5t104.5 22.5q75 0 115 -39t40 -118q0 -38 -11 -90l-64 -302h-165l60 280q9 39 9 67q0 75 -68 75q-50 0 -84 -35.5t-49 -106.5l-60 -280h-165l124 587h-76l22 100h75l15 68h165z" />
    <glyph glyph-name="hcircumflex" unicode="&#x125;" horiz-adv-x="630" 
d="M263 466q31 39 73.5 61.5t104.5 22.5q75 0 115 -39t40 -118q0 -39 -11 -91l-64 -302h-165l60 280q9 39 9 67q0 75 -68 75q-50 0 -84 -35.5t-49 -106.5l-60 -280h-165l160 755h165zM392 906h162l112 -113h-158l-50 49l-73 -49h-158z" />
    <glyph glyph-name="dotlessi" unicode="&#x131;" horiz-adv-x="279" 
d="M-2 0l115 538h166l-115 -538h-166z" />
    <glyph glyph-name="ibreve" unicode="&#x12d;" horiz-adv-x="279" 
d="M413 755q-18 -51 -68 -86t-129 -35q-78 0 -113 35.5t-29 85.5h108q-1 -17 12.5 -28.5t39.5 -11.5t45 11.5t26 28.5h108zM-2 0l115 538h166l-115 -538h-166z" />
    <glyph glyph-name="imacron" unicode="&#x12b;" horiz-adv-x="279" 
d="M400 751l-20 -98h-313l20 98h313zM-2 0l115 538h166l-115 -538h-166z" />
    <glyph glyph-name="iogonek" unicode="&#x12f;" horiz-adv-x="279" 
d="M131 623l28 132h165l-28 -132h-165zM113 538h166l-115 -538q-110 -41 -110 -78q0 -14 14 -20.5t34 -6.5q18 0 41 5l-15 -78q-42 -10 -83 -10q-57 0 -96.5 19.5t-39.5 65.5q0 30 23.5 57t65.5 46z" />
    <glyph glyph-name="itilde" unicode="&#x129;" horiz-adv-x="279" 
d="M359 766h95q-14 -59 -50.5 -93t-84.5 -34q-22 0 -40 6.5t-40 18.5q-19 10 -31 14.5t-25 4.5q-20 0 -33.5 -11.5t-18.5 -32.5h-95q14 59 50.5 93t84.5 34q22 0 38.5 -6t39.5 -19q17 -10 29.5 -14.5t26.5 -4.5q21 0 35.5 12t18.5 32zM-2 0l115 538h166l-115 -538h-166z" />
    <glyph glyph-name="uni1ECB" unicode="&#x1ecb;" horiz-adv-x="279" 
d="M-35 -175l29 118h148l-29 -118h-148zM132 623l28 132h165l-28 -132h-165zM-2 0l115 538h166l-115 -538h-166z" />
    <glyph glyph-name="uni0237" unicode="&#x237;" horiz-adv-x="321" 
d="M-94 -192l25 117q33 -12 53 -12q22 0 33.5 12.5t16.5 39.5l96 456h-79l25 117h244l-122 -577q-35 -167 -192 -167q-44 0 -100 14z" />
    <glyph glyph-name="jcircumflex" unicode="&#x135;" horiz-adv-x="321" 
d="M181 755h150l102 -116h-145l-43 46l-62 -46h-157zM-94 -192l25 117q33 -12 53 -12q22 0 33.5 12.5t16.5 39.5l96 456h-79l25 117h244l-122 -577q-35 -167 -192 -167q-44 0 -100 14z" />
    <glyph glyph-name="uni0137" unicode="&#x137;" horiz-adv-x="581" 
d="M-1 0l160 755h165l-91 -428l203 211h205l-264 -271l166 -267h-192l-138 232l-49 -232h-165zM193 -136h-35l21 100h127l-22 -105l-64 -90h-86z" />
    <glyph glyph-name="lacute" unicode="&#x13a;" horiz-adv-x="279" 
d="M159 755h165l-160 -755h-165zM282 906h202l-176 -113h-142z" />
    <glyph glyph-name="lcaron" unicode="&#x13e;" horiz-adv-x="279" 
d="M384 755h151l-95 -170h-112zM159 755h165l-160 -755h-165z" />
    <glyph glyph-name="uni013C" unicode="&#x13c;" horiz-adv-x="279" 
d="M159 755h165l-160 -755h-165zM26 -136h-35l21 100h127l-22 -105l-64 -90h-86z" />
    <glyph glyph-name="ldot" unicode="&#x140;" horiz-adv-x="427" 
d="M159 755h165l-160 -755h-165zM295 342l24 116h148l-24 -116h-148z" />
    <glyph glyph-name="lslash" unicode="&#x142;" horiz-adv-x="370" 
d="M204 755h165l-53 -248l89 42l-28 -134l-89 -42l-79 -373h-165l63 297l-85 -40l29 133l84 40z" />
    <glyph glyph-name="nacute" unicode="&#x144;" horiz-adv-x="630" 
d="M113 538h162l-15 -72q69 84 181 84q75 0 115 -39t40 -118q0 -38 -11 -91l-64 -302h-165l60 280q9 39 9 68q0 38 -16.5 56t-50.5 18q-50 0 -84.5 -35.5t-49.5 -106.5l-60 -280h-165zM418 755h188l-170 -116h-124z" />
    <glyph glyph-name="ncaron" unicode="&#x148;" horiz-adv-x="630" 
d="M113 538h162l-15 -72q69 84 181 84q75 0 115 -39t40 -118q0 -38 -11 -91l-64 -302h-165l60 280q9 39 9 68q0 38 -16.5 56t-50.5 18q-50 0 -84.5 -35.5t-49.5 -106.5l-60 -280h-165zM470 639h-149l-113 116h146l52 -46l72 46h157z" />
    <glyph glyph-name="uni0146" unicode="&#x146;" horiz-adv-x="630" 
d="M113 538h162l-15 -72q69 84 181 84q75 0 115 -39t40 -118q0 -38 -11 -91l-64 -302h-165l60 280q9 39 9 68q0 38 -16.5 56t-50.5 18q-50 0 -84.5 -35.5t-49.5 -106.5l-60 -280h-165zM204 -136h-35l21 100h127l-22 -105l-64 -90h-86z" />
    <glyph glyph-name="oe" unicode="&#x153;" horiz-adv-x="985" 
d="M862 13q-27 -12 -73.5 -19t-85.5 -7q-150 0 -221 78q-76 -78 -205 -78q-113 0 -183.5 59.5t-70.5 173.5q0 76 33.5 153t105 129t179.5 52q123 0 184 -74q84 74 209 74q74 0 125.5 -32.5t77.5 -87t26 -121.5q0 -44 -10 -85h-378l1 -6q8 -46 41 -73t109 -27q89 0 166 29z
M582 327h230q3 47 -23.5 75t-73.5 28q-48 0 -83.5 -27.5t-49.5 -75.5zM193 228q0 -56 24 -84.5t71 -28.5q64 0 100 57t36 139q0 57 -24 86t-71 29q-64 0 -100 -57.5t-36 -140.5z" />
    <glyph glyph-name="obreve" unicode="&#x14f;" 
d="M23 220q0 76 33.5 153t105 129t179.5 52q113 0 183 -59.5t70 -173.5q0 -76 -33.5 -153t-105 -129t-178.5 -52q-113 0 -183.5 59.5t-70.5 173.5zM424 313q0 56 -24 84.5t-71 28.5q-64 0 -100 -58t-36 -140q0 -56 24 -84.5t71 -28.5q64 0 100 58t36 140zM576 755
q-18 -51 -68 -86t-129 -35q-78 0 -113 35.5t-29 85.5h108q-1 -17 12.5 -28.5t39.5 -11.5t45 11.5t26 28.5h108z" />
    <glyph glyph-name="ohungarumlaut" unicode="&#x151;" 
d="M312 755h187l-182 -116h-124zM535 755h188l-182 -116h-124zM23 220q0 76 33.5 153t105 129t179.5 52q113 0 183 -59.5t70 -173.5q0 -76 -33.5 -153t-105 -129t-178.5 -52q-113 0 -183.5 59.5t-70.5 173.5zM424 313q0 56 -24 84.5t-71 28.5q-64 0 -100 -58t-36 -140
q0 -56 24 -84.5t71 -28.5q64 0 100 58t36 140z" />
    <glyph glyph-name="omacron" unicode="&#x14d;" 
d="M23 220q0 76 33.5 153t105 129t179.5 52q113 0 183 -59.5t70 -173.5q0 -76 -33.5 -153t-105 -129t-178.5 -52q-113 0 -183.5 59.5t-70.5 173.5zM424 313q0 56 -24 84.5t-71 28.5q-64 0 -100 -58t-36 -140q0 -56 24 -84.5t71 -28.5q64 0 100 58t36 140zM565 751l-20 -98
h-313l20 98h313z" />
    <glyph glyph-name="uni1ECD" unicode="&#x1ecd;" 
d="M151 -175l29 118h148l-29 -118h-148zM23 220q0 76 33.5 153t105 129t179.5 52q113 0 183 -59.5t70 -173.5q0 -76 -33.5 -153t-105 -129t-178.5 -52q-113 0 -183.5 59.5t-70.5 173.5zM424 313q0 56 -24 84.5t-71 28.5q-64 0 -100 -58t-36 -140q0 -56 24 -84.5t71 -28.5
q64 0 100 58t36 140z" />
    <glyph glyph-name="racute" unicode="&#x155;" horiz-adv-x="406" 
d="M302 755h188l-170 -116h-124zM415 378q-25 5 -57 5q-56 0 -89.5 -23.5t-45.5 -80.5l-59 -279h-165l114 538h160l-21 -99q31 47 77 75t104 28q9 0 17 -1z" />
    <glyph glyph-name="rcaron" unicode="&#x159;" horiz-adv-x="406" 
d="M373 639h-149l-113 116h146l52 -46l72 46h157zM415 378q-25 5 -57 5q-56 0 -89.5 -23.5t-45.5 -80.5l-59 -279h-165l114 538h160l-21 -99q31 47 77 75t104 28q9 0 17 -1z" />
    <glyph glyph-name="uni0157" unicode="&#x157;" horiz-adv-x="406" 
d="M25 -136h-35l21 100h127l-22 -105l-64 -90h-86zM415 378q-25 5 -57 5q-56 0 -89.5 -23.5t-45.5 -80.5l-59 -279h-165l114 538h160l-21 -99q31 47 77 75t104 28q9 0 17 -1z" />
    <glyph glyph-name="sacute" unicode="&#x15b;" horiz-adv-x="477" 
d="M13 168q47 -24 95.5 -36.5t88.5 -12.5q34 0 53.5 11t19.5 30q0 18 -14.5 30t-48.5 26l-23 9q-120 46 -120 153q0 51 28 90.5t82 62.5t130 23q86 0 166 -31l-30 -137q-83 36 -151 36q-36 0 -54.5 -9t-18.5 -25q0 -13 13.5 -24.5t48.5 -26.5l23 -10q70 -31 101.5 -65.5
t31.5 -84.5q0 -55 -30 -98t-86.5 -67.5t-132.5 -24.5q-109 0 -202 43zM308 755h188l-170 -116h-124z" />
    <glyph glyph-name="scaron" unicode="&#x161;" horiz-adv-x="477" 
d="M13 168q47 -24 95.5 -36.5t88.5 -12.5q34 0 53.5 11t19.5 30q0 18 -14.5 30t-48.5 26l-23 9q-120 46 -120 153q0 51 28 90.5t82 62.5t130 23q86 0 166 -31l-30 -137q-83 36 -151 36q-36 0 -54.5 -9t-18.5 -25q0 -13 13.5 -24.5t48.5 -26.5l23 -10q70 -31 101.5 -65.5
t31.5 -84.5q0 -55 -30 -98t-86.5 -67.5t-132.5 -24.5q-109 0 -202 43zM385 639h-149l-113 116h146l52 -46l72 46h157z" />
    <glyph glyph-name="scedilla" unicode="&#x15f;" horiz-adv-x="477" 
d="M13 168q47 -24 95.5 -36.5t88.5 -12.5q34 0 53.5 11t19.5 30q0 18 -14.5 30t-48.5 26l-23 9q-120 46 -120 153q0 51 28 90.5t82 62.5t130 23q86 0 166 -31l-30 -137q-83 36 -151 36q-36 0 -54.5 -9t-18.5 -25q0 -13 13.5 -24.5t48.5 -26.5l23 -10q70 -31 101.5 -65.5
t31.5 -84.5q0 -55 -30 -98t-86.5 -67.5t-132.5 -24.5q-109 0 -202 43zM105 -84l70 85h62l-44 -52q16 4 29 4q40 0 62.5 -16t22.5 -44q0 -48 -43.5 -71t-105.5 -23q-51 0 -91 14l16 52q31 -12 64 -12q26 0 42 8t16 24q0 12 -10.5 18.5t-27.5 6.5t-34 -9z" />
    <glyph glyph-name="scircumflex" unicode="&#x15d;" horiz-adv-x="477" 
d="M13 168q47 -24 95.5 -36.5t88.5 -12.5q34 0 53.5 11t19.5 30q0 18 -14.5 30t-48.5 26l-23 9q-120 46 -120 153q0 51 28 90.5t82 62.5t130 23q86 0 166 -31l-30 -137q-83 36 -151 36q-36 0 -54.5 -9t-18.5 -25q0 -13 13.5 -24.5t48.5 -26.5l23 -10q70 -31 101.5 -65.5
t31.5 -84.5q0 -55 -30 -98t-86.5 -67.5t-132.5 -24.5q-109 0 -202 43zM267 755h150l112 -116h-145l-53 46l-72 -46h-157z" />
    <glyph glyph-name="uni0219" unicode="&#x219;" horiz-adv-x="477" 
d="M13 168q47 -24 95.5 -36.5t88.5 -12.5q34 0 53.5 11t19.5 30q0 18 -14.5 30t-48.5 26l-23 9q-120 46 -120 153q0 51 28 90.5t82 62.5t130 23q86 0 166 -31l-30 -137q-83 36 -151 36q-36 0 -54.5 -9t-18.5 -25q0 -13 13.5 -24.5t48.5 -26.5l23 -10q70 -31 101.5 -65.5
t31.5 -84.5q0 -55 -30 -98t-86.5 -67.5t-132.5 -24.5q-109 0 -202 43zM140 -136h-35l21 100h127l-22 -105l-64 -90h-86z" />
    <glyph glyph-name="tcaron" unicode="&#x165;" horiz-adv-x="436" 
d="M79 107q0 29 7 60l54 254h-105l25 117h105l31 147h165l-31 -147h138l-25 -117h-138l-46 -217q-5 -21 -5 -41q0 -28 13 -37t38 -9q39 0 78 15l-27 -127q-64 -18 -114 -18q-78 0 -120.5 27t-42.5 93zM433 755h151l-95 -170h-112z" />
    <glyph glyph-name="uni0163" unicode="&#x163;" horiz-adv-x="436" 
d="M79 107q0 29 7 60l54 254h-105l25 117h105l31 147h165l-31 -147h138l-25 -117h-138l-46 -217q-5 -21 -5 -41q0 -28 13 -37t38 -9q39 0 78 15l-27 -127q-64 -18 -114 -18q-78 0 -120.5 27t-42.5 93zM153 -136h-35l21 100h127l-22 -105l-64 -90h-86z" />
    <glyph glyph-name="uni021B" unicode="&#x21b;" horiz-adv-x="436" 
d="M79 107q0 29 7 60l54 254h-105l25 117h105l31 147h165l-31 -147h138l-25 -117h-138l-46 -217q-5 -21 -5 -41q0 -28 13 -37t38 -9q39 0 78 15l-27 -127q-64 -18 -114 -18q-78 0 -120.5 27t-42.5 93zM153 -136h-35l21 100h127l-22 -105l-64 -90h-86z" />
    <glyph glyph-name="ubreve" unicode="&#x16d;" 
d="M357 69q-66 -82 -176 -82q-72 0 -110.5 39t-38.5 117q0 37 11 90l64 305h165l-60 -282q-9 -39 -9 -67q0 -74 65 -74q46 0 77.5 35.5t46.5 105.5l60 282h165l-114 -538h-161zM559 755q-18 -51 -68 -86t-129 -35q-78 0 -113 35.5t-29 85.5h108q-1 -17 12.5 -28.5
t39.5 -11.5t45 11.5t26 28.5h108z" />
    <glyph glyph-name="uhungarumlaut" unicode="&#x171;" 
d="M286 755h187l-182 -116h-124zM509 755h188l-182 -116h-124zM357 69q-66 -82 -176 -82q-72 0 -110.5 39t-38.5 117q0 37 11 90l64 305h165l-60 -282q-9 -39 -9 -67q0 -74 65 -74q46 0 77.5 35.5t46.5 105.5l60 282h165l-114 -538h-161z" />
    <glyph glyph-name="umacron" unicode="&#x16b;" 
d="M357 69q-66 -82 -176 -82q-72 0 -110.5 39t-38.5 117q0 37 11 90l64 305h165l-60 -282q-9 -39 -9 -67q0 -74 65 -74q46 0 77.5 35.5t46.5 105.5l60 282h165l-114 -538h-161zM556 751l-20 -98h-313l20 98h313z" />
    <glyph glyph-name="uogonek" unicode="&#x173;" 
d="M357 69q-66 -82 -176 -82q-72 0 -110.5 39t-38.5 117q0 37 11 90l64 305h165l-60 -282q-9 -39 -9 -67q0 -74 65 -74q46 0 77.5 35.5t46.5 105.5l60 282h165l-114 -538q-45 -19 -74.5 -36.5t-29.5 -41.5q0 -27 44 -27q16 0 39 5l-16 -79q-47 -9 -80 -9q-56 0 -94 19.5
t-38 65.5q0 30 23 57.5t65 45.5z" />
    <glyph glyph-name="uring" unicode="&#x16f;" 
d="M357 69q-66 -82 -176 -82q-72 0 -110.5 39t-38.5 117q0 37 11 90l64 305h165l-60 -282q-9 -39 -9 -67q0 -74 65 -74q46 0 77.5 35.5t46.5 105.5l60 282h165l-114 -538h-161zM479 708q0 -45 -33 -76t-80 -31q-48 0 -81 30.5t-33 76.5t33.5 76.5t80.5 30.5t80 -30.5
t33 -76.5zM322 708q0 -18 12.5 -30.5t31.5 -12.5q18 0 31 12.5t13 30.5q0 19 -13 31.5t-31 12.5q-19 0 -31.5 -12.5t-12.5 -31.5z" />
    <glyph glyph-name="utilde" unicode="&#x169;" 
d="M357 69q-66 -82 -176 -82q-72 0 -110.5 39t-38.5 117q0 37 11 90l64 305h165l-60 -282q-9 -39 -9 -67q0 -74 65 -74q46 0 77.5 35.5t46.5 105.5l60 282h165l-114 -538h-161zM509 766h95q-14 -59 -50.5 -93t-84.5 -34q-22 0 -40 6.5t-40 18.5q-19 10 -31 14.5t-25 4.5
q-20 0 -33.5 -11.5t-18.5 -32.5h-95q14 59 50.5 93t84.5 34q22 0 38.5 -6t39.5 -19q17 -10 29.5 -14.5t26.5 -4.5q21 0 35.5 12t18.5 32z" />
    <glyph glyph-name="uni1EE5" unicode="&#x1ee5;" 
d="M126 -175l29 118h148l-29 -118h-148zM357 69q-66 -82 -176 -82q-72 0 -110.5 39t-38.5 117q0 37 11 90l64 305h165l-60 -282q-9 -39 -9 -67q0 -74 65 -74q46 0 77.5 35.5t46.5 105.5l60 282h165l-114 -538h-161z" />
    <glyph glyph-name="wacute" unicode="&#x1e83;" horiz-adv-x="820" 
d="M234 538l-14 -354l149 354h190l-3 -353l139 353h174l-233 -538h-201v386l-163 -386h-208l3 538h167zM526 755h188l-170 -116h-124z" />
    <glyph glyph-name="wcircumflex" unicode="&#x175;" horiz-adv-x="820" 
d="M234 538l-14 -354l149 354h190l-3 -353l139 353h174l-233 -538h-201v386l-163 -386h-208l3 538h167zM442 755h150l112 -116h-145l-53 46l-72 -46h-157z" />
    <glyph glyph-name="wdieresis" unicode="&#x1e85;" horiz-adv-x="820" 
d="M234 538l-14 -354l149 354h190l-3 -353l139 353h174l-233 -538h-201v386l-163 -386h-208l3 538h167zM452 628h-148l26 127h148zM528 628l26 127h147l-26 -127h-147z" />
    <glyph glyph-name="wgrave" unicode="&#x1e81;" horiz-adv-x="820" 
d="M234 538l-14 -354l149 354h190l-3 -353l139 353h174l-233 -538h-201v386l-163 -386h-208l3 538h167zM518 639h-113l-134 116h183z" />
    <glyph glyph-name="ycircumflex" unicode="&#x177;" horiz-adv-x="558" 
d="M623 538l-443 -733h-171l135 222l-95 511h168l57 -316l177 316h172zM294 755h150l112 -116h-145l-53 46l-72 -46h-157z" />
    <glyph glyph-name="ygrave" unicode="&#x1ef3;" horiz-adv-x="558" 
d="M623 538l-443 -733h-171l135 222l-95 511h168l57 -316l177 316h172zM405 639h-113l-134 116h183z" />
    <glyph glyph-name="uni0233" unicode="&#x233;" horiz-adv-x="558" 
d="M623 538l-443 -733h-171l135 222l-95 511h168l57 -316l177 316h172zM521 751l-20 -98h-313l20 98h313z" />
    <glyph glyph-name="zacute" unicode="&#x17a;" horiz-adv-x="558" 
d="M474 0h-505l28 131l335 276h-261l28 131h475l-28 -131l-335 -276h291zM370 755h188l-170 -116h-124z" />
    <glyph glyph-name="zcaron" unicode="&#x17e;" horiz-adv-x="558" 
d="M474 0h-505l28 131l335 276h-261l28 131h475l-28 -131l-335 -276h291zM440 639h-149l-113 116h146l52 -46l72 46h157z" />
    <glyph glyph-name="zdotaccent" unicode="&#x17c;" horiz-adv-x="558" 
d="M474 0h-505l28 131l335 276h-261l28 131h475l-28 -131l-335 -276h291zM270 639l24 116h148l-24 -116h-148z" />
    <glyph glyph-name="ellipsis" unicode="&#x2026;" horiz-adv-x="832" 
d="M772 178l-38 -178h-186l38 178h186zM494 178l-38 -178h-186l38 178h186zM216 178l-38 -178h-186l38 178h186z" />
    <glyph glyph-name="endash" unicode="&#x2013;" horiz-adv-x="555" 
d="M520 335l-30 -139h-460l30 139h460z" />
    <glyph glyph-name="emdash" unicode="&#x2014;" horiz-adv-x="795" 
d="M760 335l-30 -139h-700l30 139h700z" />
    <glyph glyph-name="guilsinglleft" unicode="&#x2039;" horiz-adv-x="385" 
d="M292 41h-142l-119 233l217 231h159l-183 -232z" />
    <glyph glyph-name="guilsinglright" unicode="&#x203a;" horiz-adv-x="386" 
d="M232 505l120 -234l-218 -230h-158l183 231l-69 233h142z" />
    <glyph glyph-name="quoteleft" unicode="&#x2018;" horiz-adv-x="270" 
d="M212 567h72l-38 -177h-184l39 187l134 148h98z" />
    <glyph glyph-name="quoteright" unicode="&#x2019;" horiz-adv-x="265" 
d="M178 548h-72l38 177h184l-39 -187l-134 -148h-98z" />
    <glyph glyph-name="quotedblleft" unicode="&#x201c;" horiz-adv-x="511" 
d="M453 567h72l-38 -177h-184l39 187l134 148h98zM212 567h72l-38 -177h-184l39 187l134 148h98z" />
    <glyph glyph-name="quotedblright" unicode="&#x201d;" horiz-adv-x="506" 
d="M178 548h-72l38 177h184l-39 -187l-134 -148h-98zM419 548h-72l38 177h184l-39 -187l-134 -148h-98z" />
    <glyph glyph-name="quotesinglbase" unicode="&#x201a;" horiz-adv-x="275" 
d="M64 0h-72l38 177h184l-39 -187l-134 -148h-98z" />
    <glyph glyph-name="quotedblbase" unicode="&#x201e;" horiz-adv-x="516" 
d="M64 0h-72l38 177h184l-39 -187l-134 -148h-98zM305 0h-72l38 177h184l-39 -187l-134 -148h-98z" />
    <glyph glyph-name="bullet" unicode="&#x2022;" horiz-adv-x="491" 
d="M241 456q52 0 94 -23.5t66 -64.5t24 -89q0 -51 -24 -93t-66 -66t-94 -24q-48 0 -88 24t-64 66t-24 93q0 48 24 88.5t64.5 64.5t87.5 24z" />
    <glyph glyph-name="minus" unicode="&#x2212;" horiz-adv-x="678" 
d="M48 200v139h578v-139h-578z" />
    <glyph glyph-name="Euro" unicode="&#x20ac;" horiz-adv-x="779" 
d="M349 391q-6 -36 -6 -55h262l-65 -90h-187q18 -59 66 -89t117 -30q39 0 74 7t60 14t32 9l-32 -153q-82 -17 -145 -17q-135 0 -227 68.5t-113 190.5h-159l65 90h90q2 37 5 55h-125l65 89h86q32 80 92.5 138t139.5 88.5t165 30.5q133 0 207 -30l-32 -152q-35 17 -87.5 29.5
t-105.5 12.5q-65 0 -119.5 -31t-87.5 -86h334l-64 -89h-305z" />
    <glyph glyph-name="uniFB01" unicode="&#xfb01;" horiz-adv-x="670" 
d="M160 591q20 97 76.5 135t154.5 38q20 0 47 -3t45 -7l-25 -118q-10 3 -27.5 4.5t-29.5 1.5q-35 0 -53 -15t-27 -54l-7 -35h119l-25 -117h-119l-89 -421h-165l89 421h-73l25 117h73zM389 0l115 538h166l-115 -538h-166zM523 623l28 132h165l-28 -132h-165z" />
    <glyph glyph-name="uniFB02" unicode="&#xfb02;" horiz-adv-x="671" 
d="M160 591q20 97 76.5 135t154.5 38q20 0 47 -3t45 -7l-25 -118q-10 3 -27.5 4.5t-29.5 1.5q-35 0 -53 -15t-27 -54l-7 -35h119l-25 -117h-119l-89 -421h-165l89 421h-73l25 117h73zM551 755h165l-160 -755h-165z" />
    <glyph glyph-name="glyph328" horiz-adv-x="283" 
d="M111 623l28 132h165l-28 -132h-165z" />
    <glyph glyph-name="breve" unicode="&#x2d8;" horiz-adv-x="383" 
d="M454 755q-18 -51 -68 -86t-129 -35q-78 0 -113 35.5t-29 85.5h108q-1 -17 12.5 -28.5t39.5 -11.5t45 11.5t26 28.5h108z" />
    <glyph glyph-name="caron" unicode="&#x2c7;" horiz-adv-x="471" 
d="M366 639h-149l-113 116h146l52 -46l72 46h157z" />
    <glyph glyph-name="circumflex" unicode="&#x2c6;" horiz-adv-x="471" 
d="M245 755h150l112 -116h-145l-53 46l-72 -46h-157z" />
    <glyph glyph-name="dotaccent" unicode="&#x2d9;" horiz-adv-x="192" 
d="M90 639l24 116h148l-24 -116h-148z" />
    <glyph glyph-name="glyph333" horiz-adv-x="192" 
d="M-50 -175l29 118h148l-29 -118h-148z" />
    <glyph glyph-name="hungarumlaut" unicode="&#x2dd;" horiz-adv-x="550" 
d="M239 755h187l-182 -116h-124zM462 755h188l-182 -116h-124z" />
    <glyph glyph-name="ogonek" unicode="&#x2db;" horiz-adv-x="318" 
d="M211 0q-45 -19 -74.5 -36.5t-29.5 -41.5q0 -27 44 -27q20 0 38 4l-16 -78q-38 -9 -79 -9q-56 0 -94 19.5t-38 65.5q0 30 23.5 57t65.5 46h160z" />
    <glyph glyph-name="ring" unicode="&#x2da;" horiz-adv-x="233" 
d="M295 708q0 -45 -33 -76t-80 -31q-48 0 -81 30.5t-33 76.5t33.5 76.5t80.5 30.5t80 -30.5t33 -76.5zM138 708q0 -18 12.5 -30.5t31.5 -12.5q18 0 31 12.5t13 30.5q0 19 -13 31.5t-31 12.5q-19 0 -31.5 -12.5t-12.5 -31.5z" />
    <glyph glyph-name="tilde" unicode="&#x2dc;" horiz-adv-x="464" 
d="M455 766h95q-14 -59 -50.5 -93t-84.5 -34q-22 0 -40 6.5t-40 18.5q-19 10 -31 14.5t-25 4.5q-20 0 -33.5 -11.5t-18.5 -32.5h-95q14 59 50.5 93t84.5 34q22 0 38.5 -6t39.5 -19q17 -10 29.5 -14.5t26.5 -4.5q21 0 35.5 12t18.5 32z" />
    <glyph glyph-name="glyph338" horiz-adv-x="215" 
d="M178 755h151l-95 -170h-112z" />
    <glyph glyph-name="glyph339" horiz-adv-x="0" 
d="M-193 -136h-35l21 100h127l-22 -105l-64 -90h-86z" />
    <glyph glyph-name="glyph340" horiz-adv-x="274" 
d="M104 886h202l-176 -113h-142z" />
    <glyph glyph-name="glyph341" horiz-adv-x="422" 
d="M391 886q-33 -117 -206 -117q-182 0 -176 117h118q0 -46 67 -46q70 0 79 46h118z" />
    <glyph glyph-name="glyph342" horiz-adv-x="479" 
d="M303 773h-162l-112 113h164l44 -50l73 50h158z" />
    <glyph glyph-name="glyph343" horiz-adv-x="274" 
d="M35 -84l70 85h62l-44 -52q16 4 29 4q40 0 62.5 -16t22.5 -44q0 -48 -43.5 -71t-105.5 -23q-51 0 -91 14l16 52q31 -12 64 -12q26 0 42 8t16 24q0 12 -10.5 18.5t-27.5 6.5t-34 -9z" />
    <glyph glyph-name="glyph344" horiz-adv-x="479" 
d="M171 886h162l112 -113h-158l-50 49l-73 -49h-158z" />
    <glyph glyph-name="glyph345" horiz-adv-x="418" 
d="M6 773l25 113h147l-25 -113h-147zM235 773l25 113h147l-25 -113h-147z" />
    <glyph glyph-name="glyph346" horiz-adv-x="191" 
d="M-3 773l24 113h171l-25 -113h-170z" />
    <glyph glyph-name="glyph347" horiz-adv-x="274" 
d="M286 773h-136l-145 113h201z" />
    <glyph glyph-name="glyph348" horiz-adv-x="436" 
d="M91 886h202l-160 -113h-145zM311 886h201l-159 -113h-145z" />
    <glyph glyph-name="glyph349" horiz-adv-x="376" 
d="M363 879l-20 -100h-335l20 100h335z" />
    <glyph glyph-name="glyph350" horiz-adv-x="280" 
d="M249 859q0 -45 -33 -76t-80 -31q-48 0 -81 30.5t-33 76.5t33.5 76.5t80.5 30.5t80 -30.5t33 -76.5zM92 859q0 -18 12.5 -30.5t31.5 -12.5q18 0 31 12.5t13 30.5q0 19 -13 31.5t-31 12.5q-19 0 -31.5 -12.5t-12.5 -31.5z" />
    <glyph glyph-name="glyph351" horiz-adv-x="460" 
d="M254 868q15 -9 25 -13t23 -4q44 0 62 42h97q-15 -62 -56.5 -94.5t-99.5 -32.5q-29 0 -47.5 7t-39.5 19q-16 8 -25.5 12t-20.5 4q-43 0 -60 -42h-97q14 60 54.5 93.5t100.5 33.5q28 0 46.5 -6.5t37.5 -18.5z" />
    </font>
</defs>
</svg>
