<?xml version="1.0" standalone="no"?>
<!DOCTYPE svg PUBLIC "-//W3C//DTD SVG 1.1//EN" "http://www.w3.org/Graphics/SVG/1.1/DTD/svg11.dtd" >
<svg xmlns="http://www.w3.org/2000/svg" xmlns:xlink="http://www.w3.org/1999/xlink" version="1.1">
<metadata>
Created by Christoph Koeberlin (http://christoph.koe.berlin)
Copyright (c) 2020 Swiss Typefaces Sarl. All rights reserved.
</metadata>
<defs>
<font id="Font" horiz-adv-x="678" >
  <font-face 
    font-family="Font"
    font-weight="275"
    font-stretch="normal"
    units-per-em="1000"
    panose-1="2 11 2 4 0 0 0 0 0 0"
    ascent="800"
    descent="-200"
    x-height="538"
    cap-height="725"
    bbox="-335 -234 1239 932"
    underline-thickness="37"
    underline-position="-88"
    unicode-range="U+0020-FEFF"
  />
<missing-glyph horiz-adv-x="686" 
d="M593 0h-500v725h500v-725zM559 706h-433l217 -328zM112 29l220 333l-220 334v-667zM574 696l-221 -334l221 -333v667zM559 19l-216 327l-217 -327h433z" />
    <glyph glyph-name=".notdef" horiz-adv-x="686" 
d="M593 0h-500v725h500v-725zM559 706h-433l217 -328zM112 29l220 333l-220 334v-667zM574 696l-221 -334l221 -333v667zM559 19l-216 327l-217 -327h433z" />
    <glyph glyph-name="glyph1" horiz-adv-x="0" 
 />
    <glyph glyph-name="glyph2" horiz-adv-x="236" 
 />
    <glyph glyph-name="space" unicode=" " horiz-adv-x="236" 
 />
    <glyph glyph-name="exclam" unicode="!" horiz-adv-x="223" 
d="M132 512l-8 -338h-24l-9 338v213h41v-213zM131 104v-104h-39v104h39z" />
    <glyph glyph-name="quotedbl" unicode="&#x22;" horiz-adv-x="313" 
d="M68 485l-12 240h45l-12 -240h-21zM224 485l-12 240h45l-12 -240h-21z" />
    <glyph glyph-name="numbersign" unicode="#" horiz-adv-x="690" 
d="M656 505l-5 -37h-152l-29 -211h152l-5 -37h-152l-31 -220h-38l31 220h-203l-31 -220h-38l31 220h-152l5 37h152l29 211h-152l5 37h152l31 220h38l-31 -220h203l31 220h38l-31 -220h152zM229 257h203l29 211h-203z" />
    <glyph glyph-name="dollar" unicode="$" horiz-adv-x="527" 
d="M300 -8v-85h-35v81q-10 -1 -31 -1q-62 0 -114 13t-86 33v48q42 -28 88 -42.5t111 -14.5q22 0 32 1v329l-44 17q-170 67 -170 192q0 53 30 92t79 60t105 23v80h35v-81q93 -4 161 -39v-46q-71 45 -161 49v-318q79 -32 121 -61t58.5 -63t16.5 -82q0 -72 -52.5 -122
t-143.5 -63zM265 397v305q-85 -3 -129 -41t-44 -96q0 -54 37 -92t112 -67zM300 29q71 11 112 47.5t41 98.5q0 56 -35 92.5t-118 72.5v-311z" />
    <glyph glyph-name="percent" unicode="%" horiz-adv-x="871" 
d="M32 521q0 99 40 155t118 56t118 -56t40 -155t-40 -155t-118 -56t-118 56t-40 155zM308 521q0 89 -31.5 134t-86.5 45t-86.5 -45t-31.5 -134t31.5 -134t86.5 -45t86.5 45t31.5 134zM523 204q0 99 40 155t118 56t118 -56t40 -155t-40 -155t-118 -56t-118 56t-40 155z
M799 204q0 89 -31.5 134t-86.5 45t-86.5 -45t-31.5 -134t31.5 -134t86.5 -45t86.5 45t31.5 134zM709 725l-502 -725h-44l502 725h44z" />
    <glyph glyph-name="ampersand" unicode="&#x26;" horiz-adv-x="666" 
d="M669 0h-53l-120 131q-52 -72 -109 -108t-131 -36q-64 0 -113.5 25.5t-77 72t-27.5 106.5q0 154 194 227q-53 58 -74 92.5t-21 76.5q0 67 46.5 109t121.5 42q41 0 76.5 -18.5t57 -52t21.5 -77.5q0 -116 -163 -183l195 -214q55 104 69 196h40q-20 -111 -83 -224zM179 587
q0 -27 11.5 -51t29 -44.5t53.5 -58.5q148 61 148 156q0 46 -33.5 80t-82.5 34q-55 0 -90.5 -30.5t-35.5 -85.5zM471 158l-210 229l-4 5q-177 -65 -177 -201q0 -50 23 -88t63.5 -59t90.5 -21q124 0 214 135z" />
    <glyph glyph-name="quotesingle" unicode="'" horiz-adv-x="157" 
d="M68 485l-12 240h45l-12 -240h-21z" />
    <glyph glyph-name="parenleft" unicode="(" horiz-adv-x="243" 
d="M171 755h34q-52 -92 -85 -216.5t-33 -258.5q0 -133 33 -258t85 -217h-34q-50 78 -86.5 210.5t-36.5 264.5q0 133 36.5 264.5t86.5 210.5z" />
    <glyph glyph-name="parenright" unicode=")" horiz-adv-x="243" 
d="M72 -195h-34q52 92 85 217t33 258q0 134 -33 258.5t-85 216.5h34q50 -79 86.5 -210.5t36.5 -264.5q0 -132 -36.5 -264.5t-86.5 -210.5z" />
    <glyph glyph-name="asterisk" unicode="*" horiz-adv-x="405" 
d="M185 725h34v-127l129 42l10 -32l-128 -42l78 -108l-26 -20l-80 108l-78 -108l-28 19l78 108l-127 44l10 33l128 -44v127z" />
    <glyph glyph-name="plus" unicode="+" 
d="M359 250v-250h-40v250h-250v38h250v250h40v-250h250v-38h-250z" />
    <glyph glyph-name="comma" unicode="," horiz-adv-x="163" 
d="M62 104h39v-104q0 -52 -4.5 -81.5t-20 -48.5t-48.5 -23v39q15 5 22 15t9.5 31.5t2.5 66.5v105z" />
    <glyph glyph-name="hyphen" unicode="-" horiz-adv-x="358" 
d="M319 293v-42h-280v42h280z" />
    <glyph glyph-name="period" unicode="." horiz-adv-x="159" 
d="M99 104v-104h-39v104h39z" />
    <glyph glyph-name="slash" unicode="/" horiz-adv-x="387" 
d="M359 755l-290 -755h-40l291 755h39z" />
    <glyph glyph-name="zero" unicode="0" horiz-adv-x="668" 
d="M55 363q0 173 70.5 274t209.5 101q138 0 208 -101.5t70 -273.5q0 -173 -70 -274.5t-208 -101.5q-139 0 -209.5 101.5t-70.5 274.5zM571 363q0 165 -63 252.5t-173 87.5q-111 0 -174.5 -87.5t-63.5 -252.5q0 -166 63.5 -253t174.5 -87q110 0 173 87t63 253z" />
    <glyph glyph-name="one" unicode="1" horiz-adv-x="475" 
d="M275 38h186v-38h-428v38h203v555h-165v29q71 0 104.5 7.5t48 28.5t22.5 67h29v-687z" />
    <glyph glyph-name="two" unicode="2" horiz-adv-x="535" 
d="M474 543q0 -112 -97 -232.5t-305 -272.5h426v-38h-479v39q217 162 315 279.5t98 222.5q0 53 -24.5 89t-63 54t-79.5 18q-55 0 -101 -15.5t-96 -45.5v40q41 25 92 41t105 16q59 0 106.5 -22.5t75 -66.5t27.5 -106z" />
    <glyph glyph-name="three" unicode="3" horiz-adv-x="545" 
d="M449 194q0 87 -60 128t-167 41h-11v34h7q107 0 160 42t53 116q0 66 -50 106.5t-132 40.5q-61 0 -103 -15t-94 -47v40q42 27 90 42.5t108 15.5q99 0 161 -48.5t62 -131.5q0 -70 -41.5 -116.5t-104.5 -59.5q74 -11 119 -57.5t45 -128.5q0 -67 -33.5 -114t-90.5 -71
t-127 -24q-113 0 -203 54v42q51 -30 96.5 -45t106.5 -15q92 0 150.5 45.5t58.5 125.5z" />
    <glyph glyph-name="four" unicode="4" horiz-adv-x="627" 
d="M459 238h148v-38h-148v-200h-40v200h-402v35l404 490h38v-487zM419 238v432l-354 -432h354z" />
    <glyph glyph-name="five" unicode="5" horiz-adv-x="553" 
d="M466 223q0 64 -30 109t-79 67t-104 22q-51 0 -96.5 -10.5t-89.5 -33.5l38 348h383v-38h-350l-28 -256q27 12 67.5 19t75.5 7q66 0 124.5 -26t94.5 -79t36 -129t-38 -129.5t-98 -80t-127 -26.5q-62 0 -109.5 14.5t-89.5 39.5v42q52 -31 95 -45.5t104 -14.5
q56 0 106.5 22.5t82.5 68t32 109.5z" />
    <glyph glyph-name="six" unicode="6" horiz-adv-x="608" 
d="M95 324q21 71 80 114.5t146 43.5q71 0 126.5 -31.5t86.5 -88.5t31 -131q0 -68 -31 -123.5t-87.5 -88t-131.5 -32.5q-119 0 -189.5 82.5t-70.5 259.5q0 130 43.5 222.5t116 139.5t159.5 47q75 0 152 -35v-41q-74 41 -150 41q-73 0 -137.5 -38.5t-104.5 -123.5t-39 -217z
M315 23q60 0 107.5 26.5t74.5 73.5t27 106q0 99 -57 157.5t-151 58.5q-64 0 -111.5 -28t-72.5 -75t-25 -103q0 -68 28 -116.5t75.5 -74t104.5 -25.5z" />
    <glyph glyph-name="seven" unicode="7" horiz-adv-x="515" 
d="M12 687v38h493v-37q-155 -117 -244 -289.5t-99 -398.5h-45q17 235 103.5 403.5t234.5 283.5h-443z" />
    <glyph glyph-name="eight" unicode="8" horiz-adv-x="621" 
d="M546 558q0 -60 -36.5 -106t-95.5 -62q67 -21 110.5 -67t43.5 -125q0 -66 -33 -113.5t-91.5 -72.5t-133.5 -25q-74 0 -132.5 25t-92 72.5t-33.5 113.5q0 79 44 125t111 67q-60 16 -96 62t-36 106q0 53 29 93.5t82 63.5t124 23t124.5 -23t82.5 -63.5t29 -93.5zM310 703
q-89 0 -142 -40t-53 -109q0 -65 51 -107t144 -42t144 42t51 107q0 69 -52.5 109t-142.5 40zM94 198q0 -82 58.5 -128.5t157.5 -46.5t158 46.5t59 128.5q0 81 -59 127.5t-158 46.5t-157.5 -46t-58.5 -128z" />
    <glyph glyph-name="nine" unicode="9" horiz-adv-x="607" 
d="M512 401q-21 -71 -80 -114.5t-146 -43.5q-71 0 -126.5 31.5t-86.5 88.5t-31 131q0 68 31 123.5t87.5 88t131.5 32.5q119 0 189.5 -82.5t70.5 -259.5q0 -130 -43.5 -222.5t-116 -139.5t-159.5 -47q-75 0 -152 35v41q74 -41 150 -41q73 0 137.5 38.5t104.5 123.5t39 217z
M292 702q-60 0 -107.5 -26.5t-74.5 -73.5t-27 -106q0 -99 57 -157.5t151 -58.5q64 0 111.5 28t72.5 75t25 103q0 68 -28 116.5t-75.5 74t-104.5 25.5z" />
    <glyph glyph-name="colon" unicode=":" horiz-adv-x="171" 
d="M105 538v-104h-39v104h39zM105 104v-104h-39v104h39z" />
    <glyph glyph-name="semicolon" unicode=";" horiz-adv-x="188" 
d="M78 434v104h39v-104h-39zM115 104v-104q0 -33 -1.5 -59.5t-9 -46.5t-22 -32t-40.5 -15v39q11 3 18 9.5t10.5 19t4.5 32.5t1 52v105h39z" />
    <glyph glyph-name="less" unicode="&#x3c;" 
d="M82 250v37l509 241v-41l-464 -219l464 -216v-43z" />
    <glyph glyph-name="equal" unicode="=" 
d="M609 421v-38h-540v38h540zM609 155v-38h-540v38h540z" />
    <glyph glyph-name="greater" unicode="&#x3e;" 
d="M87 528l509 -241v-37l-509 -241v43l464 216l-464 219v41z" />
    <glyph glyph-name="question" unicode="?" horiz-adv-x="427" 
d="M12 647v40q38 24 85.5 37.5t96.5 13.5q90 0 149.5 -45t59.5 -127q0 -63 -34 -108.5t-92 -87.5q-35 -24 -54 -44t-29 -47t-10 -68v-37h-39v37q0 47 11 78.5t33.5 55.5t64.5 54q51 37 79 74.5t28 90.5q0 65 -45.5 101.5t-123.5 36.5q-49 0 -91 -13.5t-89 -41.5zM184 104
v-104h-39v104h39z" />
    <glyph glyph-name="at" unicode="@" horiz-adv-x="829" 
d="M528 284q-23 -52 -66.5 -83t-102.5 -31q-60 0 -98.5 42t-38.5 122q0 63 27 117.5t74 87t105 32.5q55 0 86.5 -31t38.5 -69l12 81h34l-38 -235q-2 -16 -2 -25q0 -41 20 -68t57 -27q34 0 62 24t44.5 70.5t16.5 111.5q0 89 -41 155t-113.5 101t-164.5 35q-104 0 -185 -46.5
t-126 -126t-45 -175.5q0 -94 39.5 -167.5t112 -115t169.5 -41.5q110 0 203 41l13 -34q-94 -42 -216 -42q-107 0 -188.5 46.5t-126 128.5t-44.5 186q0 107 50.5 193.5t140.5 136t204 49.5q105 0 185.5 -40t125.5 -113t45 -169q0 -76 -23 -131t-61 -83.5t-81 -28.5
q-51 0 -78 35.5t-26 86.5zM261 335q0 -66 29.5 -99t78.5 -33q47 0 85 29t59.5 76.5t21.5 101.5q0 62 -27.5 94.5t-81.5 32.5q-45 0 -83 -27.5t-60 -74t-22 -100.5z" />
    <glyph glyph-name="A" unicode="A" horiz-adv-x="633" 
d="M619 0h-44l-88 230h-341l-88 -230h-43l280 725h43zM316 676l-156 -408h312z" />
    <glyph glyph-name="B" unicode="B" horiz-adv-x="619" 
d="M94 0v725h208q111 0 174.5 -40.5t63.5 -138.5q0 -63 -25 -103t-86 -62q70 -15 106 -57.5t36 -120.5q0 -104 -65.5 -153.5t-177.5 -49.5h-234zM135 688v-293h182q86 0 133 35t47 113q0 77 -49.5 111t-139.5 34h-173zM135 358v-320h192q99 0 149.5 42t50.5 122
q0 82 -50 119t-156 37h-186z" />
    <glyph glyph-name="C" unicode="C" horiz-adv-x="616" 
d="M411 26q99 0 177 33v-41q-84 -31 -177 -31q-102 0 -184.5 47t-130 132t-47.5 197q0 111 47.5 196.5t131 132t187.5 46.5q99 0 172 -30v-41q-33 15 -78 23.5t-95 8.5q-90 0 -163 -40t-115.5 -116.5t-42.5 -181.5t42.5 -180.5t115 -115t160.5 -39.5z" />
    <glyph glyph-name="D" unicode="D" horiz-adv-x="709" 
d="M263 725q188 0 291 -82.5t103 -279.5q0 -198 -103 -280.5t-291 -82.5h-169v725h169zM259 687h-124v-649h124q103 0 179.5 24.5t125.5 96t49 204.5t-49 204.5t-125.5 95.5t-179.5 24z" />
    <glyph glyph-name="E" unicode="E" horiz-adv-x="553" 
d="M508 0h-414v725h414v-38h-373v-292h348v-38h-348v-319h373v-38z" />
    <glyph glyph-name="F" unicode="F" horiz-adv-x="517" 
d="M135 0h-41v725h399v-38h-358v-292h333v-38h-333v-357z" />
    <glyph glyph-name="G" unicode="G" horiz-adv-x="693" 
d="M635 26q-57 -18 -107.5 -28.5t-111.5 -10.5q-104 0 -187.5 46.5t-131.5 132t-48 197.5q0 111 50 196t135 132t188 47q57 0 106 -9t85 -24v-41q-35 16 -85.5 25.5t-110.5 9.5q-87 0 -161 -40t-118.5 -116.5t-44.5 -181.5t43 -180.5t117 -115t165 -39.5q53 0 93.5 7
t83.5 20v273h-208v38h248v-338z" />
    <glyph glyph-name="H" unicode="H" horiz-adv-x="711" 
d="M576 395v330h41v-725h-41v357h-441v-357h-41v725h41v-330h441z" />
    <glyph glyph-name="I" unicode="I" horiz-adv-x="387" 
d="M354 38v-38h-321v38h140v649h-140v38h321v-38h-140v-649h140z" />
    <glyph glyph-name="J" unicode="J" horiz-adv-x="290" 
d="M31 -7l3 40q19 -7 51 -7q28 0 50.5 15t22.5 55v591h-116v38h157v-625q0 -61 -32 -87t-83 -26q-29 0 -53 6z" />
    <glyph glyph-name="K" unicode="K" horiz-adv-x="600" 
d="M94 725h41v-359l393 359h53l-403 -366l429 -359h-63l-409 344v-344h-41v725z" />
    <glyph glyph-name="L" unicode="L" horiz-adv-x="508" 
d="M94 725h41v-687h351v-38h-392v725z" />
    <glyph glyph-name="M" unicode="M" horiz-adv-x="814" 
d="M679 685l-252 -455h-40l-252 455v-685h-41v725h64l249 -449l249 449h64v-725h-41v685z" />
    <glyph glyph-name="N" unicode="N" horiz-adv-x="738" 
d="M644 725v-725h-55l-454 674v-674h-41v725h55l454 -674v674h41z" />
    <glyph glyph-name="O" unicode="O" horiz-adv-x="761" 
d="M380 -13q-101 0 -175.5 48t-114.5 133t-40 195t40 195t114.5 132.5t175.5 47.5q100 0 175 -46.5t115.5 -131.5t40.5 -197t-40.5 -197t-115.5 -132t-175 -47zM380 26q83 0 148 40t102 116t37 181t-37 181t-102 115.5t-148 39.5q-82 0 -147 -39.5t-102 -115.5t-37 -181
t37 -181t102 -116t147 -40z" />
    <glyph glyph-name="P" unicode="P" horiz-adv-x="591" 
d="M268 725q141 0 216.5 -46t75.5 -163t-75 -162t-217 -45h-133v-309h-41v725h174zM135 687v-340h137q77 0 129.5 13t84 50.5t31.5 105.5q0 100 -63.5 135.5t-181.5 35.5h-137z" />
    <glyph glyph-name="Q" unicode="Q" horiz-adv-x="762" 
d="M609 77l100 -110l-28 -27l-101 111q-84 -64 -200 -64q-101 0 -175.5 48t-114.5 133t-40 195t40 195t114.5 132.5t175.5 47.5q100 0 175 -46.5t115.5 -131.5t40.5 -197q0 -89 -26.5 -162.5t-75.5 -123.5zM551 82l-118 130l28 27l119 -131q42 45 64.5 109.5t22.5 145.5
q0 105 -37 181t-102 115.5t-148 39.5q-82 0 -147 -39.5t-102 -115.5t-37 -181t37 -181t102 -116t147 -40q100 0 171 56z" />
    <glyph glyph-name="R" unicode="R" horiz-adv-x="601" 
d="M94 0v725h176q124 0 199.5 -40.5t75.5 -147.5q0 -88 -55.5 -134.5t-149.5 -54.5l241 -348h-50l-239 345h-157v-345h-41zM135 687v-304h133q104 0 168.5 31t64.5 121q0 91 -64 121.5t-169 30.5h-133z" />
    <glyph glyph-name="S" unicode="S" horiz-adv-x="544" 
d="M42 33v51q42 -28 88 -42.5t111 -14.5q100 0 160 36.5t60 111.5q0 42 -19.5 71.5t-59 54t-108.5 51.5l-46 18q-170 67 -170 193q0 54 32 94t84 60.5t109 20.5q108 0 186 -40v-48q-78 49 -186 49q-90 0 -136.5 -37.5t-46.5 -96.5q0 -54 37 -92t112 -67l46 -18
q85 -33 130 -63t62.5 -64.5t17.5 -83.5q0 -56 -31.5 -99t-89.5 -67t-134 -24q-66 0 -120 12.5t-88 33.5z" />
    <glyph glyph-name="T" unicode="T" horiz-adv-x="552" 
d="M296 0h-41v687h-233v38h508v-38h-234v-687z" />
    <glyph glyph-name="U" unicode="U" horiz-adv-x="726" 
d="M86 725h41v-438q0 -134 55 -197.5t181 -63.5t181 63.5t55 197.5v438h41v-431q0 -110 -28.5 -177t-89.5 -98.5t-159 -31.5t-159 31.5t-89.5 98.5t-28.5 177v431z" />
    <glyph glyph-name="V" unicode="V" horiz-adv-x="621" 
d="M289 0l-274 725h45l252 -670l250 670h44l-274 -725h-43z" />
    <glyph glyph-name="W" unicode="W" horiz-adv-x="937" 
d="M445 725h46l187 -666l194 666h45l-219 -725h-43l-187 659l-186 -659h-43l-220 725h45l197 -666z" />
    <glyph glyph-name="X" unicode="X" horiz-adv-x="619" 
d="M51 0h-49l282 376l-260 349h50l236 -315l236 315h50l-262 -348l282 -377h-51l-256 343z" />
    <glyph glyph-name="Y" unicode="Y" horiz-adv-x="601" 
d="M279 275l-259 450h46l234 -407l238 407h47l-265 -451v-274h-41v275z" />
    <glyph glyph-name="Z" unicode="Z" horiz-adv-x="577" 
d="M52 725h496v-37l-486 -650h499v-38h-547v38l485 649h-447v38z" />
    <glyph glyph-name="bracketleft" unicode="[" horiz-adv-x="266" 
d="M93 -195v950h143v-36h-104v-878h104v-36h-143z" />
    <glyph glyph-name="backslash" unicode="\" horiz-adv-x="386" 
d="M27 755h40l290 -755h-39z" />
    <glyph glyph-name="bracketright" unicode="]" horiz-adv-x="256" 
d="M20 719v36h143v-950h-143v36h104v878h-104z" />
    <glyph glyph-name="asciicircum" unicode="^" 
d="M319 725h42l206 -387h-44l-184 340l-184 -340h-43z" />
    <glyph glyph-name="underscore" unicode="_" horiz-adv-x="434" 
d="M423 -61v-37h-410v37h410z" />
    <glyph glyph-name="grave" unicode="`" horiz-adv-x="213" 
d="M191 639h-39l-130 116h58z" />
    <glyph glyph-name="a" unicode="a" horiz-adv-x="517" 
d="M403 335q0 75 -23 113.5t-56.5 50.5t-77.5 12q-48 0 -93 -15.5t-73 -34.5v39q29 18 76 32.5t92 14.5q90 0 141 -44t51 -154l-1 -164q0 -110 8 -185h-39l-5 105q-25 -58 -76.5 -88t-120.5 -30q-45 0 -85 18t-64.5 53t-24.5 82q0 87 96.5 131.5t274.5 63.5zM403 238v63
q-163 -17 -246 -54t-83 -107q0 -54 41 -85.5t98 -31.5q79 0 134.5 51t55.5 164z" />
    <glyph glyph-name="b" unicode="b" horiz-adv-x="590" 
d="M84 755h39v-336q25 60 76 94t118 34q64 0 116 -33.5t82 -96.5t30 -150t-30 -150.5t-82 -96.5t-116 -33q-67 0 -118 34t-76 94v-115h-39v755zM312 23q54 0 97.5 28.5t69 83.5t25.5 132t-25.5 132t-69 83.5t-97.5 28.5q-50 0 -94 -25.5t-71.5 -80.5t-27.5 -138t27.5 -138
t71.5 -80.5t94 -25.5z" />
    <glyph glyph-name="c" unicode="c" horiz-adv-x="461" 
d="M295 23q85 0 131 28v-38q-49 -26 -131 -26q-70 0 -127.5 35t-90.5 98.5t-33 146.5t33.5 146.5t92 98.5t130.5 35q75 0 126 -24v-37q-23 12 -56.5 18.5t-70.5 6.5q-59 0 -107.5 -28t-77.5 -83.5t-29 -133.5q0 -77 29 -132t76.5 -83t104.5 -28z" />
    <glyph glyph-name="d" unicode="d" horiz-adv-x="590" 
d="M467 755h39v-755h-39v115q-25 -60 -76 -94t-118 -34q-64 0 -116 33t-82 96.5t-30 150.5t30 150t82 96.5t116 33.5q67 0 118 -34t76 -94v336zM278 511q-54 0 -97.5 -28.5t-69 -83.5t-25.5 -132t25.5 -132t69 -83.5t97.5 -28.5q50 0 94 25.5t71.5 80.5t27.5 138t-27.5 138
t-71.5 80.5t-94 25.5z" />
    <glyph glyph-name="e" unicode="e" horiz-adv-x="529" 
d="M84 264q3 -76 32.5 -130.5t79 -82.5t110.5 -28q47 0 86 10t63 26v-39q-28 -15 -66 -24t-83 -9q-75 0 -135 35.5t-93.5 100t-33.5 148.5q0 82 30 145t82 97t117 34q70 0 120 -36t76 -100t25 -147h-410zM84 298h368q-4 94 -50 154t-129 60q-49 0 -91 -25.5t-68.5 -74
t-29.5 -114.5z" />
    <glyph glyph-name="f" unicode="f" horiz-adv-x="256" 
d="M97 645q0 62 28 87.5t77 25.5q29 0 53 -6v-36q-24 7 -51 7q-35 0 -51.5 -15.5t-16.5 -58.5v-111h111v-34h-111v-504h-39v504h-79v34h79v107z" />
    <glyph glyph-name="g" unicode="g" horiz-adv-x="590" 
d="M507 25q0 -121 -66 -176t-167 -55q-42 0 -84.5 8t-70.5 20v40q28 -13 70 -22.5t85 -9.5q83 0 138.5 41.5t55.5 147.5v117q-25 -60 -76 -93.5t-118 -33.5q-64 0 -116 32.5t-82 93.5t-30 143q0 81 30 142t82 94t116 33q67 0 118 -34t76 -93v118h39v-513zM279 511
q-53 0 -97 -28t-69.5 -81t-25.5 -124q0 -72 25.5 -125t69 -81t97.5 -28q49 0 93 25t72 78t28 131t-28 130.5t-72 77.5t-93 25z" />
    <glyph glyph-name="h" unicode="h" horiz-adv-x="569" 
d="M123 414q20 56 66.5 94.5t123.5 38.5q180 0 180 -202v-345h-39v332q0 86 -33 132.5t-116 46.5q-85 0 -133.5 -67t-48.5 -180v-264h-39v755h39v-341z" />
    <glyph glyph-name="i" unicode="i" horiz-adv-x="207" 
d="M84 659v96h39v-96h-39zM84 0v538h39v-538h-39z" />
    <glyph glyph-name="j" unicode="j" horiz-adv-x="230" 
d="M107 659v96h39v-96h-39zM-12 -200v36q25 -7 51 -7q35 0 51.5 15.5t16.5 58.5v601h-96v34h135v-631q0 -62 -28 -87.5t-77 -25.5q-29 0 -53 6z" />
    <glyph glyph-name="k" unicode="k" horiz-adv-x="482" 
d="M84 0v755h39v-478l283 261h50l-289 -265l322 -273h-58l-308 260v-260h-39z" />
    <glyph glyph-name="l" unicode="l" horiz-adv-x="207" 
d="M84 755h39v-755h-39v755z" />
    <glyph glyph-name="m" unicode="m" horiz-adv-x="915" 
d="M123 0h-39v538h39v-124q20 56 64.5 94.5t119.5 38.5t116 -35t53 -102q54 137 189 137q91 0 132.5 -52t41.5 -150v-345h-39v332q0 86 -31 132.5t-112 46.5q-82 0 -129 -67t-47 -180v-264h-39v332q0 86 -31 132.5t-112 46.5q-82 0 -129 -67t-47 -180v-264z" />
    <glyph glyph-name="n" unicode="n" horiz-adv-x="569" 
d="M123 414q20 56 66.5 94.5t123.5 38.5q180 0 180 -202v-345h-39v332q0 86 -33 132.5t-116 46.5q-85 0 -133.5 -67t-48.5 -180v-264h-39v538h39v-124z" />
    <glyph glyph-name="o" unicode="o" horiz-adv-x="570" 
d="M285 547q68 0 122.5 -31.5t86 -94.5t31.5 -154q0 -92 -31.5 -155t-86 -94t-122.5 -31t-122.5 31t-86 94t-31.5 155q0 91 31.5 154t86 94.5t122.5 31.5zM285 23q90 0 144.5 62.5t54.5 181.5q0 118 -54.5 181t-144.5 63t-144.5 -63t-54.5 -181q0 -119 54.5 -181.5
t144.5 -62.5z" />
    <glyph glyph-name="p" unicode="p" horiz-adv-x="590" 
d="M84 538h39v-119q25 60 76 94t118 34q64 0 116 -33.5t82 -96.5t30 -150t-30 -150.5t-82 -96.5t-116 -33q-67 0 -118 34t-76 94v-310h-39v733zM312 23q54 0 97.5 28.5t69 83.5t25.5 132t-25.5 132t-69 83.5t-97.5 28.5q-50 0 -94 -25.5t-71.5 -80.5t-27.5 -138t27.5 -138
t71.5 -80.5t94 -25.5z" />
    <glyph glyph-name="q" unicode="q" horiz-adv-x="589" 
d="M506 538v-733h-39v310q-25 -60 -76 -94t-118 -34q-64 0 -116 33t-82 96.5t-30 150.5t30 150t82 96.5t116 33.5q67 0 118 -34t76 -94v119h39zM278 511q-54 0 -97.5 -28.5t-69 -83.5t-25.5 -132t25.5 -132t69 -83.5t97.5 -28.5q50 0 94 25.5t71.5 80.5t27.5 138t-27.5 138
t-71.5 80.5t-94 25.5z" />
    <glyph glyph-name="r" unicode="r" horiz-adv-x="312" 
d="M298 498q-8 2 -21 2q-87 0 -121 -65t-34 -188v-247h-38v538h36v-116q17 53 59 86t102 33q9 0 17 -2v-41z" />
    <glyph glyph-name="s" unicode="s" horiz-adv-x="428" 
d="M38 21v46q32 -21 67 -32t85 -11q75 0 118 26t43 77q0 31 -13 52t-41.5 37.5t-81.5 38.5l-35 14q-58 24 -94 60t-36 87q0 41 24.5 70.5t64.5 45t84 15.5q80 0 142 -30v-43q-61 36 -143 36q-66 0 -99 -27t-33 -65q0 -36 26 -64t81 -50l35 -14q64 -25 98.5 -48.5t48 -50
t13.5 -63.5q0 -63 -54.5 -102t-146.5 -39q-47 0 -87 9.5t-66 24.5z" />
    <glyph glyph-name="t" unicode="t" horiz-adv-x="277" 
d="M104 538v127h39v-127h111v-34h-111v-408q0 -41 21 -57.5t47 -16.5q29 0 48 7l3 -36q-24 -6 -53 -6q-49 0 -77 25.5t-28 87.5v404h-95v34h95z" />
    <glyph glyph-name="u" unicode="u" horiz-adv-x="557" 
d="M434 120q-20 -56 -64 -94.5t-119 -38.5q-175 0 -175 202v349h39v-336q0 -85 32 -132t112 -47q82 0 128.5 67t46.5 180v268h39v-538h-39v120z" />
    <glyph glyph-name="v" unicode="v" horiz-adv-x="492" 
d="M15 538h44l188 -486l185 486h44l-210 -538h-39z" />
    <glyph glyph-name="w" unicode="w" horiz-adv-x="746" 
d="M220 0h-37l-166 538h44l142 -479l149 479h41l151 -480l140 480h44l-165 -538h-38l-154 483z" />
    <glyph glyph-name="x" unicode="x" horiz-adv-x="476" 
d="M409 538h46l-194 -260l208 -278h-48l-184 246l-183 -246h-46l206 277l-194 261h47l171 -230z" />
    <glyph glyph-name="y" unicode="y" horiz-adv-x="491" 
d="M476 538l-287 -733h-38l77 196l-213 537h44l188 -485l185 485h44z" />
    <glyph glyph-name="z" unicode="z" horiz-adv-x="448" 
d="M425 0h-404v33l353 471h-330v34h375v-33l-353 -471h359v-34z" />
    <glyph glyph-name="braceleft" unicode="{" horiz-adv-x="266" 
d="M217 -195q-49 0 -73.5 11t-34 36.5t-9.5 72.5v217q0 55 -14.5 86t-55.5 34v37q41 3 55.5 34t14.5 86v216q0 47 9.5 72.5t34 36.5t73.5 11h19v-35h-10q-40 0 -58 -7t-23.5 -25t-5.5 -58v-212q0 -66 -16.5 -96.5t-51.5 -39.5v-3q36 -10 52 -40t16 -96v-214q0 -39 5.5 -57
t23.5 -25t58 -7h10v-35h-19z" />
    <glyph glyph-name="bar" unicode="|" horiz-adv-x="225" 
d="M93 -90v845h39v-845h-39z" />
    <glyph glyph-name="braceright" unicode="}" horiz-adv-x="266" 
d="M30 -195v35h10q40 0 58 7t23.5 25t5.5 57v214q0 66 16 96t52 40v3q-35 9 -51.5 39.5t-16.5 96.5v212q0 40 -5.5 58t-23.5 25t-58 7h-10v35h19q49 0 73.5 -11t34 -36.5t9.5 -72.5v-216q0 -55 14.5 -86t55.5 -34v-37q-41 -3 -55.5 -34t-14.5 -86v-217q0 -47 -9.5 -72.5
t-34 -36.5t-73.5 -11h-19z" />
    <glyph glyph-name="asciitilde" unicode="~" 
d="M600 328q-7 -56 -43 -84.5t-92 -28.5q-31 0 -60 9.5t-72 29.5q-40 19 -67 28t-54 9q-39 0 -64 -19t-30 -57h-40q7 56 43 84.5t92 28.5q31 0 60 -9.5t72 -29.5q40 -19 67 -28t54 -9q39 0 64 19t30 57h40z" />
    <glyph glyph-name="uni00A0" unicode="&#xa0;" horiz-adv-x="236" 
 />
    <glyph glyph-name="exclamdown" unicode="&#xa1;" horiz-adv-x="210" 
d="M125 538v-104h-39v104h39zM126 26v-201h-41v201l8 328h24z" />
    <glyph glyph-name="cent" unicode="&#xa2;" horiz-adv-x="488" 
d="M309 511v-488q83 0 129 28v-38q-49 -26 -129 -26v-80h-35v82q-62 8 -111.5 44.5t-78 97t-28.5 136.5t28 136t77.5 96t112.5 45v83h35v-80h3q75 0 126 -24v-37q-23 12 -56.5 18.5t-70.5 6.5h-2zM274 508q-78 -13 -127.5 -75.5t-49.5 -166.5t50 -166.5t127 -73.5v482z" />
    <glyph glyph-name="sterling" unicode="&#xa3;" horiz-adv-x="572" 
d="M542 38v-38h-509v29q160 81 160 211q0 44 -21 95h-125v37h108l-12 25q-23 45 -34.5 79t-11.5 73q0 64 34.5 106.5t88 62.5t110.5 20t107.5 -13.5t87.5 -34.5v-39q-37 23 -89 37t-107 14q-44 0 -87.5 -14.5t-73 -48.5t-29.5 -89q0 -36 11 -67t35 -79l16 -32h227v-37h-211
q18 -52 18 -95q0 -123 -116 -202h423z" />
    <glyph glyph-name="currency" unicode="&#xa4;" horiz-adv-x="618" 
d="M123 497l-67 68l28 28l67 -67q32 28 72 43.5t84 15.5q45 0 86 -16t73 -44l69 68l28 -28l-69 -70q52 -67 52 -149q0 -41 -14 -79t-39 -69l70 -71l-28 -28l-70 70q-32 -28 -73 -43.5t-85 -15.5q-43 0 -83 15t-72 42l-68 -68l-28 28l68 69q-54 65 -54 150q0 42 14 81t39 70z
M307 146q57 0 102.5 27t71.5 73t26 100q0 56 -26 103t-71.5 74.5t-102.5 27.5q-56 0 -100.5 -27.5t-70 -74.5t-25.5 -103q0 -54 25.5 -100t70 -73t100.5 -27z" />
    <glyph glyph-name="yen" unicode="&#xa5;" horiz-adv-x="611" 
d="M503 138v-37h-181v-101h-39v101h-174v37h174v82h-174v37h174v8l-259 460h44l235 -422l239 422h45l-265 -461v-7h181v-37h-181v-82h181z" />
    <glyph glyph-name="brokenbar" unicode="&#xa6;" horiz-adv-x="225" 
d="M93 430v325h39v-325h-39zM93 -90v325h39v-325h-39z" />
    <glyph glyph-name="section" unicode="&#xa7;" horiz-adv-x="578" 
d="M436 -39q0 38 -28.5 70.5t-102.5 71.5l-124 66q-71 37 -106.5 77.5t-35.5 97.5q0 51 35.5 92t88.5 66q-32 24 -47.5 51.5t-15.5 61.5q0 58 53 90.5t126 32.5q108 0 186 -40v-44q-78 49 -188 49q-61 0 -99 -23.5t-38 -62.5q0 -35 24 -61.5t79 -56.5l150 -79
q72 -37 108 -76.5t36 -94.5t-35 -97.5t-90 -70.5q31 -26 48 -54t17 -61q0 -70 -53 -110t-134 -40q-62 0 -114 13t-86 33v51q43 -29 90 -44.5t111 -15.5q65 0 105 27.5t40 80.5zM218 469l-20 11q-51 -23 -85 -57t-34 -77q0 -33 13 -57t44 -47t90 -53q129 -67 155 -84
q116 55 116 137q0 45 -30.5 78.5t-98.5 69.5q-120 64 -150 79z" />
    <glyph glyph-name="dieresis" unicode="&#xa8;" horiz-adv-x="302" 
d="M61 659h-39v96h39v-96zM240 659v96h40v-96h-40z" />
    <glyph glyph-name="copyright" unicode="&#xa9;" horiz-adv-x="858" 
d="M429 738q103 0 188 -48t135 -134t50 -196q0 -108 -50 -193.5t-135 -132.5t-188 -47t-188.5 47t-135 132t-49.5 194q0 110 49.5 196t135 134t188.5 48zM429 23q94 0 170.5 43t120 119.5t43.5 174.5q0 100 -43.5 177.5t-120 121t-170.5 43.5t-170 -43.5t-120 -121
t-44 -177.5q0 -98 44 -174.5t120 -119.5t170 -43zM442 568q56 0 99 -19v-36q-41 18 -101 18q-69 0 -114 -44t-45 -124t45 -124t114 -44q60 0 101 18v-36q-43 -19 -99 -19q-57 0 -103 25.5t-72 72t-26 107.5t26 107.5t72 72t103 25.5z" />
    <glyph glyph-name="ordfeminine" unicode="&#xaa;" horiz-adv-x="387" 
d="M269 624q-1 51 -22.5 65.5t-62.5 14.5q-24 0 -48 -7.5t-41 -16.5v35q18 9 45 16t54 7q52 0 82 -26t30 -92l-1 -84q0 -52 5 -105h-37l-3 59q-14 -33 -41.5 -50t-64.5 -17q-43 0 -72.5 23t-29.5 63q0 49 53 75t154 40zM270 575v20q-80 -10 -124 -29.5t-44 -54.5
q0 -27 20.5 -41.5t48.5 -14.5q41 0 70 29t29 91zM321 350v-37h-252v37h252z" />
    <glyph glyph-name="guillemotleft" unicode="&#xab;" horiz-adv-x="473" 
d="M243 47h-41l-158 225l157 225h42l-154 -224zM428 47h-41l-158 225l157 225h42l-154 -224z" />
    <glyph glyph-name="logicalnot" unicode="&#xac;" 
d="M569 0v250h-500v38h540v-288h-40z" />
    <glyph glyph-name="uni00AD" unicode="&#xad;" horiz-adv-x="358" 
d="M319 293v-42h-280v42h280z" />
    <glyph glyph-name="registered" unicode="&#xae;" horiz-adv-x="526" 
d="M263 736q57 0 105 -27t76 -75t28 -110q0 -61 -28 -108.5t-76 -74t-105 -26.5q-58 0 -105.5 26.5t-75.5 74t-28 108.5q0 62 28 110t75.5 75t105.5 27zM263 347q50 0 90 22.5t63 63t23 91.5q0 52 -23 93t-63 64t-90 23t-90 -23t-63 -64t-23 -93q0 -51 23 -91.5t63 -63
t90 -22.5zM215 515v-95h-28v222h65q44 0 68.5 -13.5t24.5 -48.5q0 -26 -13.5 -41.5t-38.5 -19.5l65 -99h-32l-63 95h-48zM256 618h-41v-79h45q56 0 56 39q0 40 -60 40z" />
    <glyph glyph-name="macron" unicode="&#xaf;" horiz-adv-x="305" 
d="M283 714v-34h-261v34h261z" />
    <glyph glyph-name="degree" unicode="&#xb0;" horiz-adv-x="363" 
d="M181 738q60 0 100.5 -41t40.5 -101t-40.5 -101t-100.5 -41q-39 0 -71 19t-50.5 51.5t-18.5 71.5t18.5 71.5t50.5 51.5t71 19zM181 490q45 0 72.5 30t27.5 76t-28 76.5t-72 30.5t-71.5 -30.5t-27.5 -76.5t27.5 -76t71.5 -30z" />
    <glyph glyph-name="plusminus" unicode="&#xb1;" 
d="M68 335h251v203h40v-203h250v-37h-250v-203h-40v203h-251v37zM609 37v-37h-541v37h541z" />
    <glyph glyph-name="uni00B2" unicode="&#xb2;" horiz-adv-x="332" 
d="M291 743q0 -41 -22.5 -79.5t-66.5 -80.5t-126 -109h219v-36h-271v37q84 64 131.5 108t71.5 82t24 76q0 41 -26 59.5t-64 18.5q-30 0 -55.5 -9t-55.5 -27v38q52 32 113 32q57 0 92.5 -29t35.5 -81z" />
    <glyph glyph-name="uni00B3" unicode="&#xb3;" horiz-adv-x="339" 
d="M260 552q0 42 -33.5 63t-90.5 21h-7v33h5q57 0 86.5 21.5t29.5 55.5q0 31 -27.5 51.5t-71.5 20.5q-32 0 -56.5 -9t-52.5 -26v39q51 31 110 31q62 0 99.5 -28.5t37.5 -73.5q0 -37 -24.5 -63t-59.5 -34q41 -7 67.5 -33.5t26.5 -69.5q0 -53 -42 -85.5t-109 -32.5t-115 29v39
q29 -17 54.5 -25.5t58.5 -8.5q50 0 82 23.5t32 61.5z" />
    <glyph glyph-name="acute" unicode="&#xb4;" horiz-adv-x="213" 
d="M133 755h58l-130 -116h-39z" />
    <glyph glyph-name="paragraph" unicode="&#xb6;" horiz-adv-x="602" 
d="M276 725h225v-920h-39v884h-129v-884h-39v513h-43q-102 0 -162.5 53.5t-60.5 147.5q0 97 66 151.5t182 54.5z" />
    <glyph glyph-name="periodcentered" unicode="&#xb7;" horiz-adv-x="171" 
d="M105 321v-104h-39v104h39z" />
    <glyph glyph-name="cedilla" unicode="&#xb8;" horiz-adv-x="209" 
d="M32 -150q28 -11 55 -11t45 10t18 32q0 20 -14.5 29.5t-36.5 9.5q-25 0 -43 -9l-14 14l48 76h30l-33 -56q13 3 28 3q32 0 52 -17t20 -47q0 -37 -28.5 -55.5t-67.5 -18.5q-37 0 -69 11z" />
    <glyph glyph-name="uni00B9" unicode="&#xb9;" horiz-adv-x="295" 
d="M176 474h103v-36h-250v36h109v290h-94v26q38 0 57 3.5t30 15.5t19 37h26v-372z" />
    <glyph glyph-name="ordmasculine" unicode="&#xba;" horiz-adv-x="406" 
d="M65 580q0 78 39.5 118t99.5 40q59 0 98.5 -40t39.5 -118t-39.5 -117.5t-98.5 -39.5q-60 0 -99.5 39.5t-39.5 117.5zM302 580q0 61 -27 92.5t-71 31.5q-45 0 -72 -31t-27 -93q0 -61 27 -92t72 -31q44 0 71 31t27 92zM330 350v-37h-254v37h254z" />
    <glyph glyph-name="guillemotright" unicode="&#xbb;" horiz-adv-x="473" 
d="M86 497l158 -225l-159 -225h-40l154 226l-154 224h41zM271 497l158 -225l-159 -225h-40l154 226l-154 224h41z" />
    <glyph glyph-name="onequarter" unicode="&#xbc;" horiz-adv-x="697" 
d="M151 317h-38v326h-92v26q37 0 56 4t30 15.5t18 36.5h26v-408zM575 725l-502 -725h-44l502 725h44zM595 143h79v-36h-79v-106h-38v106h-218v33l219 269h37v-266zM557 143v214l-173 -214h173z" />
    <glyph glyph-name="onehalf" unicode="&#xbd;" horiz-adv-x="713" 
d="M151 317h-38v326h-92v26q37 0 56 4t30 15.5t18 36.5h26v-408zM575 725l-502 -725h-44l502 725h44zM672 306q0 -41 -22.5 -79.5t-66.5 -80.5t-126 -109h219v-36h-271v37q84 64 131.5 108t71.5 82t24 76q0 41 -26 59.5t-64 18.5q-30 0 -55.5 -9t-55.5 -27v38q52 32 113 32
q57 0 92.5 -29t35.5 -81z" />
    <glyph glyph-name="threequarters" unicode="&#xbe;" horiz-adv-x="791" 
d="M260 431q0 42 -33.5 63t-90.5 21h-7v33h5q57 0 86.5 21.5t29.5 55.5q0 31 -27.5 51.5t-71.5 20.5q-32 0 -56.5 -9t-52.5 -26v39q51 31 110 31q62 0 99.5 -28.5t37.5 -73.5q0 -37 -24.5 -63t-59.5 -34q41 -7 67.5 -33.5t26.5 -69.5q0 -53 -42 -85.5t-109 -32.5t-115 29v39
q29 -17 54.5 -25.5t58.5 -8.5q50 0 82 23.5t32 61.5zM669 725l-502 -725h-44l502 725h44zM689 143h79v-36h-79v-106h-38v106h-218v33l219 269h37v-266zM651 143v214l-173 -214h173z" />
    <glyph glyph-name="questiondown" unicode="&#xbf;" horiz-adv-x="448" 
d="M291 538v-104h-39v104h39zM424 -109v-40q-38 -24 -85.5 -37.5t-96.5 -13.5q-90 0 -149.5 45t-59.5 127q0 63 34 108.5t92 87.5q35 24 54 44t29 47t10 68v37h39v-37q0 -47 -11 -78.5t-33.5 -55.5t-64.5 -54q-51 -37 -79 -74.5t-28 -90.5q0 -65 45.5 -101.5t123.5 -36.5
q49 0 91 13.5t89 41.5z" />
    <glyph glyph-name="Agrave" unicode="&#xc0;" horiz-adv-x="633" 
d="M619 0h-44l-88 230h-341l-88 -230h-43l280 725h43zM316 676l-156 -408h312zM328 773h-43l-144 113h63z" />
    <glyph glyph-name="Aacute" unicode="&#xc1;" horiz-adv-x="633" 
d="M619 0h-44l-88 230h-341l-88 -230h-43l280 725h43zM316 676l-156 -408h312zM421 886h63l-144 -113h-43z" />
    <glyph glyph-name="Acircumflex" unicode="&#xc2;" horiz-adv-x="633" 
d="M619 0h-44l-88 230h-341l-88 -230h-43l280 725h43zM316 676l-156 -408h312zM294 886h49l137 -113h-47l-116 83l-115 -83h-47z" />
    <glyph glyph-name="Atilde" unicode="&#xc3;" horiz-adv-x="633" 
d="M619 0h-44l-88 230h-341l-88 -230h-43l280 725h43zM316 676l-156 -408h312zM440 876h34q-8 -45 -30.5 -69.5t-58.5 -24.5q-20 0 -38 8t-41 24q-22 14 -37 21t-31 7q-22 0 -35.5 -15t-19.5 -45h-34q7 45 31 69.5t58 24.5q22 0 39.5 -8t43.5 -24q22 -13 35 -19.5t28 -6.5
q44 0 56 58z" />
    <glyph glyph-name="Adieresis" unicode="&#xc4;" horiz-adv-x="633" 
d="M619 0h-44l-88 230h-341l-88 -230h-43l280 725h43zM316 676l-156 -408h312zM188 781v96h41v-96h-41zM404 781v96h42v-96h-42z" />
    <glyph glyph-name="Aring" unicode="&#xc5;" horiz-adv-x="633" 
d="M619 0h-44l-88 230h-341l-88 -230h-43l280 725h43zM316 676l-156 -408h312zM404 850q0 -35 -25 -58t-61 -23t-61.5 23t-25.5 58q0 36 25 59t62 23t61.5 -23t24.5 -59zM263 850q0 -24 16 -38t39 -14q22 0 38 14t16 38t-16 39t-38 15q-23 0 -39 -14.5t-16 -39.5z" />
    <glyph glyph-name="AE" unicode="&#xc6;" horiz-adv-x="890" 
d="M845 725v-38h-373v-292h348v-38h-348v-319h373v-38h-414v224h-263l-137 -224h-45l445 725h414zM431 656l-240 -394h240v394z" />
    <glyph glyph-name="Ccedilla" unicode="&#xc7;" horiz-adv-x="616" 
d="M411 26q99 0 177 33v-41q-84 -31 -177 -31q-102 0 -184.5 47t-130 132t-47.5 197q0 111 47.5 196.5t131 132t187.5 46.5q99 0 172 -30v-41q-33 15 -78 23.5t-95 8.5q-90 0 -163 -40t-115.5 -116.5t-42.5 -181.5t42.5 -180.5t115 -115t160.5 -39.5zM309 -150
q28 -11 55 -11t45 10t18 32q0 20 -14.5 29.5t-36.5 9.5q-25 0 -43 -9l-14 14l48 76h30l-33 -56q13 3 28 3q32 0 52 -17t20 -47q0 -37 -28.5 -55.5t-67.5 -18.5q-37 0 -69 11z" />
    <glyph glyph-name="Egrave" unicode="&#xc8;" horiz-adv-x="553" 
d="M508 0h-414v725h414v-38h-373v-292h348v-38h-348v-319h373v-38zM358 773h-43l-144 113h63z" />
    <glyph glyph-name="Eacute" unicode="&#xc9;" horiz-adv-x="553" 
d="M508 0h-414v725h414v-38h-373v-292h348v-38h-348v-319h373v-38zM386 886h63l-144 -113h-43z" />
    <glyph glyph-name="Ecircumflex" unicode="&#xca;" horiz-adv-x="553" 
d="M508 0h-414v725h414v-38h-373v-292h348v-38h-348v-319h373v-38zM279 886h49l137 -113h-47l-116 83l-115 -83h-47z" />
    <glyph glyph-name="Edieresis" unicode="&#xcb;" horiz-adv-x="553" 
d="M508 0h-414v725h414v-38h-373v-292h348v-38h-348v-319h373v-38zM178 781v96h41v-96h-41zM394 781v96h42v-96h-42z" />
    <glyph glyph-name="Igrave" unicode="&#xcc;" horiz-adv-x="387" 
d="M354 38v-38h-321v38h140v649h-140v38h321v-38h-140v-649h140zM237 773h-43l-144 113h63z" />
    <glyph glyph-name="Iacute" unicode="&#xcd;" horiz-adv-x="387" 
d="M354 38v-38h-321v38h140v649h-140v38h321v-38h-140v-649h140zM276 886h63l-144 -113h-43z" />
    <glyph glyph-name="Icircumflex" unicode="&#xce;" horiz-adv-x="387" 
d="M170 886h49l137 -113h-47l-116 83l-115 -83h-47zM354 38v-38h-321v38h140v649h-140v38h321v-38h-140v-649h140z" />
    <glyph glyph-name="Idieresis" unicode="&#xcf;" horiz-adv-x="387" 
d="M65 781v96h41v-96h-41zM281 781v96h42v-96h-42zM354 38v-38h-321v38h140v649h-140v38h321v-38h-140v-649h140z" />
    <glyph glyph-name="Eth" unicode="&#xd0;" horiz-adv-x="722" 
d="M276 725q188 0 291 -82.5t103 -279.5q0 -198 -103 -280.5t-291 -82.5h-169v352h-92v38h92v335h169zM272 687h-124v-297h209v-38h-209v-314h124q103 0 179.5 24.5t125.5 96t49 204.5q0 132 -49 203.5t-125.5 96t-179.5 24.5z" />
    <glyph glyph-name="Ntilde" unicode="&#xd1;" horiz-adv-x="738" 
d="M644 725v-725h-55l-454 674v-674h-41v725h55l454 -674v674h41zM518 876h34q-8 -45 -30.5 -69.5t-58.5 -24.5q-20 0 -38 8t-41 24q-22 14 -37 21t-31 7q-22 0 -35.5 -15t-19.5 -45h-34q7 45 31 69.5t58 24.5q22 0 39.5 -8t43.5 -24q22 -13 35 -19.5t28 -6.5q44 0 56 58z
" />
    <glyph glyph-name="Ograve" unicode="&#xd2;" horiz-adv-x="761" 
d="M380 -13q-101 0 -175.5 48t-114.5 133t-40 195t40 195t114.5 132.5t175.5 47.5q100 0 175 -46.5t115.5 -131.5t40.5 -197t-40.5 -197t-115.5 -132t-175 -47zM380 26q83 0 148 40t102 116t37 181t-37 181t-102 115.5t-148 39.5q-82 0 -147 -39.5t-102 -115.5t-37 -181
t37 -181t102 -116t147 -40zM401 773h-43l-144 113h63z" />
    <glyph glyph-name="Oacute" unicode="&#xd3;" horiz-adv-x="761" 
d="M380 -13q-101 0 -175.5 48t-114.5 133t-40 195t40 195t114.5 132.5t175.5 47.5q100 0 175 -46.5t115.5 -131.5t40.5 -197t-40.5 -197t-115.5 -132t-175 -47zM380 26q83 0 148 40t102 116t37 181t-37 181t-102 115.5t-148 39.5q-82 0 -147 -39.5t-102 -115.5t-37 -181
t37 -181t102 -116t147 -40zM482 886h63l-144 -113h-43z" />
    <glyph glyph-name="Ocircumflex" unicode="&#xd4;" horiz-adv-x="761" 
d="M380 -13q-101 0 -175.5 48t-114.5 133t-40 195t40 195t114.5 132.5t175.5 47.5q100 0 175 -46.5t115.5 -131.5t40.5 -197t-40.5 -197t-115.5 -132t-175 -47zM380 26q83 0 148 40t102 116t37 181t-37 181t-102 115.5t-148 39.5q-82 0 -147 -39.5t-102 -115.5t-37 -181
t37 -181t102 -116t147 -40zM357 886h49l137 -113h-47l-116 83l-115 -83h-47z" />
    <glyph glyph-name="Otilde" unicode="&#xd5;" horiz-adv-x="761" 
d="M380 -13q-101 0 -175.5 48t-114.5 133t-40 195t40 195t114.5 132.5t175.5 47.5q100 0 175 -46.5t115.5 -131.5t40.5 -197t-40.5 -197t-115.5 -132t-175 -47zM380 26q83 0 148 40t102 116t37 181t-37 181t-102 115.5t-148 39.5q-82 0 -147 -39.5t-102 -115.5t-37 -181
t37 -181t102 -116t147 -40zM509 876h34q-8 -45 -30.5 -69.5t-58.5 -24.5q-20 0 -38 8t-41 24q-22 14 -37 21t-31 7q-22 0 -35.5 -15t-19.5 -45h-34q7 45 31 69.5t58 24.5q22 0 39.5 -8t43.5 -24q22 -13 35 -19.5t28 -6.5q44 0 56 58z" />
    <glyph glyph-name="Odieresis" unicode="&#xd6;" horiz-adv-x="761" 
d="M380 -13q-101 0 -175.5 48t-114.5 133t-40 195t40 195t114.5 132.5t175.5 47.5q100 0 175 -46.5t115.5 -131.5t40.5 -197t-40.5 -197t-115.5 -132t-175 -47zM380 26q83 0 148 40t102 116t37 181t-37 181t-102 115.5t-148 39.5q-82 0 -147 -39.5t-102 -115.5t-37 -181
t37 -181t102 -116t147 -40zM251 781v96h41v-96h-41zM467 781v96h42v-96h-42z" />
    <glyph glyph-name="multiply" unicode="&#xd7;" 
d="M367 269l201 -200l-28 -28l-201 200l-200 -200l-28 28l200 200l-200 201l28 28l200 -201l201 201l28 -28z" />
    <glyph glyph-name="Oslash" unicode="&#xd8;" horiz-adv-x="768" 
d="M631 629q41 -50 62.5 -117.5t21.5 -148.5q0 -112 -40.5 -197t-115.5 -132t-175 -47q-133 0 -221 83l-71 -85l-28 25l74 88q-41 50 -62.5 117.5t-21.5 147.5q0 110 40 195t114.5 132.5t175.5 47.5q134 0 221 -82l70 84l28 -25zM166 131l412 493q-38 37 -87.5 56t-106.5 19
q-82 0 -147 -39.5t-102 -115.5t-37 -181q0 -142 68 -232zM671 363q0 143 -68 232l-413 -492q38 -38 87.5 -57.5t106.5 -19.5q83 0 148 40t102 116t37 181z" />
    <glyph glyph-name="Ugrave" unicode="&#xd9;" horiz-adv-x="726" 
d="M86 725h41v-438q0 -134 55 -197.5t181 -63.5t181 63.5t55 197.5v438h41v-431q0 -110 -28.5 -177t-89.5 -98.5t-159 -31.5t-159 31.5t-89.5 98.5t-28.5 177v431zM414 773h-43l-144 113h63z" />
    <glyph glyph-name="Uacute" unicode="&#xda;" horiz-adv-x="726" 
d="M86 725h41v-438q0 -134 55 -197.5t181 -63.5t181 63.5t55 197.5v438h41v-431q0 -110 -28.5 -177t-89.5 -98.5t-159 -31.5t-159 31.5t-89.5 98.5t-28.5 177v431zM445 886h63l-144 -113h-43z" />
    <glyph glyph-name="Ucircumflex" unicode="&#xdb;" horiz-adv-x="726" 
d="M86 725h41v-438q0 -134 55 -197.5t181 -63.5t181 63.5t55 197.5v438h41v-431q0 -110 -28.5 -177t-89.5 -98.5t-159 -31.5t-159 31.5t-89.5 98.5t-28.5 177v431zM340 886h49l137 -113h-47l-116 83l-115 -83h-47z" />
    <glyph glyph-name="Udieresis" unicode="&#xdc;" horiz-adv-x="726" 
d="M86 725h41v-438q0 -134 55 -197.5t181 -63.5t181 63.5t55 197.5v438h41v-431q0 -110 -28.5 -177t-89.5 -98.5t-159 -31.5t-159 31.5t-89.5 98.5t-28.5 177v431zM234 781v96h41v-96h-41zM450 781v96h42v-96h-42z" />
    <glyph glyph-name="Yacute" unicode="&#xdd;" horiz-adv-x="601" 
d="M279 275l-259 450h46l234 -407l238 407h47l-265 -451v-274h-41v275zM393 886h63l-144 -113h-43z" />
    <glyph glyph-name="Thorn" unicode="&#xde;" horiz-adv-x="618" 
d="M282 581q141 0 216.5 -46t75.5 -163t-75 -162t-217 -45h-147v-165h-41v725h41v-144h147zM135 543v-340h151q77 0 129.5 13t84 50.5t31.5 105.5q0 100 -63.5 135.5t-181.5 35.5h-151z" />
    <glyph glyph-name="germandbls" unicode="&#xdf;" horiz-adv-x="624" 
d="M123 0h-39v516q0 65 12 106.5t36 69.5q57 67 184 67q94 0 152.5 -46.5t58.5 -123.5q0 -64 -32.5 -108t-86.5 -60q45 -6 84.5 -31.5t64.5 -70.5t25 -105q0 -77 -35 -128t-93.5 -75t-130.5 -24q-52 0 -99 9l7 40q46 -10 96 -10q91 0 152 45.5t61 140.5q0 61 -29.5 103
t-78.5 63t-109 21h-31v38h31q75 0 119 41t44 106q0 63 -46.5 101.5t-123.5 38.5q-51 0 -88.5 -12t-61.5 -40q-22 -24 -32.5 -62.5t-10.5 -101.5v-508z" />
    <glyph glyph-name="agrave" unicode="&#xe0;" horiz-adv-x="517" 
d="M403 335q0 75 -23 113.5t-56.5 50.5t-77.5 12q-48 0 -93 -15.5t-73 -34.5v39q29 18 76 32.5t92 14.5q90 0 141 -44t51 -154l-1 -164q0 -110 8 -185h-39l-5 105q-25 -58 -76.5 -88t-120.5 -30q-45 0 -85 18t-64.5 53t-24.5 82q0 87 96.5 131.5t274.5 63.5zM403 238v63
q-163 -17 -246 -54t-83 -107q0 -54 41 -85.5t98 -31.5q79 0 134.5 51t55.5 164zM290 639h-39l-130 116h58z" />
    <glyph glyph-name="aacute" unicode="&#xe1;" horiz-adv-x="517" 
d="M403 335q0 75 -23 113.5t-56.5 50.5t-77.5 12q-48 0 -93 -15.5t-73 -34.5v39q29 18 76 32.5t92 14.5q90 0 141 -44t51 -154l-1 -164q0 -110 8 -185h-39l-5 105q-25 -58 -76.5 -88t-120.5 -30q-45 0 -85 18t-64.5 53t-24.5 82q0 87 96.5 131.5t274.5 63.5zM403 238v63
q-163 -17 -246 -54t-83 -107q0 -54 41 -85.5t98 -31.5q79 0 134.5 51t55.5 164zM341 755h58l-130 -116h-39z" />
    <glyph glyph-name="acircumflex" unicode="&#xe2;" horiz-adv-x="517" 
d="M403 335q0 75 -23 113.5t-56.5 50.5t-77.5 12q-48 0 -93 -15.5t-73 -34.5v39q29 18 76 32.5t92 14.5q90 0 141 -44t51 -154l-1 -164q0 -110 8 -185h-39l-5 105q-25 -58 -76.5 -88t-120.5 -30q-45 0 -85 18t-64.5 53t-24.5 82q0 87 96.5 131.5t274.5 63.5zM403 238v63
q-163 -17 -246 -54t-83 -107q0 -54 41 -85.5t98 -31.5q79 0 134.5 51t55.5 164zM232 755h38l137 -116h-39l-117 82l-118 -82h-39z" />
    <glyph glyph-name="atilde" unicode="&#xe3;" horiz-adv-x="517" 
d="M403 335q0 75 -23 113.5t-56.5 50.5t-77.5 12q-48 0 -93 -15.5t-73 -34.5v39q29 18 76 32.5t92 14.5q90 0 141 -44t51 -154l-1 -164q0 -110 8 -185h-39l-5 105q-25 -58 -76.5 -88t-120.5 -30q-45 0 -85 18t-64.5 53t-24.5 82q0 87 96.5 131.5t274.5 63.5zM403 238v63
q-163 -17 -246 -54t-83 -107q0 -54 41 -85.5t98 -31.5q79 0 134.5 51t55.5 164zM380 748h35q-8 -45 -31 -69.5t-58 -24.5q-21 0 -39 8t-41 24q-23 14 -37.5 20.5t-29.5 6.5q-23 0 -36 -14.5t-18 -44.5h-36q7 44 31 69t58 25q22 0 40.5 -8t43.5 -24q19 -13 33.5 -19.5
t28.5 -6.5q45 0 56 58z" />
    <glyph glyph-name="adieresis" unicode="&#xe4;" horiz-adv-x="517" 
d="M403 335q0 75 -23 113.5t-56.5 50.5t-77.5 12q-48 0 -93 -15.5t-73 -34.5v39q29 18 76 32.5t92 14.5q90 0 141 -44t51 -154l-1 -164q0 -110 8 -185h-39l-5 105q-25 -58 -76.5 -88t-120.5 -30q-45 0 -85 18t-64.5 53t-24.5 82q0 87 96.5 131.5t274.5 63.5zM403 238v63
q-163 -17 -246 -54t-83 -107q0 -54 41 -85.5t98 -31.5q79 0 134.5 51t55.5 164zM161 659h-39v96h39v-96zM340 659v96h40v-96h-40z" />
    <glyph glyph-name="aring" unicode="&#xe5;" horiz-adv-x="517" 
d="M403 335q0 75 -23 113.5t-56.5 50.5t-77.5 12q-48 0 -93 -15.5t-73 -34.5v39q29 18 76 32.5t92 14.5q90 0 141 -44t51 -154l-1 -164q0 -110 8 -185h-39l-5 105q-25 -58 -76.5 -88t-120.5 -30q-45 0 -85 18t-64.5 53t-24.5 82q0 87 96.5 131.5t274.5 63.5zM403 238v63
q-163 -17 -246 -54t-83 -107q0 -54 41 -85.5t98 -31.5q79 0 134.5 51t55.5 164zM348 708q0 -36 -24.5 -59t-61.5 -23t-62 23t-25 59q0 35 25.5 58.5t61.5 23.5t61 -23.5t25 -58.5zM206 708q0 -24 16.5 -39.5t39.5 -15.5q22 0 38.5 15.5t16.5 39.5t-16.5 39.5t-38.5 15.5
q-23 0 -39.5 -15.5t-16.5 -39.5z" />
    <glyph glyph-name="ae" unicode="&#xe6;" horiz-adv-x="885" 
d="M80 461v39q29 18 76 32.5t92 14.5q75 0 123 -30t62 -102q29 63 80 97.5t116 34.5q70 0 120 -36t76 -100t25 -147h-410q3 -76 32.5 -130.5t79 -82.5t110.5 -28q47 0 86 10t63 26v-39q-28 -15 -66 -24t-83 -9q-84 0 -146 43.5t-91 120.5q-25 -89 -84.5 -126.5t-134.5 -37.5
q-45 0 -85 18t-64.5 53t-24.5 82q0 87 96.5 131.5t274.5 63.5q0 75 -23 113.5t-56.5 50.5t-77.5 12q-48 0 -93 -15.5t-73 -34.5zM440 299h368q-4 93 -50 153t-129 60q-49 0 -91 -25.5t-68.5 -74t-29.5 -113.5zM403 238v63q-163 -17 -246 -54t-83 -107q0 -54 41 -85.5
t98 -31.5q79 0 134.5 51t55.5 164z" />
    <glyph glyph-name="ccedilla" unicode="&#xe7;" horiz-adv-x="461" 
d="M295 23q85 0 131 28v-38q-49 -26 -131 -26q-70 0 -127.5 35t-90.5 98.5t-33 146.5t33.5 146.5t92 98.5t130.5 35q75 0 126 -24v-37q-23 12 -56.5 18.5t-70.5 6.5q-59 0 -107.5 -28t-77.5 -83.5t-29 -133.5q0 -77 29 -132t76.5 -83t104.5 -28zM209 -150q28 -11 55 -11
t45 10t18 32q0 20 -14.5 29.5t-36.5 9.5q-25 0 -43 -9l-14 14l48 76h30l-33 -56q13 3 28 3q32 0 52 -17t20 -47q0 -37 -28.5 -55.5t-67.5 -18.5q-37 0 -69 11z" />
    <glyph glyph-name="egrave" unicode="&#xe8;" horiz-adv-x="529" 
d="M84 264q3 -76 32.5 -130.5t79 -82.5t110.5 -28q47 0 86 10t63 26v-39q-28 -15 -66 -24t-83 -9q-75 0 -135 35.5t-93.5 100t-33.5 148.5q0 82 30 145t82 97t117 34q70 0 120 -36t76 -100t25 -147h-410zM84 298h368q-4 94 -50 154t-129 60q-49 0 -91 -25.5t-68.5 -74
t-29.5 -114.5zM315 639h-39l-130 116h58z" />
    <glyph glyph-name="eacute" unicode="&#xe9;" horiz-adv-x="529" 
d="M84 264q3 -76 32.5 -130.5t79 -82.5t110.5 -28q47 0 86 10t63 26v-39q-28 -15 -66 -24t-83 -9q-75 0 -135 35.5t-93.5 100t-33.5 148.5q0 82 30 145t82 97t117 34q70 0 120 -36t76 -100t25 -147h-410zM84 298h368q-4 94 -50 154t-129 60q-49 0 -91 -25.5t-68.5 -74
t-29.5 -114.5zM373 755h58l-130 -116h-39z" />
    <glyph glyph-name="ecircumflex" unicode="&#xea;" horiz-adv-x="529" 
d="M84 264q3 -76 32.5 -130.5t79 -82.5t110.5 -28q47 0 86 10t63 26v-39q-28 -15 -66 -24t-83 -9q-75 0 -135 35.5t-93.5 100t-33.5 148.5q0 82 30 145t82 97t117 34q70 0 120 -36t76 -100t25 -147h-410zM84 298h368q-4 94 -50 154t-129 60q-49 0 -91 -25.5t-68.5 -74
t-29.5 -114.5zM254 755h38l137 -116h-39l-117 82l-118 -82h-39z" />
    <glyph glyph-name="edieresis" unicode="&#xeb;" horiz-adv-x="529" 
d="M84 264q3 -76 32.5 -130.5t79 -82.5t110.5 -28q47 0 86 10t63 26v-39q-28 -15 -66 -24t-83 -9q-75 0 -135 35.5t-93.5 100t-33.5 148.5q0 82 30 145t82 97t117 34q70 0 120 -36t76 -100t25 -147h-410zM84 298h368q-4 94 -50 154t-129 60q-49 0 -91 -25.5t-68.5 -74
t-29.5 -114.5zM177 659h-39v96h39v-96zM356 659v96h40v-96h-40z" />
    <glyph glyph-name="igrave" unicode="&#xec;" horiz-adv-x="207" 
d="M84 0v538h39v-538h-39zM124 639h-39l-130 116h58z" />
    <glyph glyph-name="iacute" unicode="&#xed;" horiz-adv-x="207" 
d="M84 0v538h39v-538h-39zM194 755h58l-130 -116h-39z" />
    <glyph glyph-name="icircumflex" unicode="&#xee;" horiz-adv-x="207" 
d="M85 755h38l107 -116h-39l-87 82l-88 -82h-39zM84 0v538h39v-538h-39z" />
    <glyph glyph-name="idieresis" unicode="&#xef;" horiz-adv-x="207" 
d="M84 0v538h39v-538h-39zM14 659h-39v96h39v-96zM193 659v96h40v-96h-40z" />
    <glyph glyph-name="eth" unicode="&#xf0;" horiz-adv-x="555" 
d="M332 662q175 -134 175 -373q0 -101 -30.5 -168.5t-83.5 -100.5t-120 -33q-66 0 -118 33t-81 95.5t-29 147.5q0 83 30 145t82 95t117 33q64 0 108.5 -29.5t68.5 -73.5l1 1q-39 124 -154 206l-103 -63l-16 25l92 57q-35 22 -88 47l18 32q61 -28 105 -57l93 57l16 -25z
M465 263q0 81 -26.5 134t-70 78t-94.5 25q-53 0 -96 -28t-67.5 -82t-24.5 -127q0 -75 24.5 -129t67 -82.5t95.5 -28.5q50 0 94 25.5t71 79.5t27 135z" />
    <glyph glyph-name="ntilde" unicode="&#xf1;" horiz-adv-x="569" 
d="M123 414q20 56 66.5 94.5t123.5 38.5q180 0 180 -202v-345h-39v332q0 86 -33 132.5t-116 46.5q-85 0 -133.5 -67t-48.5 -180v-264h-39v538h39v-124zM422 748h35q-8 -45 -31 -69.5t-58 -24.5q-21 0 -39 8t-41 24q-23 14 -37.5 20.5t-29.5 6.5q-23 0 -36 -14.5t-18 -44.5
h-36q7 44 31 69t58 25q22 0 40.5 -8t43.5 -24q19 -13 33.5 -19.5t28.5 -6.5q45 0 56 58z" />
    <glyph glyph-name="ograve" unicode="&#xf2;" horiz-adv-x="570" 
d="M285 547q68 0 122.5 -31.5t86 -94.5t31.5 -154q0 -92 -31.5 -155t-86 -94t-122.5 -31t-122.5 31t-86 94t-31.5 155q0 91 31.5 154t86 94.5t122.5 31.5zM285 23q90 0 144.5 62.5t54.5 181.5q0 118 -54.5 181t-144.5 63t-144.5 -63t-54.5 -181q0 -119 54.5 -181.5
t144.5 -62.5zM305 639h-39l-130 116h58z" />
    <glyph glyph-name="oacute" unicode="&#xf3;" horiz-adv-x="570" 
d="M285 547q68 0 122.5 -31.5t86 -94.5t31.5 -154q0 -92 -31.5 -155t-86 -94t-122.5 -31t-122.5 31t-86 94t-31.5 155q0 91 31.5 154t86 94.5t122.5 31.5zM285 23q90 0 144.5 62.5t54.5 181.5q0 118 -54.5 181t-144.5 63t-144.5 -63t-54.5 -181q0 -119 54.5 -181.5
t144.5 -62.5zM376 755h58l-130 -116h-39z" />
    <glyph glyph-name="ocircumflex" unicode="&#xf4;" horiz-adv-x="570" 
d="M285 547q68 0 122.5 -31.5t86 -94.5t31.5 -154q0 -92 -31.5 -155t-86 -94t-122.5 -31t-122.5 31t-86 94t-31.5 155q0 91 31.5 154t86 94.5t122.5 31.5zM285 23q90 0 144.5 62.5t54.5 181.5q0 118 -54.5 181t-144.5 63t-144.5 -63t-54.5 -181q0 -119 54.5 -181.5
t144.5 -62.5zM267 755h38l137 -116h-39l-117 82l-118 -82h-39z" />
    <glyph glyph-name="otilde" unicode="&#xf5;" horiz-adv-x="570" 
d="M285 547q68 0 122.5 -31.5t86 -94.5t31.5 -154q0 -92 -31.5 -155t-86 -94t-122.5 -31t-122.5 31t-86 94t-31.5 155q0 91 31.5 154t86 94.5t122.5 31.5zM285 23q90 0 144.5 62.5t54.5 181.5q0 118 -54.5 181t-144.5 63t-144.5 -63t-54.5 -181q0 -119 54.5 -181.5
t144.5 -62.5zM409 748h35q-8 -45 -31 -69.5t-58 -24.5q-21 0 -39 8t-41 24q-23 14 -37.5 20.5t-29.5 6.5q-23 0 -36 -14.5t-18 -44.5h-36q7 44 31 69t58 25q22 0 40.5 -8t43.5 -24q19 -13 33.5 -19.5t28.5 -6.5q45 0 56 58z" />
    <glyph glyph-name="odieresis" unicode="&#xf6;" horiz-adv-x="570" 
d="M285 547q68 0 122.5 -31.5t86 -94.5t31.5 -154q0 -92 -31.5 -155t-86 -94t-122.5 -31t-122.5 31t-86 94t-31.5 155q0 91 31.5 154t86 94.5t122.5 31.5zM285 23q90 0 144.5 62.5t54.5 181.5q0 118 -54.5 181t-144.5 63t-144.5 -63t-54.5 -181q0 -119 54.5 -181.5
t144.5 -62.5zM195 659h-39v96h39v-96zM374 659v96h40v-96h-40z" />
    <glyph glyph-name="divide" unicode="&#xf7;" 
d="M365 408h-50v93h50v-93zM609 288v-38h-540v38h540zM365 36h-50v94h50v-94z" />
    <glyph glyph-name="oslash" unicode="&#xf8;" horiz-adv-x="583" 
d="M476 460q56 -74 56 -193q0 -92 -31.5 -155t-86 -94t-122.5 -31q-47 0 -88.5 15t-72.5 45l-51 -60l-26 23l53 64q-55 73 -55 193q0 91 31.5 154t86 94.5t122.5 31.5q97 0 161 -61l51 61l26 -23zM133 105l295 352q-25 27 -60 40.5t-76 13.5q-90 0 -144.5 -63t-54.5 -181
q0 -100 40 -162zM491 267q0 99 -41 162l-295 -352q53 -54 137 -54q90 0 144.5 62.5t54.5 181.5z" />
    <glyph glyph-name="ugrave" unicode="&#xf9;" horiz-adv-x="557" 
d="M434 120q-20 -56 -64 -94.5t-119 -38.5q-175 0 -175 202v349h39v-336q0 -85 32 -132t112 -47q82 0 128.5 67t46.5 180v268h39v-538h-39v120zM315 639h-39l-130 116h58z" />
    <glyph glyph-name="uacute" unicode="&#xfa;" horiz-adv-x="557" 
d="M434 120q-20 -56 -64 -94.5t-119 -38.5q-175 0 -175 202v349h39v-336q0 -85 32 -132t112 -47q82 0 128.5 67t46.5 180v268h39v-538h-39v120zM366 755h58l-130 -116h-39z" />
    <glyph glyph-name="ucircumflex" unicode="&#xfb;" horiz-adv-x="557" 
d="M434 120q-20 -56 -64 -94.5t-119 -38.5q-175 0 -175 202v349h39v-336q0 -85 32 -132t112 -47q82 0 128.5 67t46.5 180v268h39v-538h-39v120zM257 755h38l137 -116h-39l-117 82l-118 -82h-39z" />
    <glyph glyph-name="udieresis" unicode="&#xfc;" horiz-adv-x="557" 
d="M434 120q-20 -56 -64 -94.5t-119 -38.5q-175 0 -175 202v349h39v-336q0 -85 32 -132t112 -47q82 0 128.5 67t46.5 180v268h39v-538h-39v120zM185 659h-39v96h39v-96zM364 659v96h40v-96h-40z" />
    <glyph glyph-name="yacute" unicode="&#xfd;" horiz-adv-x="491" 
d="M476 538l-287 -733h-38l77 196l-213 537h44l188 -485l185 485h44zM331 755h58l-130 -116h-39z" />
    <glyph glyph-name="thorn" unicode="&#xfe;" horiz-adv-x="590" 
d="M84 755h39v-336q25 60 76 94t118 34q64 0 116 -33.5t82 -96.5t30 -150t-30 -150.5t-82 -96.5t-116 -33q-67 0 -118 34t-76 94v-310h-39v950zM312 23q54 0 97.5 28.5t69 83.5t25.5 132t-25.5 132t-69 83.5t-97.5 28.5q-49 0 -93 -25.5t-71.5 -80.5t-27.5 -138t27.5 -138
t71.5 -80.5t93 -25.5z" />
    <glyph glyph-name="ydieresis" unicode="&#xff;" horiz-adv-x="491" 
d="M476 538l-287 -733h-38l77 196l-213 537h44l188 -485l185 485h44zM164 659h-39v96h39v-96zM343 659v96h40v-96h-40z" />
    <glyph glyph-name="Abreve" unicode="&#x102;" horiz-adv-x="633" 
d="M619 0h-44l-88 230h-341l-88 -230h-43l280 725h43zM316 676l-156 -408h312zM459 886q-4 -54 -42.5 -85.5t-100.5 -31.5q-60 0 -98.5 31.5t-42.5 85.5h37q5 -44 34 -64.5t71 -20.5t71 20.5t34 64.5h37z" />
    <glyph glyph-name="Amacron" unicode="&#x100;" horiz-adv-x="633" 
d="M619 0h-44l-88 230h-341l-88 -230h-43l280 725h43zM316 676l-156 -408h312zM452 851v-38h-271v38h271z" />
    <glyph glyph-name="Aogonek" unicode="&#x104;" horiz-adv-x="633" 
d="M587 -152q20 0 30 3v-34q-15 -5 -45 -5q-36 0 -63.5 23.5t-27.5 60.5q0 31 27.5 59t66.5 45l-88 230h-341l-88 -230h-43l280 725h43l281 -725q-41 -20 -67.5 -47.5t-26.5 -54.5q0 -22 17.5 -36t44.5 -14zM316 676l-156 -408h312z" />
    <glyph glyph-name="Cacute" unicode="&#x106;" horiz-adv-x="616" 
d="M411 26q99 0 177 33v-41q-84 -31 -177 -31q-102 0 -184.5 47t-130 132t-47.5 197q0 111 47.5 196.5t131 132t187.5 46.5q99 0 172 -30v-41q-33 15 -78 23.5t-95 8.5q-90 0 -163 -40t-115.5 -116.5t-42.5 -181.5t42.5 -180.5t115 -115t160.5 -39.5zM484 886h63l-144 -113
h-43z" />
    <glyph glyph-name="Ccaron" unicode="&#x10c;" horiz-adv-x="616" 
d="M411 26q99 0 177 33v-41q-84 -31 -177 -31q-102 0 -184.5 47t-130 132t-47.5 197q0 111 47.5 196.5t131 132t187.5 46.5q99 0 172 -30v-41q-33 15 -78 23.5t-95 8.5q-90 0 -163 -40t-115.5 -116.5t-42.5 -181.5t42.5 -180.5t115 -115t160.5 -39.5zM426 773h-48l-138 113
h47l115 -83l116 83h47z" />
    <glyph glyph-name="Ccircumflex" unicode="&#x108;" horiz-adv-x="616" 
d="M411 26q99 0 177 33v-41q-84 -31 -177 -31q-102 0 -184.5 47t-130 132t-47.5 197q0 111 47.5 196.5t131 132t187.5 46.5q99 0 172 -30v-41q-33 15 -78 23.5t-95 8.5q-90 0 -163 -40t-115.5 -116.5t-42.5 -181.5t42.5 -180.5t115 -115t160.5 -39.5zM359 886h49l137 -113
h-47l-116 83l-115 -83h-47z" />
    <glyph glyph-name="Cdotaccent" unicode="&#x10a;" horiz-adv-x="616" 
d="M411 26q99 0 177 33v-41q-84 -31 -177 -31q-102 0 -184.5 47t-130 132t-47.5 197q0 111 47.5 196.5t131 132t187.5 46.5q99 0 172 -30v-41q-33 15 -78 23.5t-95 8.5q-90 0 -163 -40t-115.5 -116.5t-42.5 -181.5t42.5 -180.5t115 -115t160.5 -39.5zM383 781v96h41v-96h-41
z" />
    <glyph glyph-name="Dcaron" unicode="&#x10e;" horiz-adv-x="709" 
d="M263 725q188 0 291 -82.5t103 -279.5q0 -198 -103 -280.5t-291 -82.5h-169v725h169zM259 687h-124v-649h124q103 0 179.5 24.5t125.5 96t49 204.5t-49 204.5t-125.5 95.5t-179.5 24zM364 773h-48l-138 113h47l115 -83l116 83h47z" />
    <glyph glyph-name="Dcroat" unicode="&#x110;" horiz-adv-x="722" 
d="M276 725q188 0 291 -82.5t103 -279.5q0 -198 -103 -280.5t-291 -82.5h-169v352h-92v38h92v335h169zM272 687h-124v-297h209v-38h-209v-314h124q103 0 179.5 24.5t125.5 96t49 204.5q0 132 -49 203.5t-125.5 96t-179.5 24.5z" />
    <glyph glyph-name="Ebreve" unicode="&#x114;" horiz-adv-x="553" 
d="M508 0h-414v725h414v-38h-373v-292h348v-38h-348v-319h373v-38zM451 886q-4 -54 -42.5 -85.5t-100.5 -31.5q-60 0 -98.5 31.5t-42.5 85.5h37q5 -44 34 -64.5t71 -20.5t71 20.5t34 64.5h37z" />
    <glyph glyph-name="Ecaron" unicode="&#x11a;" horiz-adv-x="553" 
d="M508 0h-414v725h414v-38h-373v-292h348v-38h-348v-319h373v-38zM330 773h-48l-138 113h47l115 -83l116 83h47z" />
    <glyph glyph-name="Emacron" unicode="&#x112;" horiz-adv-x="553" 
d="M508 0h-414v725h414v-38h-373v-292h348v-38h-348v-319h373v-38zM447 851v-38h-271v38h271z" />
    <glyph glyph-name="Eogonek" unicode="&#x118;" horiz-adv-x="553" 
d="M94 0v725h414v-38h-373v-292h348v-38h-348v-319h373v-38q-40 -20 -67 -47.5t-27 -54.5q0 -22 17.5 -36t44.5 -14q19 0 30 3v-34q-22 -5 -40 -5q-20 0 -42.5 11t-38 30t-15.5 43q0 32 31 63.5t66 40.5h-373z" />
    <glyph glyph-name="Edotaccent" unicode="&#x116;" horiz-adv-x="553" 
d="M508 0h-414v725h414v-38h-373v-292h348v-38h-348v-319h373v-38zM284 781v96h41v-96h-41z" />
    <glyph glyph-name="Gbreve" unicode="&#x11e;" horiz-adv-x="693" 
d="M635 26q-57 -18 -107.5 -28.5t-111.5 -10.5q-104 0 -187.5 46.5t-131.5 132t-48 197.5q0 111 50 196t135 132t188 47q57 0 106 -9t85 -24v-41q-35 16 -85.5 25.5t-110.5 9.5q-87 0 -161 -40t-118.5 -116.5t-44.5 -181.5t43 -180.5t117 -115t165 -39.5q53 0 93.5 7
t83.5 20v273h-208v38h248v-338zM544 886q-4 -54 -42.5 -85.5t-100.5 -31.5q-60 0 -98.5 31.5t-42.5 85.5h37q5 -44 34 -64.5t71 -20.5t71 20.5t34 64.5h37z" />
    <glyph glyph-name="Gcircumflex" unicode="&#x11c;" horiz-adv-x="693" 
d="M635 26q-57 -18 -107.5 -28.5t-111.5 -10.5q-104 0 -187.5 46.5t-131.5 132t-48 197.5q0 111 50 196t135 132t188 47q57 0 106 -9t85 -24v-41q-35 16 -85.5 25.5t-110.5 9.5q-87 0 -161 -40t-118.5 -116.5t-44.5 -181.5t43 -180.5t117 -115t165 -39.5q53 0 93.5 7
t83.5 20v273h-208v38h248v-338zM379 886h49l137 -113h-47l-116 83l-115 -83h-47z" />
    <glyph glyph-name="uni0122" unicode="&#x122;" horiz-adv-x="693" 
d="M635 26q-57 -18 -107.5 -28.5t-111.5 -10.5q-104 0 -187.5 46.5t-131.5 132t-48 197.5q0 111 50 196t135 132t188 47q57 0 106 -9t85 -24v-41q-35 16 -85.5 25.5t-110.5 9.5q-87 0 -161 -40t-118.5 -116.5t-44.5 -181.5t43 -180.5t117 -115t165 -39.5q53 0 93.5 7
t83.5 20v273h-208v38h248v-338zM380 -49h39v-11q0 -41 -4.5 -67.5t-20.5 -44t-48 -20.5v39q22 5 28 23.5t6 68.5v12z" />
    <glyph glyph-name="Gdotaccent" unicode="&#x120;" horiz-adv-x="693" 
d="M635 26q-57 -18 -107.5 -28.5t-111.5 -10.5q-104 0 -187.5 46.5t-131.5 132t-48 197.5q0 111 50 196t135 132t188 47q57 0 106 -9t85 -24v-41q-35 16 -85.5 25.5t-110.5 9.5q-87 0 -161 -40t-118.5 -116.5t-44.5 -181.5t43 -180.5t117 -115t165 -39.5q53 0 93.5 7
t83.5 20v273h-208v38h248v-338zM382 781v96h41v-96h-41z" />
    <glyph glyph-name="Hbar" unicode="&#x126;" horiz-adv-x="711" 
d="M576 567v158h41v-158h56v-38h-56v-529h-41v357h-441v-357h-41v529h-56v38h56v158h41v-158h441zM135 529v-134h441v134h-441z" />
    <glyph glyph-name="Hcircumflex" unicode="&#x124;" horiz-adv-x="711" 
d="M576 395v330h41v-725h-41v357h-441v-357h-41v725h41v-330h441zM332 886h49l137 -113h-47l-116 83l-115 -83h-47z" />
    <glyph glyph-name="Ibreve" unicode="&#x12c;" horiz-adv-x="387" 
d="M336 886q-4 -54 -42.5 -85.5t-100.5 -31.5q-60 0 -98.5 31.5t-42.5 85.5h37q5 -44 34 -64.5t71 -20.5t71 20.5t34 64.5h37zM354 38v-38h-321v38h140v649h-140v38h321v-38h-140v-649h140z" />
    <glyph glyph-name="Idotaccent" unicode="&#x130;" horiz-adv-x="387" 
d="M354 38v-38h-321v38h140v649h-140v38h321v-38h-140v-649h140zM173 781v96h41v-96h-41z" />
    <glyph glyph-name="Imacron" unicode="&#x12a;" horiz-adv-x="387" 
d="M329 851v-38h-271v38h271zM354 38v-38h-321v38h140v649h-140v38h321v-38h-140v-649h140z" />
    <glyph glyph-name="Iogonek" unicode="&#x12e;" horiz-adv-x="387" 
d="M33 0v38h140v649h-140v38h321v-38h-140v-649h140v-38h-118q-41 -21 -64 -44t-23 -53q0 -26 17 -40.5t45 -14.5q19 0 30 3v-34q-23 -5 -40 -5q-37 0 -65 22t-28 59q0 36 24.5 65t60.5 42h-160z" />
    <glyph glyph-name="Itilde" unicode="&#x128;" horiz-adv-x="387" 
d="M322 876h34q-8 -45 -30.5 -69.5t-58.5 -24.5q-20 0 -38 8t-41 24q-22 14 -37 21t-31 7q-22 0 -35.5 -15t-19.5 -45h-34q7 45 31 69.5t58 24.5q22 0 39.5 -8t43.5 -24q22 -13 35 -19.5t28 -6.5q44 0 56 58zM354 38v-38h-321v38h140v649h-140v38h321v-38h-140v-649h140z
" />
    <glyph glyph-name="uni1ECA" unicode="&#x1eca;" horiz-adv-x="387" 
d="M174 -175v95h39v-95h-39zM354 38v-38h-321v38h140v649h-140v38h321v-38h-140v-649h140z" />
    <glyph glyph-name="Jcircumflex" unicode="&#x134;" horiz-adv-x="290" 
d="M118 886h49l107 -113h-47l-86 83l-85 -83h-47zM31 -7l3 40q19 -7 51 -7q28 0 50.5 15t22.5 55v591h-116v38h157v-625q0 -61 -32 -87t-83 -26q-29 0 -53 6z" />
    <glyph glyph-name="uni0136" unicode="&#x136;" horiz-adv-x="600" 
d="M94 725h41v-359l393 359h53l-403 -366l429 -359h-63l-409 344v-344h-41v725zM311 -49h39v-11q0 -41 -4.5 -67.5t-20.5 -44t-48 -20.5v39q22 5 28 23.5t6 68.5v12z" />
    <glyph glyph-name="Lacute" unicode="&#x139;" horiz-adv-x="508" 
d="M94 725h41v-687h351v-38h-392v725zM223 886h63l-144 -113h-43z" />
    <glyph glyph-name="Lcaron" unicode="&#x13d;" horiz-adv-x="508" 
d="M94 725h41v-687h351v-38h-392v725zM292 726h45l-48 -170h-26z" />
    <glyph glyph-name="uni013B" unicode="&#x13b;" horiz-adv-x="508" 
d="M94 725h41v-687h351v-38h-392v725zM278 -49h39v-11q0 -41 -4.5 -67.5t-20.5 -44t-48 -20.5v39q22 5 28 23.5t6 68.5v12z" />
    <glyph glyph-name="Ldot" unicode="&#x13f;" horiz-adv-x="508" 
d="M94 725h41v-687h351v-38h-392v725zM348 346v96h41v-96h-41z" />
    <glyph glyph-name="Lslash" unicode="&#x141;" horiz-adv-x="535" 
d="M121 725h41v-344l189 129v-46l-189 -129v-297h351v-38h-392v307l-82 -56v46l82 56v372z" />
    <glyph glyph-name="Eng" unicode="&#x14a;" horiz-adv-x="738" 
d="M603 -10l-468 683v-673h-41v724h55l454 -664v664h41v-762q0 -82 -40 -116.5t-99 -34.5q-32 0 -62 11v40q34 -13 61 -13q99 0 99 107v34z" />
    <glyph glyph-name="Nacute" unicode="&#x143;" horiz-adv-x="738" 
d="M644 725v-725h-55l-454 674v-674h-41v725h55l454 -674v674h41zM451 886h63l-144 -113h-43z" />
    <glyph glyph-name="Ncaron" unicode="&#x147;" horiz-adv-x="738" 
d="M644 725v-725h-55l-454 674v-674h-41v725h55l454 -674v674h41zM403 773h-48l-138 113h47l115 -83l116 83h47z" />
    <glyph glyph-name="uni0145" unicode="&#x145;" horiz-adv-x="738" 
d="M644 725v-725h-55l-454 674v-674h-41v725h55l454 -674v674h41zM350 -49h39v-11q0 -41 -4.5 -67.5t-20.5 -44t-48 -20.5v39q22 5 28 23.5t6 68.5v12z" />
    <glyph glyph-name="OE" unicode="&#x152;" horiz-adv-x="1119" 
d="M660 172q-37 -88 -108 -136.5t-173 -48.5q-99 0 -173.5 47.5t-115 133t-40.5 195.5t40.5 195t115 132.5t173.5 47.5q101 0 173 -48.5t108 -135.5v171h414v-38h-373v-292h348v-38h-348v-319h373v-38h-414v172zM380 699q-82 0 -147 -39.5t-102 -115.5t-37 -181t37 -181
t102 -116t147 -40q83 0 148 40t102 116t37 181t-37 181t-102 115.5t-148 39.5z" />
    <glyph glyph-name="Obreve" unicode="&#x14e;" horiz-adv-x="761" 
d="M380 -13q-101 0 -175.5 48t-114.5 133t-40 195t40 195t114.5 132.5t175.5 47.5q100 0 175 -46.5t115.5 -131.5t40.5 -197t-40.5 -197t-115.5 -132t-175 -47zM380 26q83 0 148 40t102 116t37 181t-37 181t-102 115.5t-148 39.5q-82 0 -147 -39.5t-102 -115.5t-37 -181
t37 -181t102 -116t147 -40zM522 886q-4 -54 -42.5 -85.5t-100.5 -31.5q-60 0 -98.5 31.5t-42.5 85.5h37q5 -44 34 -64.5t71 -20.5t71 20.5t34 64.5h37z" />
    <glyph glyph-name="Ohungarumlaut" unicode="&#x150;" horiz-adv-x="761" 
d="M380 -13q-101 0 -175.5 48t-114.5 133t-40 195t40 195t114.5 132.5t175.5 47.5q100 0 175 -46.5t115.5 -131.5t40.5 -197t-40.5 -197t-115.5 -132t-175 -47zM380 26q83 0 148 40t102 116t37 181t-37 181t-102 115.5t-148 39.5q-82 0 -147 -39.5t-102 -115.5t-37 -181
t37 -181t102 -116t147 -40zM396 886h63l-144 -113h-43zM570 886h64l-145 -113h-43z" />
    <glyph glyph-name="Omacron" unicode="&#x14c;" horiz-adv-x="761" 
d="M380 -13q-101 0 -175.5 48t-114.5 133t-40 195t40 195t114.5 132.5t175.5 47.5q100 0 175 -46.5t115.5 -131.5t40.5 -197t-40.5 -197t-115.5 -132t-175 -47zM380 26q83 0 148 40t102 116t37 181t-37 181t-102 115.5t-148 39.5q-82 0 -147 -39.5t-102 -115.5t-37 -181
t37 -181t102 -116t147 -40zM516 851v-38h-271v38h271z" />
    <glyph glyph-name="uni1ECC" unicode="&#x1ecc;" horiz-adv-x="761" 
d="M380 -13q-101 0 -175.5 48t-114.5 133t-40 195t40 195t114.5 132.5t175.5 47.5q100 0 175 -46.5t115.5 -131.5t40.5 -197t-40.5 -197t-115.5 -132t-175 -47zM380 26q83 0 148 40t102 116t37 181t-37 181t-102 115.5t-148 39.5q-82 0 -147 -39.5t-102 -115.5t-37 -181
t37 -181t102 -116t147 -40zM361 -175v95h39v-95h-39z" />
    <glyph glyph-name="Racute" unicode="&#x154;" horiz-adv-x="601" 
d="M94 0v725h176q124 0 199.5 -40.5t75.5 -147.5q0 -88 -55.5 -134.5t-149.5 -54.5l241 -348h-50l-239 345h-157v-345h-41zM135 687v-304h133q104 0 168.5 31t64.5 121q0 91 -64 121.5t-169 30.5h-133zM386 886h63l-144 -113h-43z" />
    <glyph glyph-name="Rcaron" unicode="&#x158;" horiz-adv-x="601" 
d="M94 0v725h176q124 0 199.5 -40.5t75.5 -147.5q0 -88 -55.5 -134.5t-149.5 -54.5l241 -348h-50l-239 345h-157v-345h-41zM135 687v-304h133q104 0 168.5 31t64.5 121q0 91 -64 121.5t-169 30.5h-133zM328 773h-48l-138 113h47l115 -83l116 83h47z" />
    <glyph glyph-name="uni0156" unicode="&#x156;" horiz-adv-x="601" 
d="M94 0v725h176q124 0 199.5 -40.5t75.5 -147.5q0 -88 -55.5 -134.5t-149.5 -54.5l241 -348h-50l-239 345h-157v-345h-41zM135 687v-304h133q104 0 168.5 31t64.5 121q0 91 -64 121.5t-169 30.5h-133zM287 -49h39v-11q0 -41 -4.5 -67.5t-20.5 -44t-48 -20.5v39
q22 5 28 23.5t6 68.5v12z" />
    <glyph glyph-name="Sacute" unicode="&#x15a;" horiz-adv-x="544" 
d="M42 33v51q42 -28 88 -42.5t111 -14.5q100 0 160 36.5t60 111.5q0 42 -19.5 71.5t-59 54t-108.5 51.5l-46 18q-170 67 -170 193q0 54 32 94t84 60.5t109 20.5q108 0 186 -40v-48q-78 49 -186 49q-90 0 -136.5 -37.5t-46.5 -96.5q0 -54 37 -92t112 -67l46 -18
q85 -33 130 -63t62.5 -64.5t17.5 -83.5q0 -56 -31.5 -99t-89.5 -67t-134 -24q-66 0 -120 12.5t-88 33.5zM382 886h63l-144 -113h-43z" />
    <glyph glyph-name="Scaron" unicode="&#x160;" horiz-adv-x="544" 
d="M42 33v51q42 -28 88 -42.5t111 -14.5q100 0 160 36.5t60 111.5q0 42 -19.5 71.5t-59 54t-108.5 51.5l-46 18q-170 67 -170 193q0 54 32 94t84 60.5t109 20.5q108 0 186 -40v-48q-78 49 -186 49q-90 0 -136.5 -37.5t-46.5 -96.5q0 -54 37 -92t112 -67l46 -18
q85 -33 130 -63t62.5 -64.5t17.5 -83.5q0 -56 -31.5 -99t-89.5 -67t-134 -24q-66 0 -120 12.5t-88 33.5zM313 773h-48l-138 113h47l115 -83l116 83h47z" />
    <glyph glyph-name="Scedilla" unicode="&#x15e;" horiz-adv-x="544" 
d="M42 33v51q42 -28 88 -42.5t111 -14.5q100 0 160 36.5t60 111.5q0 42 -19.5 71.5t-59 54t-108.5 51.5l-46 18q-170 67 -170 193q0 54 32 94t84 60.5t109 20.5q108 0 186 -40v-48q-78 49 -186 49q-90 0 -136.5 -37.5t-46.5 -96.5q0 -54 37 -92t112 -67l46 -18
q85 -33 130 -63t62.5 -64.5t17.5 -83.5q0 -56 -31.5 -99t-89.5 -67t-134 -24q-66 0 -120 12.5t-88 33.5zM205 -150q28 -11 55 -11t45 10t18 32q0 20 -14.5 29.5t-36.5 9.5q-25 0 -43 -9l-14 14l48 76h30l-33 -56q13 3 28 3q32 0 52 -17t20 -47q0 -37 -28.5 -55.5
t-67.5 -18.5q-37 0 -69 11z" />
    <glyph glyph-name="Scircumflex" unicode="&#x15c;" horiz-adv-x="544" 
d="M42 33v51q42 -28 88 -42.5t111 -14.5q100 0 160 36.5t60 111.5q0 42 -19.5 71.5t-59 54t-108.5 51.5l-46 18q-170 67 -170 193q0 54 32 94t84 60.5t109 20.5q108 0 186 -40v-48q-78 49 -186 49q-90 0 -136.5 -37.5t-46.5 -96.5q0 -54 37 -92t112 -67l46 -18
q85 -33 130 -63t62.5 -64.5t17.5 -83.5q0 -56 -31.5 -99t-89.5 -67t-134 -24q-66 0 -120 12.5t-88 33.5zM262 886h49l137 -113h-47l-116 83l-115 -83h-47z" />
    <glyph glyph-name="uni0218" unicode="&#x218;" horiz-adv-x="544" 
d="M42 33v51q42 -28 88 -42.5t111 -14.5q100 0 160 36.5t60 111.5q0 42 -19.5 71.5t-59 54t-108.5 51.5l-46 18q-170 67 -170 193q0 54 32 94t84 60.5t109 20.5q108 0 186 -40v-48q-78 49 -186 49q-90 0 -136.5 -37.5t-46.5 -96.5q0 -54 37 -92t112 -67l46 -18
q85 -33 130 -63t62.5 -64.5t17.5 -83.5q0 -56 -31.5 -99t-89.5 -67t-134 -24q-66 0 -120 12.5t-88 33.5zM251 -49h39v-11q0 -41 -4.5 -67.5t-20.5 -44t-48 -20.5v39q22 5 28 23.5t6 68.5v12z" />
    <glyph glyph-name="Tbar" unicode="&#x166;" horiz-adv-x="572" 
d="M306 0h-41v352h-168v38h168v297h-233v38h508v-38h-234v-297h168v-38h-168v-352z" />
    <glyph glyph-name="Tcaron" unicode="&#x164;" horiz-adv-x="552" 
d="M296 0h-41v687h-233v38h508v-38h-234v-687zM300 773h-48l-138 113h47l115 -83l116 83h47z" />
    <glyph glyph-name="uni0162" unicode="&#x162;" horiz-adv-x="552" 
d="M296 0h-41v687h-233v38h508v-38h-234v-687zM256 -49h39v-11q0 -41 -4.5 -67.5t-20.5 -44t-48 -20.5v39q22 5 28 23.5t6 68.5v12z" />
    <glyph glyph-name="uni021A" unicode="&#x21a;" horiz-adv-x="552" 
d="M296 0h-41v687h-233v38h508v-38h-234v-687zM256 -49h39v-11q0 -41 -4.5 -67.5t-20.5 -44t-48 -20.5v39q22 5 28 23.5t6 68.5v12z" />
    <glyph glyph-name="Ubreve" unicode="&#x16c;" horiz-adv-x="726" 
d="M86 725h41v-438q0 -134 55 -197.5t181 -63.5t181 63.5t55 197.5v438h41v-431q0 -110 -28.5 -177t-89.5 -98.5t-159 -31.5t-159 31.5t-89.5 98.5t-28.5 177v431zM505 886q-4 -54 -42.5 -85.5t-100.5 -31.5q-60 0 -98.5 31.5t-42.5 85.5h37q5 -44 34 -64.5t71 -20.5
t71 20.5t34 64.5h37z" />
    <glyph glyph-name="Uhungarumlaut" unicode="&#x170;" horiz-adv-x="726" 
d="M86 725h41v-438q0 -134 55 -197.5t181 -63.5t181 63.5t55 197.5v438h41v-431q0 -110 -28.5 -177t-89.5 -98.5t-159 -31.5t-159 31.5t-89.5 98.5t-28.5 177v431zM359 886h63l-144 -113h-43zM533 886h64l-145 -113h-43z" />
    <glyph glyph-name="Umacron" unicode="&#x16a;" horiz-adv-x="726" 
d="M86 725h41v-438q0 -134 55 -197.5t181 -63.5t181 63.5t55 197.5v438h41v-431q0 -110 -28.5 -177t-89.5 -98.5t-159 -31.5t-159 31.5t-89.5 98.5t-28.5 177v431zM499 851v-38h-271v38h271z" />
    <glyph glyph-name="Uogonek" unicode="&#x172;" horiz-adv-x="726" 
d="M294 -105q0 25 18.5 50t46.5 42q-143 0 -208 72t-65 235v431h41v-438q0 -134 55 -197.5t181 -63.5t181 63.5t55 197.5v438h41v-431q0 -145 -52.5 -218t-153.5 -84q-18 -2 -41 -17.5t-39 -37t-16 -40.5q0 -22 17.5 -35.5t44.5 -13.5q9 0 30 3v-34q-15 -5 -45 -5
q-36 0 -63.5 23t-27.5 60z" />
    <glyph glyph-name="Uring" unicode="&#x16e;" horiz-adv-x="726" 
d="M86 725h41v-438q0 -134 55 -197.5t181 -63.5t181 63.5t55 197.5v438h41v-431q0 -110 -28.5 -177t-89.5 -98.5t-159 -31.5t-159 31.5t-89.5 98.5t-28.5 177v431zM450 850q0 -35 -25 -58t-61 -23t-61.5 23t-25.5 58q0 36 25 59t62 23t61.5 -23t24.5 -59zM309 850
q0 -24 16 -38t39 -14q22 0 38 14t16 38t-16 39t-38 15q-23 0 -39 -14.5t-16 -39.5z" />
    <glyph glyph-name="Utilde" unicode="&#x168;" horiz-adv-x="726" 
d="M86 725h41v-438q0 -134 55 -197.5t181 -63.5t181 63.5t55 197.5v438h41v-431q0 -110 -28.5 -177t-89.5 -98.5t-159 -31.5t-159 31.5t-89.5 98.5t-28.5 177v431zM502 876h34q-8 -45 -30.5 -69.5t-58.5 -24.5q-20 0 -38 8t-41 24q-22 14 -37 21t-31 7q-22 0 -35.5 -15
t-19.5 -45h-34q7 45 31 69.5t58 24.5q22 0 39.5 -8t43.5 -24q22 -13 35 -19.5t28 -6.5q44 0 56 58z" />
    <glyph glyph-name="uni1EE4" unicode="&#x1ee4;" horiz-adv-x="726" 
d="M86 725h41v-438q0 -134 55 -197.5t181 -63.5t181 63.5t55 197.5v438h41v-431q0 -110 -28.5 -177t-89.5 -98.5t-159 -31.5t-159 31.5t-89.5 98.5t-28.5 177v431zM344 -175v95h39v-95h-39z" />
    <glyph glyph-name="Wacute" unicode="&#x1e82;" horiz-adv-x="937" 
d="M445 725h46l187 -666l194 666h45l-219 -725h-43l-187 659l-186 -659h-43l-220 725h45l197 -666zM580 886h63l-144 -113h-43z" />
    <glyph glyph-name="Wcircumflex" unicode="&#x174;" horiz-adv-x="937" 
d="M445 725h46l187 -666l194 666h45l-219 -725h-43l-187 659l-186 -659h-43l-220 725h45l197 -666zM439 886h49l137 -113h-47l-116 83l-115 -83h-47z" />
    <glyph glyph-name="Wdieresis" unicode="&#x1e84;" horiz-adv-x="937" 
d="M445 725h46l187 -666l194 666h45l-219 -725h-43l-187 659l-186 -659h-43l-220 725h45l197 -666zM339 781v96h41v-96h-41zM555 781v96h42v-96h-42z" />
    <glyph glyph-name="Wgrave" unicode="&#x1e80;" horiz-adv-x="937" 
d="M445 725h46l187 -666l194 666h45l-219 -725h-43l-187 659l-186 -659h-43l-220 725h45l197 -666zM489 773h-43l-144 113h63z" />
    <glyph glyph-name="Ycircumflex" unicode="&#x176;" horiz-adv-x="601" 
d="M279 275l-259 450h46l234 -407l238 407h47l-265 -451v-274h-41v275zM279 886h49l137 -113h-47l-116 83l-115 -83h-47z" />
    <glyph glyph-name="Ydieresis" unicode="&#x178;" horiz-adv-x="601" 
d="M279 275l-259 450h46l234 -407l238 407h47l-265 -451v-274h-41v275zM173 781v96h41v-96h-41zM389 781v96h42v-96h-42z" />
    <glyph glyph-name="Ygrave" unicode="&#x1ef2;" horiz-adv-x="601" 
d="M279 275l-259 450h46l234 -407l238 407h47l-265 -451v-274h-41v275zM362 773h-43l-144 113h63z" />
    <glyph glyph-name="uni0232" unicode="&#x232;" horiz-adv-x="601" 
d="M279 275l-259 450h46l234 -407l238 407h47l-265 -451v-274h-41v275zM438 851v-38h-271v38h271z" />
    <glyph glyph-name="Zacute" unicode="&#x179;" horiz-adv-x="577" 
d="M52 725h496v-37l-486 -650h499v-38h-547v38l485 649h-447v38zM389 886h63l-144 -113h-43z" />
    <glyph glyph-name="Zcaron" unicode="&#x17d;" horiz-adv-x="577" 
d="M52 725h496v-37l-486 -650h499v-38h-547v38l485 649h-447v38zM325 773h-48l-138 113h47l115 -83l116 83h47z" />
    <glyph glyph-name="Zdotaccent" unicode="&#x17b;" horiz-adv-x="577" 
d="M52 725h496v-37l-486 -650h499v-38h-547v38l485 649h-447v38zM277 781v96h41v-96h-41z" />
    <glyph glyph-name="uni018F" unicode="&#x18f;" horiz-adv-x="676" 
d="M37 358h545q-2 103 -43 180.5t-108.5 119t-147.5 41.5q-51 0 -102 -12.5t-93 -33.5v42q94 43 195 43q98 0 176.5 -48.5t122.5 -135.5t44 -197q0 -109 -39 -193.5t-107.5 -130.5t-153.5 -46q-91 0 -157 47t-100 131t-32 193zM582 320h-499q3 -81 32.5 -148t83.5 -106.5
t127 -39.5q66 0 123 37t93 104.5t40 152.5z" />
    <glyph glyph-name="abreve" unicode="&#x103;" horiz-adv-x="517" 
d="M403 335q0 75 -23 113.5t-56.5 50.5t-77.5 12q-48 0 -93 -15.5t-73 -34.5v39q29 18 76 32.5t92 14.5q90 0 141 -44t51 -154l-1 -164q0 -110 8 -185h-39l-5 105q-25 -58 -76.5 -88t-120.5 -30q-45 0 -85 18t-64.5 53t-24.5 82q0 87 96.5 131.5t274.5 63.5zM403 238v63
q-163 -17 -246 -54t-83 -107q0 -54 41 -85.5t98 -31.5q79 0 134.5 51t55.5 164zM399 755q-5 -57 -41 -88t-101 -31t-101 31t-40 88h36q4 -46 30 -66.5t75 -20.5q48 0 75 20.5t33 66.5h34z" />
    <glyph glyph-name="amacron" unicode="&#x101;" horiz-adv-x="517" 
d="M403 335q0 75 -23 113.5t-56.5 50.5t-77.5 12q-48 0 -93 -15.5t-73 -34.5v39q29 18 76 32.5t92 14.5q90 0 141 -44t51 -154l-1 -164q0 -110 8 -185h-39l-5 105q-25 -58 -76.5 -88t-120.5 -30q-45 0 -85 18t-64.5 53t-24.5 82q0 87 96.5 131.5t274.5 63.5zM403 238v63
q-163 -17 -246 -54t-83 -107q0 -54 41 -85.5t98 -31.5q79 0 134.5 51t55.5 164zM395 714v-34h-261v34h261z" />
    <glyph glyph-name="aogonek" unicode="&#x105;" horiz-adv-x="517" 
d="M352 -102q0 -52 65 -52q13 0 30 5v-34q-15 -5 -45 -5q-36 0 -63.5 22.5t-27.5 58.5q0 35 30.5 65.5t66.5 41.5l-5 105q-25 -58 -76.5 -88t-120.5 -30q-45 0 -85 18t-64.5 53t-24.5 82q0 87 96.5 131.5t274.5 63.5q0 75 -23 113.5t-56.5 50.5t-77.5 12q-48 0 -93 -15.5
t-73 -34.5v39q29 18 76 32.5t92 14.5q90 0 141 -44t51 -154l-1 -164q0 -110 8 -185q-40 -19 -67.5 -45.5t-27.5 -56.5zM403 238v63q-163 -17 -246 -54t-83 -107q0 -54 41 -85.5t98 -31.5q79 0 134.5 51t55.5 164z" />
    <glyph glyph-name="cacute" unicode="&#x107;" horiz-adv-x="461" 
d="M295 23q85 0 131 28v-38q-49 -26 -131 -26q-70 0 -127.5 35t-90.5 98.5t-33 146.5t33.5 146.5t92 98.5t130.5 35q75 0 126 -24v-37q-23 12 -56.5 18.5t-70.5 6.5q-59 0 -107.5 -28t-77.5 -83.5t-29 -133.5q0 -77 29 -132t76.5 -83t104.5 -28zM368 755h58l-130 -116h-39z
" />
    <glyph glyph-name="ccaron" unicode="&#x10d;" horiz-adv-x="461" 
d="M295 23q85 0 131 28v-38q-49 -26 -131 -26q-70 0 -127.5 35t-90.5 98.5t-33 146.5t33.5 146.5t92 98.5t130.5 35q75 0 126 -24v-37q-23 12 -56.5 18.5t-70.5 6.5q-59 0 -107.5 -28t-77.5 -83.5t-29 -133.5q0 -77 29 -132t76.5 -83t104.5 -28zM310 639h-38l-137 116h39
l117 -82l118 82h39z" />
    <glyph glyph-name="ccircumflex" unicode="&#x109;" horiz-adv-x="461" 
d="M295 23q85 0 131 28v-38q-49 -26 -131 -26q-70 0 -127.5 35t-90.5 98.5t-33 146.5t33.5 146.5t92 98.5t130.5 35q75 0 126 -24v-37q-23 12 -56.5 18.5t-70.5 6.5q-59 0 -107.5 -28t-77.5 -83.5t-29 -133.5q0 -77 29 -132t76.5 -83t104.5 -28zM266 755h38l137 -116h-39
l-117 82l-118 -82h-39z" />
    <glyph glyph-name="cdotaccent" unicode="&#x10b;" horiz-adv-x="461" 
d="M295 23q85 0 131 28v-38q-49 -26 -131 -26q-70 0 -127.5 35t-90.5 98.5t-33 146.5t33.5 146.5t92 98.5t130.5 35q75 0 126 -24v-37q-23 12 -56.5 18.5t-70.5 6.5q-59 0 -107.5 -28t-77.5 -83.5t-29 -133.5q0 -77 29 -132t76.5 -83t104.5 -28zM260 659v96h39v-96h-39z" />
    <glyph glyph-name="dcaron" unicode="&#x10f;" horiz-adv-x="590" 
d="M467 755h39v-755h-39v115q-25 -60 -76 -94t-118 -34q-64 0 -116 33t-82 96.5t-30 150.5t30 150t82 96.5t116 33.5q67 0 118 -34t76 -94v336zM278 511q-54 0 -97.5 -28.5t-69 -83.5t-25.5 -132t25.5 -132t69 -83.5t97.5 -28.5q50 0 94 25.5t71.5 80.5t27.5 138t-27.5 138
t-71.5 80.5t-94 25.5zM579 755h45l-48 -170h-26z" />
    <glyph glyph-name="dcroat" unicode="&#x111;" horiz-adv-x="590" 
d="M506 0h-39v115q-25 -60 -76 -94t-118 -34q-64 0 -116 33t-82 96.5t-30 150.5t30 150t82 96.5t116 33.5q67 0 118 -34t76 -94v203h-170v34h170v99h39v-99h83v-34h-83v-622zM278 511q-54 0 -97.5 -28.5t-69 -83.5t-25.5 -132t25.5 -132t69 -83.5t97.5 -28.5q50 0 94 25.5
t71.5 80.5t27.5 138t-27.5 138t-71.5 80.5t-94 25.5z" />
    <glyph glyph-name="ebreve" unicode="&#x115;" horiz-adv-x="529" 
d="M84 264q3 -76 32.5 -130.5t79 -82.5t110.5 -28q47 0 86 10t63 26v-39q-28 -15 -66 -24t-83 -9q-75 0 -135 35.5t-93.5 100t-33.5 148.5q0 82 30 145t82 97t117 34q70 0 120 -36t76 -100t25 -147h-410zM84 298h368q-4 94 -50 154t-129 60q-49 0 -91 -25.5t-68.5 -74
t-29.5 -114.5zM417 755q-5 -57 -41 -88t-101 -31t-101 31t-40 88h36q4 -46 30 -66.5t75 -20.5q48 0 75 20.5t33 66.5h34z" />
    <glyph glyph-name="ecaron" unicode="&#x11b;" horiz-adv-x="529" 
d="M84 264q3 -76 32.5 -130.5t79 -82.5t110.5 -28q47 0 86 10t63 26v-39q-28 -15 -66 -24t-83 -9q-75 0 -135 35.5t-93.5 100t-33.5 148.5q0 82 30 145t82 97t117 34q70 0 120 -36t76 -100t25 -147h-410zM84 298h368q-4 94 -50 154t-129 60q-49 0 -91 -25.5t-68.5 -74
t-29.5 -114.5zM298 639h-38l-137 116h39l117 -82l118 82h39z" />
    <glyph glyph-name="emacron" unicode="&#x113;" horiz-adv-x="529" 
d="M84 264q3 -76 32.5 -130.5t79 -82.5t110.5 -28q47 0 86 10t63 26v-39q-28 -15 -66 -24t-83 -9q-75 0 -135 35.5t-93.5 100t-33.5 148.5q0 82 30 145t82 97t117 34q70 0 120 -36t76 -100t25 -147h-410zM84 298h368q-4 94 -50 154t-129 60q-49 0 -91 -25.5t-68.5 -74
t-29.5 -114.5zM400 714v-34h-261v34h261z" />
    <glyph glyph-name="eogonek" unicode="&#x119;" horiz-adv-x="529" 
d="M494 264h-410q3 -76 32.5 -130.5t79 -82.5t110.5 -28q47 0 86 10t63 26v-39q-39 -18 -67 -48t-28 -64q0 -62 65 -62q13 0 30 5v-34q-15 -5 -45 -5q-36 0 -63.5 22.5t-27.5 58.5q0 30 19 57t46 45q-37 -8 -78 -8q-75 0 -135 35.5t-93.5 100t-33.5 148.5q0 82 30 145t82 97
t117 34q70 0 120 -36t76 -100t25 -147zM452 299q-4 93 -50 153t-129 60q-49 0 -91 -25.5t-68.5 -74t-29.5 -113.5h368z" />
    <glyph glyph-name="edotaccent" unicode="&#x117;" horiz-adv-x="529" 
d="M84 264q3 -76 32.5 -130.5t79 -82.5t110.5 -28q47 0 86 10t63 26v-39q-28 -15 -66 -24t-83 -9q-75 0 -135 35.5t-93.5 100t-33.5 148.5q0 82 30 145t82 97t117 34q70 0 120 -36t76 -100t25 -147h-410zM84 298h368q-4 94 -50 154t-129 60q-49 0 -91 -25.5t-68.5 -74
t-29.5 -114.5zM263 659v96h39v-96h-39z" />
    <glyph glyph-name="gbreve" unicode="&#x11f;" horiz-adv-x="590" 
d="M507 25q0 -121 -66 -176t-167 -55q-42 0 -84.5 8t-70.5 20v40q28 -13 70 -22.5t85 -9.5q83 0 138.5 41.5t55.5 147.5v117q-25 -60 -76 -93.5t-118 -33.5q-64 0 -116 32.5t-82 93.5t-30 143q0 81 30 142t82 94t116 33q67 0 118 -34t76 -93v118h39v-513zM279 511
q-53 0 -97 -28t-69.5 -81t-25.5 -124q0 -72 25.5 -125t69 -81t97.5 -28q49 0 93 25t72 78t28 131t-28 130.5t-72 77.5t-93 25zM439 755q-5 -57 -41 -88t-101 -31t-101 31t-40 88h36q4 -46 30 -66.5t75 -20.5q48 0 75 20.5t33 66.5h34z" />
    <glyph glyph-name="gcircumflex" unicode="&#x11d;" horiz-adv-x="590" 
d="M507 25q0 -121 -66 -176t-167 -55q-42 0 -84.5 8t-70.5 20v40q28 -13 70 -22.5t85 -9.5q83 0 138.5 41.5t55.5 147.5v117q-25 -60 -76 -93.5t-118 -33.5q-64 0 -116 32.5t-82 93.5t-30 143q0 81 30 142t82 94t116 33q67 0 118 -34t76 -93v118h39v-513zM279 511
q-53 0 -97 -28t-69.5 -81t-25.5 -124q0 -72 25.5 -125t69 -81t97.5 -28q49 0 93 25t72 78t28 131t-28 130.5t-72 77.5t-93 25zM280 755h38l137 -116h-39l-117 82l-118 -82h-39z" />
    <glyph glyph-name="uni0123" unicode="&#x123;" horiz-adv-x="590" 
d="M270 627v11q0 25 1.5 48t9 41t22 29.5t40.5 13.5v-39q-23 -5 -28.5 -25t-5.5 -67v-12h-39zM507 25q0 -65 -19.5 -109.5t-52 -71.5t-74.5 -38.5t-87 -11.5t-87 8.5t-68 19.5v40q26 -12 67 -22t88 -10q34 0 68.5 7.5t62.5 28.5t45.5 57.5t17.5 95.5v117
q-25 -60 -75.5 -93.5t-118.5 -33.5q-48 0 -89.5 18.5t-72 53t-48.5 84.5t-18 113t18 112.5t48.5 84.5t72 53.5t89.5 18.5q68 0 118.5 -34t75.5 -93v118h39v-513zM472 278q0 61 -17 105.5t-44.5 72.5t-62 41.5t-69.5 13.5q-40 0 -75 -15.5t-61 -45.5t-41 -73.5t-15 -98.5
q0 -56 15 -99.5t41 -73.5t61 -45.5t75 -15.5q35 0 69.5 13.5t62 42t44.5 72.5t17 106z" />
    <glyph glyph-name="gdotaccent" unicode="&#x121;" horiz-adv-x="590" 
d="M507 25q0 -121 -66 -176t-167 -55q-42 0 -84.5 8t-70.5 20v40q28 -13 70 -22.5t85 -9.5q83 0 138.5 41.5t55.5 147.5v117q-25 -60 -76 -93.5t-118 -33.5q-64 0 -116 32.5t-82 93.5t-30 143q0 81 30 142t82 94t116 33q67 0 118 -34t76 -93v118h39v-513zM279 511
q-53 0 -97 -28t-69.5 -81t-25.5 -124q0 -72 25.5 -125t69 -81t97.5 -28q49 0 93 25t72 78t28 131t-28 130.5t-72 77.5t-93 25zM278 659v96h39v-96h-39z" />
    <glyph glyph-name="hbar" unicode="&#x127;" horiz-adv-x="569" 
d="M123 755v-99h170v-34h-170v-208q20 56 66.5 94.5t123.5 38.5q180 0 180 -202v-345h-39v332q0 86 -33 132.5t-116 46.5q-85 0 -133.5 -67t-48.5 -180v-264h-39v622h-83v34h83v99h39z" />
    <glyph glyph-name="hcircumflex" unicode="&#x125;" horiz-adv-x="569" 
d="M123 414q20 56 66.5 94.5t123.5 38.5q180 0 180 -202v-345h-39v332q0 86 -33 132.5t-116 46.5q-85 0 -133.5 -67t-48.5 -180v-264h-39v755h39v-341zM281 906h49l137 -113h-47l-116 83l-115 -83h-47z" />
    <glyph glyph-name="dotlessi" unicode="&#x131;" horiz-adv-x="207" 
d="M84 0v538h39v-538h-39z" />
    <glyph glyph-name="ibreve" unicode="&#x12d;" horiz-adv-x="207" 
d="M84 0v538h39v-538h-39zM246 755q-5 -57 -41 -88t-101 -31t-101 31t-40 88h36q4 -46 30 -66.5t75 -20.5q48 0 75 20.5t33 66.5h34z" />
    <glyph glyph-name="imacron" unicode="&#x12b;" horiz-adv-x="207" 
d="M84 0v538h39v-538h-39zM235 714v-34h-261v34h261z" />
    <glyph glyph-name="iogonek" unicode="&#x12f;" horiz-adv-x="207" 
d="M84 659v96h39v-96h-39zM84 538h39v-538q-41 -19 -68 -46t-27 -56q0 -52 65 -52q12 0 30 5v-34q-15 -5 -45 -5q-36 0 -63.5 22.5t-27.5 58.5q0 35 30.5 65.5t66.5 41.5v538z" />
    <glyph glyph-name="itilde" unicode="&#x129;" horiz-adv-x="207" 
d="M84 0v538h39v-538h-39zM228 748h35q-8 -45 -31 -69.5t-58 -24.5q-21 0 -39 8t-41 24q-23 14 -37.5 20.5t-29.5 6.5q-23 0 -36 -14.5t-18 -44.5h-36q7 44 31 69t58 25q22 0 40.5 -8t43.5 -24q19 -13 33.5 -19.5t28.5 -6.5q45 0 56 58z" />
    <glyph glyph-name="uni1ECB" unicode="&#x1ecb;" horiz-adv-x="207" 
d="M84 659v96h39v-96h-39zM84 0v538h39v-538h-39zM84 -175v95h39v-95h-39z" />
    <glyph glyph-name="uni0237" unicode="&#x237;" horiz-adv-x="230" 
d="M-12 -200v36q25 -7 51 -7q35 0 51.5 15.5t16.5 58.5v601h-96v34h135v-631q0 -62 -28 -87.5t-77 -25.5q-29 0 -53 6z" />
    <glyph glyph-name="jcircumflex" unicode="&#x135;" horiz-adv-x="230" 
d="M108 755h38l107 -116h-39l-87 82l-88 -82h-39zM-12 -200v36q25 -7 51 -7q35 0 51.5 15.5t16.5 58.5v601h-96v34h135v-631q0 -62 -28 -87.5t-77 -25.5q-29 0 -53 6z" />
    <glyph glyph-name="uni0137" unicode="&#x137;" horiz-adv-x="482" 
d="M84 0v755h39v-478l283 261h50l-289 -265l322 -273h-58l-308 260v-260h-39zM240 -49h39v-11q0 -41 -4.5 -67.5t-20.5 -44t-48 -20.5v39q22 5 28 23.5t6 68.5v12z" />
    <glyph glyph-name="lacute" unicode="&#x13a;" horiz-adv-x="207" 
d="M84 755h39v-755h-39v755zM205 906h63l-144 -113h-43z" />
    <glyph glyph-name="lcaron" unicode="&#x13e;" horiz-adv-x="207" 
d="M196 755h45l-48 -170h-26zM84 755h39v-755h-39v755z" />
    <glyph glyph-name="uni013C" unicode="&#x13c;" horiz-adv-x="207" 
d="M84 755h39v-755h-39v755zM85 -49h39v-11q0 -41 -4.5 -67.5t-20.5 -44t-48 -20.5v39q22 5 28 23.5t6 68.5v12z" />
    <glyph glyph-name="ldot" unicode="&#x140;" horiz-adv-x="242" 
d="M84 755h39v-755h-39v755zM205 352v96h39v-96h-39z" />
    <glyph glyph-name="lslash" unicode="&#x142;" horiz-adv-x="259" 
d="M114 755h39v-316l86 64v-41l-86 -64v-398h-39v370l-82 -61v41l82 61v344z" />
    <glyph glyph-name="eng" unicode="&#x14b;" horiz-adv-x="569" 
d="M493 -68q0 -138 -118 -138q-28 0 -55 8v36q32 -9 51 -9q41 0 62 23t21 78v402q0 86 -33 132.5t-116 46.5q-85 0 -133.5 -67t-48.5 -180v-264h-39v538h39v-124q20 56 66.5 94.5t123.5 38.5q180 0 180 -202v-413z" />
    <glyph glyph-name="nacute" unicode="&#x144;" horiz-adv-x="569" 
d="M123 414q20 56 66.5 94.5t123.5 38.5q180 0 180 -202v-345h-39v332q0 86 -33 132.5t-116 46.5q-85 0 -133.5 -67t-48.5 -180v-264h-39v538h39v-124zM379 755h58l-130 -116h-39z" />
    <glyph glyph-name="ncaron" unicode="&#x148;" horiz-adv-x="569" 
d="M123 414q20 56 66.5 94.5t123.5 38.5q180 0 180 -202v-345h-39v332q0 86 -33 132.5t-116 46.5q-85 0 -133.5 -67t-48.5 -180v-264h-39v538h39v-124zM317 639h-38l-137 116h39l117 -82l118 82h39z" />
    <glyph glyph-name="uni0146" unicode="&#x146;" horiz-adv-x="569" 
d="M123 414q20 56 66.5 94.5t123.5 38.5q180 0 180 -202v-345h-39v332q0 86 -33 132.5t-116 46.5q-85 0 -133.5 -67t-48.5 -180v-264h-39v538h39v-124zM265 -49h39v-11q0 -41 -4.5 -67.5t-20.5 -44t-48 -20.5v39q22 5 28 23.5t6 68.5v12z" />
    <glyph glyph-name="oe" unicode="&#x153;" horiz-adv-x="969" 
d="M503 390q26 73 82 115t128 42q70 0 120 -36t76 -100t25 -147h-410q3 -76 32.5 -130.5t79 -82.5t110.5 -28q47 0 86 10t63 26v-39q-28 -15 -66 -24t-83 -9q-84 0 -148 43.5t-93 118.5q-25 -80 -83.5 -121t-136.5 -41q-68 0 -122.5 31t-86 94t-31.5 155q0 91 31.5 154
t86 94.5t122.5 31.5q77 0 134.5 -40t83.5 -117zM524 299h368q-4 93 -50 153t-129 60q-49 0 -91 -25.5t-68.5 -74t-29.5 -113.5zM86 267q0 -119 54.5 -181.5t144.5 -62.5t144.5 62.5t54.5 181.5q0 118 -54.5 181t-144.5 63t-144.5 -63t-54.5 -181z" />
    <glyph glyph-name="obreve" unicode="&#x14f;" horiz-adv-x="570" 
d="M285 547q68 0 122.5 -31.5t86 -94.5t31.5 -154q0 -92 -31.5 -155t-86 -94t-122.5 -31t-122.5 31t-86 94t-31.5 155q0 91 31.5 154t86 94.5t122.5 31.5zM285 23q90 0 144.5 62.5t54.5 181.5q0 118 -54.5 181t-144.5 63t-144.5 -63t-54.5 -181q0 -119 54.5 -181.5
t144.5 -62.5zM427 755q-5 -57 -41 -88t-101 -31t-101 31t-40 88h36q4 -46 30 -66.5t75 -20.5q48 0 75 20.5t33 66.5h34z" />
    <glyph glyph-name="ohungarumlaut" unicode="&#x151;" horiz-adv-x="570" 
d="M285 547q68 0 122.5 -31.5t86 -94.5t31.5 -154q0 -92 -31.5 -155t-86 -94t-122.5 -31t-122.5 31t-86 94t-31.5 155q0 91 31.5 154t86 94.5t122.5 31.5zM285 23q90 0 144.5 62.5t54.5 181.5q0 118 -54.5 181t-144.5 63t-144.5 -63t-54.5 -181q0 -119 54.5 -181.5
t144.5 -62.5zM292 755h58l-130 -116h-39zM461 755h58l-130 -116h-39z" />
    <glyph glyph-name="omacron" unicode="&#x14d;" horiz-adv-x="570" 
d="M285 547q68 0 122.5 -31.5t86 -94.5t31.5 -154q0 -92 -31.5 -155t-86 -94t-122.5 -31t-122.5 31t-86 94t-31.5 155q0 91 31.5 154t86 94.5t122.5 31.5zM285 23q90 0 144.5 62.5t54.5 181.5q0 118 -54.5 181t-144.5 63t-144.5 -63t-54.5 -181q0 -119 54.5 -181.5
t144.5 -62.5zM416 714v-34h-261v34h261z" />
    <glyph glyph-name="uni1ECD" unicode="&#x1ecd;" horiz-adv-x="570" 
d="M285 547q68 0 122.5 -31.5t86 -94.5t31.5 -154q0 -92 -31.5 -155t-86 -94t-122.5 -31t-122.5 31t-86 94t-31.5 155q0 91 31.5 154t86 94.5t122.5 31.5zM285 23q90 0 144.5 62.5t54.5 181.5q0 118 -54.5 181t-144.5 63t-144.5 -63t-54.5 -181q0 -119 54.5 -181.5
t144.5 -62.5zM266 -175v95h39v-95h-39z" />
    <glyph glyph-name="racute" unicode="&#x155;" horiz-adv-x="312" 
d="M298 498q-8 2 -21 2q-87 0 -121 -65t-34 -188v-247h-38v538h36v-116q17 53 59 86t102 33q9 0 17 -2v-41zM282 755h58l-130 -116h-39z" />
    <glyph glyph-name="rcaron" unicode="&#x159;" horiz-adv-x="312" 
d="M298 498q-8 2 -21 2q-87 0 -121 -65t-34 -188v-247h-38v538h36v-116q17 53 59 86t102 33q9 0 17 -2v-41zM210 639h-38l-137 116h39l117 -82l118 82h39z" />
    <glyph glyph-name="uni0157" unicode="&#x157;" horiz-adv-x="312" 
d="M298 498q-8 2 -21 2q-87 0 -121 -65t-34 -188v-247h-38v538h36v-116q17 53 59 86t102 33q9 0 17 -2v-41zM84 -49h39v-11q0 -41 -4.5 -67.5t-20.5 -44t-48 -20.5v39q22 5 28 23.5t6 68.5v12z" />
    <glyph glyph-name="sacute" unicode="&#x15b;" horiz-adv-x="428" 
d="M38 21v46q32 -21 67 -32t85 -11q75 0 118 26t43 77q0 31 -13 52t-41.5 37.5t-81.5 38.5l-35 14q-58 24 -94 60t-36 87q0 41 24.5 70.5t64.5 45t84 15.5q80 0 142 -30v-43q-61 36 -143 36q-66 0 -99 -27t-33 -65q0 -36 26 -64t81 -50l35 -14q64 -25 98.5 -48.5t48 -50
t13.5 -63.5q0 -63 -54.5 -102t-146.5 -39q-47 0 -87 9.5t-66 24.5zM318 755h58l-130 -116h-39z" />
    <glyph glyph-name="scaron" unicode="&#x161;" horiz-adv-x="428" 
d="M38 21v46q32 -21 67 -32t85 -11q75 0 118 26t43 77q0 31 -13 52t-41.5 37.5t-81.5 38.5l-35 14q-58 24 -94 60t-36 87q0 41 24.5 70.5t64.5 45t84 15.5q80 0 142 -30v-43q-61 36 -143 36q-66 0 -99 -27t-33 -65q0 -36 26 -64t81 -50l35 -14q64 -25 98.5 -48.5t48 -50
t13.5 -63.5q0 -63 -54.5 -102t-146.5 -39q-47 0 -87 9.5t-66 24.5zM241 639h-38l-137 116h39l117 -82l118 82h39z" />
    <glyph glyph-name="scedilla" unicode="&#x15f;" horiz-adv-x="428" 
d="M38 21v46q32 -21 67 -32t85 -11q75 0 118 26t43 77q0 31 -13 52t-41.5 37.5t-81.5 38.5l-35 14q-58 24 -94 60t-36 87q0 41 24.5 70.5t64.5 45t84 15.5q80 0 142 -30v-43q-61 36 -143 36q-66 0 -99 -27t-33 -65q0 -36 26 -64t81 -50l35 -14q64 -25 98.5 -48.5t48 -50
t13.5 -63.5q0 -63 -54.5 -102t-146.5 -39q-47 0 -87 9.5t-66 24.5zM148 -150q28 -11 55 -11t45 10t18 32q0 20 -14.5 29.5t-36.5 9.5q-25 0 -43 -9l-14 14l48 76h30l-33 -56q13 3 28 3q32 0 52 -17t20 -47q0 -37 -28.5 -55.5t-67.5 -18.5q-37 0 -69 11z" />
    <glyph glyph-name="scircumflex" unicode="&#x15d;" horiz-adv-x="428" 
d="M38 21v46q32 -21 67 -32t85 -11q75 0 118 26t43 77q0 31 -13 52t-41.5 37.5t-81.5 38.5l-35 14q-58 24 -94 60t-36 87q0 41 24.5 70.5t64.5 45t84 15.5q80 0 142 -30v-43q-61 36 -143 36q-66 0 -99 -27t-33 -65q0 -36 26 -64t81 -50l35 -14q64 -25 98.5 -48.5t48 -50
t13.5 -63.5q0 -63 -54.5 -102t-146.5 -39q-47 0 -87 9.5t-66 24.5zM201 755h38l137 -116h-39l-117 82l-118 -82h-39z" />
    <glyph glyph-name="uni0219" unicode="&#x219;" horiz-adv-x="428" 
d="M38 21v46q32 -21 67 -32t85 -11q75 0 118 26t43 77q0 31 -13 52t-41.5 37.5t-81.5 38.5l-35 14q-58 24 -94 60t-36 87q0 41 24.5 70.5t64.5 45t84 15.5q80 0 142 -30v-43q-61 36 -143 36q-66 0 -99 -27t-33 -65q0 -36 26 -64t81 -50l35 -14q64 -25 98.5 -48.5t48 -50
t13.5 -63.5q0 -63 -54.5 -102t-146.5 -39q-47 0 -87 9.5t-66 24.5zM214 -49h39v-11q0 -41 -4.5 -67.5t-20.5 -44t-48 -20.5v39q22 5 28 23.5t6 68.5v12z" />
    <glyph glyph-name="tbar" unicode="&#x167;" horiz-adv-x="291" 
d="M272 -7q-24 -6 -53 -6q-49 0 -77 25.5t-28 87.5v198h-93v34h93v172h-95v34h95v127h39v-127h111v-34h-111v-172h107v-34h-107v-202q0 -41 21 -57.5t47 -16.5q29 0 48 7z" />
    <glyph glyph-name="tcaron" unicode="&#x165;" horiz-adv-x="277" 
d="M104 538v127h39v-127h111v-34h-111v-408q0 -41 21 -57.5t47 -16.5q29 0 48 7l3 -36q-24 -6 -53 -6q-49 0 -77 25.5t-28 87.5v404h-95v34h95zM216 755h45l-48 -170h-26z" />
    <glyph glyph-name="uni0163" unicode="&#x163;" horiz-adv-x="277" 
d="M104 538v127h39v-127h111v-34h-111v-408q0 -41 21 -57.5t47 -16.5q29 0 48 7l3 -36q-24 -6 -53 -6q-49 0 -77 25.5t-28 87.5v404h-95v34h95zM159 -49h39v-11q0 -41 -4.5 -67.5t-20.5 -44t-48 -20.5v39q22 5 28 23.5t6 68.5v12z" />
    <glyph glyph-name="uni021B" unicode="&#x21b;" horiz-adv-x="277" 
d="M104 538v127h39v-127h111v-34h-111v-408q0 -41 21 -57.5t47 -16.5q29 0 48 7l3 -36q-24 -6 -53 -6q-49 0 -77 25.5t-28 87.5v404h-95v34h95zM159 -49h39v-11q0 -41 -4.5 -67.5t-20.5 -44t-48 -20.5v39q22 5 28 23.5t6 68.5v12z" />
    <glyph glyph-name="ubreve" unicode="&#x16d;" horiz-adv-x="557" 
d="M434 120q-20 -56 -64 -94.5t-119 -38.5q-175 0 -175 202v349h39v-336q0 -85 32 -132t112 -47q82 0 128.5 67t46.5 180v268h39v-538h-39v120zM417 755q-5 -57 -41 -88t-101 -31t-101 31t-40 88h36q4 -46 30 -66.5t75 -20.5q48 0 75 20.5t33 66.5h34z" />
    <glyph glyph-name="uhungarumlaut" unicode="&#x171;" horiz-adv-x="557" 
d="M434 120q-20 -56 -64 -94.5t-119 -38.5q-175 0 -175 202v349h39v-336q0 -85 32 -132t112 -47q82 0 128.5 67t46.5 180v268h39v-538h-39v120zM272 755h58l-130 -116h-39zM441 755h58l-130 -116h-39z" />
    <glyph glyph-name="umacron" unicode="&#x16b;" horiz-adv-x="557" 
d="M434 120q-20 -56 -64 -94.5t-119 -38.5q-175 0 -175 202v349h39v-336q0 -85 32 -132t112 -47q82 0 128.5 67t46.5 180v268h39v-538h-39v120zM411 714v-34h-261v34h261z" />
    <glyph glyph-name="uogonek" unicode="&#x173;" horiz-adv-x="557" 
d="M338 -107q0 35 30 65t66 42v120q-20 -56 -64 -94.5t-119 -38.5q-175 0 -175 202v349h39v-336q0 -85 32 -132t112 -47q82 0 128.5 67t46.5 180v268h39v-538q-40 -19 -67 -45.5t-27 -56.5q0 -52 65 -52q13 0 30 5v-34q-15 -5 -45 -5q-36 0 -63.5 22.5t-27.5 58.5z" />
    <glyph glyph-name="uring" unicode="&#x16f;" horiz-adv-x="557" 
d="M434 120q-20 -56 -64 -94.5t-119 -38.5q-175 0 -175 202v349h39v-336q0 -85 32 -132t112 -47q82 0 128.5 67t46.5 180v268h39v-538h-39v120zM365 708q0 -36 -24.5 -59t-61.5 -23t-62 23t-25 59q0 35 25.5 58.5t61.5 23.5t61 -23.5t25 -58.5zM223 708q0 -24 16.5 -39.5
t39.5 -15.5q22 0 38.5 15.5t16.5 39.5t-16.5 39.5t-38.5 15.5q-23 0 -39.5 -15.5t-16.5 -39.5z" />
    <glyph glyph-name="utilde" unicode="&#x169;" horiz-adv-x="557" 
d="M434 120q-20 -56 -64 -94.5t-119 -38.5q-175 0 -175 202v349h39v-336q0 -85 32 -132t112 -47q82 0 128.5 67t46.5 180v268h39v-538h-39v120zM409 748h35q-8 -45 -31 -69.5t-58 -24.5q-21 0 -39 8t-41 24q-23 14 -37.5 20.5t-29.5 6.5q-23 0 -36 -14.5t-18 -44.5h-36
q7 44 31 69t58 25q22 0 40.5 -8t43.5 -24q19 -13 33.5 -19.5t28.5 -6.5q45 0 56 58z" />
    <glyph glyph-name="uni1EE5" unicode="&#x1ee5;" horiz-adv-x="557" 
d="M434 120q-20 -56 -64 -94.5t-119 -38.5q-175 0 -175 202v349h39v-336q0 -85 32 -132t112 -47q82 0 128.5 67t46.5 180v268h39v-538h-39v120zM256 -175v95h39v-95h-39z" />
    <glyph glyph-name="wacute" unicode="&#x1e83;" horiz-adv-x="746" 
d="M220 0h-37l-166 538h44l142 -479l149 479h41l151 -480l140 480h44l-165 -538h-38l-154 483zM475 755h58l-130 -116h-39z" />
    <glyph glyph-name="wcircumflex" unicode="&#x175;" horiz-adv-x="746" 
d="M220 0h-37l-166 538h44l142 -479l149 479h41l151 -480l140 480h44l-165 -538h-38l-154 483zM351 755h38l137 -116h-39l-117 82l-118 -82h-39z" />
    <glyph glyph-name="wdieresis" unicode="&#x1e85;" horiz-adv-x="746" 
d="M220 0h-37l-166 538h44l142 -479l149 479h41l151 -480l140 480h44l-165 -538h-38l-154 483zM282 659h-39v96h39v-96zM461 659v96h40v-96h-40z" />
    <glyph glyph-name="wgrave" unicode="&#x1e81;" horiz-adv-x="746" 
d="M220 0h-37l-166 538h44l142 -479l149 479h41l151 -480l140 480h44l-165 -538h-38l-154 483zM379 639h-39l-130 116h58z" />
    <glyph glyph-name="ycircumflex" unicode="&#x177;" horiz-adv-x="491" 
d="M476 538l-287 -733h-38l77 196l-213 537h44l188 -485l185 485h44zM232 755h38l137 -116h-39l-117 82l-118 -82h-39z" />
    <glyph glyph-name="ygrave" unicode="&#x1ef3;" horiz-adv-x="491" 
d="M476 538l-287 -733h-38l77 196l-213 537h44l188 -485l185 485h44zM292 639h-39l-130 116h58z" />
    <glyph glyph-name="uni0233" unicode="&#x233;" horiz-adv-x="491" 
d="M476 538l-287 -733h-38l77 196l-213 537h44l188 -485l185 485h44zM382 714v-34h-261v34h261z" />
    <glyph glyph-name="zacute" unicode="&#x17a;" horiz-adv-x="448" 
d="M425 0h-404v33l353 471h-330v34h375v-33l-353 -471h359v-34zM314 755h58l-130 -116h-39z" />
    <glyph glyph-name="zcaron" unicode="&#x17e;" horiz-adv-x="448" 
d="M425 0h-404v33l353 471h-330v34h375v-33l-353 -471h359v-34zM270 639h-38l-137 116h39l117 -82l118 82h39z" />
    <glyph glyph-name="zdotaccent" unicode="&#x17c;" horiz-adv-x="448" 
d="M425 0h-404v33l353 471h-330v34h375v-33l-353 -471h359v-34zM224 659v96h39v-96h-39z" />
    <glyph glyph-name="uni0259" unicode="&#x259;" horiz-adv-x="529" 
d="M445 270q-3 76 -32.5 130.5t-79 82.5t-110.5 28q-47 0 -86 -10t-63 -26v39q28 15 66 24t83 9q75 0 135 -35.5t93.5 -100t33.5 -148.5q0 -82 -30 -145t-82 -97t-117 -34q-70 0 -120 36t-76 100t-25 147h410zM445 236h-368q4 -94 50 -154t129 -60q49 0 91 25.5t68.5 74
t29.5 114.5z" />
    <glyph glyph-name="uni0410" unicode="&#x410;" horiz-adv-x="633" 
d="M619 0h-44l-88 230h-341l-88 -230h-43l280 725h43zM316 676l-156 -408h312z" />
    <glyph glyph-name="uni0411" unicode="&#x411;" horiz-adv-x="607" 
d="M135 687v-272h194q119 0 180.5 -48.5t61.5 -153.5q0 -107 -62 -160t-181 -53h-234v725h425v-38h-384zM327 38q100 0 150 44.5t50 129.5q0 91 -49.5 128t-156.5 37h-186v-339h192z" />
    <glyph glyph-name="uni0412" unicode="&#x412;" horiz-adv-x="619" 
d="M94 0v725h208q111 0 174.5 -40.5t63.5 -138.5q0 -63 -25 -103t-86 -62q70 -15 106 -57.5t36 -120.5q0 -104 -65.5 -153.5t-177.5 -49.5h-234zM135 688v-293h182q86 0 133 35t47 113q0 77 -49.5 111t-139.5 34h-173zM135 358v-320h192q99 0 149.5 42t50.5 122
q0 82 -50 119t-156 37h-186z" />
    <glyph glyph-name="uni0413" unicode="&#x413;" horiz-adv-x="525" 
d="M94 725h409v-38h-368v-687h-41v725z" />
    <glyph glyph-name="uni0414" unicode="&#x414;" horiz-adv-x="714" 
d="M684 38v-195h-41v157h-591v-157h-41v195h55q33 38 57.5 153t31.5 286l10 248h433v-687h86zM557 38v649h-355l-8 -211q-7 -173 -27.5 -279.5t-48.5 -158.5h439z" />
    <glyph glyph-name="uni0415" unicode="&#x415;" horiz-adv-x="553" 
d="M508 0h-414v725h414v-38h-373v-292h348v-38h-348v-319h373v-38z" />
    <glyph glyph-name="uni0401" unicode="&#x401;" horiz-adv-x="553" 
d="M508 0h-414v725h414v-38h-373v-292h348v-38h-348v-319h373v-38zM178 781v96h41v-96h-41zM394 781v96h42v-96h-42z" />
    <glyph glyph-name="uni0416" unicode="&#x416;" horiz-adv-x="870" 
d="M415 366v359h41v-359l348 359h47l-352 -366l371 -359h-57l-357 344v-344h-41v344l-357 -344h-55l369 355l-358 370h53z" />
    <glyph glyph-name="uni0417" unicode="&#x417;" horiz-adv-x="547" 
d="M38 30v45q39 -24 90.5 -36.5t110.5 -12.5q100 0 159.5 46t59.5 122q0 164 -206 164h-85v38h83q83 0 129.5 39t46.5 114q0 71 -47 110.5t-132 39.5q-111 0 -191 -48v44q84 43 190 43q108 0 165 -49t57 -143q0 -58 -28.5 -99.5t-83.5 -63.5q71 -19 107.5 -63.5t36.5 -124.5
q0 -102 -71.5 -155t-187.5 -53q-117 0 -203 43z" />
    <glyph glyph-name="uni0418" unicode="&#x418;" horiz-adv-x="721" 
d="M135 62l451 663h41v-725h-41v663l-451 -663h-41v725h41v-663z" />
    <glyph glyph-name="uni0419" unicode="&#x419;" horiz-adv-x="721" 
d="M135 62l451 663h41v-725h-41v663l-451 -663h-41v725h41v-663zM503 886q-3 -56 -40 -86.5t-103 -30.5q-64 0 -101 30.5t-40 86.5h40q8 -85 102 -85t102 85h40z" />
    <glyph glyph-name="uni041A" unicode="&#x41a;" horiz-adv-x="594" 
d="M94 725h41v-359l393 359h52l-403 -366l421 -359h-61l-402 344v-344h-41v725z" />
    <glyph glyph-name="uni041B" unicode="&#x41b;" horiz-adv-x="679" 
d="M585 0h-41v687h-340l-12 -300q-5 -137 -19 -221.5t-44 -130t-82 -45.5q-23 0 -39 8v41q16 -8 38 -8q53 0 76.5 88.5t30.5 267.5l14 338h418v-725z" />
    <glyph glyph-name="uni041C" unicode="&#x41c;" horiz-adv-x="814" 
d="M679 685l-252 -455h-40l-252 455v-685h-41v725h64l249 -449l249 449h64v-725h-41v685z" />
    <glyph glyph-name="uni041D" unicode="&#x41d;" horiz-adv-x="711" 
d="M576 395v330h41v-725h-41v357h-441v-357h-41v725h41v-330h441z" />
    <glyph glyph-name="uni041E" unicode="&#x41e;" horiz-adv-x="761" 
d="M380 -13q-101 0 -175.5 48t-114.5 133t-40 195t40 195t114.5 132.5t175.5 47.5q100 0 175 -46.5t115.5 -131.5t40.5 -197t-40.5 -197t-115.5 -132t-175 -47zM380 26q83 0 148 40t102 116t37 181t-37 181t-102 115.5t-148 39.5q-82 0 -147 -39.5t-102 -115.5t-37 -181
t37 -181t102 -116t147 -40z" />
    <glyph glyph-name="uni041F" unicode="&#x41f;" horiz-adv-x="696" 
d="M602 725v-725h-41v687h-426v-687h-41v725h508z" />
    <glyph glyph-name="uni0420" unicode="&#x420;" horiz-adv-x="591" 
d="M268 725q141 0 216.5 -46t75.5 -163t-75 -162t-217 -45h-133v-309h-41v725h174zM135 687v-340h137q77 0 129.5 13t84 50.5t31.5 105.5q0 100 -63.5 135.5t-181.5 35.5h-137z" />
    <glyph glyph-name="uni0421" unicode="&#x421;" horiz-adv-x="616" 
d="M411 26q99 0 177 33v-41q-84 -31 -177 -31q-102 0 -184.5 47t-130 132t-47.5 197q0 111 47.5 196.5t131 132t187.5 46.5q99 0 172 -30v-41q-33 15 -78 23.5t-95 8.5q-90 0 -163 -40t-115.5 -116.5t-42.5 -181.5t42.5 -180.5t115 -115t160.5 -39.5z" />
    <glyph glyph-name="uni0422" unicode="&#x422;" horiz-adv-x="552" 
d="M296 0h-41v687h-233v38h508v-38h-234v-687z" />
    <glyph glyph-name="uni0423" unicode="&#x423;" horiz-adv-x="619" 
d="M131 0v43q28 -18 65 -18q35 0 58.5 17t37.5 51l13 30l-279 602h46l254 -550l235 550h44l-272 -635q-44 -104 -137 -104q-40 0 -65 14z" />
    <glyph glyph-name="uni0424" unicode="&#x424;" horiz-adv-x="851" 
d="M446 671q118 0 199 -40t121 -109.5t40 -158.5q0 -85 -40.5 -153t-121.5 -108t-198 -40v-82h-41v82q-117 0 -198 40t-121.5 108t-40.5 153q0 89 40 158.5t121 109.5t199 40v74h41v-74zM405 632q-150 0 -233 -71.5t-83 -197.5q0 -80 37.5 -139t108.5 -91t170 -32v531z
M446 101q99 0 170 32t108.5 91t37.5 139q0 126 -83 197.5t-233 71.5v-531z" />
    <glyph glyph-name="uni0425" unicode="&#x425;" horiz-adv-x="619" 
d="M51 0h-49l282 376l-260 349h50l236 -315l236 315h50l-262 -348l282 -377h-51l-256 343z" />
    <glyph glyph-name="uni0426" unicode="&#x426;" horiz-adv-x="713" 
d="M597 38h86v-195h-41v157h-548v725h41v-687h421v687h41v-687z" />
    <glyph glyph-name="uni0427" unicode="&#x427;" horiz-adv-x="630" 
d="M536 725v-725h-41v319q-80 -16 -189 -16q-131 0 -194.5 50.5t-63.5 161.5v210h41v-210q0 -98 56.5 -136t161.5 -38q106 0 188 16v368h41z" />
    <glyph glyph-name="uni0428" unicode="&#x428;" horiz-adv-x="983" 
d="M889 725v-725h-795v725h41v-687h336v687h41v-687h336v687h41z" />
    <glyph glyph-name="uni0429" unicode="&#x429;" horiz-adv-x="1005" 
d="M889 38h86v-195h-41v157h-840v725h41v-687h336v687h41v-687h336v687h41v-687z" />
    <glyph glyph-name="uni042A" unicode="&#x42a;" horiz-adv-x="709" 
d="M225 0v687h-213v38h254v-289h118q94 0 157 -18t99 -66t36 -133q0 -123 -75.5 -171t-216.5 -48h-159zM388 38q117 0 181 38t64 143q0 73 -31.5 112.5t-84 53t-129.5 13.5h-122v-360h122z" />
    <glyph glyph-name="uni042B" unicode="&#x42b;" horiz-adv-x="807" 
d="M94 0v725h41v-289h132q94 0 157 -18t99 -66t36 -133q0 -123 -75.5 -171t-216.5 -48h-173zM713 725v-725h-41v725h41zM271 38q117 0 181 38t64 143q0 73 -31.5 112.5t-84 53t-129.5 13.5h-136v-360h136z" />
    <glyph glyph-name="uni042C" unicode="&#x42c;" horiz-adv-x="593" 
d="M94 0v725h41v-289h133q94 0 157 -18t99 -66t36 -133q0 -123 -75.5 -171t-216.5 -48h-174zM272 38q117 0 181 38t64 143q0 73 -31.5 112.5t-84 53t-129.5 13.5h-137v-360h137z" />
    <glyph glyph-name="uni042D" unicode="&#x42d;" horiz-adv-x="632" 
d="M582 363q0 -110 -40.5 -195t-120.5 -133t-194 -48q-62 0 -115.5 11t-83.5 29v45q32 -21 85.5 -33.5t110.5 -12.5q96 0 166.5 40t109 114.5t39.5 176.5h-406v38h405q-8 143 -89.5 224t-216.5 81q-56 0 -106.5 -13t-88.5 -34v45q35 18 85.5 29.5t109.5 11.5q110 0 189 -48
t120 -133t41 -195z" />
    <glyph glyph-name="uni042E" unicode="&#x42e;" horiz-adv-x="1011" 
d="M961 363q0 -112 -40.5 -197t-115.5 -132t-175 -47q-95 0 -167 47t-112 131t-41 192h-175v-357h-41v725h41v-330h176q5 101 46 179t111.5 121t161.5 43q100 0 175 -46.5t115.5 -131.5t40.5 -197zM917 363q0 105 -37 181t-102 115.5t-148 39.5q-77 0 -140 -40t-99.5 -116
t-36.5 -180t36.5 -180.5t99.5 -116.5t140 -40q83 0 148 40t102 116t37 181z" />
    <glyph glyph-name="uni042F" unicode="&#x42f;" horiz-adv-x="617" 
d="M523 0h-41v315h-201l-206 -315h-49l213 323q-175 32 -175 195q0 114 75.5 160.5t214.5 46.5h169v-725zM350 687q-76 0 -128.5 -13t-83.5 -50t-31 -106q0 -96 63.5 -130.5t179.5 -34.5h132v334h-132z" />
    <glyph glyph-name="uni0402" unicode="&#x402;" horiz-adv-x="741" 
d="M286 0h-41v687h-233v38h548v-38h-274v-269q91 24 171 24q112 0 175 -60.5t63 -172.5q0 -127 -62.5 -202.5t-164.5 -120.5l-16 35q93 45 146.5 110t53.5 179q0 99 -53.5 146.5t-141.5 47.5q-82 0 -171 -26v-378z" />
    <glyph glyph-name="uni0403" unicode="&#x403;" horiz-adv-x="525" 
d="M94 725h409v-38h-368v-687h-41v725zM398 886h63l-144 -113h-43z" />
    <glyph glyph-name="uni0404" unicode="&#x404;" horiz-adv-x="632" 
d="M604 68v-45q-35 -16 -90.5 -26t-118.5 -10q-110 0 -188 48t-117.5 133t-39.5 195t41 195t121 133t194 48q58 0 107.5 -9.5t81.5 -25.5v-45q-32 19 -84 30t-111 11q-135 0 -216.5 -81t-89.5 -224h405v-38h-406q1 -102 38 -176.5t105.5 -114.5t161.5 -40q58 0 115.5 12
t90.5 30z" />
    <glyph glyph-name="uni0405" unicode="&#x405;" horiz-adv-x="544" 
d="M42 33v51q42 -28 88 -42.5t111 -14.5q100 0 160 36.5t60 111.5q0 42 -19.5 71.5t-59 54t-108.5 51.5l-46 18q-170 67 -170 193q0 54 32 94t84 60.5t109 20.5q108 0 186 -40v-48q-78 49 -186 49q-90 0 -136.5 -37.5t-46.5 -96.5q0 -54 37 -92t112 -67l46 -18
q85 -33 130 -63t62.5 -64.5t17.5 -83.5q0 -56 -31.5 -99t-89.5 -67t-134 -24q-66 0 -120 12.5t-88 33.5z" />
    <glyph glyph-name="uni0406" unicode="&#x406;" horiz-adv-x="387" 
d="M354 38v-38h-321v38h140v649h-140v38h321v-38h-140v-649h140z" />
    <glyph glyph-name="uni0407" unicode="&#x407;" horiz-adv-x="387" 
d="M354 38v-38h-321v38h140v649h-140v38h321v-38h-140v-649h140zM65 781v96h41v-96h-41zM281 781v96h42v-96h-42z" />
    <glyph glyph-name="uni0408" unicode="&#x408;" horiz-adv-x="290" 
d="M31 -7l3 40q19 -7 51 -7q28 0 50.5 15t22.5 55v591h-116v38h157v-625q0 -61 -32 -87t-83 -26q-29 0 -53 6z" />
    <glyph glyph-name="uni0409" unicode="&#x409;" horiz-adv-x="956" 
d="M167 725h367v-289h98q92 0 155 -18t99.5 -66t37.5 -133q-2 -122 -77.5 -170.5t-214.5 -48.5h-139v687h-289l-12 -300q-5 -137 -19 -221.5t-44 -130t-82 -45.5q-25 0 -39 8v41q14 -8 38 -8q53 0 76.5 88.5t30.5 267.5zM636 38q116 0 180.5 38.5t64.5 146.5
q0 103 -64.5 139t-180.5 36h-102v-360h102z" />
    <glyph glyph-name="uni040A" unicode="&#x40a;" horiz-adv-x="945" 
d="M621 426q94 0 157 -17.5t99 -64t36 -130.5q0 -120 -75.5 -167t-216.5 -47h-140v388h-346v-388h-41v725h41v-299h346v299h41v-299h99zM625 38q117 0 181 37t64 139q0 71 -31.5 109t-84 51.5t-129.5 13.5h-103v-350h103z" />
    <glyph glyph-name="uni040B" unicode="&#x40b;" horiz-adv-x="742" 
d="M693 233v-233h-41v230q0 91 -52.5 132.5t-142.5 41.5q-71 0 -171 -25v-379h-41v687h-233v38h548v-38h-274v-269q101 24 176 24q113 0 172 -52t59 -157z" />
    <glyph glyph-name="uni040C" unicode="&#x40c;" horiz-adv-x="594" 
d="M94 725h41v-359l393 359h52l-403 -366l421 -359h-61l-402 344v-344h-41v725zM391 886h63l-144 -113h-43z" />
    <glyph glyph-name="uni040E" unicode="&#x40e;" horiz-adv-x="619" 
d="M131 0v43q28 -18 65 -18q35 0 58.5 17t37.5 51l13 30l-279 602h46l254 -550l235 550h44l-272 -635q-44 -104 -137 -104q-40 0 -65 14zM473 886q-3 -56 -40 -86.5t-103 -30.5q-64 0 -101 30.5t-40 86.5h40q8 -85 102 -85t102 85h40z" />
    <glyph glyph-name="uni040F" unicode="&#x40f;" horiz-adv-x="691" 
d="M597 0h-231v-157h-41v157h-231v725h41v-687h421v687h41v-725z" />
    <glyph glyph-name="uni0490" unicode="&#x490;" horiz-adv-x="525" 
d="M503 882v-195h-368v-687h-41v725h368v157h41z" />
    <glyph glyph-name="uni0462" unicode="&#x462;" horiz-adv-x="674" 
d="M348 416q94 0 157 -17t99 -62.5t36 -127.5q0 -117 -75.5 -163t-216.5 -46h-159v578h-164v38h164v109h41v-109h236v-38h-236v-162h118zM352 38q117 0 181 35.5t64 135.5q0 69 -31.5 106t-84 50t-129.5 13h-122v-340h122z" />
    <glyph glyph-name="uni0472" unicode="&#x472;" horiz-adv-x="761" 
d="M711 363q0 -112 -40.5 -197t-115.5 -132t-175 -47q-101 0 -175.5 48t-114.5 133t-40 195t40 195t114.5 132.5t175.5 47.5q100 0 175 -46.5t115.5 -131.5t40.5 -197zM94 375q44 43 130 43q39 0 74.5 -9.5t92.5 -29.5q49 -18 83.5 -27.5t68.5 -9.5q46 0 78.5 13.5
t44.5 41.5q-6 95 -44 163t-101 103.5t-141 35.5q-81 0 -145 -38t-101.5 -111t-39.5 -175zM667 346q-42 -41 -125 -41q-38 0 -74.5 9.5t-92.5 29.5q-49 18 -83.5 27.5t-68.5 9.5q-47 0 -81.5 -14t-46.5 -42q7 -94 45.5 -161.5t100.5 -102.5t139 -35q81 0 144.5 37.5
t101.5 110t41 172.5z" />
    <glyph glyph-name="uni0474" unicode="&#x474;" horiz-adv-x="726" 
d="M555 590l-223 -590h-43l-274 725h45l252 -670l203 544q29 76 61 106t81 30q27 0 43 -8v-41q-19 8 -43 8q-37 0 -58.5 -23t-43.5 -81z" />
    <glyph glyph-name="uni0492" unicode="&#x492;" horiz-adv-x="538" 
d="M516 687h-368v-297h201v-38h-201v-352h-41v352h-92v38h92v335h409v-38z" />
    <glyph glyph-name="uni0496" unicode="&#x496;" horiz-adv-x="885" 
d="M858 -157v157h-45l-357 344v-344h-41v344l-357 -344h-55l369 355l-358 370h53l348 -359v359h41v-359l348 359h47l-352 -366l332 -321h68v-195h-41z" />
    <glyph glyph-name="uni049A" unicode="&#x49a;" horiz-adv-x="608" 
d="M94 725h41v-359l393 359h52l-403 -366l377 -321h70v-195h-41v157h-45l-403 344v-344h-41v725z" />
    <glyph glyph-name="uni04A2" unicode="&#x4a2;" horiz-adv-x="733" 
d="M617 38h86v-195h-41v157h-86v357h-441v-357h-41v725h41v-330h441v330h41v-687z" />
    <glyph glyph-name="uni04AE" unicode="&#x4ae;" horiz-adv-x="601" 
d="M279 275l-259 450h46l234 -407l238 407h47l-265 -451v-274h-41v275z" />
    <glyph glyph-name="uni04B0" unicode="&#x4b0;" horiz-adv-x="603" 
d="M539 725h47l-264 -450h132v-38h-133v-237h-41v237h-133v38h133l-259 450h46l234 -407z" />
    <glyph glyph-name="uni04B2" unicode="&#x4b2;" horiz-adv-x="638" 
d="M51 0h-49l282 376l-260 349h50l236 -315l236 315h50l-262 -348l254 -339h69v-195h-41v157h-51l-256 343z" />
    <glyph glyph-name="uni04B6" unicode="&#x4b6;" horiz-adv-x="652" 
d="M622 38v-195h-41v157h-86v319q-50 -11 -93 -13.5t-97 -2.5q-132 0 -194.5 52t-62.5 161v209h41v-210q0 -92 54 -133t153 -41q57 0 104 3t95 13v368h41v-687h86z" />
    <glyph glyph-name="uni04BA" unicode="&#x4ba;" horiz-adv-x="631" 
d="M94 0v725h41v-306q45 11 96 17t93 6q131 0 194.5 -50.5t63.5 -161.5v-230h-41v230q0 98 -56.5 136t-161.5 38q-41 0 -92.5 -6.5t-95.5 -17.5v-380h-41z" />
    <glyph glyph-name="uni04C0" unicode="&#x4c0;" horiz-adv-x="377" 
d="M350 38v-38h-321v38h140v649h-140v38h321v-38h-140v-649h140z" />
    <glyph glyph-name="uni04D8" unicode="&#x4d8;" horiz-adv-x="676" 
d="M37 358h545q-2 103 -43 180.5t-108.5 119t-147.5 41.5q-51 0 -102 -12.5t-93 -33.5v42q94 43 195 43q98 0 176.5 -48.5t122.5 -135.5t44 -197q0 -109 -39 -193.5t-107.5 -130.5t-153.5 -46q-91 0 -157 47t-100 131t-32 193zM582 320h-499q3 -81 32.5 -148t83.5 -106.5
t127 -39.5q66 0 123 37t93 104.5t40 152.5z" />
    <glyph glyph-name="uni04E2" unicode="&#x4e2;" horiz-adv-x="721" 
d="M135 62l451 663h41v-725h-41v663l-451 -663h-41v725h41v-663zM496 851v-38h-271v38h271z" />
    <glyph glyph-name="uni04E8" unicode="&#x4e8;" horiz-adv-x="761" 
d="M380 -13q-101 0 -175.5 48t-114.5 133t-40 195t40 195t114.5 132.5t175.5 47.5q100 0 175 -46.5t115.5 -131.5t40.5 -197t-40.5 -197t-115.5 -132t-175 -47zM95 395h571q-6 95 -44 164t-100.5 104.5t-141.5 35.5q-78 0 -140.5 -35.5t-100.5 -104.5t-44 -164zM667 357
h-573q1 -103 38.5 -178t102 -114t145.5 -39q82 0 147.5 39.5t102.5 114.5t37 177z" />
    <glyph glyph-name="uni04EE" unicode="&#x4ee;" horiz-adv-x="619" 
d="M131 0v43q28 -18 65 -18q35 0 58.5 17t37.5 51l13 30l-279 602h46l254 -550l235 550h44l-272 -635q-44 -104 -137 -104q-40 0 -65 14zM452 851v-38h-271v38h271z" />
    <glyph glyph-name="uni0430" unicode="&#x430;" horiz-adv-x="517" 
d="M403 335q0 75 -23 113.5t-56.5 50.5t-77.5 12q-48 0 -93 -15.5t-73 -34.5v39q29 18 76 32.5t92 14.5q90 0 141 -44t51 -154l-1 -164q0 -110 8 -185h-39l-5 105q-25 -58 -76.5 -88t-120.5 -30q-45 0 -85 18t-64.5 53t-24.5 82q0 87 96.5 131.5t274.5 63.5zM403 238v63
q-163 -17 -246 -54t-83 -107q0 -54 41 -85.5t98 -31.5q79 0 134.5 51t55.5 164z" />
    <glyph glyph-name="uni0431" unicode="&#x431;" horiz-adv-x="592" 
d="M547 260q0 -130 -64.5 -201.5t-173.5 -71.5q-110 0 -176 70.5t-66 202.5v82q0 177 62 274.5t208 111.5q53 5 93 11.5t69 18.5v-36q-48 -18 -159 -29q-87 -9 -137 -49t-70 -102t-24 -150q24 67 80 100t126 33q64 0 117 -30t84 -90t31 -145zM506 258q0 113 -50.5 172
t-142.5 59q-94 0 -149.5 -57.5t-55.5 -172.5q0 -112 55.5 -174t146.5 -62q92 0 144 61t52 174z" />
    <glyph glyph-name="uni0432" unicode="&#x432;" horiz-adv-x="514" 
d="M262 538q187 0 187 -134q0 -92 -83 -125q48 -11 76.5 -43t28.5 -86q0 -76 -53 -113t-137 -37h-197v538h178zM272 291q64 0 99 26t35 85q0 102 -140 102h-143v-213h149zM123 257v-223h157q72 0 110 30.5t38 84.5q0 56 -37.5 82t-115.5 26h-152z" />
    <glyph glyph-name="uni0433" unicode="&#x433;" horiz-adv-x="428" 
d="M403 538v-34h-280v-504h-39v538h319z" />
    <glyph glyph-name="uni0434" unicode="&#x434;" horiz-adv-x="565" 
d="M533 34v-178h-39v144h-449v-144h-39v178h46q54 56 63 261l11 243h341v-504h66zM428 34v470h-266l-10 -211q-10 -198 -53 -259h329z" />
    <glyph glyph-name="uni0435" unicode="&#x435;" horiz-adv-x="529" 
d="M84 264q3 -76 32.5 -130.5t79 -82.5t110.5 -28q47 0 86 10t63 26v-39q-28 -15 -66 -24t-83 -9q-75 0 -135 35.5t-93.5 100t-33.5 148.5q0 82 30 145t82 97t117 34q70 0 120 -36t76 -100t25 -147h-410zM84 298h368q-4 94 -50 154t-129 60q-49 0 -91 -25.5t-68.5 -74
t-29.5 -114.5z" />
    <glyph glyph-name="uni0451" unicode="&#x451;" horiz-adv-x="529" 
d="M84 264q3 -76 32.5 -130.5t79 -82.5t110.5 -28q47 0 86 10t63 26v-39q-28 -15 -66 -24t-83 -9q-75 0 -135 35.5t-93.5 100t-33.5 148.5q0 82 30 145t82 97t117 34q70 0 120 -36t76 -100t25 -147h-410zM84 298h368q-4 94 -50 154t-129 60q-49 0 -91 -25.5t-68.5 -74
t-29.5 -114.5zM177 659h-39v96h39v-96zM356 659v96h40v-96h-40z" />
    <glyph glyph-name="uni0436" unicode="&#x436;" horiz-adv-x="705" 
d="M333 538h39v-261l260 261h49l-266 -267l287 -271h-55l-275 260v-260h-39v259l-275 -259h-53l285 267l-270 271h53l260 -261v261z" />
    <glyph glyph-name="uni0437" unicode="&#x437;" horiz-adv-x="458" 
d="M29 22v46q26 -18 70.5 -31t96.5 -13q79 0 129 30.5t50 92.5q0 116 -161 116h-85v34h82q66 0 103 26.5t37 78.5q0 57 -38.5 82.5t-102.5 25.5q-97 0 -167 -45v44q73 38 171 38q80 0 129.5 -38.5t49.5 -104.5q0 -86 -83 -121q50 -12 78.5 -46.5t28.5 -89.5
q0 -81 -61.5 -120.5t-155.5 -39.5q-56 0 -100.5 9.5t-70.5 25.5z" />
    <glyph glyph-name="uni0438" unicode="&#x438;" horiz-adv-x="582" 
d="M498 538v-538h-39v477l-336 -477h-39v538h39v-477l336 477h39z" />
    <glyph glyph-name="uni0439" unicode="&#x439;" horiz-adv-x="582" 
d="M498 538v-538h-39v477l-336 -477h-39v538h39v-477l336 477h39zM149 755h37q4 -46 30 -67t74 -21t74.5 21t32.5 67h35q-5 -57 -41 -88t-101 -31t-101 31t-40 88z" />
    <glyph glyph-name="uni043A" unicode="&#x43a;" horiz-adv-x="473" 
d="M84 0v538h39v-261l283 261h49l-289 -267l311 -271h-56l-298 260v-260h-39z" />
    <glyph glyph-name="uni043B" unicode="&#x43b;" horiz-adv-x="552" 
d="M10 2v39q21 -7 39 -7q37 0 55.5 51.5t23.5 163.5l13 289h327v-538h-39v504h-252l-12 -257q-6 -131 -32.5 -191.5t-83.5 -60.5q-21 0 -39 7z" />
    <glyph glyph-name="uni043C" unicode="&#x43c;" horiz-adv-x="690" 
d="M346 181l208 357h52v-538h-39v489l-203 -350h-38l-203 343v-482h-39v538h51z" />
    <glyph glyph-name="uni043D" unicode="&#x43d;" horiz-adv-x="572" 
d="M488 538v-538h-39v257h-326v-257h-39v538h39v-247h326v247h39z" />
    <glyph glyph-name="uni043E" unicode="&#x43e;" horiz-adv-x="570" 
d="M285 547q68 0 122.5 -31.5t86 -94.5t31.5 -154q0 -92 -31.5 -155t-86 -94t-122.5 -31t-122.5 31t-86 94t-31.5 155q0 91 31.5 154t86 94.5t122.5 31.5zM285 23q90 0 144.5 62.5t54.5 181.5q0 118 -54.5 181t-144.5 63t-144.5 -63t-54.5 -181q0 -119 54.5 -181.5
t144.5 -62.5z" />
    <glyph glyph-name="uni043F" unicode="&#x43f;" horiz-adv-x="567" 
d="M84 538h399v-538h-39v504h-321v-504h-39v538z" />
    <glyph glyph-name="uni0440" unicode="&#x440;" horiz-adv-x="590" 
d="M84 538h39v-119q25 60 76 94t118 34q64 0 116 -33.5t82 -96.5t30 -150t-30 -150.5t-82 -96.5t-116 -33q-67 0 -118 34t-76 94v-310h-39v733zM312 23q54 0 97.5 28.5t69 83.5t25.5 132t-25.5 132t-69 83.5t-97.5 28.5q-50 0 -94 -25.5t-71.5 -80.5t-27.5 -138t27.5 -138
t71.5 -80.5t94 -25.5z" />
    <glyph glyph-name="uni0441" unicode="&#x441;" horiz-adv-x="461" 
d="M295 23q85 0 131 28v-38q-49 -26 -131 -26q-70 0 -127.5 35t-90.5 98.5t-33 146.5t33.5 146.5t92 98.5t130.5 35q75 0 126 -24v-37q-23 12 -56.5 18.5t-70.5 6.5q-59 0 -107.5 -28t-77.5 -83.5t-29 -133.5q0 -77 29 -132t76.5 -83t104.5 -28z" />
    <glyph glyph-name="uni0442" unicode="&#x442;" horiz-adv-x="499" 
d="M474 538v-34h-205v-504h-39v504h-205v34h449z" />
    <glyph glyph-name="uni0443" unicode="&#x443;" horiz-adv-x="491" 
d="M476 538l-287 -733h-38l77 196l-213 537h44l188 -485l185 485h44z" />
    <glyph glyph-name="uni0444" unicode="&#x444;" horiz-adv-x="669" 
d="M354 545q122 -6 196 -76t74 -202q0 -133 -74.5 -202.5t-195.5 -75.5v-184h-39v184q-121 6 -195.5 75.5t-74.5 202.5q0 132 74.5 202t195.5 76v210h39v-210zM315 509q-105 -6 -167.5 -67t-62.5 -175q0 -115 62.5 -176t167.5 -66v484zM354 25q105 5 167.5 66t62.5 176
q0 114 -62 175t-168 67v-484z" />
    <glyph glyph-name="uni0445" unicode="&#x445;" horiz-adv-x="476" 
d="M409 538h46l-194 -260l208 -278h-48l-184 246l-183 -246h-46l206 277l-194 261h47l171 -230z" />
    <glyph glyph-name="uni0446" unicode="&#x446;" horiz-adv-x="581" 
d="M483 538v-504h66v-178h-39v144h-426v538h39v-504h321v504h39z" />
    <glyph glyph-name="uni0447" unicode="&#x447;" horiz-adv-x="504" 
d="M420 0h-39v241q-78 -14 -155 -14q-96 0 -140.5 39t-44.5 124v148h39v-134q0 -78 34.5 -109.5t120.5 -31.5q77 0 146 13v262h39v-538z" />
    <glyph glyph-name="uni0448" unicode="&#x448;" horiz-adv-x="817" 
d="M694 538h39v-538h-649v538h39v-504h266v504h39v-504h266v504z" />
    <glyph glyph-name="uni0449" unicode="&#x449;" horiz-adv-x="831" 
d="M733 34h66v-178h-39v144h-676v538h39v-504h266v504h39v-504h266v504h39v-504z" />
    <glyph glyph-name="uni044A" unicode="&#x44a;" horiz-adv-x="565" 
d="M351 331q94 0 138.5 -40t44.5 -120q0 -90 -52 -130.5t-138 -40.5h-181v504h-150v34h189v-207h149zM343 34q148 0 148 136q0 69 -37 98t-116 29h-136v-263h141z" />
    <glyph glyph-name="uni044B" unicode="&#x44b;" horiz-adv-x="664" 
d="M84 0v538h39v-207h143q94 0 138.5 -40t44.5 -120q0 -90 -52 -130.5t-138 -40.5h-175zM580 538v-538h-39v538h39zM123 297v-263h135q148 0 148 136q0 69 -37 98t-116 29h-130z" />
    <glyph glyph-name="uni044C" unicode="&#x44c;" horiz-adv-x="494" 
d="M280 331q94 0 138.5 -40t44.5 -120q0 -90 -52 -130.5t-138 -40.5h-189v538h39v-207h157zM272 34q148 0 148 136q0 69 -37 98t-116 29h-144v-263h149z" />
    <glyph glyph-name="uni044D" unicode="&#x44d;" horiz-adv-x="474" 
d="M430 267q0 -82 -32.5 -145.5t-90 -99t-130.5 -35.5q-45 0 -82 8t-62 23v41q25 -15 63 -25.5t81 -10.5q59 0 106.5 27t76.5 80t31 127h-264v34h263q-6 105 -63.5 162.5t-147.5 57.5q-83 0 -137 -30v40q57 26 137 26q75 0 132 -35.5t88 -99t31 -145.5z" />
    <glyph glyph-name="uni044E" unicode="&#x44e;" horiz-adv-x="763" 
d="M718 267q0 -92 -32 -155t-86.5 -94t-122.5 -31q-63 0 -113 30t-80 90.5t-32 149.5h-129v-257h-39v538h39v-247h130q4 84 34 141.5t79.5 86t110.5 28.5q68 0 122.5 -31.5t86.5 -94.5t32 -154zM676 267q0 118 -54.5 181t-144.5 63q-83 0 -133.5 -63t-50.5 -181
q0 -119 50.5 -181.5t133.5 -62.5q90 0 144.5 62.5t54.5 181.5z" />
    <glyph glyph-name="uni044F" unicode="&#x44f;" horiz-adv-x="510" 
d="M426 538v-538h-39v212h-170l-144 -212h-46l149 220q-58 16 -90.5 54.5t-32.5 98.5q0 80 53 122.5t136 42.5h184zM243 504q-72 0 -110 -36t-38 -96q0 -65 43.5 -95.5t119.5 -30.5h129v258h-144z" />
    <glyph glyph-name="uni0452" unicode="&#x452;" horiz-adv-x="569" 
d="M493 89q0 -151 -41.5 -223t-132.5 -72q-31 0 -46 4v35q21 -4 46 -4q69 1 102 62.5t33 197.5v243q0 86 -33 132.5t-116 46.5q-85 0 -133.5 -67t-48.5 -180v-264h-39v622h-83v34h83v99h39v-99h170v-34h-170v-208q20 56 66.5 94.5t123.5 38.5q180 0 180 -202v-256z" />
    <glyph glyph-name="uni0453" unicode="&#x453;" horiz-adv-x="428" 
d="M403 538v-34h-280v-504h-39v538h319zM320 755h58l-130 -116h-39z" />
    <glyph glyph-name="uni0454" unicode="&#x454;" horiz-adv-x="475" 
d="M441 54v-39q-61 -28 -144 -28q-77 0 -134.5 35t-88 98.5t-30.5 146.5t31.5 146.5t91 98.5t140.5 35q77 0 129 -26v-40q-47 30 -129 30q-98 0 -157.5 -57t-65.5 -163h263v-34h-264q3 -112 61 -173t153 -61q91 0 144 31z" />
    <glyph glyph-name="uni0455" unicode="&#x455;" horiz-adv-x="428" 
d="M38 21v46q32 -21 67 -32t85 -11q75 0 118 26t43 77q0 31 -13 52t-41.5 37.5t-81.5 38.5l-35 14q-58 24 -94 60t-36 87q0 41 24.5 70.5t64.5 45t84 15.5q80 0 142 -30v-43q-61 36 -143 36q-66 0 -99 -27t-33 -65q0 -36 26 -64t81 -50l35 -14q64 -25 98.5 -48.5t48 -50
t13.5 -63.5q0 -63 -54.5 -102t-146.5 -39q-47 0 -87 9.5t-66 24.5z" />
    <glyph glyph-name="uni0456" unicode="&#x456;" horiz-adv-x="207" 
d="M84 659v96h39v-96h-39zM84 0v538h39v-538h-39z" />
    <glyph glyph-name="uni0457" unicode="&#x457;" horiz-adv-x="207" 
d="M34 659v96h39v-96h-39zM132 659v96h40v-96h-40zM123 0h-39v538h39v-538z" />
    <glyph glyph-name="uni0458" unicode="&#x458;" horiz-adv-x="230" 
d="M107 659v96h39v-96h-39zM-12 -200v36q25 -7 51 -7q35 0 51.5 15.5t16.5 58.5v601h-96v34h135v-631q0 -62 -28 -87.5t-77 -25.5q-29 0 -53 6z" />
    <glyph glyph-name="uni0459" unicode="&#x459;" horiz-adv-x="794" 
d="M141 538h301v-207h138q94 0 138.5 -40t44.5 -120q0 -90 -52 -130.5t-138 -40.5h-170v504h-226l-12 -257q-6 -131 -32.5 -191.5t-83.5 -60.5q-22 0 -39 7v39q21 -7 39 -7q37 0 55.5 51.5t23.5 163.5zM572 34q148 0 148 136q0 69 -37 98t-116 29h-125v-263h130z" />
    <glyph glyph-name="uni045A" unicode="&#x45a;" horiz-adv-x="785" 
d="M571 331q94 0 138.5 -40t44.5 -120q0 -90 -52 -130.5t-138 -40.5h-170v297h-271v-297h-39v538h39v-207h271v207h39v-207h138zM563 34q148 0 148 136q0 69 -37 98t-116 29h-125v-263h130z" />
    <glyph glyph-name="uni045B" unicode="&#x45b;" horiz-adv-x="569" 
d="M123 755v-99h170v-34h-170v-208q20 56 66.5 94.5t123.5 38.5q180 0 180 -202v-345h-39v332q0 86 -33 132.5t-116 46.5q-85 0 -133.5 -67t-48.5 -180v-264h-39v622h-83v34h83v99h39z" />
    <glyph glyph-name="uni045C" unicode="&#x45c;" horiz-adv-x="473" 
d="M84 0v538h39v-261l283 261h49l-289 -267l311 -271h-56l-298 260v-260h-39zM336 755h58l-130 -116h-39z" />
    <glyph glyph-name="uni045E" unicode="&#x45e;" horiz-adv-x="491" 
d="M476 538l-287 -733h-38l77 196l-213 537h44l188 -485l185 485h44zM106 755h37q4 -46 30 -67t74 -21t74.5 21t32.5 67h35q-5 -57 -41 -88t-101 -31t-101 31t-40 88z" />
    <glyph glyph-name="uni045F" unicode="&#x45f;" horiz-adv-x="567" 
d="M483 538v-538h-180v-144h-39v144h-180v538h39v-504h321v504h39z" />
    <glyph glyph-name="uni0491" unicode="&#x491;" horiz-adv-x="428" 
d="M403 682v-178h-280v-504h-39v538h280v144h39z" />
    <glyph glyph-name="uni0463" unicode="&#x463;" horiz-adv-x="539" 
d="M324 346q91 0 137 -43t46 -125q0 -95 -52 -136.5t-138 -41.5h-177v504h-126v34h126v217h39v-217h174v-34h-174v-158h145zM316 34q74 0 111 35t37 108t-37.5 104t-115.5 31h-132v-278h137z" />
    <glyph glyph-name="uni0473" unicode="&#x473;" horiz-adv-x="570" 
d="M525 267q0 -92 -31.5 -155t-86 -94t-122.5 -31t-122.5 31t-86 94t-31.5 155q0 91 31.5 154t86 94.5t122.5 31.5t122.5 -31.5t86 -94.5t31.5 -154zM87 289q33 39 96 39q25 0 48 -9.5t58 -29.5q32 -18 54 -27.5t44 -9.5q34 0 59 12t37 36q-8 103 -61.5 157t-136.5 54
q-85 0 -139 -57t-59 -165zM484 255q-34 -40 -98 -40q-25 0 -48 9.5t-60 29.5q-33 18 -55.5 27.5t-44.5 9.5q-32 0 -56 -12t-35 -35q5 -108 59 -164.5t139 -56.5q87 0 141.5 59.5t57.5 172.5z" />
    <glyph glyph-name="uni0475" unicode="&#x475;" horiz-adv-x="565" 
d="M426 410l-160 -410h-39l-212 538h44l188 -486l140 368q26 67 49.5 97.5t64.5 30.5q26 0 39 -7v-39q-14 7 -34 7q-27 0 -42.5 -21t-37.5 -78z" />
    <glyph glyph-name="uni0493" unicode="&#x493;" horiz-adv-x="444" 
d="M419 504h-280v-201h152v-34h-152v-269h-39v269h-80v34h80v235h319v-34z" />
    <glyph glyph-name="uni0497" unicode="&#x497;" horiz-adv-x="721" 
d="M693 -144v144h-46l-275 260v-260h-39v259l-275 -259h-53l285 267l-270 271h53l260 -261v261h39v-261l260 261h49l-266 -267l251 -237h66v-178h-39z" />
    <glyph glyph-name="uni049B" unicode="&#x49b;" horiz-adv-x="488" 
d="M84 0v538h39v-261l283 261h49l-289 -267l272 -237h66v-178h-39v144h-44l-298 260v-260h-39z" />
    <glyph glyph-name="uni04A3" unicode="&#x4a3;" horiz-adv-x="586" 
d="M488 34h66v-178h-39v144h-66v257h-326v-257h-39v538h39v-247h326v247h39v-504z" />
    <glyph glyph-name="uni04AF" unicode="&#x4af;" horiz-adv-x="491" 
d="M266 0v-195h-39v195l-212 538h44l188 -486l185 486h44z" />
    <glyph glyph-name="uni04B1" unicode="&#x4b1;" horiz-adv-x="491" 
d="M266 -34v-161h-39v161h-111v34h111l-212 538h44l188 -486l185 486h44l-210 -538h111v-34h-111z" />
    <glyph glyph-name="uni04B3" unicode="&#x4b3;" horiz-adv-x="492" 
d="M444 34h58v-178h-39v144h-42l-183 246l-184 -246h-46l207 277l-195 261h47l171 -229l171 229h46l-194 -260z" />
    <glyph glyph-name="uni04B7" unicode="&#x4b7;" horiz-adv-x="518" 
d="M486 34v-178h-39v144h-66v241q-78 -14 -155 -14q-96 0 -140.5 39t-44.5 124v148h39v-134q0 -78 34.5 -109.5t120.5 -31.5q77 0 146 13v262h39v-504h66z" />
    <glyph glyph-name="uni04BB" unicode="&#x4bb;" horiz-adv-x="569" 
d="M123 414q20 56 66.5 94.5t123.5 38.5q180 0 180 -202v-345h-39v332q0 86 -33 132.5t-116 46.5q-85 0 -133.5 -67t-48.5 -180v-264h-39v755h39v-341z" />
    <glyph glyph-name="uni04CF" unicode="&#x4cf;" horiz-adv-x="207" 
d="M84 755h39v-755h-39v755z" />
    <glyph glyph-name="uni04D9" unicode="&#x4d9;" horiz-adv-x="529" 
d="M445 270q-3 76 -32.5 130.5t-79 82.5t-110.5 28q-47 0 -86 -10t-63 -26v39q28 15 66 24t83 9q75 0 135 -35.5t93.5 -100t33.5 -148.5q0 -82 -30 -145t-82 -97t-117 -34q-70 0 -120 36t-76 100t-25 147h410zM445 236h-368q4 -94 50 -154t129 -60q49 0 91 25.5t68.5 74
t29.5 114.5z" />
    <glyph glyph-name="uni04E3" unicode="&#x4e3;" horiz-adv-x="582" 
d="M498 538v-538h-39v477l-336 -477h-39v538h39v-477l336 477h39zM422 714v-34h-261v34h261z" />
    <glyph glyph-name="uni04E9" unicode="&#x4e9;" horiz-adv-x="571" 
d="M526 267q0 -92 -32 -155t-86.5 -94t-122.5 -31t-122.5 31t-86 94t-31.5 155q0 91 31.5 154t86 94.5t122.5 31.5t122.5 -31.5t86.5 -94.5t32 -154zM87 291h396q-6 107 -59.5 163.5t-138.5 56.5t-138.5 -56.5t-59.5 -163.5zM86 257q2 -114 56.5 -174t142.5 -60t142.5 60
t56.5 174h-398z" />
    <glyph glyph-name="uni04EF" unicode="&#x4ef;" horiz-adv-x="491" 
d="M476 538l-287 -733h-38l77 196l-213 537h44l188 -485l185 485h44zM382 714v-34h-261v34h261z" />
    <glyph glyph-name="uni0414.aalt" horiz-adv-x="712" 
d="M644 38h54v-195h-41v157h-601v-157h-41v195h54l265 687h43zM112 38h487l-244 638z" />
    <glyph glyph-name="uni041B.aalt" horiz-adv-x="633" 
d="M619 0h-44l-259 676l-258 -676h-43l280 725h43z" />
    <glyph glyph-name="uni0432.aalt" horiz-adv-x="509" 
d="M467 197q0 -103 -58 -156t-152 -53q-79 0 -130 43.5t-51 137.5v401q0 95 50.5 139.5t124.5 44.5q73 0 121.5 -46.5t48.5 -138.5q0 -63 -24 -106t-70 -65q66 -22 103 -73t37 -128zM115 570v-160h121q66 0 106 38.5t40 121.5q0 75 -34.5 112.5t-97.5 37.5t-99 -38t-36 -112
zM426 195q0 85 -46.5 133t-130.5 48h-134v-202q0 -74 38 -113t104 -39q80 0 124.5 46t44.5 127z" />
    <glyph glyph-name="uni0433.aalt" horiz-adv-x="425" 
d="M32 127q0 37 14 63.5t49 50.5t100 49l36 14q54 22 80 50t26 64q0 38 -32 65t-96 27q-78 0 -143 -34v42q71 29 148 29q68 0 115.5 -33t47.5 -98q0 -52 -34 -87t-96 -59l-36 -14q-53 -21 -82 -38t-42 -38.5t-13 -52.5q0 -51 43 -77t118 -26q50 0 85 11t67 32v-45
q-27 -15 -70 -25t-93 -10q-88 0 -140 38t-52 102z" />
    <glyph glyph-name="uni0434.aalt" horiz-adv-x="590" 
d="M507 25q0 -121 -66 -176t-167 -55q-42 0 -84.5 8t-70.5 20v40q28 -13 70 -22.5t85 -9.5q83 0 138.5 41.5t55.5 147.5v117q-25 -60 -76 -93.5t-118 -33.5q-64 0 -116 32.5t-82 93.5t-30 143q0 81 30 142t82 94t116 33q67 0 118 -34t76 -93v118h39v-513zM279 511
q-53 0 -97 -28t-69.5 -81t-25.5 -124q0 -72 25.5 -125t69 -81t97.5 -28q49 0 93 25t72 78t28 131t-28 130.5t-72 77.5t-93 25z" />
    <glyph glyph-name="uni0436.aalt" horiz-adv-x="705" 
d="M333 755h39v-478l260 261h49l-266 -267l287 -271h-55l-275 260v-260h-39v259l-275 -259h-53l285 267l-270 271h53l260 -261v478z" />
    <glyph glyph-name="uni0437.aalt" horiz-adv-x="449" 
d="M5 -168v45q29 -19 72.5 -32.5t96.5 -13.5q84 0 139 43.5t55 131.5q0 80 -46.5 125t-128.5 45h-85v34h80q44 0 80.5 19t58 54.5t21.5 83.5q0 74 -44.5 108.5t-111.5 34.5q-96 0 -163 -43v43q34 19 77.5 28t86.5 9q92 0 144.5 -48t52.5 -132q0 -62 -31.5 -105.5
t-86.5 -63.5q63 -17 99.5 -65t36.5 -125q0 -102 -63 -158t-170 -56q-48 0 -94 11t-76 27z" />
    <glyph glyph-name="uni0438.aalt" horiz-adv-x="557" 
d="M434 120q-20 -56 -64 -94.5t-119 -38.5q-175 0 -175 202v349h39v-336q0 -85 32 -132t112 -47q82 0 128.5 67t46.5 180v268h39v-538h-39v120z" />
    <glyph glyph-name="uni0439.aalt" horiz-adv-x="557" 
d="M434 120q-20 -56 -64 -94.5t-119 -38.5q-175 0 -175 202v349h39v-336q0 -85 32 -132t112 -47q82 0 128.5 67t46.5 180v268h39v-538h-39v120zM133 755h37q4 -46 30 -67t74 -21t74.5 21t32.5 67h35q-5 -57 -41 -88t-101 -31t-101 31t-40 88z" />
    <glyph glyph-name="uni043A.aalt" horiz-adv-x="473" 
d="M84 0v755h39v-478l283 261h49l-289 -267l311 -271h-56l-298 260v-260h-39z" />
    <glyph glyph-name="uni043B.aalt" horiz-adv-x="494" 
d="M477 0h-44l-185 486l-188 -486h-44l212 538h39z" />
    <glyph glyph-name="uni043F.aalt" horiz-adv-x="569" 
d="M123 414q20 56 66.5 94.5t123.5 38.5q180 0 180 -202v-345h-39v332q0 86 -33 132.5t-116 46.5q-85 0 -133.5 -67t-48.5 -180v-264h-39v538h39v-124z" />
    <glyph glyph-name="uni0442.aalt" horiz-adv-x="915" 
d="M123 0h-39v538h39v-124q20 56 64.5 94.5t119.5 38.5t116 -35t53 -102q54 137 189 137q91 0 132.5 -52t41.5 -150v-345h-39v332q0 86 -31 132.5t-112 46.5q-82 0 -129 -67t-47 -180v-264h-39v332q0 86 -31 132.5t-112 46.5q-82 0 -129 -67t-47 -180v-264z" />
    <glyph glyph-name="uni0446.aalt" horiz-adv-x="571" 
d="M539 -144h-39v144h-66v120q-20 -56 -64 -94.5t-119 -38.5q-175 0 -175 202v349h39v-336q0 -85 32 -132t112 -47q82 0 128.5 67t46.5 180v268h39v-504h66v-178z" />
    <glyph glyph-name="uni0448.aalt" horiz-adv-x="915" 
d="M831 538v-538h-39v120q-20 -56 -64.5 -94.5t-119.5 -38.5t-116 35t-53 102q-54 -137 -189 -137q-91 0 -132.5 52t-41.5 150v349h39v-336q0 -86 31 -132.5t112 -46.5q82 0 129 67t47 180v268h39v-336q0 -86 31 -132.5t112 -46.5q82 0 129 67t47 180v268h39z" />
    <glyph glyph-name="uni0449.aalt" horiz-adv-x="929" 
d="M858 -144v144h-66v120q-20 -56 -64.5 -94.5t-119.5 -38.5t-116 35t-53 102q-54 -137 -189 -137q-91 0 -132.5 52t-41.5 150v349h39v-336q0 -86 31 -132.5t112 -46.5q82 0 129 67t47 180v268h39v-336q0 -86 31 -132.5t112 -46.5q82 0 129 67t47 180v268h39v-504h66v-178
h-39z" />
    <glyph glyph-name="uni044E.aalt" horiz-adv-x="763" 
d="M718 267q0 -92 -32 -155t-86.5 -94t-122.5 -31q-63 0 -113 30t-80 90.5t-32 149.5h-129v-257h-39v755h39v-464h130q4 84 34 141.5t79.5 86t110.5 28.5q68 0 122.5 -31.5t86.5 -94.5t32 -154zM676 267q0 118 -54.5 181t-144.5 63q-83 0 -133.5 -63t-50.5 -181
q0 -119 50.5 -181.5t133.5 -62.5q90 0 144.5 62.5t54.5 181.5z" />
    <glyph glyph-name="uni044C.aalt" horiz-adv-x="479" 
d="M265 331q94 0 138.5 -41.5t44.5 -128.5q0 -89 -51.5 -131t-136.5 -42q-86 0 -134.5 42t-48.5 141v367h39v-207h149zM407 160q0 76 -37.5 106.5t-117.5 30.5h-136v-126q0 -78 35 -113.5t109 -35.5t110.5 34t36.5 104z" />
    <glyph glyph-name="uni044A.aalt" horiz-adv-x="565" 
d="M163 171v333h-150v34h189v-207h149q94 0 138.5 -41.5t44.5 -128.5q0 -89 -51.5 -131t-136.5 -42q-86 0 -134.5 42t-48.5 141zM493 160q0 76 -37.5 106.5t-117.5 30.5h-136v-126q0 -78 35 -113.5t109 -35.5t110.5 34t36.5 104z" />
    <glyph glyph-name="uni0431.aalt" horiz-adv-x="569" 
d="M199 508q-56 11 -86.5 41t-30.5 75q0 59 41.5 90.5t142.5 31.5q95 0 136.5 2.5t70.5 9.5v-35q-27 -6 -68 -8.5t-136 -2.5q-81 0 -115 -20t-34 -66q0 -45 37.5 -70t124.5 -31q242 -15 242 -265q0 -130 -64.5 -201.5t-173.5 -71.5q-71 0 -125.5 32t-85.5 93.5t-31 147.5
q0 95 42 157.5t113 90.5zM287 23q92 0 144 61t52 174q0 110 -52 170.5t-144 60.5t-147 -61t-55 -170q0 -112 54.5 -173.5t147.5 -61.5z" />
    <glyph glyph-name="uniF6D4" unicode="&#xf6d4;" horiz-adv-x="327" 
d="M22 755h37q4 -46 30 -67t74 -21t74.5 21t32.5 67h35q-5 -57 -41 -88t-101 -31t-101 31t-40 88z" />
    <glyph glyph-name="uniF6D1" unicode="&#xf6d1;" horiz-adv-x="328" 
d="M306 886q-3 -56 -40 -86.5t-103 -30.5q-64 0 -101 30.5t-40 86.5h40q8 -85 102 -85t102 85h40z" />
    <glyph glyph-name="uni20BD" unicode="&#x20bd;" horiz-adv-x="658" 
d="M187 309v-82h292v-37h-292v-190h-41v190h-103v37h103v82h-103v37h103v379h174q141 0 216.5 -46t75.5 -163t-75 -162t-217 -45h-133zM324 346q118 0 181.5 35.5t63.5 134.5q0 100 -64 136t-181 36h-137v-342h137z" />
    <glyph glyph-name="uni20B4" unicode="&#x20b4;" horiz-adv-x="635" 
d="M542 572q0 -85 -72 -138h115v-37h-544v37h366q93 49 93 135q0 57 -46.5 93.5t-136.5 36.5q-114 0 -186 -45v44q78 40 187 40q58 0 109 -19t83 -56.5t32 -90.5zM95 168q0 60 43 110h-97v37h544v-37h-397q-25 -21 -37 -47t-12 -60q0 -73 58.5 -108.5t157.5 -35.5
q65 0 111 14.5t88 42.5v-49q-34 -20 -88.5 -34t-116.5 -14q-119 0 -186.5 49t-67.5 132z" />
    <glyph glyph-name="uni20B8" unicode="&#x20b8;" horiz-adv-x="568" 
d="M538 687h-508v38h508v-38zM304 0h-41v568h-233v38h508v-38h-234v-568z" />
    <glyph glyph-name="pi" unicode="&#x3c0;" horiz-adv-x="620" 
d="M138 0h-40v501h-77v37h567v-37h-80v-373q0 -45 4 -62.5t17 -23.5t47 -6h12v-36h-21q-42 0 -62 8t-28 31.5t-8 74.5v387h-331v-501z" />
    <glyph glyph-name="mu" unicode="&#xb5;" horiz-adv-x="574" 
d="M81 -175q8 56 8 148v565h38v-289q0 -103 41.5 -165t119.5 -62q76 0 117.5 62t41.5 165v289h39v-538h-39v114q-19 -57 -58 -92t-101 -35q-64 0 -103 34.5t-58 92.5v-132q0 -94 -7 -157h-39z" />
    <glyph glyph-name="mu" unicode="&#x3bc;" horiz-adv-x="574" 
d="M81 -175q8 56 8 148v565h38v-289q0 -103 41.5 -165t119.5 -62q76 0 117.5 62t41.5 165v289h39v-538h-39v114q-19 -57 -58 -92t-101 -35q-64 0 -103 34.5t-58 92.5v-132q0 -94 -7 -157h-39z" />
    <glyph glyph-name="ellipsis" unicode="&#x2026;" horiz-adv-x="622" 
d="M99 104v-104h-39v104h39zM330 104v-104h-39v104h39zM561 105v-104h-39v104h39z" />
    <glyph glyph-name="endash" unicode="&#x2013;" horiz-adv-x="488" 
d="M449 289v-37h-410v37h410z" />
    <glyph glyph-name="emdash" unicode="&#x2014;" horiz-adv-x="728" 
d="M689 289v-37h-650v37h650z" />
    <glyph glyph-name="guilsinglleft" unicode="&#x2039;" horiz-adv-x="288" 
d="M243 47h-41l-158 225l157 225h42l-154 -224z" />
    <glyph glyph-name="guilsinglright" unicode="&#x203a;" horiz-adv-x="288" 
d="M86 497l158 -225l-159 -225h-40l154 226l-154 224h41z" />
    <glyph glyph-name="quoteleft" unicode="&#x2018;" horiz-adv-x="176" 
d="M100 468h-39v104q0 52 4.5 82t20 49t48.5 22v-39q-15 -4 -22 -14.5t-9.5 -32t-2.5 -65.5v-106z" />
    <glyph glyph-name="quoteright" unicode="&#x2019;" horiz-adv-x="176" 
d="M83 725h39v-104q0 -52 -4.5 -81.5t-20 -48.5t-48.5 -23v39q15 5 22 15t9.5 31.5t2.5 66.5v105z" />
    <glyph glyph-name="quotedblleft" unicode="&#x201c;" horiz-adv-x="317" 
d="M61 468v104q0 33 1.5 60t9 47t22 31.5t40.5 14.5v-39q-11 -3 -18 -9t-10.5 -18.5t-4.5 -33t-1 -51.5v-106h-39zM214 468v104q0 33 1.5 60t9 47t22 31.5t40.5 14.5v-39q-11 -3 -18 -9t-10.5 -18.5t-4.5 -33t-1 -51.5v-106h-39z" />
    <glyph glyph-name="quotedblright" unicode="&#x201d;" horiz-adv-x="315" 
d="M122 725v-104q0 -33 -1.5 -59.5t-9 -46.5t-22 -32t-40.5 -15v39q11 3 18 9.5t10.5 19t4.5 32.5t1 52v105h39zM275 725v-104q0 -33 -1.5 -59.5t-9 -46.5t-22 -32t-40.5 -15v39q11 3 18 9.5t10.5 19t4.5 32.5t1 52v105h39z" />
    <glyph glyph-name="quotesinglbase" unicode="&#x201a;" horiz-adv-x="167" 
d="M119 104v-104q0 -33 -1.5 -59.5t-9 -46.5t-22 -32t-40.5 -15v39q11 3 18 9.5t10.5 19t4.5 32.5t1 52v105h39z" />
    <glyph glyph-name="quotedblbase" unicode="&#x201e;" horiz-adv-x="320" 
d="M119 104v-104q0 -33 -1.5 -59.5t-9 -46.5t-22 -32t-40.5 -15v39q11 3 18 9.5t10.5 19t4.5 32.5t1 52v105h39zM272 104v-104q0 -33 -1.5 -59.5t-9 -46.5t-22 -32t-40.5 -15v39q11 3 18 9.5t10.5 19t4.5 32.5t1 52v105h39z" />
    <glyph glyph-name="bullet" unicode="&#x2022;" horiz-adv-x="398" 
d="M196 391q51 0 84.5 -32.5t33.5 -80.5q0 -50 -33.5 -83.5t-84.5 -33.5q-46 0 -79 33.5t-33 83.5q0 47 33 80t79 33z" />
    <glyph glyph-name="dagger" unicode="&#x2020;" horiz-adv-x="390" 
d="M213 563v-238h-36v238h-136v34h136v128h36v-128h136v-34h-136z" />
    <glyph glyph-name="daggerdbl" unicode="&#x2021;" horiz-adv-x="414" 
d="M225 443v-118h-36v119h-136v34h136v85h-136v34h136v128h36v-128h136v-34h-136v-86h136v-34h-136z" />
    <glyph glyph-name="perthousand" unicode="&#x2030;" horiz-adv-x="1276" 
d="M32 521q0 99 40 155t118 56t118 -56t40 -155t-40 -155t-118 -56t-118 56t-40 155zM308 521q0 89 -31.5 134t-86.5 45t-86.5 -45t-31.5 -134t31.5 -134t86.5 -45t86.5 45t31.5 134zM523 204q0 99 40 155t118 56t118 -56t40 -155t-40 -155t-118 -56t-118 56t-40 155z
M799 204q0 89 -31.5 134t-86.5 45t-86.5 -45t-31.5 -134t31.5 -134t86.5 -45t86.5 45t31.5 134zM709 725l-502 -725h-44l502 725h44zM923 204q0 99 40 155t118 56t118 -56t40 -155t-40 -155t-118 -56t-118 56t-40 155zM1199 204q0 89 -31.5 134t-86.5 45t-86.5 -45
t-31.5 -134t31.5 -134t86.5 -45t86.5 45t31.5 134z" />
    <glyph glyph-name="uni2113" unicode="&#x2113;" horiz-adv-x="389" 
d="M135 125v125l-79 -60l-20 32l99 76v257q0 93 26.5 138t87.5 45q52 0 80 -41t28 -110q0 -92 -47.5 -166t-130.5 -137l-4 -3v-158q0 -53 14 -76.5t53 -23.5q28 0 48.5 10.5t40.5 28.5l22 -26q-24 -24 -51.5 -36.5t-62.5 -12.5q-60 0 -82 35t-22 103zM175 328l15 12
q61 46 93.5 110t32.5 135q0 58 -19.5 88t-52.5 30q-38 0 -53.5 -37t-15.5 -112v-226z" />
    <glyph glyph-name="uni2116" unicode="&#x2116;" horiz-adv-x="1018" 
d="M644 725v-725h-55l-454 674v-674h-41v725h55l454 -674v674h41zM702 580q0 78 39.5 118t99.5 40q59 0 98.5 -40t39.5 -118t-39.5 -117.5t-98.5 -39.5q-60 0 -99.5 39.5t-39.5 117.5zM939 580q0 61 -27 92.5t-71 31.5q-45 0 -72 -31t-27 -93q0 -61 27 -92t72 -31
q44 0 71 31t27 92zM967 350v-37h-254v37h254z" />
    <glyph glyph-name="uni2117" unicode="&#x2117;" horiz-adv-x="858" 
d="M429 738q103 0 188 -48t135 -134t50 -196q0 -108 -50 -193.5t-135 -132.5t-188 -47t-188.5 47t-135 132t-49.5 194q0 110 49.5 196t135 134t188.5 48zM429 23q94 0 170.5 43t120 119.5t43.5 174.5q0 100 -43.5 177.5t-120 121t-170.5 43.5t-170 -43.5t-120 -121
t-44 -177.5q0 -98 44 -174.5t120 -119.5t170 -43zM343 318v-150h-38v398h141q73 0 114.5 -27t41.5 -97t-41.5 -97t-114.5 -27h-103zM455 530h-112v-176h112q51 0 80 19.5t29 68.5t-29 68.5t-80 19.5z" />
    <glyph glyph-name="trademark" unicode="&#x2122;" horiz-adv-x="816" 
d="M163 691h-136v34h309v-34h-136v-365h-37v365zM559 491l115 234h60v-399h-38v369l-122 -245h-33l-122 245v-369h-38v399h60z" />
    <glyph glyph-name="lozenge" unicode="&#x25ca;" horiz-adv-x="561" 
d="M281 -60l-242 410l242 409l241 -409zM479 350l-198 335l-198 -335l198 -337z" />
    <glyph glyph-name="estimated" unicode="&#x212e;" horiz-adv-x="621" 
d="M565 151q-26 -74 -87 -119t-154 -45q-86 0 -147 37t-92 101t-31 144q0 82 32.5 145t93 98t139.5 35q81 0 139.5 -37t89 -99.5t31.5 -139.5h-410v-202q24 -24 69 -40t94 -16q71 0 124 36t77 102h32zM169 296h294v172q-23 23 -61.5 38.5t-83.5 15.5q-46 0 -85.5 -14
t-63.5 -39v-173z" />
    <glyph glyph-name="minus" unicode="&#x2212;" 
d="M69 250v38h540v-38h-540z" />
    <glyph glyph-name="lessequal" unicode="&#x2264;" 
d="M609 491l-492 -182l492 -184v-40l-541 204v38l541 203v-39zM609 0h-541v37h541v-37z" />
    <glyph glyph-name="greaterequal" unicode="&#x2265;" 
d="M69 125l492 184l-492 182v39l541 -203v-38l-541 -204v40zM610 37v-37h-541v37h541z" />
    <glyph glyph-name="notequal" unicode="&#x2260;" 
d="M609 421v-38h-177l-143 -228h320v-38h-343l-85 -135l-31 20l72 115h-153v38h177l143 228h-320v38h343l85 135l31 -20l-72 -115h153z" />
    <glyph glyph-name="approxequal" unicode="&#x2248;" 
d="M600 459q-7 -56 -43 -84.5t-92 -28.5q-31 0 -60 9.5t-72 29.5q-40 19 -67 28t-54 9q-39 0 -64 -19t-30 -57h-40q7 56 43 84.5t92 28.5q31 0 60 -9.5t72 -29.5q40 -19 67 -28t54 -9q39 0 64 19t30 57h40zM600 190q-7 -56 -43 -84.5t-92 -28.5q-31 0 -60 9.5t-72 29.5
q-40 19 -67 28t-54 9q-39 0 -64 -19t-30 -57h-40q7 56 43 84.5t92 28.5q31 0 60 -9.5t72 -29.5q40 -19 67 -28t54 -9q39 0 64 19t30 57h40z" />
    <glyph glyph-name="partialdiff" unicode="&#x2202;" horiz-adv-x="567" 
d="M36 267q0 92 32 155t88 94t127 31q61 0 102.5 -26t62.5 -70h2q-17 62 -61.5 116.5t-106 90.5t-129.5 44v36q119 -20 200.5 -84t122.5 -160.5t41 -214.5q0 -144 -66.5 -218t-174.5 -74q-68 0 -122.5 31t-86 94t-31.5 155zM276 511q-90 0 -144.5 -63t-54.5 -181
q0 -119 54.5 -181.5t144.5 -62.5t144.5 62.5t54.5 181.5q0 118 -54.5 181t-144.5 63z" />
    <glyph glyph-name="product" unicode="&#x220f;" horiz-adv-x="698" 
d="M133 690v-865h-39v900h510v-900h-39v865h-432z" />
    <glyph glyph-name="radical" unicode="&#x221a;" horiz-adv-x="514" 
d="M8 174l-16 36l109 48l180 -395l163 851h39l-174 -900h-47l-182 393z" />
    <glyph glyph-name="summation" unicode="&#x2211;" horiz-adv-x="586" 
d="M31 -175v36l308 414l-308 414v36h524v-36h-479l309 -414l-309 -414h479v-36h-524z" />
    <glyph glyph-name="integral" unicode="&#x222b;" horiz-adv-x="283" 
d="M121 533q0 99 22.5 150t77.5 51q25 0 38.5 -12t13.5 -30q0 -15 -8 -24t-23 -9q-11 0 -18 7.5t-7 18.5q0 16 8 27q-40 0 -53 -36.5t-13 -113.5l1 -87q1 -26 1 -78v-373q0 -100 -22.5 -151t-76.5 -51q-26 0 -39.5 12t-13.5 30q0 14 9 24t22 10q12 0 18.5 -7.5t6.5 -19.5
q0 -15 -9 -27q40 0 53.5 36.5t13.5 114.5l-1 86q-1 25 -1 78v374z" />
    <glyph glyph-name="infinity" unicode="&#x221e;" horiz-adv-x="855" 
d="M800 249q0 -67 -46 -110.5t-118 -43.5q-57 0 -108.5 31t-101.5 93q-52 -64 -101 -94t-106 -30q-72 0 -118 43.5t-46 110.5t46.5 111t120.5 44q53 0 101.5 -28.5t103.5 -95.5q53 65 101.5 94.5t103.5 29.5q49 0 87.5 -20t59.5 -55.5t21 -79.5zM403 249q-51 63 -93 91.5
t-89 28.5q-53 0 -88.5 -33t-35.5 -87q0 -51 35 -85t87 -34t93.5 28.5t90.5 90.5zM451 250q50 -63 93 -91.5t92 -28.5q52 0 87 33t35 86q0 52 -35.5 86t-92.5 34q-46 0 -88 -28.5t-91 -90.5z" />
    <glyph glyph-name="uni0394" unicode="&#x394;" horiz-adv-x="718" 
d="M22 0l337 736l337 -736h-674zM635 37l-276 606l-276 -606h552z" />
    <glyph glyph-name="uni0394" unicode="&#x2206;" horiz-adv-x="718" 
d="M22 0l337 736l337 -736h-674zM635 37l-276 606l-276 -606h552z" />
    <glyph glyph-name="uni03A9" unicode="&#x3a9;" horiz-adv-x="790" 
d="M736 429q0 -76 -31.5 -135.5t-81 -98t-104.5 -53.5v-105h185v-37h-226v169q97 21 156.5 90.5t59.5 169.5q0 83 -40.5 145t-109 95.5t-149.5 33.5t-150 -33.5t-109.5 -95.5t-40.5 -145q0 -100 59.5 -169.5t157.5 -90.5v-169h-226v37h184v105q-55 15 -104.5 53.5t-80.5 98
t-31 135.5q0 95 48 165.5t126.5 107t166.5 36.5t166.5 -36.5t126.5 -107t48 -165.5z" />
    <glyph glyph-name="uni03A9" unicode="&#x2126;" horiz-adv-x="790" 
d="M736 429q0 -76 -31.5 -135.5t-81 -98t-104.5 -53.5v-105h185v-37h-226v169q97 21 156.5 90.5t59.5 169.5q0 83 -40.5 145t-109 95.5t-149.5 33.5t-150 -33.5t-109.5 -95.5t-40.5 -145q0 -100 59.5 -169.5t157.5 -90.5v-169h-226v37h184v105q-55 15 -104.5 53.5t-80.5 98
t-31 135.5q0 95 48 165.5t126.5 107t166.5 36.5t166.5 -36.5t126.5 -107t48 -165.5z" />
    <glyph glyph-name="Euro" unicode="&#x20ac;" horiz-adv-x="732" 
d="M203 302h310l-30 -36h-273q18 -77 62.5 -131.5t108 -83t137.5 -28.5q99 0 177 33v-38q-84 -31 -177 -31q-87 0 -159.5 34t-122 97t-67.5 148h-143l30 36h107q-4 25 -4 61q0 31 3 59h-136l30 36h112q18 85 68 148.5t124 97.5t162 34q99 0 172 -30v-38q-33 15 -78 23.5
t-95 8.5q-114 0 -199 -64.5t-112 -179.5h415l-30 -36h-391q-4 -27 -4 -61q0 -30 3 -59z" />
    <glyph glyph-name="uniFB01" unicode="&#xfb01;" horiz-adv-x="466" 
d="M343 0v538h39v-538h-39zM97 645q0 62 28 87.5t77 25.5q29 0 53 -6v-36q-24 7 -51 7q-35 0 -51.5 -15.5t-16.5 -58.5v-111h111v-34h-111v-504h-39v504h-79v34h79v107zM343 659v96h39v-96h-39z" />
    <glyph glyph-name="uniFB02" unicode="&#xfb02;" horiz-adv-x="466" 
d="M97 645q0 62 28 87.5t77 25.5q29 0 53 -6v-36q-24 7 -51 7q-35 0 -51.5 -15.5t-16.5 -58.5v-111h111v-34h-111v-504h-39v504h-79v34h79v107zM343 755h39v-755h-39v755z" />
    <glyph glyph-name="glyph531" horiz-adv-x="203" 
d="M82 659v96h39v-96h-39z" />
    <glyph glyph-name="breve" unicode="&#x2d8;" horiz-adv-x="327" 
d="M305 755q-5 -57 -41 -88t-101 -31t-101 31t-40 88h36q4 -46 30 -66.5t75 -20.5q48 0 75 20.5t33 66.5h34z" />
    <glyph glyph-name="caron" unicode="&#x2c7;" horiz-adv-x="357" 
d="M197 639h-38l-137 116h39l117 -82l118 82h39z" />
    <glyph glyph-name="circumflex" unicode="&#x2c6;" horiz-adv-x="357" 
d="M160 755h38l137 -116h-39l-117 82l-118 -82h-39z" />
    <glyph glyph-name="dotaccent" unicode="&#x2d9;" horiz-adv-x="83" 
d="M22 659v96h39v-96h-39z" />
    <glyph glyph-name="glyph536" horiz-adv-x="83" 
d="M22 -175v95h39v-95h-39z" />
    <glyph glyph-name="hungarumlaut" unicode="&#x2dd;" horiz-adv-x="382" 
d="M133 755h58l-130 -116h-39zM302 755h58l-130 -116h-39z" />
    <glyph glyph-name="ogonek" unicode="&#x2db;" horiz-adv-x="180" 
d="M158 0q-40 -19 -67.5 -45.5t-27.5 -56.5q0 -52 65 -52q13 0 30 5v-34q-15 -5 -45 -5q-36 0 -63.5 22.5t-27.5 58.5q0 35 30.5 65.5t66.5 41.5h39z" />
    <glyph glyph-name="ring" unicode="&#x2da;" horiz-adv-x="217" 
d="M195 708q0 -36 -24.5 -59t-61.5 -23t-62 23t-25 59q0 35 25.5 58.5t61.5 23.5t61 -23.5t25 -58.5zM53 708q0 -24 16.5 -39.5t39.5 -15.5q22 0 38.5 15.5t16.5 39.5t-16.5 39.5t-38.5 15.5q-23 0 -39.5 -15.5t-16.5 -39.5z" />
    <glyph glyph-name="tilde" unicode="&#x2dc;" horiz-adv-x="370" 
d="M313 748h35q-8 -45 -31 -69.5t-58 -24.5q-21 0 -39 8t-41 24q-23 14 -37.5 20.5t-29.5 6.5q-23 0 -36 -14.5t-18 -44.5h-36q7 44 31 69t58 25q22 0 40.5 -8t43.5 -24q19 -13 33.5 -19.5t28.5 -6.5q45 0 56 58z" />
    <glyph glyph-name="uni032C" unicode="&#x32c;" horiz-adv-x="0" 
d="M-160 -138h-38l-137 138h39l117 -103l118 103h39z" />
    <glyph glyph-name="glyph542" horiz-adv-x="118" 
d="M51 755h45l-48 -170h-26z" />
    <glyph glyph-name="uni0326" unicode="&#x326;" horiz-adv-x="0" 
d="M-61 -49h39v-11q0 -41 -4.5 -67.5t-20.5 -44t-48 -20.5v39q22 5 28 23.5t6 68.5v12z" />
    <glyph glyph-name="zero.zero" horiz-adv-x="668" 
d="M55 363q0 173 70.5 274t209.5 101q138 0 208 -101.5t70 -273.5q0 -173 -70 -274.5t-208 -101.5q-139 0 -209.5 101.5t-70.5 274.5zM97 363q0 -45 5 -90l460 204q-20 110 -79 168t-148 58q-111 0 -174.5 -87.5t-63.5 -252.5zM571 363q0 29 -4 77l-459 -201
q21 -107 80 -161.5t147 -54.5q110 0 173 87t63 253z" />
    <glyph glyph-name="one.oldstyle" horiz-adv-x="463" 
d="M268 38h186v-38h-428v38h203v482h-165v29q71 0 104.5 7.5t48 28.5t22.5 67h29v-614z" />
    <glyph glyph-name="two.oldstyle" horiz-adv-x="494" 
d="M437 489q0 -101 -87.5 -207t-277.5 -244h384v-38h-434v39q132 98 213.5 174.5t121 143t39.5 130.5q0 46 -22 77.5t-57 47.5t-72 16q-49 0 -90.5 -14t-87.5 -41v40q37 23 82.5 37t95.5 14q85 0 138.5 -46t53.5 -129z" />
    <glyph glyph-name="three.oldstyle" horiz-adv-x="502" 
d="M410 174q0 78 -54 115t-150 37h-10v31h6q97 0 144.5 37.5t47.5 104.5q0 57 -45.5 93t-118.5 36q-54 0 -91.5 -13.5t-85.5 -42.5v40q38 24 81 38t97 14q91 0 147 -43.5t56 -118.5q0 -63 -37 -104.5t-95 -54.5q66 -10 107 -51.5t41 -115.5q0 -90 -64.5 -139.5t-163.5 -49.5
q-101 0 -183 49v42q45 -27 86.5 -40.5t96.5 -13.5q83 0 135.5 40.5t52.5 109.5z" />
    <glyph glyph-name="four.oldstyle" horiz-adv-x="596" 
d="M436 218h138v-38h-138v-180h-39v180h-378v36l379 436h38v-434zM397 218v379l-332 -379h332z" />
    <glyph glyph-name="five.oldstyle" horiz-adv-x="510" 
d="M422 201q0 58 -27 97t-71 58t-94 19q-91 0 -167 -40l34 317h345v-38h-315l-25 -226q24 10 60.5 16.5t67.5 6.5q62 0 115 -23.5t85.5 -70.5t32.5 -116t-34.5 -117t-89.5 -72.5t-116 -24.5q-55 0 -98 13t-81 36v42q46 -28 85 -41t94 -13q51 0 96.5 19.5t74 59.5t28.5 98z
" />
    <glyph glyph-name="six.oldstyle" horiz-adv-x="554" 
d="M89 292q19 64 72 103t131 39q64 0 114 -28.5t78 -79.5t28 -118q0 -61 -28 -111.5t-79 -80t-118 -29.5q-107 0 -170.5 74.5t-63.5 234.5q0 110 34 193.5t95.5 129t142.5 45.5q78 0 150 -29v-42q-39 18 -75 26.5t-78 8.5q-63 0 -116.5 -36.5t-85.5 -112.5t-31 -187zM287 24
q53 0 95 23.5t65.5 65t23.5 93.5q0 88 -50 139.5t-133 51.5q-57 0 -98.5 -24.5t-63.5 -66t-22 -91.5q0 -60 24.5 -103t66.5 -65.5t92 -22.5z" />
    <glyph glyph-name="seven.oldstyle" horiz-adv-x="511" 
d="M23 614v38h466v-38q-304 -221 -322 -614h-45q14 209 95.5 359t221.5 255h-416z" />
    <glyph glyph-name="eight.oldstyle" horiz-adv-x="590" 
d="M518 501q0 -54 -33.5 -95t-90.5 -56q64 -20 105 -61.5t41 -110.5q0 -59 -31.5 -102t-87 -65.5t-126.5 -22.5q-109 0 -177 50.5t-68 139.5q0 69 41 110.5t105 61.5q-57 15 -90.5 56t-33.5 95q0 47 27.5 84t78 58t117.5 21t117.5 -21t78 -58t27.5 -84zM295 628
q-83 0 -133 -35t-50 -96q0 -57 48 -95t135 -38t134.5 38t47.5 95q0 61 -49 96t-133 35zM92 178q0 -72 55 -113t148 -41t148.5 41t55.5 113t-55.5 113t-148.5 41t-148 -41t-55 -113z" />
    <glyph glyph-name="nine.oldstyle" horiz-adv-x="553" 
d="M464 360q-19 -64 -72 -103t-131 -39q-64 0 -114 28.5t-78 79.5t-28 118q0 61 28 111.5t79 79.5t118 29q107 0 170.5 -74.5t63.5 -233.5q0 -110 -34 -193.5t-95.5 -129t-142.5 -45.5q-78 0 -150 29v42q39 -18 75 -26.5t78 -8.5q63 0 116.5 36.5t85.5 112.5t31 187z
M266 627q-53 0 -95 -23.5t-65.5 -64.5t-23.5 -93q0 -88 50 -139.5t133 -51.5q57 0 98.5 24.5t63.5 66t22 91.5q0 60 -24.5 103t-66.5 65t-92 22z" />
    <glyph glyph-name="zero.oldstyle" horiz-adv-x="633" 
d="M53 326q0 157 66.5 247.5t197.5 90.5t197 -90.5t66 -247.5t-66 -247.5t-197 -90.5t-197.5 90.5t-66.5 247.5zM538 326q0 149 -58.5 225.5t-162.5 76.5t-163 -76.5t-59 -225.5t59 -225.5t163 -76.5t162.5 76.5t58.5 225.5z" />
    <glyph glyph-name="zero.oldstyle.zero" horiz-adv-x="633" 
d="M53 326q0 157 66.5 247.5t197.5 90.5t197 -90.5t66 -247.5t-66 -247.5t-197 -90.5t-197.5 90.5t-66.5 247.5zM95 326q0 -49 5 -80l427 191q-19 94 -73.5 142.5t-136.5 48.5q-104 0 -163 -76.5t-59 -225.5zM538 326q0 36 -5 74l-427 -189q20 -93 74.5 -140t136.5 -47
q104 0 162.5 76.5t58.5 225.5z" />
    <glyph glyph-name="one.tnum" 
d="M377 38h186v-38h-428v38h203v555h-165v29q71 0 104.5 7.5t48 28.5t22.5 67h29v-687z" />
    <glyph glyph-name="two.tnum" 
d="M546 543q0 -112 -97 -232.5t-305 -272.5h426v-38h-479v39q217 162 315 279.5t98 222.5q0 53 -24.5 89t-63 54t-79.5 18q-55 0 -101 -15.5t-96 -45.5v40q41 25 92 41t105 16q59 0 106.5 -22.5t75 -66.5t27.5 -106z" />
    <glyph glyph-name="three.tnum" 
d="M516 194q0 87 -60 128t-167 41h-11v34h7q107 0 160 42t53 116q0 66 -50 106.5t-132 40.5q-61 0 -103 -15t-94 -47v40q42 27 90 42.5t108 15.5q99 0 161 -48.5t62 -131.5q0 -70 -41.5 -116.5t-104.5 -59.5q74 -11 119 -57.5t45 -128.5q0 -67 -33.5 -114t-90.5 -71
t-127 -24q-113 0 -203 54v42q51 -30 96.5 -45t106.5 -15q92 0 150.5 45.5t58.5 125.5z" />
    <glyph glyph-name="four.tnum" 
d="M484 238h148v-38h-148v-200h-40v200h-402v35l404 490h38v-487zM444 238v432l-354 -432h354z" />
    <glyph glyph-name="five.tnum" 
d="M528 223q0 64 -30 109t-79 67t-104 22q-51 0 -96.5 -10.5t-89.5 -33.5l38 348h383v-38h-350l-28 -256q27 12 67.5 19t75.5 7q66 0 124.5 -26t94.5 -79t36 -129t-38 -129.5t-98 -80t-127 -26.5q-62 0 -109.5 14.5t-89.5 39.5v42q52 -31 95 -45.5t104 -14.5
q56 0 106.5 22.5t82.5 68t32 109.5z" />
    <glyph glyph-name="six.tnum" 
d="M130 324q21 71 80 114.5t146 43.5q71 0 126.5 -31.5t86.5 -88.5t31 -131q0 -68 -31 -123.5t-87.5 -88t-131.5 -32.5q-119 0 -189.5 82.5t-70.5 259.5q0 130 43.5 222.5t116 139.5t159.5 47q75 0 152 -35v-41q-74 41 -150 41q-73 0 -137.5 -38.5t-104.5 -123.5t-39 -217z
M350 23q60 0 107.5 26.5t74.5 73.5t27 106q0 99 -57 157.5t-151 58.5q-64 0 -111.5 -28t-72.5 -75t-25 -103q0 -68 28 -116.5t75.5 -74t104.5 -25.5z" />
    <glyph glyph-name="seven.tnum" 
d="M93 687v38h493v-37q-155 -117 -244 -289.5t-99 -398.5h-45q17 235 103.5 403.5t234.5 283.5h-443z" />
    <glyph glyph-name="eight.tnum" 
d="M575 558q0 -60 -36.5 -106t-95.5 -62q67 -21 110.5 -67t43.5 -125q0 -66 -33 -113.5t-91.5 -72.5t-133.5 -25q-74 0 -132.5 25t-92 72.5t-33.5 113.5q0 79 44 125t111 67q-60 16 -96 62t-36 106q0 53 29 93.5t82 63.5t124 23t124.5 -23t82.5 -63.5t29 -93.5zM339 703
q-89 0 -142 -40t-53 -109q0 -65 51 -107t144 -42t144 42t51 107q0 69 -52.5 109t-142.5 40zM123 198q0 -82 58.5 -128.5t157.5 -46.5t158 46.5t59 128.5q0 81 -59 127.5t-158 46.5t-157.5 -46t-58.5 -128z" />
    <glyph glyph-name="nine.tnum" 
d="M548 401q-21 -71 -80 -114.5t-146 -43.5q-71 0 -126.5 31.5t-86.5 88.5t-31 131q0 68 31 123.5t87.5 88t131.5 32.5q119 0 189.5 -82.5t70.5 -259.5q0 -130 -43.5 -222.5t-116 -139.5t-159.5 -47q-75 0 -152 35v41q74 -41 150 -41q73 0 137.5 38.5t104.5 123.5t39 217z
M328 702q-60 0 -107.5 -26.5t-74.5 -73.5t-27 -106q0 -99 57 -157.5t151 -58.5q64 0 111.5 28t72.5 75t25 103q0 68 -28 116.5t-75.5 74t-104.5 25.5z" />
    <glyph glyph-name="zero.tnum" 
d="M60 363q0 173 70.5 274t209.5 101q138 0 208 -101.5t70 -273.5q0 -173 -70 -274.5t-208 -101.5q-139 0 -209.5 101.5t-70.5 274.5zM576 363q0 165 -63 252.5t-173 87.5q-111 0 -174.5 -87.5t-63.5 -252.5q0 -166 63.5 -253t174.5 -87q110 0 173 87t63 253z" />
    <glyph glyph-name="zero.tnum.zero" 
d="M60 363q0 173 70.5 274t209.5 101q138 0 208 -101.5t70 -273.5q0 -173 -70 -274.5t-208 -101.5q-139 0 -209.5 101.5t-70.5 274.5zM107 275l459 204q-20 110 -79 167t-147 57q-111 0 -174.5 -87.5t-63.5 -252.5q0 -54 5 -88zM576 363q0 46 -4 79l-459 -201
q21 -107 80 -162.5t147 -55.5q110 0 173 87t63 253z" />
    <glyph glyph-name="one.case" horiz-adv-x="459" 
d="M269 38h184v-38h-428v38h203v555h-165v29q71 0 104.5 7.5t48 28.5t22.5 67h31v-687z" />
    <glyph glyph-name="two.case" horiz-adv-x="537" 
d="M477 543q0 -112 -97 -232.5t-305 -272.5h424v-38h-479v40q217 162 315 279t98 222q0 52 -24.5 88t-62.5 53t-80 17q-55 0 -101 -15.5t-96 -45.5v43q41 25 92 41t105 16q59 0 107 -22.5t76 -66.5t28 -106z" />
    <glyph glyph-name="three.case" horiz-adv-x="546" 
d="M449 194q0 87 -60 128t-167 41h-11v34h7q107 0 160 42t53 116q0 66 -50 105t-132 39q-61 0 -103 -15t-94 -47v43q42 27 90 42.5t108 15.5q99 0 161.5 -48.5t62.5 -131.5q0 -70 -41.5 -116.5t-104.5 -59.5q74 -11 119 -57.5t45 -128.5q0 -67 -33.5 -114t-91 -71
t-127.5 -24q-113 0 -203 54v45q51 -30 96.5 -45t106.5 -15q93 0 151 44t58 124z" />
    <glyph glyph-name="four.case" horiz-adv-x="627" 
d="M459 245h148v-38h-148v-207h-41v207h-401v37l401 481h41v-480zM418 245v422l-352 -422h352z" />
    <glyph glyph-name="five.case" horiz-adv-x="554" 
d="M466 223q0 64 -30 109t-79 67t-104 22q-51 0 -96.5 -10.5t-89.5 -33.5l38 348h383v-38h-349l-29 -256q27 12 67.5 19t75.5 7q67 0 126 -26t95 -79t36 -129t-38 -129.5t-99 -80t-128 -26.5q-62 0 -109.5 14.5t-89.5 39.5v47q52 -31 95 -45.5t104 -14.5q56 0 106.5 21.5
t82.5 65.5t32 108z" />
    <glyph glyph-name="six.case" horiz-adv-x="607" 
d="M95 324q21 71 80 114.5t146 43.5q71 0 126.5 -31.5t86.5 -88.5t31 -131q0 -68 -31 -123.5t-87.5 -88t-131.5 -32.5q-119 0 -189.5 82.5t-70.5 259.5q0 122 37.5 214.5t106 143.5t159.5 51q86 0 166 -33l-4 -44q-43 20 -81 29t-85 9q-70 0 -129.5 -41t-95 -125.5
t-34.5 -208.5zM315 26q60 0 107 26t73 72t26 105q0 99 -55.5 156t-149.5 57q-64 0 -111 -27t-71 -73.5t-24 -102.5q0 -68 27.5 -116t74 -72.5t103.5 -24.5z" />
    <glyph glyph-name="seven.case" horiz-adv-x="516" 
d="M12 687v38h494v-38q-154 -118 -243 -290.5t-99 -396.5h-49q17 228 104 399t234 288h-441z" />
    <glyph glyph-name="eight.case" horiz-adv-x="624" 
d="M549 559q0 -58 -36.5 -105t-96.5 -65q67 -21 111.5 -68t44.5 -122q0 -65 -34 -113t-93 -73.5t-134 -25.5q-74 0 -133 25.5t-92.5 73.5t-33.5 113q0 76 44 122.5t111 67.5q-60 18 -96 65t-36 105q0 52 29 92.5t82.5 63.5t124.5 23q72 0 126 -23t83 -63.5t29 -92.5z
M311 700q-88 0 -140.5 -39.5t-52.5 -105.5q0 -41 22 -75t65.5 -54.5t105.5 -20.5q63 0 107 20.5t66 54.5t22 75q0 66 -53 105.5t-142 39.5zM96 199q0 -80 59 -126.5t156 -46.5q99 0 158 46.5t59 126.5q0 79 -59 125t-158 46q-98 0 -156.5 -46t-58.5 -125z" />
    <glyph glyph-name="nine.case" horiz-adv-x="607" 
d="M512 401q-21 -71 -80 -114.5t-146 -43.5q-71 0 -126.5 31.5t-86.5 88.5t-31 131q0 68 31 123.5t87.5 88t131.5 32.5q119 0 189.5 -82.5t70.5 -259.5q0 -122 -37.5 -214.5t-106 -143.5t-159.5 -51q-86 0 -166 33l4 44q43 -20 81 -29t85 -9q70 0 129.5 41t95 125.5
t34.5 208.5zM292 699q-60 0 -107 -26t-73 -72t-26 -105q0 -99 55.5 -156t149.5 -57q64 0 111 27t71 73.5t24 102.5q0 68 -27.5 116t-74 72.5t-103.5 24.5z" />
    <glyph glyph-name="zero.case" horiz-adv-x="670" 
d="M55 362q0 173 70.5 274.5t209.5 101.5t209.5 -101.5t70.5 -274.5q0 -172 -70.5 -273.5t-209.5 -101.5t-209.5 101.5t-70.5 273.5zM570 362q0 164 -63 251t-172 87q-110 0 -173 -87t-63 -251q0 -163 63 -249.5t173 -86.5q109 0 172 86.5t63 249.5z" />
    <glyph glyph-name="zero.case.zero" horiz-adv-x="670" 
d="M55 362q0 173 70.5 274.5t209.5 101.5t209.5 -101.5t70.5 -274.5q0 -172 -70.5 -273.5t-209.5 -101.5t-209.5 101.5t-70.5 273.5zM104 273l456 203q-20 110 -78.5 167t-146.5 57q-110 0 -173 -87t-63 -251q0 -42 5 -89zM570 362q0 29 -4 77l-456 -200
q21 -104 79.5 -158.5t145.5 -54.5q109 0 172 86.5t63 249.5z" />
    <glyph glyph-name="uni21B2" unicode="&#x21b2;" horiz-adv-x="814" 
d="M352 -42l-311 311l311 311l29 -28l-264 -263h595v436h40v-476h-635l264 -263z" />
    <glyph glyph-name="uni21B3" unicode="&#x21b3;" horiz-adv-x="784" 
d="M432 580l311 -311l-311 -311l-29 28l264 263h-605v476h40v-436h565l-264 263z" />
    <glyph glyph-name="uni21B0" unicode="&#x21b0;" horiz-adv-x="809" 
d="M351 -42l-311 311l311 311l29 -28l-264 -263h635v-464h-40v424h-595l264 -263z" />
    <glyph glyph-name="uni21B1" unicode="&#x21b1;" horiz-adv-x="779" 
d="M428 580l311 -311l-311 -311l-29 28l264 263h-565v-424h-40v464h605l-264 263z" />
    <glyph glyph-name="arrowleft" unicode="&#x2190;" horiz-adv-x="807" 
d="M343 -42l-311 311l311 311l29 -28l-264 -263h665v-40h-665l264 -263z" />
    <glyph glyph-name="arrowup" unicode="&#x2191;" horiz-adv-x="682" 
d="M30 430l311 311l311 -311l-28 -29l-263 264v-665h-40v665l-263 -264z" />
    <glyph glyph-name="arrowright" unicode="&#x2192;" horiz-adv-x="807" 
d="M464 580l311 -311l-311 -311l-29 28l264 263h-665v40h665l-264 263z" />
    <glyph glyph-name="arrowdown" unicode="&#x2193;" horiz-adv-x="684" 
d="M653 295l-311 -311l-311 311l28 29l263 -264v665h40v-665l263 264z" />
    <glyph glyph-name="uni2196" unicode="&#x2196;" horiz-adv-x="635" 
d="M61 98v440h440v-40h-372l470 -470l-28 -28l-470 469v-371h-40z" />
    <glyph glyph-name="uni2197" unicode="&#x2197;" horiz-adv-x="635" 
d="M134 538h440v-440h-40v372l-470 -470l-28 28l469 470h-371v40z" />
    <glyph glyph-name="uni2198" unicode="&#x2198;" horiz-adv-x="633" 
d="M572 440v-440h-440v40h372l-470 470l28 28l470 -469v371h40z" />
    <glyph glyph-name="uni2199" unicode="&#x2199;" horiz-adv-x="633" 
d="M501 0h-440v440h40v-372l470 470l28 -28l-469 -470h371v-40z" />
    <glyph glyph-name="uni219E" unicode="&#x219e;" horiz-adv-x="809" 
d="M344 -42l-311 311l311 311l29 -28l-264 -263h225l291 291l29 -28l-264 -263h384v-40h-384l264 -263l-29 -28l-291 291h-225l264 -263z" />
    <glyph glyph-name="uni219F" unicode="&#x219f;" horiz-adv-x="702" 
d="M40 430l311 311l311 -311l-28 -29l-263 264v-225l291 -291l-28 -29l-263 264v-384h-40v384l-263 -264l-28 29l291 291v225l-263 -264z" />
    <glyph glyph-name="uni21A0" unicode="&#x21a0;" horiz-adv-x="809" 
d="M465 580l311 -311l-311 -311l-29 28l264 263h-225l-291 -291l-29 28l264 263h-384v40h384l-264 263l29 28l291 -291h225l-264 263z" />
    <glyph glyph-name="uni21A1" unicode="&#x21a1;" horiz-adv-x="704" 
d="M663 295l-311 -311l-311 311l28 29l263 -264v225l-291 291l28 29l263 -264v384h40v-384l263 264l28 -29l-291 -291v-225l263 264z" />
    <glyph glyph-name="uni21A2" unicode="&#x21a2;" horiz-adv-x="785" 
d="M747 552l-284 -284l284 -282l-29 -28l-291 291h-317l264 -263l-29 -28l-311 311l311 311l29 -28l-264 -263h317l291 291z" />
    <glyph glyph-name="uni21A3" unicode="&#x21a3;" horiz-adv-x="785" 
d="M440 580l311 -311l-311 -311l-29 28l264 263h-317l-291 -291l-29 28l284 282l-284 284l29 28l291 -291h317l-264 263z" />
    <glyph glyph-name="uni21A4" unicode="&#x21a4;" horiz-adv-x="843" 
d="M361 -42l-311 311l311 311l29 -28l-264 -263h595v249h40v-538h-40v249h-595l264 -263z" />
    <glyph glyph-name="uni21A5" unicode="&#x21a5;" 
d="M28 430l311 311l311 -311l-28 -29l-263 264v-625h249v-40h-538v40h249v625l-263 -264z" />
    <glyph glyph-name="uni21A6" unicode="&#x21a6;" horiz-adv-x="843" 
d="M482 580l311 -311l-311 -311l-29 28l264 263h-595v-249h-40v538h40v-249h595l-264 263z" />
    <glyph glyph-name="uni21A7" unicode="&#x21a7;" 
d="M650 294l-311 -311l-311 311l28 29l263 -264v626h-249v40h538v-40h-249v-626l263 264z" />
    <glyph glyph-name="filledbox" unicode="&#x25a0;" horiz-adv-x="714" 
d="M626 0h-538v538h538v-538z" />
    <glyph glyph-name="H22073" unicode="&#x25a1;" horiz-adv-x="714" 
d="M626 0h-538v538h538v-538zM586 498h-458v-458h458v458z" />
    <glyph glyph-name="H18533" unicode="&#x25cf;" horiz-adv-x="672" 
d="M53 268q0 77 37 141.5t101.5 102.5t144.5 38t144.5 -38t101.5 -102.5t37 -141.5q0 -76 -37 -140.5t-101.5 -102.5t-144.5 -38t-144.5 38t-101.5 102.5t-37 140.5z" />
    <glyph glyph-name="onethird" unicode="&#x2153;" horiz-adv-x="720" 
d="M151 317h-38v326h-92v26q37 0 56 4t30 15.5t18 36.5h26v-408zM575 725l-502 -725h-44l502 725h44zM641 115q0 42 -33.5 63t-90.5 21h-7v33h5q57 0 86.5 21.5t29.5 55.5q0 31 -27.5 51.5t-71.5 20.5q-32 0 -56.5 -9t-52.5 -26v39q51 31 110 31q62 0 99.5 -28.5t37.5 -73.5
q0 -37 -24.5 -63t-59.5 -34q41 -7 67.5 -33.5t26.5 -69.5q0 -53 -42 -85.5t-109 -32.5t-115 29v39q29 -17 54.5 -25.5t58.5 -8.5q50 0 82 23.5t32 61.5z" />
    <glyph glyph-name="twothirds" unicode="&#x2154;" horiz-adv-x="830" 
d="M290 622q0 -41 -22.5 -79.5t-66.5 -80.5t-126 -109h219v-36h-271v37q84 64 131.5 108t71.5 82t24 76q0 41 -26 59.5t-64 18.5q-30 0 -55.5 -9t-55.5 -27v38q52 32 113 32q57 0 92.5 -29t35.5 -81zM685 725l-502 -725h-44l502 725h44zM751 115q0 42 -33.5 63t-90.5 21h-7
v33h5q57 0 86.5 21.5t29.5 55.5q0 31 -27.5 51.5t-71.5 20.5q-32 0 -56.5 -9t-52.5 -26v39q51 31 110 31q62 0 99.5 -28.5t37.5 -73.5q0 -37 -24.5 -63t-59.5 -34q41 -7 67.5 -33.5t26.5 -69.5q0 -53 -42 -85.5t-109 -32.5t-115 29v39q29 -17 54.5 -25.5t58.5 -8.5
q50 0 82 23.5t32 61.5z" />
    <glyph glyph-name="uni2155" unicode="&#x2155;" horiz-adv-x="717" 
d="M151 317h-38v326h-92v26q37 0 56 4t30 15.5t18 36.5h26v-408zM575 725l-502 -725h-44l502 725h44zM643 129q0 44 -31.5 70t-79.5 26q-56 0 -103 -24l22 208h215v-36h-186l-14 -126q33 13 70 13q60 0 103 -34t43 -97q0 -42 -22 -72t-57 -45.5t-74 -15.5q-61 0 -112 29v39
q28 -17 53 -25.5t58 -8.5q48 0 81.5 27t33.5 72z" />
    <glyph glyph-name="uni2159" unicode="&#x2159;" horiz-adv-x="711" 
d="M151 317h-38v326h-92v26q37 0 56 4t30 15.5t18 36.5h26v-408zM575 725l-502 -725h-44l502 725h44zM425 203q13 31 44 50.5t71 19.5q60 0 98.5 -39t38.5 -102q0 -59 -39 -97.5t-102 -38.5q-68 0 -107.5 47t-39.5 145q0 68 21.5 120t60 80t90.5 28q45 0 92 -18l-2 -38
q-24 11 -45.5 16t-46.5 5q-57 0 -92 -44.5t-42 -133.5zM536 28q45 0 74.5 29.5t29.5 73.5q0 50 -29 79t-75 29q-48 0 -76.5 -29.5t-28.5 -72.5q0 -51 30 -80t75 -29z" />
    <glyph glyph-name="oneeighth" unicode="&#x215b;" horiz-adv-x="730" 
d="M151 317h-38v326h-92v26q37 0 56 4t30 15.5t18 36.5h26v-408zM575 725l-502 -725h-44l502 725h44zM678 315q0 -35 -16.5 -59t-45.5 -36q74 -33 74 -106q0 -56 -41 -88t-106 -32t-106 32t-41 88q0 73 73 106q-27 11 -44 35.5t-17 59.5q0 45 37 73t98 28q62 0 98.5 -28
t36.5 -73zM543 384q-44 0 -70 -20t-26 -56q0 -34 26 -54.5t70 -20.5t70 20.5t26 54.5q0 36 -26 56t-70 20zM436 115q0 -41 29 -65t78 -24t78 24t29 65t-29 65t-78 24t-78 -24t-29 -65z" />
    <glyph glyph-name="uni2156" unicode="&#x2156;" horiz-adv-x="827" 
d="M290 622q0 -41 -22.5 -79.5t-66.5 -80.5t-126 -109h219v-36h-271v37q84 64 131.5 108t71.5 82t24 76q0 41 -26 59.5t-64 18.5q-30 0 -55.5 -9t-55.5 -27v38q52 32 113 32q57 0 92.5 -29t35.5 -81zM685 725l-502 -725h-44l502 725h44zM753 129q0 44 -31.5 70t-79.5 26
q-56 0 -103 -24l22 208h215v-36h-186l-14 -126q33 13 70 13q60 0 103 -34t43 -97q0 -42 -22 -72t-57 -45.5t-74 -15.5q-61 0 -112 29v39q28 -17 53 -25.5t58 -8.5q48 0 81.5 27t33.5 72z" />
    <glyph glyph-name="uni2157" unicode="&#x2157;" horiz-adv-x="811" 
d="M260 431q0 42 -33.5 63t-90.5 21h-7v33h5q57 0 86.5 21.5t29.5 55.5q0 31 -27.5 51.5t-71.5 20.5q-32 0 -56.5 -9t-52.5 -26v39q51 31 110 31q62 0 99.5 -28.5t37.5 -73.5q0 -37 -24.5 -63t-59.5 -34q41 -7 67.5 -33.5t26.5 -69.5q0 -53 -42 -85.5t-109 -32.5t-115 29v39
q29 -17 54.5 -25.5t58.5 -8.5q50 0 82 23.5t32 61.5zM669 725l-502 -725h-44l502 725h44zM737 129q0 44 -31.5 70t-79.5 26q-56 0 -103 -24l22 208h215v-36h-186l-14 -126q33 13 70 13q60 0 103 -34t43 -97q0 -42 -22 -72t-57 -45.5t-74 -15.5q-61 0 -112 29v39
q28 -17 53 -25.5t58 -8.5q48 0 81.5 27t33.5 72z" />
    <glyph glyph-name="threeeighths" unicode="&#x215c;" horiz-adv-x="824" 
d="M260 431q0 42 -33.5 63t-90.5 21h-7v33h5q57 0 86.5 21.5t29.5 55.5q0 31 -27.5 51.5t-71.5 20.5q-32 0 -56.5 -9t-52.5 -26v39q51 31 110 31q62 0 99.5 -28.5t37.5 -73.5q0 -37 -24.5 -63t-59.5 -34q41 -7 67.5 -33.5t26.5 -69.5q0 -53 -42 -85.5t-109 -32.5t-115 29v39
q29 -17 54.5 -25.5t58.5 -8.5q50 0 82 23.5t32 61.5zM669 725l-502 -725h-44l502 725h44zM772 315q0 -35 -16.5 -59t-45.5 -36q74 -33 74 -106q0 -56 -41 -88t-106 -32t-106 32t-41 88q0 73 73 106q-27 11 -44 35.5t-17 59.5q0 45 37 73t98 28q62 0 98.5 -28t36.5 -73z
M637 384q-44 0 -70 -20t-26 -56q0 -34 26 -54.5t70 -20.5t70 20.5t26 54.5q0 36 -26 56t-70 20zM530 115q0 -41 29 -65t78 -24t78 24t29 65t-29 65t-78 24t-78 -24t-29 -65z" />
    <glyph glyph-name="uni2158" unicode="&#x2158;" horiz-adv-x="852" 
d="M278 459h79v-36h-79v-106h-38v106h-218v33l219 269h37v-266zM240 459v214l-173 -214h173zM710 725l-502 -725h-44l502 725h44zM778 129q0 44 -31.5 70t-79.5 26q-56 0 -103 -24l22 208h215v-36h-186l-14 -126q33 13 70 13q60 0 103 -34t43 -97q0 -42 -22 -72t-57 -45.5
t-74 -15.5q-61 0 -112 29v39q28 -17 53 -25.5t58 -8.5q48 0 81.5 27t33.5 72z" />
    <glyph glyph-name="uni215A" unicode="&#x215a;" horiz-adv-x="803" 
d="M262 445q0 44 -31.5 70t-79.5 26q-56 0 -103 -24l22 208h215v-36h-186l-14 -126q33 13 70 13q60 0 103 -34t43 -97q0 -42 -22 -72t-57 -45.5t-74 -15.5q-61 0 -112 29v39q28 -17 53 -25.5t58 -8.5q48 0 81.5 27t33.5 72zM667 725l-502 -725h-44l502 725h44zM517 203
q13 31 44 50.5t71 19.5q60 0 98.5 -39t38.5 -102q0 -59 -39 -97.5t-102 -38.5q-68 0 -107.5 47t-39.5 145q0 68 21.5 120t60 80t90.5 28q45 0 92 -18l-2 -38q-24 11 -45.5 16t-46.5 5q-57 0 -92 -44.5t-42 -133.5zM628 28q45 0 74.5 29.5t29.5 73.5q0 50 -29 79t-75 29
q-48 0 -76.5 -29.5t-28.5 -72.5q0 -51 30 -80t75 -29z" />
    <glyph glyph-name="fiveeighths" unicode="&#x215d;" horiz-adv-x="822" 
d="M262 445q0 44 -31.5 70t-79.5 26q-56 0 -103 -24l22 208h215v-36h-186l-14 -126q33 13 70 13q60 0 103 -34t43 -97q0 -42 -22 -72t-57 -45.5t-74 -15.5q-61 0 -112 29v39q28 -17 53 -25.5t58 -8.5q48 0 81.5 27t33.5 72zM667 725l-502 -725h-44l502 725h44zM770 315
q0 -35 -16.5 -59t-45.5 -36q74 -33 74 -106q0 -56 -41 -88t-106 -32t-106 32t-41 88q0 73 73 106q-27 11 -44 35.5t-17 59.5q0 45 37 73t98 28q62 0 98.5 -28t36.5 -73zM635 384q-44 0 -70 -20t-26 -56q0 -34 26 -54.5t70 -20.5t70 20.5t26 54.5q0 36 -26 56t-70 20z
M528 115q0 -41 29 -65t78 -24t78 24t29 65t-29 65t-78 24t-78 -24t-29 -65z" />
    <glyph glyph-name="seveneighths" unicode="&#x215e;" horiz-adv-x="753" 
d="M20 689v36h280v-36q-175 -133 -183 -372h-42q7 129 54.5 221.5t125.5 150.5h-235zM598 725l-502 -725h-44l502 725h44zM701 315q0 -35 -16.5 -59t-45.5 -36q74 -33 74 -106q0 -56 -41 -88t-106 -32t-106 32t-41 88q0 73 73 106q-27 11 -44 35.5t-17 59.5q0 45 37 73
t98 28q62 0 98.5 -28t36.5 -73zM566 384q-44 0 -70 -20t-26 -56q0 -34 26 -54.5t70 -20.5t70 20.5t26 54.5q0 36 -26 56t-70 20zM459 115q0 -41 29 -65t78 -24t78 24t29 65t-29 65t-78 24t-78 -24t-29 -65z" />
    <glyph glyph-name="uni215F" unicode="&#x215f;" horiz-adv-x="381" 
d="M151 317h-38v326h-92v26q37 0 56 4t30 15.5t18 36.5h26v-408zM575 725l-502 -725h-44l502 725h44z" />
    <glyph glyph-name="fraction" unicode="&#x2044;" horiz-adv-x="160" 
d="M354 725l-502 -725h-44l502 725h44z" />
    <glyph glyph-name="a.superior" horiz-adv-x="325" 
d="M234 632q-1 51 -22.5 65.5t-62.5 14.5q-24 0 -48 -7.5t-41 -16.5v35q18 9 45 16t54 7q52 0 82 -26t30 -92l-1 -84q0 -52 5 -105h-37l-3 59q-14 -33 -41.5 -50t-64.5 -17q-43 0 -72.5 23t-29.5 63q0 49 53 75t154 40zM235 583v20q-80 -10 -124 -29.5t-44 -54.5
q0 -27 20.5 -41.5t48.5 -14.5q41 0 70 29t29 91z" />
    <glyph glyph-name="b.superior" horiz-adv-x="360" 
d="M58 438v408h38v-157q16 28 42 42.5t60 14.5q55 0 91 -42.5t36 -115.5q0 -72 -36.5 -114.5t-90.5 -42.5q-33 0 -59.5 15t-42.5 42v-50h-38zM190 464q43 0 69 33t26 91t-26 91t-69 33q-39 0 -67.5 -31.5t-28.5 -92.5t28.5 -92.5t67.5 -31.5z" />
    <glyph glyph-name="c.superior" horiz-adv-x="283" 
d="M181 746q43 0 72 -13v-35q-28 14 -72 14q-48 0 -77.5 -32.5t-29.5 -91.5q0 -57 30 -90t76 -33q48 0 73 16v-35q-30 -15 -74 -15q-63 0 -104 43.5t-41 114.5t41.5 114t105.5 43z" />
    <glyph glyph-name="d.superior" horiz-adv-x="360" 
d="M302 438h-39v50q-14 -27 -40.5 -42t-60.5 -15q-54 0 -90.5 42.5t-36.5 114.5q0 73 36 115.5t91 42.5q34 0 60.5 -14.5t40.5 -42.5v157h39v-408zM266 588q0 61 -28.5 92.5t-67.5 31.5q-43 0 -69 -33t-26 -91t26 -91t69 -33q39 0 67.5 31.5t28.5 92.5z" />
    <glyph glyph-name="e.superior" horiz-adv-x="323" 
d="M271 486v-37q-34 -18 -87 -18q-67 0 -108.5 44t-41.5 115q0 70 37.5 113t94.5 43q60 0 94 -45t33 -118h-220q3 -56 33 -87t79 -31q51 0 86 21zM73 613h182q-2 46 -23.5 73.5t-66.5 27.5q-39 0 -63.5 -25.5t-28.5 -75.5z" />
    <glyph glyph-name="f.superior" horiz-adv-x="183" 
d="M69 776q0 37 20.5 54.5t53.5 17.5q13 0 24 -3v-32q-9 3 -19 3q-18 0 -29.5 -9t-11.5 -35v-31h60v-32h-60v-271h-38v271h-42v32h42v35z" />
    <glyph glyph-name="g.superior" horiz-adv-x="360" 
d="M73 348v36q16 -8 40 -13t50 -5q46 0 73.5 20t27.5 77v37q-15 -27 -41.5 -42t-60.5 -15q-54 0 -90.5 41.5t-36.5 110.5t36.5 110t90.5 41q34 0 60.5 -14.5t41.5 -41.5v51h38v-275q0 -74 -39.5 -104t-99.5 -30q-25 0 -50 4.5t-40 11.5zM266 595q0 57 -29 87.5t-67 30.5
q-43 0 -69 -32t-26 -86q0 -55 26 -87t69 -32q39 0 67.5 30.5t28.5 88.5z" />
    <glyph glyph-name="h.superior" horiz-adv-x="351" 
d="M96 689q12 25 36.5 41t63.5 16q102 0 102 -117v-191h-38v181q0 46 -16 70t-57 24t-66 -30t-25 -79v-166h-38v408h38v-157z" />
    <glyph glyph-name="i.superior" horiz-adv-x="154" 
d="M58 790v56h38v-56h-38zM58 438v303h38v-303h-38z" />
    <glyph glyph-name="j.superior" horiz-adv-x="165" 
d="M69 790v56h38v-56h-38zM107 741v-322q0 -44 -15 -62t-48 -18q-14 0 -31 5v33q12 -4 26 -4q17 0 23.5 9.5t6.5 37.5v289h-47v32h85z" />
    <glyph glyph-name="k.superior" horiz-adv-x="312" 
d="M58 438v408h38v-247l148 142h44l-156 -148l178 -155h-53l-161 140v-140h-38z" />
    <glyph glyph-name="l.superior" horiz-adv-x="154" 
d="M58 846h38v-408h-38v408z" />
    <glyph glyph-name="m.superior" horiz-adv-x="529" 
d="M58 438v303h38v-50q28 55 94 55q73 0 89 -63q32 63 102 63q48 0 72 -29q23 -27 23 -87v-192h-38v182q0 55 -18 74q-16 19 -52 19t-58.5 -29.5t-22.5 -78.5v-167h-38v182q0 50 -17 72q-17 21 -53 21q-37 0 -60 -29.5t-23 -78.5v-167h-38z" />
    <glyph glyph-name="uni207F" unicode="&#x207f;" horiz-adv-x="351" 
d="M96 689q12 25 36.5 41t63.5 16q102 0 102 -117v-191h-38v181q0 46 -16 70t-57 24t-66 -30t-25 -79v-166h-38v303h38v-52z" />
    <glyph glyph-name="o.superior" horiz-adv-x="346" 
d="M34 588q0 78 39.5 118t99.5 40q59 0 98.5 -40t39.5 -118t-39.5 -117.5t-98.5 -39.5q-60 0 -99.5 39.5t-39.5 117.5zM271 588q0 61 -27 92.5t-71 31.5q-45 0 -72 -31t-27 -93q0 -61 27 -92t72 -31q44 0 71 31t27 92z" />
    <glyph glyph-name="p.superior" horiz-adv-x="360" 
d="M58 339v402h38v-52q16 28 42 42.5t60 14.5q55 0 91 -42.5t36 -115.5q0 -72 -36.5 -114.5t-90.5 -42.5q-33 0 -59.5 15t-42.5 42v-149h-38zM190 464q43 0 69 33t26 91t-26 91t-69 33q-39 0 -67.5 -31.5t-28.5 -92.5t28.5 -92.5t67.5 -31.5z" />
    <glyph glyph-name="q.superior" horiz-adv-x="360" 
d="M302 339h-39v149q-14 -27 -40.5 -42t-60.5 -15q-54 0 -90.5 42.5t-36.5 114.5q0 73 36 115.5t91 42.5q34 0 60.5 -14.5t40.5 -42.5v52h39v-402zM266 588q0 61 -28.5 92.5t-67.5 31.5q-43 0 -69 -33t-26 -91t26 -91t69 -33q39 0 67.5 31.5t28.5 92.5z" />
    <glyph glyph-name="r.superior" horiz-adv-x="209" 
d="M194 702q-5 1 -17 1q-44 0 -63 -28t-19 -80v-157h-37v303h36v-56q11 26 36 42t53 16h11v-41z" />
    <glyph glyph-name="s.superior" horiz-adv-x="261" 
d="M32 450v40q18 -12 37.5 -18.5t47.5 -6.5q78 0 78 47q0 22 -14.5 35.5t-49.5 27.5l-20 8q-73 28 -73 88q0 35 29 55t69 20q42 0 80 -16v-38q-35 20 -79 20q-31 0 -47 -10.5t-16 -30.5q0 -34 49 -53l20 -8q51 -20 70 -41.5t19 -52.5q0 -36 -31 -60.5t-82 -24.5
q-53 0 -87 19z" />
    <glyph glyph-name="t.superior" horiz-adv-x="196" 
d="M67 741v69h39v-69h60v-32h-60v-194q0 -26 7.5 -35t25.5 -9q15 0 27 6v-32q-14 -7 -33 -7q-32 0 -49 15.5t-17 56.5v199h-49v32h49z" />
    <glyph glyph-name="u.superior" horiz-adv-x="343" 
d="M247 487q-26 -56 -98 -56q-50 0 -73 29.5t-23 86.5v194h38v-188q0 -90 66 -90q40 0 65 30.5t25 78.5v169h38v-303h-38v49z" />
    <glyph glyph-name="v.superior" horiz-adv-x="301" 
d="M18 741h42l92 -251l90 251h41l-113 -303h-37z" />
    <glyph glyph-name="w.superior" horiz-adv-x="439" 
d="M62 741l65 -245l73 245h38l76 -246l62 246h43l-88 -303h-35l-78 252l-75 -252h-36l-87 303h42z" />
    <glyph glyph-name="x.superior" horiz-adv-x="294" 
d="M230 741h43l-104 -146l112 -157h-45l-90 125l-89 -125h-43l111 156l-105 147h45l82 -116z" />
    <glyph glyph-name="y.superior" horiz-adv-x="301" 
d="M283 741l-151 -402h-37l39 99l-116 303h42l92 -251l90 251h41z" />
    <glyph glyph-name="z.superior" horiz-adv-x="286" 
d="M258 438h-233v32l184 239h-172v32h218v-32l-185 -239h188v-32z" />
    <glyph glyph-name="uni2074" unicode="&#x2074;" horiz-adv-x="380" 
d="M278 579h79v-36h-79v-106h-38v106h-218v33l219 269h37v-266zM240 579v214l-173 -214h173z" />
    <glyph glyph-name="uni2075" unicode="&#x2075;" horiz-adv-x="336" 
d="M262 566q0 44 -31.5 70t-79.5 26q-56 0 -103 -24l22 208h215v-36h-186l-14 -126q33 13 70 13q60 0 103 -34t43 -97q0 -42 -22 -72t-57 -45.5t-74 -15.5q-61 0 -112 29v39q28 -17 53 -25.5t58 -8.5q48 0 81.5 27t33.5 72z" />
    <glyph glyph-name="uni2076" unicode="&#x2076;" horiz-adv-x="363" 
d="M77 640q13 31 44 50.5t71 19.5q60 0 98.5 -39t38.5 -102q0 -59 -39 -97.5t-102 -38.5q-68 0 -107.5 47t-39.5 145q0 68 21.5 120t60 80t90.5 28q45 0 92 -18l-2 -38q-24 11 -45.5 16t-46.5 5q-57 0 -92 -44.5t-42 -133.5zM188 465q45 0 74.5 29.5t29.5 73.5q0 50 -29 79
t-75 29q-48 0 -76.5 -29.5t-28.5 -72.5q0 -51 30 -80t75 -29z" />
    <glyph glyph-name="uni2077" unicode="&#x2077;" horiz-adv-x="318" 
d="M20 810v36h280v-36q-175 -133 -183 -372h-42q7 129 54.5 221.5t125.5 150.5h-235z" />
    <glyph glyph-name="uni2078" unicode="&#x2078;" horiz-adv-x="374" 
d="M322 752q0 -35 -16.5 -59t-45.5 -36q74 -33 74 -106q0 -56 -41 -88t-106 -32t-106 32t-41 88q0 73 73 106q-27 11 -44 35.5t-17 59.5q0 45 37 73t98 28q62 0 98.5 -28t36.5 -73zM187 821q-44 0 -70 -20t-26 -56q0 -34 26 -54.5t70 -20.5t70 20.5t26 54.5q0 36 -26 56
t-70 20zM80 552q0 -41 29 -65t78 -24t78 24t29 65t-29 65t-78 24t-78 -24t-29 -65z" />
    <glyph glyph-name="uni2079" unicode="&#x2079;" horiz-adv-x="363" 
d="M286 646q-13 -31 -44 -50.5t-71 -19.5q-60 0 -98.5 39t-38.5 102q0 58 39 97t102 39q68 0 107.5 -47t39.5 -145q0 -68 -21.5 -120t-60 -80t-90.5 -28q-43 0 -92 17l2 39q25 -11 46 -16.5t46 -5.5q57 0 92 45t42 134zM175 821q-44 0 -74 -29.5t-30 -73.5q0 -50 29 -79.5
t75 -29.5q48 0 76.5 29.5t28.5 73.5q0 51 -30 80t-75 29z" />
    <glyph glyph-name="uni2070" unicode="&#x2070;" horiz-adv-x="398" 
d="M41 642q0 99 40 155t118 56t118 -56t40 -155t-40 -155t-118 -56t-118 56t-40 155zM317 642q0 89 -31.5 134t-86.5 45t-86.5 -45t-31.5 -134t31.5 -134t86.5 -45t86.5 45t31.5 134z" />
    <glyph glyph-name="uni2070.aalt" horiz-adv-x="398" 
d="M41 642q0 99 40 155t118 56t118 -56t40 -155t-40 -155t-118 -56t-118 56t-40 155zM81 621l231 84q-10 58 -39.5 87t-73.5 29q-55 0 -86.5 -45t-31.5 -134v-21zM317 642l-1 27l-231 -83q9 -61 38.5 -92t75.5 -31q55 0 86.5 45t31.5 134z" />
    <glyph glyph-name="period.superior" horiz-adv-x="150" 
d="M100 494v-56h-50v56h50z" />
    <glyph glyph-name="hyphen.superior" horiz-adv-x="260" 
d="M210 612v-41h-160v41h160z" />
    <glyph glyph-name="comma.superior" horiz-adv-x="141" 
d="M53 499h37v-16q0 -43 -4 -68t-19 -42.5t-47 -20.5v37q15 3 21.5 11t9 26t2.5 56v17z" />
    <glyph glyph-name="uni207C" unicode="&#x207c;" horiz-adv-x="409" 
d="M359 689v-35h-309v35h309zM359 528v-36h-309v36h309z" />
    <glyph glyph-name="uni207A" unicode="&#x207a;" horiz-adv-x="371" 
d="M204 573v-135h-37v135h-136v35h136v130h37v-130h136v-35h-136z" />
    <glyph glyph-name="uni207B" unicode="&#x207b;" horiz-adv-x="409" 
d="M50 573v35h309v-35h-309z" />
    <glyph glyph-name="uni207D" unicode="&#x207d;" horiz-adv-x="178" 
d="M114 846h32q-66 -116 -66 -255t66 -253h-32q-30 44 -51 111t-21 142q0 76 21.5 143.5t50.5 111.5z" />
    <glyph glyph-name="uni207E" unicode="&#x207e;" horiz-adv-x="178" 
d="M64 338h-32q66 116 66 255t-66 253h32q30 -44 51 -111t21 -142q0 -76 -21.5 -143.5t-50.5 -111.5z" />
    <glyph glyph-name="a.inferior" horiz-adv-x="324" 
d="M234 66q-1 51 -22.5 65.5t-62.5 14.5q-24 0 -48 -7.5t-41 -16.5v35q18 9 45 16t54 7q52 0 82 -26t30 -92l-1 -84q0 -52 5 -105h-37l-3 59q-14 -33 -41.5 -50t-64.5 -17q-43 0 -72.5 23t-29.5 63q0 49 53 75t154 40zM235 17v20q-80 -10 -124 -29.5t-44 -54.5
q0 -27 20.5 -41.5t48.5 -14.5q41 0 70 29t29 91z" />
    <glyph glyph-name="b.inferior" horiz-adv-x="360" 
d="M58 -128v408h38v-157q16 28 42 42.5t60 14.5q55 0 91 -42.5t36 -115.5q0 -72 -36.5 -114.5t-90.5 -42.5q-33 0 -59.5 15t-42.5 42v-50h-38zM190 -102q43 0 69 33t26 91t-26 91t-69 33q-39 0 -67.5 -31.5t-28.5 -92.5t28.5 -92.5t67.5 -31.5z" />
    <glyph glyph-name="c.inferior" horiz-adv-x="283" 
d="M181 180q43 0 72 -13v-35q-28 14 -72 14q-48 0 -77.5 -32.5t-29.5 -91.5q0 -57 30 -90t76 -33q48 0 73 16v-35q-30 -15 -74 -15q-63 0 -104 43.5t-41 114.5t41.5 114t105.5 43z" />
    <glyph glyph-name="d.inferior" horiz-adv-x="360" 
d="M302 -128h-39v50q-14 -27 -40.5 -42t-60.5 -15q-54 0 -90.5 42.5t-36.5 114.5q0 73 36 115.5t91 42.5q34 0 60.5 -14.5t40.5 -42.5v157h39v-408zM266 22q0 61 -28.5 92.5t-67.5 31.5q-43 0 -69 -33t-26 -91t26 -91t69 -33q39 0 67.5 31.5t28.5 92.5z" />
    <glyph glyph-name="e.inferior" horiz-adv-x="323" 
d="M271 -80v-37q-34 -18 -87 -18q-67 0 -108.5 44t-41.5 115q0 70 37.5 113t94.5 43q60 0 94 -45t33 -118h-220q3 -56 33 -87t79 -31q51 0 86 21zM73 47h182q-2 46 -23.5 73.5t-66.5 27.5q-39 0 -63.5 -25.5t-28.5 -75.5z" />
    <glyph glyph-name="f.inferior" horiz-adv-x="184" 
d="M69 210q0 37 20.5 54.5t53.5 17.5q13 0 24 -3v-32q-9 3 -19 3q-18 0 -29.5 -9t-11.5 -35v-31h60v-32h-60v-271h-38v271h-42v32h42v35z" />
    <glyph glyph-name="g.inferior" horiz-adv-x="359" 
d="M73 -218v36q16 -8 40 -13t50 -5q46 0 73.5 20t27.5 77v37q-15 -27 -41.5 -42t-60.5 -15q-54 0 -90.5 41.5t-36.5 110.5t36.5 110t90.5 41q34 0 60.5 -14.5t41.5 -41.5v51h38v-275q0 -74 -39.5 -104t-99.5 -30q-25 0 -50 4.5t-40 11.5zM266 29q0 57 -29 87.5t-67 30.5
q-43 0 -69 -32t-26 -86q0 -55 26 -87t69 -32q39 0 67.5 30.5t28.5 88.5z" />
    <glyph glyph-name="h.inferior" horiz-adv-x="352" 
d="M96 123q12 25 36.5 41t63.5 16q102 0 102 -117v-191h-38v181q0 46 -16 70t-57 24t-66 -30t-25 -79v-166h-38v408h38v-157z" />
    <glyph glyph-name="i.inferior" horiz-adv-x="154" 
d="M58 224v56h38v-56h-38zM58 -128v303h38v-303h-38z" />
    <glyph glyph-name="j.inferior" horiz-adv-x="165" 
d="M69 224v56h38v-56h-38zM107 175v-322q0 -44 -15 -62t-48 -18q-14 0 -31 5v33q12 -4 26 -4q17 0 23.5 9.5t6.5 37.5v289h-47v32h85z" />
    <glyph glyph-name="k.inferior" horiz-adv-x="313" 
d="M58 -128v408h38v-247l148 142h44l-156 -148l178 -155h-53l-161 140v-140h-38z" />
    <glyph glyph-name="l.inferior" horiz-adv-x="154" 
d="M58 280h38v-408h-38v408z" />
    <glyph glyph-name="m.inferior" horiz-adv-x="530" 
d="M58 -128v303h38v-50q28 55 94 55q73 0 89 -63q32 63 102 63q48 0 72 -29q23 -27 23 -87v-192h-38v182q0 55 -18 74q-16 19 -52 19t-58.5 -29.5t-22.5 -78.5v-167h-38v182q0 50 -17 72q-17 21 -53 21q-37 0 -60 -29.5t-23 -78.5v-167h-38z" />
    <glyph glyph-name="n.inferior" horiz-adv-x="352" 
d="M96 123q12 25 36.5 41t63.5 16q102 0 102 -117v-191h-38v181q0 46 -16 70t-57 24t-66 -30t-25 -79v-166h-38v303h38v-52z" />
    <glyph glyph-name="o.inferior" horiz-adv-x="346" 
d="M34 22q0 78 39.5 118t99.5 40q59 0 98.5 -40t39.5 -118t-39.5 -117.5t-98.5 -39.5q-60 0 -99.5 39.5t-39.5 117.5zM271 22q0 61 -27 92.5t-71 31.5q-45 0 -72 -31t-27 -93q0 -61 27 -92t72 -31q44 0 71 31t27 92z" />
    <glyph glyph-name="p.inferior" horiz-adv-x="360" 
d="M58 -227v402h38v-52q16 28 42 42.5t60 14.5q55 0 91 -42.5t36 -115.5q0 -72 -36.5 -114.5t-90.5 -42.5q-33 0 -59.5 15t-42.5 42v-149h-38zM190 -102q43 0 69 33t26 91t-26 91t-69 33q-39 0 -67.5 -31.5t-28.5 -92.5t28.5 -92.5t67.5 -31.5z" />
    <glyph glyph-name="q.inferior" horiz-adv-x="360" 
d="M302 -227h-39v149q-14 -27 -40.5 -42t-60.5 -15q-54 0 -90.5 42.5t-36.5 114.5q0 73 36 115.5t91 42.5q34 0 60.5 -14.5t40.5 -42.5v52h39v-402zM266 22q0 61 -28.5 92.5t-67.5 31.5q-43 0 -69 -33t-26 -91t26 -91t69 -33q39 0 67.5 31.5t28.5 92.5z" />
    <glyph glyph-name="r.inferior" horiz-adv-x="210" 
d="M194 136q-5 1 -17 1q-44 0 -63 -28t-19 -80v-157h-37v303h36v-56q11 26 36 42t53 16h11v-41z" />
    <glyph glyph-name="s.inferior" horiz-adv-x="261" 
d="M32 -116v40q18 -12 37.5 -18.5t47.5 -6.5q78 0 78 47q0 22 -14.5 35.5t-49.5 27.5l-20 8q-73 28 -73 88q0 35 29 55t69 20q42 0 80 -16v-38q-35 20 -79 20q-31 0 -47 -10.5t-16 -30.5q0 -34 49 -53l20 -8q51 -20 70 -41.5t19 -52.5q0 -36 -31 -60.5t-82 -24.5
q-53 0 -87 19z" />
    <glyph glyph-name="t.inferior" horiz-adv-x="196" 
d="M67 175v69h39v-69h60v-32h-60v-194q0 -26 7.5 -35t25.5 -9q15 0 27 6v-32q-14 -7 -33 -7q-32 0 -49 15.5t-17 56.5v199h-49v32h49z" />
    <glyph glyph-name="u.inferior" horiz-adv-x="343" 
d="M247 -79q-26 -56 -98 -56q-50 0 -73 29.5t-23 86.5v194h38v-188q0 -90 66 -90q40 0 65 30.5t25 78.5v169h38v-303h-38v49z" />
    <glyph glyph-name="v.inferior" horiz-adv-x="301" 
d="M18 175h42l92 -251l90 251h41l-113 -303h-37z" />
    <glyph glyph-name="w.inferior" horiz-adv-x="439" 
d="M62 175l65 -245l73 245h38l76 -246l62 246h43l-88 -303h-35l-78 252l-75 -252h-36l-87 303h42z" />
    <glyph glyph-name="x.inferior" horiz-adv-x="294" 
d="M230 175h43l-104 -146l112 -157h-45l-90 125l-89 -125h-43l111 156l-105 147h45l82 -116z" />
    <glyph glyph-name="y.inferior" horiz-adv-x="301" 
d="M283 175l-151 -402h-37l39 99l-116 303h42l92 -251l90 251h41z" />
    <glyph glyph-name="z.inferior" horiz-adv-x="286" 
d="M258 -128h-233v32l184 239h-172v32h218v-32l-185 -239h188v-32z" />
    <glyph glyph-name="uni2081" unicode="&#x2081;" horiz-adv-x="295" 
d="M176 -92h103v-36h-250v36h109v290h-94v26q38 0 57 3.5t30 15.5t19 37h26v-372z" />
    <glyph glyph-name="uni2082" unicode="&#x2082;" horiz-adv-x="332" 
d="M291 177q0 -41 -22.5 -79.5t-66.5 -80.5t-126 -109h219v-36h-271v37q84 64 131.5 108t71.5 82t24 76q0 41 -26 59.5t-64 18.5q-30 0 -55.5 -9t-55.5 -27v38q52 32 113 32q57 0 92.5 -29t35.5 -81z" />
    <glyph glyph-name="uni2083" unicode="&#x2083;" horiz-adv-x="339" 
d="M260 -14q0 42 -33.5 63t-90.5 21h-7v33h5q57 0 86.5 21.5t29.5 55.5q0 31 -27.5 51.5t-71.5 20.5q-32 0 -56.5 -9t-52.5 -26v39q51 31 110 31q62 0 99.5 -28.5t37.5 -73.5q0 -37 -24.5 -63t-59.5 -34q41 -7 67.5 -33.5t26.5 -69.5q0 -53 -42 -85.5t-109 -32.5t-115 29v39
q29 -17 54.5 -25.5t58.5 -8.5q50 0 82 23.5t32 61.5z" />
    <glyph glyph-name="uni2084" unicode="&#x2084;" horiz-adv-x="380" 
d="M278 13h79v-36h-79v-106h-38v106h-218v33l219 269h37v-266zM240 13v214l-173 -214h173z" />
    <glyph glyph-name="uni2085" unicode="&#x2085;" horiz-adv-x="336" 
d="M262 0q0 44 -31.5 70t-79.5 26q-56 0 -103 -24l22 208h215v-36h-186l-14 -126q33 13 70 13q60 0 103 -34t43 -97q0 -42 -22 -72t-57 -45.5t-74 -15.5q-61 0 -112 29v39q28 -17 53 -25.5t58 -8.5q48 0 81.5 27t33.5 72z" />
    <glyph glyph-name="uni2086" unicode="&#x2086;" horiz-adv-x="363" 
d="M77 74q13 31 44 50.5t71 19.5q60 0 98.5 -39t38.5 -102q0 -59 -39 -97.5t-102 -38.5q-68 0 -107.5 47t-39.5 145q0 68 21.5 120t60 80t90.5 28q45 0 92 -18l-2 -38q-24 11 -45.5 16t-46.5 5q-57 0 -92 -44.5t-42 -133.5zM188 -101q45 0 74.5 29.5t29.5 73.5q0 50 -29 79
t-75 29q-48 0 -76.5 -29.5t-28.5 -72.5q0 -51 30 -80t75 -29z" />
    <glyph glyph-name="uni2087" unicode="&#x2087;" horiz-adv-x="317" 
d="M20 244v36h280v-36q-175 -133 -183 -372h-42q7 129 54.5 221.5t125.5 150.5h-235z" />
    <glyph glyph-name="uni2088" unicode="&#x2088;" horiz-adv-x="374" 
d="M322 186q0 -35 -16.5 -59t-45.5 -36q74 -33 74 -106q0 -56 -41 -88t-106 -32t-106 32t-41 88q0 73 73 106q-27 11 -44 35.5t-17 59.5q0 45 37 73t98 28q62 0 98.5 -28t36.5 -73zM187 255q-44 0 -70 -20t-26 -56q0 -34 26 -54.5t70 -20.5t70 20.5t26 54.5q0 36 -26 56
t-70 20zM80 -14q0 -41 29 -65t78 -24t78 24t29 65t-29 65t-78 24t-78 -24t-29 -65z" />
    <glyph glyph-name="uni2089" unicode="&#x2089;" horiz-adv-x="363" 
d="M286 80q-13 -31 -44 -50.5t-71 -19.5q-60 0 -98.5 39t-38.5 102q0 58 39 97t102 39q68 0 107.5 -47t39.5 -145q0 -68 -21.5 -120t-60 -80t-90.5 -28q-43 0 -92 17l2 39q25 -11 46 -16.5t46 -5.5q57 0 92 45t42 134zM175 255q-44 0 -74 -29.5t-30 -73.5q0 -50 29 -79.5
t75 -29.5q48 0 76.5 29.5t28.5 73.5q0 51 -30 80t-75 29z" />
    <glyph glyph-name="uni2080" unicode="&#x2080;" horiz-adv-x="398" 
d="M41 76q0 99 40 155t118 56t118 -56t40 -155t-40 -155t-118 -56t-118 56t-40 155zM317 76q0 89 -31.5 134t-86.5 45t-86.5 -45t-31.5 -134t31.5 -134t86.5 -45t86.5 45t31.5 134z" />
    <glyph glyph-name="uni2080.aalt" horiz-adv-x="398" 
d="M41 76q0 99 40 155t118 56t118 -56t40 -155t-40 -155t-118 -56t-118 56t-40 155zM81 55l231 84q-10 58 -39.5 87t-73.5 29q-55 0 -86.5 -45t-31.5 -134v-21zM317 76l-1 27l-231 -83q9 -61 38.5 -92t75.5 -31q55 0 86.5 45t31.5 134z" />
    <glyph glyph-name="period.inferior" horiz-adv-x="150" 
d="M100 -72v-56h-50v56h50z" />
    <glyph glyph-name="hyphen.inferior" horiz-adv-x="260" 
d="M210 46v-41h-160v41h160z" />
    <glyph glyph-name="comma.inferior" horiz-adv-x="151" 
d="M53 -67h37v-16q0 -43 -4 -68t-19 -42.5t-47 -20.5v37q15 3 21.5 11t9 26t2.5 56v17z" />
    <glyph glyph-name="equal.inferior" horiz-adv-x="409" 
d="M359 123v-35h-309v35h309zM359 -38v-36h-309v36h309z" />
    <glyph glyph-name="plus.inferior" horiz-adv-x="371" 
d="M204 7v-135h-37v135h-136v35h136v130h37v-130h136v-35h-136z" />
    <glyph glyph-name="minus.inferior" horiz-adv-x="407" 
d="M50 7v35h309v-35h-309z" />
    <glyph glyph-name="uni208D" unicode="&#x208d;" horiz-adv-x="179" 
d="M114 280h32q-66 -116 -66 -255t66 -253h-32q-30 44 -51 111t-21 142q0 76 21.5 143.5t50.5 111.5z" />
    <glyph glyph-name="uni208E" unicode="&#x208e;" horiz-adv-x="179" 
d="M65 -228h-32q66 116 66 255t-66 253h32q30 -44 51 -111t21 -142q0 -76 -21.5 -143.5t-50.5 -111.5z" />
    <glyph glyph-name="one.numr" horiz-adv-x="221" 
d="M151 317h-38v326h-92v26q37 0 56 4t30 15.5t18 36.5h26v-408z" />
    <glyph glyph-name="two.numr" horiz-adv-x="331" 
d="M290 622q0 -41 -22.5 -79.5t-66.5 -80.5t-126 -109h219v-36h-271v37q84 64 131.5 108t71.5 82t24 76q0 41 -26 59.5t-64 18.5q-30 0 -55.5 -9t-55.5 -27v38q52 32 113 32q57 0 92.5 -29t35.5 -81z" />
    <glyph glyph-name="three.numr" horiz-adv-x="339" 
d="M260 431q0 42 -33.5 63t-90.5 21h-7v33h5q57 0 86.5 21.5t29.5 55.5q0 31 -27.5 51.5t-71.5 20.5q-32 0 -56.5 -9t-52.5 -26v39q51 31 110 31q62 0 99.5 -28.5t37.5 -73.5q0 -37 -24.5 -63t-59.5 -34q41 -7 67.5 -33.5t26.5 -69.5q0 -53 -42 -85.5t-109 -32.5t-115 29v39
q29 -17 54.5 -25.5t58.5 -8.5q50 0 82 23.5t32 61.5z" />
    <glyph glyph-name="four.numr" horiz-adv-x="380" 
d="M278 459h79v-36h-79v-106h-38v106h-218v33l219 269h37v-266zM240 459v214l-173 -214h173z" />
    <glyph glyph-name="five.numr" horiz-adv-x="336" 
d="M262 445q0 44 -31.5 70t-79.5 26q-56 0 -103 -24l22 208h215v-36h-186l-14 -126q33 13 70 13q60 0 103 -34t43 -97q0 -42 -22 -72t-57 -45.5t-74 -15.5q-61 0 -112 29v39q28 -17 53 -25.5t58 -8.5q48 0 81.5 27t33.5 72z" />
    <glyph glyph-name="six.numr" horiz-adv-x="363" 
d="M77 519q13 31 44 50.5t71 19.5q60 0 98.5 -39t38.5 -102q0 -59 -39 -97.5t-102 -38.5q-68 0 -107.5 47t-39.5 145q0 68 21.5 120t60 80t90.5 28q45 0 92 -18l-2 -38q-24 11 -45.5 16t-46.5 5q-57 0 -92 -44.5t-42 -133.5zM188 344q45 0 74.5 29.5t29.5 73.5q0 50 -29 79
t-75 29q-48 0 -76.5 -29.5t-28.5 -72.5q0 -51 30 -80t75 -29z" />
    <glyph glyph-name="seven.numr" horiz-adv-x="318" 
d="M20 689v36h280v-36q-175 -133 -183 -372h-42q7 129 54.5 221.5t125.5 150.5h-235z" />
    <glyph glyph-name="eight.numr" horiz-adv-x="374" 
d="M322 631q0 -35 -16.5 -59t-45.5 -36q74 -33 74 -106q0 -56 -41 -88t-106 -32t-106 32t-41 88q0 73 73 106q-27 11 -44 35.5t-17 59.5q0 45 37 73t98 28q62 0 98.5 -28t36.5 -73zM187 700q-44 0 -70 -20t-26 -56q0 -34 26 -54.5t70 -20.5t70 20.5t26 54.5q0 36 -26 56
t-70 20zM80 431q0 -41 29 -65t78 -24t78 24t29 65t-29 65t-78 24t-78 -24t-29 -65z" />
    <glyph glyph-name="nine.numr" horiz-adv-x="363" 
d="M286 525q-13 -31 -44 -50.5t-71 -19.5q-60 0 -98.5 39t-38.5 102q0 58 39 97t102 39q68 0 107.5 -47t39.5 -145q0 -68 -21.5 -120t-60 -80t-90.5 -28q-43 0 -92 17l2 39q25 -11 46 -16.5t46 -5.5q57 0 92 45t42 134zM175 700q-44 0 -74 -29.5t-30 -73.5q0 -50 29 -79.5
t75 -29.5q48 0 76.5 29.5t28.5 73.5q0 51 -30 80t-75 29z" />
    <glyph glyph-name="zero.numr" horiz-adv-x="398" 
d="M41 521q0 99 40 155t118 56t118 -56t40 -155t-40 -155t-118 -56t-118 56t-40 155zM317 521q0 89 -31.5 134t-86.5 45t-86.5 -45t-31.5 -134t31.5 -134t86.5 -45t86.5 45t31.5 134z" />
    <glyph glyph-name="zero.numr.zero" horiz-adv-x="398" 
d="M41 521q0 99 40 155t118 56t118 -56t40 -155t-40 -155t-118 -56t-118 56t-40 155zM81 500l231 84q-10 58 -39.5 87t-73.5 29q-55 0 -86.5 -45t-31.5 -134v-21zM317 521l-1 27l-231 -83q9 -61 38.5 -92t75.5 -31q55 0 86.5 45t31.5 134z" />
    <glyph glyph-name="one.dnom" horiz-adv-x="221" 
d="M151 1h-38v326h-92v26q37 0 56 4t30 15.5t18 36.5h26v-408z" />
    <glyph glyph-name="two.dnom" horiz-adv-x="332" 
d="M291 306q0 -41 -22.5 -79.5t-66.5 -80.5t-126 -109h219v-36h-271v37q84 64 131.5 108t71.5 82t24 76q0 41 -26 59.5t-64 18.5q-30 0 -55.5 -9t-55.5 -27v38q52 32 113 32q57 0 92.5 -29t35.5 -81z" />
    <glyph glyph-name="three.dnom" horiz-adv-x="339" 
d="M260 115q0 42 -33.5 63t-90.5 21h-7v33h5q57 0 86.5 21.5t29.5 55.5q0 31 -27.5 51.5t-71.5 20.5q-32 0 -56.5 -9t-52.5 -26v39q51 31 110 31q62 0 99.5 -28.5t37.5 -73.5q0 -37 -24.5 -63t-59.5 -34q41 -7 67.5 -33.5t26.5 -69.5q0 -53 -42 -85.5t-109 -32.5t-115 29v39
q29 -17 54.5 -25.5t58.5 -8.5q50 0 82 23.5t32 61.5z" />
    <glyph glyph-name="four.dnom" horiz-adv-x="379" 
d="M278 143h79v-36h-79v-106h-38v106h-218v33l219 269h37v-266zM240 143v214l-173 -214h173z" />
    <glyph glyph-name="five.dnom" horiz-adv-x="336" 
d="M262 129q0 44 -31.5 70t-79.5 26q-56 0 -103 -24l22 208h215v-36h-186l-14 -126q33 13 70 13q60 0 103 -34t43 -97q0 -42 -22 -72t-57 -45.5t-74 -15.5q-61 0 -112 29v39q28 -17 53 -25.5t58 -8.5q48 0 81.5 27t33.5 72z" />
    <glyph glyph-name="six.dnom" horiz-adv-x="363" 
d="M77 203q13 31 44 50.5t71 19.5q60 0 98.5 -39t38.5 -102q0 -59 -39 -97.5t-102 -38.5q-68 0 -107.5 47t-39.5 145q0 68 21.5 120t60 80t90.5 28q45 0 92 -18l-2 -38q-24 11 -45.5 16t-46.5 5q-57 0 -92 -44.5t-42 -133.5zM188 28q45 0 74.5 29.5t29.5 73.5q0 50 -29 79
t-75 29q-48 0 -76.5 -29.5t-28.5 -72.5q0 -51 30 -80t75 -29z" />
    <glyph glyph-name="seven.dnom" horiz-adv-x="319" 
d="M20 373v36h280v-36q-175 -133 -183 -372h-42q7 129 54.5 221.5t125.5 150.5h-235z" />
    <glyph glyph-name="eight.dnom" horiz-adv-x="374" 
d="M322 315q0 -35 -16.5 -59t-45.5 -36q74 -33 74 -106q0 -56 -41 -88t-106 -32t-106 32t-41 88q0 73 73 106q-27 11 -44 35.5t-17 59.5q0 45 37 73t98 28q62 0 98.5 -28t36.5 -73zM187 384q-44 0 -70 -20t-26 -56q0 -34 26 -54.5t70 -20.5t70 20.5t26 54.5q0 36 -26 56
t-70 20zM80 115q0 -41 29 -65t78 -24t78 24t29 65t-29 65t-78 24t-78 -24t-29 -65z" />
    <glyph glyph-name="nine.dnom" horiz-adv-x="363" 
d="M286 209q-13 -31 -44 -50.5t-71 -19.5q-60 0 -98.5 39t-38.5 102q0 58 39 97t102 39q68 0 107.5 -47t39.5 -145q0 -68 -21.5 -120t-60 -80t-90.5 -28q-43 0 -92 17l2 39q25 -11 46 -16.5t46 -5.5q57 0 92 45t42 134zM175 384q-44 0 -74 -29.5t-30 -73.5q0 -50 29 -79.5
t75 -29.5q48 0 76.5 29.5t28.5 73.5q0 51 -30 80t-75 29z" />
    <glyph glyph-name="zero.dnom" horiz-adv-x="398" 
d="M41 205q0 99 40 155t118 56t118 -56t40 -155t-40 -155t-118 -56t-118 56t-40 155zM317 205q0 89 -31.5 134t-86.5 45t-86.5 -45t-31.5 -134t31.5 -134t86.5 -45t86.5 45t31.5 134z" />
    <glyph glyph-name="zero.dnom.zero" horiz-adv-x="398" 
d="M41 205q0 99 40 155t118 56t118 -56t40 -155t-40 -155t-118 -56t-118 56t-40 155zM81 184l231 84q-10 58 -39.5 87t-73.5 29q-55 0 -86.5 -45t-31.5 -134v-21zM317 205l-1 27l-231 -83q9 -61 38.5 -92t75.5 -31q55 0 86.5 45t31.5 134z" />
    <glyph glyph-name="ampersand.aalt" horiz-adv-x="666" 
d="M669 0h-53l-120 131q-52 -72 -109 -108t-131 -36q-64 0 -113.5 25.5t-77 72t-27.5 106.5q0 154 194 227q-53 58 -74 92.5t-21 76.5q0 67 46.5 109t121.5 42q41 0 76.5 -18.5t57 -52t21.5 -77.5q0 -116 -163 -183l195 -214q55 104 69 196h40q-20 -111 -83 -224zM179 587
q0 -27 11.5 -51t29 -44.5t53.5 -58.5q148 61 148 156q0 46 -33.5 80t-82.5 34q-55 0 -90.5 -30.5t-35.5 -85.5zM471 158l-210 229l-4 5q-177 -65 -177 -201q0 -50 23 -88t63.5 -59t90.5 -21q124 0 214 135z" />
    <glyph glyph-name="hyphen.case" horiz-adv-x="374" 
d="M327 388v-42h-280v42h280z" />
    <glyph glyph-name="endash.aalt" horiz-adv-x="504" 
d="M457 384v-37h-410v37h410z" />
    <glyph glyph-name="emdash.aalt" horiz-adv-x="744" 
d="M697 384v-37h-650v37h650z" />
    <glyph glyph-name="question.aalt" horiz-adv-x="456" 
d="M27 645v42q38 24 85.5 37.5t96.5 13.5q91 0 151 -45.5t60 -126.5q0 -63 -34 -108.5t-92 -87.5q-35 -24 -54 -44t-29 -47t-10 -68v-37h-41v37q0 47 11 78.5t33.5 55.5t64.5 54q51 37 79 74.5t28 90.5q0 65 -45.5 100.5t-123.5 35.5q-49 0 -91 -13.5t-89 -41.5zM200 104
v-104h-39v104h39z" />
    <glyph glyph-name="questiondown.aalt" horiz-adv-x="455" 
d="M294 725v-104h-39v104h39zM35 159q0 63 34 108.5t92 87.5q35 24 54 44t29 47t10 68v37h41v-37q0 -47 -11 -78.5t-33.5 -55.5t-64.5 -54q-51 -37 -79 -74.5t-28 -90.5q0 -65 45.5 -100.5t123.5 -35.5q49 0 91 13.5t89 41.5v-42q-38 -24 -85.5 -37.5t-96.5 -13.5
q-91 0 -151 45.5t-60 126.5z" />
    <glyph glyph-name="exclam.aalt" horiz-adv-x="227" 
d="M135 512l-10 -338h-23l-10 338v213h43v-213zM133 104v-104h-39v104h39z" />
    <glyph glyph-name="exclamdown.aalt" horiz-adv-x="225" 
d="M132 725v-104h-39v104h39zM91 213l10 338h23l10 -338v-213h-43v213z" />
    <glyph glyph-name="guilsinglleft.aalt" horiz-adv-x="307" 
d="M252 142h-41l-158 225l157 225h42l-154 -224z" />
    <glyph glyph-name="guilsinglright.aalt" horiz-adv-x="307" 
d="M96 592l158 -225l-159 -225h-40l154 226l-154 224h41z" />
    <glyph glyph-name="guillemotleft.aalt" horiz-adv-x="492" 
d="M252 142h-41l-158 225l157 225h42l-154 -224zM437 142h-41l-158 225l157 225h42l-154 -224z" />
    <glyph glyph-name="guillemotright.aalt" horiz-adv-x="492" 
d="M96 592l158 -225l-159 -225h-40l154 226l-154 224h41zM281 592l158 -225l-159 -225h-40l154 226l-154 224h41z" />
    <glyph glyph-name="parenleft.case" horiz-adv-x="253" 
d="M167 725h39q-111 -170 -111 -362q0 -193 111 -363h-39q-49 71 -82 167t-33 196t33 195.5t82 166.5z" />
    <glyph glyph-name="parenright.case" horiz-adv-x="253" 
d="M86 0h-39q111 170 111 363q0 192 -111 362h39q49 -71 82 -166.5t33 -195.5t-33 -196t-82 -167z" />
    <glyph glyph-name="bracketleft.aalt" horiz-adv-x="277" 
d="M94 0v725h143v-36h-104v-652h104v-37h-143z" />
    <glyph glyph-name="bracketright.aalt" horiz-adv-x="267" 
d="M30 689v36h143v-725h-143v37h104v652h-104z" />
    <glyph glyph-name="braceleft.aalt" horiz-adv-x="282" 
d="M222 0q-49 0 -73.5 11t-34 36.5t-9.5 73.5v103q0 55 -14.5 86t-55.5 34v37q41 3 55.5 34t14.5 86v104q0 47 9.5 72.5t34 36.5t73.5 11h19v-35h-10q-40 0 -58 -7t-23.5 -25t-5.5 -58v-100q0 -66 -16 -96t-52 -40v-2q35 -10 51.5 -40.5t16.5 -96.5v-100q0 -39 5.5 -57
t23.5 -25t58 -7h10v-36h-19z" />
    <glyph glyph-name="braceright.aalt" horiz-adv-x="282" 
d="M41 0v36h9q40 0 58 7t24 25t6 57v100q0 67 16 97t51 40v2q-35 10 -51 40t-16 96v100q0 39 -6 57.5t-24 25.5t-58 7h-9v35h18q49 0 74 -11t34.5 -36.5t9.5 -72.5v-104q0 -55 14 -86t56 -34v-37q-42 -3 -56 -34t-14 -86v-103q0 -48 -9.5 -73.5t-34.5 -36.5t-74 -11h-18z
" />
    <glyph glyph-name="bar.aalt" horiz-adv-x="227" 
d="M94 0v725h39v-725h-39z" />
    <glyph glyph-name="brokenbar.aalt" horiz-adv-x="227" 
d="M94 460v265h39v-265h-39zM94 0v265h39v-265h-39z" />
    <glyph glyph-name="periodcentered.aalt" horiz-adv-x="177" 
d="M108 416v-104h-39v104h39z" />
    <glyph glyph-name="bullet.aalt" horiz-adv-x="396" 
d="M196 478q51 0 84.5 -32.5t33.5 -80.5q0 -50 -33.5 -83.5t-84.5 -33.5q-46 0 -79 33.5t-33 83.5q0 47 33 80t79 33z" />
    <glyph glyph-name="plus.case" 
d="M359 344v-250h-40v250h-250v38h250v250h40v-250h250v-38h-250z" />
    <glyph glyph-name="minus.case" 
d="M69 344v38h540v-38h-540z" />
    <glyph glyph-name="divide.aalt" 
d="M365 502h-50v93h50v-93zM609 382v-38h-540v38h540zM365 130h-50v94h50v-94z" />
    <glyph glyph-name="multiply.aalt" 
d="M367 363l201 -200l-28 -28l-201 200l-200 -200l-28 28l200 200l-200 201l28 28l200 -201l201 201l28 -28z" />
    <glyph glyph-name="equal.case" 
d="M609 515v-38h-540v38h540zM609 249v-38h-540v38h540z" />
    <glyph glyph-name="plusminus.aalt" 
d="M68 429h251v203h40v-203h250v-37h-250v-203h-40v203h-251v37zM609 131v-37h-541v37h541z" />
    <glyph glyph-name="less.aalt" 
d="M78 344v37l509 241v-41l-464 -219l464 -216v-43z" />
    <glyph glyph-name="greater.aalt" 
d="M92 622l509 -241v-37l-509 -241v43l464 216l-464 219v41z" />
    <glyph glyph-name="lessequal.aalt" 
d="M608 585l-492 -182l492 -184v-40l-541 204v38l541 203v-39zM608 94h-541v37h541v-37z" />
    <glyph glyph-name="greaterequal.aalt" 
d="M71 219l492 184l-492 182v39l541 -203v-38l-541 -204v40zM612 131v-37h-541v37h541z" />
    <glyph glyph-name="notequal.aalt" 
d="M609 515v-38h-177l-143 -228h320v-38h-343l-85 -135l-31 20l72 115h-153v38h177l143 228h-320v38h343l85 135l31 -20l-72 -115h153z" />
    <glyph glyph-name="acute.aalt" horiz-adv-x="231" 
d="M146 886h63l-144 -113h-43z" />
    <glyph glyph-name="breve.aalt" horiz-adv-x="328" 
d="M306 886q-4 -54 -42.5 -85.5t-100.5 -31.5q-60 0 -98.5 31.5t-42.5 85.5h37q5 -44 34 -64.5t71 -20.5t71 20.5t34 64.5h37z" />
    <glyph glyph-name="caron.aalt" horiz-adv-x="369" 
d="M208 773h-48l-138 113h47l115 -83l116 83h47z" />
    <glyph glyph-name="cedilla.aalt" horiz-adv-x="209" 
d="M32 -150q28 -11 55 -11t45 10t18 32q0 20 -14.5 29.5t-36.5 9.5q-25 0 -43 -9l-14 14l48 76h30l-33 -56q13 3 28 3q32 0 52 -17t20 -47q0 -37 -28.5 -55.5t-67.5 -18.5q-37 0 -69 11z" />
    <glyph glyph-name="circumflex.aalt" horiz-adv-x="369" 
d="M161 886h49l137 -113h-47l-116 83l-115 -83h-47z" />
    <glyph glyph-name="dieresis.aalt" horiz-adv-x="302" 
d="M22 781v96h41v-96h-41zM238 781v96h42v-96h-42z" />
    <glyph glyph-name="dotaccent.aalt" horiz-adv-x="85" 
d="M22 781v96h41v-96h-41z" />
    <glyph glyph-name="grave.aalt" horiz-adv-x="231" 
d="M209 773h-43l-144 113h63z" />
    <glyph glyph-name="hungarumlaut.aalt" horiz-adv-x="406" 
d="M146 886h63l-144 -113h-43zM320 886h64l-145 -113h-43z" />
    <glyph glyph-name="macron.aalt" horiz-adv-x="315" 
d="M293 851v-38h-271v38h271z" />
    <glyph glyph-name="ogonek.aalt" horiz-adv-x="182" 
d="M160 0q-40 -20 -67 -47.5t-27 -54.5q0 -22 17.5 -36t44.5 -14q20 0 30 3v-34q-22 -5 -40 -5q-20 0 -42.5 11t-38 30t-15.5 43q0 32 31 63.5t66 40.5h41z" />
    <glyph glyph-name="ring.aalt" horiz-adv-x="217" 
d="M195 850q0 -35 -25 -58t-61 -23t-61.5 23t-25.5 58q0 36 25 59t62 23t61.5 -23t24.5 -59zM54 850q0 -24 16 -38t39 -14q22 0 38 14t16 38t-16 39t-38 15q-23 0 -39 -14.5t-16 -39.5z" />
    <glyph glyph-name="tilde.aalt" horiz-adv-x="369" 
d="M313 876h34q-8 -45 -30.5 -69.5t-58.5 -24.5q-20 0 -38 8t-41 24q-22 14 -37 21t-31 7q-22 0 -35.5 -15t-19.5 -45h-34q7 45 31 69.5t58 24.5q22 0 39.5 -8t43.5 -24q22 -13 35 -19.5t28 -6.5q44 0 56 58z" />
    <glyph glyph-name="a.salt" horiz-adv-x="590" 
d="M506 538v-538h-39v115q-25 -60 -76 -94t-118 -34q-64 0 -116 33t-82 96.5t-30 150.5t30 150t82 96.5t116 33.5q67 0 118 -34t76 -94v119h39zM278 511q-54 0 -97.5 -28.5t-69 -83.5t-25.5 -132t25.5 -132t69 -83.5t97.5 -28.5q50 0 94 25.5t71.5 80.5t27.5 138t-27.5 138
t-71.5 80.5t-94 25.5z" />
    <glyph glyph-name="aacute.aalt" horiz-adv-x="590" 
d="M506 538v-538h-39v115q-25 -60 -76 -94t-118 -34q-64 0 -116 33t-82 96.5t-30 150.5t30 150t82 96.5t116 33.5q67 0 118 -34t76 -94v119h39zM278 511q-54 0 -97.5 -28.5t-69 -83.5t-25.5 -132t25.5 -132t69 -83.5t97.5 -28.5q50 0 94 25.5t71.5 80.5t27.5 138t-27.5 138
t-71.5 80.5t-94 25.5zM366 755h58l-130 -116h-39z" />
    <glyph glyph-name="abreve.aalt" horiz-adv-x="590" 
d="M506 538v-538h-39v115q-25 -60 -76 -94t-118 -34q-64 0 -116 33t-82 96.5t-30 150.5t30 150t82 96.5t116 33.5q67 0 118 -34t76 -94v119h39zM278 511q-54 0 -97.5 -28.5t-69 -83.5t-25.5 -132t25.5 -132t69 -83.5t97.5 -28.5q50 0 94 25.5t71.5 80.5t27.5 138t-27.5 138
t-71.5 80.5t-94 25.5zM430 755q-5 -57 -41 -88t-101 -31t-101 31t-40 88h36q4 -46 30 -66.5t75 -20.5q48 0 75 20.5t33 66.5h34z" />
    <glyph glyph-name="acircumflex.aalt" horiz-adv-x="590" 
d="M506 538v-538h-39v115q-25 -60 -76 -94t-118 -34q-64 0 -116 33t-82 96.5t-30 150.5t30 150t82 96.5t116 33.5q67 0 118 -34t76 -94v119h39zM278 511q-54 0 -97.5 -28.5t-69 -83.5t-25.5 -132t25.5 -132t69 -83.5t97.5 -28.5q50 0 94 25.5t71.5 80.5t27.5 138t-27.5 138
t-71.5 80.5t-94 25.5zM267 755h38l137 -116h-39l-117 82l-118 -82h-39z" />
    <glyph glyph-name="adieresis.aalt" horiz-adv-x="590" 
d="M506 538v-538h-39v115q-25 -60 -76 -94t-118 -34q-64 0 -116 33t-82 96.5t-30 150.5t30 150t82 96.5t116 33.5q67 0 118 -34t76 -94v119h39zM278 511q-54 0 -97.5 -28.5t-69 -83.5t-25.5 -132t25.5 -132t69 -83.5t97.5 -28.5q50 0 94 25.5t71.5 80.5t27.5 138t-27.5 138
t-71.5 80.5t-94 25.5zM196 659h-39v96h39v-96zM375 659v96h40v-96h-40z" />
    <glyph glyph-name="agrave.aalt" horiz-adv-x="590" 
d="M506 538v-538h-39v115q-25 -60 -76 -94t-118 -34q-64 0 -116 33t-82 96.5t-30 150.5t30 150t82 96.5t116 33.5q67 0 118 -34t76 -94v119h39zM278 511q-54 0 -97.5 -28.5t-69 -83.5t-25.5 -132t25.5 -132t69 -83.5t97.5 -28.5q50 0 94 25.5t71.5 80.5t27.5 138t-27.5 138
t-71.5 80.5t-94 25.5zM325 639h-39l-130 116h58z" />
    <glyph glyph-name="amacron.aalt" horiz-adv-x="590" 
d="M506 538v-538h-39v115q-25 -60 -76 -94t-118 -34q-64 0 -116 33t-82 96.5t-30 150.5t30 150t82 96.5t116 33.5q67 0 118 -34t76 -94v119h39zM278 511q-54 0 -97.5 -28.5t-69 -83.5t-25.5 -132t25.5 -132t69 -83.5t97.5 -28.5q50 0 94 25.5t71.5 80.5t27.5 138t-27.5 138
t-71.5 80.5t-94 25.5zM424 714v-34h-261v34h261z" />
    <glyph glyph-name="aogonek.aalt" horiz-adv-x="590" 
d="M467 115q-25 -60 -76 -94t-118 -34q-64 0 -116 33t-82 96.5t-30 150.5t30 150t82 96.5t116 33.5q67 0 118 -34t76 -94v119h39v-538q-40 -19 -67.5 -45.5t-27.5 -56.5q0 -52 65 -52q12 0 30 5v-34q-15 -5 -45 -5q-36 0 -63.5 22.5t-27.5 58.5q0 35 30.5 65.5t66.5 41.5
v115zM278 511q-54 0 -97.5 -28.5t-69 -83.5t-25.5 -132t25.5 -132t69 -83.5t97.5 -28.5q50 0 94 25.5t71.5 80.5t27.5 138t-27.5 138t-71.5 80.5t-94 25.5z" />
    <glyph glyph-name="aring.aalt" horiz-adv-x="590" 
d="M506 538v-538h-39v115q-25 -60 -76 -94t-118 -34q-64 0 -116 33t-82 96.5t-30 150.5t30 150t82 96.5t116 33.5q67 0 118 -34t76 -94v119h39zM278 511q-54 0 -97.5 -28.5t-69 -83.5t-25.5 -132t25.5 -132t69 -83.5t97.5 -28.5q50 0 94 25.5t71.5 80.5t27.5 138t-27.5 138
t-71.5 80.5t-94 25.5zM385 708q0 -36 -24.5 -59t-61.5 -23t-62 23t-25 59q0 35 25.5 58.5t61.5 23.5t61 -23.5t25 -58.5zM243 708q0 -24 16.5 -39.5t39.5 -15.5q22 0 38.5 15.5t16.5 39.5t-16.5 39.5t-38.5 15.5q-23 0 -39.5 -15.5t-16.5 -39.5z" />
    <glyph glyph-name="atilde.aalt" horiz-adv-x="590" 
d="M506 538v-538h-39v115q-25 -60 -76 -94t-118 -34q-64 0 -116 33t-82 96.5t-30 150.5t30 150t82 96.5t116 33.5q67 0 118 -34t76 -94v119h39zM278 511q-54 0 -97.5 -28.5t-69 -83.5t-25.5 -132t25.5 -132t69 -83.5t97.5 -28.5q50 0 94 25.5t71.5 80.5t27.5 138t-27.5 138
t-71.5 80.5t-94 25.5zM419 748h35q-8 -45 -31 -69.5t-58 -24.5q-21 0 -39 8t-41 24q-23 14 -37.5 20.5t-29.5 6.5q-23 0 -36 -14.5t-18 -44.5h-36q7 44 31 69t58 25q22 0 40.5 -8t43.5 -24q19 -13 33.5 -19.5t28.5 -6.5q45 0 56 58z" />
    <glyph glyph-name="l.ss02" horiz-adv-x="223" 
d="M81 755h39v-619q0 -47 4.5 -66t22 -26.5t60.5 -7.5h7v-36h-20q-48 0 -71.5 9.5t-32.5 34.5t-9 78v633z" />
    <glyph glyph-name="lacute.aalt" horiz-adv-x="223" 
d="M81 755h39v-619q0 -47 4.5 -66t22 -26.5t60.5 -7.5h7v-36h-20q-48 0 -71.5 9.5t-32.5 34.5t-9 78v633zM202 906h63l-144 -113h-43z" />
    <glyph glyph-name="lcaron.aalt" horiz-adv-x="223" 
d="M193 755h45l-48 -170h-26zM81 755h39v-619q0 -47 4.5 -66t22 -26.5t60.5 -7.5h7v-36h-20q-48 0 -71.5 9.5t-32.5 34.5t-9 78v633z" />
    <glyph glyph-name="uni013C.aalt" horiz-adv-x="223" 
d="M81 755h39v-619q0 -47 4.5 -66t22 -26.5t60.5 -7.5h7v-36h-20q-48 0 -71.5 9.5t-32.5 34.5t-9 78v633zM131 -49h39v-11q0 -41 -4.5 -67.5t-20.5 -44t-48 -20.5v39q22 5 28 23.5t6 68.5v12z" />
    <glyph glyph-name="ldot.aalt" horiz-adv-x="242" 
d="M202 352v96h39v-96h-39zM81 755h39v-619q0 -47 4.5 -66t22 -26.5t60.5 -7.5h7v-36h-20q-48 0 -71.5 9.5t-32.5 34.5t-9 78v633z" />
    <glyph glyph-name="lslash.aalt" horiz-adv-x="273" 
d="M26 309v41l82 61v344h39v-316l86 64v-41l-86 -64v-262q0 -47 4.5 -66t22 -26.5t60.5 -7.5h7v-36h-20q-48 0 -71.5 9.5t-32.5 34.5t-9 78v248z" />
    <glyph glyph-name="uniFB02.aalt" horiz-adv-x="482" 
d="M97 645q0 62 28 87.5t77 25.5q29 0 53 -6v-36q-24 7 -51 7q-35 0 -51.5 -15.5t-16.5 -58.5v-111h111v-34h-111v-504h-39v504h-79v34h79v107zM340 755h39v-619q0 -47 4.5 -66t22 -26.5t60.5 -7.5h7v-36h-20q-48 0 -71.5 9.5t-32.5 34.5t-9 78v633z" />
    <glyph glyph-name="germandbls.aalt" horiz-adv-x="624" 
d="M123 -195h-39v711q0 65 12 106.5t36 69.5q57 67 184 67q94 0 152.5 -46.5t58.5 -123.5q0 -64 -32.5 -108t-86.5 -60q45 -6 84.5 -31.5t64.5 -70.5t25 -105q0 -77 -35 -128t-93.5 -75t-130.5 -24q-52 0 -99 9l7 40q46 -10 96 -10q91 0 152 45.5t61 140.5q0 61 -29.5 103
t-78.5 63t-109 21h-31v38h31q75 0 119 41t44 106q0 63 -46.5 101.5t-123.5 38.5q-51 0 -88.5 -12t-61.5 -40q-22 -24 -32.5 -62.5t-10.5 -101.5v-703z" />
    <glyph glyph-name="uni0430.aalt" horiz-adv-x="590" 
d="M506 538v-538h-39v115q-25 -60 -76 -94t-118 -34q-64 0 -116 33t-82 96.5t-30 150.5t30 150t82 96.5t116 33.5q67 0 118 -34t76 -94v119h39zM278 511q-54 0 -97.5 -28.5t-69 -83.5t-25.5 -132t25.5 -132t69 -83.5t97.5 -28.5q50 0 94 25.5t71.5 80.5t27.5 138t-27.5 138
t-71.5 80.5t-94 25.5z" />
    <glyph glyph-name="uni2318" unicode="&#x2318;" horiz-adv-x="763" 
d="M382 746l127 -94l254 109l-189 -158l38 -29l-17 -86l51 -271l-38 -60h-69l40 60l-111 296l-35 -29h-22l-65 97l73 -55l-27 74l38 16zM579 33q-80 -46 -175 -46t-176.5 47.5t-129 129t-47.5 176.5q0 87 39.5 163t108.5 125.5t154 61.5q-56 -17 -92 -64t-36 -108
q0 -62 39 -111t98 -63l117 -127h-71z" />
    <glyph glyph-name="circle" unicode="&#x25cb;" horiz-adv-x="672" 
d="M619 268q0 -76 -37 -140.5t-101.5 -102.5t-144.5 -38t-144.5 38t-101.5 102.5t-37 140.5q0 77 37 141.5t101.5 102.5t144.5 38t144.5 -38t101.5 -102.5t37 -141.5zM93 268q0 -65 32 -120.5t87.5 -88.5t123.5 -33t123.5 33t87.5 88.5t32 120.5t-32 121t-87.5 89t-123.5 33
t-123.5 -33t-87.5 -89t-32 -121z" />
    <glyph glyph-name="uni02BB" unicode="&#x2bb;" horiz-adv-x="164" 
d="M100 468h-39v104q0 52 4.5 82t20 49t48.5 22v-39q-15 -4 -22 -14.5t-9.5 -32t-2.5 -65.5v-106z" />
    <glyph glyph-name="uni02BC" unicode="&#x2bc;" horiz-adv-x="162" 
d="M83 725h39v-104q0 -52 -4.5 -81.5t-20 -48.5t-48.5 -23v39q15 5 22 15t9.5 31.5t2.5 66.5v105z" />
    <glyph glyph-name="glyph795" horiz-adv-x="374" 
d="M327 388v-42h-280v42h280z" />
    <glyph glyph-name="uni2007" unicode="&#x2007;" horiz-adv-x="668" 
 />
    </font>
</defs>
</svg>
