<?xml version="1.0" standalone="no"?>
<!DOCTYPE svg PUBLIC "-//W3C//DTD SVG 1.1//EN" "http://www.w3.org/Graphics/SVG/1.1/DTD/svg11.dtd" >
<svg xmlns="http://www.w3.org/2000/svg" xmlns:xlink="http://www.w3.org/1999/xlink" version="1.1">
<metadata>
Created by Christoph Koeberlin (http://christoph.koe.berlin)
Copyright (c) 2020 Swiss Typefaces Sarl. All rights reserved.
</metadata>
<defs>
<font id="Font" horiz-adv-x="678" >
  <font-face 
    font-family="Font"
    font-weight="500"
    font-stretch="normal"
    units-per-em="1000"
    panose-1="2 11 6 4 0 0 0 0 0 0"
    ascent="800"
    descent="-200"
    x-height="538"
    cap-height="725"
    bbox="-400 -241 1319 947"
    underline-thickness="100"
    underline-position="-88"
    unicode-range="U+0020-FEFF"
  />
<missing-glyph horiz-adv-x="647" 
d="M573 0h-500v725h500v-725zM539 706h-433l217 -328zM92 29l220 333l-220 334v-667zM554 696l-221 -334l221 -333v667zM539 19l-216 327l-217 -327h433z" />
    <glyph glyph-name=".notdef" horiz-adv-x="647" 
d="M573 0h-500v725h500v-725zM539 706h-433l217 -328zM92 29l220 333l-220 334v-667zM554 696l-221 -334l221 -333v667zM539 19l-216 327l-217 -327h433z" />
    <glyph glyph-name="glyph1" horiz-adv-x="0" 
 />
    <glyph glyph-name="glyph2" horiz-adv-x="209" 
 />
    <glyph glyph-name="space" unicode=" " horiz-adv-x="209" 
 />
    <glyph glyph-name="exclam" unicode="!" horiz-adv-x="260" 
d="M190 526l-21 -313h-77l-23 313v199h121v-199zM197 136v-136h-135v136h135z" />
    <glyph glyph-name="quotedbl" unicode="&#x22;" horiz-adv-x="381" 
d="M61 459l-20 266h128l-21 -266h-87zM232 459l-20 266h128l-21 -266h-87z" />
    <glyph glyph-name="numbersign" unicode="#" horiz-adv-x="732" 
d="M700 537l-14 -96h-128l-22 -157h129l-14 -96h-129l-26 -188h-105l26 188h-151l-26 -188h-105l26 188h-129l14 96h129l21 157h-128l13 96h129l26 188h106l-26 -188h150l26 188h106l-26 -188h128zM280 284h151l21 157h-150z" />
    <glyph glyph-name="dollar" unicode="$" horiz-adv-x="559" 
d="M311 -8v-85h-57v80h-7q-120 0 -202 39v119q45 -24 91.5 -37.5t106.5 -13.5h11v225l-31 11q-182 61 -182 202q0 84 60.5 138t152.5 65v83h57v-80q49 -1 93 -8.5t74 -21.5v-113q-75 35 -167 36v-207l20 -7q97 -32 146 -81t49 -131t-60 -139.5t-155 -73.5zM254 443v184
q-44 -7 -70.5 -28.5t-26.5 -56.5q0 -33 24.5 -57t72.5 -42zM311 101q93 22 93 95q0 35 -23.5 59.5t-69.5 43.5v-198z" />
    <glyph glyph-name="percent" unicode="%" horiz-adv-x="944" 
d="M26 520q0 99 44.5 155.5t128.5 56.5q83 0 127.5 -56.5t44.5 -155.5q0 -98 -44.5 -154.5t-127.5 -56.5q-84 0 -128.5 56.5t-44.5 154.5zM266 520q0 136 -67 136q-35 0 -52 -33.5t-17 -102.5q0 -68 17 -101t52 -33q67 0 67 134zM573 203q0 99 44.5 155.5t128.5 56.5
q83 0 127.5 -56.5t44.5 -155.5q0 -98 -44.5 -154.5t-127.5 -56.5q-84 0 -128.5 56.5t-44.5 154.5zM813 203q0 136 -67 136q-35 0 -52 -33.5t-17 -102.5q0 -68 17 -101t52 -33q67 0 67 134zM789 725l-511 -725h-122l510 725h123z" />
    <glyph glyph-name="ampersand" unicode="&#x26;" horiz-adv-x="722" 
d="M742 0h-163l-77 83q-55 -49 -110 -72.5t-119 -23.5q-72 0 -127.5 28t-86 77t-30.5 109q0 72 43 126t121 86q-38 45 -55.5 80.5t-17.5 72.5q0 49 26 88t71.5 61.5t103.5 22.5q49 0 93 -16.5t72.5 -52t28.5 -90.5q0 -59 -35.5 -107t-104.5 -83l121 -128q26 79 30 140h119
q-10 -108 -71 -223zM243 573q0 -26 16.5 -52t53.5 -65q88 46 88 116q0 36 -22.5 56.5t-56.5 20.5q-33 0 -56 -20.5t-23 -55.5zM432 157l-174 185q-55 -27 -80 -60t-25 -77q0 -54 37 -87t93 -33q80 0 149 72z" />
    <glyph glyph-name="quotesingle" unicode="'" horiz-adv-x="209" 
d="M61 459l-20 266h128l-21 -266h-87z" />
    <glyph glyph-name="parenleft" unicode="(" horiz-adv-x="308" 
d="M174 755h105q-52 -86 -86 -214t-34 -261q0 -134 34 -262t86 -213h-105q-53 78 -95.5 208t-42.5 267q0 138 42.5 268t95.5 207z" />
    <glyph glyph-name="parenright" unicode=")" horiz-adv-x="309" 
d="M134 -195h-105q52 86 86.5 213.5t34.5 261.5q0 133 -34.5 260.5t-86.5 214.5h105q33 -47 64.5 -121.5t52.5 -167t21 -186.5q0 -137 -42.5 -267.5t-95.5 -207.5z" />
    <glyph glyph-name="asterisk" unicode="*" horiz-adv-x="428" 
d="M172 725h81v-112l106 41l30 -76l-109 -37l68 -92l-64 -48l-71 95l-64 -94l-69 46l66 92l-107 38l28 76l105 -41v112z" />
    <glyph glyph-name="plus" unicode="+" 
d="M395 216v-216h-111v216h-220v106h220v216h111v-216h219v-106h-219z" />
    <glyph glyph-name="comma" unicode="," horiz-adv-x="234" 
d="M110 0h-61v136h135v-146l-69 -148h-71z" />
    <glyph glyph-name="hyphen" unicode="-" horiz-adv-x="437" 
d="M385 324v-109h-332v109h332z" />
    <glyph glyph-name="period" unicode="." horiz-adv-x="234" 
d="M184 136v-136h-135v136h135z" />
    <glyph glyph-name="slash" unicode="/" horiz-adv-x="434" 
d="M415 755l-282 -755h-113l282 755h113z" />
    <glyph glyph-name="zero" unicode="0" horiz-adv-x="660" 
d="M42 364q0 172 73.5 273t214.5 101t214.5 -101t73.5 -273q0 -174 -73.5 -275.5t-214.5 -101.5t-214.5 101.5t-73.5 275.5zM494 364q0 137 -42.5 209t-121.5 72t-121.5 -72t-42.5 -209q0 -138 42.5 -211t121.5 -73t121.5 72.5t42.5 211.5z" />
    <glyph glyph-name="one" unicode="1" horiz-adv-x="551" 
d="M357 104h173v-104h-484v104h191v448h-184v81q63 2 102.5 8.5t68 26t45.5 57.5h88v-621z" />
    <glyph glyph-name="two" unicode="2" horiz-adv-x="562" 
d="M509 542q0 -73 -42.5 -143.5t-109 -135.5t-178.5 -159h349v-104h-500v100q127 107 200.5 176t116.5 131.5t43 116.5q0 53 -35 82t-97 29q-91 0 -197 -61v114q36 20 95 35t120 15q105 0 170 -51.5t65 -144.5z" />
    <glyph glyph-name="three" unicode="3" horiz-adv-x="555" 
d="M392 207q0 63 -53.5 93t-140.5 30h-24v98h20q86 0 133 28.5t47 83.5q0 48 -41.5 71.5t-99.5 23.5q-47 0 -96 -15.5t-90 -39.5v115q37 18 92 30.5t111 12.5q65 0 121 -20t90.5 -63t34.5 -108q0 -52 -30 -95.5t-79 -66.5q63 -24 95.5 -72t32.5 -107q0 -70 -37 -119.5
t-99 -74.5t-135 -25q-57 0 -111.5 12t-91.5 29v115q41 -23 90.5 -38t97.5 -15q73 0 118 29.5t45 87.5z" />
    <glyph glyph-name="four" unicode="4" horiz-adv-x="645" 
d="M496 281h128v-104h-128v-177h-119v177h-359v98l360 450h118v-444zM377 281v289l-228 -289h228z" />
    <glyph glyph-name="five" unicode="5" horiz-adv-x="565" 
d="M409 232q0 71 -47.5 106t-125.5 35q-48 0 -90 -9t-88 -28l37 389h407v-104h-307l-15 -160q46 12 88 12q67 0 127 -24t98.5 -78.5t38.5 -138.5q0 -79 -40 -134t-107 -83t-145 -28q-56 0 -110 12t-90 29v115q40 -23 90 -38t99 -15q81 0 130.5 35t49.5 107z" />
    <glyph glyph-name="six" unicode="6" horiz-adv-x="608" 
d="M162 400q26 37 71 59.5t105 22.5q67 0 122 -30.5t87 -86.5t32 -130q0 -71 -33.5 -127.5t-93.5 -88.5t-137 -32q-136 0 -204.5 94.5t-68.5 259.5q0 122 42 211.5t119.5 137.5t180.5 48q79 0 146 -20v-114q-33 14 -72.5 22t-76.5 8q-88 0 -150.5 -57.5t-68.5 -176.5z
M314 80q62 0 102 42.5t40 111.5q0 67 -40 110t-101 43q-63 0 -103.5 -43t-40.5 -110q0 -68 40.5 -111t102.5 -43z" />
    <glyph glyph-name="seven" unicode="7" horiz-adv-x="558" 
d="M18 621v104h521v-104q-143 -134 -216 -280.5t-84 -340.5h-135q9 183 92 341t217 280h-395z" />
    <glyph glyph-name="eight" unicode="8" horiz-adv-x="621" 
d="M559 552q0 -50 -22.5 -93.5t-69.5 -71.5q60 -30 87 -77.5t27 -103.5q0 -69 -35.5 -118.5t-96.5 -75t-138 -25.5t-138.5 25.5t-97 75t-35.5 118.5q0 56 27.5 103.5t88.5 77.5q-46 26 -69.5 70.5t-23.5 94.5q0 53 30.5 95.5t86.5 66.5t131 24q74 0 130.5 -24t87 -66.5
t30.5 -95.5zM311 645q-60 0 -95.5 -29t-35.5 -78t36 -81t95 -32t95 32t36 81t-36 78t-95 29zM164 209q0 -58 40 -93.5t107 -35.5t107 35.5t40 93.5q0 59 -40 94t-107 35t-107 -35t-40 -94z" />
    <glyph glyph-name="nine" unicode="9" horiz-adv-x="609" 
d="M447 325q-26 -37 -71 -59.5t-105 -22.5q-67 0 -122 30.5t-87 86.5t-32 130q0 71 33.5 127.5t93.5 88.5t137 32q136 0 204.5 -94.5t68.5 -259.5q0 -122 -42 -211.5t-119.5 -137.5t-180.5 -48q-79 0 -146 20v114q33 -14 72.5 -22t76.5 -8q88 0 150.5 57.5t68.5 176.5z
M295 645q-62 0 -102 -42.5t-40 -111.5q0 -67 40 -110t101 -43q63 0 103.5 43t40.5 110q0 68 -40.5 111t-102.5 43z" />
    <glyph glyph-name="colon" unicode=":" horiz-adv-x="244" 
d="M189 538v-136h-135v136h135zM189 136v-136h-135v136h135z" />
    <glyph glyph-name="semicolon" unicode=";" horiz-adv-x="250" 
d="M193 538v-136h-135v136h135zM119 0h-61v136h135v-146l-69 -148h-71z" />
    <glyph glyph-name="less" unicode="&#x3c;" 
d="M78 218v100l515 222v-119l-378 -153l378 -152v-120z" />
    <glyph glyph-name="equal" unicode="=" 
d="M614 460v-107h-550v107h550zM614 185v-106h-550v106h550z" />
    <glyph glyph-name="greater" unicode="&#x3e;" 
d="M85 540l515 -222v-100l-515 -222v120l379 152l-379 153v119z" />
    <glyph glyph-name="question" unicode="?" horiz-adv-x="468" 
d="M18 587v113q35 15 89.5 26.5t106.5 11.5q61 0 116 -20.5t90 -61t35 -98.5q0 -64 -35.5 -112.5t-89.5 -80.5q-36 -22 -54 -37t-27 -35t-9 -52v-27h-118v30q0 66 26.5 104.5t87.5 75.5q48 29 73 58t25 66q0 42 -39.5 64.5t-93.5 22.5q-43 0 -93 -14t-90 -34zM249 136v-136
h-135v136h135z" />
    <glyph glyph-name="at" unicode="@" horiz-adv-x="820" 
d="M501 241q-45 -83 -140 -83q-64 0 -107 45.5t-43 132.5q0 60 25.5 112t71.5 83.5t104 31.5q37 0 66 -17.5t45 -50.5l7 51h83l-31 -214q-3 -16 -3 -36q0 -60 39 -60q38 0 62.5 44t24.5 121q0 120 -73.5 183t-196.5 63q-90 0 -159 -40.5t-107 -111t-38 -158.5q0 -77 33 -138
t94 -95.5t142 -34.5q101 0 186 43l33 -81q-50 -25 -107.5 -37t-114.5 -12q-106 0 -188.5 46t-128.5 127t-46 183q0 111 53 201t145 141t206 51q100 0 182 -35.5t131 -108.5t49 -180q0 -79 -26.5 -137t-70 -88t-91.5 -30q-42 0 -71.5 23.5t-39.5 65.5zM311 336
q0 -44 19 -67.5t53 -23.5q51 0 80.5 41t29.5 101q0 42 -19.5 65.5t-57.5 23.5q-47 0 -76 -41t-29 -99z" />
    <glyph glyph-name="A" unicode="A" horiz-adv-x="670" 
d="M673 0h-137l-68 193h-273l-68 -193h-129l270 725h133zM331 579l-99 -281h198z" />
    <glyph glyph-name="B" unicode="B" horiz-adv-x="643" 
d="M75 0v725h245q114 0 187 -41.5t73 -143.5q0 -49 -23.5 -92t-57.5 -64q109 -49 109 -170q0 -110 -75.5 -162t-195.5 -52h-262zM201 620v-199h130q57 0 88.5 25.5t31.5 75.5q0 48 -32 73t-88 25h-130zM201 325v-220h140q68 0 102.5 28.5t34.5 82.5q0 55 -35 82t-108 27
h-134z" />
    <glyph glyph-name="C" unicode="C" horiz-adv-x="637" 
d="M417 95q90 0 182 46v-116q-40 -17 -91.5 -27.5t-102.5 -10.5q-115 0 -198 48.5t-126.5 133.5t-43.5 193q0 117 49 202t133 129.5t186 44.5q54 0 106 -9t88 -27v-116q-88 44 -182 44q-71 0 -127 -29.5t-89 -89.5t-33 -149t33 -149t89 -89t127 -29z" />
    <glyph glyph-name="D" unicode="D" horiz-adv-x="723" 
d="M273 725q191 0 300.5 -82t109.5 -280q0 -199 -109.5 -281t-300.5 -82h-198v725h198zM278 621h-77v-517h77q81 0 140 19t96.5 76t37.5 164t-37.5 163.5t-96.5 75.5t-140 19z" />
    <glyph glyph-name="E" unicode="E" horiz-adv-x="581" 
d="M534 0h-459v725h459v-105h-333v-196h312v-105h-312v-214h333v-105z" />
    <glyph glyph-name="F" unicode="F" horiz-adv-x="556" 
d="M201 0h-126v725h455v-105h-329v-196h308v-105h-308v-319z" />
    <glyph glyph-name="G" unicode="G" horiz-adv-x="720" 
d="M673 38q-61 -24 -129 -37.5t-130 -13.5q-114 0 -199 46t-131.5 130.5t-46.5 198.5q0 117 52.5 202t142.5 129.5t201 44.5q55 0 110.5 -9t90.5 -27v-116q-39 20 -92.5 32t-110.5 12q-74 0 -133.5 -29.5t-94.5 -89.5t-35 -149q0 -136 71.5 -202t183.5 -66q66 0 133 19v179
h-185v105h302v-359z" />
    <glyph glyph-name="H" unicode="H" horiz-adv-x="744" 
d="M543 424v301h126v-725h-126v319h-342v-319h-126v725h126v-301h342z" />
    <glyph glyph-name="I" unicode="I" horiz-adv-x="459" 
d="M421 105v-105h-383v105h128v515h-128v105h383v-105h-128v-515h128z" />
    <glyph glyph-name="J" unicode="J" horiz-adv-x="379" 
d="M27 -1l12 111q39 -13 73 -13q39 0 54.5 23.5t15.5 74.5v425h-130v105h256v-532q0 -102 -46.5 -154t-135.5 -52q-46 0 -99 12z" />
    <glyph glyph-name="K" unicode="K" horiz-adv-x="656" 
d="M75 725h126v-357l290 357h143l-302 -364l346 -361h-171l-306 319v-319h-126v725z" />
    <glyph glyph-name="L" unicode="L" horiz-adv-x="521" 
d="M75 725h126v-620h299v-105h-425v725z" />
    <glyph glyph-name="M" unicode="M" horiz-adv-x="864" 
d="M668 580l-172 -410h-128l-173 410v-580h-120v725h181l177 -431l174 431h182v-725h-121v580z" />
    <glyph glyph-name="N" unicode="N" horiz-adv-x="749" 
d="M675 725v-725h-172l-306 579v-579h-122v725h171l307 -579v579h122z" />
    <glyph glyph-name="O" unicode="O" horiz-adv-x="774" 
d="M387 -13q-105 0 -184 47.5t-122 132.5t-43 196t43 196t122 132t184 47t184 -47t122 -132t43 -196t-43 -196t-122 -132.5t-184 -47.5zM387 90q61 0 110.5 32t78.5 93.5t29 147.5t-29 147.5t-78.5 93t-110.5 31.5q-62 0 -111.5 -31.5t-78.5 -93t-29 -147.5t29 -147.5
t79 -93.5t111 -32z" />
    <glyph glyph-name="P" unicode="P" horiz-adv-x="623" 
d="M288 725q94 0 161 -16.5t109 -66.5t42 -143q0 -126 -82 -175t-227 -49h-90v-275h-126v725h213zM201 621v-242h98q51 0 87.5 8t60 34.5t23.5 77.5q0 52 -24 79t-61.5 35t-91.5 8h-92z" />
    <glyph glyph-name="Q" unicode="Q" horiz-adv-x="775" 
d="M637 87l90 -96l-75 -70l-98 104q-73 -38 -167 -38q-105 0 -184 47.5t-122 132.5t-43 196t43 196t122 132t184 47t184 -47t122 -132t43 -196q0 -85 -25.5 -155.5t-73.5 -120.5zM475 109l-106 114l75 70l109 -117q52 72 52 187q0 86 -29 147.5t-78.5 93t-110.5 31.5
q-62 0 -111.5 -31.5t-78.5 -93t-29 -147.5t29 -147.5t79 -93.5t111 -32q45 0 88 19z" />
    <glyph glyph-name="R" unicode="R" horiz-adv-x="646" 
d="M75 0v725h214q154 0 228.5 -50t74.5 -161q0 -77 -42.5 -128t-128.5 -72l214 -314h-143l-203 301h-88v-301h-126zM201 621v-216h102q79 0 119 22.5t40 84.5q0 63 -41 86t-123 23h-97z" />
    <glyph glyph-name="S" unicode="S" horiz-adv-x="562" 
d="M49 26v121q45 -24 92 -37.5t107 -13.5q67 0 111 24.5t44 75.5q0 40 -29.5 64t-89.5 44l-60 20q-87 28 -135 81t-48 124q0 63 36.5 110.5t98.5 73t137 25.5q50 0 96.5 -7.5t78.5 -22.5v-114q-77 36 -176 36q-62 0 -103.5 -23t-41.5 -68q0 -67 108 -102l60 -20
q99 -32 148.5 -80.5t49.5 -129.5q0 -64 -37.5 -114.5t-101.5 -78t-141 -27.5q-120 0 -204 39z" />
    <glyph glyph-name="T" unicode="T" horiz-adv-x="618" 
d="M372 0h-126v620h-225v105h576v-105h-225v-620z" />
    <glyph glyph-name="U" unicode="U" horiz-adv-x="728" 
d="M68 725h126v-428q0 -106 37 -156t133 -50t133 52t37 159v423h126v-420q0 -115 -30 -184.5t-94.5 -101.5t-171.5 -32q-106 0 -170.5 30.5t-95 99t-30.5 185.5v423z" />
    <glyph glyph-name="V" unicode="V" horiz-adv-x="635" 
d="M250 0l-251 725h138l184 -576l180 576h134l-248 -725h-137z" />
    <glyph glyph-name="W" unicode="W" horiz-adv-x="909" 
d="M381 725h148l124 -562l113 562h130l-169 -725h-151l-122 562l-121 -562h-151l-170 725h134l120 -560z" />
    <glyph glyph-name="X" unicode="X" horiz-adv-x="669" 
d="M136 0h-143l268 372l-250 353h151l175 -247l178 247h143l-250 -347l267 -378h-151l-193 271z" />
    <glyph glyph-name="Y" unicode="Y" horiz-adv-x="642" 
d="M256 282l-259 443h145l181 -323l184 323h143l-267 -445v-280h-127v282z" />
    <glyph glyph-name="Z" unicode="Z" horiz-adv-x="619" 
d="M53 725h528v-102l-407 -518h420v-105h-573v102l409 518h-377v105z" />
    <glyph glyph-name="bracketleft" unicode="[" horiz-adv-x="345" 
d="M74 -195v950h244v-91h-135v-768h135v-91h-244z" />
    <glyph glyph-name="backslash" unicode="\" horiz-adv-x="434" 
d="M19 755h113l282 -755h-113z" />
    <glyph glyph-name="bracketright" unicode="]" horiz-adv-x="335" 
d="M17 664v91h245v-950h-245v91h136v768h-136z" />
    <glyph glyph-name="asciicircum" unicode="^" 
d="M288 725h100l201 -387h-119l-132 259l-130 -259h-119z" />
    <glyph glyph-name="underscore" unicode="_" horiz-adv-x="510" 
d="M475 -35v-106h-439v106h439z" />
    <glyph glyph-name="grave" unicode="`" horiz-adv-x="278" 
d="M256 639h-92l-142 116h141z" />
    <glyph glyph-name="a" unicode="a" horiz-adv-x="548" 
d="M372 347q-4 58 -37.5 80t-89.5 22q-47 0 -91 -15t-77 -38v105q37 21 89.5 34.5t100.5 13.5q113 0 167.5 -51.5t54.5 -163.5l-2 -146q0 -54 1 -91.5t5 -96.5h-111v83q-49 -96 -176 -96q-48 0 -89.5 20t-66 57t-24.5 85q0 88 86 133.5t260 64.5zM379 263v6
q-232 -14 -232 -111q0 -37 24 -61t67 -24q58 0 99.5 45t41.5 145z" />
    <glyph glyph-name="b" unicode="b" horiz-adv-x="611" 
d="M66 755h119v-292q24 40 66 63t98 23q65 0 117.5 -34.5t82 -98.5t29.5 -148q0 -85 -30 -149t-82 -98t-117 -34q-53 0 -96 22t-68 64v-73h-119v755zM319 82q63 0 97.5 49.5t34.5 136.5q0 86 -35 136t-97 50q-61 0 -99.5 -48.5t-38.5 -137.5t38.5 -137.5t99.5 -48.5z" />
    <glyph glyph-name="c" unicode="c" horiz-adv-x="463" 
d="M320 86q50 0 110 25v-101q-23 -10 -57.5 -16.5t-64.5 -6.5q-88 0 -150 37t-94 101t-32 143q0 78 33 142t96 101.5t147 37.5q30 0 62.5 -4t52.5 -12v-103q-44 19 -103 19q-73 0 -119 -46t-46 -135q0 -90 46 -136t119 -46z" />
    <glyph glyph-name="d" unicode="d" horiz-adv-x="611" 
d="M426 755h119v-755h-119v73q-24 -42 -67 -64t-96 -22q-65 0 -117.5 34.5t-82.5 98t-30 148.5q0 84 30 148t82.5 98.5t117.5 34.5q55 0 97.5 -23t65.5 -63v292zM292 454q-62 0 -97 -50t-35 -136q0 -87 35 -136.5t97 -49.5q61 0 100 48.5t39 137.5q0 88 -39 137t-100 49z
" />
    <glyph glyph-name="e" unicode="e" horiz-adv-x="557" 
d="M153 238q8 -74 55 -113t118 -39q80 0 164 47v-106q-33 -16 -80 -28t-102 -12q-87 0 -149.5 37.5t-94.5 101.5t-32 144q0 81 33 144.5t91.5 99.5t131.5 36q120 0 181.5 -85t57.5 -227h-374zM151 320h256q-2 71 -37 105t-88 34q-50 0 -88 -32.5t-43 -106.5z" />
    <glyph glyph-name="f" unicode="f" horiz-adv-x="348" 
d="M97 590q0 84 41 126t128 42q41 0 82 -7v-93q-35 6 -59 6q-37 0 -55 -18.5t-18 -61.5v-46h125v-86h-125v-452h-119v452h-76v86h76v52z" />
    <glyph glyph-name="g" unicode="g" horiz-adv-x="607" 
d="M542 58q0 -140 -75 -202t-194 -62q-47 0 -93 8.5t-80 23.5v108q32 -19 76.5 -30.5t88.5 -11.5q71 0 114.5 34.5t43.5 113.5v55q-25 -43 -67 -64.5t-94 -21.5q-66 0 -117.5 33t-80.5 94.5t-29 142.5q0 80 28.5 141.5t80.5 95t118 33.5q55 0 97 -24t64 -63v76h119v-480z
M292 455q-61 0 -96 -48.5t-35 -127.5q0 -80 35 -128t96 -48t98.5 46.5t37.5 129.5t-37.5 129.5t-98.5 46.5z" />
    <glyph glyph-name="h" unicode="h" horiz-adv-x="591" 
d="M185 463q24 41 65.5 63.5t97.5 22.5q183 0 183 -210v-339h-119v311q0 66 -21.5 103t-81.5 37q-64 0 -94 -44.5t-30 -121.5v-285h-119v755h119v-292z" />
    <glyph glyph-name="i" unicode="i" horiz-adv-x="251" 
d="M66 634v121h119v-121h-119zM66 0v538h119v-538h-119z" />
    <glyph glyph-name="j" unicode="j" horiz-adv-x="286" 
d="M100 634v121h120v-121h-120zM13 -201v94q20 -5 43 -5q25 0 34.5 14t9.5 50v500h-81v86h201v-577q0 -89 -31.5 -128t-114.5 -39q-33 0 -61 5z" />
    <glyph glyph-name="k" unicode="k" horiz-adv-x="533" 
d="M66 0v755h119v-467l199 250h131l-209 -256l245 -282h-150l-216 245v-245h-119z" />
    <glyph glyph-name="l" unicode="l" horiz-adv-x="251" 
d="M66 755h119v-755h-119v755z" />
    <glyph glyph-name="m" unicode="m" horiz-adv-x="912" 
d="M185 0h-119v538h119v-75q24 40 63.5 63t91.5 23q111 0 154 -91q62 91 178 91q179 0 179 -210v-339h-119v313q0 65 -19 101.5t-79 36.5q-61 0 -88.5 -44.5t-27.5 -121.5v-285h-119v313q0 65 -19 101.5t-79 36.5q-61 0 -88.5 -44.5t-27.5 -121.5v-285z" />
    <glyph glyph-name="n" unicode="n" horiz-adv-x="591" 
d="M185 463q24 41 65.5 63.5t97.5 22.5q183 0 183 -210v-339h-119v311q0 66 -21.5 103t-81.5 37q-64 0 -94 -44.5t-30 -121.5v-285h-119v538h119v-75z" />
    <glyph glyph-name="o" unicode="o" horiz-adv-x="590" 
d="M295 549q71 0 130.5 -31.5t95.5 -94.5t36 -155t-36 -155.5t-95.5 -94.5t-130.5 -31t-130.5 31t-95.5 94.5t-36 155.5t36 155t95.5 94.5t130.5 31.5zM295 84q64 0 101.5 47t37.5 137q0 91 -37.5 137.5t-101.5 46.5t-101.5 -46.5t-37.5 -137.5t37.5 -137.5t101.5 -46.5z
" />
    <glyph glyph-name="p" unicode="p" horiz-adv-x="611" 
d="M66 538h119v-75q24 40 66 63t98 23q65 0 117.5 -34.5t82 -98.5t29.5 -148q0 -85 -30 -148.5t-82.5 -98t-117.5 -34.5q-52 0 -95 22t-68 64v-268h-119v733zM319 82q63 0 97.5 49.5t34.5 136.5q0 86 -35 136t-97 50q-61 0 -99.5 -48.5t-38.5 -137.5t38.5 -137.5t99.5 -48.5
z" />
    <glyph glyph-name="q" unicode="q" horiz-adv-x="610" 
d="M545 538v-733h-119v268q-24 -42 -67 -64t-96 -22q-65 0 -117.5 34.5t-82.5 98t-30 148.5q0 84 30 148t82.5 98.5t117.5 34.5q55 0 97.5 -23t65.5 -63v75h119zM292 454q-62 0 -97 -50t-35 -136q0 -87 35 -136.5t97 -49.5q61 0 100 48.5t39 137.5q0 88 -39 137t-100 49z
" />
    <glyph glyph-name="r" unicode="r" horiz-adv-x="371" 
d="M357 423q-30 5 -51 5q-60 0 -90.5 -34t-30.5 -112v-282h-119v538h117v-94q21 48 58.5 72.5t87.5 25.5q12 0 28 -2v-117z" />
    <glyph glyph-name="s" unicode="s" horiz-adv-x="446" 
d="M40 16v110q74 -40 158 -40q50 0 78.5 15.5t28.5 44.5q0 24 -20.5 41t-68.5 33l-32 10q-71 24 -108 65.5t-37 97.5q0 49 27.5 84t74 53.5t101.5 18.5q79 0 143 -23v-104q-74 28 -140 28q-43 0 -68.5 -13t-25.5 -40q0 -23 18 -39t58 -29l33 -11q82 -26 121.5 -63.5
t39.5 -101.5q0 -49 -28.5 -86.5t-77 -58.5t-107.5 -21q-52 0 -96 8t-72 21z" />
    <glyph glyph-name="t" unicode="t" horiz-adv-x="355" 
d="M94 538v139h120v-139h118v-86h-118v-292q0 -42 13.5 -58t47.5 -16q28 0 56 6v-89q-39 -12 -80 -12q-86 0 -121.5 38.5t-35.5 122.5v300h-85v86h85z" />
    <glyph glyph-name="u" unicode="u" horiz-adv-x="585" 
d="M400 73q-24 -40 -65.5 -63t-96.5 -23q-177 0 -177 209v342h119v-313q0 -68 19.5 -104t78.5 -36q64 0 93 44.5t29 122.5v286h119v-538h-119v73z" />
    <glyph glyph-name="v" unicode="v" horiz-adv-x="511" 
d="M3 538h128l128 -404l128 404h120l-191 -538h-120z" />
    <glyph glyph-name="w" unicode="w" horiz-adv-x="745" 
d="M266 0h-118l-138 538h122l84 -382l93 382h126l94 -382l84 382h122l-139 -538h-118l-106 418z" />
    <glyph glyph-name="x" unicode="x" horiz-adv-x="522" 
d="M387 538h125l-186 -257l199 -281h-137l-131 186l-134 -186h-126l198 273l-186 265h136l119 -169z" />
    <glyph glyph-name="y" unicode="y" horiz-adv-x="520" 
d="M519 538l-278 -733h-115l77 203l-202 530h131l132 -398l133 398h122z" />
    <glyph glyph-name="z" unicode="z" horiz-adv-x="498" 
d="M469 0h-442v97l294 344h-277v97h418v-97l-294 -344h301v-97z" />
    <glyph glyph-name="braceleft" unicode="{" horiz-adv-x="350" 
d="M278 -195q-68 0 -105.5 14.5t-54.5 49.5t-17 99v162q0 53 -15 78t-61 25v95q46 0 61 25t15 78v161q0 64 17 99t54.5 49.5t105.5 14.5h41v-97h-28q-30 0 -45 -6.5t-20.5 -21t-5.5 -42.5v-170q0 -64 -23 -94t-67 -42v-3q44 -12 67 -42t23 -94v-171q0 -41 13.5 -56t57.5 -15
h28v-96h-41z" />
    <glyph glyph-name="bar" unicode="|" horiz-adv-x="249" 
d="M73 -90v845h103v-845h-103z" />
    <glyph glyph-name="braceright" unicode="}" horiz-adv-x="350" 
d="M31 -195v96h28q44 0 57.5 15t13.5 56v171q0 64 23 94t67 42v3q-44 12 -67 42t-23 94v170q0 28 -5.5 42.5t-20.5 21t-45 6.5h-28v97h40q68 0 106 -14.5t55 -49.5t17 -99v-161q0 -53 15 -78t61 -25v-95q-46 0 -61 -25t-15 -78v-162q0 -64 -17 -99t-55 -49.5t-106 -14.5h-40
z" />
    <glyph glyph-name="asciitilde" unicode="~" 
d="M620 353q-5 -75 -49 -120.5t-116 -45.5q-32 0 -60.5 9.5t-65.5 26.5q-34 15 -53 21.5t-40 6.5q-31 0 -50.5 -17.5t-22.5 -48.5h-105q5 76 49 121.5t116 45.5q32 0 60.5 -9.5t65.5 -26.5q34 -15 53.5 -21.5t39.5 -6.5q31 0 50.5 17t22.5 48h105z" />
    <glyph glyph-name="uni00A0" unicode="&#xa0;" horiz-adv-x="209" 
 />
    <glyph glyph-name="exclamdown" unicode="&#xa1;" horiz-adv-x="250" 
d="M192 538v-136h-135v136h135zM185 13v-188h-121v188l23 312h77z" />
    <glyph glyph-name="cent" unicode="&#xa2;" horiz-adv-x="488" 
d="M443 10q-21 -9 -53 -15.5t-62 -7.5v-80h-49v82q-75 9 -127.5 47.5t-79.5 98.5t-27 133q0 71 28 131t81 99t125 48v83h49v-80q72 -2 108 -16v-103q-44 19 -103 19h-5v-363h5q52 0 110 25v-101zM279 94v348q-51 -15 -80.5 -59t-29.5 -115q0 -72 29.5 -115.5t80.5 -58.5z
" />
    <glyph glyph-name="sterling" unicode="&#xa3;" horiz-adv-x="577" 
d="M548 104v-104h-511v94q132 59 132 159q0 28 -15 66h-113v70h82q-20 43 -30.5 76.5t-10.5 67.5q0 70 37.5 115.5t97 67t127.5 21.5q54 0 103 -10t81 -27v-112q-39 22 -86.5 34.5t-94.5 12.5q-60 0 -101 -25.5t-41 -80.5q0 -30 11 -59.5t36 -80.5h226v-70h-197
q10 -33 10 -62q0 -46 -23.5 -85.5t-72.5 -67.5h353z" />
    <glyph glyph-name="currency" unicode="&#xa4;" horiz-adv-x="614" 
d="M112 485l-69 70l49 49l68 -68q63 49 144 49q83 0 147 -51l71 70l49 -49l-72 -72q44 -64 44 -137q0 -76 -44 -137l72 -71l-49 -49l-71 70q-65 -49 -147 -49q-79 0 -143 48l-69 -69l-49 49l69 70q-44 61 -44 138q0 78 44 139zM303 202q63 0 103 41.5t40 102.5
q0 63 -40 105.5t-103 42.5q-59 0 -97 -42.5t-38 -105.5q0 -61 38 -102.5t97 -41.5z" />
    <glyph glyph-name="yen" unicode="&#xa5;" horiz-adv-x="691" 
d="M532 725h140l-249 -419h145v-70h-164v-71h164v-70h-164v-95h-122v95h-161v70h161v71h-161v70h140l-244 419h143l184 -345z" />
    <glyph glyph-name="brokenbar" unicode="&#xa6;" horiz-adv-x="249" 
d="M73 430v325h103v-325h-103zM73 -90v325h103v-325h-103z" />
    <glyph glyph-name="section" unicode="&#xa7;" horiz-adv-x="595" 
d="M393 -24q0 25 -20 43t-73 45l-129 66q-68 35 -103.5 76.5t-35.5 96.5q0 50 30 90t80 62q-30 24 -48 55.5t-18 69.5q0 72 63.5 114.5t169.5 42.5q44 0 90.5 -8t78.5 -21v-106q-37 15 -84 25.5t-86 10.5q-108 0 -108 -55q0 -20 17 -35t59 -37l134 -70q78 -41 116 -81
t38 -98q0 -53 -30 -95.5t-83 -66.5q33 -27 49.5 -54t16.5 -63q0 -52 -33.5 -90.5t-89.5 -59t-121 -20.5q-54 0 -104.5 8t-84.5 23v110q40 -19 89 -30.5t96 -11.5q57 0 90.5 16.5t33.5 47.5zM231 402q-32 -12 -54 -33.5t-22 -50.5q0 -26 16.5 -45.5t53.5 -38.5l142 -76
q32 14 52.5 36t20.5 51t-21.5 49.5t-72.5 47.5z" />
    <glyph glyph-name="dieresis" unicode="&#xa8;" horiz-adv-x="385" 
d="M129 646h-105v109h105v-109zM256 646v109h106v-109h-106z" />
    <glyph glyph-name="copyright" unicode="&#xa9;" horiz-adv-x="855" 
d="M428 739q107 0 194 -48t137 -134.5t50 -195.5q0 -108 -50 -193.5t-137 -133.5t-194 -48t-194.5 48t-137.5 133.5t-50 193.5q0 109 50 195.5t137.5 134.5t194.5 48zM428 68q84 0 149.5 36.5t102 103t36.5 153.5q0 88 -36.5 155t-102 104t-149.5 37q-83 0 -148.5 -37
t-103 -104.5t-37.5 -154.5q0 -86 37.5 -153t103 -103.5t148.5 -36.5zM450 562q62 0 97 -19v-79q-40 20 -86 20q-55 0 -90 -31t-35 -91t35 -90.5t90 -30.5q49 0 89 21v-79q-17 -10 -46 -15t-57 -5q-65 0 -111.5 27t-70.5 72t-24 100t24 100.5t71 72.5t114 27z" />
    <glyph glyph-name="ordfeminine" unicode="&#xaa;" horiz-adv-x="398" 
d="M236 629q0 20 -18.5 28.5t-42.5 8.5q-50 0 -98 -24v74q23 9 53.5 15.5t57.5 6.5q70 0 107.5 -33t37.5 -101l-1 -70q0 -75 4 -105h-89l-2 44q-26 -51 -93 -51q-45 0 -74.5 25t-29.5 65q0 53 45.5 77.5t142.5 39.5zM240 568v5q-51 -6 -74.5 -18.5t-23.5 -34.5
q0 -17 11 -25.5t28 -8.5q25 0 42 21.5t17 60.5zM344 360v-96h-285v96h285z" />
    <glyph glyph-name="guillemotleft" unicode="&#xab;" horiz-adv-x="564" 
d="M310 43h-114l-159 230l159 229h114l-135 -229zM531 43h-114l-159 230l159 229h114l-135 -229z" />
    <glyph glyph-name="logicalnot" unicode="&#xac;" 
d="M503 0v216h-439v106h550v-322h-111z" />
    <glyph glyph-name="uni00AD" unicode="&#xad;" horiz-adv-x="437" 
d="M385 324v-109h-332v109h332z" />
    <glyph glyph-name="registered" unicode="&#xae;" horiz-adv-x="506" 
d="M253 736q58 0 105.5 -27t75.5 -75t28 -109t-28 -108.5t-75.5 -74.5t-105.5 -27t-106 27t-76 74.5t-28 108.5t28 109t76 75t106 27zM253 369q66 0 109 43.5t43 112.5q0 71 -42.5 114t-109.5 43q-66 0 -109 -43.5t-43 -113.5q0 -46 20 -81.5t54.5 -55t77.5 -19.5zM226 505
v-76h-51v205h74q48 0 69.5 -14t21.5 -50q0 -46 -43 -58l52 -83h-54l-47 76h-22zM253 595h-27v-50h27q19 0 28 5.5t9 19.5t-9 19.5t-28 5.5z" />
    <glyph glyph-name="macron" unicode="&#xaf;" horiz-adv-x="352" 
d="M330 744v-83h-308v83h308z" />
    <glyph glyph-name="degree" unicode="&#xb0;" horiz-adv-x="376" 
d="M187 738q45 0 81.5 -20.5t57.5 -57t21 -80.5t-21 -80.5t-57.5 -57t-81.5 -20.5q-44 0 -80 20.5t-57 57t-21 80.5t21 80.5t57 57t80 20.5zM187 501q34 0 55.5 22.5t21.5 56.5t-21.5 56.5t-55.5 22.5q-33 0 -54 -22.5t-21 -56.5q0 -33 21 -56t54 -23z" />
    <glyph glyph-name="plusminus" unicode="&#xb1;" 
d="M64 399h220v139h111v-139h219v-106h-219v-139h-111v139h-220v106zM614 106v-106h-550v106h550z" />
    <glyph glyph-name="uni00B2" unicode="&#xb2;" horiz-adv-x="350" 
d="M315 738q0 -52 -36.5 -97.5t-124.5 -120.5h166v-82h-293v79q2 2 34 28q82 68 117.5 105.5t35.5 71.5q0 24 -17 37t-48 13q-26 0 -55.5 -9.5t-55.5 -23.5v84q21 12 57 21t72 9q69 0 108.5 -30.5t39.5 -84.5z" />
    <glyph glyph-name="uni00B3" unicode="&#xb3;" horiz-adv-x="346" 
d="M214 561q0 25 -23.5 37t-63.5 12h-25v77h23q82 0 82 45q0 21 -19.5 30.5t-47.5 9.5q-24 0 -53 -8.5t-53 -21.5v86q21 10 54.5 17.5t68.5 7.5q63 0 106.5 -27.5t43.5 -79.5q0 -31 -15.5 -55.5t-38.5 -36.5q29 -12 46 -39.5t17 -57.5q0 -61 -45.5 -93.5t-116.5 -32.5
q-36 0 -68 6.5t-53 17.5v86q23 -12 52 -20t55 -8q33 0 53.5 12t20.5 36z" />
    <glyph glyph-name="acute" unicode="&#xb4;" horiz-adv-x="278" 
d="M115 755h141l-142 -116h-92z" />
    <glyph glyph-name="paragraph" unicode="&#xb6;" horiz-adv-x="676" 
d="M272 725h320v-920h-100v824h-111v-824h-100v493h-25q-107 0 -170.5 56.5t-63.5 154.5q0 101 66.5 158.5t183.5 57.5z" />
    <glyph glyph-name="periodcentered" unicode="&#xb7;" horiz-adv-x="244" 
d="M189 337v-136h-135v136h135z" />
    <glyph glyph-name="cedilla" unicode="&#xb8;" horiz-adv-x="252" 
d="M39 -135q30 -14 60 -14q25 0 40.5 8.5t15.5 23.5q0 14 -11.5 21t-30.5 7q-25 0 -38 -9l-30 17l51 83h55l-33 -51q20 3 34 3q36 0 58.5 -18t22.5 -50q0 -38 -35 -60.5t-82 -22.5q-53 0 -94 18z" />
    <glyph glyph-name="uni00B9" unicode="&#xb9;" horiz-adv-x="340" 
d="M229 518h99v-80h-300v80h103v202h-94v69q52 2 77.5 14t38.5 43h76v-328z" />
    <glyph glyph-name="ordmasculine" unicode="&#xba;" horiz-adv-x="418" 
d="M50 580q0 77 45.5 117.5t113.5 40.5t113.5 -40.5t45.5 -117.5q0 -78 -45.5 -118t-113.5 -40t-113.5 40t-45.5 118zM270 580q0 41 -16.5 63t-44.5 22q-27 0 -44 -22t-17 -63q0 -42 17 -64t44 -22q28 0 44.5 22t16.5 64zM357 360v-96h-296v96h296z" />
    <glyph glyph-name="guillemotright" unicode="&#xbb;" horiz-adv-x="564" 
d="M147 502l159 -229l-159 -230h-114l135 230l-135 229h114zM369 502l159 -229l-159 -230h-114l135 230l-135 229h114z" />
    <glyph glyph-name="onequarter" unicode="&#xbc;" horiz-adv-x="798" 
d="M204 317h-98v282h-90v69q50 2 74.5 14t37.5 43h76v-408zM672 725l-511 -725h-122l510 725h123zM712 167h64v-80h-64v-86h-95v86h-200v75l204 247h91v-242zM617 167v125l-103 -125h103z" />
    <glyph glyph-name="onehalf" unicode="&#xbd;" horiz-adv-x="797" 
d="M204 317h-98v282h-90v69q50 2 74.5 14t37.5 43h76v-408zM672 725l-511 -725h-122l510 725h123zM762 300q0 -36 -18 -68.5t-51 -65.5t-93 -84h166v-81h-293v78q11 10 33 28q82 67 118 105.5t36 72.5q0 24 -17 37t-47 13q-50 0 -112 -34v85q21 12 57 21t72 9q69 0 109 -31
t40 -85z" />
    <glyph glyph-name="threequarters" unicode="&#xbe;" horiz-adv-x="873" 
d="M214 439q0 49 -87 49h-25v77h23q39 0 60.5 11.5t21.5 34.5q0 21 -20 30t-47 9q-24 0 -53.5 -8.5t-52.5 -20.5v86q21 10 54.5 17.5t68.5 7.5q64 0 107 -27.5t43 -80.5q0 -31 -15.5 -55t-38.5 -37q29 -11 46 -38t17 -58q0 -61 -45.5 -93.5t-116.5 -32.5q-35 0 -67.5 6.5
t-53.5 16.5v86q23 -12 52 -20t55 -8q33 0 53.5 12t20.5 36zM747 725l-511 -725h-122l510 725h123zM787 167h64v-80h-64v-86h-95v86h-200v75l204 247h91v-242zM692 167v125l-103 -125h103z" />
    <glyph glyph-name="questiondown" unicode="&#xbf;" horiz-adv-x="488" 
d="M366 538v-136h-135v136h135zM463 -49v-113q-35 -15 -90 -26.5t-107 -11.5q-61 0 -116 20.5t-90 61t-35 98.5q0 64 35.5 112.5t89.5 80.5q36 22 54 37t27 35t9 52v28h118v-31q0 -66 -26.5 -104.5t-87.5 -75.5q-48 -29 -73 -58t-25 -66q0 -42 39.5 -64.5t94.5 -22.5
q43 0 92.5 14t90.5 34z" />
    <glyph glyph-name="Agrave" unicode="&#xc0;" horiz-adv-x="670" 
d="M673 0h-137l-68 193h-273l-68 -193h-129l270 725h133zM331 579l-99 -281h198zM388 773h-104l-155 113h153z" />
    <glyph glyph-name="Aacute" unicode="&#xc1;" horiz-adv-x="670" 
d="M673 0h-137l-68 193h-273l-68 -193h-129l270 725h133zM331 579l-99 -281h198zM390 886h153l-155 -113h-104z" />
    <glyph glyph-name="Acircumflex" unicode="&#xc2;" horiz-adv-x="670" 
d="M673 0h-137l-68 193h-273l-68 -193h-129l270 725h133zM331 579l-99 -281h198zM284 886h105l135 -113h-122l-67 52l-68 -52h-121z" />
    <glyph glyph-name="Atilde" unicode="&#xc3;" horiz-adv-x="670" 
d="M673 0h-137l-68 193h-273l-68 -193h-129l270 725h133zM331 579l-99 -281h198zM445 890h84q-11 -67 -47.5 -94t-80.5 -27q-23 0 -40 6.5t-38 18.5q-17 10 -27.5 14.5t-22.5 4.5q-41 0 -47 -43h-85q11 65 48 93t80 28q23 0 38.5 -6.5t36.5 -18.5q17 -10 28 -14.5t24 -4.5
q41 0 49 43z" />
    <glyph glyph-name="Adieresis" unicode="&#xc4;" horiz-adv-x="670" 
d="M673 0h-137l-68 193h-273l-68 -193h-129l270 725h133zM331 579l-99 -281h198zM165 776v107h105v-107h-105zM401 776v107h105v-107h-105z" />
    <glyph glyph-name="Aring" unicode="&#xc5;" horiz-adv-x="670" 
d="M673 0h-137l-68 193h-273l-68 -193h-129l270 725h133zM331 579l-99 -281h198zM434 854q0 -40 -28.5 -67t-70.5 -27t-70.5 27t-28.5 67t29 66.5t70 26.5t70 -26.5t29 -66.5zM291 854q0 -18 13 -30.5t31 -12.5t31 12.5t13 30.5t-13 30.5t-31 12.5t-31 -12.5t-13 -30.5z" />
    <glyph glyph-name="AE" unicode="&#xc6;" horiz-adv-x="947" 
d="M900 725v-105h-333v-196h312v-105h-312v-214h333v-105h-459v175h-226l-105 -175h-135l445 725h480zM441 554l-164 -274h164v274z" />
    <glyph glyph-name="Ccedilla" unicode="&#xc7;" horiz-adv-x="637" 
d="M417 95q90 0 182 46v-116q-40 -17 -91.5 -27.5t-102.5 -10.5q-115 0 -198 48.5t-126.5 133.5t-43.5 193q0 117 49 202t133 129.5t186 44.5q54 0 106 -9t88 -27v-116q-88 44 -182 44q-71 0 -127 -29.5t-89 -89.5t-33 -149t33 -149t89 -89t127 -29zM292 -135q30 -14 60 -14
q25 0 40.5 8.5t15.5 23.5q0 14 -11.5 21t-30.5 7q-25 0 -38 -9l-30 17l51 83h55l-33 -51q20 3 34 3q36 0 58.5 -18t22.5 -50q0 -38 -35 -60.5t-82 -22.5q-53 0 -94 18z" />
    <glyph glyph-name="Egrave" unicode="&#xc8;" horiz-adv-x="581" 
d="M534 0h-459v725h459v-105h-333v-196h312v-105h-312v-214h333v-105zM389 773h-104l-155 113h153z" />
    <glyph glyph-name="Eacute" unicode="&#xc9;" horiz-adv-x="581" 
d="M534 0h-459v725h459v-105h-333v-196h312v-105h-312v-214h333v-105zM358 886h153l-155 -113h-104z" />
    <glyph glyph-name="Ecircumflex" unicode="&#xca;" horiz-adv-x="581" 
d="M534 0h-459v725h459v-105h-333v-196h312v-105h-312v-214h333v-105zM264 886h105l135 -113h-122l-67 52l-68 -52h-121z" />
    <glyph glyph-name="Edieresis" unicode="&#xcb;" horiz-adv-x="581" 
d="M534 0h-459v725h459v-105h-333v-196h312v-105h-312v-214h333v-105zM143 776v107h105v-107h-105zM379 776v107h105v-107h-105z" />
    <glyph glyph-name="Igrave" unicode="&#xcc;" horiz-adv-x="459" 
d="M421 105v-105h-383v105h128v515h-128v105h383v-105h-128v-515h128zM297 773h-104l-155 113h153z" />
    <glyph glyph-name="Iacute" unicode="&#xcd;" horiz-adv-x="459" 
d="M421 105v-105h-383v105h128v515h-128v105h383v-105h-128v-515h128zM269 886h153l-155 -113h-104z" />
    <glyph glyph-name="Icircumflex" unicode="&#xce;" horiz-adv-x="459" 
d="M179 886h105l135 -113h-122l-67 52l-68 -52h-121zM421 105v-105h-383v105h128v515h-128v105h383v-105h-128v-515h128z" />
    <glyph glyph-name="Idieresis" unicode="&#xcf;" horiz-adv-x="459" 
d="M59 776v107h105v-107h-105zM295 776v107h105v-107h-105zM421 105v-105h-383v105h128v515h-128v105h383v-105h-128v-515h128z" />
    <glyph glyph-name="Eth" unicode="&#xd0;" horiz-adv-x="748" 
d="M299 725q190 0 299.5 -82t109.5 -280q0 -199 -109.5 -281t-299.5 -82h-199v316h-82v102h82v307h199zM303 621h-76v-203h180v-102h-180v-212h76q82 0 141 19t96.5 76t37.5 164t-37.5 163.5t-96.5 75.5t-141 19z" />
    <glyph glyph-name="Ntilde" unicode="&#xd1;" horiz-adv-x="749" 
d="M675 725v-725h-172l-306 579v-579h-122v725h171l307 -579v579h122zM504 890h84q-11 -67 -47.5 -94t-80.5 -27q-23 0 -40 6.5t-38 18.5q-17 10 -27.5 14.5t-22.5 4.5q-41 0 -47 -43h-85q11 65 48 93t80 28q23 0 38.5 -6.5t36.5 -18.5q17 -10 28 -14.5t24 -4.5q41 0 49 43z
" />
    <glyph glyph-name="Ograve" unicode="&#xd2;" horiz-adv-x="774" 
d="M387 -13q-105 0 -184 47.5t-122 132.5t-43 196t43 196t122 132t184 47t184 -47t122 -132t43 -196t-43 -196t-122 -132.5t-184 -47.5zM387 90q61 0 110.5 32t78.5 93.5t29 147.5t-29 147.5t-78.5 93t-110.5 31.5q-62 0 -111.5 -31.5t-78.5 -93t-29 -147.5t29 -147.5
t79 -93.5t111 -32zM440 773h-104l-155 113h153z" />
    <glyph glyph-name="Oacute" unicode="&#xd3;" horiz-adv-x="774" 
d="M387 -13q-105 0 -184 47.5t-122 132.5t-43 196t43 196t122 132t184 47t184 -47t122 -132t43 -196t-43 -196t-122 -132.5t-184 -47.5zM387 90q61 0 110.5 32t78.5 93.5t29 147.5t-29 147.5t-78.5 93t-110.5 31.5q-62 0 -111.5 -31.5t-78.5 -93t-29 -147.5t29 -147.5
t79 -93.5t111 -32zM441 886h153l-155 -113h-104z" />
    <glyph glyph-name="Ocircumflex" unicode="&#xd4;" horiz-adv-x="774" 
d="M387 -13q-105 0 -184 47.5t-122 132.5t-43 196t43 196t122 132t184 47t184 -47t122 -132t43 -196t-43 -196t-122 -132.5t-184 -47.5zM387 90q61 0 110.5 32t78.5 93.5t29 147.5t-29 147.5t-78.5 93t-110.5 31.5q-62 0 -111.5 -31.5t-78.5 -93t-29 -147.5t29 -147.5
t79 -93.5t111 -32zM336 886h105l135 -113h-122l-67 52l-68 -52h-121z" />
    <glyph glyph-name="Otilde" unicode="&#xd5;" horiz-adv-x="774" 
d="M387 -13q-105 0 -184 47.5t-122 132.5t-43 196t43 196t122 132t184 47t184 -47t122 -132t43 -196t-43 -196t-122 -132.5t-184 -47.5zM387 90q61 0 110.5 32t78.5 93.5t29 147.5t-29 147.5t-78.5 93t-110.5 31.5q-62 0 -111.5 -31.5t-78.5 -93t-29 -147.5t29 -147.5
t79 -93.5t111 -32zM497 890h84q-11 -67 -47.5 -94t-80.5 -27q-23 0 -40 6.5t-38 18.5q-17 10 -27.5 14.5t-22.5 4.5q-41 0 -47 -43h-85q11 65 48 93t80 28q23 0 38.5 -6.5t36.5 -18.5q17 -10 28 -14.5t24 -4.5q41 0 49 43z" />
    <glyph glyph-name="Odieresis" unicode="&#xd6;" horiz-adv-x="774" 
d="M387 -13q-105 0 -184 47.5t-122 132.5t-43 196t43 196t122 132t184 47t184 -47t122 -132t43 -196t-43 -196t-122 -132.5t-184 -47.5zM387 90q61 0 110.5 32t78.5 93.5t29 147.5t-29 147.5t-78.5 93t-110.5 31.5q-62 0 -111.5 -31.5t-78.5 -93t-29 -147.5t29 -147.5
t79 -93.5t111 -32zM217 776v107h105v-107h-105zM453 776v107h105v-107h-105z" />
    <glyph glyph-name="multiply" unicode="&#xd7;" 
d="M409 274l165 -165l-73 -73l-166 166l-162 -164l-68 66l163 164l-164 165l73 72l165 -164l163 165l67 -68z" />
    <glyph glyph-name="Oslash" unicode="&#xd8;" horiz-adv-x="782" 
d="M749 683l-76 -83q67 -98 67 -237q0 -111 -43 -196t-122 -132.5t-184 -47.5q-127 0 -215 68l-71 -78l-72 65l76 84q-33 47 -50 107.5t-17 129.5q0 111 43 196t122 132t184 47q126 0 215 -68l72 78zM199 223l329 361q-57 51 -137 51q-61 0 -110.5 -31.5t-78.5 -93
t-29 -147.5q0 -80 26 -140zM584 503l-329 -361q28 -25 63 -38.5t73 -13.5q61 0 111 32t79 93.5t29 147.5q0 80 -26 140z" />
    <glyph glyph-name="Ugrave" unicode="&#xd9;" horiz-adv-x="728" 
d="M68 725h126v-428q0 -106 37 -156t133 -50t133 52t37 159v423h126v-420q0 -115 -30 -184.5t-94.5 -101.5t-171.5 -32q-106 0 -170.5 30.5t-95 99t-30.5 185.5v423zM417 773h-104l-155 113h153z" />
    <glyph glyph-name="Uacute" unicode="&#xda;" horiz-adv-x="728" 
d="M68 725h126v-428q0 -106 37 -156t133 -50t133 52t37 159v423h126v-420q0 -115 -30 -184.5t-94.5 -101.5t-171.5 -32q-106 0 -170.5 30.5t-95 99t-30.5 185.5v423zM414 886h153l-155 -113h-104z" />
    <glyph glyph-name="Ucircumflex" unicode="&#xdb;" horiz-adv-x="728" 
d="M68 725h126v-428q0 -106 37 -156t133 -50t133 52t37 159v423h126v-420q0 -115 -30 -184.5t-94.5 -101.5t-171.5 -32q-106 0 -170.5 30.5t-95 99t-30.5 185.5v423zM313 886h105l135 -113h-122l-67 52l-68 -52h-121z" />
    <glyph glyph-name="Udieresis" unicode="&#xdc;" horiz-adv-x="728" 
d="M68 725h126v-428q0 -106 37 -156t133 -50t133 52t37 159v423h126v-420q0 -115 -30 -184.5t-94.5 -101.5t-171.5 -32q-106 0 -170.5 30.5t-95 99t-30.5 185.5v423zM194 776v107h105v-107h-105zM430 776v107h105v-107h-105z" />
    <glyph glyph-name="Yacute" unicode="&#xdd;" horiz-adv-x="642" 
d="M256 282l-259 443h145l181 -323l184 323h143l-267 -445v-280h-127v282zM370 886h153l-155 -113h-104z" />
    <glyph glyph-name="Thorn" unicode="&#xde;" horiz-adv-x="649" 
d="M309 598q90 0 156.5 -16.5t108.5 -66.5t42 -143q0 -126 -81.5 -175t-223.5 -49h-110v-148h-126v725h126v-127h108zM201 494v-242h114q51 0 87.5 8t60 34.5t23.5 77.5q0 52 -24 79t-61.5 35t-91.5 8h-108z" />
    <glyph glyph-name="germandbls" unicode="&#xdf;" horiz-adv-x="641" 
d="M185 0h-119v502q0 71 15 116t44 74q67 70 205 70q104 0 170.5 -49t66.5 -136q0 -55 -25.5 -95.5t-65.5 -57.5q59 -19 96.5 -69.5t37.5 -129.5q0 -76 -34.5 -129.5t-95 -81t-135.5 -27.5q-63 0 -115 12l21 101q20 -7 45.5 -11t47.5 -4q62 0 102.5 37t40.5 102
q0 72 -49.5 105.5t-137.5 33.5h-18v100h15q73 0 112 26.5t39 77.5q0 45 -32 72.5t-88 27.5q-79 0 -114 -44q-14 -18 -21.5 -46.5t-7.5 -75.5v-501z" />
    <glyph glyph-name="agrave" unicode="&#xe0;" horiz-adv-x="548" 
d="M372 347q-4 58 -37.5 80t-89.5 22q-47 0 -91 -15t-77 -38v105q37 21 89.5 34.5t100.5 13.5q113 0 167.5 -51.5t54.5 -163.5l-2 -146q0 -54 1 -91.5t5 -96.5h-111v83q-49 -96 -176 -96q-48 0 -89.5 20t-66 57t-24.5 85q0 88 86 133.5t260 64.5zM379 263v6
q-232 -14 -232 -111q0 -37 24 -61t67 -24q58 0 99.5 45t41.5 145zM326 639h-92l-142 116h141z" />
    <glyph glyph-name="aacute" unicode="&#xe1;" horiz-adv-x="548" 
d="M372 347q-4 58 -37.5 80t-89.5 22q-47 0 -91 -15t-77 -38v105q37 21 89.5 34.5t100.5 13.5q113 0 167.5 -51.5t54.5 -163.5l-2 -146q0 -54 1 -91.5t5 -96.5h-111v83q-49 -96 -176 -96q-48 0 -89.5 20t-66 57t-24.5 85q0 88 86 133.5t260 64.5zM379 263v6
q-232 -14 -232 -111q0 -37 24 -61t67 -24q58 0 99.5 45t41.5 145zM329 755h141l-142 -116h-92z" />
    <glyph glyph-name="acircumflex" unicode="&#xe2;" horiz-adv-x="548" 
d="M372 347q-4 58 -37.5 80t-89.5 22q-47 0 -91 -15t-77 -38v105q37 21 89.5 34.5t100.5 13.5q113 0 167.5 -51.5t54.5 -163.5l-2 -146q0 -54 1 -91.5t5 -96.5h-111v83q-49 -96 -176 -96q-48 0 -89.5 20t-66 57t-24.5 85q0 88 86 133.5t260 64.5zM379 263v6
q-232 -14 -232 -111q0 -37 24 -61t67 -24q58 0 99.5 45t41.5 145zM244 755h95l140 -116h-111l-77 48l-77 -48h-111z" />
    <glyph glyph-name="atilde" unicode="&#xe3;" horiz-adv-x="548" 
d="M372 347q-4 58 -37.5 80t-89.5 22q-47 0 -91 -15t-77 -38v105q37 21 89.5 34.5t100.5 13.5q113 0 167.5 -51.5t54.5 -163.5l-2 -146q0 -54 1 -91.5t5 -96.5h-111v83q-49 -96 -176 -96q-48 0 -89.5 20t-66 57t-24.5 85q0 88 86 133.5t260 64.5zM379 263v6
q-232 -14 -232 -111q0 -37 24 -61t67 -24q58 0 99.5 45t41.5 145zM398 757h81q-10 -59 -43 -88t-80 -29q-23 0 -42.5 7t-40.5 20q-19 10 -30 14.5t-24 4.5q-40 0 -48 -44h-80q10 57 42 87t81 30q24 0 41.5 -6.5t37.5 -19.5q19 -10 30.5 -15t25.5 -5q41 0 49 44z" />
    <glyph glyph-name="adieresis" unicode="&#xe4;" horiz-adv-x="548" 
d="M372 347q-4 58 -37.5 80t-89.5 22q-47 0 -91 -15t-77 -38v105q37 21 89.5 34.5t100.5 13.5q113 0 167.5 -51.5t54.5 -163.5l-2 -146q0 -54 1 -91.5t5 -96.5h-111v83q-49 -96 -176 -96q-48 0 -89.5 20t-66 57t-24.5 85q0 88 86 133.5t260 64.5zM379 263v6
q-232 -14 -232 -111q0 -37 24 -61t67 -24q58 0 99.5 45t41.5 145zM223 646h-105v109h105v-109zM350 646v109h106v-109h-106z" />
    <glyph glyph-name="aring" unicode="&#xe5;" horiz-adv-x="548" 
d="M372 347q-4 58 -37.5 80t-89.5 22q-47 0 -91 -15t-77 -38v105q37 21 89.5 34.5t100.5 13.5q113 0 167.5 -51.5t54.5 -163.5l-2 -146q0 -54 1 -91.5t5 -96.5h-111v83q-49 -96 -176 -96q-48 0 -89.5 20t-66 57t-24.5 85q0 88 86 133.5t260 64.5zM379 263v6
q-232 -14 -232 -111q0 -37 24 -61t67 -24q58 0 99.5 45t41.5 145zM386 709q0 -40 -29 -66.5t-70 -26.5t-70 26.5t-29 66.5q0 41 29 67.5t70 26.5t70 -26.5t29 -67.5zM244 709q0 -18 12.5 -30t30.5 -12t31 12t13 30t-13 30.5t-31 12.5t-30.5 -12.5t-12.5 -30.5z" />
    <glyph glyph-name="ae" unicode="&#xe6;" horiz-adv-x="888" 
d="M77 396v105q37 21 89.5 34.5t100.5 13.5q69 0 112.5 -18t68.5 -56q65 75 171 75q119 0 180.5 -85t57.5 -227h-373q7 -74 54.5 -113t119.5 -39q80 0 162 47v-106q-32 -16 -78.5 -28t-100.5 -12q-81 0 -134 29t-85 84q-28 -56 -84.5 -84.5t-126.5 -28.5q-51 0 -93.5 20
t-67 56.5t-24.5 85.5q0 88 86 133.5t260 64.5q-4 58 -37.5 80t-89.5 22q-47 0 -91 -15t-77 -38zM482 320h256q-3 71 -37.5 105t-88.5 34q-51 0 -88.5 -32.5t-41.5 -106.5zM379 263v6q-115 -7 -173.5 -34t-58.5 -77q0 -37 24 -61t67 -24q58 0 99.5 45t41.5 145z" />
    <glyph glyph-name="ccedilla" unicode="&#xe7;" horiz-adv-x="463" 
d="M320 86q50 0 110 25v-101q-23 -10 -57.5 -16.5t-64.5 -6.5q-88 0 -150 37t-94 101t-32 143q0 78 33 142t96 101.5t147 37.5q30 0 62.5 -4t52.5 -12v-103q-44 19 -103 19q-73 0 -119 -46t-46 -135q0 -90 46 -136t119 -46zM195 -135q30 -14 60 -14q25 0 40.5 8.5t15.5 23.5
q0 14 -11.5 21t-30.5 7q-25 0 -38 -9l-30 17l51 83h55l-33 -51q20 3 34 3q36 0 58.5 -18t22.5 -50q0 -38 -35 -60.5t-82 -22.5q-53 0 -94 18z" />
    <glyph glyph-name="egrave" unicode="&#xe8;" horiz-adv-x="557" 
d="M153 238q8 -74 55 -113t118 -39q80 0 164 47v-106q-33 -16 -80 -28t-102 -12q-87 0 -149.5 37.5t-94.5 101.5t-32 144q0 81 33 144.5t91.5 99.5t131.5 36q120 0 181.5 -85t57.5 -227h-374zM151 320h256q-2 71 -37 105t-88 34q-50 0 -88 -32.5t-43 -106.5zM338 639h-92
l-142 116h141z" />
    <glyph glyph-name="eacute" unicode="&#xe9;" horiz-adv-x="557" 
d="M153 238q8 -74 55 -113t118 -39q80 0 164 47v-106q-33 -16 -80 -28t-102 -12q-87 0 -149.5 37.5t-94.5 101.5t-32 144q0 81 33 144.5t91.5 99.5t131.5 36q120 0 181.5 -85t57.5 -227h-374zM151 320h256q-2 71 -37 105t-88 34q-50 0 -88 -32.5t-43 -106.5zM339 755h141
l-142 -116h-92z" />
    <glyph glyph-name="ecircumflex" unicode="&#xea;" horiz-adv-x="557" 
d="M153 238q8 -74 55 -113t118 -39q80 0 164 47v-106q-33 -16 -80 -28t-102 -12q-87 0 -149.5 37.5t-94.5 101.5t-32 144q0 81 33 144.5t91.5 99.5t131.5 36q120 0 181.5 -85t57.5 -227h-374zM151 320h256q-2 71 -37 105t-88 34q-50 0 -88 -32.5t-43 -106.5zM248 755h95
l140 -116h-111l-77 48l-77 -48h-111z" />
    <glyph glyph-name="edieresis" unicode="&#xeb;" horiz-adv-x="557" 
d="M153 238q8 -74 55 -113t118 -39q80 0 164 47v-106q-33 -16 -80 -28t-102 -12q-87 0 -149.5 37.5t-94.5 101.5t-32 144q0 81 33 144.5t91.5 99.5t131.5 36q120 0 181.5 -85t57.5 -227h-374zM151 320h256q-2 71 -37 105t-88 34q-50 0 -88 -32.5t-43 -106.5zM229 646h-105
v109h105v-109zM356 646v109h106v-109h-106z" />
    <glyph glyph-name="igrave" unicode="&#xec;" horiz-adv-x="251" 
d="M66 0v538h119v-538h-119zM173 639h-92l-142 116h141z" />
    <glyph glyph-name="iacute" unicode="&#xed;" horiz-adv-x="251" 
d="M66 0v538h119v-538h-119zM173 755h141l-142 -116h-92z" />
    <glyph glyph-name="icircumflex" unicode="&#xee;" horiz-adv-x="251" 
d="M78 755h95l129 -116h-111l-66 48l-66 -48h-111zM66 0v538h119v-538h-119z" />
    <glyph glyph-name="idieresis" unicode="&#xef;" horiz-adv-x="251" 
d="M66 0v538h119v-538h-119zM63 646h-105v109h105v-109zM190 646v109h106v-109h-106z" />
    <glyph glyph-name="eth" unicode="&#xf0;" horiz-adv-x="589" 
d="M373 674q82 -63 130.5 -152.5t48.5 -208.5q0 -161 -71 -243.5t-195 -82.5q-74 0 -131.5 33.5t-89.5 96.5t-32 149t30.5 150t84 98.5t119.5 34.5q51 0 92.5 -23t63.5 -58l1 1q-33 82 -136 153l-84 -51l-26 43l62 38q-33 19 -76 37l50 73q66 -27 113 -56l74 45l26 -44z
M429 268q0 89 -37.5 137t-99.5 48q-65 0 -100 -48.5t-35 -136.5t35 -136.5t100 -48.5q63 0 100 48t37 137z" />
    <glyph glyph-name="ntilde" unicode="&#xf1;" horiz-adv-x="591" 
d="M185 463q24 41 65.5 63.5t97.5 22.5q183 0 183 -210v-339h-119v311q0 66 -21.5 103t-81.5 37q-64 0 -94 -44.5t-30 -121.5v-285h-119v538h119v-75zM421 757h81q-10 -59 -43 -88t-80 -29q-23 0 -42.5 7t-40.5 20q-19 10 -30 14.5t-24 4.5q-40 0 -48 -44h-80q10 57 42 87
t81 30q24 0 41.5 -6.5t37.5 -19.5q19 -10 30.5 -15t25.5 -5q41 0 49 44z" />
    <glyph glyph-name="ograve" unicode="&#xf2;" horiz-adv-x="590" 
d="M295 549q71 0 130.5 -31.5t95.5 -94.5t36 -155t-36 -155.5t-95.5 -94.5t-130.5 -31t-130.5 31t-95.5 94.5t-36 155.5t36 155t95.5 94.5t130.5 31.5zM295 84q64 0 101.5 47t37.5 137q0 91 -37.5 137.5t-101.5 46.5t-101.5 -46.5t-37.5 -137.5t37.5 -137.5t101.5 -46.5z
M341 639h-92l-142 116h141z" />
    <glyph glyph-name="oacute" unicode="&#xf3;" horiz-adv-x="590" 
d="M295 549q71 0 130.5 -31.5t95.5 -94.5t36 -155t-36 -155.5t-95.5 -94.5t-130.5 -31t-130.5 31t-95.5 94.5t-36 155.5t36 155t95.5 94.5t130.5 31.5zM295 84q64 0 101.5 47t37.5 137q0 91 -37.5 137.5t-101.5 46.5t-101.5 -46.5t-37.5 -137.5t37.5 -137.5t101.5 -46.5z
M342 755h141l-142 -116h-92z" />
    <glyph glyph-name="ocircumflex" unicode="&#xf4;" horiz-adv-x="590" 
d="M295 549q71 0 130.5 -31.5t95.5 -94.5t36 -155t-36 -155.5t-95.5 -94.5t-130.5 -31t-130.5 31t-95.5 94.5t-36 155.5t36 155t95.5 94.5t130.5 31.5zM295 84q64 0 101.5 47t37.5 137q0 91 -37.5 137.5t-101.5 46.5t-101.5 -46.5t-37.5 -137.5t37.5 -137.5t101.5 -46.5z
M247 755h95l140 -116h-111l-77 48l-77 -48h-111z" />
    <glyph glyph-name="otilde" unicode="&#xf5;" horiz-adv-x="590" 
d="M295 549q71 0 130.5 -31.5t95.5 -94.5t36 -155t-36 -155.5t-95.5 -94.5t-130.5 -31t-130.5 31t-95.5 94.5t-36 155.5t36 155t95.5 94.5t130.5 31.5zM295 84q64 0 101.5 47t37.5 137q0 91 -37.5 137.5t-101.5 46.5t-101.5 -46.5t-37.5 -137.5t37.5 -137.5t101.5 -46.5z
M407 757h81q-10 -59 -43 -88t-80 -29q-23 0 -42.5 7t-40.5 20q-19 10 -30 14.5t-24 4.5q-40 0 -48 -44h-80q10 57 42 87t81 30q24 0 41.5 -6.5t37.5 -19.5q19 -10 30.5 -15t25.5 -5q41 0 49 44z" />
    <glyph glyph-name="odieresis" unicode="&#xf6;" horiz-adv-x="590" 
d="M295 549q71 0 130.5 -31.5t95.5 -94.5t36 -155t-36 -155.5t-95.5 -94.5t-130.5 -31t-130.5 31t-95.5 94.5t-36 155.5t36 155t95.5 94.5t130.5 31.5zM295 84q64 0 101.5 47t37.5 137q0 91 -37.5 137.5t-101.5 46.5t-101.5 -46.5t-37.5 -137.5t37.5 -137.5t101.5 -46.5z
M231 646h-105v109h105v-109zM358 646v109h106v-109h-106z" />
    <glyph glyph-name="divide" unicode="&#xf7;" 
d="M407 397h-134v130h134v-130zM614 322v-106h-550v106h550zM407 11h-134v130h134v-130z" />
    <glyph glyph-name="oslash" unicode="&#xf8;" horiz-adv-x="600" 
d="M566 512l-56 -64q52 -73 52 -180q0 -92 -36 -155.5t-95.5 -94.5t-130.5 -31q-87 0 -152 44l-52 -60l-62 53l56 64q-52 73 -52 180q0 91 36.5 154.5t96 95t129.5 31.5q85 0 152 -44l52 60zM172 183l211 242q-34 27 -83 27q-64 0 -101.5 -46.5t-37.5 -137.5q0 -47 11 -85z
M429 354l-211 -243q33 -27 82 -27q64 0 102 47t38 137q0 48 -11 86z" />
    <glyph glyph-name="ugrave" unicode="&#xf9;" horiz-adv-x="585" 
d="M400 73q-24 -40 -65.5 -63t-96.5 -23q-177 0 -177 209v342h119v-313q0 -68 19.5 -104t78.5 -36q64 0 93 44.5t29 122.5v286h119v-538h-119v73zM357 639h-92l-142 116h141z" />
    <glyph glyph-name="uacute" unicode="&#xfa;" horiz-adv-x="585" 
d="M400 73q-24 -40 -65.5 -63t-96.5 -23q-177 0 -177 209v342h119v-313q0 -68 19.5 -104t78.5 -36q64 0 93 44.5t29 122.5v286h119v-538h-119v73zM338 755h141l-142 -116h-92z" />
    <glyph glyph-name="ucircumflex" unicode="&#xfb;" horiz-adv-x="585" 
d="M400 73q-24 -40 -65.5 -63t-96.5 -23q-177 0 -177 209v342h119v-313q0 -68 19.5 -104t78.5 -36q64 0 93 44.5t29 122.5v286h119v-538h-119v73zM244 755h95l140 -116h-111l-77 48l-77 -48h-111z" />
    <glyph glyph-name="udieresis" unicode="&#xfc;" horiz-adv-x="585" 
d="M400 73q-24 -40 -65.5 -63t-96.5 -23q-177 0 -177 209v342h119v-313q0 -68 19.5 -104t78.5 -36q64 0 93 44.5t29 122.5v286h119v-538h-119v73zM228 646h-105v109h105v-109zM355 646v109h106v-109h-106z" />
    <glyph glyph-name="yacute" unicode="&#xfd;" horiz-adv-x="520" 
d="M519 538l-278 -733h-115l77 203l-202 530h131l132 -398l133 398h122zM310 755h141l-142 -116h-92z" />
    <glyph glyph-name="thorn" unicode="&#xfe;" horiz-adv-x="611" 
d="M66 755h119v-292q24 40 65.5 63t96.5 23q65 0 117.5 -34.5t82.5 -98.5t30 -148q0 -85 -30 -148.5t-82.5 -98t-117.5 -34.5q-52 0 -94.5 22t-67.5 64v-268h-119v950zM319 82q63 0 97.5 49.5t34.5 136.5q0 86 -35 136t-97 50q-61 0 -99.5 -48.5t-38.5 -137.5t38.5 -137.5
t99.5 -48.5z" />
    <glyph glyph-name="ydieresis" unicode="&#xff;" horiz-adv-x="520" 
d="M519 538l-278 -733h-115l77 203l-202 530h131l132 -398l133 398h122zM210 646h-105v109h105v-109zM337 646v109h106v-109h-106z" />
    <glyph glyph-name="Abreve" unicode="&#x102;" horiz-adv-x="670" 
d="M673 0h-137l-68 193h-273l-68 -193h-129l270 725h133zM331 579l-99 -281h198zM500 886q-12 -118 -166 -118q-74 0 -116 30t-47 88h89q4 -26 22 -38.5t53 -12.5q69 0 76 51h89z" />
    <glyph glyph-name="Amacron" unicode="&#x100;" horiz-adv-x="670" 
d="M673 0h-137l-68 193h-273l-68 -193h-129l270 725h133zM331 579l-99 -281h198zM490 871v-85h-308v85h308z" />
    <glyph glyph-name="Aogonek" unicode="&#x104;" horiz-adv-x="670" 
d="M628 -114q20 0 45 9v-74q-33 -9 -68 -9q-54 0 -91 22.5t-37 70.5q0 54 59 95l-68 193h-273l-68 -193h-129l270 725h133l272 -725q-46 -22 -68.5 -39t-22.5 -36q0 -20 12.5 -29.5t33.5 -9.5zM331 579l-99 -281h198z" />
    <glyph glyph-name="Cacute" unicode="&#x106;" horiz-adv-x="637" 
d="M417 95q90 0 182 46v-116q-40 -17 -91.5 -27.5t-102.5 -10.5q-115 0 -198 48.5t-126.5 133.5t-43.5 193q0 117 49 202t133 129.5t186 44.5q54 0 106 -9t88 -27v-116q-88 44 -182 44q-71 0 -127 -29.5t-89 -89.5t-33 -149t33 -149t89 -89t127 -29zM431 886h153l-155 -113
h-104z" />
    <glyph glyph-name="Ccaron" unicode="&#x10c;" horiz-adv-x="637" 
d="M417 95q90 0 182 46v-116q-40 -17 -91.5 -27.5t-102.5 -10.5q-115 0 -198 48.5t-126.5 133.5t-43.5 193q0 117 49 202t133 129.5t186 44.5q54 0 106 -9t88 -27v-116q-88 44 -182 44q-71 0 -127 -29.5t-89 -89.5t-33 -149t33 -149t89 -89t127 -29zM443 773h-105l-135 113
h121l67 -52l69 52h121z" />
    <glyph glyph-name="Ccircumflex" unicode="&#x108;" horiz-adv-x="637" 
d="M417 95q90 0 182 46v-116q-40 -17 -91.5 -27.5t-102.5 -10.5q-115 0 -198 48.5t-126.5 133.5t-43.5 193q0 117 49 202t133 129.5t186 44.5q54 0 106 -9t88 -27v-116q-88 44 -182 44q-71 0 -127 -29.5t-89 -89.5t-33 -149t33 -149t89 -89t127 -29zM333 886h105l135 -113
h-122l-67 52l-68 -52h-121z" />
    <glyph glyph-name="Cdotaccent" unicode="&#x10a;" horiz-adv-x="637" 
d="M417 95q90 0 182 46v-116q-40 -17 -91.5 -27.5t-102.5 -10.5q-115 0 -198 48.5t-126.5 133.5t-43.5 193q0 117 49 202t133 129.5t186 44.5q54 0 106 -9t88 -27v-116q-88 44 -182 44q-71 0 -127 -29.5t-89 -89.5t-33 -149t33 -149t89 -89t127 -29zM336 776v108h122v-108
h-122z" />
    <glyph glyph-name="Dcaron" unicode="&#x10e;" horiz-adv-x="723" 
d="M273 725q191 0 300.5 -82t109.5 -280q0 -199 -109.5 -281t-300.5 -82h-198v725h198zM278 621h-77v-517h77q81 0 140 19t96.5 76t37.5 164t-37.5 163.5t-96.5 75.5t-140 19zM403 773h-105l-135 113h121l67 -52l69 52h121z" />
    <glyph glyph-name="Dcroat" unicode="&#x110;" horiz-adv-x="748" 
d="M299 725q190 0 299.5 -82t109.5 -280q0 -199 -109.5 -281t-299.5 -82h-199v316h-82v102h82v307h199zM303 621h-76v-203h180v-102h-180v-212h76q82 0 141 19t96.5 76t37.5 164t-37.5 163.5t-96.5 75.5t-141 19z" />
    <glyph glyph-name="Ebreve" unicode="&#x114;" horiz-adv-x="581" 
d="M534 0h-459v725h459v-105h-333v-196h312v-105h-312v-214h333v-105zM485 886q-12 -118 -166 -118q-74 0 -116 30t-47 88h89q4 -26 22 -38.5t53 -12.5q69 0 76 51h89z" />
    <glyph glyph-name="Ecaron" unicode="&#x11a;" horiz-adv-x="581" 
d="M534 0h-459v725h459v-105h-333v-196h312v-105h-312v-214h333v-105zM371 773h-105l-135 113h121l67 -52l69 52h121z" />
    <glyph glyph-name="Emacron" unicode="&#x112;" horiz-adv-x="581" 
d="M534 0h-459v725h459v-105h-333v-196h312v-105h-312v-214h333v-105zM468 871v-85h-308v85h308z" />
    <glyph glyph-name="Eogonek" unicode="&#x118;" horiz-adv-x="581" 
d="M75 0v725h459v-105h-333v-196h312v-105h-312v-214h333v-105q-44 -22 -67.5 -39.5t-23.5 -35.5q0 -20 13 -29.5t33 -9.5q22 0 45 9v-74q-33 -9 -68 -9q-54 0 -90.5 23t-36.5 70q0 28 18 52.5t51 42.5h-333z" />
    <glyph glyph-name="Edotaccent" unicode="&#x116;" horiz-adv-x="581" 
d="M534 0h-459v725h459v-105h-333v-196h312v-105h-312v-214h333v-105zM258 776v108h122v-108h-122z" />
    <glyph glyph-name="Gbreve" unicode="&#x11e;" horiz-adv-x="720" 
d="M673 38q-61 -24 -129 -37.5t-130 -13.5q-114 0 -199 46t-131.5 130.5t-46.5 198.5q0 117 52.5 202t142.5 129.5t201 44.5q55 0 110.5 -9t90.5 -27v-116q-39 20 -92.5 32t-110.5 12q-74 0 -133.5 -29.5t-94.5 -89.5t-35 -149q0 -136 71.5 -202t183.5 -66q66 0 133 19v179
h-185v105h302v-359zM567 886q-12 -118 -166 -118q-74 0 -116 30t-47 88h89q4 -26 22 -38.5t53 -12.5q69 0 76 51h89z" />
    <glyph glyph-name="Gcircumflex" unicode="&#x11c;" horiz-adv-x="720" 
d="M673 38q-61 -24 -129 -37.5t-130 -13.5q-114 0 -199 46t-131.5 130.5t-46.5 198.5q0 117 52.5 202t142.5 129.5t201 44.5q55 0 110.5 -9t90.5 -27v-116q-39 20 -92.5 32t-110.5 12q-74 0 -133.5 -29.5t-94.5 -89.5t-35 -149q0 -136 71.5 -202t183.5 -66q66 0 133 19v179
h-185v105h302v-359zM350 886h105l135 -113h-122l-67 52l-68 -52h-121z" />
    <glyph glyph-name="uni0122" unicode="&#x122;" horiz-adv-x="720" 
d="M673 38q-61 -24 -129 -37.5t-130 -13.5q-114 0 -199 46t-131.5 130.5t-46.5 198.5q0 117 52.5 202t142.5 129.5t201 44.5q55 0 110.5 -9t90.5 -27v-116q-39 20 -92.5 32t-110.5 12q-74 0 -133.5 -29.5t-94.5 -89.5t-35 -149q0 -136 71.5 -202t183.5 -66q66 0 133 19v179
h-185v105h302v-359zM397 -132h-36v96h102v-102l-44 -89h-61z" />
    <glyph glyph-name="Gdotaccent" unicode="&#x120;" horiz-adv-x="720" 
d="M673 38q-61 -24 -129 -37.5t-130 -13.5q-114 0 -199 46t-131.5 130.5t-46.5 198.5q0 117 52.5 202t142.5 129.5t201 44.5q55 0 110.5 -9t90.5 -27v-116q-39 20 -92.5 32t-110.5 12q-74 0 -133.5 -29.5t-94.5 -89.5t-35 -149q0 -136 71.5 -202t183.5 -66q66 0 133 19v179
h-185v105h302v-359zM342 776v108h122v-108h-122z" />
    <glyph glyph-name="Hbar" unicode="&#x126;" horiz-adv-x="775" 
d="M558 618v107h127v-107h69v-101h-69v-517h-127v319h-341v-319h-127v517h-69v101h69v107h127v-107h341zM217 517v-93h341v93h-341z" />
    <glyph glyph-name="Hcircumflex" unicode="&#x124;" horiz-adv-x="744" 
d="M543 424v301h126v-725h-126v319h-342v-319h-126v725h126v-301h342zM324 886h105l135 -113h-122l-67 52l-68 -52h-121z" />
    <glyph glyph-name="Ibreve" unicode="&#x12c;" horiz-adv-x="459" 
d="M394 886q-12 -118 -166 -118q-74 0 -116 30t-47 88h89q4 -26 22 -38.5t53 -12.5q69 0 76 51h89zM421 105v-105h-383v105h128v515h-128v105h383v-105h-128v-515h128z" />
    <glyph glyph-name="Idotaccent" unicode="&#x130;" horiz-adv-x="459" 
d="M421 105v-105h-383v105h128v515h-128v105h383v-105h-128v-515h128zM168 776v108h122v-108h-122z" />
    <glyph glyph-name="Imacron" unicode="&#x12a;" horiz-adv-x="459" 
d="M384 871v-85h-308v85h308zM421 105v-105h-383v105h128v515h-128v105h383v-105h-128v-515h128z" />
    <glyph glyph-name="Iogonek" unicode="&#x12e;" horiz-adv-x="459" 
d="M38 0v105h128v515h-128v105h383v-105h-128v-515h128v-105h-128q-44 -22 -67.5 -39.5t-23.5 -35.5q0 -20 13 -29.5t33 -9.5q22 0 45 9v-74q-33 -9 -68 -9q-54 0 -90.5 23t-36.5 70q0 28 18 52.5t51 42.5h-129z" />
    <glyph glyph-name="Itilde" unicode="&#x128;" horiz-adv-x="459" 
d="M340 890h84q-11 -67 -47.5 -94t-80.5 -27q-23 0 -40 6.5t-38 18.5q-17 10 -27.5 14.5t-22.5 4.5q-41 0 -47 -43h-85q11 65 48 93t80 28q23 0 38.5 -6.5t36.5 -18.5q17 -10 28 -14.5t24 -4.5q41 0 49 43zM421 105v-105h-383v105h128v515h-128v105h383v-105h-128v-515h128z
" />
    <glyph glyph-name="uni1ECA" unicode="&#x1eca;" horiz-adv-x="459" 
d="M177 -175v104h105v-104h-105zM421 105v-105h-383v105h128v515h-128v105h383v-105h-128v-515h128z" />
    <glyph glyph-name="Jcircumflex" unicode="&#x134;" horiz-adv-x="379" 
d="M167 886h105l128 -113h-121l-60 52l-63 -52h-120zM27 -1l12 111q39 -13 73 -13q39 0 54.5 23.5t15.5 74.5v425h-130v105h256v-532q0 -102 -46.5 -154t-135.5 -52q-46 0 -99 12z" />
    <glyph glyph-name="uni0136" unicode="&#x136;" horiz-adv-x="656" 
d="M75 725h126v-357l290 357h143l-302 -364l346 -361h-171l-306 319v-319h-126v725zM337 -132h-36v96h102v-102l-44 -89h-61z" />
    <glyph glyph-name="Lacute" unicode="&#x139;" horiz-adv-x="521" 
d="M75 725h126v-620h299v-105h-425v725zM185 886h153l-155 -113h-104z" />
    <glyph glyph-name="Lcaron" unicode="&#x13d;" horiz-adv-x="523" 
d="M75 725h126v-620h299v-105h-425v725zM318 726h117l-70 -170h-77z" />
    <glyph glyph-name="uni013B" unicode="&#x13b;" horiz-adv-x="521" 
d="M75 725h126v-620h299v-105h-425v725zM292 -132h-36v96h102v-102l-44 -89h-61z" />
    <glyph glyph-name="Ldot" unicode="&#x13f;" horiz-adv-x="522" 
d="M75 725h126v-620h299v-105h-425v725zM338 352v108h122v-108h-122z" />
    <glyph glyph-name="Lslash" unicode="&#x141;" horiz-adv-x="566" 
d="M118 725h127v-278l183 120v-112l-183 -120v-230h299v-105h-426v254l-86 -57v112l86 57v359z" />
    <glyph glyph-name="Eng" unicode="&#x14a;" horiz-adv-x="749" 
d="M549 0l-352 584v-584h-122v725h173l305 -503v503h122v-727q0 -95 -47.5 -141t-129.5 -46q-39 0 -73 13v103q25 -10 51 -10q31 0 52 16.5t21 47.5v19z" />
    <glyph glyph-name="Nacute" unicode="&#x143;" horiz-adv-x="749" 
d="M675 725v-725h-172l-306 579v-579h-122v725h171l307 -579v579h122zM429 886h153l-155 -113h-104z" />
    <glyph glyph-name="Ncaron" unicode="&#x147;" horiz-adv-x="749" 
d="M675 725v-725h-172l-306 579v-579h-122v725h171l307 -579v579h122zM447 773h-105l-135 113h121l67 -52l69 52h121z" />
    <glyph glyph-name="uni0145" unicode="&#x145;" horiz-adv-x="749" 
d="M675 725v-725h-172l-306 579v-579h-122v725h171l307 -579v579h122zM361 -132h-36v96h102v-102l-44 -89h-61z" />
    <glyph glyph-name="OE" unicode="&#x152;" horiz-adv-x="1092" 
d="M603 76q-81 -89 -218 -89q-105 0 -183.5 47.5t-121 133t-42.5 197.5q0 111 42.5 195.5t121 131t183.5 46.5q136 0 218 -87v74h442v-105h-333v-196h312v-105h-312v-214h333v-105h-442v76zM385 635q-62 0 -111 -30.5t-77 -91.5t-28 -148t28.5 -149t77.5 -94t110 -32t110 32
t77.5 94t28.5 149t-28 148t-77 91.5t-111 30.5z" />
    <glyph glyph-name="Obreve" unicode="&#x14e;" horiz-adv-x="774" 
d="M387 -13q-105 0 -184 47.5t-122 132.5t-43 196t43 196t122 132t184 47t184 -47t122 -132t43 -196t-43 -196t-122 -132.5t-184 -47.5zM387 90q61 0 110.5 32t78.5 93.5t29 147.5t-29 147.5t-78.5 93t-110.5 31.5q-62 0 -111.5 -31.5t-78.5 -93t-29 -147.5t29 -147.5
t79 -93.5t111 -32zM552 886q-12 -118 -166 -118q-74 0 -116 30t-47 88h89q4 -26 22 -38.5t53 -12.5q69 0 76 51h89z" />
    <glyph glyph-name="Ohungarumlaut" unicode="&#x150;" horiz-adv-x="774" 
d="M387 -13q-105 0 -184 47.5t-122 132.5t-43 196t43 196t122 132t184 47t184 -47t122 -132t43 -196t-43 -196t-122 -132.5t-184 -47.5zM387 90q61 0 110.5 32t78.5 93.5t29 147.5t-29 147.5t-78.5 93t-110.5 31.5q-62 0 -111.5 -31.5t-78.5 -93t-29 -147.5t29 -147.5
t79 -93.5t111 -32zM351 886h153l-155 -113h-104zM532 886h153l-156 -113h-104z" />
    <glyph glyph-name="Omacron" unicode="&#x14c;" horiz-adv-x="774" 
d="M387 -13q-105 0 -184 47.5t-122 132.5t-43 196t43 196t122 132t184 47t184 -47t122 -132t43 -196t-43 -196t-122 -132.5t-184 -47.5zM387 90q61 0 110.5 32t78.5 93.5t29 147.5t-29 147.5t-78.5 93t-110.5 31.5q-62 0 -111.5 -31.5t-78.5 -93t-29 -147.5t29 -147.5
t79 -93.5t111 -32zM541 871v-85h-308v85h308z" />
    <glyph glyph-name="uni1ECC" unicode="&#x1ecc;" horiz-adv-x="774" 
d="M387 -13q-105 0 -184 47.5t-122 132.5t-43 196t43 196t122 132t184 47t184 -47t122 -132t43 -196t-43 -196t-122 -132.5t-184 -47.5zM387 90q61 0 110.5 32t78.5 93.5t29 147.5t-29 147.5t-78.5 93t-110.5 31.5q-62 0 -111.5 -31.5t-78.5 -93t-29 -147.5t29 -147.5
t79 -93.5t111 -32zM335 -175v104h105v-104h-105z" />
    <glyph glyph-name="Racute" unicode="&#x154;" horiz-adv-x="646" 
d="M75 0v725h214q154 0 228.5 -50t74.5 -161q0 -77 -42.5 -128t-128.5 -72l214 -314h-143l-203 301h-88v-301h-126zM201 621v-216h102q79 0 119 22.5t40 84.5q0 63 -41 86t-123 23h-97zM362 886h153l-155 -113h-104z" />
    <glyph glyph-name="Rcaron" unicode="&#x158;" horiz-adv-x="646" 
d="M75 0v725h214q154 0 228.5 -50t74.5 -161q0 -77 -42.5 -128t-128.5 -72l214 -314h-143l-203 301h-88v-301h-126zM201 621v-216h102q79 0 119 22.5t40 84.5q0 63 -41 86t-123 23h-97zM364 773h-105l-135 113h121l67 -52l69 52h121z" />
    <glyph glyph-name="uni0156" unicode="&#x156;" horiz-adv-x="646" 
d="M75 0v725h214q154 0 228.5 -50t74.5 -161q0 -77 -42.5 -128t-128.5 -72l214 -314h-143l-203 301h-88v-301h-126zM201 621v-216h102q79 0 119 22.5t40 84.5q0 63 -41 86t-123 23h-97zM321 -132h-36v96h102v-102l-44 -89h-61z" />
    <glyph glyph-name="Sacute" unicode="&#x15a;" horiz-adv-x="562" 
d="M49 26v121q45 -24 92 -37.5t107 -13.5q67 0 111 24.5t44 75.5q0 40 -29.5 64t-89.5 44l-60 20q-87 28 -135 81t-48 124q0 63 36.5 110.5t98.5 73t137 25.5q50 0 96.5 -7.5t78.5 -22.5v-114q-77 36 -176 36q-62 0 -103.5 -23t-41.5 -68q0 -67 108 -102l60 -20
q99 -32 148.5 -80.5t49.5 -129.5q0 -64 -37.5 -114.5t-101.5 -78t-141 -27.5q-120 0 -204 39zM347 886h153l-155 -113h-104z" />
    <glyph glyph-name="Scaron" unicode="&#x160;" horiz-adv-x="562" 
d="M49 26v121q45 -24 92 -37.5t107 -13.5q67 0 111 24.5t44 75.5q0 40 -29.5 64t-89.5 44l-60 20q-87 28 -135 81t-48 124q0 63 36.5 110.5t98.5 73t137 25.5q50 0 96.5 -7.5t78.5 -22.5v-114q-77 36 -176 36q-62 0 -103.5 -23t-41.5 -68q0 -67 108 -102l60 -20
q99 -32 148.5 -80.5t49.5 -129.5q0 -64 -37.5 -114.5t-101.5 -78t-141 -27.5q-120 0 -204 39zM350 773h-105l-135 113h121l67 -52l69 52h121z" />
    <glyph glyph-name="Scedilla" unicode="&#x15e;" horiz-adv-x="562" 
d="M49 26v121q45 -24 92 -37.5t107 -13.5q67 0 111 24.5t44 75.5q0 40 -29.5 64t-89.5 44l-60 20q-87 28 -135 81t-48 124q0 63 36.5 110.5t98.5 73t137 25.5q50 0 96.5 -7.5t78.5 -22.5v-114q-77 36 -176 36q-62 0 -103.5 -23t-41.5 -68q0 -67 108 -102l60 -20
q99 -32 148.5 -80.5t49.5 -129.5q0 -64 -37.5 -114.5t-101.5 -78t-141 -27.5q-120 0 -204 39zM209 -135q30 -14 60 -14q25 0 40.5 8.5t15.5 23.5q0 14 -11.5 21t-30.5 7q-25 0 -38 -9l-30 17l51 83h55l-33 -51q20 3 34 3q36 0 58.5 -18t22.5 -50q0 -38 -35 -60.5t-82 -22.5
q-53 0 -94 18z" />
    <glyph glyph-name="Scircumflex" unicode="&#x15c;" horiz-adv-x="562" 
d="M49 26v121q45 -24 92 -37.5t107 -13.5q67 0 111 24.5t44 75.5q0 40 -29.5 64t-89.5 44l-60 20q-87 28 -135 81t-48 124q0 63 36.5 110.5t98.5 73t137 25.5q50 0 96.5 -7.5t78.5 -22.5v-114q-77 36 -176 36q-62 0 -103.5 -23t-41.5 -68q0 -67 108 -102l60 -20
q99 -32 148.5 -80.5t49.5 -129.5q0 -64 -37.5 -114.5t-101.5 -78t-141 -27.5q-120 0 -204 39zM246 886h105l135 -113h-122l-67 52l-68 -52h-121z" />
    <glyph glyph-name="uni0218" unicode="&#x218;" horiz-adv-x="562" 
d="M49 26v121q45 -24 92 -37.5t107 -13.5q67 0 111 24.5t44 75.5q0 40 -29.5 64t-89.5 44l-60 20q-87 28 -135 81t-48 124q0 63 36.5 110.5t98.5 73t137 25.5q50 0 96.5 -7.5t78.5 -22.5v-114q-77 36 -176 36q-62 0 -103.5 -23t-41.5 -68q0 -67 108 -102l60 -20
q99 -32 148.5 -80.5t49.5 -129.5q0 -64 -37.5 -114.5t-101.5 -78t-141 -27.5q-120 0 -204 39zM260 -132h-36v96h102v-102l-44 -89h-61z" />
    <glyph glyph-name="Tbar" unicode="&#x166;" horiz-adv-x="641" 
d="M384 0h-127v316h-164v102h164v202h-225v105h576v-105h-224v-202h163v-102h-163v-316z" />
    <glyph glyph-name="Tcaron" unicode="&#x164;" horiz-adv-x="618" 
d="M372 0h-126v620h-225v105h576v-105h-225v-620zM364 773h-105l-135 113h121l67 -52l69 52h121z" />
    <glyph glyph-name="uni0162" unicode="&#x162;" horiz-adv-x="618" 
d="M372 0h-126v620h-225v105h576v-105h-225v-620zM294 -132h-36v96h102v-102l-44 -89h-61z" />
    <glyph glyph-name="uni021A" unicode="&#x21a;" horiz-adv-x="618" 
d="M372 0h-126v620h-225v105h576v-105h-225v-620zM294 -132h-36v96h102v-102l-44 -89h-61z" />
    <glyph glyph-name="Ubreve" unicode="&#x16c;" horiz-adv-x="728" 
d="M68 725h126v-428q0 -106 37 -156t133 -50t133 52t37 159v423h126v-420q0 -115 -30 -184.5t-94.5 -101.5t-171.5 -32q-106 0 -170.5 30.5t-95 99t-30.5 185.5v423zM529 886q-12 -118 -166 -118q-74 0 -116 30t-47 88h89q4 -26 22 -38.5t53 -12.5q69 0 76 51h89z" />
    <glyph glyph-name="Uhungarumlaut" unicode="&#x170;" horiz-adv-x="728" 
d="M68 725h126v-428q0 -106 37 -156t133 -50t133 52t37 159v423h126v-420q0 -115 -30 -184.5t-94.5 -101.5t-171.5 -32q-106 0 -170.5 30.5t-95 99t-30.5 185.5v423zM328 886h153l-155 -113h-104zM509 886h153l-156 -113h-104z" />
    <glyph glyph-name="Umacron" unicode="&#x16a;" horiz-adv-x="728" 
d="M68 725h126v-428q0 -106 37 -156t133 -50t133 52t37 159v423h126v-420q0 -115 -30 -184.5t-94.5 -101.5t-171.5 -32q-106 0 -170.5 30.5t-95 99t-30.5 185.5v423zM518 871v-85h-308v85h308z" />
    <glyph glyph-name="Uogonek" unicode="&#x172;" horiz-adv-x="728" 
d="M266 -95q0 26 13 45.5t39 37.5q-86 7 -140.5 38.5t-82 98t-27.5 177.5v423h126v-428q0 -106 37 -156t133 -50t133 52t37 159v423h126v-420q0 -100 -22 -164t-67.5 -99t-120.5 -50q-34 -7 -56.5 -24.5t-22.5 -40.5q0 -21 13 -31t33 -10t45 9v-74q-33 -9 -69 -9
q-54 0 -90.5 23t-36.5 70z" />
    <glyph glyph-name="Uring" unicode="&#x16e;" horiz-adv-x="728" 
d="M68 725h126v-428q0 -106 37 -156t133 -50t133 52t37 159v423h126v-420q0 -115 -30 -184.5t-94.5 -101.5t-171.5 -32q-106 0 -170.5 30.5t-95 99t-30.5 185.5v423zM463 854q0 -40 -28.5 -67t-70.5 -27t-70.5 27t-28.5 67t29 66.5t70 26.5t70 -26.5t29 -66.5zM320 854
q0 -18 13 -30.5t31 -12.5t31 12.5t13 30.5t-13 30.5t-31 12.5t-31 -12.5t-13 -30.5z" />
    <glyph glyph-name="Utilde" unicode="&#x168;" horiz-adv-x="728" 
d="M68 725h126v-428q0 -106 37 -156t133 -50t133 52t37 159v423h126v-420q0 -115 -30 -184.5t-94.5 -101.5t-171.5 -32q-106 0 -170.5 30.5t-95 99t-30.5 185.5v423zM485 890h84q-11 -67 -47.5 -94t-80.5 -27q-23 0 -40 6.5t-38 18.5q-17 10 -27.5 14.5t-22.5 4.5
q-41 0 -47 -43h-85q11 65 48 93t80 28q23 0 38.5 -6.5t36.5 -18.5q17 -10 28 -14.5t24 -4.5q41 0 49 43z" />
    <glyph glyph-name="uni1EE4" unicode="&#x1ee4;" horiz-adv-x="728" 
d="M68 725h126v-428q0 -106 37 -156t133 -50t133 52t37 159v423h126v-420q0 -115 -30 -184.5t-94.5 -101.5t-171.5 -32q-106 0 -170.5 30.5t-95 99t-30.5 185.5v423zM312 -175v104h105v-104h-105z" />
    <glyph glyph-name="Wacute" unicode="&#x1e82;" horiz-adv-x="909" 
d="M381 725h148l124 -562l113 562h130l-169 -725h-151l-122 562l-121 -562h-151l-170 725h134l120 -560zM508 886h153l-155 -113h-104z" />
    <glyph glyph-name="Wcircumflex" unicode="&#x174;" horiz-adv-x="909" 
d="M381 725h148l124 -562l113 562h130l-169 -725h-151l-122 562l-121 -562h-151l-170 725h134l120 -560zM403 886h105l135 -113h-122l-67 52l-68 -52h-121z" />
    <glyph glyph-name="Wdieresis" unicode="&#x1e84;" horiz-adv-x="909" 
d="M381 725h148l124 -562l113 562h130l-169 -725h-151l-122 562l-121 -562h-151l-170 725h134l120 -560zM284 776v107h105v-107h-105zM520 776v107h105v-107h-105z" />
    <glyph glyph-name="Wgrave" unicode="&#x1e80;" horiz-adv-x="909" 
d="M381 725h148l124 -562l113 562h130l-169 -725h-151l-122 562l-121 -562h-151l-170 725h134l120 -560zM507 773h-104l-155 113h153z" />
    <glyph glyph-name="Ycircumflex" unicode="&#x176;" horiz-adv-x="642" 
d="M256 282l-259 443h145l181 -323l184 323h143l-267 -445v-280h-127v282zM272 886h105l135 -113h-122l-67 52l-68 -52h-121z" />
    <glyph glyph-name="Ydieresis" unicode="&#x178;" horiz-adv-x="642" 
d="M256 282l-259 443h145l181 -323l184 323h143l-267 -445v-280h-127v282zM153 776v107h105v-107h-105zM389 776v107h105v-107h-105z" />
    <glyph glyph-name="Ygrave" unicode="&#x1ef2;" horiz-adv-x="642" 
d="M256 282l-259 443h145l181 -323l184 323h143l-267 -445v-280h-127v282zM390 773h-104l-155 113h153z" />
    <glyph glyph-name="uni0232" unicode="&#x232;" horiz-adv-x="642" 
d="M256 282l-259 443h145l181 -323l184 323h143l-267 -445v-280h-127v282zM478 871v-85h-308v85h308z" />
    <glyph glyph-name="Zacute" unicode="&#x179;" horiz-adv-x="619" 
d="M53 725h528v-102l-407 -518h420v-105h-573v102l409 518h-377v105zM362 886h153l-155 -113h-104z" />
    <glyph glyph-name="Zcaron" unicode="&#x17d;" horiz-adv-x="619" 
d="M53 725h528v-102l-407 -518h420v-105h-573v102l409 518h-377v105zM374 773h-105l-135 113h121l67 -52l69 52h121z" />
    <glyph glyph-name="Zdotaccent" unicode="&#x17b;" horiz-adv-x="619" 
d="M53 725h528v-102l-407 -518h420v-105h-573v102l409 518h-377v105zM263 776v108h122v-108h-122z" />
    <glyph glyph-name="uni018F" unicode="&#x18f;" horiz-adv-x="759" 
d="M35 363q0 27 3 55h548q-16 104 -88 153.5t-180 49.5q-63 0 -119.5 -13t-96.5 -35v122q103 42 232 42q120 0 207.5 -46.5t134 -132t46.5 -200.5q0 -111 -44 -195t-123.5 -130t-183.5 -46q-101 0 -177 46.5t-117.5 131.5t-41.5 198zM590 310h-416q3 -106 58 -162.5
t146 -56.5q54 0 101 22t78 71t33 126z" />
    <glyph glyph-name="abreve" unicode="&#x103;" horiz-adv-x="548" 
d="M372 347q-4 58 -37.5 80t-89.5 22q-47 0 -91 -15t-77 -38v105q37 21 89.5 34.5t100.5 13.5q113 0 167.5 -51.5t54.5 -163.5l-2 -146q0 -54 1 -91.5t5 -96.5h-111v83q-49 -96 -176 -96q-48 0 -89.5 20t-66 57t-24.5 85q0 88 86 133.5t260 64.5zM379 263v6
q-232 -14 -232 -111q0 -37 24 -61t67 -24q58 0 99.5 45t41.5 145zM455 755q-6 -55 -46 -89t-120 -34q-78 0 -118.5 34t-45.5 89h87q3 -26 22 -41t56 -15t56.5 15.5t22.5 40.5h86z" />
    <glyph glyph-name="amacron" unicode="&#x101;" horiz-adv-x="548" 
d="M372 347q-4 58 -37.5 80t-89.5 22q-47 0 -91 -15t-77 -38v105q37 21 89.5 34.5t100.5 13.5q113 0 167.5 -51.5t54.5 -163.5l-2 -146q0 -54 1 -91.5t5 -96.5h-111v83q-49 -96 -176 -96q-48 0 -89.5 20t-66 57t-24.5 85q0 88 86 133.5t260 64.5zM379 263v6
q-232 -14 -232 -111q0 -37 24 -61t67 -24q58 0 99.5 45t41.5 145zM445 744v-83h-308v83h308z" />
    <glyph glyph-name="aogonek" unicode="&#x105;" horiz-adv-x="548" 
d="M405 -78q0 -18 13.5 -26.5t35.5 -8.5q24 0 42 6v-74q-29 -7 -67 -7q-54 0 -91.5 22t-37.5 69q0 30 21.5 55t60.5 42v83q-49 -96 -176 -96q-48 0 -89.5 20t-66 57t-24.5 85q0 88 86 133.5t260 64.5q-4 58 -37.5 80t-89.5 22q-47 0 -91 -15t-77 -38v105q37 21 89.5 34.5
t100.5 13.5q113 0 167.5 -51.5t54.5 -163.5l-2 -146q0 -54 1 -91.5t5 -96.5q-44 -19 -66 -37.5t-22 -40.5zM379 263v6q-115 -7 -173.5 -34t-58.5 -77q0 -37 24 -61t67 -24q58 0 99.5 45t41.5 145z" />
    <glyph glyph-name="cacute" unicode="&#x107;" horiz-adv-x="463" 
d="M320 86q50 0 110 25v-101q-23 -10 -57.5 -16.5t-64.5 -6.5q-88 0 -150 37t-94 101t-32 143q0 78 33 142t96 101.5t147 37.5q30 0 62.5 -4t52.5 -12v-103q-44 19 -103 19q-73 0 -119 -46t-46 -135q0 -90 46 -136t119 -46zM323 755h141l-142 -116h-92z" />
    <glyph glyph-name="ccaron" unicode="&#x10d;" horiz-adv-x="463" 
d="M320 86q50 0 110 25v-101q-23 -10 -57.5 -16.5t-64.5 -6.5q-88 0 -150 37t-94 101t-32 143q0 78 33 142t96 101.5t147 37.5q30 0 62.5 -4t52.5 -12v-103q-44 19 -103 19q-73 0 -119 -46t-46 -135q0 -90 46 -136t119 -46zM338 639h-94l-140 116h111l77 -48l77 48h111z" />
    <glyph glyph-name="ccircumflex" unicode="&#x109;" horiz-adv-x="463" 
d="M320 86q50 0 110 25v-101q-23 -10 -57.5 -16.5t-64.5 -6.5q-88 0 -150 37t-94 101t-32 143q0 78 33 142t96 101.5t147 37.5q30 0 62.5 -4t52.5 -12v-103q-44 19 -103 19q-73 0 -119 -46t-46 -135q0 -90 46 -136t119 -46zM244 755h95l140 -116h-111l-77 48l-77 -48h-111z
" />
    <glyph glyph-name="cdotaccent" unicode="&#x10b;" horiz-adv-x="463" 
d="M320 86q50 0 110 25v-101q-23 -10 -57.5 -16.5t-64.5 -6.5q-88 0 -150 37t-94 101t-32 143q0 78 33 142t96 101.5t147 37.5q30 0 62.5 -4t52.5 -12v-103q-44 19 -103 19q-73 0 -119 -46t-46 -135q0 -90 46 -136t119 -46zM227 646v109h105v-109h-105z" />
    <glyph glyph-name="dcaron" unicode="&#x10f;" horiz-adv-x="626" 
d="M426 755h119v-755h-119v73q-24 -42 -67 -64t-96 -22q-65 0 -117.5 34.5t-82.5 98t-30 148.5q0 84 30 148t82.5 98.5t117.5 34.5q55 0 97.5 -23t65.5 -63v292zM292 454q-62 0 -97 -50t-35 -136q0 -87 35 -136.5t97 -49.5q61 0 100 48.5t39 137.5q0 88 -39 137t-100 49z
M611 755h117l-70 -170h-77z" />
    <glyph glyph-name="dcroat" unicode="&#x111;" horiz-adv-x="611" 
d="M545 0h-119v73q-24 -42 -67 -64t-96 -22q-65 0 -117.5 34.5t-82.5 98t-30 148.5q0 84 30 148t82.5 98.5t117.5 34.5q55 0 97.5 -23t65.5 -63v132h-144v83h144v77h119v-77h84v-83h-84v-595zM292 454q-62 0 -97 -50t-35 -136q0 -87 35 -136.5t97 -49.5q61 0 100 48.5
t39 137.5q0 88 -39 137t-100 49z" />
    <glyph glyph-name="ebreve" unicode="&#x115;" horiz-adv-x="557" 
d="M153 238q8 -74 55 -113t118 -39q80 0 164 47v-106q-33 -16 -80 -28t-102 -12q-87 0 -149.5 37.5t-94.5 101.5t-32 144q0 81 33 144.5t91.5 99.5t131.5 36q120 0 181.5 -85t57.5 -227h-374zM151 320h256q-2 71 -37 105t-88 34q-50 0 -88 -32.5t-43 -106.5zM462 755
q-6 -55 -46 -89t-120 -34q-78 0 -118.5 34t-45.5 89h87q3 -26 22 -41t56 -15t56.5 15.5t22.5 40.5h86z" />
    <glyph glyph-name="ecaron" unicode="&#x11b;" horiz-adv-x="557" 
d="M153 238q8 -74 55 -113t118 -39q80 0 164 47v-106q-33 -16 -80 -28t-102 -12q-87 0 -149.5 37.5t-94.5 101.5t-32 144q0 81 33 144.5t91.5 99.5t131.5 36q120 0 181.5 -85t57.5 -227h-374zM151 320h256q-2 71 -37 105t-88 34q-50 0 -88 -32.5t-43 -106.5zM339 639h-94
l-140 116h111l77 -48l77 48h111z" />
    <glyph glyph-name="emacron" unicode="&#x113;" horiz-adv-x="557" 
d="M153 238q8 -74 55 -113t118 -39q80 0 164 47v-106q-33 -16 -80 -28t-102 -12q-87 0 -149.5 37.5t-94.5 101.5t-32 144q0 81 33 144.5t91.5 99.5t131.5 36q120 0 181.5 -85t57.5 -227h-374zM151 320h256q-2 71 -37 105t-88 34q-50 0 -88 -32.5t-43 -106.5zM446 744v-83
h-308v83h308z" />
    <glyph glyph-name="eogonek" unicode="&#x119;" horiz-adv-x="557" 
d="M527 238h-374q8 -74 55 -113t118 -39q80 0 164 47v-106q-40 -20 -66 -45.5t-26 -50.5q0 -23 14 -33.5t35 -10.5q24 0 43 6v-74q-31 -7 -67 -7q-55 0 -92.5 22t-37.5 69q0 50 56 86q-26 -2 -41 -2q-87 0 -149.5 37.5t-94.5 101.5t-32 144q0 81 33 144.5t91.5 99.5
t131.5 36q120 0 181.5 -85t57.5 -227zM407 320q-2 71 -37 105t-88 34q-50 0 -88 -32.5t-43 -106.5h256z" />
    <glyph glyph-name="edotaccent" unicode="&#x117;" horiz-adv-x="557" 
d="M153 238q8 -74 55 -113t118 -39q80 0 164 47v-106q-33 -16 -80 -28t-102 -12q-87 0 -149.5 37.5t-94.5 101.5t-32 144q0 81 33 144.5t91.5 99.5t131.5 36q120 0 181.5 -85t57.5 -227h-374zM151 320h256q-2 71 -37 105t-88 34q-50 0 -88 -32.5t-43 -106.5zM240 646v109
h105v-109h-105z" />
    <glyph glyph-name="gbreve" unicode="&#x11f;" horiz-adv-x="607" 
d="M542 58q0 -140 -75 -202t-194 -62q-47 0 -93 8.5t-80 23.5v108q32 -19 76.5 -30.5t88.5 -11.5q71 0 114.5 34.5t43.5 113.5v55q-25 -43 -67 -64.5t-94 -21.5q-66 0 -117.5 33t-80.5 94.5t-29 142.5q0 80 28.5 141.5t80.5 95t118 33.5q55 0 97 -24t64 -63v76h119v-480z
M292 455q-61 0 -96 -48.5t-35 -127.5q0 -80 35 -128t96 -48t98.5 46.5t37.5 129.5t-37.5 129.5t-98.5 46.5zM461 755q-6 -55 -46 -89t-120 -34q-78 0 -118.5 34t-45.5 89h87q3 -26 22 -41t56 -15t56.5 15.5t22.5 40.5h86z" />
    <glyph glyph-name="gcircumflex" unicode="&#x11d;" horiz-adv-x="607" 
d="M542 58q0 -140 -75 -202t-194 -62q-47 0 -93 8.5t-80 23.5v108q32 -19 76.5 -30.5t88.5 -11.5q71 0 114.5 34.5t43.5 113.5v55q-25 -43 -67 -64.5t-94 -21.5q-66 0 -117.5 33t-80.5 94.5t-29 142.5q0 80 28.5 141.5t80.5 95t118 33.5q55 0 97 -24t64 -63v76h119v-480z
M292 455q-61 0 -96 -48.5t-35 -127.5q0 -80 35 -128t96 -48t98.5 46.5t37.5 129.5t-37.5 129.5t-98.5 46.5zM257 755h95l140 -116h-111l-77 48l-77 -48h-111z" />
    <glyph glyph-name="uni0123" unicode="&#x123;" horiz-adv-x="607" 
d="M311 696h36v-96h-102v102l44 89h61zM542 58q0 -140 -75 -202t-194 -62q-47 0 -93 8.5t-80 23.5v108q32 -19 76.5 -30.5t88.5 -11.5q71 0 114.5 34.5t43.5 113.5v55q-25 -43 -67 -64.5t-94 -21.5q-66 0 -117.5 33t-80.5 94.5t-29 142.5q0 80 28.5 141.5t80.5 95t118 33.5
q55 0 97 -24t64 -63v76h119v-480zM292 455q-61 0 -96 -48.5t-35 -127.5q0 -80 35 -128t96 -48t98.5 46.5t37.5 129.5t-37.5 129.5t-98.5 46.5z" />
    <glyph glyph-name="gdotaccent" unicode="&#x121;" horiz-adv-x="607" 
d="M542 58q0 -140 -75 -202t-194 -62q-47 0 -93 8.5t-80 23.5v108q32 -19 76.5 -30.5t88.5 -11.5q71 0 114.5 34.5t43.5 113.5v55q-25 -43 -67 -64.5t-94 -21.5q-66 0 -117.5 33t-80.5 94.5t-29 142.5q0 80 28.5 141.5t80.5 95t118 33.5q55 0 97 -24t64 -63v76h119v-480z
M292 455q-61 0 -96 -48.5t-35 -127.5q0 -80 35 -128t96 -48t98.5 46.5t37.5 129.5t-37.5 129.5t-98.5 46.5zM252 646v109h105v-109h-105z" />
    <glyph glyph-name="hbar" unicode="&#x127;" horiz-adv-x="591" 
d="M185 755v-77h144v-83h-144v-132q24 41 65.5 63.5t97.5 22.5q183 0 183 -210v-339h-119v311q0 66 -21.5 103t-81.5 37q-64 0 -94 -44.5t-30 -121.5v-285h-119v595h-84v83h84v77h119z" />
    <glyph glyph-name="hcircumflex" unicode="&#x125;" horiz-adv-x="591" 
d="M185 463q24 41 65.5 63.5t97.5 22.5q183 0 183 -210v-339h-119v311q0 66 -21.5 103t-81.5 37q-64 0 -94 -44.5t-30 -121.5v-285h-119v755h119v-292zM279 906h105l135 -113h-122l-67 52l-68 -52h-121z" />
    <glyph glyph-name="dotlessi" unicode="&#x131;" horiz-adv-x="251" 
d="M66 0v538h119v-538h-119z" />
    <glyph glyph-name="ibreve" unicode="&#x12d;" horiz-adv-x="251" 
d="M66 0v538h119v-538h-119zM292 755q-6 -55 -46 -89t-120 -34q-78 0 -118.5 34t-45.5 89h87q3 -26 22 -41t56 -15t56.5 15.5t22.5 40.5h86z" />
    <glyph glyph-name="imacron" unicode="&#x12b;" horiz-adv-x="251" 
d="M66 0v538h119v-538h-119zM281 744v-83h-308v83h308z" />
    <glyph glyph-name="iogonek" unicode="&#x12f;" horiz-adv-x="251" 
d="M66 634v121h119v-121h-119zM66 538h119v-538q-46 -21 -69 -39t-23 -39q0 -18 14 -26.5t35 -8.5q24 0 43 6v-74q-29 -7 -67 -7q-55 0 -92 22t-37 69q0 60 77 97v538z" />
    <glyph glyph-name="itilde" unicode="&#x129;" horiz-adv-x="251" 
d="M66 0v538h119v-538h-119zM239 757h81q-10 -59 -43 -88t-80 -29q-23 0 -42.5 7t-40.5 20q-19 10 -30 14.5t-24 4.5q-40 0 -48 -44h-80q10 57 42 87t81 30q24 0 41.5 -6.5t37.5 -19.5q19 -10 30.5 -15t25.5 -5q41 0 49 44z" />
    <glyph glyph-name="uni1ECB" unicode="&#x1ecb;" horiz-adv-x="251" 
d="M66 634v121h119v-121h-119zM66 0v538h119v-538h-119zM73 -175v104h105v-104h-105z" />
    <glyph glyph-name="uni0237" unicode="&#x237;" horiz-adv-x="286" 
d="M13 -201v94q20 -5 43 -5q25 0 34.5 14t9.5 50v500h-81v86h201v-577q0 -89 -31.5 -128t-114.5 -39q-33 0 -61 5z" />
    <glyph glyph-name="jcircumflex" unicode="&#x135;" horiz-adv-x="286" 
d="M96 755h95l129 -116h-111l-66 48l-66 -48h-111zM13 -201v94q20 -5 43 -5q25 0 34.5 14t9.5 50v500h-81v86h201v-577q0 -89 -31.5 -128t-114.5 -39q-33 0 -61 5z" />
    <glyph glyph-name="uni0137" unicode="&#x137;" horiz-adv-x="533" 
d="M66 0v755h119v-467l199 250h131l-209 -256l245 -282h-150l-216 245v-245h-119zM275 -132h-36v96h102v-102l-44 -89h-61z" />
    <glyph glyph-name="lacute" unicode="&#x13a;" horiz-adv-x="251" 
d="M66 755h119v-755h-119v755zM180 906h153l-155 -113h-104z" />
    <glyph glyph-name="lcaron" unicode="&#x13e;" horiz-adv-x="251" 
d="M251 755h117l-70 -170h-77zM66 755h119v-755h-119v755z" />
    <glyph glyph-name="uni013C" unicode="&#x13c;" horiz-adv-x="251" 
d="M66 755h119v-755h-119v755zM112 -132h-36v96h102v-102l-44 -89h-61z" />
    <glyph glyph-name="ldot" unicode="&#x140;" horiz-adv-x="357" 
d="M66 755h119v-755h-119v755zM251 345v109h105v-109h-105z" />
    <glyph glyph-name="lslash" unicode="&#x142;" horiz-adv-x="325" 
d="M101 755h120v-270l76 47v-98l-76 -47v-387h-120v324l-72 -44v98l72 44v333z" />
    <glyph glyph-name="eng" unicode="&#x14b;" horiz-adv-x="591" 
d="M531 -25q0 -96 -33.5 -138.5t-116.5 -42.5q-38 0 -66 6v94q22 -6 46 -6q29 0 40 17.5t11 62.5v343q0 66 -21.5 103t-81.5 37q-64 0 -94 -44.5t-30 -121.5v-285h-119v538h119v-75q24 41 65.5 63.5t97.5 22.5q183 0 183 -210v-364z" />
    <glyph glyph-name="nacute" unicode="&#x144;" horiz-adv-x="591" 
d="M185 463q24 41 65.5 63.5t97.5 22.5q183 0 183 -210v-339h-119v311q0 66 -21.5 103t-81.5 37q-64 0 -94 -44.5t-30 -121.5v-285h-119v538h119v-75zM346 755h141l-142 -116h-92z" />
    <glyph glyph-name="ncaron" unicode="&#x148;" horiz-adv-x="591" 
d="M185 463q24 41 65.5 63.5t97.5 22.5q183 0 183 -210v-339h-119v311q0 66 -21.5 103t-81.5 37q-64 0 -94 -44.5t-30 -121.5v-285h-119v538h119v-75zM348 639h-94l-140 116h111l77 -48l77 48h111z" />
    <glyph glyph-name="uni0146" unicode="&#x146;" horiz-adv-x="591" 
d="M185 463q24 41 65.5 63.5t97.5 22.5q183 0 183 -210v-339h-119v311q0 66 -21.5 103t-81.5 37q-64 0 -94 -44.5t-30 -121.5v-285h-119v538h119v-75zM278 -132h-36v96h102v-102l-44 -89h-61z" />
    <glyph glyph-name="oe" unicode="&#x153;" horiz-adv-x="950" 
d="M491 452q33 47 81 72.5t109 25.5q119 0 180.5 -85t57.5 -227h-373q7 -73 54.5 -112.5t117.5 -39.5q82 0 164 47v-106q-32 -16 -79 -28t-102 -12q-138 0 -209 97q-33 -48 -84 -72.5t-113 -24.5q-71 0 -130.5 31t-95.5 94.5t-36 155.5t36 155t95.5 94.5t130.5 31.5
q61 0 112 -24.5t84 -72.5zM544 320h256q-3 71 -37.5 105t-88.5 34q-51 0 -88.5 -32.5t-41.5 -106.5zM156 268q0 -91 37.5 -137.5t101.5 -46.5t101.5 47t37.5 137q0 91 -37.5 137.5t-101.5 46.5t-101.5 -46.5t-37.5 -137.5z" />
    <glyph glyph-name="obreve" unicode="&#x14f;" horiz-adv-x="590" 
d="M295 549q71 0 130.5 -31.5t95.5 -94.5t36 -155t-36 -155.5t-95.5 -94.5t-130.5 -31t-130.5 31t-95.5 94.5t-36 155.5t36 155t95.5 94.5t130.5 31.5zM295 84q64 0 101.5 47t37.5 137q0 91 -37.5 137.5t-101.5 46.5t-101.5 -46.5t-37.5 -137.5t37.5 -137.5t101.5 -46.5z
M460 755q-6 -55 -46 -89t-120 -34q-78 0 -118.5 34t-45.5 89h87q3 -26 22 -41t56 -15t56.5 15.5t22.5 40.5h86z" />
    <glyph glyph-name="ohungarumlaut" unicode="&#x151;" horiz-adv-x="590" 
d="M295 549q71 0 130.5 -31.5t95.5 -94.5t36 -155t-36 -155.5t-95.5 -94.5t-130.5 -31t-130.5 31t-95.5 94.5t-36 155.5t36 155t95.5 94.5t130.5 31.5zM295 84q64 0 101.5 47t37.5 137q0 91 -37.5 137.5t-101.5 46.5t-101.5 -46.5t-37.5 -137.5t37.5 -137.5t101.5 -46.5z
M252 755h141l-142 -116h-92zM431 755h141l-141 -116h-92z" />
    <glyph glyph-name="omacron" unicode="&#x14d;" horiz-adv-x="590" 
d="M295 549q71 0 130.5 -31.5t95.5 -94.5t36 -155t-36 -155.5t-95.5 -94.5t-130.5 -31t-130.5 31t-95.5 94.5t-36 155.5t36 155t95.5 94.5t130.5 31.5zM295 84q64 0 101.5 47t37.5 137q0 91 -37.5 137.5t-101.5 46.5t-101.5 -46.5t-37.5 -137.5t37.5 -137.5t101.5 -46.5z
M449 744v-83h-308v83h308z" />
    <glyph glyph-name="uni1ECD" unicode="&#x1ecd;" horiz-adv-x="590" 
d="M295 549q71 0 130.5 -31.5t95.5 -94.5t36 -155t-36 -155.5t-95.5 -94.5t-130.5 -31t-130.5 31t-95.5 94.5t-36 155.5t36 155t95.5 94.5t130.5 31.5zM295 84q64 0 101.5 47t37.5 137q0 91 -37.5 137.5t-101.5 46.5t-101.5 -46.5t-37.5 -137.5t37.5 -137.5t101.5 -46.5z
M242 -175v104h105v-104h-105z" />
    <glyph glyph-name="racute" unicode="&#x155;" horiz-adv-x="371" 
d="M357 423q-30 5 -51 5q-60 0 -90.5 -34t-30.5 -112v-282h-119v538h117v-94q21 48 58.5 72.5t87.5 25.5q12 0 28 -2v-117zM259 755h141l-142 -116h-92z" />
    <glyph glyph-name="rcaron" unicode="&#x159;" horiz-adv-x="371" 
d="M357 423q-30 5 -51 5q-60 0 -90.5 -34t-30.5 -112v-282h-119v538h117v-94q21 48 58.5 72.5t87.5 25.5q12 0 28 -2v-117zM258 639h-94l-140 116h111l77 -48l77 48h111z" />
    <glyph glyph-name="uni0157" unicode="&#x157;" horiz-adv-x="371" 
d="M357 423q-30 5 -51 5q-60 0 -90.5 -34t-30.5 -112v-282h-119v538h117v-94q21 48 58.5 72.5t87.5 25.5q12 0 28 -2v-117zM111 -132h-36v96h102v-102l-44 -89h-61z" />
    <glyph glyph-name="sacute" unicode="&#x15b;" horiz-adv-x="446" 
d="M40 16v110q74 -40 158 -40q50 0 78.5 15.5t28.5 44.5q0 24 -20.5 41t-68.5 33l-32 10q-71 24 -108 65.5t-37 97.5q0 49 27.5 84t74 53.5t101.5 18.5q79 0 143 -23v-104q-74 28 -140 28q-43 0 -68.5 -13t-25.5 -40q0 -23 18 -39t58 -29l33 -11q82 -26 121.5 -63.5
t39.5 -101.5q0 -49 -28.5 -86.5t-77 -58.5t-107.5 -21q-52 0 -96 8t-72 21zM287 755h141l-142 -116h-92z" />
    <glyph glyph-name="scaron" unicode="&#x161;" horiz-adv-x="446" 
d="M40 16v110q74 -40 158 -40q50 0 78.5 15.5t28.5 44.5q0 24 -20.5 41t-68.5 33l-32 10q-71 24 -108 65.5t-37 97.5q0 49 27.5 84t74 53.5t101.5 18.5q79 0 143 -23v-104q-74 28 -140 28q-43 0 -68.5 -13t-25.5 -40q0 -23 18 -39t58 -29l33 -11q82 -26 121.5 -63.5
t39.5 -101.5q0 -49 -28.5 -86.5t-77 -58.5t-107.5 -21q-52 0 -96 8t-72 21zM283 639h-94l-140 116h111l77 -48l77 48h111z" />
    <glyph glyph-name="scedilla" unicode="&#x15f;" horiz-adv-x="446" 
d="M40 16v110q74 -40 158 -40q50 0 78.5 15.5t28.5 44.5q0 24 -20.5 41t-68.5 33l-32 10q-71 24 -108 65.5t-37 97.5q0 49 27.5 84t74 53.5t101.5 18.5q79 0 143 -23v-104q-74 28 -140 28q-43 0 -68.5 -13t-25.5 -40q0 -23 18 -39t58 -29l33 -11q82 -26 121.5 -63.5
t39.5 -101.5q0 -49 -28.5 -86.5t-77 -58.5t-107.5 -21q-52 0 -96 8t-72 21zM151 -135q30 -14 60 -14q25 0 40.5 8.5t15.5 23.5q0 14 -11.5 21t-30.5 7q-25 0 -38 -9l-30 17l51 83h55l-33 -51q20 3 34 3q36 0 58.5 -18t22.5 -50q0 -38 -35 -60.5t-82 -22.5q-53 0 -94 18z" />
    <glyph glyph-name="scircumflex" unicode="&#x15d;" horiz-adv-x="446" 
d="M40 16v110q74 -40 158 -40q50 0 78.5 15.5t28.5 44.5q0 24 -20.5 41t-68.5 33l-32 10q-71 24 -108 65.5t-37 97.5q0 49 27.5 84t74 53.5t101.5 18.5q79 0 143 -23v-104q-74 28 -140 28q-43 0 -68.5 -13t-25.5 -40q0 -23 18 -39t58 -29l33 -11q82 -26 121.5 -63.5
t39.5 -101.5q0 -49 -28.5 -86.5t-77 -58.5t-107.5 -21q-52 0 -96 8t-72 21zM191 755h95l140 -116h-111l-77 48l-77 -48h-111z" />
    <glyph glyph-name="uni0219" unicode="&#x219;" horiz-adv-x="446" 
d="M40 16v110q74 -40 158 -40q50 0 78.5 15.5t28.5 44.5q0 24 -20.5 41t-68.5 33l-32 10q-71 24 -108 65.5t-37 97.5q0 49 27.5 84t74 53.5t101.5 18.5q79 0 143 -23v-104q-74 28 -140 28q-43 0 -68.5 -13t-25.5 -40q0 -23 18 -39t58 -29l33 -11q82 -26 121.5 -63.5
t39.5 -101.5q0 -49 -28.5 -86.5t-77 -58.5t-107.5 -21q-52 0 -96 8t-72 21zM204 -132h-36v96h102v-102l-44 -89h-61z" />
    <glyph glyph-name="tbar" unicode="&#x167;" horiz-adv-x="366" 
d="M338 3q-39 -12 -80 -12q-86 0 -121.5 38.5t-35.5 122.5v97h-78v83h78v120h-85v86h85v139h120v-139h118v-86h-118v-120h104v-83h-104v-89q0 -42 13.5 -58t47.5 -16q28 0 56 6v-89z" />
    <glyph glyph-name="tcaron" unicode="&#x165;" horiz-adv-x="355" 
d="M94 538v139h120v-139h118v-86h-118v-292q0 -42 13.5 -58t47.5 -16q28 0 56 6v-89q-39 -12 -80 -12q-86 0 -121.5 38.5t-35.5 122.5v300h-85v86h85zM289 755h117l-70 -170h-77z" />
    <glyph glyph-name="uni0163" unicode="&#x163;" horiz-adv-x="355" 
d="M94 538v139h120v-139h118v-86h-118v-292q0 -42 13.5 -58t47.5 -16q28 0 56 6v-89q-39 -12 -80 -12q-86 0 -121.5 38.5t-35.5 122.5v300h-85v86h85zM208 -132h-36v96h102v-102l-44 -89h-61z" />
    <glyph glyph-name="uni021B" unicode="&#x21b;" horiz-adv-x="355" 
d="M94 538v139h120v-139h118v-86h-118v-292q0 -42 13.5 -58t47.5 -16q28 0 56 6v-89q-39 -12 -80 -12q-86 0 -121.5 38.5t-35.5 122.5v300h-85v86h85zM208 -132h-36v96h102v-102l-44 -89h-61z" />
    <glyph glyph-name="ubreve" unicode="&#x16d;" horiz-adv-x="585" 
d="M400 73q-24 -40 -65.5 -63t-96.5 -23q-177 0 -177 209v342h119v-313q0 -68 19.5 -104t78.5 -36q64 0 93 44.5t29 122.5v286h119v-538h-119v73zM456 755q-6 -55 -46 -89t-120 -34q-78 0 -118.5 34t-45.5 89h87q3 -26 22 -41t56 -15t56.5 15.5t22.5 40.5h86z" />
    <glyph glyph-name="uhungarumlaut" unicode="&#x171;" horiz-adv-x="585" 
d="M400 73q-24 -40 -65.5 -63t-96.5 -23q-177 0 -177 209v342h119v-313q0 -68 19.5 -104t78.5 -36q64 0 93 44.5t29 122.5v286h119v-538h-119v73zM248 755h141l-142 -116h-92zM427 755h141l-141 -116h-92z" />
    <glyph glyph-name="umacron" unicode="&#x16b;" horiz-adv-x="585" 
d="M400 73q-24 -40 -65.5 -63t-96.5 -23q-177 0 -177 209v342h119v-313q0 -68 19.5 -104t78.5 -36q64 0 93 44.5t29 122.5v286h119v-538h-119v73zM445 744v-83h-308v83h308z" />
    <glyph glyph-name="uogonek" unicode="&#x173;" horiz-adv-x="585" 
d="M324 -97q0 60 76 97v73q-24 -40 -65.5 -63t-96.5 -23q-177 0 -177 209v342h119v-313q0 -68 19.5 -104t78.5 -36q64 0 93 44.5t29 122.5v286h119v-538q-45 -21 -68 -39t-23 -39q0 -18 14 -26.5t35 -8.5q24 0 43 6v-74q-29 -7 -67 -7q-55 0 -92 22t-37 69z" />
    <glyph glyph-name="uring" unicode="&#x16f;" horiz-adv-x="585" 
d="M400 73q-24 -40 -65.5 -63t-96.5 -23q-177 0 -177 209v342h119v-313q0 -68 19.5 -104t78.5 -36q64 0 93 44.5t29 122.5v286h119v-538h-119v73zM391 709q0 -40 -29 -66.5t-70 -26.5t-70 26.5t-29 66.5q0 41 29 67.5t70 26.5t70 -26.5t29 -67.5zM249 709q0 -18 12.5 -30
t30.5 -12t31 12t13 30t-13 30.5t-31 12.5t-30.5 -12.5t-12.5 -30.5z" />
    <glyph glyph-name="utilde" unicode="&#x169;" horiz-adv-x="585" 
d="M400 73q-24 -40 -65.5 -63t-96.5 -23q-177 0 -177 209v342h119v-313q0 -68 19.5 -104t78.5 -36q64 0 93 44.5t29 122.5v286h119v-538h-119v73zM412 757h81q-10 -59 -43 -88t-80 -29q-23 0 -42.5 7t-40.5 20q-19 10 -30 14.5t-24 4.5q-40 0 -48 -44h-80q10 57 42 87t81 30
q24 0 41.5 -6.5t37.5 -19.5q19 -10 30.5 -15t25.5 -5q41 0 49 44z" />
    <glyph glyph-name="uni1EE5" unicode="&#x1ee5;" horiz-adv-x="585" 
d="M400 73q-24 -40 -65.5 -63t-96.5 -23q-177 0 -177 209v342h119v-313q0 -68 19.5 -104t78.5 -36q64 0 93 44.5t29 122.5v286h119v-538h-119v73zM239 -175v104h105v-104h-105z" />
    <glyph glyph-name="wacute" unicode="&#x1e83;" horiz-adv-x="745" 
d="M266 0h-118l-138 538h122l84 -382l93 382h126l94 -382l84 382h122l-139 -538h-118l-106 418zM418 755h141l-142 -116h-92z" />
    <glyph glyph-name="wcircumflex" unicode="&#x175;" horiz-adv-x="745" 
d="M266 0h-118l-138 538h122l84 -382l93 382h126l94 -382l84 382h122l-139 -538h-118l-106 418zM323 755h95l140 -116h-111l-77 48l-77 -48h-111z" />
    <glyph glyph-name="wdieresis" unicode="&#x1e85;" horiz-adv-x="745" 
d="M266 0h-118l-138 538h122l84 -382l93 382h126l94 -382l84 382h122l-139 -538h-118l-106 418zM307 646h-105v109h105v-109zM434 646v109h106v-109h-106z" />
    <glyph glyph-name="wgrave" unicode="&#x1e81;" horiz-adv-x="745" 
d="M266 0h-118l-138 538h122l84 -382l93 382h126l94 -382l84 382h122l-139 -538h-118l-106 418zM417 639h-92l-142 116h141z" />
    <glyph glyph-name="ycircumflex" unicode="&#x177;" horiz-adv-x="520" 
d="M519 538l-278 -733h-115l77 203l-202 530h131l132 -398l133 398h122zM215 755h95l140 -116h-111l-77 48l-77 -48h-111z" />
    <glyph glyph-name="ygrave" unicode="&#x1ef3;" horiz-adv-x="520" 
d="M519 538l-278 -733h-115l77 203l-202 530h131l132 -398l133 398h122zM320 639h-92l-142 116h141z" />
    <glyph glyph-name="uni0233" unicode="&#x233;" horiz-adv-x="520" 
d="M519 538l-278 -733h-115l77 203l-202 530h131l132 -398l133 398h122zM416 744v-83h-308v83h308z" />
    <glyph glyph-name="zacute" unicode="&#x17a;" horiz-adv-x="498" 
d="M469 0h-442v97l294 344h-277v97h418v-97l-294 -344h301v-97zM295 755h141l-142 -116h-92z" />
    <glyph glyph-name="zcaron" unicode="&#x17e;" horiz-adv-x="498" 
d="M469 0h-442v97l294 344h-277v97h418v-97l-294 -344h301v-97zM314 639h-94l-140 116h111l77 -48l77 48h111z" />
    <glyph glyph-name="zdotaccent" unicode="&#x17c;" horiz-adv-x="498" 
d="M469 0h-442v97l294 344h-277v97h418v-97l-294 -344h301v-97zM208 646v109h105v-109h-105z" />
    <glyph glyph-name="uni0259" unicode="&#x259;" horiz-adv-x="557" 
d="M404 299q-8 74 -55 113t-118 39q-80 0 -164 -47v106q33 16 80 28t102 12q87 0 149.5 -37.5t94.5 -101.5t32 -144q0 -81 -33 -144.5t-91.5 -99.5t-131.5 -36q-120 0 -181.5 85t-57.5 227h374zM406 217h-256q2 -71 37 -105t88 -34q50 0 88 32.5t43 106.5z" />
    <glyph glyph-name="uni0410" unicode="&#x410;" horiz-adv-x="670" 
d="M673 0h-137l-68 193h-273l-68 -193h-129l270 725h133zM331 579l-99 -281h198z" />
    <glyph glyph-name="uni0411" unicode="&#x411;" horiz-adv-x="629" 
d="M201 620v-179h132q130 0 199.5 -50.5t69.5 -164.5q0 -117 -72 -171.5t-203 -54.5h-252v725h466v-105h-340zM331 105q68 0 104.5 30t36.5 89q0 61 -36 87.5t-108 26.5h-127v-233h130z" />
    <glyph glyph-name="uni0412" unicode="&#x412;" horiz-adv-x="643" 
d="M75 0v725h245q114 0 187 -41.5t73 -143.5q0 -49 -23.5 -92t-57.5 -64q109 -49 109 -170q0 -110 -75.5 -162t-195.5 -52h-262zM201 620v-199h130q57 0 88.5 25.5t31.5 75.5q0 48 -32 73t-88 25h-130zM201 325v-220h140q68 0 102.5 28.5t34.5 82.5q0 55 -35 82t-108 27
h-134z" />
    <glyph glyph-name="uni0413" unicode="&#x413;" horiz-adv-x="553" 
d="M75 725h458v-105h-332v-620h-126v725z" />
    <glyph glyph-name="uni0414" unicode="&#x414;" horiz-adv-x="773" 
d="M745 105v-262h-118v157h-494v-157h-117v262h61q35 37 49.5 117t19.5 222l11 281h504v-620h84zM535 105v515h-264l-7 -179q-9 -266 -52 -336h323z" />
    <glyph glyph-name="uni0415" unicode="&#x415;" horiz-adv-x="581" 
d="M534 0h-459v725h459v-105h-333v-196h312v-105h-312v-214h333v-105z" />
    <glyph glyph-name="uni0401" unicode="&#x401;" horiz-adv-x="581" 
d="M534 0h-459v725h459v-105h-333v-196h312v-105h-312v-214h333v-105zM143 776v107h105v-107h-105zM379 776v107h105v-107h-105z" />
    <glyph glyph-name="uni0416" unicode="&#x416;" horiz-adv-x="982" 
d="M429 369v356h127v-356l269 356h147l-284 -366l305 -359h-164l-273 317v-317h-127v317l-273 -317h-161l300 348l-292 377h156z" />
    <glyph glyph-name="uni0417" unicode="&#x417;" horiz-adv-x="587" 
d="M42 30v117q99 -51 212 -51q81 0 124 31.5t43 87.5q0 106 -144 106h-109v105h102q60 0 96 25.5t36 74.5q0 51 -36 77.5t-103 26.5q-106 0 -206 -49v116q106 41 214 41q121 0 188.5 -51t67.5 -145q0 -106 -99 -158q60 -20 91.5 -62t31.5 -112q0 -111 -81.5 -167t-205.5 -56
q-129 0 -222 43z" />
    <glyph glyph-name="uni0418" unicode="&#x418;" horiz-adv-x="751" 
d="M198 178l355 547h123v-725h-123v547l-355 -547h-123v725h123v-547z" />
    <glyph glyph-name="uni0419" unicode="&#x419;" horiz-adv-x="751" 
d="M198 178l355 547h123v-725h-123v547l-355 -547h-123v725h123v-547zM540 886q-12 -118 -166 -118q-74 0 -116 30t-47 88h90q4 -26 22 -39t52 -13q67 0 76 52h89z" />
    <glyph glyph-name="uni041A" unicode="&#x41a;" horiz-adv-x="652" 
d="M75 725h126v-346l296 346h145l-308 -355l335 -370h-170l-298 329v-329h-126v725z" />
    <glyph glyph-name="uni041B" unicode="&#x41b;" horiz-adv-x="729" 
d="M654 0h-126v620h-254l-10 -269q-4 -121 -23 -199t-61.5 -120t-117.5 -42q-24 0 -46 10v117q13 -7 40 -7q48 0 67 60.5t23 181.5l13 373h495v-725z" />
    <glyph glyph-name="uni041C" unicode="&#x41c;" horiz-adv-x="864" 
d="M668 580l-172 -410h-128l-173 410v-580h-120v725h181l177 -431l174 431h182v-725h-121v580z" />
    <glyph glyph-name="uni041D" unicode="&#x41d;" horiz-adv-x="744" 
d="M543 424v301h126v-725h-126v319h-342v-319h-126v725h126v-301h342z" />
    <glyph glyph-name="uni041E" unicode="&#x41e;" horiz-adv-x="774" 
d="M387 -13q-105 0 -184 47.5t-122 132.5t-43 196t43 196t122 132t184 47t184 -47t122 -132t43 -196t-43 -196t-122 -132.5t-184 -47.5zM387 90q61 0 110.5 32t78.5 93.5t29 147.5t-29 147.5t-78.5 93t-110.5 31.5q-62 0 -111.5 -31.5t-78.5 -93t-29 -147.5t29 -147.5
t79 -93.5t111 -32z" />
    <glyph glyph-name="uni041F" unicode="&#x41f;" horiz-adv-x="734" 
d="M659 725v-725h-126v620h-332v-620h-126v725h584z" />
    <glyph glyph-name="uni0420" unicode="&#x420;" horiz-adv-x="623" 
d="M288 725q94 0 161 -16.5t109 -66.5t42 -143q0 -126 -82 -175t-227 -49h-90v-275h-126v725h213zM201 621v-242h98q51 0 87.5 8t60 34.5t23.5 77.5q0 52 -24 79t-61.5 35t-91.5 8h-92z" />
    <glyph glyph-name="uni0421" unicode="&#x421;" horiz-adv-x="637" 
d="M417 95q90 0 182 46v-116q-40 -17 -91.5 -27.5t-102.5 -10.5q-115 0 -198 48.5t-126.5 133.5t-43.5 193q0 117 49 202t133 129.5t186 44.5q54 0 106 -9t88 -27v-116q-88 44 -182 44q-71 0 -127 -29.5t-89 -89.5t-33 -149t33 -149t89 -89t127 -29z" />
    <glyph glyph-name="uni0422" unicode="&#x422;" horiz-adv-x="618" 
d="M372 0h-126v620h-225v105h576v-105h-225v-620z" />
    <glyph glyph-name="uni0423" unicode="&#x423;" horiz-adv-x="650" 
d="M103 -1v106q31 -17 71 -17q31 0 53 12t37 38l10 17l-267 570h139l193 -439l176 439h138l-260 -591q-36 -82 -84 -116t-118 -34q-47 0 -88 15z" />
    <glyph glyph-name="uni0424" unicode="&#x424;" horiz-adv-x="874" 
d="M499 666q166 -9 254 -88.5t88 -209.5q0 -86 -39 -152t-116 -105t-187 -45v-86h-125v86q-165 8 -253 89.5t-88 214.5q0 128 88 207.5t253 88.5v79h125v-79zM374 564q-101 -4 -156 -55t-55 -140q0 -91 55 -144t156 -57v396zM499 168q100 4 155.5 57.5t55.5 143.5
q0 88 -55.5 139t-155.5 56v-396z" />
    <glyph glyph-name="uni0425" unicode="&#x425;" horiz-adv-x="669" 
d="M136 0h-143l268 372l-250 353h151l175 -247l178 247h143l-250 -347l267 -378h-151l-193 271z" />
    <glyph glyph-name="uni0426" unicode="&#x426;" horiz-adv-x="771" 
d="M659 105h84v-262h-118v157h-550v725h126v-620h332v620h126v-620z" />
    <glyph glyph-name="uni0427" unicode="&#x427;" horiz-adv-x="674" 
d="M599 725v-725h-127v286q-59 -12 -166 -12q-136 0 -200.5 60.5t-64.5 188.5v202h126v-192q0 -85 37 -119.5t120 -34.5q89 0 148 12v334h127z" />
    <glyph glyph-name="uni0428" unicode="&#x428;" horiz-adv-x="1006" 
d="M931 725v-725h-856v725h126v-620h239v620h126v-620h239v620h126z" />
    <glyph glyph-name="uni0429" unicode="&#x429;" horiz-adv-x="1043" 
d="M931 105h83v-262h-118v157h-821v725h126v-620h239v620h126v-620h238v620h127v-620z" />
    <glyph glyph-name="uni042A" unicode="&#x42a;" horiz-adv-x="718" 
d="M174 0v620h-162v105h288v-257h78q152 0 234 -50.5t82 -183.5q0 -132 -82 -183t-234 -51h-204zM387 105q84 0 131 28.5t47 100.5q0 73 -47 101t-131 28h-87v-258h87z" />
    <glyph glyph-name="uni042B" unicode="&#x42b;" horiz-adv-x="883" 
d="M75 0v725h126v-257h80q149 0 229.5 -50.5t80.5 -183.5q0 -132 -81 -183t-229 -51h-206zM808 725v-725h-127v725h127zM288 105q81 0 126.5 28.5t45.5 100.5q0 73 -45.5 101t-126.5 28h-87v-258h87z" />
    <glyph glyph-name="uni042C" unicode="&#x42c;" horiz-adv-x="625" 
d="M75 0v725h126v-257h84q152 0 234 -50.5t82 -183.5q0 -132 -82 -183t-234 -51h-210zM294 105q84 0 131 28.5t47 100.5q0 73 -47 101t-131 28h-93v-258h93z" />
    <glyph glyph-name="uni042D" unicode="&#x42d;" horiz-adv-x="647" 
d="M610 360q0 -110 -44 -194.5t-129 -131.5t-204 -47q-102 0 -200 43v116q100 -52 196 -52q110 0 173.5 55.5t74.5 165.5h-322v104h321q-13 105 -75 158t-167 53q-55 0 -99 -12.5t-89 -36.5v118q89 39 188 39q117 0 202 -46t129.5 -131.5t44.5 -200.5z" />
    <glyph glyph-name="uni042E" unicode="&#x42e;" horiz-adv-x="1033" 
d="M995 363q0 -113 -42 -198t-119.5 -131.5t-179.5 -46.5q-97 0 -171 41.5t-118 116.5t-51 174h-113v-319h-126v725h126v-301h115q11 96 55.5 166.5t117 109t165.5 38.5q102 0 179.5 -46.5t119.5 -131.5t42 -197zM865 363q0 78 -25 140t-73 97t-113 35t-113 -35t-73 -97
t-25 -140q0 -79 25 -140.5t73 -97t113 -35.5t113 35.5t73 97t25 140.5z" />
    <glyph glyph-name="uni042F" unicode="&#x42f;" horiz-adv-x="652" 
d="M577 0h-127v272h-107l-182 -272h-143l201 296q-78 16 -119 69.5t-41 134.5q0 123 80 174t223 51h215v-725zM364 620q-85 0 -130 -25.5t-45 -96.5q0 -70 45 -95.5t130 -25.5h86v243h-86z" />
    <glyph glyph-name="uni0402" unicode="&#x402;" horiz-adv-x="792" 
d="M347 0h-126v620h-210v105h576v-105h-240v-200q82 20 165 20q119 0 183.5 -63t64.5 -187q0 -114 -68.5 -198.5t-201.5 -138.5l-46 100q89 35 139 95t50 138q0 74 -36 111.5t-106 37.5q-62 0 -144 -19v-316z" />
    <glyph glyph-name="uni0403" unicode="&#x403;" horiz-adv-x="553" 
d="M75 725h458v-105h-332v-620h-126v725zM350 886h153l-155 -113h-104z" />
    <glyph glyph-name="uni0404" unicode="&#x404;" horiz-adv-x="653" 
d="M614 143v-116q-83 -40 -200 -40q-120 0 -205 47t-128.5 131.5t-43.5 194.5q0 115 46.5 200.5t133 131.5t205.5 46q105 0 191 -39v-118q-44 24 -87.5 36.5t-97.5 12.5q-109 0 -175.5 -53.5t-80.5 -157.5h320v-104h-322q11 -109 75.5 -165t172.5 -56q106 0 196 49z" />
    <glyph glyph-name="uni0405" unicode="&#x405;" horiz-adv-x="562" 
d="M49 26v121q45 -24 92 -37.5t107 -13.5q67 0 111 24.5t44 75.5q0 40 -29.5 64t-89.5 44l-60 20q-87 28 -135 81t-48 124q0 63 36.5 110.5t98.5 73t137 25.5q50 0 96.5 -7.5t78.5 -22.5v-114q-77 36 -176 36q-62 0 -103.5 -23t-41.5 -68q0 -67 108 -102l60 -20
q99 -32 148.5 -80.5t49.5 -129.5q0 -64 -37.5 -114.5t-101.5 -78t-141 -27.5q-120 0 -204 39z" />
    <glyph glyph-name="uni0406" unicode="&#x406;" horiz-adv-x="459" 
d="M421 105v-105h-383v105h128v515h-128v105h383v-105h-128v-515h128z" />
    <glyph glyph-name="uni0407" unicode="&#x407;" horiz-adv-x="459" 
d="M421 105v-105h-383v105h128v515h-128v105h383v-105h-128v-515h128zM59 776v107h105v-107h-105zM295 776v107h105v-107h-105z" />
    <glyph glyph-name="uni0408" unicode="&#x408;" horiz-adv-x="379" 
d="M27 -1l12 111q39 -13 73 -13q39 0 54.5 23.5t15.5 74.5v425h-130v105h256v-532q0 -102 -46.5 -154t-135.5 -52q-46 0 -99 12z" />
    <glyph glyph-name="uni0409" unicode="&#x409;" horiz-adv-x="1038" 
d="M159 725h465v-260h76q151 0 232.5 -51t81.5 -182q0 -130 -81.5 -181t-232.5 -51h-202v620h-224l-10 -269q-4 -121 -23 -199t-61.5 -120t-117.5 -42q-24 0 -46 10v117q13 -7 40 -7q48 0 67 60.5t23 181.5zM704 105q86 0 133.5 27t47.5 100t-47.5 100.5t-133.5 27.5h-80
v-255h80z" />
    <glyph glyph-name="uni040A" unicode="&#x40a;" horiz-adv-x="1055" 
d="M720 461q149 0 230 -50.5t81 -180.5q0 -129 -81 -179.5t-230 -50.5h-206v356h-313v-356h-126v725h126v-264h313v264h127v-264h79zM724 105q84 0 131 27t47 98q0 72 -47 99t-131 27h-83v-251h83z" />
    <glyph glyph-name="uni040B" unicode="&#x40b;" horiz-adv-x="789" 
d="M749 201v-201h-127v190q0 77 -32.5 111t-100.5 34q-64 0 -142 -19v-316h-126v620h-210v105h577v-105h-241v-200q82 20 149 20q129 0 191 -59t62 -180z" />
    <glyph glyph-name="uni040C" unicode="&#x40c;" horiz-adv-x="652" 
d="M75 725h126v-346l296 346h145l-308 -355l335 -370h-170l-298 329v-329h-126v725zM385 886h153l-155 -113h-104z" />
    <glyph glyph-name="uni040E" unicode="&#x40e;" horiz-adv-x="650" 
d="M103 -1v106q31 -17 71 -17q31 0 53 12t37 38l10 17l-267 570h139l193 -439l176 439h138l-260 -591q-36 -82 -84 -116t-118 -34q-47 0 -88 15zM494 886q-12 -118 -166 -118q-74 0 -116 30t-47 88h90q4 -26 22 -39t52 -13q67 0 76 52h89z" />
    <glyph glyph-name="uni040F" unicode="&#x40f;" horiz-adv-x="734" 
d="M659 0h-233v-157h-118v157h-233v725h126v-620h332v620h126v-725z" />
    <glyph glyph-name="uni0490" unicode="&#x490;" horiz-adv-x="553" 
d="M533 882v-262h-332v-620h-126v725h341v157h117z" />
    <glyph glyph-name="uni0462" unicode="&#x462;" horiz-adv-x="717" 
d="M376 438q152 0 234.5 -48t82.5 -170q0 -123 -82.5 -171.5t-234.5 -48.5h-210v538h-146v100h146v87h127v-87h206v-100h-206v-100h83zM388 105q87 0 131 24t44 91q0 66 -44 89.5t-131 23.5h-95v-228h95z" />
    <glyph glyph-name="uni0472" unicode="&#x472;" horiz-adv-x="774" 
d="M736 363q0 -111 -43 -196t-122 -132.5t-184 -47.5t-184 47.5t-122 132.5t-43 196t43 196t122 132t184 47t184 -47t122 -132t43 -196zM171 423q42 29 99 29q37 0 67 -9t72 -26q34 -15 57 -22t47 -7q32 0 55.5 11t33.5 31q-15 100 -74 152.5t-141 52.5q-84 0 -143 -54.5
t-73 -157.5zM605 317q-43 -30 -102 -30q-37 0 -68 9t-71 26q-36 15 -58.5 22t-46.5 7q-31 0 -55 -11t-34 -30q12 -107 71.5 -163.5t145.5 -56.5t146.5 58.5t71.5 168.5z" />
    <glyph glyph-name="uni0474" unicode="&#x474;" horiz-adv-x="713" 
d="M565 519l-178 -519h-136l-251 725h138l184 -575l123 394q32 100 74.5 145.5t118.5 45.5q33 0 57 -10v-120q-17 10 -44 10q-34 0 -51 -21.5t-35 -74.5z" />
    <glyph glyph-name="uni0492" unicode="&#x492;" horiz-adv-x="580" 
d="M558 620h-331v-202h180v-102h-180v-316h-127v316h-82v102h82v307h458v-105z" />
    <glyph glyph-name="uni0496" unicode="&#x496;" horiz-adv-x="994" 
d="M877 -157v157h-48l-273 317v-317h-127v317l-273 -317h-161l300 348l-292 377h157l269 -356v356h127v-356l269 356h147l-284 -366l216 -254h92v-262h-119z" />
    <glyph glyph-name="uni049A" unicode="&#x49a;" horiz-adv-x="663" 
d="M75 725h126v-357l296 357h145l-308 -365l238 -255h92v-262h-119v157h-46l-298 319v-319h-126v725z" />
    <glyph glyph-name="uni04A2" unicode="&#x4a2;" horiz-adv-x="781" 
d="M669 105h84v-262h-118v157h-92v319h-342v-319h-126v725h126v-301h342v301h126v-620z" />
    <glyph glyph-name="uni04AE" unicode="&#x4ae;" horiz-adv-x="642" 
d="M256 282l-259 443h145l181 -323l184 323h143l-267 -445v-280h-127v282z" />
    <glyph glyph-name="uni04B0" unicode="&#x4b0;" horiz-adv-x="642" 
d="M507 725h143l-266 -444h151v-105h-152v-176h-126v176h-151v105h151l-259 444h145l180 -323z" />
    <glyph glyph-name="uni04B2" unicode="&#x4b2;" horiz-adv-x="684" 
d="M136 0h-143l268 372l-250 353h151l175 -247l178 247h143l-250 -347l193 -273h92v-262h-117v157h-52l-193 271z" />
    <glyph glyph-name="uni04B6" unicode="&#x4b6;" horiz-adv-x="711" 
d="M682 105v-262h-117v157h-93v287q-73 -13 -170 -13q-134 0 -197.5 61t-63.5 188v202h126v-192q0 -83 36 -118.5t117 -35.5q98 0 152 12v334h127v-620h83z" />
    <glyph glyph-name="uni04BA" unicode="&#x4ba;" horiz-adv-x="675" 
d="M75 0v725h126v-279q36 8 82.5 13.5t88.5 5.5q134 0 197.5 -60.5t63.5 -188.5v-216h-126v206q0 84 -36 119t-117 35q-74 0 -153 -19v-341h-126z" />
    <glyph glyph-name="uni04C0" unicode="&#x4c0;" horiz-adv-x="449" 
d="M417 105v-105h-383v105h128v515h-128v105h383v-105h-128v-515h128z" />
    <glyph glyph-name="uni04D8" unicode="&#x4d8;" horiz-adv-x="759" 
d="M35 363q0 27 3 55h548q-16 104 -88 153.5t-180 49.5q-63 0 -119.5 -13t-96.5 -35v122q103 42 232 42q120 0 207.5 -46.5t134 -132t46.5 -200.5q0 -111 -44 -195t-123.5 -130t-183.5 -46q-101 0 -177 46.5t-117.5 131.5t-41.5 198zM590 310h-416q3 -106 58 -162.5
t146 -56.5q54 0 101 22t78 71t33 126z" />
    <glyph glyph-name="uni04E2" unicode="&#x4e2;" horiz-adv-x="751" 
d="M198 178l355 547h123v-725h-123v547l-355 -547h-123v725h123v-547zM530 871v-85h-308v85h308z" />
    <glyph glyph-name="uni04E8" unicode="&#x4e8;" horiz-adv-x="775" 
d="M387 -13q-105 0 -184 47t-122 132.5t-43 196.5t43 196t122 132t184 47t184 -46.5t122.5 -131.5t43.5 -197t-43.5 -197t-122.5 -132t-184 -47zM174 425h426q-14 99 -72.5 154.5t-140.5 55.5t-140 -55.5t-73 -154.5zM603 324h-432q6 -73 36 -125.5t77 -80.5t103 -28
q57 0 104 27.5t77 80.5t35 126z" />
    <glyph glyph-name="uni04EE" unicode="&#x4ee;" horiz-adv-x="650" 
d="M103 -1v106q31 -17 71 -17q31 0 53 12t37 38l10 17l-267 570h139l193 -439l176 439h138l-260 -591q-36 -82 -84 -116t-118 -34q-47 0 -88 15zM488 871v-85h-308v85h308z" />
    <glyph glyph-name="uni0430" unicode="&#x430;" horiz-adv-x="548" 
d="M372 347q-4 58 -37.5 80t-89.5 22q-47 0 -91 -15t-77 -38v105q37 21 89.5 34.5t100.5 13.5q113 0 167.5 -51.5t54.5 -163.5l-2 -146q0 -54 1 -91.5t5 -96.5h-111v83q-49 -96 -176 -96q-48 0 -89.5 20t-66 57t-24.5 85q0 88 86 133.5t260 64.5zM379 263v6
q-232 -14 -232 -111q0 -37 24 -61t67 -24q58 0 99.5 45t41.5 145z" />
    <glyph glyph-name="uni0431" unicode="&#x431;" horiz-adv-x="608" 
d="M575 264q0 -88 -35 -150.5t-94 -94.5t-129 -32q-75 0 -136 33.5t-96.5 101t-35.5 165.5v55q0 178 67.5 274t232.5 115q75 8 114.5 13t67.5 14v-106q-45 -14 -179 -29q-96 -10 -141 -57t-49 -142q27 50 75 76t106 26q64 0 117 -30t84 -89t31 -143zM452 258q0 83 -37.5 127
t-99.5 44t-101.5 -44t-39.5 -127t38.5 -129t102.5 -46q63 0 100 45.5t37 129.5z" />
    <glyph glyph-name="uni0432" unicode="&#x432;" horiz-adv-x="553" 
d="M304 538q196 0 196 -139q0 -40 -18 -69t-53 -45q43 -13 68 -43.5t25 -80.5q0 -82 -56 -121.5t-152 -39.5h-248v538h238zM292 319q44 0 66 15t22 50q0 33 -22.5 46.5t-66.5 13.5h-106v-125h107zM185 232v-138h122q48 0 71.5 16.5t23.5 52.5t-23.5 52.5t-72.5 16.5h-121z
" />
    <glyph glyph-name="uni0433" unicode="&#x433;" horiz-adv-x="456" 
d="M432 538v-97h-247v-441h-119v538h366z" />
    <glyph glyph-name="uni0434" unicode="&#x434;" horiz-adv-x="639" 
d="M613 97v-241h-113v144h-369v-144h-113v241h52q24 33 37 89t17 147l8 205h411v-441h70zM423 97v344h-185l-4 -110q-7 -165 -41 -234h230z" />
    <glyph glyph-name="uni0435" unicode="&#x435;" horiz-adv-x="557" 
d="M153 238q8 -74 55 -113t118 -39q80 0 164 47v-106q-33 -16 -80 -28t-102 -12q-87 0 -149.5 37.5t-94.5 101.5t-32 144q0 81 33 144.5t91.5 99.5t131.5 36q120 0 181.5 -85t57.5 -227h-374zM151 320h256q-2 71 -37 105t-88 34q-50 0 -88 -32.5t-43 -106.5z" />
    <glyph glyph-name="uni0451" unicode="&#x451;" horiz-adv-x="557" 
d="M153 238q8 -74 55 -113t118 -39q80 0 164 47v-106q-33 -16 -80 -28t-102 -12q-87 0 -149.5 37.5t-94.5 101.5t-32 144q0 81 33 144.5t91.5 99.5t131.5 36q120 0 181.5 -85t57.5 -227h-374zM151 320h256q-2 71 -37 105t-88 34q-50 0 -88 -32.5t-43 -106.5zM229 646h-105
v109h105v-109zM356 646v109h106v-109h-106z" />
    <glyph glyph-name="uni0436" unicode="&#x436;" horiz-adv-x="808" 
d="M345 538h120v-250l192 250h137l-208 -261l230 -277h-150l-201 245v-245h-120v245l-201 -245h-150l227 272l-211 266h144l191 -250v250z" />
    <glyph glyph-name="uni0437" unicode="&#x437;" horiz-adv-x="477" 
d="M30 24v107q75 -45 172 -45q56 0 89.5 21t33.5 57q0 64 -100 64h-92v93h84q42 0 66.5 17.5t24.5 52.5q0 31 -27.5 47t-75.5 16q-95 0 -163 -40v104q69 34 168 34q95 0 156 -38.5t61 -116.5q0 -38 -23 -68t-61 -45q46 -12 74.5 -44t28.5 -82q0 -85 -67.5 -128t-173.5 -43
q-99 0 -175 37z" />
    <glyph glyph-name="uni0438" unicode="&#x438;" horiz-adv-x="599" 
d="M533 538v-538h-118v371l-234 -371h-115v538h118v-371l234 371h115z" />
    <glyph glyph-name="uni0439" unicode="&#x439;" horiz-adv-x="599" 
d="M533 538v-538h-118v371l-234 -371h-115v538h118v-371l234 371h115zM135 755h87q3 -26 22 -41t56 -15t56.5 15.5t22.5 40.5h86q-6 -55 -46 -89t-120 -34q-78 0 -118.5 34t-45.5 89z" />
    <glyph glyph-name="uni043A" unicode="&#x43a;" horiz-adv-x="529" 
d="M66 0v538h119v-250l199 250h137l-212 -261l234 -277h-150l-208 245v-245h-119z" />
    <glyph glyph-name="uni043B" unicode="&#x43b;" horiz-adv-x="586" 
d="M17 0v109q18 -5 31 -5q33 0 49.5 45.5t20.5 137.5l12 251h390v-538h-119v441h-166l-7 -154q-7 -149 -44.5 -222t-119.5 -73q-31 0 -47 8z" />
    <glyph glyph-name="uni043C" unicode="&#x43c;" horiz-adv-x="740" 
d="M374 258l137 280h163v-538h-119v421l-143 -293h-85l-143 289v-417h-118v538h167z" />
    <glyph glyph-name="uni043D" unicode="&#x43d;" horiz-adv-x="589" 
d="M523 538v-538h-119v227h-219v-227h-119v538h119v-214h219v214h119z" />
    <glyph glyph-name="uni043E" unicode="&#x43e;" horiz-adv-x="590" 
d="M295 549q71 0 130.5 -31.5t95.5 -94.5t36 -155t-36 -155.5t-95.5 -94.5t-130.5 -31t-130.5 31t-95.5 94.5t-36 155.5t36 155t95.5 94.5t130.5 31.5zM295 84q64 0 101.5 47t37.5 137q0 91 -37.5 137.5t-101.5 46.5t-101.5 -46.5t-37.5 -137.5t37.5 -137.5t101.5 -46.5z
" />
    <glyph glyph-name="uni043F" unicode="&#x43f;" horiz-adv-x="584" 
d="M66 538h452v-538h-119v441h-214v-441h-119v538z" />
    <glyph glyph-name="uni0440" unicode="&#x440;" horiz-adv-x="611" 
d="M66 538h119v-75q24 40 66 63t98 23q65 0 117.5 -34.5t82 -98.5t29.5 -148q0 -85 -30 -148.5t-82.5 -98t-117.5 -34.5q-52 0 -95 22t-68 64v-268h-119v733zM319 82q63 0 97.5 49.5t34.5 136.5q0 86 -35 136t-97 50q-61 0 -99.5 -48.5t-38.5 -137.5t38.5 -137.5t99.5 -48.5
z" />
    <glyph glyph-name="uni0441" unicode="&#x441;" horiz-adv-x="463" 
d="M320 86q50 0 110 25v-101q-23 -10 -57.5 -16.5t-64.5 -6.5q-88 0 -150 37t-94 101t-32 143q0 78 33 142t96 101.5t147 37.5q30 0 62.5 -4t52.5 -12v-103q-44 19 -103 19q-73 0 -119 -46t-46 -135q0 -90 46 -136t119 -46z" />
    <glyph glyph-name="uni0442" unicode="&#x442;" horiz-adv-x="509" 
d="M485 538v-97h-171v-441h-119v441h-171v97h461z" />
    <glyph glyph-name="uni0443" unicode="&#x443;" horiz-adv-x="520" 
d="M519 538l-278 -733h-115l77 203l-202 530h131l132 -398l133 398h122z" />
    <glyph glyph-name="uni0444" unicode="&#x444;" horiz-adv-x="750" 
d="M432 545q130 -9 207 -77t77 -202q0 -136 -76.5 -201.5t-207.5 -75.5v-184h-114v184q-132 10 -208.5 75.5t-76.5 201.5q0 134 77.5 202t207.5 77v210h114v-210zM318 449q-77 -7 -119.5 -50.5t-42.5 -133.5q0 -91 41.5 -132t120.5 -48v364zM432 85q78 7 119.5 48t41.5 132
t-41.5 134t-119.5 50v-364z" />
    <glyph glyph-name="uni0445" unicode="&#x445;" horiz-adv-x="522" 
d="M387 538h125l-186 -257l199 -281h-137l-131 186l-134 -186h-126l198 273l-186 265h136l119 -169z" />
    <glyph glyph-name="uni0446" unicode="&#x446;" horiz-adv-x="612" 
d="M516 538v-441h70v-241h-113v144h-407v538h119v-441h212v441h119z" />
    <glyph glyph-name="uni0447" unicode="&#x447;" horiz-adv-x="547" 
d="M481 0h-119v209q-68 -15 -131 -15q-101 0 -149.5 46t-48.5 141v157h120v-150q0 -50 24 -73.5t73 -23.5q55 0 112 14v233h119v-538z" />
    <glyph glyph-name="uni0448" unicode="&#x448;" horiz-adv-x="845" 
d="M660 538h119v-538h-713v538h119v-441h178v441h119v-441h178v441z" />
    <glyph glyph-name="uni0449" unicode="&#x449;" horiz-adv-x="875" 
d="M779 97h70v-241h-113v144h-670v538h119v-441h178v441h119v-441h178v441h119v-441z" />
    <glyph glyph-name="uni044A" unicode="&#x44a;" horiz-adv-x="605" 
d="M364 357q111 0 164 -43.5t53 -133.5q0 -97 -54 -138.5t-160 -41.5h-221v441h-132v97h251v-181h99zM357 97q54 0 80 19.5t26 63.5t-26 62t-82 18h-90v-163h92z" />
    <glyph glyph-name="uni044B" unicode="&#x44b;" horiz-adv-x="755" 
d="M66 0v538h119v-181h99q111 0 164 -43.5t53 -133.5q0 -97 -54 -138.5t-161 -41.5h-220zM689 538v-538h-119v538h119zM185 260v-163h92q54 0 80 19.5t26 63.5t-26 62t-82 18h-90z" />
    <glyph glyph-name="uni044C" unicode="&#x44c;" horiz-adv-x="534" 
d="M293 357q111 0 164.5 -43.5t53.5 -133.5q0 -97 -54.5 -138.5t-160.5 -41.5h-230v538h119v-181h108zM286 97q54 0 80 19.5t26 63.5t-25.5 62t-81.5 18h-100v-163h101z" />
    <glyph glyph-name="uni044D" unicode="&#x44d;" horiz-adv-x="480" 
d="M448 270q0 -83 -34.5 -147t-98 -100t-145.5 -36q-86 0 -135 24v107q54 -31 125 -31q66 0 112 33.5t57 104.5h-203v97h201q-12 66 -55 96.5t-107 30.5q-76 0 -126 -29v107q23 10 57 16t72 6q86 0 149.5 -35.5t97 -98.5t33.5 -145z" />
    <glyph glyph-name="uni044E" unicode="&#x44e;" horiz-adv-x="822" 
d="M789 268q0 -92 -36.5 -155.5t-96 -94.5t-128.5 -31q-62 0 -116.5 27t-91.5 81t-45 132h-90v-227h-119v538h119v-214h92q11 74 47.5 124.5t90 75.5t113.5 25q69 0 128.5 -31.5t96 -95t36.5 -154.5zM666 268q0 90 -38 137t-100 47q-60 0 -96 -46.5t-36 -137.5
q0 -90 36 -137t96 -47q62 0 100 47.5t38 136.5z" />
    <glyph glyph-name="uni044F" unicode="&#x44f;" horiz-adv-x="554" 
d="M488 538v-538h-120v182h-93l-128 -182h-136l151 213q-49 16 -78.5 53.5t-29.5 98.5q0 82 55.5 127.5t155.5 45.5h223zM272 441q-45 0 -71 -20.5t-26 -60.5q0 -41 28 -61t74 -20h91v162h-96z" />
    <glyph glyph-name="uni0452" unicode="&#x452;" horiz-adv-x="591" 
d="M531 79q0 -149 -43.5 -217t-144.5 -68q-41 0 -47 5v94q1 1 14.5 -2t22.5 -3q43 0 61 44.5t18 140.5v228q0 73 -20.5 111.5t-83.5 38.5q-60 0 -91.5 -42t-31.5 -123v-286h-119v595h-84v83h84v77h119v-77h144v-83h-144v-132q23 40 64.5 63t98.5 23q183 0 183 -210v-260z
" />
    <glyph glyph-name="uni0453" unicode="&#x453;" horiz-adv-x="456" 
d="M432 538v-97h-247v-441h-119v538h366zM293 755h141l-142 -116h-92z" />
    <glyph glyph-name="uni0454" unicode="&#x454;" horiz-adv-x="478" 
d="M445 116v-105q-45 -24 -135 -24q-82 0 -145.5 36t-98 100t-34.5 146t35 145.5t99 99t149 35.5q78 0 123 -18v-105q-45 23 -117 23q-62 0 -108 -30.5t-60 -96.5h209v-97h-211q12 -71 58.5 -104.5t110.5 -33.5q36 0 69 8t56 21z" />
    <glyph glyph-name="uni0455" unicode="&#x455;" horiz-adv-x="446" 
d="M40 16v110q74 -40 158 -40q50 0 78.5 15.5t28.5 44.5q0 24 -20.5 41t-68.5 33l-32 10q-71 24 -108 65.5t-37 97.5q0 49 27.5 84t74 53.5t101.5 18.5q79 0 143 -23v-104q-74 28 -140 28q-43 0 -68.5 -13t-25.5 -40q0 -23 18 -39t58 -29l33 -11q82 -26 121.5 -63.5
t39.5 -101.5q0 -49 -28.5 -86.5t-77 -58.5t-107.5 -21q-52 0 -96 8t-72 21z" />
    <glyph glyph-name="uni0456" unicode="&#x456;" horiz-adv-x="251" 
d="M66 634v121h119v-121h-119zM66 0v538h119v-538h-119z" />
    <glyph glyph-name="uni0457" unicode="&#x457;" horiz-adv-x="251" 
d="M13 634v121h99v-121h-99zM139 634v121h99v-121h-99zM185 0h-119v538h119v-538z" />
    <glyph glyph-name="uni0458" unicode="&#x458;" horiz-adv-x="286" 
d="M100 634v121h120v-121h-120zM13 -201v94q20 -5 43 -5q25 0 34.5 14t9.5 50v500h-81v86h201v-577q0 -89 -31.5 -128t-114.5 -39q-33 0 -61 5z" />
    <glyph glyph-name="uni0459" unicode="&#x459;" horiz-adv-x="844" 
d="M130 538h381v-181h93q111 0 164 -43.5t53 -133.5q0 -97 -54 -138.5t-160 -41.5h-215v441h-157l-7 -154q-8 -149 -45 -222t-119 -73q-31 0 -47 8v109q13 -5 32 -5q33 0 49 45.5t20 137.5zM597 97q54 0 80 19.5t26 63.5t-26 62t-82 18h-84v-163h86z" />
    <glyph glyph-name="uni045A" unicode="&#x45a;" horiz-adv-x="852" 
d="M612 347q110 0 163.5 -43t53.5 -129q0 -93 -54 -134t-160 -41h-215v250h-215v-250h-119v538h119v-191h215v191h120v-191h92zM605 97q54 0 80 18t26 60q0 41 -26 58t-82 17h-83v-153h85z" />
    <glyph glyph-name="uni045B" unicode="&#x45b;" horiz-adv-x="591" 
d="M185 755v-77h144v-83h-144v-132q24 41 65.5 63.5t97.5 22.5q183 0 183 -210v-339h-119v311q0 66 -21.5 103t-81.5 37q-64 0 -94 -44.5t-30 -121.5v-285h-119v595h-84v83h84v77h119z" />
    <glyph glyph-name="uni045C" unicode="&#x45c;" horiz-adv-x="529" 
d="M66 0v538h119v-250l199 250h137l-212 -261l234 -277h-150l-208 245v-245h-119zM318 755h141l-142 -116h-92z" />
    <glyph glyph-name="uni045E" unicode="&#x45e;" horiz-adv-x="520" 
d="M519 538l-278 -733h-115l77 203l-202 530h131l132 -398l133 398h122zM100 755h87q3 -26 22 -41t56 -15t56.5 15.5t22.5 40.5h86q-6 -55 -46 -89t-120 -34q-78 0 -118.5 34t-45.5 89z" />
    <glyph glyph-name="uni045F" unicode="&#x45f;" horiz-adv-x="584" 
d="M518 538v-538h-170v-144h-113v144h-169v538h119v-441h214v441h119z" />
    <glyph glyph-name="uni0491" unicode="&#x491;" horiz-adv-x="456" 
d="M432 682v-241h-247v-441h-119v538h252v144h114z" />
    <glyph glyph-name="uni0463" unicode="&#x463;" horiz-adv-x="582" 
d="M344 357q110 0 162 -43t52 -133q0 -98 -52.5 -139.5t-158.5 -41.5h-234v449h-100v89h100v217h119v-217h155v-89h-155v-92h112zM333 97q54 0 80 19.5t26 63.5t-26 62t-81 18h-100v-163h101z" />
    <glyph glyph-name="uni0473" unicode="&#x473;" horiz-adv-x="590" 
d="M557 268q0 -92 -36 -155.5t-95.5 -94.5t-130.5 -31t-130.5 31t-95.5 94.5t-36 155.5t36 155t95.5 94.5t130.5 31.5t130.5 -31.5t95.5 -94.5t36 -155zM153 303q30 33 76 33q19 0 36.5 -6.5t39.5 -19.5q19 -10 32.5 -15.5t26.5 -5.5q25 0 43.5 8.5t27.5 24.5q-11 64 -48 97
t-92 33q-60 0 -97.5 -37.5t-44.5 -111.5zM436 223q-29 -29 -72 -29q-19 0 -37 7t-40 19q-19 10 -32.5 15.5t-26.5 5.5q-25 0 -44 -9.5t-27 -26.5q12 -60 48.5 -90.5t89.5 -30.5q57 0 94 35.5t47 103.5z" />
    <glyph glyph-name="uni0475" unicode="&#x475;" horiz-adv-x="567" 
d="M441 354l-125 -354h-120l-193 538h128l128 -404l84 264q25 79 58 114.5t95 35.5q29 0 50 -8v-112q-12 7 -34 7q-24 0 -39.5 -18t-31.5 -63z" />
    <glyph glyph-name="uni0493" unicode="&#x493;" horiz-adv-x="473" 
d="M448 441h-246v-126h143v-86h-143v-229h-120v229h-66v86h66v223h366v-97z" />
    <glyph glyph-name="uni0497" unicode="&#x497;" horiz-adv-x="823" 
d="M715 -144v144h-49l-201 245v-245h-120v245l-201 -245h-150l227 272l-211 266h144l191 -250v250h120v-250l192 250h137l-208 -261l151 -180h91v-241h-113z" />
    <glyph glyph-name="uni049B" unicode="&#x49b;" horiz-adv-x="543" 
d="M66 0v538h119v-250l199 250h137l-212 -261l153 -180h92v-241h-113v144h-48l-208 245v-245h-119z" />
    <glyph glyph-name="uni04A3" unicode="&#x4a3;" horiz-adv-x="619" 
d="M523 97h70v-241h-113v144h-76v227h-219v-227h-119v538h119v-214h219v214h119v-441z" />
    <glyph glyph-name="uni04AF" unicode="&#x4af;" horiz-adv-x="516" 
d="M319 0v-195h-119v195l-198 538h128l131 -412l132 412h120z" />
    <glyph glyph-name="uni04B1" unicode="&#x4b1;" horiz-adv-x="516" 
d="M319 -95v-100h-119v100h-104v95h104l-198 538h128l131 -412l132 412h120l-194 -538h104v-95h-104z" />
    <glyph glyph-name="uni04B3" unicode="&#x4b3;" horiz-adv-x="539" 
d="M456 97h91v-241h-113v144h-46l-131 186l-134 -186h-126l198 273l-186 265h136l119 -169l123 169h125l-186 -257z" />
    <glyph glyph-name="uni04B7" unicode="&#x4b7;" horiz-adv-x="577" 
d="M551 97v-241h-113v144h-76v209q-68 -15 -131 -15q-101 0 -149.5 46t-48.5 141v157h120v-150q0 -50 24 -73.5t73 -23.5q55 0 112 14v233h119v-441h70z" />
    <glyph glyph-name="uni04BB" unicode="&#x4bb;" horiz-adv-x="591" 
d="M185 463q24 41 65.5 63.5t97.5 22.5q183 0 183 -210v-339h-119v311q0 66 -21.5 103t-81.5 37q-64 0 -94 -44.5t-30 -121.5v-285h-119v755h119v-292z" />
    <glyph glyph-name="uni04CF" unicode="&#x4cf;" horiz-adv-x="251" 
d="M66 755h119v-755h-119v755z" />
    <glyph glyph-name="uni04D9" unicode="&#x4d9;" horiz-adv-x="557" 
d="M404 299q-8 74 -55 113t-118 39q-80 0 -164 -47v106q33 16 80 28t102 12q87 0 149.5 -37.5t94.5 -101.5t32 -144q0 -81 -33 -144.5t-91.5 -99.5t-131.5 -36q-120 0 -181.5 85t-57.5 227h374zM406 217h-256q2 -71 37 -105t88 -34q50 0 88 32.5t43 106.5z" />
    <glyph glyph-name="uni04E3" unicode="&#x4e3;" horiz-adv-x="599" 
d="M533 538v-538h-118v371l-234 -371h-115v538h118v-371l234 371h115zM454 744v-83h-308v83h308z" />
    <glyph glyph-name="uni04E9" unicode="&#x4e9;" horiz-adv-x="603" 
d="M571 269q0 -93 -36.5 -156.5t-98 -94.5t-135.5 -31t-135 31t-97 94.5t-36 156.5q0 92 36 155.5t97 94.5t135 31t135.5 -31t98 -94.5t36.5 -155.5zM158 315h287q-8 67 -47 102.5t-97 35.5t-96.5 -35t-46.5 -103zM157 226q8 -69 47 -105.5t97 -36.5q59 0 97.5 36.5
t45.5 105.5h-287z" />
    <glyph glyph-name="uni04EF" unicode="&#x4ef;" horiz-adv-x="520" 
d="M519 538l-278 -733h-115l77 203l-202 530h131l132 -398l133 398h122zM420 744v-83h-308v83h308z" />
    <glyph glyph-name="uni0414.aalt" horiz-adv-x="747" 
d="M674 105h64v-256h-115v151h-499v-151h-114v256h63l229 620h141zM201 105h339l-170 488z" />
    <glyph glyph-name="uni041B.aalt" horiz-adv-x="670" 
d="M673 0h-137l-204 579l-204 -579h-130l270 725h133z" />
    <glyph glyph-name="uni0432.aalt" horiz-adv-x="557" 
d="M525 220q0 -74 -31.5 -126t-86.5 -79t-125 -27q-102 0 -162 52t-60 156v344q0 114 60 166t162 52q95 0 153 -50.5t58 -143.5q0 -53 -23 -94.5t-69 -65.5q59 -20 91.5 -67t32.5 -117zM179 560v-122h91q53 0 78.5 30.5t25.5 86.5q0 107 -95 107q-47 0 -73.5 -26t-26.5 -76z
M402 220q0 62 -32.5 96t-94.5 34h-96v-155q0 -54 27.5 -82.5t77.5 -28.5q59 0 88.5 35.5t29.5 100.5z" />
    <glyph glyph-name="uni0433.aalt" horiz-adv-x="441" 
d="M23 144q0 66 41 104.5t130 68.5l25 9q37 13 57.5 30t20.5 41q0 27 -25 40t-65 13q-37 0 -70.5 -7t-72.5 -20v106q34 9 76.5 14.5t78.5 5.5q91 0 140.5 -39.5t49.5 -110.5q0 -60 -35 -97t-102 -62l-38 -15q-51 -21 -71.5 -37t-20.5 -40q0 -30 27 -46t76 -16q76 0 152 39
v-108q-28 -13 -71.5 -21.5t-91.5 -8.5q-95 0 -153 40.5t-58 116.5z" />
    <glyph glyph-name="uni0434.aalt" horiz-adv-x="607" 
d="M542 58q0 -140 -75 -202t-194 -62q-47 0 -93 8.5t-80 23.5v108q32 -19 76.5 -30.5t88.5 -11.5q71 0 114.5 34.5t43.5 113.5v55q-25 -43 -67 -64.5t-94 -21.5q-66 0 -117.5 33t-80.5 94.5t-29 142.5q0 80 28.5 141.5t80.5 95t118 33.5q55 0 97 -24t64 -63v76h119v-480z
M292 455q-61 0 -96 -48.5t-35 -127.5q0 -80 35 -128t96 -48t98.5 46.5t37.5 129.5t-37.5 129.5t-98.5 46.5z" />
    <glyph glyph-name="uni0436.aalt" horiz-adv-x="808" 
d="M345 755h120v-467l192 250h137l-208 -261l230 -277h-150l-201 245v-245h-120v245l-201 -245h-150l227 272l-211 266h144l191 -250v467z" />
    <glyph glyph-name="uni0437.aalt" horiz-adv-x="474" 
d="M14 -168v102q83 -43 166 -43q65 0 104.5 32.5t39.5 93.5q0 56 -32.5 88.5t-96.5 32.5h-75v97h72q54 0 85 29t31 81q0 51 -30.5 79.5t-88.5 29.5q-43 0 -82.5 -10.5t-80.5 -31.5v101q83 38 171 38q98 0 161 -50.5t63 -142.5q0 -55 -25 -96.5t-73 -66.5q57 -18 89 -64.5
t32 -112.5q0 -72 -33 -122.5t-90.5 -76t-130.5 -25.5q-91 0 -176 38z" />
    <glyph glyph-name="uni0438.aalt" horiz-adv-x="585" 
d="M400 73q-24 -40 -65.5 -63t-96.5 -23q-177 0 -177 209v342h119v-313q0 -68 19.5 -104t78.5 -36q64 0 93 44.5t29 122.5v286h119v-538h-119v73z" />
    <glyph glyph-name="uni0439.aalt" horiz-adv-x="585" 
d="M400 73q-24 -40 -65.5 -63t-96.5 -23q-177 0 -177 209v342h119v-313q0 -68 19.5 -104t78.5 -36q64 0 93 44.5t29 122.5v286h119v-538h-119v73zM125 755h87q3 -26 22 -41t56 -15t56.5 15.5t22.5 40.5h86q-6 -55 -46 -89t-120 -34q-78 0 -118.5 34t-45.5 89z" />
    <glyph glyph-name="uni043A.aalt" horiz-adv-x="529" 
d="M66 0v755h119v-467l199 250h137l-212 -261l234 -277h-150l-208 245v-245h-119z" />
    <glyph glyph-name="uni043B.aalt" horiz-adv-x="511" 
d="M508 0h-126l-126 400l-129 -400h-122l190 538h120z" />
    <glyph glyph-name="uni043F.aalt" horiz-adv-x="591" 
d="M185 463q24 41 65.5 63.5t97.5 22.5q183 0 183 -210v-339h-119v311q0 66 -21.5 103t-81.5 37q-64 0 -94 -44.5t-30 -121.5v-285h-119v538h119v-75z" />
    <glyph glyph-name="uni0442.aalt" horiz-adv-x="912" 
d="M185 0h-119v538h119v-75q24 40 63.5 63t91.5 23q111 0 154 -91q62 91 178 91q179 0 179 -210v-339h-119v313q0 65 -19 101.5t-79 36.5q-61 0 -88.5 -44.5t-27.5 -121.5v-285h-119v313q0 65 -19 101.5t-79 36.5q-61 0 -88.5 -44.5t-27.5 -121.5v-285z" />
    <glyph glyph-name="uni0446.aalt" horiz-adv-x="615" 
d="M589 -144h-113v144h-76v80q-23 -44 -63 -68.5t-99 -24.5q-177 0 -177 209v342h119v-313q0 -68 19.5 -104t78.5 -36q64 0 93 44.5t29 122.5v286h119v-441h70v-241z" />
    <glyph glyph-name="uni0448.aalt" horiz-adv-x="912" 
d="M846 538v-538h-119v73q-24 -40 -63.5 -63t-91.5 -23q-111 0 -154 91q-31 -47 -75 -69t-104 -22q-178 0 -178 209v342h119v-315q0 -65 19 -101.5t78 -36.5q62 0 89.5 44.5t27.5 121.5v287h119v-315q0 -65 19 -101.5t78 -36.5q62 0 89.5 44.5t27.5 121.5v287h119z" />
    <glyph glyph-name="uni0449.aalt" horiz-adv-x="942" 
d="M803 -144v144h-75v80q-22 -44 -61.5 -68.5t-94.5 -24.5q-111 0 -154 91q-31 -47 -75 -69t-104 -22q-178 0 -178 209v342h119v-315q0 -65 19 -101.5t78 -36.5q62 0 89.5 44.5t27.5 121.5v287h119v-315q0 -65 19 -101.5t78 -36.5q62 0 89.5 44.5t27.5 121.5v287h119v-441
h70v-241h-113z" />
    <glyph glyph-name="uni044E.aalt" horiz-adv-x="822" 
d="M789 268q0 -92 -36.5 -155.5t-96 -94.5t-128.5 -31q-62 0 -116.5 27t-91.5 81t-45 132h-90v-227h-119v755h119v-431h92q11 74 47.5 124.5t90 75.5t113.5 25q69 0 128.5 -31.5t96 -95t36.5 -154.5zM666 268q0 90 -38 137t-100 47q-60 0 -96 -46.5t-36 -137.5
q0 -90 36 -137t96 -47q62 0 100 47.5t38 136.5z" />
    <glyph glyph-name="uni044C.aalt" horiz-adv-x="533" 
d="M294 363q110 0 163 -46t53 -138q0 -95 -58.5 -142.5t-169.5 -47.5q-109 0 -165 46.5t-56 150.5v352h119v-175h114zM390 177q0 49 -26.5 69t-82.5 20h-101v-80q0 -56 25.5 -78.5t84.5 -22.5q49 0 74.5 23t25.5 69z" />
    <glyph glyph-name="uni044A.aalt" horiz-adv-x="616" 
d="M144 186v255h-132v97h252v-175h113q217 0 217 -184q0 -95 -58.5 -142.5t-169.5 -47.5q-110 0 -166 46.5t-56 150.5zM474 177q0 50 -26.5 69.5t-83.5 19.5h-100v-80q0 -56 25.5 -78.5t84.5 -22.5q49 0 74.5 23t25.5 69z" />
    <glyph glyph-name="uni0431.aalt" horiz-adv-x="590" 
d="M163 480q-99 44 -99 132q0 64 50.5 99t165.5 35q108 0 151 2.5t74 9.5v-102q-25 -7 -70.5 -9t-148.5 -2q-58 0 -82.5 -11t-24.5 -39q0 -26 26 -43.5t104 -26.5q248 -28 248 -266q0 -87 -35.5 -148.5t-95.5 -92.5t-133 -31t-132 30.5t-94 92t-35 148.5q0 81 34.5 134.5
t96.5 87.5zM294 85q63 0 101.5 44.5t38.5 127.5q0 82 -38.5 127t-100.5 45q-60 0 -100 -45t-40 -128q0 -80 38.5 -125.5t100.5 -45.5z" />
    <glyph glyph-name="uniF6D4" unicode="&#xf6d4;" horiz-adv-x="392" 
d="M31 755h87q3 -26 22 -41t56 -15t56.5 15.5t22.5 40.5h86q-6 -55 -46 -89t-120 -34q-78 0 -118.5 34t-45.5 89z" />
    <glyph glyph-name="uniF6D1" unicode="&#xf6d1;" horiz-adv-x="373" 
d="M351 886q-12 -118 -166 -118q-74 0 -116 30t-47 88h90q4 -26 22 -39t52 -13q67 0 76 52h89z" />
    <glyph glyph-name="uni20BD" unicode="&#x20bd;" horiz-adv-x="689" 
d="M256 282v-71h232v-70h-232v-141h-127v141h-84v70h84v71h-84v70h84v373h209q152 0 233 -50t81 -177q0 -114 -78 -165t-224 -51h-94zM349 364q85 0 129 31t44 106q0 71 -46.5 96.5t-131.5 25.5h-88v-259h93z" />
    <glyph glyph-name="uni20B4" unicode="&#x20b4;" horiz-adv-x="662" 
d="M574 551q0 -24 -7.5 -46t-20.5 -37h79v-70h-590v70h372q47 28 47 76q0 43 -39.5 64.5t-100.5 21.5q-46 0 -92.5 -9.5t-84.5 -27.5v114q86 31 190 31q71 0 127 -22.5t88 -65t32 -99.5zM91 189q0 40 15 68h-71v70h590v-70h-386q-24 -25 -24 -62q0 -47 41 -73.5t119 -26.5
q56 0 101.5 14.5t90.5 41.5v-121q-35 -20 -87 -31.5t-118 -11.5q-79 0 -140.5 25t-96 70.5t-34.5 106.5z" />
    <glyph glyph-name="uni20B8" unicode="&#x20b8;" horiz-adv-x="631" 
d="M603 655h-576v70h576v-70zM379 0h-127v479h-225v105h576v-105h-224v-479z" />
    <glyph glyph-name="pi" unicode="&#x3c0;" horiz-adv-x="656" 
d="M215 0h-112v431h-80v107h596v-107h-81v-269q0 -29 3 -42t13.5 -18t35.5 -5h32v-97h-50q-59 0 -89.5 11.5t-43.5 43.5t-13 95v281h-211v-431z" />
    <glyph glyph-name="mu" unicode="&#xb5;" horiz-adv-x="597" 
d="M58 -175q12 63 12 166v547h120v-312q0 -72 21.5 -106t77.5 -34q63 0 92 44t29 120v288h119v-538h-119v64q-23 -38 -53.5 -56.5t-64.5 -18.5q-73 0 -108 57v-48q0 -112 -12 -173h-114z" />
    <glyph glyph-name="mu" unicode="&#x3bc;" horiz-adv-x="597" 
d="M58 -175q12 63 12 166v547h120v-312q0 -72 21.5 -106t77.5 -34q63 0 92 44t29 120v288h119v-538h-119v64q-23 -38 -53.5 -56.5t-64.5 -18.5q-73 0 -108 57v-48q0 -112 -12 -173h-114z" />
    <glyph glyph-name="ellipsis" unicode="&#x2026;" horiz-adv-x="730" 
d="M184 136v-136h-135v136h135zM432 136v-136h-135v136h135zM680 136v-136h-135v136h135z" />
    <glyph glyph-name="endash" unicode="&#x2013;" horiz-adv-x="545" 
d="M492 323v-106h-439v106h439z" />
    <glyph glyph-name="emdash" unicode="&#x2014;" horiz-adv-x="785" 
d="M732 323v-106h-679v106h679z" />
    <glyph glyph-name="guilsinglleft" unicode="&#x2039;" horiz-adv-x="343" 
d="M310 43h-114l-159 230l159 229h114l-135 -229z" />
    <glyph glyph-name="guilsinglright" unicode="&#x203a;" horiz-adv-x="342" 
d="M147 502l159 -229l-159 -230h-114l135 230l-135 229h114z" />
    <glyph glyph-name="quoteleft" unicode="&#x2018;" horiz-adv-x="232" 
d="M123 572h60v-135h-139v145l74 143h70z" />
    <glyph glyph-name="quoteright" unicode="&#x2019;" horiz-adv-x="225" 
d="M112 590h-61v135h139v-145l-74 -143h-70z" />
    <glyph glyph-name="quotedblleft" unicode="&#x201c;" horiz-adv-x="421" 
d="M123 572h60v-135h-139v145l74 143h70zM312 572h60v-135h-139v145l74 143h70z" />
    <glyph glyph-name="quotedblright" unicode="&#x201d;" horiz-adv-x="414" 
d="M112 590h-61v135h139v-145l-74 -143h-70zM301 590h-61v135h139v-145l-74 -143h-70z" />
    <glyph glyph-name="quotesinglbase" unicode="&#x201a;" horiz-adv-x="238" 
d="M110 0h-61v135h139v-145l-74 -143h-70z" />
    <glyph glyph-name="quotedblbase" unicode="&#x201e;" horiz-adv-x="430" 
d="M110 0h-61v135h139v-145l-74 -143h-70zM303 0h-61v135h139v-145l-74 -143h-70z" />
    <glyph glyph-name="bullet" unicode="&#x2022;" horiz-adv-x="438" 
d="M216 431q44 0 80 -20.5t57 -55t21 -76.5q0 -44 -20.5 -80.5t-57 -57t-80.5 -20.5q-41 0 -76 21t-55.5 57t-20.5 80q0 41 20.5 76t55.5 55.5t76 20.5z" />
    <glyph glyph-name="dagger" unicode="&#x2020;" horiz-adv-x="411" 
d="M251 537v-221h-90v221h-124v76h124v112h90v-112h123v-76h-123z" />
    <glyph glyph-name="daggerdbl" unicode="&#x2021;" horiz-adv-x="436" 
d="M263 391v-111h-89v111h-125v77h125v69h-125v76h125v112h89v-112h124v-76h-124v-69h124v-77h-124z" />
    <glyph glyph-name="perthousand" unicode="&#x2030;" horiz-adv-x="1349" 
d="M26 520q0 99 44.5 155.5t128.5 56.5q83 0 127.5 -56.5t44.5 -155.5q0 -98 -44.5 -154.5t-127.5 -56.5q-84 0 -128.5 56.5t-44.5 154.5zM266 520q0 136 -67 136q-35 0 -52 -33.5t-17 -102.5q0 -68 17 -101t52 -33q67 0 67 134zM573 203q0 99 44.5 155.5t128.5 56.5
q83 0 127.5 -56.5t44.5 -155.5q0 -98 -44.5 -154.5t-127.5 -56.5q-84 0 -128.5 56.5t-44.5 154.5zM813 203q0 136 -67 136q-35 0 -52 -33.5t-17 -102.5q0 -68 17 -101t52 -33q67 0 67 134zM789 725l-511 -725h-122l510 725h123zM974 203q0 99 44.5 155.5t128.5 56.5
q83 0 127.5 -56.5t44.5 -155.5q0 -98 -44.5 -154.5t-127.5 -56.5q-84 0 -128.5 56.5t-44.5 154.5zM1214 203q0 136 -67 136q-35 0 -52 -33.5t-17 -102.5q0 -68 17 -101t52 -33q67 0 67 134z" />
    <glyph glyph-name="uni2113" unicode="&#x2113;" horiz-adv-x="504" 
d="M142 168v23l-72 -52l-46 69l118 88v231q0 210 175 210q74 0 115.5 -42t41.5 -113q0 -87 -49.5 -154t-150.5 -140l-13 -10v-98q0 -52 18 -72.5t53 -20.5q49 0 94 40l47 -77q-29 -26 -71 -44.5t-91 -18.5q-83 0 -126 43.5t-43 137.5zM261 385l7 5q100 77 100 185
q0 36 -14 53.5t-39 17.5q-29 0 -41.5 -20.5t-12.5 -70.5v-170z" />
    <glyph glyph-name="uni2116" unicode="&#x2116;" horiz-adv-x="1094" 
d="M677 725v-725h-172l-306 579v-579h-122v725h171l307 -579v579h122zM739 580q0 77 45.5 117.5t113.5 40.5t113.5 -40.5t45.5 -117.5q0 -78 -45.5 -118t-113.5 -40t-113.5 40t-45.5 118zM959 580q0 41 -16.5 63t-44.5 22q-27 0 -44 -22t-17 -63q0 -42 17 -64t44 -22
q28 0 44.5 22t16.5 64zM1046 360v-96h-296v96h296z" />
    <glyph glyph-name="uni2117" unicode="&#x2117;" horiz-adv-x="855" 
d="M428 739q107 0 194 -48t137 -134.5t50 -195.5q0 -108 -50 -193.5t-137 -133.5t-194 -48t-194.5 48t-137.5 133.5t-50 193.5q0 109 50 195.5t137.5 134.5t194.5 48zM428 68q84 0 149.5 36.5t102 103t36.5 153.5q0 88 -36.5 155t-102 104t-149.5 37q-83 0 -148.5 -37
t-103 -104.5t-37.5 -154.5q0 -86 37.5 -153t103 -103.5t148.5 -36.5zM382 305v-134h-93v389h143q81 0 128 -28t47 -99q0 -128 -170 -128h-55zM443 488h-61v-111h61q68 0 68 56q0 26 -16.5 40.5t-51.5 14.5z" />
    <glyph glyph-name="trademark" unicode="&#x2122;" horiz-adv-x="908" 
d="M152 647h-127v78h348v-78h-128v-321h-93v321zM628 532l86 193h127v-399h-93v293l-81 -187h-82l-82 189v-295h-93v399h133z" />
    <glyph glyph-name="lozenge" unicode="&#x25ca;" horiz-adv-x="576" 
d="M290 -89l-262 428l262 428l256 -428zM430 339l-139 233l-140 -233l140 -233z" />
    <glyph glyph-name="estimated" unicode="&#x212e;" horiz-adv-x="600" 
d="M554 151q-26 -74 -87 -119t-154 -45q-85 0 -146 37t-92 101t-31 144q0 82 32.5 145.5t92.5 99t139 35.5q81 0 139.5 -38t89 -101.5t31.5 -139.5h-409v-193q23 -25 68 -40.5t94 -15.5q69 0 119 34t74 96h40zM159 302h293v159q-23 24 -61 38.5t-84 14.5t-85 -13.5
t-63 -38.5v-160z" />
    <glyph glyph-name="minus" unicode="&#x2212;" 
d="M64 216v106h550v-106h-550z" />
    <glyph glyph-name="lessequal" unicode="&#x2264;" 
d="M600 429l-375 -96l375 -97v-112l-526 159v99l526 161v-114zM603 0h-530v107h530v-107z" />
    <glyph glyph-name="greaterequal" unicode="&#x2265;" 
d="M77 236l376 97l-376 96v114l527 -161v-99l-527 -159v112zM605 107v-107h-530v107h530z" />
    <glyph glyph-name="notequal" unicode="&#x2260;" 
d="M616 460v-107h-168l-96 -168h264v-106h-324l-77 -136l-95 49l49 87h-108v106h169l95 168h-264v107h325l77 136l95 -49l-49 -87h107z" />
    <glyph glyph-name="approxequal" unicode="&#x2248;" 
d="M620 491q-5 -75 -49 -120.5t-116 -45.5q-32 0 -60.5 9.5t-65.5 26.5q-34 15 -53 21.5t-40 6.5q-31 0 -50.5 -17.5t-22.5 -47.5h-105q5 75 49 120.5t116 45.5q32 0 60.5 -9.5t65.5 -26.5q34 -15 53.5 -21.5t39.5 -6.5q31 0 50.5 17t22.5 48h105zM620 212
q-5 -75 -49 -120.5t-116 -45.5q-32 0 -58.5 9t-67.5 27q-31 15 -51.5 22t-41.5 7q-31 0 -50.5 -17.5t-22.5 -48.5h-105q5 76 49 121.5t116 45.5q32 0 58.5 -9t67.5 -27q31 -15 51.5 -22t41.5 -7q31 0 50.5 17.5t22.5 47.5h105z" />
    <glyph glyph-name="partialdiff" unicode="&#x2202;" horiz-adv-x="586" 
d="M22 261q0 82 30.5 143.5t84.5 94.5t121 33q102 0 152 -76l1 1q-14 53 -53.5 95.5t-95.5 67.5t-119 26v100q127 -4 219 -62.5t139.5 -155t47.5 -212.5q0 -159 -69.5 -244t-198.5 -85q-79 0 -137.5 33t-90 95t-31.5 146zM283 435q-66 0 -102 -45.5t-36 -128.5
q0 -84 35.5 -130t102.5 -46q63 0 101.5 44.5t38.5 131.5q0 86 -38.5 130t-101.5 44z" />
    <glyph glyph-name="product" unicode="&#x220f;" horiz-adv-x="692" 
d="M190 619v-794h-116v900h544v-900h-116v794h-312z" />
    <glyph glyph-name="radical" unicode="&#x221a;" horiz-adv-x="566" 
d="M28 123l-45 100l179 81l134 -317l144 738h115l-188 -900h-114l-148 333z" />
    <glyph glyph-name="summation" unicode="&#x2211;" horiz-adv-x="599" 
d="M27 -175v97l272 352l-270 353v97h542v-106h-398l266 -344l-269 -343h401v-106h-544z" />
    <glyph glyph-name="integral" unicode="&#x222b;" horiz-adv-x="390" 
d="M135 442q0 163 45.5 228.5t121.5 65.5q40 0 68 -20t28 -58q0 -26 -15.5 -42t-40.5 -16q-21 0 -37 14.5t-16 40.5q0 8 4 26q-26 -4 -36 -35t-10 -88q0 -30 3 -65q5 -87 5 -154v-232q0 -160 -43.5 -224t-119.5 -64q-42 0 -71 20t-29 58q0 25 15.5 41.5t40.5 16.5
q22 0 37.5 -14.5t15.5 -40.5q0 -10 -4 -26q26 3 35 33.5t9 88.5q0 14 -2 66q-4 72 -4 128v252z" />
    <glyph glyph-name="infinity" unicode="&#x221e;" horiz-adv-x="806" 
d="M762 256q0 -75 -49 -121.5t-127 -46.5q-55 0 -98.5 25.5t-83.5 70.5q-41 -44 -85 -69.5t-99 -25.5q-78 0 -127 46.5t-49 120.5q0 48 23 86t64 59t94 21q52 0 95.5 -24.5t82.5 -66.5q41 46 83.5 68.5t97.5 22.5q51 0 91.5 -21t63.5 -59t23 -86zM343 257q-28 33 -55.5 51.5
t-60.5 18.5q-35 0 -58.5 -20t-23.5 -51t22.5 -52t57.5 -21q33 0 59.5 17.5t58.5 56.5zM465 256q29 -35 56.5 -54t60.5 -19q34 0 56.5 21t22.5 52q0 30 -23.5 50.5t-60.5 20.5q-31 0 -57 -18.5t-55 -52.5z" />
    <glyph glyph-name="uni0394" unicode="&#x394;" horiz-adv-x="737" 
d="M19 0l349 734l350 -734h-699zM555 103l-187 392l-187 -392h374z" />
    <glyph glyph-name="uni0394" unicode="&#x2206;" horiz-adv-x="737" 
d="M19 0l349 734l350 -734h-699zM555 103l-187 392l-187 -392h374z" />
    <glyph glyph-name="uni03A9" unicode="&#x3a9;" horiz-adv-x="799" 
d="M754 424q0 -93 -54 -168.5t-140 -105.5v-43h194v-107h-306v216q56 8 99 38.5t66 75.5t23 97q0 62 -29.5 111t-83 77t-123.5 28t-124 -28t-83.5 -77t-29.5 -111q0 -52 23 -97t66 -75.5t100 -38.5v-216h-306v107h194v43q-86 30 -140.5 105.5t-54.5 168.5q0 98 49.5 169
t130.5 108t175 37q93 0 174 -37t130.5 -108t49.5 -169z" />
    <glyph glyph-name="uni03A9" unicode="&#x2126;" horiz-adv-x="799" 
d="M754 424q0 -93 -54 -168.5t-140 -105.5v-43h194v-107h-306v216q56 8 99 38.5t66 75.5t23 97q0 62 -29.5 111t-83 77t-123.5 28t-124 -28t-83.5 -77t-29.5 -111q0 -52 23 -97t66 -75.5t100 -38.5v-216h-306v107h194v43q-86 30 -140.5 105.5t-54.5 168.5q0 98 49.5 169
t130.5 108t175 37q93 0 174 -37t130.5 -108t49.5 -169z" />
    <glyph glyph-name="Euro" unicode="&#x20ac;" horiz-adv-x="769" 
d="M289 324h287l-50 -74h-222q26 -79 88 -119t145 -40q92 0 182 45v-111q-40 -17 -91.5 -27.5t-102.5 -10.5q-140 0 -229 71t-118 192h-145l50 74h84q-1 13 -1 38q0 23 1 35h-134l50 74h95q29 127 123 197t224 70q53 0 105.5 -9.5t88.5 -27.5v-110q-86 43 -182 43
q-84 0 -146.5 -41t-87.5 -122h361l-50 -74h-325q-1 -11 -1 -35q0 -26 1 -38z" />
    <glyph glyph-name="uniFB01" unicode="&#xfb01;" horiz-adv-x="586" 
d="M400 0v538h119v-538h-119zM97 590q0 84 41 126t128 42q41 0 82 -7v-93q-35 6 -59 6q-37 0 -55 -18.5t-18 -61.5v-46h125v-86h-125v-452h-119v452h-76v86h76v52zM400 634v121h119v-121h-119z" />
    <glyph glyph-name="uniFB02" unicode="&#xfb02;" horiz-adv-x="586" 
d="M97 590q0 84 41 126t128 42q41 0 82 -7v-93q-35 6 -59 6q-37 0 -55 -18.5t-18 -61.5v-46h125v-86h-125v-452h-119v452h-76v86h76v52zM400 755h119v-755h-119v755z" />
    <glyph glyph-name="glyph531" horiz-adv-x="252" 
d="M66 634v121h119v-121h-119z" />
    <glyph glyph-name="breve" unicode="&#x2d8;" horiz-adv-x="374" 
d="M352 755q-6 -55 -46 -89t-120 -34q-78 0 -118.5 34t-45.5 89h87q3 -26 22 -41t56 -15t56.5 15.5t22.5 40.5h86z" />
    <glyph glyph-name="caron" unicode="&#x2c7;" horiz-adv-x="420" 
d="M256 639h-94l-140 116h111l77 -48l77 48h111z" />
    <glyph glyph-name="circumflex" unicode="&#x2c6;" horiz-adv-x="420" 
d="M163 755h95l140 -116h-111l-77 48l-77 -48h-111z" />
    <glyph glyph-name="dotaccent" unicode="&#x2d9;" horiz-adv-x="149" 
d="M22 646v109h105v-109h-105z" />
    <glyph glyph-name="glyph536" horiz-adv-x="149" 
d="M22 -175v104h105v-104h-105z" />
    <glyph glyph-name="hungarumlaut" unicode="&#x2dd;" horiz-adv-x="457" 
d="M115 755h141l-142 -116h-92zM294 755h141l-141 -116h-92z" />
    <glyph glyph-name="ogonek" unicode="&#x2db;" horiz-adv-x="255" 
d="M219 0q-46 -21 -69 -39t-23 -39q0 -18 13.5 -26.5t35.5 -8.5q23 0 42 6v-74q-29 -7 -67 -7q-54 0 -91.5 22t-37.5 69q0 60 77 97h120z" />
    <glyph glyph-name="ring" unicode="&#x2da;" horiz-adv-x="230" 
d="M214 709q0 -40 -29 -66.5t-70 -26.5t-70 26.5t-29 66.5q0 41 29 67.5t70 26.5t70 -26.5t29 -67.5zM72 709q0 -18 12.5 -30t30.5 -12t31 12t13 30t-13 30.5t-31 12.5t-30.5 -12.5t-12.5 -30.5z" />
    <glyph glyph-name="tilde" unicode="&#x2dc;" horiz-adv-x="436" 
d="M331 757h81q-10 -59 -43 -88t-80 -29q-23 0 -42.5 7t-40.5 20q-19 10 -30 14.5t-24 4.5q-40 0 -48 -44h-80q10 57 42 87t81 30q24 0 41.5 -6.5t37.5 -19.5q19 -10 30.5 -15t25.5 -5q41 0 49 44z" />
    <glyph glyph-name="uni032C" unicode="&#x32c;" horiz-adv-x="0" 
d="M-176 -138h-73l-151 138h113l75 -60l78 60h112z" />
    <glyph glyph-name="glyph542" horiz-adv-x="191" 
d="M52 755h117l-70 -170h-77z" />
    <glyph glyph-name="uni0326" unicode="&#x326;" horiz-adv-x="0" 
d="M-88 -132h-36v96h102v-102l-44 -89h-61z" />
    <glyph glyph-name="zero.zero" horiz-adv-x="660" 
d="M42 364q0 172 73.5 273t214.5 101t214.5 -101t73.5 -273q0 -174 -73.5 -275.5t-214.5 -101.5t-214.5 101.5t-73.5 275.5zM166 364v-24l319 134q-15 84 -54.5 127.5t-100.5 43.5q-79 0 -121.5 -72t-42.5 -209zM494 364v18l-319 -133q15 -83 54.5 -126t100.5 -43
q79 0 121.5 72.5t42.5 211.5z" />
    <glyph glyph-name="one.oldstyle" horiz-adv-x="517" 
d="M341 101h166v-101h-465v101h179v378h-179v81q62 2 100 8.5t66 26t45 57.5h88v-551z" />
    <glyph glyph-name="two.oldstyle" horiz-adv-x="540" 
d="M493 487q0 -64 -37 -123t-94.5 -111.5t-162.5 -136.5l-18 -15h321v-101h-473v99q130 104 195 160t105 110t40 102q0 44 -33 66.5t-91 22.5q-86 0 -186 -55v114q33 17 89.5 30.5t113.5 13.5q103 0 167 -46t64 -130z" />
    <glyph glyph-name="three.oldstyle" horiz-adv-x="541" 
d="M378 188q0 55 -51 81.5t-134 26.5h-23v88h19q81 0 126.5 25t45.5 72q0 43 -38 62.5t-97 19.5q-45 0 -92 -14t-86 -36v112q36 16 88.5 27t106.5 11q102 0 171 -43t69 -129q0 -47 -28.5 -85.5t-75.5 -59.5q61 -22 92 -65t31 -96q0 -64 -36 -108.5t-96.5 -67t-132.5 -22.5
q-54 0 -106.5 10.5t-88.5 26.5v111q39 -21 86.5 -34t93.5 -13q71 0 113.5 25t42.5 75z" />
    <glyph glyph-name="four.oldstyle" horiz-adv-x="607" 
d="M471 257h116v-106h-116v-151h-119v151h-337v98l340 403h116v-395zM352 257v241l-206 -241h206z" />
    <glyph glyph-name="five.oldstyle" horiz-adv-x="539" 
d="M386 208q0 59 -45 89.5t-118 30.5q-45 0 -84 -8.5t-83 -26.5l35 359h382v-104h-286l-12 -133q52 10 83 10q63 0 119 -22t92 -70.5t36 -124.5q0 -71 -37.5 -121t-100.5 -75t-139 -25q-53 0 -103.5 10.5t-85.5 26.5v112q38 -21 84.5 -34.5t92.5 -13.5q76 0 123 30t47 90z
" />
    <glyph glyph-name="six.oldstyle" horiz-adv-x="583" 
d="M158 362q23 33 65 53t99 20q64 0 116.5 -27.5t83 -79t30.5 -118.5q0 -64 -32 -115t-89.5 -79.5t-130.5 -28.5q-129 0 -194 85.5t-65 233.5q0 110 40 191t113.5 124t171.5 43q78 0 140 -18v-111q-68 26 -142 26q-86 0 -143.5 -47t-62.5 -152zM300 81q56 0 93 36t37 93
q0 56 -37.5 92.5t-92.5 36.5t-93.5 -36.5t-38.5 -92.5q0 -57 38 -93t94 -36z" />
    <glyph glyph-name="seven.oldstyle" horiz-adv-x="534" 
d="M22 548v104h495v-102q-93 -83 -152 -162.5t-92 -173.5t-39 -214h-134q8 167 83.5 301.5t204.5 246.5h-366z" />
    <glyph glyph-name="eight.oldstyle" horiz-adv-x="593" 
d="M533 494q0 -44 -21 -82.5t-64 -62.5q105 -54 105 -163q0 -62 -33.5 -106.5t-91.5 -68t-131 -23.5q-74 0 -132.5 23.5t-92 68t-33.5 106.5q0 109 106 163q-42 24 -63.5 62.5t-21.5 82.5q0 48 29 86.5t83 60.5t125 22t124.5 -22t82.5 -60.5t29 -86.5zM297 568
q-55 0 -87.5 -23.5t-32.5 -63.5t33 -66.5t87 -26.5q53 0 86 26.5t33 66.5t-32.5 63.5t-86.5 23.5zM162 191q0 -48 36.5 -77.5t98.5 -29.5q61 0 97.5 29.5t36.5 77.5t-36.5 77.5t-97.5 29.5q-62 0 -98.5 -29.5t-36.5 -77.5z" />
    <glyph glyph-name="nine.oldstyle" horiz-adv-x="582" 
d="M424 289q-24 -34 -66 -54t-99 -20q-64 0 -116.5 28t-82.5 79t-30 118q0 64 31.5 115t89 79.5t130.5 28.5q130 0 195 -85.5t65 -233.5q0 -110 -40 -191t-114 -124t-172 -43q-77 0 -139 18v112q69 -27 142 -27q85 0 142.5 47t63.5 153zM282 570q-56 0 -93.5 -36.5
t-37.5 -93.5q0 -56 37.5 -92t92.5 -36q56 0 94 36t38 92q0 58 -37.5 94t-93.5 36z" />
    <glyph glyph-name="zero.oldstyle" horiz-adv-x="632" 
d="M41 327q0 157 70 246.5t205 89.5t205 -89.5t70 -246.5t-70 -248t-205 -91t-205 91t-70 248zM468 327q0 120 -39.5 180.5t-112.5 60.5t-112.5 -60.5t-39.5 -180.5t39.5 -181.5t112.5 -61.5t112.5 61.5t39.5 181.5z" />
    <glyph glyph-name="zero.oldstyle.zero" horiz-adv-x="632" 
d="M41 327q0 157 70 246.5t205 89.5t205 -89.5t70 -246.5t-70 -248t-205 -91t-205 91t-70 248zM164 327v-13l293 123q-16 65 -51.5 98t-89.5 33q-73 0 -112.5 -60.5t-39.5 -180.5zM468 327v19l-294 -123q14 -69 50.5 -104t91.5 -35q73 0 112.5 61.5t39.5 181.5z" />
    <glyph glyph-name="one.tnum" 
d="M416 103h179v-103h-484v103h185v446h-184v81q63 2 102.5 8.5t68 25.5t45.5 57h88v-618z" />
    <glyph glyph-name="two.tnum" 
d="M567 542q0 -73 -42.5 -143.5t-109 -135.5t-178.5 -159h349v-104h-500v100q127 107 200.5 176t116.5 131.5t43 116.5q0 53 -35 82t-97 29q-91 0 -197 -61v114q36 20 95 35t120 15q105 0 170 -51.5t65 -144.5z" />
    <glyph glyph-name="three.tnum" 
d="M453 207q0 63 -53.5 93t-140.5 30h-24v98h20q86 0 133 28.5t47 83.5q0 48 -41.5 71.5t-99.5 23.5q-47 0 -96 -15.5t-90 -39.5v115q37 18 92 30.5t111 12.5q65 0 121 -20t90.5 -63t34.5 -108q0 -52 -30 -95.5t-79 -66.5q63 -24 95.5 -72t32.5 -107q0 -70 -37 -119.5
t-99 -74.5t-135 -25q-57 0 -111.5 12t-91.5 29v115q41 -23 90.5 -38t97.5 -15q73 0 118 29.5t45 87.5z" />
    <glyph glyph-name="four.tnum" 
d="M513 281h128v-104h-128v-177h-119v177h-359v98l360 450h118v-444zM394 281v289l-228 -289h228z" />
    <glyph glyph-name="five.tnum" 
d="M465 232q0 71 -47.5 106t-125.5 35q-48 0 -90 -9t-88 -28l37 389h407v-104h-307l-15 -160q46 12 88 12q67 0 127 -24t98.5 -78.5t38.5 -138.5q0 -79 -40 -134t-107 -83t-145 -28q-56 0 -110 12t-90 29v115q40 -23 90 -38t99 -15q81 0 130.5 35t49.5 107z" />
    <glyph glyph-name="six.tnum" 
d="M197 400q26 37 71 59.5t105 22.5q67 0 122 -30.5t87 -86.5t32 -130q0 -71 -33.5 -127.5t-93.5 -88.5t-137 -32q-136 0 -204.5 94.5t-68.5 259.5q0 122 42 211.5t119.5 137.5t180.5 48q79 0 146 -20v-114q-33 14 -72.5 22t-76.5 8q-88 0 -150.5 -57.5t-68.5 -176.5z
M349 80q62 0 102 42.5t40 111.5q0 67 -40 110t-101 43q-63 0 -103.5 -43t-40.5 -110q0 -68 40.5 -111t102.5 -43z" />
    <glyph glyph-name="seven.tnum" 
d="M78 621v104h521v-104q-143 -134 -216 -280.5t-84 -340.5h-135q9 183 92 341t217 280h-395z" />
    <glyph glyph-name="eight.tnum" 
d="M587 552q0 -50 -22.5 -93.5t-69.5 -71.5q60 -30 87 -77.5t27 -103.5q0 -69 -35.5 -118.5t-96.5 -75t-138 -25.5t-138.5 25.5t-97 75t-35.5 118.5q0 56 27.5 103.5t88.5 77.5q-46 26 -69.5 70.5t-23.5 94.5q0 53 30.5 95.5t86.5 66.5t131 24q74 0 130.5 -24t87 -66.5
t30.5 -95.5zM339 645q-60 0 -95.5 -29t-35.5 -78t36 -81t95 -32t95 32t36 81t-36 78t-95 29zM192 209q0 -58 40 -93.5t107 -35.5t107 35.5t40 93.5q0 59 -40 94t-107 35t-107 -35t-40 -94z" />
    <glyph glyph-name="nine.tnum" 
d="M481 325q-26 -37 -71 -59.5t-105 -22.5q-67 0 -122 30.5t-87 86.5t-32 130q0 71 33.5 127.5t93.5 88.5t137 32q136 0 204.5 -94.5t68.5 -259.5q0 -122 -42 -211.5t-119.5 -137.5t-180.5 -48q-79 0 -146 20v114q33 -14 72.5 -22t76.5 -8q88 0 150.5 57.5t68.5 176.5z
M329 645q-62 0 -102 -42.5t-40 -111.5q0 -67 40 -110t101 -43q63 0 103.5 43t40.5 110q0 68 -40.5 111t-102.5 43z" />
    <glyph glyph-name="zero.tnum" 
d="M51 364q0 172 73.5 273t214.5 101t214.5 -101t73.5 -273q0 -174 -73.5 -275.5t-214.5 -101.5t-214.5 101.5t-73.5 275.5zM503 364q0 137 -42.5 209t-121.5 72t-121.5 -72t-42.5 -209q0 -138 42.5 -211t121.5 -73t121.5 72.5t42.5 211.5z" />
    <glyph glyph-name="zero.tnum.zero" 
d="M52 364q0 173 73 273.5t215 100.5q141 0 214 -100.5t73 -273.5q0 -174 -73 -275.5t-214 -101.5q-142 0 -215 101.5t-73 275.5zM175 340l320 134q-16 84 -55.5 127.5t-99.5 43.5q-79 0 -122 -72t-43 -209v-24zM504 364q0 15 -1 19l-318 -134q15 -83 54.5 -126t100.5 -43
q79 0 121.5 73t42.5 211z" />
    <glyph glyph-name="one.case" horiz-adv-x="526" 
d="M347 101h166v-101h-472v101h179v451h-179v81q62 2 100 8.5t66 26t45 57.5h95v-624z" />
    <glyph glyph-name="two.case" horiz-adv-x="565" 
d="M518 542q0 -73 -42.5 -143t-108 -133.5t-180.5 -159.5h341v-106h-500v102q127 107 200 175.5t115.5 130.5t42.5 116q0 53 -34 79.5t-95 26.5q-93 0 -197 -61v119q36 20 95 35t120 15q107 0 175 -51.5t68 -144.5z" />
    <glyph glyph-name="three.case" horiz-adv-x="566" 
d="M393 207q0 63 -53.5 92.5t-141.5 29.5h-23v100h19q86 0 133 28t47 83q0 45 -41.5 67.5t-99.5 22.5q-46 0 -95.5 -15.5t-90.5 -39.5v120q38 18 92.5 30.5t111.5 12.5q109 0 182 -47.5t73 -143.5q0 -52 -30 -95.5t-79 -66.5q63 -24 95.5 -72t32.5 -107q0 -70 -37.5 -119.5
t-101.5 -74.5t-142 -25q-56 0 -111 12t-92 29v120q41 -23 90.5 -38t97.5 -15q73 0 118.5 29t45.5 83z" />
    <glyph glyph-name="four.case" horiz-adv-x="650" 
d="M504 284h124v-111h-124v-173h-128v173h-357v103l361 449h124v-441zM376 284v273l-218 -273h218z" />
    <glyph glyph-name="five.case" horiz-adv-x="568" 
d="M406 232q0 69 -47.5 103.5t-124.5 34.5q-47 0 -88.5 -9t-88.5 -29l37 393h402v-106h-298l-15 -157q48 11 87 11q68 0 128.5 -23.5t99.5 -77t39 -138.5q0 -79 -40.5 -135t-108.5 -84t-150 -28q-56 0 -109 12t-89 29v120q40 -23 89.5 -38t97.5 -15q80 0 129.5 33.5
t49.5 103.5z" />
    <glyph glyph-name="six.case" horiz-adv-x="613" 
d="M162 400q25 37 70 59.5t105 22.5q67 0 123.5 -30.5t89.5 -86.5t33 -130q0 -71 -34 -127.5t-95 -88.5t-138 -32q-137 0 -206 95.5t-69 257.5q0 122 42 212t119.5 138t180.5 48q83 0 152 -20v-119q-33 14 -74.5 22t-79.5 8q-90 0 -151.5 -55t-67.5 -174zM316 89
q59 0 97.5 40t38.5 105q0 64 -38 104.5t-97 40.5q-60 0 -99 -40.5t-39 -104.5t38.5 -104.5t98.5 -40.5z" />
    <glyph glyph-name="seven.case" horiz-adv-x="563" 
d="M19 619v106h524v-106q-146 -134 -217 -278t-82 -341h-142q8 184 91 341.5t220 277.5h-394z" />
    <glyph glyph-name="eight.case" horiz-adv-x="626" 
d="M564 551q0 -49 -22 -92t-68 -71q59 -31 85 -78t26 -102q0 -68 -35.5 -118t-97.5 -76.5t-139 -26.5q-78 0 -140 26.5t-97.5 76.5t-35.5 118q0 55 26.5 102t85.5 78q-44 25 -67 69.5t-23 92.5q0 53 31 96t88 67.5t132 24.5t132 -24.5t88 -67.5t31 -95zM313 635
q-58 0 -92 -27t-34 -71q0 -46 34.5 -76t91.5 -30q56 0 91 30t35 76q0 44 -34.5 71t-91.5 27zM171 212q0 -54 38.5 -87.5t103.5 -33.5t103.5 33.5t38.5 87.5t-38.5 87.5t-103.5 33.5t-103.5 -33.5t-38.5 -87.5z" />
    <glyph glyph-name="nine.case" horiz-adv-x="614" 
d="M451 325q-25 -37 -70 -59.5t-105 -22.5q-67 0 -123.5 30.5t-89.5 86.5t-33 130q0 71 34 127.5t95 88.5t138 32q137 0 206 -95.5t69 -257.5q0 -122 -42 -212t-119.5 -138t-180.5 -48q-83 0 -152 20v119q33 -14 74.5 -22t79.5 -8q90 0 151.5 55t67.5 174zM297 636
q-59 0 -97.5 -40t-38.5 -105q0 -64 38 -104.5t97 -40.5q60 0 99 40.5t39 104.5t-38.5 104.5t-98.5 40.5z" />
    <glyph glyph-name="zero.case" horiz-adv-x="668" 
d="M42 364q0 173 74.5 273.5t217.5 100.5t217.5 -100.5t74.5 -273.5q0 -172 -75 -274.5t-217 -102.5t-217 102.5t-75 274.5zM495 364q0 132 -43 201.5t-118 69.5t-117.5 -69.5t-42.5 -201.5t42.5 -202.5t117.5 -70.5t118 71t43 202z" />
    <glyph glyph-name="zero.case.zero" horiz-adv-x="668" 
d="M42 364q0 173 74.5 273.5t217.5 100.5t217.5 -100.5t74.5 -273.5q0 -172 -75 -274.5t-217 -102.5t-217 102.5t-75 274.5zM174 342l312 130q-16 80 -55 121.5t-97 41.5q-75 0 -117.5 -69.5t-42.5 -201.5v-22zM495 364v17l-311 -130q16 -78 54.5 -119t95.5 -41q75 0 118 71
t43 202z" />
    <glyph glyph-name="uni21B2" unicode="&#x21b2;" horiz-adv-x="838" 
d="M349 -42l-311 312l311 312l72 -74l-190 -185h440v402h107v-510h-544l187 -183z" />
    <glyph glyph-name="uni21B3" unicode="&#x21b3;" horiz-adv-x="838" 
d="M489 582l311 -312l-311 -312l-72 74l187 183h-544v510h107v-402h439l-189 185z" />
    <glyph glyph-name="uni21B0" unicode="&#x21b0;" horiz-adv-x="828" 
d="M345 -42l-311 312l311 312l72 -74l-189 -185h546v-498h-107v390h-437l187 -183z" />
    <glyph glyph-name="uni21B1" unicode="&#x21b1;" horiz-adv-x="828" 
d="M482 582l311 -312l-311 -312l-72 74l188 183h-438v-390h-107v498h546l-189 185z" />
    <glyph glyph-name="arrowleft" unicode="&#x2190;" horiz-adv-x="816" 
d="M341 -42l-311 312l311 312l72 -74l-190 -185h555v-108h-552l187 -183z" />
    <glyph glyph-name="arrowup" unicode="&#x2191;" 
d="M27 425l312 312l312 -312l-73 -72l-186 189v-542h-107v542l-186 -189z" />
    <glyph glyph-name="arrowright" unicode="&#x2192;" horiz-adv-x="816" 
d="M475 582l311 -312l-311 -312l-72 74l187 183h-552v108h554l-189 185z" />
    <glyph glyph-name="arrowdown" unicode="&#x2193;" 
d="M651 290l-312 -311l-312 311l72 72l186 -188v551h107v-552l187 189z" />
    <glyph glyph-name="uni2196" unicode="&#x2196;" horiz-adv-x="647" 
d="M51 97v441h440v-101h-262l389 -391l-75 -74l-391 388v-263h-101z" />
    <glyph glyph-name="uni2197" unicode="&#x2197;" horiz-adv-x="648" 
d="M156 538h441v-441h-102v263l-390 -388l-76 74l389 391h-262v101z" />
    <glyph glyph-name="uni2198" unicode="&#x2198;" horiz-adv-x="648" 
d="M597 441v-441h-441v101h264l-391 391l76 76l390 -390v263h102z" />
    <glyph glyph-name="uni2199" unicode="&#x2199;" horiz-adv-x="647" 
d="M491 0h-440v441h101v-263l391 390l75 -76l-391 -392h264v-100z" />
    <glyph glyph-name="uni219E" unicode="&#x219e;" horiz-adv-x="812" 
d="M339 -42l-311 312l311 312l72 -74l-189 -185h125l258 258l73 -74l-189 -184h287v-108h-287l189 -184l-73 -74l-258 258h-123l187 -183z" />
    <glyph glyph-name="uni219F" unicode="&#x219f;" horiz-adv-x="696" 
d="M36 425l312 312l312 -312l-73 -72l-186 189v-124l259 -258l-73 -72l-186 186v-274h-107v275l-186 -187l-72 72l258 259v123l-186 -189z" />
    <glyph glyph-name="uni21A0" unicode="&#x21a0;" horiz-adv-x="812" 
d="M473 582l311 -312l-311 -312l-73 74l188 183h-124l-258 -259l-71 74l188 185h-288v108h288l-188 184l71 74l258 -258h126l-190 185z" />
    <glyph glyph-name="uni21A1" unicode="&#x21a1;" horiz-adv-x="696" 
d="M660 290l-312 -311l-312 311l72 72l186 -188v122l-259 259l72 72l187 -188v286h107v-285l186 187l72 -72l-258 -258v-124l187 189z" />
    <glyph glyph-name="uni21A2" unicode="&#x21a2;" horiz-adv-x="819" 
d="M784 507l-239 -238l239 -238l-71 -74l-258 257h-229l186 -183l-71 -74l-312 312l312 312l71 -74l-189 -186h230l260 260z" />
    <glyph glyph-name="uni21A3" unicode="&#x21a3;" horiz-adv-x="819" 
d="M478 581l312 -312l-312 -312l-71 74l186 183h-229l-258 -257l-71 74l239 238l-239 238l71 74l260 -260h230l-189 186z" />
    <glyph glyph-name="uni21A4" unicode="&#x21a4;" horiz-adv-x="859" 
d="M352 -42l-311 312l311 312l73 -74l-190 -185h444v215h111v-538h-111v215h-442l188 -183z" />
    <glyph glyph-name="uni21A5" unicode="&#x21a5;" horiz-adv-x="670" 
d="M23 425l312 312l312 -312l-73 -72l-186 189v-434h209v-108h-531v108h215v434l-186 -189z" />
    <glyph glyph-name="uni21A6" unicode="&#x21a6;" horiz-adv-x="859" 
d="M507 582l311 -312l-311 -312l-72 74l187 183h-442v-215h-110v531h110v-208h444l-189 185z" />
    <glyph glyph-name="uni21A7" unicode="&#x21a7;" horiz-adv-x="671" 
d="M648 290l-313 -311l-311 311l72 72l186 -188v443h-216v108h532v-108h-210v-444l187 189z" />
    <glyph glyph-name="filledbox" unicode="&#x25a0;" horiz-adv-x="676" 
d="M607 0h-538v538h538v-538z" />
    <glyph glyph-name="H22073" unicode="&#x25a1;" horiz-adv-x="676" 
d="M607 0h-538v538h538v-538zM500 431h-324v-324h324v324z" />
    <glyph glyph-name="H18533" unicode="&#x25cf;" horiz-adv-x="654" 
d="M44 269q0 76 37 140.5t101.5 102.5t144.5 38t144.5 -38t101.5 -102.5t37 -140.5q0 -77 -37 -141.5t-101.5 -102.5t-144.5 -38t-144.5 38t-101.5 102.5t-37 141.5z" />
    <glyph glyph-name="onethird" unicode="&#x2153;" horiz-adv-x="795" 
d="M204 317h-98v282h-90v69q50 2 74.5 14t37.5 43h76v-408zM672 725l-511 -725h-122l510 725h123zM663 122q0 49 -87 49h-25v77h23q39 0 60.5 11.5t21.5 34.5q0 21 -20 30t-47 9q-24 0 -53.5 -8.5t-52.5 -20.5v86q21 10 54.5 17.5t68.5 7.5q64 0 107 -27.5t43 -80.5
q0 -31 -15.5 -55t-38.5 -37q29 -11 46 -38t17 -58q0 -61 -45.5 -93.5t-116.5 -32.5q-35 0 -67.5 6.5t-53.5 16.5v86q23 -12 52 -20t55 -8q33 0 53.5 12t20.5 36z" />
    <glyph glyph-name="twothirds" unicode="&#x2154;" horiz-adv-x="891" 
d="M315 616q0 -36 -18 -68.5t-51 -65.5t-93 -84h166v-81h-293v78q11 10 33 28q82 67 118 105.5t36 72.5q0 24 -17 37t-47 13q-50 0 -112 -34v85q21 12 57 21t72 9q69 0 109 -31t40 -85zM768 725l-511 -725h-122l510 725h123zM759 122q0 49 -87 49h-25v77h23q39 0 60.5 11.5
t21.5 34.5q0 21 -20 30t-47 9q-24 0 -53.5 -8.5t-52.5 -20.5v86q21 10 54.5 17.5t68.5 7.5q64 0 107 -27.5t43 -80.5q0 -31 -15.5 -55t-38.5 -37q29 -11 46 -38t17 -58q0 -61 -45.5 -93.5t-116.5 -32.5q-35 0 -67.5 6.5t-53.5 16.5v86q23 -12 52 -20t55 -8q33 0 53.5 12
t20.5 36z" />
    <glyph glyph-name="uni2155" unicode="&#x2155;" horiz-adv-x="793" 
d="M204 317h-98v282h-90v69q50 2 74.5 14t37.5 43h76v-408zM672 725l-511 -725h-122l510 725h123zM667 131q0 30 -26 43.5t-67 13.5q-27 0 -48.5 -3.5t-46.5 -12.5l28 237h240v-81h-165l-8 -69q22 5 44 5q61 0 105.5 -31t44.5 -101q0 -65 -49 -101.5t-122 -36.5
q-36 0 -68.5 5.5t-53.5 14.5v87q48 -25 104 -25q40 0 64 13.5t24 41.5z" />
    <glyph glyph-name="uni2159" unicode="&#x2159;" horiz-adv-x="811" 
d="M204 317h-98v282h-90v69q50 2 74.5 14t37.5 43h76v-408zM672 725l-511 -725h-122l510 725h123zM554 240q35 37 89 37q63 0 102 -38.5t39 -102.5q0 -63 -45 -102.5t-118 -39.5q-85 0 -126 53t-41 144q0 107 58.5 165.5t154.5 58.5q50 0 87 -10v-87q-43 18 -86 18
q-42 0 -75 -22t-39 -74zM621 69q28 0 46.5 19.5t18.5 49.5q0 29 -18.5 48t-46.5 19q-27 0 -45.5 -18.5t-18.5 -48.5t18.5 -49.5t45.5 -19.5z" />
    <glyph glyph-name="oneeighth" unicode="&#x215b;" horiz-adv-x="822" 
d="M204 317h-98v282h-90v69q50 2 74.5 14t37.5 43h76v-408zM672 725l-511 -725h-122l510 725h123zM781 308q0 -27 -12 -50t-34 -38q58 -35 58 -100q0 -58 -45.5 -92.5t-118.5 -34.5t-119 34.5t-46 92.5q0 66 58 100q-22 15 -34 38t-12 50q0 47 41.5 77.5t111.5 30.5
t111 -30.5t41 -77.5zM629 345q-25 0 -40.5 -13t-15.5 -35t15 -35.5t41 -13.5q25 0 40.5 13.5t15.5 35.5t-15.5 35t-40.5 13zM563 125q0 -26 18 -42t48 -16t47.5 16t17.5 42t-17.5 41.5t-47.5 15.5t-48 -15.5t-18 -41.5z" />
    <glyph glyph-name="uni2156" unicode="&#x2156;" horiz-adv-x="889" 
d="M315 616q0 -36 -18 -68.5t-51 -65.5t-93 -84h166v-81h-293v78q11 10 33 28q82 67 118 105.5t36 72.5q0 24 -17 37t-47 13q-50 0 -112 -34v85q21 12 57 21t72 9q69 0 109 -31t40 -85zM768 725l-511 -725h-122l510 725h123zM763 131q0 30 -26 43.5t-67 13.5
q-27 0 -48.5 -3.5t-46.5 -12.5l28 237h240v-81h-165l-8 -69q22 5 44 5q61 0 105.5 -31t44.5 -101q0 -65 -49 -101.5t-122 -36.5q-36 0 -68.5 5.5t-53.5 14.5v87q48 -25 104 -25q40 0 64 13.5t24 41.5z" />
    <glyph glyph-name="uni2157" unicode="&#x2157;" horiz-adv-x="868" 
d="M214 439q0 49 -87 49h-25v77h23q39 0 60.5 11.5t21.5 34.5q0 21 -20 30t-47 9q-24 0 -53.5 -8.5t-52.5 -20.5v86q21 10 54.5 17.5t68.5 7.5q64 0 107 -27.5t43 -80.5q0 -31 -15.5 -55t-38.5 -37q29 -11 46 -38t17 -58q0 -61 -45.5 -93.5t-116.5 -32.5q-35 0 -67.5 6.5
t-53.5 16.5v86q23 -12 52 -20t55 -8q33 0 53.5 12t20.5 36zM747 725l-511 -725h-122l510 725h123zM742 131q0 30 -26 43.5t-67 13.5q-27 0 -48.5 -3.5t-46.5 -12.5l28 237h240v-81h-165l-8 -69q22 5 44 5q61 0 105.5 -31t44.5 -101q0 -65 -49 -101.5t-122 -36.5
q-36 0 -68.5 5.5t-53.5 14.5v87q48 -25 104 -25q40 0 64 13.5t24 41.5z" />
    <glyph glyph-name="threeeighths" unicode="&#x215c;" horiz-adv-x="897" 
d="M214 439q0 49 -87 49h-25v77h23q39 0 60.5 11.5t21.5 34.5q0 21 -20 30t-47 9q-24 0 -53.5 -8.5t-52.5 -20.5v86q21 10 54.5 17.5t68.5 7.5q64 0 107 -27.5t43 -80.5q0 -31 -15.5 -55t-38.5 -37q29 -11 46 -38t17 -58q0 -61 -45.5 -93.5t-116.5 -32.5q-35 0 -67.5 6.5
t-53.5 16.5v86q23 -12 52 -20t55 -8q33 0 53.5 12t20.5 36zM747 725l-511 -725h-122l510 725h123zM856 308q0 -27 -12 -50t-34 -38q58 -35 58 -100q0 -58 -45.5 -92.5t-118.5 -34.5t-119 34.5t-46 92.5q0 66 58 100q-22 15 -34 38t-12 50q0 47 41.5 77.5t111.5 30.5
t111 -30.5t41 -77.5zM704 345q-25 0 -40.5 -13t-15.5 -35t15 -35.5t41 -13.5q25 0 40.5 13.5t15.5 35.5t-15.5 35t-40.5 13zM638 125q0 -26 18 -42t48 -16t47.5 16t17.5 42t-17.5 41.5t-47.5 15.5t-48 -15.5t-18 -41.5z" />
    <glyph glyph-name="uni2158" unicode="&#x2158;" horiz-adv-x="922" 
d="M312 483h64v-80h-64v-86h-95v86h-200v75l204 247h91v-242zM217 483v125l-103 -125h103zM801 725l-511 -725h-122l510 725h123zM796 131q0 30 -26 43.5t-67 13.5q-27 0 -48.5 -3.5t-46.5 -12.5l28 237h240v-81h-165l-8 -69q22 5 44 5q61 0 105.5 -31t44.5 -101
q0 -65 -49 -101.5t-122 -36.5q-36 0 -68.5 5.5t-53.5 14.5v87q48 -25 104 -25q40 0 64 13.5t24 41.5z" />
    <glyph glyph-name="uni215A" unicode="&#x215a;" horiz-adv-x="889" 
d="M223 447q0 30 -26 43.5t-67 13.5q-27 0 -48.5 -3.5t-46.5 -12.5l28 237h240v-81h-165l-8 -69q22 5 44 5q61 0 105.5 -31t44.5 -101q0 -65 -49 -101.5t-122 -36.5q-36 0 -68.5 5.5t-53.5 14.5v87q48 -25 104 -25q40 0 64 13.5t24 41.5zM750 725l-511 -725h-122l510 725
h123zM633 240q35 37 89 37q63 0 102 -38.5t39 -102.5q0 -63 -45 -102.5t-118 -39.5q-85 0 -126 53t-41 144q0 107 58.5 165.5t154.5 58.5q50 0 87 -10v-87q-43 18 -86 18q-42 0 -75 -22t-39 -74zM700 69q28 0 46.5 19.5t18.5 49.5q0 29 -18.5 48t-46.5 19q-27 0 -45.5 -18.5
t-18.5 -48.5t18.5 -49.5t45.5 -19.5z" />
    <glyph glyph-name="fiveeighths" unicode="&#x215d;" horiz-adv-x="900" 
d="M223 447q0 30 -26 43.5t-67 13.5q-27 0 -48.5 -3.5t-46.5 -12.5l28 237h240v-81h-165l-8 -69q22 5 44 5q61 0 105.5 -31t44.5 -101q0 -65 -49 -101.5t-122 -36.5q-36 0 -68.5 5.5t-53.5 14.5v87q48 -25 104 -25q40 0 64 13.5t24 41.5zM750 725l-511 -725h-122l510 725
h123zM859 308q0 -27 -12 -50t-34 -38q58 -35 58 -100q0 -58 -45.5 -92.5t-118.5 -34.5t-119 34.5t-46 92.5q0 66 58 100q-22 15 -34 38t-12 50q0 47 41.5 77.5t111.5 30.5t111 -30.5t41 -77.5zM707 345q-25 0 -40.5 -13t-15.5 -35t15 -35.5t41 -13.5q25 0 40.5 13.5
t15.5 35.5t-15.5 35t-40.5 13zM641 125q0 -26 18 -42t48 -16t47.5 16t17.5 42t-17.5 41.5t-47.5 15.5t-48 -15.5t-18 -41.5z" />
    <glyph glyph-name="seveneighths" unicode="&#x215e;" horiz-adv-x="853" 
d="M17 644v81h315v-82q-81 -68 -119.5 -143.5t-40.5 -182.5h-111q2 100 49.5 184.5t121.5 142.5h-215zM704 725l-511 -725h-122l510 725h123zM813 308q0 -27 -12 -50t-34 -38q58 -35 58 -100q0 -58 -45.5 -92.5t-118.5 -34.5t-119 34.5t-46 92.5q0 66 58 100q-22 15 -34 38
t-12 50q0 47 41.5 77.5t111.5 30.5t111 -30.5t41 -77.5zM661 345q-25 0 -40.5 -13t-15.5 -35t15 -35.5t41 -13.5q25 0 40.5 13.5t15.5 35.5t-15.5 35t-40.5 13zM595 125q0 -26 18 -42t48 -16t47.5 16t17.5 42t-17.5 41.5t-47.5 15.5t-48 -15.5t-18 -41.5z" />
    <glyph glyph-name="uni215F" unicode="&#x215f;" horiz-adv-x="475" 
d="M204 317h-98v282h-90v69q50 2 74.5 14t37.5 43h76v-408zM672 725l-511 -725h-122l510 725h123z" />
    <glyph glyph-name="fraction" unicode="&#x2044;" horiz-adv-x="242" 
d="M439 725l-511 -725h-122l510 725h123z" />
    <glyph glyph-name="a.superior" horiz-adv-x="343" 
d="M207 638q0 20 -18.5 29t-42.5 9q-48 0 -98 -25v75q23 9 53 15t58 6q145 0 145 -133l-1 -71q0 -75 4 -105h-89l-2 44q-28 -51 -93 -51q-45 0 -74.5 25.5t-29.5 64.5q0 54 45.5 78t142.5 39zM211 577v5q-51 -6 -75 -18.5t-24 -33.5q0 -17 11.5 -25.5t28.5 -8.5
q26 0 42.5 21t16.5 60z" />
    <glyph glyph-name="b.superior" horiz-adv-x="376" 
d="M43 438v408h96v-140q25 41 84 41q56 0 93 -43t37 -115t-37.5 -115t-94.5 -43q-27 0 -48.5 10.5t-33.5 30.5v-34h-96zM195 504q27 0 43 23.5t16 61.5t-16 61.5t-43 23.5q-28 0 -44.5 -23t-16.5 -62q0 -38 16.5 -61.5t44.5 -23.5z" />
    <glyph glyph-name="c.superior" horiz-adv-x="282" 
d="M185 747q42 0 69 -8v-75q-27 9 -56 9q-34 0 -56.5 -21.5t-22.5 -62.5t22.5 -62.5t56.5 -21.5q31 0 59 11v-76q-32 -9 -72 -9q-73 0 -118 43.5t-45 114.5t45 114.5t118 43.5z" />
    <glyph glyph-name="d.superior" horiz-adv-x="376" 
d="M334 438h-96v34q-12 -19 -34 -30t-50 -11q-57 0 -94 43t-37 116q0 72 37 114.5t95 42.5q27 0 49 -10t34 -30v139h96v-408zM243 589q0 39 -17 62t-45 23q-27 0 -42.5 -23.5t-15.5 -61.5t15.5 -61.5t42.5 -23.5q28 0 45 23.5t17 61.5z" />
    <glyph glyph-name="e.superior" horiz-adv-x="341" 
d="M296 527v-77q-40 -19 -108 -19q-76 0 -121 43.5t-45 113.5q0 72 42.5 115.5t114.5 43.5q74 0 109 -49.5t31 -135.5h-204q14 -57 89 -57q49 0 92 22zM113 622h121q-1 25 -17.5 42t-41.5 17q-27 0 -43.5 -15t-18.5 -44z" />
    <glyph glyph-name="f.superior" horiz-adv-x="232" 
d="M63 750q0 52 26 77t82 25q29 0 49 -7v-68q-11 4 -28 4q-35 0 -35 -30v-11h63v-67h-61v-235h-96v235h-40v67h40v10z" />
    <glyph glyph-name="g.superior" horiz-adv-x="377" 
d="M61 343v81q19 -11 47.5 -18t52.5 -7q40 0 59 15.5t19 53.5v16q-12 -19 -34.5 -30t-50.5 -11q-58 0 -94.5 41t-36.5 111q0 72 37.5 112t93.5 40q60 0 85 -41v34h96v-260q0 -80 -46 -117.5t-116 -37.5q-28 0 -59.5 5t-52.5 13zM243 595q0 37 -17 58t-45 21q-27 0 -43 -21.5
t-16 -57.5t16 -57t43 -21q28 0 45 20.5t17 57.5z" />
    <glyph glyph-name="h.superior" horiz-adv-x="374" 
d="M139 704q25 43 92 43q46 0 75 -27.5t29 -90.5v-191h-97v169q0 33 -11 48t-34 15q-54 0 -54 -76v-156h-96v408h96v-142z" />
    <glyph glyph-name="i.superior" horiz-adv-x="181" 
d="M43 768v78h96v-78h-96zM43 438v302h96v-302h-96z" />
    <glyph glyph-name="j.superior" horiz-adv-x="205" 
d="M66 768v78h97v-78h-97zM163 740v-314q0 -96 -94 -96q-29 0 -48 9v70q8 -4 22 -4q11 0 17 7t6 25v236h-48v67h145z" />
    <glyph glyph-name="k.superior" horiz-adv-x="353" 
d="M43 438v408h96v-240l96 134h106l-113 -146l131 -156h-122l-98 123v-123h-96z" />
    <glyph glyph-name="l.superior" horiz-adv-x="181" 
d="M43 846h96v-408h-96v408z" />
    <glyph glyph-name="m.superior" horiz-adv-x="557" 
d="M43 438v302h95v-34q28 41 88 41q35 0 56 -13t31 -37q18 25 43 37.5t61 12.5q54 0 78 -31q23 -27 23 -92v-186h-96v164q0 39 -10 54q-12 14 -33 14q-27 0 -39 -19t-12 -56v-157h-96v164q0 39 -9 53q-12 15 -33 15q-28 0 -39.5 -18.5t-11.5 -56.5v-157h-96z" />
    <glyph glyph-name="uni207F" unicode="&#x207f;" horiz-adv-x="374" 
d="M138 704q27 43 93 43q46 0 75 -27.5t29 -90.5v-191h-97v169q0 33 -11 48t-34 15q-54 0 -54 -76v-156h-96v302h95v-36z" />
    <glyph glyph-name="o.superior" horiz-adv-x="364" 
d="M23 589q0 77 45.5 117.5t113.5 40.5t113.5 -40.5t45.5 -117.5t-45.5 -117.5t-113.5 -40.5t-113.5 40.5t-45.5 117.5zM243 589q0 41 -16.5 63t-44.5 22q-27 0 -44 -22t-17 -63t17 -63t44 -22q28 0 44.5 21.5t16.5 63.5z" />
    <glyph glyph-name="p.superior" horiz-adv-x="376" 
d="M43 335v405h96v-34q25 41 84 41q56 0 93 -43t37 -115t-37.5 -115t-94.5 -43q-27 0 -48.5 10.5t-33.5 30.5v-137h-96zM195 504q27 0 43 23.5t16 61.5t-16 61.5t-43 23.5q-28 0 -44.5 -23t-16.5 -62q0 -38 16.5 -61.5t44.5 -23.5z" />
    <glyph glyph-name="q.superior" horiz-adv-x="376" 
d="M334 335h-96v137q-13 -19 -34.5 -30t-50.5 -11q-57 0 -93.5 43t-36.5 116q0 72 37 114.5t95 42.5q27 0 49 -10.5t34 -30.5v34h96v-405zM242 589q0 39 -16.5 62t-44.5 23q-27 0 -43 -23.5t-16 -61.5t16 -61.5t43 -23.5q28 0 44.5 23.5t16.5 61.5z" />
    <glyph glyph-name="r.superior" horiz-adv-x="248" 
d="M234 649q-18 2 -33 2q-31 0 -46.5 -13.5t-15.5 -50.5v-149h-96v302h93v-48q12 24 32.5 37t46.5 13q12 0 19 -3v-90z" />
    <glyph glyph-name="s.superior" horiz-adv-x="290" 
d="M29 447v78q53 -21 97 -21q25 0 38.5 6.5t13.5 17.5q0 9 -9 15t-32 12l-24 5q-44 11 -65.5 33.5t-21.5 57.5q0 47 38 71.5t94 24.5q49 0 88 -12v-77q-46 16 -84 16q-45 0 -45 -19q0 -9 7 -14t29 -11l26 -6q46 -11 68 -32.5t22 -61.5q0 -43 -35 -71t-98 -28q-28 0 -58 5
t-49 11z" />
    <glyph glyph-name="t.superior" horiz-adv-x="253" 
d="M63 740v78h96v-78h68v-67h-68v-128q0 -19 8 -27t24 -8q18 0 35 10v-72q-26 -11 -63 -11q-54 0 -77 23.5t-23 78.5v134h-48v67h48z" />
    <glyph glyph-name="u.superior" horiz-adv-x="370" 
d="M232 475q-28 -45 -89 -45q-104 0 -104 121v189h97v-181q0 -52 45 -52q51 0 51 77v156h95v-302h-95v37z" />
    <glyph glyph-name="v.superior" horiz-adv-x="328" 
d="M7 740h103l55 -199l58 199h98l-105 -302h-102z" />
    <glyph glyph-name="w.superior" horiz-adv-x="484" 
d="M114 740l36 -198l42 198h102l42 -198l36 198h101l-84 -302h-101l-45 194l-47 -194h-102l-83 302h103z" />
    <glyph glyph-name="x.superior" horiz-adv-x="341" 
d="M230 740h104l-110 -147l114 -155h-109l-61 83l-61 -83h-104l114 152l-109 150h108l56 -77z" />
    <glyph glyph-name="y.superior" horiz-adv-x="327" 
d="M321 740l-148 -405h-101l45 103l-111 302h103l56 -198l57 198h99z" />
    <glyph glyph-name="z.superior" horiz-adv-x="318" 
d="M294 438h-270v69l150 163h-145v70h260v-69l-152 -163h157v-70z" />
    <glyph glyph-name="uni2074" unicode="&#x2074;" horiz-adv-x="398" 
d="M312 604h64v-80h-64v-86h-95v86h-200v75l204 247h91v-242zM217 604v125l-103 -125h103z" />
    <glyph glyph-name="uni2075" unicode="&#x2075;" horiz-adv-x="349" 
d="M223 569q0 31 -26 45.5t-67 14.5q-26 0 -47.5 -4t-47.5 -13l28 234h240v-81h-164l-8 -65q26 4 43 4q62 0 106 -31.5t44 -103.5q0 -65 -49 -101.5t-122 -36.5q-36 0 -68.5 5.5t-53.5 14.5v87q50 -25 104 -25q40 0 64 13.5t24 42.5z" />
    <glyph glyph-name="uni2076" unicode="&#x2076;" horiz-adv-x="385" 
d="M129 678q36 36 89 36q63 0 102 -38.5t39 -101.5q0 -64 -45 -103.5t-118 -39.5q-85 0 -126 53t-41 145q0 106 58.5 165t154.5 59q44 0 87 -10v-88q-39 18 -86 18q-42 0 -75 -21.5t-39 -73.5zM196 506q28 0 46.5 19.5t18.5 49.5q0 29 -18.5 48t-46.5 19t-46 -18.5
t-18 -48.5t18.5 -49.5t45.5 -19.5z" />
    <glyph glyph-name="uni2077" unicode="&#x2077;" horiz-adv-x="345" 
d="M17 764v82h315v-82q-81 -68 -119.5 -143.5t-40.5 -182.5h-111q2 100 49.5 184.5t121.5 141.5h-215z" />
    <glyph glyph-name="uni2078" unicode="&#x2078;" horiz-adv-x="386" 
d="M345 745q0 -27 -12 -50t-34 -38q58 -35 58 -100q0 -58 -45.5 -92.5t-118.5 -34.5t-119 34.5t-46 92.5q0 66 58 100q-22 15 -34 38t-12 50q0 47 41.5 77.5t111.5 30.5t111 -30.5t41 -77.5zM193 782q-25 0 -40.5 -13t-15.5 -35t15 -35.5t41 -13.5q25 0 40.5 13.5t15.5 35.5
t-15.5 35t-40.5 13zM127 562q0 -26 18 -42t48 -16t47.5 16t17.5 42t-17.5 41.5t-47.5 15.5t-48 -15.5t-18 -41.5z" />
    <glyph glyph-name="uni2079" unicode="&#x2079;" horiz-adv-x="384" 
d="M256 607q-36 -36 -89 -36q-63 0 -102 38t-39 101q0 64 44.5 103.5t118.5 39.5q85 0 126 -52.5t41 -145.5q0 -106 -58.5 -165t-154.5 -59q-46 0 -87 11v87q40 -17 86 -17q42 0 75 21.5t39 73.5zM189 779q-28 0 -46.5 -19.5t-18.5 -49.5t18.5 -49t46.5 -19q27 0 45.5 19
t18.5 49t-18.5 49.5t-45.5 19.5z" />
    <glyph glyph-name="uni2070" unicode="&#x2070;" horiz-adv-x="403" 
d="M29 641q0 99 44.5 155.5t128.5 56.5q83 0 127.5 -56.5t44.5 -155.5q0 -98 -44.5 -154.5t-127.5 -56.5q-84 0 -128.5 56.5t-44.5 154.5zM269 641q0 136 -67 136q-35 0 -52 -33.5t-17 -102.5q0 -68 17 -101t52 -33q67 0 67 134z" />
    <glyph glyph-name="uni2070.aalt" horiz-adv-x="403" 
d="M29 641q0 99 44.5 155t128.5 56q83 0 127.5 -56.5t44.5 -154.5t-44.5 -154.5t-127.5 -56.5q-84 0 -128.5 56t-44.5 155zM133 645l132 59q-14 72 -63 72q-69 0 -69 -126v-5zM269 632v6l-131 -59q13 -72 64 -72q33 0 50 31.5t17 93.5z" />
    <glyph glyph-name="period.superior" horiz-adv-x="184" 
d="M145 541v-103h-106v103h106z" />
    <glyph glyph-name="hyphen.superior" horiz-adv-x="279" 
d="M239 631v-84h-200v84h200z" />
    <glyph glyph-name="comma.superior" horiz-adv-x="186" 
d="M75 438h-34v103h105v-109l-48 -89h-64z" />
    <glyph glyph-name="uni207C" unicode="&#x207c;" horiz-adv-x="402" 
d="M363 720v-85h-324v85h324zM363 542v-84h-324v84h324z" />
    <glyph glyph-name="uni207A" unicode="&#x207a;" horiz-adv-x="380" 
d="M234 547v-110h-88v110h-118v84h118v110h88v-110h118v-84h-118z" />
    <glyph glyph-name="uni207B" unicode="&#x207b;" horiz-adv-x="402" 
d="M39 547v84h324v-84h-324z" />
    <glyph glyph-name="uni207D" unicode="&#x207d;" horiz-adv-x="229" 
d="M113 846h92q-32 -51 -52.5 -119.5t-20.5 -135.5q0 -68 20.5 -138t52.5 -122h-92q-31 45 -55 115.5t-24 144.5q0 72 24 141t55 114z" />
    <glyph glyph-name="uni207E" unicode="&#x207e;" horiz-adv-x="229" 
d="M116 331h-93q33 51 53.5 121.5t20.5 138.5q0 67 -20.5 135.5t-53.5 119.5h93q30 -46 54 -114.5t24 -140.5q0 -74 -24 -144t-54 -116z" />
    <glyph glyph-name="a.inferior" horiz-adv-x="342" 
d="M207 72q0 20 -18.5 29t-42.5 9q-48 0 -98 -25v75q23 9 53 15t58 6q145 0 145 -133l-1 -71q0 -75 4 -105h-89l-2 44q-28 -51 -93 -51q-45 0 -74.5 25.5t-29.5 64.5q0 54 45.5 78t142.5 39zM211 11v5q-51 -6 -75 -18.5t-24 -33.5q0 -17 11.5 -25.5t28.5 -8.5q26 0 42.5 21
t16.5 60z" />
    <glyph glyph-name="b.inferior" horiz-adv-x="376" 
d="M43 -128v408h96v-140q25 41 84 41q56 0 93 -43t37 -115t-37.5 -115t-94.5 -43q-27 0 -48.5 10.5t-33.5 30.5v-34h-96zM195 -62q27 0 43 23.5t16 61.5t-16 61.5t-43 23.5q-28 0 -44.5 -23t-16.5 -62q0 -38 16.5 -61.5t44.5 -23.5z" />
    <glyph glyph-name="c.inferior" horiz-adv-x="282" 
d="M185 181q42 0 69 -8v-75q-27 9 -56 9q-34 0 -56.5 -21.5t-22.5 -62.5t22.5 -62.5t56.5 -21.5q31 0 59 11v-76q-32 -9 -72 -9q-73 0 -118 43.5t-45 114.5t45 114.5t118 43.5z" />
    <glyph glyph-name="d.inferior" horiz-adv-x="376" 
d="M334 -128h-96v34q-12 -19 -34 -30t-50 -11q-57 0 -94 43t-37 116q0 72 37 114.5t95 42.5q27 0 49 -10t34 -30v139h96v-408zM243 23q0 39 -17 62t-45 23q-27 0 -42.5 -23.5t-15.5 -61.5t15.5 -61.5t42.5 -23.5q28 0 45 23.5t17 61.5z" />
    <glyph glyph-name="e.inferior" horiz-adv-x="341" 
d="M296 -39v-77q-40 -19 -108 -19q-76 0 -121 43.5t-45 113.5q0 72 42.5 115.5t114.5 43.5q74 0 109 -49.5t31 -135.5h-204q14 -57 89 -57q49 0 92 22zM113 56h121q-1 25 -17.5 42t-41.5 17q-27 0 -43.5 -15t-18.5 -44z" />
    <glyph glyph-name="f.inferior" horiz-adv-x="232" 
d="M63 184q0 52 26 77t82 25q29 0 49 -7v-68q-11 4 -28 4q-35 0 -35 -30v-11h63v-67h-61v-235h-96v235h-40v67h40v10z" />
    <glyph glyph-name="g.inferior" horiz-adv-x="377" 
d="M61 -223v81q19 -11 47.5 -18t52.5 -7q40 0 59 15.5t19 53.5v16q-12 -19 -34.5 -30t-50.5 -11q-58 0 -94.5 41t-36.5 111q0 72 37.5 112t93.5 40q60 0 85 -41v34h96v-260q0 -80 -46 -117.5t-116 -37.5q-28 0 -59.5 5t-52.5 13zM243 29q0 37 -17 58t-45 21q-27 0 -43 -21.5
t-16 -57.5t16 -57t43 -21q28 0 45 20.5t17 57.5z" />
    <glyph glyph-name="h.inferior" horiz-adv-x="374" 
d="M139 138q25 43 92 43q46 0 75 -27.5t29 -90.5v-191h-97v169q0 33 -11 48t-34 15q-54 0 -54 -76v-156h-96v408h96v-142z" />
    <glyph glyph-name="i.inferior" horiz-adv-x="181" 
d="M43 202v78h96v-78h-96zM43 -128v302h96v-302h-96z" />
    <glyph glyph-name="j.inferior" horiz-adv-x="205" 
d="M66 202v78h97v-78h-97zM163 174v-314q0 -96 -94 -96q-29 0 -48 9v70q8 -4 22 -4q11 0 17 7t6 25v236h-48v67h145z" />
    <glyph glyph-name="k.inferior" horiz-adv-x="353" 
d="M43 -128v408h96v-240l96 134h106l-113 -146l131 -156h-122l-98 123v-123h-96z" />
    <glyph glyph-name="l.inferior" horiz-adv-x="181" 
d="M43 280h96v-408h-96v408z" />
    <glyph glyph-name="m.inferior" horiz-adv-x="557" 
d="M43 -128v302h95v-34q28 41 88 41q35 0 56 -13t31 -37q18 25 43 37.5t61 12.5q54 0 78 -31q23 -27 23 -92v-186h-96v164q0 39 -10 54q-12 14 -33 14q-27 0 -39 -19t-12 -56v-157h-96v164q0 39 -9 53q-12 15 -33 15q-28 0 -39.5 -18.5t-11.5 -56.5v-157h-96z" />
    <glyph glyph-name="n.inferior" horiz-adv-x="374" 
d="M138 138q27 43 93 43q46 0 75 -27.5t29 -90.5v-191h-97v169q0 33 -11 48t-34 15q-54 0 -54 -76v-156h-96v302h95v-36z" />
    <glyph glyph-name="o.inferior" horiz-adv-x="363" 
d="M23 23q0 77 45.5 117.5t113.5 40.5t113.5 -40.5t45.5 -117.5t-45.5 -117.5t-113.5 -40.5t-113.5 40.5t-45.5 117.5zM243 23q0 41 -16.5 63t-44.5 22q-27 0 -44 -22t-17 -63t17 -63t44 -22q28 0 44.5 21.5t16.5 63.5z" />
    <glyph glyph-name="p.inferior" horiz-adv-x="376" 
d="M43 -231v405h96v-34q25 41 84 41q56 0 93 -43t37 -115t-37.5 -115t-94.5 -43q-27 0 -48.5 10.5t-33.5 30.5v-137h-96zM195 -62q27 0 43 23.5t16 61.5t-16 61.5t-43 23.5q-28 0 -44.5 -23t-16.5 -62q0 -38 16.5 -61.5t44.5 -23.5z" />
    <glyph glyph-name="q.inferior" horiz-adv-x="376" 
d="M334 -231h-96v137q-13 -19 -34.5 -30t-50.5 -11q-57 0 -93.5 43t-36.5 116q0 72 37 114.5t95 42.5q27 0 49 -10.5t34 -30.5v34h96v-405zM242 23q0 39 -16.5 62t-44.5 23q-27 0 -43 -23.5t-16 -61.5t16 -61.5t43 -23.5q28 0 44.5 23.5t16.5 61.5z" />
    <glyph glyph-name="r.inferior" horiz-adv-x="248" 
d="M234 83q-18 2 -33 2q-31 0 -46.5 -13.5t-15.5 -50.5v-149h-96v302h93v-48q12 24 32.5 37t46.5 13q12 0 19 -3v-90z" />
    <glyph glyph-name="s.inferior" horiz-adv-x="289" 
d="M29 -119v78q53 -21 97 -21q25 0 38.5 6.5t13.5 17.5q0 9 -9 15t-32 12l-24 5q-44 11 -65.5 33.5t-21.5 57.5q0 47 38 71.5t94 24.5q49 0 88 -12v-77q-46 16 -84 16q-45 0 -45 -19q0 -9 7 -14t29 -11l26 -6q46 -11 68 -32.5t22 -61.5q0 -43 -35 -71t-98 -28q-28 0 -58 5
t-49 11z" />
    <glyph glyph-name="t.inferior" horiz-adv-x="252" 
d="M63 174v78h96v-78h68v-67h-68v-128q0 -19 8 -27t24 -8q18 0 35 10v-72q-26 -11 -63 -11q-54 0 -77 23.5t-23 78.5v134h-48v67h48z" />
    <glyph glyph-name="u.inferior" horiz-adv-x="370" 
d="M232 -91q-28 -45 -89 -45q-104 0 -104 121v189h97v-181q0 -52 45 -52q51 0 51 77v156h95v-302h-95v37z" />
    <glyph glyph-name="v.inferior" horiz-adv-x="327" 
d="M7 174h103l55 -199l58 199h98l-105 -302h-102z" />
    <glyph glyph-name="w.inferior" horiz-adv-x="484" 
d="M114 174l36 -198l42 198h102l42 -198l36 198h101l-84 -302h-101l-45 194l-47 -194h-102l-83 302h103z" />
    <glyph glyph-name="x.inferior" horiz-adv-x="341" 
d="M230 174h104l-110 -147l114 -155h-109l-61 83l-61 -83h-104l114 152l-109 150h108l56 -77z" />
    <glyph glyph-name="y.inferior" horiz-adv-x="327" 
d="M321 174l-148 -405h-101l45 103l-111 302h103l56 -198l57 198h99z" />
    <glyph glyph-name="z.inferior" horiz-adv-x="318" 
d="M294 -128h-270v69l150 163h-145v70h260v-69l-152 -163h157v-70z" />
    <glyph glyph-name="uni2081" unicode="&#x2081;" horiz-adv-x="340" 
d="M229 -48h99v-80h-300v80h103v202h-94v69q52 2 77.5 14t38.5 43h76v-328z" />
    <glyph glyph-name="uni2082" unicode="&#x2082;" horiz-adv-x="350" 
d="M315 172q0 -52 -36.5 -97.5t-124.5 -120.5h166v-82h-293v79q2 2 34 28q82 68 117.5 105.5t35.5 71.5q0 24 -17 37t-48 13q-26 0 -55.5 -9.5t-55.5 -23.5v84q21 12 57 21t72 9q69 0 108.5 -30.5t39.5 -84.5z" />
    <glyph glyph-name="uni2083" unicode="&#x2083;" horiz-adv-x="346" 
d="M214 -5q0 25 -23.5 37t-63.5 12h-25v77h23q82 0 82 45q0 21 -19.5 30.5t-47.5 9.5q-24 0 -53 -8.5t-53 -21.5v86q21 10 54.5 17.5t68.5 7.5q63 0 106.5 -27.5t43.5 -79.5q0 -31 -15.5 -55.5t-38.5 -36.5q29 -12 46 -39.5t17 -57.5q0 -61 -45.5 -93.5t-116.5 -32.5
q-36 0 -68 6.5t-53 17.5v86q23 -12 52 -20t55 -8q33 0 53.5 12t20.5 36z" />
    <glyph glyph-name="uni2084" unicode="&#x2084;" horiz-adv-x="398" 
d="M312 38h64v-80h-64v-86h-95v86h-200v75l204 247h91v-242zM217 38v125l-103 -125h103z" />
    <glyph glyph-name="uni2085" unicode="&#x2085;" horiz-adv-x="349" 
d="M223 3q0 31 -26 45.5t-67 14.5q-26 0 -47.5 -4t-47.5 -13l28 234h240v-81h-164l-8 -65q26 4 43 4q62 0 106 -31.5t44 -103.5q0 -65 -49 -101.5t-122 -36.5q-36 0 -68.5 5.5t-53.5 14.5v87q50 -25 104 -25q40 0 64 13.5t24 42.5z" />
    <glyph glyph-name="uni2086" unicode="&#x2086;" horiz-adv-x="386" 
d="M129 112q36 36 89 36q63 0 102 -38.5t39 -101.5q0 -64 -45 -103.5t-118 -39.5q-85 0 -126 53t-41 145q0 106 58.5 165t154.5 59q44 0 87 -10v-88q-39 18 -86 18q-42 0 -75 -21.5t-39 -73.5zM196 -60q28 0 46.5 19.5t18.5 49.5q0 29 -18.5 48t-46.5 19t-46 -18.5
t-18 -48.5t18.5 -49.5t45.5 -19.5z" />
    <glyph glyph-name="uni2087" unicode="&#x2087;" horiz-adv-x="346" 
d="M18 198v82h315v-82q-81 -68 -119.5 -143.5t-40.5 -182.5h-111q2 100 49.5 184.5t121.5 141.5h-215z" />
    <glyph glyph-name="uni2088" unicode="&#x2088;" horiz-adv-x="386" 
d="M345 179q0 -27 -12 -50t-34 -38q58 -35 58 -100q0 -58 -45.5 -92.5t-118.5 -34.5t-119 34.5t-46 92.5q0 66 58 100q-22 15 -34 38t-12 50q0 47 41.5 77.5t111.5 30.5t111 -30.5t41 -77.5zM193 216q-25 0 -40.5 -13t-15.5 -35t15 -35.5t41 -13.5q25 0 40.5 13.5t15.5 35.5
t-15.5 35t-40.5 13zM127 -4q0 -26 18 -42t48 -16t47.5 16t17.5 42t-17.5 41.5t-47.5 15.5t-48 -15.5t-18 -41.5z" />
    <glyph glyph-name="uni2089" unicode="&#x2089;" horiz-adv-x="385" 
d="M257 41q-36 -36 -89 -36q-63 0 -102 38t-39 101q0 64 44.5 103.5t118.5 39.5q85 0 126 -52.5t41 -145.5q0 -106 -58.5 -165t-154.5 -59q-46 0 -87 11v87q40 -17 86 -17q42 0 75 21.5t39 73.5zM190 213q-28 0 -46.5 -19.5t-18.5 -49.5t18.5 -49t46.5 -19q27 0 45.5 19
t18.5 49t-18.5 49.5t-45.5 19.5z" />
    <glyph glyph-name="uni2080" unicode="&#x2080;" horiz-adv-x="403" 
d="M29 75q0 99 44.5 155.5t128.5 56.5q83 0 127.5 -56.5t44.5 -155.5q0 -98 -44.5 -154.5t-127.5 -56.5q-84 0 -128.5 56.5t-44.5 154.5zM269 75q0 136 -67 136q-35 0 -52 -33.5t-17 -102.5q0 -68 17 -101t52 -33q67 0 67 134z" />
    <glyph glyph-name="uni2080.aalt" horiz-adv-x="403" 
d="M29 75q0 99 44.5 155t128.5 56q83 0 127.5 -56.5t44.5 -154.5t-44.5 -154.5t-127.5 -56.5q-84 0 -128.5 56t-44.5 155zM133 79l132 59q-14 72 -63 72q-69 0 -69 -126v-5zM269 66v6l-131 -59q13 -72 64 -72q33 0 50 31.5t17 93.5z" />
    <glyph glyph-name="period.inferior" horiz-adv-x="184" 
d="M145 -25v-103h-106v103h106z" />
    <glyph glyph-name="hyphen.inferior" horiz-adv-x="279" 
d="M239 65v-84h-200v84h200z" />
    <glyph glyph-name="comma.inferior" horiz-adv-x="186" 
d="M75 -128h-34v103h105v-109l-48 -89h-64z" />
    <glyph glyph-name="equal.inferior" horiz-adv-x="403" 
d="M363 154v-85h-324v85h324zM363 -24v-84h-324v84h324z" />
    <glyph glyph-name="plus.inferior" horiz-adv-x="380" 
d="M234 -19v-110h-88v110h-118v84h118v110h88v-110h118v-84h-118z" />
    <glyph glyph-name="minus.inferior" horiz-adv-x="401" 
d="M39 -19v84h324v-84h-324z" />
    <glyph glyph-name="uni208D" unicode="&#x208d;" horiz-adv-x="229" 
d="M113 280h92q-32 -51 -52.5 -119.5t-20.5 -135.5q0 -68 20.5 -138t52.5 -122h-92q-31 45 -55 115.5t-24 144.5q0 72 24 141t55 114z" />
    <glyph glyph-name="uni208E" unicode="&#x208e;" horiz-adv-x="229" 
d="M117 -235h-93q33 51 53.5 121.5t20.5 138.5q0 67 -20.5 135.5t-53.5 119.5h93q30 -46 54 -114.5t24 -140.5q0 -74 -24 -144t-54 -116z" />
    <glyph glyph-name="one.numr" horiz-adv-x="258" 
d="M204 317h-98v282h-90v69q50 2 74.5 14t37.5 43h76v-408z" />
    <glyph glyph-name="two.numr" horiz-adv-x="350" 
d="M315 616q0 -36 -18 -68.5t-51 -65.5t-93 -84h166v-81h-293v78q11 10 33 28q82 67 118 105.5t36 72.5q0 24 -17 37t-47 13q-50 0 -112 -34v85q21 12 57 21t72 9q69 0 109 -31t40 -85z" />
    <glyph glyph-name="three.numr" horiz-adv-x="346" 
d="M214 439q0 49 -87 49h-25v77h23q39 0 60.5 11.5t21.5 34.5q0 21 -20 30t-47 9q-24 0 -53.5 -8.5t-52.5 -20.5v86q21 10 54.5 17.5t68.5 7.5q64 0 107 -27.5t43 -80.5q0 -31 -15.5 -55t-38.5 -37q29 -11 46 -38t17 -58q0 -61 -45.5 -93.5t-116.5 -32.5q-35 0 -67.5 6.5
t-53.5 16.5v86q23 -12 52 -20t55 -8q33 0 53.5 12t20.5 36z" />
    <glyph glyph-name="four.numr" horiz-adv-x="398" 
d="M312 483h64v-80h-64v-86h-95v86h-200v75l204 247h91v-242zM217 483v125l-103 -125h103z" />
    <glyph glyph-name="five.numr" horiz-adv-x="349" 
d="M223 447q0 30 -26 43.5t-67 13.5q-27 0 -48.5 -3.5t-46.5 -12.5l28 237h240v-81h-165l-8 -69q22 5 44 5q61 0 105.5 -31t44.5 -101q0 -65 -49 -101.5t-122 -36.5q-36 0 -68.5 5.5t-53.5 14.5v87q48 -25 104 -25q40 0 64 13.5t24 41.5z" />
    <glyph glyph-name="six.numr" horiz-adv-x="386" 
d="M129 556q35 37 89 37q63 0 102 -38.5t39 -102.5q0 -63 -45 -102.5t-118 -39.5q-85 0 -126 53t-41 144q0 107 58.5 165.5t154.5 58.5q50 0 87 -10v-87q-43 18 -86 18q-42 0 -75 -22t-39 -74zM196 385q28 0 46.5 19.5t18.5 49.5q0 29 -18.5 48t-46.5 19q-27 0 -45.5 -18.5
t-18.5 -48.5t18.5 -49.5t45.5 -19.5z" />
    <glyph glyph-name="seven.numr" horiz-adv-x="345" 
d="M17 644v81h315v-82q-81 -68 -119.5 -143.5t-40.5 -182.5h-111q2 100 49.5 184.5t121.5 142.5h-215z" />
    <glyph glyph-name="eight.numr" horiz-adv-x="386" 
d="M345 624q0 -27 -12 -50t-34 -38q58 -35 58 -100q0 -58 -45.5 -92.5t-118.5 -34.5t-119 34.5t-46 92.5q0 66 58 100q-22 15 -34 38t-12 50q0 47 41.5 77.5t111.5 30.5t111 -30.5t41 -77.5zM193 661q-25 0 -40.5 -13t-15.5 -35t15 -35.5t41 -13.5q25 0 40.5 13.5t15.5 35.5
t-15.5 35t-40.5 13zM127 441q0 -26 18 -42t48 -16t47.5 16t17.5 42t-17.5 41.5t-47.5 15.5t-48 -15.5t-18 -41.5z" />
    <glyph glyph-name="nine.numr" horiz-adv-x="386" 
d="M257 486q-34 -36 -90 -36q-63 0 -102 38t-39 101q0 64 45 103t118 39q85 0 126 -52t41 -145q0 -106 -58.5 -165t-154.5 -59q-50 0 -86 11v87q41 -18 86 -18q42 0 75 22t39 74zM189 657q-28 0 -46.5 -19.5t-18.5 -48.5q0 -30 18.5 -49.5t46.5 -19.5t46.5 19.5t18.5 49.5
q0 29 -18.5 48.5t-46.5 19.5z" />
    <glyph glyph-name="zero.numr" horiz-adv-x="403" 
d="M29 520q0 99 44.5 155.5t128.5 56.5q83 0 127.5 -56.5t44.5 -155.5q0 -98 -44.5 -154.5t-127.5 -56.5q-84 0 -128.5 56.5t-44.5 154.5zM269 520q0 136 -67 136q-35 0 -52 -33.5t-17 -102.5q0 -68 17 -101t52 -33q67 0 67 134z" />
    <glyph glyph-name="zero.numr.zero" horiz-adv-x="403" 
d="M29 520q0 99 44.5 155.5t128.5 56.5q83 0 127.5 -56.5t44.5 -155.5q0 -98 -44.5 -154.5t-127.5 -56.5q-84 0 -128.5 56.5t-44.5 154.5zM133 524l132 59q-14 73 -63 73q-69 0 -69 -126v-6zM269 511v6l-131 -59q13 -72 64 -72q33 0 50 31.5t17 93.5z" />
    <glyph glyph-name="one.dnom" horiz-adv-x="258" 
d="M204 1h-98v282h-90v69q50 2 74.5 14t37.5 43h76v-408z" />
    <glyph glyph-name="two.dnom" horiz-adv-x="350" 
d="M315 300q0 -36 -18 -68.5t-51 -65.5t-93 -84h166v-81h-293v78q11 10 33 28q82 67 118 105.5t36 72.5q0 24 -17 37t-47 13q-50 0 -112 -34v85q21 12 57 21t72 9q69 0 109 -31t40 -85z" />
    <glyph glyph-name="three.dnom" horiz-adv-x="346" 
d="M214 122q0 49 -87 49h-25v77h23q39 0 60.5 11.5t21.5 34.5q0 21 -20 30t-47 9q-24 0 -53.5 -8.5t-52.5 -20.5v86q21 10 54.5 17.5t68.5 7.5q64 0 107 -27.5t43 -80.5q0 -31 -15.5 -55t-38.5 -37q29 -11 46 -38t17 -58q0 -61 -45.5 -93.5t-116.5 -32.5q-35 0 -67.5 6.5
t-53.5 16.5v86q23 -12 52 -20t55 -8q33 0 53.5 12t20.5 36z" />
    <glyph glyph-name="four.dnom" horiz-adv-x="398" 
d="M312 167h64v-80h-64v-86h-95v86h-200v75l204 247h91v-242zM217 167v125l-103 -125h103z" />
    <glyph glyph-name="five.dnom" horiz-adv-x="349" 
d="M223 131q0 30 -26 43.5t-67 13.5q-27 0 -48.5 -3.5t-46.5 -12.5l28 237h240v-81h-165l-8 -69q22 5 44 5q61 0 105.5 -31t44.5 -101q0 -65 -49 -101.5t-122 -36.5q-36 0 -68.5 5.5t-53.5 14.5v87q48 -25 104 -25q40 0 64 13.5t24 41.5z" />
    <glyph glyph-name="six.dnom" horiz-adv-x="386" 
d="M129 240q35 37 89 37q63 0 102 -38.5t39 -102.5q0 -63 -45 -102.5t-118 -39.5q-85 0 -126 53t-41 144q0 107 58.5 165.5t154.5 58.5q50 0 87 -10v-87q-43 18 -86 18q-42 0 -75 -22t-39 -74zM196 69q28 0 46.5 19.5t18.5 49.5q0 29 -18.5 48t-46.5 19q-27 0 -45.5 -18.5
t-18.5 -48.5t18.5 -49.5t45.5 -19.5z" />
    <glyph glyph-name="seven.dnom" horiz-adv-x="345" 
d="M17 328v81h315v-82q-81 -68 -119.5 -143.5t-40.5 -182.5h-111q2 100 49.5 184.5t121.5 142.5h-215z" />
    <glyph glyph-name="eight.dnom" horiz-adv-x="386" 
d="M345 308q0 -27 -12 -50t-34 -38q58 -35 58 -100q0 -58 -45.5 -92.5t-118.5 -34.5t-119 34.5t-46 92.5q0 66 58 100q-22 15 -34 38t-12 50q0 47 41.5 77.5t111.5 30.5t111 -30.5t41 -77.5zM193 345q-25 0 -40.5 -13t-15.5 -35t15 -35.5t41 -13.5q25 0 40.5 13.5t15.5 35.5
t-15.5 35t-40.5 13zM127 125q0 -26 18 -42t48 -16t47.5 16t17.5 42t-17.5 41.5t-47.5 15.5t-48 -15.5t-18 -41.5z" />
    <glyph glyph-name="nine.dnom" horiz-adv-x="386" 
d="M257 170q-34 -36 -90 -36q-63 0 -102 38t-39 101q0 64 45 103t118 39q85 0 126 -52t41 -145q0 -106 -58.5 -165t-154.5 -59q-50 0 -86 11v87q41 -18 86 -18q42 0 75 22t39 74zM189 341q-28 0 -46.5 -19.5t-18.5 -48.5q0 -30 18.5 -49.5t46.5 -19.5t46.5 19.5t18.5 49.5
q0 29 -18.5 48.5t-46.5 19.5z" />
    <glyph glyph-name="zero.dnom" horiz-adv-x="403" 
d="M29 204q0 99 44.5 155.5t128.5 56.5q83 0 127.5 -56.5t44.5 -155.5q0 -98 -44.5 -154.5t-127.5 -56.5q-84 0 -128.5 56.5t-44.5 154.5zM269 204q0 136 -67 136q-35 0 -52 -33.5t-17 -102.5q0 -68 17 -101t52 -33q67 0 67 134z" />
    <glyph glyph-name="zero.dnom.zero" horiz-adv-x="403" 
d="M29 204q0 99 44.5 155.5t128.5 56.5q83 0 127.5 -56.5t44.5 -155.5q0 -98 -44.5 -154.5t-127.5 -56.5q-84 0 -128.5 56.5t-44.5 154.5zM133 208l132 59q-14 73 -63 73q-69 0 -69 -126v-6zM269 195v6l-131 -59q13 -72 64 -72q33 0 50 31.5t17 93.5z" />
    <glyph glyph-name="ampersand.aalt" horiz-adv-x="722" 
d="M742 0h-163l-77 83q-55 -49 -110 -72.5t-119 -23.5q-72 0 -127.5 28t-86 77t-30.5 109q0 72 43 126t121 86q-38 45 -55.5 80.5t-17.5 72.5q0 49 26 88t71.5 61.5t103.5 22.5q49 0 93 -16.5t72.5 -52t28.5 -90.5q0 -59 -35.5 -107t-104.5 -83l121 -128q26 79 30 140h119
q-10 -108 -71 -223zM243 573q0 -26 16.5 -52t53.5 -65q88 46 88 116q0 36 -22.5 56.5t-56.5 20.5q-33 0 -56 -20.5t-23 -55.5zM432 157l-174 185q-55 -27 -80 -60t-25 -77q0 -54 37 -87t93 -33q80 0 149 72z" />
    <glyph glyph-name="hyphen.case" horiz-adv-x="441" 
d="M387 419v-109h-332v109h332z" />
    <glyph glyph-name="endash.aalt" horiz-adv-x="548" 
d="M493 418v-106h-439v106h439z" />
    <glyph glyph-name="emdash.aalt" horiz-adv-x="788" 
d="M733 418v-106h-679v106h679z" />
    <glyph glyph-name="question.aalt" horiz-adv-x="499" 
d="M29 584v116q36 16 90.5 27t108.5 11q63 0 119 -20.5t90.5 -61t34.5 -98.5q0 -64 -35.5 -112t-89.5 -81q-36 -22 -54 -37t-27 -35t-9 -52v-28h-126v31q0 66 26.5 104.5t87.5 75.5q49 29 74 58t25 66q0 41 -37.5 62.5t-91.5 21.5q-45 0 -94.5 -13.5t-91.5 -34.5zM262 136
v-136h-135v136h135z" />
    <glyph glyph-name="questiondown.aalt" horiz-adv-x="499" 
d="M372 725v-136h-135v136h135zM28 167q0 64 35.5 112.5t88.5 80.5q36 21 54 36.5t27 35.5t9 52v28h126v-31q0 -66 -26.5 -104.5t-87.5 -75.5q-49 -29 -74 -58t-25 -66q0 -41 37.5 -62.5t91.5 -21.5q45 0 94.5 13.5t91.5 34.5v-116q-36 -16 -90.5 -27t-108.5 -11
q-63 0 -118.5 20.5t-90 61t-34.5 98.5z" />
    <glyph glyph-name="exclam.aalt" horiz-adv-x="272" 
d="M205 526l-29 -313h-80l-29 313v199h138v-199zM203 136v-136h-134v136h134z" />
    <glyph glyph-name="exclamdown.aalt" horiz-adv-x="272" 
d="M203 725v-136h-134v136h134zM67 199l29 313h80l29 -313v-199h-138v199z" />
    <glyph glyph-name="guilsinglleft.aalt" horiz-adv-x="349" 
d="M313 138h-114l-159 230l159 229h114l-135 -229z" />
    <glyph glyph-name="guilsinglright.aalt" horiz-adv-x="348" 
d="M150 597l159 -229l-159 -230h-114l135 230l-135 229h114z" />
    <glyph glyph-name="guillemotleft.aalt" horiz-adv-x="570" 
d="M313 138h-114l-159 230l159 229h114l-135 -229zM534 138h-114l-159 230l159 229h114l-135 -229z" />
    <glyph glyph-name="guillemotright.aalt" horiz-adv-x="570" 
d="M150 597l159 -229l-159 -230h-114l135 230l-135 229h114zM372 597l159 -229l-159 -230h-114l135 230l-135 229h114z" />
    <glyph glyph-name="parenleft.case" horiz-adv-x="310" 
d="M154 725h121q-52 -84 -78.5 -173t-26.5 -189q0 -101 26.5 -190t78.5 -173h-121q-113 174 -113 363q0 190 113 362z" />
    <glyph glyph-name="parenright.case" horiz-adv-x="310" 
d="M156 0h-121q52 84 78.5 173t26.5 190t-26.5 189t-78.5 173h121q51 -78 82 -166.5t31 -195.5q0 -191 -113 -363z" />
    <glyph glyph-name="bracketleft.aalt" horiz-adv-x="357" 
d="M74 0v725h244v-91h-132v-543h132v-91h-244z" />
    <glyph glyph-name="bracketright.aalt" horiz-adv-x="347" 
d="M29 634v91h244v-725h-244v91h133v543h-133z" />
    <glyph glyph-name="braceleft.aalt" horiz-adv-x="364" 
d="M283 0q-68 0 -106 14.5t-55 49.5t-17 99v50q0 53 -15 78t-61 25v95q47 0 61.5 25t14.5 78v48q0 64 17 99t55 49.5t106 14.5h40v-97h-25q-30 0 -45 -6.5t-20.5 -21t-5.5 -42.5v-57q0 -65 -22.5 -94.5t-66.5 -41.5v-2q44 -12 66.5 -42t22.5 -95v-59q0 -28 5.5 -42.5
t20.5 -21t45 -6.5h25v-97h-40z" />
    <glyph glyph-name="braceright.aalt" horiz-adv-x="364" 
d="M41 0v97h25q30 0 45 6.5t20.5 21t5.5 42.5v59q0 65 22.5 95t66.5 42v2q-44 12 -66.5 41.5t-22.5 94.5v57q0 28 -5.5 42.5t-20.5 21t-45 6.5h-25v97h41q68 0 105.5 -14.5t54.5 -49.5t17 -99v-48q0 -53 14.5 -78t61.5 -25v-95q-46 0 -61 -25t-15 -78v-50q0 -64 -17 -99
t-54.5 -49.5t-105.5 -14.5h-41z" />
    <glyph glyph-name="bar.aalt" horiz-adv-x="250" 
d="M74 0v725h102v-725h-102z" />
    <glyph glyph-name="brokenbar.aalt" horiz-adv-x="250" 
d="M74 460v265h102v-265h-102zM74 0v265h102v-265h-102z" />
    <glyph glyph-name="periodcentered.aalt" horiz-adv-x="248" 
d="M191 431v-136h-135v136h135z" />
    <glyph glyph-name="bullet.aalt" horiz-adv-x="438" 
d="M216 518q44 0 80 -20.5t57 -55t21 -76.5q0 -44 -20.5 -80.5t-57 -57t-80.5 -20.5q-41 0 -76 21t-55.5 57t-20.5 80q0 41 20.5 76t55.5 55.5t76 20.5z" />
    <glyph glyph-name="plus.case" 
d="M395 310v-216h-111v216h-220v106h220v216h111v-216h219v-106h-219z" />
    <glyph glyph-name="minus.case" 
d="M64 310v106h550v-106h-550z" />
    <glyph glyph-name="divide.aalt" 
d="M407 491h-134v130h134v-130zM614 416v-106h-550v106h550zM407 105h-134v130h134v-130z" />
    <glyph glyph-name="multiply.aalt" 
d="M409 368l165 -165l-73 -73l-166 166l-162 -164l-68 66l163 164l-164 165l73 72l165 -164l163 165l67 -68z" />
    <glyph glyph-name="equal.case" 
d="M614 554v-107h-550v107h550zM614 279v-106h-550v106h550z" />
    <glyph glyph-name="plusminus.aalt" 
d="M64 493h220v139h111v-139h219v-106h-219v-139h-111v139h-220v106zM614 200v-106h-550v106h550z" />
    <glyph glyph-name="less.aalt" 
d="M76 312v100l515 222v-119l-378 -153l378 -152v-120z" />
    <glyph glyph-name="greater.aalt" 
d="M88 634l515 -222v-100l-515 -222v120l379 152l-379 153v119z" />
    <glyph glyph-name="lessequal.aalt" 
d="M600 523l-375 -96l375 -97v-112l-526 159v99l526 161v-114zM603 94h-530v107h530v-107z" />
    <glyph glyph-name="greaterequal.aalt" 
d="M78 330l376 97l-376 96v114l527 -161v-99l-527 -159v112zM606 201v-107h-530v107h530z" />
    <glyph glyph-name="notequal.aalt" 
d="M616 554v-107h-168l-96 -168h264v-106h-324l-77 -136l-95 49l49 87h-108v106h169l95 168h-264v107h325l77 136l95 -49l-49 -87h107z" />
    <glyph glyph-name="acute.aalt" horiz-adv-x="303" 
d="M128 886h153l-155 -113h-104z" />
    <glyph glyph-name="breve.aalt" horiz-adv-x="373" 
d="M351 886q-12 -118 -166 -118q-74 0 -116 30t-47 88h89q4 -26 22 -38.5t53 -12.5q69 0 76 51h89z" />
    <glyph glyph-name="caron.aalt" horiz-adv-x="422" 
d="M262 773h-105l-135 113h121l67 -52l69 52h121z" />
    <glyph glyph-name="cedilla.aalt" horiz-adv-x="252" 
d="M39 -135q30 -14 60 -14q25 0 40.5 8.5t15.5 23.5q0 14 -11.5 21t-30.5 7q-25 0 -38 -9l-30 17l51 83h55l-33 -51q20 3 34 3q36 0 58.5 -18t22.5 -50q0 -38 -35 -60.5t-82 -22.5q-53 0 -94 18z" />
    <glyph glyph-name="circumflex.aalt" horiz-adv-x="422" 
d="M160 886h105l135 -113h-122l-67 52l-68 -52h-121z" />
    <glyph glyph-name="dieresis.aalt" horiz-adv-x="385" 
d="M22 776v107h105v-107h-105zM258 776v107h105v-107h-105z" />
    <glyph glyph-name="dotaccent.aalt" horiz-adv-x="166" 
d="M22 776v108h122v-108h-122z" />
    <glyph glyph-name="grave.aalt" horiz-adv-x="303" 
d="M281 773h-104l-155 113h153z" />
    <glyph glyph-name="hungarumlaut.aalt" horiz-adv-x="484" 
d="M128 886h153l-155 -113h-104zM309 886h153l-156 -113h-104z" />
    <glyph glyph-name="macron.aalt" horiz-adv-x="352" 
d="M330 871v-85h-308v85h308z" />
    <glyph glyph-name="ogonek.aalt" horiz-adv-x="240" 
d="M218 0q-44 -22 -67.5 -39.5t-23.5 -35.5q0 -20 12.5 -29.5t32.5 -9.5q21 0 46 9v-74q-33 -9 -69 -9q-54 0 -90.5 23t-36.5 70q0 28 18 52.5t51 42.5h127z" />
    <glyph glyph-name="ring.aalt" horiz-adv-x="225" 
d="M211 854q0 -40 -28.5 -67t-70.5 -27t-70.5 27t-28.5 67t29 66.5t70 26.5t70 -26.5t29 -66.5zM68 854q0 -18 13 -30.5t31 -12.5t31 12.5t13 30.5t-13 30.5t-31 12.5t-31 -12.5t-13 -30.5z" />
    <glyph glyph-name="tilde.aalt" horiz-adv-x="432" 
d="M326 890h84q-11 -67 -47.5 -94t-80.5 -27q-23 0 -40 6.5t-38 18.5q-17 10 -27.5 14.5t-22.5 4.5q-41 0 -47 -43h-85q11 65 48 93t80 28q23 0 38.5 -6.5t36.5 -18.5q17 -10 28 -14.5t24 -4.5q41 0 49 43z" />
    <glyph glyph-name="a.salt" horiz-adv-x="610" 
d="M544 538v-538h-119v73q-25 -42 -67.5 -64t-94.5 -22q-65 0 -117.5 34.5t-82.5 98t-30 148.5q0 84 30 148t82.5 98.5t117.5 34.5q55 0 96.5 -23t65.5 -63v75h119zM291 454q-62 0 -97 -50t-35 -136q0 -87 34.5 -136.5t97.5 -49.5q61 0 99.5 48.5t38.5 137.5t-38.5 137.5
t-99.5 48.5z" />
    <glyph glyph-name="aacute.aalt" horiz-adv-x="610" 
d="M544 538v-538h-119v73q-25 -42 -67.5 -64t-94.5 -22q-65 0 -117.5 34.5t-82.5 98t-30 148.5q0 84 30 148t82.5 98.5t117.5 34.5q55 0 96.5 -23t65.5 -63v75h119zM291 454q-62 0 -97 -50t-35 -136q0 -87 34.5 -136.5t97.5 -49.5q61 0 99.5 48.5t38.5 137.5t-38.5 137.5
t-99.5 48.5zM348 755h141l-142 -116h-92z" />
    <glyph glyph-name="abreve.aalt" horiz-adv-x="610" 
d="M544 538v-538h-119v73q-25 -42 -67.5 -64t-94.5 -22q-65 0 -117.5 34.5t-82.5 98t-30 148.5q0 84 30 148t82.5 98.5t117.5 34.5q55 0 96.5 -23t65.5 -63v75h119zM291 454q-62 0 -97 -50t-35 -136q0 -87 34.5 -136.5t97.5 -49.5q61 0 99.5 48.5t38.5 137.5t-38.5 137.5
t-99.5 48.5zM476 755q-6 -55 -46 -89t-120 -34q-78 0 -118.5 34t-45.5 89h87q3 -26 22 -41t56 -15t56.5 15.5t22.5 40.5h86z" />
    <glyph glyph-name="acircumflex.aalt" horiz-adv-x="610" 
d="M544 538v-538h-119v73q-25 -42 -67.5 -64t-94.5 -22q-65 0 -117.5 34.5t-82.5 98t-30 148.5q0 84 30 148t82.5 98.5t117.5 34.5q55 0 96.5 -23t65.5 -63v75h119zM291 454q-62 0 -97 -50t-35 -136q0 -87 34.5 -136.5t97.5 -49.5q61 0 99.5 48.5t38.5 137.5t-38.5 137.5
t-99.5 48.5zM263 755h95l140 -116h-111l-77 48l-77 -48h-111z" />
    <glyph glyph-name="adieresis.aalt" horiz-adv-x="610" 
d="M544 538v-538h-119v73q-25 -42 -67.5 -64t-94.5 -22q-65 0 -117.5 34.5t-82.5 98t-30 148.5q0 84 30 148t82.5 98.5t117.5 34.5q55 0 96.5 -23t65.5 -63v75h119zM291 454q-62 0 -97 -50t-35 -136q0 -87 34.5 -136.5t97.5 -49.5q61 0 99.5 48.5t38.5 137.5t-38.5 137.5
t-99.5 48.5zM247 646h-105v109h105v-109zM374 646v109h106v-109h-106z" />
    <glyph glyph-name="agrave.aalt" horiz-adv-x="610" 
d="M544 538v-538h-119v73q-25 -42 -67.5 -64t-94.5 -22q-65 0 -117.5 34.5t-82.5 98t-30 148.5q0 84 30 148t82.5 98.5t117.5 34.5q55 0 96.5 -23t65.5 -63v75h119zM291 454q-62 0 -97 -50t-35 -136q0 -87 34.5 -136.5t97.5 -49.5q61 0 99.5 48.5t38.5 137.5t-38.5 137.5
t-99.5 48.5zM353 639h-92l-142 116h141z" />
    <glyph glyph-name="amacron.aalt" horiz-adv-x="610" 
d="M544 538v-538h-119v73q-25 -42 -67.5 -64t-94.5 -22q-65 0 -117.5 34.5t-82.5 98t-30 148.5q0 84 30 148t82.5 98.5t117.5 34.5q55 0 96.5 -23t65.5 -63v75h119zM291 454q-62 0 -97 -50t-35 -136q0 -87 34.5 -136.5t97.5 -49.5q61 0 99.5 48.5t38.5 137.5t-38.5 137.5
t-99.5 48.5zM464 744v-83h-308v83h308z" />
    <glyph glyph-name="aogonek.aalt" horiz-adv-x="610" 
d="M425 73q-25 -42 -67.5 -64t-94.5 -22q-65 0 -117.5 34.5t-82.5 98t-30 148.5q0 84 30 148t82.5 98.5t117.5 34.5q55 0 96.5 -23t65.5 -63v75h119v-538q-46 -21 -69 -39t-23 -39q0 -18 13.5 -26.5t35.5 -8.5q23 0 43 6v-74q-31 -7 -67 -7q-55 0 -92.5 22t-37.5 69
q0 60 78 97v73zM291 454q-62 0 -97 -50t-35 -136q0 -87 34.5 -136.5t97.5 -49.5q61 0 99.5 48.5t38.5 137.5t-38.5 137.5t-99.5 48.5z" />
    <glyph glyph-name="aring.aalt" horiz-adv-x="610" 
d="M544 538v-538h-119v73q-25 -42 -67.5 -64t-94.5 -22q-65 0 -117.5 34.5t-82.5 98t-30 148.5q0 84 30 148t82.5 98.5t117.5 34.5q55 0 96.5 -23t65.5 -63v75h119zM291 454q-62 0 -97 -50t-35 -136q0 -87 34.5 -136.5t97.5 -49.5q61 0 99.5 48.5t38.5 137.5t-38.5 137.5
t-99.5 48.5zM409 709q0 -40 -29 -66.5t-70 -26.5t-70 26.5t-29 66.5q0 41 29 67.5t70 26.5t70 -26.5t29 -67.5zM267 709q0 -18 12.5 -30t30.5 -12t31 12t13 30t-13 30.5t-31 12.5t-30.5 -12.5t-12.5 -30.5z" />
    <glyph glyph-name="atilde.aalt" horiz-adv-x="610" 
d="M544 538v-538h-119v73q-25 -42 -67.5 -64t-94.5 -22q-65 0 -117.5 34.5t-82.5 98t-30 148.5q0 84 30 148t82.5 98.5t117.5 34.5q55 0 96.5 -23t65.5 -63v75h119zM291 454q-62 0 -97 -50t-35 -136q0 -87 34.5 -136.5t97.5 -49.5q61 0 99.5 48.5t38.5 137.5t-38.5 137.5
t-99.5 48.5zM430 757h81q-10 -59 -43 -88t-80 -29q-23 0 -42.5 7t-40.5 20q-19 10 -30 14.5t-24 4.5q-40 0 -48 -44h-80q10 57 42 87t81 30q24 0 41.5 -6.5t37.5 -19.5q19 -10 30.5 -15t25.5 -5q41 0 49 44z" />
    <glyph glyph-name="l.ss02" horiz-adv-x="280" 
d="M62 755h120v-593q0 -29 4.5 -42.5t17 -19t37.5 -5.5h21v-95h-64q-58 0 -86.5 12.5t-39 42t-10.5 86.5v614z" />
    <glyph glyph-name="lacute.aalt" horiz-adv-x="280" 
d="M62 755h120v-593q0 -29 4.5 -42.5t17 -19t37.5 -5.5h21v-95h-64q-58 0 -86.5 12.5t-39 42t-10.5 86.5v614zM176 906h153l-155 -113h-104z" />
    <glyph glyph-name="lcaron.aalt" horiz-adv-x="280" 
d="M247 755h117l-70 -170h-77zM62 755h120v-593q0 -29 4.5 -42.5t17 -19t37.5 -5.5h21v-95h-64q-58 0 -86.5 12.5t-39 42t-10.5 86.5v614z" />
    <glyph glyph-name="uni013C.aalt" horiz-adv-x="280" 
d="M62 755h120v-593q0 -29 4.5 -42.5t17 -19t37.5 -5.5h21v-95h-64q-58 0 -86.5 12.5t-39 42t-10.5 86.5v614zM149 -132h-36v96h102v-102l-44 -89h-61z" />
    <glyph glyph-name="ldot.aalt" horiz-adv-x="357" 
d="M248 345v109h105v-109h-105zM62 755h120v-593q0 -29 4.5 -42.5t17 -19t37.5 -5.5h21v-95h-64q-58 0 -86.5 12.5t-39 42t-10.5 86.5v614z" />
    <glyph glyph-name="lslash.aalt" horiz-adv-x="336" 
d="M28 280v98l73 44v333h119v-270l77 47v-98l-77 -47v-225q0 -29 4.5 -42.5t17 -19t38.5 -5.5h20v-95h-64q-58 0 -86.5 12.5t-38.5 41.5t-10 87v183z" />
    <glyph glyph-name="uniFB02.aalt" horiz-adv-x="617" 
d="M97 590q0 84 41 126t128 42q41 0 82 -7v-93q-35 6 -59 6q-37 0 -55 -18.5t-18 -61.5v-46h125v-86h-125v-452h-119v452h-76v86h76v52zM399 755h120v-593q0 -29 4.5 -42.5t17 -19t37.5 -5.5h21v-95h-64q-58 0 -86.5 12.5t-39 42t-10.5 86.5v614z" />
    <glyph glyph-name="germandbls.aalt" horiz-adv-x="641" 
d="M185 -195h-119v697q0 71 15 116t44 74q67 70 205 70q104 0 170.5 -49t66.5 -136q0 -55 -25.5 -95.5t-65.5 -57.5q59 -19 96.5 -69.5t37.5 -129.5q0 -76 -34.5 -129.5t-95 -81t-135.5 -27.5q-63 0 -115 12l21 101q20 -7 45.5 -11t47.5 -4q62 0 102.5 37t40.5 102
q0 72 -49.5 105.5t-137.5 33.5h-18v100h15q73 0 112 26.5t39 77.5q0 45 -32 72.5t-88 27.5q-79 0 -114 -44q-14 -18 -21.5 -46.5t-7.5 -75.5v-696z" />
    <glyph glyph-name="uni0430.aalt" horiz-adv-x="611" 
d="M545 538v-538h-119v73q-25 -42 -67.5 -64t-94.5 -22q-65 0 -117.5 34.5t-82.5 98t-30 148.5q0 84 30 148t82.5 98.5t117.5 34.5q55 0 96.5 -23t65.5 -63v75h119zM292 454q-62 0 -97 -50t-35 -136q0 -87 34.5 -136.5t97.5 -49.5q61 0 99.5 48.5t38.5 137.5t-38.5 137.5
t-99.5 48.5z" />
    <glyph glyph-name="uni2318" unicode="&#x2318;" horiz-adv-x="763" 
d="M382 746l127 -94l254 109l-189 -158l38 -29l-17 -86l51 -271l-38 -60h-69l40 60l-111 296l-35 -29h-22l-65 97l73 -55l-27 74l38 16zM579 33q-80 -46 -175 -46t-176.5 47.5t-129 129t-47.5 176.5q0 87 39.5 163t108.5 125.5t154 61.5q-56 -17 -92 -64t-36 -108
q0 -62 39 -111t98 -63l117 -127h-71z" />
    <glyph glyph-name="circle" unicode="&#x25cb;" horiz-adv-x="654" 
d="M610 269q0 -77 -37 -141.5t-101.5 -102.5t-144.5 -38t-144.5 38t-101.5 102.5t-37 141.5q0 76 37 140.5t101.5 102.5t144.5 38t144.5 -38t101.5 -102.5t37 -140.5zM151 269q0 -50 22 -90.5t62.5 -64t91.5 -23.5t91 23.5t62.5 64t22.5 90.5q0 49 -22.5 89.5t-62.5 64
t-91 23.5t-91.5 -23.5t-62.5 -64t-22 -89.5z" />
    <glyph glyph-name="uni02BB" unicode="&#x2bb;" horiz-adv-x="232" 
d="M123 572h60v-135h-139v145l74 143h70z" />
    <glyph glyph-name="uni02BC" unicode="&#x2bc;" horiz-adv-x="225" 
d="M112 590h-61v135h139v-145l-74 -143h-70z" />
    <glyph glyph-name="glyph795" horiz-adv-x="441" 
d="M387 419v-109h-332v109h332z" />
    <glyph glyph-name="uni2007" unicode="&#x2007;" horiz-adv-x="660" 
 />
    <glyph glyph-name="uni2008" unicode="&#x2008;" horiz-adv-x="234" 
 />
    <glyph glyph-name="uni2009" unicode="&#x2009;" horiz-adv-x="41" 
 />
    <glyph glyph-name="uni200B" unicode="&#x200b;" horiz-adv-x="0" 
 />
    <glyph glyph-name="uni2060" unicode="&#x2060;" horiz-adv-x="0" 
 />
    <glyph glyph-name="uniFEFF" unicode="&#xfeff;" horiz-adv-x="0" 
 />
    </font>
</defs>
</svg>
