<?xml version="1.0" standalone="no"?>
<!DOCTYPE svg PUBLIC "-//W3C//DTD SVG 1.1//EN" "http://www.w3.org/Graphics/SVG/1.1/DTD/svg11.dtd" >
<svg xmlns="http://www.w3.org/2000/svg" xmlns:xlink="http://www.w3.org/1999/xlink" version="1.1">
<metadata>
Created by Christoph Koeberlin (http://christoph.koe.berlin)
Copyright (c) 2014 Swiss Typefaces Sa`rl. All rights reserved.
</metadata>
<defs>
<font id="Font" horiz-adv-x="678" >
  <font-face 
    font-family="Font"
    font-weight="450"
    font-stretch="normal"
    units-per-em="1000"
    panose-1="2 2 5 4 6 0 0 0 0 0"
    ascent="800"
    descent="-200"
    x-height="538"
    cap-height="725"
    bbox="-155 -311 1405 974"
    underline-thickness="60"
    underline-position="-50"
    unicode-range="U+0020-FB02"
  />
<missing-glyph horiz-adv-x="500" 
d="M0 725h500v-725h-500v725zM19 696v-667l220 333zM481 29v667l-221 -334zM33 19h433l-216 327zM250 378l216 328h-433z" />
    <glyph glyph-name=".notdef" horiz-adv-x="500" 
d="M0 725h500v-725h-500v725zM19 696v-667l220 333zM481 29v667l-221 -334zM33 19h433l-216 327zM250 378l216 328h-433z" />
    <glyph glyph-name=".null" horiz-adv-x="0" 
 />
    <glyph glyph-name="nonmarkingreturn" horiz-adv-x="258" 
 />
    <glyph glyph-name="space" unicode=" " horiz-adv-x="258" 
 />
    <glyph glyph-name="exclam" unicode="!" horiz-adv-x="373" 
d="M126 725q0 14 18.5 21t41 7t41 -7t18.5 -21v-223l-49 -290h-20l-50 291v222zM112 61q0 30 22 52t52 22q31 0 52.5 -22t21.5 -52t-21.5 -52t-52.5 -22q-30 0 -52 22t-22 52z" />
    <glyph glyph-name="quotedbl" unicode="&#x22;" horiz-adv-x="374" 
d="M332 725l-37 -256h-43l-37 256h117zM161 725l-37 -256h-43l-37 256h117z" />
    <glyph glyph-name="numbersign" unicode="#" horiz-adv-x="710" 
d="M225 528l28 197h68l-28 -197h170l28 197h68l-28 -197h137l-9 -65h-137l-24 -171h137l-10 -65h-136l-32 -227h-69l32 227h-169l-31 -227h-69l32 227h-141l9 65h141l24 171h-141l8 65h142zM260 292h169l25 171h-170z" />
    <glyph glyph-name="dollar" unicode="$" horiz-adv-x="637" 
d="M283 -11q-44 4 -87 19t-77.5 40.5t-58 62t-27.5 84.5h112q0 -32 10 -60t27.5 -50.5t43 -37.5t57.5 -21v304l-26 7q-35 10 -71.5 27.5t-65.5 43t-47.5 60.5t-18.5 81t18 80.5t49 58.5t73 37.5t89 15.5v104h47v-104q44 -3 85 -18t73.5 -40.5t53.5 -63t26 -85.5h-112
q-1 66 -32 113t-94 57v-275l32 -9q43 -12 84.5 -28.5t74 -42t52.5 -61.5t20 -86q0 -53 -21 -93t-57 -66.5t-83.5 -40.5t-101.5 -15v-89h-47v91zM330 317v-294q80 2 125.5 37.5t45.5 106.5q0 34 -12 57.5t-34 40.5t-51.5 29t-64.5 21zM142 579q0 -32 13.5 -54.5t34.5 -39
t46 -27t47 -16.5v263q-39 -2 -66 -13t-43.5 -28.5t-24 -39t-7.5 -45.5z" />
    <glyph glyph-name="percent" unicode="%" horiz-adv-x="1043" 
d="M769 206q0 -35 3.5 -69.5t12.5 -62t24 -44.5t39 -17t39 17t24 44.5t12.5 62t3.5 69.5t-3.5 69.5t-12.5 61.5t-24 44t-39 17t-39 -17t-24 -44t-12.5 -61.5t-3.5 -69.5zM681 206q0 42 12.5 80.5t34.5 68t53 46.5t67 17q37 0 67.5 -17t52.5 -46.5t34.5 -68t12.5 -80.5
t-12.5 -80.5t-34.5 -68t-52.5 -47t-67.5 -17.5q-36 0 -67 17.5t-53 47t-34.5 68t-12.5 80.5zM235 0l508 725h66l-507 -725h-67zM116 523q0 -35 3.5 -69.5t12.5 -62t24 -44.5t39 -17t39 17t24 44.5t12.5 62t3.5 69.5t-3.5 69.5t-12.5 61.5t-24 44t-39 17t-39 -17t-24 -44
t-12.5 -61.5t-3.5 -69.5zM28 523q0 42 12.5 80.5t34.5 68t53 46.5t67 17q37 0 67.5 -17t52.5 -46.5t34.5 -68t12.5 -80.5t-12.5 -80.5t-34.5 -68t-52.5 -47t-67.5 -17.5q-36 0 -67 17.5t-53 47t-34.5 68t-12.5 80.5z" />
    <glyph glyph-name="ampersand" unicode="&#x26;" horiz-adv-x="724" 
d="M294 -13q-56 0 -102.5 18t-81 48.5t-53.5 71t-19 86.5q0 43 17.5 76t45.5 58t64 43t72 32q-39 48 -57.5 89.5t-18.5 77.5q0 37 14 65.5t39 48.5t59 30.5t75 10.5q33 0 63.5 -8.5t53.5 -25t36.5 -41.5t13.5 -58q0 -29 -14 -54.5t-36.5 -47t-51 -39t-58.5 -29.5l194 -222
q22 51 29.5 110.5t2.5 120.5h78q-3 -78 -25 -143t-56 -121l114 -130l-77 -65l-96 108q-25 -28 -49.5 -48.5t-51 -34t-57 -20.5t-67.5 -7zM253 401q-24 -11 -42.5 -29.5t-30.5 -41t-18.5 -48t-6.5 -50.5q0 -41 11 -76.5t32.5 -62t52.5 -42t72 -15.5q57 0 98 25.5t72 65.5
l-239 273q-1 0 -1 1zM448 608q0 51 -28 75t-74 24q-47 0 -68.5 -26t-21.5 -61q0 -45 23 -82.5t59 -79.5q19 9 38.5 21.5t35.5 30.5t26 42t10 56z" />
    <glyph glyph-name="quotesingle" unicode="'" horiz-adv-x="204" 
d="M161 725l-37 -256h-43l-37 256h117z" />
    <glyph glyph-name="parenleft" unicode="(" horiz-adv-x="311" 
d="M162 276q0 -74 5 -148t18.5 -141.5t38.5 -124t65 -95.5l-14 -17q-55 43 -96.5 101t-69 126t-41 144t-13.5 155t13.5 155t41 144.5t69 126t96.5 101.5l14 -18q-40 -39 -65 -95.5t-38.5 -124t-18.5 -141.5t-5 -148z" />
    <glyph glyph-name="parenright" unicode=")" horiz-adv-x="311" 
d="M151 276q0 74 -5 148t-19 141.5t-39 124t-65 95.5l14 18q55 -44 96.5 -101.5t69 -126t41 -144.5t13.5 -155t-13.5 -155t-41 -144t-69 -126t-96.5 -101l-14 17q40 39 65 95.5t39 124t19 141.5t5 148z" />
    <glyph glyph-name="asterisk" unicode="*" horiz-adv-x="378" 
d="M216 606l120 40l19 -52l-120 -39l73 -102l-44 -33l-75 103l-73 -102l-46 32l72 101l-117 40l16 53l119 -41v120h56v-120z" />
    <glyph glyph-name="plus" unicode="+" 
d="M303 0v241h-241v68h241v229h72v-229h241v-68h-241v-241h-72z" />
    <glyph glyph-name="comma" unicode="," horiz-adv-x="354" 
d="M103 60q0 31 21.5 53t53.5 22q34 0 54 -23.5t20 -60.5q0 -35 -15.5 -72t-40.5 -71t-57 -62t-65 -44l-7 12q17 13 36 32.5t35.5 42t27 48t10.5 50.5q-30 1 -51.5 21t-21.5 52z" />
    <glyph glyph-name="hyphen" unicode="-" horiz-adv-x="386" 
d="M54 321h279v-89h-279v89z" />
    <glyph glyph-name="period" unicode="." horiz-adv-x="356" 
d="M104 61q0 30 22 52t52 22q31 0 52.5 -22t21.5 -52t-21.5 -52t-52.5 -22q-30 0 -52 22t-22 52z" />
    <glyph glyph-name="slash" unicode="/" horiz-adv-x="398" 
d="M0 -32l343 808h55l-346 -808h-52z" />
    <glyph glyph-name="zero" unicode="0" horiz-adv-x="662" 
d="M168 366q0 -60 8 -121t27 -110.5t50 -80.5t78 -31q46 0 77 31t50 80.5t27 110.5t8 121t-8 120.5t-27 109t-50 79.5t-77 31q-47 0 -78 -31t-50 -79.5t-27 -109t-8 -120.5zM50 366q0 68 18 135.5t53 121t88 86.5t122 33t122 -33t88 -86.5t53 -121t18 -135.5
q0 -69 -18 -136.5t-53 -121.5t-88 -87.5t-122 -33.5t-122 33.5t-88 87.5t-53 121.5t-18 136.5z" />
    <glyph glyph-name="one" unicode="1" horiz-adv-x="457" 
d="M301 145q0 -39 1.5 -62.5t10.5 -36.5t27.5 -18.5t51.5 -9.5v-18h-307v20q41 4 63.5 9.5t33 18t12.5 35.5t2 62v471h-141v24q48 4 83 13t61.5 21.5t45.5 29t34 37.5h22v-596z" />
    <glyph glyph-name="two" unicode="2" horiz-adv-x="521" 
d="M455 563q0 -41 -14.5 -79.5t-39 -76.5t-58 -76t-71.5 -77q-35 -36 -72 -76t-74 -78h343v-100h-472v16q98 99 164.5 174t107 133.5t57.5 105.5t17 89q0 75 -37 110t-101 35q-61 0 -104.5 -34t-56.5 -92h-29q17 98 78.5 151.5t156.5 53.5q40 0 77 -11t65.5 -33t45.5 -56
t17 -79z" />
    <glyph glyph-name="three" unicode="3" horiz-adv-x="538" 
d="M218 -13q-56 0 -107 9t-76 20v153h20q9 -30 25.5 -56t39 -45t51 -30t60.5 -11q67 0 107.5 38.5t40.5 102.5q0 21 -7.5 50t-29 58t-60.5 53t-102 33v22l23 10q38 16 65 37t44 43.5t25 44t8 38.5q0 48 -31 77.5t-96 29.5q-58 0 -102 -34.5t-56 -92.5h-29q17 98 78.5 151.5
t156.5 53.5q39 0 73 -9t59 -26.5t39.5 -43t14.5 -58.5q0 -29 -14 -55.5t-35.5 -49.5t-47.5 -42t-50 -31v-3q85 -30 133.5 -82.5t48.5 -132.5q0 -52 -24 -93.5t-62 -70t-86 -43.5t-97 -15z" />
    <glyph glyph-name="four" unicode="4" horiz-adv-x="600" 
d="M334 0v196h-330v23l349 506h87v-441h129v-88h-129v-196h-106zM334 620l-231 -336h231v336z" />
    <glyph glyph-name="five" unicode="5" horiz-adv-x="533" 
d="M170 725h318l-33 -100h-277l-45 -125q89 -13 153 -38t105.5 -60t61 -77.5t19.5 -89.5q0 -59 -23 -105t-60.5 -78t-86 -48.5t-99.5 -16.5q-26 0 -52 3t-49.5 8t-43.5 11.5t-33 13.5v157h20q9 -39 26 -67.5t40 -47.5t50.5 -28.5t57.5 -9.5t57.5 11t47.5 31t32 48.5t12 64.5
q0 34 -12.5 68t-46.5 64.5t-94.5 54.5t-156.5 38z" />
    <glyph glyph-name="six" unicode="6" horiz-adv-x="607" 
d="M314 -13q-64 0 -113.5 22.5t-83 63t-50.5 96.5t-17 123q0 85 33 160.5t92 135.5t140.5 102t177.5 61l6 -25q-150 -40 -227 -120t-97 -201q31 37 73.5 57.5t90.5 20.5q45 0 85 -15t69.5 -44t46.5 -72t17 -99q0 -54 -19 -102.5t-52 -84.5t-77.5 -57.5t-94.5 -21.5zM301 422
q-33 0 -69 -12t-61 -34q-3 -35 -3 -71q0 -55 8.5 -106t26 -90t45.5 -62.5t67 -23.5q33 0 57 14t39 38.5t22.5 59t7.5 76.5q0 36 -7 73t-23 68t-43 50.5t-67 19.5z" />
    <glyph glyph-name="seven" unicode="7" horiz-adv-x="529" 
d="M26 725h492v-100q-68 -67 -126.5 -133.5t-101 -140.5t-65.5 -159.5t-20 -191.5h-118q2 117 39.5 210t95 168t126.5 135.5t134 111.5h-456v100z" />
    <glyph glyph-name="eight" unicode="8" horiz-adv-x="625" 
d="M303 -13q-48 0 -93.5 11.5t-81 35t-57 60t-21.5 86.5q0 33 13.5 62t37 53t54 42.5t64.5 30.5q-65 37 -101 84t-36 108q0 42 18.5 75.5t50.5 57t74.5 36t90.5 12.5q45 0 85.5 -10.5t71.5 -30.5t49.5 -49.5t18.5 -67.5q0 -32 -14 -58t-36.5 -47t-51 -37t-58.5 -28l15 -7
q35 -17 67.5 -37t57 -44.5t39.5 -55.5t15 -70q0 -53 -22.5 -92.5t-60 -66t-87 -40t-102.5 -13.5zM144 184q0 -34 10 -63.5t30.5 -51t50 -34t68.5 -12.5q40 0 72 10t54.5 27t34.5 41t12 53q0 27 -8.5 48t-26 39.5t-44 35t-62.5 33.5l-81 40l-7 3q-45 -22 -74 -64t-29 -105z
M452 578q0 66 -39 96.5t-100 30.5q-65 0 -103 -32.5t-38 -78.5q0 -25 10.5 -45.5t28.5 -38t43 -32.5t54 -29l48 -24q39 24 67.5 60.5t28.5 92.5z" />
    <glyph glyph-name="nine" unicode="9" horiz-adv-x="599" 
d="M283 742q64 0 113.5 -22.5t83 -63t50.5 -96.5t17 -123q0 -86 -33 -161.5t-92 -135.5t-140.5 -101.5t-177.5 -60.5l-6 25q150 40 226.5 119.5t96.5 201.5q-30 -38 -73 -58.5t-90 -20.5q-45 0 -85 16t-69.5 46.5t-46.5 74t-17 99.5q0 54 19 101.5t52 83t77.5 56t94.5 20.5z
M296 307q33 0 68.5 11.5t60.5 34.5q2 17 3 34.5t1 36.5q0 55 -8.5 106t-26 90t-45.5 62.5t-67 23.5q-33 0 -57 -14t-39 -39t-22.5 -59.5t-7.5 -75.5q0 -36 7 -73t23 -68t43 -50.5t67 -19.5z" />
    <glyph glyph-name="colon" unicode=":" horiz-adv-x="357" 
d="M104 471q0 30 22 52t52 22q31 0 52.5 -22t21.5 -52t-21.5 -52t-52.5 -22q-30 0 -52 22t-22 52zM104 61q0 30 22 52t52 22q31 0 52.5 -22t21.5 -52t-21.5 -52t-52.5 -22q-30 0 -52 22t-22 52z" />
    <glyph glyph-name="semicolon" unicode=";" horiz-adv-x="354" 
d="M103 60q0 31 21.5 53t53.5 22q34 0 54 -23.5t20 -60.5q0 -35 -15.5 -72t-40.5 -71t-57 -62t-65 -44l-7 12q17 13 36 32.5t35.5 42t27 48t10.5 50.5q-30 1 -51.5 21t-21.5 52zM104 471q0 30 22 52t52 22q31 0 52.5 -22t21.5 -52t-21.5 -52t-52.5 -22q-30 0 -52 22t-22 52z
" />
    <glyph glyph-name="less" unicode="&#x3c;" 
d="M588 544v-79l-435 -191l435 -189v-78l-521 234v66z" />
    <glyph glyph-name="equal" unicode="=" 
d="M97 348v68h485v-68h-485zM97 141v69h485v-69h-485z" />
    <glyph glyph-name="greater" unicode="&#x3e;" 
d="M612 241l-521 -234v78l436 189l-436 191v79l521 -237v-66z" />
    <glyph glyph-name="question" unicode="?" horiz-adv-x="566" 
d="M260 717q-60 0 -100.5 -41t-57.5 -127h-20v173q14 6 36.5 12t47 10t49.5 6.5t45 2.5q115 0 175 -39t60 -105q0 -47 -18 -82t-45.5 -64.5t-59 -55.5t-59 -54.5t-45.5 -62.5t-18 -79v-12h-29v9q0 51 11 90.5t28 72t36.5 59.5t36.5 54t28 56.5t11 65.5q0 56 -29 83.5
t-83 27.5zM166 61q0 30 22 52t52 22q31 0 52.5 -22t21.5 -52t-21.5 -52t-52.5 -22q-30 0 -52 22t-22 52z" />
    <glyph glyph-name="at" unicode="@" horiz-adv-x="846" 
d="M630 159q-46 0 -74 29.5t-30 75.5q-23 -45 -63.5 -72.5t-97.5 -27.5q-30 0 -56.5 10.5t-46.5 32t-31.5 54.5t-11.5 79t15 89t42 76t66 53t87 20t78 -27t41 -65l10 73h55l-32 -228q-3 -17 -2.5 -37t6.5 -37.5t18.5 -29t33.5 -11.5q45 0 77.5 51t32.5 144q0 66 -22.5 116.5
t-62.5 84.5t-95 51.5t-121 17.5q-75 0 -136.5 -25.5t-105 -69.5t-67.5 -104t-24 -130q0 -67 20.5 -123t59.5 -96.5t94 -63t124 -22.5q48 0 101 11t98 33l21 -58q-51 -23 -111 -34.5t-110 -11.5q-81 0 -148 27.5t-114 76t-73 116t-26 147.5q0 81 30 151t83 121.5t126.5 81
t159.5 29.5q76 0 142 -20.5t114.5 -61t76 -101t27.5 -140.5q0 -62 -15.5 -109.5t-40.5 -79.5t-57 -49t-65 -17zM430 518q-32 0 -58.5 -14.5t-45.5 -39t-29.5 -57.5t-10.5 -69q0 -60 26 -88t70 -28q33 0 59 15t44.5 40.5t28.5 59t10 69.5q0 54 -24.5 83t-69.5 29z" />
    <glyph glyph-name="A" unicode="A" horiz-adv-x="781" 
d="M5 18q25 2 41 8.5t29.5 24t28 50t35.5 87.5l215 542q16 2 30.5 11t25.5 23h4l257 -646q11 -29 20 -47.5t19.5 -29.5t26 -16.5t39.5 -6.5v-18h-293v18q54 6 68.5 23t-0.5 55l-55 140h-291l-5 -14q-27 -69 -38 -108.5t-6.5 -59.5t23.5 -26.5t51 -9.5v-18h-225v18zM225 285
h251l-125 320z" />
    <glyph glyph-name="B" unicode="B" horiz-adv-x="722" 
d="M254 70q0 -21 10 -28.5t36 -7.5h39q113 0 160.5 43.5t47.5 127.5q0 36 -9.5 64.5t-31 48t-57.5 29.5t-89 10h-106v-287zM254 392h104q45 0 75.5 12.5t49 34t26.5 49.5t8 59q0 38 -9.5 65t-31.5 44t-58.5 25t-90.5 8h-73v-297zM160 725q56 0 107 1t78 1q79 0 134.5 -10.5
t90 -31t50.5 -51t16 -70.5q0 -32 -12 -60t-32.5 -50.5t-48.5 -39t-60 -25.5v-2q31 -6 64.5 -19t61.5 -34t46 -51t18 -71t-15.5 -79.5t-53 -68.5t-99 -48t-153.5 -18q-27 0 -77 1t-114 1h-123v18q34 4 53.5 9t29.5 17.5t13 36t3 65.5v433q0 42 -3 65.5t-13 36t-29.5 17
t-53.5 9.5v18h122z" />
    <glyph glyph-name="C" unicode="C" horiz-adv-x="739" 
d="M179 366q0 -78 17.5 -139.5t50 -104t79 -65.5t104.5 -23q52 0 93.5 15.5t72 40t51.5 55t32 60.5l27 -9q-10 -39 -34 -76.5t-61.5 -67t-87.5 -47.5t-111 -18q-85 0 -152 29.5t-113.5 81t-71.5 121t-25 148.5q0 88 31 158t84.5 119t124 75t148.5 26q57 0 111 -10t103 -30
l23 -220h-19q-28 121 -85.5 172.5t-150.5 51.5q-45 0 -88.5 -19.5t-77.5 -61.5t-54.5 -107t-20.5 -155z" />
    <glyph glyph-name="D" unicode="D" horiz-adv-x="800" 
d="M352 36q61 0 110.5 21t85 62.5t54.5 103t19 142.5t-19.5 141.5t-55.5 101t-86 61t-111 20.5h-95v-653h98zM354 725q76 0 147 -20t126.5 -63.5t89 -111.5t33.5 -165q0 -96 -32.5 -165.5t-87.5 -113.5t-127 -65t-150 -21h-315v18q34 4 53.5 9t29.5 17.5t13 36t3 65.5v433
q0 42 -3 65.5t-13 36t-29.5 17t-53.5 9.5v18h316z" />
    <glyph glyph-name="E" unicode="E" horiz-adv-x="715" 
d="M631 -1q-57 1 -116.5 1h-107.5h-369v18q34 4 53.5 9t29.5 17.5t13 36t3 65.5v433q0 42 -3 65.5t-13 36t-29.5 17t-53.5 9.5v18h355q48 0 108 0.5t117 2.5l27 -224h-18q-21 66 -47 103t-62.5 55.5t-87 22.5t-120.5 4h-56v-293h135q43 0 69 24.5t34 87.5h18v-268h-18
q-8 63 -34 87.5t-69 24.5h-135v-272q0 -28 7.5 -37t38.5 -9h21q71 0 123 6t90.5 26t66.5 57.5t50 99.5h19l-39 -224v0z" />
    <glyph glyph-name="F" unicode="F" horiz-adv-x="688" 
d="M38 18q34 4 53.5 9t29.5 17.5t13 36t3 65.5v433q0 42 -3 65.5t-13 36t-29.5 17t-53.5 9.5v18h379q48 0 108 0.5t116 2.5l28 -224h-18q-21 66 -47 103t-63 55.5t-87 22.5t-120 4h-80v-293h137q43 0 69 24.5t34 87.5h18v-268h-18q-8 63 -34 87.5t-69 24.5h-137v-207
q0 -37 2 -60t12.5 -36.5t32 -20t61.5 -9.5v-19h-324v18z" />
    <glyph glyph-name="G" unicode="G" horiz-adv-x="817" 
d="M791 340v-21q-23 -3 -35.5 -9t-19 -19.5t-8 -37t-1.5 -60.5v-125q-31 -22 -70 -37.5t-79.5 -25t-80.5 -14t-72 -4.5q-93 0 -163 30.5t-117.5 82t-71.5 120t-24 143.5q0 88 31 158.5t84.5 120t126 76.5t156.5 27q72 0 131.5 -11t100.5 -27l19 -222h-18
q-31 121 -92.5 172.5t-153.5 51.5q-47 0 -92.5 -18t-82 -59t-59 -107.5t-22.5 -163.5q0 -76 18.5 -138t52.5 -106t81.5 -68t106.5 -24q24 0 54 2.5t56.5 12t44 29t17.5 53.5v71q0 37 -1.5 61t-10.5 37.5t-27 19.5t-51 8v21h272z" />
    <glyph glyph-name="H" unicode="H" horiz-adv-x="842" 
d="M705 146q0 -42 3 -65.5t13 -36t30 -17.5t53 -9v-18h-315v18q33 4 53 9t30 17.5t13 36t3 65.5v206h-334v-206q0 -42 3 -65.5t13 -36t29.5 -17.5t53.5 -9v-18h-315v18q34 4 53.5 9t29.5 17.5t13 36t3 65.5v433q0 42 -3 65.5t-13 36t-29.5 17t-53.5 9.5v18h315v-18
q-34 -5 -53.5 -9.5t-29.5 -17t-13 -36t-3 -65.5v-183h334v183q0 42 -3 65.5t-13 36t-30 17t-53 9.5v18h315v-18q-33 -5 -53 -9.5t-30 -17t-13 -36t-3 -65.5v-433z" />
    <glyph glyph-name="I" unicode="I" horiz-adv-x="391" 
d="M254 146q0 -42 3 -65.5t13 -36t29.5 -17.5t53.5 -9v-18h-315v18q34 4 53.5 9t29.5 17.5t13 36t3 65.5v433q0 42 -3 65.5t-13 36t-29.5 17t-53.5 9.5v18h315v-18q-34 -5 -53.5 -9.5t-29.5 -17t-13 -36t-3 -65.5v-433z" />
    <glyph glyph-name="J" unicode="J" horiz-adv-x="433" 
d="M201 579q0 42 -3 65.5t-13 36t-29.5 17t-53.5 9.5v18h315v-18q-34 -5 -53.5 -9.5t-29.5 -17t-13 -36t-3 -65.5v-345q0 -75 -16.5 -123t-43 -75.5t-60.5 -38t-69 -10.5q-28 0 -63 4t-55 10v139h11q10 -17 23.5 -37.5t29 -38t32.5 -29.5t33 -12q12 0 23 5t19.5 25
t13.5 60.5t5 112.5v353v0z" />
    <glyph glyph-name="K" unicode="K" horiz-adv-x="778" 
d="M254 146q0 -42 3 -65.5t13 -36t29.5 -17.5t53.5 -9v-18h-315v18q34 4 53.5 9t29.5 17.5t13 36t3 65.5v433q0 42 -3 65.5t-13 36t-29.5 17t-53.5 9.5v18h315v-18q-34 -5 -53.5 -9.5t-29.5 -17t-13 -36t-3 -65.5v-433zM479 574q39 36 62 60.5t28 40t-9 23t-48 9.5v18h237
v-18q-24 -3 -43 -9t-41.5 -20.5t-52.5 -39.5t-76 -66l-174 -153l265 -300q23 -26 40 -44t32.5 -30t32 -18.5t37.5 -8.5v-18h-297v18q29 1 41.5 8t13 17.5t-7.5 23.5t-21 28l-243 276z" />
    <glyph glyph-name="L" unicode="L" horiz-adv-x="629" 
d="M38 18q34 4 53.5 9t29.5 17.5t13 36t3 65.5v433q0 42 -3 65.5t-13 36t-29.5 17t-53.5 9.5v18h315v-18q-34 -5 -53.5 -9.5t-29.5 -17t-13 -36t-3 -65.5v-500q0 -27 7.5 -36t36.5 -9h17q68 0 114 6.5t78.5 26.5t55.5 58t46 101h19l-38 -227q-26 0 -55 0.5t-58 0.5h-56h-48
h-335v18z" />
    <glyph glyph-name="M" unicode="M" horiz-adv-x="971" 
d="M933 707q-34 -5 -53.5 -9.5t-29.5 -17t-13 -36t-3 -65.5v-433q0 -42 3 -65.5t13 -36t29.5 -17.5t53.5 -9v-18h-315v18q34 4 53.5 9t29.5 17.5t13 36t3 65.5v483l-249 -602h-21l-263 617v-498q0 -42 3 -65.5t13 -36t29.5 -17.5t53.5 -9v-18h-245v18q34 4 53.5 9t29.5 17.5
t13 36t3 65.5v433q0 42 -3 65.5t-13 36t-29.5 17t-53.5 9.5v18h246l210 -508l208 508h231v-18z" />
    <glyph glyph-name="N" unicode="N" horiz-adv-x="804" 
d="M641 579q0 42 -3 65.5t-13 36t-29.5 17t-53.5 9.5v18h244v-18q-33 -5 -53 -9.5t-30 -17t-13 -36t-3 -65.5v-587h-50l-456 576v-422q0 -42 3 -65.5t13 -36t30 -17.5t53 -9v-18h-244v18q33 4 53 9t30 17.5t13 36t3 65.5v480l-4 5q-25 32 -43 49.5t-40 28.5v16h159l434 -549
v403v0z" />
    <glyph glyph-name="O" unicode="O" horiz-adv-x="848" 
d="M50 366q0 91 31.5 162t84 119t120 73t138.5 25t138.5 -25t120 -73t84 -119t31.5 -162q0 -92 -31.5 -162.5t-84 -118.5t-120 -73t-138.5 -25t-138.5 25t-120 73t-84 118.5t-31.5 162.5zM668 366q0 77 -18 140.5t-50.5 108.5t-77 69.5t-98.5 24.5t-98.5 -24.5t-77 -69.5
t-50.5 -108.5t-18 -140.5t18 -140.5t50.5 -108.5t77 -69.5t98.5 -24.5t98.5 24.5t77 69.5t50.5 108.5t18 140.5z" />
    <glyph glyph-name="P" unicode="P" horiz-adv-x="669" 
d="M530 516q0 52 -13 85.5t-38 53t-61 27t-82 7.5h-82v-347h82q46 0 82 7.5t61 27t38 53.5t13 86zM38 18q34 4 53.5 9t29.5 17.5t13 36t3 65.5v433q0 42 -3 65.5t-13 36t-29.5 17t-53.5 9.5v18h111h53.5t54 0.5t49 0.5h39.5q65 0 122 -10t100 -34.5t67.5 -65t24.5 -100.5
q0 -61 -24.5 -101.5t-67.5 -65t-100 -34.5t-122 -10h-91v-160q0 -38 2 -61t12.5 -36.5t32 -19.5t61.5 -9v-19h-324v18z" />
    <glyph glyph-name="Q" unicode="Q" horiz-adv-x="848" 
d="M50 366q0 91 31.5 162t84 119t120 73t138.5 25t138.5 -25t120 -73t84 -119t31.5 -162q0 -86 -28 -153t-74.5 -114.5t-107 -75.5t-126.5 -34l-48 -31q-5 -3 -11 -7t-12 -7l-14 -8l1 -2q33 13 87 13q39 0 65.5 -10.5t46 -25.5t34.5 -33.5t31.5 -33.5t36 -25.5t48.5 -10.5
q25 0 36.5 2t20.5 6l6 -21q-6 -2 -36.5 -12t-86.5 -10q-49 0 -81.5 11t-55 27t-38.5 35.5t-30.5 35.5t-32 27t-43.5 11q-25 0 -42.5 -10.5t-44.5 -27.5l-12 20l132 85q-71 1 -137 26t-118 73.5t-83 118.5t-31 161zM668 366q0 77 -18 140.5t-50.5 108.5t-77 69.5t-98.5 24.5
t-98.5 -24.5t-77 -69.5t-50.5 -108.5t-18 -140.5t18 -140.5t50.5 -108.5t77 -69.5t98.5 -24.5t98.5 24.5t77 69.5t50.5 108.5t18 140.5z" />
    <glyph glyph-name="R" unicode="R" horiz-adv-x="742" 
d="M38 18q34 4 53.5 9t29.5 17.5t13 36t3 65.5v433q0 42 -3 65.5t-13 36t-29.5 17t-53.5 9.5v18h121h48t51.5 0.5t47.5 0.5h37q65 0 122 -9t100 -30.5t67.5 -58.5t24.5 -93q0 -41 -14 -72t-38.5 -53t-59 -36t-75.5 -21l150 -234q18 -27 33 -45.5t30 -30t32.5 -17.5t39.5 -8
v-18h-204q-6 12 -15 29t-20 36.5t-23 39.5t-24 38l-52 81q-28 42 -44.5 71t-30.5 48h-88v-198q0 -41 3 -64.5t13 -36t30 -17.5t55 -9v-18h-317v18zM528 535q0 48 -13 78t-38 47t-60.5 23t-81.5 6h-81v-309h81q46 0 81.5 6t60.5 23t38 47.5t13 78.5z" />
    <glyph glyph-name="S" unicode="S" horiz-adv-x="614" 
d="M296 -13q-69 0 -130 15.5t-102 38.5v246h20q9 -83 30 -135t49.5 -80.5t62.5 -38.5t70 -10q32 0 62.5 8.5t54 26t38 44t14.5 62.5q0 27 -11 47.5t-30 38t-45 31.5t-56 28l-81 36q-80 35 -126.5 86.5t-46.5 123.5q0 42 19 77t52 61t77 40.5t94 14.5q55 0 111.5 -12
t93.5 -35l3 -209h-20q-9 64 -27.5 106t-43 67.5t-55 36t-64.5 10.5q-30 0 -57 -7.5t-47.5 -22.5t-32 -37t-11.5 -50q0 -29 10 -49.5t26 -36t36 -26.5t39 -20l85 -38q43 -19 80 -39.5t64.5 -46t43 -58t15.5 -75.5q0 -53 -22.5 -94t-59.5 -68.5t-84.5 -42t-97.5 -14.5z" />
    <glyph glyph-name="T" unicode="T" horiz-adv-x="770" 
d="M217 19q37 3 59 9t33.5 19.5t14.5 37t3 61.5v548h-31q-56 0 -94.5 -7.5t-66.5 -28.5t-48.5 -59.5t-41.5 -100.5h-19l29 230q57 -2 117.5 -2.5t108.5 -0.5h209q47 0 107.5 0.5t117.5 2.5l29 -230h-18q-21 62 -42 100.5t-49 59.5t-66.5 28.5t-94.5 7.5h-30v-548
q0 -38 3 -61.5t14.5 -37t33 -19.5t59.5 -9v-19h-337v19z" />
    <glyph glyph-name="U" unicode="U" horiz-adv-x="787" 
d="M120 579q0 41 -3 64.5t-13 36t-30 17.5t-53 10v18h314v-18q-33 -5 -53 -9.5t-30 -17t-13 -36t-3 -65.5v-295q0 -118 44 -182.5t144 -64.5q57 0 95.5 20t61.5 55.5t33 83t10 102.5v281q0 42 -3 65.5t-13 36t-30 17t-53 9.5v18h244v-18q-34 -5 -53.5 -9.5t-29.5 -17
t-13 -36t-3 -65.5v-280q0 -158 -67.5 -235t-207.5 -77q-76 0 -128.5 20.5t-85 58t-47 90.5t-14.5 117v306v0z" />
    <glyph glyph-name="V" unicode="V" horiz-adv-x="764" 
d="M112 609q-11 28 -19.5 46t-18.5 29t-25 16t-40 7v18h292v-18q-51 -6 -68 -22t-1 -54l193 -483l132 355q26 70 36.5 109.5t6 59.5t-23 26t-50.5 9v18h229v-18q-27 -2 -44 -8t-30.5 -23.5t-27 -50.5t-34.5 -88l-202 -547h-53z" />
    <glyph glyph-name="W" unicode="W" horiz-adv-x="1068" 
d="M1058 707q-27 -2 -45.5 -7.5t-32.5 -22.5t-27.5 -50t-29.5 -90l-161 -549h-54l-176 516l-151 -516h-55l-212 622q-10 29 -18 47t-19 28.5t-26.5 15t-40.5 6.5v18h294v-18q-51 -6 -67 -21t-3 -54l149 -458l119 415l-46 136h130l179 -551l98 340q19 68 28 105.5t5.5 56
t-19.5 23.5t-47 8v18h228v-18z" />
    <glyph glyph-name="X" unicode="X" horiz-adv-x="826" 
d="M397 315l-120 -160q-35 -46 -48.5 -72.5t-11 -40t19 -18t42.5 -6.5v-18h-259v18q22 1 45 7.5t49 24.5t57 49.5t69 82.5l130 173l-165 255q-33 51 -71.5 73.5t-70.5 23.5v18h317v-18q-30 -1 -46 -6.5t-21 -15t-0.5 -23t15.5 -30.5l116 -179l87 117q34 46 48 72.5t11.5 40
t-19 18t-42.5 6.5v18h259v-18q-23 -1 -45.5 -7.5t-48.5 -24t-57 -49.5t-69 -83l-98 -130l194 -298q33 -51 71 -73.5t71 -23.5v-18h-317v18q59 2 66.5 21.5t-14.5 53.5z" />
    <glyph glyph-name="Y" unicode="Y" horiz-adv-x="726" 
d="M412 146q0 -38 3 -61.5t14 -37t33 -19.5t60 -9v-19h-337v19q37 3 59 9t33.5 19.5t14.5 37t3 61.5v139l-187 326q-15 26 -26.5 43.5t-23 28t-24 16t-30.5 8.5v18h294v-18q-51 -6 -68.5 -22.5t2.5 -51.5l161 -290l131 223q24 41 33.5 67t5.5 42t-19.5 23t-41.5 9v18h220
v-18q-21 -3 -37.5 -10t-31.5 -20t-30 -32.5t-32 -49.5l-179 -305v-144v0z" />
    <glyph glyph-name="Z" unicode="Z" horiz-adv-x="673" 
d="M284 36q69 0 119.5 4t87 22.5t62.5 55.5t47 103h18l-28 -224q-57 2 -116 2.5t-107 0.5h-324v11l433 678h-52q-69 0 -119 -4t-86.5 -22.5t-62.5 -55.5t-47 -103h-19l29 224q57 -2 116 -2.5t107 -0.5h282v-10l-439 -679h99z" />
    <glyph glyph-name="bracketleft" unicode="[" horiz-adv-x="292" 
d="M86 772h194v-37h-91v-914h91v-37h-194v988z" />
    <glyph glyph-name="backslash" unicode="\" horiz-adv-x="398" 
d="M398 -32h-52l-346 808h55z" />
    <glyph glyph-name="bracketright" unicode="]" horiz-adv-x="292" 
d="M206 -216h-193v37h91v914h-91v37h193v-988z" />
    <glyph glyph-name="asciicircum" unicode="^" horiz-adv-x="468" 
d="M470 332h-79l-158 305l-156 -305h-79l200 393h71z" />
    <glyph glyph-name="underscore" unicode="_" horiz-adv-x="484" 
d="M23 0h438v-72h-438v72z" />
    <glyph glyph-name="grave" unicode="`" horiz-adv-x="232" 
d="M142 772l73 -169h-16l-186 169h129z" />
    <glyph glyph-name="a" unicode="a" horiz-adv-x="551" 
d="M354 306q-63 -23 -95 -40t-45 -25q-32 -20 -46.5 -40.5t-12.5 -52.5q1 -19 8.5 -37.5t20.5 -33t31.5 -23.5t41.5 -9q28 0 51 13t43 34zM354 64q-17 -16 -35 -31.5t-37 -26.5q-17 -11 -37 -15t-46 -4q-28 0 -56 9.5t-50.5 27t-37 41.5t-14.5 54q0 24 10.5 44t30.5 38
t50.5 35t69.5 36q20 10 59 28t95 42v23q0 79 -25.5 110.5t-75.5 31.5q-32 0 -52.5 -11t-31.5 -29.5t-14 -44t-1 -54.5h-102q0 31 17 63t47 57.5t71.5 41.5t89.5 16q35 0 67.5 -7.5t57.5 -27t39 -52.5t13 -83l-5 -259q-1 -42 7.5 -53.5t28.5 -11.5q12 0 22.5 6t21.5 14
l10 -10q-10 -12 -20.5 -25t-23 -23.5t-27.5 -17t-33 -6.5q-31 0 -55.5 18t-27.5 56z" />
    <glyph glyph-name="b" unicode="b" horiz-adv-x="598" 
d="M90 -9h-16q2 43 3 86t1 86v482q0 36 -1.5 56t-9 29t-24 11t-45.5 2v18l188 62q-1 -40 -1.5 -91t-0.5 -128v-148q12 16 28 32t35.5 29t43 21.5t50.5 8.5q49 0 89 -21t67.5 -57t42.5 -83.5t15 -100.5q0 -64 -21 -118.5t-56.5 -94.5t-81.5 -62.5t-96 -22.5q-47 0 -84.5 17.5
t-63.5 43.5zM302 26q37 0 64 16.5t44 46t25 69.5t8 87q0 51 -11.5 93.5t-33 72.5t-51 46.5t-65.5 16.5q-29 0 -55 -11t-43 -34v-342q17 -29 50 -45t68 -16z" />
    <glyph glyph-name="c" unicode="c" horiz-adv-x="508" 
d="M316 547q31 0 58 -8.5t46.5 -22.5t30.5 -32.5t11 -37.5q0 -23 -15.5 -38.5t-41.5 -15.5q-14 0 -26.5 5.5t-20.5 22.5l-32 66q-6 12 -15 16t-23 4q-27 0 -54.5 -10.5t-49.5 -34.5t-36 -62t-14 -92q0 -47 12 -89t36 -73.5t60 -50t83 -18.5q37 0 75 15t68 41l11 -10
q-13 -22 -31.5 -45.5t-44 -43.5t-58.5 -33t-75 -13q-59 0 -102.5 21.5t-72 58.5t-43 86t-14.5 104q0 68 23 122t61.5 91.5t89 57t104.5 19.5z" />
    <glyph glyph-name="d" unicode="d" horiz-adv-x="608" 
d="M409 648q0 35 -1.5 54t-10 28t-27 10.5t-51.5 1.5v18l199 63q-1 -40 -2 -91t-1 -128v-440q0 -35 1.5 -54.5t8.5 -29.5t22.5 -12.5t44.5 -3.5v-17l-166 -55l-14 88q-24 -39 -64.5 -66t-95.5 -27q-50 0 -89.5 20.5t-67 56t-42.5 83.5t-15 103q0 65 21 119.5t56.5 94
t81 61.5t94.5 22q27 0 59 -8.5t59 -34.5v144zM291 512q-36 0 -63 -17t-44.5 -46.5t-26 -69.5t-8.5 -87q0 -52 12 -95t33.5 -74t51.5 -48t66 -17q29 0 54.5 12t42.5 35v341q-16 33 -48 49.5t-70 16.5z" />
    <glyph glyph-name="e" unicode="e" horiz-adv-x="536" 
d="M278 -13q-61 0 -106 21t-75 58t-44.5 87.5t-14.5 109.5t19.5 110.5t53 90t78.5 61t96 22.5q40 0 76 -13.5t64 -40.5t45.5 -67.5t20.5 -95.5h-358v-5q0 -56 13 -101.5t38 -78.5t61 -51t82 -18q57 0 96.5 20.5t64.5 44.5l12 -10q-15 -26 -35.5 -51.5t-48 -46t-62 -33.5
t-76.5 -13zM266 510q-49 0 -85.5 -33.5t-45.5 -107.5h235q1 28 -5 54t-19 45t-33 30.5t-47 11.5z" />
    <glyph glyph-name="f" unicode="f" horiz-adv-x="408" 
d="M328 746q-6 9 -11.5 12t-13.5 3q-17 0 -41 -11t-41.5 -37t-21 -68.5t22.5 -106.5h169v-40h-166v-354q0 -42 2.5 -66t14.5 -36t36 -16t66 -7v-19h-305v18q30 3 46 9t23.5 19t9 36t1.5 62v354h-86v40h86v11q0 57 19 103.5t51 79.5t74 51t88 18q47 0 75.5 -23.5t28.5 -51.5
q0 -22 -15 -35.5t-38 -13.5q-12 0 -21.5 3.5t-17.5 14.5l-35 51v0z" />
    <glyph glyph-name="g" unicode="g" horiz-adv-x="598" 
d="M273 209q-19 0 -36 1.5t-33 6.5q-25 -21 -39 -42t-14 -35q0 -19 17.5 -27t49.5 -10l105 -5q45 -2 86.5 -10t73 -24t50 -41t18.5 -59q0 -26 -15.5 -58t-50 -60.5t-90 -48t-134.5 -19.5q-52 0 -94 10t-72 27t-46 40t-16 49q0 40 36 65.5t101 41.5q-45 8 -70.5 30t-25.5 55
q0 40 30 68.5t74 60.5q-52 20 -81.5 59.5t-29.5 93.5q0 37 15 68t42 53.5t64.5 35t83.5 12.5q35 0 65.5 -7.5t55.5 -21.5h172v-43h-120q33 -42 33 -97q0 -37 -15 -68t-42 -53.5t-64.5 -35t-83.5 -12.5zM202 8h-1q-37 -14 -55 -39t-18 -51q0 -25 14.5 -43.5t39 -30.5
t56.5 -18t67 -6q36 0 68 7.5t55 21.5t36.5 34t13.5 46q0 41 -37 56.5t-98 17.5zM278 242q45 0 72 29t27 86q0 29 -7 57.5t-21 50.5t-34.5 35.5t-47.5 13.5q-45 0 -72 -29t-27 -86q0 -29 7 -57.5t21 -50.5t34.5 -35.5t47.5 -13.5z" />
    <glyph glyph-name="h" unicode="h" horiz-adv-x="610" 
d="M203 455q14 17 30 33.5t35.5 29.5t42.5 21t51 8q33 0 61 -11t48.5 -34.5t32.5 -59.5t12 -85v-213q0 -39 1.5 -62t9 -36t23.5 -19t46 -9v-18h-264v18q29 3 44.5 9t23 19t9 36t1.5 62v192q0 138 -102 138q-30 0 -59.5 -11.5t-45.5 -34.5v-284q0 -39 1.5 -62t9 -36t23 -19
t44.5 -9v-18h-264v18q30 3 46 9t23.5 19t9 36t1.5 62v501q0 36 -1.5 56t-9 29t-24 11t-45.5 2v18l188 62q-1 -40 -1.5 -91t-0.5 -128v-149v0z" />
    <glyph glyph-name="i" unicode="i" horiz-adv-x="339" 
d="M226 144q0 -39 1.5 -62t9 -36t23.5 -19t46 -9v-18h-266v18q30 3 46 9t23.5 19t9 36t1.5 62v222q0 37 -1.5 57.5t-9 30t-23.5 11.5t-46 2v18l188 62q-1 -40 -1.5 -91t-0.5 -128v-184zM168 668q-30 0 -52 20t-22 51q0 29 22 49.5t52 20.5q31 0 52 -20.5t21 -49.5
q0 -31 -21 -51t-52 -20z" />
    <glyph glyph-name="j" unicode="j" horiz-adv-x="307" 
d="M109 366q0 37 -1.5 57.5t-9 30t-24 11.5t-45.5 2v18l188 62q-1 -40 -1.5 -91t-0.5 -128v-231q0 -53 -8 -98.5t-29.5 -86.5t-60 -77t-99.5 -69l-8 10q33 35 52.5 70.5t30 73t13.5 77.5t3 84v285zM154 668q-30 0 -52 20t-22 51q0 29 22 49.5t52 20.5q31 0 52 -20.5
t21 -49.5q0 -31 -21 -51t-52 -20z" />
    <glyph glyph-name="k" unicode="k" horiz-adv-x="625" 
d="M97 645q0 36 -1.5 56t-9 29t-24 11t-45.5 2v18l188 62q-1 -40 -1.5 -91t-0.5 -128v-460q0 -39 1.5 -62t9 -36t23.5 -19t46 -9v-18h-266v18q30 3 46 9t23.5 19t9 36t1.5 62v501zM354 18q27 1 40 6t14.5 14t-6.5 21t-22 29l-174 203l170 142q20 16 33.5 31.5t16 27.5
t-9.5 19.5t-44 8.5v18h230v-18q-25 0 -44.5 -5.5t-38.5 -16t-40 -27t-48 -38.5l-126 -102l219 -255q24 -28 47 -42t56 -16v-18h-273v18z" />
    <glyph glyph-name="l" unicode="l" horiz-adv-x="336" 
d="M121 645q0 36 -1.5 56t-9 29t-24 11t-45.5 2v18l188 62q-1 -40 -1.5 -91t-0.5 -128v-460q0 -39 1.5 -62t9 -36t23.5 -19t46 -9v-18h-266v18q30 3 46 9t23.5 19t9 36t1.5 62v501v0z" />
    <glyph glyph-name="m" unicode="m" horiz-adv-x="921" 
d="M19 485l184 62l2 -92q13 17 29 33.5t35.5 29.5t42.5 21t52 8q48 0 86 -25.5t55 -80.5q15 21 33.5 40t40 33.5t46.5 23.5t52 9q32 0 60 -11t48.5 -34.5t32.5 -59.5t12 -85v-213q0 -39 1.5 -62t9 -36t23.5 -19t46 -9v-18h-264v18q29 3 44.5 9t23 19t9 36t1.5 62v192
q0 138 -101 138q-29 0 -60.5 -14t-51.5 -41q6 -27 6 -62v-213q0 -39 1.5 -62t9 -36t23.5 -19t46 -9v-18h-263v18q28 3 44 9t23 19t8.5 36t1.5 62v192q0 138 -101 138q-31 0 -60 -11.5t-45 -34.5v-284q0 -39 1.5 -62t9 -36t23 -19t44.5 -9v-18h-264v18q30 3 46 9t23.5 19
t9 36t1.5 62v225q0 36 -1.5 56t-9 29t-24 11t-45.5 2v18z" />
    <glyph glyph-name="n" unicode="n" horiz-adv-x="604" 
d="M17 485l185 62l1 -92q14 17 30 33.5t35.5 29.5t42.5 21t51 8q33 0 60.5 -11t48 -34.5t32 -59.5t11.5 -85v-213q0 -39 1.5 -62t9 -36t23.5 -19t46 -9v-18h-264v18q29 3 44.5 9t23 19t9 36t1.5 62v192q0 70 -24 104t-76 34q-30 0 -59 -11.5t-46 -34.5v-284q0 -39 1.5 -62
t9 -36t23 -19t44.5 -9v-18h-264v18q30 3 46 9t23.5 19t9 36t1.5 62v225q0 36 -1.5 56t-9 29t-23.5 11t-46 2v18z" />
    <glyph glyph-name="o" unicode="o" horiz-adv-x="624" 
d="M296 508q-72 0 -107.5 -55t-35.5 -150q0 -37 9 -85t29.5 -90.5t53.5 -72t80 -29.5q71 0 105.5 55.5t34.5 150.5q0 37 -9 84.5t-29 90t-52 72t-79 29.5zM306 547q54 0 103.5 -20.5t87.5 -57.5t60.5 -88.5t22.5 -112.5q0 -59 -21 -110t-57 -89t-84.5 -60t-104.5 -22
q-54 0 -103.5 20.5t-87.5 58t-60.5 89t-22.5 113.5q0 58 20.5 109t56.5 88.5t85 59.5t105 22z" />
    <glyph glyph-name="p" unicode="p" horiz-adv-x="607" 
d="M8 -198q30 3 46 9t23.5 19t9 36t1.5 62v440q0 37 -1.5 57t-9 29t-24 11t-45.5 2v18l183 62v-90q12 15 28 31t36.5 29t44.5 21.5t51 8.5q49 0 88.5 -21t67.5 -57t42.5 -83.5t14.5 -100.5q0 -64 -21 -118.5t-56.5 -94.5t-81 -62.5t-94.5 -22.5q-26 0 -58 8.5t-59 34.5v-102
q0 -41 1.5 -64.5t11 -36t30 -17.5t57.5 -8v-18h-286v18zM312 22q36 0 63 17.5t44 47.5t25.5 70.5t8.5 87.5q0 51 -11.5 93.5t-33 72.5t-51 46.5t-65.5 16.5q-29 0 -55 -9.5t-43 -32.5v-344q16 -33 48 -49.5t70 -16.5z" />
    <glyph glyph-name="q" unicode="q" horiz-adv-x="601" 
d="M309 -198q37 3 57.5 8t30 17.5t11 36t1.5 64.5v149q-25 -38 -64 -64t-93 -26q-50 0 -89.5 20.5t-67 56t-42.5 83.5t-15 103q0 65 21 119.5t56.5 94t81 61.5t94.5 22q27 0 58.5 -7t59.5 -27l108 30q-1 -20 -1.5 -42t-0.5 -49v-61.5v-80.5v-382q0 -39 1.5 -62t9 -36
t23.5 -19t46 -9v-18h-286v18zM291 512q-36 0 -63 -17t-44.5 -46.5t-26 -69.5t-8.5 -87q0 -52 12 -95t33.5 -74t51.5 -48t66 -17q29 0 54.5 12t42.5 35v350q-15 26 -47 41.5t-71 15.5z" />
    <glyph glyph-name="r" unicode="r" horiz-adv-x="435" 
d="M18 18q30 3 46 9t23.5 19t9 36t1.5 62v224q0 37 -1.5 57t-9 29t-24 11t-45.5 2v18l184 62l2 -104q14 18 30 36.5t34 34t38 25t44 9.5q34 0 54.5 -18t20.5 -48q0 -26 -17 -45t-45 -19q-11 0 -17.5 3t-16.5 12l-32 31q-5 5 -8.5 7t-8.5 2q-13 0 -34.5 -16.5t-41.5 -42.5
v-270q0 -42 2.5 -66t14 -36t35.5 -16t67 -7v-19h-305v18z" />
    <glyph glyph-name="s" unicode="s" horiz-adv-x="473" 
d="M256 547q14 0 31.5 -1.5t35.5 -4.5t34.5 -7.5t28.5 -10.5l1 -152h-21q-14 72 -48 104t-83 32q-38 0 -66 -18.5t-28 -51.5q0 -32 23.5 -52t58.5 -38l56 -30q32 -17 57.5 -33t43.5 -35.5t27.5 -44t9.5 -57.5q0 -38 -16.5 -68t-44 -50.5t-63 -31t-72.5 -10.5q-19 0 -40 2.5
t-42.5 7.5t-41.5 12t-36 15v188h19q13 -95 50 -137.5t97 -42.5q19 0 38 4.5t34 15t24 26.5t9 40q0 32 -23.5 54t-65.5 43l-56 30q-27 15 -50 29.5t-39.5 33t-26 41.5t-9.5 54q0 38 18.5 65t47 44.5t62.5 26t66 8.5z" />
    <glyph glyph-name="t" unicode="t" horiz-adv-x="345" 
d="M208 -13q-60 0 -92.5 35t-32.5 120v356h-87v40h88v90l105 73v-163h130v-40h-130v-337q0 -57 14 -81.5t55 -24.5q19 0 39 7t39 24l9 -9q-11 -17 -23.5 -33t-29 -29t-37 -20.5t-47.5 -7.5z" />
    <glyph glyph-name="u" unicode="u" horiz-adv-x="587" 
d="M493 164q0 -35 1.5 -54.5t9 -29.5t23 -12.5t44.5 -3.5v-17l-168 -55l-13 97q-11 -19 -26 -37t-34.5 -32.5t-43 -23.5t-50.5 -9q-32 0 -60.5 11t-50 35t-34 62t-12.5 92q0 22 0.5 50.5t0.5 58.5t0.5 58.5t0.5 50.5q0 30 -1 49t-8.5 30t-23 15.5t-44.5 6.5v18l184 18
q-1 -39 -1.5 -84.5t-0.5 -114.5v-136q0 -75 22.5 -111.5t72.5 -36.5q67 0 106 62v284q0 30 -1 49t-8.5 30t-23 15.5t-44.5 6.5v18l186 18q-1 -39 -2 -85t-1 -115v-178v0z" />
    <glyph glyph-name="v" unicode="v" horiz-adv-x="570" 
d="M264 -12l-192 465q-15 34 -27.5 49.5t-40.5 17.5v18h243v-18q-29 -2 -43.5 -7.5t-19 -15.5t-1 -24t10.5 -32l118 -300l104 247q15 36 22 60.5t4.5 39.5t-16 22.5t-38.5 9.5v18h178v-18q-17 -2 -29 -7.5t-21.5 -17t-18.5 -29.5t-19 -44l-186 -434h-28z" />
    <glyph glyph-name="w" unicode="w" horiz-adv-x="804" 
d="M397 382l-133 -394h-29l-163 464q-7 18 -13 30t-13.5 20t-17 12t-24.5 6v18h242v-18q-29 -2 -43 -7.5t-18 -15.5t-1 -24.5t9 -32.5l88 -276l126 374h43l123 -375l79 228q13 37 19 61t3 38.5t-15 21t-36 8.5v18h178v-18q-18 -2 -30 -7t-22 -16t-18 -29t-18 -44l-156 -436
h-30z" />
    <glyph glyph-name="x" unicode="x" horiz-adv-x="621" 
d="M262 257l-137 203q-11 16 -20 26.5t-18.5 17.5t-21 10.5t-26.5 5.5v18h244v-18q-23 -2 -35 -6t-14.5 -11.5t4 -20.5t20.5 -34l69 -104l44 59q24 31 37.5 52t14 34.5t-12.5 20.5t-43 10v18h212v-18q-23 -3 -41.5 -10.5t-37 -22t-38.5 -38t-46 -57.5l-63 -85l154 -229
q11 -16 20.5 -26.5t19 -17.5t21 -10.5t26.5 -5.5v-18h-244v18q23 2 35.5 6t14.5 11.5t-4.5 20.5t-20.5 34l-87 129l-62 -84q-24 -32 -37.5 -53t-14 -34t12.5 -20t43 -10v-18h-212v18q22 3 40.5 10.5t37 22t38.5 37.5t46 58z" />
    <glyph glyph-name="y" unicode="y" horiz-adv-x="591" 
d="M151 -221q-39 0 -62.5 17.5t-23.5 47.5q0 26 15 41.5t32 15.5q5 0 12.5 -2.5t17.5 -13.5l50 -49q12 20 24.5 45.5t30.5 68.5l19 46l-194 457q-14 34 -26.5 49.5t-41.5 17.5v18h246v-18q-29 -2 -44 -7.5t-19.5 -15.5t-1.5 -24t10 -32l130 -313l108 261q13 33 19.5 55.5
t2.5 38t-18 24t-41 13.5v18h191v-18q-20 -3 -32 -9t-21 -16.5t-16.5 -28t-18.5 -43.5l-209 -495q-15 -36 -28.5 -64t-29 -47t-35 -28.5t-46.5 -9.5z" />
    <glyph glyph-name="z" unicode="z" horiz-adv-x="577" 
d="M47 0v9l329 488h-83q-50 0 -83 -3.5t-53 -17t-31 -40.5t-17 -74h-21v176h425v-10l-324 -487h104q50 0 82 4t52 17.5t30.5 40.5t17.5 73h20v-176h-448z" />
    <glyph glyph-name="braceleft" unicode="{" horiz-adv-x="343" 
d="M272 -216q-47 0 -76.5 7t-46 21.5t-23 38t-6.5 56.5v239q0 20 -2.5 41t-11 38t-24 27.5t-42.5 10.5v33q27 0 42.5 10.5t24 27.5t11 38t2.5 41v236q0 33 6.5 56.5t23 38t46 21.5t76.5 7h44v-37h-13q-26 0 -42 -4.5t-24.5 -14.5t-11.5 -26t-3 -39v-228q0 -36 -8.5 -61
t-23.5 -41t-35.5 -25.5t-44.5 -14.5v-3q24 -5 44.5 -14.5t35.5 -25.5t23.5 -41t8.5 -61v-231q0 -23 3 -39t11.5 -26t24.5 -14.5t42 -4.5h13v-37h-44v0z" />
    <glyph glyph-name="bar" unicode="|" horiz-adv-x="242" 
d="M85 -90v815h72v-815h-72z" />
    <glyph glyph-name="braceright" unicode="}" horiz-adv-x="343" 
d="M121 136q0 36 8.5 61t23.5 41t35.5 25.5t44.5 14.5v3q-24 5 -44.5 14.5t-35.5 25.5t-23.5 41t-8.5 61v228q0 23 -3 39t-11.5 26t-24.5 14.5t-42 4.5h-13v37h44q46 0 76 -7t46.5 -21.5t23 -38t6.5 -56.5v-242q0 -20 2.5 -40t11 -35.5t24 -25.5t42.5 -10v-33
q-27 0 -42.5 -10t-24 -25.5t-11 -35.5t-2.5 -40v-245q0 -33 -6.5 -56.5t-23 -38t-46.5 -21.5t-76 -7h-44v37h13q26 0 42 4.5t24.5 14.5t11.5 26t3 39v231z" />
    <glyph glyph-name="asciitilde" unicode="~" horiz-adv-x="690" 
d="M460 270q28 0 48 18t22 56h70q-5 -67 -42.5 -102.5t-97.5 -35.5q-31 0 -61 11.5t-58.5 25.5t-56 25.5t-53.5 11.5q-28 0 -48 -18t-22 -56h-71q4 67 42.5 102.5t98.5 35.5q36 0 67.5 -11.5t60 -25.5t53.5 -25.5t48 -11.5z" />
    <glyph glyph-name="uni00A0" unicode="&#xa0;" horiz-adv-x="258" 
 />
    <glyph glyph-name="exclamdown" unicode="&#xa1;" horiz-adv-x="373" 
d="M127 32l49 290h20l50 -291v-224q0 -15 -18.5 -22t-41 -7t-41 7t-18.5 22v225zM112 473q0 30 22 52t52 22q31 0 52.5 -22t21.5 -52t-21.5 -52t-52.5 -22q-30 0 -52 22t-22 52z" />
    <glyph glyph-name="cent" unicode="&#xa2;" horiz-adv-x="580" 
d="M276 -12q-53 4 -95.5 26.5t-73.5 58.5t-47.5 85t-16.5 107t16.5 107.5t47.5 85.5t73.5 58t95.5 27v88h47v-88q39 -3 74.5 -15.5t64 -35t48 -54.5t27.5 -75h-102q-5 67 -35 102.5t-77 40.5v-482q48 6 78 41t35 103h102q-7 -44 -27 -76.5t-48.5 -54.5t-64.5 -34t-75 -15
v-90h-47v90zM155 265q0 -48 6.5 -89.5t20.5 -73t37.5 -51.5t56.5 -26v480q-33 -6 -56.5 -26.5t-37.5 -52t-20.5 -72.5t-6.5 -89z" />
    <glyph glyph-name="sterling" unicode="&#xa3;" horiz-adv-x="662" 
d="M356 706q-70 0 -108.5 -37.5t-38.5 -109.5q0 -45 13.5 -82t30.5 -72h203v-45h-182q8 -21 13.5 -43t5.5 -45q0 -33 -14 -60.5t-36 -49.5t-47.5 -39t-48.5 -29l1 -2q23 10 52 18.5t51 8.5q30 0 53 -7t45 -15.5t45 -15.5t52 -7q35 0 67.5 9t61.5 22l32 -86
q-12 -6 -29.5 -12.5t-38.5 -11.5t-43 -8t-43 -3q-32 0 -58.5 6t-52 13.5t-51.5 14t-55 6.5q-38 0 -80 -12t-83 -29l-31 78q24 10 49.5 25t46.5 38t34.5 55.5t13.5 77.5q0 28 -6.5 53.5t-16.5 49.5h-120v45h99q-17 34 -30 68t-13 72q0 51 22.5 88t58.5 61t82 36t94 12
q50 0 96 -12t81.5 -37t58.5 -63t28 -90h-112q0 36 -8.5 66.5t-27 52.5t-47 34.5t-69.5 12.5z" />
    <glyph glyph-name="currency" unicode="&#xa4;" horiz-adv-x="645" 
d="M80 352q0 40 12 76.5t34 66.5l-69 71l46 44l68 -68q31 25 69 38.5t80 13.5q44 0 82.5 -14t70.5 -40l70 70l46 -44l-72 -73q22 -30 34 -65.5t12 -75.5t-12.5 -76t-34.5 -66l73 -72l-46 -45l-72 70q-31 -25 -69.5 -38.5t-81.5 -13.5q-42 0 -79.5 13.5t-68.5 37.5l-69 -69
l-46 45l70 71q-23 30 -35 66t-12 77zM149 352q0 -38 12.5 -71t35 -57t53.5 -38t69 -14q39 0 72 14t56 38t36 57t13 71q0 39 -13 72t-36 57.5t-56 38.5t-72 14q-38 0 -69 -14t-53.5 -38.5t-35 -57.5t-12.5 -72z" />
    <glyph glyph-name="yen" unicode="&#xa5;" horiz-adv-x="697" 
d="M391 142q0 -38 3.5 -60.5t14.5 -35.5t33 -19.5t58 -10.5v-16h-321v16q36 4 57.5 10.5t32.5 19.5t14.5 35.5t3.5 60.5h-181v45h181v75h-181v44h169l-169 312q-14 27 -23 43t-18 26t-20.5 14.5t-29.5 7.5v16h278v-16q-51 -6 -69.5 -19.5t0.5 -49.5l154 -297l100 180
q31 58 44.5 93.5t11.5 55t-17 27.5t-40 10v16h205v-16q-21 -3 -37 -11.5t-32.5 -27t-35.5 -50.5t-47 -83l-128 -231h187v-44h-198v-75h198v-45h-198z" />
    <glyph glyph-name="brokenbar" unicode="&#xa6;" horiz-adv-x="242" 
d="M157 725v-305h-72v305h72zM157 215v-305h-72v305h72z" />
    <glyph glyph-name="section" unicode="&#xa7;" horiz-adv-x="611" 
d="M300 -184q55 0 88.5 29.5t33.5 74.5q0 22 -6 39.5t-19.5 32.5t-34 29.5t-49.5 29.5l-134 71q-31 16 -57.5 34t-46 39t-30.5 47t-11 58q0 28 12 51t32.5 42t47 33t55.5 23q-39 27 -66 62.5t-27 84.5q0 36 18 63.5t47 45.5t66 27.5t76 9.5q90 0 151 -42.5t75 -129.5h-99
q-1 24 -9.5 48t-24.5 43.5t-39.5 32t-54.5 12.5q-23 0 -43.5 -6t-36 -17.5t-25 -28t-9.5 -38.5q0 -33 25.5 -59t70.5 -50l144 -76q31 -17 59 -34t48 -36.5t32 -43t12 -53.5q0 -33 -11.5 -58.5t-32 -45.5t-47 -35t-56.5 -25q43 -31 67.5 -66.5t24.5 -80.5q0 -42 -18 -74.5
t-47.5 -54.5t-68 -33.5t-80.5 -11.5q-48 0 -89.5 12.5t-73 37t-52 60t-26.5 81.5h101q5 -68 40 -111t98 -43zM210 430q-33 -14 -58 -42t-25 -66q0 -39 27 -63.5t72 -48.5l136 -73q19 -10 34 -19q33 17 57 45t24 63q0 37 -31 66t-83 58l-132 69z" />
    <glyph glyph-name="dieresis" unicode="&#xa8;" horiz-adv-x="385" 
d="M19 709q0 27 18 45t46 18q26 0 44 -18t18 -45q0 -29 -18 -47t-44 -18q-28 0 -46 18t-18 47zM238 709q0 27 18.5 45t46.5 18q26 0 44 -18t18 -45q0 -29 -18 -47t-44 -18q-28 0 -46.5 18t-18.5 47z" />
    <glyph glyph-name="copyright" unicode="&#xa9;" horiz-adv-x="837" 
d="M44 361q0 83 29.5 152.5t80.5 119t119.5 77t146.5 27.5q77 0 145 -27.5t119 -77t80.5 -119t29.5 -152.5t-29.5 -152t-80.5 -118.5t-119 -76.5t-145 -27q-78 0 -146.5 27t-119.5 76.5t-80.5 118.5t-29.5 152zM109 361q0 -71 24 -129t66 -100t98.5 -65t122.5 -23t122.5 23
t98.5 65t65.5 100t23.5 129t-23.5 129.5t-65.5 100.5t-98.5 65t-122.5 23t-122.5 -23t-98.5 -65t-66 -100.5t-24 -129.5zM416 214q36 0 69 18.5t45 60.5l62 -18q-8 -24 -22.5 -45t-36.5 -37.5t-51 -26t-66 -9.5q-88 0 -136.5 55.5t-48.5 153.5q0 97 51.5 151t138.5 54
q71 0 112.5 -35t55.5 -88l-61 -20q-11 42 -42 63.5t-70 21.5q-24 0 -45.5 -9t-38 -27.5t-26 -46t-9.5 -64.5t9.5 -65t26 -47.5t38 -29.5t45.5 -10z" />
    <glyph glyph-name="ordfeminine" unicode="&#xaa;" horiz-adv-x="309" 
d="M258 514q-1 -26 4 -35t14 -9q7 0 12.5 4.5t10.5 9.5l8 -7q-11 -18 -26.5 -31t-39.5 -13q-20 0 -36.5 11.5t-18.5 44.5q-11 -22 -31 -40t-56 -18q-35 0 -58.5 22t-23.5 53q0 32 23 52t58 34q15 6 36 13.5t52 16.5v22q2 44 -12 61.5t-38 17.5t-37.5 -16.5t-11.5 -59.5h-65
q3 24 15.5 42.5t30.5 31t40 19t43 6.5t41 -5.5t35.5 -18t25 -32.5t8.5 -49zM138 481q12 0 25 4.5t21 15.5l1 96q-26 -5 -42.5 -11t-29.5 -14q-15 -9 -19.5 -20t-4.5 -23q0 -22 14.5 -35t34.5 -13z" />
    <glyph glyph-name="guillemotleft" unicode="&#xab;" horiz-adv-x="568" 
d="M239 273l205 234h49l-131 -234l131 -235h-49zM33 273l205 234h49l-131 -234l131 -235h-49z" />
    <glyph glyph-name="logicalnot" unicode="&#xac;" 
d="M69 369v68h530v-338h-73v270h-457z" />
    <glyph glyph-name="uni00AD" unicode="&#xad;" horiz-adv-x="386" 
d="M54 321h279v-89h-279v89z" />
    <glyph glyph-name="registered" unicode="&#xae;" horiz-adv-x="837" 
d="M44 361q0 83 29.5 152.5t80.5 119t119.5 77t146.5 27.5q77 0 145 -27.5t119 -77t80.5 -119t29.5 -152.5t-29.5 -152t-80.5 -118.5t-119 -76.5t-145 -27q-78 0 -146.5 27t-119.5 76.5t-80.5 118.5t-29.5 152zM109 361q0 -71 24 -129t66 -100t98.5 -65t122.5 -23t122.5 23
t98.5 65t65.5 100t23.5 129t-23.5 129.5t-65.5 100.5t-98.5 65t-122.5 23t-122.5 -23t-98.5 -65t-66 -100.5t-24 -129.5zM446 331q-5 -1 -10.5 -1h-10.5h-84v-155h-63v397h120q43 0 77.5 -4.5t58.5 -17.5t37 -36.5t13 -61.5q0 -34 -17.5 -62.5t-55.5 -44.5l90 -170h-73z
M517 451q0 37 -27.5 49t-71.5 12h-77v-124h82q50 0 72 15.5t22 47.5z" />
    <glyph glyph-name="macron" unicode="&#xaf;" horiz-adv-x="325" 
d="M14 665v68h296v-68h-296z" />
    <glyph glyph-name="degree" unicode="&#xb0;" horiz-adv-x="342" 
d="M22 589q0 31 11.5 58.5t32 47.5t47.5 31.5t57 11.5q31 0 58.5 -11.5t47.5 -31.5t32 -47.5t12 -58.5t-12 -58t-32 -47.5t-47.5 -32t-58.5 -11.5q-30 0 -57 11.5t-47.5 32t-32 47.5t-11.5 58zM90 589q0 -38 21.5 -64t58.5 -26q38 0 60.5 26t22.5 64t-22.5 64t-60.5 26
q-37 0 -58.5 -26t-21.5 -64z" />
    <glyph glyph-name="plusminus" unicode="&#xb1;" 
d="M304 539h71v-174h238v-68h-238v-180h-71v180h-238v68h238v174zM66 0v68h547v-68h-547z" />
    <glyph glyph-name="twosuperior" unicode="&#xb2;" horiz-adv-x="320" 
d="M278 753q0 -22 -5.5 -39.5t-17.5 -35.5t-32 -39t-49 -50q-22 -21 -41.5 -39.5t-42.5 -38.5h198v-73h-299v7q61 55 101.5 97.5t64 76t33 60t9.5 50.5q0 37 -20 56.5t-54 19.5t-57.5 -16.5t-31.5 -48.5h-17q10 56 46 86t94 30q24 0 46 -6.5t38.5 -19.5t26.5 -32.5t10 -44.5
z" />
    <glyph glyph-name="threesuperior" unicode="&#xb3;" horiz-adv-x="339" 
d="M131 431q-29 0 -55.5 6t-43.5 14v103h10q12 -51 38.5 -75.5t58.5 -24.5q37 0 59 22t22 57q0 12 -4.5 28.5t-16.5 32.5t-33 29t-54 18v12l13 6q41 18 57.5 45.5t16.5 47.5q0 26 -17.5 39.5t-48.5 13.5t-54.5 -16.5t-31.5 -48.5h-18q10 56 47 86t94 30q21 0 40.5 -5
t34.5 -15t24 -24t9 -33q0 -18 -9 -32.5t-21.5 -26.5t-27 -20.5t-26.5 -13.5v-2q47 -14 77 -46t30 -77q0 -31 -15 -55.5t-39 -41t-54.5 -25t-61.5 -8.5z" />
    <glyph glyph-name="acute" unicode="&#xb4;" horiz-adv-x="243" 
d="M221 772l-186 -169h-16l73 169h129z" />
    <glyph glyph-name="mu" unicode="&#xb5;" horiz-adv-x="570" 
d="M65 -189q7 29 8.5 64.5t1.5 92.5v570h71v-294q0 -97 35.5 -146.5t101.5 -49.5t103.5 51.5t37.5 148.5v290h70v-538h-70v85q-21 -49 -57 -73.5t-84 -24.5t-82.5 22.5t-54.5 68.5v-101q0 -62 -3 -99.5t-8 -66.5h-70v0z" />
    <glyph glyph-name="mu" unicode="&#x3bc;" horiz-adv-x="570" 
d="M65 -189q7 29 8.5 64.5t1.5 92.5v570h71v-294q0 -97 35.5 -146.5t101.5 -49.5t103.5 51.5t37.5 148.5v290h70v-538h-70v85q-21 -49 -57 -73.5t-84 -24.5t-82.5 22.5t-54.5 68.5v-101q0 -62 -3 -99.5t-8 -66.5h-70v0z" />
    <glyph glyph-name="paragraph" unicode="&#xb6;" horiz-adv-x="556" 
d="M20 534q0 89 60.5 140t184.5 51h185v-816h-66v754h-118v-754h-67v446q-33 4 -65.5 16t-57.5 34t-40.5 54t-15.5 75z" />
    <glyph glyph-name="periodcentered" unicode="&#xb7;" horiz-adv-x="357" 
d="M104 278q0 30 22 52t52 22q31 0 52.5 -22t21.5 -52t-21.5 -52t-52.5 -22q-30 0 -52 22t-22 52z" />
    <glyph glyph-name="cedilla" unicode="&#xb8;" horiz-adv-x="248" 
d="M123 3h37l-51 -86q11 5 22 7t20 2q35 0 56 -21t21 -50q0 -25 -10.5 -43t-26.5 -29t-35 -16.5t-37 -5.5q-35 0 -57.5 9.5t-39.5 19.5l10 22q13 -6 30.5 -10t33.5 -4q28 0 45.5 12t17.5 35q0 17 -11 27t-26.5 13.5t-32.5 0.5t-30 -10l-9 5z" />
    <glyph glyph-name="onesuperior" unicode="&#xb9;" horiz-adv-x="291" 
d="M194 519q0 -21 1 -34t6.5 -20.5t16 -10.5t29.5 -6v-10h-198v11q23 2 36 5t19.5 10.5t8 20.5t1.5 35v265h-77v11q48 5 84 18.5t61 38.5h12v-334z" />
    <glyph glyph-name="ordmasculine" unicode="&#xba;" horiz-adv-x="349" 
d="M173 746q32 0 60.5 -11.5t49.5 -32.5t33 -50t12 -63q0 -32 -11.5 -60.5t-31.5 -50t-48 -34.5t-62 -13q-33 0 -61 12t-49 33t-32.5 50.5t-11.5 64.5q0 30 11 58t31 49.5t48 34.5t62 13zM168 726q-18 0 -30 -9.5t-19.5 -25.5t-10.5 -37.5t-3 -44.5q0 -21 3.5 -48t12 -51.5
t23 -41.5t37.5 -17q18 0 30 10t19.5 27t10.5 38t3 44q0 19 -3.5 46t-12 51.5t-23 41.5t-37.5 17z" />
    <glyph glyph-name="guillemotright" unicode="&#xbb;" horiz-adv-x="568" 
d="M330 38h-50l132 235l-132 234h50l205 -234zM124 38h-50l132 235l-132 234h50l205 -234z" />
    <glyph glyph-name="onequarter" unicode="&#xbc;" horiz-adv-x="907" 
d="M742 0v99h-176v48l186 261h70v-243h67v-66h-67v-99h-80zM742 349l-132 -184h132v184zM194 398q0 -21 1 -34t6.5 -20.5t16 -10.5t29.5 -6v-10h-198v11q23 2 36 5t19.5 10.5t8 20.5t1.5 35v265h-77v11q48 5 84 18.5t61 38.5h12v-334zM136 0l508 725h66l-507 -725h-67z" />
    <glyph glyph-name="onehalf" unicode="&#xbd;" horiz-adv-x="875" 
d="M833 315q0 -22 -5.5 -39.5t-17.5 -35.5t-32 -39t-49 -50q-22 -21 -41.5 -39.5t-42.5 -38.5h198v-73h-299v7q61 55 101.5 97.5t64 76t33 60t9.5 50.5q0 37 -20 56.5t-54 19.5t-57.5 -16.5t-31.5 -48.5h-17q10 56 46 86t94 30q24 0 46 -6.5t38.5 -19.5t26.5 -32.5t10 -44.5
zM194 398q0 -21 1 -34t6.5 -20.5t16 -10.5t29.5 -6v-10h-198v11q23 2 36 5t19.5 10.5t8 20.5t1.5 35v265h-77v11q48 5 84 18.5t61 38.5h12v-334zM136 0l508 725h66l-507 -725h-67z" />
    <glyph glyph-name="threequarters" unicode="&#xbe;" horiz-adv-x="955" 
d="M131 310q-29 0 -55.5 6t-43.5 14v103h10q12 -51 38.5 -75.5t58.5 -24.5q37 0 59 22t22 57q0 12 -4.5 28.5t-16.5 32.5t-33 29t-54 18v12l13 6q41 18 57.5 45.5t16.5 47.5q0 26 -17.5 39.5t-48.5 13.5t-54.5 -16.5t-31.5 -48.5h-18q10 56 47 86t94 30q21 0 40.5 -5
t34.5 -15t24 -24t9 -33q0 -18 -9 -32.5t-21.5 -26.5t-27 -20.5t-26.5 -13.5v-2q47 -14 77 -46t30 -77q0 -31 -15 -55.5t-39 -41t-54.5 -25t-61.5 -8.5zM790 0v99h-176v48l186 261h70v-243h67v-66h-67v-99h-80zM790 349l-132 -184h132v184zM184 0l508 725h66l-507 -725h-67z
" />
    <glyph glyph-name="questiondown" unicode="&#xbf;" horiz-adv-x="574" 
d="M320 -186q60 0 100.5 41t57.5 126h20v-172q-14 -6 -36.5 -12t-47 -10t-50 -6.5t-45.5 -2.5q-115 0 -174.5 39t-59.5 105q0 47 18 82.5t45 65t59 56t59 55.5t45 63t18 79v12h30v-9q0 -51 -11.5 -91t-28 -72.5t-36.5 -60t-36.5 -55t-28 -57t-11.5 -65.5q0 -56 29.5 -83.5
t83.5 -27.5zM265 473q0 30 22 52t52 22q31 0 52.5 -22t21.5 -52t-21.5 -52t-52.5 -22q-30 0 -52 22t-22 52z" />
    <glyph glyph-name="Agrave" unicode="&#xc0;" horiz-adv-x="781" 
d="M5 18q25 2 41 8.5t29.5 24t28 50t35.5 87.5l215 542q16 2 30.5 11t25.5 23h4l257 -646q11 -29 20 -47.5t19.5 -29.5t26 -16.5t39.5 -6.5v-18h-293v18q54 6 68.5 23t-0.5 55l-55 140h-291l-5 -14q-27 -69 -38 -108.5t-6.5 -59.5t23.5 -26.5t51 -9.5v-18h-225v18zM225 285
h251l-125 320zM314 922l83 -129h-21l-219 129h157z" />
    <glyph glyph-name="Aacute" unicode="&#xc1;" horiz-adv-x="781" 
d="M5 18q25 2 41 8.5t29.5 24t28 50t35.5 87.5l215 542q16 2 30.5 11t25.5 23h4l257 -646q11 -29 20 -47.5t19.5 -29.5t26 -16.5t39.5 -6.5v-18h-293v18q54 6 68.5 23t-0.5 55l-55 140h-291l-5 -14q-27 -69 -38 -108.5t-6.5 -59.5t23.5 -26.5t51 -9.5v-18h-225v18zM225 285
h251l-125 320zM387 793h-21l83 129h157z" />
    <glyph glyph-name="Acircumflex" unicode="&#xc2;" horiz-adv-x="781" 
d="M5 18q25 2 41 8.5t29.5 24t28 50t35.5 87.5l215 542q16 2 30.5 11t25.5 23h4l257 -646q11 -29 20 -47.5t19.5 -29.5t26 -16.5t39.5 -6.5v-18h-293v18q54 6 68.5 23t-0.5 55l-55 140h-291l-5 -14q-27 -69 -38 -108.5t-6.5 -59.5t23.5 -26.5t51 -9.5v-18h-225v18zM225 285
h251l-125 320zM401 932l145 -139h-23l-130 59l-130 -59h-23l145 139h16z" />
    <glyph glyph-name="Atilde" unicode="&#xc3;" horiz-adv-x="781" 
d="M5 18q25 2 41 8.5t29.5 24t28 50t35.5 87.5l215 542q16 2 30.5 11t25.5 23h4l257 -646q11 -29 20 -47.5t19.5 -29.5t26 -16.5t39.5 -6.5v-18h-293v18q54 6 68.5 23t-0.5 55l-55 140h-291l-5 -14q-27 -69 -38 -108.5t-6.5 -59.5t23.5 -26.5t51 -9.5v-18h-225v18zM225 285
h251l-125 320zM495 864q25 0 40.5 11.5t20.5 38.5h16q0 -24 -5.5 -47t-17 -41t-29 -28.5t-41.5 -10.5q-25 0 -45 9.5t-38.5 21t-37.5 21t-42 9.5q-26 0 -41.5 -11.5t-20.5 -38.5h-16q0 24 5.5 47t17 41t29 28.5t41.5 10.5t44.5 -9.5t39.5 -21t38.5 -21t41.5 -9.5z" />
    <glyph glyph-name="Adieresis" unicode="&#xc4;" horiz-adv-x="781" 
d="M5 18q25 2 41 8.5t29.5 24t28 50t35.5 87.5l215 542q16 2 30.5 11t25.5 23h4l257 -646q11 -29 20 -47.5t19.5 -29.5t26 -16.5t39.5 -6.5v-18h-293v18q54 6 68.5 23t-0.5 55l-55 140h-291l-5 -14q-27 -69 -38 -108.5t-6.5 -59.5t23.5 -26.5t51 -9.5v-18h-225v18zM225 285
h251l-125 320zM442 860q0 27 18 45.5t46 18.5q26 0 44.5 -18.5t18.5 -45.5q0 -28 -18.5 -46t-44.5 -18q-28 0 -46 18t-18 46zM215 860q0 27 18 45.5t46 18.5q26 0 44 -18.5t18 -45.5q0 -28 -18 -46t-44 -18q-28 0 -46 18t-18 46z" />
    <glyph glyph-name="Aring" unicode="&#xc5;" horiz-adv-x="781" 
d="M5 18q25 2 41 8.5t29.5 24t28 50t35.5 87.5l215 542q16 2 30.5 11t25.5 23h4l257 -646q11 -29 20 -47.5t19.5 -29.5t26 -16.5t39.5 -6.5v-18h-293v18q54 6 68.5 23t-0.5 55l-55 140h-291l-5 -14q-27 -69 -38 -108.5t-6.5 -59.5t23.5 -26.5t51 -9.5v-18h-225v18zM225 285
h251l-125 320zM296 880q0 39 27 66.5t66 27.5q19 0 36.5 -7.5t30 -20t20 -30t7.5 -36.5t-7.5 -36t-20 -29.5t-30 -20t-36.5 -7.5q-20 0 -36.5 7.5t-29.5 20t-20 29.5t-7 36zM335 880q0 -25 15 -40.5t39 -15.5q23 0 38.5 15.5t15.5 40.5t-15.5 41t-38.5 16q-24 0 -39 -16
t-15 -41z" />
    <glyph glyph-name="AE" unicode="&#xc6;" horiz-adv-x="1096" 
d="M774 725q48 0 108 0.5t117 2.5l27 -224h-18q-21 66 -47 103t-62.5 55.5t-87 22.5t-120.5 4h-57v-293h136q43 0 69 24.5t34 87.5h18v-268h-18q-8 63 -34 87.5t-69 24.5h-136v-272q0 -28 8 -37t39 -9h19q71 0 123.5 6t91.5 26t67 57t50 100h19l-39 -224q-57 1 -116.5 1
h-107.5h-369v16q34 4 53.5 9.5t29.5 17.5t13 34t3 61v98h-262l-9 -14q-40 -62 -60.5 -100.5t-23.5 -61t12.5 -32t47.5 -12.5v-16h-240v16q27 2 48 10.5t42 28t44.5 51.5t55.5 82l345 537h256zM293 294h225v352z" />
    <glyph glyph-name="Ccedilla" unicode="&#xc7;" horiz-adv-x="739" 
d="M375 3h38l-51 -86q10 5 21.5 7t20.5 2q35 0 55 -21t20 -50q0 -25 -10 -43t-25.5 -29t-34.5 -16.5t-36 -5.5q-35 0 -58 9.5t-40 19.5l10 22q13 -7 30 -10.5t34 -3.5q28 0 45 12t17 35q0 17 -10.5 27t-26 13.5t-32.5 0.5t-30 -10l-9 5zM179 366q0 -78 17.5 -139.5t50 -104
t79 -65.5t104.5 -23q52 0 93.5 15.5t72 40t51.5 55t32 60.5l27 -9q-10 -39 -34 -76.5t-61.5 -67t-87.5 -47.5t-111 -18q-85 0 -152 29.5t-113.5 81t-71.5 121t-25 148.5q0 88 31 158t84.5 119t124 75t148.5 26q57 0 111 -10t103 -30l23 -220h-19q-28 121 -85.5 172.5
t-150.5 51.5q-45 0 -88.5 -19.5t-77.5 -61.5t-54.5 -107t-20.5 -155z" />
    <glyph glyph-name="Egrave" unicode="&#xc8;" horiz-adv-x="715" 
d="M340 922l83 -129h-21l-219 129h157zM631 -1q-57 1 -116.5 1h-107.5h-369v18q34 4 53.5 9t29.5 17.5t13 36t3 65.5v433q0 42 -3 65.5t-13 36t-29.5 17t-53.5 9.5v18h355q48 0 108 0.5t117 2.5l27 -224h-18q-21 66 -47 103t-62.5 55.5t-87 22.5t-120.5 4h-56v-293h135
q43 0 69 24.5t34 87.5h18v-268h-18q-8 63 -34 87.5t-69 24.5h-135v-272q0 -28 7.5 -37t38.5 -9h21q71 0 123 6t90.5 26t66.5 57.5t50 99.5h19l-39 -224v0z" />
    <glyph glyph-name="Eacute" unicode="&#xc9;" horiz-adv-x="715" 
d="M631 -1q-57 1 -116.5 1h-107.5h-369v18q34 4 53.5 9t29.5 17.5t13 36t3 65.5v433q0 42 -3 65.5t-13 36t-29.5 17t-53.5 9.5v18h355q48 0 108 0.5t117 2.5l27 -224h-18q-21 66 -47 103t-62.5 55.5t-87 22.5t-120.5 4h-56v-293h135q43 0 69 24.5t34 87.5h18v-268h-18
q-8 63 -34 87.5t-69 24.5h-135v-272q0 -28 7.5 -37t38.5 -9h21q71 0 123 6t90.5 26t66.5 57.5t50 99.5h19l-39 -224v0zM359 793h-21l83 129h157z" />
    <glyph glyph-name="Ecircumflex" unicode="&#xca;" horiz-adv-x="715" 
d="M380 932l145 -139h-23l-130 59l-130 -59h-23l145 139h16zM631 -1q-57 1 -116.5 1h-107.5h-369v18q34 4 53.5 9t29.5 17.5t13 36t3 65.5v433q0 42 -3 65.5t-13 36t-29.5 17t-53.5 9.5v18h355q48 0 108 0.5t117 2.5l27 -224h-18q-21 66 -47 103t-62.5 55.5t-87 22.5
t-120.5 4h-56v-293h135q43 0 69 24.5t34 87.5h18v-268h-18q-8 63 -34 87.5t-69 24.5h-135v-272q0 -28 7.5 -37t38.5 -9h21q71 0 123 6t90.5 26t66.5 57.5t50 99.5h19l-39 -224v0z" />
    <glyph glyph-name="Edieresis" unicode="&#xcb;" horiz-adv-x="715" 
d="M631 -1q-57 1 -116.5 1h-107.5h-369v18q34 4 53.5 9t29.5 17.5t13 36t3 65.5v433q0 42 -3 65.5t-13 36t-29.5 17t-53.5 9.5v18h355q48 0 108 0.5t117 2.5l27 -224h-18q-21 66 -47 103t-62.5 55.5t-87 22.5t-120.5 4h-56v-293h135q43 0 69 24.5t34 87.5h18v-268h-18
q-8 63 -34 87.5t-69 24.5h-135v-272q0 -28 7.5 -37t38.5 -9h21q71 0 123 6t90.5 26t66.5 57.5t50 99.5h19l-39 -224v0zM423 860q0 27 18 45.5t46 18.5q26 0 44.5 -18.5t18.5 -45.5q0 -28 -18.5 -46t-44.5 -18q-28 0 -46 18t-18 46zM196 860q0 27 18 45.5t46 18.5
q26 0 44 -18.5t18 -45.5q0 -28 -18 -46t-44 -18q-28 0 -46 18t-18 46z" />
    <glyph glyph-name="Igrave" unicode="&#xcc;" horiz-adv-x="391" 
d="M254 146q0 -42 3 -65.5t13 -36t29.5 -17.5t53.5 -9v-18h-315v18q34 4 53.5 9t29.5 17.5t13 36t3 65.5v433q0 42 -3 65.5t-13 36t-29.5 17t-53.5 9.5v18h315v-18q-34 -5 -53.5 -9.5t-29.5 -17t-13 -36t-3 -65.5v-433zM177 922l83 -129h-21l-219 129h157z" />
    <glyph glyph-name="Iacute" unicode="&#xcd;" horiz-adv-x="391" 
d="M254 146q0 -42 3 -65.5t13 -36t29.5 -17.5t53.5 -9v-18h-315v18q34 4 53.5 9t29.5 17.5t13 36t3 65.5v433q0 42 -3 65.5t-13 36t-29.5 17t-53.5 9.5v18h315v-18q-34 -5 -53.5 -9.5t-29.5 -17t-13 -36t-3 -65.5v-433zM167 793h-21l83 129h157z" />
    <glyph glyph-name="Icircumflex" unicode="&#xce;" horiz-adv-x="391" 
d="M254 146q0 -42 3 -65.5t13 -36t29.5 -17.5t53.5 -9v-18h-315v18q34 4 53.5 9t29.5 17.5t13 36t3 65.5v433q0 42 -3 65.5t-13 36t-29.5 17t-53.5 9.5v18h315v-18q-34 -5 -53.5 -9.5t-29.5 -17t-13 -36t-3 -65.5v-433zM200 932l145 -139h-23l-130 59l-130 -59h-23l145 139
h16z" />
    <glyph glyph-name="Idieresis" unicode="&#xcf;" horiz-adv-x="391" 
d="M254 146q0 -42 3 -65.5t13 -36t29.5 -17.5t53.5 -9v-18h-315v18q34 4 53.5 9t29.5 17.5t13 36t3 65.5v433q0 42 -3 65.5t-13 36t-29.5 17t-53.5 9.5v18h315v-18q-34 -5 -53.5 -9.5t-29.5 -17t-13 -36t-3 -65.5v-433zM246 860q0 27 18 45.5t46 18.5q26 0 44.5 -18.5
t18.5 -45.5q0 -28 -18.5 -46t-44.5 -18q-28 0 -46 18t-18 46zM19 860q0 27 18 45.5t46 18.5q26 0 44 -18.5t18 -45.5q0 -28 -18 -46t-44 -18q-28 0 -46 18t-18 46z" />
    <glyph glyph-name="Eth" unicode="&#xd0;" horiz-adv-x="812" 
d="M367 725q76 0 147 -20t126.5 -63.5t89 -111.5t33.5 -165q0 -96 -32.5 -165.5t-87.5 -113.5t-127 -65t-150 -21h-315v18q34 4 53.5 9t29.5 17.5t13 36t3 65.5v206h-104v44h104v183q0 42 -3 65.5t-13 36t-29.5 17t-53.5 9.5v18h316zM365 36q61 0 110.5 21t85 62.5t54.5 103
t19 142.5t-19.5 141.5t-55.5 101t-86 61t-111 20.5h-95v-293h148v-44h-148v-316h98z" />
    <glyph glyph-name="Ntilde" unicode="&#xd1;" horiz-adv-x="804" 
d="M524 864q25 0 40.5 11.5t20.5 38.5h16q0 -24 -5.5 -47t-17 -41t-29 -28.5t-41.5 -10.5q-25 0 -45 9.5t-38.5 21t-37.5 21t-42 9.5q-26 0 -41.5 -11.5t-20.5 -38.5h-16q0 24 5.5 47t17 41t29 28.5t41.5 10.5t44.5 -9.5t39.5 -21t38.5 -21t41.5 -9.5zM641 579q0 42 -3 65.5
t-13 36t-29.5 17t-53.5 9.5v18h244v-18q-33 -5 -53 -9.5t-30 -17t-13 -36t-3 -65.5v-587h-50l-456 576v-422q0 -42 3 -65.5t13 -36t30 -17.5t53 -9v-18h-244v18q33 4 53 9t30 17.5t13 36t3 65.5v480l-4 5q-25 32 -43 49.5t-40 28.5v16h159l434 -549v403v0z" />
    <glyph glyph-name="Ograve" unicode="&#xd2;" horiz-adv-x="848" 
d="M411 922l83 -129h-21l-219 129h157zM50 366q0 91 31.5 162t84 119t120 73t138.5 25t138.5 -25t120 -73t84 -119t31.5 -162q0 -92 -31.5 -162.5t-84 -118.5t-120 -73t-138.5 -25t-138.5 25t-120 73t-84 118.5t-31.5 162.5zM668 366q0 77 -18 140.5t-50.5 108.5t-77 69.5
t-98.5 24.5t-98.5 -24.5t-77 -69.5t-50.5 -108.5t-18 -140.5t18 -140.5t50.5 -108.5t77 -69.5t98.5 -24.5t98.5 24.5t77 69.5t50.5 108.5t18 140.5z" />
    <glyph glyph-name="Oacute" unicode="&#xd3;" horiz-adv-x="848" 
d="M412 793h-21l83 129h157zM50 366q0 91 31.5 162t84 119t120 73t138.5 25t138.5 -25t120 -73t84 -119t31.5 -162q0 -92 -31.5 -162.5t-84 -118.5t-120 -73t-138.5 -25t-138.5 25t-120 73t-84 118.5t-31.5 162.5zM668 366q0 77 -18 140.5t-50.5 108.5t-77 69.5t-98.5 24.5
t-98.5 -24.5t-77 -69.5t-50.5 -108.5t-18 -140.5t18 -140.5t50.5 -108.5t77 -69.5t98.5 -24.5t98.5 24.5t77 69.5t50.5 108.5t18 140.5z" />
    <glyph glyph-name="Ocircumflex" unicode="&#xd4;" horiz-adv-x="848" 
d="M432 932l145 -139h-23l-130 59l-130 -59h-23l145 139h16zM50 366q0 91 31.5 162t84 119t120 73t138.5 25t138.5 -25t120 -73t84 -119t31.5 -162q0 -92 -31.5 -162.5t-84 -118.5t-120 -73t-138.5 -25t-138.5 25t-120 73t-84 118.5t-31.5 162.5zM668 366q0 77 -18 140.5
t-50.5 108.5t-77 69.5t-98.5 24.5t-98.5 -24.5t-77 -69.5t-50.5 -108.5t-18 -140.5t18 -140.5t50.5 -108.5t77 -69.5t98.5 -24.5t98.5 24.5t77 69.5t50.5 108.5t18 140.5z" />
    <glyph glyph-name="Otilde" unicode="&#xd5;" horiz-adv-x="848" 
d="M50 366q0 91 31.5 162t84 119t120 73t138.5 25t138.5 -25t120 -73t84 -119t31.5 -162q0 -92 -31.5 -162.5t-84 -118.5t-120 -73t-138.5 -25t-138.5 25t-120 73t-84 118.5t-31.5 162.5zM668 366q0 77 -18 140.5t-50.5 108.5t-77 69.5t-98.5 24.5t-98.5 -24.5t-77 -69.5
t-50.5 -108.5t-18 -140.5t18 -140.5t50.5 -108.5t77 -69.5t98.5 -24.5t98.5 24.5t77 69.5t50.5 108.5t18 140.5zM517 864q25 0 40.5 11.5t20.5 38.5h16q0 -24 -5.5 -47t-17 -41t-29 -28.5t-41.5 -10.5q-25 0 -45 9.5t-38.5 21t-37.5 21t-42 9.5q-26 0 -41.5 -11.5
t-20.5 -38.5h-16q0 24 5.5 47t17 41t29 28.5t41.5 10.5t44.5 -9.5t39.5 -21t38.5 -21t41.5 -9.5z" />
    <glyph glyph-name="Odieresis" unicode="&#xd6;" horiz-adv-x="848" 
d="M50 366q0 91 31.5 162t84 119t120 73t138.5 25t138.5 -25t120 -73t84 -119t31.5 -162q0 -92 -31.5 -162.5t-84 -118.5t-120 -73t-138.5 -25t-138.5 25t-120 73t-84 118.5t-31.5 162.5zM668 366q0 77 -18 140.5t-50.5 108.5t-77 69.5t-98.5 24.5t-98.5 -24.5t-77 -69.5
t-50.5 -108.5t-18 -140.5t18 -140.5t50.5 -108.5t77 -69.5t98.5 -24.5t98.5 24.5t77 69.5t50.5 108.5t18 140.5zM474 860q0 27 18 45.5t46 18.5q26 0 44.5 -18.5t18.5 -45.5q0 -28 -18.5 -46t-44.5 -18q-28 0 -46 18t-18 46zM247 860q0 27 18 45.5t46 18.5q26 0 44 -18.5
t18 -45.5q0 -28 -18 -46t-44 -18q-28 0 -46 18t-18 46z" />
    <glyph glyph-name="multiply" unicode="&#xd7;" 
d="M523 37l-185 185l-183 -183l-51 51l183 184l-183 183l51 51l183 -183l183 183l51 -51l-182 -183l184 -186z" />
    <glyph glyph-name="Oslash" unicode="&#xd8;" horiz-adv-x="848" 
d="M50 366q0 91 31.5 162t84 119t120 73t138.5 25q98 0 184 -46l69 97l35 -23l-68 -96q69 -48 111.5 -125.5t42.5 -185.5q0 -92 -31.5 -162.5t-84 -118.5t-120 -73t-138.5 -25q-59 0 -115 17t-104 49l-71 -101l-35 23l73 104q-55 48 -88.5 120t-33.5 167zM668 366
q0 77 -18 140t-50 108l-351 -498q32 -45 76.5 -69t98.5 -24t98.5 24.5t77 69.5t50.5 108.5t18 140.5zM180 366q0 -63 11.5 -116t33.5 -96l347 493q-62 62 -148 62q-54 0 -98.5 -24.5t-77 -69.5t-50.5 -108.5t-18 -140.5z" />
    <glyph glyph-name="Ugrave" unicode="&#xd9;" horiz-adv-x="787" 
d="M389 922l83 -129h-21l-219 129h157zM120 579q0 41 -3 64.5t-13 36t-30 17.5t-53 10v18h314v-18q-33 -5 -53 -9.5t-30 -17t-13 -36t-3 -65.5v-295q0 -118 44 -182.5t144 -64.5q57 0 95.5 20t61.5 55.5t33 83t10 102.5v281q0 42 -3 65.5t-13 36t-30 17t-53 9.5v18h244v-18
q-34 -5 -53.5 -9.5t-29.5 -17t-13 -36t-3 -65.5v-280q0 -158 -67.5 -235t-207.5 -77q-76 0 -128.5 20.5t-85 58t-47 90.5t-14.5 117v306v0z" />
    <glyph glyph-name="Uacute" unicode="&#xda;" horiz-adv-x="787" 
d="M120 579q0 41 -3 64.5t-13 36t-30 17.5t-53 10v18h314v-18q-33 -5 -53 -9.5t-30 -17t-13 -36t-3 -65.5v-295q0 -118 44 -182.5t144 -64.5q57 0 95.5 20t61.5 55.5t33 83t10 102.5v281q0 42 -3 65.5t-13 36t-30 17t-53 9.5v18h244v-18q-34 -5 -53.5 -9.5t-29.5 -17
t-13 -36t-3 -65.5v-280q0 -158 -67.5 -235t-207.5 -77q-76 0 -128.5 20.5t-85 58t-47 90.5t-14.5 117v306v0zM410 793h-21l83 129h157z" />
    <glyph glyph-name="Ucircumflex" unicode="&#xdb;" horiz-adv-x="787" 
d="M434 932l145 -139h-23l-130 59l-130 -59h-23l145 139h16zM120 579q0 41 -3 64.5t-13 36t-30 17.5t-53 10v18h314v-18q-33 -5 -53 -9.5t-30 -17t-13 -36t-3 -65.5v-295q0 -118 44 -182.5t144 -64.5q57 0 95.5 20t61.5 55.5t33 83t10 102.5v281q0 42 -3 65.5t-13 36t-30 17
t-53 9.5v18h244v-18q-34 -5 -53.5 -9.5t-29.5 -17t-13 -36t-3 -65.5v-280q0 -158 -67.5 -235t-207.5 -77q-76 0 -128.5 20.5t-85 58t-47 90.5t-14.5 117v306v0z" />
    <glyph glyph-name="Udieresis" unicode="&#xdc;" horiz-adv-x="787" 
d="M120 579q0 41 -3 64.5t-13 36t-30 17.5t-53 10v18h314v-18q-33 -5 -53 -9.5t-30 -17t-13 -36t-3 -65.5v-295q0 -118 44 -182.5t144 -64.5q57 0 95.5 20t61.5 55.5t33 83t10 102.5v281q0 42 -3 65.5t-13 36t-30 17t-53 9.5v18h244v-18q-34 -5 -53.5 -9.5t-29.5 -17
t-13 -36t-3 -65.5v-280q0 -158 -67.5 -235t-207.5 -77q-76 0 -128.5 20.5t-85 58t-47 90.5t-14.5 117v306v0zM476 860q0 27 18 45.5t46 18.5q26 0 44.5 -18.5t18.5 -45.5q0 -28 -18.5 -46t-44.5 -18q-28 0 -46 18t-18 46zM249 860q0 27 18 45.5t46 18.5q26 0 44 -18.5
t18 -45.5q0 -28 -18 -46t-44 -18q-28 0 -46 18t-18 46z" />
    <glyph glyph-name="Yacute" unicode="&#xdd;" horiz-adv-x="726" 
d="M412 146q0 -38 3 -61.5t14 -37t33 -19.5t60 -9v-19h-337v19q37 3 59 9t33.5 19.5t14.5 37t3 61.5v139l-187 326q-15 26 -26.5 43.5t-23 28t-24 16t-30.5 8.5v18h294v-18q-51 -6 -68.5 -22.5t2.5 -51.5l161 -290l131 223q24 41 33.5 67t5.5 42t-19.5 23t-41.5 9v18h220
v-18q-21 -3 -37.5 -10t-31.5 -20t-30 -32.5t-32 -49.5l-179 -305v-144v0zM384 793h-21l83 129h157z" />
    <glyph glyph-name="Thorn" unicode="&#xde;" horiz-adv-x="669" 
d="M336 222q46 0 82 7.5t61 27t38 53t13 85.5t-13 86t-38 53.5t-61 27t-82 7.5h-82v-347h82zM659 395q0 -60 -24.5 -100.5t-67.5 -65t-100 -34.5t-122 -10h-91v-40q0 -38 2 -61t12.5 -36.5t32 -19.5t61.5 -9v-19h-324v18q34 4 53.5 9t29.5 17.5t13 36t3 65.5v433
q0 42 -3 65.5t-13 36t-29.5 17t-53.5 9.5v18h216v-120h91q65 0 122 -10t100 -34t67.5 -64.5t24.5 -101.5z" />
    <glyph glyph-name="germandbls" unicode="&#xdf;" horiz-adv-x="673" 
d="M41 18q30 3 46 9t23.5 19t9 36t1.5 62v357q0 66 17.5 121t49.5 95t78.5 62t104.5 22q99 0 151 -41.5t52 -104.5q0 -28 -11 -53t-29.5 -46.5t-42 -38.5t-47.5 -28v-3q42 -17 76 -44t57 -60t35.5 -70.5t12.5 -77.5q0 -54 -19.5 -99t-52 -78t-75.5 -51.5t-91 -18.5
q-31 0 -61.5 3t-59.5 11v74h2q30 -24 56.5 -37.5t62.5 -13.5q31 0 55.5 13.5t41 37t25 54t8.5 64.5q0 35 -11 72t-35 69t-61.5 56.5t-91.5 34.5v22l23 10q38 16 64 36.5t42 44.5t23 49.5t7 50.5q0 36 -9 60.5t-24 39t-35.5 21t-44.5 6.5q-37 0 -63.5 -17t-43 -48t-24 -75.5
t-7.5 -99.5v-322l2 -203h-187v18z" />
    <glyph glyph-name="agrave" unicode="&#xe0;" horiz-adv-x="551" 
d="M354 306q-63 -23 -95 -40t-45 -25q-32 -20 -46.5 -40.5t-12.5 -52.5q1 -19 8.5 -37.5t20.5 -33t31.5 -23.5t41.5 -9q28 0 51 13t43 34zM354 64q-17 -16 -35 -31.5t-37 -26.5q-17 -11 -37 -15t-46 -4q-28 0 -56 9.5t-50.5 27t-37 41.5t-14.5 54q0 24 10.5 44t30.5 38
t50.5 35t69.5 36q20 10 59 28t95 42v23q0 79 -25.5 110.5t-75.5 31.5q-32 0 -52.5 -11t-31.5 -29.5t-14 -44t-1 -54.5h-102q0 31 17 63t47 57.5t71.5 41.5t89.5 16q35 0 67.5 -7.5t57.5 -27t39 -52.5t13 -83l-5 -259q-1 -42 7.5 -53.5t28.5 -11.5q12 0 22.5 6t21.5 14
l10 -10q-10 -12 -20.5 -25t-23 -23.5t-27.5 -17t-33 -6.5q-31 0 -55.5 18t-27.5 56zM241 772l73 -169h-16l-186 169h129z" />
    <glyph glyph-name="aacute" unicode="&#xe1;" horiz-adv-x="551" 
d="M354 306q-63 -23 -95 -40t-45 -25q-32 -20 -46.5 -40.5t-12.5 -52.5q1 -19 8.5 -37.5t20.5 -33t31.5 -23.5t41.5 -9q28 0 51 13t43 34zM354 64q-17 -16 -35 -31.5t-37 -26.5q-17 -11 -37 -15t-46 -4q-28 0 -56 9.5t-50.5 27t-37 41.5t-14.5 54q0 24 10.5 44t30.5 38
t50.5 35t69.5 36q20 10 59 28t95 42v23q0 79 -25.5 110.5t-75.5 31.5q-32 0 -52.5 -11t-31.5 -29.5t-14 -44t-1 -54.5h-102q0 31 17 63t47 57.5t71.5 41.5t89.5 16q35 0 67.5 -7.5t57.5 -27t39 -52.5t13 -83l-5 -259q-1 -42 7.5 -53.5t28.5 -11.5q12 0 22.5 6t21.5 14
l10 -10q-10 -12 -20.5 -25t-23 -23.5t-27.5 -17t-33 -6.5q-31 0 -55.5 18t-27.5 56zM453 772l-186 -169h-16l73 169h129z" />
    <glyph glyph-name="acircumflex" unicode="&#xe2;" horiz-adv-x="551" 
d="M354 306q-63 -23 -95 -40t-45 -25q-32 -20 -46.5 -40.5t-12.5 -52.5q1 -19 8.5 -37.5t20.5 -33t31.5 -23.5t41.5 -9q28 0 51 13t43 34zM354 64q-17 -16 -35 -31.5t-37 -26.5q-17 -11 -37 -15t-46 -4q-28 0 -56 9.5t-50.5 27t-37 41.5t-14.5 54q0 24 10.5 44t30.5 38
t50.5 35t69.5 36q20 10 59 28t95 42v23q0 79 -25.5 110.5t-75.5 31.5q-32 0 -52.5 -11t-31.5 -29.5t-14 -44t-1 -54.5h-102q0 31 17 63t47 57.5t71.5 41.5t89.5 16q35 0 67.5 -7.5t57.5 -27t39 -52.5t13 -83l-5 -259q-1 -42 7.5 -53.5t28.5 -11.5q12 0 22.5 6t21.5 14
l10 -10q-10 -12 -20.5 -25t-23 -23.5t-27.5 -17t-33 -6.5q-31 0 -55.5 18t-27.5 56zM438 603h-20l-145 81l-145 -81h-19l158 169h13z" />
    <glyph glyph-name="atilde" unicode="&#xe3;" horiz-adv-x="551" 
d="M354 306q-63 -23 -95 -40t-45 -25q-32 -20 -46.5 -40.5t-12.5 -52.5q1 -19 8.5 -37.5t20.5 -33t31.5 -23.5t41.5 -9q28 0 51 13t43 34zM354 64q-17 -16 -35 -31.5t-37 -26.5q-17 -11 -37 -15t-46 -4q-28 0 -56 9.5t-50.5 27t-37 41.5t-14.5 54q0 24 10.5 44t30.5 38
t50.5 35t69.5 36q20 10 59 28t95 42v23q0 79 -25.5 110.5t-75.5 31.5q-32 0 -52.5 -11t-31.5 -29.5t-14 -44t-1 -54.5h-102q0 31 17 63t47 57.5t71.5 41.5t89.5 16q35 0 67.5 -7.5t57.5 -27t39 -52.5t13 -83l-5 -259q-1 -42 7.5 -53.5t28.5 -11.5q12 0 22.5 6t21.5 14
l10 -10q-10 -12 -20.5 -25t-23 -23.5t-27.5 -17t-33 -6.5q-31 0 -55.5 18t-27.5 56zM109 635q0 23 5.5 47t16.5 44t29 32.5t43 12.5q21 0 41 -10t39 -21.5t36.5 -21.5t34.5 -10q27 0 40 14t15 46h19q0 -41 -8 -66.5t-20 -39.5t-27 -19.5t-31 -5.5q-25 0 -45.5 10t-39 21.5
t-36 21.5t-37.5 10q-24 0 -39 -17t-17 -48h-19z" />
    <glyph glyph-name="adieresis" unicode="&#xe4;" horiz-adv-x="551" 
d="M354 306q-63 -23 -95 -40t-45 -25q-32 -20 -46.5 -40.5t-12.5 -52.5q1 -19 8.5 -37.5t20.5 -33t31.5 -23.5t41.5 -9q28 0 51 13t43 34zM354 64q-17 -16 -35 -31.5t-37 -26.5q-17 -11 -37 -15t-46 -4q-28 0 -56 9.5t-50.5 27t-37 41.5t-14.5 54q0 24 10.5 44t30.5 38
t50.5 35t69.5 36q20 10 59 28t95 42v23q0 79 -25.5 110.5t-75.5 31.5q-32 0 -52.5 -11t-31.5 -29.5t-14 -44t-1 -54.5h-102q0 31 17 63t47 57.5t71.5 41.5t89.5 16q35 0 67.5 -7.5t57.5 -27t39 -52.5t13 -83l-5 -259q-1 -42 7.5 -53.5t28.5 -11.5q12 0 22.5 6t21.5 14
l10 -10q-10 -12 -20.5 -25t-23 -23.5t-27.5 -17t-33 -6.5q-31 0 -55.5 18t-27.5 56zM102 709q0 27 18 45t46 18q26 0 44 -18t18 -45q0 -29 -18 -47t-44 -18q-28 0 -46 18t-18 47zM321 709q0 27 18.5 45t46.5 18q26 0 44 -18t18 -45q0 -29 -18 -47t-44 -18q-28 0 -46.5 18
t-18.5 47z" />
    <glyph glyph-name="aring" unicode="&#xe5;" horiz-adv-x="551" 
d="M354 306q-63 -23 -95 -40t-45 -25q-32 -20 -46.5 -40.5t-12.5 -52.5q1 -19 8.5 -37.5t20.5 -33t31.5 -23.5t41.5 -9q28 0 51 13t43 34zM354 64q-17 -16 -35 -31.5t-37 -26.5q-17 -11 -37 -15t-46 -4q-28 0 -56 9.5t-50.5 27t-37 41.5t-14.5 54q0 24 10.5 44t30.5 38
t50.5 35t69.5 36q20 10 59 28t95 42v23q0 79 -25.5 110.5t-75.5 31.5q-32 0 -52.5 -11t-31.5 -29.5t-14 -44t-1 -54.5h-102q0 31 17 63t47 57.5t71.5 41.5t89.5 16q35 0 67.5 -7.5t57.5 -27t39 -52.5t13 -83l-5 -259q-1 -42 7.5 -53.5t28.5 -11.5q12 0 22.5 6t21.5 14
l10 -10q-10 -12 -20.5 -25t-23 -23.5t-27.5 -17t-33 -6.5q-31 0 -55.5 18t-27.5 56zM177 701q0 40 27 67t66 27t66.5 -27t27.5 -67q0 -19 -7.5 -36t-20 -29.5t-30 -20t-36.5 -7.5q-20 0 -36.5 7.5t-29.5 20t-20 29.5t-7 36zM216 701q0 -25 15 -40t39 -15q23 0 38.5 15
t15.5 40t-15.5 41t-38.5 16q-24 0 -39 -16t-15 -41z" />
    <glyph glyph-name="ae" unicode="&#xe6;" horiz-adv-x="846" 
d="M588 -13q-72 0 -121 28t-78 77q-31 -43 -77.5 -74t-112.5 -31q-28 0 -56 9.5t-50.5 27t-37 41.5t-14.5 54q0 24 10.5 44t30.5 38t50.5 35t69.5 36q20 10 59 28t95 42v23q0 79 -25.5 110.5t-75.5 31.5q-32 0 -52.5 -11t-31.5 -29.5t-14 -44t-1 -54.5h-102q0 31 17 63
t47 57.5t71.5 41.5t89.5 16q51 0 86.5 -19.5t53.5 -64.5q34 39 79 62t97 23q40 0 76 -13.5t64 -40.5t45.5 -67.5t20.5 -95.5h-358v-5q0 -56 13 -101.5t38 -78.5t61 -51t82 -18q57 0 96.5 20.5t64.5 44.5l12 -10q-15 -26 -35.5 -51.5t-48 -46t-62 -33.5t-76.5 -13zM576 510
q-49 0 -85.5 -33.5t-45.5 -107.5h235q1 28 -5 54t-19 45t-33 30.5t-47 11.5zM354 306q-63 -23 -95 -40t-45 -25q-32 -20 -46.5 -40.5t-12.5 -52.5q2 -38 28.5 -63t73.5 -25q28 0 51 13t43 34z" />
    <glyph glyph-name="ccedilla" unicode="&#xe7;" horiz-adv-x="508" 
d="M316 547q31 0 58 -8.5t46.5 -22.5t30.5 -32.5t11 -37.5q0 -23 -15.5 -38.5t-41.5 -15.5q-14 0 -26.5 5.5t-20.5 22.5l-32 66q-6 12 -15 16t-23 4q-27 0 -54.5 -10.5t-49.5 -34.5t-36 -62t-14 -92q0 -47 12 -89t36 -73.5t60 -50t83 -18.5q37 0 75 15t68 41l11 -10
q-13 -22 -31.5 -45.5t-44 -43.5t-58.5 -33t-75 -13q-59 0 -102.5 21.5t-72 58.5t-43 86t-14.5 104q0 68 23 122t61.5 91.5t89 57t104.5 19.5zM244 3h37l-51 -86q11 5 22 7t20 2q35 0 56 -21t21 -50q0 -25 -10.5 -43t-26.5 -29t-35 -16.5t-37 -5.5q-35 0 -57.5 9.5
t-39.5 19.5l10 22q13 -6 30.5 -10t33.5 -4q28 0 45.5 12t17.5 35q0 17 -11 27t-26.5 13.5t-32.5 0.5t-30 -10l-9 5z" />
    <glyph glyph-name="egrave" unicode="&#xe8;" horiz-adv-x="536" 
d="M278 -13q-61 0 -106 21t-75 58t-44.5 87.5t-14.5 109.5t19.5 110.5t53 90t78.5 61t96 22.5q40 0 76 -13.5t64 -40.5t45.5 -67.5t20.5 -95.5h-358v-5q0 -56 13 -101.5t38 -78.5t61 -51t82 -18q57 0 96.5 20.5t64.5 44.5l12 -10q-15 -26 -35.5 -51.5t-48 -46t-62 -33.5
t-76.5 -13zM266 510q-49 0 -85.5 -33.5t-45.5 -107.5h235q1 28 -5 54t-19 45t-33 30.5t-47 11.5zM233 772l73 -169h-16l-186 169h129z" />
    <glyph glyph-name="eacute" unicode="&#xe9;" horiz-adv-x="536" 
d="M450 772l-186 -169h-16l73 169h129zM278 -13q-61 0 -106 21t-75 58t-44.5 87.5t-14.5 109.5t19.5 110.5t53 90t78.5 61t96 22.5q40 0 76 -13.5t64 -40.5t45.5 -67.5t20.5 -95.5h-358v-5q0 -56 13 -101.5t38 -78.5t61 -51t82 -18q57 0 96.5 20.5t64.5 44.5l12 -10
q-15 -26 -35.5 -51.5t-48 -46t-62 -33.5t-76.5 -13zM266 510q-49 0 -85.5 -33.5t-45.5 -107.5h235q1 28 -5 54t-19 45t-33 30.5t-47 11.5z" />
    <glyph glyph-name="ecircumflex" unicode="&#xea;" horiz-adv-x="536" 
d="M445 603h-20l-145 81l-145 -81h-19l158 169h13zM278 -13q-61 0 -106 21t-75 58t-44.5 87.5t-14.5 109.5t19.5 110.5t53 90t78.5 61t96 22.5q40 0 76 -13.5t64 -40.5t45.5 -67.5t20.5 -95.5h-358v-5q0 -56 13 -101.5t38 -78.5t61 -51t82 -18q57 0 96.5 20.5t64.5 44.5
l12 -10q-15 -26 -35.5 -51.5t-48 -46t-62 -33.5t-76.5 -13zM266 510q-49 0 -85.5 -33.5t-45.5 -107.5h235q1 28 -5 54t-19 45t-33 30.5t-47 11.5z" />
    <glyph glyph-name="edieresis" unicode="&#xeb;" horiz-adv-x="536" 
d="M112 709q0 27 18 45t46 18q26 0 44 -18t18 -45q0 -29 -18 -47t-44 -18q-28 0 -46 18t-18 47zM331 709q0 27 18.5 45t46.5 18q26 0 44 -18t18 -45q0 -29 -18 -47t-44 -18q-28 0 -46.5 18t-18.5 47zM278 -13q-61 0 -106 21t-75 58t-44.5 87.5t-14.5 109.5t19.5 110.5t53 90
t78.5 61t96 22.5q40 0 76 -13.5t64 -40.5t45.5 -67.5t20.5 -95.5h-358v-5q0 -56 13 -101.5t38 -78.5t61 -51t82 -18q57 0 96.5 20.5t64.5 44.5l12 -10q-15 -26 -35.5 -51.5t-48 -46t-62 -33.5t-76.5 -13zM266 510q-49 0 -85.5 -33.5t-45.5 -107.5h235q1 28 -5 54t-19 45
t-33 30.5t-47 11.5z" />
    <glyph glyph-name="igrave" unicode="&#xec;" horiz-adv-x="339" 
d="M226 144q0 -39 1.5 -62t9 -36t23.5 -19t46 -9v-18h-266v18q30 3 46 9t23.5 19t9 36t1.5 62v222q0 37 -1.5 57.5t-9 30t-23.5 11.5t-46 2v18l188 62q-1 -40 -1.5 -91t-0.5 -128v-184zM142 772l73 -169h-16l-186 169h129z" />
    <glyph glyph-name="iacute" unicode="&#xed;" horiz-adv-x="339" 
d="M315 772l-186 -169h-16l73 169h129zM226 144q0 -39 1.5 -62t9 -36t23.5 -19t46 -9v-18h-266v18q30 3 46 9t23.5 19t9 36t1.5 62v222q0 37 -1.5 57.5t-9 30t-23.5 11.5t-46 2v18l188 62q-1 -40 -1.5 -91t-0.5 -128v-184z" />
    <glyph glyph-name="icircumflex" unicode="&#xee;" horiz-adv-x="339" 
d="M332 603h-20l-145 81l-145 -81h-19l158 169h13zM226 144q0 -39 1.5 -62t9 -36t23.5 -19t46 -9v-18h-266v18q30 3 46 9t23.5 19t9 36t1.5 62v222q0 37 -1.5 57.5t-9 30t-23.5 11.5t-46 2v18l188 62q-1 -40 -1.5 -91t-0.5 -128v-184z" />
    <glyph glyph-name="idieresis" unicode="&#xef;" horiz-adv-x="339" 
d="M-5 709q0 27 18 45t46 18q26 0 44 -18t18 -45q0 -29 -18 -47t-44 -18q-28 0 -46 18t-18 47zM214 709q0 27 18.5 45t46.5 18q26 0 44 -18t18 -45q0 -29 -18 -47t-44 -18q-28 0 -46.5 18t-18.5 47zM226 144q0 -39 1.5 -62t9 -36t23.5 -19t46 -9v-18h-266v18q30 3 46 9
t23.5 19t9 36t1.5 62v222q0 37 -1.5 57.5t-9 30t-23.5 11.5t-46 2v18l188 62q-1 -40 -1.5 -91t-0.5 -128v-184z" />
    <glyph glyph-name="eth" unicode="&#xf0;" horiz-adv-x="592" 
d="M292 -13q-54 0 -100.5 19t-81 54t-54 84t-19.5 109q0 64 22 118t58 93t82 60.5t95 21.5q20 0 41.5 -5t41.5 -18q-23 46 -59 86t-90 73l-73 -80l-24 21l69 76q-46 24 -104 43l7 19q63 -11 123 -33l61 67l25 -21l-54 -59q60 -27 113 -67t92.5 -91t62 -111.5t22.5 -128.5
q0 -72 -18 -133t-51 -104.5t-80.5 -68t-106.5 -24.5zM430 255q0 52 -6 103t-21 101q-17 23 -46 37.5t-62 14.5q-37 0 -63.5 -16t-44 -45t-26 -68.5t-8.5 -86.5q0 -53 9.5 -102t28.5 -87t47 -60.5t66 -22.5q26 0 49 12t40 39t27 71.5t10 109.5z" />
    <glyph glyph-name="ntilde" unicode="&#xf1;" horiz-adv-x="607" 
d="M17 485l185 62l1 -92q14 17 30 33.5t35.5 29.5t42.5 21t51 8q33 0 60.5 -11t48 -34.5t32 -59.5t11.5 -85v-213q0 -39 1.5 -62t9 -36t23.5 -19t46 -9v-18h-264v18q29 3 44.5 9t23 19t9 36t1.5 62v192q0 70 -24 104t-76 34q-30 0 -59 -11.5t-46 -34.5v-284q0 -39 1.5 -62
t9 -36t23 -19t44.5 -9v-18h-264v18q30 3 46 9t23.5 19t9 36t1.5 62v225q0 36 -1.5 56t-9 29t-23.5 11t-46 2v18zM144 635q0 23 5.5 47t16.5 44t29 32.5t43 12.5q21 0 41 -10t39 -21.5t36.5 -21.5t34.5 -10q27 0 40 14t15 46h19q0 -41 -8 -66.5t-20 -39.5t-27 -19.5t-31 -5.5
q-25 0 -45.5 10t-39 21.5t-36 21.5t-37.5 10q-24 0 -39 -17t-17 -48h-19z" />
    <glyph glyph-name="ograve" unicode="&#xf2;" horiz-adv-x="624" 
d="M263 772l73 -169h-16l-186 169h129zM296 508q-72 0 -107.5 -55t-35.5 -150q0 -37 9 -85t29.5 -90.5t53.5 -72t80 -29.5q71 0 105.5 55.5t34.5 150.5q0 37 -9 84.5t-29 90t-52 72t-79 29.5zM306 547q54 0 103.5 -20.5t87.5 -57.5t60.5 -88.5t22.5 -112.5q0 -59 -21 -110
t-57 -89t-84.5 -60t-104.5 -22q-54 0 -103.5 20.5t-87.5 58t-60.5 89t-22.5 113.5q0 58 20.5 109t56.5 88.5t85 59.5t105 22z" />
    <glyph glyph-name="oacute" unicode="&#xf3;" horiz-adv-x="624" 
d="M476 772l-186 -169h-16l73 169h129zM296 508q-72 0 -107.5 -55t-35.5 -150q0 -37 9 -85t29.5 -90.5t53.5 -72t80 -29.5q71 0 105.5 55.5t34.5 150.5q0 37 -9 84.5t-29 90t-52 72t-79 29.5zM306 547q54 0 103.5 -20.5t87.5 -57.5t60.5 -88.5t22.5 -112.5q0 -59 -21 -110
t-57 -89t-84.5 -60t-104.5 -22q-54 0 -103.5 20.5t-87.5 58t-60.5 89t-22.5 113.5q0 58 20.5 109t56.5 88.5t85 59.5t105 22z" />
    <glyph glyph-name="ocircumflex" unicode="&#xf4;" horiz-adv-x="624" 
d="M474 603h-20l-145 81l-145 -81h-19l158 169h13zM296 508q-72 0 -107.5 -55t-35.5 -150q0 -37 9 -85t29.5 -90.5t53.5 -72t80 -29.5q71 0 105.5 55.5t34.5 150.5q0 37 -9 84.5t-29 90t-52 72t-79 29.5zM306 547q54 0 103.5 -20.5t87.5 -57.5t60.5 -88.5t22.5 -112.5
q0 -59 -21 -110t-57 -89t-84.5 -60t-104.5 -22q-54 0 -103.5 20.5t-87.5 58t-60.5 89t-22.5 113.5q0 58 20.5 109t56.5 88.5t85 59.5t105 22z" />
    <glyph glyph-name="otilde" unicode="&#xf5;" horiz-adv-x="624" 
d="M296 508q-72 0 -107.5 -55t-35.5 -150q0 -37 9 -85t29.5 -90.5t53.5 -72t80 -29.5q71 0 105.5 55.5t34.5 150.5q0 37 -9 84.5t-29 90t-52 72t-79 29.5zM306 547q54 0 103.5 -20.5t87.5 -57.5t60.5 -88.5t22.5 -112.5q0 -59 -21 -110t-57 -89t-84.5 -60t-104.5 -22
q-54 0 -103.5 20.5t-87.5 58t-60.5 89t-22.5 113.5q0 58 20.5 109t56.5 88.5t85 59.5t105 22zM150 635q0 23 5.5 47t16.5 44t29 32.5t43 12.5q21 0 41 -10t39 -21.5t36.5 -21.5t34.5 -10q27 0 40 14t15 46h19q0 -41 -8 -66.5t-20 -39.5t-27 -19.5t-31 -5.5q-25 0 -45.5 10
t-39 21.5t-36 21.5t-37.5 10q-24 0 -39 -17t-17 -48h-19z" />
    <glyph glyph-name="odieresis" unicode="&#xf6;" horiz-adv-x="624" 
d="M138 709q0 27 18 45t46 18q26 0 44 -18t18 -45q0 -29 -18 -47t-44 -18q-28 0 -46 18t-18 47zM357 709q0 27 18.5 45t46.5 18q26 0 44 -18t18 -45q0 -29 -18 -47t-44 -18q-28 0 -46.5 18t-18.5 47zM296 508q-72 0 -107.5 -55t-35.5 -150q0 -37 9 -85t29.5 -90.5t53.5 -72
t80 -29.5q71 0 105.5 55.5t34.5 150.5q0 37 -9 84.5t-29 90t-52 72t-79 29.5zM306 547q54 0 103.5 -20.5t87.5 -57.5t60.5 -88.5t22.5 -112.5q0 -59 -21 -110t-57 -89t-84.5 -60t-104.5 -22q-54 0 -103.5 20.5t-87.5 58t-60.5 89t-22.5 113.5q0 58 20.5 109t56.5 88.5
t85 59.5t105 22z" />
    <glyph glyph-name="divide" unicode="&#xf7;" 
d="M293 161h97v-102h-97v102zM293 488h97v-103h-97v103zM81 238v68h517v-68h-517z" />
    <glyph glyph-name="oslash" unicode="&#xf8;" horiz-adv-x="624" 
d="M306 547q42 0 80.5 -12t72.5 -35l48 65l34 -24l-50 -67q41 -38 65 -90t24 -116q0 -59 -21 -110t-57 -89t-84.5 -60t-104.5 -22q-40 0 -77.5 11.5t-69.5 32.5l-61 -83l-34 24l61 84q-42 38 -67.5 92t-25.5 120q0 58 20.5 109t56.5 88.5t85 59.5t105 22zM296 508
q-72 0 -107.5 -55t-35.5 -150q0 -36 8.5 -82t27.5 -88l223 302q-20 32 -49 52.5t-67 20.5zM465 232q0 34 -7.5 77.5t-24.5 84.5l-222 -301q20 -30 48 -48.5t66 -18.5q71 0 105.5 55.5t34.5 150.5z" />
    <glyph glyph-name="ugrave" unicode="&#xf9;" horiz-adv-x="587" 
d="M493 164q0 -35 1.5 -54.5t9 -29.5t23 -12.5t44.5 -3.5v-17l-168 -55l-13 97q-11 -19 -26 -37t-34.5 -32.5t-43 -23.5t-50.5 -9q-32 0 -60.5 11t-50 35t-34 62t-12.5 92q0 22 0.5 50.5t0.5 58.5t0.5 58.5t0.5 50.5q0 30 -1 49t-8.5 30t-23 15.5t-44.5 6.5v18l184 18
q-1 -39 -1.5 -84.5t-0.5 -114.5v-136q0 -75 22.5 -111.5t72.5 -36.5q67 0 106 62v284q0 30 -1 49t-8.5 30t-23 15.5t-44.5 6.5v18l186 18q-1 -39 -2 -85t-1 -115v-178v0zM256 772l73 -169h-16l-186 169h129z" />
    <glyph glyph-name="uacute" unicode="&#xfa;" horiz-adv-x="587" 
d="M465 772l-186 -169h-16l73 169h129zM493 164q0 -35 1.5 -54.5t9 -29.5t23 -12.5t44.5 -3.5v-17l-168 -55l-13 97q-11 -19 -26 -37t-34.5 -32.5t-43 -23.5t-50.5 -9q-32 0 -60.5 11t-50 35t-34 62t-12.5 92q0 22 0.5 50.5t0.5 58.5t0.5 58.5t0.5 50.5q0 30 -1 49t-8.5 30
t-23 15.5t-44.5 6.5v18l184 18q-1 -39 -1.5 -84.5t-0.5 -114.5v-136q0 -75 22.5 -111.5t72.5 -36.5q67 0 106 62v284q0 30 -1 49t-8.5 30t-23 15.5t-44.5 6.5v18l186 18q-1 -39 -2 -85t-1 -115v-178v0z" />
    <glyph glyph-name="ucircumflex" unicode="&#xfb;" horiz-adv-x="587" 
d="M451 603h-20l-145 81l-145 -81h-19l158 169h13zM493 164q0 -35 1.5 -54.5t9 -29.5t23 -12.5t44.5 -3.5v-17l-168 -55l-13 97q-11 -19 -26 -37t-34.5 -32.5t-43 -23.5t-50.5 -9q-32 0 -60.5 11t-50 35t-34 62t-12.5 92q0 22 0.5 50.5t0.5 58.5t0.5 58.5t0.5 50.5
q0 30 -1 49t-8.5 30t-23 15.5t-44.5 6.5v18l184 18q-1 -39 -1.5 -84.5t-0.5 -114.5v-136q0 -75 22.5 -111.5t72.5 -36.5q67 0 106 62v284q0 30 -1 49t-8.5 30t-23 15.5t-44.5 6.5v18l186 18q-1 -39 -2 -85t-1 -115v-178v0z" />
    <glyph glyph-name="udieresis" unicode="&#xfc;" horiz-adv-x="587" 
d="M109 709q0 27 18 45t46 18q26 0 44 -18t18 -45q0 -29 -18 -47t-44 -18q-28 0 -46 18t-18 47zM328 709q0 27 18.5 45t46.5 18q26 0 44 -18t18 -45q0 -29 -18 -47t-44 -18q-28 0 -46.5 18t-18.5 47zM493 164q0 -35 1.5 -54.5t9 -29.5t23 -12.5t44.5 -3.5v-17l-168 -55
l-13 97q-11 -19 -26 -37t-34.5 -32.5t-43 -23.5t-50.5 -9q-32 0 -60.5 11t-50 35t-34 62t-12.5 92q0 22 0.5 50.5t0.5 58.5t0.5 58.5t0.5 50.5q0 30 -1 49t-8.5 30t-23 15.5t-44.5 6.5v18l184 18q-1 -39 -1.5 -84.5t-0.5 -114.5v-136q0 -75 22.5 -111.5t72.5 -36.5
q67 0 106 62v284q0 30 -1 49t-8.5 30t-23 15.5t-44.5 6.5v18l186 18q-1 -39 -2 -85t-1 -115v-178v0z" />
    <glyph glyph-name="yacute" unicode="&#xfd;" horiz-adv-x="591" 
d="M151 -221q-39 0 -62.5 17.5t-23.5 47.5q0 26 15 41.5t32 15.5q5 0 12.5 -2.5t17.5 -13.5l50 -49q12 20 24.5 45.5t30.5 68.5l19 46l-194 457q-14 34 -26.5 49.5t-41.5 17.5v18h246v-18q-29 -2 -44 -7.5t-19.5 -15.5t-1.5 -24t10 -32l130 -313l108 261q13 33 19.5 55.5
t2.5 38t-18 24t-41 13.5v18h191v-18q-20 -3 -32 -9t-21 -16.5t-16.5 -28t-18.5 -43.5l-209 -495q-15 -36 -28.5 -64t-29 -47t-35 -28.5t-46.5 -9.5zM504 772l-186 -169h-16l73 169h129z" />
    <glyph glyph-name="thorn" unicode="&#xfe;" horiz-adv-x="641" 
d="M345 22q36 0 63 17.5t44 47.5t25.5 70.5t8.5 87.5q0 51 -11.5 93.5t-33 72.5t-51 46.5t-65.5 16.5q-29 0 -55 -9.5t-43 -32.5v-344q16 -33 48 -49.5t70 -16.5zM327 -216h-286v18q30 3 46 9t23.5 19t9 36t1.5 62v717q0 36 -1.5 56t-9 29t-24 11t-45.5 2v18l188 62
q-1 -40 -1.5 -91t-0.5 -128v-61l-3 -86q12 15 28 31t36.5 29t44.5 21.5t51 8.5q49 0 89 -21t67.5 -57t42.5 -83.5t15 -100.5q0 -64 -21.5 -118.5t-56.5 -94.5t-80.5 -62.5t-94.5 -22.5q-27 0 -59 8.5t-59 34.5v-102q0 -41 1.5 -64.5t11 -36t30 -17.5t57.5 -8v-18z" />
    <glyph glyph-name="ydieresis" unicode="&#xff;" horiz-adv-x="591" 
d="M151 -221q-39 0 -62.5 17.5t-23.5 47.5q0 26 15 41.5t32 15.5q5 0 12.5 -2.5t17.5 -13.5l50 -49q12 20 24.5 45.5t30.5 68.5l19 46l-194 457q-14 34 -26.5 49.5t-41.5 17.5v18h246v-18q-29 -2 -44 -7.5t-19.5 -15.5t-1.5 -24t10 -32l130 -313l108 261q13 33 19.5 55.5
t2.5 38t-18 24t-41 13.5v18h191v-18q-20 -3 -32 -9t-21 -16.5t-16.5 -28t-18.5 -43.5l-209 -495q-15 -36 -28.5 -64t-29 -47t-35 -28.5t-46.5 -9.5zM144 709q0 27 18 45t46 18q26 0 44 -18t18 -45q0 -29 -18 -47t-44 -18q-28 0 -46 18t-18 47zM363 709q0 27 18.5 45t46.5 18
q26 0 44 -18t18 -45q0 -29 -18 -47t-44 -18q-28 0 -46.5 18t-18.5 47z" />
    <glyph glyph-name="Abreve" unicode="&#x102;" horiz-adv-x="781" 
d="M5 18q25 2 41 8.5t29.5 24t28 50t35.5 87.5l215 542q16 2 30.5 11t25.5 23h4l257 -646q11 -29 20 -47.5t19.5 -29.5t26 -16.5t39.5 -6.5v-18h-293v18q54 6 68.5 23t-0.5 55l-55 140h-291l-5 -14q-27 -69 -38 -108.5t-6.5 -59.5t23.5 -26.5t51 -9.5v-18h-225v18zM225 285
h251l-125 320zM391 830q43 0 64 25.5t24 70.5h48q0 -24 -8 -48t-24.5 -43.5t-42 -31.5t-61.5 -12q-35 0 -60.5 12t-41.5 31.5t-24 43.5t-8 48h48q2 -45 23 -70.5t63 -25.5z" />
    <glyph glyph-name="Amacron" unicode="&#x100;" horiz-adv-x="781" 
d="M5 18q25 2 41 8.5t29.5 24t28 50t35.5 87.5l215 542q16 2 30.5 11t25.5 23h4l257 -646q11 -29 20 -47.5t19.5 -29.5t26 -16.5t39.5 -6.5v-18h-293v18q54 6 68.5 23t-0.5 55l-55 140h-291l-5 -14q-27 -69 -38 -108.5t-6.5 -59.5t23.5 -26.5t51 -9.5v-18h-225v18zM225 285
h251l-125 320zM245 818v68h296v-68h-296z" />
    <glyph glyph-name="Aogonek" unicode="&#x104;" horiz-adv-x="781" 
d="M5 18q25 2 41 8.5t29.5 24t28 50t35.5 87.5l215 542q16 2 30.5 11t25.5 23h4l257 -646q11 -29 20 -47.5t19.5 -29.5t26 -16.5t39.5 -6.5v-18h-293v18q54 6 68.5 23t-0.5 55l-55 140h-291l-5 -14q-27 -69 -38 -108.5t-6.5 -59.5t23.5 -26.5t51 -9.5v-18h-225v18zM225 285
h251l-125 320zM695 -171q-23 -23 -52 -36t-57 -13q-17 0 -33.5 4.5t-29.5 14.5t-21 25.5t-8 37.5q0 21 12 41t30.5 38t41.5 33.5t45 27.5h23q-32 -22 -53.5 -52.5t-21.5 -61.5q0 -30 17.5 -47t42.5 -17q16 0 29.5 3.5t28.5 11.5z" />
    <glyph glyph-name="Cacute" unicode="&#x106;" horiz-adv-x="739" 
d="M179 366q0 -78 17.5 -139.5t50 -104t79 -65.5t104.5 -23q52 0 93.5 15.5t72 40t51.5 55t32 60.5l27 -9q-10 -39 -34 -76.5t-61.5 -67t-87.5 -47.5t-111 -18q-85 0 -152 29.5t-113.5 81t-71.5 121t-25 148.5q0 88 31 158t84.5 119t124 75t148.5 26q57 0 111 -10t103 -30
l23 -220h-19q-28 121 -85.5 172.5t-150.5 51.5q-45 0 -88.5 -19.5t-77.5 -61.5t-54.5 -107t-20.5 -155zM419 793h-21l83 129h157z" />
    <glyph glyph-name="Ccaron" unicode="&#x10c;" horiz-adv-x="739" 
d="M179 366q0 -78 17.5 -139.5t50 -104t79 -65.5t104.5 -23q52 0 93.5 15.5t72 40t51.5 55t32 60.5l27 -9q-10 -39 -34 -76.5t-61.5 -67t-87.5 -47.5t-111 -18q-85 0 -152 29.5t-113.5 81t-71.5 121t-25 148.5q0 88 31 158t84.5 119t124 75t148.5 26q57 0 111 -10t103 -30
l23 -220h-19q-28 121 -85.5 172.5t-150.5 51.5q-45 0 -88.5 -19.5t-77.5 -61.5t-54.5 -107t-20.5 -155zM283 932h23l130 -59l130 59h23l-145 -139h-16z" />
    <glyph glyph-name="Ccircumflex" unicode="&#x108;" horiz-adv-x="739" 
d="M179 366q0 -78 17.5 -139.5t50 -104t79 -65.5t104.5 -23q52 0 93.5 15.5t72 40t51.5 55t32 60.5l27 -9q-10 -39 -34 -76.5t-61.5 -67t-87.5 -47.5t-111 -18q-85 0 -152 29.5t-113.5 81t-71.5 121t-25 148.5q0 88 31 158t84.5 119t124 75t148.5 26q57 0 111 -10t103 -30
l23 -220h-19q-28 121 -85.5 172.5t-150.5 51.5q-45 0 -88.5 -19.5t-77.5 -61.5t-54.5 -107t-20.5 -155zM435 932l145 -139h-23l-130 59l-130 -59h-23l145 139h16z" />
    <glyph glyph-name="Cdotaccent" unicode="&#x10a;" horiz-adv-x="739" 
d="M357 860q0 27 17.5 45.5t45.5 18.5q26 0 44 -18.5t18 -45.5q0 -28 -18 -46t-44 -18q-28 0 -45.5 18t-17.5 46zM179 366q0 -78 17.5 -139.5t50 -104t79 -65.5t104.5 -23q52 0 93.5 15.5t72 40t51.5 55t32 60.5l27 -9q-10 -39 -34 -76.5t-61.5 -67t-87.5 -47.5t-111 -18
q-85 0 -152 29.5t-113.5 81t-71.5 121t-25 148.5q0 88 31 158t84.5 119t124 75t148.5 26q57 0 111 -10t103 -30l23 -220h-19q-28 121 -85.5 172.5t-150.5 51.5q-45 0 -88.5 -19.5t-77.5 -61.5t-54.5 -107t-20.5 -155z" />
    <glyph glyph-name="Dcaron" unicode="&#x10e;" horiz-adv-x="800" 
d="M352 36q61 0 110.5 21t85 62.5t54.5 103t19 142.5t-19.5 141.5t-55.5 101t-86 61t-111 20.5h-95v-653h98zM354 725q76 0 147 -20t126.5 -63.5t89 -111.5t33.5 -165q0 -96 -32.5 -165.5t-87.5 -113.5t-127 -65t-150 -21h-315v18q34 4 53.5 9t29.5 17.5t13 36t3 65.5v433
q0 42 -3 65.5t-13 36t-29.5 17t-53.5 9.5v18h316zM228 932h23l130 -59l130 59h23l-145 -139h-16z" />
    <glyph glyph-name="Dcroat" unicode="&#x110;" horiz-adv-x="812" 
d="M367 725q76 0 147 -20t126.5 -63.5t89 -111.5t33.5 -165q0 -96 -32.5 -165.5t-87.5 -113.5t-127 -65t-150 -21h-315v18q34 4 53.5 9t29.5 17.5t13 36t3 65.5v206h-104v44h104v183q0 42 -3 65.5t-13 36t-29.5 17t-53.5 9.5v18h316zM365 36q61 0 110.5 21t85 62.5t54.5 103
t19 142.5t-19.5 141.5t-55.5 101t-86 61t-111 20.5h-95v-293h148v-44h-148v-316h98z" />
    <glyph glyph-name="Ebreve" unicode="&#x114;" horiz-adv-x="715" 
d="M631 -1q-57 1 -116.5 1h-107.5h-369v18q34 4 53.5 9t29.5 17.5t13 36t3 65.5v433q0 42 -3 65.5t-13 36t-29.5 17t-53.5 9.5v18h355q48 0 108 0.5t117 2.5l27 -224h-18q-21 66 -47 103t-62.5 55.5t-87 22.5t-120.5 4h-56v-293h135q43 0 69 24.5t34 87.5h18v-268h-18
q-8 63 -34 87.5t-69 24.5h-135v-272q0 -28 7.5 -37t38.5 -9h21q71 0 123 6t90.5 26t66.5 57.5t50 99.5h19l-39 -224v0zM376 826q43 0 64 25.5t24 70.5h48q0 -24 -8 -48t-24.5 -43.5t-42 -31.5t-61.5 -12q-35 0 -60.5 12t-41.5 31.5t-24 43.5t-8 48h48q2 -45 23 -70.5
t63 -25.5z" />
    <glyph glyph-name="Ecaron" unicode="&#x11a;" horiz-adv-x="715" 
d="M631 -1q-57 1 -116.5 1h-107.5h-369v18q34 4 53.5 9t29.5 17.5t13 36t3 65.5v433q0 42 -3 65.5t-13 36t-29.5 17t-53.5 9.5v18h355q48 0 108 0.5t117 2.5l27 -224h-18q-21 66 -47 103t-62.5 55.5t-87 22.5t-120.5 4h-56v-293h135q43 0 69 24.5t34 87.5h18v-268h-18
q-8 63 -34 87.5t-69 24.5h-135v-272q0 -28 7.5 -37t38.5 -9h21q71 0 123 6t90.5 26t66.5 57.5t50 99.5h19l-39 -224v0zM226 932h23l130 -59l130 59h23l-145 -139h-16z" />
    <glyph glyph-name="Emacron" unicode="&#x112;" horiz-adv-x="715" 
d="M631 -1q-57 1 -116.5 1h-107.5h-369v18q34 4 53.5 9t29.5 17.5t13 36t3 65.5v433q0 42 -3 65.5t-13 36t-29.5 17t-53.5 9.5v18h355q48 0 108 0.5t117 2.5l27 -224h-18q-21 66 -47 103t-62.5 55.5t-87 22.5t-120.5 4h-56v-293h135q43 0 69 24.5t34 87.5h18v-268h-18
q-8 63 -34 87.5t-69 24.5h-135v-272q0 -28 7.5 -37t38.5 -9h21q71 0 123 6t90.5 26t66.5 57.5t50 99.5h19l-39 -224v0zM234 818v68h296v-68h-296z" />
    <glyph glyph-name="Eogonek" unicode="&#x118;" horiz-adv-x="715" 
d="M637 -171q-23 -23 -52 -36t-57 -13q-17 0 -33.5 4.5t-29.5 14.5t-21 25.5t-8 37.5q0 21 12 41t30.5 38t41.5 33.5t45 27.5h23q-32 -22 -53.5 -52.5t-21.5 -61.5q0 -30 17.5 -47t42.5 -17q16 0 29.5 3.5t28.5 11.5zM631 -1q-57 1 -116.5 1h-107.5h-369v18q34 4 53.5 9
t29.5 17.5t13 36t3 65.5v433q0 42 -3 65.5t-13 36t-29.5 17t-53.5 9.5v18h355q48 0 108 0.5t117 2.5l27 -224h-18q-21 66 -47 103t-62.5 55.5t-87 22.5t-120.5 4h-56v-293h135q43 0 69 24.5t34 87.5h18v-268h-18q-8 63 -34 87.5t-69 24.5h-135v-272q0 -28 7.5 -37t38.5 -9
h21q71 0 123 6t90.5 26t66.5 57.5t50 99.5h19l-39 -224v0z" />
    <glyph glyph-name="Edotaccent" unicode="&#x116;" horiz-adv-x="715" 
d="M314 860q0 27 17.5 45.5t45.5 18.5q26 0 44 -18.5t18 -45.5q0 -28 -18 -46t-44 -18q-28 0 -45.5 18t-17.5 46zM631 -1q-57 1 -116.5 1h-107.5h-369v18q34 4 53.5 9t29.5 17.5t13 36t3 65.5v433q0 42 -3 65.5t-13 36t-29.5 17t-53.5 9.5v18h355q48 0 108 0.5t117 2.5
l27 -224h-18q-21 66 -47 103t-62.5 55.5t-87 22.5t-120.5 4h-56v-293h135q43 0 69 24.5t34 87.5h18v-268h-18q-8 63 -34 87.5t-69 24.5h-135v-272q0 -28 7.5 -37t38.5 -9h21q71 0 123 6t90.5 26t66.5 57.5t50 99.5h19l-39 -224v0z" />
    <glyph glyph-name="Gbreve" unicode="&#x11e;" horiz-adv-x="817" 
d="M439 826q43 0 64 25.5t24 70.5h48q0 -24 -8 -48t-24.5 -43.5t-42 -31.5t-61.5 -12q-35 0 -60.5 12t-41.5 31.5t-24 43.5t-8 48h48q2 -45 23 -70.5t63 -25.5zM791 340v-21q-23 -3 -35.5 -9t-19 -19.5t-8 -37t-1.5 -60.5v-125q-31 -22 -70 -37.5t-79.5 -25t-80.5 -14
t-72 -4.5q-93 0 -163 30.5t-117.5 82t-71.5 120t-24 143.5q0 88 31 158.5t84.5 120t126 76.5t156.5 27q72 0 131.5 -11t100.5 -27l19 -222h-18q-31 121 -92.5 172.5t-153.5 51.5q-47 0 -92.5 -18t-82 -59t-59 -107.5t-22.5 -163.5q0 -76 18.5 -138t52.5 -106t81.5 -68
t106.5 -24q24 0 54 2.5t56.5 12t44 29t17.5 53.5v71q0 37 -1.5 61t-10.5 37.5t-27 19.5t-51 8v21h272z" />
    <glyph glyph-name="Gcircumflex" unicode="&#x11c;" horiz-adv-x="817" 
d="M446 932l145 -139h-23l-130 59l-130 -59h-23l145 139h16zM791 340v-21q-23 -3 -35.5 -9t-19 -19.5t-8 -37t-1.5 -60.5v-125q-31 -22 -70 -37.5t-79.5 -25t-80.5 -14t-72 -4.5q-93 0 -163 30.5t-117.5 82t-71.5 120t-24 143.5q0 88 31 158.5t84.5 120t126 76.5t156.5 27
q72 0 131.5 -11t100.5 -27l19 -222h-18q-31 121 -92.5 172.5t-153.5 51.5q-47 0 -92.5 -18t-82 -59t-59 -107.5t-22.5 -163.5q0 -76 18.5 -138t52.5 -106t81.5 -68t106.5 -24q24 0 54 2.5t56.5 12t44 29t17.5 53.5v71q0 37 -1.5 61t-10.5 37.5t-27 19.5t-51 8v21h272z" />
    <glyph glyph-name="Gcommaaccent" unicode="&#x122;" horiz-adv-x="817" 
d="M375 -116q0 26 18.5 43.5t44.5 17.5q28 0 43.5 -19t15.5 -49q0 -28 -10.5 -55.5t-28.5 -52.5t-42 -46t-52 -34l-5 10q28 21 52.5 53.5t24.5 73.5q-23 2 -42 17.5t-19 40.5zM791 340v-21q-23 -3 -35.5 -9t-19 -19.5t-8 -37t-1.5 -60.5v-125q-31 -22 -70 -37.5t-79.5 -25
t-80.5 -14t-72 -4.5q-93 0 -163 30.5t-117.5 82t-71.5 120t-24 143.5q0 88 31 158.5t84.5 120t126 76.5t156.5 27q72 0 131.5 -11t100.5 -27l19 -222h-18q-31 121 -92.5 172.5t-153.5 51.5q-47 0 -92.5 -18t-82 -59t-59 -107.5t-22.5 -163.5q0 -76 18.5 -138t52.5 -106
t81.5 -68t106.5 -24q24 0 54 2.5t56.5 12t44 29t17.5 53.5v71q0 37 -1.5 61t-10.5 37.5t-27 19.5t-51 8v21h272z" />
    <glyph glyph-name="Gdotaccent" unicode="&#x120;" horiz-adv-x="817" 
d="M380 860q0 27 17.5 45.5t45.5 18.5q26 0 44 -18.5t18 -45.5q0 -28 -18 -46t-44 -18q-28 0 -45.5 18t-17.5 46zM791 340v-21q-23 -3 -35.5 -9t-19 -19.5t-8 -37t-1.5 -60.5v-125q-31 -22 -70 -37.5t-79.5 -25t-80.5 -14t-72 -4.5q-93 0 -163 30.5t-117.5 82t-71.5 120
t-24 143.5q0 88 31 158.5t84.5 120t126 76.5t156.5 27q72 0 131.5 -11t100.5 -27l19 -222h-18q-31 121 -92.5 172.5t-153.5 51.5q-47 0 -92.5 -18t-82 -59t-59 -107.5t-22.5 -163.5q0 -76 18.5 -138t52.5 -106t81.5 -68t106.5 -24q24 0 54 2.5t56.5 12t44 29t17.5 53.5v71
q0 37 -1.5 61t-10.5 37.5t-27 19.5t-51 8v21h272z" />
    <glyph glyph-name="Hbar" unicode="&#x126;" horiz-adv-x="842" 
d="M705 568h98v-45h-98v-377q0 -42 3 -65.5t13 -36t30 -17.5t53 -9v-18h-315v18q33 4 53 9t30 17.5t13 36t3 65.5v206h-334v-206q0 -42 3 -65.5t13 -36t29.5 -17.5t53.5 -9v-18h-315v18q34 4 53.5 9t29.5 17.5t13 36t3 65.5v377h-99v45h99v11q0 42 -3 65.5t-13 36t-29.5 17
t-53.5 9.5v18h315v-18q-34 -5 -53.5 -9.5t-29.5 -17t-13 -36t-3 -65.5v-11h334v11q0 42 -3 65.5t-13 36t-30 17t-53 9.5v18h315v-18q-33 -5 -53 -9.5t-30 -17t-13 -36t-3 -65.5v-11zM588 396v127h-334v-127h334z" />
    <glyph glyph-name="Hcircumflex" unicode="&#x124;" horiz-adv-x="842" 
d="M705 146q0 -42 3 -65.5t13 -36t30 -17.5t53 -9v-18h-315v18q33 4 53 9t30 17.5t13 36t3 65.5v206h-334v-206q0 -42 3 -65.5t13 -36t29.5 -17.5t53.5 -9v-18h-315v18q34 4 53.5 9t29.5 17.5t13 36t3 65.5v433q0 42 -3 65.5t-13 36t-29.5 17t-53.5 9.5v18h315v-18
q-34 -5 -53.5 -9.5t-29.5 -17t-13 -36t-3 -65.5v-183h334v183q0 42 -3 65.5t-13 36t-30 17t-53 9.5v18h315v-18q-33 -5 -53 -9.5t-30 -17t-13 -36t-3 -65.5v-433zM427 932l145 -139h-23l-130 59l-130 -59h-23l145 139h16z" />
    <glyph glyph-name="Ibreve" unicode="&#x12c;" horiz-adv-x="391" 
d="M254 146q0 -42 3 -65.5t13 -36t29.5 -17.5t53.5 -9v-18h-315v18q34 4 53.5 9t29.5 17.5t13 36t3 65.5v433q0 42 -3 65.5t-13 36t-29.5 17t-53.5 9.5v18h315v-18q-34 -5 -53.5 -9.5t-29.5 -17t-13 -36t-3 -65.5v-433zM194 826q43 0 64 25.5t24 70.5h48q0 -24 -8 -48
t-24.5 -43.5t-42 -31.5t-61.5 -12q-35 0 -60.5 12t-41.5 31.5t-24 43.5t-8 48h48q2 -45 23 -70.5t63 -25.5z" />
    <glyph glyph-name="Idotaccent" unicode="&#x130;" horiz-adv-x="391" 
d="M254 146q0 -42 3 -65.5t13 -36t29.5 -17.5t53.5 -9v-18h-315v18q34 4 53.5 9t29.5 17.5t13 36t3 65.5v433q0 42 -3 65.5t-13 36t-29.5 17t-53.5 9.5v18h315v-18q-34 -5 -53.5 -9.5t-29.5 -17t-13 -36t-3 -65.5v-433zM132 860q0 27 17.5 45.5t45.5 18.5q26 0 44 -18.5
t18 -45.5q0 -28 -18 -46t-44 -18q-28 0 -45.5 18t-17.5 46z" />
    <glyph glyph-name="Imacron" unicode="&#x12a;" horiz-adv-x="391" 
d="M254 146q0 -42 3 -65.5t13 -36t29.5 -17.5t53.5 -9v-18h-315v18q34 4 53.5 9t29.5 17.5t13 36t3 65.5v433q0 42 -3 65.5t-13 36t-29.5 17t-53.5 9.5v18h315v-18q-34 -5 -53.5 -9.5t-29.5 -17t-13 -36t-3 -65.5v-433zM46 818v68h296v-68h-296z" />
    <glyph glyph-name="Iogonek" unicode="&#x12e;" horiz-adv-x="391" 
d="M254 146q0 -42 3 -65.5t13 -36t29.5 -17.5t53.5 -9v-18h-315v18q34 4 53.5 9t29.5 17.5t13 36t3 65.5v433q0 42 -3 65.5t-13 36t-29.5 17t-53.5 9.5v18h315v-18q-34 -5 -53.5 -9.5t-29.5 -17t-13 -36t-3 -65.5v-433zM285 -171q-23 -23 -52 -36t-57 -13q-17 0 -33.5 4.5
t-29.5 14.5t-21 25.5t-8 37.5q0 21 12 41t30.5 38t41.5 33.5t45 27.5h23q-32 -22 -53.5 -52.5t-21.5 -61.5q0 -30 17.5 -47t42.5 -17q16 0 29.5 3.5t28.5 11.5z" />
    <glyph glyph-name="Itilde" unicode="&#x128;" horiz-adv-x="391" 
d="M254 146q0 -42 3 -65.5t13 -36t29.5 -17.5t53.5 -9v-18h-315v18q34 4 53.5 9t29.5 17.5t13 36t3 65.5v433q0 42 -3 65.5t-13 36t-29.5 17t-53.5 9.5v18h315v-18q-34 -5 -53.5 -9.5t-29.5 -17t-13 -36t-3 -65.5v-433zM283 864q25 0 40.5 11.5t20.5 38.5h16q0 -24 -5.5 -47
t-17 -41t-29 -28.5t-41.5 -10.5q-25 0 -45 9.5t-38.5 21t-37.5 21t-42 9.5q-26 0 -41.5 -11.5t-20.5 -38.5h-16q0 24 5.5 47t17 41t29 28.5t41.5 10.5t44.5 -9.5t39.5 -21t38.5 -21t41.5 -9.5z" />
    <glyph glyph-name="uni1ECA" unicode="&#x1eca;" horiz-adv-x="391" 
d="M254 146q0 -42 3 -65.5t13 -36t29.5 -17.5t53.5 -9v-18h-315v18q34 4 53.5 9t29.5 17.5t13 36t3 65.5v433q0 42 -3 65.5t-13 36t-29.5 17t-53.5 9.5v18h315v-18q-34 -5 -53.5 -9.5t-29.5 -17t-13 -36t-3 -65.5v-433zM131 -158q0 27 18 45t46 18q26 0 44 -18t18 -45
q0 -29 -18 -46.5t-44 -17.5q-28 0 -46 17.5t-18 46.5z" />
    <glyph glyph-name="Jcircumflex" unicode="&#x134;" horiz-adv-x="433" 
d="M201 579q0 42 -3 65.5t-13 36t-29.5 17t-53.5 9.5v18h315v-18q-34 -5 -53.5 -9.5t-29.5 -17t-13 -36t-3 -65.5v-345q0 -75 -16.5 -123t-43 -75.5t-60.5 -38t-69 -10.5q-28 0 -63 4t-55 10v139h11q10 -17 23.5 -37.5t29 -38t32.5 -29.5t33 -12q12 0 23 5t19.5 25
t13.5 60.5t5 112.5v353v0zM263 932l145 -139h-23l-130 59l-130 -59h-23l145 139h16z" />
    <glyph glyph-name="Kcommaaccent" unicode="&#x136;" horiz-adv-x="778" 
d="M313 -116q0 26 18.5 43.5t44.5 17.5q28 0 43.5 -19t15.5 -49q0 -28 -10.5 -55.5t-28.5 -52.5t-42 -46t-52 -34l-5 10q28 21 52.5 53.5t24.5 73.5q-23 2 -42 17.5t-19 40.5zM254 146q0 -42 3 -65.5t13 -36t29.5 -17.5t53.5 -9v-18h-315v18q34 4 53.5 9t29.5 17.5t13 36
t3 65.5v433q0 42 -3 65.5t-13 36t-29.5 17t-53.5 9.5v18h315v-18q-34 -5 -53.5 -9.5t-29.5 -17t-13 -36t-3 -65.5v-433zM479 574q39 36 62 60.5t28 40t-9 23t-48 9.5v18h237v-18q-24 -3 -43 -9t-41.5 -20.5t-52.5 -39.5t-76 -66l-174 -153l265 -300q23 -26 40 -44t32.5 -30
t32 -18.5t37.5 -8.5v-18h-297v18q29 1 41.5 8t13 17.5t-7.5 23.5t-21 28l-243 276z" />
    <glyph glyph-name="Lacute" unicode="&#x139;" horiz-adv-x="629" 
d="M163 793h-21l83 129h157zM38 18q34 4 53.5 9t29.5 17.5t13 36t3 65.5v433q0 42 -3 65.5t-13 36t-29.5 17t-53.5 9.5v18h315v-18q-34 -5 -53.5 -9.5t-29.5 -17t-13 -36t-3 -65.5v-500q0 -27 7.5 -36t36.5 -9h17q68 0 114 6.5t78.5 26.5t55.5 58t46 101h19l-38 -227
q-26 0 -55 0.5t-58 0.5h-56h-48h-335v18z" />
    <glyph glyph-name="Lcaron" unicode="&#x13d;" horiz-adv-x="629" 
d="M402 682q0 26 18.5 43.5t44.5 17.5q28 0 43.5 -19t15.5 -49q0 -28 -10.5 -55.5t-28.5 -52.5t-42 -46t-52 -34l-5 10q28 21 52.5 53.5t24.5 73.5q-23 2 -42 17.5t-19 40.5zM38 18q34 4 53.5 9t29.5 17.5t13 36t3 65.5v433q0 42 -3 65.5t-13 36t-29.5 17t-53.5 9.5v18h315
v-18q-34 -5 -53.5 -9.5t-29.5 -17t-13 -36t-3 -65.5v-500q0 -27 7.5 -36t36.5 -9h17q68 0 114 6.5t78.5 26.5t55.5 58t46 101h19l-38 -227q-26 0 -55 0.5t-58 0.5h-56h-48h-335v18z" />
    <glyph glyph-name="Lcommaaccent" unicode="&#x13b;" horiz-adv-x="629" 
d="M268 -116q0 26 18.5 43.5t44.5 17.5q28 0 43.5 -19t15.5 -49q0 -28 -10.5 -55.5t-28.5 -52.5t-42 -46t-52 -34l-5 10q28 21 52.5 53.5t24.5 73.5q-23 2 -42 17.5t-19 40.5zM38 18q34 4 53.5 9t29.5 17.5t13 36t3 65.5v433q0 42 -3 65.5t-13 36t-29.5 17t-53.5 9.5v18h315
v-18q-34 -5 -53.5 -9.5t-29.5 -17t-13 -36t-3 -65.5v-500q0 -27 7.5 -36t36.5 -9h17q68 0 114 6.5t78.5 26.5t55.5 58t46 101h19l-38 -227q-26 0 -55 0.5t-58 0.5h-56h-48h-335v18z" />
    <glyph glyph-name="Ldot" unicode="&#x13f;" horiz-adv-x="629" 
d="M418 446q0 27 17.5 45.5t45.5 18.5q26 0 44 -18.5t18 -45.5q0 -28 -18 -46t-44 -18q-28 0 -45.5 18t-17.5 46zM38 18q34 4 53.5 9t29.5 17.5t13 36t3 65.5v433q0 42 -3 65.5t-13 36t-29.5 17t-53.5 9.5v18h315v-18q-34 -5 -53.5 -9.5t-29.5 -17t-13 -36t-3 -65.5v-500
q0 -27 7.5 -36t36.5 -9h17q68 0 114 6.5t78.5 26.5t55.5 58t46 101h19l-38 -227q-26 0 -55 0.5t-58 0.5h-56h-48h-335v18z" />
    <glyph glyph-name="Lslash" unicode="&#x141;" horiz-adv-x="629" 
d="M38 18q34 4 53.5 9t29.5 17.5t13 36t3 65.5v179l-70 -38l-22 38l92 51v203q0 42 -3 65.5t-13 36t-29.5 17t-53.5 9.5v18h315v-18q-34 -5 -53.5 -9.5t-29.5 -17t-13 -36t-3 -65.5v-138l77 43l22 -39l-99 -55v-311q0 -27 7.5 -36t36.5 -9h17q68 0 114 6.5t78.5 26.5
t55.5 58t46 101h19l-38 -227q-26 0 -55 0.5t-58 0.5h-56h-48h-335v18z" />
    <glyph glyph-name="Eng" unicode="&#x14a;" horiz-adv-x="775" 
d="M107 625l-4 5q-26 32 -43.5 50t-40.5 29v16h159l435 -549v408q0 39 -3 61t-13 34.5t-29.5 17.5t-53.5 10v18h244v-18q-34 -5 -53.5 -10t-29.5 -17.5t-13 -34.5t-3 -61v-487q0 -53 -8.5 -98.5t-30.5 -86.5t-61 -77t-100 -69l-8 10q33 35 52.5 69t30 69.5t14 72t3.5 77.5
l-398 503v-429q0 -38 3 -59.5t13 -33.5t29.5 -17.5t53.5 -9.5v-18h-244v18q33 4 53 9.5t30 17.5t13 33.5t3 59.5v487z" />
    <glyph glyph-name="Nacute" unicode="&#x143;" horiz-adv-x="804" 
d="M396 793h-21l83 129h157zM641 579q0 42 -3 65.5t-13 36t-29.5 17t-53.5 9.5v18h244v-18q-33 -5 -53 -9.5t-30 -17t-13 -36t-3 -65.5v-587h-50l-456 576v-422q0 -42 3 -65.5t13 -36t30 -17.5t53 -9v-18h-244v18q33 4 53 9t30 17.5t13 36t3 65.5v480l-4 5q-25 32 -43 49.5
t-40 28.5v16h159l434 -549v403v0z" />
    <glyph glyph-name="Ncaron" unicode="&#x147;" horiz-adv-x="804" 
d="M282 932h23l130 -59l130 59h23l-145 -139h-16zM641 579q0 42 -3 65.5t-13 36t-29.5 17t-53.5 9.5v18h244v-18q-33 -5 -53 -9.5t-30 -17t-13 -36t-3 -65.5v-587h-50l-456 576v-422q0 -42 3 -65.5t13 -36t30 -17.5t53 -9v-18h-244v18q33 4 53 9t30 17.5t13 36t3 65.5v480
l-4 5q-25 32 -43 49.5t-40 28.5v16h159l434 -549v403v0z" />
    <glyph glyph-name="Ncommaaccent" unicode="&#x145;" horiz-adv-x="804" 
d="M358 -116q0 26 18.5 43.5t44.5 17.5q28 0 43.5 -19t15.5 -49q0 -28 -10.5 -55.5t-28.5 -52.5t-42 -46t-52 -34l-5 10q28 21 52.5 53.5t24.5 73.5q-23 2 -42 17.5t-19 40.5zM641 579q0 42 -3 65.5t-13 36t-29.5 17t-53.5 9.5v18h244v-18q-33 -5 -53 -9.5t-30 -17t-13 -36
t-3 -65.5v-587h-50l-456 576v-422q0 -42 3 -65.5t13 -36t30 -17.5t53 -9v-18h-244v18q33 4 53 9t30 17.5t13 36t3 65.5v480l-4 5q-25 32 -43 49.5t-40 28.5v16h159l434 -549v403v0z" />
    <glyph glyph-name="OE" unicode="&#x152;" horiz-adv-x="1240" 
d="M50 366q0 91 31.5 162t84 119t120 73t138.5 25q78 0 142 -29.5t109 -86.5v96h244q48 0 107.5 0.5t116.5 2.5l28 -224h-18q-21 66 -47 103t-63 55.5t-87.5 22.5t-119.5 4h-57v-293h136q43 0 69 24.5t34 87.5h18v-268h-18q-8 63 -34 87.5t-69 24.5h-136v-272q0 -28 8 -37
t38 -9h15q72 0 125.5 6t93 25.5t67.5 57t51 100.5h19l-40 -224q-57 1 -116 1h-107h-258v102q-45 -57 -109 -86t-142 -29q-71 0 -138.5 25t-120 73t-84 118.5t-31.5 162.5zM668 366q0 77 -18 140.5t-50.5 108.5t-77 69.5t-98.5 24.5t-98.5 -24.5t-77 -69.5t-50.5 -108.5
t-18 -140.5t18 -140.5t50.5 -108.5t77 -69.5t98.5 -24.5t98.5 24.5t77 69.5t50.5 108.5t18 140.5z" />
    <glyph glyph-name="Obreve" unicode="&#x14e;" horiz-adv-x="848" 
d="M50 366q0 91 31.5 162t84 119t120 73t138.5 25t138.5 -25t120 -73t84 -119t31.5 -162q0 -92 -31.5 -162.5t-84 -118.5t-120 -73t-138.5 -25t-138.5 25t-120 73t-84 118.5t-31.5 162.5zM668 366q0 77 -18 140.5t-50.5 108.5t-77 69.5t-98.5 24.5t-98.5 -24.5t-77 -69.5
t-50.5 -108.5t-18 -140.5t18 -140.5t50.5 -108.5t77 -69.5t98.5 -24.5t98.5 24.5t77 69.5t50.5 108.5t18 140.5zM423 826q43 0 64 25.5t24 70.5h48q0 -24 -8 -48t-24.5 -43.5t-42 -31.5t-61.5 -12q-35 0 -60.5 12t-41.5 31.5t-24 43.5t-8 48h48q2 -45 23 -70.5t63 -25.5z
" />
    <glyph glyph-name="Ohungarumlaut" unicode="&#x150;" horiz-adv-x="848" 
d="M502 793h-21l83 129h157zM325 793h-21l83 129h157zM50 366q0 91 31.5 162t84 119t120 73t138.5 25t138.5 -25t120 -73t84 -119t31.5 -162q0 -92 -31.5 -162.5t-84 -118.5t-120 -73t-138.5 -25t-138.5 25t-120 73t-84 118.5t-31.5 162.5zM668 366q0 77 -18 140.5
t-50.5 108.5t-77 69.5t-98.5 24.5t-98.5 -24.5t-77 -69.5t-50.5 -108.5t-18 -140.5t18 -140.5t50.5 -108.5t77 -69.5t98.5 -24.5t98.5 24.5t77 69.5t50.5 108.5t18 140.5z" />
    <glyph glyph-name="Omacron" unicode="&#x14c;" horiz-adv-x="848" 
d="M50 366q0 91 31.5 162t84 119t120 73t138.5 25t138.5 -25t120 -73t84 -119t31.5 -162q0 -92 -31.5 -162.5t-84 -118.5t-120 -73t-138.5 -25t-138.5 25t-120 73t-84 118.5t-31.5 162.5zM668 366q0 77 -18 140.5t-50.5 108.5t-77 69.5t-98.5 24.5t-98.5 -24.5t-77 -69.5
t-50.5 -108.5t-18 -140.5t18 -140.5t50.5 -108.5t77 -69.5t98.5 -24.5t98.5 24.5t77 69.5t50.5 108.5t18 140.5zM276 818v68h296v-68h-296z" />
    <glyph glyph-name="uni1ECC" unicode="&#x1ecc;" horiz-adv-x="848" 
d="M362 -158q0 27 18 45t46 18q26 0 44 -18t18 -45q0 -29 -18 -46.5t-44 -17.5q-28 0 -46 17.5t-18 46.5zM50 366q0 91 31.5 162t84 119t120 73t138.5 25t138.5 -25t120 -73t84 -119t31.5 -162q0 -92 -31.5 -162.5t-84 -118.5t-120 -73t-138.5 -25t-138.5 25t-120 73
t-84 118.5t-31.5 162.5zM668 366q0 77 -18 140.5t-50.5 108.5t-77 69.5t-98.5 24.5t-98.5 -24.5t-77 -69.5t-50.5 -108.5t-18 -140.5t18 -140.5t50.5 -108.5t77 -69.5t98.5 -24.5t98.5 24.5t77 69.5t50.5 108.5t18 140.5z" />
    <glyph glyph-name="Racute" unicode="&#x154;" horiz-adv-x="742" 
d="M38 18q34 4 53.5 9t29.5 17.5t13 36t3 65.5v433q0 42 -3 65.5t-13 36t-29.5 17t-53.5 9.5v18h121h48t51.5 0.5t47.5 0.5h37q65 0 122 -9t100 -30.5t67.5 -58.5t24.5 -93q0 -41 -14 -72t-38.5 -53t-59 -36t-75.5 -21l150 -234q18 -27 33 -45.5t30 -30t32.5 -17.5t39.5 -8
v-18h-204q-6 12 -15 29t-20 36.5t-23 39.5t-24 38l-52 81q-28 42 -44.5 71t-30.5 48h-88v-198q0 -41 3 -64.5t13 -36t30 -17.5t55 -9v-18h-317v18zM528 535q0 48 -13 78t-38 47t-60.5 23t-81.5 6h-81v-309h81q46 0 81.5 6t60.5 23t38 47.5t13 78.5zM322 793h-21l83 129h157z
" />
    <glyph glyph-name="Rcaron" unicode="&#x158;" horiz-adv-x="742" 
d="M38 18q34 4 53.5 9t29.5 17.5t13 36t3 65.5v433q0 42 -3 65.5t-13 36t-29.5 17t-53.5 9.5v18h121h48t51.5 0.5t47.5 0.5h37q65 0 122 -9t100 -30.5t67.5 -58.5t24.5 -93q0 -41 -14 -72t-38.5 -53t-59 -36t-75.5 -21l150 -234q18 -27 33 -45.5t30 -30t32.5 -17.5t39.5 -8
v-18h-204q-6 12 -15 29t-20 36.5t-23 39.5t-24 38l-52 81q-28 42 -44.5 71t-30.5 48h-88v-198q0 -41 3 -64.5t13 -36t30 -17.5t55 -9v-18h-317v18zM528 535q0 48 -13 78t-38 47t-60.5 23t-81.5 6h-81v-309h81q46 0 81.5 6t60.5 23t38 47.5t13 78.5zM187 932h23l130 -59
l130 59h23l-145 -139h-16z" />
    <glyph glyph-name="Rcommaaccent" unicode="&#x156;" horiz-adv-x="742" 
d="M343 -116q0 26 18.5 43.5t44.5 17.5q28 0 43.5 -19t15.5 -49q0 -28 -10.5 -55.5t-28.5 -52.5t-42 -46t-52 -34l-5 10q28 21 52.5 53.5t24.5 73.5q-23 2 -42 17.5t-19 40.5zM38 18q34 4 53.5 9t29.5 17.5t13 36t3 65.5v433q0 42 -3 65.5t-13 36t-29.5 17t-53.5 9.5v18h121
h48t51.5 0.5t47.5 0.5h37q65 0 122 -9t100 -30.5t67.5 -58.5t24.5 -93q0 -41 -14 -72t-38.5 -53t-59 -36t-75.5 -21l150 -234q18 -27 33 -45.5t30 -30t32.5 -17.5t39.5 -8v-18h-204q-6 12 -15 29t-20 36.5t-23 39.5t-24 38l-52 81q-28 42 -44.5 71t-30.5 48h-88v-198
q0 -41 3 -64.5t13 -36t30 -17.5t55 -9v-18h-317v18zM528 535q0 48 -13 78t-38 47t-60.5 23t-81.5 6h-81v-309h81q46 0 81.5 6t60.5 23t38 47.5t13 78.5z" />
    <glyph glyph-name="Sacute" unicode="&#x15a;" horiz-adv-x="614" 
d="M296 -13q-69 0 -130 15.5t-102 38.5v246h20q9 -83 30 -135t49.5 -80.5t62.5 -38.5t70 -10q32 0 62.5 8.5t54 26t38 44t14.5 62.5q0 27 -11 47.5t-30 38t-45 31.5t-56 28l-81 36q-80 35 -126.5 86.5t-46.5 123.5q0 42 19 77t52 61t77 40.5t94 14.5q55 0 111.5 -12
t93.5 -35l3 -209h-20q-9 64 -27.5 106t-43 67.5t-55 36t-64.5 10.5q-30 0 -57 -7.5t-47.5 -22.5t-32 -37t-11.5 -50q0 -29 10 -49.5t26 -36t36 -26.5t39 -20l85 -38q43 -19 80 -39.5t64.5 -46t43 -58t15.5 -75.5q0 -53 -22.5 -94t-59.5 -68.5t-84.5 -42t-97.5 -14.5z
M295 793h-21l83 129h157z" />
    <glyph glyph-name="Scaron" unicode="&#x160;" horiz-adv-x="614" 
d="M296 -13q-69 0 -130 15.5t-102 38.5v246h20q9 -83 30 -135t49.5 -80.5t62.5 -38.5t70 -10q32 0 62.5 8.5t54 26t38 44t14.5 62.5q0 27 -11 47.5t-30 38t-45 31.5t-56 28l-81 36q-80 35 -126.5 86.5t-46.5 123.5q0 42 19 77t52 61t77 40.5t94 14.5q55 0 111.5 -12
t93.5 -35l3 -209h-20q-9 64 -27.5 106t-43 67.5t-55 36t-64.5 10.5q-30 0 -57 -7.5t-47.5 -22.5t-32 -37t-11.5 -50q0 -29 10 -49.5t26 -36t36 -26.5t39 -20l85 -38q43 -19 80 -39.5t64.5 -46t43 -58t15.5 -75.5q0 -53 -22.5 -94t-59.5 -68.5t-84.5 -42t-97.5 -14.5z
M164 932h23l130 -59l130 59h23l-145 -139h-16z" />
    <glyph glyph-name="Scedilla" unicode="&#x15e;" horiz-adv-x="614" 
d="M283 3h38l-51 -86q10 5 21.5 7t20.5 2q35 0 55 -21t20 -50q0 -25 -10 -43t-25.5 -29t-34.5 -16.5t-36 -5.5q-35 0 -58 9.5t-40 19.5l10 22q13 -7 30 -10.5t34 -3.5q28 0 45 12t17 35q0 17 -10.5 27t-26 13.5t-32.5 0.5t-30 -10l-9 5zM296 -13q-69 0 -130 15.5t-102 38.5
v246h20q9 -83 30 -135t49.5 -80.5t62.5 -38.5t70 -10q32 0 62.5 8.5t54 26t38 44t14.5 62.5q0 27 -11 47.5t-30 38t-45 31.5t-56 28l-81 36q-80 35 -126.5 86.5t-46.5 123.5q0 42 19 77t52 61t77 40.5t94 14.5q55 0 111.5 -12t93.5 -35l3 -209h-20q-9 64 -27.5 106t-43 67.5
t-55 36t-64.5 10.5q-30 0 -57 -7.5t-47.5 -22.5t-32 -37t-11.5 -50q0 -29 10 -49.5t26 -36t36 -26.5t39 -20l85 -38q43 -19 80 -39.5t64.5 -46t43 -58t15.5 -75.5q0 -53 -22.5 -94t-59.5 -68.5t-84.5 -42t-97.5 -14.5z" />
    <glyph glyph-name="Scircumflex" unicode="&#x15c;" horiz-adv-x="614" 
d="M296 -13q-69 0 -130 15.5t-102 38.5v246h20q9 -83 30 -135t49.5 -80.5t62.5 -38.5t70 -10q32 0 62.5 8.5t54 26t38 44t14.5 62.5q0 27 -11 47.5t-30 38t-45 31.5t-56 28l-81 36q-80 35 -126.5 86.5t-46.5 123.5q0 42 19 77t52 61t77 40.5t94 14.5q55 0 111.5 -12
t93.5 -35l3 -209h-20q-9 64 -27.5 106t-43 67.5t-55 36t-64.5 10.5q-30 0 -57 -7.5t-47.5 -22.5t-32 -37t-11.5 -50q0 -29 10 -49.5t26 -36t36 -26.5t39 -20l85 -38q43 -19 80 -39.5t64.5 -46t43 -58t15.5 -75.5q0 -53 -22.5 -94t-59.5 -68.5t-84.5 -42t-97.5 -14.5z
M322 932l145 -139h-23l-130 59l-130 -59h-23l145 139h16z" />
    <glyph glyph-name="Scommaaccent" unicode="&#x218;" horiz-adv-x="614" 
d="M237 -116q0 26 18.5 43.5t44.5 17.5q28 0 43.5 -19t15.5 -49q0 -28 -10.5 -55.5t-28.5 -52.5t-42 -46t-52 -34l-5 10q28 21 52.5 53.5t24.5 73.5q-23 2 -42 17.5t-19 40.5zM296 -13q-69 0 -130 15.5t-102 38.5v246h20q9 -83 30 -135t49.5 -80.5t62.5 -38.5t70 -10
q32 0 62.5 8.5t54 26t38 44t14.5 62.5q0 27 -11 47.5t-30 38t-45 31.5t-56 28l-81 36q-80 35 -126.5 86.5t-46.5 123.5q0 42 19 77t52 61t77 40.5t94 14.5q55 0 111.5 -12t93.5 -35l3 -209h-20q-9 64 -27.5 106t-43 67.5t-55 36t-64.5 10.5q-30 0 -57 -7.5t-47.5 -22.5
t-32 -37t-11.5 -50q0 -29 10 -49.5t26 -36t36 -26.5t39 -20l85 -38q43 -19 80 -39.5t64.5 -46t43 -58t15.5 -75.5q0 -53 -22.5 -94t-59.5 -68.5t-84.5 -42t-97.5 -14.5z" />
    <glyph glyph-name="Tbar" unicode="&#x166;" horiz-adv-x="770" 
d="M217 19q37 3 59 9t33.5 19.5t14.5 37t3 61.5v206h-130v44h130v298h-31q-56 0 -94.5 -7.5t-66.5 -28.5t-48.5 -59.5t-41.5 -100.5h-19l29 230q57 -2 117.5 -2.5t108.5 -0.5h209q47 0 107.5 0.5t117.5 2.5l29 -230h-18q-21 62 -42 100.5t-49 59.5t-66.5 28.5t-94.5 7.5h-30
v-298h130v-44h-130v-206q0 -38 3 -61.5t14.5 -37t33 -19.5t59.5 -9v-19h-337v19z" />
    <glyph glyph-name="Tcaron" unicode="&#x164;" horiz-adv-x="770" 
d="M217 19q37 3 59 9t33.5 19.5t14.5 37t3 61.5v548h-31q-56 0 -94.5 -7.5t-66.5 -28.5t-48.5 -59.5t-41.5 -100.5h-19l29 230q57 -2 117.5 -2.5t108.5 -0.5h209q47 0 107.5 0.5t117.5 2.5l29 -230h-18q-21 62 -42 100.5t-49 59.5t-66.5 28.5t-94.5 7.5h-30v-548
q0 -38 3 -61.5t14.5 -37t33 -19.5t59.5 -9v-19h-337v19zM232 932h23l130 -59l130 59h23l-145 -139h-16z" />
    <glyph glyph-name="uni0162" unicode="&#x162;" horiz-adv-x="770" 
d="M315 -116q0 26 18.5 43.5t44.5 17.5q28 0 43.5 -19t15.5 -49q0 -28 -10.5 -55.5t-28.5 -52.5t-42 -46t-52 -34l-5 10q28 21 52.5 53.5t24.5 73.5q-23 2 -42 17.5t-19 40.5zM217 19q37 3 59 9t33.5 19.5t14.5 37t3 61.5v548h-31q-56 0 -94.5 -7.5t-66.5 -28.5t-48.5 -59.5
t-41.5 -100.5h-19l29 230q57 -2 117.5 -2.5t108.5 -0.5h209q47 0 107.5 0.5t117.5 2.5l29 -230h-18q-21 62 -42 100.5t-49 59.5t-66.5 28.5t-94.5 7.5h-30v-548q0 -38 3 -61.5t14.5 -37t33 -19.5t59.5 -9v-19h-337v19z" />
    <glyph glyph-name="Tcommaaccent" unicode="&#x21a;" horiz-adv-x="770" 
d="M315 -116q0 26 18.5 43.5t44.5 17.5q28 0 43.5 -19t15.5 -49q0 -28 -10.5 -55.5t-28.5 -52.5t-42 -46t-52 -34l-5 10q28 21 52.5 53.5t24.5 73.5q-23 2 -42 17.5t-19 40.5zM217 19q37 3 59 9t33.5 19.5t14.5 37t3 61.5v548h-31q-56 0 -94.5 -7.5t-66.5 -28.5t-48.5 -59.5
t-41.5 -100.5h-19l29 230q57 -2 117.5 -2.5t108.5 -0.5h209q47 0 107.5 0.5t117.5 2.5l29 -230h-18q-21 62 -42 100.5t-49 59.5t-66.5 28.5t-94.5 7.5h-30v-548q0 -38 3 -61.5t14.5 -37t33 -19.5t59.5 -9v-19h-337v19z" />
    <glyph glyph-name="Ubreve" unicode="&#x16c;" horiz-adv-x="787" 
d="M120 579q0 41 -3 64.5t-13 36t-30 17.5t-53 10v18h314v-18q-33 -5 -53 -9.5t-30 -17t-13 -36t-3 -65.5v-295q0 -118 44 -182.5t144 -64.5q57 0 95.5 20t61.5 55.5t33 83t10 102.5v281q0 42 -3 65.5t-13 36t-30 17t-53 9.5v18h244v-18q-34 -5 -53.5 -9.5t-29.5 -17
t-13 -36t-3 -65.5v-280q0 -158 -67.5 -235t-207.5 -77q-76 0 -128.5 20.5t-85 58t-47 90.5t-14.5 117v306v0zM414 826q43 0 64 25.5t24 70.5h48q0 -24 -8 -48t-24.5 -43.5t-42 -31.5t-61.5 -12q-35 0 -60.5 12t-41.5 31.5t-24 43.5t-8 48h48q2 -45 23 -70.5t63 -25.5z" />
    <glyph glyph-name="Uhungarumlaut" unicode="&#x170;" horiz-adv-x="787" 
d="M477 793h-21l83 129h157zM300 793h-21l83 129h157zM120 579q0 41 -3 64.5t-13 36t-30 17.5t-53 10v18h314v-18q-33 -5 -53 -9.5t-30 -17t-13 -36t-3 -65.5v-295q0 -118 44 -182.5t144 -64.5q57 0 95.5 20t61.5 55.5t33 83t10 102.5v281q0 42 -3 65.5t-13 36t-30 17
t-53 9.5v18h244v-18q-34 -5 -53.5 -9.5t-29.5 -17t-13 -36t-3 -65.5v-280q0 -158 -67.5 -235t-207.5 -77q-76 0 -128.5 20.5t-85 58t-47 90.5t-14.5 117v306v0z" />
    <glyph glyph-name="Umacron" unicode="&#x16a;" horiz-adv-x="787" 
d="M120 579q0 41 -3 64.5t-13 36t-30 17.5t-53 10v18h314v-18q-33 -5 -53 -9.5t-30 -17t-13 -36t-3 -65.5v-295q0 -118 44 -182.5t144 -64.5q57 0 95.5 20t61.5 55.5t33 83t10 102.5v281q0 42 -3 65.5t-13 36t-30 17t-53 9.5v18h244v-18q-34 -5 -53.5 -9.5t-29.5 -17
t-13 -36t-3 -65.5v-280q0 -158 -67.5 -235t-207.5 -77q-76 0 -128.5 20.5t-85 58t-47 90.5t-14.5 117v306v0zM276 818v68h296v-68h-296z" />
    <glyph glyph-name="Uogonek" unicode="&#x172;" horiz-adv-x="787" 
d="M516 -171q-23 -23 -52 -36t-57 -13q-17 0 -33.5 4.5t-29.5 14.5t-21 25.5t-8 37.5q0 21 12 41t30.5 38t41.5 33.5t45 27.5h23q-32 -22 -53.5 -52.5t-21.5 -61.5q0 -30 17.5 -47t42.5 -17q16 0 29.5 3.5t28.5 11.5zM120 579q0 41 -3 64.5t-13 36t-30 17.5t-53 10v18h314
v-18q-33 -5 -53 -9.5t-30 -17t-13 -36t-3 -65.5v-295q0 -118 44 -182.5t144 -64.5q57 0 95.5 20t61.5 55.5t33 83t10 102.5v281q0 42 -3 65.5t-13 36t-30 17t-53 9.5v18h244v-18q-34 -5 -53.5 -9.5t-29.5 -17t-13 -36t-3 -65.5v-280q0 -158 -67.5 -235t-207.5 -77
q-76 0 -128.5 20.5t-85 58t-47 90.5t-14.5 117v306v0z" />
    <glyph glyph-name="Uring" unicode="&#x16e;" horiz-adv-x="787" 
d="M334 880q0 39 27 66.5t66 27.5q19 0 36.5 -7.5t30 -20t20 -30t7.5 -36.5t-7.5 -36t-20 -29.5t-30 -20t-36.5 -7.5q-20 0 -36.5 7.5t-29.5 20t-20 29.5t-7 36zM373 880q0 -25 15 -40.5t39 -15.5q23 0 38.5 15.5t15.5 40.5t-15.5 41t-38.5 16q-24 0 -39 -16t-15 -41z
M120 579q0 41 -3 64.5t-13 36t-30 17.5t-53 10v18h314v-18q-33 -5 -53 -9.5t-30 -17t-13 -36t-3 -65.5v-295q0 -118 44 -182.5t144 -64.5q57 0 95.5 20t61.5 55.5t33 83t10 102.5v281q0 42 -3 65.5t-13 36t-30 17t-53 9.5v18h244v-18q-34 -5 -53.5 -9.5t-29.5 -17t-13 -36
t-3 -65.5v-280q0 -158 -67.5 -235t-207.5 -77q-76 0 -128.5 20.5t-85 58t-47 90.5t-14.5 117v306v0z" />
    <glyph glyph-name="Utilde" unicode="&#x168;" horiz-adv-x="787" 
d="M120 579q0 41 -3 64.5t-13 36t-30 17.5t-53 10v18h314v-18q-33 -5 -53 -9.5t-30 -17t-13 -36t-3 -65.5v-295q0 -118 44 -182.5t144 -64.5q57 0 95.5 20t61.5 55.5t33 83t10 102.5v281q0 42 -3 65.5t-13 36t-30 17t-53 9.5v18h244v-18q-34 -5 -53.5 -9.5t-29.5 -17
t-13 -36t-3 -65.5v-280q0 -158 -67.5 -235t-207.5 -77q-76 0 -128.5 20.5t-85 58t-47 90.5t-14.5 117v306v0zM521 864q25 0 40.5 11.5t20.5 38.5h16q0 -24 -5.5 -47t-17 -41t-29 -28.5t-41.5 -10.5q-25 0 -45 9.5t-38.5 21t-37.5 21t-42 9.5q-26 0 -41.5 -11.5t-20.5 -38.5
h-16q0 24 5.5 47t17 41t29 28.5t41.5 10.5t44.5 -9.5t39.5 -21t38.5 -21t41.5 -9.5z" />
    <glyph glyph-name="uni1EE4" unicode="&#x1ee4;" horiz-adv-x="787" 
d="M345 -158q0 27 18 45t46 18q26 0 44 -18t18 -45q0 -29 -18 -46.5t-44 -17.5q-28 0 -46 17.5t-18 46.5zM120 579q0 41 -3 64.5t-13 36t-30 17.5t-53 10v18h314v-18q-33 -5 -53 -9.5t-30 -17t-13 -36t-3 -65.5v-295q0 -118 44 -182.5t144 -64.5q57 0 95.5 20t61.5 55.5
t33 83t10 102.5v281q0 42 -3 65.5t-13 36t-30 17t-53 9.5v18h244v-18q-34 -5 -53.5 -9.5t-29.5 -17t-13 -36t-3 -65.5v-280q0 -158 -67.5 -235t-207.5 -77q-76 0 -128.5 20.5t-85 58t-47 90.5t-14.5 117v306v0z" />
    <glyph glyph-name="Wacute" unicode="&#x1e82;" horiz-adv-x="1067" 
d="M522 793h-21l83 129h157zM1058 707q-27 -2 -45.5 -7.5t-32.5 -22.5t-27.5 -50t-29.5 -90l-161 -549h-54l-176 516l-151 -516h-55l-212 622q-10 29 -18 47t-19 28.5t-26.5 15t-40.5 6.5v18h294v-18q-51 -6 -67 -21t-3 -54l149 -458l119 415l-46 136h130l179 -551l98 340
q19 68 28 105.5t5.5 56t-19.5 23.5t-47 8v18h228v-18z" />
    <glyph glyph-name="Wcircumflex" unicode="&#x174;" horiz-adv-x="1067" 
d="M558 932l145 -139h-23l-130 59l-130 -59h-23l145 139h16zM1058 707q-27 -2 -45.5 -7.5t-32.5 -22.5t-27.5 -50t-29.5 -90l-161 -549h-54l-176 516l-151 -516h-55l-212 622q-10 29 -18 47t-19 28.5t-26.5 15t-40.5 6.5v18h294v-18q-51 -6 -67 -21t-3 -54l149 -458l119 415
l-46 136h130l179 -551l98 340q19 68 28 105.5t5.5 56t-19.5 23.5t-47 8v18h228v-18z" />
    <glyph glyph-name="Wdieresis" unicode="&#x1e84;" horiz-adv-x="1067" 
d="M1058 707q-27 -2 -45.5 -7.5t-32.5 -22.5t-27.5 -50t-29.5 -90l-161 -549h-54l-176 516l-151 -516h-55l-212 622q-10 29 -18 47t-19 28.5t-26.5 15t-40.5 6.5v18h294v-18q-51 -6 -67 -21t-3 -54l149 -458l119 415l-46 136h130l179 -551l98 340q19 68 28 105.5t5.5 56
t-19.5 23.5t-47 8v18h228v-18zM596 860q0 27 18 45.5t46 18.5q26 0 44.5 -18.5t18.5 -45.5q0 -28 -18.5 -46t-44.5 -18q-28 0 -46 18t-18 46zM369 860q0 27 18 45.5t46 18.5q26 0 44 -18.5t18 -45.5q0 -28 -18 -46t-44 -18q-28 0 -46 18t-18 46z" />
    <glyph glyph-name="Wgrave" unicode="&#x1e80;" horiz-adv-x="1067" 
d="M489 922l83 -129h-21l-219 129h157zM1058 707q-27 -2 -45.5 -7.5t-32.5 -22.5t-27.5 -50t-29.5 -90l-161 -549h-54l-176 516l-151 -516h-55l-212 622q-10 29 -18 47t-19 28.5t-26.5 15t-40.5 6.5v18h294v-18q-51 -6 -67 -21t-3 -54l149 -458l119 415l-46 136h130
l179 -551l98 340q19 68 28 105.5t5.5 56t-19.5 23.5t-47 8v18h228v-18z" />
    <glyph glyph-name="Ycircumflex" unicode="&#x176;" horiz-adv-x="726" 
d="M412 146q0 -38 3 -61.5t14 -37t33 -19.5t60 -9v-19h-337v19q37 3 59 9t33.5 19.5t14.5 37t3 61.5v139l-187 326q-15 26 -26.5 43.5t-23 28t-24 16t-30.5 8.5v18h294v-18q-51 -6 -68.5 -22.5t2.5 -51.5l161 -290l131 223q24 41 33.5 67t5.5 42t-19.5 23t-41.5 9v18h220
v-18q-21 -3 -37.5 -10t-31.5 -20t-30 -32.5t-32 -49.5l-179 -305v-144v0zM393 932l145 -139h-23l-130 59l-130 -59h-23l145 139h16z" />
    <glyph glyph-name="Ydieresis" unicode="&#x178;" horiz-adv-x="726" 
d="M412 146q0 -38 3 -61.5t14 -37t33 -19.5t60 -9v-19h-337v19q37 3 59 9t33.5 19.5t14.5 37t3 61.5v139l-187 326q-15 26 -26.5 43.5t-23 28t-24 16t-30.5 8.5v18h294v-18q-51 -6 -68.5 -22.5t2.5 -51.5l161 -290l131 223q24 41 33.5 67t5.5 42t-19.5 23t-41.5 9v18h220
v-18q-21 -3 -37.5 -10t-31.5 -20t-30 -32.5t-32 -49.5l-179 -305v-144v0zM441 860q0 27 18 45.5t46 18.5q26 0 44.5 -18.5t18.5 -45.5q0 -28 -18.5 -46t-44.5 -18q-28 0 -46 18t-18 46zM214 860q0 27 18 45.5t46 18.5q26 0 44 -18.5t18 -45.5q0 -28 -18 -46t-44 -18
q-28 0 -46 18t-18 46z" />
    <glyph glyph-name="Ygrave" unicode="&#x1ef2;" horiz-adv-x="726" 
d="M412 146q0 -38 3 -61.5t14 -37t33 -19.5t60 -9v-19h-337v19q37 3 59 9t33.5 19.5t14.5 37t3 61.5v139l-187 326q-15 26 -26.5 43.5t-23 28t-24 16t-30.5 8.5v18h294v-18q-51 -6 -68.5 -22.5t2.5 -51.5l161 -290l131 223q24 41 33.5 67t5.5 42t-19.5 23t-41.5 9v18h220
v-18q-21 -3 -37.5 -10t-31.5 -20t-30 -32.5t-32 -49.5l-179 -305v-144v0zM349 922l83 -129h-21l-219 129h157z" />
    <glyph glyph-name="uni0232" unicode="&#x232;" horiz-adv-x="726" 
d="M412 146q0 -38 3 -61.5t14 -37t33 -19.5t60 -9v-19h-337v19q37 3 59 9t33.5 19.5t14.5 37t3 61.5v139l-187 326q-15 26 -26.5 43.5t-23 28t-24 16t-30.5 8.5v18h294v-18q-51 -6 -68.5 -22.5t2.5 -51.5l161 -290l131 223q24 41 33.5 67t5.5 42t-19.5 23t-41.5 9v18h220
v-18q-21 -3 -37.5 -10t-31.5 -20t-30 -32.5t-32 -49.5l-179 -305v-144v0zM244 818v68h296v-68h-296z" />
    <glyph glyph-name="Zacute" unicode="&#x179;" horiz-adv-x="673" 
d="M284 36q69 0 119.5 4t87 22.5t62.5 55.5t47 103h18l-28 -224q-57 2 -116 2.5t-107 0.5h-324v11l433 678h-52q-69 0 -119 -4t-86.5 -22.5t-62.5 -55.5t-47 -103h-19l29 224q57 -2 116 -2.5t107 -0.5h282v-10l-439 -679h99zM345 793h-21l83 129h157z" />
    <glyph glyph-name="Zcaron" unicode="&#x17d;" horiz-adv-x="673" 
d="M284 36q69 0 119.5 4t87 22.5t62.5 55.5t47 103h18l-28 -224q-57 2 -116 2.5t-107 0.5h-324v11l433 678h-52q-69 0 -119 -4t-86.5 -22.5t-62.5 -55.5t-47 -103h-19l29 224q57 -2 116 -2.5t107 -0.5h282v-10l-439 -679h99zM217 932h23l130 -59l130 59h23l-145 -139h-16z
" />
    <glyph glyph-name="Zdotaccent" unicode="&#x17b;" horiz-adv-x="673" 
d="M313 860q0 27 17.5 45.5t45.5 18.5q26 0 44 -18.5t18 -45.5q0 -28 -18 -46t-44 -18q-28 0 -45.5 18t-17.5 46zM284 36q69 0 119.5 4t87 22.5t62.5 55.5t47 103h18l-28 -224q-57 2 -116 2.5t-107 0.5h-324v11l433 678h-52q-69 0 -119 -4t-86.5 -22.5t-62.5 -55.5t-47 -103
h-19l29 224q57 -2 116 -2.5t107 -0.5h282v-10l-439 -679h99z" />
    <glyph glyph-name="uni018F" unicode="&#x18f;" horiz-adv-x="770" 
d="M721 372q0 -94 -29 -166t-77.5 -120.5t-113 -73.5t-134.5 -25q-69 0 -128 23.5t-101.5 68.5t-66 111.5t-21.5 152.5h549v15q0 73 -19.5 128.5t-54 92.5t-82 55.5t-104.5 18.5q-49 0 -90.5 -11t-74.5 -29.5t-56 -43.5t-34 -52l-19 5q10 37 35 76.5t64 71.5t91.5 53
t118.5 21q83 0 147.5 -27t109 -76t67.5 -117.5t23 -151.5zM368 22q97 0 157 73t71 203h-417q0 -51 10.5 -100.5t33.5 -88.5t59 -63t86 -24z" />
    <glyph glyph-name="abreve" unicode="&#x103;" horiz-adv-x="551" 
d="M354 306q-63 -23 -95 -40t-45 -25q-32 -20 -46.5 -40.5t-12.5 -52.5q1 -19 8.5 -37.5t20.5 -33t31.5 -23.5t41.5 -9q28 0 51 13t43 34zM354 64q-17 -16 -35 -31.5t-37 -26.5q-17 -11 -37 -15t-46 -4q-28 0 -56 9.5t-50.5 27t-37 41.5t-14.5 54q0 24 10.5 44t30.5 38
t50.5 35t69.5 36q20 10 59 28t95 42v23q0 79 -25.5 110.5t-75.5 31.5q-32 0 -52.5 -11t-31.5 -29.5t-14 -44t-1 -54.5h-102q0 31 17 63t47 57.5t71.5 41.5t89.5 16q35 0 67.5 -7.5t57.5 -27t39 -52.5t13 -83l-5 -259q-1 -42 7.5 -53.5t28.5 -11.5q12 0 22.5 6t21.5 14
l10 -10q-10 -12 -20.5 -25t-23 -23.5t-27.5 -17t-33 -6.5q-31 0 -55.5 18t-27.5 56zM265 663q46 0 68.5 26t25.5 73h51q0 -25 -8.5 -50t-26 -45.5t-45 -33t-65.5 -12.5t-65 12.5t-45 33t-26.5 45.5t-8.5 50h51q4 -47 26 -73t68 -26z" />
    <glyph glyph-name="amacron" unicode="&#x101;" horiz-adv-x="546" 
d="M354 306q-63 -23 -95 -40t-45 -25q-32 -20 -46.5 -40.5t-12.5 -52.5q1 -19 8.5 -37.5t20.5 -33t31.5 -23.5t41.5 -9q28 0 51 13t43 34zM354 64q-17 -16 -35 -31.5t-37 -26.5q-17 -11 -37 -15t-46 -4q-28 0 -56 9.5t-50.5 27t-37 41.5t-14.5 54q0 24 10.5 44t30.5 38
t50.5 35t69.5 36q20 10 59 28t95 42v23q0 79 -25.5 110.5t-75.5 31.5q-32 0 -52.5 -11t-31.5 -29.5t-14 -44t-1 -54.5h-102q0 31 17 63t47 57.5t71.5 41.5t89.5 16q35 0 67.5 -7.5t57.5 -27t39 -52.5t13 -83l-5 -259q-1 -42 7.5 -53.5t28.5 -11.5q12 0 22.5 6t21.5 14
l10 -10q-10 -12 -20.5 -25t-23 -23.5t-27.5 -17t-33 -6.5q-31 0 -55.5 18t-27.5 56zM119 665v68h296v-68h-296z" />
    <glyph glyph-name="aogonek" unicode="&#x105;" horiz-adv-x="551" 
d="M354 306q-63 -23 -95 -40t-45 -25q-32 -20 -46.5 -40.5t-12.5 -52.5q1 -19 8.5 -37.5t20.5 -33t31.5 -23.5t41.5 -9q28 0 51 13t43 34zM354 64q-17 -16 -35 -31.5t-37 -26.5q-17 -11 -37 -15t-46 -4q-28 0 -56 9.5t-50.5 27t-37 41.5t-14.5 54q0 24 10.5 44t30.5 38
t50.5 35t69.5 36q20 10 59 28t95 42v23q0 79 -25.5 110.5t-75.5 31.5q-32 0 -52.5 -11t-31.5 -29.5t-14 -44t-1 -54.5h-102q0 31 17 63t47 57.5t71.5 41.5t89.5 16q35 0 67.5 -7.5t57.5 -27t39 -52.5t13 -83l-5 -259q-1 -42 7.5 -53.5t28.5 -11.5q12 0 22.5 6t21.5 14
l10 -10q-10 -12 -20.5 -25t-23 -23.5t-27.5 -17t-33 -6.5q-31 0 -55.5 18t-27.5 56zM522 -155q-23 -23 -52 -36t-57 -13q-17 0 -33.5 4.5t-29.5 14.5t-21 25.5t-8 37.5q0 21 12 41t30.5 38t41.5 33.5t45 27.5h23q-32 -22 -53.5 -52.5t-21.5 -61.5q0 -30 17.5 -47t42.5 -17
q16 0 29.5 3.5t28.5 11.5z" />
    <glyph glyph-name="cacute" unicode="&#x107;" horiz-adv-x="508" 
d="M469 772l-186 -169h-16l73 169h129zM316 547q31 0 58 -8.5t46.5 -22.5t30.5 -32.5t11 -37.5q0 -23 -15.5 -38.5t-41.5 -15.5q-14 0 -26.5 5.5t-20.5 22.5l-32 66q-6 12 -15 16t-23 4q-27 0 -54.5 -10.5t-49.5 -34.5t-36 -62t-14 -92q0 -47 12 -89t36 -73.5t60 -50
t83 -18.5q37 0 75 15t68 41l11 -10q-13 -22 -31.5 -45.5t-44 -43.5t-58.5 -33t-75 -13q-59 0 -102.5 21.5t-72 58.5t-43 86t-14.5 104q0 68 23 122t61.5 91.5t89 57t104.5 19.5z" />
    <glyph glyph-name="ccaron" unicode="&#x10d;" horiz-adv-x="508" 
d="M294 603l-158 169h19l145 -81l145 81h20l-158 -169h-13zM316 547q31 0 58 -8.5t46.5 -22.5t30.5 -32.5t11 -37.5q0 -23 -15.5 -38.5t-41.5 -15.5q-14 0 -26.5 5.5t-20.5 22.5l-32 66q-6 12 -15 16t-23 4q-27 0 -54.5 -10.5t-49.5 -34.5t-36 -62t-14 -92q0 -47 12 -89
t36 -73.5t60 -50t83 -18.5q37 0 75 15t68 41l11 -10q-13 -22 -31.5 -45.5t-44 -43.5t-58.5 -33t-75 -13q-59 0 -102.5 21.5t-72 58.5t-43 86t-14.5 104q0 68 23 122t61.5 91.5t89 57t104.5 19.5z" />
    <glyph glyph-name="ccircumflex" unicode="&#x109;" horiz-adv-x="508" 
d="M449 603h-20l-145 81l-145 -81h-19l158 169h13zM316 547q31 0 58 -8.5t46.5 -22.5t30.5 -32.5t11 -37.5q0 -23 -15.5 -38.5t-41.5 -15.5q-14 0 -26.5 5.5t-20.5 22.5l-32 66q-6 12 -15 16t-23 4q-27 0 -54.5 -10.5t-49.5 -34.5t-36 -62t-14 -92q0 -47 12 -89t36 -73.5
t60 -50t83 -18.5q37 0 75 15t68 41l11 -10q-13 -22 -31.5 -45.5t-44 -43.5t-58.5 -33t-75 -13q-59 0 -102.5 21.5t-72 58.5t-43 86t-14.5 104q0 68 23 122t61.5 91.5t89 57t104.5 19.5z" />
    <glyph glyph-name="cdotaccent" unicode="&#x10b;" horiz-adv-x="508" 
d="M316 547q31 0 58 -8.5t46.5 -22.5t30.5 -32.5t11 -37.5q0 -23 -15.5 -38.5t-41.5 -15.5q-14 0 -26.5 5.5t-20.5 22.5l-32 66q-6 12 -15 16t-23 4q-27 0 -54.5 -10.5t-49.5 -34.5t-36 -62t-14 -92q0 -47 12 -89t36 -73.5t60 -50t83 -18.5q37 0 75 15t68 41l11 -10
q-13 -22 -31.5 -45.5t-44 -43.5t-58.5 -33t-75 -13q-59 0 -102.5 21.5t-72 58.5t-43 86t-14.5 104q0 68 23 122t61.5 91.5t89 57t104.5 19.5zM235 709q0 27 18 45t46 18q26 0 44 -18t18 -45q0 -29 -18 -47t-44 -18q-28 0 -46 18t-18 47z" />
    <glyph glyph-name="dcaron" unicode="&#x10f;" horiz-adv-x="679" 
d="M409 648q0 35 -1.5 54t-10 28t-27 10.5t-51.5 1.5v18l199 63q-1 -40 -2 -91t-1 -128v-440q0 -35 1.5 -54.5t8.5 -29.5t22.5 -12.5t44.5 -3.5v-17l-166 -55l-14 88q-24 -39 -64.5 -66t-95.5 -27q-50 0 -89.5 20.5t-67 56t-42.5 83.5t-15 103q0 65 21 119.5t56.5 94
t81 61.5t94.5 22q27 0 59 -8.5t59 -34.5v144zM291 512q-36 0 -63 -17t-44.5 -46.5t-26 -69.5t-8.5 -87q0 -52 12 -95t33.5 -74t51.5 -48t66 -17q29 0 54.5 12t42.5 35v341q-16 33 -48 49.5t-70 16.5zM588 750q0 26 18.5 43.5t44.5 17.5q28 0 43.5 -19t15.5 -49
q0 -28 -10.5 -55.5t-28.5 -52.5t-42 -46t-52 -34l-5 10q28 21 52.5 53.5t24.5 73.5q-23 2 -42 17.5t-19 40.5z" />
    <glyph glyph-name="dcroat" unicode="&#x111;" horiz-adv-x="611" 
d="M409 648q0 35 -1.5 54t-10 28t-27 10.5t-51.5 1.5v18l199 63q-1 -35 -2 -79.5t-1 -106.5h81v-40h-81v-433q0 -35 1.5 -54.5t8.5 -29.5t22.5 -12.5t44.5 -3.5v-17l-166 -55l-14 88q-24 -39 -64.5 -66t-95.5 -27q-50 0 -89.5 20.5t-67 56t-42.5 83.5t-15 103q0 65 21 119.5
t56.5 94t81 61.5t94.5 22q27 0 59 -8.5t59 -34.5v93h-151v40h151v11zM291 512q-36 0 -63 -17t-44.5 -46.5t-26 -69.5t-8.5 -87q0 -52 12 -95t33.5 -74t51.5 -48t66 -17q29 0 54.5 12t42.5 35v341q-16 33 -48 49.5t-70 16.5z" />
    <glyph glyph-name="ebreve" unicode="&#x115;" horiz-adv-x="536" 
d="M278 -13q-61 0 -106 21t-75 58t-44.5 87.5t-14.5 109.5t19.5 110.5t53 90t78.5 61t96 22.5q40 0 76 -13.5t64 -40.5t45.5 -67.5t20.5 -95.5h-358v-5q0 -56 13 -101.5t38 -78.5t61 -51t82 -18q57 0 96.5 20.5t64.5 44.5l12 -10q-15 -26 -35.5 -51.5t-48 -46t-62 -33.5
t-76.5 -13zM266 510q-49 0 -85.5 -33.5t-45.5 -107.5h235q1 28 -5 54t-19 45t-33 30.5t-47 11.5zM286 663q46 0 68.5 26t25.5 73h51q0 -25 -8.5 -50t-26 -45.5t-45 -33t-65.5 -12.5t-65 12.5t-45 33t-26.5 45.5t-8.5 50h51q4 -47 26 -73t68 -26z" />
    <glyph glyph-name="ecaron" unicode="&#x11b;" horiz-adv-x="536" 
d="M277 603l-158 169h19l145 -81l145 81h20l-158 -169h-13zM278 -13q-61 0 -106 21t-75 58t-44.5 87.5t-14.5 109.5t19.5 110.5t53 90t78.5 61t96 22.5q40 0 76 -13.5t64 -40.5t45.5 -67.5t20.5 -95.5h-358v-5q0 -56 13 -101.5t38 -78.5t61 -51t82 -18q57 0 96.5 20.5
t64.5 44.5l12 -10q-15 -26 -35.5 -51.5t-48 -46t-62 -33.5t-76.5 -13zM266 510q-49 0 -85.5 -33.5t-45.5 -107.5h235q1 28 -5 54t-19 45t-33 30.5t-47 11.5z" />
    <glyph glyph-name="emacron" unicode="&#x113;" horiz-adv-x="536" 
d="M278 -13q-61 0 -106 21t-75 58t-44.5 87.5t-14.5 109.5t19.5 110.5t53 90t78.5 61t96 22.5q40 0 76 -13.5t64 -40.5t45.5 -67.5t20.5 -95.5h-358v-5q0 -56 13 -101.5t38 -78.5t61 -51t82 -18q57 0 96.5 20.5t64.5 44.5l12 -10q-15 -26 -35.5 -51.5t-48 -46t-62 -33.5
t-76.5 -13zM266 510q-49 0 -85.5 -33.5t-45.5 -107.5h235q1 28 -5 54t-19 45t-33 30.5t-47 11.5zM134 665v68h296v-68h-296z" />
    <glyph glyph-name="eogonek" unicode="&#x119;" horiz-adv-x="536" 
d="M403 -171q-23 -23 -52 -36t-57 -13q-17 0 -33.5 4.5t-29.5 14.5t-21 25.5t-8 37.5q0 21 12 41t30.5 38t41.5 33.5t45 27.5h23q-32 -22 -53.5 -52.5t-21.5 -61.5q0 -30 17.5 -47t42.5 -17q16 0 29.5 3.5t28.5 11.5zM278 -13q-61 0 -106 21t-75 58t-44.5 87.5t-14.5 109.5
t19.5 110.5t53 90t78.5 61t96 22.5q40 0 76 -13.5t64 -40.5t45.5 -67.5t20.5 -95.5h-358v-5q0 -56 13 -101.5t38 -78.5t61 -51t82 -18q57 0 96.5 20.5t64.5 44.5l12 -10q-15 -26 -35.5 -51.5t-48 -46t-62 -33.5t-76.5 -13zM266 510q-49 0 -85.5 -33.5t-45.5 -107.5h235
q1 28 -5 54t-19 45t-33 30.5t-47 11.5z" />
    <glyph glyph-name="edotaccent" unicode="&#x117;" horiz-adv-x="536" 
d="M278 -13q-61 0 -106 21t-75 58t-44.5 87.5t-14.5 109.5t19.5 110.5t53 90t78.5 61t96 22.5q40 0 76 -13.5t64 -40.5t45.5 -67.5t20.5 -95.5h-358v-5q0 -56 13 -101.5t38 -78.5t61 -51t82 -18q57 0 96.5 20.5t64.5 44.5l12 -10q-15 -26 -35.5 -51.5t-48 -46t-62 -33.5
t-76.5 -13zM266 510q-49 0 -85.5 -33.5t-45.5 -107.5h235q1 28 -5 54t-19 45t-33 30.5t-47 11.5zM217 709q0 27 18 45t46 18q26 0 44 -18t18 -45q0 -29 -18 -47t-44 -18q-28 0 -46 18t-18 47z" />
    <glyph glyph-name="gbreve" unicode="&#x11f;" horiz-adv-x="598" 
d="M273 209q-19 0 -36 1.5t-33 6.5q-25 -21 -39 -42t-14 -35q0 -19 17.5 -27t49.5 -10l105 -5q45 -2 86.5 -10t73 -24t50 -41t18.5 -59q0 -26 -15.5 -58t-50 -60.5t-90 -48t-134.5 -19.5q-52 0 -94 10t-72 27t-46 40t-16 49q0 40 36 65.5t101 41.5q-45 8 -70.5 30t-25.5 55
q0 40 30 68.5t74 60.5q-52 20 -81.5 59.5t-29.5 93.5q0 37 15 68t42 53.5t64.5 35t83.5 12.5q35 0 65.5 -7.5t55.5 -21.5h172v-43h-120q33 -42 33 -97q0 -37 -15 -68t-42 -53.5t-64.5 -35t-83.5 -12.5zM202 8h-1q-37 -14 -55 -39t-18 -51q0 -25 14.5 -43.5t39 -30.5
t56.5 -18t67 -6q36 0 68 7.5t55 21.5t36.5 34t13.5 46q0 41 -37 56.5t-98 17.5zM278 242q45 0 72 29t27 86q0 29 -7 57.5t-21 50.5t-34.5 35.5t-47.5 13.5q-45 0 -72 -29t-27 -86q0 -29 7 -57.5t21 -50.5t34.5 -35.5t47.5 -13.5zM282 663q46 0 68.5 26t25.5 73h51
q0 -25 -8.5 -50t-26 -45.5t-45 -33t-65.5 -12.5t-65 12.5t-45 33t-26.5 45.5t-8.5 50h51q4 -47 26 -73t68 -26z" />
    <glyph glyph-name="gcircumflex" unicode="&#x11d;" horiz-adv-x="598" 
d="M444 603h-20l-145 81l-145 -81h-19l158 169h13zM273 209q-19 0 -36 1.5t-33 6.5q-25 -21 -39 -42t-14 -35q0 -19 17.5 -27t49.5 -10l105 -5q45 -2 86.5 -10t73 -24t50 -41t18.5 -59q0 -26 -15.5 -58t-50 -60.5t-90 -48t-134.5 -19.5q-52 0 -94 10t-72 27t-46 40t-16 49
q0 40 36 65.5t101 41.5q-45 8 -70.5 30t-25.5 55q0 40 30 68.5t74 60.5q-52 20 -81.5 59.5t-29.5 93.5q0 37 15 68t42 53.5t64.5 35t83.5 12.5q35 0 65.5 -7.5t55.5 -21.5h172v-43h-120q33 -42 33 -97q0 -37 -15 -68t-42 -53.5t-64.5 -35t-83.5 -12.5zM202 8h-1
q-37 -14 -55 -39t-18 -51q0 -25 14.5 -43.5t39 -30.5t56.5 -18t67 -6q36 0 68 7.5t55 21.5t36.5 34t13.5 46q0 41 -37 56.5t-98 17.5zM278 242q45 0 72 29t27 86q0 29 -7 57.5t-21 50.5t-34.5 35.5t-47.5 13.5q-45 0 -72 -29t-27 -86q0 -29 7 -57.5t21 -50.5t34.5 -35.5
t47.5 -13.5z" />
    <glyph glyph-name="gcommaaccent" unicode="&#x123;" horiz-adv-x="598" 
d="M336 669q0 -26 -18 -44t-44 -18q-28 0 -44 19.5t-16 49.5q0 28 10.5 56t28.5 53t42.5 45.5t51.5 33.5l6 -10q-14 -11 -28 -24.5t-25 -29.5t-18 -34.5t-7 -38.5q24 -1 42.5 -17t18.5 -41zM273 209q-19 0 -36 1.5t-33 6.5q-25 -21 -39 -42t-14 -35q0 -19 17.5 -27t49.5 -10
l105 -5q45 -2 86.5 -10t73 -24t50 -41t18.5 -59q0 -26 -15.5 -58t-50 -60.5t-90 -48t-134.5 -19.5q-52 0 -94 10t-72 27t-46 40t-16 49q0 40 36 65.5t101 41.5q-45 8 -70.5 30t-25.5 55q0 40 30 68.5t74 60.5q-52 20 -81.5 59.5t-29.5 93.5q0 37 15 68t42 53.5t64.5 35
t83.5 12.5q35 0 65.5 -7.5t55.5 -21.5h172v-43h-120q33 -42 33 -97q0 -37 -15 -68t-42 -53.5t-64.5 -35t-83.5 -12.5zM202 8h-1q-37 -14 -55 -39t-18 -51q0 -25 14.5 -43.5t39 -30.5t56.5 -18t67 -6q36 0 68 7.5t55 21.5t36.5 34t13.5 46q0 41 -37 56.5t-98 17.5zM278 242
q45 0 72 29t27 86q0 29 -7 57.5t-21 50.5t-34.5 35.5t-47.5 13.5q-45 0 -72 -29t-27 -86q0 -29 7 -57.5t21 -50.5t34.5 -35.5t47.5 -13.5z" />
    <glyph glyph-name="gdotaccent" unicode="&#x121;" horiz-adv-x="598" 
d="M273 209q-19 0 -36 1.5t-33 6.5q-25 -21 -39 -42t-14 -35q0 -19 17.5 -27t49.5 -10l105 -5q45 -2 86.5 -10t73 -24t50 -41t18.5 -59q0 -26 -15.5 -58t-50 -60.5t-90 -48t-134.5 -19.5q-52 0 -94 10t-72 27t-46 40t-16 49q0 40 36 65.5t101 41.5q-45 8 -70.5 30t-25.5 55
q0 40 30 68.5t74 60.5q-52 20 -81.5 59.5t-29.5 93.5q0 37 15 68t42 53.5t64.5 35t83.5 12.5q35 0 65.5 -7.5t55.5 -21.5h172v-43h-120q33 -42 33 -97q0 -37 -15 -68t-42 -53.5t-64.5 -35t-83.5 -12.5zM202 8h-1q-37 -14 -55 -39t-18 -51q0 -25 14.5 -43.5t39 -30.5
t56.5 -18t67 -6q36 0 68 7.5t55 21.5t36.5 34t13.5 46q0 41 -37 56.5t-98 17.5zM278 242q45 0 72 29t27 86q0 29 -7 57.5t-21 50.5t-34.5 35.5t-47.5 13.5q-45 0 -72 -29t-27 -86q0 -29 7 -57.5t21 -50.5t34.5 -35.5t47.5 -13.5zM209 709q0 27 18 45t46 18q26 0 44 -18
t18 -45q0 -29 -18 -47t-44 -18q-28 0 -46 18t-18 47z" />
    <glyph glyph-name="hbar" unicode="&#x127;" horiz-adv-x="614" 
d="M207 455q14 17 30 33.5t35.5 29.5t42.5 21t51 8q33 0 61 -11t48.5 -34.5t32.5 -59.5t12 -85v-213q0 -39 1.5 -62t9 -36t23.5 -19t46 -9v-18h-264v18q29 3 44.5 9t23 19t9 36t1.5 62v192q0 138 -102 138q-30 0 -59.5 -11.5t-45.5 -34.5v-284q0 -39 1.5 -62t9 -36t23 -19
t44.5 -9v-18h-264v18q30 3 46 9t23.5 19t9 36t1.5 62v453h-70v40h70v8q0 36 -1.5 56t-9 29t-24 11t-45.5 2v18l188 62q-1 -35 -1.5 -79.5t-0.5 -106.5h167v-40h-167v-142v0z" />
    <glyph glyph-name="hcircumflex" unicode="&#x125;" horiz-adv-x="608" 
d="M202 455q14 17 30 33.5t35.5 29.5t42.5 21t51 8q33 0 61 -11t48.5 -34.5t32.5 -59.5t12 -85v-213q0 -39 1.5 -62t9 -36t23.5 -19t46 -9v-18h-264v18q29 3 44.5 9t23 19t9 36t1.5 62v192q0 138 -102 138q-30 0 -59.5 -11.5t-45.5 -34.5v-284q0 -39 1.5 -62t9 -36t23 -19
t44.5 -9v-18h-264v18q30 3 46 9t23.5 19t9 36t1.5 62v501q0 36 -1.5 56t-9 29t-24 11t-45.5 2v18l188 62q-1 -40 -1.5 -91t-0.5 -128v-149v0zM161 957l145 -139h-23l-130 59l-130 -59h-23l145 139h16z" />
    <glyph glyph-name="dotlessi" unicode="&#x131;" horiz-adv-x="339" 
d="M226 144q0 -39 1.5 -62t9 -36t23.5 -19t46 -9v-18h-266v18q30 3 46 9t23.5 19t9 36t1.5 62v222q0 37 -1.5 57.5t-9 30t-23.5 11.5t-46 2v18l188 62q-1 -40 -1.5 -91t-0.5 -128v-184z" />
    <glyph glyph-name="ibreve" unicode="&#x12d;" horiz-adv-x="339" 
d="M226 144q0 -39 1.5 -62t9 -36t23.5 -19t46 -9v-18h-266v18q30 3 46 9t23.5 19t9 36t1.5 62v222q0 37 -1.5 57.5t-9 30t-23.5 11.5t-46 2v18l188 62q-1 -40 -1.5 -91t-0.5 -128v-184zM167 663q46 0 68.5 26t25.5 73h51q0 -25 -8.5 -50t-26 -45.5t-45 -33t-65.5 -12.5
t-65 12.5t-45 33t-26.5 45.5t-8.5 50h51q4 -47 26 -73t68 -26z" />
    <glyph glyph-name="imacron" unicode="&#x12b;" horiz-adv-x="339" 
d="M226 144q0 -39 1.5 -62t9 -36t23.5 -19t46 -9v-18h-266v18q30 3 46 9t23.5 19t9 36t1.5 62v222q0 37 -1.5 57.5t-9 30t-23.5 11.5t-46 2v18l188 62q-1 -40 -1.5 -91t-0.5 -128v-184zM15 665v68h296v-68h-296z" />
    <glyph glyph-name="iogonek" unicode="&#x12f;" horiz-adv-x="339" 
d="M257 -171q-23 -23 -52 -36t-57 -13q-17 0 -33.5 4.5t-29.5 14.5t-21 25.5t-8 37.5q0 21 12 41t30.5 38t41.5 33.5t45 27.5h23q-32 -22 -53.5 -52.5t-21.5 -61.5q0 -30 17.5 -47t42.5 -17q16 0 29.5 3.5t28.5 11.5zM226 144q0 -39 1.5 -62t9 -36t23.5 -19t46 -9v-18h-266
v18q30 3 46 9t23.5 19t9 36t1.5 62v222q0 37 -1.5 57.5t-9 30t-23.5 11.5t-46 2v18l188 62q-1 -40 -1.5 -91t-0.5 -128v-184zM168 668q-30 0 -52 20t-22 51q0 29 22 49.5t52 20.5q31 0 52 -20.5t21 -49.5q0 -31 -21 -51t-52 -20z" />
    <glyph glyph-name="itilde" unicode="&#x129;" horiz-adv-x="339" 
d="M226 144q0 -39 1.5 -62t9 -36t23.5 -19t46 -9v-18h-266v18q30 3 46 9t23.5 19t9 36t1.5 62v222q0 37 -1.5 57.5t-9 30t-23.5 11.5t-46 2v18l188 62q-1 -40 -1.5 -91t-0.5 -128v-184zM-2 635q0 23 5.5 47t16.5 44t29 32.5t43 12.5q21 0 41 -10t39 -21.5t36.5 -21.5
t34.5 -10q27 0 40 14t15 46h19q0 -41 -8 -66.5t-20 -39.5t-27 -19.5t-31 -5.5q-25 0 -45.5 10t-39 21.5t-36 21.5t-37.5 10q-24 0 -39 -17t-17 -48h-19z" />
    <glyph glyph-name="uni1ECB" unicode="&#x1ecb;" horiz-adv-x="339" 
d="M103 -158q0 27 18 45t46 18q26 0 44 -18t18 -45q0 -29 -18 -46.5t-44 -17.5q-28 0 -46 17.5t-18 46.5zM226 144q0 -39 1.5 -62t9 -36t23.5 -19t46 -9v-18h-266v18q30 3 46 9t23.5 19t9 36t1.5 62v222q0 37 -1.5 57.5t-9 30t-23.5 11.5t-46 2v18l188 62q-1 -40 -1.5 -91
t-0.5 -128v-184zM168 668q-30 0 -52 20t-22 51q0 29 22 49.5t52 20.5q31 0 52 -20.5t21 -49.5q0 -31 -21 -51t-52 -20z" />
    <glyph glyph-name="dotlessj" unicode="&#x237;" horiz-adv-x="307" 
d="M109 366q0 37 -1.5 57.5t-9 30t-24 11.5t-45.5 2v18l188 62q-1 -40 -1.5 -91t-0.5 -128v-231q0 -53 -8 -98.5t-29.5 -86.5t-60 -77t-99.5 -69l-8 10q33 35 52.5 70.5t30 73t13.5 77.5t3 84v285v0z" />
    <glyph glyph-name="jcircumflex" unicode="&#x135;" horiz-adv-x="307" 
d="M319 603h-20l-145 81l-145 -81h-19l158 169h13zM109 366q0 37 -1.5 57.5t-9 30t-24 11.5t-45.5 2v18l188 62q-1 -40 -1.5 -91t-0.5 -128v-231q0 -53 -8 -98.5t-29.5 -86.5t-60 -77t-99.5 -69l-8 10q33 35 52.5 70.5t30 73t13.5 77.5t3 84v285v0z" />
    <glyph glyph-name="kcommaaccent" unicode="&#x137;" horiz-adv-x="631" 
d="M236 -116q0 26 18.5 43.5t44.5 17.5q28 0 43.5 -19t15.5 -49q0 -28 -10.5 -55.5t-28.5 -52.5t-42 -46t-52 -34l-5 10q28 21 52.5 53.5t24.5 73.5q-23 2 -42 17.5t-19 40.5zM97 645q0 36 -1.5 56t-9 29t-24 11t-45.5 2v18l188 62q-1 -40 -1.5 -91t-0.5 -128v-460
q0 -39 1.5 -62t9 -36t23.5 -19t46 -9v-18h-266v18q30 3 46 9t23.5 19t9 36t1.5 62v501zM354 18q27 1 40 6t14.5 14t-6.5 21t-22 29l-174 203l170 142q20 16 33.5 31.5t16 27.5t-9.5 19.5t-44 8.5v18h230v-18q-25 0 -44.5 -5.5t-38.5 -16t-40 -27t-48 -38.5l-126 -102
l219 -255q24 -28 47 -42t56 -16v-18h-273v18z" />
    <glyph glyph-name="lacute" unicode="&#x13a;" horiz-adv-x="336" 
d="M105 813h-21l83 129h157zM121 645q0 36 -1.5 56t-9 29t-24 11t-45.5 2v18l188 62q-1 -40 -1.5 -91t-0.5 -128v-460q0 -39 1.5 -62t9 -36t23.5 -19t46 -9v-18h-266v18q30 3 46 9t23.5 19t9 36t1.5 62v501v0z" />
    <glyph glyph-name="lcaron" unicode="&#x13e;" horiz-adv-x="380" 
d="M301 750q0 26 18.5 43.5t44.5 17.5q28 0 43.5 -19t15.5 -49q0 -28 -10.5 -55.5t-28.5 -52.5t-42 -46t-52 -34l-5 10q28 21 52.5 53.5t24.5 73.5q-23 2 -42 17.5t-19 40.5zM121 645q0 36 -1.5 56t-9 29t-24 11t-45.5 2v18l188 62q-1 -40 -1.5 -91t-0.5 -128v-460
q0 -39 1.5 -62t9 -36t23.5 -19t46 -9v-18h-266v18q30 3 46 9t23.5 19t9 36t1.5 62v501v0z" />
    <glyph glyph-name="lcommaaccent" unicode="&#x13c;" horiz-adv-x="336" 
d="M99 -116q0 26 18.5 43.5t44.5 17.5q28 0 43.5 -19t15.5 -49q0 -28 -10.5 -55.5t-28.5 -52.5t-42 -46t-52 -34l-5 10q28 21 52.5 53.5t24.5 73.5q-23 2 -42 17.5t-19 40.5zM121 645q0 36 -1.5 56t-9 29t-24 11t-45.5 2v18l188 62q-1 -40 -1.5 -91t-0.5 -128v-460
q0 -39 1.5 -62t9 -36t23.5 -19t46 -9v-18h-266v18q30 3 46 9t23.5 19t9 36t1.5 62v501v0z" />
    <glyph glyph-name="ldot" unicode="&#x140;" horiz-adv-x="417" 
d="M307 446q0 27 17.5 45.5t45.5 18.5q26 0 44 -18.5t18 -45.5q0 -28 -18 -46t-44 -18q-28 0 -45.5 18t-17.5 46zM121 645q0 36 -1.5 56t-9 29t-24 11t-45.5 2v18l188 62q-1 -40 -1.5 -91t-0.5 -128v-460q0 -39 1.5 -62t9 -36t23.5 -19t46 -9v-18h-266v18q30 3 46 9t23.5 19
t9 36t1.5 62v501v0z" />
    <glyph glyph-name="lslash" unicode="&#x142;" horiz-adv-x="345" 
d="M127 645q0 36 -1.5 56t-9 29t-24 11t-45.5 2v18l188 62q-1 -40 -1.5 -91t-0.5 -128v-162l81 42l21 -41l-102 -53v-246q0 -39 1.5 -62t9 -36t23.5 -19t46 -9v-18h-266v18q30 3 46 9t23.5 19t9 36t1.5 62v192l-95 -49l-21 41l116 59v258v0z" />
    <glyph glyph-name="eng" unicode="&#x14b;" horiz-adv-x="591" 
d="M511 97q0 -53 -7.5 -98.5t-29.5 -86.5t-60.5 -77t-99.5 -69l-8 10q33 35 53 70.5t30 73t13 77.5t3 84v255q0 70 -22.5 104t-74.5 34q-32 0 -60 -10.5t-45 -33.5v-286q0 -39 1.5 -62t9 -36t23 -19t44.5 -9v-18h-264v18q30 3 46 9t23.5 19t9 36t1.5 62v210q0 37 -1.5 59
t-9 34t-23.5 16t-46 4v18l185 62l1 -89q26 37 64 63t95 26q33 0 60 -11t47 -34.5t31 -59.5t11 -85v-260v0z" />
    <glyph glyph-name="nacute" unicode="&#x144;" horiz-adv-x="607" 
d="M495 772l-186 -169h-16l73 169h129zM17 485l185 62l1 -92q14 17 30 33.5t35.5 29.5t42.5 21t51 8q33 0 60.5 -11t48 -34.5t32 -59.5t11.5 -85v-213q0 -39 1.5 -62t9 -36t23.5 -19t46 -9v-18h-264v18q29 3 44.5 9t23 19t9 36t1.5 62v192q0 70 -24 104t-76 34
q-30 0 -59 -11.5t-46 -34.5v-284q0 -39 1.5 -62t9 -36t23 -19t44.5 -9v-18h-264v18q30 3 46 9t23.5 19t9 36t1.5 62v225q0 36 -1.5 56t-9 29t-23.5 11t-46 2v18z" />
    <glyph glyph-name="ncaron" unicode="&#x148;" horiz-adv-x="607" 
d="M306 603l-158 169h19l145 -81l145 81h20l-158 -169h-13zM17 485l185 62l1 -92q14 17 30 33.5t35.5 29.5t42.5 21t51 8q33 0 60.5 -11t48 -34.5t32 -59.5t11.5 -85v-213q0 -39 1.5 -62t9 -36t23.5 -19t46 -9v-18h-264v18q29 3 44.5 9t23 19t9 36t1.5 62v192q0 70 -24 104
t-76 34q-30 0 -59 -11.5t-46 -34.5v-284q0 -39 1.5 -62t9 -36t23 -19t44.5 -9v-18h-264v18q30 3 46 9t23.5 19t9 36t1.5 62v225q0 36 -1.5 56t-9 29t-23.5 11t-46 2v18z" />
    <glyph glyph-name="ncommaaccent" unicode="&#x146;" horiz-adv-x="607" 
d="M238 -116q0 26 18.5 43.5t44.5 17.5q28 0 43.5 -19t15.5 -49q0 -28 -10.5 -55.5t-28.5 -52.5t-42 -46t-52 -34l-5 10q28 21 52.5 53.5t24.5 73.5q-23 2 -42 17.5t-19 40.5zM17 485l185 62l1 -92q14 17 30 33.5t35.5 29.5t42.5 21t51 8q33 0 60.5 -11t48 -34.5t32 -59.5
t11.5 -85v-213q0 -39 1.5 -62t9 -36t23.5 -19t46 -9v-18h-264v18q29 3 44.5 9t23 19t9 36t1.5 62v192q0 70 -24 104t-76 34q-30 0 -59 -11.5t-46 -34.5v-284q0 -39 1.5 -62t9 -36t23 -19t44.5 -9v-18h-264v18q30 3 46 9t23.5 19t9 36t1.5 62v225q0 36 -1.5 56t-9 29
t-23.5 11t-46 2v18z" />
    <glyph glyph-name="oe" unicode="&#x153;" horiz-adv-x="968" 
d="M710 -13q-69 0 -117 26t-77 71q-37 -45 -89 -71t-114 -26q-54 0 -103.5 20.5t-87.5 58t-60.5 89t-22.5 113.5q0 58 20.5 109t56.5 88.5t85 59.5t105 22q65 0 118.5 -33t88.5 -88q40 61 92.5 91t111.5 30q40 0 76 -13.5t64 -40.5t45.5 -67.5t20.5 -95.5h-358v-5
q0 -56 13 -101.5t38 -78.5t61 -51t82 -18q57 0 96.5 20.5t64.5 44.5l12 -10q-15 -26 -35.5 -51.5t-48 -46t-62 -33.5t-76.5 -13zM698 510q-49 0 -85.5 -33.5t-45.5 -107.5h235q1 28 -5 54t-19 45t-33 30.5t-47 11.5zM296 508q-72 0 -107.5 -55t-35.5 -150q0 -37 9 -85
t29.5 -90.5t53.5 -72t80 -29.5q71 0 105.5 55.5t34.5 150.5q0 37 -9 84.5t-29 90t-52 72t-79 29.5z" />
    <glyph glyph-name="obreve" unicode="&#x14f;" horiz-adv-x="624" 
d="M296 508q-72 0 -107.5 -55t-35.5 -150q0 -37 9 -85t29.5 -90.5t53.5 -72t80 -29.5q71 0 105.5 55.5t34.5 150.5q0 37 -9 84.5t-29 90t-52 72t-79 29.5zM306 547q54 0 103.5 -20.5t87.5 -57.5t60.5 -88.5t22.5 -112.5q0 -59 -21 -110t-57 -89t-84.5 -60t-104.5 -22
q-54 0 -103.5 20.5t-87.5 58t-60.5 89t-22.5 113.5q0 58 20.5 109t56.5 88.5t85 59.5t105 22zM312 663q46 0 68.5 26t25.5 73h51q0 -25 -8.5 -50t-26 -45.5t-45 -33t-65.5 -12.5t-65 12.5t-45 33t-26.5 45.5t-8.5 50h51q4 -47 26 -73t68 -26z" />
    <glyph glyph-name="ohungarumlaut" unicode="&#x151;" horiz-adv-x="624" 
d="M560 772l-186 -161h-16l73 161h129zM384 772l-186 -161h-16l73 161h129zM296 508q-72 0 -107.5 -55t-35.5 -150q0 -37 9 -85t29.5 -90.5t53.5 -72t80 -29.5q71 0 105.5 55.5t34.5 150.5q0 37 -9 84.5t-29 90t-52 72t-79 29.5zM306 547q54 0 103.5 -20.5t87.5 -57.5
t60.5 -88.5t22.5 -112.5q0 -59 -21 -110t-57 -89t-84.5 -60t-104.5 -22q-54 0 -103.5 20.5t-87.5 58t-60.5 89t-22.5 113.5q0 58 20.5 109t56.5 88.5t85 59.5t105 22z" />
    <glyph glyph-name="omacron" unicode="&#x14d;" horiz-adv-x="624" 
d="M161 665v68h296v-68h-296zM296 508q-72 0 -107.5 -55t-35.5 -150q0 -37 9 -85t29.5 -90.5t53.5 -72t80 -29.5q71 0 105.5 55.5t34.5 150.5q0 37 -9 84.5t-29 90t-52 72t-79 29.5zM306 547q54 0 103.5 -20.5t87.5 -57.5t60.5 -88.5t22.5 -112.5q0 -59 -21 -110t-57 -89
t-84.5 -60t-104.5 -22q-54 0 -103.5 20.5t-87.5 58t-60.5 89t-22.5 113.5q0 58 20.5 109t56.5 88.5t85 59.5t105 22z" />
    <glyph glyph-name="uni1ECD" unicode="&#x1ecd;" horiz-adv-x="624" 
d="M254 -158q0 27 18 45t46 18q26 0 44 -18t18 -45q0 -29 -18 -46.5t-44 -17.5q-28 0 -46 17.5t-18 46.5zM296 508q-72 0 -107.5 -55t-35.5 -150q0 -37 9 -85t29.5 -90.5t53.5 -72t80 -29.5q71 0 105.5 55.5t34.5 150.5q0 37 -9 84.5t-29 90t-52 72t-79 29.5zM306 547
q54 0 103.5 -20.5t87.5 -57.5t60.5 -88.5t22.5 -112.5q0 -59 -21 -110t-57 -89t-84.5 -60t-104.5 -22q-54 0 -103.5 20.5t-87.5 58t-60.5 89t-22.5 113.5q0 58 20.5 109t56.5 88.5t85 59.5t105 22z" />
    <glyph glyph-name="racute" unicode="&#x155;" horiz-adv-x="435" 
d="M431 772l-186 -169h-16l73 169h129zM18 18q30 3 46 9t23.5 19t9 36t1.5 62v224q0 37 -1.5 57t-9 29t-24 11t-45.5 2v18l184 62l2 -104q14 18 30 36.5t34 34t38 25t44 9.5q34 0 54.5 -18t20.5 -48q0 -26 -17 -45t-45 -19q-11 0 -17.5 3t-16.5 12l-32 31q-5 5 -8.5 7
t-8.5 2q-13 0 -34.5 -16.5t-41.5 -42.5v-270q0 -42 2.5 -66t14 -36t35.5 -16t67 -7v-19h-305v18z" />
    <glyph glyph-name="rcaron" unicode="&#x159;" horiz-adv-x="435" 
d="M257 603l-158 169h19l145 -81l145 81h20l-158 -169h-13zM18 18q30 3 46 9t23.5 19t9 36t1.5 62v224q0 37 -1.5 57t-9 29t-24 11t-45.5 2v18l184 62l2 -104q14 18 30 36.5t34 34t38 25t44 9.5q34 0 54.5 -18t20.5 -48q0 -26 -17 -45t-45 -19q-11 0 -17.5 3t-16.5 12
l-32 31q-5 5 -8.5 7t-8.5 2q-13 0 -34.5 -16.5t-41.5 -42.5v-270q0 -42 2.5 -66t14 -36t35.5 -16t67 -7v-19h-305v18z" />
    <glyph glyph-name="rcommaaccent" unicode="&#x157;" horiz-adv-x="435" 
d="M83 -116q0 26 18.5 43.5t44.5 17.5q28 0 43.5 -19t15.5 -49q0 -28 -10.5 -55.5t-28.5 -52.5t-42 -46t-52 -34l-5 10q28 21 52.5 53.5t24.5 73.5q-23 2 -42 17.5t-19 40.5zM18 18q30 3 46 9t23.5 19t9 36t1.5 62v224q0 37 -1.5 57t-9 29t-24 11t-45.5 2v18l184 62l2 -104
q14 18 30 36.5t34 34t38 25t44 9.5q34 0 54.5 -18t20.5 -48q0 -26 -17 -45t-45 -19q-11 0 -17.5 3t-16.5 12l-32 31q-5 5 -8.5 7t-8.5 2q-13 0 -34.5 -16.5t-41.5 -42.5v-270q0 -42 2.5 -66t14 -36t35.5 -16t67 -7v-19h-305v18z" />
    <glyph glyph-name="sacute" unicode="&#x15b;" horiz-adv-x="473" 
d="M416 772l-186 -169h-16l73 169h129zM256 547q14 0 31.5 -1.5t35.5 -4.5t34.5 -7.5t28.5 -10.5l1 -152h-21q-14 72 -48 104t-83 32q-38 0 -66 -18.5t-28 -51.5q0 -32 23.5 -52t58.5 -38l56 -30q32 -17 57.5 -33t43.5 -35.5t27.5 -44t9.5 -57.5q0 -38 -16.5 -68t-44 -50.5
t-63 -31t-72.5 -10.5q-19 0 -40 2.5t-42.5 7.5t-41.5 12t-36 15v188h19q13 -95 50 -137.5t97 -42.5q19 0 38 4.5t34 15t24 26.5t9 40q0 32 -23.5 54t-65.5 43l-56 30q-27 15 -50 29.5t-39.5 33t-26 41.5t-9.5 54q0 38 18.5 65t47 44.5t62.5 26t66 8.5z" />
    <glyph glyph-name="scaron" unicode="&#x161;" horiz-adv-x="473" 
d="M244 603l-158 169h19l145 -81l145 81h20l-158 -169h-13zM256 547q14 0 31.5 -1.5t35.5 -4.5t34.5 -7.5t28.5 -10.5l1 -152h-21q-14 72 -48 104t-83 32q-38 0 -66 -18.5t-28 -51.5q0 -32 23.5 -52t58.5 -38l56 -30q32 -17 57.5 -33t43.5 -35.5t27.5 -44t9.5 -57.5
q0 -38 -16.5 -68t-44 -50.5t-63 -31t-72.5 -10.5q-19 0 -40 2.5t-42.5 7.5t-41.5 12t-36 15v188h19q13 -95 50 -137.5t97 -42.5q19 0 38 4.5t34 15t24 26.5t9 40q0 32 -23.5 54t-65.5 43l-56 30q-27 15 -50 29.5t-39.5 33t-26 41.5t-9.5 54q0 38 18.5 65t47 44.5t62.5 26
t66 8.5z" />
    <glyph glyph-name="scedilla" unicode="&#x15f;" horiz-adv-x="473" 
d="M256 547q14 0 31.5 -1.5t35.5 -4.5t34.5 -7.5t28.5 -10.5l1 -152h-21q-14 72 -48 104t-83 32q-38 0 -66 -18.5t-28 -51.5q0 -32 23.5 -52t58.5 -38l56 -30q32 -17 57.5 -33t43.5 -35.5t27.5 -44t9.5 -57.5q0 -38 -16.5 -68t-44 -50.5t-63 -31t-72.5 -10.5q-19 0 -40 2.5
t-42.5 7.5t-41.5 12t-36 15v188h19q13 -95 50 -137.5t97 -42.5q19 0 38 4.5t34 15t24 26.5t9 40q0 32 -23.5 54t-65.5 43l-56 30q-27 15 -50 29.5t-39.5 33t-26 41.5t-9.5 54q0 38 18.5 65t47 44.5t62.5 26t66 8.5zM209 3h37l-51 -86q11 5 22 7t20 2q35 0 56 -21t21 -50
q0 -25 -10.5 -43t-26.5 -29t-35 -16.5t-37 -5.5q-35 0 -57.5 9.5t-39.5 19.5l10 22q13 -6 30.5 -10t33.5 -4q28 0 45.5 12t17.5 35q0 17 -11 27t-26.5 13.5t-32.5 0.5t-30 -10l-9 5z" />
    <glyph glyph-name="scircumflex" unicode="&#x15d;" horiz-adv-x="473" 
d="M410 603h-20l-145 81l-145 -81h-19l158 169h13zM256 547q14 0 31.5 -1.5t35.5 -4.5t34.5 -7.5t28.5 -10.5l1 -152h-21q-14 72 -48 104t-83 32q-38 0 -66 -18.5t-28 -51.5q0 -32 23.5 -52t58.5 -38l56 -30q32 -17 57.5 -33t43.5 -35.5t27.5 -44t9.5 -57.5q0 -38 -16.5 -68
t-44 -50.5t-63 -31t-72.5 -10.5q-19 0 -40 2.5t-42.5 7.5t-41.5 12t-36 15v188h19q13 -95 50 -137.5t97 -42.5q19 0 38 4.5t34 15t24 26.5t9 40q0 32 -23.5 54t-65.5 43l-56 30q-27 15 -50 29.5t-39.5 33t-26 41.5t-9.5 54q0 38 18.5 65t47 44.5t62.5 26t66 8.5z" />
    <glyph glyph-name="scommaaccent" unicode="&#x219;" horiz-adv-x="473" 
d="M173 -116q0 26 18.5 43.5t44.5 17.5q28 0 43.5 -19t15.5 -49q0 -28 -10.5 -55.5t-28.5 -52.5t-42 -46t-52 -34l-5 10q28 21 52.5 53.5t24.5 73.5q-23 2 -42 17.5t-19 40.5zM256 547q14 0 31.5 -1.5t35.5 -4.5t34.5 -7.5t28.5 -10.5l1 -152h-21q-14 72 -48 104t-83 32
q-38 0 -66 -18.5t-28 -51.5q0 -32 23.5 -52t58.5 -38l56 -30q32 -17 57.5 -33t43.5 -35.5t27.5 -44t9.5 -57.5q0 -38 -16.5 -68t-44 -50.5t-63 -31t-72.5 -10.5q-19 0 -40 2.5t-42.5 7.5t-41.5 12t-36 15v188h19q13 -95 50 -137.5t97 -42.5q19 0 38 4.5t34 15t24 26.5t9 40
q0 32 -23.5 54t-65.5 43l-56 30q-27 15 -50 29.5t-39.5 33t-26 41.5t-9.5 54q0 38 18.5 65t47 44.5t62.5 26t66 8.5z" />
    <glyph glyph-name="tbar" unicode="&#x167;" horiz-adv-x="372" 
d="M222 -13q-60 0 -92.5 35t-32.5 120v191h-87v40h87v125h-87v40h88v90l105 73v-163h130v-40h-130v-125h130v-40h-130v-172q0 -57 14 -81.5t55 -24.5q19 0 39 7t39 24l9 -9q-11 -17 -23.5 -33t-29 -29t-37 -20.5t-47.5 -7.5z" />
    <glyph glyph-name="tcaron" unicode="&#x165;" horiz-adv-x="442" 
d="M356 750q0 26 18.5 43.5t44.5 17.5q28 0 43.5 -19t15.5 -49q0 -28 -10.5 -55.5t-28.5 -52.5t-42 -46t-52 -34l-5 10q28 21 52.5 53.5t24.5 73.5q-23 2 -42 17.5t-19 40.5zM208 -13q-60 0 -92.5 35t-32.5 120v356h-87v40h88v90l105 73v-163h130v-40h-130v-337
q0 -57 14 -81.5t55 -24.5q19 0 39 7t39 24l9 -9q-11 -17 -23.5 -33t-29 -29t-37 -20.5t-47.5 -7.5z" />
    <glyph glyph-name="uni0163" unicode="&#x163;" horiz-adv-x="345" 
d="M120 -116q0 26 18.5 43.5t44.5 17.5q28 0 43.5 -19t15.5 -49q0 -28 -10.5 -55.5t-28.5 -52.5t-42 -46t-52 -34l-5 10q28 21 52.5 53.5t24.5 73.5q-23 2 -42 17.5t-19 40.5zM208 -13q-60 0 -92.5 35t-32.5 120v356h-87v40h88v90l105 73v-163h130v-40h-130v-337
q0 -57 14 -81.5t55 -24.5q19 0 39 7t39 24l9 -9q-11 -17 -23.5 -33t-29 -29t-37 -20.5t-47.5 -7.5z" />
    <glyph glyph-name="tcommaaccent" unicode="&#x21b;" horiz-adv-x="345" 
d="M120 -116q0 26 18.5 43.5t44.5 17.5q28 0 43.5 -19t15.5 -49q0 -28 -10.5 -55.5t-28.5 -52.5t-42 -46t-52 -34l-5 10q28 21 52.5 53.5t24.5 73.5q-23 2 -42 17.5t-19 40.5zM208 -13q-60 0 -92.5 35t-32.5 120v356h-87v40h88v90l105 73v-163h130v-40h-130v-337
q0 -57 14 -81.5t55 -24.5q19 0 39 7t39 24l9 -9q-11 -17 -23.5 -33t-29 -29t-37 -20.5t-47.5 -7.5z" />
    <glyph glyph-name="ubreve" unicode="&#x16d;" horiz-adv-x="587" 
d="M493 164q0 -35 1.5 -54.5t9 -29.5t23 -12.5t44.5 -3.5v-17l-168 -55l-13 97q-11 -19 -26 -37t-34.5 -32.5t-43 -23.5t-50.5 -9q-32 0 -60.5 11t-50 35t-34 62t-12.5 92q0 22 0.5 50.5t0.5 58.5t0.5 58.5t0.5 50.5q0 30 -1 49t-8.5 30t-23 15.5t-44.5 6.5v18l184 18
q-1 -39 -1.5 -84.5t-0.5 -114.5v-136q0 -75 22.5 -111.5t72.5 -36.5q67 0 106 62v284q0 30 -1 49t-8.5 30t-23 15.5t-44.5 6.5v18l186 18q-1 -39 -2 -85t-1 -115v-178v0zM291 663q46 0 68.5 26t25.5 73h51q0 -25 -8.5 -50t-26 -45.5t-45 -33t-65.5 -12.5t-65 12.5t-45 33
t-26.5 45.5t-8.5 50h51q4 -47 26 -73t68 -26z" />
    <glyph glyph-name="uhungarumlaut" unicode="&#x171;" horiz-adv-x="587" 
d="M493 164q0 -35 1.5 -54.5t9 -29.5t23 -12.5t44.5 -3.5v-17l-168 -55l-13 97q-11 -19 -26 -37t-34.5 -32.5t-43 -23.5t-50.5 -9q-32 0 -60.5 11t-50 35t-34 62t-12.5 92q0 22 0.5 50.5t0.5 58.5t0.5 58.5t0.5 50.5q0 30 -1 49t-8.5 30t-23 15.5t-44.5 6.5v18l184 18
q-1 -39 -1.5 -84.5t-0.5 -114.5v-136q0 -75 22.5 -111.5t72.5 -36.5q67 0 106 62v284q0 30 -1 49t-8.5 30t-23 15.5t-44.5 6.5v18l186 18q-1 -39 -2 -85t-1 -115v-178v0zM530 772l-186 -161h-16l73 161h129zM354 772l-186 -161h-16l73 161h129z" />
    <glyph glyph-name="umacron" unicode="&#x16b;" horiz-adv-x="587" 
d="M493 164q0 -35 1.5 -54.5t9 -29.5t23 -12.5t44.5 -3.5v-17l-168 -55l-13 97q-11 -19 -26 -37t-34.5 -32.5t-43 -23.5t-50.5 -9q-32 0 -60.5 11t-50 35t-34 62t-12.5 92q0 22 0.5 50.5t0.5 58.5t0.5 58.5t0.5 50.5q0 30 -1 49t-8.5 30t-23 15.5t-44.5 6.5v18l184 18
q-1 -39 -1.5 -84.5t-0.5 -114.5v-136q0 -75 22.5 -111.5t72.5 -36.5q67 0 106 62v284q0 30 -1 49t-8.5 30t-23 15.5t-44.5 6.5v18l186 18q-1 -39 -2 -85t-1 -115v-178v0zM141 665v68h296v-68h-296z" />
    <glyph glyph-name="uogonek" unicode="&#x173;" horiz-adv-x="587" 
d="M486 -165q-23 -23 -52 -36t-57 -13q-17 0 -33.5 4.5t-29.5 14.5t-21 25.5t-8 37.5q0 21 12 41t30.5 38t41.5 33.5t45 27.5h23q-32 -22 -53.5 -52.5t-21.5 -61.5q0 -30 17.5 -47t42.5 -17q16 0 29.5 3.5t28.5 11.5zM493 164q0 -35 1.5 -54.5t9 -29.5t23 -12.5t44.5 -3.5
v-17l-168 -55l-13 97q-11 -19 -26 -37t-34.5 -32.5t-43 -23.5t-50.5 -9q-32 0 -60.5 11t-50 35t-34 62t-12.5 92q0 22 0.5 50.5t0.5 58.5t0.5 58.5t0.5 50.5q0 30 -1 49t-8.5 30t-23 15.5t-44.5 6.5v18l184 18q-1 -39 -1.5 -84.5t-0.5 -114.5v-136q0 -75 22.5 -111.5
t72.5 -36.5q67 0 106 62v284q0 30 -1 49t-8.5 30t-23 15.5t-44.5 6.5v18l186 18q-1 -39 -2 -85t-1 -115v-178v0z" />
    <glyph glyph-name="uring" unicode="&#x16f;" horiz-adv-x="587" 
d="M197 702q0 40 27 67t66 27t66.5 -27t27.5 -67q0 -19 -7.5 -36t-20 -29.5t-30 -20t-36.5 -7.5q-20 0 -36.5 7.5t-29.5 20t-20 29.5t-7 36zM236 702q0 -25 15 -40t39 -15q23 0 38.5 15t15.5 40t-15.5 41t-38.5 16q-24 0 -39 -16t-15 -41zM493 164q0 -35 1.5 -54.5t9 -29.5
t23 -12.5t44.5 -3.5v-17l-168 -55l-13 97q-11 -19 -26 -37t-34.5 -32.5t-43 -23.5t-50.5 -9q-32 0 -60.5 11t-50 35t-34 62t-12.5 92q0 22 0.5 50.5t0.5 58.5t0.5 58.5t0.5 50.5q0 30 -1 49t-8.5 30t-23 15.5t-44.5 6.5v18l184 18q-1 -39 -1.5 -84.5t-0.5 -114.5v-136
q0 -75 22.5 -111.5t72.5 -36.5q67 0 106 62v284q0 30 -1 49t-8.5 30t-23 15.5t-44.5 6.5v18l186 18q-1 -39 -2 -85t-1 -115v-178v0z" />
    <glyph glyph-name="utilde" unicode="&#x169;" horiz-adv-x="587" 
d="M493 164q0 -35 1.5 -54.5t9 -29.5t23 -12.5t44.5 -3.5v-17l-168 -55l-13 97q-11 -19 -26 -37t-34.5 -32.5t-43 -23.5t-50.5 -9q-32 0 -60.5 11t-50 35t-34 62t-12.5 92q0 22 0.5 50.5t0.5 58.5t0.5 58.5t0.5 50.5q0 30 -1 49t-8.5 30t-23 15.5t-44.5 6.5v18l184 18
q-1 -39 -1.5 -84.5t-0.5 -114.5v-136q0 -75 22.5 -111.5t72.5 -36.5q67 0 106 62v284q0 30 -1 49t-8.5 30t-23 15.5t-44.5 6.5v18l186 18q-1 -39 -2 -85t-1 -115v-178v0zM135 635q0 23 5.5 47t16.5 44t29 32.5t43 12.5q21 0 41 -10t39 -21.5t36.5 -21.5t34.5 -10q27 0 40 14
t15 46h19q0 -41 -8 -66.5t-20 -39.5t-27 -19.5t-31 -5.5q-25 0 -45.5 10t-39 21.5t-36 21.5t-37.5 10q-24 0 -39 -17t-17 -48h-19z" />
    <glyph glyph-name="uni1EE5" unicode="&#x1ee5;" horiz-adv-x="587" 
d="M232 -158q0 27 18 45t46 18q26 0 44 -18t18 -45q0 -29 -18 -46.5t-44 -17.5q-28 0 -46 17.5t-18 46.5zM493 164q0 -35 1.5 -54.5t9 -29.5t23 -12.5t44.5 -3.5v-17l-168 -55l-13 97q-11 -19 -26 -37t-34.5 -32.5t-43 -23.5t-50.5 -9q-32 0 -60.5 11t-50 35t-34 62
t-12.5 92q0 22 0.5 50.5t0.5 58.5t0.5 58.5t0.5 50.5q0 30 -1 49t-8.5 30t-23 15.5t-44.5 6.5v18l184 18q-1 -39 -1.5 -84.5t-0.5 -114.5v-136q0 -75 22.5 -111.5t72.5 -36.5q67 0 106 62v284q0 30 -1 49t-8.5 30t-23 15.5t-44.5 6.5v18l186 18q-1 -39 -2 -85t-1 -115v-178
v0z" />
    <glyph glyph-name="wacute" unicode="&#x1e83;" horiz-adv-x="804" 
d="M621 772l-186 -169h-16l73 169h129zM397 382l-133 -394h-29l-163 464q-7 18 -13 30t-13.5 20t-17 12t-24.5 6v18h242v-18q-29 -2 -43 -7.5t-18 -15.5t-1 -24.5t9 -32.5l88 -276l126 374h43l123 -375l79 228q13 37 19 61t3 38.5t-15 21t-36 8.5v18h178v-18q-18 -2 -30 -7
t-22 -16t-18 -29t-18 -44l-156 -436h-30z" />
    <glyph glyph-name="wcircumflex" unicode="&#x175;" horiz-adv-x="804" 
d="M595 603h-20l-145 81l-145 -81h-19l158 169h13zM397 382l-133 -394h-29l-163 464q-7 18 -13 30t-13.5 20t-17 12t-24.5 6v18h242v-18q-29 -2 -43 -7.5t-18 -15.5t-1 -24.5t9 -32.5l88 -276l126 374h43l123 -375l79 228q13 37 19 61t3 38.5t-15 21t-36 8.5v18h178v-18
q-18 -2 -30 -7t-22 -16t-18 -29t-18 -44l-156 -436h-30z" />
    <glyph glyph-name="wdieresis" unicode="&#x1e85;" horiz-adv-x="804" 
d="M249 709q0 27 18 45t46 18q26 0 44 -18t18 -45q0 -29 -18 -47t-44 -18q-28 0 -46 18t-18 47zM468 709q0 27 18.5 45t46.5 18q26 0 44 -18t18 -45q0 -29 -18 -47t-44 -18q-28 0 -46.5 18t-18.5 47zM397 382l-133 -394h-29l-163 464q-7 18 -13 30t-13.5 20t-17 12t-24.5 6
v18h242v-18q-29 -2 -43 -7.5t-18 -15.5t-1 -24.5t9 -32.5l88 -276l126 374h43l123 -375l79 228q13 37 19 61t3 38.5t-15 21t-36 8.5v18h178v-18q-18 -2 -30 -7t-22 -16t-18 -29t-18 -44l-156 -436h-30z" />
    <glyph glyph-name="wgrave" unicode="&#x1e81;" horiz-adv-x="804" 
d="M397 382l-133 -394h-29l-163 464q-7 18 -13 30t-13.5 20t-17 12t-24.5 6v18h242v-18q-29 -2 -43 -7.5t-18 -15.5t-1 -24.5t9 -32.5l88 -276l126 374h43l123 -375l79 228q13 37 19 61t3 38.5t-15 21t-36 8.5v18h178v-18q-18 -2 -30 -7t-22 -16t-18 -29t-18 -44l-156 -436
h-30zM366 772l73 -169h-16l-186 169h129z" />
    <glyph glyph-name="ycircumflex" unicode="&#x177;" horiz-adv-x="591" 
d="M151 -221q-39 0 -62.5 17.5t-23.5 47.5q0 26 15 41.5t32 15.5q5 0 12.5 -2.5t17.5 -13.5l50 -49q12 20 24.5 45.5t30.5 68.5l19 46l-194 457q-14 34 -26.5 49.5t-41.5 17.5v18h246v-18q-29 -2 -44 -7.5t-19.5 -15.5t-1.5 -24t10 -32l130 -313l108 261q13 33 19.5 55.5
t2.5 38t-18 24t-41 13.5v18h191v-18q-20 -3 -32 -9t-21 -16.5t-16.5 -28t-18.5 -43.5l-209 -495q-15 -36 -28.5 -64t-29 -47t-35 -28.5t-46.5 -9.5zM486 603h-20l-145 81l-145 -81h-19l158 169h13z" />
    <glyph glyph-name="ygrave" unicode="&#x1ef3;" horiz-adv-x="591" 
d="M151 -221q-39 0 -62.5 17.5t-23.5 47.5q0 26 15 41.5t32 15.5q5 0 12.5 -2.5t17.5 -13.5l50 -49q12 20 24.5 45.5t30.5 68.5l19 46l-194 457q-14 34 -26.5 49.5t-41.5 17.5v18h246v-18q-29 -2 -44 -7.5t-19.5 -15.5t-1.5 -24t10 -32l130 -313l108 261q13 33 19.5 55.5
t2.5 38t-18 24t-41 13.5v18h191v-18q-20 -3 -32 -9t-21 -16.5t-16.5 -28t-18.5 -43.5l-209 -495q-15 -36 -28.5 -64t-29 -47t-35 -28.5t-46.5 -9.5zM285 772l73 -169h-16l-186 169h129z" />
    <glyph glyph-name="uni0233" unicode="&#x233;" horiz-adv-x="591" 
d="M151 -221q-39 0 -62.5 17.5t-23.5 47.5q0 26 15 41.5t32 15.5q5 0 12.5 -2.5t17.5 -13.5l50 -49q12 20 24.5 45.5t30.5 68.5l19 46l-194 457q-14 34 -26.5 49.5t-41.5 17.5v18h246v-18q-29 -2 -44 -7.5t-19.5 -15.5t-1.5 -24t10 -32l130 -313l108 261q13 33 19.5 55.5
t2.5 38t-18 24t-41 13.5v18h191v-18q-20 -3 -32 -9t-21 -16.5t-16.5 -28t-18.5 -43.5l-209 -495q-15 -36 -28.5 -64t-29 -47t-35 -28.5t-46.5 -9.5zM161 665v68h296v-68h-296z" />
    <glyph glyph-name="zacute" unicode="&#x17a;" horiz-adv-x="577" 
d="M481 772l-186 -169h-16l73 169h129zM47 0v9l329 488h-83q-50 0 -83 -3.5t-53 -17t-31 -40.5t-17 -74h-21v176h425v-10l-324 -487h104q50 0 82 4t52 17.5t30.5 40.5t17.5 73h20v-176h-448z" />
    <glyph glyph-name="zcaron" unicode="&#x17e;" horiz-adv-x="577" 
d="M295 603l-158 169h19l145 -81l145 81h20l-158 -169h-13zM47 0v9l329 488h-83q-50 0 -83 -3.5t-53 -17t-31 -40.5t-17 -74h-21v176h425v-10l-324 -487h104q50 0 82 4t52 17.5t30.5 40.5t17.5 73h20v-176h-448z" />
    <glyph glyph-name="zdotaccent" unicode="&#x17c;" horiz-adv-x="577" 
d="M47 0v9l329 488h-83q-50 0 -83 -3.5t-53 -17t-31 -40.5t-17 -74h-21v176h425v-10l-324 -487h104q50 0 82 4t52 17.5t30.5 40.5t17.5 73h20v-176h-448zM237 709q0 27 18 45t46 18q26 0 44 -18t18 -45q0 -29 -18 -47t-44 -18q-28 0 -46 18t-18 47z" />
    <glyph glyph-name="uni0259" unicode="&#x259;" horiz-adv-x="527" 
d="M247.984 546.967q60.9971 0 105.994 -20.999t74.9951 -57.9961q29.998 -36.998 44.4971 -87.4951q14.5 -50.4971 14.5 -109.493t-19.499 -110.493t-52.9971 -89.9941q-33.498 -38.498 -78.4951 -60.9971q-44.9971 -22.498 -95.9941 -22.498q-39.998 0 -75.9951 13.499
q-35.998 13.499 -63.9961 40.4971q-27.999 26.999 -45.4971 67.4961q-17.499 40.498 -20.499 95.4941h357.978v5q0 55.9961 -12.999 101.494q-12.999 45.4971 -37.9971 78.4951q-24.999 32.998 -60.9971 50.9961q-35.9971 17.999 -81.9941 17.999
q-56.9971 0 -96.4941 -20.498q-39.498 -20.499 -64.4961 -44.498l-12 10q14.999 25.998 35.498 51.4971q20.499 25.498 47.9971 45.9971q27.498 20.498 61.9961 33.498q34.498 12.999 76.4951 12.999zM259.984 23.998q48.9971 0 85.4941 33.498
q36.498 33.498 45.498 107.494h-234.986q-1 -27.999 5 -53.9971t18.999 -44.9971t32.998 -30.498q19.998 -11.5 46.9971 -11.5z" />
    <glyph glyph-name="ellipsis" unicode="&#x2026;" horiz-adv-x="1068" 
d="M816 61q0 30 22 52t52 22q31 0 52.5 -22t21.5 -52t-21.5 -52t-52.5 -22q-30 0 -52 22t-22 52zM460 61q0 30 22 52t52 22q31 0 52.5 -22t21.5 -52t-21.5 -52t-52.5 -22q-30 0 -52 22t-22 52zM104 61q0 30 22 52t52 22q31 0 52.5 -22t21.5 -52t-21.5 -52t-52.5 -22
q-30 0 -52 22t-22 52z" />
    <glyph glyph-name="endash" unicode="&#x2013;" horiz-adv-x="486" 
d="M35 243v66h416v-66h-416z" />
    <glyph glyph-name="emdash" unicode="&#x2014;" horiz-adv-x="713" 
d="M35 243v66h643v-66h-643z" />
    <glyph glyph-name="guilsinglleft" unicode="&#x2039;" horiz-adv-x="361" 
d="M33 273l205 234h49l-131 -234l131 -235h-49z" />
    <glyph glyph-name="guilsinglright" unicode="&#x203a;" horiz-adv-x="362" 
d="M124 38h-50l132 235l-132 234h50l205 -234z" />
    <glyph glyph-name="quoteleft" unicode="&#x2018;" horiz-adv-x="307" 
d="M211 542q0 -29 -19.5 -49t-50.5 -20q-32 0 -50 21.5t-18 56.5q0 31 12 63.5t32.5 61t47.5 52.5t57 39l7 -11q-32 -24 -59 -61.5t-28 -85.5q29 0 49 -19t20 -48z" />
    <glyph glyph-name="quoteright" unicode="&#x2019;" horiz-adv-x="307" 
d="M73 698q0 29 20 49t50 20q32 0 50.5 -22t18.5 -56q0 -32 -12 -63.5t-32.5 -60.5t-47.5 -53t-57 -39l-7 11q16 12 31.5 27.5t27.5 34.5t19.5 40t7.5 45q-28 1 -48.5 19.5t-20.5 47.5z" />
    <glyph glyph-name="quotedblleft" unicode="&#x201c;" horiz-adv-x="501" 
d="M406 542q0 -29 -19.5 -49t-50.5 -20q-32 0 -50 21.5t-18 56.5q0 31 12 63.5t32.5 61t47.5 52.5t57 39l7 -11q-32 -24 -59 -61.5t-28 -85.5q29 0 49 -19t20 -48zM211 542q0 -29 -19.5 -49t-50.5 -20q-32 0 -50 21.5t-18 56.5q0 31 12 63.5t32.5 61t47.5 52.5t57 39l7 -11
q-32 -24 -59 -61.5t-28 -85.5q29 0 49 -19t20 -48z" />
    <glyph glyph-name="quotedblright" unicode="&#x201d;" horiz-adv-x="502" 
d="M73 698q0 29 20 49t50 20q32 0 50.5 -22t18.5 -56q0 -32 -12 -63.5t-32.5 -60.5t-47.5 -53t-57 -39l-7 11q16 12 31.5 27.5t27.5 34.5t19.5 40t7.5 45q-28 1 -48.5 19.5t-20.5 47.5zM268 698q0 29 20 49t50 20q32 0 50.5 -22t18.5 -56q0 -32 -12 -63.5t-32.5 -60.5
t-47.5 -53t-57 -39l-7 11q16 12 31.5 27.5t27.5 34.5t19.5 40t7.5 45q-28 1 -48.5 19.5t-20.5 47.5z" />
    <glyph glyph-name="quotesinglbase" unicode="&#x201a;" horiz-adv-x="354" 
d="M108 60q0 29 20 49t50 20q32 0 50.5 -22t18.5 -56q0 -32 -12 -63.5t-32.5 -60.5t-47.5 -53t-57 -39l-7 11q16 12 31.5 27.5t27.5 34.5t19.5 40t7.5 45q-28 1 -48.5 19.5t-20.5 47.5z" />
    <glyph glyph-name="quotedblbase" unicode="&#x201e;" horiz-adv-x="569" 
d="M323 60q0 29 20 49t50 20q32 0 50.5 -22t18.5 -56q0 -32 -12 -63.5t-32.5 -60.5t-47.5 -53t-57 -39l-7 11q16 12 31.5 27.5t27.5 34.5t19.5 40t7.5 45q-28 1 -48.5 19.5t-20.5 47.5zM108 60q0 29 20 49t50 20q32 0 50.5 -22t18.5 -56q0 -32 -12 -63.5t-32.5 -60.5
t-47.5 -53t-57 -39l-7 11q16 12 31.5 27.5t27.5 34.5t19.5 40t7.5 45q-28 1 -48.5 19.5t-20.5 47.5z" />
    <glyph glyph-name="bullet" unicode="&#x2022;" horiz-adv-x="454" 
d="M44 283q0 37 14 70t38.5 57.5t57 38.5t69.5 14q40 0 74 -14t59 -38.5t39.5 -57.5t14.5 -70q0 -39 -14.5 -73t-39.5 -59t-59 -39.5t-74 -14.5q-37 0 -69.5 14.5t-57 39.5t-38.5 59t-14 73z" />
    <glyph glyph-name="dagger" unicode="&#x2020;" horiz-adv-x="535" 
d="M231 0v428h-207v66h207v231h71v-231h208v-66h-208v-428h-71z" />
    <glyph glyph-name="daggerdbl" unicode="&#x2021;" horiz-adv-x="594" 
d="M540 270v-67h-208v-203h-70v203h-207v67h207v173h-207v67h207v215h70v-215h208v-67h-208v-173h208z" />
    <glyph glyph-name="perthousand" unicode="&#x2030;" horiz-adv-x="1432" 
d="M769 206q0 -35 3.5 -69.5t12.5 -62t24 -44.5t39 -17t39 17t24 44.5t12.5 62t3.5 69.5t-3.5 69.5t-12.5 61.5t-24 44t-39 17t-39 -17t-24 -44t-12.5 -61.5t-3.5 -69.5zM681 206q0 42 12.5 80.5t34.5 68t53 46.5t67 17q37 0 67.5 -17t52.5 -46.5t34.5 -68t12.5 -80.5
t-12.5 -80.5t-34.5 -68t-52.5 -47t-67.5 -17.5q-36 0 -67 17.5t-53 47t-34.5 68t-12.5 80.5zM1159 206q0 -35 3.5 -69.5t12.5 -62t24 -44.5t39 -17t39 17t24 44.5t12.5 62t3.5 69.5t-3.5 69.5t-12.5 61.5t-24 44t-39 17t-39 -17t-24 -44t-12.5 -61.5t-3.5 -69.5zM1071 206
q0 42 12.5 80.5t34.5 68t53 46.5t67 17q37 0 67.5 -17t52.5 -46.5t34.5 -68t12.5 -80.5t-12.5 -80.5t-34.5 -68t-52.5 -47t-67.5 -17.5q-36 0 -67 17.5t-53 47t-34.5 68t-12.5 80.5zM235 0l508 725h66l-507 -725h-67zM116 523q0 -35 3.5 -69.5t12.5 -62t24 -44.5t39 -17
t39 17t24 44.5t12.5 62t3.5 69.5t-3.5 69.5t-12.5 61.5t-24 44t-39 17t-39 -17t-24 -44t-12.5 -61.5t-3.5 -69.5zM28 523q0 42 12.5 80.5t34.5 68t53 46.5t67 17q37 0 67.5 -17t52.5 -46.5t34.5 -68t12.5 -80.5t-12.5 -80.5t-34.5 -68t-52.5 -47t-67.5 -17.5q-36 0 -67 17.5
t-53 47t-34.5 68t-12.5 80.5z" />
    <glyph glyph-name="uni2117" unicode="&#x2117;" horiz-adv-x="837" 
d="M44 361q0 83 29.5 152.5t80.5 119t119.5 77t146.5 27.5q77 0 145 -27.5t119 -77t80.5 -119t29.5 -152.5t-29.5 -152t-80.5 -118.5t-119 -76.5t-145 -27q-78 0 -146.5 27t-119.5 76.5t-80.5 118.5t-29.5 152zM109 361q0 -71 24 -129t66 -100t98.5 -65t122.5 -23t122.5 23
t98.5 65t65.5 100t23.5 129t-23.5 129.5t-65.5 100.5t-98.5 65t-122.5 23t-122.5 -23t-98.5 -65t-66 -100.5t-24 -129.5zM359 330v-155h-64v397h120q43 0 77.5 -4.5t58.5 -17.5t37 -36.5t13 -61.5q0 -24 -9.5 -46.5t-29 -39t-49.5 -26.5t-71 -10h-83zM535 451q0 37 -28 49
t-71 12h-77v-124h81q50 0 72.5 15.5t22.5 47.5z" />
    <glyph glyph-name="trademark" unicode="&#x2122;" horiz-adv-x="876" 
d="M148 664h-130v61h327v-61h-131v-345h-66v345zM574 319l-122 338v-338h-65v406h112l114 -327l110 327h112v-406h-66v338l-121 -338h-74z" />
    <glyph glyph-name="lozenge" unicode="&#x25ca;" horiz-adv-x="576" 
d="M119 349l170 -296l169 296l-169 296zM289 771l247 -422l-247 -421l-249 421z" />
    <glyph glyph-name="afii61289" unicode="&#x2113;" horiz-adv-x="406" 
d="M115 218l-82 -62l-33 48l115 88v260q0 93 30 139.5t104 46.5q62 0 93 -44t31 -112q0 -49 -14 -92t-38.5 -80.5t-58 -71t-71.5 -62.5l-13 -10v-125q0 -52 13.5 -75t53.5 -23q35 0 56.5 13t36.5 28l34 -43q-26 -24 -57 -39t-75 -15q-36 0 -60.5 9.5t-38.5 29t-20 48.5
t-6 67v77zM178 340l20 16q57 43 83.5 102.5t26.5 120.5q0 31 -6 51.5t-15 31.5t-21 15.5t-24 4.5q-35 0 -49.5 -29.5t-14.5 -101.5v-211z" />
    <glyph glyph-name="afii61352" unicode="&#x2116;" horiz-adv-x="1152" 
d="M630 579q0 39 -3 62.5t-13.5 37t-30 19.5t-53.5 11v16h245v-16q-34 -5 -53.5 -11t-30 -19.5t-13.5 -37t-3 -62.5v-587h-50l-441 571v-417q0 -39 3 -62.5t13 -37t29.5 -20t53.5 -10.5v-16h-245v16q34 4 53.5 10.5t29.5 20t13 37t3 62.5v478q-24 33 -42.5 53.5t-40.5 31.5
v16h159l417 -540v394zM956 750q31 0 59 -11.5t49 -31.5t33 -48.5t12 -61.5q0 -31 -11 -59t-31 -49.5t-48 -34t-62 -12.5q-33 0 -60.5 12t-48 33t-32 49.5t-11.5 62.5q0 30 11 57t31 48t48 33.5t61 12.5zM951 731q-17 0 -28.5 -9.5t-18 -25t-9.5 -36.5t-3 -43q0 -20 3 -46.5
t11.5 -50.5t22.5 -41t36 -17q16 0 26.5 10t17 26.5t9.5 38t3 43.5q0 18 -3 44t-11 50t-21.5 40.5t-34.5 16.5zM816 352v55h286v-55h-286z" />
    <glyph glyph-name="apple" horiz-adv-x="454" 
d="M44 283q0 37 14 70t38.5 57.5t57 38.5t69.5 14q40 0 74 -14t59 -38.5t39.5 -57.5t14.5 -70q0 -39 -14.5 -73t-39.5 -59t-59 -39.5t-74 -14.5q-37 0 -69.5 14.5t-57 39.5t-38.5 59t-14 73z" />
    <glyph glyph-name="estimated" unicode="&#x212e;" horiz-adv-x="589" 
d="M546 150q-12 -34 -33.5 -64t-51.5 -52t-70 -34.5t-90 -12.5q-68 0 -119 22t-85.5 60t-52 89t-17.5 110q0 61 19 112.5t54.5 88.5t85 57.5t110.5 20.5q64 0 113 -22.5t82 -60.5t50.5 -88.5t18.5 -106.5h-416v-193q23 -24 68.5 -39.5t96.5 -15.5q72 0 121.5 34.5t74.5 94.5
h41zM144 301h298v159q-23 22 -60.5 37.5t-86.5 15.5q-48 0 -87 -13t-64 -39v-160z" />
    <glyph glyph-name="minus" unicode="&#x2212;" 
d="M601 309v-68h-524v68h524z" />
    <glyph glyph-name="lessequal" unicode="&#x2264;" 
d="M611 193v-75l-544 182v65l544 183v-75l-449 -140zM66 68h547v-68h-547v68z" />
    <glyph glyph-name="greaterequal" unicode="&#x2265;" 
d="M67 473v75l545 -183v-65l-545 -182v75l450 140zM66 0v68h547v-68h-547z" />
    <glyph glyph-name="notequal" unicode="&#x2260;" 
d="M92 416h288l82 143l61 -33l-63 -110h127v-71h-168l-76 -133h244v-71h-285l-95 -166l-62 33l76 133h-129v71h170l77 133h-247v71z" />
    <glyph glyph-name="approxequal" unicode="&#x2248;" 
d="M454 373q28 0 48 18t22 54h71q-5 -66 -43 -101t-98 -35q-31 0 -61 11t-58.5 24.5t-56 25t-53.5 11.5q-28 0 -48 -18t-22 -54h-72q4 66 43 101t99 35q36 0 67.5 -11.5t60 -25t53.5 -24.5t48 -11zM454 189q28 0 48 17.5t22 54.5h71q-5 -66 -43 -102t-98 -36q-31 0 -61 11.5
t-58.5 25t-56 25t-53.5 11.5q-28 0 -48 -17.5t-22 -55.5h-72q4 67 43 102.5t99 35.5q36 0 67.5 -11.5t60 -25t53.5 -24.5t48 -11z" />
    <glyph glyph-name="partialdiff" unicode="&#x2202;" horiz-adv-x="570" 
d="M451 266q0 57 -14.5 98t-38.5 67t-54.5 38.5t-62.5 12.5q-75 0 -119.5 -56.5t-44.5 -159.5t44 -160t120 -57q32 0 62.5 12.5t54.5 39t38.5 67.5t14.5 98zM280 -13q-53 0 -97 19t-75 55t-48 87.5t-17 117.5q0 65 17.5 116.5t48.5 87.5t73.5 55t93.5 19t92.5 -20.5
t64.5 -53.5l1 1q-14 42 -41.5 78t-64 63.5t-80 44t-89.5 18.5v65q84 -6 152 -39.5t116 -90t74 -133.5t26 -169q0 -83 -18.5 -143.5t-51.5 -100t-78.5 -58.5t-98.5 -19z" />
    <glyph glyph-name="product" unicode="&#x220f;" horiz-adv-x="672" 
d="M75 -189v914h522v-914h-72v847h-379v-847h-71z" />
    <glyph glyph-name="radical" unicode="&#x221a;" horiz-adv-x="540" 
d="M136 285l165 -383l140 823h69l-157 -914h-87l-167 380l-69 -32l-30 65z" />
    <glyph glyph-name="summation" unicode="&#x2211;" horiz-adv-x="581" 
d="M313 268l-289 395v62h531v-67h-447l288 -390l-288 -390h447v-67h-531v63z" />
    <glyph glyph-name="integral" unicode="&#x222b;" horiz-adv-x="271" 
d="M105 495q0 68 9.5 114t27 73.5t42 39.5t55.5 12q32 0 53 -15t21 -42q0 -20 -11 -32.5t-30 -12.5t-29.5 10.5t-10.5 25.5q0 18 11 31q-22 0 -35.5 -9.5t-21.5 -27t-11 -43.5t-3 -59q0 -42 1 -82t1 -87v-352q0 -67 -9.5 -112t-26.5 -72t-42.5 -38.5t-56.5 -11.5
q-32 0 -53 14t-21 42q0 20 12.5 32.5t31.5 12.5q18 0 28 -10.5t10 -26.5q0 -8 -3 -16t-8 -14q43 0 57 37t14 102q0 42 -1 82t-1 86v349z" />
    <glyph glyph-name="infinity" unicode="&#x221e;" horiz-adv-x="787" 
d="M589 416q39 0 71 -11.5t55 -33t35.5 -51.5t12.5 -67q0 -75 -46 -118t-122 -43q-56 0 -106.5 29.5t-97.5 82.5q-42 -49 -89.5 -80.5t-105.5 -31.5q-79 0 -126.5 43.5t-47.5 117.5q0 37 12.5 67.5t36 51.5t55.5 32.5t71 11.5q50 0 97.5 -24.5t98.5 -84.5q51 58 96.5 83.5
t99.5 25.5zM197 149q22 0 43 8.5t40 23t37 33.5t35 40q-42 51 -79.5 77.5t-80.5 26.5q-42 0 -71 -27.5t-29 -77.5q0 -43 29 -73.5t76 -30.5zM586 358q-42 0 -77 -26t-75 -75q44 -56 81 -82t79 -26q41 0 70.5 28.5t29.5 75.5q0 45 -29.5 75t-78.5 30z" />
    <glyph glyph-name="Delta" unicode="&#x394;" horiz-adv-x="729" 
d="M365 723l352 -723h-705zM365 572l-242 -505h484z" />
    <glyph glyph-name="Delta" unicode="&#x2206;" horiz-adv-x="729" 
d="M365 723l352 -723h-705zM365 572l-242 -505h484z" />
    <glyph glyph-name="Omega" unicode="&#x3a9;" horiz-adv-x="838" 
d="M419 738q66 0 130 -20t114.5 -60t81 -99.5t30.5 -138.5q0 -59 -19 -107t-49 -85t-67.5 -61t-75.5 -35v-65h191v-67h-266v177q48 8 87.5 29.5t67.5 53t43.5 73t15.5 90.5q0 59 -22.5 106.5t-61 80.5t-90.5 51t-110 18t-109.5 -18t-90.5 -51t-61.5 -80.5t-22.5 -106.5
q0 -49 15 -90.5t43 -73t67.5 -53t87.5 -29.5v-177h-265v67h190v65q-38 11 -75.5 35t-67.5 61t-48.5 85t-18.5 107q0 79 30.5 138.5t80.5 99.5t114 60t131 20z" />
    <glyph glyph-name="Omega" unicode="&#x2126;" horiz-adv-x="838" 
d="M419 738q66 0 130 -20t114.5 -60t81 -99.5t30.5 -138.5q0 -59 -19 -107t-49 -85t-67.5 -61t-75.5 -35v-65h191v-67h-266v177q48 8 87.5 29.5t67.5 53t43.5 73t15.5 90.5q0 59 -22.5 106.5t-61 80.5t-90.5 51t-110 18t-109.5 -18t-90.5 -51t-61.5 -80.5t-22.5 -106.5
q0 -49 15 -90.5t43 -73t67.5 -53t87.5 -29.5v-177h-265v67h190v65q-38 11 -75.5 35t-67.5 61t-48.5 85t-18.5 107q0 79 30.5 138.5t80.5 99.5t114 60t131 20z" />
    <glyph glyph-name="pi" unicode="&#x3c0;" horiz-adv-x="673" 
d="M117 0v472h-75v66h578v-66h-77v-329q0 -25 1 -40.5t7 -24.5t19.5 -12t37.5 -3h13v-63h-34q-35 0 -57.5 5t-35.5 19.5t-18 40t-5 66.5v341h-282v-472h-72z" />
    <glyph glyph-name="Euro" unicode="&#x20ac;" horiz-adv-x="771" 
d="M231 266q17 -115 68.5 -179t129.5 -64q92 0 137 53.5t57 147.5h103q-9 -59 -36 -103t-66 -74t-88.5 -45t-104.5 -15q-66 0 -119 19.5t-92.5 56t-64.5 88t-36 115.5h-127l40 60h80q-1 10 -1 19.5v20.5v25.5t2 25.5h-121l40 60h90q13 61 39.5 110.5t66 83.5t91 52.5
t113.5 18.5q55 0 104 -16t87 -46t64 -74t35 -100h-103q-5 46 -18.5 83t-36.5 63t-56 40t-76 14q-76 0 -128.5 -59t-70.5 -170h258l-41 -60h-224q-1 -13 -1 -25.5v-25.5v-20.5t1 -19.5h183l-41 -60h-137z" />
    <glyph glyph-name="fi" unicode="&#xfb01;" horiz-adv-x="747" 
d="M328 746q-6 9 -11.5 12t-13.5 3q-17 0 -41 -11t-41.5 -37t-21 -68.5t22.5 -106.5h169v-40h-166v-354q0 -42 2.5 -66t14.5 -36t36 -16t66 -7v-19h-305v18q30 3 46 9t23.5 19t9 36t1.5 62v354h-86v40h86v11q0 57 19 103.5t51 79.5t74 51t88 18q47 0 75.5 -23.5t28.5 -51.5
q0 -22 -15 -35.5t-38 -13.5q-12 0 -21.5 3.5t-17.5 14.5l-35 51v0zM634 144q0 -39 1.5 -62t9 -36t23.5 -19t46 -9v-18h-266v18q30 3 46 9t23.5 19t9 36t1.5 62v222q0 37 -1.5 57.5t-9 30t-23.5 11.5t-46 2v18l188 62q-1 -40 -1.5 -91t-0.5 -128v-184zM576 668q-30 0 -52 20
t-22 51q0 29 22 49.5t52 20.5q31 0 52 -20.5t21 -49.5q0 -31 -21 -51t-52 -20z" />
    <glyph glyph-name="fl" unicode="&#xfb02;" horiz-adv-x="748" 
d="M328 746q-6 9 -11.5 12t-13.5 3q-17 0 -41 -11t-41.5 -37t-21 -68.5t22.5 -106.5h169v-40h-166v-354q0 -42 2.5 -66t14.5 -36t36 -16t66 -7v-19h-305v18q30 3 46 9t23.5 19t9 36t1.5 62v354h-86v40h86v11q0 57 19 103.5t51 79.5t74 51t88 18q47 0 75.5 -23.5t28.5 -51.5
q0 -22 -15 -35.5t-38 -13.5q-12 0 -21.5 3.5t-17.5 14.5l-35 51v0zM533 645q0 36 -1.5 56t-9 29t-24 11t-45.5 2v18l188 62q-1 -40 -1.5 -91t-0.5 -128v-460q0 -39 1.5 -62t9 -36t23.5 -19t46 -9v-18h-266v18q30 3 46 9t23.5 19t9 36t1.5 62v501v0z" />
    <glyph glyph-name="breve" unicode="&#x2d8;" horiz-adv-x="331" 
d="M167 663q46 0 68.5 26t25.5 73h51q0 -25 -8.5 -50t-26 -45.5t-45 -33t-65.5 -12.5t-65 12.5t-45 33t-26.5 45.5t-8.5 50h51q4 -47 26 -73t68 -26z" />
    <glyph glyph-name="caron" unicode="&#x2c7;" horiz-adv-x="362" 
d="M175 603l-158 169h19l145 -81l145 81h20l-158 -169h-13z" />
    <glyph glyph-name="circumflex" unicode="&#x2c6;" horiz-adv-x="362" 
d="M346 603h-20l-145 81l-145 -81h-19l158 169h13z" />
    <glyph glyph-name="dotaccent" unicode="&#x2d9;" horiz-adv-x="167" 
d="M20 709q0 27 18 45t46 18q26 0 44 -18t18 -45q0 -29 -18 -47t-44 -18q-28 0 -46 18t-18 47z" />
    <glyph glyph-name="dot" horiz-adv-x="335" 
d="M168 668q-30 0 -52 20t-22 51q0 29 22 49.5t52 20.5q31 0 52 -20.5t21 -49.5q0 -31 -21 -51t-52 -20z" />
    <glyph glyph-name="dotaccent.low" horiz-adv-x="163" 
d="M18 -158q0 27 18 45t46 18q26 0 44 -18t18 -45q0 -29 -18 -46.5t-44 -17.5q-28 0 -46 17.5t-18 46.5z" />
    <glyph glyph-name="hungarumlaut" unicode="&#x2dd;" horiz-adv-x="420" 
d="M400 772l-186 -161h-16l73 161h129zM224 772l-186 -161h-16l73 161h129z" />
    <glyph glyph-name="commaaccent" horiz-adv-x="179" 
d="M36 -116q0 26 18.5 43.5t44.5 17.5q28 0 43.5 -19t15.5 -49q0 -28 -10.5 -55.5t-28.5 -52.5t-42 -46t-52 -34l-5 10q28 21 52.5 53.5t24.5 73.5q-23 2 -42 17.5t-19 40.5z" />
    <glyph glyph-name="ogonek" unicode="&#x2db;" horiz-adv-x="242" 
d="M221 -171q-23 -23 -52 -36t-57 -13q-17 0 -33.5 4.5t-29.5 14.5t-21 25.5t-8 37.5q0 21 12 41t30.5 38t41.5 33.5t45 27.5h23q-32 -22 -53.5 -52.5t-21.5 -61.5q0 -30 17.5 -47t42.5 -17q16 0 29.5 3.5t28.5 11.5z" />
    <glyph glyph-name="ring" unicode="&#x2da;" horiz-adv-x="227" 
d="M20 702q0 40 27 67t66 27t66.5 -27t27.5 -67q0 -19 -7.5 -36t-20 -29.5t-30 -20t-36.5 -7.5q-20 0 -36.5 7.5t-29.5 20t-20 29.5t-7 36zM59 702q0 -25 15 -40t39 -15q23 0 38.5 15t15.5 40t-15.5 41t-38.5 16q-24 0 -39 -16t-15 -41z" />
    <glyph glyph-name="tilde" unicode="&#x2dc;" horiz-adv-x="374" 
d="M27 635q0 23 5.5 47t16.5 44t29 32.5t43 12.5q21 0 41 -10t39 -21.5t36.5 -21.5t34.5 -10q27 0 40 14t15 46h19q0 -41 -8 -66.5t-20 -39.5t-27 -19.5t-31 -5.5q-25 0 -45.5 10t-39 21.5t-36 21.5t-37.5 10q-24 0 -39 -17t-17 -48h-19z" />
    <glyph glyph-name="caron.slovak" horiz-adv-x="302" 
d="M98 750q0 26 18.5 43.5t44.5 17.5q28 0 43.5 -19t15.5 -49q0 -28 -10.5 -55.5t-28.5 -52.5t-42 -46t-52 -34l-5 10q28 21 52.5 53.5t24.5 73.5q-23 2 -42 17.5t-19 40.5z" />
    <glyph glyph-name="uni032C" unicode="&#x32c;" horiz-adv-x="362" 
d="M167 -179l-147 179h21l140 -90l140 90h21l-147 -179h-28z" />
    <glyph glyph-name="zero.slashed" horiz-adv-x="662" 
d="M50 366q0 68 18 135.5t53 121t88 86.5t122 33t122 -33t88 -86.5t53 -121t18 -135.5q0 -69 -18 -136.5t-53 -121.5t-88 -87.5t-122 -33.5t-122 33.5t-88 87.5t-53 121.5t-18 136.5zM168 366q0 -31 1.5 -62t6.5 -62l309 242q-6 45 -18 85t-31 70.5t-45 48.5t-60 18
q-47 0 -78 -31t-50 -79.5t-27 -109t-8 -120.5zM493 366q0 35 -3 70l-305 -240q8 -36 20.5 -68t30.5 -55t41.5 -36.5t53.5 -13.5q46 0 77 31t50 80.5t27 110.5t8 121z" />
    <glyph glyph-name="one.pof" horiz-adv-x="474" 
d="M305 145q0 -39 1.5 -62.5t10.5 -36.5t27.5 -18.5t52.5 -9.5v-18h-307v20q41 4 63.5 9.5t33 18t12.5 35.5t2 62v303h-141v24q48 4 83 13t61.5 21.5t45 29t33.5 37.5h22v-428z" />
    <glyph glyph-name="two.pof" horiz-adv-x="517" 
d="M450 432q0 -30 -10.5 -57t-30 -53t-46 -51.5t-58.5 -53.5q-32 -29 -72 -64t-77 -66h308v-87h-439v12q85 73 145.5 129t99 100.5t56.5 81.5t18 73q0 50 -32.5 76t-87.5 26t-92 -27.5t-48 -72.5h-27q5 37 22 69t44 55.5t62.5 37t77.5 13.5q36 0 70 -8.5t60 -26t41.5 -44
t15.5 -62.5z" />
    <glyph glyph-name="three.pof" horiz-adv-x="543" 
d="M39 -4h20q9 -28 25.5 -53t39 -44t51 -30t61.5 -11q67 0 107.5 38.5t40.5 102.5q0 21 -7.5 50t-29 58t-60.5 53t-102 33v22l23 10q37 16 64 37t43.5 43.5t24.5 44t8 38.5q0 48 -30.5 77.5t-96.5 30.5q-59 0 -102 -35t-55 -93h-29q17 98 78.5 151.5t155.5 53.5q39 0 73 -9
t59 -26.5t39.5 -43t14.5 -58.5q0 -29 -13.5 -55.5t-35 -49.5t-47 -42t-49.5 -31v-3q85 -30 133.5 -82.5t48.5 -132.5q0 -52 -24 -93.5t-62 -70t-86 -43.5t-97 -15q-57 0 -108 8.5t-76 19.5v150z" />
    <glyph glyph-name="four.pof" horiz-adv-x="606" 
d="M346 -167v167h-329v23l348 533h86v-477h130v-79h-130v-167h-105zM346 448l-242 -369h242v369z" />
    <glyph glyph-name="five.pof" horiz-adv-x="533" 
d="M184 556h300l-33 -100h-259l-44 -125q82 -13 142.5 -38.5t100 -60t59 -77t19.5 -89.5q0 -59 -23 -105t-60.5 -78t-86 -48.5t-99.5 -16.5q-26 0 -52 3t-49.5 8t-43.5 11.5t-33 13.5v155h19q19 -76 66.5 -113.5t107.5 -37.5q31 0 58 11t47.5 31.5t32.5 49t12 64.5
q0 34 -12 68.5t-44.5 65t-89 54.5t-146.5 38z" />
    <glyph glyph-name="six.pof" horiz-adv-x="615" 
d="M318 -13q-64 0 -113.5 22.5t-83 63t-50.5 96.5t-17 123q0 85 33 160.5t92 135.5t140.5 102t177.5 61l6 -25q-150 -40 -227 -120t-97 -201q31 37 74 57.5t91 20.5q45 0 84.5 -15t69 -44t46.5 -72t17 -99q0 -54 -19 -102.5t-52 -84.5t-77 -57.5t-95 -21.5zM305 422
q-33 0 -69 -12t-61 -34q-3 -35 -3 -71q0 -55 8.5 -106t26 -90t45.5 -62.5t67 -23.5q33 0 57 14t39 38.5t22.5 59t7.5 76.5q0 36 -7 73t-23 68t-43 50.5t-67 19.5z" />
    <glyph glyph-name="seven.pof" horiz-adv-x="571" 
d="M41 556h499v-33l-392 -706l-72 44l386 595h-421v100z" />
    <glyph glyph-name="eight.pof" horiz-adv-x="613" 
d="M298 -13q-46 0 -90 11.5t-78 35t-55 59.5t-21 86q0 33 13 61.5t35 52.5t51.5 42.5t62.5 31.5q-63 37 -97 84t-34 107q0 42 18 75t48.5 56.5t71.5 36t87 12.5q43 0 82.5 -10t69.5 -30t48 -49.5t18 -67.5q0 -32 -13.5 -58t-35 -47t-49.5 -36.5t-56 -27.5l14 -7
q33 -17 64 -37t55 -44.5t38.5 -55.5t14.5 -70q0 -52 -22 -91.5t-58 -66t-83.5 -40t-98.5 -13.5zM144 184q0 -34 10 -63.5t29.5 -51t48 -34t66.5 -12.5q78 0 121.5 36.5t43.5 93.5q0 27 -8 48t-24.5 39t-42 34.5t-59.5 33.5l-78 40q-6 2 -8 4q-44 -23 -71.5 -64.5
t-27.5 -103.5zM441 576q0 66 -37 96.5t-96 30.5q-63 0 -99 -32t-36 -79q0 -50 37 -83t93 -61l46 -24q38 23 65 59.5t27 92.5z" />
    <glyph glyph-name="nine.pof" horiz-adv-x="615" 
d="M297 573q64 0 113.5 -22.5t83 -63t50.5 -96.5t17 -123q0 -86 -33 -161t-92 -135t-140.5 -102t-177.5 -61l-6 25q150 40 226.5 119.5t96.5 201.5q-30 -38 -73 -58t-90 -20q-45 0 -85 16t-69.5 46t-46.5 74t-17 100q0 54 19 101t52 82.5t77.5 56t94.5 20.5zM310 138
q32 0 67.5 11.5t61.5 33.5q2 17 3 35t1 37q0 55 -8.5 106t-26 90t-45 62.5t-66.5 23.5q-33 0 -57 -14t-39.5 -38.5t-23 -59t-7.5 -76.5q0 -36 7 -73t23 -68t43 -50.5t67 -19.5z" />
    <glyph glyph-name="zero.pof" horiz-adv-x="656" 
d="M324 573q57 0 108 -21.5t89.5 -60t61.5 -92.5t23 -118q0 -61 -21 -114.5t-57.5 -93.5t-87 -63t-108.5 -23q-57 0 -108 21.5t-89.5 60.5t-61.5 93t-23 119q0 61 20.5 114t57 92.5t87 62.5t109.5 23zM315 536q-77 0 -114 -59.5t-37 -158.5q0 -39 9.5 -89.5t31 -96t55.5 -77
t84 -31.5q74 0 110.5 60t36.5 159q0 39 -9 89.5t-30 95.5t-54.5 76.5t-82.5 31.5z" />
    <glyph glyph-name="zero.slashed.pof" horiz-adv-x="656" 
d="M324 573q57 0 108 -21.5t89.5 -60t61.5 -92.5t23 -118q0 -61 -21 -114.5t-57.5 -93.5t-87 -63t-108.5 -23q-57 0 -108 21.5t-89.5 60.5t-61.5 93t-23 119q0 61 20.5 114t57 92.5t87 62.5t109.5 23zM491 243q0 45 -12 101l-295 -159q9 -31 23.5 -60t34 -51.5t45 -36
t57.5 -13.5q74 0 110.5 60t36.5 159zM315 536q-77 0 -114 -59.5t-37 -158.5q0 -20 2.5 -44t7.5 -50l295 156q-9 30 -23 58.5t-33 50t-43.5 34.5t-54.5 13z" />
    <glyph glyph-name="one.tlf" 
d="M399 145q0 -39 1.5 -62.5t10.5 -36.5t27.5 -18.5t51.5 -9.5v-18h-307v20q41 4 63.5 9.5t33 18t12.5 35.5t2 62v471h-141v24q48 4 83 13t61.5 21.5t45.5 29t34 37.5h22v-596z" />
    <glyph glyph-name="two.tlf" 
d="M550 563q0 -41 -14.5 -79.5t-39 -76.5t-58 -76t-71.5 -77q-35 -36 -72 -76t-74 -78h343v-100h-472v16q98 99 164.5 174t107 133.5t57.5 105.5t17 89q0 75 -37 110t-101 35q-61 0 -104.5 -34t-56.5 -92h-29q17 98 78.5 151.5t156.5 53.5q40 0 77 -11t65.5 -33t45.5 -56
t17 -79z" />
    <glyph glyph-name="three.tlf" 
d="M308 -13q-56 0 -107 9t-76 20v153h20q9 -30 25.5 -56t39 -45t51 -30t60.5 -11q67 0 107.5 38.5t40.5 102.5q0 21 -7.5 50t-29 58t-60.5 53t-102 33v22l23 10q38 16 65 37t44 43.5t25 44t8 38.5q0 48 -31 77.5t-96 29.5q-58 0 -102 -34.5t-56 -92.5h-29q17 98 78.5 151.5
t156.5 53.5q39 0 73 -9t59 -26.5t39.5 -43t14.5 -58.5q0 -29 -14 -55.5t-35.5 -49.5t-47.5 -42t-50 -31v-3q85 -30 133.5 -82.5t48.5 -132.5q0 -52 -24 -93.5t-62 -70t-86 -43.5t-97 -15z" />
    <glyph glyph-name="four.tlf" 
d="M364 0v196h-330v23l349 506h87v-441h129v-88h-129v-196h-106zM364 620l-231 -336h231v336z" />
    <glyph glyph-name="five.tlf" 
d="M253 725h318l-33 -100h-277l-45 -125q89 -13 153 -38t105.5 -60t61 -77.5t19.5 -89.5q0 -59 -23 -105t-60.5 -78t-86 -48.5t-99.5 -16.5q-26 0 -52 3t-49.5 8t-43.5 11.5t-33 13.5v157h20q9 -39 26 -67.5t40 -47.5t50.5 -28.5t57.5 -9.5t57.5 11t47.5 31t32 48.5t12 64.5
q0 34 -12.5 68t-46.5 64.5t-94.5 54.5t-156.5 38z" />
    <glyph glyph-name="six.tlf" 
d="M350 -13q-64 0 -113.5 22.5t-83 63t-50.5 96.5t-17 123q0 85 33 160.5t92 135.5t140.5 102t177.5 61l6 -25q-150 -40 -227 -120t-97 -201q31 37 73.5 57.5t90.5 20.5q45 0 85 -15t69.5 -44t46.5 -72t17 -99q0 -54 -19 -102.5t-52 -84.5t-77.5 -57.5t-94.5 -21.5zM337 422
q-33 0 -69 -12t-61 -34q-3 -35 -3 -71q0 -55 8.5 -106t26 -90t45.5 -62.5t67 -23.5q33 0 57 14t39 38.5t22.5 59t7.5 76.5q0 36 -7 73t-23 68t-43 50.5t-67 19.5z" />
    <glyph glyph-name="seven.tlf" 
d="M108 725h492v-100q-68 -67 -126.5 -133.5t-101 -140.5t-65.5 -159.5t-20 -191.5h-118q2 117 39.5 210t95 168t126.5 135.5t134 111.5h-456v100z" />
    <glyph glyph-name="eight.tlf" 
d="M330 -13q-48 0 -93.5 11.5t-81 35t-57 60t-21.5 86.5q0 33 13.5 62t37 53t54 42.5t64.5 30.5q-65 37 -101 84t-36 108q0 42 18.5 75.5t50.5 57t74.5 36t90.5 12.5q45 0 85.5 -10.5t71.5 -30.5t49.5 -49.5t18.5 -67.5q0 -32 -14 -58t-36.5 -47t-51 -37t-58.5 -28l15 -7
q35 -17 67.5 -37t57 -44.5t39.5 -55.5t15 -70q0 -53 -22.5 -92.5t-60 -66t-87 -40t-102.5 -13.5zM171 184q0 -34 10 -63.5t30.5 -51t50 -34t68.5 -12.5q40 0 72 10t54.5 27t34.5 41t12 53q0 27 -8.5 48t-26 39.5t-44 35t-62.5 33.5l-81 40l-7 3q-45 -22 -74 -64t-29 -105z
M479 578q0 66 -39 96.5t-100 30.5q-65 0 -103 -32.5t-38 -78.5q0 -25 10.5 -45.5t28.5 -38t43 -32.5t54 -29l48 -24q39 24 67.5 60.5t28.5 92.5z" />
    <glyph glyph-name="nine.tlf" 
d="M332 742q64 0 113.5 -22.5t83 -63t50.5 -96.5t17 -123q0 -86 -33 -161.5t-92 -135.5t-140.5 -101.5t-177.5 -60.5l-6 25q150 40 226.5 119.5t96.5 201.5q-30 -38 -73 -58.5t-90 -20.5q-45 0 -85 16t-69.5 46.5t-46.5 74t-17 99.5q0 54 19 101.5t52 83t77.5 56t94.5 20.5z
M345 307q33 0 68.5 11.5t60.5 34.5q2 17 3 34.5t1 36.5q0 55 -8.5 106t-26 90t-45.5 62.5t-67 23.5q-33 0 -57 -14t-39 -39t-22.5 -59.5t-7.5 -75.5q0 -36 7 -73t23 -68t43 -50.5t67 -19.5z" />
    <glyph glyph-name="zero.tlf" 
d="M176 366q0 -60 8 -121t27 -110.5t50 -80.5t78 -31q46 0 77 31t50 80.5t27 110.5t8 121t-8 120.5t-27 109t-50 79.5t-77 31q-47 0 -78 -31t-50 -79.5t-27 -109t-8 -120.5zM58 366q0 68 18 135.5t53 121t88 86.5t122 33t122 -33t88 -86.5t53 -121t18 -135.5
q0 -69 -18 -136.5t-53 -121.5t-88 -87.5t-122 -33.5t-122 33.5t-88 87.5t-53 121.5t-18 136.5z" />
    <glyph glyph-name="zero.slashed.tlf" 
d="M58 366q0 68 18 135.5t53 121t88 86.5t122 33t122 -33t88 -86.5t53 -121t18 -135.5q0 -69 -18 -136.5t-53 -121.5t-88 -87.5t-122 -33.5t-122 33.5t-88 87.5t-53 121.5t-18 136.5zM176 366q0 -26 1 -51.5t4 -51.5l309 241q-7 41 -19.5 78t-30.5 64.5t-43 43.5t-58 16
q-47 0 -78 -31t-50 -79.5t-27 -109t-8 -120.5zM501 366q0 23 -1.5 45.5t-3.5 45.5l-307 -241q7 -40 19.5 -75t30.5 -61.5t43 -41.5t57 -15q46 0 77 31t50 80.5t27 110.5t8 121z" />
    <glyph glyph-name="one.case" horiz-adv-x="526" 
d="M339 144q0 -39 2 -62t10.5 -36t26.5 -19t50 -10v-17h-316v20q40 4 62.5 9.5t33 18t12.5 35.5t2 62v465h-140v24q93 9 146.5 33.5t88.5 66.5h22v-590z" />
    <glyph glyph-name="two.case" horiz-adv-x="640" 
d="M313 742q53 0 98 -12.5t78 -35.5t51.5 -56t18.5 -74q0 -45 -18.5 -86.5t-53.5 -84.5t-87 -88.5t-119 -98.5q-12 -9 -28.5 -22t-34.5 -27.5t-36 -28.5t-32 -24h419v-104h-550v40q116 94 194 169t125 135.5t67 108t20 88.5q0 38 -11.5 65t-31 44.5t-46 26t-55.5 8.5
q-76 0 -128 -41t-66 -123h-37q5 51 26.5 91.5t56.5 69.5t81 44.5t99 15.5z" />
    <glyph glyph-name="three.case" horiz-adv-x="654" 
d="M61 247h18q29 -121 84 -172.5t133 -51.5q32 0 59.5 11t48 33t32.5 54t12 74q0 40 -12.5 73.5t-37 57.5t-61 37.5t-85.5 13.5h-21l3 31h16q81 0 129 38.5t48 108.5q0 63 -40 96.5t-103 33.5q-74 0 -125 -44t-65 -119l-36 6q8 49 30.5 89t56.5 67.5t78 42.5t96 15t96 -11.5
t76 -32.5t49.5 -50t17.5 -63q0 -35 -13.5 -63t-36 -50t-52.5 -37.5t-62 -25.5v-3q38 -8 72.5 -24t60.5 -40.5t41.5 -57.5t15.5 -75q0 -50 -22 -91t-61 -70t-91.5 -45t-113.5 -16q-59 0 -112.5 9.5t-106.5 29.5z" />
    <glyph glyph-name="four.case" horiz-adv-x="668" 
d="M374 0v194h-354v42l373 489h98v-434h130v-97h-130v-194h-117zM374 624l-256 -333h256v333z" />
    <glyph glyph-name="five.case" horiz-adv-x="646" 
d="M288 423q-49 0 -93.5 -22t-68.5 -74l-44 13l70 385h410l-16 -103h-370l-42 -230q29 45 81 68.5t115 23.5q49 0 96 -15t84 -44.5t59.5 -74t22.5 -104.5q0 -57 -24 -104.5t-64.5 -82t-94 -53.5t-113.5 -19q-63 0 -116.5 10.5t-97.5 30.5l-17 216h19q28 -114 77.5 -167.5
t127.5 -53.5q40 0 71 14.5t52.5 41t32.5 63t11 81.5q0 92 -44.5 146t-123.5 54z" />
    <glyph glyph-name="six.case" horiz-adv-x="689" 
d="M354 -13q-68 0 -121 21.5t-89 61t-55 94.5t-19 123q0 87 36 163t95.5 136t135 103t154.5 64l12 -31q-122 -42 -196 -120.5t-95 -200.5q32 40 78 62.5t101 22.5q48 0 89.5 -15.5t72.5 -45t49 -72t18 -97.5q0 -54 -21.5 -103t-57.5 -86t-84.5 -58.5t-102.5 -21.5zM341 418
q-34 0 -71 -12.5t-62 -35.5q-3 -32 -3 -65q0 -55 8.5 -106t26.5 -90t47 -62.5t70 -23.5q33 0 58 14t41 39.5t24 61t8 78.5q0 37 -8 73t-26 64.5t-46 46.5t-67 18z" />
    <glyph glyph-name="seven.case" horiz-adv-x="565" 
d="M28 725h517v-104q-70 -65 -129 -131.5t-101.5 -140.5t-66 -159.5t-21.5 -189.5h-135q2 116 41 208.5t99 167.5t133 135t143 111h-480v103z" />
    <glyph glyph-name="eight.case" horiz-adv-x="682" 
d="M332 -13q-50 0 -97.5 11.5t-84.5 35t-59 59.5t-22 86q0 33 13.5 61.5t36.5 52t53.5 42t65.5 30.5q-63 36 -99.5 84t-36.5 109q0 42 19 76t52 58t77 37t94 13q46 0 88.5 -10t74.5 -30t51 -49.5t19 -67.5q0 -31 -14 -56.5t-36.5 -46.5t-51.5 -37t-59 -28l8 -3
q38 -18 72 -38t60 -45.5t41.5 -57.5t15.5 -73q0 -53 -23.5 -93t-62.5 -66.5t-89.5 -40t-105.5 -13.5zM167 183q0 -34 10.5 -63t31 -50.5t51.5 -33.5t72 -12q84 0 129 36t45 92q0 53 -37 87t-109 66l-79 38q-4 2 -7.5 3.5t-7.5 3.5q-45 -23 -72 -65t-27 -102zM483 580
q0 65 -39.5 95.5t-101.5 30.5q-33 0 -59 -8.5t-45 -23.5t-29 -35t-10 -42q0 -47 38.5 -79.5t97.5 -60.5l54 -27q40 24 67 60t27 90z" />
    <glyph glyph-name="nine.case" horiz-adv-x="679" 
d="M331 742q68 0 121 -21.5t89 -60.5t55 -94.5t19 -122.5q0 -87 -36.5 -163t-96.5 -136.5t-136.5 -103.5t-155.5 -64l-14 36q122 42 198 118t98 198q-32 -40 -78.5 -62t-100.5 -22q-47 0 -88.5 15.5t-72.5 45.5t-49 73.5t-18 98.5t21.5 103t58 84t84.5 57t102 21zM344 312
q34 0 70.5 12.5t61.5 35.5q2 16 3 32t1 33q0 55 -8.5 105.5t-26.5 89.5t-47 62.5t-70 23.5q-66 0 -98.5 -53t-32.5 -138q0 -38 8 -74t26 -65t46 -46.5t67 -17.5z" />
    <glyph glyph-name="zero.case" horiz-adv-x="728" 
d="M198 366q0 -64 8 -125.5t27.5 -110t51.5 -78t79 -29.5t78.5 29.5t51 78t27.5 110t8 125.5t-8 125t-27.5 109t-51 77t-78.5 29t-79 -29t-51.5 -77t-27.5 -109t-8 -125zM68 366q0 74 20 142t58 120t93 83t125 31t125 -31t93 -83t58 -120t20 -142t-20 -142.5t-58 -121
t-93 -84t-125 -31.5t-125 31.5t-93 84t-58 121t-20 142.5z" />
    <glyph glyph-name="zero.slashed.case" horiz-adv-x="728" 
d="M68 366q0 74 20 142t58 120t93 83t125 31t125 -31t93 -83t58 -120t20 -142t-20 -142.5t-58 -121t-93 -84t-125 -31.5t-125 31.5t-93 84t-58 121t-20 142.5zM529 366q0 15 -0.5 30.5t-1.5 30.5l-323 -171q6 -48 17.5 -90.5t31 -74t47 -50t64.5 -18.5q47 0 78.5 29.5t51 78
t27.5 110t8 125.5zM198 366v-31.5t2 -31.5l323 171q-6 48 -17.5 90t-31 73.5t-46.5 50t-64 18.5q-47 0 -79 -29t-51.5 -77t-27.5 -109t-8 -125z" />
    <glyph glyph-name="uni21B2" unicode="&#x21b2;" horiz-adv-x="800" 
d="M328 576l43 -47l-230 -226h545v422h64v-487h-614l235 -232l-43 -47l-308 309z" />
    <glyph glyph-name="uni21B3" unicode="&#x21b3;" horiz-adv-x="800" 
d="M780 268l-309 -309l-44 47l236 232h-613v487h64v-422h543l-230 226l44 47z" />
    <glyph glyph-name="uni21B0" unicode="&#x21b0;" horiz-adv-x="800" 
d="M686 238h-550l235 -232l-43 -47l-308 309l308 308l43 -47l-230 -226h609v-519h-64v454z" />
    <glyph glyph-name="uni21B1" unicode="&#x21b1;" horiz-adv-x="800" 
d="M780 268l-309 -309l-44 47l236 232h-549v-454h-64v519h607l-230 226l44 47z" />
    <glyph glyph-name="uni2190" unicode="&#x2190;" horiz-adv-x="800" 
d="M328 576l43 -47l-230 -226h629v-65h-634l235 -232l-43 -47l-308 309z" />
    <glyph glyph-name="uni2191" unicode="&#x2191;" horiz-adv-x="800" 
d="M708 434l-47 -43l-228 232v-623h-65v623l-229 -232l-46 43l307 308z" />
    <glyph glyph-name="uni2192" unicode="&#x2192;" horiz-adv-x="800" 
d="M795 268l-309 -309l-43 47l235 232h-648v65h643l-230 226l43 47z" />
    <glyph glyph-name="uni2193" unicode="&#x2193;" horiz-adv-x="800" 
d="M93 291l46 44l229 -233v623h65v-623l228 233l47 -44l-308 -308z" />
    <glyph glyph-name="uni2196" unicode="&#x2196;" horiz-adv-x="800" 
d="M132 562h436v-61h-328l467 -469l-45 -46l-469 468v-329h-61v437z" />
    <glyph glyph-name="uni2197" unicode="&#x2197;" horiz-adv-x="800" 
d="M668 125h-60v329l-469 -468l-47 46l469 469h-328v61h435v-437z" />
    <glyph glyph-name="uni2198" unicode="&#x2198;" horiz-adv-x="800" 
d="M668 0h-435v61h328l-469 469l47 45l470 -467v328h59v-436z" />
    <glyph glyph-name="uni2199" unicode="&#x2199;" horiz-adv-x="800" 
d="M132 436h61v-328l469 467l46 -45l-467 -469h327v-61h-436v436z" />
    <glyph glyph-name="uni219E" unicode="&#x219e;" horiz-adv-x="800" 
d="M20 273l309 308l42 -47l-230 -226h162l273 273l42 -47l-229 -226h381v-65h-386l234 -231l-42 -47l-279 278h-161l235 -231l-42 -47z" />
    <glyph glyph-name="uni219F" unicode="&#x219f;" horiz-adv-x="800" 
d="M400 737l308 -308l-47 -43l-228 232v-161q9 -9 30 -30.5t49 -49t58.5 -58.5t58.5 -58.5t49 -48.5l30 -30l-47 -44l-228 233v-376h-65v377l-229 -234l-46 44l275 276v161l-229 -233l-46 43z" />
    <glyph glyph-name="uni21A0" unicode="&#x21a0;" horiz-adv-x="800" 
d="M780 273l-309 -308l-44 47l236 231h-160l-279 -278l-43 47l234 231h-385v65h380l-229 226l43 47l273 -273h160l-230 226l44 47z" />
    <glyph glyph-name="uni21A1" unicode="&#x21a1;" horiz-adv-x="800" 
d="M400 -18l-307 308l46 44l229 -233v161l-275 275l46 44l229 -233v377h65v-376l228 232l47 -44l-275 -275v-161l228 233l47 -44z" />
    <glyph glyph-name="uni21A2" unicode="&#x21a2;" horiz-adv-x="800" 
d="M328 576l44 -47l-231 -226h331l274 273l44 -47l-261 -261l261 -262l-44 -47l-278 279h-332l236 -232l-44 -47l-308 309z" />
    <glyph glyph-name="uni21A3" unicode="&#x21a3;" horiz-adv-x="800" 
d="M472 -41l-43 47l235 232h-332l-278 -279l-44 47l261 262l-261 261l44 47l274 -273h330l-229 226l43 47l308 -308z" />
    <glyph glyph-name="uni21A4" unicode="&#x21a4;" horiz-adv-x="800" 
d="M679 0v238h-543l235 -234l-43 -47l-308 309l308 310l43 -47l-230 -226h538v235h72v-538h-72z" />
    <glyph glyph-name="uni21A5" unicode="&#x21a5;" horiz-adv-x="800" 
d="M708 434l-47 -43l-228 232v-558h231v-65h-536v65h240v559l-229 -233l-46 43l307 308z" />
    <glyph glyph-name="uni21A6" unicode="&#x21a6;" horiz-adv-x="800" 
d="M121 0h-71v538h71v-235h536l-230 226l45 47l308 -310l-308 -308l-45 46l236 234h-542v-238z" />
    <glyph glyph-name="uni21A7" unicode="&#x21a7;" horiz-adv-x="800" 
d="M93 290l46 44l229 -233v559h-240v65h536v-65h-231v-559l228 233l47 -44l-308 -308z" />
    <glyph glyph-name="uni25A0" unicode="&#x25a0;" horiz-adv-x="800" 
d="M133 538h535v-538h-535v538z" />
    <glyph glyph-name="uni25A1" unicode="&#x25a1;" horiz-adv-x="800" 
d="M133 538h535v-538h-535v538zM197 64h408v411h-408v-411z" />
    <glyph glyph-name="uni25CB" unicode="&#x25cb;" horiz-adv-x="800" 
d="M122 268q0 58 22 108.5t59.5 88.5t88 60t108.5 22t108.5 -22t88.5 -60t60 -88.5t22 -108.5t-22 -109t-60 -89.5t-88.5 -60.5t-108.5 -22t-108.5 22t-88 60.5t-59.5 89.5t-22 109zM400 48q44 0 83 17t68 46.5t45.5 69.5t16.5 87t-16.5 87t-45.5 69t-68 45.5t-83 16.5
t-82.5 -16.5t-67.5 -45.5t-45.5 -69t-16.5 -87q0 -45 16.5 -85t45.5 -70t67.5 -47.5t82.5 -17.5z" />
    <glyph glyph-name="uni25CF" unicode="&#x25cf;" horiz-adv-x="800" 
d="M122 268q0 58 22 108.5t59.5 88.5t88 60t108.5 22t108.5 -22t88.5 -60t60 -88.5t22 -108.5t-22 -109t-60 -89.5t-88.5 -60.5t-108.5 -22t-108.5 22t-88 60.5t-59.5 89.5t-22 109z" />
    <glyph glyph-name="onethird" unicode="&#x2153;" horiz-adv-x="893" 
d="M194 398q0 -21 1 -34t6.5 -20.5t16 -10.5t29.5 -6v-10h-198v11q23 2 36 5t19.5 10.5t8 20.5t1.5 35v265h-77v11q48 5 84 18.5t61 38.5h12v-334zM136 0l508 725h66l-507 -725h-67zM686 -7q-29 0 -55.5 6t-43.5 14v103h10q12 -51 38.5 -75.5t58.5 -24.5q37 0 59 22t22 57
q0 12 -4.5 28.5t-16.5 32.5t-33 29t-54 18v12l13 6q41 18 57.5 45.5t16.5 47.5q0 26 -17.5 39.5t-48.5 13.5t-54.5 -16.5t-31.5 -48.5h-18q10 56 47 86t94 30q21 0 40.5 -5t34.5 -15t24 -24t9 -33q0 -18 -9 -32.5t-21.5 -26.5t-27 -20.5t-26.5 -13.5v-2q47 -14 77 -46
t30 -77q0 -31 -15 -55.5t-39 -41t-54.5 -25t-61.5 -8.5z" />
    <glyph glyph-name="uni2155" unicode="&#x2155;" horiz-adv-x="874" 
d="M194 398q0 -21 1 -34t6.5 -20.5t16 -10.5t29.5 -6v-10h-198v11q23 2 36 5t19.5 10.5t8 20.5t1.5 35v265h-77v11q48 5 84 18.5t61 38.5h12v-334zM136 0l508 725h66l-507 -725h-67zM666 408h184l-22 -72h-163l-20 -55q96 -5 148.5 -43.5t52.5 -103.5q0 -33 -13 -59.5
t-35 -44.5t-51 -27.5t-60 -9.5q-29 0 -56.5 5.5t-44.5 12.5v103h11q12 -48 38 -73t59 -25q35 0 55 22.5t20 57.5q0 24 -9.5 44.5t-30.5 36.5t-53.5 25.5t-78.5 11.5z" />
    <glyph glyph-name="uni2159" unicode="&#x2159;" horiz-adv-x="932" 
d="M746 -7q-70 0 -111.5 43.5t-41.5 121.5q0 52 23 96.5t60.5 78.5t86 57.5t99.5 35.5l6 -16q-72 -23 -120.5 -68.5t-63.5 -114.5q15 21 38.5 33.5t53.5 12.5q24 0 46 -9t38 -25.5t25.5 -40t9.5 -53.5q0 -32 -11.5 -60t-32 -48.5t-47.5 -32t-58 -11.5zM740 231
q-15 0 -31.5 -6t-27.5 -16q-1 -9 -1.5 -18t-0.5 -19q0 -31 3.5 -60t11.5 -51t21 -35t32 -13q18 0 30 9t19.5 24t10.5 34.5t3 40.5q0 48 -18.5 79t-51.5 31zM194 398q0 -21 1 -34t6.5 -20.5t16 -10.5t29.5 -6v-10h-198v11q23 2 36 5t19.5 10.5t8 20.5t1.5 35v265h-77v11
q48 5 84 18.5t61 38.5h12v-334zM136 0l508 725h66l-507 -725h-67z" />
    <glyph glyph-name="oneeighth" unicode="&#x215b;" horiz-adv-x="929" 
d="M194 398q0 -21 1 -34t6.5 -20.5t16 -10.5t29.5 -6v-10h-198v11q23 2 36 5t19.5 10.5t8 20.5t1.5 35v265h-77v11q48 5 84 18.5t61 38.5h12v-334zM136 0l508 725h66l-507 -725h-67zM738 -7q-29 0 -55.5 6.5t-46.5 19.5t-32 33.5t-12 47.5q0 35 25 60t62 39q-31 20 -50 47.5
t-19 63.5q0 25 10.5 44.5t29 33.5t42.5 21.5t51 7.5q25 0 48 -5.5t41 -16.5t28.5 -27t10.5 -37q0 -34 -25.5 -56.5t-57.5 -35.5q22 -10 41 -21.5t33 -26.5t22.5 -33.5t8.5 -42.5q0 -30 -13.5 -52.5t-35 -38t-49.5 -23.5t-57 -8zM649 102q0 -38 22 -63t67 -25q47 0 68 20
t21 47q0 30 -22 48.5t-57 35.5l-40 19l-13 6q-24 -12 -35 -35.5t-11 -52.5zM818 327q0 38 -21 53.5t-53 15.5q-35 0 -53.5 -17t-18.5 -40q0 -24 17 -42.5t54 -36.5l30 -14q20 13 32.5 32.5t12.5 48.5z" />
    <glyph glyph-name="twothirds" unicode="&#x2154;" horiz-adv-x="923" 
d="M278 632q0 -22 -5.5 -39.5t-17.5 -35.5t-32 -39t-49 -50q-22 -21 -41.5 -39.5t-42.5 -38.5h198v-73h-299v7q61 55 101.5 97.5t64 76t33 60t9.5 50.5q0 37 -20 56.5t-54 19.5t-57.5 -16.5t-31.5 -48.5h-17q10 56 46 86t94 30q24 0 46 -6.5t38.5 -19.5t26.5 -32.5t10 -44.5
zM165 0l508 725h66l-507 -725h-67zM715 -7q-29 0 -55.5 6t-43.5 14v103h10q12 -51 38.5 -75.5t58.5 -24.5q37 0 59 22t22 57q0 12 -4.5 28.5t-16.5 32.5t-33 29t-54 18v12l13 6q41 18 57.5 45.5t16.5 47.5q0 26 -17.5 39.5t-48.5 13.5t-54.5 -16.5t-31.5 -48.5h-18
q10 56 47 86t94 30q21 0 40.5 -5t34.5 -15t24 -24t9 -33q0 -18 -9 -32.5t-21.5 -26.5t-27 -20.5t-26.5 -13.5v-2q47 -14 77 -46t30 -77q0 -31 -15 -55.5t-39 -41t-54.5 -25t-61.5 -8.5z" />
    <glyph glyph-name="uni2156" unicode="&#x2156;" horiz-adv-x="904" 
d="M278 632q0 -22 -5.5 -39.5t-17.5 -35.5t-32 -39t-49 -50q-22 -21 -41.5 -39.5t-42.5 -38.5h198v-73h-299v7q61 55 101.5 97.5t64 76t33 60t9.5 50.5q0 37 -20 56.5t-54 19.5t-57.5 -16.5t-31.5 -48.5h-17q10 56 46 86t94 30q24 0 46 -6.5t38.5 -19.5t26.5 -32.5t10 -44.5
zM165 0l508 725h66l-507 -725h-67zM695 408h184l-22 -72h-163l-20 -55q96 -5 148.5 -43.5t52.5 -103.5q0 -33 -13 -59.5t-35 -44.5t-51 -27.5t-60 -9.5q-29 0 -56.5 5.5t-44.5 12.5v103h11q12 -48 38 -73t59 -25q35 0 55 22.5t20 57.5q0 24 -9.5 44.5t-30.5 36.5t-53.5 25.5
t-78.5 11.5z" />
    <glyph glyph-name="uni2157" unicode="&#x2157;" horiz-adv-x="922" 
d="M131 310q-29 0 -55.5 6t-43.5 14v103h10q12 -51 38.5 -75.5t58.5 -24.5q37 0 59 22t22 57q0 12 -4.5 28.5t-16.5 32.5t-33 29t-54 18v12l13 6q41 18 57.5 45.5t16.5 47.5q0 26 -17.5 39.5t-48.5 13.5t-54.5 -16.5t-31.5 -48.5h-18q10 56 47 86t94 30q21 0 40.5 -5
t34.5 -15t24 -24t9 -33q0 -18 -9 -32.5t-21.5 -26.5t-27 -20.5t-26.5 -13.5v-2q47 -14 77 -46t30 -77q0 -31 -15 -55.5t-39 -41t-54.5 -25t-61.5 -8.5zM184 0l508 725h66l-507 -725h-67zM714 408h184l-22 -72h-163l-20 -55q96 -5 148.5 -43.5t52.5 -103.5q0 -33 -13 -59.5
t-35 -44.5t-51 -27.5t-60 -9.5q-29 0 -56.5 5.5t-44.5 12.5v103h11q12 -48 38 -73t59 -25q35 0 55 22.5t20 57.5q0 24 -9.5 44.5t-30.5 36.5t-53.5 25.5t-78.5 11.5z" />
    <glyph glyph-name="threeeighths" unicode="&#x215c;" horiz-adv-x="977" 
d="M131 310q-29 0 -55.5 6t-43.5 14v103h10q12 -51 38.5 -75.5t58.5 -24.5q37 0 59 22t22 57q0 12 -4.5 28.5t-16.5 32.5t-33 29t-54 18v12l13 6q41 18 57.5 45.5t16.5 47.5q0 26 -17.5 39.5t-48.5 13.5t-54.5 -16.5t-31.5 -48.5h-18q10 56 47 86t94 30q21 0 40.5 -5
t34.5 -15t24 -24t9 -33q0 -18 -9 -32.5t-21.5 -26.5t-27 -20.5t-26.5 -13.5v-2q47 -14 77 -46t30 -77q0 -31 -15 -55.5t-39 -41t-54.5 -25t-61.5 -8.5zM184 0l508 725h66l-507 -725h-67zM786 -7q-29 0 -55.5 6.5t-46.5 19.5t-32 33.5t-12 47.5q0 35 25 60t62 39
q-31 20 -50 47.5t-19 63.5q0 25 10.5 44.5t29 33.5t42.5 21.5t51 7.5q25 0 48 -5.5t41 -16.5t28.5 -27t10.5 -37q0 -34 -25.5 -56.5t-57.5 -35.5q22 -10 41 -21.5t33 -26.5t22.5 -33.5t8.5 -42.5q0 -30 -13.5 -52.5t-35 -38t-49.5 -23.5t-57 -8zM697 102q0 -38 22 -63
t67 -25q47 0 68 20t21 47q0 30 -22 48.5t-57 35.5l-40 19l-13 6q-24 -12 -35 -35.5t-11 -52.5zM866 327q0 38 -21 53.5t-53 15.5q-35 0 -53.5 -17t-18.5 -40q0 -24 17 -42.5t54 -36.5l30 -14q20 13 32.5 32.5t12.5 48.5z" />
    <glyph glyph-name="uni2158" unicode="&#x2158;" horiz-adv-x="936" 
d="M197 0l508 725h66l-507 -725h-67zM187 317v99h-176v48l186 261h70v-243h67v-66h-67v-99h-80zM187 666l-132 -184h132v184zM727 408h184l-22 -72h-163l-20 -55q96 -5 148.5 -43.5t52.5 -103.5q0 -33 -13 -59.5t-35 -44.5t-51 -27.5t-60 -9.5q-29 0 -56.5 5.5t-44.5 12.5
v103h11q12 -48 38 -73t59 -25q35 0 55 22.5t20 57.5q0 24 -9.5 44.5t-30.5 36.5t-53.5 25.5t-78.5 11.5z" />
    <glyph glyph-name="uni215A" unicode="&#x215a;" horiz-adv-x="961" 
d="M111 725h184l-22 -72h-163l-20 -55q96 -5 148.5 -43.5t52.5 -103.5q0 -33 -13 -59.5t-35 -44.5t-51 -27.5t-60 -9.5q-29 0 -56.5 5.5t-44.5 12.5v103h11q12 -48 38 -73t59 -25q35 0 55 22.5t20 57.5q0 24 -9.5 44.5t-30.5 36.5t-53.5 25.5t-78.5 11.5zM165 0l508 725h66
l-507 -725h-67zM775 -7q-70 0 -111.5 43.5t-41.5 121.5q0 52 23 96.5t60.5 78.5t86 57.5t99.5 35.5l6 -16q-72 -23 -120.5 -68.5t-63.5 -114.5q15 21 38.5 33.5t53.5 12.5q24 0 46 -9t38 -25.5t25.5 -40t9.5 -53.5q0 -32 -11.5 -60t-32 -48.5t-47.5 -32t-58 -11.5zM769 231
q-15 0 -31.5 -6t-27.5 -16q-1 -9 -1.5 -18t-0.5 -19q0 -31 3.5 -60t11.5 -51t21 -35t32 -13q18 0 30 9t19.5 24t10.5 34.5t3 40.5q0 48 -18.5 79t-51.5 31z" />
    <glyph glyph-name="fiveeighths" unicode="&#x215d;" horiz-adv-x="958" 
d="M111 725h184l-22 -72h-163l-20 -55q96 -5 148.5 -43.5t52.5 -103.5q0 -33 -13 -59.5t-35 -44.5t-51 -27.5t-60 -9.5q-29 0 -56.5 5.5t-44.5 12.5v103h11q12 -48 38 -73t59 -25q35 0 55 22.5t20 57.5q0 24 -9.5 44.5t-30.5 36.5t-53.5 25.5t-78.5 11.5zM165 0l508 725h66
l-507 -725h-67zM767 -7q-29 0 -55.5 6.5t-46.5 19.5t-32 33.5t-12 47.5q0 35 25 60t62 39q-31 20 -50 47.5t-19 63.5q0 25 10.5 44.5t29 33.5t42.5 21.5t51 7.5q25 0 48 -5.5t41 -16.5t28.5 -27t10.5 -37q0 -34 -25.5 -56.5t-57.5 -35.5q22 -10 41 -21.5t33 -26.5
t22.5 -33.5t8.5 -42.5q0 -30 -13.5 -52.5t-35 -38t-49.5 -23.5t-57 -8zM678 102q0 -38 22 -63t67 -25q47 0 68 20t21 47q0 30 -22 48.5t-57 35.5l-40 19l-13 6q-24 -12 -35 -35.5t-11 -52.5zM847 327q0 38 -21 53.5t-53 15.5q-35 0 -53.5 -17t-18.5 -40q0 -24 17 -42.5
t54 -36.5l30 -14q20 13 32.5 32.5t12.5 48.5z" />
    <glyph glyph-name="seveneighths" unicode="&#x215e;" horiz-adv-x="943" 
d="M150 0l508 725h66l-507 -725h-67zM752 -7q-29 0 -55.5 6.5t-46.5 19.5t-32 33.5t-12 47.5q0 35 25 60t62 39q-31 20 -50 47.5t-19 63.5q0 25 10.5 44.5t29 33.5t42.5 21.5t51 7.5q25 0 48 -5.5t41 -16.5t28.5 -27t10.5 -37q0 -34 -25.5 -56.5t-57.5 -35.5
q22 -10 41 -21.5t33 -26.5t22.5 -33.5t8.5 -42.5q0 -30 -13.5 -52.5t-35 -38t-49.5 -23.5t-57 -8zM663 102q0 -38 22 -63t67 -25q47 0 68 20t21 47q0 30 -22 48.5t-57 35.5l-40 19l-13 6q-24 -12 -35 -35.5t-11 -52.5zM832 327q0 38 -21 53.5t-53 15.5q-35 0 -53.5 -17
t-18.5 -40q0 -24 17 -42.5t54 -36.5l30 -14q20 13 32.5 32.5t12.5 48.5zM12 725h289v-73q-37 -35 -66.5 -70.5t-51 -75.5t-33.5 -86.5t-13 -102.5h-89q2 63 23 113t53.5 90.5t73.5 73t82 59.5h-268v72z" />
    <glyph glyph-name="uni215F" unicode="&#x215f;" horiz-adv-x="555" 
d="M194 398q0 -21 1 -34t6.5 -20.5t16 -10.5t29.5 -6v-10h-198v11q23 2 36 5t19.5 10.5t8 20.5t1.5 35v265h-77v11q48 5 84 18.5t61 38.5h12v-334zM136 0l508 725h66l-507 -725h-67z" />
    <glyph glyph-name="fraction" unicode="&#x2044;" horiz-adv-x="264" 
d="M-155 0l508 725h66l-507 -725h-67z" />
    <glyph glyph-name="a.superior" horiz-adv-x="309" 
d="M258 514q-1 -26 4 -35t14 -9q7 0 12.5 4.5t10.5 9.5l8 -7q-11 -18 -26.5 -31t-39.5 -13q-20 0 -36.5 11.5t-18.5 44.5q-11 -22 -31 -40t-56 -18q-35 0 -58.5 22t-23.5 53q0 32 23 52t58 34q15 6 36 13.5t52 16.5v22q2 44 -12 61.5t-38 17.5t-37.5 -16.5t-11.5 -59.5h-65
q3 24 15.5 42.5t30.5 31t40 19t43 6.5t41 -5.5t35.5 -18t25 -32.5t8.5 -49zM138 481q12 0 25 4.5t21 15.5l1 96q-26 -5 -42.5 -11t-29.5 -14q-15 -9 -19.5 -20t-4.5 -23q0 -22 14.5 -35t34.5 -13z" />
    <glyph glyph-name="b.superior" horiz-adv-x="349" 
d="M123 693q11 19 33.5 36t54.5 17q27 0 48.5 -12.5t36.5 -33t23.5 -47t8.5 -55.5q0 -38 -12 -69t-32 -52.5t-46.5 -33.5t-54.5 -12q-52 0 -90 29l-43 -26h-9q2 24 2 48v48v252q0 19 -1 30.5t-5.5 18t-13 8.5t-23.5 3v9l125 39q-1 -23 -1.5 -52.5t-0.5 -72.5v-72zM123 482
q8 -14 23.5 -22t34.5 -8q34 0 50 30.5t16 80.5q0 26 -6 49.5t-16.5 41.5t-25.5 29t-34 11q-27 0 -42 -18v-194z" />
    <glyph glyph-name="c.superior" horiz-adv-x="287" 
d="M163 722q-35 0 -52.5 -31t-17.5 -75q0 -60 29.5 -93t76.5 -33q16 0 35.5 5t33.5 19l7 -5q-6 -13 -16 -26.5t-24 -25t-33 -19t-41 -7.5q-34 0 -60 12t-44 32.5t-27 48.5t-9 60q0 34 12.5 64t34 52t49.5 34.5t59 12.5q45 0 69.5 -18.5t24.5 -42.5q0 -14 -9.5 -23t-25.5 -9
q-8 0 -15.5 3t-12.5 14l-19 38q-4 8 -9.5 10.5t-15.5 2.5z" />
    <glyph glyph-name="d.superior" horiz-adv-x="355" 
d="M167 726q-33 0 -49 -30t-16 -81q0 -27 5.5 -51t16 -42t25.5 -28.5t33 -10.5q29 0 43 18v195q-8 13 -23 21.5t-35 8.5zM225 782q0 19 -1.5 30t-6.5 17t-14.5 8t-26.5 3v9l131 41q-1 -23 -1.5 -52.5t-0.5 -72.5v-229q0 -19 1 -30.5t4.5 -18t11.5 -9t23 -2.5v-9l-110 -34
l-7 54q-11 -20 -34.5 -38t-56.5 -18q-27 0 -48.5 12t-36.5 32.5t-23 47.5t-8 57q0 38 12 68.5t32 52.5t46 33.5t54 11.5q32 0 60 -14v50z" />
    <glyph glyph-name="e.superior" horiz-adv-x="302" 
d="M161 431q-33 0 -59 11.5t-44 32t-27.5 47.5t-9.5 58q0 36 11.5 66.5t31 52.5t45.5 34.5t56 12.5q55 0 87 -32.5t33 -88.5h-193v-13q0 -58 32 -90t79 -32q23 0 43 6.5t33 19.5l7 -6q-8 -13 -19 -27t-26 -25.5t-35 -19t-45 -7.5zM155 723q-24 0 -42.5 -18t-20.5 -58h116
q2 42 -14 59t-39 17z" />
    <glyph glyph-name="f.superior" horiz-adv-x="225" 
d="M154 853q-10 0 -18.5 -5t-13 -16t-3.5 -28t9 -40l9 -23h89v-26h-88v-197q0 -23 2 -36t8 -19.5t18 -9t33 -4.5v-11h-184v10q16 2 25 5t13 10t4.5 20t0.5 35v197h-41v26h41v9q0 32 12 56t30 40.5t40 25t42 8.5q36 0 55 -16.5t19 -36.5q0 -16 -9.5 -25.5t-24.5 -9.5
q-8 0 -15 3.5t-12 11.5l-21 33q-5 7 -8.5 10t-11.5 3z" />
    <glyph glyph-name="g.superior" horiz-adv-x="325" 
d="M33 645q0 48 34 74.5t84 26.5q28 0 51 -9l117 4v-26l-79 1q14 -13 22.5 -31t8.5 -40q0 -24 -9.5 -42.5t-25.5 -31t-38 -19.5t-47 -7q-19 0 -39 5q-25 -20 -25 -37q0 -9 7.5 -14.5t28.5 -6.5l63 -3q60 -2 90.5 -15t30.5 -53q0 -20 -10.5 -40t-31.5 -35.5t-52.5 -25
t-73.5 -9.5q-56 0 -90 18t-34 46q0 20 20.5 32t57.5 21q-28 5 -41.5 19t-13.5 33q0 21 17 39.5t40 35.5q-28 11 -45 34t-17 56zM114 426h-4q-22 -8 -30 -20.5t-8 -23.5q0 -25 23 -35.5t56 -10.5q19 0 38.5 3.5t35.5 10t25.5 16.5t9.5 24q0 20 -18.5 26t-53.5 8zM106 645
q0 -37 10.5 -59t34.5 -22q26 0 36.5 22t10.5 59t-10.5 59.5t-36.5 22.5q-24 0 -34.5 -22.5t-10.5 -59.5z" />
    <glyph glyph-name="h.superior" horiz-adv-x="351" 
d="M133 890q-1 -23 -1.5 -52.5t-0.5 -72.5v-74q12 20 33.5 37.5t56.5 17.5t58.5 -25.5t23.5 -81.5v-121q0 -22 1 -35t5 -20t12.5 -10t24.5 -5v-10h-159v10q13 2 20.5 5t11 10t4 20t0.5 35v107q0 35 -10.5 52t-34.5 17q-16 0 -27.5 -5.5t-19.5 -13.5v-157q0 -22 0.5 -35
t4.5 -20t11.5 -10t21.5 -5v-10h-161v10q16 2 25 5t13 10t4.5 20t0.5 35v264q0 19 -1 30.5t-5.5 18t-13 8.5t-23.5 3v9l125 39v0z" />
    <glyph glyph-name="i.superior" horiz-adv-x="192" 
d="M138 518q0 -22 1 -35t5 -20t12.5 -10t24.5 -5v-10h-166v10q16 2 25 5t13 10t4.5 20t0.5 35v120q0 19 -1 30.5t-5.5 17.5t-13 8.5t-23.5 3.5v9l125 39q-1 -23 -1.5 -52.5t-0.5 -72.5v-103zM95 791q-21 0 -35.5 15t-14.5 35t14.5 34t35.5 14t35.5 -14t14.5 -34t-14.5 -35
t-35.5 -15z" />
    <glyph glyph-name="j.superior" horiz-adv-x="184" 
d="M92 791q-20 0 -34.5 15t-14.5 35t14.5 34t34.5 14q21 0 36 -14t15 -34t-15 -35t-36 -15zM56 638q0 19 -1 30.5t-5.5 17.5t-13 8.5t-23.5 3.5v9l125 39q0 -23 -1 -52.5t-1 -72.5v-126q0 -39 -7.5 -68t-24 -51t-41.5 -40t-59 -34l-5 8q37 40 47 83t10 93v152z" />
    </font>
</defs>
</svg>
