<?xml version="1.0" standalone="no"?>
<!DOCTYPE svg PUBLIC "-//W3C//DTD SVG 1.1//EN" "http://www.w3.org/Graphics/SVG/1.1/DTD/svg11.dtd" >
<svg xmlns="http://www.w3.org/2000/svg" xmlns:xlink="http://www.w3.org/1999/xlink" version="1.1">
<metadata>
Created by Christoph Koeberlin (http://christoph.koe.berlin)
Copyright (c) 2015 Swiss Typefaces Sa`rl. All rights reserved.
</metadata>
<defs>
<font id="Font" horiz-adv-x="548" >
  <font-face 
    font-family="Font"
    font-weight="400"
    font-stretch="condensed"
    units-per-em="1000"
    panose-1="2 11 5 6 0 0 0 0 0 0"
    ascent="800"
    descent="-200"
    x-height="538"
    cap-height="725"
    bbox="-60 -234 1077 933"
    underline-thickness="60"
    underline-position="-110"
    unicode-range="U+0020-FB02"
  />
<missing-glyph horiz-adv-x="500" 
d="M0 725h500v-725h-500v725zM19 696v-667l220 333zM481 29v667l-221 -334zM33 19h433l-216 327zM250 378l216 328h-433z" />
    <glyph glyph-name=".notdef" horiz-adv-x="500" 
d="M0 725h500v-725h-500v725zM19 696v-667l220 333zM481 29v667l-221 -334zM33 19h433l-216 327zM250 378l216 328h-433z" />
    <glyph glyph-name="glyph1" horiz-adv-x="0" 
 />
    <glyph glyph-name="glyph2" horiz-adv-x="193" 
 />
    <glyph glyph-name="space" unicode=" " horiz-adv-x="193" 
 />
    <glyph glyph-name="exclam" unicode="!" horiz-adv-x="265" 
d="M86 524v201h93v-201l-16 -329h-61zM79 108h108v-108h-108v108z" />
    <glyph glyph-name="quotedbl" unicode="&#x22;" horiz-adv-x="317" 
d="M180 725h95l-21 -240h-54zM42 725h95l-21 -240h-54z" />
    <glyph glyph-name="numbersign" unicode="#" horiz-adv-x="580" 
d="M329 211h-129l-29 -211h-72l29 211h-111l10 68h110l26 185h-109l8 69h110l27 192h72l-27 -192h129l27 192h72l-27 -192h110l-9 -69h-110l-26 -185h109l-8 -68h-110l-29 -211h-72zM209 279h129l26 185h-129z" />
    <glyph glyph-name="dollar" unicode="$" horiz-adv-x="509" 
d="M236 -12q-99 7 -150.5 66t-51.5 169v4h91v-4q0 -85 35 -126.5t101 -41.5q63 0 93.5 32.5t30.5 90.5q0 28 -7 49t-20.5 37.5t-34 30t-46.5 25.5l-88 39q-31 15 -57.5 31t-45.5 38.5t-30 53.5t-11 75q0 86 52.5 132t138.5 49v81h43v-83q40 -4 73 -18t56 -39t36 -61.5
t13 -84.5v-4h-91v4q0 66 -31 101.5t-88 35.5q-54 0 -83.5 -29t-29.5 -79q0 -52 20 -77.5t58 -42.5l93 -43q35 -16 66 -32.5t54.5 -40t37 -56.5t13.5 -81q0 -93 -50.5 -144.5t-146.5 -56.5v-87h-43v87z" />
    <glyph glyph-name="percent" unicode="%" horiz-adv-x="795" 
d="M156 352q21 0 33.5 10.5t18.5 30t7.5 48t1.5 65.5v29q0 37 -1.5 65.5t-7.5 48t-18.5 30t-33.5 10.5t-33 -10.5t-18.5 -30t-8 -48t-1.5 -65.5v-29q0 -37 1.5 -65.5t8 -48t18.5 -30t33 -10.5zM156 309q-72 0 -99 45t-27 140v53q0 95 27 140t99 45t99 -45t27 -140v-53
q0 -95 -27 -140t-99 -45zM494 725h49l-243 -725h-48zM639 35q21 0 33.5 10.5t18.5 30t7.5 48t1.5 65.5v29q0 37 -1.5 65.5t-7.5 48t-18.5 30t-33.5 10.5t-33 -10.5t-18.5 -30t-8 -48t-1.5 -65.5v-29q0 -37 1.5 -65.5t8 -48t18.5 -30t33 -10.5zM639 -8q-72 0 -99 45t-27 140
v53q0 95 27 140t99 45t99 -45t27 -140v-53q0 -95 -27 -140t-99 -45z" />
    <glyph glyph-name="ampersand" unicode="&#x26;" horiz-adv-x="600" 
d="M234 -13q-50 0 -89 15t-66.5 42t-42 63.5t-14.5 79.5q0 36 8.5 64t26 52t42.5 45.5t58 45.5l26 19q-39 51 -58 91t-19 91q0 33 12 59.5t33 45t50 28.5t64 10q31 0 59.5 -8.5t49.5 -26t33.5 -44t12.5 -62.5q0 -32 -10 -58.5t-28 -49t-42 -43t-51 -39.5l-4 -3l145 -191
q14 33 22 78t10 108h74q-2 -78 -17 -141.5t-40 -108.5l113 -149h-97l-62 82q-75 -95 -199 -95zM243 53q46 0 84 21t64 63l-168 223l-23 -17q-24 -17 -41 -33.5t-28 -34t-16.5 -38.5t-5.5 -47q0 -29 9.5 -54t27 -43.5t42.5 -29t55 -10.5zM184 593q0 -20 4 -35.5t11.5 -31
t19 -31.5t26.5 -37l1 -1l3 2q19 14 36 28.5t30.5 31t21.5 35t8 40.5q0 36 -20 58t-60 22q-35 0 -58 -20t-23 -61z" />
    <glyph glyph-name="quotesingle" unicode="'" horiz-adv-x="179" 
d="M42 725h95l-21 -240h-54z" />
    <glyph glyph-name="parenleft" unicode="(" horiz-adv-x="236" 
d="M169 -175q-23 34 -45.5 81.5t-41.5 105.5t-30.5 124.5t-11.5 138.5t11.5 138.5t30.5 124.5t41.5 105t45.5 82h75q-24 -42 -46 -91.5t-38.5 -106t-26 -119.5t-9.5 -133t9.5 -133t26 -119.5t38.5 -106t46 -91.5h-75z" />
    <glyph glyph-name="parenright" unicode=")" horiz-adv-x="236" 
d="M-9 -175q50 85 84.5 197.5t34.5 252.5t-34.5 252.5t-84.5 197.5h75q23 -35 46 -82t41.5 -105t30 -124.5t11.5 -138.5t-11.5 -138.5t-30 -124.5t-41.5 -105.5t-46 -81.5h-75z" />
    <glyph glyph-name="asterisk" unicode="*" horiz-adv-x="383" 
d="M72 454l70 98l-115 41l19 57l114 -42v117h61v-117l116 41l20 -57l-117 -39l71 -98l-46 -34l-73 98l-70 -98z" />
    <glyph glyph-name="plus" unicode="+" 
d="M237 233h-209v73h209v232h75v-232h209v-73h-209v-233h-75v233z" />
    <glyph glyph-name="comma" unicode="," horiz-adv-x="228" 
d="M105 0h-45v108h108v-115l-57 -122h-55z" />
    <glyph glyph-name="hyphen" unicode="-" horiz-adv-x="339" 
d="M50 308h239v-77h-239v77z" />
    <glyph glyph-name="period" unicode="." horiz-adv-x="228" 
d="M60 108h108v-108h-108v108z" />
    <glyph glyph-name="slash" unicode="/" horiz-adv-x="334" 
d="M245 725h89l-246 -725h-88z" />
    <glyph glyph-name="zero" unicode="0" horiz-adv-x="552" 
d="M275 52q42 0 67 19t38 56t17 90t4 122v47q0 69 -4 122.5t-17 90t-38 56t-67 19.5t-67 -19.5t-38 -56t-17 -90t-4 -122.5v-47q0 -69 4 -122t17 -90t38 -56t67 -19zM275 -13q-61 0 -102.5 19.5t-67 60.5t-36.5 103t-11 148v89q0 85 11 147.5t36.5 103.5t67 60.5t102.5 19.5
t103 -19.5t67.5 -60.5t37 -103.5t11.5 -147.5v-89q0 -86 -11.5 -148t-37 -103t-67.5 -60.5t-103 -19.5z" />
    <glyph glyph-name="one" unicode="1" horiz-adv-x="326" 
d="M149 570h-136v58q49 0 77.5 2.5t44 12t22 28.5t12.5 54h70v-725h-90v570z" />
    <glyph glyph-name="two" unicode="2" horiz-adv-x="482" 
d="M41 69l81 102q45 58 86 110t72 100t49 92t18 85q0 60 -27.5 88.5t-78.5 28.5q-57 0 -83.5 -39.5t-26.5 -113.5v-7h-85v6q0 105 49.5 161t151.5 56q42 0 77 -10.5t60.5 -32t39.5 -54.5t14 -78q0 -46 -17.5 -93t-48.5 -96.5t-72.5 -104t-89.5 -115.5l-65 -82h296v-72h-400
v69z" />
    <glyph glyph-name="three" unicode="3" horiz-adv-x="507" 
d="M236 -13q-94 0 -146.5 50t-52.5 147v4h85v-4q0 -58 26.5 -95t88.5 -37q38 0 62.5 11.5t39 31t20 46t5.5 56.5q0 34 -8 61t-26 46t-47.5 29t-72.5 10h-38v66h36q68 0 101 33.5t33 104.5q0 62 -26 95t-83 33q-58 0 -80 -34.5t-22 -97.5v-4h-85v4q0 97 50 146t140 49
q42 0 78 -9.5t62.5 -31t42 -57t15.5 -87.5q0 -69 -31 -112.5t-83 -57.5q63 -14 99.5 -60.5t36.5 -124.5q0 -109 -57 -160t-163 -51z" />
    <glyph glyph-name="four" unicode="4" horiz-adv-x="510" 
d="M304 188h-288v68l289 469h89v-465h84v-72h-84v-188h-90v188zM304 260v347l-216 -347h216z" />
    <glyph glyph-name="five" unicode="5" horiz-adv-x="507" 
d="M242 -13q-93 0 -146.5 50t-53.5 147v4h85v-4q0 -63 28 -98t87 -35q63 0 92 43.5t29 122.5v37q0 78 -28.5 122t-88.5 44q-45 0 -72 -26t-41 -68l-80 3l37 396h348v-71h-279l-22 -245q14 29 49 52.5t89 23.5q85 0 132.5 -57t47.5 -168v-48q0 -109 -55.5 -167t-157.5 -58z
" />
    <glyph glyph-name="six" unicode="6" horiz-adv-x="536" 
d="M274 -13q-52 0 -92 15t-67 49t-41 88.5t-14 132.5v101q0 90 10 158.5t35.5 114.5t68.5 69t109 23q48 0 83 -14.5t58.5 -39.5t35 -60t11.5 -75v-6h-85v5q0 59 -25.5 93t-79.5 34q-75 0 -103 -68t-28 -199v-25q5 16 17 32.5t30.5 30.5t43 23t54.5 9q86 0 137.5 -56.5
t51.5 -169.5v-39q0 -114 -57 -170t-153 -56zM271 51q57 0 89 42t32 123v28q0 81 -32 124.5t-89 43.5t-89.5 -44.5t-32.5 -125.5v-24q0 -81 32.5 -124t89.5 -43z" />
    <glyph glyph-name="seven" unicode="7" horiz-adv-x="435" 
d="M84 0q6 107 25.5 199t53 172t80.5 150t108 133h-337v71h417v-71q-65 -66 -111 -136.5t-76 -150t-46.5 -170.5t-21.5 -197h-92z" />
    <glyph glyph-name="eight" unicode="8" horiz-adv-x="539" 
d="M270 -13q-52 0 -94 12t-71 38t-45 66.5t-16 97.5q0 43 11.5 75t29.5 54.5t40.5 36t45.5 21.5q-17 6 -36.5 18.5t-35.5 32.5t-26.5 48.5t-10.5 66.5q0 49 15.5 83.5t43 57t66 33t83.5 10.5t82.5 -10.5t65.5 -33t43.5 -57t15.5 -83.5q0 -38 -10.5 -66.5t-26.5 -48.5
t-35 -32.5t-37 -18.5q23 -8 46 -21.5t41 -36t29.5 -54.5t11.5 -75q0 -57 -16 -97.5t-45.5 -66.5t-71 -38t-93.5 -12zM270 51q62 0 97.5 37t35.5 106v15q0 69 -35 106.5t-98 37.5t-99 -37t-36 -106v-16q0 -69 36 -106t99 -37zM270 414q114 0 114 124v12q0 125 -114 125
q-115 0 -115 -125v-12q0 -124 115 -124z" />
    <glyph glyph-name="nine" unicode="9" horiz-adv-x="534" 
d="M254 -13q-48 0 -83 14.5t-58 39.5t-34 59.5t-11 75.5v6h85v-4q0 -60 24.5 -93.5t78.5 -33.5q38 0 63 17t40 50.5t21 83.5t6 115v25q-5 -16 -17 -32.5t-30 -30.5t-42.5 -23t-54.5 -9q-87 0 -138.5 56.5t-51.5 169.5v39q0 114 57 170t153 56q52 0 92 -15t67 -49t41 -88.5
t14 -132.5v-101q0 -90 -10 -158.5t-35.5 -114.5t-68 -69t-108.5 -23zM265 313q59 0 90.5 44.5t31.5 125.5v24q0 81 -31.5 124.5t-90.5 43.5q-57 0 -88.5 -42.5t-31.5 -123.5v-28q0 -81 31.5 -124.5t88.5 -43.5z" />
    <glyph glyph-name="colon" unicode=":" horiz-adv-x="228" 
d="M60 538h108v-108h-108v108zM60 108h108v-108h-108v108z" />
    <glyph glyph-name="semicolon" unicode=";" horiz-adv-x="228" 
d="M60 538h108v-108h-108v108zM105 0h-45v108h108v-115l-57 -122h-55z" />
    <glyph glyph-name="less" unicode="&#x3c;" 
d="M71 230v78l406 228v-82l-323 -185l323 -184v-83z" />
    <glyph glyph-name="equal" unicode="=" 
d="M63 195h422v-72h-422v72zM63 415h422v-72h-422v72z" />
    <glyph glyph-name="greater" unicode="&#x3e;" 
d="M71 2v83l323 184l-323 185v82l406 -228v-78z" />
    <glyph glyph-name="question" unicode="?" horiz-adv-x="451" 
d="M155 235q0 36 6.5 61t18.5 44.5t30.5 36.5t42.5 37q35 30 55 62t20 82q0 64 -29 90.5t-76 26.5q-110 0 -110 -151v-4h-85v4q0 106 51 160t145 54q40 0 75.5 -9t62.5 -30t42.5 -55.5t15.5 -85.5q0 -34 -9 -61.5t-23 -50t-31.5 -40t-34.5 -32.5q-21 -18 -36 -31t-25 -27.5
t-15 -33.5t-5 -49v-38h-86v40zM144 108h108v-108h-108v108z" />
    <glyph glyph-name="at" unicode="@" horiz-adv-x="784" 
d="M389 -13q-77 0 -139 27t-105.5 76t-67 116t-23.5 147q0 81 27 151t74.5 121t112 80.5t139.5 29.5q68 0 126 -22t100.5 -63.5t66.5 -101.5t24 -135q0 -60 -14.5 -107t-38.5 -79.5t-54.5 -50t-62.5 -17.5q-50 0 -71 31t-19 75q-19 -48 -52 -74.5t-77 -28.5q-22 0 -44 10.5
t-39.5 32t-28.5 54.5t-11 78q0 47 13.5 90.5t36.5 76.5t55 53t69 20q22 0 39 -9t28.5 -22.5t18.5 -30t10 -32.5l9 74h52l-33 -230q-3 -25 -3 -46.5t4.5 -37t15 -24.5t28.5 -9q22 0 43.5 13.5t37.5 39t25.5 62.5t9.5 84q0 66 -21.5 117.5t-58.5 87t-85 53.5t-101 18
q-63 0 -117 -26t-93.5 -71.5t-62.5 -106t-23 -129.5q0 -68 21 -125.5t58 -99.5t88.5 -65.5t112.5 -23.5q43 0 89 11t74 28l21 -46q-19 -10 -42.5 -18t-48 -14t-48.5 -9t-45 -3zM345 218q25 0 46 15.5t36.5 41.5t24 60t8.5 71q0 56 -21 85t-51 29q-24 0 -44.5 -14.5
t-35.5 -39.5t-23.5 -58.5t-8.5 -70.5q0 -61 20 -90t49 -29z" />
    <glyph glyph-name="A" unicode="A" horiz-adv-x="529" 
d="M208 725h111l200 -725h-96l-47 186h-229l-47 -186h-90zM164 253h195l-97 381z" />
    <glyph glyph-name="B" unicode="B" horiz-adv-x="526" 
d="M72 725h170q51 0 93 -8t72.5 -28.5t47 -55.5t16.5 -89q0 -66 -32 -106.5t-84 -54.5q63 -14 101 -56t38 -119q0 -59 -16.5 -99t-47.5 -64t-74.5 -34.5t-98.5 -10.5h-185v725zM252 67q83 0 115.5 38t32.5 104q0 34 -7.5 59.5t-25.5 42t-48 25t-74 8.5h-79v-277h86zM241 408
q68 0 102.5 29.5t34.5 97.5q0 66 -34 95t-103 29h-75v-251h75z" />
    <glyph glyph-name="C" unicode="C" horiz-adv-x="529" 
d="M279 -13q-126 0 -181 80t-55 251v89q0 171 55 251t181 80q108 0 163.5 -61t55.5 -178v-5h-92v4q0 92 -32 131.5t-96 39.5q-42 0 -69 -19t-42 -56t-20.5 -90t-5.5 -122v-39q0 -69 5.5 -122t20.5 -90t42 -56t69 -19q64 0 96 39.5t32 131.5v4h92v-5q0 -117 -55.5 -178
t-163.5 -61z" />
    <glyph glyph-name="D" unicode="D" horiz-adv-x="555" 
d="M237 67q48 0 82 13.5t55 45.5t30.5 85t9.5 133v38q0 79 -9.5 132t-30.5 85.5t-55 46t-82 13.5h-71v-592h71zM72 725h162q66 0 117.5 -15.5t87 -53t54.5 -99.5t19 -156v-79q0 -93 -19 -155t-54.5 -99t-87 -52.5t-117.5 -15.5h-162v725z" />
    <glyph glyph-name="E" unicode="E" horiz-adv-x="461" 
d="M72 725h368v-73h-274v-241h250v-73h-250v-265h274v-73h-368v725z" />
    <glyph glyph-name="F" unicode="F" horiz-adv-x="430" 
d="M72 725h348v-73h-254v-241h230v-73h-230v-338h-94v725z" />
    <glyph glyph-name="G" unicode="G" horiz-adv-x="558" 
d="M266 -13q-117 0 -170 80.5t-53 250.5v89q0 171 55.5 251t181.5 80q108 0 164 -61t56 -170v-3h-92v3q0 84 -32 123t-96 39q-43 0 -70 -19t-42.5 -56t-21 -90t-5.5 -122v-39q0 -69 5.5 -122t21 -90t42.5 -56t70 -19q76 0 108 54.5t32 155.5v31h-169v69h251v-366h-71l-1 95
q-21 -49 -60 -78.5t-104 -29.5z" />
    <glyph glyph-name="H" unicode="H" horiz-adv-x="580" 
d="M72 725h94v-314h248v314h94v-725h-94v338h-248v-338h-94v725z" />
    <glyph glyph-name="I" unicode="I" horiz-adv-x="238" 
d="M72 725h94v-725h-94v725z" />
    <glyph glyph-name="J" unicode="J" horiz-adv-x="439" 
d="M192 -13q-99 0 -143 56t-44 157v11h94v-11q0 -75 19.5 -109.5t71.5 -34.5t72.5 35t20.5 109v525h94v-525q0 -109 -45 -161t-140 -52z" />
    <glyph glyph-name="K" unicode="K" horiz-adv-x="526" 
d="M243 344l-77 -113v-231h-94v725h94v-360l244 360h95l-206 -300l229 -425h-98z" />
    <glyph glyph-name="L" unicode="L" horiz-adv-x="447" 
d="M72 725h94v-652h275v-73h-369v725z" />
    <glyph glyph-name="M" unicode="M" horiz-adv-x="727" 
d="M72 725h136l156 -617l156 617h135v-725h-86v628h-2l-8 -39l-156 -589h-80l-156 589l-7 39h-2v-628h-86v725z" />
    <glyph glyph-name="N" unicode="N" horiz-adv-x="582" 
d="M72 725h113l239 -602v602h86v-725h-113l-239 603v-603h-86v725z" />
    <glyph glyph-name="O" unicode="O" horiz-adv-x="564" 
d="M282 56q43 0 70.5 19t43 56t21.5 90t6 122v39q0 69 -6 122t-21.5 90t-43 56t-70.5 19t-70.5 -19t-43 -56t-21.5 -90t-6 -122v-39q0 -69 6 -122t21.5 -90t43 -56t70.5 -19zM282 -13q-126 0 -182.5 80t-56.5 251v89q0 171 56.5 251t182.5 80q125 0 182 -80t57 -251v-89
q0 -171 -57 -251t-182 -80z" />
    <glyph glyph-name="P" unicode="P" horiz-adv-x="505" 
d="M72 725h163q61 0 109 -8t80.5 -31t49.5 -64t17 -107q0 -65 -17 -106.5t-49.5 -65t-80.5 -32.5t-109 -9h-69v-302h-94v725zM228 370q43 0 74 5t51.5 20.5t30 44t9.5 74.5t-9.5 74.5t-30 44t-51.5 21t-74 5.5h-62v-289h62z" />
    <glyph glyph-name="Q" unicode="Q" horiz-adv-x="564" 
d="M282 -13q-126 0 -182.5 80t-56.5 251v89q0 171 56.5 251t182.5 80q125 0 182 -80t57 -251v-89q0 -104 -20 -173.5t-64 -108.5l73 -99l-52 -41l-78 107q-21 -8 -45.5 -12t-52.5 -4zM282 56q29 0 52 9l-57 79l52 40l55 -75q23 36 31 94.5t8 139.5v39q0 69 -6 122t-21.5 90
t-43 56t-70.5 19t-70.5 -19t-43 -56t-21.5 -90t-6 -122v-39q0 -69 6 -122t21.5 -90t43 -56t70.5 -19z" />
    <glyph glyph-name="R" unicode="R" horiz-adv-x="538" 
d="M293 330q-14 -2 -29 -3t-31 -1h-67v-326h-94v725h164q67 0 116.5 -9t81.5 -31t48 -60.5t16 -96.5q0 -79 -30 -120.5t-87 -59.5l132 -348h-100zM238 388q43 0 73.5 5.5t50 20t29 41t9.5 68.5t-9.5 68.5t-29 41.5t-50 20.5t-73.5 5.5h-72v-271h72z" />
    <glyph glyph-name="S" unicode="S" horiz-adv-x="508" 
d="M262 -13q-111 0 -170 59.5t-59 176.5v8h93v-8q0 -85 34.5 -126.5t100.5 -41.5q63 0 93.5 32.5t30.5 90.5q0 28 -7 48.5t-20.5 36t-34 28t-46.5 24.5l-88 41q-31 14 -57.5 30.5t-46 40t-30.5 55t-11 75.5t15 78t41.5 57t64 34.5t82.5 11.5q47 0 86 -12t66.5 -37.5t43 -64
t15.5 -91.5v-8h-91v8q0 66 -31.5 101.5t-88.5 35.5q-54 0 -83.5 -29t-29.5 -79q0 -26 5 -44t15 -31t24.5 -22.5t33.5 -17.5l93 -43q35 -16 66.5 -33.5t55 -42t37 -58t13.5 -81.5q0 -97 -55.5 -149.5t-159.5 -52.5z" />
    <glyph glyph-name="T" unicode="T" horiz-adv-x="456" 
d="M181 652h-177v73h448v-73h-177v-652h-94v652z" />
    <glyph glyph-name="U" unicode="U" horiz-adv-x="557" 
d="M278 -13q-65 0 -107 14t-66 47t-33.5 86t-9.5 131v460h94v-472q0 -52 5 -89t18.5 -61t37.5 -35.5t61 -11.5t61 11.5t38 35.5t19 61t5 89v472h94v-460q0 -78 -9.5 -131t-33.5 -86t-66 -47t-108 -14z" />
    <glyph glyph-name="V" unicode="V" horiz-adv-x="487" 
d="M8 725h95l143 -625l143 625h90l-179 -725h-111z" />
    <glyph glyph-name="W" unicode="W" horiz-adv-x="725" 
d="M14 725h86l104 -618l115 618h87l115 -618l103 618h87l-127 -725h-109l-112 613l-113 -613h-110z" />
    <glyph glyph-name="X" unicode="X" horiz-adv-x="495" 
d="M201 373l-182 352h98l131 -264l136 264h95l-184 -344l197 -381h-97l-148 291l-149 -291h-95z" />
    <glyph glyph-name="Y" unicode="Y" horiz-adv-x="495" 
d="M200 288l-192 437h94l145 -352l146 352h94l-194 -438v-287h-93v288z" />
    <glyph glyph-name="Z" unicode="Z" horiz-adv-x="478" 
d="M25 68l326 584h-302v73h402v-68l-326 -584h334v-73h-434v68z" />
    <glyph glyph-name="bracketleft" unicode="[" horiz-adv-x="251" 
d="M72 725h174v-64h-99v-771h99v-65h-174v900z" />
    <glyph glyph-name="backslash" unicode="\" horiz-adv-x="334" 
d="M0 725h88l246 -725h-89z" />
    <glyph glyph-name="bracketright" unicode="]" horiz-adv-x="251" 
d="M5 -110h97v771h-97v64h174v-900h-174v65z" />
    <glyph glyph-name="asciicircum" unicode="^" horiz-adv-x="469" 
d="M198 725h75l202 -387h-84l-156 300l-156 -300h-84z" />
    <glyph glyph-name="underscore" unicode="_" horiz-adv-x="443" 
d="M17 0h410v-80h-410v80z" />
    <glyph glyph-name="grave" unicode="`" horiz-adv-x="223" 
d="M25 725h109l64 -119h-61z" />
    <glyph glyph-name="a" unicode="a" horiz-adv-x="444" 
d="M171 -13q-60 0 -99.5 38t-39.5 107v9q0 35 12.5 63t43 51.5t82.5 44t132 40.5v44q0 60 -21.5 84t-63.5 24q-91 0 -91 -107v-11h-85v11q0 43 14 74.5t38.5 52t57 30t68.5 9.5q40 0 72.5 -7t54.5 -26.5t34 -53t12 -86.5v-41q0 -30 -0.5 -64t-0.5 -64v-96q0 -24 1 -44
t1.5 -36.5t2.5 -32.5h-82l-2 78q-19 -45 -53 -68t-88 -23zM202 50q43 0 73 37t30 124v72q-59 -14 -94.5 -28t-54.5 -30.5t-25 -36.5t-6 -46v-7q0 -38 20 -61.5t57 -23.5z" />
    <glyph glyph-name="b" unicode="b" horiz-adv-x="485" 
d="M150 452q14 42 49.5 70t86.5 28q161 0 161 -242v-79q0 -242 -161 -242q-51 0 -86.5 28t-49.5 70v-85h-90v725h90v-273zM147 268q0 -103 29 -159t84 -56t74.5 51t19.5 150v29q0 99 -19.5 150t-74.5 51t-84 -56t-29 -160z" />
    <glyph glyph-name="c" unicode="c" horiz-adv-x="437" 
d="M230 -13q-100 0 -146 59t-46 185v76q0 125 46 184t146 59q38 0 70 -11t55.5 -34t36.5 -58.5t13 -83.5v-6h-85v6q0 123 -90 123q-33 0 -52.5 -13.5t-30 -39t-13.5 -61.5t-3 -81v-45q0 -45 3 -81.5t13.5 -61.5t30 -38.5t52.5 -13.5q46 0 68 30t22 93v5h85v-6q0 -48 -13 -83
t-36.5 -58t-55.5 -34t-70 -11z" />
    <glyph glyph-name="d" unicode="d" horiz-adv-x="485" 
d="M335 725h90v-725h-90v85q-14 -42 -49.5 -70t-86.5 -28q-161 0 -161 242v79q0 242 161 242q51 0 86.5 -28t49.5 -70v273zM338 268q0 104 -29 160t-84 56q-28 0 -46 -13t-28.5 -38t-15 -63t-4.5 -87v-29q0 -50 4.5 -87.5t15 -62.5t28.5 -38t46 -13q55 0 84 56t29 159z" />
    <glyph glyph-name="e" unicode="e" horiz-adv-x="459" 
d="M234 -13q-101 0 -148.5 59.5t-47.5 182.5v79q0 124 47 183t148 59q102 0 147 -59.5t45 -189.5v-41h-294v-14q0 -45 4 -81.5t15.5 -61.5t31.5 -38.5t52 -13.5q46 0 72 28.5t26 88.5v5h85v-5q0 -91 -48 -136t-135 -45zM131 318h201v7q0 39 -4 69t-14.5 51t-30 31.5
t-49.5 10.5q-32 0 -52 -11.5t-31 -32.5t-15.5 -51.5t-4.5 -67.5v-6z" />
    <glyph glyph-name="f" unicode="f" horiz-adv-x="266" 
d="M77 477h-71v61h71v58q0 39 7 64t23.5 39.5t42.5 20t64 5.5h49v-59h-32q-21 0 -33.5 -3t-19 -11t-9 -22t-2.5 -37v-55h96v-61h-96v-477h-90v477z" />
    <glyph glyph-name="g" unicode="g" horiz-adv-x="487" 
d="M235 -188q-92 0 -135.5 43t-43.5 115v4h87v-4q0 -43 21.5 -68.5t71.5 -25.5q55 0 78 29.5t23 105.5v101q-14 -42 -46.5 -70.5t-83.5 -28.5q-80 0 -124.5 61t-44.5 179v64q0 121 44.5 177t124.5 56q51 0 83.5 -28.5t46.5 -70.5v87h90v-510q0 -106 -43.5 -161t-148.5 -55z
M227 79q58 0 86 52.5t28 146.5q0 100 -28 153t-86 53q-56 0 -76 -47t-20 -142v-15q0 -95 20 -148t76 -53z" />
    <glyph glyph-name="h" unicode="h" horiz-adv-x="472" 
d="M60 725h90v-274q15 43 50 71t87 28q74 0 103.5 -46t29.5 -144v-360h-90v330q0 36 -2.5 64.5t-11 48t-23 30t-38.5 10.5q-53 0 -79 -51.5t-26 -137.5v-294h-90v725z" />
    <glyph glyph-name="i" unicode="i" horiz-adv-x="210" 
d="M60 538h90v-538h-90v538zM60 725h90v-110h-90v110z" />
    <glyph glyph-name="j" unicode="j" horiz-adv-x="210" 
d="M-22 -115h22q21 0 33 3.5t18 13.5t7.5 26t1.5 42v568h90v-568q0 -43 -7 -71t-23.5 -44.5t-43 -23t-66.5 -6.5h-32v60zM60 725h90v-110h-90v110z" />
    <glyph glyph-name="k" unicode="k" horiz-adv-x="438" 
d="M210 244l-60 -83v-161h-90v725h90v-446l181 259h91l-155 -215l162 -323h-98z" />
    <glyph glyph-name="l" unicode="l" horiz-adv-x="210" 
d="M60 725h90v-725h-90v725z" />
    <glyph glyph-name="m" unicode="m" horiz-adv-x="718" 
d="M60 538h90v-89q15 42 48 70.5t81 28.5q55 0 82 -26.5t38 -80.5q17 50 53.5 78.5t84.5 28.5q74 0 101.5 -48.5t27.5 -146.5v-353h-90v329q0 35 -2.5 63.5t-10 48.5t-21 30.5t-34.5 10.5q-49 0 -74.5 -47t-25.5 -128v-307h-90v341q0 33 -2.5 59t-10 44t-20.5 28t-35 10
q-49 0 -74.5 -51.5t-25.5 -137.5v-293h-90v538z" />
    <glyph glyph-name="n" unicode="n" horiz-adv-x="471" 
d="M60 538h90v-87q15 43 50 71t87 28q74 0 103 -46t29 -144v-360h-90v330q0 36 -2.5 64.5t-10.5 48t-22.5 30t-38.5 10.5q-53 0 -79 -51.5t-26 -137.5v-294h-90v538z" />
    <glyph glyph-name="o" unicode="o" horiz-adv-x="461" 
d="M231 51q32 0 51.5 13.5t30 39.5t14 63t3.5 84v35q0 47 -3.5 84t-14 63t-30 40t-51.5 14t-51.5 -14t-30.5 -40t-14.5 -63t-3.5 -84v-35q0 -47 3.5 -84t14.5 -63t30.5 -39.5t51.5 -13.5zM231 -13q-100 0 -146.5 59t-46.5 184v77q0 125 46.5 184t146.5 59q99 0 145.5 -59
t46.5 -184v-77q0 -125 -46.5 -184t-145.5 -59z" />
    <glyph glyph-name="p" unicode="p" horiz-adv-x="485" 
d="M150 -175h-90v713h90v-86q14 42 49.5 70t86.5 28q161 0 161 -242v-79q0 -242 -161 -242q-51 0 -86.5 28t-49.5 70v-260zM147 269q0 -104 29 -160t84 -56t74.5 51t19.5 150v29q0 99 -19.5 150t-74.5 51t-84 -56t-29 -159z" />
    <glyph glyph-name="q" unicode="q" horiz-adv-x="485" 
d="M335 -175v260q-14 -42 -49.5 -70t-86.5 -28q-161 0 -161 242v79q0 242 161 242q51 0 86.5 -28t49.5 -70v86h90v-713h-90zM338 269q0 103 -29 159t-84 56q-28 0 -46 -13t-28.5 -38t-15 -63t-4.5 -87v-29q0 -50 4.5 -87.5t15 -62.5t28.5 -38t46 -13q55 0 84 56t29 160z" />
    <glyph glyph-name="r" unicode="r" horiz-adv-x="289" 
d="M60 538h90v-113q6 22 15.5 42.5t24.5 36.5t35.5 25t47.5 9h20v-89h-32q-29 0 -50 -8t-34.5 -27t-20 -50t-6.5 -77v-287h-90v538z" />
    <glyph glyph-name="s" unicode="s" horiz-adv-x="428" 
d="M217 -13q-84 0 -135 42t-51 136v6h85v-6q0 -57 26.5 -85.5t73.5 -28.5q40 0 68 19t28 61q0 32 -15 54.5t-58 38.5l-79 29q-51 19 -84 54.5t-33 97.5q0 36 12.5 63.5t35 45.5t53 27t66.5 9q34 0 65 -9t55 -28.5t38 -50t14 -72.5v-5h-85v5q0 53 -27.5 75t-63.5 22
q-32 0 -57.5 -17.5t-25.5 -55.5q0 -53 65 -78l79 -30q62 -23 94 -61t32 -105q0 -39 -14 -67.5t-38 -47.5t-56 -28.5t-68 -9.5z" />
    <glyph glyph-name="t" unicode="t" horiz-adv-x="267" 
d="M189 0q-36 0 -58.5 6.5t-36 22t-18.5 40.5t-5 61v347h-70v61h70v136h90v-136h93v-61h-93v-336q0 -26 2.5 -41.5t9.5 -24t19.5 -11.5t32.5 -3h29v-61h-65z" />
    <glyph glyph-name="u" unicode="u" horiz-adv-x="471" 
d="M411 0h-90v87q-15 -43 -50 -71t-87 -28q-74 0 -103 46t-29 144v360h90v-330q0 -36 2.5 -64.5t10.5 -48t22.5 -30t38.5 -10.5q53 0 79 51.5t26 137.5v294h90v-538z" />
    <glyph glyph-name="v" unicode="v" horiz-adv-x="399" 
d="M8 538h90l103 -442l104 442h86l-140 -538h-105z" />
    <glyph glyph-name="w" unicode="w" horiz-adv-x="574" 
d="M20 538h79l64 -431l81 431h85l82 -431l64 431h79l-89 -538h-96l-82 447l-82 -447h-97z" />
    <glyph glyph-name="x" unicode="x" horiz-adv-x="395" 
d="M154 276l-141 262h91l96 -179l98 179h88l-143 -260l150 -278h-91l-105 195l-107 -195h-88z" />
    <glyph glyph-name="y" unicode="y" horiz-adv-x="403" 
d="M46 -114h29q19 0 31.5 2.5t21.5 10t15.5 22t12.5 39.5l10 39l-158 539h89l112 -419l103 419h83l-144 -544q-14 -54 -27 -87t-30 -51.5t-42 -24.5t-64 -6h-42v61z" />
    <glyph glyph-name="z" unicode="z" horiz-adv-x="380" 
d="M17 60l244 417h-220v61h315v-60l-243 -417h249v-61h-345v60z" />
    <glyph glyph-name="braceleft" unicode="{" horiz-adv-x="277" 
d="M238 -180q-43 0 -72 6.5t-47 23t-26 44t-8 69.5v163q0 23 -2.5 43.5t-10.5 35.5t-22 24t-38 10v69q24 1 38 10t22 24t10.5 35t2.5 44v160q0 42 8 69.5t26 44t47 23.5t72 7h24v-69h-12q-28 0 -44.5 -3.5t-25.5 -12.5t-12 -24.5t-3 -39.5v-165q0 -35 -5.5 -59t-16 -39.5
t-25.5 -24.5t-33 -14v-2q18 -5 33 -14t25.5 -24.5t16 -39.5t5.5 -58v-166q0 -24 3 -40t12 -25t25.5 -13t44.5 -4h12v-68h-24z" />
    <glyph glyph-name="bar" unicode="|" horiz-adv-x="227" 
d="M72 725h83v-815h-83v815z" />
    <glyph glyph-name="braceright" unicode="}" horiz-adv-x="277" 
d="M15 -180v68h12q28 0 44.5 4t25.5 13t12 25t3 40v166q0 34 5.5 58t16 39.5t25.5 24.5t33 14v2q-18 5 -33 14t-25.5 24.5t-16 39.5t-5.5 59v165q0 24 -3 39.5t-12 24.5t-25.5 12.5t-44.5 3.5h-12v69h24q43 0 72 -7t47 -23.5t26 -44t8 -69.5v-160q0 -24 2.5 -44t10.5 -35
t22 -24t38 -10v-69q-24 -1 -38 -10t-22 -24t-10.5 -35.5t-2.5 -43.5v-163q0 -42 -8 -69.5t-26 -44t-47 -23t-72 -6.5h-24z" />
    <glyph glyph-name="asciitilde" unicode="~" 
d="M39 195q5 71 36.5 110t94.5 39q33 0 60.5 -11.5t51.5 -25t46.5 -24.5t46.5 -11q28 0 45 17t20 55h70q-5 -72 -36.5 -110.5t-94.5 -38.5q-30 0 -55.5 11t-49.5 24.5t-48 25t-51 11.5q-29 0 -46 -17t-20 -55h-70z" />
    <glyph glyph-name="uni00A0" unicode="&#xa0;" horiz-adv-x="193" 
 />
    <glyph glyph-name="exclamdown" unicode="&#xa1;" horiz-adv-x="266" 
d="M86 14l15 324h61l17 -324v-189h-93v189zM79 538h108v-108h-108v108z" />
    <glyph glyph-name="cent" unicode="&#xa2;" horiz-adv-x="444" 
d="M210 -12q-90 5 -130.5 65.5t-40.5 177.5v76q0 115 40.5 175.5t130.5 66.5v71h42v-71q68 -7 110.5 -52t42.5 -134v-5h-85v5q0 123 -91 123q-32 0 -51.5 -13.5t-30 -39t-14 -61.5t-3.5 -81v-45q0 -45 3.5 -81.5t14 -61.5t30 -38.5t51.5 -13.5q47 0 69 30t22 93v4h85v-5
q0 -89 -42.5 -133.5t-110.5 -51.5v-81h-42v81z" />
    <glyph glyph-name="sterling" unicode="&#xa3;" horiz-adv-x="523" 
d="M44 381h99q-11 21 -23 42.5t-21.5 43.5t-15.5 45.5t-6 49.5q0 47 15.5 80.5t42 54.5t62.5 31t78 10q95 0 147 -54t52 -160v-4h-85v6q0 149 -114 149q-50 0 -79 -28t-29 -86q0 -24 6 -47t16 -45.5t21.5 -44t22.5 -43.5h167v-55h-144q5 -16 8 -31.5t3 -31.5q0 -30 -8.5 -58
t-22.5 -52.5t-32.5 -44t-38.5 -32.5l1 -1q37 18 73 18q19 0 35.5 -6t33 -12.5t33.5 -12t37 -5.5q26 1 44 8.5t36 18.5l32 -60q-28 -17 -53.5 -27t-55.5 -10q-27 0 -47.5 6t-39 13t-38.5 13t-45 6q-27 0 -62 -8.5t-75 -28.5l-31 64q27 14 51.5 33t44 43.5t31 55.5t11.5 68
q0 20 -4 38.5t-10 35.5h-123v55z" />
    <glyph glyph-name="currency" unicode="&#xa4;" horiz-adv-x="640" 
d="M62 131l68 70q-23 31 -36.5 67.5t-13.5 77.5q0 42 13.5 79t36.5 67l-68 69l38 36l66 -67q31 26 69.5 40.5t81.5 14.5q45 0 84 -15t70 -41l70 68l37 -36l-69 -70q23 -31 35 -67.5t12 -77.5q0 -82 -49 -143l71 -72l-37 -36l-71 70q-31 -26 -70 -40.5t-83 -14.5
q-88 0 -148 54l-69 -69zM317 180q36 0 66.5 13t52.5 35.5t34.5 52.5t12.5 65q0 36 -12.5 67t-34.5 54t-52.5 36t-66.5 13t-65.5 -13t-50.5 -36t-32.5 -54t-11.5 -67q0 -35 11.5 -65t32.5 -52.5t50.5 -35.5t65.5 -13z" />
    <glyph glyph-name="yen" unicode="&#xa5;" horiz-adv-x="493" 
d="M71 283h131v5l-194 437h91l148 -353l148 353h91l-195 -438v-4h130v-53h-130v-82h130v-52h-130v-96h-89v96h-131v52h131v82h-131v53z" />
    <glyph glyph-name="brokenbar" unicode="&#xa6;" horiz-adv-x="203" 
d="M60 215h83v-305h-83v305zM60 725h83v-305h-83v305z" />
    <glyph glyph-name="section" unicode="&#xa7;" horiz-adv-x="520" 
d="M262 -186q-41 0 -78 11t-64.5 34t-43.5 57t-16 81v3h88v-3q0 -60 33 -90t81 -30q45 0 77.5 22t32.5 70q0 38 -21 64t-64 47l-120 60q-29 15 -53 30.5t-41.5 34.5t-27 43t-9.5 55q0 51 29.5 85t71.5 58q-29 24 -47 57t-18 78q0 38 14 67t39 49t60 30.5t77 10.5
q40 0 74.5 -11.5t59.5 -34t39 -55.5t14 -76v-4h-88v5q0 48 -26.5 80.5t-74.5 32.5q-20 0 -38.5 -5t-32 -15.5t-21.5 -28.5t-8 -43q0 -38 18 -64t60 -46l119 -60q29 -15 53 -31t40.5 -35t25.5 -42.5t9 -54.5q0 -50 -29 -84.5t-69 -57.5q32 -25 53 -58t21 -79q0 -38 -15 -67
t-41.5 -49t-63 -30.5t-79.5 -10.5zM328 145q27 14 47.5 39.5t20.5 58.5q0 32 -18.5 58.5t-69.5 50.5l-105 52l-9 4q-27 -15 -48.5 -40t-21.5 -58q0 -32 21 -58.5t71 -50.5z" />
    <glyph glyph-name="dieresis" unicode="&#xa8;" horiz-adv-x="330" 
d="M25 725h81v-108h-81v108zM224 725h81v-108h-81v108z" />
    <glyph glyph-name="copyright" unicode="&#xa9;" horiz-adv-x="835" 
d="M417 33q68 0 126.5 25.5t102 70t68.5 104.5t25 130t-25 130t-68.5 104.5t-102 70t-126.5 25.5t-126.5 -25.5t-101.5 -70t-68 -104.5t-25 -130t25 -130t68 -104.5t101.5 -70t126.5 -25.5zM417 -13q-77 0 -144.5 29t-118 79.5t-80 119t-29.5 148.5q0 79 29.5 148t80 119
t118 79t144.5 29t145 -29t118.5 -79t80 -119t29.5 -148q0 -80 -29.5 -148.5t-80 -119t-118.5 -79.5t-145 -29zM417 155q-77 0 -107 44t-30 138v53q0 94 30 138t107 44q126 0 126 -135v-5h-72v4q0 50 -13.5 67.5t-41.5 17.5q-20 0 -31.5 -10t-17.5 -28.5t-8 -45.5t-2 -61v-24
q0 -35 2 -62t8 -46t17.5 -28.5t31.5 -9.5q28 0 41.5 17.5t13.5 67.5v3h72v-3q0 -70 -31.5 -103t-94.5 -33z" />
    <glyph glyph-name="ordfeminine" unicode="&#xaa;" horiz-adv-x="258" 
d="M96 430q-38 0 -59.5 23.5t-21.5 62.5v7q0 33 24 55q21 20 72 35l57 21v26q0 26 -10.5 37t-33.5 11t-35 -11.5t-12 -40.5v-6h-57v6q0 48 28 70.5t77 22.5q24 0 43.5 -4t33 -15t21 -30.5t7.5 -51.5v-21q0 -17 -0.5 -36.5t-0.5 -36.5v-19q0 -34 1 -55.5t3 -41.5h-58l-1 41
q-11 -24 -29.5 -36.5t-48.5 -12.5zM118 471q23 0 37.5 17.5t14.5 61.5v48q-2 -1 -8 -3.5t-12.5 -5.5t-13 -5t-8.5 -3q-26 -9 -38 -21t-12 -35v-6q0 -23 10 -35.5t30 -12.5z" />
    <glyph glyph-name="guillemotleft" unicode="&#xab;" horiz-adv-x="325" 
d="M20 225v107l132 145v-107l-84 -92l84 -92v-106zM173 225v107l132 145v-107l-84 -92l84 -92v-106z" />
    <glyph glyph-name="logicalnot" unicode="&#xac;" 
d="M454 360h-435v74h510v-344h-75v270z" />
    <glyph glyph-name="uni00AD" unicode="&#xad;" horiz-adv-x="339" 
d="M50 308h239v-77h-239v77z" />
    <glyph glyph-name="registered" unicode="&#xae;" horiz-adv-x="835" 
d="M417 -13q-77 0 -144.5 29t-118 79.5t-80 119t-29.5 148.5q0 79 29.5 148t80 119t118 79t144.5 29t145 -29t118.5 -79t80 -119t29.5 -148q0 -80 -29.5 -148.5t-80 -119t-118.5 -79.5t-145 -29zM417 33q68 0 126.5 25.5t102 70t68.5 104.5t25 130t-25 130t-68.5 104.5
t-102 70t-126.5 25.5t-126.5 -25.5t-101.5 -70t-68 -104.5t-25 -130t25 -130t68 -104.5t101.5 -70t126.5 -25.5zM304 164v403h101q38 0 66 -5.5t46 -18t27 -35t9 -56.5q0 -43 -17 -65.5t-42 -33.5l69 -189h-68l-59 176h-16q-5 -1 -13 -1h-33v-175h-70zM374 385h31
q41 0 56.5 13t15.5 53t-16 52.5t-57 12.5h-30v-131z" />
    <glyph glyph-name="macron" unicode="&#xaf;" horiz-adv-x="282" 
d="M25 697h232v-63h-232v63z" />
    <glyph glyph-name="degree" unicode="&#xb0;" horiz-adv-x="336" 
d="M166 494q41 0 65.5 27t24.5 67q0 41 -24.5 67.5t-65.5 26.5q-38 0 -62.5 -26.5t-24.5 -67.5q0 -40 24.5 -67t62.5 -27zM166 437q-31 0 -58 12t-47 32t-31.5 47.5t-11.5 59.5q0 31 11.5 58.5t31.5 48t47 32t58 11.5q32 0 59.5 -11.5t48 -32t32 -48t11.5 -58.5
q0 -32 -11.5 -59.5t-32 -47.5t-48 -32t-59.5 -12z" />
    <glyph glyph-name="plusminus" unicode="&#xb1;" 
d="M236 293h-204v72h204v168h76v-168h205v-72h-205v-170h-76v170zM32 72h485v-72h-485v72z" />
    <glyph glyph-name="uni00B2" unicode="&#xb2;" horiz-adv-x="277" 
d="M22 485l45 57q27 34 49.5 63t39 54.5t25.5 48t9 43.5q0 59 -53 59q-52 0 -52 -81v-4h-61v4q0 60 29 92t88 32q52 0 82 -24t30 -75q0 -49 -34 -101t-87 -119l-37 -48h159v-48h-232v47z" />
    <glyph glyph-name="uni00B3" unicode="&#xb3;" horiz-adv-x="292" 
d="M136 430q-53 0 -83.5 28t-30.5 86v2h59v-2q0 -32 12.5 -51.5t43.5 -19.5q38 0 51 22.5t13 54.5q0 35 -16.5 56t-61.5 21h-22v44h21q35 0 50.5 18t15.5 53q0 32 -12.5 50t-41.5 18q-28 0 -39 -16.5t-11 -51.5v-2h-59v2q0 58 30.5 84.5t81.5 26.5q24 0 45 -5t36.5 -17.5
t24 -32.5t8.5 -50q0 -40 -18 -63t-44 -31q35 -9 55.5 -34.5t20.5 -68.5q0 -64 -33.5 -92.5t-95.5 -28.5z" />
    <glyph glyph-name="acute" unicode="&#xb4;" horiz-adv-x="223" 
d="M91 725h107l-112 -119h-61z" />
    <glyph glyph-name="mu" unicode="&#xb5;" horiz-adv-x="479" 
d="M150 -9q0 -55 -2 -94.5t-7 -71.5h-91q5 32 7.5 70t2.5 88v555h90v-330q0 -36 2.5 -64.5t10.5 -48t22.5 -30t38.5 -10.5q53 0 79 51.5t26 137.5v294h90v-538h-90v87q-15 -43 -50 -71t-87 -28q-26 0 -42 4v-1z" />
    <glyph glyph-name="mu" unicode="&#x3bc;" horiz-adv-x="479" 
d="M150 -9q0 -55 -2 -94.5t-7 -71.5h-91q5 32 7.5 70t2.5 88v555h90v-330q0 -36 2.5 -64.5t10.5 -48t22.5 -30t38.5 -10.5q53 0 79 51.5t26 137.5v294h90v-538h-90v87q-15 -43 -50 -71t-87 -28q-26 0 -42 4v-1z" />
    <glyph glyph-name="paragraph" unicode="&#xb6;" horiz-adv-x="478" 
d="M176 375q-32 0 -63.5 10.5t-56.5 31.5t-40.5 53.5t-15.5 77.5t16 78.5t45 55.5t70 32.5t92 10.5h174v-814h-58v760h-103v-760h-60v464z" />
    <glyph glyph-name="periodcentered" unicode="&#xb7;" horiz-adv-x="228" 
d="M60 323h108v-108h-108v108z" />
    <glyph glyph-name="cedilla" unicode="&#xb8;" horiz-adv-x="240" 
d="M106 -194q-43 0 -81 13l13 39q11 -5 27 -9t31 -4q22 0 40 8.5t18 28.5q0 17 -13 25.5t-32 8.5q-11 0 -22 -2.5t-20 -7.5l-20 17l48 78h43l-33 -54q8 2 15.5 3t16.5 1q32 0 55 -17.5t23 -49.5q0 -21 -9.5 -35.5t-24.5 -24t-34.5 -14t-40.5 -4.5z" />
    <glyph glyph-name="uni00B9" unicode="&#xb9;" horiz-adv-x="214" 
d="M104 752h-74v41q26 0 41.5 1.5t24 6.5t12.5 15.5t8 29.5h50v-408h-62v314z" />
    <glyph glyph-name="ordmasculine" unicode="&#xba;" horiz-adv-x="268" 
d="M134 472q32 0 40 28t8 78v23q0 49 -8 77t-40 28t-40.5 -28t-8.5 -77v-23q0 -50 8.5 -78t40.5 -28zM134 430q-59 0 -86.5 34.5t-27.5 103.5v43q0 69 27.5 103.5t86.5 34.5t86 -34.5t27 -103.5v-43q0 -69 -27 -103.5t-86 -34.5z" />
    <glyph glyph-name="guillemotright" unicode="&#xbb;" horiz-adv-x="325" 
d="M20 186l83 92l-83 92v107l132 -145v-107l-132 -145v106zM173 186l83 92l-83 92v107l132 -145v-107l-132 -145v106z" />
    <glyph glyph-name="onequarter" unicode="&#xbc;" horiz-adv-x="680" 
d="M104 631h-74v41q26 0 41.5 1.5t24 6.5t12.5 15.5t8 29.5h50v-408h-62v314zM396 725h49l-243 -725h-48zM555 103h-159v45l157 260h60v-255h49v-50h-49v-103h-58v103zM555 153v175l-111 -175h111z" />
    <glyph glyph-name="onehalf" unicode="&#xbd;" horiz-adv-x="662" 
d="M104 631h-74v41q26 0 41.5 1.5t24 6.5t12.5 15.5t8 29.5h50v-408h-62v314zM396 725h49l-243 -725h-48zM407 47l45 57q27 34 49.5 63t39 54.5t25.5 48t9 43.5q0 59 -53 59q-52 0 -52 -81v-4h-61v4q0 60 29 92t88 32q52 0 82 -24t30 -75q0 -49 -34 -101t-87 -119l-37 -48
h159v-48h-232v47z" />
    <glyph glyph-name="threequarters" unicode="&#xbe;" horiz-adv-x="758" 
d="M136 309q-53 0 -83.5 28t-30.5 86v2h59v-2q0 -32 12.5 -51.5t43.5 -19.5q38 0 51 22.5t13 54.5q0 35 -16.5 56t-61.5 21h-22v44h21q35 0 50.5 18t15.5 53q0 32 -12.5 50t-41.5 18q-28 0 -39 -16.5t-11 -51.5v-2h-59v2q0 58 30.5 84.5t81.5 26.5q24 0 45 -5t36.5 -17.5
t24 -32.5t8.5 -50q0 -40 -18 -63t-44 -31q35 -9 55.5 -34.5t20.5 -68.5q0 -64 -33.5 -92.5t-95.5 -28.5zM474 725h49l-243 -725h-48zM633 103h-159v45l157 260h60v-255h49v-50h-49v-103h-58v103zM633 153v175l-111 -175h111z" />
    <glyph glyph-name="questiondown" unicode="&#xbf;" horiz-adv-x="464" 
d="M234 -188q-41 0 -76.5 9t-61.5 29t-41.5 53.5t-15.5 83.5q0 34 9 61.5t23 49t31.5 39t34.5 32.5q21 18 36 31t24.5 27.5t14.5 33.5t5 49v36h86v-37q0 -37 -6.5 -62t-19 -45t-30.5 -37t-42 -37q-17 -14 -31 -28.5t-23.5 -31t-15 -36t-5.5 -44.5q0 -61 28.5 -87.5
t76.5 -26.5q110 0 110 148v4h85v-4q0 -103 -51 -156.5t-145 -53.5zM206 538h108v-108h-108v108z" />
    <glyph glyph-name="Agrave" unicode="&#xc0;" horiz-adv-x="529" 
d="M208 725h111l200 -725h-96l-47 186h-229l-47 -186h-90zM164 253h195l-97 381zM105 886h117l70 -113h-67z" />
    <glyph glyph-name="Aacute" unicode="&#xc1;" horiz-adv-x="529" 
d="M208 725h111l200 -725h-96l-47 186h-229l-47 -186h-90zM164 253h195l-97 381zM304 886h118l-120 -113h-67z" />
    <glyph glyph-name="Acircumflex" unicode="&#xc2;" horiz-adv-x="529" 
d="M208 725h111l200 -725h-96l-47 186h-229l-47 -186h-90zM164 253h195l-97 381zM221 886h89l111 -113h-82l-74 67l-75 -67h-81z" />
    <glyph glyph-name="Atilde" unicode="&#xc3;" horiz-adv-x="529" 
d="M208 725h111l200 -725h-96l-47 186h-229l-47 -186h-90zM164 253h195l-97 381zM112 773q4 64 29.5 88.5t58.5 24.5q19 0 36.5 -7.5t34 -17t30.5 -17t26 -7.5q13 0 21 11.5t9 37.5h60q-2 -33 -10 -54.5t-20 -34.5t-27 -18.5t-30 -5.5q-18 0 -35 7.5t-32.5 17t-29.5 17
t-26 7.5q-14 0 -24 -11.5t-11 -37.5h-60z" />
    <glyph glyph-name="Adieresis" unicode="&#xc4;" horiz-adv-x="529" 
d="M208 725h111l200 -725h-96l-47 186h-229l-47 -186h-90zM164 253h195l-97 381zM125 882h82v-104h-82v104zM323 882h82v-104h-82v104z" />
    <glyph glyph-name="Aring" unicode="&#xc5;" horiz-adv-x="529" 
d="M208 725h111l200 -725h-96l-47 186h-229l-47 -186h-90zM164 253h195l-97 381zM265 803q20 0 35 12.5t15 34.5q0 23 -15 36t-35 13t-34.5 -13t-14.5 -36q0 -22 14.5 -34.5t34.5 -12.5zM265 767q-37 0 -62.5 23.5t-25.5 59.5q0 37 26 60t62 23q37 0 62.5 -23t25.5 -60
q0 -36 -25.5 -59.5t-62.5 -23.5z" />
    <glyph glyph-name="AE" unicode="&#xc6;" horiz-adv-x="763" 
d="M384 725h358v-73h-264v-242h241v-72h-241v-265h264v-73h-358v175h-199l-86 -175h-99zM222 249h162v329z" />
    <glyph glyph-name="Ccedilla" unicode="&#xc7;" horiz-adv-x="529" 
d="M279 -13q-126 0 -181 80t-55 251v89q0 171 55 251t181 80q108 0 163.5 -61t55.5 -178v-5h-92v4q0 92 -32 131.5t-96 39.5q-42 0 -69 -19t-42 -56t-20.5 -90t-5.5 -122v-39q0 -69 5.5 -122t20.5 -90t42 -56t69 -19q64 0 96 39.5t32 131.5v4h92v-5q0 -117 -55.5 -178
t-163.5 -61zM278 -194q-42 0 -80 13l13 39q11 -5 27 -9t31 -4q22 0 40 8.5t18 28.5q0 34 -45 34q-11 0 -22 -2.5t-20 -7.5l-20 17l48 77h43l-33 -53q7 2 15 3t17 1q32 0 55 -17.5t23 -49.5q0 -35 -30 -56.5t-80 -21.5z" />
    <glyph glyph-name="Egrave" unicode="&#xc8;" horiz-adv-x="461" 
d="M126 886h117l70 -113h-67zM72 725h368v-73h-274v-241h250v-73h-250v-265h274v-73h-368v725z" />
    <glyph glyph-name="Eacute" unicode="&#xc9;" horiz-adv-x="461" 
d="M72 725h368v-73h-274v-241h250v-73h-250v-265h274v-73h-368v725zM269 886h118l-120 -113h-67z" />
    <glyph glyph-name="Ecircumflex" unicode="&#xca;" horiz-adv-x="461" 
d="M72 725h368v-73h-274v-241h250v-73h-250v-265h274v-73h-368v725zM215 886h89l111 -113h-82l-74 67l-75 -67h-81z" />
    <glyph glyph-name="Edieresis" unicode="&#xcb;" horiz-adv-x="461" 
d="M72 725h368v-73h-274v-241h250v-73h-250v-265h274v-73h-368v725zM118 882h82v-104h-82v104zM316 882h82v-104h-82v104z" />
    <glyph glyph-name="Igrave" unicode="&#xcc;" horiz-adv-x="238" 
d="M72 725h94v-725h-94v725zM-32 886h117l70 -113h-67z" />
    <glyph glyph-name="Iacute" unicode="&#xcd;" horiz-adv-x="238" 
d="M72 725h94v-725h-94v725zM152 886h118l-120 -113h-67z" />
    <glyph glyph-name="Icircumflex" unicode="&#xce;" horiz-adv-x="238" 
d="M76 886h87l95 -113h-81l-58 67l-58 -67h-81zM72 725h94v-725h-94v725z" />
    <glyph glyph-name="Idieresis" unicode="&#xcf;" horiz-adv-x="238" 
d="M0 882h82v-104h-82v104zM155 882h83v-104h-83v104zM72 725h94v-725h-94v725z" />
    <glyph glyph-name="Eth" unicode="&#xd0;" horiz-adv-x="555" 
d="M3 406h69v319h162q66 0 117.5 -15.5t87 -53t54.5 -99.5t19 -156v-79q0 -93 -19 -155t-54.5 -99t-87 -52.5t-117.5 -15.5h-162v331h-69v75zM237 67q48 0 82 13.5t55 45.5t30.5 85t9.5 133v38q0 79 -9.5 132t-30.5 85.5t-55 46t-82 13.5h-71v-253h148v-75h-148v-264h71z
" />
    <glyph glyph-name="Ntilde" unicode="&#xd1;" horiz-adv-x="582" 
d="M72 725h113l239 -602v602h86v-725h-113l-239 603v-603h-86v725zM149 773q4 64 29.5 88.5t58.5 24.5q19 0 36.5 -7.5t34 -17t30.5 -17t26 -7.5q13 0 21 11.5t9 37.5h60q-2 -33 -10 -54.5t-20 -34.5t-27 -18.5t-30 -5.5q-18 0 -35 7.5t-32.5 17t-29.5 17t-26 7.5
q-14 0 -24 -11.5t-11 -37.5h-60z" />
    <glyph glyph-name="Ograve" unicode="&#xd2;" horiz-adv-x="564" 
d="M149 886h117l70 -113h-67zM282 56q43 0 70.5 19t43 56t21.5 90t6 122v39q0 69 -6 122t-21.5 90t-43 56t-70.5 19t-70.5 -19t-43 -56t-21.5 -90t-6 -122v-39q0 -69 6 -122t21.5 -90t43 -56t70.5 -19zM282 -13q-126 0 -182.5 80t-56.5 251v89q0 171 56.5 251t182.5 80
q125 0 182 -80t57 -251v-89q0 -171 -57 -251t-182 -80z" />
    <glyph glyph-name="Oacute" unicode="&#xd3;" horiz-adv-x="564" 
d="M282 56q43 0 70.5 19t43 56t21.5 90t6 122v39q0 69 -6 122t-21.5 90t-43 56t-70.5 19t-70.5 -19t-43 -56t-21.5 -90t-6 -122v-39q0 -69 6 -122t21.5 -90t43 -56t70.5 -19zM282 -13q-126 0 -182.5 80t-56.5 251v89q0 171 56.5 251t182.5 80q125 0 182 -80t57 -251v-89
q0 -171 -57 -251t-182 -80zM304 886h118l-120 -113h-67z" />
    <glyph glyph-name="Ocircumflex" unicode="&#xd4;" horiz-adv-x="564" 
d="M240 886h89l111 -113h-82l-74 67l-75 -67h-81zM282 56q43 0 70.5 19t43 56t21.5 90t6 122v39q0 69 -6 122t-21.5 90t-43 56t-70.5 19t-70.5 -19t-43 -56t-21.5 -90t-6 -122v-39q0 -69 6 -122t21.5 -90t43 -56t70.5 -19zM282 -13q-126 0 -182.5 80t-56.5 251v89
q0 171 56.5 251t182.5 80q125 0 182 -80t57 -251v-89q0 -171 -57 -251t-182 -80z" />
    <glyph glyph-name="Otilde" unicode="&#xd5;" horiz-adv-x="564" 
d="M282 56q43 0 70.5 19t43 56t21.5 90t6 122v39q0 69 -6 122t-21.5 90t-43 56t-70.5 19t-70.5 -19t-43 -56t-21.5 -90t-6 -122v-39q0 -69 6 -122t21.5 -90t43 -56t70.5 -19zM282 -13q-126 0 -182.5 80t-56.5 251v89q0 171 56.5 251t182.5 80q125 0 182 -80t57 -251v-89
q0 -171 -57 -251t-182 -80zM129 773q4 64 29.5 88.5t58.5 24.5q19 0 36.5 -7.5t34 -17t30.5 -17t26 -7.5q13 0 21 11.5t9 37.5h60q-2 -33 -10 -54.5t-20 -34.5t-27 -18.5t-30 -5.5q-18 0 -35 7.5t-32.5 17t-29.5 17t-26 7.5q-14 0 -24 -11.5t-11 -37.5h-60z" />
    <glyph glyph-name="Odieresis" unicode="&#xd6;" horiz-adv-x="564" 
d="M146 882h82v-104h-82v104zM344 882h82v-104h-82v104zM282 56q43 0 70.5 19t43 56t21.5 90t6 122v39q0 69 -6 122t-21.5 90t-43 56t-70.5 19t-70.5 -19t-43 -56t-21.5 -90t-6 -122v-39q0 -69 6 -122t21.5 -90t43 -56t70.5 -19zM282 -13q-126 0 -182.5 80t-56.5 251v89
q0 171 56.5 251t182.5 80q125 0 182 -80t57 -251v-89q0 -171 -57 -251t-182 -80z" />
    <glyph glyph-name="multiply" unicode="&#xd7;" 
d="M59 89l165 178l-166 180l52 52l164 -178l165 177l52 -52l-166 -179l166 -179l-52 -52l-164 177l-165 -177z" />
    <glyph glyph-name="Oslash" unicode="&#xd8;" horiz-adv-x="564" 
d="M61 -65l51 116q-69 78 -69 267v89q0 171 56.5 251t182.5 80q74 0 123 -28l36 80h51l-48 -109q40 -39 58.5 -106.5t18.5 -167.5v-89q0 -171 -57 -251t-182 -80q-81 0 -133 33l-38 -85h-50zM282 56q43 0 70.5 19t43 56t21.5 90t6 122v39q0 64 -5 114t-18 87l-215 -482
q31 -45 97 -45zM141 343q0 -58 3.5 -105t14.5 -82l212 477q-32 36 -89 36q-43 0 -70.5 -19t-43 -56t-21.5 -90t-6 -122v-39z" />
    <glyph glyph-name="Ugrave" unicode="&#xd9;" horiz-adv-x="557" 
d="M139 886h117l70 -113h-67zM278 -13q-65 0 -107 14t-66 47t-33.5 86t-9.5 131v460h94v-472q0 -52 5 -89t18.5 -61t37.5 -35.5t61 -11.5t61 11.5t38 35.5t19 61t5 89v472h94v-460q0 -78 -9.5 -131t-33.5 -86t-66 -47t-108 -14z" />
    <glyph glyph-name="Uacute" unicode="&#xda;" horiz-adv-x="557" 
d="M278 -13q-65 0 -107 14t-66 47t-33.5 86t-9.5 131v460h94v-472q0 -52 5 -89t18.5 -61t37.5 -35.5t61 -11.5t61 11.5t38 35.5t19 61t5 89v472h94v-460q0 -78 -9.5 -131t-33.5 -86t-66 -47t-108 -14zM300 886h118l-120 -113h-67z" />
    <glyph glyph-name="Ucircumflex" unicode="&#xdb;" horiz-adv-x="557" 
d="M278 -13q-65 0 -107 14t-66 47t-33.5 86t-9.5 131v460h94v-472q0 -52 5 -89t18.5 -61t37.5 -35.5t61 -11.5t61 11.5t38 35.5t19 61t5 89v472h94v-460q0 -78 -9.5 -131t-33.5 -86t-66 -47t-108 -14zM236 886h89l111 -113h-82l-74 67l-75 -67h-81z" />
    <glyph glyph-name="Udieresis" unicode="&#xdc;" horiz-adv-x="557" 
d="M278 -13q-65 0 -107 14t-66 47t-33.5 86t-9.5 131v460h94v-472q0 -52 5 -89t18.5 -61t37.5 -35.5t61 -11.5t61 11.5t38 35.5t19 61t5 89v472h94v-460q0 -78 -9.5 -131t-33.5 -86t-66 -47t-108 -14zM139 882h82v-104h-82v104zM337 882h82v-104h-82v104z" />
    <glyph glyph-name="Yacute" unicode="&#xdd;" horiz-adv-x="495" 
d="M200 288l-192 437h94l145 -352l146 352h94l-194 -438v-287h-93v288zM272 886h118l-120 -113h-67z" />
    <glyph glyph-name="Thorn" unicode="&#xde;" horiz-adv-x="505" 
d="M72 725h92v-151h71q61 0 109 -8t80.5 -31t49.5 -64t17 -107q0 -65 -17 -106.5t-49.5 -65t-80.5 -32.5t-109 -9h-69v-151h-94v725zM228 219q43 0 74 5t51.5 20.5t30 44t9.5 74.5t-9.5 74.5t-30 44t-51.5 21t-74 5.5h-62v-289h62z" />
    <glyph glyph-name="germandbls" unicode="&#xdf;" horiz-adv-x="506" 
d="M60 528q0 58 13 98t38 65t61 36t82 11q39 0 72.5 -9.5t58.5 -29.5t39.5 -52.5t14.5 -78.5q0 -65 -29 -105t-77 -54q28 -6 53 -20t43 -37t28.5 -57t10.5 -79q0 -114 -51 -165t-158 -51h-48v61h41q70 0 97.5 42.5t27.5 112.5q0 78 -34 116.5t-111 38.5h-25v64h22
q58 0 89 27t31 99q0 57 -25 85.5t-72 28.5q-57 0 -79.5 -34t-22.5 -111v-530h-90v528z" />
    <glyph glyph-name="agrave" unicode="&#xe0;" horiz-adv-x="444" 
d="M171 -13q-60 0 -99.5 38t-39.5 107v9q0 35 12.5 63t43 51.5t82.5 44t132 40.5v44q0 60 -21.5 84t-63.5 24q-91 0 -91 -107v-11h-85v11q0 43 14 74.5t38.5 52t57 30t68.5 9.5q40 0 72.5 -7t54.5 -26.5t34 -53t12 -86.5v-41q0 -30 -0.5 -64t-0.5 -64v-96q0 -24 1 -44
t1.5 -36.5t2.5 -32.5h-82l-2 78q-19 -45 -53 -68t-88 -23zM202 50q43 0 73 37t30 124v72q-59 -14 -94.5 -28t-54.5 -30.5t-25 -36.5t-6 -46v-7q0 -38 20 -61.5t57 -23.5zM95 725h109l64 -119h-61z" />
    <glyph glyph-name="aacute" unicode="&#xe1;" horiz-adv-x="444" 
d="M171 -13q-60 0 -99.5 38t-39.5 107v9q0 35 12.5 63t43 51.5t82.5 44t132 40.5v44q0 60 -21.5 84t-63.5 24q-91 0 -91 -107v-11h-85v11q0 43 14 74.5t38.5 52t57 30t68.5 9.5q40 0 72.5 -7t54.5 -26.5t34 -53t12 -86.5v-41q0 -30 -0.5 -64t-0.5 -64v-96q0 -24 1 -44
t1.5 -36.5t2.5 -32.5h-82l-2 78q-19 -45 -53 -68t-88 -23zM202 50q43 0 73 37t30 124v72q-59 -14 -94.5 -28t-54.5 -30.5t-25 -36.5t-6 -46v-7q0 -38 20 -61.5t57 -23.5zM249 725h107l-112 -119h-61z" />
    <glyph glyph-name="acircumflex" unicode="&#xe2;" horiz-adv-x="444" 
d="M171 -13q-60 0 -99.5 38t-39.5 107v9q0 35 12.5 63t43 51.5t82.5 44t132 40.5v44q0 60 -21.5 84t-63.5 24q-91 0 -91 -107v-11h-85v11q0 43 14 74.5t38.5 52t57 30t68.5 9.5q40 0 72.5 -7t54.5 -26.5t34 -53t12 -86.5v-41q0 -30 -0.5 -64t-0.5 -64v-96q0 -24 1 -44
t1.5 -36.5t2.5 -32.5h-82l-2 78q-19 -45 -53 -68t-88 -23zM202 50q43 0 73 37t30 124v72q-59 -14 -94.5 -28t-54.5 -30.5t-25 -36.5t-6 -46v-7q0 -38 20 -61.5t57 -23.5zM190 725h79l111 -119h-76l-74 69l-73 -69h-78z" />
    <glyph glyph-name="atilde" unicode="&#xe3;" horiz-adv-x="444" 
d="M171 -13q-60 0 -99.5 38t-39.5 107v9q0 35 12.5 63t43 51.5t82.5 44t132 40.5v44q0 60 -21.5 84t-63.5 24q-91 0 -91 -107v-11h-85v11q0 43 14 74.5t38.5 52t57 30t68.5 9.5q40 0 72.5 -7t54.5 -26.5t34 -53t12 -86.5v-41q0 -30 -0.5 -64t-0.5 -64v-96q0 -24 1 -44
t1.5 -36.5t2.5 -32.5h-82l-2 78q-19 -45 -53 -68t-88 -23zM202 50q43 0 73 37t30 124v72q-59 -14 -94.5 -28t-54.5 -30.5t-25 -36.5t-6 -46v-7q0 -38 20 -61.5t57 -23.5zM77 612q4 64 29.5 88.5t58.5 24.5q19 0 36.5 -7.5t34 -17t30.5 -17t26 -7.5q13 0 21 11.5t9 37.5h60
q-2 -33 -10 -54.5t-20 -34.5t-27 -18.5t-30 -5.5q-18 0 -35 7.5t-32.5 17t-29.5 17t-26 7.5q-14 0 -24 -11.5t-11 -37.5h-60z" />
    <glyph glyph-name="adieresis" unicode="&#xe4;" horiz-adv-x="444" 
d="M171 -13q-60 0 -99.5 38t-39.5 107v9q0 35 12.5 63t43 51.5t82.5 44t132 40.5v44q0 60 -21.5 84t-63.5 24q-91 0 -91 -107v-11h-85v11q0 43 14 74.5t38.5 52t57 30t68.5 9.5q40 0 72.5 -7t54.5 -26.5t34 -53t12 -86.5v-41q0 -30 -0.5 -64t-0.5 -64v-96q0 -24 1 -44
t1.5 -36.5t2.5 -32.5h-82l-2 78q-19 -45 -53 -68t-88 -23zM202 50q43 0 73 37t30 124v72q-59 -14 -94.5 -28t-54.5 -30.5t-25 -36.5t-6 -46v-7q0 -38 20 -61.5t57 -23.5zM87 725h81v-108h-81v108zM286 725h81v-108h-81v108z" />
    <glyph glyph-name="aring" unicode="&#xe5;" horiz-adv-x="444" 
d="M171 -13q-60 0 -99.5 38t-39.5 107v9q0 35 12.5 63t43 51.5t82.5 44t132 40.5v44q0 60 -21.5 84t-63.5 24q-91 0 -91 -107v-11h-85v11q0 43 14 74.5t38.5 52t57 30t68.5 9.5q40 0 72.5 -7t54.5 -26.5t34 -53t12 -86.5v-41q0 -30 -0.5 -64t-0.5 -64v-96q0 -24 1 -44
t1.5 -36.5t2.5 -32.5h-82l-2 78q-19 -45 -53 -68t-88 -23zM202 50q43 0 73 37t30 124v72q-59 -14 -94.5 -28t-54.5 -30.5t-25 -36.5t-6 -46v-7q0 -38 20 -61.5t57 -23.5zM228 629q20 0 34.5 13.5t14.5 35.5t-14.5 35t-34.5 13q-19 0 -34 -13t-15 -35t15 -35.5t34 -13.5z
M228 593q-38 0 -64 23.5t-26 61.5q0 37 26.5 61t63.5 24q38 0 64 -24t26 -61q0 -38 -26 -61.5t-64 -23.5z" />
    <glyph glyph-name="ae" unicode="&#xe6;" horiz-adv-x="725" 
d="M173 -13q-66 0 -103.5 38t-37.5 106v14q0 61 41 96t118 62l115 41v51q0 55 -23 76t-65 21q-91 0 -91 -107v-11h-85v11q0 87 48 126.5t130 39.5q49 0 84.5 -11t55.5 -43q46 53 139 53q102 0 147 -59.5t45 -189.5v-41h-294v-14q0 -45 4 -81.5t15.5 -61.5t31.5 -38.5
t52 -13.5q46 0 72 28.5t26 88.5v5h85v-5q0 -91 -48 -136t-135 -45q-131 0 -169 105q-25 -59 -65.5 -82t-92.5 -23zM202 49q23 0 42.5 8.5t34 27.5t22.5 48.5t8 70.5v84l-85 -30q-48 -17 -72 -41.5t-24 -68.5v-11q0 -40 17.5 -64t56.5 -24zM397 318h201v7q0 39 -4 69
t-14.5 51t-30 31.5t-49.5 10.5q-32 0 -52 -11.5t-31 -32.5t-15.5 -51.5t-4.5 -67.5v-6z" />
    <glyph glyph-name="ccedilla" unicode="&#xe7;" horiz-adv-x="437" 
d="M230 -13q-100 0 -146 59t-46 185v76q0 125 46 184t146 59q38 0 70 -11t55.5 -34t36.5 -58.5t13 -83.5v-6h-85v6q0 123 -90 123q-33 0 -52.5 -13.5t-30 -39t-13.5 -61.5t-3 -81v-45q0 -45 3 -81.5t13.5 -61.5t30 -38.5t52.5 -13.5q46 0 68 30t22 93v5h85v-6q0 -48 -13 -83
t-36.5 -58t-55.5 -34t-70 -11zM214 -194q-43 0 -81 13l13 39q11 -5 27 -9t31 -4q22 0 40 8.5t18 28.5q0 17 -13 25.5t-32 8.5q-11 0 -22 -2.5t-20 -7.5l-20 17l48 78h43l-33 -54q8 2 15.5 3t16.5 1q32 0 55 -17.5t23 -49.5q0 -21 -9.5 -35.5t-24.5 -24t-34.5 -14t-40.5 -4.5
z" />
    <glyph glyph-name="egrave" unicode="&#xe8;" horiz-adv-x="459" 
d="M234 -13q-101 0 -148.5 59.5t-47.5 182.5v79q0 124 47 183t148 59q102 0 147 -59.5t45 -189.5v-41h-294v-14q0 -45 4 -81.5t15.5 -61.5t31.5 -38.5t52 -13.5q46 0 72 28.5t26 88.5v5h85v-5q0 -91 -48 -136t-135 -45zM131 318h201v7q0 39 -4 69t-14.5 51t-30 31.5
t-49.5 10.5q-32 0 -52 -11.5t-31 -32.5t-15.5 -51.5t-4.5 -67.5v-6zM97 725h109l64 -119h-61z" />
    <glyph glyph-name="eacute" unicode="&#xe9;" horiz-adv-x="459" 
d="M255 725h107l-112 -119h-61zM234 -13q-101 0 -148.5 59.5t-47.5 182.5v79q0 124 47 183t148 59q102 0 147 -59.5t45 -189.5v-41h-294v-14q0 -45 4 -81.5t15.5 -61.5t31.5 -38.5t52 -13.5q46 0 72 28.5t26 88.5v5h85v-5q0 -91 -48 -136t-135 -45zM131 318h201v7
q0 39 -4 69t-14.5 51t-30 31.5t-49.5 10.5q-32 0 -52 -11.5t-31 -32.5t-15.5 -51.5t-4.5 -67.5v-6z" />
    <glyph glyph-name="ecircumflex" unicode="&#xea;" horiz-adv-x="459" 
d="M193 725h79l111 -119h-76l-74 69l-73 -69h-78zM234 -13q-101 0 -148.5 59.5t-47.5 182.5v79q0 124 47 183t148 59q102 0 147 -59.5t45 -189.5v-41h-294v-14q0 -45 4 -81.5t15.5 -61.5t31.5 -38.5t52 -13.5q46 0 72 28.5t26 88.5v5h85v-5q0 -91 -48 -136t-135 -45z
M131 318h201v7q0 39 -4 69t-14.5 51t-30 31.5t-49.5 10.5q-32 0 -52 -11.5t-31 -32.5t-15.5 -51.5t-4.5 -67.5v-6z" />
    <glyph glyph-name="edieresis" unicode="&#xeb;" horiz-adv-x="459" 
d="M94 725h81v-108h-81v108zM293 725h81v-108h-81v108zM234 -13q-101 0 -148.5 59.5t-47.5 182.5v79q0 124 47 183t148 59q102 0 147 -59.5t45 -189.5v-41h-294v-14q0 -45 4 -81.5t15.5 -61.5t31.5 -38.5t52 -13.5q46 0 72 28.5t26 88.5v5h85v-5q0 -91 -48 -136t-135 -45z
M131 318h201v7q0 39 -4 69t-14.5 51t-30 31.5t-49.5 10.5q-32 0 -52 -11.5t-31 -32.5t-15.5 -51.5t-4.5 -67.5v-6z" />
    <glyph glyph-name="igrave" unicode="&#xec;" horiz-adv-x="210" 
d="M60 538h90v-538h-90v538zM-33 725h109l64 -119h-61z" />
    <glyph glyph-name="iacute" unicode="&#xed;" horiz-adv-x="210" 
d="M137 725h107l-112 -119h-61zM60 538h90v-538h-90v538z" />
    <glyph glyph-name="icircumflex" unicode="&#xee;" horiz-adv-x="210" 
d="M65 725h79l90 -119h-72l-57 69l-57 -69h-73zM60 538h90v-538h-90v538z" />
    <glyph glyph-name="idieresis" unicode="&#xef;" horiz-adv-x="210" 
d="M-3 725h81v-108h-81v108zM132 725h81v-108h-81v108zM60 538h90v-538h-90v538z" />
    <glyph glyph-name="eth" unicode="&#xf0;" horiz-adv-x="465" 
d="M99 588l95 60q-19 12 -40.5 24.5t-45.5 26.5l59 39q23 -12 45.5 -24t43.5 -26l58 37l46 -24l-65 -40q28 -23 52.5 -53t42 -71.5t27.5 -96t10 -126.5v-84q0 -122 -47 -182.5t-146 -60.5q-100 0 -147.5 60.5t-47.5 182.5v80q0 120 47.5 180t139.5 60q35 0 59.5 -16
t35.5 -35l2 1q-11 37 -33.5 66t-57.5 56l-89 -56zM234 51q31 0 51 13.5t31.5 39.5t15.5 63t4 84v35q0 109 -27.5 155t-80.5 46q-56 0 -77 -51.5t-21 -148.5v-36q0 -47 4.5 -84t16 -63t31.5 -39.5t52 -13.5z" />
    <glyph glyph-name="ntilde" unicode="&#xf1;" horiz-adv-x="471" 
d="M60 538h90v-87q15 43 50 71t87 28q74 0 103 -46t29 -144v-360h-90v330q0 36 -2.5 64.5t-10.5 48t-22.5 30t-38.5 10.5q-53 0 -79 -51.5t-26 -137.5v-294h-90v538zM95 612q4 64 29.5 88.5t58.5 24.5q19 0 36.5 -7.5t34 -17t30.5 -17t26 -7.5q13 0 21 11.5t9 37.5h60
q-2 -33 -10 -54.5t-20 -34.5t-27 -18.5t-30 -5.5q-18 0 -35 7.5t-32.5 17t-29.5 17t-26 7.5q-14 0 -24 -11.5t-11 -37.5h-60z" />
    <glyph glyph-name="ograve" unicode="&#xf2;" horiz-adv-x="461" 
d="M231 51q32 0 51.5 13.5t30 39.5t14 63t3.5 84v35q0 47 -3.5 84t-14 63t-30 40t-51.5 14t-51.5 -14t-30.5 -40t-14.5 -63t-3.5 -84v-35q0 -47 3.5 -84t14.5 -63t30.5 -39.5t51.5 -13.5zM231 -13q-100 0 -146.5 59t-46.5 184v77q0 125 46.5 184t146.5 59q99 0 145.5 -59
t46.5 -184v-77q0 -125 -46.5 -184t-145.5 -59zM96 725h109l64 -119h-61z" />
    <glyph glyph-name="oacute" unicode="&#xf3;" horiz-adv-x="461" 
d="M259 725h107l-112 -119h-61zM231 51q32 0 51.5 13.5t30 39.5t14 63t3.5 84v35q0 47 -3.5 84t-14 63t-30 40t-51.5 14t-51.5 -14t-30.5 -40t-14.5 -63t-3.5 -84v-35q0 -47 3.5 -84t14.5 -63t30.5 -39.5t51.5 -13.5zM231 -13q-100 0 -146.5 59t-46.5 184v77q0 125 46.5 184
t146.5 59q99 0 145.5 -59t46.5 -184v-77q0 -125 -46.5 -184t-145.5 -59z" />
    <glyph glyph-name="ocircumflex" unicode="&#xf4;" horiz-adv-x="461" 
d="M231 51q32 0 51.5 13.5t30 39.5t14 63t3.5 84v35q0 47 -3.5 84t-14 63t-30 40t-51.5 14t-51.5 -14t-30.5 -40t-14.5 -63t-3.5 -84v-35q0 -47 3.5 -84t14.5 -63t30.5 -39.5t51.5 -13.5zM231 -13q-100 0 -146.5 59t-46.5 184v77q0 125 46.5 184t146.5 59q99 0 145.5 -59
t46.5 -184v-77q0 -125 -46.5 -184t-145.5 -59zM192 725h79l111 -119h-76l-74 69l-73 -69h-78z" />
    <glyph glyph-name="otilde" unicode="&#xf5;" horiz-adv-x="461" 
d="M231 51q32 0 51.5 13.5t30 39.5t14 63t3.5 84v35q0 47 -3.5 84t-14 63t-30 40t-51.5 14t-51.5 -14t-30.5 -40t-14.5 -63t-3.5 -84v-35q0 -47 3.5 -84t14.5 -63t30.5 -39.5t51.5 -13.5zM231 -13q-100 0 -146.5 59t-46.5 184v77q0 125 46.5 184t146.5 59q99 0 145.5 -59
t46.5 -184v-77q0 -125 -46.5 -184t-145.5 -59zM87 612q4 64 29.5 88.5t58.5 24.5q19 0 36.5 -7.5t34 -17t30.5 -17t26 -7.5q13 0 21 11.5t9 37.5h60q-2 -33 -10 -54.5t-20 -34.5t-27 -18.5t-30 -5.5q-18 0 -35 7.5t-32.5 17t-29.5 17t-26 7.5q-14 0 -24 -11.5t-11 -37.5h-60
z" />
    <glyph glyph-name="odieresis" unicode="&#xf6;" horiz-adv-x="461" 
d="M231 51q32 0 51.5 13.5t30 39.5t14 63t3.5 84v35q0 47 -3.5 84t-14 63t-30 40t-51.5 14t-51.5 -14t-30.5 -40t-14.5 -63t-3.5 -84v-35q0 -47 3.5 -84t14.5 -63t30.5 -39.5t51.5 -13.5zM231 -13q-100 0 -146.5 59t-46.5 184v77q0 125 46.5 184t146.5 59q99 0 145.5 -59
t46.5 -184v-77q0 -125 -46.5 -184t-145.5 -59zM90 725h81v-108h-81v108zM289 725h81v-108h-81v108z" />
    <glyph glyph-name="divide" unicode="&#xf7;" 
d="M225 157h99v-118h-99v118zM39 306h471v-74h-471v74zM225 496h99v-119h-99v119z" />
    <glyph glyph-name="oslash" unicode="&#xf8;" horiz-adv-x="461" 
d="M61 -65l41 92q-64 57 -64 203v77q0 125 46.5 184t146.5 59q57 0 95 -19l32 72h44l-42 -95q63 -59 63 -201v-77q0 -125 -46.5 -184t-145.5 -59q-56 0 -95 18l-31 -70h-44zM131 251q0 -41 2.5 -73.5t9.5 -57.5l152 342q-23 25 -64 25q-32 0 -51.5 -14t-30.5 -40t-14.5 -63
t-3.5 -84v-35zM231 51q32 0 51.5 13.5t30 39.5t14 63t3.5 84v35q0 39 -2.5 71.5t-9.5 57.5l-151 -340q22 -24 64 -24z" />
    <glyph glyph-name="ugrave" unicode="&#xf9;" horiz-adv-x="471" 
d="M411 0h-90v87q-15 -43 -50 -71t-87 -28q-74 0 -103 46t-29 144v360h90v-330q0 -36 2.5 -64.5t10.5 -48t22.5 -30t38.5 -10.5q53 0 79 51.5t26 137.5v294h90v-538zM97 725h109l64 -119h-61z" />
    <glyph glyph-name="uacute" unicode="&#xfa;" horiz-adv-x="471" 
d="M255 725h107l-112 -119h-61zM411 0h-90v87q-15 -43 -50 -71t-87 -28q-74 0 -103 46t-29 144v360h90v-330q0 -36 2.5 -64.5t10.5 -48t22.5 -30t38.5 -10.5q53 0 79 51.5t26 137.5v294h90v-538z" />
    <glyph glyph-name="ucircumflex" unicode="&#xfb;" horiz-adv-x="471" 
d="M190 725h79l111 -119h-76l-74 69l-73 -69h-78zM411 0h-90v87q-15 -43 -50 -71t-87 -28q-74 0 -103 46t-29 144v360h90v-330q0 -36 2.5 -64.5t10.5 -48t22.5 -30t38.5 -10.5q53 0 79 51.5t26 137.5v294h90v-538z" />
    <glyph glyph-name="udieresis" unicode="&#xfc;" horiz-adv-x="471" 
d="M90 725h81v-108h-81v108zM289 725h81v-108h-81v108zM411 0h-90v87q-15 -43 -50 -71t-87 -28q-74 0 -103 46t-29 144v360h90v-330q0 -36 2.5 -64.5t10.5 -48t22.5 -30t38.5 -10.5q53 0 79 51.5t26 137.5v294h90v-538z" />
    <glyph glyph-name="yacute" unicode="&#xfd;" horiz-adv-x="403" 
d="M46 -114h29q19 0 31.5 2.5t21.5 10t15.5 22t12.5 39.5l10 39l-158 539h89l112 -419l103 419h83l-144 -544q-14 -54 -27 -87t-30 -51.5t-42 -24.5t-64 -6h-42v61zM226 725h107l-112 -119h-61z" />
    <glyph glyph-name="thorn" unicode="&#xfe;" horiz-adv-x="484" 
d="M60 725h90v-274q14 42 49 70.5t86 28.5q160 0 160 -242v-79q0 -242 -160 -242q-51 0 -86 28t-49 70v-260h-90v900zM259 53q55 0 75 51t20 150v29q0 98 -20 149.5t-75 51.5t-84 -52t-29 -164q0 -111 29 -163t84 -52z" />
    <glyph glyph-name="ydieresis" unicode="&#xff;" horiz-adv-x="403" 
d="M46 -114h29q19 0 31.5 2.5t21.5 10t15.5 22t12.5 39.5l10 39l-158 539h89l112 -419l103 419h83l-144 -544q-14 -54 -27 -87t-30 -51.5t-42 -24.5t-64 -6h-42v61zM64 725h81v-108h-81v108zM263 725h81v-108h-81v108z" />
    <glyph glyph-name="Abreve" unicode="&#x102;" horiz-adv-x="529" 
d="M208 725h111l200 -725h-96l-47 186h-229l-47 -186h-90zM164 253h195l-97 381zM264 773q-125 0 -129 113h64q2 -35 20.5 -46t44.5 -11q28 0 46 11t20 46h65q-7 -113 -131 -113z" />
    <glyph glyph-name="Amacron" unicode="&#x100;" horiz-adv-x="529" 
d="M208 725h111l200 -725h-96l-47 186h-229l-47 -186h-90zM164 253h195l-97 381zM146 863h239v-67h-239v67z" />
    <glyph glyph-name="Aogonek" unicode="&#x104;" horiz-adv-x="529" 
d="M208 725h111l200 -725q-38 -19 -64.5 -43.5t-26.5 -49.5q0 -20 13.5 -30t36.5 -10q13 0 22.5 2.5t18.5 4.5v-55q-15 -4 -31 -5.5t-31 -1.5q-21 0 -41.5 5t-36 15t-25 25.5t-9.5 36.5q0 15 6 31t16.5 30.5t25 26t30.5 18.5l-47 186h-229l-47 -186h-90zM164 253h195
l-97 381z" />
    <glyph glyph-name="Cacute" unicode="&#x106;" horiz-adv-x="529" 
d="M279 -13q-126 0 -181 80t-55 251v89q0 171 55 251t181 80q108 0 163.5 -61t55.5 -178v-5h-92v4q0 92 -32 131.5t-96 39.5q-42 0 -69 -19t-42 -56t-20.5 -90t-5.5 -122v-39q0 -69 5.5 -122t20.5 -90t42 -56t69 -19q64 0 96 39.5t32 131.5v4h92v-5q0 -117 -55.5 -178
t-163.5 -61zM298 886h118l-120 -113h-67z" />
    <glyph glyph-name="Ccaron" unicode="&#x10c;" horiz-adv-x="529" 
d="M234 773l-112 113h81l75 -68l74 68h82l-111 -113h-89zM279 -13q-126 0 -181 80t-55 251v89q0 171 55 251t181 80q108 0 163.5 -61t55.5 -178v-5h-92v4q0 92 -32 131.5t-96 39.5q-42 0 -69 -19t-42 -56t-20.5 -90t-5.5 -122v-39q0 -69 5.5 -122t20.5 -90t42 -56t69 -19
q64 0 96 39.5t32 131.5v4h92v-5q0 -117 -55.5 -178t-163.5 -61z" />
    <glyph glyph-name="Ccircumflex" unicode="&#x108;" horiz-adv-x="529" 
d="M279 -13q-126 0 -181 80t-55 251v89q0 171 55 251t181 80q108 0 163.5 -61t55.5 -178v-5h-92v4q0 92 -32 131.5t-96 39.5q-42 0 -69 -19t-42 -56t-20.5 -90t-5.5 -122v-39q0 -69 5.5 -122t20.5 -90t42 -56t69 -19q64 0 96 39.5t32 131.5v4h92v-5q0 -117 -55.5 -178
t-163.5 -61zM234 886h89l111 -113h-82l-74 67l-75 -67h-81z" />
    <glyph glyph-name="Cdotaccent" unicode="&#x10a;" horiz-adv-x="529" 
d="M279 -13q-126 0 -181 80t-55 251v89q0 171 55 251t181 80q108 0 163.5 -61t55.5 -178v-5h-92v4q0 92 -32 131.5t-96 39.5q-42 0 -69 -19t-42 -56t-20.5 -90t-5.5 -122v-39q0 -69 5.5 -122t20.5 -90t42 -56t69 -19q64 0 96 39.5t32 131.5v4h92v-5q0 -117 -55.5 -178
t-163.5 -61zM231 881h94v-104h-94v104z" />
    <glyph glyph-name="Dcaron" unicode="&#x10e;" horiz-adv-x="555" 
d="M227 773l-112 113h81l75 -68l74 68h82l-111 -113h-89zM237 67q48 0 82 13.5t55 45.5t30.5 85t9.5 133v38q0 79 -9.5 132t-30.5 85.5t-55 46t-82 13.5h-71v-592h71zM72 725h162q66 0 117.5 -15.5t87 -53t54.5 -99.5t19 -156v-79q0 -93 -19 -155t-54.5 -99t-87 -52.5
t-117.5 -15.5h-162v725z" />
    <glyph glyph-name="Dcroat" unicode="&#x110;" horiz-adv-x="555" 
d="M3 406h69v319h162q66 0 117.5 -15.5t87 -53t54.5 -99.5t19 -156v-79q0 -93 -19 -155t-54.5 -99t-87 -52.5t-117.5 -15.5h-162v331h-69v75zM237 67q48 0 82 13.5t55 45.5t30.5 85t9.5 133v38q0 79 -9.5 132t-30.5 85.5t-55 46t-82 13.5h-71v-253h148v-75h-148v-264h71z
" />
    <glyph glyph-name="Ebreve" unicode="&#x114;" horiz-adv-x="461" 
d="M261 773q-125 0 -129 113h64q2 -35 20.5 -46t44.5 -11q28 0 46 11t20 46h65q-7 -113 -131 -113zM72 725h368v-73h-274v-241h250v-73h-250v-265h274v-73h-368v725z" />
    <glyph glyph-name="Ecaron" unicode="&#x11a;" horiz-adv-x="461" 
d="M218 773l-112 113h81l75 -68l74 68h82l-111 -113h-89zM72 725h368v-73h-274v-241h250v-73h-250v-265h274v-73h-368v725z" />
    <glyph glyph-name="Emacron" unicode="&#x112;" horiz-adv-x="461" 
d="M138 863h239v-67h-239v67zM72 725h368v-73h-274v-241h250v-73h-250v-265h274v-73h-368v725z" />
    <glyph glyph-name="Eogonek" unicode="&#x118;" horiz-adv-x="461" 
d="M378 -188q-21 0 -41.5 5t-36 15t-25 25.5t-9.5 36.5q0 15 7 31t19 30.5t27 26t31 18.5h90q-38 -19 -64.5 -43.5t-26.5 -49.5q0 -20 13.5 -30t36.5 -10q13 0 22.5 2.5t18.5 4.5v-55q-15 -4 -31 -5.5t-31 -1.5zM72 725h368v-73h-274v-241h250v-73h-250v-265h274v-73h-368
v725z" />
    <glyph glyph-name="Edotaccent" unicode="&#x116;" horiz-adv-x="461" 
d="M215 881h94v-104h-94v104zM72 725h368v-73h-274v-241h250v-73h-250v-265h274v-73h-368v725z" />
    <glyph glyph-name="Gbreve" unicode="&#x11e;" horiz-adv-x="558" 
d="M282 773q-125 0 -129 113h64q2 -35 20.5 -46t44.5 -11q28 0 46 11t20 46h65q-7 -113 -131 -113zM266 -13q-117 0 -170 80.5t-53 250.5v89q0 171 55.5 251t181.5 80q108 0 164 -61t56 -170v-3h-92v3q0 84 -32 123t-96 39q-43 0 -70 -19t-42.5 -56t-21 -90t-5.5 -122v-39
q0 -69 5.5 -122t21 -90t42.5 -56t70 -19q76 0 108 54.5t32 155.5v31h-169v69h251v-366h-71l-1 95q-21 -49 -60 -78.5t-104 -29.5z" />
    <glyph glyph-name="Gcircumflex" unicode="&#x11c;" horiz-adv-x="558" 
d="M236 886h89l111 -113h-82l-74 67l-75 -67h-81zM266 -13q-117 0 -170 80.5t-53 250.5v89q0 171 55.5 251t181.5 80q108 0 164 -61t56 -170v-3h-92v3q0 84 -32 123t-96 39q-43 0 -70 -19t-42.5 -56t-21 -90t-5.5 -122v-39q0 -69 5.5 -122t21 -90t42.5 -56t70 -19
q76 0 108 54.5t32 155.5v31h-169v69h251v-366h-71l-1 95q-21 -49 -60 -78.5t-104 -29.5z" />
    <glyph glyph-name="uni0122" unicode="&#x122;" horiz-adv-x="558" 
d="M257 -133h-35v83h90v-89l-41 -83h-50zM266 -13q-117 0 -170 80.5t-53 250.5v89q0 171 55.5 251t181.5 80q108 0 164 -61t56 -170v-3h-92v3q0 84 -32 123t-96 39q-43 0 -70 -19t-42.5 -56t-21 -90t-5.5 -122v-39q0 -69 5.5 -122t21 -90t42.5 -56t70 -19q76 0 108 54.5
t32 155.5v31h-169v69h251v-366h-71l-1 95q-21 -49 -60 -78.5t-104 -29.5z" />
    <glyph glyph-name="Gdotaccent" unicode="&#x120;" horiz-adv-x="558" 
d="M233 881h94v-104h-94v104zM266 -13q-117 0 -170 80.5t-53 250.5v89q0 171 55.5 251t181.5 80q108 0 164 -61t56 -170v-3h-92v3q0 84 -32 123t-96 39q-43 0 -70 -19t-42.5 -56t-21 -90t-5.5 -122v-39q0 -69 5.5 -122t21 -90t42.5 -56t70 -19q76 0 108 54.5t32 155.5v31
h-169v69h251v-366h-71l-1 95q-21 -49 -60 -78.5t-104 -29.5z" />
    <glyph glyph-name="Hbar" unicode="&#x126;" horiz-adv-x="580" 
d="M17 605h55v120h94v-120h248v120h94v-120h56v-73h-56v-532h-94v338h-248v-338h-94v532h-55v73zM414 411v121h-248v-121h248z" />
    <glyph glyph-name="Hcircumflex" unicode="&#x124;" horiz-adv-x="580" 
d="M72 725h94v-314h248v314h94v-725h-94v338h-248v-338h-94v725zM247 886h89l111 -113h-82l-74 67l-75 -67h-81z" />
    <glyph glyph-name="Ibreve" unicode="&#x12c;" horiz-adv-x="238" 
d="M118 771q-62 0 -90.5 28.5t-30.5 86.5h68q1 -35 14 -50.5t39 -15.5q27 0 40 15.5t14 50.5h68q-2 -58 -30.5 -86.5t-91.5 -28.5zM72 725h94v-725h-94v725z" />
    <glyph glyph-name="Idotaccent" unicode="&#x130;" horiz-adv-x="238" 
d="M72 725h94v-725h-94v725zM71 881h94v-104h-94v104z" />
    <glyph glyph-name="Imacron" unicode="&#x12a;" horiz-adv-x="238" 
d="M11 865h216v-67h-216v67zM72 725h94v-725h-94v725z" />
    <glyph glyph-name="Iogonek" unicode="&#x12e;" horiz-adv-x="238" 
d="M103 -188q-21 0 -41.5 6t-36 17t-25 28t-9.5 38q0 15 6.5 30t18 28t26 23.5t30.5 17.5v725h94v-725h-1q-38 -19 -64.5 -43.5t-26.5 -49.5q0 -20 13.5 -30t36.5 -10q13 0 22.5 2.5t18.5 4.5v-55q-15 -4 -31 -5.5t-31 -1.5z" />
    <glyph glyph-name="Itilde" unicode="&#x128;" horiz-adv-x="238" 
d="M72 725h94v-725h-94v725zM-10 773q6 58 31 80.5t55 22.5q17 0 28.5 -7.5t20.5 -16.5l16 -17q8 -7 18 -7q27 0 32 48h57q-3 -29 -11.5 -49t-20.5 -32t-26 -17t-28 -5q-17 0 -28 7t-19.5 16t-16.5 16t-19 7q-27 0 -31 -46h-58z" />
    <glyph glyph-name="uni1ECA" unicode="&#x1eca;" horiz-adv-x="238" 
d="M72 725h94v-725h-94v725zM79 -76h81v-99h-81v99z" />
    <glyph glyph-name="Jcircumflex" unicode="&#x134;" horiz-adv-x="439" 
d="M192 -13q-99 0 -143 56t-44 157v11h94v-11q0 -75 19.5 -109.5t71.5 -34.5t72.5 35t20.5 109v525h94v-525q0 -109 -45 -161t-140 -52zM284 886h89l111 -113h-82l-74 67l-75 -67h-81z" />
    <glyph glyph-name="uni0136" unicode="&#x136;" horiz-adv-x="526" 
d="M278 -133h-35v83h90v-89l-41 -83h-50zM243 344l-77 -113v-231h-94v725h94v-360l244 360h95l-206 -300l229 -425h-98z" />
    <glyph glyph-name="Lacute" unicode="&#x139;" horiz-adv-x="447" 
d="M72 725h94v-652h275v-73h-369v725zM155 886h118l-120 -113h-67z" />
    <glyph glyph-name="Lcaron" unicode="&#x13d;" horiz-adv-x="447" 
d="M72 725h94v-652h275v-73h-369v725zM269 725h86l-58 -170h-57z" />
    <glyph glyph-name="uni013B" unicode="&#x13b;" horiz-adv-x="447" 
d="M247 -133h-35v83h90v-89l-41 -83h-50zM72 725h94v-652h275v-73h-369v725z" />
    <glyph glyph-name="Ldot" unicode="&#x13f;" horiz-adv-x="447" 
d="M295 452h94v-104h-94v104zM72 725h94v-652h275v-73h-369v725z" />
    <glyph glyph-name="Lslash" unicode="&#x141;" horiz-adv-x="455" 
d="M3 289l78 56v380h94v-313l188 136v-82l-188 -135v-258h275v-73h-369v264l-78 -56v81z" />
    <glyph glyph-name="Eng" unicode="&#x14a;" horiz-adv-x="582" 
d="M311 -101h21q28 0 46 3t28 12t14 25t4 41v21l-266 602v-603h-86v725h112l240 -554v554h86v-743q0 -47 -7.5 -77t-25.5 -48t-47.5 -25t-74.5 -7h-44v74z" />
    <glyph glyph-name="Nacute" unicode="&#x143;" horiz-adv-x="582" 
d="M72 725h113l239 -602v602h86v-725h-113l-239 603v-603h-86v725zM327 886h118l-120 -113h-67z" />
    <glyph glyph-name="Ncaron" unicode="&#x147;" horiz-adv-x="582" 
d="M247 773l-112 113h81l75 -68l74 68h82l-111 -113h-89zM72 725h113l239 -602v602h86v-725h-113l-239 603v-603h-86v725z" />
    <glyph glyph-name="uni0145" unicode="&#x145;" horiz-adv-x="582" 
d="M271 -133h-35v83h90v-89l-41 -83h-50zM72 725h113l239 -602v602h86v-725h-113l-239 603v-603h-86v725z" />
    <glyph glyph-name="OE" unicode="&#x152;" horiz-adv-x="816" 
d="M427 725h368v-73h-274v-241h250v-73h-250v-265h274v-73h-368v725zM282 56q43 0 70.5 19t43 56t21.5 90t6 122v39q0 69 -6 122t-21.5 90t-43 56t-70.5 19t-70.5 -19t-43 -56t-21.5 -90t-6 -122v-39q0 -69 6 -122t21.5 -90t43 -56t70.5 -19zM282 -13q-126 0 -182.5 80
t-56.5 251v89q0 171 56.5 251t182.5 80q125 0 182 -80t57 -251v-89q0 -171 -57 -251t-182 -80z" />
    <glyph glyph-name="Obreve" unicode="&#x14e;" horiz-adv-x="564" 
d="M282 56q43 0 70.5 19t43 56t21.5 90t6 122v39q0 69 -6 122t-21.5 90t-43 56t-70.5 19t-70.5 -19t-43 -56t-21.5 -90t-6 -122v-39q0 -69 6 -122t21.5 -90t43 -56t70.5 -19zM282 -13q-126 0 -182.5 80t-56.5 251v89q0 171 56.5 251t182.5 80q125 0 182 -80t57 -251v-89
q0 -171 -57 -251t-182 -80zM281 773q-125 0 -129 113h64q2 -35 20.5 -46t44.5 -11q28 0 46 11t20 46h65q-7 -113 -131 -113z" />
    <glyph glyph-name="Ohungarumlaut" unicode="&#x150;" horiz-adv-x="564" 
d="M282 56q43 0 70.5 19t43 56t21.5 90t6 122v39q0 69 -6 122t-21.5 90t-43 56t-70.5 19t-70.5 -19t-43 -56t-21.5 -90t-6 -122v-39q0 -69 6 -122t21.5 -90t43 -56t70.5 -19zM282 -13q-126 0 -182.5 80t-56.5 251v89q0 171 56.5 251t182.5 80q125 0 182 -80t57 -251v-89
q0 -171 -57 -251t-182 -80zM406 897h118l-120 -113h-67zM233 897h118l-120 -113h-67z" />
    <glyph glyph-name="Omacron" unicode="&#x14c;" horiz-adv-x="564" 
d="M165 863h239v-67h-239v67zM282 56q43 0 70.5 19t43 56t21.5 90t6 122v39q0 69 -6 122t-21.5 90t-43 56t-70.5 19t-70.5 -19t-43 -56t-21.5 -90t-6 -122v-39q0 -69 6 -122t21.5 -90t43 -56t70.5 -19zM282 -13q-126 0 -182.5 80t-56.5 251v89q0 171 56.5 251t182.5 80
q125 0 182 -80t57 -251v-89q0 -171 -57 -251t-182 -80z" />
    <glyph glyph-name="uni1ECC" unicode="&#x1ecc;" horiz-adv-x="564" 
d="M246 -76h81v-99h-81v99zM282 56q43 0 70.5 19t43 56t21.5 90t6 122v39q0 69 -6 122t-21.5 90t-43 56t-70.5 19t-70.5 -19t-43 -56t-21.5 -90t-6 -122v-39q0 -69 6 -122t21.5 -90t43 -56t70.5 -19zM282 -13q-126 0 -182.5 80t-56.5 251v89q0 171 56.5 251t182.5 80
q125 0 182 -80t57 -251v-89q0 -171 -57 -251t-182 -80z" />
    <glyph glyph-name="Racute" unicode="&#x154;" horiz-adv-x="538" 
d="M293 330q-14 -2 -29 -3t-31 -1h-67v-326h-94v725h164q67 0 116.5 -9t81.5 -31t48 -60.5t16 -96.5q0 -79 -30 -120.5t-87 -59.5l132 -348h-100zM238 388q43 0 73.5 5.5t50 20t29 41t9.5 68.5t-9.5 68.5t-29 41.5t-50 20.5t-73.5 5.5h-72v-271h72zM303 886h118l-120 -113
h-67z" />
    <glyph glyph-name="Rcaron" unicode="&#x158;" horiz-adv-x="538" 
d="M230 773l-112 113h81l75 -68l74 68h82l-111 -113h-89zM293 330q-14 -2 -29 -3t-31 -1h-67v-326h-94v725h164q67 0 116.5 -9t81.5 -31t48 -60.5t16 -96.5q0 -79 -30 -120.5t-87 -59.5l132 -348h-100zM238 388q43 0 73.5 5.5t50 20t29 41t9.5 68.5t-9.5 68.5t-29 41.5
t-50 20.5t-73.5 5.5h-72v-271h72z" />
    <glyph glyph-name="uni0156" unicode="&#x156;" horiz-adv-x="538" 
d="M272 -133h-35v83h90v-89l-41 -83h-50zM293 330q-14 -2 -29 -3t-31 -1h-67v-326h-94v725h164q67 0 116.5 -9t81.5 -31t48 -60.5t16 -96.5q0 -79 -30 -120.5t-87 -59.5l132 -348h-100zM238 388q43 0 73.5 5.5t50 20t29 41t9.5 68.5t-9.5 68.5t-29 41.5t-50 20.5t-73.5 5.5
h-72v-271h72z" />
    <glyph glyph-name="Sacute" unicode="&#x15a;" horiz-adv-x="508" 
d="M262 -13q-111 0 -170 59.5t-59 176.5v8h93v-8q0 -85 34.5 -126.5t100.5 -41.5q63 0 93.5 32.5t30.5 90.5q0 28 -7 48.5t-20.5 36t-34 28t-46.5 24.5l-88 41q-31 14 -57.5 30.5t-46 40t-30.5 55t-11 75.5t15 78t41.5 57t64 34.5t82.5 11.5q47 0 86 -12t66.5 -37.5t43 -64
t15.5 -91.5v-8h-91v8q0 66 -31.5 101.5t-88.5 35.5q-54 0 -83.5 -29t-29.5 -79q0 -26 5 -44t15 -31t24.5 -22.5t33.5 -17.5l93 -43q35 -16 66.5 -33.5t55 -42t37 -58t13.5 -81.5q0 -97 -55.5 -149.5t-159.5 -52.5zM295 886h118l-120 -113h-67z" />
    <glyph glyph-name="Scaron" unicode="&#x160;" horiz-adv-x="508" 
d="M213 773l-112 113h81l75 -68l74 68h82l-111 -113h-89zM262 -13q-111 0 -170 59.5t-59 176.5v8h93v-8q0 -85 34.5 -126.5t100.5 -41.5q63 0 93.5 32.5t30.5 90.5q0 28 -7 48.5t-20.5 36t-34 28t-46.5 24.5l-88 41q-31 14 -57.5 30.5t-46 40t-30.5 55t-11 75.5t15 78
t41.5 57t64 34.5t82.5 11.5q47 0 86 -12t66.5 -37.5t43 -64t15.5 -91.5v-8h-91v8q0 66 -31.5 101.5t-88.5 35.5q-54 0 -83.5 -29t-29.5 -79q0 -26 5 -44t15 -31t24.5 -22.5t33.5 -17.5l93 -43q35 -16 66.5 -33.5t55 -42t37 -58t13.5 -81.5q0 -97 -55.5 -149.5t-159.5 -52.5z
" />
    <glyph glyph-name="Scedilla" unicode="&#x15e;" horiz-adv-x="508" 
d="M262 -13q-111 0 -170 59.5t-59 176.5v8h93v-8q0 -85 34.5 -126.5t100.5 -41.5q63 0 93.5 32.5t30.5 90.5q0 28 -7 48.5t-20.5 36t-34 28t-46.5 24.5l-88 41q-31 14 -57.5 30.5t-46 40t-30.5 55t-11 75.5t15 78t41.5 57t64 34.5t82.5 11.5q47 0 86 -12t66.5 -37.5t43 -64
t15.5 -91.5v-8h-91v8q0 66 -31.5 101.5t-88.5 35.5q-54 0 -83.5 -29t-29.5 -79q0 -26 5 -44t15 -31t24.5 -22.5t33.5 -17.5l93 -43q35 -16 66.5 -33.5t55 -42t37 -58t13.5 -81.5q0 -97 -55.5 -149.5t-159.5 -52.5zM249 -194q-42 0 -80 13l13 39q11 -5 27 -9t31 -4
q22 0 40 8.5t18 28.5q0 34 -45 34q-11 0 -22 -2.5t-20 -7.5l-20 17l48 77h43l-33 -53q7 2 15 3t17 1q32 0 55 -17.5t23 -49.5q0 -35 -30 -56.5t-80 -21.5z" />
    <glyph glyph-name="Scircumflex" unicode="&#x15c;" horiz-adv-x="508" 
d="M262 -13q-111 0 -170 59.5t-59 176.5v8h93v-8q0 -85 34.5 -126.5t100.5 -41.5q63 0 93.5 32.5t30.5 90.5q0 28 -7 48.5t-20.5 36t-34 28t-46.5 24.5l-88 41q-31 14 -57.5 30.5t-46 40t-30.5 55t-11 75.5t15 78t41.5 57t64 34.5t82.5 11.5q47 0 86 -12t66.5 -37.5t43 -64
t15.5 -91.5v-8h-91v8q0 66 -31.5 101.5t-88.5 35.5q-54 0 -83.5 -29t-29.5 -79q0 -26 5 -44t15 -31t24.5 -22.5t33.5 -17.5l93 -43q35 -16 66.5 -33.5t55 -42t37 -58t13.5 -81.5q0 -97 -55.5 -149.5t-159.5 -52.5zM212 886h89l111 -113h-82l-74 67l-75 -67h-81z" />
    <glyph glyph-name="uni0218" unicode="&#x218;" horiz-adv-x="508" 
d="M252 -133h-35v83h90v-89l-41 -83h-50zM262 -13q-111 0 -170 59.5t-59 176.5v8h93v-8q0 -85 34.5 -126.5t100.5 -41.5q63 0 93.5 32.5t30.5 90.5q0 28 -7 48.5t-20.5 36t-34 28t-46.5 24.5l-88 41q-31 14 -57.5 30.5t-46 40t-30.5 55t-11 75.5t15 78t41.5 57t64 34.5
t82.5 11.5q47 0 86 -12t66.5 -37.5t43 -64t15.5 -91.5v-8h-91v8q0 66 -31.5 101.5t-88.5 35.5q-54 0 -83.5 -29t-29.5 -79q0 -26 5 -44t15 -31t24.5 -22.5t33.5 -17.5l93 -43q35 -16 66.5 -33.5t55 -42t37 -58t13.5 -81.5q0 -97 -55.5 -149.5t-159.5 -52.5z" />
    <glyph glyph-name="Tbar" unicode="&#x166;" horiz-adv-x="456" 
d="M4 405h177v247h-177v73h448v-73h-177v-247h177v-73h-177v-332h-94v332h-177v73z" />
    <glyph glyph-name="Tcaron" unicode="&#x164;" horiz-adv-x="456" 
d="M183 773l-112 113h81l75 -68l74 68h82l-111 -113h-89zM181 652h-177v73h448v-73h-177v-652h-94v652z" />
    <glyph glyph-name="uni0162" unicode="&#x162;" horiz-adv-x="456" 
d="M217 -133h-35v83h90v-89l-41 -83h-50zM181 652h-177v73h448v-73h-177v-652h-94v652z" />
    <glyph glyph-name="uni021A" unicode="&#x21a;" horiz-adv-x="456" 
d="M217 -133h-35v83h90v-89l-41 -83h-50zM181 652h-177v73h448v-73h-177v-652h-94v652z" />
    <glyph glyph-name="Ubreve" unicode="&#x16c;" horiz-adv-x="557" 
d="M278 773q-125 0 -129 113h64q2 -35 20.5 -46t44.5 -11q28 0 46 11t20 46h65q-7 -113 -131 -113zM278 -13q-65 0 -107 14t-66 47t-33.5 86t-9.5 131v460h94v-472q0 -52 5 -89t18.5 -61t37.5 -35.5t61 -11.5t61 11.5t38 35.5t19 61t5 89v472h94v-460q0 -78 -9.5 -131
t-33.5 -86t-66 -47t-108 -14z" />
    <glyph glyph-name="Uhungarumlaut" unicode="&#x170;" horiz-adv-x="557" 
d="M278 -13q-65 0 -107 14t-66 47t-33.5 86t-9.5 131v460h94v-472q0 -52 5 -89t18.5 -61t37.5 -35.5t61 -11.5t61 11.5t38 35.5t19 61t5 89v472h94v-460q0 -78 -9.5 -131t-33.5 -86t-66 -47t-108 -14zM380 897h118l-120 -113h-67zM207 897h118l-120 -113h-67z" />
    <glyph glyph-name="Umacron" unicode="&#x16a;" horiz-adv-x="557" 
d="M161 863h239v-67h-239v67zM278 -13q-65 0 -107 14t-66 47t-33.5 86t-9.5 131v460h94v-472q0 -52 5 -89t18.5 -61t37.5 -35.5t61 -11.5t61 11.5t38 35.5t19 61t5 89v472h94v-460q0 -78 -9.5 -131t-33.5 -86t-66 -47t-108 -14z" />
    <glyph glyph-name="Uogonek" unicode="&#x172;" horiz-adv-x="557" 
d="M294 -188q-21 0 -41.5 5t-36 15t-25 25.5t-9.5 36.5q0 15 7 31t19 30.5t27 26t31 18.5h90q-38 -19 -64.5 -43.5t-26.5 -49.5q0 -20 13.5 -30t36.5 -10q13 0 22.5 2.5t18.5 4.5v-55q-15 -4 -31 -5.5t-31 -1.5zM278 -13q-65 0 -107 14t-66 47t-33.5 86t-9.5 131v460h94
v-472q0 -52 5 -89t18.5 -61t37.5 -35.5t61 -11.5t61 11.5t38 35.5t19 61t5 89v472h94v-460q0 -78 -9.5 -131t-33.5 -86t-66 -47t-108 -14z" />
    <glyph glyph-name="Uring" unicode="&#x16e;" horiz-adv-x="557" 
d="M278 -13q-65 0 -107 14t-66 47t-33.5 86t-9.5 131v460h94v-472q0 -52 5 -89t18.5 -61t37.5 -35.5t61 -11.5t61 11.5t38 35.5t19 61t5 89v472h94v-460q0 -78 -9.5 -131t-33.5 -86t-66 -47t-108 -14zM279 803q20 0 35 12.5t15 34.5q0 23 -15 36t-35 13t-34.5 -13t-14.5 -36
q0 -22 14.5 -34.5t34.5 -12.5zM279 767q-37 0 -62.5 23.5t-25.5 59.5q0 37 26 60t62 23q37 0 62.5 -23t25.5 -60q0 -36 -25.5 -59.5t-62.5 -23.5z" />
    <glyph glyph-name="Utilde" unicode="&#x168;" horiz-adv-x="557" 
d="M278 -13q-65 0 -107 14t-66 47t-33.5 86t-9.5 131v460h94v-472q0 -52 5 -89t18.5 -61t37.5 -35.5t61 -11.5t61 11.5t38 35.5t19 61t5 89v472h94v-460q0 -78 -9.5 -131t-33.5 -86t-66 -47t-108 -14zM134 773q4 64 29.5 88.5t58.5 24.5q19 0 36.5 -7.5t34 -17t30.5 -17
t26 -7.5q13 0 21 11.5t9 37.5h60q-2 -33 -10 -54.5t-20 -34.5t-27 -18.5t-30 -5.5q-18 0 -35 7.5t-32.5 17t-29.5 17t-26 7.5q-14 0 -24 -11.5t-11 -37.5h-60z" />
    <glyph glyph-name="uni1EE4" unicode="&#x1ee4;" horiz-adv-x="557" 
d="M239 -76h81v-99h-81v99zM278 -13q-65 0 -107 14t-66 47t-33.5 86t-9.5 131v460h94v-472q0 -52 5 -89t18.5 -61t37.5 -35.5t61 -11.5t61 11.5t38 35.5t19 61t5 89v472h94v-460q0 -78 -9.5 -131t-33.5 -86t-66 -47t-108 -14z" />
    <glyph glyph-name="Wacute" unicode="&#x1e82;" horiz-adv-x="725" 
d="M14 725h86l104 -618l115 618h87l115 -618l103 618h87l-127 -725h-109l-112 613l-113 -613h-110zM401 886h118l-120 -113h-67z" />
    <glyph glyph-name="Wcircumflex" unicode="&#x174;" horiz-adv-x="725" 
d="M318 886h89l111 -113h-82l-74 67l-75 -67h-81zM14 725h86l104 -618l115 618h87l115 -618l103 618h87l-127 -725h-109l-112 613l-113 -613h-110z" />
    <glyph glyph-name="Wdieresis" unicode="&#x1e84;" horiz-adv-x="725" 
d="M223 882h82v-104h-82v104zM421 882h82v-104h-82v104zM14 725h86l104 -618l115 618h87l115 -618l103 618h87l-127 -725h-109l-112 613l-113 -613h-110z" />
    <glyph glyph-name="Wgrave" unicode="&#x1e80;" horiz-adv-x="725" 
d="M205 886h117l70 -113h-67zM14 725h86l104 -618l115 618h87l115 -618l103 618h87l-127 -725h-109l-112 613l-113 -613h-110z" />
    <glyph glyph-name="Ycircumflex" unicode="&#x176;" horiz-adv-x="495" 
d="M200 288l-192 437h94l145 -352l146 352h94l-194 -438v-287h-93v288zM204 886h89l111 -113h-82l-74 67l-75 -67h-81z" />
    <glyph glyph-name="Ydieresis" unicode="&#x178;" horiz-adv-x="495" 
d="M200 288l-192 437h94l145 -352l146 352h94l-194 -438v-287h-93v288zM108 882h82v-104h-82v104zM306 882h82v-104h-82v104z" />
    <glyph glyph-name="Ygrave" unicode="&#x1ef2;" horiz-adv-x="495" 
d="M200 288l-192 437h94l145 -352l146 352h94l-194 -438v-287h-93v288zM116 886h117l70 -113h-67z" />
    <glyph glyph-name="uni0232" unicode="&#x232;" horiz-adv-x="495" 
d="M200 288l-192 437h94l145 -352l146 352h94l-194 -438v-287h-93v288zM128 863h239v-67h-239v67z" />
    <glyph glyph-name="Zacute" unicode="&#x179;" horiz-adv-x="478" 
d="M25 68l326 584h-302v73h402v-68l-326 -584h334v-73h-434v68zM264 886h118l-120 -113h-67z" />
    <glyph glyph-name="Zcaron" unicode="&#x17d;" horiz-adv-x="478" 
d="M218 773l-112 113h81l75 -68l74 68h82l-111 -113h-89zM25 68l326 584h-302v73h402v-68l-326 -584h334v-73h-434v68z" />
    <glyph glyph-name="Zdotaccent" unicode="&#x17b;" horiz-adv-x="478" 
d="M207 881h94v-104h-94v104zM25 68l326 584h-302v73h402v-68l-326 -584h334v-73h-434v68z" />
    <glyph glyph-name="uni018F" unicode="&#x18f;" horiz-adv-x="534" 
d="M262 -13q-119 0 -172 69t-53 198v119h357v43q0 55 -4.5 101t-19 79.5t-40.5 52.5t-68 19q-37 0 -61.5 -13t-39 -35.5t-20.5 -53t-6 -65.5v-8h-96v8q0 52 12.5 95.5t39 75t69 49t102.5 17.5q64 0 107.5 -20t70.5 -58.5t38.5 -93.5t11.5 -124v-150q0 -72 -11.5 -128.5
t-38.5 -95.5t-70.5 -60t-107.5 -21zM262 57q41 0 67 17t40.5 48t19.5 74.5t5 97.5v11h-260v-66q0 -84 29.5 -133t98.5 -49z" />
    <glyph glyph-name="abreve" unicode="&#x103;" horiz-adv-x="444" 
d="M171 -13q-60 0 -99.5 38t-39.5 107v9q0 35 12.5 63t43 51.5t82.5 44t132 40.5v44q0 60 -21.5 84t-63.5 24q-91 0 -91 -107v-11h-85v11q0 43 14 74.5t38.5 52t57 30t68.5 9.5q40 0 72.5 -7t54.5 -26.5t34 -53t12 -86.5v-41q0 -30 -0.5 -64t-0.5 -64v-96q0 -24 1 -44
t1.5 -36.5t2.5 -32.5h-82l-2 78q-19 -45 -53 -68t-88 -23zM202 50q43 0 73 37t30 124v72q-59 -14 -94.5 -28t-54.5 -30.5t-25 -36.5t-6 -46v-7q0 -38 20 -61.5t57 -23.5zM225 605q-68 0 -97.5 33.5t-33.5 86.5h64q6 -68 67 -68q62 0 68 68h64q-3 -26 -10.5 -48t-23 -38
t-39.5 -25t-59 -9z" />
    <glyph glyph-name="amacron" unicode="&#x101;" horiz-adv-x="444" 
d="M171 -13q-60 0 -99.5 38t-39.5 107v9q0 35 12.5 63t43 51.5t82.5 44t132 40.5v44q0 60 -21.5 84t-63.5 24q-91 0 -91 -107v-11h-85v11q0 43 14 74.5t38.5 52t57 30t68.5 9.5q40 0 72.5 -7t54.5 -26.5t34 -53t12 -86.5v-41q0 -30 -0.5 -64t-0.5 -64v-96q0 -24 1 -44
t1.5 -36.5t2.5 -32.5h-82l-2 78q-19 -45 -53 -68t-88 -23zM202 50q43 0 73 37t30 124v72q-59 -14 -94.5 -28t-54.5 -30.5t-25 -36.5t-6 -46v-7q0 -38 20 -61.5t57 -23.5zM109 697h232v-63h-232v63z" />
    <glyph glyph-name="aogonek" unicode="&#x105;" horiz-adv-x="444" 
d="M171 -13q-60 0 -99.5 38t-39.5 107v9q0 35 12.5 63t43 51.5t82.5 44t132 40.5v44q0 60 -21.5 84t-63.5 24q-91 0 -91 -107v-11h-85v11q0 43 14 74.5t38.5 52t57 30t68.5 9.5q40 0 72.5 -7t54.5 -26.5t34 -53t12 -86.5v-41q0 -30 -0.5 -64t-0.5 -64v-96q0 -24 1 -44
t1.5 -36.5t2.5 -32.5q-38 -19 -63 -43.5t-25 -49.5q0 -20 14 -30t37 -10q13 0 22 2.5t18 5.5v-55q-32 -8 -61 -8q-21 0 -41.5 5t-36 15t-25 25.5t-9.5 36.5q0 30 24 57.5t64 48.5l-2 78q-19 -45 -53 -68t-88 -23zM202 50q43 0 73 37t30 124v72q-59 -14 -94.5 -28
t-54.5 -30.5t-25 -36.5t-6 -46v-7q0 -38 20 -61.5t57 -23.5z" />
    <glyph glyph-name="cacute" unicode="&#x107;" horiz-adv-x="437" 
d="M249 725h107l-112 -119h-61zM230 -13q-100 0 -146 59t-46 185v76q0 125 46 184t146 59q38 0 70 -11t55.5 -34t36.5 -58.5t13 -83.5v-6h-85v6q0 123 -90 123q-33 0 -52.5 -13.5t-30 -39t-13.5 -61.5t-3 -81v-45q0 -45 3 -81.5t13.5 -61.5t30 -38.5t52.5 -13.5q46 0 68 30
t22 93v5h85v-6q0 -48 -13 -83t-36.5 -58t-55.5 -34t-70 -11z" />
    <glyph glyph-name="ccaron" unicode="&#x10d;" horiz-adv-x="437" 
d="M81 725h78l73 -69l74 69h76l-111 -119h-78zM230 -13q-100 0 -146 59t-46 185v76q0 125 46 184t146 59q38 0 70 -11t55.5 -34t36.5 -58.5t13 -83.5v-6h-85v6q0 123 -90 123q-33 0 -52.5 -13.5t-30 -39t-13.5 -61.5t-3 -81v-45q0 -45 3 -81.5t13.5 -61.5t30 -38.5
t52.5 -13.5q46 0 68 30t22 93v5h85v-6q0 -48 -13 -83t-36.5 -58t-55.5 -34t-70 -11z" />
    <glyph glyph-name="ccircumflex" unicode="&#x109;" horiz-adv-x="437" 
d="M189 725h79l111 -119h-76l-74 69l-73 -69h-78zM230 -13q-100 0 -146 59t-46 185v76q0 125 46 184t146 59q38 0 70 -11t55.5 -34t36.5 -58.5t13 -83.5v-6h-85v6q0 123 -90 123q-33 0 -52.5 -13.5t-30 -39t-13.5 -61.5t-3 -81v-45q0 -45 3 -81.5t13.5 -61.5t30 -38.5
t52.5 -13.5q46 0 68 30t22 93v5h85v-6q0 -48 -13 -83t-36.5 -58t-55.5 -34t-70 -11z" />
    <glyph glyph-name="cdotaccent" unicode="&#x10b;" horiz-adv-x="437" 
d="M230 -13q-100 0 -146 59t-46 185v76q0 125 46 184t146 59q38 0 70 -11t55.5 -34t36.5 -58.5t13 -83.5v-6h-85v6q0 123 -90 123q-33 0 -52.5 -13.5t-30 -39t-13.5 -61.5t-3 -81v-45q0 -45 3 -81.5t13.5 -61.5t30 -38.5t52.5 -13.5q46 0 68 30t22 93v5h85v-6q0 -48 -13 -83
t-36.5 -58t-55.5 -34t-70 -11zM190 725h81v-108h-81v108z" />
    <glyph glyph-name="dcaron" unicode="&#x10f;" horiz-adv-x="560" 
d="M335 725h90v-725h-90v85q-14 -42 -49.5 -70t-86.5 -28q-161 0 -161 242v79q0 242 161 242q51 0 86.5 -28t49.5 -70v273zM338 268q0 104 -29 160t-84 56q-28 0 -46 -13t-28.5 -38t-15 -63t-4.5 -87v-29q0 -50 4.5 -87.5t15 -62.5t28.5 -38t46 -13q55 0 84 56t29 159z
M495 725h86l-58 -170h-57z" />
    <glyph glyph-name="dcroat" unicode="&#x111;" horiz-adv-x="485" 
d="M230 639h105v86h90v-86h74v-55h-74v-584h-90v85q-14 -42 -49.5 -70t-86.5 -28q-161 0 -161 242v79q0 242 161 242q51 0 86.5 -28t49.5 -70v132h-105v55zM338 268q0 104 -29 160t-84 56q-28 0 -46 -13t-28.5 -38t-15 -63t-4.5 -87v-29q0 -50 4.5 -87.5t15 -62.5t28.5 -38
t46 -13q55 0 84 56t29 159z" />
    <glyph glyph-name="ebreve" unicode="&#x115;" horiz-adv-x="459" 
d="M234 -13q-101 0 -148.5 59.5t-47.5 182.5v79q0 124 47 183t148 59q102 0 147 -59.5t45 -189.5v-41h-294v-14q0 -45 4 -81.5t15.5 -61.5t31.5 -38.5t52 -13.5q46 0 72 28.5t26 88.5v5h85v-5q0 -91 -48 -136t-135 -45zM131 318h201v7q0 39 -4 69t-14.5 51t-30 31.5
t-49.5 10.5q-32 0 -52 -11.5t-31 -32.5t-15.5 -51.5t-4.5 -67.5v-6zM232 605q-68 0 -97.5 33.5t-33.5 86.5h64q6 -68 67 -68q62 0 68 68h64q-3 -26 -10.5 -48t-23 -38t-39.5 -25t-59 -9z" />
    <glyph glyph-name="ecaron" unicode="&#x11b;" horiz-adv-x="459" 
d="M83 725h78l73 -69l74 69h76l-111 -119h-78zM234 -13q-101 0 -148.5 59.5t-47.5 182.5v79q0 124 47 183t148 59q102 0 147 -59.5t45 -189.5v-41h-294v-14q0 -45 4 -81.5t15.5 -61.5t31.5 -38.5t52 -13.5q46 0 72 28.5t26 88.5v5h85v-5q0 -91 -48 -136t-135 -45zM131 318
h201v7q0 39 -4 69t-14.5 51t-30 31.5t-49.5 10.5q-32 0 -52 -11.5t-31 -32.5t-15.5 -51.5t-4.5 -67.5v-6z" />
    <glyph glyph-name="emacron" unicode="&#x113;" horiz-adv-x="459" 
d="M234 -13q-101 0 -148.5 59.5t-47.5 182.5v79q0 124 47 183t148 59q102 0 147 -59.5t45 -189.5v-41h-294v-14q0 -45 4 -81.5t15.5 -61.5t31.5 -38.5t52 -13.5q46 0 72 28.5t26 88.5v5h85v-5q0 -91 -48 -136t-135 -45zM131 318h201v7q0 39 -4 69t-14.5 51t-30 31.5
t-49.5 10.5q-32 0 -52 -11.5t-31 -32.5t-15.5 -51.5t-4.5 -67.5v-6zM118 697h232v-63h-232v63z" />
    <glyph glyph-name="eogonek" unicode="&#x119;" horiz-adv-x="459" 
d="M234 -13q-101 0 -148.5 59.5t-47.5 182.5v79q0 124 47 183t148 59q102 0 147 -59.5t45 -189.5v-41h-294v-14q0 -45 4 -81.5t15.5 -61.5t31.5 -38.5t52 -13.5q46 0 72 28.5t26 88.5v5h85v-5q0 -88 -46 -134q-11 -10 -23 -19q-42 -33 -60 -57q-19 -26 -19 -51q0 -20 14 -30
t37 -10q13 0 22 2.5t18 5.5v-55q-32 -8 -61 -8q-21 0 -41.5 5t-36 15t-25 25.5t-9.5 36.5q0 19 14 47t41 46h-8zM131 318h201v7q0 39 -4 69t-14.5 51t-30 31.5t-49.5 10.5q-32 0 -52 -11.5t-31 -32.5t-15.5 -51.5t-4.5 -67.5v-6z" />
    <glyph glyph-name="edotaccent" unicode="&#x117;" horiz-adv-x="459" 
d="M234 -13q-101 0 -148.5 59.5t-47.5 182.5v79q0 124 47 183t148 59q102 0 147 -59.5t45 -189.5v-41h-294v-14q0 -45 4 -81.5t15.5 -61.5t31.5 -38.5t52 -13.5q46 0 72 28.5t26 88.5v5h85v-5q0 -91 -48 -136t-135 -45zM131 318h201v7q0 39 -4 69t-14.5 51t-30 31.5
t-49.5 10.5q-32 0 -52 -11.5t-31 -32.5t-15.5 -51.5t-4.5 -67.5v-6zM193 725h81v-108h-81v108z" />
    <glyph glyph-name="gbreve" unicode="&#x11f;" horiz-adv-x="487" 
d="M235 -188q-92 0 -135.5 43t-43.5 115v4h87v-4q0 -43 21.5 -68.5t71.5 -25.5q55 0 78 29.5t23 105.5v101q-14 -42 -46.5 -70.5t-83.5 -28.5q-80 0 -124.5 61t-44.5 179v64q0 121 44.5 177t124.5 56q51 0 83.5 -28.5t46.5 -70.5v87h90v-510q0 -106 -43.5 -161t-148.5 -55z
M227 79q58 0 86 52.5t28 146.5q0 100 -28 153t-86 53q-56 0 -76 -47t-20 -142v-15q0 -95 20 -148t76 -53zM235 605q-68 0 -97.5 33.5t-33.5 86.5h64q6 -68 67 -68q62 0 68 68h64q-3 -26 -10.5 -48t-23 -38t-39.5 -25t-59 -9z" />
    <glyph glyph-name="gcircumflex" unicode="&#x11d;" horiz-adv-x="487" 
d="M197 725h79l111 -119h-76l-74 69l-73 -69h-78zM235 -188q-92 0 -135.5 43t-43.5 115v4h87v-4q0 -43 21.5 -68.5t71.5 -25.5q55 0 78 29.5t23 105.5v101q-14 -42 -46.5 -70.5t-83.5 -28.5q-80 0 -124.5 61t-44.5 179v64q0 121 44.5 177t124.5 56q51 0 83.5 -28.5
t46.5 -70.5v87h90v-510q0 -106 -43.5 -161t-148.5 -55zM227 79q58 0 86 52.5t28 146.5q0 100 -28 153t-86 53q-56 0 -76 -47t-20 -142v-15q0 -95 20 -148t76 -53z" />
    <glyph glyph-name="uni0123" unicode="&#x123;" horiz-adv-x="487" 
d="M240 704h35v-83h-90v89l41 83h50zM235 -188q-92 0 -135.5 43t-43.5 115v4h87v-4q0 -43 21.5 -68.5t71.5 -25.5q55 0 78 29.5t23 105.5v101q-14 -42 -46.5 -70.5t-83.5 -28.5q-80 0 -124.5 61t-44.5 179v64q0 121 44.5 177t124.5 56q51 0 83.5 -28.5t46.5 -70.5v87h90
v-510q0 -106 -43.5 -161t-148.5 -55zM227 79q58 0 86 52.5t28 146.5q0 100 -28 153t-86 53q-56 0 -76 -47t-20 -142v-15q0 -95 20 -148t76 -53z" />
    <glyph glyph-name="gdotaccent" unicode="&#x121;" horiz-adv-x="487" 
d="M235 -188q-92 0 -135.5 43t-43.5 115v4h87v-4q0 -43 21.5 -68.5t71.5 -25.5q55 0 78 29.5t23 105.5v101q-14 -42 -46.5 -70.5t-83.5 -28.5q-80 0 -124.5 61t-44.5 179v64q0 121 44.5 177t124.5 56q51 0 83.5 -28.5t46.5 -70.5v87h90v-510q0 -106 -43.5 -161t-148.5 -55z
M227 79q58 0 86 52.5t28 146.5q0 100 -28 153t-86 53q-56 0 -76 -47t-20 -142v-15q0 -95 20 -148t76 -53zM195 725h81v-108h-81v108z" />
    <glyph glyph-name="hbar" unicode="&#x127;" horiz-adv-x="472" 
d="M-6 639h66v86h90v-86h127v-55h-127v-133q15 43 50 71t87 28q74 0 103.5 -46t29.5 -144v-360h-90v330q0 36 -2.5 64.5t-11 48t-23 30t-38.5 10.5q-53 0 -79 -51.5t-26 -137.5v-294h-90v584h-66v55z" />
    <glyph glyph-name="hcircumflex" unicode="&#x125;" horiz-adv-x="472" 
d="M60 725h90v-274q15 43 50 71t87 28q74 0 103.5 -46t29.5 -144v-360h-90v330q0 36 -2.5 64.5t-11 48t-23 30t-38.5 10.5q-53 0 -79 -51.5t-26 -137.5v-294h-90v725zM61 886h89l111 -113h-82l-74 67l-75 -67h-81z" />
    <glyph glyph-name="dotlessi" unicode="&#x131;" horiz-adv-x="210" 
d="M60 538h90v-538h-90v538z" />
    <glyph glyph-name="ibreve" unicode="&#x12d;" horiz-adv-x="210" 
d="M105 608q-62 0 -86.5 30.5t-24.5 86.5h67q0 -33 10 -49.5t34 -16.5q44 0 44 66h66q0 -56 -23.5 -86.5t-86.5 -30.5zM60 538h90v-538h-90v538z" />
    <glyph glyph-name="imacron" unicode="&#x12b;" horiz-adv-x="210" 
d="M2 697h204v-64h-204v64zM60 538h90v-538h-90v538z" />
    <glyph glyph-name="iogonek" unicode="&#x12f;" horiz-adv-x="210" 
d="M60 538h90v-538h-1q-38 -19 -64.5 -43.5t-26.5 -49.5q0 -20 14 -30t37 -10q13 0 22 2.5t18 5.5v-55q-32 -8 -61 -8q-21 0 -41.5 5t-36 15t-25 25.5t-9.5 36.5q0 15 7 31t18.5 30.5t26.5 26t31 18.5h1v538zM60 725h90v-110h-90v110z" />
    <glyph glyph-name="itilde" unicode="&#x129;" horiz-adv-x="210" 
d="M-27 612q4 64 27 88.5t55 24.5q19 0 33 -7.5t25.5 -17t22 -17t22.5 -7.5q8 0 13.5 11.5t6.5 37.5h60q-4 -65 -24 -89t-50 -24q-18 0 -32 7.5t-25.5 17t-22.5 17t-23 7.5q-11 0 -19 -11.5t-9 -37.5h-60zM60 538h90v-538h-90v538z" />
    <glyph glyph-name="uni1ECB" unicode="&#x1ecb;" horiz-adv-x="210" 
d="M64 -76h81v-99h-81v99zM60 538h90v-538h-90v538zM60 725h90v-110h-90v110z" />
    <glyph glyph-name="uni0237" unicode="&#x237;" horiz-adv-x="210" 
d="M-22 -115h22q21 0 33 3.5t18 13.5t7.5 26t1.5 42v568h90v-568q0 -43 -7 -71t-23.5 -44.5t-43 -23t-66.5 -6.5h-32v60z" />
    <glyph glyph-name="jcircumflex" unicode="&#x135;" horiz-adv-x="210" 
d="M65 725h79l90 -119h-72l-57 69l-56 -69h-73zM-22 -115h22q21 0 33 3.5t18 13.5t7.5 26t1.5 42v568h90v-568q0 -43 -7 -71t-23.5 -44.5t-43 -23t-66.5 -6.5h-32v60z" />
    <glyph glyph-name="uni0137" unicode="&#x137;" horiz-adv-x="438" 
d="M226 -133h-35v83h90v-89l-41 -83h-50zM210 244l-60 -83v-161h-90v725h90v-446l181 259h91l-155 -215l162 -323h-98z" />
    <glyph glyph-name="lacute" unicode="&#x13a;" horiz-adv-x="210" 
d="M60 725h90v-725h-90v725zM140 886h118l-120 -113h-67z" />
    <glyph glyph-name="lcaron" unicode="&#x13e;" horiz-adv-x="306" 
d="M60 725h90v-725h-90v725zM220 725h86l-58 -170h-57z" />
    <glyph glyph-name="uni013C" unicode="&#x13c;" horiz-adv-x="210" 
d="M95 -133h-35v83h90v-89l-41 -83h-50zM60 725h90v-725h-90v725z" />
    <glyph glyph-name="ldot" unicode="&#x140;" horiz-adv-x="291" 
d="M210 426h81v-108h-81v108zM60 725h90v-725h-90v725z" />
    <glyph glyph-name="lslash" unicode="&#x142;" horiz-adv-x="260" 
d="M10 351l75 48v326h90v-267l75 49v-79l-75 -49v-379h-90v320l-75 -48v79z" />
    <glyph glyph-name="eng" unicode="&#x14b;" horiz-adv-x="471" 
d="M244 -114h16q24 0 38 4t21 14t9 27t2 43v356q0 36 -2.5 64.5t-11 48t-23 30t-38.5 10.5q-53 0 -79 -50.5t-26 -138.5v-294h-90v538h90v-87q15 43 50 71t87 28q74 0 103 -46t29 -144v-386q0 -44 -7 -73t-24 -46t-44.5 -23.5t-68.5 -6.5h-31v61z" />
    <glyph glyph-name="nacute" unicode="&#x144;" horiz-adv-x="471" 
d="M267 725h107l-112 -119h-61zM60 538h90v-87q15 43 50 71t87 28q74 0 103 -46t29 -144v-360h-90v330q0 36 -2.5 64.5t-10.5 48t-22.5 30t-38.5 10.5q-53 0 -79 -51.5t-26 -137.5v-294h-90v538z" />
    <glyph glyph-name="ncaron" unicode="&#x148;" horiz-adv-x="471" 
d="M90 725h78l73 -69l74 69h76l-111 -119h-78zM60 538h90v-87q15 43 50 71t87 28q74 0 103 -46t29 -144v-360h-90v330q0 36 -2.5 64.5t-10.5 48t-22.5 30t-38.5 10.5q-53 0 -79 -51.5t-26 -137.5v-294h-90v538z" />
    <glyph glyph-name="uni0146" unicode="&#x146;" horiz-adv-x="471" 
d="M229 -133h-35v83h90v-89l-41 -83h-50zM60 538h90v-87q15 43 50 71t87 28q74 0 103 -46t29 -144v-360h-90v330q0 36 -2.5 64.5t-10.5 48t-22.5 30t-38.5 10.5q-53 0 -79 -51.5t-26 -137.5v-294h-90v538z" />
    <glyph glyph-name="oe" unicode="&#x153;" horiz-adv-x="751" 
d="M526 -13q-105 0 -149 65q-44 -65 -146 -65q-100 0 -146.5 59t-46.5 184v77q0 125 46.5 184t146.5 59q102 0 146 -65q44 65 148 65q102 0 147 -59.5t45 -189.5v-41h-294v-14q0 -45 4 -81.5t15.5 -61.5t31.5 -38.5t52 -13.5q46 0 72 28.5t26 88.5v5h85v-5q0 -91 -48 -136
t-135 -45zM231 51q32 0 51.5 13.5t30 39.5t14 63t3.5 84v35q0 47 -3.5 84t-14 63t-30 40t-51.5 14t-51.5 -14t-30.5 -40t-14.5 -63t-3.5 -84v-35q0 -47 3.5 -84t14.5 -63t30.5 -39.5t51.5 -13.5zM423 318h201v7q0 39 -4 69t-14.5 51t-30 31.5t-49.5 10.5q-32 0 -52 -11.5
t-31 -32.5t-15.5 -51.5t-4.5 -67.5v-6z" />
    <glyph glyph-name="obreve" unicode="&#x14f;" horiz-adv-x="461" 
d="M231 51q32 0 51.5 13.5t30 39.5t14 63t3.5 84v35q0 47 -3.5 84t-14 63t-30 40t-51.5 14t-51.5 -14t-30.5 -40t-14.5 -63t-3.5 -84v-35q0 -47 3.5 -84t14.5 -63t30.5 -39.5t51.5 -13.5zM231 -13q-100 0 -146.5 59t-46.5 184v77q0 125 46.5 184t146.5 59q99 0 145.5 -59
t46.5 -184v-77q0 -125 -46.5 -184t-145.5 -59zM230 605q-68 0 -97.5 33.5t-33.5 86.5h64q6 -68 67 -68q62 0 68 68h64q-3 -26 -10.5 -48t-23 -38t-39.5 -25t-59 -9z" />
    <glyph glyph-name="ohungarumlaut" unicode="&#x151;" horiz-adv-x="461" 
d="M183 725h107l-112 -119h-61zM341 725h107l-112 -119h-61zM231 51q32 0 51.5 13.5t30 39.5t14 63t3.5 84v35q0 47 -3.5 84t-14 63t-30 40t-51.5 14t-51.5 -14t-30.5 -40t-14.5 -63t-3.5 -84v-35q0 -47 3.5 -84t14.5 -63t30.5 -39.5t51.5 -13.5zM231 -13q-100 0 -146.5 59
t-46.5 184v77q0 125 46.5 184t146.5 59q99 0 145.5 -59t46.5 -184v-77q0 -125 -46.5 -184t-145.5 -59z" />
    <glyph glyph-name="omacron" unicode="&#x14d;" horiz-adv-x="461" 
d="M231 51q32 0 51.5 13.5t30 39.5t14 63t3.5 84v35q0 47 -3.5 84t-14 63t-30 40t-51.5 14t-51.5 -14t-30.5 -40t-14.5 -63t-3.5 -84v-35q0 -47 3.5 -84t14.5 -63t30.5 -39.5t51.5 -13.5zM231 -13q-100 0 -146.5 59t-46.5 184v77q0 125 46.5 184t146.5 59q99 0 145.5 -59
t46.5 -184v-77q0 -125 -46.5 -184t-145.5 -59zM114 697h232v-63h-232v63z" />
    <glyph glyph-name="uni1ECD" unicode="&#x1ecd;" horiz-adv-x="461" 
d="M195 -76h81v-99h-81v99zM231 51q32 0 51.5 13.5t30 39.5t14 63t3.5 84v35q0 47 -3.5 84t-14 63t-30 40t-51.5 14t-51.5 -14t-30.5 -40t-14.5 -63t-3.5 -84v-35q0 -47 3.5 -84t14.5 -63t30.5 -39.5t51.5 -13.5zM231 -13q-100 0 -146.5 59t-46.5 184v77q0 125 46.5 184
t146.5 59q99 0 145.5 -59t46.5 -184v-77q0 -125 -46.5 -184t-145.5 -59z" />
    <glyph glyph-name="racute" unicode="&#x155;" horiz-adv-x="289" 
d="M204 725h107l-112 -119h-61zM60 538h90v-113q6 22 15.5 42.5t24.5 36.5t35.5 25t47.5 9h20v-89h-32q-29 0 -50 -8t-34.5 -27t-20 -50t-6.5 -77v-287h-90v538z" />
    <glyph glyph-name="rcaron" unicode="&#x159;" horiz-adv-x="289" 
d="M25 725h78l73 -69l74 69h76l-111 -119h-78zM60 538h90v-113q6 22 15.5 42.5t24.5 36.5t35.5 25t47.5 9h20v-89h-32q-29 0 -50 -8t-34.5 -27t-20 -50t-6.5 -77v-287h-90v538z" />
    <glyph glyph-name="uni0157" unicode="&#x157;" horiz-adv-x="289" 
d="M95 -133h-35v83h90v-89l-41 -83h-50zM60 538h90v-113q6 22 15.5 42.5t24.5 36.5t35.5 25t47.5 9h20v-89h-32q-29 0 -50 -8t-34.5 -27t-20 -50t-6.5 -77v-287h-90v538z" />
    <glyph glyph-name="sacute" unicode="&#x15b;" horiz-adv-x="428" 
d="M253 725h107l-112 -119h-61zM217 -13q-84 0 -135 42t-51 136v6h85v-6q0 -57 26.5 -85.5t73.5 -28.5q40 0 68 19t28 61q0 32 -15 54.5t-58 38.5l-79 29q-51 19 -84 54.5t-33 97.5q0 36 12.5 63.5t35 45.5t53 27t66.5 9q34 0 65 -9t55 -28.5t38 -50t14 -72.5v-5h-85v5
q0 53 -27.5 75t-63.5 22q-32 0 -57.5 -17.5t-25.5 -55.5q0 -53 65 -78l79 -30q62 -23 94 -61t32 -105q0 -39 -14 -67.5t-38 -47.5t-56 -28.5t-68 -9.5z" />
    <glyph glyph-name="scaron" unicode="&#x161;" horiz-adv-x="428" 
d="M61 725h78l73 -69l74 69h76l-111 -119h-78zM217 -13q-84 0 -135 42t-51 136v6h85v-6q0 -57 26.5 -85.5t73.5 -28.5q40 0 68 19t28 61q0 32 -15 54.5t-58 38.5l-79 29q-51 19 -84 54.5t-33 97.5q0 36 12.5 63.5t35 45.5t53 27t66.5 9q34 0 65 -9t55 -28.5t38 -50t14 -72.5
v-5h-85v5q0 53 -27.5 75t-63.5 22q-32 0 -57.5 -17.5t-25.5 -55.5q0 -53 65 -78l79 -30q62 -23 94 -61t32 -105q0 -39 -14 -67.5t-38 -47.5t-56 -28.5t-68 -9.5z" />
    <glyph glyph-name="scedilla" unicode="&#x15f;" horiz-adv-x="428" 
d="M217 -13q-84 0 -135 42t-51 136v6h85v-6q0 -57 26.5 -85.5t73.5 -28.5q40 0 68 19t28 61q0 32 -15 54.5t-58 38.5l-79 29q-51 19 -84 54.5t-33 97.5q0 36 12.5 63.5t35 45.5t53 27t66.5 9q34 0 65 -9t55 -28.5t38 -50t14 -72.5v-5h-85v5q0 53 -27.5 75t-63.5 22
q-32 0 -57.5 -17.5t-25.5 -55.5q0 -53 65 -78l79 -30q62 -23 94 -61t32 -105q0 -39 -14 -67.5t-38 -47.5t-56 -28.5t-68 -9.5zM201 -194q-43 0 -81 13l13 39q11 -5 27 -9t31 -4q22 0 40 8.5t18 28.5q0 17 -13 25.5t-32 8.5q-11 0 -22 -2.5t-20 -7.5l-20 17l48 78h43l-33 -54
q8 2 15.5 3t16.5 1q32 0 55 -17.5t23 -49.5q0 -21 -9.5 -35.5t-24.5 -24t-34.5 -14t-40.5 -4.5z" />
    <glyph glyph-name="scircumflex" unicode="&#x15d;" horiz-adv-x="428" 
d="M173 725h79l111 -119h-76l-74 69l-73 -69h-78zM217 -13q-84 0 -135 42t-51 136v6h85v-6q0 -57 26.5 -85.5t73.5 -28.5q40 0 68 19t28 61q0 32 -15 54.5t-58 38.5l-79 29q-51 19 -84 54.5t-33 97.5q0 36 12.5 63.5t35 45.5t53 27t66.5 9q34 0 65 -9t55 -28.5t38 -50
t14 -72.5v-5h-85v5q0 53 -27.5 75t-63.5 22q-32 0 -57.5 -17.5t-25.5 -55.5q0 -53 65 -78l79 -30q62 -23 94 -61t32 -105q0 -39 -14 -67.5t-38 -47.5t-56 -28.5t-68 -9.5z" />
    <glyph glyph-name="uni0219" unicode="&#x219;" horiz-adv-x="428" 
d="M198 -133h-35v83h90v-89l-41 -83h-50zM217 -13q-84 0 -135 42t-51 136v6h85v-6q0 -57 26.5 -85.5t73.5 -28.5q40 0 68 19t28 61q0 32 -15 54.5t-58 38.5l-79 29q-51 19 -84 54.5t-33 97.5q0 36 12.5 63.5t35 45.5t53 27t66.5 9q34 0 65 -9t55 -28.5t38 -50t14 -72.5v-5
h-85v5q0 53 -27.5 75t-63.5 22q-32 0 -57.5 -17.5t-25.5 -55.5q0 -53 65 -78l79 -30q62 -23 94 -61t32 -105q0 -39 -14 -67.5t-38 -47.5t-56 -28.5t-68 -9.5z" />
    <glyph glyph-name="tbar" unicode="&#x167;" horiz-adv-x="267" 
d="M0 369h71v108h-70v61h70v136h90v-136h93v-61h-93v-108h92v-64h-92v-164q0 -26 2.5 -41.5t9.5 -24t19.5 -11.5t32.5 -3h29v-61h-65q-36 0 -58.5 6.5t-36 22t-18.5 40.5t-5 61v175h-71v64z" />
    <glyph glyph-name="tcaron" unicode="&#x165;" horiz-adv-x="351" 
d="M189 0q-36 0 -58.5 6.5t-36 22t-18.5 40.5t-5 61v347h-70v61h70v136h90v-136h93v-61h-93v-336q0 -26 2.5 -41.5t9.5 -24t19.5 -11.5t32.5 -3h29v-61h-65zM287 725h86l-58 -170h-57z" />
    <glyph glyph-name="uni0163" unicode="&#x163;" horiz-adv-x="267" 
d="M124 -133h-35v83h90v-89l-41 -83h-50zM189 0q-36 0 -58.5 6.5t-36 22t-18.5 40.5t-5 61v347h-70v61h70v136h90v-136h93v-61h-93v-336q0 -26 2.5 -41.5t9.5 -24t19.5 -11.5t32.5 -3h29v-61h-65z" />
    <glyph glyph-name="uni021B" unicode="&#x21b;" horiz-adv-x="267" 
d="M124 -133h-35v83h90v-89l-41 -83h-50zM189 0q-36 0 -58.5 6.5t-36 22t-18.5 40.5t-5 61v347h-70v61h70v136h90v-136h93v-61h-93v-336q0 -26 2.5 -41.5t9.5 -24t19.5 -11.5t32.5 -3h29v-61h-65z" />
    <glyph glyph-name="ubreve" unicode="&#x16d;" horiz-adv-x="471" 
d="M411 0h-90v87q-15 -43 -50 -71t-87 -28q-74 0 -103 46t-29 144v360h90v-330q0 -36 2.5 -64.5t10.5 -48t22.5 -30t38.5 -10.5q53 0 79 51.5t26 137.5v294h90v-538zM226 605q-68 0 -97.5 33.5t-33.5 86.5h64q6 -68 67 -68q62 0 68 68h64q-3 -26 -10.5 -48t-23 -38
t-39.5 -25t-59 -9z" />
    <glyph glyph-name="uhungarumlaut" unicode="&#x171;" horiz-adv-x="471" 
d="M411 0h-90v87q-15 -43 -50 -71t-87 -28q-74 0 -103 46t-29 144v360h90v-330q0 -36 2.5 -64.5t10.5 -48t22.5 -30t38.5 -10.5q53 0 79 51.5t26 137.5v294h90v-538zM185 725h107l-112 -119h-61zM343 725h107l-112 -119h-61z" />
    <glyph glyph-name="umacron" unicode="&#x16b;" horiz-adv-x="471" 
d="M411 0h-90v87q-15 -43 -50 -71t-87 -28q-74 0 -103 46t-29 144v360h90v-330q0 -36 2.5 -64.5t10.5 -48t22.5 -30t38.5 -10.5q53 0 79 51.5t26 137.5v294h90v-538zM118 697h232v-63h-232v63z" />
    <glyph glyph-name="uogonek" unicode="&#x173;" horiz-adv-x="471" 
d="M411 0h-90v87q-15 -43 -50 -71t-87 -28q-74 0 -103 46t-29 144v360h90v-330q0 -36 2.5 -64.5t10.5 -48t22.5 -30t38.5 -10.5q53 0 79 51.5t26 137.5v294h90v-538zM350 -188q-21 0 -41.5 5t-36 15t-25 25.5t-9.5 36.5q0 15 7 31t18.5 30.5t26.5 26t31 18.5h90
q-38 -19 -64.5 -43.5t-26.5 -49.5q0 -20 14 -30t37 -10q13 0 22 2.5t18 5.5v-55q-32 -8 -61 -8z" />
    <glyph glyph-name="uring" unicode="&#x16f;" horiz-adv-x="471" 
d="M229 629q20 0 34.5 13.5t14.5 35.5t-14.5 35t-34.5 13q-19 0 -34 -13t-15 -35t15 -35.5t34 -13.5zM229 593q-38 0 -64 23.5t-26 61.5q0 37 26.5 61t63.5 24q38 0 64 -24t26 -61q0 -38 -26 -61.5t-64 -23.5zM411 0h-90v87q-15 -43 -50 -71t-87 -28q-74 0 -103 46t-29 144
v360h90v-330q0 -36 2.5 -64.5t10.5 -48t22.5 -30t38.5 -10.5q53 0 79 51.5t26 137.5v294h90v-538z" />
    <glyph glyph-name="utilde" unicode="&#x169;" horiz-adv-x="471" 
d="M411 0h-90v87q-15 -43 -50 -71t-87 -28q-74 0 -103 46t-29 144v360h90v-330q0 -36 2.5 -64.5t10.5 -48t22.5 -30t38.5 -10.5q53 0 79 51.5t26 137.5v294h90v-538zM83 612q4 64 29.5 88.5t58.5 24.5q19 0 36.5 -7.5t34 -17t30.5 -17t26 -7.5q13 0 21 11.5t9 37.5h60
q-2 -33 -10 -54.5t-20 -34.5t-27 -18.5t-30 -5.5q-18 0 -35 7.5t-32.5 17t-29.5 17t-26 7.5q-14 0 -24 -11.5t-11 -37.5h-60z" />
    <glyph glyph-name="uni1EE5" unicode="&#x1ee5;" horiz-adv-x="471" 
d="M186 -76h81v-99h-81v99zM411 0h-90v87q-15 -43 -50 -71t-87 -28q-74 0 -103 46t-29 144v360h90v-330q0 -36 2.5 -64.5t10.5 -48t22.5 -30t38.5 -10.5q53 0 79 51.5t26 137.5v294h90v-538z" />
    <glyph glyph-name="wacute" unicode="&#x1e83;" horiz-adv-x="574" 
d="M328 725h107l-112 -119h-61zM20 538h79l64 -431l81 431h85l82 -431l64 431h79l-89 -538h-96l-82 447l-82 -447h-97z" />
    <glyph glyph-name="wcircumflex" unicode="&#x175;" horiz-adv-x="574" 
d="M246 725h79l111 -119h-76l-74 69l-73 -69h-78zM20 538h79l64 -431l81 431h85l82 -431l64 431h79l-89 -538h-96l-82 447l-82 -447h-97z" />
    <glyph glyph-name="wdieresis" unicode="&#x1e85;" horiz-adv-x="574" 
d="M148 725h81v-108h-81v108zM347 725h81v-108h-81v108zM20 538h79l64 -431l81 431h85l82 -431l64 431h79l-89 -538h-96l-82 447l-82 -447h-97z" />
    <glyph glyph-name="wgrave" unicode="&#x1e81;" horiz-adv-x="574" 
d="M20 538h79l64 -431l81 431h85l82 -431l64 431h79l-89 -538h-96l-82 447l-82 -447h-97zM141 725h109l64 -119h-61z" />
    <glyph glyph-name="ycircumflex" unicode="&#x177;" horiz-adv-x="403" 
d="M46 -114h29q19 0 31.5 2.5t21.5 10t15.5 22t12.5 39.5l10 39l-158 539h89l112 -419l103 419h83l-144 -544q-14 -54 -27 -87t-30 -51.5t-42 -24.5t-64 -6h-42v61zM159 725h79l111 -119h-76l-74 69l-73 -69h-78z" />
    <glyph glyph-name="ygrave" unicode="&#x1ef3;" horiz-adv-x="403" 
d="M46 -114h29q19 0 31.5 2.5t21.5 10t15.5 22t12.5 39.5l10 39l-158 539h89l112 -419l103 419h83l-144 -544q-14 -54 -27 -87t-30 -51.5t-42 -24.5t-64 -6h-42v61zM73 725h109l64 -119h-61z" />
    <glyph glyph-name="uni0233" unicode="&#x233;" horiz-adv-x="403" 
d="M46 -114h29q19 0 31.5 2.5t21.5 10t15.5 22t12.5 39.5l10 39l-158 539h89l112 -419l103 419h83l-144 -544q-14 -54 -27 -87t-30 -51.5t-42 -24.5t-64 -6h-42v61zM83 697h232v-63h-232v63z" />
    <glyph glyph-name="zacute" unicode="&#x17a;" horiz-adv-x="380" 
d="M228 725h107l-112 -119h-61zM17 60l244 417h-220v61h315v-60l-243 -417h249v-61h-345v60z" />
    <glyph glyph-name="zcaron" unicode="&#x17e;" horiz-adv-x="380" 
d="M58 725h78l73 -69l74 69h76l-111 -119h-78zM17 60l244 417h-220v61h315v-60l-243 -417h249v-61h-345v60z" />
    <glyph glyph-name="zdotaccent" unicode="&#x17c;" horiz-adv-x="380" 
d="M17 60l244 417h-220v61h315v-60l-243 -417h249v-61h-345v60zM161 725h81v-108h-81v108z" />
    <glyph glyph-name="uni0259" unicode="&#x259;" horiz-adv-x="457" 
d="M226 -14q-102 0 -145.5 61t-43.5 188v38h291v16q0 46 -4 82t-15 61.5t-30.5 39t-51.5 13.5q-46 0 -70 -28.5t-24 -88.5v-4h-87v4q0 97 47.5 139t133.5 42q101 0 146.5 -61t45.5 -181v-79q0 -121 -46 -181.5t-147 -60.5zM225 48q31 0 51.5 11.5t31.5 33t15.5 51.5t4.5 68
v5h-201v-6q0 -39 4 -69.5t14.5 -51t30 -31.5t49.5 -11z" />
    <glyph glyph-name="ellipsis" unicode="&#x2026;" horiz-adv-x="684" 
d="M288 108h108v-108h-108v108zM516 108h108v-108h-108v108zM60 108h108v-108h-108v108z" />
    <glyph glyph-name="endash" unicode="&#x2013;" horiz-adv-x="496" 
d="M34 308h428v-77h-428v77z" />
    <glyph glyph-name="emdash" unicode="&#x2014;" horiz-adv-x="725" 
d="M34 308h657v-77h-657v77z" />
    <glyph glyph-name="guilsinglleft" unicode="&#x2039;" horiz-adv-x="172" 
d="M20 225v107l132 145v-107l-84 -92l84 -92v-106z" />
    <glyph glyph-name="guilsinglright" unicode="&#x203a;" horiz-adv-x="172" 
d="M20 186l83 92l-83 92v107l132 -145v-107l-132 -145v106z" />
    <glyph glyph-name="quoteleft" unicode="&#x2018;" horiz-adv-x="228" 
d="M123 596h45v-108h-108v115l57 122h55z" />
    <glyph glyph-name="quoteright" unicode="&#x2019;" horiz-adv-x="228" 
d="M105 617h-45v108h108v-115l-57 -122h-55z" />
    <glyph glyph-name="quotedblleft" unicode="&#x201c;" horiz-adv-x="396" 
d="M291 596h45v-108h-108v115l57 122h55zM123 596h45v-108h-108v115l57 122h55z" />
    <glyph glyph-name="quotedblright" unicode="&#x201d;" horiz-adv-x="396" 
d="M273 617h-45v108h108v-115l-57 -122h-55zM105 617h-45v108h108v-115l-57 -122h-55z" />
    <glyph glyph-name="quotesinglbase" unicode="&#x201a;" horiz-adv-x="228" 
d="M105 0h-45v108h108v-115l-57 -122h-55z" />
    <glyph glyph-name="quotedblbase" unicode="&#x201e;" horiz-adv-x="396" 
d="M273 0h-45v108h108v-115l-57 -122h-55zM105 0h-45v108h108v-115l-57 -122h-55z" />
    <glyph glyph-name="bullet" unicode="&#x2022;" horiz-adv-x="458" 
d="M225 96q-36 0 -68 14t-56 38.5t-38 58t-14 72.5q0 37 14 69t38 56t56 38t68 14q39 0 73 -14t58.5 -38t38.5 -56t14 -69q0 -39 -14 -72.5t-38.5 -58t-58.5 -38.5t-73 -14z" />
    <glyph glyph-name="dagger" unicode="&#x2020;" horiz-adv-x="461" 
d="M189 417h-164v76h164v232h83v-232h165v-76h-165v-417h-83v417z" />
    <glyph glyph-name="daggerdbl" unicode="&#x2021;" horiz-adv-x="461" 
d="M189 200h-164v74h164v168h-164v74h164v209h83v-209h165v-74h-165v-168h165v-74h-165v-200h-83v200z" />
    <glyph glyph-name="perthousand" unicode="&#x2030;" horiz-adv-x="1107" 
d="M951 35q21 0 33.5 10.5t18.5 30t7.5 48t1.5 65.5v29q0 37 -1.5 65.5t-7.5 48t-18.5 30t-33.5 10.5t-33 -10.5t-18.5 -30t-8 -48t-1.5 -65.5v-29q0 -37 1.5 -65.5t8 -48t18.5 -30t33 -10.5zM951 -8q-72 0 -99 45t-27 140v53q0 95 27 140t99 45t99 -45t27 -140v-53
q0 -95 -27 -140t-99 -45zM156 352q21 0 33.5 10.5t18.5 30t7.5 48t1.5 65.5v29q0 37 -1.5 65.5t-7.5 48t-18.5 30t-33.5 10.5t-33 -10.5t-18.5 -30t-8 -48t-1.5 -65.5v-29q0 -37 1.5 -65.5t8 -48t18.5 -30t33 -10.5zM156 309q-72 0 -99 45t-27 140v53q0 95 27 140t99 45
t99 -45t27 -140v-53q0 -95 -27 -140t-99 -45zM494 725h49l-243 -725h-48zM639 35q21 0 33.5 10.5t18.5 30t7.5 48t1.5 65.5v29q0 37 -1.5 65.5t-7.5 48t-18.5 30t-33.5 10.5t-33 -10.5t-18.5 -30t-8 -48t-1.5 -65.5v-29q0 -37 1.5 -65.5t8 -48t18.5 -30t33 -10.5zM639 -8
q-72 0 -99 45t-27 140v53q0 95 27 140t99 45t99 -45t27 -140v-53q0 -95 -27 -140t-99 -45z" />
    <glyph glyph-name="uni2117" unicode="&#x2117;" horiz-adv-x="834" 
d="M417 33q68 0 126.5 25.5t102 70t68.5 104.5t25 130t-25 130t-68.5 104.5t-102 70t-126.5 25.5t-126.5 -25.5t-101.5 -70t-68 -104.5t-25 -130t25 -130t68 -104.5t101.5 -70t126.5 -25.5zM417 -13q-77 0 -144.5 29t-118 79.5t-80 119t-29.5 148.5q0 79 29.5 148t80 119
t118 79t144.5 29t145 -29t118.5 -79t80 -119t29.5 -148q0 -80 -29.5 -148.5t-80 -119t-118.5 -79.5t-145 -29zM316 164v403h101q38 0 66 -5.5t46.5 -18t27.5 -35t9 -56.5q0 -32 -10.5 -53t-27.5 -33.5t-40 -18t-47 -6.5q-5 -1 -14 -1.5t-18 -0.5h-23v-175h-70zM386 385h31
q41 0 56.5 13t15.5 53t-15.5 52.5t-56.5 12.5h-31v-131z" />
    <glyph glyph-name="trademark" unicode="&#x2122;" horiz-adv-x="658" 
d="M292 725h96l72 -326l73 326h95v-402h-62v336h-1l-3 -26l-75 -310h-54l-75 310l-4 26h-1v-336h-61v402zM99 675h-91v50h250v-50h-92v-352h-67v352z" />
    <glyph glyph-name="lozenge" unicode="&#x25ca;" horiz-adv-x="527" 
d="M440 343l-170 280l-171 -280l171 -280zM6 343l264 422l258 -422l-258 -423z" />
    <glyph glyph-name="uni2113" unicode="&#x2113;" horiz-adv-x="429" 
d="M247 -13q-76 0 -106 39.5t-30 120.5v76l-77 -58l-34 51l111 85v236q0 97 35.5 147t109.5 50q63 0 97.5 -42.5t34.5 -115.5q0 -47 -14 -86t-38.5 -73t-59 -64.5t-75.5 -61.5l-7 -6v-138q0 -48 14 -70.5t52 -22.5q30 0 52 11.5t39 25.5l34 -50q-23 -22 -57 -38t-81 -16z
M194 364l10 8q53 41 80.5 90t27.5 113q0 48 -16.5 72t-43.5 24q-33 0 -45.5 -31.5t-12.5 -91.5v-184z" />
    <glyph glyph-name="uni2116" unicode="&#x2116;" horiz-adv-x="880" 
d="M700 419q37 0 47 31.5t10 87.5v25q0 28 -2 50t-8 37.5t-17 24t-30 8.5t-30.5 -8.5t-17.5 -24t-8 -37.5t-2 -50v-25q0 -28 2 -50t8 -37.5t17.5 -23.5t30.5 -8zM700 373q-125 0 -125 153v49q0 152 125 152q64 0 94 -38t30 -114v-49q0 -76 -30 -114.5t-94 -38.5zM575 338
h256v-74h-256v74zM75 725h113l239 -602v602h86v-725h-113l-239 603v-603h-86v725z" />
    <glyph glyph-name="glyph360" horiz-adv-x="458" 
d="M225 96q-36 0 -68 14t-56 38.5t-38 58t-14 72.5q0 37 14 69t38 56t56 38t68 14q39 0 73 -14t58.5 -38t38.5 -56t14 -69q0 -39 -14 -72.5t-38.5 -58t-58.5 -38.5t-73 -14z" />
    <glyph glyph-name="estimated" unicode="&#x212e;" horiz-adv-x="557" 
d="M425 302v163q-22 22 -59.5 37.5t-85.5 15.5q-47 0 -86 -13.5t-63 -38.5v-164h294zM286 -13q-66 0 -116.5 22.5t-84.5 61t-51.5 89.5t-17.5 109q0 60 19 112t53.5 89.5t83.5 59t109 21.5q63 0 111 -23t81 -62t50 -90t18 -106h-410v-195q23 -24 68 -39.5t95 -15.5
q71 0 120 34t73 93h40q-12 -33 -32.5 -62.5t-50.5 -51t-69.5 -34t-88.5 -12.5z" />
    <glyph glyph-name="minus" unicode="&#x2212;" 
d="M28 308h493v-79h-493v79z" />
    <glyph glyph-name="lessequal" unicode="&#x2264;" 
d="M509 465l-361 -139l361 -139v-77l-470 177v78l470 176v-76zM39 72h470v-72h-470v72z" />
    <glyph glyph-name="greaterequal" unicode="&#x2265;" 
d="M39 541l470 -176v-78l-470 -177v77l362 139l-362 139v76zM509 0h-470v72h470v-72z" />
    <glyph glyph-name="notequal" unicode="&#x2260;" 
d="M63 415h240l60 123h83l-60 -123h99v-72h-134l-72 -148h206v-72h-241l-60 -123h-83l60 123h-98v72h133l72 148h-205v72z" />
    <glyph glyph-name="approxequal" unicode="&#x2248;" 
d="M40 98q6 71 39.5 108.5t99.5 37.5q34 0 58.5 -11.5t44.5 -25t40 -24.5t45 -11q29 0 47 17t21 55h74q-5 -70 -38 -108t-100 -38q-31 0 -54 11t-43.5 24.5t-42 24.5t-48.5 11q-30 0 -47 -16.5t-22 -54.5h-74zM40 308q6 70 39.5 108.5t99.5 38.5q34 0 58.5 -11.5t44.5 -25
t40 -24.5t45 -11q29 0 47 17t21 55h74q-5 -72 -38 -109.5t-100 -37.5q-31 0 -54 11t-43.5 24.5t-42 25t-48.5 11.5q-30 0 -47 -17t-22 -55h-74z" />
    <glyph glyph-name="partialdiff" unicode="&#x2202;" horiz-adv-x="467" 
d="M232 -13q-101 0 -147.5 62.5t-46.5 177.5v53q0 234 185 234q42 0 70.5 -14.5t43.5 -34.5l2 2q-6 42 -20 77.5t-40 62t-66.5 42t-98.5 16.5v73q161 0 237.5 -102t76.5 -318v-48q0 -66 -10 -118.5t-32.5 -89t-60.5 -56t-93 -19.5zM232 53q32 0 53 12.5t33.5 36t17.5 57.5
t5 78v27q0 89 -23 137t-86 48q-32 0 -53 -12.5t-34 -36.5t-18 -58.5t-5 -77.5v-26q0 -44 5 -78t18 -58t34 -36.5t53 -12.5z" />
    <glyph glyph-name="product" unicode="&#x220f;" horiz-adv-x="542" 
d="M74 725h393v-900h-84v827h-224v-827h-85v900z" />
    <glyph glyph-name="radical" unicode="&#x221a;" horiz-adv-x="552" 
d="M111 161l-79 -38l-32 73l146 69l156 -335l166 795h84l-194 -900h-90z" />
    <glyph glyph-name="summation" unicode="&#x2211;" horiz-adv-x="472" 
d="M30 -103l227 377l-226 378v73h419v-74h-326l223 -377l-226 -375h329v-74h-420v72z" />
    <glyph glyph-name="integral" unicode="&#x222b;" horiz-adv-x="281" 
d="M50 -185q-34 0 -55.5 16.5t-21.5 45.5q0 19 12 32.5t32 13.5q14 0 26 -10.5t12 -31.5q0 -14 -6 -26q34 2 44 37.5t10 98.5q0 42 -2.5 88t-2.5 100v292q0 68 9.5 116t27 78t43 43.5t58.5 13.5t54 -16.5t21 -45.5q0 -20 -11.5 -33t-31.5 -13q-15 0 -27 10t-12 31q0 16 7 27
q-35 -2 -45.5 -38t-10.5 -98q0 -25 1 -46t2 -44.5t2 -51t1 -65.5v-273q0 -69 -9.5 -116.5t-27 -77.5t-42.5 -43.5t-57 -13.5z" />
    <glyph glyph-name="infinity" unicode="&#x221e;" horiz-adv-x="787" 
d="M586 93q-57 0 -103 28.5t-89 79.5q-45 -51 -90 -79t-104 -28q-38 0 -69.5 12t-54 33.5t-35 51t-12.5 64.5t12.5 64.5t35.5 51t55 33.5t71 12q53 0 98 -25t92 -79q45 53 89.5 78.5t100.5 25.5q39 0 71 -12t55 -33.5t35.5 -51t12.5 -64.5q0 -36 -12 -65.5t-34.5 -51
t-54 -33.5t-70.5 -12zM202 164q44 0 77 25t67 67q-35 44 -68 67t-74 23q-43 0 -70.5 -24.5t-27.5 -66.5q0 -40 27 -65.5t69 -25.5zM585 164q41 0 68.5 25t27.5 66q0 40 -28 65.5t-73 25.5q-40 0 -73 -23.5t-67 -66.5q36 -44 70 -68t75 -24z" />
    <glyph glyph-name="uni0394" unicode="&#x394;" horiz-adv-x="663" 
d="M535 74l-203 492l-203 -492h406zM332 742l319 -742h-639z" />
    <glyph glyph-name="uni0394" unicode="&#x2206;" horiz-adv-x="663" 
d="M535 74l-203 492l-203 -492h406zM332 742l319 -742h-639z" />
    <glyph glyph-name="uni03A9" unicode="&#x3a9;" horiz-adv-x="749" 
d="M87 79h169v72q-35 12 -68.5 35t-60 57.5t-43 80.5t-16.5 104q0 74 23 132t63.5 97.5t97 60t123.5 20.5t123 -20.5t96.5 -60t63.5 -97.5t23 -132q0 -58 -16.5 -104t-43 -80.5t-60.5 -57.5t-69 -35v-72h170v-79h-245v198q80 19 128.5 79.5t48.5 149.5q0 57 -15.5 101.5
t-44.5 75t-69.5 47t-89.5 16.5q-50 0 -90.5 -16.5t-69.5 -47t-45 -75t-16 -101.5q0 -44 13 -82t36.5 -67.5t56 -50t72.5 -29.5v-198h-245v79z" />
    <glyph glyph-name="uni03A9" unicode="&#x2126;" horiz-adv-x="749" 
d="M87 79h169v72q-35 12 -68.5 35t-60 57.5t-43 80.5t-16.5 104q0 74 23 132t63.5 97.5t97 60t123.5 20.5t123 -20.5t96.5 -60t63.5 -97.5t23 -132q0 -58 -16.5 -104t-43 -80.5t-60.5 -57.5t-69 -35v-72h170v-79h-245v198q80 19 128.5 79.5t48.5 149.5q0 57 -15.5 101.5
t-44.5 75t-69.5 47t-89.5 16.5q-50 0 -90.5 -16.5t-69.5 -47t-45 -75t-16 -101.5q0 -44 13 -82t36.5 -67.5t56 -50t72.5 -29.5v-198h-245v79z" />
    <glyph glyph-name="pi" unicode="&#x3c0;" horiz-adv-x="533" 
d="M96 464h-71v74h478v-74h-72v-316q0 -26 1 -41.5t7 -24t18 -11t33 -2.5h18v-69h-31q-36 0 -60 5t-38.5 19t-20 40.5t-5.5 70.5v329h-180v-464h-77v464z" />
    <glyph glyph-name="Euro" unicode="&#x20ac;" horiz-adv-x="590" 
d="M32 442h72q3 76 17 132t41.5 92.5t70 54t101.5 17.5q108 0 163.5 -61t55.5 -178v-5h-87v4q0 92 -34 132t-98 40q-38 0 -63.5 -15t-41 -44t-23.5 -71.5t-10 -97.5h229l-33 -50h-197v-63h162l-32 -50h-129q2 -54 10 -96t24 -70.5t41 -43t63 -14.5q64 0 98 40t34 132v4h87
v-5q0 -117 -55.5 -178t-163.5 -61q-118 0 -171.5 70.5t-58.5 221.5h-104l32 50h72v63h-104z" />
    <glyph glyph-name="uniFB01" unicode="&#xfb01;" horiz-adv-x="476" 
d="M326 538h90v-538h-90v538zM77 477h-71v61h71v58q0 39 7 64t23.5 39.5t42.5 20t64 5.5h49v-59h-32q-21 0 -33.5 -3t-19 -11t-9 -22t-2.5 -37v-55h96v-61h-96v-477h-90v477zM326 725h90v-110h-90v110z" />
    <glyph glyph-name="uniFB02" unicode="&#xfb02;" horiz-adv-x="476" 
d="M77 477h-71v61h71v58q0 39 7 64t23.5 39.5t42.5 20t64 5.5h49v-59h-32q-21 0 -33.5 -3t-19 -11t-9 -22t-2.5 -37v-55h96v-61h-96v-477h-90v477zM326 725h90v-725h-90v725z" />
    <glyph glyph-name="breve" unicode="&#x2d8;" horiz-adv-x="313" 
d="M156 605q-68 0 -97.5 33.5t-33.5 86.5h64q6 -68 67 -68q62 0 68 68h64q-3 -26 -10.5 -48t-23 -38t-39.5 -25t-59 -9z" />
    <glyph glyph-name="caron" unicode="&#x2c7;" horiz-adv-x="351" 
d="M25 725h78l73 -69l74 69h76l-111 -119h-78z" />
    <glyph glyph-name="circumflex" unicode="&#x2c6;" horiz-adv-x="351" 
d="M136 725h79l111 -119h-76l-74 69l-73 -69h-78z" />
    <glyph glyph-name="dotaccent" unicode="&#x2d9;" horiz-adv-x="131" 
d="M25 725h81v-108h-81v108z" />
    <glyph glyph-name="glyph383" horiz-adv-x="210" 
d="M60 725h90v-110h-90v110z" />
    <glyph glyph-name="glyph384" horiz-adv-x="131" 
d="M25 -76h81v-99h-81v99z" />
    <glyph glyph-name="hungarumlaut" unicode="&#x2dd;" horiz-adv-x="381" 
d="M91 725h107l-112 -119h-61zM249 725h107l-112 -119h-61z" />
    <glyph glyph-name="glyph386" horiz-adv-x="141" 
d="M61 -133h-35v83h90v-89l-41 -83h-50z" />
    <glyph glyph-name="ogonek" unicode="&#x2db;" horiz-adv-x="223" 
d="M137 -188q-21 0 -41.5 5t-36 15t-25 25.5t-9.5 36.5q0 15 7 31t18.5 30.5t26.5 26t31 18.5h90q-38 -19 -64.5 -43.5t-26.5 -49.5q0 -20 14 -30t37 -10q13 0 22 2.5t18 5.5v-55q-32 -8 -61 -8z" />
    <glyph glyph-name="ring" unicode="&#x2da;" horiz-adv-x="230" 
d="M115 629q20 0 34.5 13.5t14.5 35.5t-14.5 35t-34.5 13q-19 0 -34 -13t-15 -35t15 -35.5t34 -13.5zM115 593q-38 0 -64 23.5t-26 61.5q0 37 26.5 61t63.5 24q38 0 64 -24t26 -61q0 -38 -26 -61.5t-64 -23.5z" />
    <glyph glyph-name="tilde" unicode="&#x2dc;" horiz-adv-x="355" 
d="M25 612q4 64 29.5 88.5t58.5 24.5q19 0 36.5 -7.5t34 -17t30.5 -17t26 -7.5q13 0 21 11.5t9 37.5h60q-2 -33 -10 -54.5t-20 -34.5t-27 -18.5t-30 -5.5q-18 0 -35 7.5t-32.5 17t-29.5 17t-26 7.5q-14 0 -24 -11.5t-11 -37.5h-60z" />
    <glyph glyph-name="glyph390" horiz-adv-x="165" 
d="M54 725h86l-58 -170h-57z" />
    <glyph glyph-name="uni032C" unicode="&#x32c;" horiz-adv-x="400" 
d="M25 0h74l100 -81l101 81h75l-149 -138h-55z" />
    <glyph glyph-name="zero.zero" horiz-adv-x="552" 
d="M275 -13q-61 0 -102.5 19.5t-67 60.5t-36.5 103t-11 148v89q0 85 11 147.5t36.5 103.5t67 60.5t102.5 19.5t103 -19.5t67.5 -60.5t37 -103.5t11.5 -147.5v-89q0 -86 -11.5 -148t-37 -103t-67.5 -60.5t-103 -19.5zM275 52q42 0 67 19t38 56t17 90t4 122v54l-251 -128
q2 -51 8 -91t20 -67t37.5 -41t59.5 -14zM400 463q-2 51 -8.5 90t-20.5 66t-37 41t-59 14q-42 0 -67 -19.5t-38 -56t-17 -90t-4 -122.5v-52z" />
    <glyph glyph-name="one.oldstyle" horiz-adv-x="304" 
d="M134 509h-118v57q43 1 68 3t39 10t20 25t12 48h70v-652h-91v509z" />
    <glyph glyph-name="two.oldstyle" horiz-adv-x="459" 
d="M46 69l73 91q42 53 78 99.5t63 88.5t42 79.5t15 73.5q0 50 -22.5 74.5t-64.5 24.5q-48 0 -69.5 -33.5t-21.5 -99.5v-6h-87v6q0 95 45 146t138 51q80 0 128 -38.5t48 -119.5q0 -41 -15 -81.5t-42 -84.5t-63.5 -92t-78.5 -102l-59 -74h261v-72h-368v69z" />
    <glyph glyph-name="three.oldstyle" horiz-adv-x="480" 
d="M224 -13q-85 0 -133 44.5t-48 134.5v4h86v-4q0 -51 22 -84t74 -33q32 0 53 10.5t33 28t16.5 41t4.5 49.5q0 29 -6 52.5t-21 39.5t-40 24.5t-62 8.5h-36v66h33q59 0 85.5 29.5t26.5 88.5q0 55 -21 83.5t-70 28.5t-67 -28.5t-18 -85.5v-3h-87v3q0 91 47.5 134.5t128.5 43.5
q38 0 71 -8.5t58 -28t39 -52t14 -79.5q0 -63 -28.5 -101t-72.5 -51q54 -14 87 -55t33 -110q0 -100 -52.5 -145.5t-149.5 -45.5z" />
    <glyph glyph-name="four.oldstyle" horiz-adv-x="486" 
d="M280 167h-253v68l255 417h88v-412h78v-73h-78v-167h-90v167zM280 240v295l-182 -295h182z" />
    <glyph glyph-name="five.oldstyle" horiz-adv-x="478" 
d="M230 -13q-84 0 -133.5 44.5t-49.5 134.5v4h85v-4q0 -54 23.5 -85.5t74.5 -31.5q53 0 76.5 38t23.5 107v35q0 67 -23.5 105t-74.5 38q-38 0 -60.5 -22t-33.5 -58l-81 3l32 356h318v-72h-247l-19 -211q12 27 43 48t78 21q78 0 120 -51.5t42 -152.5v-43q0 -100 -50 -151.5
t-144 -51.5z" />
    <glyph glyph-name="six.oldstyle" horiz-adv-x="504" 
d="M254 364q-48 0 -74.5 -38.5t-26.5 -108.5v-22q0 -70 26.5 -107t74.5 -37q49 0 75 36.5t26 106.5v26q0 69 -26 106.5t-75 37.5zM259 -13q-50 0 -86.5 14.5t-61.5 46t-37 81.5t-12 122v90q0 80 9.5 140t32.5 100.5t62 61t98 20.5q44 0 76.5 -13t53.5 -36t31 -54t10 -68v-6
h-85v5q0 52 -21.5 80t-66.5 28q-32 0 -52.5 -14.5t-32.5 -43t-17 -71.5t-5 -99v-25q4 14 14.5 28.5t26 26.5t36.5 19.5t48 7.5q79 0 123.5 -50.5t44.5 -152.5v-33q0 -104 -50 -154.5t-139 -50.5z" />
    <glyph glyph-name="seven.oldstyle" horiz-adv-x="426" 
d="M94 0q10 188 70 329t167 251h-298v72h378v-72q-57 -60 -97.5 -122.5t-67 -133t-40 -150.5t-17.5 -174h-95z" />
    <glyph glyph-name="eight.oldstyle" horiz-adv-x="509" 
d="M255 -13q-95 0 -150.5 45t-55.5 148q0 38 9.5 66.5t25.5 48.5t36.5 32.5t41.5 20.5q-15 4 -32 15.5t-31.5 29.5t-23.5 43.5t-9 59.5q0 45 14 76.5t39.5 51.5t60 29.5t75.5 9.5q40 0 74.5 -9.5t59.5 -29.5t39 -51.5t14 -76.5q0 -34 -9 -59.5t-23.5 -43.5t-31.5 -29.5
t-32 -15.5q21 -8 41.5 -20.5t36.5 -32.5t25.5 -48.5t9.5 -66.5q0 -51 -14 -88t-40.5 -60t-64.5 -34t-85 -11zM255 49q54 0 82 33.5t28 91.5v13q0 60 -28 92.5t-82 32.5q-56 0 -84 -32.5t-28 -92.5v-13q0 -58 28 -91.5t84 -33.5zM255 373q49 0 71 28t22 80v10q0 54 -22 81
t-71 27q-50 0 -73 -27t-23 -81v-10q0 -53 23 -80.5t73 -27.5z" />
    <glyph glyph-name="nine.oldstyle" horiz-adv-x="504" 
d="M239 -13q-44 0 -76 13t-53 35.5t-31 54t-10 68.5v4h86v-3q0 -53 20.5 -81.5t65.5 -28.5q32 0 52.5 15t32.5 44t17 72t5 99v23q-5 -14 -15 -28t-25.5 -25.5t-36.5 -19t-48 -7.5q-79 0 -123.5 50t-44.5 152v34q0 103 50 154t140 51q49 0 85.5 -14.5t61 -46t36.5 -81.5
t12 -122v-90q0 -80 -9 -140.5t-32 -101t-62 -60.5t-98 -20zM249 286q48 0 74.5 38.5t26.5 108.5v22q0 70 -26.5 107t-74.5 37q-49 0 -75 -36.5t-26 -106.5v-26q0 -69 26 -106.5t75 -37.5z" />
    <glyph glyph-name="zero.oldstyle" horiz-adv-x="518" 
d="M258 49q36 0 57 17t32.5 49.5t14.5 79.5t3 106v47q0 60 -3 106.5t-14.5 78.5t-32.5 49t-57 17t-56.5 -17t-31.5 -49t-14 -78.5t-3 -106.5v-47q0 -59 3 -106t14 -79.5t31.5 -49.5t56.5 -17zM258 -13q-56 0 -94 17.5t-61 54.5t-33 92.5t-10 132.5v82q0 76 10 132t33 92.5
t61 54.5t94 18t94 -18t61.5 -54.5t33.5 -92.5t10 -132v-82q0 -77 -10 -132.5t-33.5 -92.5t-61.5 -54.5t-94 -17.5z" />
    <glyph glyph-name="zero.oldstyle.zero" horiz-adv-x="518" 
d="M258 -13q-56 0 -94 17.5t-61 54.5t-33 92.5t-10 132.5v82q0 76 10 132t33 92.5t61 54.5t94 18t94 -18t61.5 -54.5t33.5 -92.5t10 -132v-82q0 -77 -10 -132.5t-33.5 -92.5t-61.5 -54.5t-94 -17.5zM258 49q36 0 57 17t32.5 49.5t14.5 79.5t3 106v53l-211 -119
q1 -44 6.5 -78.5t17 -58.5t31 -36.5t49.5 -12.5zM153 302l210 119q-2 42 -7 75.5t-17 56t-31.5 34.5t-49.5 12q-36 0 -56.5 -17t-31.5 -49t-14 -78.5t-3 -106.5v-46z" />
    <glyph glyph-name="one.tnum" 
d="M57 72h181v498h-159v58q46 0 77.5 3.5t51.5 13.5t31.5 29t18.5 51h69v-653h164v-72h-434v72z" />
    <glyph glyph-name="two.tnum" 
d="M74 69l81 102q45 58 86 110t72 100t49.5 92t18.5 85q0 60 -28 88.5t-79 28.5q-56 0 -83 -39.5t-27 -113.5v-7h-85v6q0 105 49.5 161t151.5 56q43 0 78 -10.5t60 -32t39 -54.5t14 -78q0 -46 -17.5 -93t-48.5 -96.5t-72.5 -104t-89.5 -115.5l-65 -82h296v-72h-400v69z" />
    <glyph glyph-name="three.tnum" 
d="M263 -13q-94 0 -146 50t-52 147v4h85v-4q0 -58 26.5 -95t88.5 -37q38 0 62.5 11.5t39 31t20 46t5.5 56.5q0 34 -8 61t-26 46t-47.5 29t-72.5 10h-40v66h38q68 0 101 33.5t33 104.5q0 62 -26 95t-83 33q-58 0 -80 -34.5t-22 -97.5v-4h-85v4q0 97 50 146t140 49
q42 0 78 -9.5t62.5 -31t42 -57t15.5 -87.5q0 -69 -31 -112.5t-83 -57.5q63 -14 99.5 -60.5t36.5 -124.5q0 -109 -57.5 -160t-163.5 -51z" />
    <glyph glyph-name="four.tnum" 
d="M332 188h-288v68l289 469h88v-465h84v-72h-84v-188h-89v188zM332 260v347l-216 -347h216z" />
    <glyph glyph-name="five.tnum" 
d="M268 -13q-94 0 -147.5 50t-53.5 147v4h85v-4q0 -63 28 -98t88 -35q62 0 91.5 43.5t29.5 122.5v37q0 78 -29 122t-89 44q-45 0 -72 -26t-41 -68l-80 3l37 396h348v-71h-278l-23 -245q14 29 49 52.5t89 23.5q85 0 132.5 -57t47.5 -168v-48q0 -109 -55.5 -167t-156.5 -58z
" />
    <glyph glyph-name="six.tnum" 
d="M276 -13q-52 0 -92 15t-67 49t-41 88.5t-14 132.5v101q0 90 10 158.5t35.5 114.5t68.5 69t109 23q48 0 83 -14.5t58.5 -39.5t35 -60t11.5 -75v-6h-85v5q0 59 -25.5 93t-79.5 34q-75 0 -103 -68t-28 -199v-25q5 16 17 32.5t30 30.5t42.5 23t55.5 9q86 0 137.5 -56.5
t51.5 -169.5v-39q0 -114 -57 -170t-153 -56zM273 51q57 0 88.5 42t31.5 123v28q0 81 -31.5 124.5t-88.5 43.5t-89.5 -44.5t-32.5 -125.5v-24q0 -81 32.5 -124t89.5 -43z" />
    <glyph glyph-name="seven.tnum" 
d="M140 0q6 107 26 199t53 172t80 150t107 133h-346v71h427v-71q-65 -66 -111 -136.5t-76 -150t-46.5 -170.5t-21.5 -197h-92z" />
    <glyph glyph-name="eight.tnum" 
d="M274 -13q-52 0 -94 12t-71 38t-45 66.5t-16 97.5q0 43 11.5 75t29.5 54.5t41 36t46 21.5q-18 6 -37 18.5t-35 32.5t-26.5 48.5t-10.5 66.5q0 49 15.5 83.5t43 57t65.5 33t83 10.5t83 -10.5t65.5 -33t43 -57t15.5 -83.5q0 -38 -10.5 -66.5t-26.5 -48.5t-35 -32.5
t-37 -18.5q23 -8 46 -21.5t41 -36t29.5 -54.5t11.5 -75q0 -57 -16 -97.5t-45.5 -66.5t-71 -38t-93.5 -12zM274 51q62 0 97.5 37t35.5 106v15q0 69 -35 106.5t-98 37.5t-99 -37t-36 -106v-16q0 -69 36 -106t99 -37zM274 414q114 0 114 124v12q0 125 -114 125t-114 -125v-12
q0 -124 114 -124z" />
    <glyph glyph-name="nine.tnum" 
d="M264 -13q-48 0 -83 14.5t-58 39.5t-34 59.5t-11 75.5v6h85v-4q0 -60 24.5 -93.5t78.5 -33.5q38 0 63 17t40 50.5t21 83.5t6 115v25q-5 -16 -17 -32.5t-30 -30.5t-42.5 -23t-54.5 -9q-87 0 -138.5 56.5t-51.5 169.5v39q0 114 57 170t153 56q52 0 92 -15t67 -49t41 -88.5
t14 -132.5v-101q0 -90 -10 -158.5t-35.5 -114.5t-68 -69t-108.5 -23zM275 313q59 0 90.5 44.5t31.5 125.5v24q0 81 -31.5 124.5t-90.5 43.5q-57 0 -88.5 -42.5t-31.5 -123.5v-28q0 -81 31.5 -124.5t88.5 -43.5z" />
    <glyph glyph-name="zero.tnum" 
d="M274 52q42 0 67 19t37.5 56t16.5 90t4 122v47q0 69 -4 122.5t-16.5 90t-37.5 56t-67 19.5t-66.5 -19.5t-37.5 -56t-17 -90t-4 -122.5v-47q0 -69 4 -122t17 -90t37.5 -56t66.5 -19zM274 -13q-61 0 -102.5 19.5t-67 60.5t-37 103t-11.5 148v89q0 85 11.5 147.5t37 103.5
t67 60.5t102.5 19.5t103 -19.5t67.5 -60.5t36.5 -103.5t11 -147.5v-89q0 -86 -11 -148t-36.5 -103t-67.5 -60.5t-103 -19.5z" />
    <glyph glyph-name="zero.tnum.zero" 
d="M274 -13q-61 0 -102.5 19.5t-67 60.5t-37 103t-11.5 148v89q0 85 11.5 147.5t37 103.5t67 60.5t102.5 19.5t103 -19.5t67.5 -60.5t36.5 -103.5t11 -147.5v-89q0 -86 -11 -148t-36.5 -103t-67.5 -60.5t-103 -19.5zM398 456q-2 52 -8 92.5t-19.5 68.5t-37 42.5t-59.5 14.5
q-42 0 -66.5 -19.5t-37.5 -56t-17 -90t-4 -122.5v-58zM274 52q42 0 67 19t37.5 56t16.5 90t4 122v50l-249 -129q2 -50 8.5 -89t20.5 -65.5t37 -40t58 -13.5z" />
    <glyph glyph-name="one.case" horiz-adv-x="338" 
d="M150 569h-135v59q49 1 77.5 3.5t44 12t22 28.5t12.5 53h72v-725h-93v569z" />
    <glyph glyph-name="two.case" horiz-adv-x="490" 
d="M44 71l81 102q46 58 86.5 110t70.5 99.5t47.5 91t17.5 84.5q0 59 -26.5 87.5t-75.5 28.5q-56 0 -81.5 -39.5t-25.5 -113.5v-7h-89v7q0 105 49.5 161t152.5 56q43 0 78 -10.5t60.5 -32t39.5 -54.5t14 -78q0 -46 -17.5 -92t-48 -95.5t-72 -104t-89.5 -115.5l-64 -82h294
v-74h-402v71z" />
    <glyph glyph-name="three.case" horiz-adv-x="523" 
d="M241 -13q-94 0 -146.5 50t-52.5 147v4h88v-4q0 -57 25.5 -94.5t86.5 -37.5q37 0 61.5 11.5t38.5 31t19.5 46.5t5.5 57q0 34 -7.5 60.5t-25 45t-46.5 28t-72 9.5h-39v69h37q130 0 130 136q0 61 -25 94.5t-81 33.5t-78 -34.5t-22 -96.5v-4h-88v4q0 98 50.5 146.5
t140.5 48.5q42 0 78.5 -9.5t63 -31t42 -57t15.5 -87.5q0 -69 -31 -112.5t-82 -57.5q62 -14 99 -60.5t37 -124.5q0 -109 -58 -160t-164 -51z" />
    <glyph glyph-name="four.case" horiz-adv-x="521" 
d="M306 188h-286v69l287 468h92v-462h85v-75h-85v-188h-93v188zM306 263v341l-213 -341h213z" />
    <glyph glyph-name="five.case" horiz-adv-x="519" 
d="M250 -13q-94 0 -147.5 50t-53.5 147v4h88v-4q0 -62 27.5 -97t85.5 -35q61 0 89 43.5t28 121.5v37q0 78 -27.5 121.5t-86.5 43.5q-45 0 -71 -25.5t-39 -67.5l-83 3l37 396h349v-73h-278l-22 -243q14 29 49.5 52.5t88.5 23.5q86 0 132.5 -57t46.5 -168v-48q0 -109 -55 -167
t-158 -58z" />
    <glyph glyph-name="six.case" horiz-adv-x="518" 
d="M263 410q-57 0 -87.5 -44t-30.5 -124v-24q0 -80 30.5 -123.5t87.5 -43.5t87.5 42.5t30.5 122.5v28q0 81 -30.5 123.5t-87.5 42.5zM275 738q48 0 83 -14.5t58 -39.5t34.5 -60t11.5 -75v-6h-88v4q0 60 -24.5 93t-76.5 33q-37 0 -61.5 -17t-39 -50.5t-20.5 -82.5t-6 -113
v-26q5 16 16.5 32.5t29.5 30t42.5 22.5t54.5 9q86 0 137 -56.5t51 -169.5v-39q0 -115 -56.5 -170.5t-153.5 -55.5q-53 0 -93 15.5t-67 49.5t-41 88.5t-14 133.5v100q0 90 10 158.5t35.5 114t68.5 68.5t109 23z" />
    <glyph glyph-name="seven.case" horiz-adv-x="434" 
d="M82 0q12 212 78.5 369.5t187.5 282.5h-336v73h419v-73q-65 -66 -110.5 -136.5t-75.5 -150t-46 -169.5t-20 -196h-97z" />
    <glyph glyph-name="eight.case" horiz-adv-x="527" 
d="M264 -13q-52 0 -94 12t-71 38t-45 66.5t-16 97.5q0 43 11 75t29 54.5t41 36t46 21.5q-17 6 -36.5 18.5t-35.5 32.5t-26.5 48.5t-10.5 66.5q0 49 15.5 83.5t43 57t66 33t83.5 10.5t83 -10.5t66 -33t43.5 -57t15.5 -83.5q0 -38 -10.5 -66.5t-26.5 -48.5t-35 -32.5
t-36 -18.5q23 -8 45.5 -21.5t40.5 -36t29 -54.5t11 -75q0 -114 -60.5 -164t-165.5 -50zM264 52q62 0 96.5 36.5t34.5 105.5v15q0 69 -34 106t-97 37q-62 0 -96.5 -37t-34.5 -105v-16q0 -69 34.5 -105.5t96.5 -36.5zM264 414q112 0 112 124v12q0 124 -112 124
q-111 0 -111 -124v-13q0 -123 111 -123z" />
    <glyph glyph-name="nine.case" horiz-adv-x="521" 
d="M246 -13q-48 0 -83 14.5t-58 39.5t-34.5 59.5t-11.5 75.5v6h88v-4q0 -60 24.5 -93t76.5 -33q37 0 61.5 17t39 50.5t20.5 82.5t6 113v26q-5 -16 -16.5 -32.5t-29.5 -30t-42.5 -22.5t-54.5 -9q-86 0 -137 56.5t-51 169.5v39q0 115 56.5 170.5t153.5 55.5q52 0 92.5 -15.5
t67.5 -49.5t41 -88.5t14 -133.5v-100q0 -90 -10 -158.5t-35.5 -114t-68.5 -68.5t-109 -23zM258 315q57 0 87.5 44t30.5 124v24q0 80 -30.5 123.5t-87.5 43.5t-87.5 -42.5t-30.5 -122.5v-28q0 -81 30.5 -123.5t87.5 -42.5z" />
    <glyph glyph-name="zero.case" horiz-adv-x="578" 
d="M288 52q41 0 65.5 19t37.5 56t17 90.5t4 121.5v47q0 68 -4 121t-17 89.5t-37.5 55.5t-65.5 19t-65 -19t-37 -55.5t-16.5 -89.5t-3.5 -121v-47q0 -68 3.5 -121.5t16.5 -90.5t37 -56t65 -19zM288 -13q-61 0 -103 19.5t-67.5 60t-36.5 103t-11 147.5v91q0 85 11 147.5
t36.5 103t67.5 60t103 19.5t103.5 -19.5t68 -60t37 -103t11.5 -147.5v-91q0 -85 -11.5 -147.5t-37 -103t-68 -60t-103.5 -19.5z" />
    <glyph glyph-name="zero.case.zero" horiz-adv-x="578" 
d="M288 -13q-61 0 -103 19.5t-67.5 60t-36.5 103t-11 147.5v91q0 85 11 147.5t36.5 103t67.5 60t103 19.5t103.5 -19.5t68 -60t37 -103t11.5 -147.5v-91q0 -85 -11.5 -147.5t-37 -103t-68 -60t-103.5 -19.5zM288 52q41 0 65.5 19t37.5 56t17 90.5t4 121.5v60l-245 -126
q1 -53 7 -94t19.5 -69.5t36 -43t58.5 -14.5zM166 340l245 126q-2 49 -8.5 87.5t-20.5 64.5t-37 39.5t-57 13.5q-41 0 -65 -19t-37 -55.5t-16.5 -89.5t-3.5 -121v-46z" />
    <glyph glyph-name="uni21B2" unicode="&#x21b2;" horiz-adv-x="800" 
d="M639 725h82v-497h-551l217 -216l-56 -54l-311 311l311 311l55 -54l-216 -216h469v415z" />
    <glyph glyph-name="uni21B3" unicode="&#x21b3;" horiz-adv-x="800" 
d="M161 725v-415h469l-216 216l55 54l311 -311l-311 -311l-56 54l217 216h-551v497h82z" />
    <glyph glyph-name="uni21B0" unicode="&#x21b0;" horiz-adv-x="800" 
d="M639 -175v403h-469l216 -216l-55 -54l-311 311l311 311l56 -54l-217 -216h551v-485h-82z" />
    <glyph glyph-name="uni21B1" unicode="&#x21b1;" horiz-adv-x="800" 
d="M469 -42l-55 54l216 216h-469v-403h-82v485h551l-217 216l56 54l311 -311z" />
    <glyph glyph-name="arrowleft" unicode="&#x2190;" horiz-adv-x="800" 
d="M170 228l216 -216l-55 -54l-311 311l311 311l56 -54l-217 -216h591v-82h-591z" />
    <glyph glyph-name="arrowup" unicode="&#x2191;" horiz-adv-x="800" 
d="M359 591l-216 -216l-54 55l311 311l311 -311l-54 -56l-216 217v-591h-82v591z" />
    <glyph glyph-name="arrowright" unicode="&#x2192;" horiz-adv-x="800" 
d="M630 309l-216 216l55 54l311 -311l-311 -311l-56 54l217 216h-591v82h591z" />
    <glyph glyph-name="arrowdown" unicode="&#x2193;" horiz-adv-x="800" 
d="M441 134l216 216l54 -55l-311 -311l-311 311l54 56l216 -217v591h82v-591z" />
    <glyph glyph-name="uni2196" unicode="&#x2196;" horiz-adv-x="800" 
d="M215 403v-305h-77v440h440v-77h-305l418 -418l-58 -58z" />
    <glyph glyph-name="uni2197" unicode="&#x2197;" horiz-adv-x="800" 
d="M527 461h-305v77h440v-440h-77v305l-418 -418l-58 58z" />
    <glyph glyph-name="uni2198" unicode="&#x2198;" horiz-adv-x="800" 
d="M585 135v305h77v-440h-440v77h305l-418 418l58 58z" />
    <glyph glyph-name="uni2199" unicode="&#x2199;" horiz-adv-x="800" 
d="M273 77h305v-77h-440v440h77v-305l418 418l58 -58z" />
    <glyph glyph-name="uni219E" unicode="&#x219e;" horiz-adv-x="800" 
d="M448 228l216 -216l-55 -54l-270 270h-169l216 -216l-55 -54l-311 311l311 311l56 -54l-217 -216h169l270 270l56 -54l-217 -216h313v-82h-313z" />
    <glyph glyph-name="uni219F" unicode="&#x219f;" horiz-adv-x="800" 
d="M359 313l-216 -216l-54 55l270 270v169l-216 -216l-54 55l311 311l311 -311l-54 -56l-216 217v-169l270 -270l-54 -56l-216 217v-313h-82v313z" />
    <glyph glyph-name="uni21A0" unicode="&#x21a0;" horiz-adv-x="800" 
d="M352 309v1l-216 216l55 54l271 -271h168l-216 216l55 54l311 -311l-311 -311l-56 54l217 216h-170l-269 -269l-56 54l216 215h-312v82h313z" />
    <glyph glyph-name="uni21A1" unicode="&#x21a1;" horiz-adv-x="800" 
d="M441 411l216 216l54 -55l-270 -270v-168l216 216l54 -55l-311 -311l-311 311l54 56l216 -217v168l-270 270l54 56l216 -217v314h82v-314z" />
    <glyph glyph-name="uni21A2" unicode="&#x21a2;" horiz-adv-x="800" 
d="M718 -42l-270 270h-278l216 -216l-55 -54l-311 311l311 311l56 -54l-217 -216h278l270 270l56 -54l-256 -256l255 -258z" />
    <glyph glyph-name="uni21A3" unicode="&#x21a3;" horiz-adv-x="800" 
d="M291 270l-256 256l56 54l270 -270h278l-217 216l56 54l311 -311l-311 -311l-55 54l216 216h-278l-270 -270l-55 54z" />
    <glyph glyph-name="uni21A4" unicode="&#x21a4;" horiz-adv-x="800" 
d="M639 0v228h-469l216 -216l-55 -54l-311 311l311 311l56 -54l-217 -216h469v228h82v-538h-82z" />
    <glyph glyph-name="uni21A5" unicode="&#x21a5;" horiz-adv-x="800" 
d="M131 82h228v509l-216 -216l-54 55l311 311l311 -311l-54 -56l-216 217v-509h228v-82h-538v82z" />
    <glyph glyph-name="uni21A6" unicode="&#x21a6;" horiz-adv-x="800" 
d="M161 538v-228h469l-216 216l55 54l311 -311l-311 -311l-56 54l217 216h-469v-228h-82v538h82z" />
    <glyph glyph-name="uni21A7" unicode="&#x21a7;" horiz-adv-x="800" 
d="M669 643h-228v-509l216 216l54 -55l-311 -311l-311 311l54 56l216 -217v509h-228v82h538v-82z" />
    <glyph glyph-name="filledbox" unicode="&#x25a0;" horiz-adv-x="624" 
d="M43 538h538v-538h-538v538z" />
    <glyph glyph-name="H22073" unicode="&#x25a1;" horiz-adv-x="624" 
d="M43 538h538v-538h-538v538zM124 81h376v376h-376v-376z" />
    <glyph glyph-name="circle" unicode="&#x25cb;" horiz-adv-x="602" 
d="M301 472q-45 0 -82 -16t-63.5 -43.5t-41.5 -65t-15 -79.5t15 -79t41.5 -64.5t63.5 -43.5t82 -16q44 0 81 16t64 43.5t42 64.5t15 79t-15 79.5t-42 65t-64 43.5t-81 16zM301 550q61 0 113 -22.5t89.5 -60.5t59 -89.5t21.5 -109.5t-21.5 -109t-59 -89.5t-89.5 -60.5
t-113 -22t-113 22t-89.5 60.5t-59 89.5t-21.5 109t21.5 109.5t59 89.5t89.5 60.5t113 22.5z" />
    <glyph glyph-name="H18533" unicode="&#x25cf;" horiz-adv-x="602" 
d="M301 -13q-61 0 -113 22t-89.5 60.5t-59 89.5t-21.5 109t21.5 109.5t59 89.5t89.5 60.5t113 22.5t113 -22.5t89.5 -60.5t59 -89.5t21.5 -109.5t-21.5 -109t-59 -89.5t-89.5 -60.5t-113 -22z" />
    <glyph glyph-name="onethird" unicode="&#x2153;" horiz-adv-x="677" 
d="M104 631h-74v41q26 0 41.5 1.5t24 6.5t12.5 15.5t8 29.5h50v-408h-62v314zM396 725h49l-243 -725h-48zM521 -8q-53 0 -83.5 28t-30.5 86v2h59v-2q0 -32 12.5 -51.5t43.5 -19.5q38 0 51 22.5t13 54.5q0 35 -16.5 56t-61.5 21h-22v44h21q35 0 50.5 18t15.5 53
q0 32 -12.5 50t-41.5 18q-28 0 -39 -16.5t-11 -51.5v-2h-59v2q0 58 30.5 84.5t81.5 26.5q24 0 45 -5t36.5 -17.5t24 -32.5t8.5 -50q0 -40 -18 -63t-44 -31q35 -9 55.5 -34.5t20.5 -68.5q0 -64 -33.5 -92.5t-95.5 -28.5z" />
    <glyph glyph-name="uni2155" unicode="&#x2155;" horiz-adv-x="667" 
d="M104 631h-74v41q26 0 41.5 1.5t24 6.5t12.5 15.5t8 29.5h50v-408h-62v314zM396 725h49l-243 -725h-48zM524 -8q-52 0 -84 28t-32 86v2h60v-2q0 -33 13 -52t43 -19q31 0 44 23t13 63v23q0 41 -13.5 63.5t-42.5 22.5q-22 0 -35 -12.5t-20 -34.5l-56 2l21 223h201v-49h-153
l-12 -128q8 17 27.5 30t47.5 13q100 0 100 -127v-28q0 -127 -122 -127z" />
    <glyph glyph-name="uni2159" unicode="&#x2159;" horiz-adv-x="681" 
d="M104 631h-74v41q26 0 41.5 1.5t24 6.5t12.5 15.5t8 29.5h50v-408h-62v314zM396 725h49l-243 -725h-48zM538 223q-28 0 -43 -22.5t-15 -63.5v-15q0 -42 15 -64.5t43 -22.5q59 0 59 86v16q0 42 -15 64t-44 22zM545 415q57 0 82.5 -30t25.5 -78v-3h-60v3q0 65 -49 65
q-38 0 -50.5 -35t-12.5 -102v-17q7 18 26 33.5t51 15.5q49 0 76.5 -31.5t27.5 -95.5v-20q0 -65 -31 -96.5t-88 -31.5q-66 0 -95.5 39t-29.5 130v56q0 49 6 86t20 62t38.5 37.5t62.5 12.5z" />
    <glyph glyph-name="oneeighth" unicode="&#x215b;" horiz-adv-x="690" 
d="M104 631h-74v41q26 0 41.5 1.5t24 6.5t12.5 15.5t8 29.5h50v-408h-62v314zM396 725h49l-243 -725h-48zM538 -8q-61 0 -95 28t-34 94q0 46 21 70t48 34q-19 7 -39 29t-20 63q0 58 33.5 81.5t85.5 23.5q51 0 84.5 -23.5t33.5 -81.5q0 -41 -19.5 -63t-38.5 -29
q27 -10 48 -34t21 -70q0 -66 -34 -94t-95 -28zM538 35q33 0 49 20.5t16 55.5v7q0 35 -16 55t-49 20t-49.5 -20t-16.5 -55v-7q0 -35 16.5 -55.5t49.5 -20.5zM538 235q30 0 42 17t12 49v5q0 32 -12 49t-42 17t-42.5 -17t-12.5 -49v-5q0 -32 13 -49t42 -17z" />
    <glyph glyph-name="twothirds" unicode="&#x2154;" horiz-adv-x="740" 
d="M22 364l45 57q27 34 49.5 63t39 54.5t25.5 48t9 43.5q0 59 -53 59q-52 0 -52 -81v-4h-61v4q0 60 29 92t88 32q52 0 82 -24t30 -75q0 -49 -34 -101t-87 -119l-37 -48h159v-48h-232v47zM459 725h49l-243 -725h-48zM584 -8q-53 0 -83.5 28t-30.5 86v2h59v-2
q0 -32 12.5 -51.5t43.5 -19.5q38 0 51 22.5t13 54.5q0 35 -16.5 56t-61.5 21h-22v44h21q35 0 50.5 18t15.5 53q0 32 -12.5 50t-41.5 18q-28 0 -39 -16.5t-11 -51.5v-2h-59v2q0 58 30.5 84.5t81.5 26.5q24 0 45 -5t36.5 -17.5t24 -32.5t8.5 -50q0 -40 -18 -63t-44 -31
q35 -9 55.5 -34.5t20.5 -68.5q0 -64 -33.5 -92.5t-95.5 -28.5z" />
    <glyph glyph-name="uni2156" unicode="&#x2156;" horiz-adv-x="730" 
d="M22 364l45 57q27 34 49.5 63t39 54.5t25.5 48t9 43.5q0 59 -53 59q-52 0 -52 -81v-4h-61v4q0 60 29 92t88 32q52 0 82 -24t30 -75q0 -49 -34 -101t-87 -119l-37 -48h159v-48h-232v47zM459 725h49l-243 -725h-48zM587 -8q-52 0 -84 28t-32 86v2h60v-2q0 -33 13 -52t43 -19
q31 0 44 23t13 63v23q0 41 -13.5 63.5t-42.5 22.5q-22 0 -35 -12.5t-20 -34.5l-56 2l21 223h201v-49h-153l-12 -128q8 17 27.5 30t47.5 13q100 0 100 -127v-28q0 -127 -122 -127z" />
    <glyph glyph-name="uni2157" unicode="&#x2157;" horiz-adv-x="745" 
d="M136 309q-53 0 -83.5 28t-30.5 86v2h59v-2q0 -32 12.5 -51.5t43.5 -19.5q38 0 51 22.5t13 54.5q0 35 -16.5 56t-61.5 21h-22v44h21q35 0 50.5 18t15.5 53q0 32 -12.5 50t-41.5 18q-28 0 -39 -16.5t-11 -51.5v-2h-59v2q0 58 30.5 84.5t81.5 26.5q24 0 45 -5t36.5 -17.5
t24 -32.5t8.5 -50q0 -40 -18 -63t-44 -31q35 -9 55.5 -34.5t20.5 -68.5q0 -64 -33.5 -92.5t-95.5 -28.5zM474 725h49l-243 -725h-48zM602 -8q-52 0 -84 28t-32 86v2h60v-2q0 -33 13 -52t43 -19q31 0 44 23t13 63v23q0 41 -13.5 63.5t-42.5 22.5q-22 0 -35 -12.5t-20 -34.5
l-56 2l21 223h201v-49h-153l-12 -128q8 17 27.5 30t47.5 13q100 0 100 -127v-28q0 -127 -122 -127z" />
    <glyph glyph-name="threeeighths" unicode="&#x215c;" horiz-adv-x="768" 
d="M136 309q-53 0 -83.5 28t-30.5 86v2h59v-2q0 -32 12.5 -51.5t43.5 -19.5q38 0 51 22.5t13 54.5q0 35 -16.5 56t-61.5 21h-22v44h21q35 0 50.5 18t15.5 53q0 32 -12.5 50t-41.5 18q-28 0 -39 -16.5t-11 -51.5v-2h-59v2q0 58 30.5 84.5t81.5 26.5q24 0 45 -5t36.5 -17.5
t24 -32.5t8.5 -50q0 -40 -18 -63t-44 -31q35 -9 55.5 -34.5t20.5 -68.5q0 -64 -33.5 -92.5t-95.5 -28.5zM474 725h49l-243 -725h-48zM616 -8q-61 0 -95 28t-34 94q0 46 21 70t48 34q-19 7 -39 29t-20 63q0 58 33.5 81.5t85.5 23.5q51 0 84.5 -23.5t33.5 -81.5
q0 -41 -19.5 -63t-38.5 -29q27 -10 48 -34t21 -70q0 -66 -34 -94t-95 -28zM616 35q33 0 49 20.5t16 55.5v7q0 35 -16 55t-49 20t-49.5 -20t-16.5 -55v-7q0 -35 16.5 -55.5t49.5 -20.5zM616 235q30 0 42 17t12 49v5q0 32 -12 49t-42 17t-42.5 -17t-12.5 -49v-5q0 -32 13 -49
t42 -17z" />
    <glyph glyph-name="uni2158" unicode="&#x2158;" horiz-adv-x="748" 
d="M170 420h-159v45l157 260h60v-255h49v-50h-49v-103h-58v103zM170 470v175l-111 -175h111zM477 725h49l-243 -725h-48zM605 -8q-52 0 -84 28t-32 86v2h60v-2q0 -33 13 -52t43 -19q31 0 44 23t13 63v23q0 41 -13.5 63.5t-42.5 22.5q-22 0 -35 -12.5t-20 -34.5l-56 2l21 223
h201v-49h-153l-12 -128q8 17 27.5 30t47.5 13q100 0 100 -127v-28q0 -127 -122 -127z" />
    <glyph glyph-name="uni215A" unicode="&#x215a;" horiz-adv-x="749" 
d="M139 309q-52 0 -84 28t-32 86v2h60v-2q0 -33 13 -52t43 -19q31 0 44 23t13 63v23q0 41 -13.5 63.5t-42.5 22.5q-22 0 -35 -12.5t-20 -34.5l-56 2l21 223h201v-49h-153l-12 -128q8 17 27.5 30t47.5 13q100 0 100 -127v-28q0 -127 -122 -127zM464 725h49l-243 -725h-48z
M606 223q-28 0 -43 -22.5t-15 -63.5v-15q0 -42 15 -64.5t43 -22.5q59 0 59 86v16q0 42 -15 64t-44 22zM613 415q57 0 82.5 -30t25.5 -78v-3h-60v3q0 65 -49 65q-38 0 -50.5 -35t-12.5 -102v-17q7 18 26 33.5t51 15.5q49 0 76.5 -31.5t27.5 -95.5v-20q0 -65 -31 -96.5
t-88 -31.5q-66 0 -95.5 39t-29.5 130v56q0 49 6 86t20 62t38.5 37.5t62.5 12.5z" />
    <glyph glyph-name="fiveeighths" unicode="&#x215d;" horiz-adv-x="758" 
d="M139 309q-52 0 -84 28t-32 86v2h60v-2q0 -33 13 -52t43 -19q31 0 44 23t13 63v23q0 41 -13.5 63.5t-42.5 22.5q-22 0 -35 -12.5t-20 -34.5l-56 2l21 223h201v-49h-153l-12 -128q8 17 27.5 30t47.5 13q100 0 100 -127v-28q0 -127 -122 -127zM464 725h49l-243 -725h-48z
M606 -8q-61 0 -95 28t-34 94q0 46 21 70t48 34q-19 7 -39 29t-20 63q0 58 33.5 81.5t85.5 23.5q51 0 84.5 -23.5t33.5 -81.5q0 -41 -19.5 -63t-38.5 -29q27 -10 48 -34t21 -70q0 -66 -34 -94t-95 -28zM606 35q33 0 49 20.5t16 55.5v7q0 35 -16 55t-49 20t-49.5 -20
t-16.5 -55v-7q0 -35 16.5 -55.5t49.5 -20.5zM606 235q30 0 42 17t12 49v5q0 32 -12 49t-42 17t-42.5 -17t-12.5 -49v-5q0 -32 13 -49t42 -17z" />
    <glyph glyph-name="seveneighths" unicode="&#x215e;" horiz-adv-x="708" 
d="M43 317q5 116 38 204.5t99 154.5h-176v49h230v-49q-35 -35 -58.5 -74t-38 -83t-21.5 -94t-9 -108h-64zM414 725h49l-243 -725h-48zM556 -8q-61 0 -95 28t-34 94q0 46 21 70t48 34q-19 7 -39 29t-20 63q0 58 33.5 81.5t85.5 23.5q51 0 84.5 -23.5t33.5 -81.5
q0 -41 -19.5 -63t-38.5 -29q27 -10 48 -34t21 -70q0 -66 -34 -94t-95 -28zM556 35q33 0 49 20.5t16 55.5v7q0 35 -16 55t-49 20t-49.5 -20t-16.5 -55v-7q0 -35 16.5 -55.5t49.5 -20.5zM556 235q30 0 42 17t12 49v5q0 32 -12 49t-42 17t-42.5 -17t-12.5 -49v-5q0 -32 13 -49
t42 -17z" />
    <glyph glyph-name="uni215F" unicode="&#x215f;" horiz-adv-x="385" 
d="M104 631h-74v41q26 0 41.5 1.5t24 6.5t12.5 15.5t8 29.5h50v-408h-62v314zM396 725h49l-243 -725h-48z" />
    <glyph glyph-name="fraction" unicode="&#x2044;" horiz-adv-x="171" 
d="M182 725h49l-243 -725h-48z" />
    <glyph glyph-name="a.superior" horiz-adv-x="258" 
d="M96 430q-38 0 -59.5 23.5t-21.5 62.5v7q0 33 24 55q21 20 72 35l57 21v26q0 26 -10.5 37t-33.5 11t-35 -11.5t-12 -40.5v-6h-57v6q0 48 28 70.5t77 22.5q24 0 43.5 -4t33 -15t21 -30.5t7.5 -51.5v-21q0 -17 -0.5 -36.5t-0.5 -36.5v-19q0 -34 1 -55.5t3 -41.5h-58l-1 41
q-11 -24 -29.5 -36.5t-48.5 -12.5zM118 471q23 0 37.5 17.5t14.5 61.5v48q-2 -1 -8 -3.5t-12.5 -5.5t-13 -5t-8.5 -3q-26 -9 -38 -21t-12 -35v-6q0 -23 10 -35.5t30 -12.5z" />
    <glyph glyph-name="b.superior" horiz-adv-x="280" 
d="M169 430q-27 0 -47 15t-28 37v-44h-63v408h63v-150q8 22 28 37t47 15q48 0 69.5 -34t21.5 -103v-43q0 -69 -21.5 -103.5t-69.5 -34.5zM149 476q29 0 38 26t9 79v16q0 52 -9 79.5t-38 27.5q-57 0 -57 -115q0 -113 57 -113z" />
    <glyph glyph-name="c.superior" horiz-adv-x="254" 
d="M133 430q-113 0 -113 138v43q0 137 113 137q44 0 74 -25t30 -83v-4h-59v4q0 35 -11 50t-34 15q-32 0 -40 -27.5t-8 -76.5v-25q0 -49 8 -76.5t40 -27.5q23 0 34 15.5t11 50.5v4h59v-4q0 -57 -30 -82.5t-74 -25.5z" />
    <glyph glyph-name="d.superior" horiz-adv-x="282" 
d="M111 430q-91 0 -91 138v43q0 137 91 137q28 0 48 -15t28 -37v150h62v-408h-62v44q-8 -22 -28 -37t-48 -15zM131 476q31 0 44.5 28t13.5 85t-13.5 86t-44.5 29q-28 0 -37 -27.5t-9 -79.5v-16q0 -53 9 -79t37 -26z" />
    <glyph glyph-name="e.superior" horiz-adv-x="264" 
d="M133 430q-58 0 -85.5 35.5t-27.5 101.5v46q0 67 27.5 101t86.5 34q62 0 86.5 -36t24.5 -108v-20h-162v-8q0 -49 9.5 -76.5t41.5 -27.5q22 0 34.5 14.5t12.5 48.5v1h60v-2q0 -27 -9 -47t-24 -32.5t-34.5 -18.5t-40.5 -6zM83 620h104v5q0 41 -10.5 61t-41.5 20t-41.5 -21
t-10.5 -61v-4z" />
    <glyph glyph-name="f.superior" horiz-adv-x="158" 
d="M41 699h-39v41h39v30q0 46 19.5 61t65.5 15h31v-40h-18q-22 0 -29 -7t-7 -30v-29h54v-41h-54v-261h-62v261z" />
    <glyph glyph-name="g.superior" horiz-adv-x="283" 
d="M136 332q-51 0 -77 24.5t-26 67.5v1h57v-1q0 -23 11.5 -35.5t35.5 -12.5q28 0 40 15t12 57v50q-8 -22 -25.5 -36.5t-45.5 -14.5q-45 0 -71.5 33t-26.5 99v36q0 69 26.5 101t71.5 32q28 0 45.5 -15.5t25.5 -36.5v44h62v-281q0 -64 -26.5 -95.5t-88.5 -31.5zM133 492
q32 0 45 25.5t13 76.5q0 56 -13 83t-45 27q-29 0 -38.5 -26t-9.5 -74v-9q0 -50 9.5 -76.5t38.5 -26.5z" />
    <glyph glyph-name="h.superior" horiz-adv-x="273" 
d="M31 846h63v-150q9 23 28.5 37.5t48.5 14.5q42 0 58.5 -24.5t16.5 -81.5v-204h-62v183q0 38 -6.5 60.5t-31.5 22.5q-29 0 -40.5 -28t-11.5 -73v-165h-63v408z" />
    <glyph glyph-name="i.superior" horiz-adv-x="127" 
d="M31 740h63v-302h-63v302zM31 846h63v-66h-63v66z" />
    <glyph glyph-name="j.superior" horiz-adv-x="128" 
d="M-11 380h14q21 0 25.5 9.5t4.5 36.5v314h64v-313q0 -53 -20 -70.5t-68 -17.5h-20v41zM33 846h64v-66h-64v66z" />
    <glyph glyph-name="k.superior" horiz-adv-x="246" 
d="M32 846h60v-224l90 118h58l-75 -102l84 -200h-58l-64 148l-35 -47v-101h-60v408z" />
    <glyph glyph-name="l.superior" horiz-adv-x="127" 
d="M31 846h63v-408h-63v408z" />
    <glyph glyph-name="m.superior" horiz-adv-x="413" 
d="M31 740h63v-46q9 23 28 37.5t45 14.5q30 0 46 -14t22 -43q22 57 77 57q43 0 58.5 -26.5t15.5 -82.5v-199h-62v182q0 36 -6 59t-29 23q-26 0 -37 -24t-11 -65v-175h-64v191q0 33 -5 53t-28 20q-28 0 -39 -27.5t-11 -73.5v-163h-63v302z" />
    <glyph glyph-name="uni207F" unicode="&#x207f;" horiz-adv-x="273" 
d="M31 740h63v-44q9 23 28.5 37.5t48.5 14.5q42 0 58.5 -24.5t16.5 -81.5v-204h-62v183q0 38 -6.5 60.5t-31.5 22.5q-29 0 -40.5 -28t-11.5 -73v-165h-63v302z" />
    <glyph glyph-name="o.superior" horiz-adv-x="268" 
d="M134 472q32 0 40 28t8 78v23q0 49 -8 77t-40 28t-40.5 -28t-8.5 -77v-23q0 -50 8.5 -78t40.5 -28zM134 430q-59 0 -86.5 34.5t-27.5 103.5v43q0 69 27.5 103.5t86.5 34.5t86 -34.5t27 -103.5v-43q0 -69 -27 -103.5t-86 -34.5z" />
    <glyph glyph-name="p.superior" horiz-adv-x="281" 
d="M31 740h63v-44q8 22 28 37t47 15q48 0 69.5 -34t21.5 -103v-43q0 -69 -21.5 -103.5t-69.5 -34.5q-27 0 -47 15t-28 37v-143h-63v401zM149 476q29 0 38 26t9 79v16q0 52 -9 79.5t-38 27.5q-57 0 -57 -115q0 -113 57 -113z" />
    <glyph glyph-name="q.superior" horiz-adv-x="281" 
d="M187 482q-8 -22 -28 -37t-48 -15q-91 0 -91 138v43q0 137 91 137q28 0 48 -15t28 -37v44h62v-401h-62v143zM131 476q31 0 44.5 28t13.5 85t-13.5 86t-44.5 29q-28 0 -37 -27.5t-9 -79.5v-16q0 -53 9 -79t37 -26z" />
    <glyph glyph-name="r.superior" horiz-adv-x="170" 
d="M30 740h62v-61q7 26 22 43.5t47 17.5h11v-59h-20q-34 0 -46.5 -18t-12.5 -66v-159h-63v302z" />
    <glyph glyph-name="s.superior" horiz-adv-x="246" 
d="M127 430q-53 0 -81.5 27.5t-28.5 76.5v1h57v-1q0 -61 53 -61q20 0 33.5 9.5t13.5 30.5q0 20 -9 31t-31 20l-45 17q-32 11 -50 30t-18 54q0 44 28.5 63.5t72.5 19.5q20 0 38.5 -5.5t33 -16.5t23 -29t8.5 -42v-2h-57v2q0 29 -15 39.5t-34 10.5q-17 0 -29 -8.5t-12 -27.5
q0 -17 8 -26t26 -17l42 -17q18 -7 32.5 -14.5t24.5 -17.5t15.5 -24t5.5 -34q0 -47 -31 -68t-74 -21z" />
    <glyph glyph-name="t.superior" horiz-adv-x="160" 
d="M108 438q-42 0 -56 17t-14 59v185h-38v41h38v79h63v-79h52v-41h-52v-178q0 -27 6.5 -34.5t27.5 -7.5h18v-41h-45z" />
    <glyph glyph-name="u.superior" horiz-adv-x="268" 
d="M104 430q-44 0 -60 27.5t-16 82.5v200h63v-183q0 -36 6 -58.5t29 -22.5q26 0 37 27.5t11 72.5v164h63v-302h-62v45q-8 -23 -26 -38t-45 -15z" />
    <glyph glyph-name="v.superior" horiz-adv-x="231" 
d="M3 740h62l51 -238l54 238h58l-77 -302h-74z" />
    <glyph glyph-name="w.superior" horiz-adv-x="329" 
d="M12 740h53l30 -234l43 234h54l43 -234l30 234h53l-46 -302h-64l-43 243l-42 -243h-65z" />
    <glyph glyph-name="x.superior" horiz-adv-x="230" 
d="M113 541l-58 -103h-56l87 154l-81 148h63l49 -92l52 92h56l-80 -143l86 -159h-61z" />
    <glyph glyph-name="y.superior" horiz-adv-x="229" 
d="M22 380h20q20 0 28.5 7.5t14.5 33.5l3 17l-85 302h62l54 -238l50 238h57l-77 -304q-7 -30 -14.5 -49t-18.5 -29.5t-26.5 -14.5t-39.5 -4h-28v41z" />
    <glyph glyph-name="z.superior" horiz-adv-x="256" 
d="M27 478l131 221h-117v41h184v-40l-132 -221h135v-41h-201v40z" />
    <glyph glyph-name="uni2074" unicode="&#x2074;" horiz-adv-x="295" 
d="M170 541h-159v45l157 260h60v-255h49v-50h-49v-103h-58v103zM170 591v175l-111 -175h111z" />
    <glyph glyph-name="uni2075" unicode="&#x2075;" horiz-adv-x="282" 
d="M139 430q-52 0 -84 28t-32 86v2h60v-2q0 -33 13 -52t43 -19q31 0 44 23t13 63v23q0 41 -13.5 63.5t-42.5 22.5q-22 0 -35 -12.5t-20 -34.5l-56 2l21 223h201v-49h-153l-12 -128q8 17 27.5 30t47.5 13q100 0 100 -127v-28q0 -127 -122 -127z" />
    <glyph glyph-name="uni2076" unicode="&#x2076;" horiz-adv-x="296" 
d="M153 661q-28 0 -43 -22.5t-15 -63.5v-15q0 -42 15 -64.5t43 -22.5q59 0 59 86v16q0 42 -15 64t-44 22zM160 853q57 0 82.5 -30t25.5 -78v-3h-60v3q0 65 -49 65q-38 0 -50.5 -35t-12.5 -102v-17q7 18 26 33.5t51 15.5q49 0 76.5 -31.5t27.5 -95.5v-20q0 -65 -31 -96.5
t-88 -31.5q-66 0 -95.5 39t-29.5 130v56q0 49 6 86t20 62t38.5 37.5t62.5 12.5z" />
    <glyph glyph-name="uni2077" unicode="&#x2077;" horiz-adv-x="232" 
d="M43 438q5 116 38 204.5t99 154.5h-176v49h230v-49q-35 -35 -58.5 -74t-38 -83t-21.5 -94t-9 -108h-64z" />
    <glyph glyph-name="uni2078" unicode="&#x2078;" horiz-adv-x="305" 
d="M153 430q-61 0 -95 28t-34 94q0 46 21 70t48 34q-19 7 -39 29t-20 63q0 58 33.5 81.5t85.5 23.5q51 0 84.5 -23.5t33.5 -81.5q0 -41 -19.5 -63t-38.5 -29q27 -10 48 -34t21 -70q0 -66 -34 -94t-95 -28zM153 473q33 0 49 20.5t16 55.5v7q0 35 -16 55t-49 20t-49.5 -20
t-16.5 -55v-7q0 -35 16.5 -55.5t49.5 -20.5zM153 673q30 0 42 17t12 49v5q0 32 -12 49t-42 17t-42.5 -17t-12.5 -49v-5q0 -32 13 -49t42 -17z" />
    <glyph glyph-name="uni2079" unicode="&#x2079;" horiz-adv-x="302" 
d="M144 430q-57 0 -82.5 30t-25.5 78v3h60v-3q0 -65 49 -65q38 0 50.5 35t12.5 102v17q-7 -18 -26 -33.5t-51 -15.5q-49 0 -76.5 31.5t-27.5 95.5v20q0 65 31 96.5t88 31.5q66 0 95.5 -39t29.5 -130v-56q0 -49 -6 -86t-20 -62t-39 -37.5t-62 -12.5zM151 622q28 0 43 22.5
t15 63.5v15q0 42 -15 64.5t-43 22.5q-59 0 -59 -86v-16q0 -42 15 -64t44 -22z" />
    <glyph glyph-name="uni2070" unicode="&#x2070;" horiz-adv-x="312" 
d="M156 473q21 0 33.5 10.5t18.5 30t7.5 48t1.5 65.5v29q0 37 -1.5 65.5t-7.5 48t-18.5 30t-33.5 10.5t-33 -10.5t-18.5 -30t-8 -48t-1.5 -65.5v-29q0 -37 1.5 -65.5t8 -48t18.5 -30t33 -10.5zM156 430q-72 0 -99 45t-27 140v53q0 95 27 140t99 45t99 -45t27 -140v-53
q0 -95 -27 -140t-99 -45z" />
    <glyph glyph-name="uni2070.aalt" horiz-adv-x="312" 
d="M156 430q-72 0 -99 45t-27 140v53q0 95 27 140t99 45q71 0 98.5 -45t27.5 -140v-53q0 -95 -27.5 -140t-98.5 -45zM156 473q21 0 33 10.5t18.5 30t8 48t1.5 65.5v22l-124 -59q2 -57 13.5 -87t49.5 -30zM93 637l123 60q-2 54 -13.5 83.5t-46.5 29.5q-21 0 -33.5 -10.5
t-19 -30t-8.5 -48t-2 -65.5v-19z" />
    <glyph glyph-name="period.superior" horiz-adv-x="146" 
d="M40 515h81v-77h-81v77z" />
    <glyph glyph-name="hyphen.superior" horiz-adv-x="231" 
d="M27 614h178v-51h-178v51z" />
    <glyph glyph-name="comma.superior" horiz-adv-x="169" 
d="M81 438h-36v80h83v-87l-44 -84h-43z" />
    <glyph glyph-name="uni207C" unicode="&#x207c;" horiz-adv-x="315" 
d="M27 556h250v-54h-250v54zM27 676h250v-54h-250v54z" />
    <glyph glyph-name="uni207A" unicode="&#x207a;" horiz-adv-x="337" 
d="M141 561h-121v54h121v123h55v-123h120v-54h-120v-123h-55v123z" />
    <glyph glyph-name="uni207B" unicode="&#x207b;" horiz-adv-x="322" 
d="M20 615h291v-54h-291v54z" />
    <glyph glyph-name="uni207D" unicode="&#x207d;" horiz-adv-x="140" 
d="M93 334q-12 19 -25.5 45.5t-24.5 59.5t-18 71.5t-7 79.5t7 78.5t18 70.5t24.5 60t25.5 47h52q-29 -48 -48.5 -113t-19.5 -143q0 -79 19.5 -144t48.5 -112h-52z" />
    <glyph glyph-name="uni207E" unicode="&#x207e;" horiz-adv-x="140" 
d="M-5 334q29 47 48 112t19 144q0 78 -19 143t-48 113h52q13 -20 26 -47t23.5 -60t17.5 -70.5t7 -78.5t-7 -79.5t-17.5 -71.5t-23.5 -59.5t-26 -45.5h-52z" />
    <glyph glyph-name="a.inferior" horiz-adv-x="258" 
d="M96 -136q-38 0 -59.5 23.5t-21.5 62.5v7q0 33 24 55q21 20 72 35l57 21v26q0 26 -10.5 37t-33.5 11t-35 -11.5t-12 -40.5v-6h-57v6q0 48 28 70.5t77 22.5q24 0 43.5 -4t33 -15t21 -30.5t7.5 -51.5v-21q0 -17 -0.5 -36.5t-0.5 -36.5v-19q0 -34 1 -55.5t3 -41.5h-58l-1 41
q-11 -24 -29.5 -36.5t-48.5 -12.5zM118 -95q23 0 37.5 17.5t14.5 61.5v48q-2 -1 -8 -3.5t-12.5 -5.5t-13 -5t-8.5 -3q-26 -9 -38 -21t-12 -35v-6q0 -23 10 -35.5t30 -12.5z" />
    <glyph glyph-name="b.inferior" horiz-adv-x="280" 
d="M169 -136q-27 0 -47 15t-28 37v-44h-63v408h63v-150q8 22 28 37t47 15q48 0 69.5 -34t21.5 -103v-43q0 -69 -21.5 -103.5t-69.5 -34.5zM149 -90q29 0 38 26t9 79v16q0 52 -9 79.5t-38 27.5q-57 0 -57 -115q0 -113 57 -113z" />
    <glyph glyph-name="c.inferior" horiz-adv-x="254" 
d="M133 -136q-113 0 -113 138v43q0 137 113 137q44 0 74 -25t30 -83v-4h-59v4q0 35 -11 50t-34 15q-32 0 -40 -27.5t-8 -76.5v-25q0 -49 8 -76.5t40 -27.5q23 0 34 15.5t11 50.5v4h59v-4q0 -57 -30 -82.5t-74 -25.5z" />
    <glyph glyph-name="d.inferior" horiz-adv-x="282" 
d="M111 -136q-91 0 -91 138v43q0 137 91 137q28 0 48 -15t28 -37v150h62v-408h-62v44q-8 -22 -28 -37t-48 -15zM131 -90q31 0 44.5 28t13.5 85t-13.5 86t-44.5 29q-28 0 -37 -27.5t-9 -79.5v-16q0 -53 9 -79t37 -26z" />
    <glyph glyph-name="e.inferior" horiz-adv-x="264" 
d="M133 -136q-58 0 -85.5 35.5t-27.5 101.5v46q0 67 27.5 101t86.5 34q62 0 86.5 -36t24.5 -108v-20h-162v-8q0 -49 9.5 -76.5t41.5 -27.5q22 0 34.5 14.5t12.5 48.5v1h60v-2q0 -27 -9 -47t-24 -32.5t-34.5 -18.5t-40.5 -6zM83 54h104v5q0 41 -10.5 61t-41.5 20t-41.5 -21
t-10.5 -61v-4z" />
    <glyph glyph-name="f.inferior" horiz-adv-x="158" 
d="M41 133h-39v41h39v30q0 46 19.5 61t65.5 15h31v-40h-18q-22 0 -29 -7t-7 -30v-29h54v-41h-54v-261h-62v261z" />
    <glyph glyph-name="g.inferior" horiz-adv-x="283" 
d="M136 -234q-51 0 -77 24.5t-26 67.5v1h57v-1q0 -23 11.5 -35.5t35.5 -12.5q28 0 40 15t12 57v50q-8 -22 -25.5 -36.5t-45.5 -14.5q-45 0 -71.5 33t-26.5 99v36q0 69 26.5 101t71.5 32q28 0 45.5 -15.5t25.5 -36.5v44h62v-281q0 -64 -26.5 -95.5t-88.5 -31.5zM133 -74
q32 0 45 25.5t13 76.5q0 56 -13 83t-45 27q-29 0 -38.5 -26t-9.5 -74v-9q0 -50 9.5 -76.5t38.5 -26.5z" />
    <glyph glyph-name="h.inferior" horiz-adv-x="273" 
d="M31 280h63v-150q9 23 28.5 37.5t48.5 14.5q42 0 58.5 -24.5t16.5 -81.5v-204h-62v183q0 38 -6.5 60.5t-31.5 22.5q-29 0 -40.5 -28t-11.5 -73v-165h-63v408z" />
    <glyph glyph-name="i.inferior" horiz-adv-x="127" 
d="M31 174h63v-302h-63v302zM31 280h63v-66h-63v66z" />
    <glyph glyph-name="j.inferior" horiz-adv-x="128" 
d="M-11 -186h14q21 0 25.5 9.5t4.5 36.5v314h64v-313q0 -53 -20 -70.5t-68 -17.5h-20v41zM33 280h64v-66h-64v66z" />
    <glyph glyph-name="k.inferior" horiz-adv-x="246" 
d="M32 280h60v-224l90 118h58l-75 -102l84 -200h-58l-64 148l-35 -47v-101h-60v408z" />
    <glyph glyph-name="l.inferior" horiz-adv-x="127" 
d="M31 280h63v-408h-63v408z" />
    <glyph glyph-name="m.inferior" horiz-adv-x="413" 
d="M31 174h63v-46q9 23 28 37.5t45 14.5q30 0 46 -14t22 -43q22 57 77 57q43 0 58.5 -26.5t15.5 -82.5v-199h-62v182q0 36 -6 59t-29 23q-26 0 -37 -24t-11 -65v-175h-64v191q0 33 -5 53t-28 20q-28 0 -39 -27.5t-11 -73.5v-163h-63v302z" />
    <glyph glyph-name="n.inferior" horiz-adv-x="273" 
d="M31 174h63v-44q9 23 28.5 37.5t48.5 14.5q42 0 58.5 -24.5t16.5 -81.5v-204h-62v183q0 38 -6.5 60.5t-31.5 22.5q-29 0 -40.5 -28t-11.5 -73v-165h-63v302z" />
    <glyph glyph-name="o.inferior" horiz-adv-x="268" 
d="M134 -94q32 0 40 28t8 78v23q0 49 -8 77t-40 28t-40.5 -28t-8.5 -77v-23q0 -50 8.5 -78t40.5 -28zM134 -136q-59 0 -86.5 34.5t-27.5 103.5v43q0 69 27.5 103.5t86.5 34.5t86 -34.5t27 -103.5v-43q0 -69 -27 -103.5t-86 -34.5z" />
    <glyph glyph-name="p.inferior" horiz-adv-x="281" 
d="M31 174h63v-44q8 22 28 37t47 15q48 0 69.5 -34t21.5 -103v-43q0 -69 -21.5 -103.5t-69.5 -34.5q-27 0 -47 15t-28 37v-143h-63v401zM149 -90q29 0 38 26t9 79v16q0 52 -9 79.5t-38 27.5q-57 0 -57 -115q0 -113 57 -113z" />
    <glyph glyph-name="q.inferior" horiz-adv-x="281" 
d="M187 -84q-8 -22 -28 -37t-48 -15q-91 0 -91 138v43q0 137 91 137q28 0 48 -15t28 -37v44h62v-401h-62v143zM131 -90q31 0 44.5 28t13.5 85t-13.5 86t-44.5 29q-28 0 -37 -27.5t-9 -79.5v-16q0 -53 9 -79t37 -26z" />
    <glyph glyph-name="r.inferior" horiz-adv-x="170" 
d="M30 174h62v-61q7 26 22 43.5t47 17.5h11v-59h-20q-34 0 -46.5 -18t-12.5 -66v-159h-63v302z" />
    <glyph glyph-name="s.inferior" horiz-adv-x="246" 
d="M127 -136q-53 0 -81.5 27.5t-28.5 76.5v1h57v-1q0 -61 53 -61q20 0 33.5 9.5t13.5 30.5q0 20 -9 31t-31 20l-45 17q-32 11 -50 30t-18 54q0 44 28.5 63.5t72.5 19.5q20 0 38.5 -5.5t33 -16.5t23 -29t8.5 -42v-2h-57v2q0 29 -15 39.5t-34 10.5q-17 0 -29 -8.5t-12 -27.5
q0 -17 8 -26t26 -17l42 -17q18 -7 32.5 -14.5t24.5 -17.5t15.5 -24t5.5 -34q0 -47 -31 -68t-74 -21z" />
    <glyph glyph-name="t.inferior" horiz-adv-x="160" 
d="M108 -128q-42 0 -56 17t-14 59v185h-38v41h38v79h63v-79h52v-41h-52v-178q0 -27 6.5 -34.5t27.5 -7.5h18v-41h-45z" />
    <glyph glyph-name="u.inferior" horiz-adv-x="268" 
d="M104 -136q-44 0 -60 27.5t-16 82.5v200h63v-183q0 -36 6 -58.5t29 -22.5q26 0 37 27.5t11 72.5v164h63v-302h-62v45q-8 -23 -26 -38t-45 -15z" />
    <glyph glyph-name="v.inferior" horiz-adv-x="231" 
d="M3 174h62l51 -238l54 238h58l-77 -302h-74z" />
    <glyph glyph-name="w.inferior" horiz-adv-x="329" 
d="M12 174h53l30 -234l43 234h54l43 -234l30 234h53l-46 -302h-64l-43 243l-42 -243h-65z" />
    <glyph glyph-name="x.inferior" horiz-adv-x="230" 
d="M113 -25l-58 -103h-56l87 154l-81 148h63l49 -92l52 92h56l-80 -143l86 -159h-61z" />
    <glyph glyph-name="y.inferior" horiz-adv-x="229" 
d="M22 -186h20q20 0 28.5 7.5t14.5 33.5l3 17l-85 302h62l54 -238l50 238h57l-77 -304q-7 -30 -14.5 -49t-18.5 -29.5t-26.5 -14.5t-39.5 -4h-28v41z" />
    <glyph glyph-name="z.inferior" horiz-adv-x="256" 
d="M27 -88l131 221h-117v41h184v-40l-132 -221h135v-41h-201v40z" />
    <glyph glyph-name="uni2081" unicode="&#x2081;" horiz-adv-x="214" 
d="M104 186h-74v41q26 0 41.5 1.5t24 6.5t12.5 15.5t8 29.5h50v-408h-62v314z" />
    <glyph glyph-name="uni2082" unicode="&#x2082;" horiz-adv-x="277" 
d="M22 -81l45 57q27 34 49.5 63t39 54.5t25.5 48t9 43.5q0 59 -53 59q-52 0 -52 -81v-4h-61v4q0 60 29 92t88 32q52 0 82 -24t30 -75q0 -49 -34 -101t-87 -119l-37 -48h159v-48h-232v47z" />
    <glyph glyph-name="uni2083" unicode="&#x2083;" horiz-adv-x="292" 
d="M136 -136q-53 0 -83.5 28t-30.5 86v2h59v-2q0 -32 12.5 -51.5t43.5 -19.5q38 0 51 22.5t13 54.5q0 35 -16.5 56t-61.5 21h-22v44h21q35 0 50.5 18t15.5 53q0 32 -12.5 50t-41.5 18q-28 0 -39 -16.5t-11 -51.5v-2h-59v2q0 58 30.5 84.5t81.5 26.5q24 0 45 -5t36.5 -17.5
t24 -32.5t8.5 -50q0 -40 -18 -63t-44 -31q35 -9 55.5 -34.5t20.5 -68.5q0 -64 -33.5 -92.5t-95.5 -28.5z" />
    <glyph glyph-name="uni2084" unicode="&#x2084;" horiz-adv-x="295" 
d="M170 -25h-159v45l157 260h60v-255h49v-50h-49v-103h-58v103zM170 25v175l-111 -175h111z" />
    <glyph glyph-name="uni2085" unicode="&#x2085;" horiz-adv-x="282" 
d="M139 -136q-52 0 -84 28t-32 86v2h60v-2q0 -33 13 -52t43 -19q31 0 44 23t13 63v23q0 41 -13.5 63.5t-42.5 22.5q-22 0 -35 -12.5t-20 -34.5l-56 2l21 223h201v-49h-153l-12 -128q8 17 27.5 30t47.5 13q100 0 100 -127v-28q0 -127 -122 -127z" />
    <glyph glyph-name="uni2086" unicode="&#x2086;" horiz-adv-x="296" 
d="M153 95q-28 0 -43 -22.5t-15 -63.5v-15q0 -42 15 -64.5t43 -22.5q59 0 59 86v16q0 42 -15 64t-44 22zM160 287q57 0 82.5 -30t25.5 -78v-3h-60v3q0 65 -49 65q-38 0 -50.5 -35t-12.5 -102v-17q7 18 26 33.5t51 15.5q49 0 76.5 -31.5t27.5 -95.5v-20q0 -65 -31 -96.5
t-88 -31.5q-66 0 -95.5 39t-29.5 130v56q0 49 6 86t20 62t38.5 37.5t62.5 12.5z" />
    <glyph glyph-name="uni2087" unicode="&#x2087;" horiz-adv-x="232" 
d="M43 -128q5 116 38 204.5t99 154.5h-176v49h230v-49q-35 -35 -58.5 -74t-38 -83t-21.5 -94t-9 -108h-64z" />
    <glyph glyph-name="uni2088" unicode="&#x2088;" horiz-adv-x="305" 
d="M153 -136q-61 0 -95 28t-34 94q0 46 21 70t48 34q-19 7 -39 29t-20 63q0 58 33.5 81.5t85.5 23.5q51 0 84.5 -23.5t33.5 -81.5q0 -41 -19.5 -63t-38.5 -29q27 -10 48 -34t21 -70q0 -66 -34 -94t-95 -28zM153 -93q33 0 49 20.5t16 55.5v7q0 35 -16 55t-49 20t-49.5 -20
t-16.5 -55v-7q0 -35 16.5 -55.5t49.5 -20.5zM153 107q30 0 42 17t12 49v5q0 32 -12 49t-42 17t-42.5 -17t-12.5 -49v-5q0 -32 13 -49t42 -17z" />
    <glyph glyph-name="uni2089" unicode="&#x2089;" horiz-adv-x="302" 
d="M144 -136q-57 0 -82.5 30t-25.5 78v3h60v-3q0 -65 49 -65q38 0 50.5 35t12.5 102v17q-7 -18 -26 -33.5t-51 -15.5q-49 0 -76.5 31.5t-27.5 95.5v20q0 65 31 96.5t88 31.5q66 0 95.5 -39t29.5 -130v-56q0 -49 -6 -86t-20 -62t-39 -37.5t-62 -12.5zM151 56q28 0 43 22.5
t15 63.5v15q0 42 -15 64.5t-43 22.5q-59 0 -59 -86v-16q0 -42 15 -64t44 -22z" />
    <glyph glyph-name="uni2080" unicode="&#x2080;" horiz-adv-x="312" 
d="M156 -93q21 0 33.5 10.5t18.5 30t7.5 48t1.5 65.5v29q0 37 -1.5 65.5t-7.5 48t-18.5 30t-33.5 10.5t-33 -10.5t-18.5 -30t-8 -48t-1.5 -65.5v-29q0 -37 1.5 -65.5t8 -48t18.5 -30t33 -10.5zM156 -136q-72 0 -99 45t-27 140v53q0 95 27 140t99 45t99 -45t27 -140v-53
q0 -95 -27 -140t-99 -45z" />
    <glyph glyph-name="uni2080.aalt" horiz-adv-x="312" 
d="M156 -136q-72 0 -99 45t-27 140v53q0 95 27 140t99 45q71 0 98.5 -45t27.5 -140v-53q0 -95 -27.5 -140t-98.5 -45zM156 -93q21 0 33 10.5t18.5 30t8 48t1.5 65.5v22l-124 -59q2 -57 13.5 -87t49.5 -30zM93 71l123 60q-2 54 -13.5 83.5t-46.5 29.5q-21 0 -33.5 -10.5
t-19 -30t-8.5 -48t-2 -65.5v-19z" />
    <glyph glyph-name="period.inferior" horiz-adv-x="146" 
d="M40 -51h81v-77h-81v77z" />
    <glyph glyph-name="hyphen.inferior" horiz-adv-x="231" 
d="M27 48h178v-51h-178v51z" />
    <glyph glyph-name="comma.inferior" horiz-adv-x="169" 
d="M81 -128h-36v80h83v-87l-44 -84h-43z" />
    <glyph glyph-name="equal.inferior" horiz-adv-x="315" 
d="M27 -10h250v-54h-250v54zM27 110h250v-54h-250v54z" />
    <glyph glyph-name="plus.inferior" horiz-adv-x="337" 
d="M141 -5h-121v54h121v123h55v-123h120v-54h-120v-123h-55v123z" />
    <glyph glyph-name="minus.inferior" horiz-adv-x="322" 
d="M20 49h291v-54h-291v54z" />
    <glyph glyph-name="uni208D" unicode="&#x208d;" horiz-adv-x="140" 
d="M93 -232q-12 19 -25.5 45.5t-24.5 59.5t-18 71.5t-7 79.5t7 78.5t18 70.5t24.5 60t25.5 47h52q-29 -48 -48.5 -113t-19.5 -143q0 -79 19.5 -144t48.5 -112h-52z" />
    <glyph glyph-name="uni208E" unicode="&#x208e;" horiz-adv-x="140" 
d="M-5 -232q29 47 48 112t19 144q0 78 -19 143t-48 113h52q13 -20 26 -47t23.5 -60t17.5 -70.5t7 -78.5t-7 -79.5t-17.5 -71.5t-23.5 -59.5t-26 -45.5h-52z" />
    <glyph glyph-name="one.numr" horiz-adv-x="214" 
d="M104 631h-74v41q26 0 41.5 1.5t24 6.5t12.5 15.5t8 29.5h50v-408h-62v314z" />
    <glyph glyph-name="two.numr" horiz-adv-x="277" 
d="M22 364l45 57q27 34 49.5 63t39 54.5t25.5 48t9 43.5q0 59 -53 59q-52 0 -52 -81v-4h-61v4q0 60 29 92t88 32q52 0 82 -24t30 -75q0 -49 -34 -101t-87 -119l-37 -48h159v-48h-232v47z" />
    <glyph glyph-name="three.numr" horiz-adv-x="292" 
d="M136 309q-53 0 -83.5 28t-30.5 86v2h59v-2q0 -32 12.5 -51.5t43.5 -19.5q38 0 51 22.5t13 54.5q0 35 -16.5 56t-61.5 21h-22v44h21q35 0 50.5 18t15.5 53q0 32 -12.5 50t-41.5 18q-28 0 -39 -16.5t-11 -51.5v-2h-59v2q0 58 30.5 84.5t81.5 26.5q24 0 45 -5t36.5 -17.5
t24 -32.5t8.5 -50q0 -40 -18 -63t-44 -31q35 -9 55.5 -34.5t20.5 -68.5q0 -64 -33.5 -92.5t-95.5 -28.5z" />
    <glyph glyph-name="four.numr" horiz-adv-x="295" 
d="M170 420h-159v45l157 260h60v-255h49v-50h-49v-103h-58v103zM170 470v175l-111 -175h111z" />
    <glyph glyph-name="five.numr" horiz-adv-x="282" 
d="M139 309q-52 0 -84 28t-32 86v2h60v-2q0 -33 13 -52t43 -19q31 0 44 23t13 63v23q0 41 -13.5 63.5t-42.5 22.5q-22 0 -35 -12.5t-20 -34.5l-56 2l21 223h201v-49h-153l-12 -128q8 17 27.5 30t47.5 13q100 0 100 -127v-28q0 -127 -122 -127z" />
    <glyph glyph-name="six.numr" horiz-adv-x="296" 
d="M153 540q-28 0 -43 -22.5t-15 -63.5v-15q0 -42 15 -64.5t43 -22.5q59 0 59 86v16q0 42 -15 64t-44 22zM160 732q57 0 82.5 -30t25.5 -78v-3h-60v3q0 65 -49 65q-38 0 -50.5 -35t-12.5 -102v-17q7 18 26 33.5t51 15.5q49 0 76.5 -31.5t27.5 -95.5v-20q0 -65 -31 -96.5
t-88 -31.5q-66 0 -95.5 39t-29.5 130v56q0 49 6 86t20 62t38.5 37.5t62.5 12.5z" />
    <glyph glyph-name="seven.numr" horiz-adv-x="232" 
d="M43 317q5 116 38 204.5t99 154.5h-176v49h230v-49q-35 -35 -58.5 -74t-38 -83t-21.5 -94t-9 -108h-64z" />
    <glyph glyph-name="eight.numr" horiz-adv-x="305" 
d="M153 309q-61 0 -95 28t-34 94q0 46 21 70t48 34q-19 7 -39 29t-20 63q0 58 33.5 81.5t85.5 23.5q51 0 84.5 -23.5t33.5 -81.5q0 -41 -19.5 -63t-38.5 -29q27 -10 48 -34t21 -70q0 -66 -34 -94t-95 -28zM153 352q33 0 49 20.5t16 55.5v7q0 35 -16 55t-49 20t-49.5 -20
t-16.5 -55v-7q0 -35 16.5 -55.5t49.5 -20.5zM153 552q30 0 42 17t12 49v5q0 32 -12 49t-42 17t-42.5 -17t-12.5 -49v-5q0 -32 13 -49t42 -17z" />
    <glyph glyph-name="nine.numr" horiz-adv-x="302" 
d="M144 309q-57 0 -82.5 30t-25.5 78v3h60v-3q0 -65 49 -65q38 0 50.5 35t12.5 102v17q-7 -18 -26 -33.5t-51 -15.5q-49 0 -76.5 31.5t-27.5 95.5v20q0 65 31 96.5t88 31.5q66 0 95.5 -39t29.5 -130v-56q0 -49 -6 -86t-20 -62t-39 -37.5t-62 -12.5zM151 501q28 0 43 22.5
t15 63.5v15q0 42 -15 64.5t-43 22.5q-59 0 -59 -86v-16q0 -42 15 -64t44 -22z" />
    <glyph glyph-name="zero.numr" horiz-adv-x="312" 
d="M156 352q21 0 33.5 10.5t18.5 30t7.5 48t1.5 65.5v29q0 37 -1.5 65.5t-7.5 48t-18.5 30t-33.5 10.5t-33 -10.5t-18.5 -30t-8 -48t-1.5 -65.5v-29q0 -37 1.5 -65.5t8 -48t18.5 -30t33 -10.5zM156 309q-72 0 -99 45t-27 140v53q0 95 27 140t99 45t99 -45t27 -140v-53
q0 -95 -27 -140t-99 -45z" />
    <glyph glyph-name="zero.numr.zero" horiz-adv-x="312" 
d="M156 309q-72 0 -99 45t-27 140v53q0 95 27 140t99 45q71 0 98.5 -45t27.5 -140v-53q0 -95 -27.5 -140t-98.5 -45zM156 352q21 0 33 10.5t18.5 30t8 48t1.5 65.5v22l-124 -59q2 -57 13.5 -87t49.5 -30zM93 516l123 60q-2 54 -13.5 83.5t-46.5 29.5q-21 0 -33.5 -10.5
t-19 -30t-8.5 -48t-2 -65.5v-19z" />
    <glyph glyph-name="one.dnom" horiz-adv-x="214" 
d="M104 314h-74v41q26 0 41.5 1.5t24 6.5t12.5 15.5t8 29.5h50v-408h-62v314z" />
    <glyph glyph-name="two.dnom" horiz-adv-x="277" 
d="M22 47l45 57q27 34 49.5 63t39 54.5t25.5 48t9 43.5q0 59 -53 59q-52 0 -52 -81v-4h-61v4q0 60 29 92t88 32q52 0 82 -24t30 -75q0 -49 -34 -101t-87 -119l-37 -48h159v-48h-232v47z" />
    <glyph glyph-name="three.dnom" horiz-adv-x="292" 
d="M136 -8q-53 0 -83.5 28t-30.5 86v2h59v-2q0 -32 12.5 -51.5t43.5 -19.5q38 0 51 22.5t13 54.5q0 35 -16.5 56t-61.5 21h-22v44h21q35 0 50.5 18t15.5 53q0 32 -12.5 50t-41.5 18q-28 0 -39 -16.5t-11 -51.5v-2h-59v2q0 58 30.5 84.5t81.5 26.5q24 0 45 -5t36.5 -17.5
t24 -32.5t8.5 -50q0 -40 -18 -63t-44 -31q35 -9 55.5 -34.5t20.5 -68.5q0 -64 -33.5 -92.5t-95.5 -28.5z" />
    <glyph glyph-name="four.dnom" horiz-adv-x="295" 
d="M170 103h-159v45l157 260h60v-255h49v-50h-49v-103h-58v103zM170 153v175l-111 -175h111z" />
    <glyph glyph-name="five.dnom" horiz-adv-x="282" 
d="M139 -8q-52 0 -84 28t-32 86v2h60v-2q0 -33 13 -52t43 -19q31 0 44 23t13 63v23q0 41 -13.5 63.5t-42.5 22.5q-22 0 -35 -12.5t-20 -34.5l-56 2l21 223h201v-49h-153l-12 -128q8 17 27.5 30t47.5 13q100 0 100 -127v-28q0 -127 -122 -127z" />
    <glyph glyph-name="six.dnom" horiz-adv-x="296" 
d="M153 223q-28 0 -43 -22.5t-15 -63.5v-15q0 -42 15 -64.5t43 -22.5q59 0 59 86v16q0 42 -15 64t-44 22zM160 415q57 0 82.5 -30t25.5 -78v-3h-60v3q0 65 -49 65q-38 0 -50.5 -35t-12.5 -102v-17q7 18 26 33.5t51 15.5q49 0 76.5 -31.5t27.5 -95.5v-20q0 -65 -31 -96.5
t-88 -31.5q-66 0 -95.5 39t-29.5 130v56q0 49 6 86t20 62t38.5 37.5t62.5 12.5z" />
    <glyph glyph-name="seven.dnom" horiz-adv-x="232" 
d="M43 0q5 116 38 204.5t99 154.5h-176v49h230v-49q-35 -35 -58.5 -74t-38 -83t-21.5 -94t-9 -108h-64z" />
    <glyph glyph-name="eight.dnom" horiz-adv-x="305" 
d="M153 -8q-61 0 -95 28t-34 94q0 46 21 70t48 34q-19 7 -39 29t-20 63q0 58 33.5 81.5t85.5 23.5q51 0 84.5 -23.5t33.5 -81.5q0 -41 -19.5 -63t-38.5 -29q27 -10 48 -34t21 -70q0 -66 -34 -94t-95 -28zM153 35q33 0 49 20.5t16 55.5v7q0 35 -16 55t-49 20t-49.5 -20
t-16.5 -55v-7q0 -35 16.5 -55.5t49.5 -20.5zM153 235q30 0 42 17t12 49v5q0 32 -12 49t-42 17t-42.5 -17t-12.5 -49v-5q0 -32 13 -49t42 -17z" />
    <glyph glyph-name="nine.dnom" horiz-adv-x="302" 
d="M144 -8q-57 0 -82.5 30t-25.5 78v3h60v-3q0 -65 49 -65q38 0 50.5 35t12.5 102v17q-7 -18 -26 -33.5t-51 -15.5q-49 0 -76.5 31.5t-27.5 95.5v20q0 65 31 96.5t88 31.5q66 0 95.5 -39t29.5 -130v-56q0 -49 -6 -86t-20 -62t-39 -37.5t-62 -12.5zM151 184q28 0 43 22.5
t15 63.5v15q0 42 -15 64.5t-43 22.5q-59 0 -59 -86v-16q0 -42 15 -64t44 -22z" />
    <glyph glyph-name="zero.dnom" horiz-adv-x="312" 
d="M156 35q21 0 33.5 10.5t18.5 30t7.5 48t1.5 65.5v29q0 37 -1.5 65.5t-7.5 48t-18.5 30t-33.5 10.5t-33 -10.5t-18.5 -30t-8 -48t-1.5 -65.5v-29q0 -37 1.5 -65.5t8 -48t18.5 -30t33 -10.5zM156 -8q-72 0 -99 45t-27 140v53q0 95 27 140t99 45t99 -45t27 -140v-53
q0 -95 -27 -140t-99 -45z" />
    <glyph glyph-name="zero.dnom.zero" horiz-adv-x="312" 
d="M156 -8q-72 0 -99 45t-27 140v53q0 95 27 140t99 45q71 0 98.5 -45t27.5 -140v-53q0 -95 -27.5 -140t-98.5 -45zM156 35q21 0 33 10.5t18.5 30t8 48t1.5 65.5v22l-124 -59q2 -57 13.5 -87t49.5 -30zM93 199l123 60q-2 54 -13.5 83.5t-46.5 29.5q-21 0 -33.5 -10.5
t-19 -30t-8.5 -48t-2 -65.5v-19z" />
    <glyph glyph-name="ampersand.aalt" horiz-adv-x="612" 
d="M239 -13q-50 0 -89.5 15t-67 42t-42.5 63.5t-15 79.5q0 36 9 64.5t26.5 52.5t43 46t57.5 45l24 17q-19 26 -33.5 48t-24 43.5t-14.5 43.5t-5 48q0 33 12.5 59.5t34 45t51.5 28.5t65 10q33 0 62 -8.5t50 -26t33 -44t12 -62.5q0 -32 -10.5 -58.5t-28.5 -49.5t-42.5 -43.5
t-51.5 -40.5l-2 -2l143 -188q14 33 21.5 78t8.5 106h78q-2 -78 -17 -142t-40 -109l112 -148h-100l-60 78q-75 -91 -200 -91zM248 58q47 0 84 19t62 61l-167 218l-21 -15q-24 -17 -40.5 -33t-27.5 -33.5t-16 -38t-5 -46.5q0 -59 35.5 -95.5t95.5 -36.5zM191 592
q0 -19 3.5 -34.5t11 -30.5t19 -31.5t26.5 -36.5v-1l4 3q18 13 35.5 27.5t30.5 30.5t21 34.5t8 40.5q0 35 -20 56.5t-59 21.5q-35 0 -57.5 -20t-22.5 -60z" />
    <glyph glyph-name="hyphen.case" horiz-adv-x="339" 
d="M50 403h239v-77h-239v77z" />
    <glyph glyph-name="endash.aalt" horiz-adv-x="496" 
d="M34 403h428v-77h-428v77z" />
    <glyph glyph-name="emdash.aalt" horiz-adv-x="725" 
d="M34 403h657v-77h-657v77z" />
    <glyph glyph-name="question.aalt" horiz-adv-x="477" 
d="M167 240q0 37 6 62t19 44t31.5 35t44.5 34q21 15 36 29.5t24.5 31t14.5 36t5 44.5q0 60 -30 87.5t-77 27.5q-62 0 -89.5 -38t-27.5 -111v-8h-96v8q0 107 57 161.5t157 54.5q41 0 77.5 -9.5t64.5 -30.5t44 -55t16 -83q0 -34 -8 -62t-22 -50.5t-32.5 -40.5t-39.5 -33
q-22 -16 -37 -28t-24 -26t-13 -33t-4 -48v-44h-97v45zM160 108h108v-108h-108v108z" />
    <glyph glyph-name="questiondown.aalt" horiz-adv-x="477" 
d="M230 -13q-41 0 -77.5 9.5t-64 30.5t-44 55t-16.5 83q0 34 8 62t22 50.5t32.5 40.5t39.5 32q22 16 37 28t24.5 26t13.5 33t4 49v44h97v-45q0 -37 -6.5 -62t-19 -44.5t-32 -35.5t-44.5 -34q-20 -14 -35 -28.5t-25 -31t-14.5 -36.5t-4.5 -45q0 -60 29.5 -87.5t76.5 -27.5
q62 0 90 38.5t28 111.5v7h95v-7q0 -107 -57 -161.5t-157 -54.5zM203 725h108v-108h-108v108z" />
    <glyph glyph-name="exclam.aalt" horiz-adv-x="272" 
d="M85 524v201h102v-201l-20 -332h-62zM82 108h108v-108h-108v108z" />
    <glyph glyph-name="exclamdown.aalt" horiz-adv-x="272" 
d="M187 201v-201h-102v201l20 332h62zM82 725h108v-108h-108v108z" />
    <glyph glyph-name="guilsinglleft.aalt" horiz-adv-x="172" 
d="M20 320v107l132 145v-107l-84 -92l84 -92v-106z" />
    <glyph glyph-name="guilsinglright.aalt" horiz-adv-x="172" 
d="M20 281l83 92l-83 92v107l132 -145v-107l-132 -145v106z" />
    <glyph glyph-name="guillemotleft.aalt" horiz-adv-x="325" 
d="M173 320v107l132 145v-107l-84 -92l84 -92v-106zM20 320v107l132 145v-107l-84 -92l84 -92v-106z" />
    <glyph glyph-name="guillemotright.aalt" horiz-adv-x="325" 
d="M173 281l83 92l-83 92v107l132 -145v-107l-132 -145v106zM20 281l83 92l-83 92v107l132 -145v-107l-132 -145v106z" />
    <glyph glyph-name="parenleft.case" horiz-adv-x="237" 
d="M155 0q-22 32 -43 72t-37 86t-25.5 97.5t-9.5 107.5q0 55 9.5 106.5t25.5 97.5t37 86t43 72h82q-50 -79 -79.5 -167t-29.5 -195t29.5 -195.5t79.5 -167.5h-82z" />
    <glyph glyph-name="parenright.case" horiz-adv-x="238" 
d="M0 0q51 79 80 168t29 195q0 107 -29 195t-80 167h82q22 -32 43 -72t37 -86t26 -97.5t10 -106.5q0 -56 -10 -107.5t-26 -97.5t-37 -86t-43 -72h-82z" />
    <glyph glyph-name="bracketleft.aalt" horiz-adv-x="251" 
d="M72 725h174v-64h-99v-595h99v-66h-174v725z" />
    <glyph glyph-name="bracketright.aalt" horiz-adv-x="251" 
d="M5 66h97v595h-97v64h174v-725h-174v66z" />
    <glyph glyph-name="braceleft.aalt" horiz-adv-x="267" 
d="M238 0q-43 0 -72 6.5t-47 23t-26 44.5t-8 70v71q0 24 -2.5 44t-10.5 35t-22 24t-38 10v70q24 1 38 9.5t22 23.5t10.5 35.5t2.5 43.5v71q0 42 8 69.5t26 44t47 23.5t72 7h24v-69h-12q-28 0 -44.5 -3.5t-25.5 -12.5t-12 -24.5t-3 -39.5v-76q0 -35 -5.5 -58.5t-16 -39
t-25.5 -24.5t-33 -14v-2q18 -5 33 -14t25.5 -25t16 -40t5.5 -58v-75q0 -24 3 -39.5t12 -25t25.5 -13t44.5 -3.5h12v-69h-24z" />
    <glyph glyph-name="braceright.aalt" horiz-adv-x="266" 
d="M5 0v69h12q28 0 44.5 3.5t25.5 13t12 25t3 39.5v75q0 34 5.5 58t16 40t25 25t32.5 14v2q-18 5 -32.5 14t-25 24.5t-16 39t-5.5 58.5v76q0 24 -3 39.5t-12 24.5t-25.5 12.5t-44.5 3.5h-12v69h24q43 0 72 -7t47 -23.5t25.5 -44t7.5 -69.5v-71q0 -23 2.5 -43.5t10.5 -35.5
t22.5 -23.5t38.5 -9.5v-70q-24 -1 -38.5 -10t-22.5 -24t-10.5 -35t-2.5 -44v-71q0 -42 -7.5 -70t-25.5 -44.5t-47 -23t-72 -6.5h-24z" />
    <glyph glyph-name="bar.aalt" horiz-adv-x="227" 
d="M72 725h83v-725h-83v725z" />
    <glyph glyph-name="brokenbar.aalt" horiz-adv-x="203" 
d="M60 260h83v-260h-83v260zM60 725h83v-260h-83v260z" />
    <glyph glyph-name="periodcentered.aalt" horiz-adv-x="228" 
d="M60 416h108v-108h-108v108z" />
    <glyph glyph-name="bullet.aalt" horiz-adv-x="458" 
d="M225 191q-36 0 -68 14t-56 38.5t-38 58t-14 72.5q0 37 14 69t38 56t56 38t68 14q39 0 73 -14t58.5 -38t38.5 -56t14 -69q0 -39 -14 -72.5t-38.5 -58t-58.5 -38.5t-73 -14z" />
    <glyph glyph-name="plus.case" 
d="M237 328h-209v73h209v232h75v-232h209v-73h-209v-233h-75v233z" />
    <glyph glyph-name="minus.case" 
d="M28 403h493v-79h-493v79z" />
    <glyph glyph-name="divide.aalt" 
d="M225 252h99v-118h-99v118zM39 401h471v-74h-471v74zM225 591h99v-119h-99v119z" />
    <glyph glyph-name="multiply.aalt" 
d="M59 184l165 178l-166 180l52 52l164 -178l165 177l52 -52l-166 -179l166 -179l-52 -52l-164 177l-165 -177z" />
    <glyph glyph-name="equal.case" 
d="M63 290h422v-72h-422v72zM63 510h422v-72h-422v72z" />
    <glyph glyph-name="plusminus.aalt" 
d="M236 388h-204v72h204v168h76v-168h205v-72h-205v-170h-76v170zM32 167h485v-72h-485v72z" />
    <glyph glyph-name="less.aalt" 
d="M71 325v78l406 228v-82l-323 -185l323 -184v-83z" />
    <glyph glyph-name="greater.aalt" 
d="M71 97v83l323 184l-323 185v82l406 -228v-78z" />
    <glyph glyph-name="lessequal.aalt" 
d="M509 560l-361 -139l361 -139v-77l-470 177v78l470 176v-76zM39 167h470v-72h-470v72z" />
    <glyph glyph-name="greaterequal.aalt" 
d="M39 636l470 -176v-78l-470 -177v77l362 139l-362 139v76zM509 95h-470v72h470v-72z" />
    <glyph glyph-name="notequal.aalt" 
d="M63 510h240l60 123h83l-60 -123h99v-72h-134l-72 -148h206v-72h-241l-60 -123h-83l60 123h-98v72h133l72 148h-205v72z" />
    <glyph glyph-name="acute.aalt" horiz-adv-x="237" 
d="M94 886h118l-120 -113h-67z" />
    <glyph glyph-name="breve.aalt" horiz-adv-x="310" 
d="M154 773q-125 0 -129 113h64q2 -35 20.5 -46t44.5 -11q28 0 46 11t20 46h65q-7 -113 -131 -113z" />
    <glyph glyph-name="caron.aalt" horiz-adv-x="362" 
d="M137 773l-112 113h81l75 -68l74 68h82l-111 -113h-89z" />
    <glyph glyph-name="cedilla.aalt" horiz-adv-x="240" 
d="M105 -194q-42 0 -80 13l13 39q11 -5 27 -9t31 -4q22 0 40 8.5t18 28.5q0 34 -45 34q-11 0 -22 -2.5t-20 -7.5l-20 17l48 77h43l-33 -53q7 2 15 3t17 1q32 0 55 -17.5t23 -49.5q0 -35 -30 -56.5t-80 -21.5z" />
    <glyph glyph-name="circumflex.aalt" horiz-adv-x="362" 
d="M137 886h89l111 -113h-82l-74 67l-75 -67h-81z" />
    <glyph glyph-name="dieresis.aalt" horiz-adv-x="330" 
d="M25 882h82v-104h-82v104zM223 882h82v-104h-82v104z" />
    <glyph glyph-name="dotaccent.aalt" horiz-adv-x="142" 
d="M25 881h94v-104h-94v104z" />
    <glyph glyph-name="grave.aalt" horiz-adv-x="237" 
d="M25 886h117l70 -113h-67z" />
    <glyph glyph-name="hungarumlaut.aalt" horiz-adv-x="410" 
d="M267 897h118l-120 -113h-67zM94 897h118l-120 -113h-67z" />
    <glyph glyph-name="macron.aalt" horiz-adv-x="289" 
d="M25 863h239v-67h-239v67z" />
    <glyph glyph-name="ogonek.aalt" horiz-adv-x="223" 
d="M137 -188q-21 0 -41.5 5t-36 15t-25 25.5t-9.5 36.5q0 15 7 31t19 30.5t27 26t31 18.5h90q-38 -19 -64.5 -43.5t-26.5 -49.5q0 -20 13.5 -30t36.5 -10q13 0 22.5 2.5t18.5 4.5v-55q-15 -4 -31 -5.5t-31 -1.5z" />
    <glyph glyph-name="ring.aalt" horiz-adv-x="226" 
d="M113 803q20 0 35 12.5t15 34.5q0 23 -15 36t-35 13t-34.5 -13t-14.5 -36q0 -22 14.5 -34.5t34.5 -12.5zM113 767q-37 0 -62.5 23.5t-25.5 59.5q0 37 26 60t62 23q37 0 62.5 -23t25.5 -60q0 -36 -25.5 -59.5t-62.5 -23.5z" />
    <glyph glyph-name="tilde.aalt" horiz-adv-x="349" 
d="M22 773q4 64 29.5 88.5t58.5 24.5q19 0 36.5 -7.5t34 -17t30.5 -17t26 -7.5q13 0 21 11.5t9 37.5h60q-2 -33 -10 -54.5t-20 -34.5t-27 -18.5t-30 -5.5q-18 0 -35 7.5t-32.5 17t-29.5 17t-26 7.5q-14 0 -24 -11.5t-11 -37.5h-60z" />
    <glyph glyph-name="a.salt" horiz-adv-x="485" 
d="M335 538h90v-538h-90v85q-14 -42 -49.5 -70t-86.5 -28q-161 0 -161 242v79q0 242 161 242q51 0 86.5 -28t49.5 -70v86zM338 268q0 104 -29 160t-84 56q-28 0 -46 -13t-28.5 -38t-15 -63t-4.5 -87v-29q0 -50 4.5 -87.5t15 -62.5t28.5 -38t46 -13q55 0 84 56t29 159z" />
    <glyph glyph-name="aacute.aalt" horiz-adv-x="485" 
d="M249 725h107l-112 -119h-61zM335 538h90v-538h-90v85q-14 -42 -49.5 -70t-86.5 -28q-161 0 -161 242v79q0 242 161 242q51 0 86.5 -28t49.5 -70v86zM338 268q0 104 -29 160t-84 56q-28 0 -46 -13t-28.5 -38t-15 -63t-4.5 -87v-29q0 -50 4.5 -87.5t15 -62.5t28.5 -38
t46 -13q55 0 84 56t29 159z" />
    <glyph glyph-name="abreve.aalt" horiz-adv-x="485" 
d="M335 538h90v-538h-90v85q-14 -42 -49.5 -70t-86.5 -28q-161 0 -161 242v79q0 242 161 242q51 0 86.5 -28t49.5 -70v86zM338 268q0 104 -29 160t-84 56q-28 0 -46 -13t-28.5 -38t-15 -63t-4.5 -87v-29q0 -50 4.5 -87.5t15 -62.5t28.5 -38t46 -13q55 0 84 56t29 159z
M233 605q-68 0 -97.5 33.5t-33.5 86.5h64q6 -68 67 -68q62 0 68 68h64q-3 -26 -10.5 -48t-23 -38t-39.5 -25t-59 -9z" />
    <glyph glyph-name="acircumflex.aalt" horiz-adv-x="485" 
d="M203 725h79l111 -119h-76l-74 69l-73 -69h-78zM335 538h90v-538h-90v85q-14 -42 -49.5 -70t-86.5 -28q-161 0 -161 242v79q0 242 161 242q51 0 86.5 -28t49.5 -70v86zM338 268q0 104 -29 160t-84 56q-28 0 -46 -13t-28.5 -38t-15 -63t-4.5 -87v-29q0 -50 4.5 -87.5
t15 -62.5t28.5 -38t46 -13q55 0 84 56t29 159z" />
    <glyph glyph-name="adieresis.aalt" horiz-adv-x="485" 
d="M104 725h81v-108h-81v108zM303 725h81v-108h-81v108zM335 538h90v-538h-90v85q-14 -42 -49.5 -70t-86.5 -28q-161 0 -161 242v79q0 242 161 242q51 0 86.5 -28t49.5 -70v86zM338 268q0 104 -29 160t-84 56q-28 0 -46 -13t-28.5 -38t-15 -63t-4.5 -87v-29q0 -50 4.5 -87.5
t15 -62.5t28.5 -38t46 -13q55 0 84 56t29 159z" />
    <glyph glyph-name="agrave.aalt" horiz-adv-x="485" 
d="M335 538h90v-538h-90v85q-14 -42 -49.5 -70t-86.5 -28q-161 0 -161 242v79q0 242 161 242q51 0 86.5 -28t49.5 -70v86zM338 268q0 104 -29 160t-84 56q-28 0 -46 -13t-28.5 -38t-15 -63t-4.5 -87v-29q0 -50 4.5 -87.5t15 -62.5t28.5 -38t46 -13q55 0 84 56t29 159z
M97 725h109l64 -119h-61z" />
    <glyph glyph-name="amacron.aalt" horiz-adv-x="485" 
d="M335 538h90v-538h-90v85q-14 -42 -49.5 -70t-86.5 -28q-161 0 -161 242v79q0 242 161 242q51 0 86.5 -28t49.5 -70v86zM338 268q0 104 -29 160t-84 56q-28 0 -46 -13t-28.5 -38t-15 -63t-4.5 -87v-29q0 -50 4.5 -87.5t15 -62.5t28.5 -38t46 -13q55 0 84 56t29 159z
M118 697h232v-63h-232v63z" />
    <glyph glyph-name="aogonek.aalt" horiz-adv-x="484" 
d="M364 -188q-21 0 -41.5 5t-36 15t-25 25.5t-9.5 36.5q0 15 7 31t18.5 30.5t26.5 26t31 18.5v85q-14 -42 -49.5 -70t-86.5 -28q-161 0 -161 242v79q0 242 161 242q51 0 86.5 -28t49.5 -70v86h90v-538q-38 -19 -64.5 -43.5t-26.5 -49.5q0 -20 14 -30t37 -10q13 0 22 2.5
t18 5.5v-55q-32 -8 -61 -8zM338 268q0 104 -29 160t-84 56q-28 0 -46 -13t-28.5 -38t-15 -63t-4.5 -87v-29q0 -50 4.5 -87.5t15 -62.5t28.5 -38t46 -13q55 0 84 56t29 159z" />
    <glyph glyph-name="aring.aalt" horiz-adv-x="485" 
d="M236 629q20 0 34.5 13.5t14.5 35.5t-14.5 35t-34.5 13q-19 0 -34 -13t-15 -35t15 -35.5t34 -13.5zM236 593q-38 0 -64 23.5t-26 61.5q0 37 26.5 61t63.5 24q38 0 64 -24t26 -61q0 -38 -26 -61.5t-64 -23.5zM335 538h90v-538h-90v85q-14 -42 -49.5 -70t-86.5 -28
q-161 0 -161 242v79q0 242 161 242q51 0 86.5 -28t49.5 -70v86zM338 268q0 104 -29 160t-84 56q-28 0 -46 -13t-28.5 -38t-15 -63t-4.5 -87v-29q0 -50 4.5 -87.5t15 -62.5t28.5 -38t46 -13q55 0 84 56t29 159z" />
    <glyph glyph-name="atilde.aalt" horiz-adv-x="485" 
d="M335 538h90v-538h-90v85q-14 -42 -49.5 -70t-86.5 -28q-161 0 -161 242v79q0 242 161 242q51 0 86.5 -28t49.5 -70v86zM338 268q0 104 -29 160t-84 56q-28 0 -46 -13t-28.5 -38t-15 -63t-4.5 -87v-29q0 -50 4.5 -87.5t15 -62.5t28.5 -38t46 -13q55 0 84 56t29 159z
M88 612q4 64 29.5 88.5t58.5 24.5q19 0 36.5 -7.5t34 -17t30.5 -17t26 -7.5q13 0 21 11.5t9 37.5h60q-2 -33 -10 -54.5t-20 -34.5t-27 -18.5t-30 -5.5q-18 0 -35 7.5t-32.5 17t-29.5 17t-26 7.5q-14 0 -24 -11.5t-11 -37.5h-60z" />
    <glyph glyph-name="l.ss02" horiz-adv-x="249" 
d="M195 0q-41 0 -67 5.5t-41 20.5t-21 40.5t-6 66.5v592h90v-574q0 -26 2.5 -42.5t11 -25.5t23.5 -12.5t40 -3.5h15v-67h-47z" />
    <glyph glyph-name="lacute.aalt" horiz-adv-x="249" 
d="M195 0q-41 0 -67 5.5t-41 20.5t-21 40.5t-6 66.5v592h90v-574q0 -26 2.5 -42.5t11 -25.5t23.5 -12.5t40 -3.5h15v-67h-47zM140 886h118l-120 -113h-67z" />
    <glyph glyph-name="lcaron.aalt" horiz-adv-x="305" 
d="M195 0q-41 0 -67 5.5t-41 20.5t-21 40.5t-6 66.5v592h90v-574q0 -26 2.5 -42.5t11 -25.5t23.5 -12.5t40 -3.5h15v-67h-47zM220 725h86l-58 -170h-57z" />
    <glyph glyph-name="uni013C.aalt" horiz-adv-x="249" 
d="M126 -133h-35v83h90v-89l-41 -83h-50zM195 0q-41 0 -67 5.5t-41 20.5t-21 40.5t-6 66.5v592h90v-574q0 -26 2.5 -42.5t11 -25.5t23.5 -12.5t40 -3.5h15v-67h-47z" />
    <glyph glyph-name="ldot.aalt" horiz-adv-x="291" 
d="M210 426h81v-108h-81v108zM195 0q-41 0 -67 5.5t-41 20.5t-21 40.5t-6 66.5v592h90v-574q0 -26 2.5 -42.5t11 -25.5t23.5 -12.5t40 -3.5h15v-67h-47z" />
    <glyph glyph-name="lslash.aalt" horiz-adv-x="249" 
d="M-15 351l75 48v326h90v-267l75 49v-79l-75 -49v-228q0 -26 2.5 -42.5t11 -25.5t23.5 -12.5t40 -3.5h15v-67h-47q-41 0 -67 5.5t-41 20.5t-21 40.5t-6 66.5v187l-75 -48v79z" />
    <glyph glyph-name="uniFB02.aalt" horiz-adv-x="515" 
d="M77 477h-71v61h71v58q0 39 7 64t23.5 39.5t42.5 20t64 5.5h49v-59h-32q-21 0 -33.5 -3t-19 -11t-9 -22t-2.5 -37v-55h96v-61h-96v-477h-90v477zM461 0q-41 0 -67 5.5t-41 20.5t-21 40.5t-6 66.5v592h90v-574q0 -26 2.5 -42.5t11 -25.5t23.5 -12.5t40 -3.5h15v-67h-47z
" />
    <glyph glyph-name="germandbls.aalt" horiz-adv-x="506" 
d="M60 528q0 58 13 98t38 65t61 36t82 11q39 0 72.5 -9.5t58.5 -29.5t39.5 -52.5t14.5 -78.5q0 -65 -29 -105t-77 -54q28 -6 53 -20t43 -37t28.5 -57t10.5 -79q0 -114 -51 -165t-158 -51h-48v61h41q70 0 97.5 42.5t27.5 112.5q0 78 -34 116.5t-111 38.5h-25v64h22
q58 0 89 27t31 99q0 57 -25 85.5t-72 28.5q-57 0 -79.5 -34t-22.5 -111v-705h-90v703z" />
    </font>
</defs>
</svg>
