<?xml version="1.0" standalone="no"?>
<!DOCTYPE svg PUBLIC "-//W3C//DTD SVG 1.1//EN" "http://www.w3.org/Graphics/SVG/1.1/DTD/svg11.dtd" >
<svg xmlns="http://www.w3.org/2000/svg" xmlns:xlink="http://www.w3.org/1999/xlink" version="1.1">
<metadata>
Created by Christoph Koeberlin (http://christoph.koe.berlin)
Copyright (c) 2014 Swiss Typefaces Sa`rl. All rights reserved.
</metadata>
<defs>
<font id="Font" horiz-adv-x="705" >
  <font-face 
    font-family="Font"
    font-weight="500"
    font-style="italic"
    font-stretch="normal"
    units-per-em="1000"
    panose-1="2 0 6 4 6 0 0 0 0 0"
    ascent="800"
    descent="-200"
    x-height="538"
    cap-height="725"
    bbox="-157 -239 1352 943"
    underline-thickness="60"
    underline-position="-50"
    slope="-12"
    unicode-range="U+0020-FB02"
  />
<missing-glyph horiz-adv-x="500" 
d="M0 725h500v-725h-500v725zM19 696v-667l220 333zM481 29v667l-221 -334zM33 19h433l-216 327zM250 378l216 328h-433z" />
    <glyph glyph-name=".notdef" horiz-adv-x="500" 
d="M0 725h500v-725h-500v725zM19 696v-667l220 333zM481 29v667l-221 -334zM33 19h433l-216 327zM250 378l216 328h-433z" />
    <glyph glyph-name=".null" horiz-adv-x="0" 
 />
    <glyph glyph-name="nonmarkingreturn" horiz-adv-x="270" 
 />
    <glyph glyph-name="space" unicode=" " horiz-adv-x="270" 
 />
    <glyph glyph-name="exclam" unicode="!" horiz-adv-x="291" 
d="M308 725l-43 -203l-110 -315h-48l24 316l43 202h134zM47 145h145l-31 -145h-145z" />
    <glyph glyph-name="quotedbl" unicode="&#x22;" horiz-adv-x="454" 
d="M308 725l-43 -273h-55l-44 273h142zM488 725l-43 -273h-55l-44 273h142z" />
    <glyph glyph-name="numbersign" unicode="#" horiz-adv-x="680" 
d="M212 535l27 190h75l-27 -190h159l27 190h75l-27 -190h136l-10 -72h-136l-24 -166h136l-9 -72h-137l-31 -225h-75l31 225h-158l-31 -225h-76l31 225h-143l9 72h144l24 166h-143l10 72h143zM254 297h158l24 166h-159z" />
    <glyph glyph-name="dollar" unicode="$" horiz-adv-x="660" 
d="M544 522q0 58 -25 95.5t-70 54.5l-54 -255l11 -4q48 -21 86 -41t63.5 -45t39 -55.5t13.5 -72.5q0 -54 -24 -94t-63.5 -66t-91.5 -39t-107 -13h-19l-16 -77h-56l17 83q-106 16 -165.5 79t-60.5 166h112q0 -30 7 -59t22 -53.5t39 -43t59 -28.5l59 278l-56 24
q-33 13 -61.5 30t-50.5 39.5t-34.5 52t-12.5 68.5q0 44 20 80.5t56 62t85.5 39.5t108.5 14q8 0 15.5 -0.5t15.5 -0.5l20 92h57l-21 -99q97 -20 144 -77t48 -135h-110zM499 166q0 27 -10.5 48.5t-27.5 38.5t-40.5 31t-48.5 26l-56 -264q4 -1 7.5 -0.5t8.5 0.5q32 0 62 6.5
t53.5 21t37.5 37.5t14 55zM213 569q0 -25 9.5 -44t26 -33.5t37.5 -26t45 -21.5l12 -5l51 244q-5 0 -10 0.5t-10 0.5q-38 0 -68 -9.5t-50.5 -25t-31.5 -36.5t-11 -44z" />
    <glyph glyph-name="percent" unicode="%" horiz-adv-x="982" 
d="M203 0l508 725h88l-508 -725h-88zM293 742q32 0 59.5 -10.5t48 -31t32.5 -51t12 -70.5q0 -46 -14 -91.5t-40.5 -82t-65.5 -59.5t-89 -23q-33 0 -61.5 10.5t-49.5 31.5t-33 51.5t-12 70.5q0 46 13.5 91.5t40.5 82t67 59t92 22.5zM293 706q-38 0 -63.5 -26t-40.5 -63
t-21 -77t-6 -67q0 -54 19.5 -84t54.5 -30q38 0 62.5 26t39 63t20 77t5.5 67q0 54 -17.5 84t-52.5 30zM770 406q32 0 59.5 -10.5t48 -31t32.5 -51t12 -70.5q0 -46 -14 -91.5t-40.5 -82t-65.5 -59.5t-89 -23q-33 0 -61.5 10.5t-49.5 31.5t-33 51.5t-12 70.5q0 46 13.5 91.5
t40.5 82t67 59t92 22.5zM770 370q-38 0 -63.5 -26t-40.5 -63t-21 -77t-6 -67q0 -54 19.5 -84t54.5 -30q38 0 62.5 26t39 63t20 77t5.5 67q0 54 -17.5 84t-52.5 30z" />
    <glyph glyph-name="ampersand" unicode="&#x26;" horiz-adv-x="790" 
d="M692 51l-92 -68l-103 135q-54 -56 -119.5 -93.5t-142.5 -37.5q-54 0 -96 15.5t-71 41.5t-44.5 61.5t-15.5 75.5q0 53 22 92.5t58 68.5t82.5 48.5t95.5 31.5q-30 43 -49 86t-19 79q0 40 16.5 71t46.5 52t71 32t89 11q35 0 69 -8t60.5 -24t42.5 -40t16 -56
q0 -38 -19.5 -67.5t-50.5 -53t-68 -40.5t-71 -29l143 -188q24 28 47.5 58t44.5 62q17 26 19.5 39.5t-19.5 17.5l-44 5l9 38h216l-9 -38l-31 -2q-15 -2 -31 -14t-40 -46q-32 -42 -64 -82t-66 -80zM139 193q0 -28 7.5 -53t23 -44t40 -30t58.5 -11q57 0 105.5 30t91.5 75
l-179 236l-3 -1q-66 -29 -105 -80t-39 -122zM506 618q0 47 -26.5 69t-63.5 22q-44 0 -73 -24t-29 -77q0 -20 6.5 -40.5t16 -39t21 -36t22.5 -31.5q56 23 91 64.5t35 92.5z" />
    <glyph glyph-name="quotesingle" unicode="'" horiz-adv-x="273" 
d="M308 725l-43 -273h-55l-44 273h142z" />
    <glyph glyph-name="parenleft" unicode="(" horiz-adv-x="283" 
d="M109 -189q-44 82 -64.5 165.5t-20.5 166.5q0 163 73.5 317t207.5 285h63q-237 -296 -237 -649q0 -141 37 -285h-59z" />
    <glyph glyph-name="parenright" unicode=")" horiz-adv-x="280" 
d="M-80 -189q119 149 178 310.5t59 338.5q0 140 -37 285h59q44 -83 64.5 -166t20.5 -166q0 -163 -73.5 -317t-207.5 -285h-63z" />
    <glyph glyph-name="asterisk" unicode="*" horiz-adv-x="398" 
d="M301 607l118 43l21 -55l-118 -39l71 -101l-45 -34l-75 103l-71 -103l-49 33l72 101l-117 40l19 55l116 -43v121h58v-121z" />
    <glyph glyph-name="plus" unicode="+" 
d="M313 0v236h-236v76h236v227h81v-227h235v-76h-235v-236h-81z" />
    <glyph glyph-name="comma" unicode="," horiz-adv-x="267" 
d="M46 145h146l-33 -155l-123 -175h-54l94 185h-61z" />
    <glyph glyph-name="hyphen" unicode="-" horiz-adv-x="325" 
d="M35 326h281l-21 -99h-281z" />
    <glyph glyph-name="period" unicode="." horiz-adv-x="262" 
d="M45 145h145l-31 -145h-145z" />
    <glyph glyph-name="slash" unicode="/" horiz-adv-x="372" 
d="M1 0l292 725h80l-291 -725h-81z" />
    <glyph glyph-name="zero" unicode="0" horiz-adv-x="727" 
d="M339 -13q-61 0 -110.5 19t-84.5 55.5t-54 89t-19 119.5q0 81 23.5 165t70 152t117 111.5t165.5 43.5q59 0 107.5 -19t83 -55t53.5 -88.5t19 -119.5q0 -54 -10.5 -110.5t-31 -109t-51.5 -98.5t-72.5 -80.5t-93 -54.5t-112.5 -20zM340 46q47 0 83 21.5t63.5 56.5t46 80.5
t30.5 93.5t17 95t5 86q0 96 -33.5 150.5t-105.5 54.5q-47 0 -84 -21.5t-65 -57t-47 -81t-31.5 -93.5t-18 -95.5t-5.5 -85.5q0 -96 36.5 -150t108.5 -54z" />
    <glyph glyph-name="one" unicode="1" horiz-adv-x="417" 
d="M263 73q-3 -16 1 -24t24 -10l41 -4l-7 -35h-296l7 35l78 5q20 2 27 9.5t10 23.5l110 521h-164l10 44q49 2 85.5 7.5t65.5 16t52.5 26t46.5 37.5h49l-41 -186z" />
    <glyph glyph-name="two" unicode="2" horiz-adv-x="626" 
d="M545 98l-21 -98h-557l21 97q118 65 216.5 122.5t169 113t109.5 111.5t39 119q0 57 -35 89t-104 32q-81 0 -125.5 -55.5t-48.5 -152.5h-114q4 66 29 116t65.5 83.5t93 50t111.5 16.5q48 0 93 -10.5t79.5 -32t55.5 -55t21 -78.5q0 -46 -25 -90.5t-67 -87.5t-97 -83
t-114.5 -77t-120 -69.5t-113.5 -60.5h439z" />
    <glyph glyph-name="three" unicode="3" horiz-adv-x="634" 
d="M287 -13q-59 0 -108.5 14.5t-85 42.5t-55 69.5t-19.5 95.5h110q0 -75 44 -119t119 -44q77 0 122.5 40.5t45.5 115.5q0 35 -13.5 62t-38 45t-58.5 27.5t-74 9.5h-33l14 66h25q47 0 89.5 9.5t75 28.5t51.5 48t19 68q0 30 -12.5 52.5t-33.5 37t-48 21.5t-55 7
q-80 0 -120 -44t-51 -113h-110q5 44 28 83t60.5 68.5t87.5 46.5t109 17q54 0 101.5 -11.5t83.5 -33.5t57 -53.5t21 -71.5q0 -38 -16.5 -68.5t-43.5 -54.5t-61 -40.5t-70 -25.5v-1q66 -21 102.5 -62.5t36.5 -101.5q0 -57 -23.5 -100t-64 -72t-94.5 -44t-114 -15z" />
    <glyph glyph-name="four" unicode="4" horiz-adv-x="688" 
d="M259 0l8 37l54 4q20 2 27.5 8t11.5 26l26 122h-375l14 68l489 460h103l-41 -186l-54 -254h137l-19 -88h-137l-26 -122q-5 -20 -0.5 -26t24.5 -8l42 -4l-8 -37h-276zM470 595l-330 -310h264z" />
    <glyph glyph-name="five" unicode="5" horiz-adv-x="659" 
d="M615 282q0 -64 -23.5 -118t-64.5 -93.5t-98.5 -61.5t-124.5 -22q-60 0 -107 17t-79.5 47t-49 70.5t-16.5 87.5h110q4 -75 38.5 -119t103.5 -44q48 0 83 19.5t58.5 51t35 72.5t11.5 83q0 69 -40 111.5t-108 42.5q-23 0 -49 -6t-50.5 -21t-46.5 -39t-38 -60l-64 14l133 411
h448l-21 -97h-387l-67 -204q36 38 79.5 56t100.5 18q45 0 87 -14.5t74.5 -42t52 -67.5t19.5 -92z" />
    <glyph glyph-name="six" unicode="6" horiz-adv-x="672" 
d="M367 425q-40 0 -75 -18.5t-61.5 -49t-41.5 -70t-15 -82.5q0 -76 39 -117.5t105 -41.5q40 0 75 17t60 48t39.5 73t14.5 92q0 33 -7.5 60t-24 47t-43 31t-65.5 11zM412 489q40 0 79.5 -12t70.5 -37.5t50.5 -64.5t19.5 -93q0 -65 -24 -119t-66.5 -93t-100 -61t-124.5 -22
q-57 0 -103.5 18t-79.5 51.5t-51 81t-18 105.5q0 50 12.5 107t37 112.5t59 106t79 89t97.5 61.5t114 23q42 0 81 -11.5t69 -35t48.5 -58.5t18.5 -83h-112q-1 61 -27.5 95.5t-82.5 34.5q-44 0 -82.5 -23t-70.5 -62t-56 -91t-38 -109q43 47 93 68.5t107 21.5z" />
    <glyph glyph-name="seven" unicode="7" horiz-adv-x="538" 
d="M98 725h532l-19 -92q-67 -42 -139 -94.5t-135 -126t-109 -174t-60 -238.5h-134q13 115 59 210.5t113.5 173t150 138t167.5 105.5h-447z" />
    <glyph glyph-name="eight" unicode="8" horiz-adv-x="695" 
d="M311 -13q-57 0 -107 14t-88 39t-60 60.5t-22 79.5q0 40 17.5 71.5t48.5 55.5t74.5 41t96.5 29q-57 31 -88.5 76.5t-31.5 91.5q0 42 20 78.5t57 62.5t90 41t120 15q52 0 96.5 -11.5t77.5 -31.5t52 -47.5t19 -59.5q0 -41 -20.5 -72.5t-52 -55t-69 -39.5t-71.5 -26l14 -7
q32 -15 59.5 -33t48 -40.5t32 -49t11.5 -58.5q0 -59 -30 -101.5t-77 -69.5t-104.5 -40t-112.5 -13zM150 179q0 -33 12.5 -58t35 -41.5t52.5 -25t66 -8.5t71 7.5t62.5 23.5t44.5 41.5t17 61.5q0 25 -8 45t-24.5 37t-42 33t-60.5 33l-63 29q-77 -23 -120 -71t-43 -107z
M572 578q0 28 -11.5 48t-31 33t-45 19t-53.5 6q-35 0 -64 -7.5t-51 -22t-34 -35t-12 -46.5q0 -41 33 -75.5t87 -60.5l39 -19q65 25 104 67t39 93z" />
    <glyph glyph-name="nine" unicode="9" horiz-adv-x="672" 
d="M335 305q47 0 86.5 18.5t67.5 50.5t43.5 74.5t15.5 90.5q0 66 -39 105.5t-105 39.5q-41 0 -75.5 -17.5t-60 -48t-39.5 -73t-14 -92.5q0 -65 29 -106.5t91 -41.5zM263 46q43 0 82 23.5t70.5 62.5t55.5 90.5t38 108.5q-42 -47 -92 -69t-107 -22q-40 0 -79.5 12t-70.5 37.5
t-50.5 65t-19.5 93.5q0 64 24.5 118t67.5 93t101 61t125 22q60 0 106.5 -17.5t78 -49.5t48 -76.5t16.5 -98.5q0 -53 -13 -112t-37.5 -116t-60 -108.5t-80 -91t-98 -62.5t-113.5 -23q-42 0 -80.5 11t-68 34t-47.5 58.5t-18 85.5h111q1 -62 26 -96t85 -34z" />
    <glyph glyph-name="colon" unicode=":" horiz-adv-x="263" 
d="M45 145h145l-31 -145h-145zM129 538h145l-31 -145h-145z" />
    <glyph glyph-name="semicolon" unicode=";" horiz-adv-x="268" 
d="M131 538h145l-31 -145h-145zM46 145h146l-33 -155l-123 -175h-54l94 185h-61z" />
    <glyph glyph-name="less" unicode="&#x3c;" 
d="M583 543v-87l-424 -183l424 -180v-86l-521 231v71z" />
    <glyph glyph-name="equal" unicode="=" 
d="M105 344v75h495v-75h-495zM105 138v75h495v-75h-495z" />
    <glyph glyph-name="greater" unicode="&#x3e;" 
d="M643 238l-521 -231v86l424 180l-424 183v87l521 -234v-71z" />
    <glyph glyph-name="question" unicode="?" horiz-adv-x="574" 
d="M359 694q-38 0 -70 -10t-56 -30.5t-39.5 -53t-19.5 -77.5h-109q5 50 25.5 92.5t58 73t92 47.5t128.5 17q52 0 97.5 -10t79 -29t52.5 -46t19 -61q0 -38 -16.5 -66.5t-45.5 -52t-68 -43.5t-84 -41q-31 -14 -54 -28t-40 -31t-28 -40t-18 -56l-8 -35h-64l7 39q10 53 25 89.5
t35.5 62.5t47.5 44.5t63 34.5q24 10 46 23t39 28.5t27.5 35t10.5 42.5q0 37 -34.5 59t-98.5 22zM137 145h145l-31 -145h-145z" />
    <glyph glyph-name="at" unicode="@" horiz-adv-x="862" 
d="M631 157q-44 0 -71.5 27.5t-31.5 73.5q-23 -45 -62.5 -70.5t-95.5 -25.5q-30 0 -56.5 10.5t-47 32t-32.5 55t-12 80.5q0 45 14.5 87.5t41.5 76t66 53.5t87 20q46 0 75.5 -24.5t42.5 -61.5l8 67h64l-32 -224q-2 -15 -2.5 -34.5t4 -37t16 -29t32.5 -11.5q43 0 74 48.5
t31 138.5q0 66 -21.5 115.5t-60.5 82.5t-93 50t-118 17q-73 0 -133 -24.5t-103 -68t-66.5 -102.5t-23.5 -127q0 -65 20 -119.5t57 -94t90.5 -61.5t120.5 -22q48 0 101 10.5t98 31.5l24 -63q-51 -23 -111.5 -35t-111.5 -12q-81 0 -147 27.5t-113.5 76.5t-73 116t-25.5 147
q0 81 30.5 151t83.5 121.5t126 80.5t159 29q75 0 140.5 -20t114 -60t76.5 -100.5t28 -142.5q0 -62 -15.5 -109.5t-41 -80t-58 -49.5t-66.5 -17zM432 510q-30 0 -55 -14t-42 -37.5t-26.5 -55t-9.5 -65.5q0 -57 23.5 -84.5t66.5 -27.5q31 0 56.5 14.5t42.5 39t26.5 56.5
t9.5 67q0 52 -24 79.5t-68 27.5z" />
    <glyph glyph-name="A" unicode="A" horiz-adv-x="755" 
d="M441 725h78l118 -649q3 -14 7.5 -23.5t23.5 -11.5l38 -3l-7 -38h-278l8 38l50 5q42 3 37 33l-24 137h-276l-81 -137q-19 -30 21 -33l48 -5l-8 -38h-241l8 38l41 3q18 2 27 11.5t17 23.5zM254 277h227l-50 296z" />
    <glyph glyph-name="B" unicode="B" horiz-adv-x="717" 
d="M155 725h286q141 0 205 -37t64 -109q0 -36 -15.5 -67t-41.5 -55.5t-60.5 -41.5t-72.5 -26v-2q33 -7 61 -21t48.5 -33.5t32 -44.5t11.5 -55q0 -68 -32 -113t-84.5 -71.5t-120.5 -37.5t-140 -11h-295l8 38l49 5q20 2 27.5 10t10.5 23l122 573q4 15 0.5 24t-23.5 11l-48 4z
M218 61h78q46 0 90.5 8.5t79.5 29t56.5 54t21.5 84.5q0 55 -40.5 84t-135.5 29h-89zM293 411h87q40 0 77 9t65 28t44.5 48.5t16.5 69.5q0 98 -142 98h-94z" />
    <glyph glyph-name="C" unicode="C" horiz-adv-x="781" 
d="M483 742q55 0 107.5 -15t94.5 -45.5t69 -76.5t32 -107h-124q0 34 -10 67t-32 58.5t-57.5 41t-85.5 15.5q-80 0 -136 -40t-92 -99.5t-52.5 -128t-16.5 -125.5q0 -110 48.5 -174t153.5 -64q97 0 157 49.5t79 134.5h124q-19 -61 -54.5 -107t-83.5 -77t-107.5 -46.5
t-125.5 -15.5q-65 0 -123.5 19t-102.5 57.5t-70.5 98t-26.5 140.5q0 85 30.5 164t87 140.5t137 98.5t180.5 37z" />
    <glyph glyph-name="D" unicode="D" horiz-adv-x="786" 
d="M657 441q0 106 -62.5 164.5t-190.5 58.5h-58l-128 -603h66q90 0 160 28.5t117 79.5t71.5 120.5t24.5 151.5zM1 0l8 38l49 5q20 2 27.5 10t10.5 23l122 573q4 15 0.5 24t-23.5 11l-48 4l8 37h252q84 0 154 -18t121 -53.5t79 -89.5t28 -126q0 -114 -42.5 -196.5
t-115 -136.5t-168.5 -79.5t-202 -25.5h-260z" />
    <glyph glyph-name="E" unicode="E" horiz-adv-x="719" 
d="M741 725l-47 -222h-44l5 66q3 35 0.5 54t-14.5 28t-34.5 10.5t-59.5 1.5h-201l-54 -256h296l-14 -65h-296l-60 -280h213q37 0 60 1.5t38.5 10.5t26 28t22.5 54l22 66h45l-47 -222h-597l8 38l49 5q20 2 27.5 10t10.5 23l122 573q4 15 0.5 24t-23.5 11l-48 4l8 37h586z" />
    <glyph glyph-name="F" unicode="F" horiz-adv-x="674" 
d="M741 725l-47 -222h-44l5 66q3 35 0.5 54t-14.5 28t-34.5 10.5t-59.5 1.5h-201l-54 -256h296l-14 -65h-296l-57 -266q-3 -15 0.5 -23t22.5 -10l73 -5l-8 -38h-308l8 38l49 5q20 2 27.5 10t10.5 23l122 573q4 15 0.5 24t-23.5 11l-48 4l8 37h586z" />
    <glyph glyph-name="G" unicode="G" horiz-adv-x="821" 
d="M369 -13q-65 0 -123.5 19t-102.5 58t-69.5 98t-25.5 140q0 85 30.5 164t86.5 140.5t136 98.5t178 37q57 0 110 -15t95 -45.5t69.5 -76.5t32.5 -107h-124q0 34 -10 67t-32 58.5t-57.5 41t-85.5 15.5q-53 0 -95.5 -18.5t-75.5 -49.5t-57 -71.5t-39 -84.5t-22.5 -88.5
t-7.5 -82.5q0 -109 48.5 -172.5t153.5 -63.5q25 0 59 5.5t67.5 26t63 61t44.5 111.5l12 56h-113l11 54h238l-77 -363h-65l-6 93q-45 -52 -103 -79t-144 -27z" />
    <glyph glyph-name="H" unicode="H" horiz-adv-x="884" 
d="M700 76q-4 -15 0 -23t23 -10l48 -5l-8 -38h-284l8 38l50 5q20 2 27.5 10t10.5 23l56 266h-354l-56 -266q-4 -15 -0.5 -23t22.5 -10l49 -5l-8 -38h-283l8 38l49 5q20 2 27.5 10t10.5 23l122 573q4 15 0.5 24t-23.5 11l-48 4l8 37h284l-8 -37l-50 -4q-20 -2 -27.5 -11
t-10.5 -24l-52 -242h354l52 242q4 15 1 24t-23 11l-49 4l8 37h284l-8 -37l-50 -4q-20 -2 -27.5 -11t-10.5 -24z" />
    <glyph glyph-name="I" unicode="I" horiz-adv-x="405" 
d="M285 0h-284l8 38l49 5q20 2 27.5 10t10.5 23l122 573q4 15 0.5 24t-23.5 11l-48 4l8 37h284l-8 -37l-50 -4q-20 -2 -27.5 -11t-10.5 -24l-122 -573q-4 -15 -0.5 -23t22.5 -10l50 -5z" />
    <glyph glyph-name="J" unicode="J" horiz-adv-x="434" 
d="M283 176q-14 -66 -32 -102t-44.5 -52.5t-65 -19t-93.5 -2.5h-60l13 62h32q27 0 47 2t34 13.5t25 35.5t20 68l100 468q3 15 0 24t-23 11l-48 4l8 37h286l-8 -37l-50 -4q-20 -2 -28 -9t-12 -26z" />
    <glyph glyph-name="K" unicode="K" horiz-adv-x="796" 
d="M282 361l351 288q23 18 16.5 25t-37.5 11l-31 3l8 37h251l-8 -37l-26 -2q-12 -2 -22.5 -5.5t-22.5 -11t-26.5 -19t-34.5 -27.5l-224 -182l162 -351q7 -16 13 -25.5t13 -15t16 -7.5t21 -3l23 -1l-8 -38h-278l7 38l23 1q18 1 28 3t13 6.5t1.5 11.5t-5.5 16l-127 286
l-116 -94l-41 -192q-4 -15 -0.5 -23t22.5 -10l49 -5l-8 -38h-283l8 38l49 5q20 2 27.5 10t10.5 23l122 573q4 15 0.5 24t-23.5 11l-48 4l8 37h284l-8 -37l-50 -4q-20 -2 -27.5 -11t-10.5 -24z" />
    <glyph glyph-name="L" unicode="L" horiz-adv-x="642" 
d="M9 38l49 5q20 2 27.5 10t10.5 23l122 573q4 15 0.5 24t-23.5 11l-48 4l8 37h284l-8 -37l-50 -4q-20 -2 -27.5 -11t-10.5 -24l-125 -587h189q37 0 60 1.5t38 10.5t25.5 28t22.5 54l23 66h45l-47 -222h-573z" />
    <glyph glyph-name="M" unicode="M" horiz-adv-x="1047" 
d="M864 76q-3 -15 0.5 -23t22.5 -10l49 -5l-8 -38h-285l7 38l50 5q21 2 28 10t11 23l110 516l-379 -592h-60l-127 586l-109 -510q-3 -15 0.5 -23t22.5 -10l48 -5l-8 -38h-231l8 38l49 5q20 2 27.5 10t10.5 23l122 573q5 20 -1 26.5t-26 8.5l-48 4l8 37h223l117 -559l356 559
h229l-8 -37l-51 -4q-20 -2 -26 -11t-10 -24l-122 -573v0z" />
    <glyph glyph-name="N" unicode="N" horiz-adv-x="834" 
d="M655 0h-67l-311 585l-108 -509q-3 -15 0.5 -23t22.5 -10l48 -5l-8 -38h-231l8 38l49 5q20 2 27.5 10t10.5 23l122 573q4 15 0.5 24t-23.5 11l-48 4l8 37h182l286 -530l97 454q4 15 0.5 23t-22.5 10l-49 5l8 38h232l-8 -38l-50 -5q-20 -2 -27.5 -10t-10.5 -23z" />
    <glyph glyph-name="O" unicode="O" horiz-adv-x="792" 
d="M473 742q64 0 122 -19t102 -57.5t70.5 -98t26.5 -140.5q0 -85 -30.5 -164t-86.5 -140.5t-134.5 -98.5t-173.5 -37q-64 0 -122 19t-102.5 57.5t-70.5 98t-26 140.5q0 85 30.5 164t86.5 140.5t134 98.5t174 37zM460 680q-49 0 -88.5 -18.5t-70.5 -49.5t-54 -71.5t-38 -83.5
t-22 -87t-7 -81q0 -112 48.5 -176t153.5 -64q48 0 88 18.5t71 49.5t54 71.5t37.5 83.5t22 86.5t7.5 81.5q0 112 -49 176t-153 64z" />
    <glyph glyph-name="P" unicode="P" horiz-adv-x="674" 
d="M432 726q63 0 116.5 -10t92.5 -32.5t61 -58t22 -86.5q0 -70 -33.5 -116.5t-87 -74t-119.5 -39t-131 -11.5h-84l-47 -222q-4 -15 -0.5 -23t22.5 -10l66 -5l-8 -38h-301l8 38l49 5q20 2 27.5 10t10.5 23l122 573q4 15 0 24t-23 11l-48 4l8 37q72 0 138.5 0.5t138.5 0.5z
M346 663l-64 -302h75q46 0 88 8.5t74.5 28.5t52 53t19.5 83q0 28 -8.5 52t-28.5 41t-52.5 26.5t-80.5 9.5h-75z" />
    <glyph glyph-name="Q" unicode="Q" horiz-adv-x="811" 
d="M473 742q64 0 122 -19t102 -57.5t70.5 -98t26.5 -140.5q0 -57 -14 -112.5t-41 -105t-65.5 -91t-87.5 -71.5l73 -90l-61 -50l-84 105q-33 -12 -69.5 -18.5t-75.5 -6.5q-64 0 -122 19t-102.5 57.5t-70.5 98t-26 140.5q0 85 30.5 164t86.5 140.5t134 98.5t174 37zM460 206
l75 -94q32 30 56 71t39.5 85t23.5 89t8 83q0 112 -49 176t-153 64q-49 0 -88.5 -18.5t-70.5 -49.5t-54 -71.5t-38 -83.5t-22 -87t-7 -81q0 -112 48.5 -176t153.5 -64q47 0 88 19l-69 88z" />
    <glyph glyph-name="R" unicode="R" horiz-adv-x="754" 
d="M155 725q69 0 136 0.5t136 0.5q45 0 95 -6.5t92 -25.5t69.5 -52t27.5 -86q0 -47 -14.5 -82t-40 -60.5t-59 -42t-72.5 -26.5l96 -259q9 -26 18 -33.5t29 -9.5l41 -5l-8 -38h-182l-32 94l-82 233q-17 -2 -32.5 -2h-30.5h-68l-53 -249q-3 -15 0.5 -23t22.5 -10l53 -5l-8 -38
h-288l8 38l49 5q20 2 27.5 10t10.5 23l122 573q4 15 0 24t-23 11l-48 4zM346 664l-58 -275h72q42 0 81.5 6.5t70.5 23.5t49.5 47.5t18.5 77.5q0 63 -40.5 91.5t-120.5 28.5h-73z" />
    <glyph glyph-name="S" unicode="S" horiz-adv-x="690" 
d="M563 522q0 79 -45.5 118.5t-124.5 39.5q-76 0 -118.5 -32t-42.5 -79q0 -25 9.5 -44t26 -33.5t37.5 -26t45 -21.5l75 -31q48 -21 87.5 -41t67.5 -45t43 -55.5t15 -72.5q0 -54 -25.5 -94t-67.5 -66t-95.5 -39t-108.5 -13q-69 0 -126 17t-98 49t-64 78.5t-23 106.5h123
q0 -37 10.5 -71t33.5 -60.5t61 -42t93 -15.5q32 0 62 6t53.5 20t37.5 36.5t14 54.5q0 30 -12.5 51.5t-33 38t-47.5 29t-55 24.5l-87 36q-33 13 -63.5 31.5t-54 42.5t-38 55t-14.5 70q0 44 21.5 80.5t59.5 62.5t89.5 40.5t110.5 14.5q70 0 124 -17t90.5 -46.5t56 -70
t19.5 -86.5h-121v0z" />
    <glyph glyph-name="T" unicode="T" horiz-adv-x="740" 
d="M799 725l-47 -222h-44l5 66q3 35 0.5 54.5t-14.5 28.5t-34.5 11t-59.5 2h-92l-124 -587q-4 -16 0 -24t24 -10l60 -5l-9 -39h-308l9 39l61 5q20 2 27.5 10t10.5 24l124 587h-91q-37 0 -60 -2t-38.5 -11t-26 -28.5t-22.5 -54.5l-23 -66h-45l47 222h670z" />
    <glyph glyph-name="U" unicode="U" horiz-adv-x="826" 
d="M373 -13q-89 0 -146 21t-87.5 61.5t-35.5 99.5t12 136l73 344q4 15 0 24t-24 11l-48 4l8 37h284l-8 -37l-50 -4q-20 -2 -27.5 -11t-10.5 -24l-79 -372q-11 -52 -8.5 -92t21 -67t54 -41t91.5 -14q46 0 86 11.5t71.5 36.5t54.5 65.5t35 98.5l80 374q3 15 0 24t-23 11l-48 4
l8 37h235l-8 -37l-51 -4q-20 -2 -27 -11t-10 -24l-78 -369q-14 -63 -38.5 -116.5t-65 -93t-99.5 -61.5t-141 -22z" />
    <glyph glyph-name="V" unicode="V" horiz-adv-x="781" 
d="M370 0h-82l-118 649q-2 14 -7 24t-23 12l-39 3l8 37h287l-8 -37l-50 -4q-41 -5 -36 -35l84 -497l296 497q9 14 5.5 23t-26.5 12l-48 4l8 37h236l-8 -37l-40 -3q-20 -2 -28.5 -12t-17.5 -24z" />
    <glyph glyph-name="W" unicode="W" horiz-adv-x="1029" 
d="M719 175l207 474q7 14 5 23t-27 12l-48 4l8 37h237l-8 -37l-41 -3q-19 -2 -28.5 -11.5t-17.5 -24.5l-299 -649h-96l-44 516l-271 -516h-93l-30 649q-1 15 -6.5 24.5t-23.5 11.5l-39 3l8 37h278l-8 -37l-50 -4q-21 -2 -28.5 -10t-7.5 -25l18 -471l280 547h79z" />
    <glyph glyph-name="X" unicode="X" horiz-adv-x="826" 
d="M404 302l-229 -226q-16 -14 -15 -23t30 -12l26 -3l-8 -38h-224l8 38l35 2q17 1 31 12.5t26 23.5l289 285l-150 288q-8 14 -15 24t-23 12l-32 3l8 37h303l-8 -37l-51 -4q-25 -2 -35.5 -9.5t-1.5 -25.5l101 -193l196 193q16 14 15 23t-30 13l-26 3l8 37h225l-8 -37l-34 -2
q-17 -1 -32 -13t-27 -24l-256 -252l169 -321q7 -14 13.5 -23.5t24.5 -11.5l31 -3l-8 -38h-302l8 38l50 5q26 2 36 8.5t0 24.5z" />
    <glyph glyph-name="Y" unicode="Y" horiz-adv-x="721" 
d="M295 287l-129 362q-5 14 -11.5 24t-24.5 12l-33 3l8 37h286l-8 -37l-50 -4q-20 -2 -30.5 -11.5t-5.5 -23.5l104 -297l229 297q11 14 10.5 22.5t-32.5 12.5l-48 4l8 37h236l-8 -37l-33 -3q-19 -2 -30.5 -12t-22.5 -24l-291 -363l-45 -210q-3 -15 0.5 -23t23.5 -10l48 -5
l-8 -38h-285l8 38l50 5q21 2 28 10t11 23z" />
    <glyph glyph-name="Z" unicode="Z" horiz-adv-x="729" 
d="M349 663q-37 0 -60 -1.5t-38.5 -10.5t-26 -28t-22.5 -54l-22 -66h-45l47 222h581l-12 -59l-593 -604h290q37 0 60 1.5t38 10.5t25.5 28t22.5 54l23 66h45l-47 -222h-620l13 61l590 602h-249v0z" />
    <glyph glyph-name="bracketleft" unicode="[" horiz-adv-x="304" 
d="M175 745h202l-11 -53h-86l-176 -828h85l-11 -53h-201z" />
    <glyph glyph-name="backslash" unicode="\" horiz-adv-x="372" 
d="M373 0h-80l-292 725h81z" />
    <glyph glyph-name="bracketright" unicode="]" horiz-adv-x="304" 
d="M134 -189h-202l12 53h84l177 828h-86l11 53h202z" />
    <glyph glyph-name="asciicircum" unicode="^" horiz-adv-x="446" 
d="M464 332h-88l-153 293l-152 -293h-87l202 393h74z" />
    <glyph glyph-name="underscore" unicode="_" horiz-adv-x="456" 
d="M-12 -1h394l-16 -78h-394z" />
    <glyph glyph-name="grave" unicode="`" horiz-adv-x="303" 
d="M149 745h131l64 -142h-56z" />
    <glyph glyph-name="a" unicode="a" horiz-adv-x="619" 
d="M427 362q2 12 3.5 22.5t1.5 20.5q0 49 -29 67.5t-77 18.5q-55 0 -87.5 -32.5t-40.5 -88.5h-110q10 43 34 76t57.5 55.5t75 34t87.5 11.5q94 0 147.5 -34.5t53.5 -110.5q0 -31 -9 -67q-5 -17 -11.5 -48.5t-14.5 -66.5q-15 -66 -27 -137q-1 -5 -1.5 -8.5t-0.5 -7.5
q0 -10 5.5 -13t20.5 -5l42 -4l-8 -37l-169 -11l12 98h-3q-35 -49 -79.5 -78.5t-117.5 -29.5q-33 0 -61 9.5t-48.5 27t-32 41.5t-11.5 53q0 88 97 138.5t293 67.5zM409 269q-68 -6 -115.5 -15.5t-77.5 -25.5t-44 -39.5t-14 -56.5q0 -32 22 -54.5t65 -22.5q19 0 41.5 9t45 30
t41.5 56t30 88z" />
    <glyph glyph-name="b" unicode="b" horiz-adv-x="640" 
d="M76 -1h-47q11 47 21 93t20 93l103 485q5 20 0 25.5t-25 7.5l-41 5l8 37h192l-29 -137l-11 -50q-8 -39 -17 -72t-16 -51h2q26 48 73 80t111 32q45 0 79 -17.5t57.5 -48t35.5 -71t12 -86.5q0 -75 -22 -137.5t-59.5 -106.5t-87 -68.5t-104.5 -24.5q-60 0 -105.5 30t-64.5 95
h-2zM372 479q-35 0 -67.5 -24t-57 -62t-39 -85.5t-14.5 -94.5q0 -75 29.5 -116.5t83.5 -41.5q34 0 65 21t54.5 57.5t37.5 85.5t14 105q0 43 -8 73t-22 48t-33.5 26t-42.5 8z" />
    <glyph glyph-name="c" unicode="c" horiz-adv-x="591" 
d="M36 211q0 54 18.5 113t57 108.5t96.5 82t137 32.5q55 0 96.5 -15.5t69 -41t41.5 -59t15 -69.5h-113q4 62 -24.5 94t-79.5 32q-45 0 -80.5 -27t-60.5 -71t-38 -100t-13 -114q0 -27 6 -50.5t19.5 -41.5t34 -28t50.5 -10q23 0 45.5 6t42 20.5t35.5 38.5t25 59h114
q-16 -49 -44 -83.5t-63.5 -56.5t-76 -32.5t-81.5 -10.5q-56 0 -99 17.5t-72 47.5t-43.5 71t-14.5 88z" />
    <glyph glyph-name="d" unicode="d" horiz-adv-x="654" 
d="M525 670q5 20 -0.5 25.5t-25.5 7.5l-55 5l8 37h205l-29 -135l-112 -526q-4 -20 0 -26t24 -8l42 -4l-8 -37l-188 -12l24 101h-2q-13 -23 -32.5 -43.5t-43 -35.5t-51 -23.5t-55.5 -8.5q-46 0 -81 17.5t-59 48t-36 71t-12 87.5q0 75 22 137t59.5 106t87 68.5t104.5 24.5
q60 0 103 -36t56 -102h3q3 22 7 44t8 40.5t6.5 30.5t2.5 14zM271 55q35 0 67 24t57 62t39.5 85.5t14.5 95.5q0 74 -30 115.5t-84 41.5q-34 0 -65 -21t-54 -57t-37 -85t-14 -105q0 -44 8 -73.5t22 -48t33.5 -26.5t42.5 -8z" />
    <glyph glyph-name="e" unicode="e" horiz-adv-x="605" 
d="M533 168q-33 -93 -105 -137t-163 -44q-56 0 -99 17.5t-72 47.5t-43.5 71t-14.5 88q0 63 21.5 123.5t62 108t98.5 76t132 28.5q45 0 85 -12t70 -37.5t47.5 -65t17.5 -94.5q0 -33 -8 -76h-395q-9 -48 -9 -86q0 -27 6 -50.5t19.5 -41.5t34 -28t50.5 -10q59 0 99 32.5
t55 89.5h111zM345 490q-34 0 -61.5 -13t-48.5 -36t-35 -53.5t-21 -65.5h269q3 14 4 27.5t1 25.5q0 62 -31 88.5t-77 26.5z" />
    <glyph glyph-name="f" unicode="f" horiz-adv-x="445" 
d="M281 0h-298l8 37l42 4q10 1 17 3t11.5 5.5t7 9.5t4.5 16l85 399h-75l13 64h75l5 26q12 53 26.5 88t40.5 55.5t67 29t106 8.5h93l-15 -70h-106q-22 0 -36 -4t-23.5 -12t-14.5 -20t-9 -29l-16 -72h176l-13 -64h-177l-85 -398q-4 -20 0.5 -26t23.5 -7l75 -5z" />
    <glyph glyph-name="g" unicode="g" horiz-adv-x="620" 
d="M495 485q17 -20 27 -46.5t10 -60.5q0 -44 -18.5 -80.5t-51 -63t-77.5 -41.5t-99 -15q-37 0 -70 9q-18 -6 -30 -16.5t-12 -23.5q0 -19 16 -26.5t44 -10.5l141 -10q70 -5 112 -30t42 -73q0 -45 -32.5 -80.5t-81 -60t-104 -37.5t-100.5 -13q-59 0 -101.5 8.5t-70 23.5
t-41 34.5t-13.5 41.5q0 23 14.5 42t36.5 33t49 23.5t51 12.5q-38 10 -54 32t-16 46q0 22 11.5 38t29 27t39 18t41.5 12q-41 19 -66.5 55.5t-25.5 93.5q0 43 18.5 80t51 63.5t77.5 41.5t99 15q51 0 93 -18l229 9l-14 -64zM328 499q-33 0 -55.5 -15t-36.5 -39t-20 -55.5
t-6 -64.5q0 -47 22 -73t67 -26q33 0 55.5 15t36.5 39t20 55t6 64q0 48 -22 74t-67 26zM173 20q-9 0 -13 1q-26 -11 -47 -34.5t-21 -54.5q0 -32 30.5 -52.5t95.5 -20.5q25 0 57.5 5t62 17t50 31.5t20.5 48.5q0 26 -25.5 37t-63.5 13z" />
    <glyph glyph-name="h" unicode="h" horiz-adv-x="660" 
d="M-6 37l42 4q10 1 17 3t11.5 5.5t7 9.5t4.5 16l126 595q4 20 -0.5 25.5t-24.5 7.5l-41 5l7 37h192l-29 -135l-12 -58l-24 -113h1q32 55 79 81.5t107 26.5q48 0 76 -16.5t40.5 -45t12 -66t-9.5 -80.5l-56 -264q-5 -20 0 -25.5t25 -8.5l42 -4l-8 -37h-265l8 37l43 4
q20 2 27 8t11 26l51 240q10 46 11.5 77t-5.5 49.5t-23.5 26t-41.5 7.5q-24 0 -48 -11t-45 -35t-38 -62.5t-29 -92.5l-42 -199q-4 -20 0.5 -26t23.5 -8l42 -4l-8 -37h-265z" />
    <glyph glyph-name="i" unicode="i" horiz-adv-x="331" 
d="M262 405l-70 -330q-4 -20 0.5 -26t23.5 -8l42 -4l-8 -37h-264l8 37l42 4q10 1 17 3t11.5 5.5t7 9.5t4.5 16l83 389q5 19 0 24.5t-25 8.5l-41 4l8 37h192zM217 745h117l-28 -135h-117z" />
    <glyph glyph-name="j" unicode="j" horiz-adv-x="337" 
d="M177 464q4 19 0 24.5t-24 8.5l-42 4l8 37h192l-30 -133l-83 -392q-15 -69 -31.5 -109t-40.5 -60.5t-57.5 -26.5t-80.5 -6h-71l16 74h70q17 0 27.5 3t18.5 15t14.5 36.5t15.5 67.5zM237 745h117l-28 -135h-117z" />
    <glyph glyph-name="k" unicode="k" horiz-adv-x="630" 
d="M336 745l-30 -137l-73 -344l233 194q17 15 14.5 25.5t-27.5 13.5l-49 4l8 37h255l-7 -37l-42 -4q-11 -2 -19 -4.5t-17 -7.5t-20.5 -14t-27.5 -23l-155 -126l103 -238q9 -20 21 -31t38 -14l23 -2l-8 -37h-168l-100 248l-71 -57l-24 -116q-4 -20 0.5 -26t23.5 -8l42 -4
l-8 -37h-265l8 37l42 4q10 1 17 3t11.5 5.5t7 9.5t4.5 16l126 595q5 20 0 25.5t-25 7.5l-41 5l7 37h193z" />
    <glyph glyph-name="l" unicode="l" horiz-adv-x="333" 
d="M336 745l-30 -137l-113 -533q-4 -20 0.5 -26t23.5 -8l42 -4l-8 -37h-265l8 37l42 4q10 1 17 3t11.5 5.5t7 9.5t4.5 16l126 595q4 20 -0.5 25.5t-24.5 7.5l-41 5l7 37h193z" />
    <glyph glyph-name="m" unicode="m" horiz-adv-x="961" 
d="M576 431q35 54 81.5 85t109.5 31q44 0 70.5 -16.5t38.5 -45t11.5 -66t-9.5 -80.5l-56 -264q-5 -20 0 -26t25 -8l42 -4l-8 -37h-266l8 37l44 4q20 2 26.5 8t11.5 26l51 240q10 46 11.5 77t-4.5 49.5t-19.5 26t-32.5 7.5q-23 0 -46.5 -11t-44.5 -35t-38.5 -62.5
t-29.5 -92.5l-42 -199q-4 -20 0.5 -26t24.5 -8l41 -4l-8 -37h-265l8 37l43 4q10 1 16.5 3t11 5.5t7 9.5t4.5 16l51 240q10 46 11 77t-5 49.5t-19.5 26t-32.5 7.5q-23 0 -46 -11t-44 -35t-38.5 -62.5t-29.5 -92.5l-42 -199q-5 -20 0 -26t25 -8l42 -4l-8 -37h-264l8 37l42 4
q20 2 27 8t11 26l83 389q5 19 0.5 24.5t-24.5 8.5l-42 4l8 37h190l-21 -99h1q32 55 80 81.5t99 26.5q63 0 90.5 -32.5t29.5 -83.5h1z" />
    <glyph glyph-name="n" unicode="n" horiz-adv-x="665" 
d="M526 75q-5 -20 0 -26t25 -8l42 -4l-8 -37h-266l8 37l44 4q20 2 27 8t11 26l51 240q10 46 11.5 77t-5.5 49.5t-23.5 26t-41.5 7.5q-24 0 -48 -11t-45 -35t-38.5 -62.5t-29.5 -92.5l-42 -199q-4 -20 0.5 -26t24.5 -8l42 -4l-8 -37h-264l8 37l42 4q20 2 27 8t11 26l83 389
q5 19 0.5 24.5t-24.5 8.5l-42 4l8 37h190l-21 -99h1q32 55 79.5 81.5t106.5 26.5q48 0 76.5 -16.5t41 -45t12 -66t-9.5 -80.5z" />
    <glyph glyph-name="o" unicode="o" horiz-adv-x="610" 
d="M335 547q58 0 102 -18t74 -49.5t45.5 -74t15.5 -91.5q0 -67 -21.5 -126.5t-60.5 -104t-93.5 -70.5t-121.5 -26q-58 0 -102 18t-74 49.5t-45.5 74t-15.5 91.5q0 67 21.5 126.5t60.5 104t93.5 70.5t121.5 26zM276 46q33 0 58.5 15t45 39.5t33 56t21.5 65t12 65.5t4 58
q0 29 -6 55t-19.5 45.5t-35.5 31t-53 11.5q-49 0 -82.5 -32t-54.5 -78.5t-30 -98t-9 -89.5q0 -30 6.5 -56t20 -45.5t35.5 -31t54 -11.5z" />
    <glyph glyph-name="p" unicode="p" horiz-adv-x="686" 
d="M-38 -189l8 37l43 5q20 2 27 7.5t12 25.5l124 578q4 19 -0.5 24.5t-24.5 8.5l-42 4l8 37h188l-27 -103h3q13 24 32.5 44.5t43 35.5t50.5 23.5t56 8.5q46 0 81 -17.5t58.5 -48t35.5 -71t12 -86.5q0 -75 -22 -137.5t-59.5 -106.5t-87 -68.5t-104.5 -24.5q-60 0 -103 35.5
t-57 100.5h-2q-3 -21 -8 -51.5t-10 -56.5l-28 -127q-4 -20 0.5 -26t23.5 -8l68 -5l-8 -38h-291zM418 479q-35 0 -67.5 -24t-57.5 -62t-39.5 -85.5t-14.5 -94.5q0 -75 30 -116.5t84 -41.5q34 0 64.5 21t54 57.5t37.5 85.5t14 105q0 43 -8 73t-22 48t-33 26t-42 8z" />
    <glyph glyph-name="q" unicode="q" horiz-adv-x="651" 
d="M241 -189l9 38l69 5q20 2 27 8t12 26l23 105q8 36 14.5 62t11.5 43h-2q-26 -47 -71.5 -79t-109.5 -32q-45 0 -79.5 17.5t-58 48t-36 71t-12.5 87.5q0 75 22.5 137t60.5 106t87.5 68.5t104.5 24.5q60 0 105.5 -30.5t64.5 -95.5h2l83 117h47l-42 -190l-98 -462
q-4 -20 0.5 -25.5t23.5 -7.5l41 -5l-7 -37h-292zM271 55q35 0 67 24t57 62t39.5 85.5t14.5 95.5q0 74 -29 115.5t-83 41.5q-34 0 -65 -21t-55 -57t-38 -85t-14 -105q0 -44 8 -73.5t22 -48t33.5 -26.5t42.5 -8z" />
    <glyph glyph-name="r" unicode="r" horiz-adv-x="467" 
d="M272 418h3q35 58 87 89t111 31h24l-22 -107h-78q-29 0 -53 -5t-42.5 -18t-31.5 -35.5t-20 -58.5l-51 -238q-5 -20 0 -25.5t25 -7.5l74 -5l-8 -38h-298l8 37l43 4q10 1 16.5 3t11 5.5t7 9.5t4.5 16l84 389q5 19 0.5 24.5t-25.5 8.5l-42 4l9 37h191z" />
    <glyph glyph-name="s" unicode="s" horiz-adv-x="548" 
d="M485 156q0 -42 -18.5 -73.5t-49 -52.5t-71 -32t-85.5 -11q-49 0 -92 13t-75 37t-50.5 57.5t-19.5 74.5h111q3 -56 33.5 -89.5t92.5 -33.5q54 0 86.5 19.5t32.5 57.5q0 17 -9.5 30.5t-25 24.5t-35 19.5t-40.5 16.5l-60 23q-27 10 -51 24.5t-41.5 34t-28 44t-10.5 54.5
q0 39 18.5 67.5t49 47.5t69.5 28.5t81 9.5t81.5 -10.5t70.5 -31t51 -51t23 -70.5h-111q-1 45 -33 74.5t-89 29.5q-56 0 -83.5 -22.5t-27.5 -48.5q0 -32 22 -50t66 -35l61 -23q27 -10 54.5 -22.5t50.5 -30t37.5 -42t14.5 -58.5z" />
    <glyph glyph-name="t" unicode="t" horiz-adv-x="418" 
d="M423 474h-153l-69 -322q-5 -25 -5 -41t6.5 -25t21 -12.5t38.5 -3.5h74l-15 -70h-92q-52 0 -85 5t-50 20t-19.5 42t7.5 72l71 335h-94l13 64h94l37 171h117l-37 -171h153z" />
    <glyph glyph-name="u" unicode="u" horiz-adv-x="642" 
d="M381 85h-1q-29 -46 -68 -72t-98 -26q-48 0 -78 16.5t-44.5 46.5t-15.5 70.5t9 88.5l55 255q4 19 -0.5 24.5t-24.5 8.5l-41 4l8 37h192l-31 -136l-39 -184q-18 -86 -6 -122.5t63 -36.5q56 0 94.5 46.5t58.5 140.5l47 218q4 19 0 24.5t-24 8.5l-42 4l8 37h192l-31 -136
l-67 -318q-5 -20 0 -26t24 -8l42 -4l-8 -37l-190 -18z" />
    <glyph glyph-name="v" unicode="v" horiz-adv-x="551" 
d="M74 466q-2 15 -7 23t-24 10l-26 2l8 37h245l-8 -37l-41 -3q-19 -2 -24.5 -9t-3.5 -24l43 -324l172 297q8 13 13.5 24t7 18.5t-3 12t-16.5 5.5l-38 3l8 37h210l-8 -37l-32 -2q-11 -1 -18.5 -4t-14 -9.5t-14 -17.5t-17.5 -28l-263 -440h-72z" />
    <glyph glyph-name="w" unicode="w" horiz-adv-x="782" 
d="M639 438q13 28 17 43t-16 17l-36 3l8 37h208l-8 -37l-32 -2q-15 -1 -30.5 -12.5t-33.5 -46.5l-224 -440h-75l-36 382l-196 -382h-76l-40 466q-2 15 -6 23t-15 9l-36 3l8 37h239l-8 -37l-39 -3q-19 -2 -24.5 -9t-4.5 -24l19 -307l198 380h72l34 -381z" />
    <glyph glyph-name="x" unicode="x" horiz-adv-x="659" 
d="M277 265l-111 195q-13 22 -21 28.5t-24 9.5l-22 3l8 37h241l-8 -37l-35 -3q-16 -2 -19 -8.5t5 -21.5l70 -123l131 123q13 13 14.5 19.5t-18.5 9.5l-38 4l8 37h230l-8 -37l-31 -2q-27 -3 -43 -13.5t-40 -32.5l-173 -164l122 -211q12 -23 20 -29.5t25 -8.5l21 -3l-8 -37
h-241l8 37l35 3q17 2 20 8.5t-5 21.5l-81 139l-146 -139q-13 -12 -14.5 -19t18.5 -10l38 -4l-8 -37h-230l8 37l29 2q27 3 43.5 14t41.5 34z" />
    <glyph glyph-name="y" unicode="y" horiz-adv-x="578" 
d="M-66 -189l15 71h79q19 0 34.5 4t30 17t30.5 36t37 62l8 13l-73 452q-3 17 -8.5 23.5t-26.5 9.5l-22 2l7 37h252l-8 -37l-47 -3q-18 -2 -24.5 -9t-3.5 -24l45 -333l176 306q16 27 20.5 41.5t-19.5 17.5l-43 4l7 37h216l-7 -37l-33 -2q-18 -2 -29 -12.5t-28 -38.5
l-272 -458q-32 -54 -57.5 -88.5t-51 -55t-56 -28t-73.5 -7.5h-75z" />
    <glyph glyph-name="z" unicode="z" horiz-adv-x="559" 
d="M18 62l400 412h-285l13 64h426l-12 -60l-402 -414h318l-14 -64h-457z" />
    <glyph glyph-name="braceleft" unicode="{" horiz-adv-x="328" 
d="M163 -189q-46 0 -76.5 7.5t-46.5 25t-18.5 46.5t6.5 73l39 184q4 20 6 40.5t-3 36.5t-18.5 26t-40.5 10l9 41q27 0 45 10t29.5 26t18 36.5t10.5 40.5l44 207q9 41 23 65.5t36.5 37.5t55 17t78.5 4h44l-11 -53h-14q-24 0 -40 -3.5t-27 -12.5t-17.5 -25.5t-12.5 -42.5
l-44 -205q-12 -56 -42 -86.5t-95 -36.5v-3q55 -11 73.5 -47.5t3.5 -107.5l-37 -174q-10 -48 1 -66t54 -18h21l-11 -53h-43v0z" />
    <glyph glyph-name="bar" unicode="|" horiz-adv-x="256" 
d="M104 -90v815h75v-815h-75z" />
    <glyph glyph-name="braceright" unicode="}" horiz-adv-x="325" 
d="M-61 -136h14q24 0 40.5 3.5t27 12.5t17 25.5t12.5 42.5l44 205q12 57 42 87t96 36v2q-56 11 -74.5 48t-3.5 107l37 175q10 48 -1 66t-53 18h-22l11 53h43q46 0 76.5 -7.5t47 -25t19 -47t-6.5 -72.5l-40 -185q-4 -20 -6 -40t3 -36t18.5 -26t40.5 -10l-9 -42
q-27 0 -44.5 -10t-29.5 -26t-18.5 -36t-10.5 -40l-44 -208q-9 -41 -23 -65.5t-36.5 -37t-55 -16.5t-78.5 -4h-44z" />
    <glyph glyph-name="asciitilde" unicode="~" horiz-adv-x="708" 
d="M473 278q28 0 47.5 18.5t22.5 53.5h76q-4 -66 -43.5 -104.5t-102.5 -38.5q-31 0 -61 11.5t-59 25t-56.5 25t-53.5 11.5q-28 0 -47.5 -18.5t-21.5 -54.5h-78q4 67 43.5 105t103.5 38q36 0 68 -11.5t60.5 -25t53.5 -24.5t48 -11z" />
    <glyph glyph-name="uni00A0" unicode="&#xa0;" horiz-adv-x="270" 
 />
    <glyph glyph-name="exclamdown" unicode="&#xa1;" horiz-adv-x="291" 
d="M-15 -189l43 203l110 315h48l-24 -316l-43 -202h-134zM131 538h145l-31 -145h-145z" />
    <glyph glyph-name="cent" unicode="&#xa2;" horiz-adv-x="591" 
d="M36 211q0 52 18 110t54.5 107t92.5 82t132 36l16 73h50l-16 -74q46 -5 80 -22t57 -42t34.5 -55.5t12.5 -63.5h-113q3 55 -19.5 86.5t-63.5 37.5l-94 -440q22 1 43 8t39.5 21.5t33 37.5t23.5 57h114q-16 -49 -44 -83.5t-63.5 -56.5t-76 -32.5t-81.5 -10.5h-1l-14 -69h-50
l15 73q-44 7 -77.5 26.5t-56 48.5t-34 66t-11.5 79zM158 176q0 -45 16 -78.5t54 -45.5l92 432q-38 -9 -68 -38t-51 -71.5t-32 -94t-11 -104.5z" />
    <glyph glyph-name="sterling" unicode="&#xa3;" horiz-adv-x="637" 
d="M480 412l-11 -51h-184q3 -13 5 -26t2 -26q0 -37 -15.5 -67.5t-40 -55t-54 -44t-57.5 -34.5l1 -1q52 23 95 23q26 0 49 -7.5t45.5 -16t46.5 -16t52 -7.5q35 0 63 9.5t60 24.5l29 -93q-15 -8 -35.5 -14.5t-44 -11.5t-47 -8t-43.5 -3q-35 0 -63.5 6t-54.5 13.5t-51 13.5
t-52 6q-40 0 -80 -12t-86 -30l-27 82q40 15 75 37.5t61.5 52t41.5 66t15 79.5q0 16 -2 30.5t-6 29.5h-121l11 51h96q-7 26 -12.5 52.5t-5.5 58.5q0 60 23 102t61.5 68t87.5 37.5t102 11.5q63 0 113.5 -16.5t85.5 -47t52.5 -74t13.5 -96.5h-111q1 83 -36.5 129.5t-117.5 46.5
q-42 0 -71 -12.5t-47.5 -34t-27 -51.5t-8.5 -64q0 -32 5 -59t11 -51h209z" />
    <glyph glyph-name="currency" unicode="&#xa4;" horiz-adv-x="656" 
d="M86 352q0 40 12 75.5t33 65.5l-69 71l48 47l68 -68q31 24 68.5 37.5t79.5 13.5q43 0 81.5 -14t70.5 -39l70 70l48 -47l-72 -72q21 -29 33 -65t12 -75q0 -40 -12 -75.5t-34 -65.5l73 -72l-48 -47l-71 70q-32 -24 -70 -37.5t-81 -13.5q-42 0 -79 13t-68 37l-69 -69l-48 47
l70 71q-22 30 -34 66t-12 76zM161 352q0 -37 12 -68.5t34 -55t52 -36.5t66 -13q38 0 69 13t53.5 36.5t35 55t12.5 68.5t-12.5 69t-35 55.5t-53.5 37t-69 13.5q-36 0 -66 -13.5t-52 -37t-34 -55.5t-12 -69z" />
    <glyph glyph-name="yen" unicode="&#xa5;" horiz-adv-x="715" 
d="M378 130l-11 -54q-4 -15 0 -23t24 -10l48 -5l-8 -38h-277l7 38l50 5q21 2 28 10t11 23l11 54h-109l12 53h109l16 78h-109l11 53h94l-119 335q-5 14 -11.5 24t-24.5 12l-33 3l8 37h278l-8 -37l-50 -4q-20 -2 -30.5 -11.5t-5.5 -23.5l104 -299l229 299q11 14 5 23.5
t-27 11.5l-48 4l8 37h236l-8 -37l-33 -3q-19 -2 -30.5 -12t-22.5 -24l-269 -335h93l-11 -53h-109l-17 -78h110l-12 -53h-109z" />
    <glyph glyph-name="brokenbar" unicode="&#xa6;" horiz-adv-x="256" 
d="M179 725v-305h-75v305h75zM179 215v-305h-75v305h75z" />
    <glyph glyph-name="section" unicode="&#xa7;" horiz-adv-x="614" 
d="M369 690q-47 0 -79 -19t-32 -55q0 -27 18 -51t52 -44l135 -82q22 -13 42 -29t35 -35t23.5 -40t8.5 -45q0 -36 -13 -65t-37 -50.5t-57 -37.5t-73 -26q29 -27 45 -57.5t16 -65.5q0 -47 -19 -82t-50.5 -58.5t-72.5 -35.5t-86 -12q-43 0 -84 12t-73 36t-51.5 60.5t-19.5 84.5
h109q0 -62 28 -100t93 -38q51 0 83 27t32 72q0 31 -19.5 60.5t-62.5 55.5l-114 69q-21 13 -41 29t-35.5 36t-25.5 43.5t-10 52.5q0 36 15.5 62.5t41.5 46t59.5 32t69.5 20.5q-30 24 -50.5 56t-20.5 73q0 30 14 57.5t41.5 48.5t68.5 33.5t96 12.5q44 0 84 -10.5t70.5 -31.5
t49 -52t20.5 -71h-108q0 46 -28.5 79.5t-87.5 33.5zM358 137q45 15 73.5 42.5t28.5 72.5q0 32 -23 59.5t-62 51.5l-114 69q-2 1 -3.5 1.5t-3.5 2.5q-46 -13 -77.5 -40.5t-31.5 -71.5q0 -32 18 -55t49 -42l120 -72z" />
    <glyph glyph-name="dieresis" unicode="&#xa8;" horiz-adv-x="424" 
d="M144 745h117l-29 -135h-117zM373 745h117l-30 -135h-117z" />
    <glyph glyph-name="copyright" unicode="&#xa9;" horiz-adv-x="846" 
d="M49 361q0 83 29.5 152.5t80.5 119t119.5 77t146.5 27.5q77 0 145 -27.5t119 -77t80.5 -119t29.5 -152.5t-29.5 -152t-80.5 -118.5t-119 -76.5t-145 -27q-78 0 -146.5 27t-119.5 76.5t-80.5 118.5t-29.5 152zM118 361q0 -70 23.5 -127.5t65 -99t97.5 -64t121 -22.5
t121 22.5t97 64t64 99t23 127.5t-23 128t-64 99.5t-97 64t-121 22.5t-121 -22.5t-97.5 -64t-65 -99.5t-23.5 -128zM422 219q35 0 66 18t43 60l67 -19q-8 -24 -22.5 -45.5t-36.5 -38t-51 -26t-66 -9.5q-90 0 -138 55.5t-48 153.5q0 97 51.5 150.5t139.5 53.5q71 0 112.5 -35
t55.5 -88l-67 -21q-10 42 -39 63t-67 21q-47 0 -80 -35.5t-33 -108.5t33 -111t80 -38z" />
    <glyph glyph-name="ordfeminine" unicode="&#xaa;" horiz-adv-x="385" 
d="M291 594l-41 -1q-10 0 -24 -2.5t-27 -9t-22.5 -18.5t-9.5 -31q0 -21 12 -36.5t37 -15.5q8 0 17.5 3t19 12t18 25t14.5 42zM85 526q0 28 11 46t32 29q21 12 52.5 18.5t71.5 8.5l46 2l3 14q8 39 -3.5 53t-39.5 14q-25 0 -45.5 -12.5t-25.5 -45.5h-69q2 22 15 39t33 29
t44 18t49 6q32 0 56.5 -5.5t39 -18.5t19 -35.5t-3.5 -56.5q-6 -26 -12.5 -60t-15.5 -72q-3 -13 -0.5 -17t14.5 -5l24 -3l-7 -22l-101 -7l4 47h-2q-17 -26 -41.5 -39.5t-54.5 -13.5q-38 0 -65.5 24.5t-27.5 64.5z" />
    <glyph glyph-name="guillemotleft" unicode="&#xab;" horiz-adv-x="523" 
d="M4 273l258 234h67l-194 -234l91 -235h-59zM222 273l258 234h67l-194 -234l91 -235h-59z" />
    <glyph glyph-name="logicalnot" unicode="&#xac;" horiz-adv-x="707" 
d="M78 361v76h530v-338h-81v262h-449z" />
    <glyph glyph-name="uni00AD" unicode="&#xad;" horiz-adv-x="325" 
d="M35 326h281l-21 -99h-281z" />
    <glyph glyph-name="registered" unicode="&#xae;" horiz-adv-x="846" 
d="M49 361q0 83 29.5 152.5t80.5 119t119.5 77t146.5 27.5q77 0 145 -27.5t119 -77t80.5 -119t29.5 -152.5t-29.5 -152t-80.5 -118.5t-119 -76.5t-145 -27q-78 0 -146.5 27t-119.5 76.5t-80.5 118.5t-29.5 152zM118 361q0 -70 23.5 -127.5t65 -99t97.5 -64t121 -22.5
t121 22.5t97 64t64 99t23 127.5t-23 128t-64 99.5t-97 64t-121 22.5t-121 -22.5t-97.5 -64t-65 -99.5t-23.5 -128zM445 329h-20h-72v-153h-73v397h122q44 0 78.5 -4.5t58.5 -18t36.5 -37t12.5 -62.5q0 -34 -17 -62t-55 -44l91 -169h-81zM515 450q0 37 -27 49t-69 12h-66
v-122h71q48 0 69.5 15t21.5 46z" />
    <glyph glyph-name="macron" unicode="&#xaf;" horiz-adv-x="367" 
d="M121 631l14 71h290l-15 -71h-289z" />
    <glyph glyph-name="degree" unicode="&#xb0;" horiz-adv-x="372" 
d="M112 589q0 31 11.5 58t32 47.5t47.5 32t57 11.5q31 0 58.5 -11.5t47.5 -32t32 -47.5t12 -58t-12 -58t-32 -47.5t-47.5 -32t-58.5 -11.5q-30 0 -57 11.5t-47.5 32t-32 47.5t-11.5 58zM183 589q0 -35 21 -60.5t56 -25.5q37 0 58.5 25.5t21.5 60.5q0 36 -21.5 61t-58.5 25
q-35 0 -56 -25t-21 -61z" />
    <glyph glyph-name="plusminus" unicode="&#xb1;" 
d="M313 539h80v-168h230v-75h-230v-172h-80v172h-230v75h230v168zM83 0v75h540v-75h-540z" />
    <glyph glyph-name="twosuperior" unicode="&#xb2;" horiz-adv-x="381" 
d="M360 508l-13 -63h-316l14 67q63 31 117 60.5t93 58.5t61 59t22 63q0 32 -19 49.5t-59 17.5q-41 0 -64.5 -33t-22.5 -83h-72q1 36 14.5 64.5t36 48t53 29.5t65.5 10q27 0 53.5 -5.5t46.5 -17.5t32.5 -31t12.5 -46q0 -36 -30.5 -72.5t-76 -69.5t-98 -60.5t-95.5 -45.5h245z
" />
    <glyph glyph-name="threesuperior" unicode="&#xb3;" horiz-adv-x="394" 
d="M223 438q-66 0 -108.5 30.5t-42.5 99.5h68q0 -45 25 -69.5t62 -24.5q45 0 65.5 24t20.5 60q0 31 -27.5 53t-69.5 22h-22l10 43h15q57 0 91.5 18t34.5 56q0 19 -8 32t-20 21.5t-27 12.5t-29 4q-44 0 -63.5 -25t-26.5 -61h-68q1 23 13.5 45t33.5 39t49 27.5t61 10.5
t62.5 -7t51 -20t34 -31.5t12.5 -40.5q0 -38 -28 -63.5t-65 -37.5v-1q66 -30 66 -87q0 -32 -12.5 -56t-35 -40.5t-54 -25t-68.5 -8.5z" />
    <glyph glyph-name="acute" unicode="&#xb4;" horiz-adv-x="300" 
d="M170 603h-57l122 142h132z" />
    <glyph glyph-name="mu" unicode="&#xb5;" horiz-adv-x="585" 
d="M221 538l-65 -303q-20 -94 4.5 -136t86.5 -42q67 0 112 48.5t65 140.5l63 292h81l-115 -538h-80l17 80q-31 -48 -68.5 -70.5t-82.5 -22.5q-48 0 -77.5 21t-42.5 56l-20 -98q-7 -32 -13 -56.5t-11.5 -44.5t-11 -36t-11.5 -31h-79q12 29 21.5 65t21.5 94l124 581h81z" />
    <glyph glyph-name="mu" unicode="&#x3bc;" horiz-adv-x="585" 
d="M221 538l-65 -303q-20 -94 4.5 -136t86.5 -42q67 0 112 48.5t65 140.5l63 292h81l-115 -538h-80l17 80q-31 -48 -68.5 -70.5t-82.5 -22.5q-48 0 -77.5 21t-42.5 56l-20 -98q-7 -32 -13 -56.5t-11.5 -44.5t-11 -36t-11.5 -31h-79q12 29 21.5 65t21.5 94l124 581h81z" />
    <glyph glyph-name="paragraph" unicode="&#xb6;" horiz-adv-x="548" 
d="M94 534q5 50 29.5 86t62.5 59.5t85.5 34.5t98.5 11h201l-173 -816h-76l158 746h-114l-158 -746h-75l97 460q-29 3 -56 14t-46.5 31t-29.5 49.5t-4 70.5z" />
    <glyph glyph-name="periodcentered" unicode="&#xb7;" horiz-adv-x="262" 
d="M74 352h145l-31 -145h-145z" />
    <glyph glyph-name="cedilla" unicode="&#xb8;" horiz-adv-x="300" 
d="M69 3h48l-48 -53q55 8 80 -13t25 -56q0 -26 -12 -45t-31.5 -31t-45 -17.5t-51.5 -5.5q-27 0 -52 5.5t-45 15.5l21 41q14 -8 31.5 -12.5t35.5 -4.5q29 0 51 11t22 34q0 18 -15 26t-32 8q-21 0 -41 -10l-16 19z" />
    <glyph glyph-name="onesuperior" unicode="&#xb9;" horiz-adv-x="270" 
d="M224 491q-2 -10 -0.5 -15.5t14.5 -7.5l20 -3l-5 -20h-170l5 20l40 5q12 1 16 6t6 15l59 275h-89l6 29q25 0 44.5 3t35.5 8.5t30 14.5t29 22h34l-23 -104z" />
    <glyph glyph-name="ordmasculine" unicode="&#xba;" horiz-adv-x="376" 
d="M227 474q25 0 42.5 18t28.5 44t15.5 55t4.5 51q0 12 -2.5 24t-8.5 21.5t-17 15.5t-28 6q-25 0 -42.5 -18.5t-28.5 -44.5t-16 -55t-5 -51q0 -24 12.5 -45t44.5 -21zM260 745q34 0 60 -10.5t43 -27.5t25.5 -40.5t8.5 -48.5q0 -39 -12.5 -72t-35 -57.5t-53.5 -38t-69 -13.5
q-34 0 -59.5 10.5t-42.5 28t-25.5 41t-8.5 49.5q0 39 12.5 71.5t35 56.5t53.5 37.5t68 13.5z" />
    <glyph glyph-name="guillemotright" unicode="&#xbb;" horiz-adv-x="521" 
d="M303 272l-257 -234h-68l194 234l-90 235h59zM521 272l-257 -234h-68l194 234l-90 235h59z" />
    <glyph glyph-name="onequarter" unicode="&#xbc;" horiz-adv-x="933" 
d="M224 379q-2 -10 -0.5 -15.5t14.5 -7.5l20 -3l-5 -20h-170l5 20l40 4q12 1 16 6.5t6 15.5l59 275h-89l6 28q25 1 44.5 3.5t35.5 8.5t30 14.5t29 21.5h34l-23 -103zM113 0l508 725h88l-508 -725h-88zM813 47q-3 -12 -1 -16.5t14 -5.5l20 -3l-5 -22h-151l4 22l19 3
q12 1 16.5 5.5t7.5 16.5l12 59h-210l8 41l276 254h65l-23 -104l-28 -135h72l-12 -56h-72zM794 319l-172 -157h139z" />
    <glyph glyph-name="onehalf" unicode="&#xbd;" horiz-adv-x="884" 
d="M224 379q-2 -10 -0.5 -15.5t14.5 -7.5l20 -3l-5 -20h-170l5 20l40 4q12 1 16 6.5t6 15.5l59 275h-89l6 28q25 1 44.5 3.5t35.5 8.5t30 14.5t29 21.5h34l-23 -103zM113 0l508 725h88l-508 -725h-88zM830 62l-13 -62h-316l14 67q63 31 117 60t93 58t61 59t22 64
q0 31 -19 49t-59 18q-41 0 -64.5 -33.5t-22.5 -82.5h-72q1 36 14.5 64.5t36 48t53 29.5t65.5 10q27 0 53.5 -6t46.5 -18t32.5 -31t12.5 -46q0 -36 -30.5 -72.5t-76 -69.5t-98 -60.5t-95.5 -45.5h245z" />
    <glyph glyph-name="threequarters" unicode="&#xbe;" horiz-adv-x="1058" 
d="M223 325q-66 0 -108.5 31t-42.5 99h68q0 -45 25 -69.5t62 -24.5q45 0 65.5 24t20.5 60q0 32 -27.5 54t-69.5 22h-22l10 42h15q57 0 91.5 18.5t34.5 56.5q0 19 -8 32t-20 21.5t-27 12.5t-29 4q-44 0 -63.5 -25.5t-26.5 -61.5h-68q1 23 13.5 45t33.5 39.5t49 28t61 10.5
t62.5 -7t51 -20.5t34 -32t12.5 -40.5q0 -38 -28 -63.5t-65 -36.5v-1q66 -30 66 -88q0 -32 -12.5 -56t-35 -40.5t-54 -25t-68.5 -8.5zM238 0l508 725h88l-508 -725h-88zM938 47q-3 -12 -1 -16.5t14 -5.5l20 -3l-5 -22h-151l4 22l19 3q12 1 16.5 5.5t7.5 16.5l12 59h-210l8 41
l276 254h65l-23 -104l-28 -135h72l-12 -56h-72zM919 319l-172 -157h139z" />
    <glyph glyph-name="questiondown" unicode="&#xbf;" horiz-adv-x="572" 
d="M222 -138q75 0 125.5 41t58.5 131h109q-5 -50 -25.5 -92.5t-58 -73.5t-92 -48t-127.5 -17q-53 0 -98 10.5t-79 29.5t-53 46t-19 61q0 38 16.5 66.5t45.5 52t68 43.5t84 41q31 14 54 27.5t40 31t28 40.5t19 56l8 35h64l-8 -39q-10 -53 -24.5 -89.5t-35 -62.5t-47.5 -44.5
t-63 -34.5q-24 -11 -46 -23.5t-39 -28.5t-27.5 -35t-10.5 -42q0 -37 34.5 -59.5t98.5 -22.5zM330 538h145l-31 -145h-145z" />
    <glyph glyph-name="Agrave" unicode="&#xc0;" horiz-adv-x="755" 
d="M441 725h78l118 -649q3 -14 7.5 -23.5t23.5 -11.5l38 -3l-7 -38h-278l8 38l50 5q42 3 37 33l-24 137h-276l-81 -137q-19 -30 21 -33l48 -5l-8 -38h-241l8 38l41 3q18 2 27 11.5t17 23.5zM254 277h227l-50 296zM283 890h145l78 -117h-72z" />
    <glyph glyph-name="Aacute" unicode="&#xc1;" horiz-adv-x="755" 
d="M441 725h78l118 -649q3 -14 7.5 -23.5t23.5 -11.5l38 -3l-7 -38h-278l8 38l50 5q42 3 37 33l-24 137h-276l-81 -137q-19 -30 21 -33l48 -5l-8 -38h-241l8 38l41 3q18 2 27 11.5t17 23.5zM254 277h227l-50 296zM515 773h-72l128 117h145z" />
    <glyph glyph-name="Acircumflex" unicode="&#xc2;" horiz-adv-x="755" 
d="M441 725h78l118 -649q3 -14 7.5 -23.5t23.5 -11.5l38 -3l-7 -38h-278l8 38l50 5q42 3 37 33l-24 137h-276l-81 -137q-19 -30 21 -33l48 -5l-8 -38h-241l8 38l41 3q18 2 27 11.5t17 23.5zM254 277h227l-50 296zM664 773h-75l-89 58l-118 -58h-81l164 117h87z" />
    <glyph glyph-name="Atilde" unicode="&#xc3;" horiz-adv-x="755" 
d="M441 725h78l118 -649q3 -14 7.5 -23.5t23.5 -11.5l38 -3l-7 -38h-278l8 38l50 5q42 3 37 33l-24 137h-276l-81 -137q-19 -30 21 -33l48 -5l-8 -38h-241l8 38l41 3q18 2 27 11.5t17 23.5zM254 277h227l-50 296zM549 844q22 0 32.5 11.5t13.5 34.5h62q-10 -64 -36.5 -91
t-67.5 -27q-22 0 -40.5 7.5t-35 16.5t-31 16.5t-27.5 7.5q-21 0 -31 -12t-15 -35h-60q4 34 13.5 57t24 36.5t31.5 19t36 5.5q21 0 39 -7.5t34 -16t30 -16t28 -7.5z" />
    <glyph glyph-name="Adieresis" unicode="&#xc4;" horiz-adv-x="755" 
d="M441 725h78l118 -649q3 -14 7.5 -23.5t23.5 -11.5l38 -3l-7 -38h-278l8 38l50 5q42 3 37 33l-24 137h-276l-81 -137q-19 -30 21 -33l48 -5l-8 -38h-241l8 38l41 3q18 2 27 11.5t17 23.5zM254 277h227l-50 296zM335 890h117l-25 -117h-117zM563 890h117l-25 -117h-117z
" />
    <glyph glyph-name="Aring" unicode="&#xc5;" horiz-adv-x="755" 
d="M441 725h78l118 -649q3 -14 7.5 -23.5t23.5 -11.5l38 -3l-7 -38h-278l8 38l50 5q42 3 37 33l-24 137h-276l-81 -137q-19 -30 21 -33l48 -5l-8 -38h-241l8 38l41 3q18 2 27 11.5t17 23.5zM254 277h227l-50 296zM497 943q19 0 36 -6.5t29.5 -18t20 -27.5t7.5 -35
q0 -38 -27 -63t-66 -25q-40 0 -67 25t-27 63q0 19 7.5 35t20.5 27.5t30 18t36 6.5zM497 900q-18 0 -31.5 -12.5t-13.5 -31.5q0 -20 13.5 -32t31.5 -12q17 0 30.5 12t13.5 32q0 19 -13.5 31.5t-30.5 12.5z" />
    <glyph glyph-name="AE" unicode="&#xc6;" horiz-adv-x="1153" 
d="M1175 725l-47 -222h-45l5 66q3 35 0.5 54t-14.5 28t-34.5 10.5t-59.5 1.5h-201l-54 -256h297l-14 -65h-297l-59 -280h213q37 0 60 1.5t38 10.5t25.5 28t22.5 54l23 66h45l-47 -222h-598l8 38l49 5q20 2 27.5 10t10.5 23l29 137h-282l-126 -137q-11 -13 -15.5 -22
t14.5 -11l48 -5l-7 -38h-248l8 38l41 3q18 2 36 12.5t30 22.5l610 649h508zM335 277h237l73 337z" />
    <glyph glyph-name="Ccedilla" unicode="&#xc7;" horiz-adv-x="781" 
d="M483 742q55 0 107.5 -15t94.5 -45.5t69 -76.5t32 -107h-124q0 34 -10 67t-32 58.5t-57.5 41t-85.5 15.5q-80 0 -136 -40t-92 -99.5t-52.5 -128t-16.5 -125.5q0 -110 48.5 -174t153.5 -64q97 0 157 49.5t79 134.5h124q-19 -61 -54.5 -107t-83.5 -77t-107.5 -46.5
t-125.5 -15.5q-65 0 -123.5 19t-102.5 57.5t-70.5 98t-26.5 140.5q0 85 30.5 164t87 140.5t137 98.5t180.5 37zM317 3h48l-48 -53q55 8 80 -13t25 -56q0 -26 -12 -45t-31.5 -31t-45 -17.5t-51.5 -5.5q-27 0 -52 5.5t-45 15.5l21 41q14 -8 31.5 -12.5t35.5 -4.5q29 0 51 11
t22 34q0 18 -15 26t-32 8q-21 0 -41 -10l-16 19z" />
    <glyph glyph-name="Egrave" unicode="&#xc8;" horiz-adv-x="719" 
d="M741 725l-47 -222h-44l5 66q3 35 0.5 54t-14.5 28t-34.5 10.5t-59.5 1.5h-201l-54 -256h296l-14 -65h-296l-60 -280h213q37 0 60 1.5t38.5 10.5t26 28t22.5 54l22 66h45l-47 -222h-597l8 38l49 5q20 2 27.5 10t10.5 23l122 573q4 15 0.5 24t-23.5 11l-48 4l8 37h586z
M322 890h145l78 -117h-72z" />
    <glyph glyph-name="Eacute" unicode="&#xc9;" horiz-adv-x="719" 
d="M741 725l-47 -222h-44l5 66q3 35 0.5 54t-14.5 28t-34.5 10.5t-59.5 1.5h-201l-54 -256h296l-14 -65h-296l-60 -280h213q37 0 60 1.5t38.5 10.5t26 28t22.5 54l22 66h45l-47 -222h-597l8 38l49 5q20 2 27.5 10t10.5 23l122 573q4 15 0.5 24t-23.5 11l-48 4l8 37h586z
M467 773h-72l128 117h145z" />
    <glyph glyph-name="Ecircumflex" unicode="&#xca;" horiz-adv-x="719" 
d="M741 725l-47 -222h-44l5 66q3 35 0.5 54t-14.5 28t-34.5 10.5t-59.5 1.5h-201l-54 -256h296l-14 -65h-296l-60 -280h213q37 0 60 1.5t38.5 10.5t26 28t22.5 54l22 66h45l-47 -222h-597l8 38l49 5q20 2 27.5 10t10.5 23l122 573q4 15 0.5 24t-23.5 11l-48 4l8 37h586z
M664 773h-75l-89 58l-118 -58h-81l164 117h87z" />
    <glyph glyph-name="Edieresis" unicode="&#xcb;" horiz-adv-x="719" 
d="M741 725l-47 -222h-44l5 66q3 35 0.5 54t-14.5 28t-34.5 10.5t-59.5 1.5h-201l-54 -256h296l-14 -65h-296l-60 -280h213q37 0 60 1.5t38.5 10.5t26 28t22.5 54l22 66h45l-47 -222h-597l8 38l49 5q20 2 27.5 10t10.5 23l122 573q4 15 0.5 24t-23.5 11l-48 4l8 37h586z
M328 890h117l-25 -117h-117zM556 890h117l-25 -117h-117z" />
    <glyph glyph-name="Igrave" unicode="&#xcc;" horiz-adv-x="405" 
d="M285 0h-284l8 38l49 5q20 2 27.5 10t10.5 23l122 573q4 15 0.5 24t-23.5 11l-48 4l8 37h284l-8 -37l-50 -4q-20 -2 -27.5 -11t-10.5 -24l-122 -573q-4 -15 -0.5 -23t22.5 -10l50 -5zM134 890h145l78 -117h-72z" />
    <glyph glyph-name="Iacute" unicode="&#xcd;" horiz-adv-x="405" 
d="M285 0h-284l8 38l49 5q20 2 27.5 10t10.5 23l122 573q4 15 0.5 24t-23.5 11l-48 4l8 37h284l-8 -37l-50 -4q-20 -2 -27.5 -11t-10.5 -24l-122 -573q-4 -15 -0.5 -23t22.5 -10l50 -5zM316 773h-72l128 117h145z" />
    <glyph glyph-name="Icircumflex" unicode="&#xce;" horiz-adv-x="405" 
d="M285 0h-284l8 38l49 5q20 2 27.5 10t10.5 23l122 573q4 15 0.5 24t-23.5 11l-48 4l8 37h284l-8 -37l-50 -4q-20 -2 -27.5 -11t-10.5 -24l-122 -573q-4 -15 -0.5 -23t22.5 -10l50 -5zM490 773h-75l-89 58l-118 -58h-81l164 117h87z" />
    <glyph glyph-name="Idieresis" unicode="&#xcf;" horiz-adv-x="405" 
d="M285 0h-284l8 38l49 5q20 2 27.5 10t10.5 23l122 573q4 15 0.5 24t-23.5 11l-48 4l8 37h284l-8 -37l-50 -4q-20 -2 -27.5 -11t-10.5 -24l-122 -573q-4 -15 -0.5 -23t22.5 -10l50 -5zM160 890h117l-25 -117h-117zM388 890h117l-25 -117h-117z" />
    <glyph glyph-name="Eth" unicode="&#xd0;" horiz-adv-x="786" 
d="M1 0l8 38l49 5q20 2 27.5 10t10.5 23l56 266h-103l14 65h103l51 242q4 15 0.5 24t-23.5 11l-48 4l8 37h253q84 0 154 -18t121 -53.5t79 -89.5t28 -126q0 -114 -42.5 -196.5t-115 -136.5t-168.5 -79.5t-202 -25.5h-260zM412 342h-135l-59 -281h66q90 0 160 28.5t117 79.5
t71.5 120.5t24.5 151.5q0 106 -62.5 164.5t-190.5 58.5h-58l-55 -257h135z" />
    <glyph glyph-name="Ntilde" unicode="&#xd1;" horiz-adv-x="834" 
d="M655 0h-67l-311 585l-108 -509q-3 -15 0.5 -23t22.5 -10l48 -5l-8 -38h-231l8 38l49 5q20 2 27.5 10t10.5 23l122 573q4 15 0.5 24t-23.5 11l-48 4l8 37h182l286 -530l97 454q4 15 0.5 23t-22.5 10l-49 5l8 38h232l-8 -38l-50 -5q-20 -2 -27.5 -10t-10.5 -23zM607 844
q22 0 32.5 11.5t13.5 34.5h62q-10 -64 -36.5 -91t-67.5 -27q-22 0 -40.5 7.5t-35 16.5t-31 16.5t-27.5 7.5q-21 0 -31 -12t-15 -35h-60q4 34 13.5 57t24 36.5t31.5 19t36 5.5q21 0 39 -7.5t34 -16t30 -16t28 -7.5z" />
    <glyph glyph-name="Ograve" unicode="&#xd2;" horiz-adv-x="792" 
d="M473 742q64 0 122 -19t102 -57.5t70.5 -98t26.5 -140.5q0 -85 -30.5 -164t-86.5 -140.5t-134.5 -98.5t-173.5 -37q-64 0 -122 19t-102.5 57.5t-70.5 98t-26 140.5q0 85 30.5 164t86.5 140.5t134 98.5t174 37zM460 680q-49 0 -88.5 -18.5t-70.5 -49.5t-54 -71.5t-38 -83.5
t-22 -87t-7 -81q0 -112 48.5 -176t153.5 -64q48 0 88 18.5t71 49.5t54 71.5t37.5 83.5t22 86.5t7.5 81.5q0 112 -49 176t-153 64zM307 890h145l78 -117h-72z" />
    <glyph glyph-name="Oacute" unicode="&#xd3;" horiz-adv-x="792" 
d="M473 742q64 0 122 -19t102 -57.5t70.5 -98t26.5 -140.5q0 -85 -30.5 -164t-86.5 -140.5t-134.5 -98.5t-173.5 -37q-64 0 -122 19t-102.5 57.5t-70.5 98t-26 140.5q0 85 30.5 164t86.5 140.5t134 98.5t174 37zM460 680q-49 0 -88.5 -18.5t-70.5 -49.5t-54 -71.5t-38 -83.5
t-22 -87t-7 -81q0 -112 48.5 -176t153.5 -64q48 0 88 18.5t71 49.5t54 71.5t37.5 83.5t22 86.5t7.5 81.5q0 112 -49 176t-153 64zM523 773h-72l128 117h145z" />
    <glyph glyph-name="Ocircumflex" unicode="&#xd4;" horiz-adv-x="792" 
d="M473 742q64 0 122 -19t102 -57.5t70.5 -98t26.5 -140.5q0 -85 -30.5 -164t-86.5 -140.5t-134.5 -98.5t-173.5 -37q-64 0 -122 19t-102.5 57.5t-70.5 98t-26 140.5q0 85 30.5 164t86.5 140.5t134 98.5t174 37zM460 680q-49 0 -88.5 -18.5t-70.5 -49.5t-54 -71.5t-38 -83.5
t-22 -87t-7 -81q0 -112 48.5 -176t153.5 -64q48 0 88 18.5t71 49.5t54 71.5t37.5 83.5t22 86.5t7.5 81.5q0 112 -49 176t-153 64zM676 773h-75l-89 58l-118 -58h-81l164 117h87z" />
    <glyph glyph-name="Otilde" unicode="&#xd5;" horiz-adv-x="792" 
d="M473 742q64 0 122 -19t102 -57.5t70.5 -98t26.5 -140.5q0 -85 -30.5 -164t-86.5 -140.5t-134.5 -98.5t-173.5 -37q-64 0 -122 19t-102.5 57.5t-70.5 98t-26 140.5q0 85 30.5 164t86.5 140.5t134 98.5t174 37zM460 680q-49 0 -88.5 -18.5t-70.5 -49.5t-54 -71.5t-38 -83.5
t-22 -87t-7 -81q0 -112 48.5 -176t153.5 -64q48 0 88 18.5t71 49.5t54 71.5t37.5 83.5t22 86.5t7.5 81.5q0 112 -49 176t-153 64zM576 844q22 0 32.5 11.5t13.5 34.5h62q-10 -64 -36.5 -91t-67.5 -27q-22 0 -40.5 7.5t-35 16.5t-31 16.5t-27.5 7.5q-21 0 -31 -12t-15 -35
h-60q4 34 13.5 57t24 36.5t31.5 19t36 5.5q21 0 39 -7.5t34 -16t30 -16t28 -7.5z" />
    <glyph glyph-name="Odieresis" unicode="&#xd6;" horiz-adv-x="792" 
d="M473 742q64 0 122 -19t102 -57.5t70.5 -98t26.5 -140.5q0 -85 -30.5 -164t-86.5 -140.5t-134.5 -98.5t-173.5 -37q-64 0 -122 19t-102.5 57.5t-70.5 98t-26 140.5q0 85 30.5 164t86.5 140.5t134 98.5t174 37zM460 680q-49 0 -88.5 -18.5t-70.5 -49.5t-54 -71.5t-38 -83.5
t-22 -87t-7 -81q0 -112 48.5 -176t153.5 -64q48 0 88 18.5t71 49.5t54 71.5t37.5 83.5t22 86.5t7.5 81.5q0 112 -49 176t-153 64zM337 890h117l-25 -117h-117zM565 890h117l-25 -117h-117z" />
    <glyph glyph-name="multiply" unicode="&#xd7;" 
d="M532 35l-181 181l-178 -178l-57 57l178 178l-178 179l57 57l178 -179l178 178l57 -57l-178 -178l181 -181z" />
    <glyph glyph-name="Oslash" unicode="&#xd8;" horiz-adv-x="792" 
d="M473 742q50 0 96.5 -11.5t85.5 -34.5l47 55l34 -26l-46 -54q48 -39 76 -99t28 -145t-30.5 -164t-86.5 -140.5t-134.5 -98.5t-173.5 -37q-58 0 -110.5 15t-95.5 47l-52 -61l-32 27l52 61q-38 39 -60.5 95t-22.5 131q0 85 30.5 164t86.5 140.5t134 98.5t174 37zM662 440
q0 48 -8.5 87t-26.5 69l-404 -476q25 -35 64 -53t95 -18q48 0 88 18.5t71 49.5t54 71.5t37.5 83.5t22 86.5t7.5 81.5zM460 680q-49 0 -88.5 -18.5t-70.5 -49.5t-54 -71.5t-38 -83.5t-22 -87t-7 -81q0 -76 21 -130l399 471q-25 24 -59.5 37t-80.5 13z" />
    <glyph glyph-name="Ugrave" unicode="&#xd9;" horiz-adv-x="826" 
d="M373 -13q-89 0 -146 21t-87.5 61.5t-35.5 99.5t12 136l73 344q4 15 0 24t-24 11l-48 4l8 37h284l-8 -37l-50 -4q-20 -2 -27.5 -11t-10.5 -24l-79 -372q-11 -52 -8.5 -92t21 -67t54 -41t91.5 -14q46 0 86 11.5t71.5 36.5t54.5 65.5t35 98.5l80 374q3 15 0 24t-23 11l-48 4
l8 37h235l-8 -37l-51 -4q-20 -2 -27 -11t-10 -24l-78 -369q-14 -63 -38.5 -116.5t-65 -93t-99.5 -61.5t-141 -22zM354 890h145l78 -117h-72z" />
    <glyph glyph-name="Uacute" unicode="&#xda;" horiz-adv-x="826" 
d="M373 -13q-89 0 -146 21t-87.5 61.5t-35.5 99.5t12 136l73 344q4 15 0 24t-24 11l-48 4l8 37h284l-8 -37l-50 -4q-20 -2 -27.5 -11t-10.5 -24l-79 -372q-11 -52 -8.5 -92t21 -67t54 -41t91.5 -14q46 0 86 11.5t71.5 36.5t54.5 65.5t35 98.5l80 374q3 15 0 24t-23 11l-48 4
l8 37h235l-8 -37l-51 -4q-20 -2 -27 -11t-10 -24l-78 -369q-14 -63 -38.5 -116.5t-65 -93t-99.5 -61.5t-141 -22zM541 773h-72l128 117h145z" />
    <glyph glyph-name="Ucircumflex" unicode="&#xdb;" horiz-adv-x="826" 
d="M373 -13q-89 0 -146 21t-87.5 61.5t-35.5 99.5t12 136l73 344q4 15 0 24t-24 11l-48 4l8 37h284l-8 -37l-50 -4q-20 -2 -27.5 -11t-10.5 -24l-79 -372q-11 -52 -8.5 -92t21 -67t54 -41t91.5 -14q46 0 86 11.5t71.5 36.5t54.5 65.5t35 98.5l80 374q3 15 0 24t-23 11l-48 4
l8 37h235l-8 -37l-51 -4q-20 -2 -27 -11t-10 -24l-78 -369q-14 -63 -38.5 -116.5t-65 -93t-99.5 -61.5t-141 -22zM711 773h-75l-89 58l-118 -58h-81l164 117h87z" />
    <glyph glyph-name="Udieresis" unicode="&#xdc;" horiz-adv-x="826" 
d="M373 -13q-89 0 -146 21t-87.5 61.5t-35.5 99.5t12 136l73 344q4 15 0 24t-24 11l-48 4l8 37h284l-8 -37l-50 -4q-20 -2 -27.5 -11t-10.5 -24l-79 -372q-11 -52 -8.5 -92t21 -67t54 -41t91.5 -14q46 0 86 11.5t71.5 36.5t54.5 65.5t35 98.5l80 374q3 15 0 24t-23 11l-48 4
l8 37h235l-8 -37l-51 -4q-20 -2 -27 -11t-10 -24l-78 -369q-14 -63 -38.5 -116.5t-65 -93t-99.5 -61.5t-141 -22zM389 890h117l-25 -117h-117zM617 890h117l-25 -117h-117z" />
    <glyph glyph-name="Yacute" unicode="&#xdd;" horiz-adv-x="721" 
d="M295 287l-129 362q-5 14 -11.5 24t-24.5 12l-33 3l8 37h286l-8 -37l-50 -4q-20 -2 -30.5 -11.5t-5.5 -23.5l104 -297l229 297q11 14 10.5 22.5t-32.5 12.5l-48 4l8 37h236l-8 -37l-33 -3q-19 -2 -30.5 -12t-22.5 -24l-291 -363l-45 -210q-3 -15 0.5 -23t23.5 -10l48 -5
l-8 -38h-285l8 38l50 5q21 2 28 10t11 23zM500 773h-72l128 117h145z" />
    <glyph glyph-name="Thorn" unicode="&#xde;" horiz-adv-x="674" 
d="M402 583q63 0 116.5 -10t92 -31.5t60.5 -56.5t22 -86q0 -71 -33.5 -117.5t-86.5 -74.5t-119 -39.5t-132 -11.5h-84l-16 -80q-4 -15 -0.5 -23t22.5 -10l66 -5l-8 -38h-301l8 38l49 5q20 2 27.5 10t10.5 23l121 573q4 15 0.5 24t-23.5 11l-48 4l8 37h302l-7 -37l-68 -4
q-20 -2 -27.5 -11t-10.5 -24l-14 -66h73zM315 521l-64 -302h75q46 0 88.5 8.5t74.5 28.5t51.5 53t19.5 83q0 28 -8.5 52t-28.5 41t-52.5 26.5t-79.5 9.5h-76z" />
    <glyph glyph-name="germandbls" unicode="&#xdf;" horiz-adv-x="720" 
d="M159 519q26 122 99 178t194 56q55 0 97 -11.5t70.5 -32t43 -48.5t14.5 -60q0 -34 -13.5 -63t-36 -52t-53.5 -40t-65 -26l-1 -3q30 -8 57.5 -21.5t48.5 -35t33.5 -51.5t12.5 -70q0 -63 -26.5 -110t-71 -78.5t-102 -47.5t-118.5 -16q-38 0 -71 3t-64 8l19 90h3
q29 -18 60 -30t64 -12q40 0 73.5 14t56.5 38.5t36 59.5t13 77q0 72 -44.5 109t-125.5 37h-31l14 64h21q37 0 71 8t60 25.5t41.5 45t15.5 67.5q0 48 -27.5 75.5t-81.5 27.5q-66 0 -108.5 -41.5t-63.5 -142.5l-64 -305l-42 -205h-181l8 35l31 4q22 3 29 10.5t11 23.5z" />
    <glyph glyph-name="agrave" unicode="&#xe0;" horiz-adv-x="619" 
d="M427 362q2 12 3.5 22.5t1.5 20.5q0 49 -29 67.5t-77 18.5q-55 0 -87.5 -32.5t-40.5 -88.5h-110q10 43 34 76t57.5 55.5t75 34t87.5 11.5q94 0 147.5 -34.5t53.5 -110.5q0 -31 -9 -67q-5 -17 -11.5 -48.5t-14.5 -66.5q-15 -66 -27 -137q-1 -5 -1.5 -8.5t-0.5 -7.5
q0 -10 5.5 -13t20.5 -5l42 -4l-8 -37l-169 -11l12 98h-3q-35 -49 -79.5 -78.5t-117.5 -29.5q-33 0 -61 9.5t-48.5 27t-32 41.5t-11.5 53q0 88 97 138.5t293 67.5zM409 269q-68 -6 -115.5 -15.5t-77.5 -25.5t-44 -39.5t-14 -56.5q0 -32 22 -54.5t65 -22.5q19 0 41.5 9t45 30
t41.5 56t30 88zM201 745h131l64 -142h-56z" />
    <glyph glyph-name="aacute" unicode="&#xe1;" horiz-adv-x="619" 
d="M427 362q2 12 3.5 22.5t1.5 20.5q0 49 -29 67.5t-77 18.5q-55 0 -87.5 -32.5t-40.5 -88.5h-110q10 43 34 76t57.5 55.5t75 34t87.5 11.5q94 0 147.5 -34.5t53.5 -110.5q0 -31 -9 -67q-5 -17 -11.5 -48.5t-14.5 -66.5q-15 -66 -27 -137q-1 -5 -1.5 -8.5t-0.5 -7.5
q0 -10 5.5 -13t20.5 -5l42 -4l-8 -37l-169 -11l12 98h-3q-35 -49 -79.5 -78.5t-117.5 -29.5q-33 0 -61 9.5t-48.5 27t-32 41.5t-11.5 53q0 88 97 138.5t293 67.5zM409 269q-68 -6 -115.5 -15.5t-77.5 -25.5t-44 -39.5t-14 -56.5q0 -32 22 -54.5t65 -22.5q19 0 41.5 9t45 30
t41.5 56t30 88zM374 603h-57l122 142h132z" />
    <glyph glyph-name="acircumflex" unicode="&#xe2;" horiz-adv-x="619" 
d="M427 362q2 12 3.5 22.5t1.5 20.5q0 49 -29 67.5t-77 18.5q-55 0 -87.5 -32.5t-40.5 -88.5h-110q10 43 34 76t57.5 55.5t75 34t87.5 11.5q94 0 147.5 -34.5t53.5 -110.5q0 -31 -9 -67q-5 -17 -11.5 -48.5t-14.5 -66.5q-15 -66 -27 -137q-1 -5 -1.5 -8.5t-0.5 -7.5
q0 -10 5.5 -13t20.5 -5l42 -4l-8 -37l-169 -11l12 98h-3q-35 -49 -79.5 -78.5t-117.5 -29.5q-33 0 -61 9.5t-48.5 27t-32 41.5t-11.5 53q0 88 97 138.5t293 67.5zM409 269q-68 -6 -115.5 -15.5t-77.5 -25.5t-44 -39.5t-14 -56.5q0 -32 22 -54.5t65 -22.5q19 0 41.5 9t45 30
t41.5 56t30 88zM539 603h-60l-95 67l-133 -67h-60l171 142h69z" />
    <glyph glyph-name="atilde" unicode="&#xe3;" horiz-adv-x="619" 
d="M427 362q2 12 3.5 22.5t1.5 20.5q0 49 -29 67.5t-77 18.5q-55 0 -87.5 -32.5t-40.5 -88.5h-110q10 43 34 76t57.5 55.5t75 34t87.5 11.5q94 0 147.5 -34.5t53.5 -110.5q0 -31 -9 -67q-5 -17 -11.5 -48.5t-14.5 -66.5q-15 -66 -27 -137q-1 -5 -1.5 -8.5t-0.5 -7.5
q0 -10 5.5 -13t20.5 -5l42 -4l-8 -37l-169 -11l12 98h-3q-35 -49 -79.5 -78.5t-117.5 -29.5q-33 0 -61 9.5t-48.5 27t-32 41.5t-11.5 53q0 88 97 138.5t293 67.5zM409 269q-68 -6 -115.5 -15.5t-77.5 -25.5t-44 -39.5t-14 -56.5q0 -32 22 -54.5t65 -22.5q19 0 41.5 9t45 30
t41.5 56t30 88zM438 679q22 0 32.5 12.5t13.5 34.5h62q-10 -64 -36.5 -91.5t-67.5 -27.5q-22 0 -40.5 7.5t-35 16.5t-31 16.5t-27.5 7.5q-21 0 -31 -12.5t-15 -35.5h-60q4 34 13.5 57t24 36.5t31.5 19.5t36 6q21 0 39 -7.5t34 -16t30 -16t28 -7.5z" />
    <glyph glyph-name="adieresis" unicode="&#xe4;" horiz-adv-x="619" 
d="M427 362q2 12 3.5 22.5t1.5 20.5q0 49 -29 67.5t-77 18.5q-55 0 -87.5 -32.5t-40.5 -88.5h-110q10 43 34 76t57.5 55.5t75 34t87.5 11.5q94 0 147.5 -34.5t53.5 -110.5q0 -31 -9 -67q-5 -17 -11.5 -48.5t-14.5 -66.5q-15 -66 -27 -137q-1 -5 -1.5 -8.5t-0.5 -7.5
q0 -10 5.5 -13t20.5 -5l42 -4l-8 -37l-169 -11l12 98h-3q-35 -49 -79.5 -78.5t-117.5 -29.5q-33 0 -61 9.5t-48.5 27t-32 41.5t-11.5 53q0 88 97 138.5t293 67.5zM409 269q-68 -6 -115.5 -15.5t-77.5 -25.5t-44 -39.5t-14 -56.5q0 -32 22 -54.5t65 -22.5q19 0 41.5 9t45 30
t41.5 56t30 88zM216 745h117l-29 -135h-117zM445 745h117l-30 -135h-117z" />
    <glyph glyph-name="aring" unicode="&#xe5;" horiz-adv-x="619" 
d="M427 362q2 12 3.5 22.5t1.5 20.5q0 49 -29 67.5t-77 18.5q-55 0 -87.5 -32.5t-40.5 -88.5h-110q10 43 34 76t57.5 55.5t75 34t87.5 11.5q94 0 147.5 -34.5t53.5 -110.5q0 -31 -9 -67q-5 -17 -11.5 -48.5t-14.5 -66.5q-15 -66 -27 -137q-1 -5 -1.5 -8.5t-0.5 -7.5
q0 -10 5.5 -13t20.5 -5l42 -4l-8 -37l-169 -11l12 98h-3q-35 -49 -79.5 -78.5t-117.5 -29.5q-33 0 -61 9.5t-48.5 27t-32 41.5t-11.5 53q0 88 97 138.5t293 67.5zM409 269q-68 -6 -115.5 -15.5t-77.5 -25.5t-44 -39.5t-14 -56.5q0 -32 22 -54.5t65 -22.5q19 0 41.5 9t45 30
t41.5 56t30 88zM386 764q19 0 36 -6.5t30 -18.5t20.5 -28t7.5 -35q0 -38 -27.5 -63.5t-66.5 -25.5q-40 0 -67 25.5t-27 63.5q0 19 7.5 35t20.5 28t30 18.5t36 6.5zM386 721q-17 0 -31 -13t-14 -32q0 -20 14 -32t31 -12t31 12t14 32q0 19 -14 32t-31 13z" />
    <glyph glyph-name="ae" unicode="&#xe6;" horiz-adv-x="956" 
d="M625 -13q-82 0 -132.5 34t-69.5 91q-35 -60 -88 -92.5t-129 -32.5q-40 0 -72.5 11.5t-56 32.5t-36 50.5t-12.5 64.5q0 48 19.5 80.5t56.5 52.5q40 23 96 33.5t126 15.5l85 6l8 34q14 67 -10.5 95t-81.5 28q-55 0 -90 -28.5t-43 -82.5h-109q5 39 27 70t55 52.5t75 33
t88 11.5q65 0 105.5 -16.5t64.5 -49.5q35 32 85.5 49t104.5 17q51 0 97 -16t77.5 -50.5t45 -88.5t1.5 -130h-396q-7 -31 -7.5 -68.5t11 -70.5t37 -55t69.5 -22q59 0 97.5 32.5t52.5 89.5h111q-30 -93 -100.5 -137t-161.5 -44zM404 278l-79 -4q-28 -2 -58 -7.5t-55 -19
t-41 -36.5t-16 -58q0 -42 23.5 -70t67.5 -28q17 0 38 7t41 26t38 52t29 85zM687 490q-34 0 -61 -13t-47 -36t-33 -53.5t-19 -65.5h270q7 45 1 77t-21.5 52.5t-38.5 29.5t-51 9z" />
    <glyph glyph-name="ccedilla" unicode="&#xe7;" horiz-adv-x="591" 
d="M36 211q0 54 18.5 113t57 108.5t96.5 82t137 32.5q55 0 96.5 -15.5t69 -41t41.5 -59t15 -69.5h-113q4 62 -24.5 94t-79.5 32q-45 0 -80.5 -27t-60.5 -71t-38 -100t-13 -114q0 -27 6 -50.5t19.5 -41.5t34 -28t50.5 -10q23 0 45.5 6t42 20.5t35.5 38.5t25 59h114
q-16 -49 -44 -83.5t-63.5 -56.5t-76 -32.5t-81.5 -10.5q-56 0 -99 17.5t-72 47.5t-43.5 71t-14.5 88zM245 3h48l-48 -53q55 8 80 -13t25 -56q0 -26 -12 -45t-31.5 -31t-45 -17.5t-51.5 -5.5q-27 0 -52 5.5t-45 15.5l21 41q14 -8 31.5 -12.5t35.5 -4.5q29 0 51 11t22 34
q0 18 -15 26t-32 8q-21 0 -41 -10l-16 19z" />
    <glyph glyph-name="egrave" unicode="&#xe8;" horiz-adv-x="605" 
d="M533 168q-33 -93 -105 -137t-163 -44q-56 0 -99 17.5t-72 47.5t-43.5 71t-14.5 88q0 63 21.5 123.5t62 108t98.5 76t132 28.5q45 0 85 -12t70 -37.5t47.5 -65t17.5 -94.5q0 -33 -8 -76h-395q-9 -48 -9 -86q0 -27 6 -50.5t19.5 -41.5t34 -28t50.5 -10q59 0 99 32.5
t55 89.5h111zM345 490q-34 0 -61.5 -13t-48.5 -36t-35 -53.5t-21 -65.5h269q3 14 4 27.5t1 25.5q0 62 -31 88.5t-77 26.5zM194 745h131l64 -142h-56z" />
    <glyph glyph-name="eacute" unicode="&#xe9;" horiz-adv-x="605" 
d="M533 168q-33 -93 -105 -137t-163 -44q-56 0 -99 17.5t-72 47.5t-43.5 71t-14.5 88q0 63 21.5 123.5t62 108t98.5 76t132 28.5q45 0 85 -12t70 -37.5t47.5 -65t17.5 -94.5q0 -33 -8 -76h-395q-9 -48 -9 -86q0 -27 6 -50.5t19.5 -41.5t34 -28t50.5 -10q59 0 99 32.5
t55 89.5h111zM345 490q-34 0 -61.5 -13t-48.5 -36t-35 -53.5t-21 -65.5h269q3 14 4 27.5t1 25.5q0 62 -31 88.5t-77 26.5zM369 603h-57l122 142h132z" />
    <glyph glyph-name="ecircumflex" unicode="&#xea;" horiz-adv-x="605" 
d="M533 168q-33 -93 -105 -137t-163 -44q-56 0 -99 17.5t-72 47.5t-43.5 71t-14.5 88q0 63 21.5 123.5t62 108t98.5 76t132 28.5q45 0 85 -12t70 -37.5t47.5 -65t17.5 -94.5q0 -33 -8 -76h-395q-9 -48 -9 -86q0 -27 6 -50.5t19.5 -41.5t34 -28t50.5 -10q59 0 99 32.5
t55 89.5h111zM345 490q-34 0 -61.5 -13t-48.5 -36t-35 -53.5t-21 -65.5h269q3 14 4 27.5t1 25.5q0 62 -31 88.5t-77 26.5zM531 603h-60l-95 67l-133 -67h-60l171 142h69z" />
    <glyph glyph-name="edieresis" unicode="&#xeb;" horiz-adv-x="605" 
d="M533 168q-33 -93 -105 -137t-163 -44q-56 0 -99 17.5t-72 47.5t-43.5 71t-14.5 88q0 63 21.5 123.5t62 108t98.5 76t132 28.5q45 0 85 -12t70 -37.5t47.5 -65t17.5 -94.5q0 -33 -8 -76h-395q-9 -48 -9 -86q0 -27 6 -50.5t19.5 -41.5t34 -28t50.5 -10q59 0 99 32.5
t55 89.5h111zM345 490q-34 0 -61.5 -13t-48.5 -36t-35 -53.5t-21 -65.5h269q3 14 4 27.5t1 25.5q0 62 -31 88.5t-77 26.5zM214 745h117l-29 -135h-117zM443 745h117l-30 -135h-117z" />
    <glyph glyph-name="igrave" unicode="&#xec;" horiz-adv-x="331" 
d="M262 405l-70 -330q-4 -20 0.5 -26t23.5 -8l42 -4l-8 -37h-264l8 37l42 4q10 1 17 3t11.5 5.5t7 9.5t4.5 16l83 389q5 19 0 24.5t-25 8.5l-41 4l8 37h192zM83 745h131l64 -142h-56z" />
    <glyph glyph-name="iacute" unicode="&#xed;" horiz-adv-x="331" 
d="M262 405l-70 -330q-4 -20 0.5 -26t23.5 -8l42 -4l-8 -37h-264l8 37l42 4q10 1 17 3t11.5 5.5t7 9.5t4.5 16l83 389q5 19 0 24.5t-25 8.5l-41 4l8 37h192zM248 603h-57l122 142h132z" />
    <glyph glyph-name="icircumflex" unicode="&#xee;" horiz-adv-x="331" 
d="M262 405l-70 -330q-4 -20 0.5 -26t23.5 -8l42 -4l-8 -37h-264l8 37l42 4q10 1 17 3t11.5 5.5t7 9.5t4.5 16l83 389q5 19 0 24.5t-25 8.5l-41 4l8 37h192zM418 603h-60l-95 67l-133 -67h-60l171 142h69z" />
    <glyph glyph-name="idieresis" unicode="&#xef;" horiz-adv-x="331" 
d="M262 405l-70 -330q-4 -20 0.5 -26t23.5 -8l42 -4l-8 -37h-264l8 37l42 4q10 1 17 3t11.5 5.5t7 9.5t4.5 16l83 389q5 19 0 24.5t-25 8.5l-41 4l8 37h192zM88 745h117l-29 -135h-117zM317 745h117l-30 -135h-117z" />
    <glyph glyph-name="eth" unicode="&#xf0;" horiz-adv-x="619" 
d="M317 679q-23 13 -49 23t-55 19l24 40q34 -5 66 -15.5t61 -24.5l80 71l30 -33l-68 -61q77 -51 124.5 -130t47.5 -179q0 -42 -9 -88t-27 -90.5t-44.5 -85t-61.5 -71.5t-78.5 -49t-95.5 -18q-56 0 -97.5 17t-70 47t-42.5 70.5t-14 87.5q0 71 22 131t59 103.5t85 67.5t99 24
q60 0 102.5 -26.5t61.5 -78.5l2 1q-1 72 -30 127t-83 95l-82 -73l-31 33zM271 46q35 0 67 25t57 64.5t39.5 88t14.5 96.5q0 74 -29 115t-80 41q-37 0 -69 -21t-55.5 -57t-37 -84.5t-13.5 -104.5q0 -87 29.5 -125t76.5 -38z" />
    <glyph glyph-name="ntilde" unicode="&#xf1;" horiz-adv-x="665" 
d="M526 75q-5 -20 0 -26t25 -8l42 -4l-8 -37h-266l8 37l44 4q20 2 27 8t11 26l51 240q10 46 11.5 77t-5.5 49.5t-23.5 26t-41.5 7.5q-24 0 -48 -11t-45 -35t-38.5 -62.5t-29.5 -92.5l-42 -199q-4 -20 0.5 -26t24.5 -8l42 -4l-8 -37h-264l8 37l42 4q20 2 27 8t11 26l83 389
q5 19 0.5 24.5t-24.5 8.5l-42 4l8 37h190l-21 -99h1q32 55 79.5 81.5t106.5 26.5q48 0 76.5 -16.5t41 -45t12 -66t-9.5 -80.5zM482 679q22 0 32.5 12.5t13.5 34.5h62q-10 -64 -36.5 -91.5t-67.5 -27.5q-22 0 -40.5 7.5t-35 16.5t-31 16.5t-27.5 7.5q-21 0 -31 -12.5
t-15 -35.5h-60q4 34 13.5 57t24 36.5t31.5 19.5t36 6q21 0 39 -7.5t34 -16t30 -16t28 -7.5z" />
    <glyph glyph-name="ograve" unicode="&#xf2;" horiz-adv-x="610" 
d="M335 547q58 0 102 -18t74 -49.5t45.5 -74t15.5 -91.5q0 -67 -21.5 -126.5t-60.5 -104t-93.5 -70.5t-121.5 -26q-58 0 -102 18t-74 49.5t-45.5 74t-15.5 91.5q0 67 21.5 126.5t60.5 104t93.5 70.5t121.5 26zM276 46q33 0 58.5 15t45 39.5t33 56t21.5 65t12 65.5t4 58
q0 29 -6 55t-19.5 45.5t-35.5 31t-53 11.5q-49 0 -82.5 -32t-54.5 -78.5t-30 -98t-9 -89.5q0 -30 6.5 -56t20 -45.5t35.5 -31t54 -11.5zM195 745h131l64 -142h-56z" />
    <glyph glyph-name="oacute" unicode="&#xf3;" horiz-adv-x="610" 
d="M335 547q58 0 102 -18t74 -49.5t45.5 -74t15.5 -91.5q0 -67 -21.5 -126.5t-60.5 -104t-93.5 -70.5t-121.5 -26q-58 0 -102 18t-74 49.5t-45.5 74t-15.5 91.5q0 67 21.5 126.5t60.5 104t93.5 70.5t121.5 26zM276 46q33 0 58.5 15t45 39.5t33 56t21.5 65t12 65.5t4 58
q0 29 -6 55t-19.5 45.5t-35.5 31t-53 11.5q-49 0 -82.5 -32t-54.5 -78.5t-30 -98t-9 -89.5q0 -30 6.5 -56t20 -45.5t35.5 -31t54 -11.5zM370 603h-57l122 142h132z" />
    <glyph glyph-name="ocircumflex" unicode="&#xf4;" horiz-adv-x="610" 
d="M335 547q58 0 102 -18t74 -49.5t45.5 -74t15.5 -91.5q0 -67 -21.5 -126.5t-60.5 -104t-93.5 -70.5t-121.5 -26q-58 0 -102 18t-74 49.5t-45.5 74t-15.5 91.5q0 67 21.5 126.5t60.5 104t93.5 70.5t121.5 26zM276 46q33 0 58.5 15t45 39.5t33 56t21.5 65t12 65.5t4 58
q0 29 -6 55t-19.5 45.5t-35.5 31t-53 11.5q-49 0 -82.5 -32t-54.5 -78.5t-30 -98t-9 -89.5q0 -30 6.5 -56t20 -45.5t35.5 -31t54 -11.5zM534 603h-60l-95 67l-133 -67h-60l171 142h69z" />
    <glyph glyph-name="otilde" unicode="&#xf5;" horiz-adv-x="610" 
d="M335 547q58 0 102 -18t74 -49.5t45.5 -74t15.5 -91.5q0 -67 -21.5 -126.5t-60.5 -104t-93.5 -70.5t-121.5 -26q-58 0 -102 18t-74 49.5t-45.5 74t-15.5 91.5q0 67 21.5 126.5t60.5 104t93.5 70.5t121.5 26zM276 46q33 0 58.5 15t45 39.5t33 56t21.5 65t12 65.5t4 58
q0 29 -6 55t-19.5 45.5t-35.5 31t-53 11.5q-49 0 -82.5 -32t-54.5 -78.5t-30 -98t-9 -89.5q0 -30 6.5 -56t20 -45.5t35.5 -31t54 -11.5zM449 679q22 0 32.5 12.5t13.5 34.5h62q-10 -64 -36.5 -91.5t-67.5 -27.5q-22 0 -40.5 7.5t-35 16.5t-31 16.5t-27.5 7.5
q-21 0 -31 -12.5t-15 -35.5h-60q4 34 13.5 57t24 36.5t31.5 19.5t36 6q21 0 39 -7.5t34 -16t30 -16t28 -7.5z" />
    <glyph glyph-name="odieresis" unicode="&#xf6;" horiz-adv-x="610" 
d="M335 547q58 0 102 -18t74 -49.5t45.5 -74t15.5 -91.5q0 -67 -21.5 -126.5t-60.5 -104t-93.5 -70.5t-121.5 -26q-58 0 -102 18t-74 49.5t-45.5 74t-15.5 91.5q0 67 21.5 126.5t60.5 104t93.5 70.5t121.5 26zM276 46q33 0 58.5 15t45 39.5t33 56t21.5 65t12 65.5t4 58
q0 29 -6 55t-19.5 45.5t-35.5 31t-53 11.5q-49 0 -82.5 -32t-54.5 -78.5t-30 -98t-9 -89.5q0 -30 6.5 -56t20 -45.5t35.5 -31t54 -11.5zM222 745h117l-29 -135h-117zM451 745h117l-30 -135h-117z" />
    <glyph glyph-name="divide" unicode="&#xf7;" 
d="M303 156h105v-107h-105v107zM303 494h105v-109h-105v109zM92 230v76h522v-76h-522z" />
    <glyph glyph-name="oslash" unicode="&#xf8;" horiz-adv-x="610" 
d="M335 547q39 0 71.5 -8.5t59.5 -23.5l35 45l33 -24l-35 -45q36 -32 54.5 -77.5t18.5 -99.5q0 -67 -21.5 -126.5t-60.5 -104t-93.5 -70.5t-121.5 -26q-42 0 -77 10t-62 27l-37 -47l-33 23l38 49q-32 32 -49 76t-17 95q0 67 21.5 126.5t60.5 104t93.5 70.5t121.5 26zM276 46
q33 0 58.5 15t45 39.5t33 56t21.5 65t12 65.5t4 58q0 40 -10 70l-254 -326q14 -20 36 -31.5t54 -11.5zM336 488q-49 0 -82.5 -32t-54.5 -78.5t-30 -98t-9 -89.5q0 -35 7 -60l251 324q-14 16 -34 25t-48 9z" />
    <glyph glyph-name="ugrave" unicode="&#xf9;" horiz-adv-x="642" 
d="M381 85h-1q-29 -46 -68 -72t-98 -26q-48 0 -78 16.5t-44.5 46.5t-15.5 70.5t9 88.5l55 255q4 19 -0.5 24.5t-24.5 8.5l-41 4l8 37h192l-31 -136l-39 -184q-18 -86 -6 -122.5t63 -36.5q56 0 94.5 46.5t58.5 140.5l47 218q4 19 0 24.5t-24 8.5l-42 4l8 37h192l-31 -136
l-67 -318q-5 -20 0 -26t24 -8l42 -4l-8 -37l-190 -18zM195 745h131l64 -142h-56z" />
    <glyph glyph-name="uacute" unicode="&#xfa;" horiz-adv-x="642" 
d="M381 85h-1q-29 -46 -68 -72t-98 -26q-48 0 -78 16.5t-44.5 46.5t-15.5 70.5t9 88.5l55 255q4 19 -0.5 24.5t-24.5 8.5l-41 4l8 37h192l-31 -136l-39 -184q-18 -86 -6 -122.5t63 -36.5q56 0 94.5 46.5t58.5 140.5l47 218q4 19 0 24.5t-24 8.5l-42 4l8 37h192l-31 -136
l-67 -318q-5 -20 0 -26t24 -8l42 -4l-8 -37l-190 -18zM393 603h-57l122 142h132z" />
    <glyph glyph-name="ucircumflex" unicode="&#xfb;" horiz-adv-x="642" 
d="M381 85h-1q-29 -46 -68 -72t-98 -26q-48 0 -78 16.5t-44.5 46.5t-15.5 70.5t9 88.5l55 255q4 19 -0.5 24.5t-24.5 8.5l-41 4l8 37h192l-31 -136l-39 -184q-18 -86 -6 -122.5t63 -36.5q56 0 94.5 46.5t58.5 140.5l47 218q4 19 0 24.5t-24 8.5l-42 4l8 37h192l-31 -136
l-67 -318q-5 -20 0 -26t24 -8l42 -4l-8 -37l-190 -18zM543 603h-60l-95 67l-133 -67h-60l171 142h69z" />
    <glyph glyph-name="udieresis" unicode="&#xfc;" horiz-adv-x="642" 
d="M381 85h-1q-29 -46 -68 -72t-98 -26q-48 0 -78 16.5t-44.5 46.5t-15.5 70.5t9 88.5l55 255q4 19 -0.5 24.5t-24.5 8.5l-41 4l8 37h192l-31 -136l-39 -184q-18 -86 -6 -122.5t63 -36.5q56 0 94.5 46.5t58.5 140.5l47 218q4 19 0 24.5t-24 8.5l-42 4l8 37h192l-31 -136
l-67 -318q-5 -20 0 -26t24 -8l42 -4l-8 -37l-190 -18zM230 745h117l-29 -135h-117zM459 745h117l-30 -135h-117z" />
    <glyph glyph-name="yacute" unicode="&#xfd;" horiz-adv-x="578" 
d="M-66 -189l15 71h79q19 0 34.5 4t30 17t30.5 36t37 62l8 13l-73 452q-3 17 -8.5 23.5t-26.5 9.5l-22 2l7 37h252l-8 -37l-47 -3q-18 -2 -24.5 -9t-3.5 -24l45 -333l176 306q16 27 20.5 41.5t-19.5 17.5l-43 4l7 37h216l-7 -37l-33 -2q-18 -2 -29 -12.5t-28 -38.5
l-272 -458q-32 -54 -57.5 -88.5t-51 -55t-56 -28t-73.5 -7.5h-75zM356 606h-57l122 142h132z" />
    <glyph glyph-name="thorn" unicode="&#xfe;" horiz-adv-x="686" 
d="M417 476q-35 0 -67.5 -23.5t-57 -61.5t-39 -85.5t-14.5 -94.5q0 -75 30 -115.5t84 -40.5q34 0 64.5 21t54 57t37.5 84.5t14 104.5q0 43 -8 72.5t-22 47.5t-33.5 26t-42.5 8zM-38 -189l8 37l43 5q20 2 27 7.5t12 25.5l168 784q4 20 -0.5 25.5t-25.5 7.5l-41 5l8 37h192
l-30 -137l-14 -65q-9 -43 -14.5 -66.5t-13.5 -44.5h2q13 24 32 44.5t42 35.5t49.5 23.5t55.5 8.5q46 0 81 -17.5t59 -47.5t36 -70.5t12 -86.5q0 -75 -22 -137t-59.5 -106t-87 -68t-104.5 -24q-60 0 -103 35.5t-57 100.5h-2q-3 -21 -8 -51.5t-10 -56.5l-28 -127
q-4 -20 0.5 -26t23.5 -8l69 -5l-9 -38h-291z" />
    <glyph glyph-name="ydieresis" unicode="&#xff;" horiz-adv-x="578" 
d="M-66 -189l15 71h79q19 0 34.5 4t30 17t30.5 36t37 62l8 13l-73 452q-3 17 -8.5 23.5t-26.5 9.5l-22 2l7 37h252l-8 -37l-47 -3q-18 -2 -24.5 -9t-3.5 -24l45 -333l176 306q16 27 20.5 41.5t-19.5 17.5l-43 4l7 37h216l-7 -37l-33 -2q-18 -2 -29 -12.5t-28 -38.5
l-272 -458q-32 -54 -57.5 -88.5t-51 -55t-56 -28t-73.5 -7.5h-75zM212 745h117l-29 -135h-117zM441 745h117l-30 -135h-117z" />
    <glyph glyph-name="Abreve" unicode="&#x102;" horiz-adv-x="755" 
d="M441 725h78l118 -649q3 -14 7.5 -23.5t23.5 -11.5l38 -3l-7 -38h-278l8 38l50 5q42 3 37 33l-24 137h-276l-81 -137q-19 -30 21 -33l48 -5l-8 -38h-241l8 38l41 3q18 2 27 11.5t17 23.5zM254 277h227l-50 296zM665 890q-11 -57 -56.5 -89.5t-117.5 -32.5q-39 0 -67 10
t-46.5 26.5t-28 39t-10.5 46.5h66q2 -67 91 -67q39 0 68 16t36 51h65z" />
    <glyph glyph-name="Amacron" unicode="&#x100;" horiz-adv-x="755" 
d="M441 725h78l118 -649q3 -14 7.5 -23.5t23.5 -11.5l38 -3l-7 -38h-278l8 38l50 5q42 3 37 33l-24 137h-276l-81 -137q-19 -30 21 -33l48 -5l-8 -38h-241l8 38l41 3q18 2 27 11.5t17 23.5zM254 277h227l-50 296zM330 797l14 67h311l-14 -67h-311z" />
    <glyph glyph-name="Aogonek" unicode="&#x104;" horiz-adv-x="756" 
d="M421 0l8 38l50 5q42 3 37 33l-24 137h-276l-81 -137q-19 -30 21 -33l48 -5l-8 -38h-241l8 38l41 3q18 2 27 11.5t17 23.5l393 649h78l118 -649q3 -14 7.5 -23.5t23.5 -11.5l39 -3l-8 -38h-81q-39 -19 -65.5 -42.5t-26.5 -49.5q0 -29 22.5 -40.5t48.5 -11.5q31 0 51 9v-44
q-13 -6 -33 -9t-43 -3q-21 0 -44 4.5t-41.5 14.5t-31 27t-12.5 43q0 61 81 102h-103zM254 277h227l-50 296z" />
    <glyph glyph-name="Cacute" unicode="&#x106;" horiz-adv-x="781" 
d="M483 742q55 0 107.5 -15t94.5 -45.5t69 -76.5t32 -107h-124q0 34 -10 67t-32 58.5t-57.5 41t-85.5 15.5q-80 0 -136 -40t-92 -99.5t-52.5 -128t-16.5 -125.5q0 -110 48.5 -174t153.5 -64q97 0 157 49.5t79 134.5h124q-19 -61 -54.5 -107t-83.5 -77t-107.5 -46.5
t-125.5 -15.5q-65 0 -123.5 19t-102.5 57.5t-70.5 98t-26.5 140.5q0 85 30.5 164t87 140.5t137 98.5t180.5 37zM523 773h-72l128 117h145z" />
    <glyph glyph-name="Ccaron" unicode="&#x10c;" horiz-adv-x="781" 
d="M483 742q55 0 107.5 -15t94.5 -45.5t69 -76.5t32 -107h-124q0 34 -10 67t-32 58.5t-57.5 41t-85.5 15.5q-80 0 -136 -40t-92 -99.5t-52.5 -128t-16.5 -125.5q0 -110 48.5 -174t153.5 -64q97 0 157 49.5t79 134.5h124q-19 -61 -54.5 -107t-83.5 -77t-107.5 -46.5
t-125.5 -15.5q-65 0 -123.5 19t-102.5 57.5t-70.5 98t-26.5 140.5q0 85 30.5 164t87 140.5t137 98.5t180.5 37zM350 890h72l91 -58l117 58h83l-165 -117h-88z" />
    <glyph glyph-name="Ccircumflex" unicode="&#x108;" horiz-adv-x="781" 
d="M483 742q55 0 107.5 -15t94.5 -45.5t69 -76.5t32 -107h-124q0 34 -10 67t-32 58.5t-57.5 41t-85.5 15.5q-80 0 -136 -40t-92 -99.5t-52.5 -128t-16.5 -125.5q0 -110 48.5 -174t153.5 -64q97 0 157 49.5t79 134.5h124q-19 -61 -54.5 -107t-83.5 -77t-107.5 -46.5
t-125.5 -15.5q-65 0 -123.5 19t-102.5 57.5t-70.5 98t-26.5 140.5q0 85 30.5 164t87 140.5t137 98.5t180.5 37zM684 773h-75l-89 58l-118 -58h-81l164 117h87z" />
    <glyph glyph-name="Cdotaccent" unicode="&#x10a;" horiz-adv-x="781" 
d="M483 742q55 0 107.5 -15t94.5 -45.5t69 -76.5t32 -107h-124q0 34 -10 67t-32 58.5t-57.5 41t-85.5 15.5q-80 0 -136 -40t-92 -99.5t-52.5 -128t-16.5 -125.5q0 -110 48.5 -174t153.5 -64q97 0 157 49.5t79 134.5h124q-19 -61 -54.5 -107t-83.5 -77t-107.5 -46.5
t-125.5 -15.5q-65 0 -123.5 19t-102.5 57.5t-70.5 98t-26.5 140.5q0 85 30.5 164t87 140.5t137 98.5t180.5 37zM454 890h117l-25 -117h-117z" />
    <glyph glyph-name="Dcaron" unicode="&#x10e;" horiz-adv-x="786" 
d="M657 441q0 106 -62.5 164.5t-190.5 58.5h-58l-128 -603h66q90 0 160 28.5t117 79.5t71.5 120.5t24.5 151.5zM1 0l8 38l49 5q20 2 27.5 10t10.5 23l122 573q4 15 0.5 24t-23.5 11l-48 4l8 37h252q84 0 154 -18t121 -53.5t79 -89.5t28 -126q0 -114 -42.5 -196.5
t-115 -136.5t-168.5 -79.5t-202 -25.5h-260zM318 891h72l91 -58l117 58h83l-165 -117h-88z" />
    <glyph glyph-name="Dcroat" unicode="&#x110;" horiz-adv-x="786" 
d="M1 0l8 38l49 5q20 2 27.5 10t10.5 23l56 266h-103l14 65h103l51 242q4 15 0.5 24t-23.5 11l-48 4l8 37h253q84 0 154 -18t121 -53.5t79 -89.5t28 -126q0 -114 -42.5 -196.5t-115 -136.5t-168.5 -79.5t-202 -25.5h-260zM412 342h-135l-59 -281h66q90 0 160 28.5t117 79.5
t71.5 120.5t24.5 151.5q0 106 -62.5 164.5t-190.5 58.5h-58l-55 -257h135z" />
    <glyph glyph-name="Ebreve" unicode="&#x114;" horiz-adv-x="719" 
d="M741 725l-47 -222h-44l5 66q3 35 0.5 54t-14.5 28t-34.5 10.5t-59.5 1.5h-201l-54 -256h296l-14 -65h-296l-60 -280h213q37 0 60 1.5t38.5 10.5t26 28t22.5 54l22 66h45l-47 -222h-597l8 38l49 5q20 2 27.5 10t10.5 23l122 573q4 15 0.5 24t-23.5 11l-48 4l8 37h586z
M651 890q-11 -57 -56.5 -89.5t-117.5 -32.5q-39 0 -67 10t-46.5 26.5t-28 39t-10.5 46.5h66q2 -67 91 -67q39 0 68 16t36 51h65z" />
    <glyph glyph-name="Ecaron" unicode="&#x11a;" horiz-adv-x="719" 
d="M741 725l-47 -222h-44l5 66q3 35 0.5 54t-14.5 28t-34.5 10.5t-59.5 1.5h-201l-54 -256h296l-14 -65h-296l-60 -280h213q37 0 60 1.5t38.5 10.5t26 28t22.5 54l22 66h45l-47 -222h-597l8 38l49 5q20 2 27.5 10t10.5 23l122 573q4 15 0.5 24t-23.5 11l-48 4l8 37h586z
M306 890h72l91 -58l117 58h83l-165 -117h-88z" />
    <glyph glyph-name="Emacron" unicode="&#x112;" horiz-adv-x="719" 
d="M741 725l-47 -222h-44l5 66q3 35 0.5 54t-14.5 28t-34.5 10.5t-59.5 1.5h-201l-54 -256h296l-14 -65h-296l-60 -280h213q37 0 60 1.5t38.5 10.5t26 28t22.5 54l22 66h45l-47 -222h-597l8 38l49 5q20 2 27.5 10t10.5 23l122 573q4 15 0.5 24t-23.5 11l-48 4l8 37h586z
M336 797l14 67h311l-14 -67h-311z" />
    <glyph glyph-name="Eogonek" unicode="&#x118;" horiz-adv-x="710" 
d="M1 0l8 38l49 5q20 2 27.5 10t10.5 23l122 573q4 15 0.5 24t-23.5 11l-49 4l8 37h587l-47 -222h-44l5 66q3 35 0.5 54t-14.5 28t-34.5 10.5t-59.5 1.5h-201l-54 -256h296l-14 -65h-296l-60 -280h213q37 0 60 1.5t38.5 10.5t26 28t22.5 54l22 66h45l-47 -222
q-39 -19 -67 -42.5t-28 -49.5q0 -29 22.5 -40.5t48.5 -11.5q31 0 52 9v-44q-14 -6 -34 -9t-43 -3q-21 0 -44 4.5t-41.5 14.5t-31 27t-12.5 43q0 32 20.5 56.5t62.5 45.5h-502z" />
    <glyph glyph-name="Edotaccent" unicode="&#x116;" horiz-adv-x="719" 
d="M741 725l-47 -222h-44l5 66q3 35 0.5 54t-14.5 28t-34.5 10.5t-59.5 1.5h-201l-54 -256h296l-14 -65h-296l-60 -280h213q37 0 60 1.5t38.5 10.5t26 28t22.5 54l22 66h45l-47 -222h-597l8 38l49 5q20 2 27.5 10t10.5 23l122 573q4 15 0.5 24t-23.5 11l-48 4l8 37h586z
M466 890h117l-25 -117h-117z" />
    <glyph glyph-name="Gbreve" unicode="&#x11e;" horiz-adv-x="821" 
d="M369 -13q-65 0 -123.5 19t-102.5 58t-69.5 98t-25.5 140q0 85 30.5 164t86.5 140.5t136 98.5t178 37q57 0 110 -15t95 -45.5t69.5 -76.5t32.5 -107h-124q0 34 -10 67t-32 58.5t-57.5 41t-85.5 15.5q-53 0 -95.5 -18.5t-75.5 -49.5t-57 -71.5t-39 -84.5t-22.5 -88.5
t-7.5 -82.5q0 -109 48.5 -172.5t153.5 -63.5q25 0 59 5.5t67.5 26t63 61t44.5 111.5l12 56h-113l11 54h238l-77 -363h-65l-6 93q-45 -52 -103 -79t-144 -27zM684 890q-11 -57 -56.5 -89.5t-117.5 -32.5q-39 0 -67 10t-46.5 26.5t-28 39t-10.5 46.5h66q2 -67 91 -67
q39 0 68 16t36 51h65z" />
    <glyph glyph-name="Gcircumflex" unicode="&#x11c;" horiz-adv-x="821" 
d="M369 -13q-65 0 -123.5 19t-102.5 58t-69.5 98t-25.5 140q0 85 30.5 164t86.5 140.5t136 98.5t178 37q57 0 110 -15t95 -45.5t69.5 -76.5t32.5 -107h-124q0 34 -10 67t-32 58.5t-57.5 41t-85.5 15.5q-53 0 -95.5 -18.5t-75.5 -49.5t-57 -71.5t-39 -84.5t-22.5 -88.5
t-7.5 -82.5q0 -109 48.5 -172.5t153.5 -63.5q25 0 59 5.5t67.5 26t63 61t44.5 111.5l12 56h-113l11 54h238l-77 -363h-65l-6 93q-45 -52 -103 -79t-144 -27zM681 773h-75l-89 58l-118 -58h-81l164 117h87z" />
    <glyph glyph-name="Gcommaaccent" unicode="&#x122;" horiz-adv-x="821" 
d="M369 -13q-65 0 -123.5 19t-102.5 58t-69.5 98t-25.5 140q0 85 30.5 164t86.5 140.5t136 98.5t178 37q57 0 110 -15t95 -45.5t69.5 -76.5t32.5 -107h-124q0 34 -10 67t-32 58.5t-57.5 41t-85.5 15.5q-53 0 -95.5 -18.5t-75.5 -49.5t-57 -71.5t-39 -84.5t-22.5 -88.5
t-7.5 -82.5q0 -109 48.5 -172.5t153.5 -63.5q25 0 59 5.5t67.5 26t63 61t44.5 111.5l12 56h-113l11 54h238l-77 -363h-65l-6 93q-45 -52 -103 -79t-144 -27zM314 -37h109l-21 -98l-65 -93h-67l61 99h-37z" />
    <glyph glyph-name="Gdotaccent" unicode="&#x120;" horiz-adv-x="821" 
d="M369 -13q-65 0 -123.5 19t-102.5 58t-69.5 98t-25.5 140q0 85 30.5 164t86.5 140.5t136 98.5t178 37q57 0 110 -15t95 -45.5t69.5 -76.5t32.5 -107h-124q0 34 -10 67t-32 58.5t-57.5 41t-85.5 15.5q-53 0 -95.5 -18.5t-75.5 -49.5t-57 -71.5t-39 -84.5t-22.5 -88.5
t-7.5 -82.5q0 -109 48.5 -172.5t153.5 -63.5q25 0 59 5.5t67.5 26t63 61t44.5 111.5l12 56h-113l11 54h238l-77 -363h-65l-6 93q-45 -52 -103 -79t-144 -27zM462 890h117l-25 -117h-117z" />
    <glyph glyph-name="Hbar" unicode="&#x126;" horiz-adv-x="884" 
d="M805 571h80l-13 -65h-81l-91 -430q-4 -15 0 -23t23 -10l48 -5l-8 -38h-284l8 38l50 5q20 2 27.5 10t10.5 23l56 266h-354l-56 -266q-4 -15 -0.5 -23t22.5 -10l49 -5l-8 -38h-283l8 38l49 5q20 2 27.5 10t10.5 23l91 430h-77l13 65h78l17 78q4 15 0.5 24t-23.5 11l-48 4
l8 37h284l-8 -37l-50 -4q-20 -2 -27.5 -11t-10.5 -24l-17 -78h354l17 78q4 15 1 24t-23 11l-49 4l8 37h284l-8 -37l-50 -4q-20 -2 -27.5 -11t-10.5 -24zM645 407l21 99h-354l-21 -99h354z" />
    <glyph glyph-name="Hcircumflex" unicode="&#x124;" horiz-adv-x="884" 
d="M700 76q-4 -15 0 -23t23 -10l48 -5l-8 -38h-284l8 38l50 5q20 2 27.5 10t10.5 23l56 266h-354l-56 -266q-4 -15 -0.5 -23t22.5 -10l49 -5l-8 -38h-283l8 38l49 5q20 2 27.5 10t10.5 23l122 573q4 15 0.5 24t-23.5 11l-48 4l8 37h284l-8 -37l-50 -4q-20 -2 -27.5 -11
t-10.5 -24l-52 -242h354l52 242q4 15 1 24t-23 11l-49 4l8 37h284l-8 -37l-50 -4q-20 -2 -27.5 -11t-10.5 -24zM728 773h-75l-89 58l-118 -58h-81l164 117h87z" />
    <glyph glyph-name="Ibreve" unicode="&#x12c;" horiz-adv-x="405" 
d="M285 0h-284l8 38l49 5q20 2 27.5 10t10.5 23l122 573q4 15 0.5 24t-23.5 11l-48 4l8 37h284l-8 -37l-50 -4q-20 -2 -27.5 -11t-10.5 -24l-122 -573q-4 -15 -0.5 -23t22.5 -10l50 -5zM482 890q-11 -57 -56.5 -89.5t-117.5 -32.5q-39 0 -67 10t-46.5 26.5t-28 39
t-10.5 46.5h66q2 -67 91 -67q39 0 68 16t36 51h65z" />
    <glyph glyph-name="Idotaccent" unicode="&#x130;" horiz-adv-x="405" 
d="M285 0h-284l8 38l49 5q20 2 27.5 10t10.5 23l122 573q4 15 0.5 24t-23.5 11l-48 4l8 37h284l-8 -37l-50 -4q-20 -2 -27.5 -11t-10.5 -24l-122 -573q-4 -15 -0.5 -23t22.5 -10l50 -5zM273 890h117l-25 -117h-117z" />
    <glyph glyph-name="Imacron" unicode="&#x12a;" horiz-adv-x="405" 
d="M285 0h-284l8 38l49 5q20 2 27.5 10t10.5 23l122 573q4 15 0.5 24t-23.5 11l-48 4l8 37h284l-8 -37l-50 -4q-20 -2 -27.5 -11t-10.5 -24l-122 -573q-4 -15 -0.5 -23t22.5 -10l50 -5zM158 797l14 67h311l-14 -67h-311z" />
    <glyph glyph-name="Iogonek" unicode="&#x12e;" horiz-adv-x="405" 
d="M285 0h-284l8 38l49 5q20 2 27.5 10t10.5 23l122 573q4 15 0.5 24t-23.5 11l-48 4l8 37h284l-8 -37l-50 -4q-20 -2 -27.5 -11t-10.5 -24l-122 -573q-4 -15 -0.5 -23t22.5 -10l50 -5zM205 0q-39 -19 -67 -42.5t-28 -49.5q0 -29 22.5 -40.5t48.5 -11.5q31 0 51 9v-44
q-13 -6 -33 -9t-43 -3q-21 0 -44 4.5t-41.5 14.5t-31 27t-12.5 43q0 32 20.5 56.5t62.5 45.5h95z" />
    <glyph glyph-name="Itilde" unicode="&#x128;" horiz-adv-x="405" 
d="M285 0h-284l8 38l49 5q20 2 27.5 10t10.5 23l122 573q4 15 0.5 24t-23.5 11l-48 4l8 37h284l-8 -37l-50 -4q-20 -2 -27.5 -11t-10.5 -24l-122 -573q-4 -15 -0.5 -23t22.5 -10l50 -5zM384 844q22 0 32.5 11.5t13.5 34.5h62q-10 -64 -36.5 -91t-67.5 -27q-22 0 -40.5 7.5
t-35 16.5t-31 16.5t-27.5 7.5q-21 0 -31 -12t-15 -35h-60q4 34 13.5 57t24 36.5t31.5 19t36 5.5q21 0 39 -7.5t34 -16t30 -16t28 -7.5z" />
    <glyph glyph-name="uni1ECA" unicode="&#x1eca;" horiz-adv-x="405" 
d="M73 -54h117l-29 -135h-117zM285 0h-284l8 38l49 5q20 2 27.5 10t10.5 23l122 573q4 15 0.5 24t-23.5 11l-48 4l8 37h284l-8 -37l-50 -4q-20 -2 -27.5 -11t-10.5 -24l-122 -573q-4 -15 -0.5 -23t22.5 -10l50 -5z" />
    <glyph glyph-name="Jcircumflex" unicode="&#x134;" horiz-adv-x="434" 
d="M283 176q-14 -66 -32 -102t-44.5 -52.5t-65 -19t-93.5 -2.5h-60l13 62h32q27 0 47 2t34 13.5t25 35.5t20 68l100 468q3 15 0 24t-23 11l-48 4l8 37h286l-8 -37l-50 -4q-20 -2 -28 -9t-12 -26zM526 773h-75l-89 58l-118 -58h-81l164 117h87z" />
    <glyph glyph-name="Kcommaaccent" unicode="&#x136;" horiz-adv-x="796" 
d="M282 361l351 288q23 18 16.5 25t-37.5 11l-31 3l8 37h251l-8 -37l-26 -2q-12 -2 -22.5 -5.5t-22.5 -11t-26.5 -19t-34.5 -27.5l-224 -182l162 -351q7 -16 13 -25.5t13 -15t16 -7.5t21 -3l23 -1l-8 -38h-278l7 38l23 1q18 1 28 3t13 6.5t1.5 11.5t-5.5 16l-127 286
l-116 -94l-41 -192q-4 -15 -0.5 -23t22.5 -10l49 -5l-8 -38h-283l8 38l49 5q20 2 27.5 10t10.5 23l122 573q4 15 0.5 24t-23.5 11l-48 4l8 37h284l-8 -37l-50 -4q-20 -2 -27.5 -11t-10.5 -24zM300 -37h109l-21 -98l-65 -93h-67l61 99h-37z" />
    <glyph glyph-name="Lacute" unicode="&#x139;" horiz-adv-x="642" 
d="M9 38l49 5q20 2 27.5 10t10.5 23l122 573q4 15 0.5 24t-23.5 11l-48 4l8 37h284l-8 -37l-50 -4q-20 -2 -27.5 -11t-10.5 -24l-125 -587h189q37 0 60 1.5t38 10.5t25.5 28t22.5 54l23 66h45l-47 -222h-573zM316 773h-72l128 117h145z" />
    <glyph glyph-name="Lcaron" unicode="&#x13d;" horiz-adv-x="642" 
d="M9 38l49 5q20 2 27.5 10t10.5 23l122 573q4 15 0.5 24t-23.5 11l-48 4l8 37h284l-8 -37l-50 -4q-20 -2 -27.5 -11t-10.5 -24l-125 -587h189q37 0 60 1.5t38 10.5t25.5 28t22.5 54l23 66h45l-47 -222h-573zM500 725h132l-28 -132l-107 -156h-47l78 156h-56z" />
    <glyph glyph-name="Lcommaaccent" unicode="&#x13b;" horiz-adv-x="642" 
d="M9 38l49 5q20 2 27.5 10t10.5 23l122 573q4 15 0.5 24t-23.5 11l-48 4l8 37h284l-8 -37l-50 -4q-20 -2 -27.5 -11t-10.5 -24l-125 -587h189q37 0 60 1.5t38 10.5t25.5 28t22.5 54l23 66h45l-47 -222h-573zM257 -37h109l-21 -98l-65 -93h-67l61 99h-37z" />
    <glyph glyph-name="Ldot" unicode="&#x13f;" horiz-adv-x="642" 
d="M9 38l49 5q20 2 27.5 10t10.5 23l122 573q4 15 0.5 24t-23.5 11l-48 4l8 37h284l-8 -37l-50 -4q-20 -2 -27.5 -11t-10.5 -24l-125 -587h189q37 0 60 1.5t38 10.5t25.5 28t22.5 54l23 66h45l-47 -222h-573zM460 485h117l-29 -135h-117z" />
    <glyph glyph-name="Lslash" unicode="&#x141;" horiz-adv-x="660" 
d="M27 38l49 5q20 2 27.5 10t10.5 23l49 233l-116 -36l-18 62l150 47l57 267q4 15 0.5 24t-23.5 11l-48 4l8 37h284l-8 -37l-50 -4q-20 -2 -27.5 -11t-10.5 -24l-48 -224l112 35l19 -63l-147 -46l-61 -289h189q37 0 60 1.5t38 10.5t25.5 28t22.5 54l23 66h45l-47 -222h-573z
" />
    <glyph glyph-name="Eng" unicode="&#x14a;" horiz-adv-x="834" 
d="M584 8l-307 577l-108 -509q-3 -15 0.5 -23t22.5 -10l48 -5l-8 -38h-231l8 38l49 5q20 2 27.5 10t10.5 23l122 573q4 15 0.5 24t-23.5 11l-48 4l8 37h182l286 -530l97 454q4 15 0.5 23t-22.5 10l-49 5l8 38h232l-8 -38l-50 -5q-20 -2 -27.5 -10t-10.5 -23l-147 -689
q-11 -49 -22.5 -78.5t-31 -45t-49 -20.5t-75.5 -5h-19l14 68h29q21 0 34 2t22 10t15 24t11 44z" />
    <glyph glyph-name="Nacute" unicode="&#x143;" horiz-adv-x="834" 
d="M655 0h-67l-311 585l-108 -509q-3 -15 0.5 -23t22.5 -10l48 -5l-8 -38h-231l8 38l49 5q20 2 27.5 10t10.5 23l122 573q4 15 0.5 24t-23.5 11l-48 4l8 37h182l286 -530l97 454q4 15 0.5 23t-22.5 10l-49 5l8 38h232l-8 -38l-50 -5q-20 -2 -27.5 -10t-10.5 -23zM545 773
h-72l128 117h145z" />
    <glyph glyph-name="Ncaron" unicode="&#x147;" horiz-adv-x="834" 
d="M655 0h-67l-311 585l-108 -509q-3 -15 0.5 -23t22.5 -10l48 -5l-8 -38h-231l8 38l49 5q20 2 27.5 10t10.5 23l122 573q4 15 0.5 24t-23.5 11l-48 4l8 37h182l286 -530l97 454q4 15 0.5 23t-22.5 10l-49 5l8 38h232l-8 -38l-50 -5q-20 -2 -27.5 -10t-10.5 -23zM368 890h72
l91 -58l117 58h83l-165 -117h-88z" />
    <glyph glyph-name="Ncommaaccent" unicode="&#x145;" horiz-adv-x="834" 
d="M655 0h-67l-311 585l-108 -509q-3 -15 0.5 -23t22.5 -10l48 -5l-8 -38h-231l8 38l49 5q20 2 27.5 10t10.5 23l122 573q4 15 0.5 24t-23.5 11l-48 4l8 37h182l286 -530l97 454q4 15 0.5 23t-22.5 10l-49 5l8 38h232l-8 -38l-50 -5q-20 -2 -27.5 -10t-10.5 -23zM334 -37
h109l-21 -98l-65 -93h-67l61 99h-37z" />
    <glyph glyph-name="OE" unicode="&#x152;" horiz-adv-x="1211" 
d="M1186 503h-45l5 66q3 35 0.5 54t-14.5 28t-34.5 10.5t-59.5 1.5h-201l-54 -256h297l-14 -65h-297l-59 -280h213q37 0 60 1.5t38 10.5t25.5 28t22.5 54l23 66h45l-47 -222h-518l16 80q-45 -42 -102 -67.5t-129 -25.5q-59 0 -115 19t-99 57.5t-69 98t-26 140.5
q0 85 30.5 164t86.5 140.5t134 98.5t174 37q77 0 135.5 -31t92.5 -97l23 111h509zM460 680q-49 0 -88.5 -18.5t-70.5 -49.5t-54 -71.5t-38 -83.5t-22 -87t-7 -81q0 -112 48.5 -176t153.5 -64q48 0 88 18.5t71 49.5t54 71.5t37.5 83.5t22 86.5t7.5 81.5q0 112 -49 176
t-153 64z" />
    <glyph glyph-name="Obreve" unicode="&#x14e;" horiz-adv-x="792" 
d="M473 742q64 0 122 -19t102 -57.5t70.5 -98t26.5 -140.5q0 -85 -30.5 -164t-86.5 -140.5t-134.5 -98.5t-173.5 -37q-64 0 -122 19t-102.5 57.5t-70.5 98t-26 140.5q0 85 30.5 164t86.5 140.5t134 98.5t174 37zM460 680q-49 0 -88.5 -18.5t-70.5 -49.5t-54 -71.5t-38 -83.5
t-22 -87t-7 -81q0 -112 48.5 -176t153.5 -64q48 0 88 18.5t71 49.5t54 71.5t37.5 83.5t22 86.5t7.5 81.5q0 112 -49 176t-153 64zM686 890q-11 -57 -56.5 -89.5t-117.5 -32.5q-39 0 -67 10t-46.5 26.5t-28 39t-10.5 46.5h66q2 -67 91 -67q39 0 68 16t36 51h65z" />
    <glyph glyph-name="Ohungarumlaut" unicode="&#x150;" horiz-adv-x="792" 
d="M473 742q64 0 122 -19t102 -57.5t70.5 -98t26.5 -140.5q0 -85 -30.5 -164t-86.5 -140.5t-134.5 -98.5t-173.5 -37q-64 0 -122 19t-102.5 57.5t-70.5 98t-26 140.5q0 85 30.5 164t86.5 140.5t134 98.5t174 37zM460 680q-49 0 -88.5 -18.5t-70.5 -49.5t-54 -71.5t-38 -83.5
t-22 -87t-7 -81q0 -112 48.5 -176t153.5 -64q48 0 88 18.5t71 49.5t54 71.5t37.5 83.5t22 86.5t7.5 81.5q0 112 -49 176t-153 64zM407 773h-60l128 117h134zM574 773h-60l128 117h134z" />
    <glyph glyph-name="Omacron" unicode="&#x14c;" horiz-adv-x="792" 
d="M473 742q64 0 122 -19t102 -57.5t70.5 -98t26.5 -140.5q0 -85 -30.5 -164t-86.5 -140.5t-134.5 -98.5t-173.5 -37q-64 0 -122 19t-102.5 57.5t-70.5 98t-26 140.5q0 85 30.5 164t86.5 140.5t134 98.5t174 37zM460 680q-49 0 -88.5 -18.5t-70.5 -49.5t-54 -71.5t-38 -83.5
t-22 -87t-7 -81q0 -112 48.5 -176t153.5 -64q48 0 88 18.5t71 49.5t54 71.5t37.5 83.5t22 86.5t7.5 81.5q0 112 -49 176t-153 64zM354 797l14 67h311l-14 -67h-311z" />
    <glyph glyph-name="uni1ECC" unicode="&#x1ecc;" horiz-adv-x="792" 
d="M272 -54h117l-29 -135h-117zM473 742q64 0 122 -19t102 -57.5t70.5 -98t26.5 -140.5q0 -85 -30.5 -164t-86.5 -140.5t-134.5 -98.5t-173.5 -37q-64 0 -122 19t-102.5 57.5t-70.5 98t-26 140.5q0 85 30.5 164t86.5 140.5t134 98.5t174 37zM460 680q-49 0 -88.5 -18.5
t-70.5 -49.5t-54 -71.5t-38 -83.5t-22 -87t-7 -81q0 -112 48.5 -176t153.5 -64q48 0 88 18.5t71 49.5t54 71.5t37.5 83.5t22 86.5t7.5 81.5q0 112 -49 176t-153 64z" />
    <glyph glyph-name="Racute" unicode="&#x154;" horiz-adv-x="754" 
d="M155 725q69 0 136 0.5t136 0.5q45 0 95 -6.5t92 -25.5t69.5 -52t27.5 -86q0 -47 -14.5 -82t-40 -60.5t-59 -42t-72.5 -26.5l96 -259q9 -26 18 -33.5t29 -9.5l41 -5l-8 -38h-182l-32 94l-82 233q-17 -2 -32.5 -2h-30.5h-68l-53 -249q-3 -15 0.5 -23t22.5 -10l53 -5l-8 -38
h-288l8 38l49 5q20 2 27.5 10t10.5 23l122 573q4 15 0 24t-23 11l-48 4zM346 664l-58 -275h72q42 0 81.5 6.5t70.5 23.5t49.5 47.5t18.5 77.5q0 63 -40.5 91.5t-120.5 28.5h-73zM477 773h-72l128 117h145z" />
    <glyph glyph-name="Rcaron" unicode="&#x158;" horiz-adv-x="754" 
d="M155 725q69 0 136 0.5t136 0.5q45 0 95 -6.5t92 -25.5t69.5 -52t27.5 -86q0 -47 -14.5 -82t-40 -60.5t-59 -42t-72.5 -26.5l96 -259q9 -26 18 -33.5t29 -9.5l41 -5l-8 -38h-182l-32 94l-82 233q-17 -2 -32.5 -2h-30.5h-68l-53 -249q-3 -15 0.5 -23t22.5 -10l53 -5l-8 -38
h-288l8 38l49 5q20 2 27.5 10t10.5 23l122 573q4 15 0 24t-23 11l-48 4zM346 664l-58 -275h72q42 0 81.5 6.5t70.5 23.5t49.5 47.5t18.5 77.5q0 63 -40.5 91.5t-120.5 28.5h-73zM306 890h72l91 -58l117 58h83l-165 -117h-88z" />
    <glyph glyph-name="Rcommaaccent" unicode="&#x156;" horiz-adv-x="754" 
d="M155 725q69 0 136 0.5t136 0.5q45 0 95 -6.5t92 -25.5t69.5 -52t27.5 -86q0 -47 -14.5 -82t-40 -60.5t-59 -42t-72.5 -26.5l96 -259q9 -26 18 -33.5t29 -9.5l41 -5l-8 -38h-182l-32 94l-82 233q-17 -2 -32.5 -2h-30.5h-68l-53 -249q-3 -15 0.5 -23t22.5 -10l53 -5l-8 -38
h-288l8 38l49 5q20 2 27.5 10t10.5 23l122 573q4 15 0 24t-23 11l-48 4zM346 664l-58 -275h72q42 0 81.5 6.5t70.5 23.5t49.5 47.5t18.5 77.5q0 63 -40.5 91.5t-120.5 28.5h-73zM322 -37h109l-21 -98l-65 -93h-67l61 99h-37z" />
    <glyph glyph-name="Sacute" unicode="&#x15a;" horiz-adv-x="690" 
d="M563 522q0 79 -45.5 118.5t-124.5 39.5q-76 0 -118.5 -32t-42.5 -79q0 -25 9.5 -44t26 -33.5t37.5 -26t45 -21.5l75 -31q48 -21 87.5 -41t67.5 -45t43 -55.5t15 -72.5q0 -54 -25.5 -94t-67.5 -66t-95.5 -39t-108.5 -13q-69 0 -126 17t-98 49t-64 78.5t-23 106.5h123
q0 -37 10.5 -71t33.5 -60.5t61 -42t93 -15.5q32 0 62 6t53.5 20t37.5 36.5t14 54.5q0 30 -12.5 51.5t-33 38t-47.5 29t-55 24.5l-87 36q-33 13 -63.5 31.5t-54 42.5t-38 55t-14.5 70q0 44 21.5 80.5t59.5 62.5t89.5 40.5t110.5 14.5q70 0 124 -17t90.5 -46.5t56 -70
t19.5 -86.5h-121v0zM425 773h-72l128 117h145z" />
    <glyph glyph-name="Scaron" unicode="&#x160;" horiz-adv-x="690" 
d="M563 522q0 79 -45.5 118.5t-124.5 39.5q-76 0 -118.5 -32t-42.5 -79q0 -25 9.5 -44t26 -33.5t37.5 -26t45 -21.5l75 -31q48 -21 87.5 -41t67.5 -45t43 -55.5t15 -72.5q0 -54 -25.5 -94t-67.5 -66t-95.5 -39t-108.5 -13q-69 0 -126 17t-98 49t-64 78.5t-23 106.5h123
q0 -37 10.5 -71t33.5 -60.5t61 -42t93 -15.5q32 0 62 6t53.5 20t37.5 36.5t14 54.5q0 30 -12.5 51.5t-33 38t-47.5 29t-55 24.5l-87 36q-33 13 -63.5 31.5t-54 42.5t-38 55t-14.5 70q0 44 21.5 80.5t59.5 62.5t89.5 40.5t110.5 14.5q70 0 124 -17t90.5 -46.5t56 -70
t19.5 -86.5h-121v0zM251 890h72l91 -58l117 58h83l-165 -117h-88z" />
    <glyph glyph-name="Scedilla" unicode="&#x15e;" horiz-adv-x="690" 
d="M314 3h48l-48 -53q55 8 80 -13t25 -56q0 -26 -12 -45t-31.5 -31t-45 -17.5t-51.5 -5.5q-27 0 -52 5.5t-45 15.5l21 41q14 -8 31.5 -12.5t35.5 -4.5q29 0 51 11t22 34q0 18 -15 26t-32 8q-21 0 -41 -10l-16 19zM563 522q0 79 -45.5 118.5t-124.5 39.5q-76 0 -118.5 -32
t-42.5 -79q0 -25 9.5 -44t26 -33.5t37.5 -26t45 -21.5l75 -31q48 -21 87.5 -41t67.5 -45t43 -55.5t15 -72.5q0 -54 -25.5 -94t-67.5 -66t-95.5 -39t-108.5 -13q-69 0 -126 17t-98 49t-64 78.5t-23 106.5h123q0 -37 10.5 -71t33.5 -60.5t61 -42t93 -15.5q32 0 62 6t53.5 20
t37.5 36.5t14 54.5q0 30 -12.5 51.5t-33 38t-47.5 29t-55 24.5l-87 36q-33 13 -63.5 31.5t-54 42.5t-38 55t-14.5 70q0 44 21.5 80.5t59.5 62.5t89.5 40.5t110.5 14.5q70 0 124 -17t90.5 -46.5t56 -70t19.5 -86.5h-121v0z" />
    <glyph glyph-name="Scircumflex" unicode="&#x15c;" horiz-adv-x="690" 
d="M563 522q0 79 -45.5 118.5t-124.5 39.5q-76 0 -118.5 -32t-42.5 -79q0 -25 9.5 -44t26 -33.5t37.5 -26t45 -21.5l75 -31q48 -21 87.5 -41t67.5 -45t43 -55.5t15 -72.5q0 -54 -25.5 -94t-67.5 -66t-95.5 -39t-108.5 -13q-69 0 -126 17t-98 49t-64 78.5t-23 106.5h123
q0 -37 10.5 -71t33.5 -60.5t61 -42t93 -15.5q32 0 62 6t53.5 20t37.5 36.5t14 54.5q0 30 -12.5 51.5t-33 38t-47.5 29t-55 24.5l-87 36q-33 13 -63.5 31.5t-54 42.5t-38 55t-14.5 70q0 44 21.5 80.5t59.5 62.5t89.5 40.5t110.5 14.5q70 0 124 -17t90.5 -46.5t56 -70
t19.5 -86.5h-121v0zM605 773h-75l-89 58l-118 -58h-81l164 117h87z" />
    <glyph glyph-name="Scommaaccent" unicode="&#x218;" horiz-adv-x="690" 
d="M563 522q0 79 -45.5 118.5t-124.5 39.5q-76 0 -118.5 -32t-42.5 -79q0 -25 9.5 -44t26 -33.5t37.5 -26t45 -21.5l75 -31q48 -21 87.5 -41t67.5 -45t43 -55.5t15 -72.5q0 -54 -25.5 -94t-67.5 -66t-95.5 -39t-108.5 -13q-69 0 -126 17t-98 49t-64 78.5t-23 106.5h123
q0 -37 10.5 -71t33.5 -60.5t61 -42t93 -15.5q32 0 62 6t53.5 20t37.5 36.5t14 54.5q0 30 -12.5 51.5t-33 38t-47.5 29t-55 24.5l-87 36q-33 13 -63.5 31.5t-54 42.5t-38 55t-14.5 70q0 44 21.5 80.5t59.5 62.5t89.5 40.5t110.5 14.5q70 0 124 -17t90.5 -46.5t56 -70
t19.5 -86.5h-121v0zM276 -37h109l-21 -98l-65 -93h-67l61 99h-37z" />
    <glyph glyph-name="Tbar" unicode="&#x166;" horiz-adv-x="740" 
d="M799 725l-47 -222h-44l5 66q3 35 0.5 54.5t-14.5 28.5t-34.5 11t-59.5 2h-92l-55 -258h155l-15 -65h-153l-56 -264q-4 -16 0 -24t24 -10l60 -5l-9 -39h-308l9 39l61 5q20 2 27.5 10t10.5 24l56 264h-139l15 65h137l55 258h-91q-37 0 -60 -2t-38.5 -11t-26 -28.5
t-22.5 -54.5l-23 -66h-45l47 222h670z" />
    <glyph glyph-name="Tcaron" unicode="&#x164;" horiz-adv-x="740" 
d="M799 725l-47 -222h-44l5 66q3 35 0.5 54.5t-14.5 28.5t-34.5 11t-59.5 2h-92l-124 -587q-4 -16 0 -24t24 -10l60 -5l-9 -39h-308l9 39l61 5q20 2 27.5 10t10.5 24l124 587h-91q-37 0 -60 -2t-38.5 -11t-26 -28.5t-22.5 -54.5l-23 -66h-45l47 222h670zM312 890h72l91 -58
l117 58h83l-165 -117h-88z" />
    <glyph glyph-name="uni0162" unicode="&#x162;" horiz-adv-x="740" 
d="M799 725l-47 -222h-44l5 66q3 35 0.5 54.5t-14.5 28.5t-34.5 11t-59.5 2h-92l-124 -587q-4 -16 0 -24t24 -10l60 -5l-9 -39h-308l9 39l61 5q20 2 27.5 10t10.5 24l124 587h-91q-37 0 -60 -2t-38.5 -11t-26 -28.5t-22.5 -54.5l-23 -66h-45l47 222h670zM247 -37h109
l-21 -98l-65 -93h-67l61 99h-37z" />
    <glyph glyph-name="Tcommaaccent" unicode="&#x21a;" horiz-adv-x="740" 
d="M799 725l-47 -222h-44l5 66q3 35 0.5 54.5t-14.5 28.5t-34.5 11t-59.5 2h-92l-124 -587q-4 -16 0 -24t24 -10l60 -5l-9 -39h-308l9 39l61 5q20 2 27.5 10t10.5 24l124 587h-91q-37 0 -60 -2t-38.5 -11t-26 -28.5t-22.5 -54.5l-23 -66h-45l47 222h670zM247 -37h109
l-21 -98l-65 -93h-67l61 99h-37z" />
    <glyph glyph-name="Ubreve" unicode="&#x16c;" horiz-adv-x="826" 
d="M373 -13q-89 0 -146 21t-87.5 61.5t-35.5 99.5t12 136l73 344q4 15 0 24t-24 11l-48 4l8 37h284l-8 -37l-50 -4q-20 -2 -27.5 -11t-10.5 -24l-79 -372q-11 -52 -8.5 -92t21 -67t54 -41t91.5 -14q46 0 86 11.5t71.5 36.5t54.5 65.5t35 98.5l80 374q3 15 0 24t-23 11l-48 4
l8 37h235l-8 -37l-51 -4q-20 -2 -27 -11t-10 -24l-78 -369q-14 -63 -38.5 -116.5t-65 -93t-99.5 -61.5t-141 -22zM702 890q-11 -57 -56.5 -89.5t-117.5 -32.5q-39 0 -67 10t-46.5 26.5t-28 39t-10.5 46.5h66q2 -67 91 -67q39 0 68 16t36 51h65z" />
    <glyph glyph-name="Uhungarumlaut" unicode="&#x170;" horiz-adv-x="826" 
d="M373 -13q-89 0 -146 21t-87.5 61.5t-35.5 99.5t12 136l73 344q4 15 0 24t-24 11l-48 4l8 37h284l-8 -37l-50 -4q-20 -2 -27.5 -11t-10.5 -24l-79 -372q-11 -52 -8.5 -92t21 -67t54 -41t91.5 -14q46 0 86 11.5t71.5 36.5t54.5 65.5t35 98.5l80 374q3 15 0 24t-23 11l-48 4
l8 37h235l-8 -37l-51 -4q-20 -2 -27 -11t-10 -24l-78 -369q-14 -63 -38.5 -116.5t-65 -93t-99.5 -61.5t-141 -22zM445 773h-60l128 117h134zM612 773h-60l128 117h134z" />
    <glyph glyph-name="Umacron" unicode="&#x16a;" horiz-adv-x="826" 
d="M373 -13q-89 0 -146 21t-87.5 61.5t-35.5 99.5t12 136l73 344q4 15 0 24t-24 11l-48 4l8 37h284l-8 -37l-50 -4q-20 -2 -27.5 -11t-10.5 -24l-79 -372q-11 -52 -8.5 -92t21 -67t54 -41t91.5 -14q46 0 86 11.5t71.5 36.5t54.5 65.5t35 98.5l80 374q3 15 0 24t-23 11l-48 4
l8 37h235l-8 -37l-51 -4q-20 -2 -27 -11t-10 -24l-78 -369q-14 -63 -38.5 -116.5t-65 -93t-99.5 -61.5t-141 -22zM377 797l14 67h311l-14 -67h-311z" />
    <glyph glyph-name="Uogonek" unicode="&#x172;" horiz-adv-x="826" 
d="M717 280q-13 -59 -35 -110t-58 -89.5t-87.5 -62.5t-122.5 -29q-31 -17 -51.5 -37.5t-20.5 -43.5q0 -29 22.5 -40.5t48.5 -11.5q31 0 51 9v-44q-13 -6 -33 -9t-43 -3q-21 0 -44 4.5t-41.5 14.5t-31 27t-12.5 43q0 52 62 91q-73 6 -119.5 29.5t-70.5 63.5t-27 96t12 127
l73 344q4 15 0 24t-24 11l-48 4l8 37h284l-8 -37l-50 -4q-20 -2 -27.5 -11t-10.5 -24l-79 -372q-11 -52 -8.5 -92t21 -67t54 -41t91.5 -14q46 0 86 11.5t71.5 36.5t54.5 65.5t35 98.5l80 374q3 15 0 24t-23 11l-48 4l8 37h236l-8 -37l-51 -4q-20 -2 -27.5 -11t-10.5 -24
l-78 -369v0z" />
    <glyph glyph-name="Uring" unicode="&#x16e;" horiz-adv-x="826" 
d="M373 -13q-89 0 -146 21t-87.5 61.5t-35.5 99.5t12 136l73 344q4 15 0 24t-24 11l-48 4l8 37h284l-8 -37l-50 -4q-20 -2 -27.5 -11t-10.5 -24l-79 -372q-11 -52 -8.5 -92t21 -67t54 -41t91.5 -14q46 0 86 11.5t71.5 36.5t54.5 65.5t35 98.5l80 374q3 15 0 24t-23 11l-48 4
l8 37h235l-8 -37l-51 -4q-20 -2 -27 -11t-10 -24l-78 -369q-14 -63 -38.5 -116.5t-65 -93t-99.5 -61.5t-141 -22zM534 943q19 0 36 -6.5t29.5 -18t20 -27.5t7.5 -35q0 -38 -27 -63t-66 -25q-40 0 -67 25t-27 63q0 19 7.5 35t20.5 27.5t30 18t36 6.5zM534 900
q-18 0 -31.5 -12.5t-13.5 -31.5q0 -20 13.5 -32t31.5 -12q17 0 30.5 12t13.5 32q0 19 -13.5 31.5t-30.5 12.5z" />
    <glyph glyph-name="Utilde" unicode="&#x168;" horiz-adv-x="826" 
d="M373 -13q-89 0 -146 21t-87.5 61.5t-35.5 99.5t12 136l73 344q4 15 0 24t-24 11l-48 4l8 37h284l-8 -37l-50 -4q-20 -2 -27.5 -11t-10.5 -24l-79 -372q-11 -52 -8.5 -92t21 -67t54 -41t91.5 -14q46 0 86 11.5t71.5 36.5t54.5 65.5t35 98.5l80 374q3 15 0 24t-23 11l-48 4
l8 37h235l-8 -37l-51 -4q-20 -2 -27 -11t-10 -24l-78 -369q-14 -63 -38.5 -116.5t-65 -93t-99.5 -61.5t-141 -22zM603 844q22 0 32.5 11.5t13.5 34.5h62q-10 -64 -36.5 -91t-67.5 -27q-22 0 -40.5 7.5t-35 16.5t-31 16.5t-27.5 7.5q-21 0 -31 -12t-15 -35h-60q4 34 13.5 57
t24 36.5t31.5 19t36 5.5q21 0 39 -7.5t34 -16t30 -16t28 -7.5z" />
    <glyph glyph-name="uni1EE4" unicode="&#x1ee4;" horiz-adv-x="826" 
d="M308 -54h117l-29 -135h-117zM373 -13q-89 0 -146 21t-87.5 61.5t-35.5 99.5t12 136l73 344q4 15 0 24t-24 11l-48 4l8 37h284l-8 -37l-50 -4q-20 -2 -27.5 -11t-10.5 -24l-79 -372q-11 -52 -8.5 -92t21 -67t54 -41t91.5 -14q46 0 86 11.5t71.5 36.5t54.5 65.5t35 98.5
l80 374q3 15 0 24t-23 11l-48 4l8 37h235l-8 -37l-51 -4q-20 -2 -27 -11t-10 -24l-78 -369q-14 -63 -38.5 -116.5t-65 -93t-99.5 -61.5t-141 -22z" />
    <glyph glyph-name="Wacute" unicode="&#x1e82;" horiz-adv-x="1029" 
d="M719 175l207 474q7 14 5 23t-27 12l-48 4l8 37h237l-8 -37l-41 -3q-19 -2 -28.5 -11.5t-17.5 -24.5l-299 -649h-96l-44 516l-271 -516h-93l-30 649q-1 15 -6.5 24.5t-23.5 11.5l-39 3l8 37h278l-8 -37l-50 -4q-21 -2 -28.5 -10t-7.5 -25l18 -471l280 547h79zM674 773h-72
l128 117h145z" />
    <glyph glyph-name="Wcircumflex" unicode="&#x174;" horiz-adv-x="1029" 
d="M719 175l207 474q7 14 5 23t-27 12l-48 4l8 37h237l-8 -37l-41 -3q-19 -2 -28.5 -11.5t-17.5 -24.5l-299 -649h-96l-44 516l-271 -516h-93l-30 649q-1 15 -6.5 24.5t-23.5 11.5l-39 3l8 37h278l-8 -37l-50 -4q-21 -2 -28.5 -10t-7.5 -25l18 -471l280 547h79zM822 773h-75
l-89 58l-118 -58h-81l164 117h87z" />
    <glyph glyph-name="Wdieresis" unicode="&#x1e84;" horiz-adv-x="1029" 
d="M719 175l207 474q7 14 5 23t-27 12l-48 4l8 37h237l-8 -37l-41 -3q-19 -2 -28.5 -11.5t-17.5 -24.5l-299 -649h-96l-44 516l-271 -516h-93l-30 649q-1 15 -6.5 24.5t-23.5 11.5l-39 3l8 37h278l-8 -37l-50 -4q-21 -2 -28.5 -10t-7.5 -25l18 -471l280 547h79zM490 890h117
l-25 -117h-117zM718 890h117l-25 -117h-117z" />
    <glyph glyph-name="Wgrave" unicode="&#x1e80;" horiz-adv-x="1029" 
d="M719 175l207 474q7 14 5 23t-27 12l-48 4l8 37h237l-8 -37l-41 -3q-19 -2 -28.5 -11.5t-17.5 -24.5l-299 -649h-96l-44 516l-271 -516h-93l-30 649q-1 15 -6.5 24.5t-23.5 11.5l-39 3l8 37h278l-8 -37l-50 -4q-21 -2 -28.5 -10t-7.5 -25l18 -471l280 547h79zM450 890h145
l78 -117h-72z" />
    <glyph glyph-name="Ycircumflex" unicode="&#x176;" horiz-adv-x="721" 
d="M295 287l-129 362q-5 14 -11.5 24t-24.5 12l-33 3l8 37h286l-8 -37l-50 -4q-20 -2 -30.5 -11.5t-5.5 -23.5l104 -297l229 297q11 14 10.5 22.5t-32.5 12.5l-48 4l8 37h236l-8 -37l-33 -3q-19 -2 -30.5 -12t-22.5 -24l-291 -363l-45 -210q-3 -15 0.5 -23t23.5 -10l48 -5
l-8 -38h-285l8 38l50 5q21 2 28 10t11 23zM655 773h-75l-89 58l-118 -58h-81l164 117h87z" />
    <glyph glyph-name="Ydieresis" unicode="&#x178;" horiz-adv-x="721" 
d="M295 287l-129 362q-5 14 -11.5 24t-24.5 12l-33 3l8 37h286l-8 -37l-50 -4q-20 -2 -30.5 -11.5t-5.5 -23.5l104 -297l229 297q11 14 10.5 22.5t-32.5 12.5l-48 4l8 37h236l-8 -37l-33 -3q-19 -2 -30.5 -12t-22.5 -24l-291 -363l-45 -210q-3 -15 0.5 -23t23.5 -10l48 -5
l-8 -38h-285l8 38l50 5q21 2 28 10t11 23zM343 890h117l-25 -117h-117zM571 890h117l-25 -117h-117z" />
    <glyph glyph-name="Ygrave" unicode="&#x1ef2;" horiz-adv-x="721" 
d="M295 287l-129 362q-5 14 -11.5 24t-24.5 12l-33 3l8 37h286l-8 -37l-50 -4q-20 -2 -30.5 -11.5t-5.5 -23.5l104 -297l229 297q11 14 10.5 22.5t-32.5 12.5l-48 4l8 37h236l-8 -37l-33 -3q-19 -2 -30.5 -12t-22.5 -24l-291 -363l-45 -210q-3 -15 0.5 -23t23.5 -10l48 -5
l-8 -38h-285l8 38l50 5q21 2 28 10t11 23zM294 890h145l78 -117h-72z" />
    <glyph glyph-name="uni0232" unicode="&#x232;" horiz-adv-x="721" 
d="M295 287l-129 362q-5 14 -11.5 24t-24.5 12l-33 3l8 37h286l-8 -37l-50 -4q-20 -2 -30.5 -11.5t-5.5 -23.5l104 -297l229 297q11 14 10.5 22.5t-32.5 12.5l-48 4l8 37h236l-8 -37l-33 -3q-19 -2 -30.5 -12t-22.5 -24l-291 -363l-45 -210q-3 -15 0.5 -23t23.5 -10l48 -5
l-8 -38h-285l8 38l50 5q21 2 28 10t11 23zM334 797l14 67h311l-14 -67h-311z" />
    <glyph glyph-name="Zacute" unicode="&#x179;" horiz-adv-x="729" 
d="M349 663q-37 0 -60 -1.5t-38.5 -10.5t-26 -28t-22.5 -54l-22 -66h-45l47 222h581l-12 -59l-593 -604h290q37 0 60 1.5t38 10.5t25.5 28t22.5 54l23 66h45l-47 -222h-620l13 61l590 602h-249v0zM482 773h-72l128 117h145z" />
    <glyph glyph-name="Zcaron" unicode="&#x17d;" horiz-adv-x="729" 
d="M349 663q-37 0 -60 -1.5t-38.5 -10.5t-26 -28t-22.5 -54l-22 -66h-45l47 222h581l-12 -59l-593 -604h290q37 0 60 1.5t38 10.5t25.5 28t22.5 54l23 66h45l-47 -222h-620l13 61l590 602h-249v0zM337 890h72l91 -58l117 58h83l-165 -117h-88z" />
    <glyph glyph-name="Zdotaccent" unicode="&#x17b;" horiz-adv-x="729" 
d="M349 663q-37 0 -60 -1.5t-38.5 -10.5t-26 -28t-22.5 -54l-22 -66h-45l47 222h581l-12 -59l-593 -604h290q37 0 60 1.5t38 10.5t25.5 28t22.5 54l23 66h45l-47 -222h-620l13 61l590 602h-249v0zM444 890h117l-25 -117h-117z" />
    <glyph glyph-name="uni018F" unicode="&#x18f;" horiz-adv-x="785" 
d="M354 -12q-56 0 -113.5 17t-103 58t-71.5 111t-18 176h598q5 24 7.5 47.5t2.5 45.5q0 111 -48.5 174.5t-153.5 63.5q-97 0 -157 -49.5t-79 -133.5h-124q19 61 54.5 107t83.5 77t107.5 46.5t125.5 15.5q65 0 123.5 -19t103 -58t70.5 -98.5t26 -140.5q0 -85 -30.5 -164
t-87 -140.5t-137 -98.5t-179.5 -37zM359 50q54 0 97.5 19.5t77 52.5t57 75.5t38.5 87.5h-450q-8 -68 4 -113.5t37.5 -72.5t61.5 -38t77 -11z" />
    <glyph glyph-name="abreve" unicode="&#x103;" horiz-adv-x="619" 
d="M427 362q2 12 3.5 22.5t1.5 20.5q0 49 -29 67.5t-77 18.5q-55 0 -87.5 -32.5t-40.5 -88.5h-110q10 43 34 76t57.5 55.5t75 34t87.5 11.5q94 0 147.5 -34.5t53.5 -110.5q0 -31 -9 -67q-5 -17 -11.5 -48.5t-14.5 -66.5q-15 -66 -27 -137q-1 -5 -1.5 -8.5t-0.5 -7.5
q0 -10 5.5 -13t20.5 -5l42 -4l-8 -37l-169 -11l12 98h-3q-35 -49 -79.5 -78.5t-117.5 -29.5q-33 0 -61 9.5t-48.5 27t-32 41.5t-11.5 53q0 88 97 138.5t293 67.5zM409 269q-68 -6 -115.5 -15.5t-77.5 -25.5t-44 -39.5t-14 -56.5q0 -32 22 -54.5t65 -22.5q19 0 41.5 9t45 30
t41.5 56t30 88zM333 739q-2 -47 17.5 -67t54.5 -20q36 0 65.5 20t37.5 67h68q-14 -65 -57.5 -104.5t-119.5 -39.5q-72 0 -105.5 40t-29.5 104h69v0z" />
    <glyph glyph-name="amacron" unicode="&#x101;" horiz-adv-x="619" 
d="M427 362q2 12 3.5 22.5t1.5 20.5q0 49 -29 67.5t-77 18.5q-55 0 -87.5 -32.5t-40.5 -88.5h-110q10 43 34 76t57.5 55.5t75 34t87.5 11.5q94 0 147.5 -34.5t53.5 -110.5q0 -31 -9 -67q-5 -17 -11.5 -48.5t-14.5 -66.5q-15 -66 -27 -137q-1 -5 -1.5 -8.5t-0.5 -7.5
q0 -10 5.5 -13t20.5 -5l42 -4l-8 -37l-169 -11l12 98h-3q-35 -49 -79.5 -78.5t-117.5 -29.5q-33 0 -61 9.5t-48.5 27t-32 41.5t-11.5 53q0 88 97 138.5t293 67.5zM409 269q-68 -6 -115.5 -15.5t-77.5 -25.5t-44 -39.5t-14 -56.5q0 -32 22 -54.5t65 -22.5q19 0 41.5 9t45 30
t41.5 56t30 88zM245 631l14 71h290l-15 -71h-289z" />
    <glyph glyph-name="aogonek" unicode="&#x105;" horiz-adv-x="619" 
d="M29 145q0 48 19.5 81t56.5 53q40 23 96 33.5t126 15.5l85 6l8 34q14 67 -10.5 95t-81.5 28q-55 0 -90 -28.5t-43 -82.5h-109q5 39 27 70t55 52.5t75 33t88 11.5q55 0 97.5 -10.5t69 -35t35 -63.5t-4.5 -96l-55 -259q-4 -20 0 -26t23 -8l43 -4l-9 -37l-70 -5
q-35 -19 -59.5 -44.5t-24.5 -50.5q0 -29 22.5 -40.5t48.5 -11.5q31 0 52 9v-44q-14 -6 -34 -9t-43 -3q-21 0 -44 4.5t-41.5 14.5t-31 27t-12.5 43q0 31 19 54.5t59 45.5l2 90h-3q-31 -48 -73 -74.5t-103 -26.5q-35 0 -65.5 11.5t-52.5 32.5t-34.5 50t-12.5 64zM404 278
l-79 -4q-28 -2 -58 -8t-55 -19.5t-41 -36.5t-16 -58q0 -42 23.5 -69.5t67.5 -27.5q17 0 38 7t41 25.5t38 51.5t29 85z" />
    <glyph glyph-name="cacute" unicode="&#x107;" horiz-adv-x="591" 
d="M36 211q0 54 18.5 113t57 108.5t96.5 82t137 32.5q55 0 96.5 -15.5t69 -41t41.5 -59t15 -69.5h-113q4 62 -24.5 94t-79.5 32q-45 0 -80.5 -27t-60.5 -71t-38 -100t-13 -114q0 -27 6 -50.5t19.5 -41.5t34 -28t50.5 -10q23 0 45.5 6t42 20.5t35.5 38.5t25 59h114
q-16 -49 -44 -83.5t-63.5 -56.5t-76 -32.5t-81.5 -10.5q-56 0 -99 17.5t-72 47.5t-43.5 71t-14.5 88zM370 603h-57l122 142h132z" />
    <glyph glyph-name="ccaron" unicode="&#x10d;" horiz-adv-x="591" 
d="M36 211q0 54 18.5 113t57 108.5t96.5 82t137 32.5q55 0 96.5 -15.5t69 -41t41.5 -59t15 -69.5h-113q4 62 -24.5 94t-79.5 32q-45 0 -80.5 -27t-60.5 -71t-38 -100t-13 -114q0 -27 6 -50.5t19.5 -41.5t34 -28t50.5 -10q23 0 45.5 6t42 20.5t35.5 38.5t25 59h114
q-16 -49 -44 -83.5t-63.5 -56.5t-76 -32.5t-81.5 -10.5q-56 0 -99 17.5t-72 47.5t-43.5 71t-14.5 88zM221 745h60l95 -68l133 68h60l-170 -142h-69z" />
    <glyph glyph-name="ccircumflex" unicode="&#x109;" horiz-adv-x="591" 
d="M36 211q0 54 18.5 113t57 108.5t96.5 82t137 32.5q55 0 96.5 -15.5t69 -41t41.5 -59t15 -69.5h-113q4 62 -24.5 94t-79.5 32q-45 0 -80.5 -27t-60.5 -71t-38 -100t-13 -114q0 -27 6 -50.5t19.5 -41.5t34 -28t50.5 -10q23 0 45.5 6t42 20.5t35.5 38.5t25 59h114
q-16 -49 -44 -83.5t-63.5 -56.5t-76 -32.5t-81.5 -10.5q-56 0 -99 17.5t-72 47.5t-43.5 71t-14.5 88zM537 603h-60l-95 67l-133 -67h-60l171 142h69z" />
    <glyph glyph-name="cdotaccent" unicode="&#x10b;" horiz-adv-x="591" 
d="M36 211q0 54 18.5 113t57 108.5t96.5 82t137 32.5q55 0 96.5 -15.5t69 -41t41.5 -59t15 -69.5h-113q4 62 -24.5 94t-79.5 32q-45 0 -80.5 -27t-60.5 -71t-38 -100t-13 -114q0 -27 6 -50.5t19.5 -41.5t34 -28t50.5 -10q23 0 45.5 6t42 20.5t35.5 38.5t25 59h114
q-16 -49 -44 -83.5t-63.5 -56.5t-76 -32.5t-81.5 -10.5q-56 0 -99 17.5t-72 47.5t-43.5 71t-14.5 88zM340 745h117l-29 -135h-117z" />
    <glyph glyph-name="dcaron" unicode="&#x10f;" horiz-adv-x="772" 
d="M739 745h118l-25 -118l-94 -140h-42l68 140h-50zM525 670q5 20 -0.5 25.5t-25.5 7.5l-55 5l8 37h205l-29 -135l-112 -526q-4 -20 0 -26t24 -8l42 -4l-8 -37l-188 -12l24 101h-2q-13 -23 -32.5 -43.5t-43 -35.5t-51 -23.5t-55.5 -8.5q-46 0 -81 17.5t-59 48t-36 71
t-12 87.5q0 75 22 137t59.5 106t87 68.5t104.5 24.5q60 0 103 -36t56 -102h3q3 22 7 44t8 40.5t6.5 30.5t2.5 14zM271 55q35 0 67 24t57 62t39.5 85.5t14.5 95.5q0 74 -30 115.5t-84 41.5q-34 0 -65 -21t-54 -57t-37 -85t-14 -105q0 -44 8 -73.5t22 -48t33.5 -26.5t42.5 -8z
" />
    <glyph glyph-name="dcroat" unicode="&#x111;" horiz-adv-x="678" 
d="M525 670q5 20 -0.5 25.5t-25.5 7.5l-55 5l8 37h205l-23 -108h105l-14 -65h-105l-104 -488q-4 -20 0 -26t24 -8l42 -4l-8 -37l-188 -12l24 101h-2q-13 -23 -32.5 -43.5t-43 -35.5t-51 -23.5t-55.5 -8.5q-46 0 -81 17.5t-59 48t-36 71t-12 87.5q0 75 22 137t59.5 106
t87 68.5t104.5 24.5q60 0 103 -36t56 -102h3q3 22 7 44t8 40.5t6.5 30.5t2.5 14l7 34h-143l14 65h143zM271 55q35 0 67 24t57 62t39.5 85.5t14.5 95.5q0 74 -30 115.5t-84 41.5q-34 0 -65 -21t-54 -57t-37 -85t-14 -105q0 -44 8 -73.5t22 -48t33.5 -26.5t42.5 -8z" />
    <glyph glyph-name="ebreve" unicode="&#x115;" horiz-adv-x="605" 
d="M533 168q-33 -93 -105 -137t-163 -44q-56 0 -99 17.5t-72 47.5t-43.5 71t-14.5 88q0 63 21.5 123.5t62 108t98.5 76t132 28.5q45 0 85 -12t70 -37.5t47.5 -65t17.5 -94.5q0 -33 -8 -76h-395q-9 -48 -9 -86q0 -27 6 -50.5t19.5 -41.5t34 -28t50.5 -10q59 0 99 32.5
t55 89.5h111zM345 490q-34 0 -61.5 -13t-48.5 -36t-35 -53.5t-21 -65.5h269q3 14 4 27.5t1 25.5q0 62 -31 88.5t-77 26.5zM306 739q-2 -47 17.5 -67t54.5 -20q36 0 65.5 20t37.5 67h68q-14 -65 -57.5 -104.5t-119.5 -39.5q-72 0 -105.5 40t-29.5 104h69v0z" />
    <glyph glyph-name="ecaron" unicode="&#x11b;" horiz-adv-x="605" 
d="M533 168q-33 -93 -105 -137t-163 -44q-56 0 -99 17.5t-72 47.5t-43.5 71t-14.5 88q0 63 21.5 123.5t62 108t98.5 76t132 28.5q45 0 85 -12t70 -37.5t47.5 -65t17.5 -94.5q0 -33 -8 -76h-395q-9 -48 -9 -86q0 -27 6 -50.5t19.5 -41.5t34 -28t50.5 -10q59 0 99 32.5
t55 89.5h111zM345 490q-34 0 -61.5 -13t-48.5 -36t-35 -53.5t-21 -65.5h269q3 14 4 27.5t1 25.5q0 62 -31 88.5t-77 26.5zM205 745h60l95 -68l133 68h60l-170 -142h-69z" />
    <glyph glyph-name="emacron" unicode="&#x113;" horiz-adv-x="605" 
d="M533 168q-33 -93 -105 -137t-163 -44q-56 0 -99 17.5t-72 47.5t-43.5 71t-14.5 88q0 63 21.5 123.5t62 108t98.5 76t132 28.5q45 0 85 -12t70 -37.5t47.5 -65t17.5 -94.5q0 -33 -8 -76h-395q-9 -48 -9 -86q0 -27 6 -50.5t19.5 -41.5t34 -28t50.5 -10q59 0 99 32.5
t55 89.5h111zM345 490q-34 0 -61.5 -13t-48.5 -36t-35 -53.5t-21 -65.5h269q3 14 4 27.5t1 25.5q0 62 -31 88.5t-77 26.5zM218 631l14 71h290l-15 -71h-289z" />
    <glyph glyph-name="eogonek" unicode="&#x119;" horiz-adv-x="605" 
d="M345 490q-34 0 -61.5 -13t-48.5 -35.5t-35 -53.5t-21 -66h269q3 14 4 27.5t1 25.5q0 62 -31 88.5t-77 26.5zM382 -179q-13 -6 -33 -9t-43 -3q-21 0 -44 4.5t-41.5 14.5t-31 27t-12.5 43q0 54 61 90q-50 4 -87.5 23t-63 48.5t-38.5 68.5t-13 83q0 63 21.5 123.5t62 108
t98.5 76t132 28.5q45 0 85 -12t70 -37.5t47.5 -65t17.5 -94.5q0 -33 -8 -76h-395q-9 -48 -9 -86q0 -27 6 -50.5t19.5 -41.5t34 -28t50.5 -10q59 0 99 32.5t55 89.5h111q-25 -69 -71 -110.5t-107 -58.5q-40 -15 -67.5 -40t-27.5 -51q0 -29 22.5 -40.5t48.5 -11.5q14 0 27.5 2
t23.5 7v-44z" />
    <glyph glyph-name="edotaccent" unicode="&#x117;" horiz-adv-x="605" 
d="M533 168q-33 -93 -105 -137t-163 -44q-56 0 -99 17.5t-72 47.5t-43.5 71t-14.5 88q0 63 21.5 123.5t62 108t98.5 76t132 28.5q45 0 85 -12t70 -37.5t47.5 -65t17.5 -94.5q0 -33 -8 -76h-395q-9 -48 -9 -86q0 -27 6 -50.5t19.5 -41.5t34 -28t50.5 -10q59 0 99 32.5
t55 89.5h111zM345 490q-34 0 -61.5 -13t-48.5 -36t-35 -53.5t-21 -65.5h269q3 14 4 27.5t1 25.5q0 62 -31 88.5t-77 26.5zM325 745h117l-29 -135h-117z" />
    <glyph glyph-name="gbreve" unicode="&#x11f;" horiz-adv-x="620" 
d="M495 485q17 -20 27 -46.5t10 -60.5q0 -44 -18.5 -80.5t-51 -63t-77.5 -41.5t-99 -15q-37 0 -70 9q-18 -6 -30 -16.5t-12 -23.5q0 -19 16 -26.5t44 -10.5l141 -10q70 -5 112 -30t42 -73q0 -45 -32.5 -80.5t-81 -60t-104 -37.5t-100.5 -13q-59 0 -101.5 8.5t-70 23.5
t-41 34.5t-13.5 41.5q0 23 14.5 42t36.5 33t49 23.5t51 12.5q-38 10 -54 32t-16 46q0 22 11.5 38t29 27t39 18t41.5 12q-41 19 -66.5 55.5t-25.5 93.5q0 43 18.5 80t51 63.5t77.5 41.5t99 15q51 0 93 -18l229 9l-14 -64zM328 499q-33 0 -55.5 -15t-36.5 -39t-20 -55.5
t-6 -64.5q0 -47 22 -73t67 -26q33 0 55.5 15t36.5 39t20 55t6 64q0 48 -22 74t-67 26zM173 20q-9 0 -13 1q-26 -11 -47 -34.5t-21 -54.5q0 -32 30.5 -52.5t95.5 -20.5q25 0 57.5 5t62 17t50 31.5t20.5 48.5q0 26 -25.5 37t-63.5 13zM288 739q-2 -47 17.5 -67t54.5 -20
q36 0 65.5 20t37.5 67h68q-14 -65 -57.5 -104.5t-119.5 -39.5q-72 0 -105.5 40t-29.5 104h69v0z" />
    <glyph glyph-name="gcircumflex" unicode="&#x11d;" horiz-adv-x="620" 
d="M495 485q17 -20 27 -46.5t10 -60.5q0 -44 -18.5 -80.5t-51 -63t-77.5 -41.5t-99 -15q-37 0 -70 9q-18 -6 -30 -16.5t-12 -23.5q0 -19 16 -26.5t44 -10.5l141 -10q70 -5 112 -30t42 -73q0 -45 -32.5 -80.5t-81 -60t-104 -37.5t-100.5 -13q-59 0 -101.5 8.5t-70 23.5
t-41 34.5t-13.5 41.5q0 23 14.5 42t36.5 33t49 23.5t51 12.5q-38 10 -54 32t-16 46q0 22 11.5 38t29 27t39 18t41.5 12q-41 19 -66.5 55.5t-25.5 93.5q0 43 18.5 80t51 63.5t77.5 41.5t99 15q51 0 93 -18l229 9l-14 -64zM328 499q-33 0 -55.5 -15t-36.5 -39t-20 -55.5
t-6 -64.5q0 -47 22 -73t67 -26q33 0 55.5 15t36.5 39t20 55t6 64q0 48 -22 74t-67 26zM173 20q-9 0 -13 1q-26 -11 -47 -34.5t-21 -54.5q0 -32 30.5 -52.5t95.5 -20.5q25 0 57.5 5t62 17t50 31.5t20.5 48.5q0 26 -25.5 37t-63.5 13zM524 603h-60l-95 67l-133 -67h-60
l171 142h69z" />
    <glyph glyph-name="gcommaaccent" unicode="&#x123;" horiz-adv-x="620" 
d="M390 591h-109l21 98l65 93h67l-61 -100h37zM495 485q17 -20 27 -46.5t10 -60.5q0 -44 -18.5 -80.5t-51 -63t-77.5 -41.5t-99 -15q-37 0 -70 9q-18 -6 -30 -16.5t-12 -23.5q0 -19 16 -26.5t44 -10.5l141 -10q70 -5 112 -30t42 -73q0 -45 -32.5 -80.5t-81 -60t-104 -37.5
t-100.5 -13q-59 0 -101.5 8.5t-70 23.5t-41 34.5t-13.5 41.5q0 23 14.5 42t36.5 33t49 23.5t51 12.5q-38 10 -54 32t-16 46q0 22 11.5 38t29 27t39 18t41.5 12q-41 19 -66.5 55.5t-25.5 93.5q0 43 18.5 80t51 63.5t77.5 41.5t99 15q51 0 93 -18l229 9l-14 -64zM328 499
q-33 0 -55.5 -15t-36.5 -39t-20 -55.5t-6 -64.5q0 -47 22 -73t67 -26q33 0 55.5 15t36.5 39t20 55t6 64q0 48 -22 74t-67 26zM173 20q-9 0 -13 1q-26 -11 -47 -34.5t-21 -54.5q0 -32 30.5 -52.5t95.5 -20.5q25 0 57.5 5t62 17t50 31.5t20.5 48.5q0 26 -25.5 37t-63.5 13z
" />
    <glyph glyph-name="gdotaccent" unicode="&#x121;" horiz-adv-x="620" 
d="M495 485q17 -20 27 -46.5t10 -60.5q0 -44 -18.5 -80.5t-51 -63t-77.5 -41.5t-99 -15q-37 0 -70 9q-18 -6 -30 -16.5t-12 -23.5q0 -19 16 -26.5t44 -10.5l141 -10q70 -5 112 -30t42 -73q0 -45 -32.5 -80.5t-81 -60t-104 -37.5t-100.5 -13q-59 0 -101.5 8.5t-70 23.5
t-41 34.5t-13.5 41.5q0 23 14.5 42t36.5 33t49 23.5t51 12.5q-38 10 -54 32t-16 46q0 22 11.5 38t29 27t39 18t41.5 12q-41 19 -66.5 55.5t-25.5 93.5q0 43 18.5 80t51 63.5t77.5 41.5t99 15q51 0 93 -18l229 9l-14 -64zM328 499q-33 0 -55.5 -15t-36.5 -39t-20 -55.5
t-6 -64.5q0 -47 22 -73t67 -26q33 0 55.5 15t36.5 39t20 55t6 64q0 48 -22 74t-67 26zM173 20q-9 0 -13 1q-26 -11 -47 -34.5t-21 -54.5q0 -32 30.5 -52.5t95.5 -20.5q25 0 57.5 5t62 17t50 31.5t20.5 48.5q0 26 -25.5 37t-63.5 13zM339 745h117l-29 -135h-117z" />
    <glyph glyph-name="hbar" unicode="&#x127;" horiz-adv-x="660" 
d="M-6 37l42 4q10 1 17 3t11.5 5.5t7 9.5t4.5 16l105 497h-113l14 65h113l7 33q4 20 -0.5 25.5t-24.5 7.5l-41 5l7 37h192l-23 -108h134l-15 -65h-133l-4 -20l-24 -113h1q32 55 79 81.5t107 26.5q48 0 76 -16.5t40.5 -45t12 -66t-9.5 -80.5l-56 -264q-5 -20 0 -25.5t25 -8.5
l42 -4l-8 -37h-265l8 37l43 4q20 2 27 8t11 26l51 240q10 46 11.5 77t-5.5 49.5t-23.5 26t-41.5 7.5q-24 0 -48 -11t-45 -35t-38 -62.5t-29 -92.5l-42 -199q-4 -20 0.5 -26t23.5 -8l42 -4l-8 -37h-265z" />
    <glyph glyph-name="hcircumflex" unicode="&#x125;" horiz-adv-x="660" 
d="M-6 37l42 4q10 1 17 3t11.5 5.5t7 9.5t4.5 16l126 595q4 20 -0.5 25.5t-24.5 7.5l-41 5l7 37h192l-29 -135l-12 -58l-24 -113h1q32 55 79 81.5t107 26.5q48 0 76 -16.5t40.5 -45t12 -66t-9.5 -80.5l-56 -264q-5 -20 0 -25.5t25 -8.5l42 -4l-8 -37h-265l8 37l43 4
q20 2 27 8t11 26l51 240q10 46 11.5 77t-5.5 49.5t-23.5 26t-41.5 7.5q-24 0 -48 -11t-45 -35t-38 -62.5t-29 -92.5l-42 -199q-4 -20 0.5 -26t23.5 -8l42 -4l-8 -37h-265zM464 773h-75l-89 58l-118 -58h-81l164 117h87z" />
    <glyph glyph-name="dotlessi" unicode="&#x131;" horiz-adv-x="331" 
d="M262 405l-70 -330q-4 -20 0.5 -26t23.5 -8l42 -4l-8 -37h-264l8 37l42 4q10 1 17 3t11.5 5.5t7 9.5t4.5 16l83 389q5 19 0 24.5t-25 8.5l-41 4l8 37h192z" />
    <glyph glyph-name="ibreve" unicode="&#x12d;" horiz-adv-x="331" 
d="M262 405l-70 -330q-4 -20 0.5 -26t23.5 -8l42 -4l-8 -37h-264l8 37l42 4q10 1 17 3t11.5 5.5t7 9.5t4.5 16l83 389q5 19 0 24.5t-25 8.5l-41 4l8 37h192zM176 739q-2 -47 17.5 -67t54.5 -20q36 0 65.5 20t37.5 67h68q-14 -65 -57.5 -104.5t-119.5 -39.5q-72 0 -105.5 40
t-29.5 104h69v0z" />
    <glyph glyph-name="imacron" unicode="&#x12b;" horiz-adv-x="331" 
d="M262 405l-70 -330q-4 -20 0.5 -26t23.5 -8l42 -4l-8 -37h-264l8 37l42 4q10 1 17 3t11.5 5.5t7 9.5t4.5 16l83 389q5 19 0 24.5t-25 8.5l-41 4l8 37h192zM106 631l14 71h290l-15 -71h-289z" />
    <glyph glyph-name="iogonek" unicode="&#x12f;" horiz-adv-x="331" 
d="M178 0q-39 -19 -67 -42.5t-28 -49.5q0 -29 22.5 -40.5t48.5 -11.5q31 0 51 9v-44q-13 -6 -33 -9t-43 -3q-21 0 -44 4.5t-41.5 14.5t-31 27t-12.5 43q0 32 20.5 56.5t62.5 45.5h95zM262 405l-70 -330q-4 -20 0.5 -26t23.5 -8l42 -4l-8 -37h-264l8 37l42 4q10 1 17 3
t11.5 5.5t7 9.5t4.5 16l83 389q5 19 0 24.5t-25 8.5l-41 4l8 37h192zM217 745h117l-28 -135h-117z" />
    <glyph glyph-name="itilde" unicode="&#x129;" horiz-adv-x="331" 
d="M262 405l-70 -330q-4 -20 0.5 -26t23.5 -8l42 -4l-8 -37h-264l8 37l42 4q10 1 17 3t11.5 5.5t7 9.5t4.5 16l83 389q5 19 0 24.5t-25 8.5l-41 4l8 37h192zM304 679q22 0 32.5 12.5t13.5 34.5h62q-10 -64 -36.5 -91.5t-67.5 -27.5q-22 0 -40.5 7.5t-35 16.5t-31 16.5
t-27.5 7.5q-21 0 -31 -12.5t-15 -35.5h-60q4 34 13.5 57t24 36.5t31.5 19.5t36 6q21 0 39 -7.5t34 -16t30 -16t28 -7.5z" />
    <glyph glyph-name="uni1ECB" unicode="&#x1ecb;" horiz-adv-x="331" 
d="M262 405l-70 -330q-4 -20 0.5 -26t23.5 -8l42 -4l-8 -37h-264l8 37l42 4q10 1 17 3t11.5 5.5t7 9.5t4.5 16l83 389q5 19 0 24.5t-25 8.5l-41 4l8 37h192zM217 745h117l-28 -135h-117zM53 -54h117l-29 -135h-117z" />
    <glyph glyph-name="dotlessj" unicode="&#x237;" horiz-adv-x="337" 
d="M177 464q4 19 0 24.5t-24 8.5l-42 4l8 37h192l-30 -133l-83 -392q-15 -69 -31.5 -109t-40.5 -60.5t-57.5 -26.5t-80.5 -6h-71l16 74h70q17 0 27.5 3t18.5 15t14.5 36.5t15.5 67.5z" />
    <glyph glyph-name="jcircumflex" unicode="&#x135;" horiz-adv-x="337" 
d="M434 603h-60l-95 67l-133 -67h-60l171 142h69zM177 464q4 19 0 24.5t-24 8.5l-42 4l8 37h192l-30 -133l-83 -392q-15 -69 -31.5 -109t-40.5 -60.5t-57.5 -26.5t-80.5 -6h-71l16 74h70q17 0 27.5 3t18.5 15t14.5 36.5t15.5 67.5z" />
    <glyph glyph-name="kcommaaccent" unicode="&#x137;" horiz-adv-x="630" 
d="M336 745l-30 -137l-73 -344l233 194q17 15 14.5 25.5t-27.5 13.5l-49 4l8 37h255l-7 -37l-42 -4q-11 -2 -19 -4.5t-17 -7.5t-20.5 -14t-27.5 -23l-155 -126l103 -238q9 -20 21 -31t38 -14l23 -2l-8 -37h-168l-100 248l-71 -57l-24 -116q-4 -20 0.5 -26t23.5 -8l42 -4
l-8 -37h-265l8 37l42 4q10 1 17 3t11.5 5.5t7 9.5t4.5 16l126 595q5 20 0 25.5t-25 7.5l-41 5l7 37h193zM236 -37h109l-21 -98l-65 -93h-67l61 99h-37z" />
    <glyph glyph-name="lacute" unicode="&#x13a;" horiz-adv-x="333" 
d="M336 745l-30 -137l-113 -533q-4 -20 0.5 -26t23.5 -8l42 -4l-8 -37h-265l8 37l42 4q10 1 17 3t11.5 5.5t7 9.5t4.5 16l126 595q4 20 -0.5 25.5t-24.5 7.5l-41 5l7 37h193zM307 773h-72l128 117h145z" />
    <glyph glyph-name="lcaron" unicode="&#x13e;" horiz-adv-x="451" 
d="M418 745h118l-25 -118l-94 -140h-42l68 140h-50zM336 745l-30 -137l-113 -533q-4 -20 0.5 -26t23.5 -8l42 -4l-8 -37h-265l8 37l42 4q10 1 17 3t11.5 5.5t7 9.5t4.5 16l126 595q4 20 -0.5 25.5t-24.5 7.5l-41 5l7 37h193z" />
    <glyph glyph-name="lcommaaccent" unicode="&#x13c;" horiz-adv-x="333" 
d="M336 745l-30 -137l-113 -533q-4 -20 0.5 -26t23.5 -8l42 -4l-8 -37h-265l8 37l42 4q10 1 17 3t11.5 5.5t7 9.5t4.5 16l126 595q4 20 -0.5 25.5t-24.5 7.5l-41 5l7 37h193zM61 -37h109l-21 -98l-65 -93h-67l61 99h-37z" />
    <glyph glyph-name="ldot" unicode="&#x140;" horiz-adv-x="407" 
d="M336 745l-30 -137l-113 -533q-4 -20 0.5 -26t23.5 -8l42 -4l-8 -37h-265l8 37l42 4q10 1 17 3t11.5 5.5t7 9.5t4.5 16l126 595q4 20 -0.5 25.5t-24.5 7.5l-41 5l7 37h193zM370 485h117l-29 -135h-117z" />
    <glyph glyph-name="lslash" unicode="&#x142;" horiz-adv-x="340" 
d="M340 745l-30 -137l-36 -169l96 31l19 -63l-131 -41l-61 -291q-4 -20 0.5 -26t23.5 -8l42 -4l-8 -37h-265l8 37l42 4q10 1 17 3t11.5 5.5t7 9.5t4.5 16l53 251l-100 -31l-19 62l135 43l57 270q4 20 -0.5 25.5t-24.5 7.5l-41 5l7 37h193z" />
    <glyph glyph-name="eng" unicode="&#x14b;" horiz-adv-x="652" 
d="M460 315q10 46 11.5 77t-5.5 49.5t-23.5 26t-41.5 7.5q-24 0 -48 -11t-45.5 -35t-39 -62.5t-28.5 -92.5l-42 -199q-4 -20 0.5 -26t24.5 -8l42 -4l-8 -37h-264l8 37l42 4q20 2 27 8t11 26l83 389q5 19 0.5 24.5t-24.5 8.5l-42 4l8 37h190l-21 -99h1q32 55 79.5 81.5
t106.5 26.5q48 0 76.5 -16.5t41.5 -45t12.5 -66t-9.5 -80.5l-70 -326q-15 -69 -32 -109t-41 -60.5t-57 -26.5t-80 -6h-71l16 74h70q17 0 27.5 3t18.5 15t14.5 36.5t15.5 67.5z" />
    <glyph glyph-name="nacute" unicode="&#x144;" horiz-adv-x="665" 
d="M526 75q-5 -20 0 -26t25 -8l42 -4l-8 -37h-266l8 37l44 4q20 2 27 8t11 26l51 240q10 46 11.5 77t-5.5 49.5t-23.5 26t-41.5 7.5q-24 0 -48 -11t-45 -35t-38.5 -62.5t-29.5 -92.5l-42 -199q-4 -20 0.5 -26t24.5 -8l42 -4l-8 -37h-264l8 37l42 4q20 2 27 8t11 26l83 389
q5 19 0.5 24.5t-24.5 8.5l-42 4l8 37h190l-21 -99h1q32 55 79.5 81.5t106.5 26.5q48 0 76.5 -16.5t41 -45t12 -66t-9.5 -80.5zM452 603h-57l122 142h132z" />
    <glyph glyph-name="ncaron" unicode="&#x148;" horiz-adv-x="665" 
d="M526 75q-5 -20 0 -26t25 -8l42 -4l-8 -37h-266l8 37l44 4q20 2 27 8t11 26l51 240q10 46 11.5 77t-5.5 49.5t-23.5 26t-41.5 7.5q-24 0 -48 -11t-45 -35t-38.5 -62.5t-29.5 -92.5l-42 -199q-4 -20 0.5 -26t24.5 -8l42 -4l-8 -37h-264l8 37l42 4q20 2 27 8t11 26l83 389
q5 19 0.5 24.5t-24.5 8.5l-42 4l8 37h190l-21 -99h1q32 55 79.5 81.5t106.5 26.5q48 0 76.5 -16.5t41 -45t12 -66t-9.5 -80.5zM256 745h60l95 -68l133 68h60l-170 -142h-69z" />
    <glyph glyph-name="ncommaaccent" unicode="&#x146;" horiz-adv-x="665" 
d="M526 75q-5 -20 0 -26t25 -8l42 -4l-8 -37h-266l8 37l44 4q20 2 27 8t11 26l51 240q10 46 11.5 77t-5.5 49.5t-23.5 26t-41.5 7.5q-24 0 -48 -11t-45 -35t-38.5 -62.5t-29.5 -92.5l-42 -199q-4 -20 0.5 -26t24.5 -8l42 -4l-8 -37h-264l8 37l42 4q20 2 27 8t11 26l83 389
q5 19 0.5 24.5t-24.5 8.5l-42 4l8 37h190l-21 -99h1q32 55 79.5 81.5t106.5 26.5q48 0 76.5 -16.5t41 -45t12 -66t-9.5 -80.5zM235 -37h109l-21 -98l-65 -93h-67l61 99h-37z" />
    <glyph glyph-name="oe" unicode="&#x153;" horiz-adv-x="995" 
d="M667 -13q-69 0 -115 24.5t-73 66.5q-37 -42 -88 -66.5t-116 -24.5q-58 0 -102 18t-74 49.5t-45.5 74t-15.5 91.5q0 67 21.5 126.5t60.5 104t93.5 70.5t121.5 26q69 0 115 -24.5t73 -66.5q37 42 89.5 66.5t119.5 24.5q52 0 97.5 -16t77.5 -50.5t45.5 -88.5t1.5 -130h-396
q-7 -35 -7 -73.5t11.5 -70t36.5 -52t69 -20.5q59 0 97.5 32.5t52.5 89.5h111q-30 -93 -100.5 -137t-161.5 -44zM276 46q33 0 58.5 15t45 39.5t33 56t21.5 65t12 65.5t4 58q0 29 -6 55t-19.5 45.5t-35.5 31t-53 11.5q-49 0 -82.5 -32t-54.5 -78.5t-30 -98t-9 -89.5
q0 -30 6.5 -56t20 -45.5t35.5 -31t54 -11.5zM838 322q7 45 1 77t-21 52.5t-38.5 29.5t-50.5 9q-35 0 -62 -13t-46.5 -36t-32.5 -53.5t-19 -65.5h269z" />
    <glyph glyph-name="obreve" unicode="&#x14f;" horiz-adv-x="610" 
d="M335 547q58 0 102 -18t74 -49.5t45.5 -74t15.5 -91.5q0 -67 -21.5 -126.5t-60.5 -104t-93.5 -70.5t-121.5 -26q-58 0 -102 18t-74 49.5t-45.5 74t-15.5 91.5q0 67 21.5 126.5t60.5 104t93.5 70.5t121.5 26zM276 46q33 0 58.5 15t45 39.5t33 56t21.5 65t12 65.5t4 58
q0 29 -6 55t-19.5 45.5t-35.5 31t-53 11.5q-49 0 -82.5 -32t-54.5 -78.5t-30 -98t-9 -89.5q0 -30 6.5 -56t20 -45.5t35.5 -31t54 -11.5zM311 739q-2 -47 17.5 -67t54.5 -20q36 0 65.5 20t37.5 67h68q-14 -65 -57.5 -104.5t-119.5 -39.5q-72 0 -105.5 40t-29.5 104h69v0z" />
    <glyph glyph-name="ohungarumlaut" unicode="&#x151;" horiz-adv-x="610" 
d="M335 547q58 0 102 -18t74 -49.5t45.5 -74t15.5 -91.5q0 -67 -21.5 -126.5t-60.5 -104t-93.5 -70.5t-121.5 -26q-58 0 -102 18t-74 49.5t-45.5 74t-15.5 91.5q0 67 21.5 126.5t60.5 104t93.5 70.5t121.5 26zM276 46q33 0 58.5 15t45 39.5t33 56t21.5 65t12 65.5t4 58
q0 29 -6 55t-19.5 45.5t-35.5 31t-53 11.5q-49 0 -82.5 -32t-54.5 -78.5t-30 -98t-9 -89.5q0 -30 6.5 -56t20 -45.5t35.5 -31t54 -11.5zM294 603h-57l123 142h131zM461 603h-57l123 142h131z" />
    <glyph glyph-name="omacron" unicode="&#x14d;" horiz-adv-x="610" 
d="M335 547q58 0 102 -18t74 -49.5t45.5 -74t15.5 -91.5q0 -67 -21.5 -126.5t-60.5 -104t-93.5 -70.5t-121.5 -26q-58 0 -102 18t-74 49.5t-45.5 74t-15.5 91.5q0 67 21.5 126.5t60.5 104t93.5 70.5t121.5 26zM276 46q33 0 58.5 15t45 39.5t33 56t21.5 65t12 65.5t4 58
q0 29 -6 55t-19.5 45.5t-35.5 31t-53 11.5q-49 0 -82.5 -32t-54.5 -78.5t-30 -98t-9 -89.5q0 -30 6.5 -56t20 -45.5t35.5 -31t54 -11.5zM237 631l14 71h290l-15 -71h-289z" />
    <glyph glyph-name="uni1ECD" unicode="&#x1ecd;" horiz-adv-x="610" 
d="M155 -54h117l-29 -135h-117zM335 547q58 0 102 -18t74 -49.5t45.5 -74t15.5 -91.5q0 -67 -21.5 -126.5t-60.5 -104t-93.5 -70.5t-121.5 -26q-58 0 -102 18t-74 49.5t-45.5 74t-15.5 91.5q0 67 21.5 126.5t60.5 104t93.5 70.5t121.5 26zM276 46q33 0 58.5 15t45 39.5
t33 56t21.5 65t12 65.5t4 58q0 29 -6 55t-19.5 45.5t-35.5 31t-53 11.5q-49 0 -82.5 -32t-54.5 -78.5t-30 -98t-9 -89.5q0 -30 6.5 -56t20 -45.5t35.5 -31t54 -11.5z" />
    <glyph glyph-name="racute" unicode="&#x155;" horiz-adv-x="467" 
d="M272 418h3q35 58 87 89t111 31h24l-22 -107h-78q-29 0 -53 -5t-42.5 -18t-31.5 -35.5t-20 -58.5l-51 -238q-5 -20 0 -25.5t25 -7.5l74 -5l-8 -38h-298l8 37l43 4q10 1 16.5 3t11 5.5t7 9.5t4.5 16l84 389q5 19 0.5 24.5t-25.5 8.5l-42 4l9 37h191zM338 603h-57l122 142
h132z" />
    <glyph glyph-name="rcaron" unicode="&#x159;" horiz-adv-x="467" 
d="M272 418h3q35 58 87 89t111 31h24l-22 -107h-78q-29 0 -53 -5t-42.5 -18t-31.5 -35.5t-20 -58.5l-51 -238q-5 -20 0 -25.5t25 -7.5l74 -5l-8 -38h-298l8 37l43 4q10 1 16.5 3t11 5.5t7 9.5t4.5 16l84 389q5 19 0.5 24.5t-25.5 8.5l-42 4l9 37h191zM172 745h60l95 -68
l133 68h60l-170 -142h-69z" />
    <glyph glyph-name="rcommaaccent" unicode="&#x157;" horiz-adv-x="467" 
d="M272 418h3q35 58 87 89t111 31h24l-22 -107h-78q-29 0 -53 -5t-42.5 -18t-31.5 -35.5t-20 -58.5l-51 -238q-5 -20 0 -25.5t25 -7.5l74 -5l-8 -38h-298l8 37l43 4q10 1 16.5 3t11 5.5t7 9.5t4.5 16l84 389q5 19 0.5 24.5t-25.5 8.5l-42 4l9 37h191zM64 -37h109l-21 -98
l-65 -93h-67l61 99h-37z" />
    <glyph glyph-name="sacute" unicode="&#x15b;" horiz-adv-x="548" 
d="M485 156q0 -42 -18.5 -73.5t-49 -52.5t-71 -32t-85.5 -11q-49 0 -92 13t-75 37t-50.5 57.5t-19.5 74.5h111q3 -56 33.5 -89.5t92.5 -33.5q54 0 86.5 19.5t32.5 57.5q0 17 -9.5 30.5t-25 24.5t-35 19.5t-40.5 16.5l-60 23q-27 10 -51 24.5t-41.5 34t-28 44t-10.5 54.5
q0 39 18.5 67.5t49 47.5t69.5 28.5t81 9.5t81.5 -10.5t70.5 -31t51 -51t23 -70.5h-111q-1 45 -33 74.5t-89 29.5q-56 0 -83.5 -22.5t-27.5 -48.5q0 -32 22 -50t66 -35l61 -23q27 -10 54.5 -22.5t50.5 -30t37.5 -42t14.5 -58.5zM335 603h-57l122 142h132z" />
    <glyph glyph-name="scaron" unicode="&#x161;" horiz-adv-x="548" 
d="M485 156q0 -42 -18.5 -73.5t-49 -52.5t-71 -32t-85.5 -11q-49 0 -92 13t-75 37t-50.5 57.5t-19.5 74.5h111q3 -56 33.5 -89.5t92.5 -33.5q54 0 86.5 19.5t32.5 57.5q0 17 -9.5 30.5t-25 24.5t-35 19.5t-40.5 16.5l-60 23q-27 10 -51 24.5t-41.5 34t-28 44t-10.5 54.5
q0 39 18.5 67.5t49 47.5t69.5 28.5t81 9.5t81.5 -10.5t70.5 -31t51 -51t23 -70.5h-111q-1 45 -33 74.5t-89 29.5q-56 0 -83.5 -22.5t-27.5 -48.5q0 -32 22 -50t66 -35l61 -23q27 -10 54.5 -22.5t50.5 -30t37.5 -42t14.5 -58.5zM177 745h60l95 -68l133 68h60l-170 -142h-69z
" />
    <glyph glyph-name="scedilla" unicode="&#x15f;" horiz-adv-x="548" 
d="M485 156q0 -42 -18.5 -73.5t-49 -52.5t-71 -32t-85.5 -11q-49 0 -92 13t-75 37t-50.5 57.5t-19.5 74.5h111q3 -56 33.5 -89.5t92.5 -33.5q54 0 86.5 19.5t32.5 57.5q0 17 -9.5 30.5t-25 24.5t-35 19.5t-40.5 16.5l-60 23q-27 10 -51 24.5t-41.5 34t-28 44t-10.5 54.5
q0 39 18.5 67.5t49 47.5t69.5 28.5t81 9.5t81.5 -10.5t70.5 -31t51 -51t23 -70.5h-111q-1 45 -33 74.5t-89 29.5q-56 0 -83.5 -22.5t-27.5 -48.5q0 -32 22 -50t66 -35l61 -23q27 -10 54.5 -22.5t50.5 -30t37.5 -42t14.5 -58.5zM223 3h48l-48 -53q55 8 80 -13t25 -56
q0 -26 -12 -45t-31.5 -31t-45 -17.5t-51.5 -5.5q-27 0 -52 5.5t-45 15.5l21 41q14 -8 31.5 -12.5t35.5 -4.5q29 0 51 11t22 34q0 18 -15 26t-32 8q-21 0 -41 -10l-16 19z" />
    <glyph glyph-name="scircumflex" unicode="&#x15d;" horiz-adv-x="548" 
d="M485 156q0 -42 -18.5 -73.5t-49 -52.5t-71 -32t-85.5 -11q-49 0 -92 13t-75 37t-50.5 57.5t-19.5 74.5h111q3 -56 33.5 -89.5t92.5 -33.5q54 0 86.5 19.5t32.5 57.5q0 17 -9.5 30.5t-25 24.5t-35 19.5t-40.5 16.5l-60 23q-27 10 -51 24.5t-41.5 34t-28 44t-10.5 54.5
q0 39 18.5 67.5t49 47.5t69.5 28.5t81 9.5t81.5 -10.5t70.5 -31t51 -51t23 -70.5h-111q-1 45 -33 74.5t-89 29.5q-56 0 -83.5 -22.5t-27.5 -48.5q0 -32 22 -50t66 -35l61 -23q27 -10 54.5 -22.5t50.5 -30t37.5 -42t14.5 -58.5zM504 603h-60l-95 67l-133 -67h-60l171 142h69z
" />
    <glyph glyph-name="scommaaccent" unicode="&#x219;" horiz-adv-x="548" 
d="M485 156q0 -42 -18.5 -73.5t-49 -52.5t-71 -32t-85.5 -11q-49 0 -92 13t-75 37t-50.5 57.5t-19.5 74.5h111q3 -56 33.5 -89.5t92.5 -33.5q54 0 86.5 19.5t32.5 57.5q0 17 -9.5 30.5t-25 24.5t-35 19.5t-40.5 16.5l-60 23q-27 10 -51 24.5t-41.5 34t-28 44t-10.5 54.5
q0 39 18.5 67.5t49 47.5t69.5 28.5t81 9.5t81.5 -10.5t70.5 -31t51 -51t23 -70.5h-111q-1 45 -33 74.5t-89 29.5q-56 0 -83.5 -22.5t-27.5 -48.5q0 -32 22 -50t66 -35l61 -23q27 -10 54.5 -22.5t50.5 -30t37.5 -42t14.5 -58.5zM188 -37h109l-21 -98l-65 -93h-67l61 99h-37z
" />
    <glyph glyph-name="tbar" unicode="&#x167;" horiz-adv-x="453" 
d="M167 376l20 95h-94l14 64h94l36 174h117l-36 -174h153l-15 -64h-152l-20 -95h153l-14 -65h-153l-34 -159q-5 -25 -5 -41t6.5 -25t21 -12.5t38.5 -3.5h73l-14 -70h-92q-52 0 -85 5t-50 20t-19 42t7 72l36 172h-94l14 65h94z" />
    <glyph glyph-name="tcaron" unicode="&#x165;" horiz-adv-x="556" 
d="M518 745h118l-25 -118l-94 -140h-42l68 140h-50zM423 474h-153l-69 -322q-5 -25 -5 -41t6.5 -25t21 -12.5t38.5 -3.5h74l-15 -70h-92q-52 0 -85 5t-50 20t-19.5 42t7.5 72l71 335h-94l13 64h94l37 171h117l-37 -171h153z" />
    <glyph glyph-name="uni0163" unicode="&#x163;" horiz-adv-x="418" 
d="M423 474h-153l-69 -322q-5 -25 -5 -41t6.5 -25t21 -12.5t38.5 -3.5h74l-15 -70h-92q-52 0 -85 5t-50 20t-19.5 42t7.5 72l71 335h-94l13 64h94l37 171h117l-37 -171h153zM74 -37h109l-21 -98l-65 -93h-67l61 99h-37z" />
    <glyph glyph-name="tcommaaccent" unicode="&#x21b;" horiz-adv-x="418" 
d="M423 474h-153l-69 -322q-5 -25 -5 -41t6.5 -25t21 -12.5t38.5 -3.5h74l-15 -70h-92q-52 0 -85 5t-50 20t-19.5 42t7.5 72l71 335h-94l13 64h94l37 171h117l-37 -171h153zM74 -37h109l-21 -98l-65 -93h-67l61 99h-37z" />
    <glyph glyph-name="ubreve" unicode="&#x16d;" horiz-adv-x="642" 
d="M381 85h-1q-29 -46 -68 -72t-98 -26q-48 0 -78 16.5t-44.5 46.5t-15.5 70.5t9 88.5l55 255q4 19 -0.5 24.5t-24.5 8.5l-41 4l8 37h192l-31 -136l-39 -184q-18 -86 -6 -122.5t63 -36.5q56 0 94.5 46.5t58.5 140.5l47 218q4 19 0 24.5t-24 8.5l-42 4l8 37h192l-31 -136
l-67 -318q-5 -20 0 -26t24 -8l42 -4l-8 -37l-190 -18zM305 739q-2 -47 17.5 -67t54.5 -20q36 0 65.5 20t37.5 67h68q-14 -65 -57.5 -104.5t-119.5 -39.5q-72 0 -105.5 40t-29.5 104h69v0z" />
    <glyph glyph-name="uhungarumlaut" unicode="&#x171;" horiz-adv-x="642" 
d="M381 85h-1q-29 -46 -68 -72t-98 -26q-48 0 -78 16.5t-44.5 46.5t-15.5 70.5t9 88.5l55 255q4 19 -0.5 24.5t-24.5 8.5l-41 4l8 37h192l-31 -136l-39 -184q-18 -86 -6 -122.5t63 -36.5q56 0 94.5 46.5t58.5 140.5l47 218q4 19 0 24.5t-24 8.5l-42 4l8 37h192l-31 -136
l-67 -318q-5 -20 0 -26t24 -8l42 -4l-8 -37l-190 -18zM290 603h-57l123 142h131zM457 603h-57l123 142h131z" />
    <glyph glyph-name="umacron" unicode="&#x16b;" horiz-adv-x="642" 
d="M381 85h-1q-29 -46 -68 -72t-98 -26q-48 0 -78 16.5t-44.5 46.5t-15.5 70.5t9 88.5l55 255q4 19 -0.5 24.5t-24.5 8.5l-41 4l8 37h192l-31 -136l-39 -184q-18 -86 -6 -122.5t63 -36.5q56 0 94.5 46.5t58.5 140.5l47 218q4 19 0 24.5t-24 8.5l-42 4l8 37h192l-31 -136
l-67 -318q-5 -20 0 -26t24 -8l42 -4l-8 -37l-190 -18zM232 631l14 71h290l-15 -71h-289z" />
    <glyph glyph-name="uogonek" unicode="&#x173;" horiz-adv-x="643" 
d="M381 85h-1q-29 -46 -68 -72t-98 -26q-48 0 -78 16.5t-44.5 46.5t-15.5 70.5t9 88.5l55 255q4 19 -0.5 24.5t-24.5 8.5l-41 4l8 37h192l-31 -136l-39 -184q-18 -86 -6 -122.5t63 -36.5q56 0 95 46.5t59 140.5l47 218q4 19 0 24.5t-24 8.5l-42 4l8 37h192l-31 -136
l-68 -318q-5 -20 0 -26t24 -8l42 -4l-8 -37l-85 -8q-32 -19 -54 -44.5t-22 -48.5q0 -29 22.5 -40.5t48.5 -11.5q31 0 51 9v-44q-13 -6 -33 -9t-43 -3q-21 0 -44 4.5t-41.5 14.5t-31 27t-12.5 43q0 29 17.5 52t52.5 43v92z" />
    <glyph glyph-name="uring" unicode="&#x16f;" horiz-adv-x="642" 
d="M381 85h-1q-29 -46 -68 -72t-98 -26q-48 0 -78 16.5t-44.5 46.5t-15.5 70.5t9 88.5l55 255q4 19 -0.5 24.5t-24.5 8.5l-41 4l8 37h192l-31 -136l-39 -184q-18 -86 -6 -122.5t63 -36.5q56 0 94.5 46.5t58.5 140.5l47 218q4 19 0 24.5t-24 8.5l-42 4l8 37h192l-31 -136
l-67 -318q-5 -20 0 -26t24 -8l42 -4l-8 -37l-190 -18zM387 764q19 0 36 -6.5t30 -18.5t20.5 -28t7.5 -35q0 -38 -27.5 -63.5t-66.5 -25.5q-40 0 -67 25.5t-27 63.5q0 19 7.5 35t20.5 28t30 18.5t36 6.5zM387 721q-17 0 -31 -13t-14 -32q0 -20 14 -32t31 -12t31 12t14 32
q0 19 -14 32t-31 13z" />
    <glyph glyph-name="utilde" unicode="&#x169;" horiz-adv-x="642" 
d="M381 85h-1q-29 -46 -68 -72t-98 -26q-48 0 -78 16.5t-44.5 46.5t-15.5 70.5t9 88.5l55 255q4 19 -0.5 24.5t-24.5 8.5l-41 4l8 37h192l-31 -136l-39 -184q-18 -86 -6 -122.5t63 -36.5q56 0 94.5 46.5t58.5 140.5l47 218q4 19 0 24.5t-24 8.5l-42 4l8 37h192l-31 -136
l-67 -318q-5 -20 0 -26t24 -8l42 -4l-8 -37l-190 -18zM451 679q22 0 32.5 12.5t13.5 34.5h62q-10 -64 -36.5 -91.5t-67.5 -27.5q-22 0 -40.5 7.5t-35 16.5t-31 16.5t-27.5 7.5q-21 0 -31 -12.5t-15 -35.5h-60q4 34 13.5 57t24 36.5t31.5 19.5t36 6q21 0 39 -7.5t34 -16
t30 -16t28 -7.5z" />
    <glyph glyph-name="uni1EE5" unicode="&#x1ee5;" horiz-adv-x="642" 
d="M193 -54h117l-29 -135h-117zM381 85h-1q-29 -46 -68 -72t-98 -26q-48 0 -78 16.5t-44.5 46.5t-15.5 70.5t9 88.5l55 255q4 19 -0.5 24.5t-24.5 8.5l-41 4l8 37h192l-31 -136l-39 -184q-18 -86 -6 -122.5t63 -36.5q56 0 94.5 46.5t58.5 140.5l47 218q4 19 0 24.5t-24 8.5
l-42 4l8 37h192l-31 -136l-67 -318q-5 -20 0 -26t24 -8l42 -4l-8 -37l-190 -18z" />
    <glyph glyph-name="wacute" unicode="&#x1e83;" horiz-adv-x="782" 
d="M639 438q13 28 17 43t-16 17l-36 3l8 37h208l-8 -37l-32 -2q-15 -1 -30.5 -12.5t-33.5 -46.5l-224 -440h-75l-36 382l-196 -382h-76l-40 466q-2 15 -6 23t-15 9l-36 3l8 37h239l-8 -37l-39 -3q-19 -2 -24.5 -9t-4.5 -24l19 -307l198 380h72l34 -381zM473 603h-57l122 142
h132z" />
    <glyph glyph-name="wcircumflex" unicode="&#x175;" horiz-adv-x="782" 
d="M639 438q13 28 17 43t-16 17l-36 3l8 37h208l-8 -37l-32 -2q-15 -1 -30.5 -12.5t-33.5 -46.5l-224 -440h-75l-36 382l-196 -382h-76l-40 466q-2 15 -6 23t-15 9l-36 3l8 37h239l-8 -37l-39 -3q-19 -2 -24.5 -9t-4.5 -24l19 -307l198 380h72l34 -381zM625 603h-60l-95 67
l-133 -67h-60l171 142h69z" />
    <glyph glyph-name="wdieresis" unicode="&#x1e85;" horiz-adv-x="782" 
d="M639 438q13 28 17 43t-16 17l-36 3l8 37h208l-8 -37l-32 -2q-15 -1 -30.5 -12.5t-33.5 -46.5l-224 -440h-75l-36 382l-196 -382h-76l-40 466q-2 15 -6 23t-15 9l-36 3l8 37h239l-8 -37l-39 -3q-19 -2 -24.5 -9t-4.5 -24l19 -307l198 380h72l34 -381zM296 745h117
l-29 -135h-117zM525 745h117l-30 -135h-117z" />
    <glyph glyph-name="wgrave" unicode="&#x1e81;" horiz-adv-x="782" 
d="M639 438q13 28 17 43t-16 17l-36 3l8 37h208l-8 -37l-32 -2q-15 -1 -30.5 -12.5t-33.5 -46.5l-224 -440h-75l-36 382l-196 -382h-76l-40 466q-2 15 -6 23t-15 9l-36 3l8 37h239l-8 -37l-39 -3q-19 -2 -24.5 -9t-4.5 -24l19 -307l198 380h72l34 -381zM269 745h131l64 -142
h-56z" />
    <glyph glyph-name="ycircumflex" unicode="&#x177;" horiz-adv-x="578" 
d="M-66 -189l15 71h79q19 0 34.5 4t30 17t30.5 36t37 62l8 13l-73 452q-3 17 -8.5 23.5t-26.5 9.5l-22 2l7 37h252l-8 -37l-47 -3q-18 -2 -24.5 -9t-3.5 -24l45 -333l176 306q16 27 20.5 41.5t-19.5 17.5l-43 4l7 37h216l-7 -37l-33 -2q-18 -2 -29 -12.5t-28 -38.5
l-272 -458q-32 -54 -57.5 -88.5t-51 -55t-56 -28t-73.5 -7.5h-75zM533 603h-60l-95 67l-133 -67h-60l171 142h69z" />
    <glyph glyph-name="ygrave" unicode="&#x1ef3;" horiz-adv-x="578" 
d="M-66 -189l15 71h79q19 0 34.5 4t30 17t30.5 36t37 62l8 13l-73 452q-3 17 -8.5 23.5t-26.5 9.5l-22 2l7 37h252l-8 -37l-47 -3q-18 -2 -24.5 -9t-3.5 -24l45 -333l176 306q16 27 20.5 41.5t-19.5 17.5l-43 4l7 37h216l-7 -37l-33 -2q-18 -2 -29 -12.5t-28 -38.5
l-272 -458q-32 -54 -57.5 -88.5t-51 -55t-56 -28t-73.5 -7.5h-75zM196 745h131l64 -142h-56z" />
    <glyph glyph-name="uni0233" unicode="&#x233;" horiz-adv-x="578" 
d="M-66 -189l15 71h79q19 0 34.5 4t30 17t30.5 36t37 62l8 13l-73 452q-3 17 -8.5 23.5t-26.5 9.5l-22 2l7 37h252l-8 -37l-47 -3q-18 -2 -24.5 -9t-3.5 -24l45 -333l176 306q16 27 20.5 41.5t-19.5 17.5l-43 4l7 37h216l-7 -37l-33 -2q-18 -2 -29 -12.5t-28 -38.5
l-272 -458q-32 -54 -57.5 -88.5t-51 -55t-56 -28t-73.5 -7.5h-75zM220 631l14 71h290l-15 -71h-289z" />
    <glyph glyph-name="zacute" unicode="&#x17a;" horiz-adv-x="559" 
d="M18 62l400 412h-285l13 64h426l-12 -60l-402 -414h318l-14 -64h-457zM372 603h-57l122 142h132z" />
    <glyph glyph-name="zcaron" unicode="&#x17e;" horiz-adv-x="559" 
d="M18 62l400 412h-285l13 64h426l-12 -60l-402 -414h318l-14 -64h-457zM214 745h60l95 -68l133 68h60l-170 -142h-69z" />
    <glyph glyph-name="zdotaccent" unicode="&#x17c;" horiz-adv-x="559" 
d="M18 62l400 412h-285l13 64h426l-12 -60l-402 -414h318l-14 -64h-457zM344 745h117l-29 -135h-117z" />
    <glyph glyph-name="uni0259" unicode="&#x259;" horiz-adv-x="602" 
d="M328 547q58 0 102 -18t74 -49.5t45.5 -74t15.5 -91.5q0 -67 -21.5 -126t-61 -103.5t-95 -70.5t-124.5 -26q-52 0 -97.5 16t-77 50.5t-45.5 88.5t-2 130h396q6 39 6 72q0 30 -6.5 56t-20 45.5t-36 30.5t-53.5 11q-58 0 -97 -33t-52 -90h-112q31 93 101 137.5t161 44.5z
M266 45q34 0 61.5 13t47 35.5t32.5 53.5t19 66h-269q-7 -45 -1 -77t21.5 -52.5t38.5 -29.5t50 -9z" />
    <glyph glyph-name="ellipsis" unicode="&#x2026;" horiz-adv-x="771" 
d="M45 145h145l-31 -145h-145zM300 145h145l-31 -145h-145zM554 145h145l-31 -145h-145z" />
    <glyph glyph-name="endash" unicode="&#x2013;" horiz-adv-x="497" 
d="M30 239l16 77h428l-16 -77h-428z" />
    <glyph glyph-name="emdash" unicode="&#x2014;" horiz-adv-x="723" 
d="M30 239l16 77h654l-16 -77h-654z" />
    <glyph glyph-name="guilsinglleft" unicode="&#x2039;" horiz-adv-x="307" 
d="M4 273l258 234h67l-194 -234l91 -235h-59z" />
    <glyph glyph-name="guilsinglright" unicode="&#x203a;" horiz-adv-x="302" 
d="M303 272l-257 -234h-68l194 234l-90 235h59z" />
    <glyph glyph-name="quoteleft" unicode="&#x2018;" horiz-adv-x="295" 
d="M254 437h-132l28 132l107 156h47l-77 -156h56z" />
    <glyph glyph-name="quoteright" unicode="&#x2019;" horiz-adv-x="302" 
d="M186 725h132l-28 -132l-107 -156h-47l78 156h-56z" />
    <glyph glyph-name="quotedblleft" unicode="&#x201c;" horiz-adv-x="484" 
d="M441 437h-132l28 132l107 156h47l-77 -156h55zM254 437h-132l28 132l107 156h47l-77 -156h55z" />
    <glyph glyph-name="quotedblright" unicode="&#x201d;" horiz-adv-x="489" 
d="M186 725h132l-28 -132l-107 -156h-47l78 156h-56zM373 725h132l-28 -132l-107 -156h-47l77 156h-55z" />
    <glyph glyph-name="quotesinglbase" unicode="&#x201a;" horiz-adv-x="266" 
d="M49 145h145l-33 -155l-122 -175h-54l94 185h-61z" />
    <glyph glyph-name="quotedblbase" unicode="&#x201e;" horiz-adv-x="478" 
d="M49 145h145l-33 -155l-122 -175h-54l94 185h-61zM261 145h145l-33 -155l-123 -175h-53l94 185h-61z" />
    <glyph glyph-name="bullet" unicode="&#x2022;" horiz-adv-x="462" 
d="M49 283q0 37 14 70t38.5 57.5t57 38.5t69.5 14q40 0 74 -14t59 -38.5t39.5 -57.5t14.5 -70q0 -39 -14.5 -73t-39.5 -59t-59 -39.5t-74 -14.5q-37 0 -69.5 14.5t-57 39.5t-38.5 59t-14 73z" />
    <glyph glyph-name="dagger" unicode="&#x2020;" horiz-adv-x="530" 
d="M170 0l89 421h-207l17 77h207l48 227h80l-48 -227h207l-17 -77h-207l-89 -421h-80z" />
    <glyph glyph-name="daggerdbl" unicode="&#x2021;" horiz-adv-x="522" 
d="M507 276l-16 -76h-207l-43 -200h-80l43 200h-206l16 76h206l35 164h-207l16 76h207l44 209h80l-44 -209h207l-16 -76h-207l-35 -164h207z" />
    <glyph glyph-name="perthousand" unicode="&#x2030;" horiz-adv-x="1412" 
d="M1200 370q-38 0 -63.5 -26t-40.5 -63t-21 -77t-6 -67q0 -54 19.5 -84t54.5 -30q38 0 62.5 26t39 63t20 77t5.5 67q0 54 -17.5 84t-52.5 30zM1200 406q32 0 59.5 -10.5t48 -31t32.5 -51t12 -70.5q0 -46 -14 -91.5t-40.5 -82t-65.5 -59.5t-89 -23q-33 0 -61.5 10.5
t-49.5 31.5t-33 51.5t-12 70.5q0 46 13.5 91.5t40.5 82t67 59t92 22.5zM203 0l508 725h88l-508 -725h-88zM293 742q32 0 59.5 -10.5t48 -31t32.5 -51t12 -70.5q0 -46 -14 -91.5t-40.5 -82t-65.5 -59.5t-89 -23q-33 0 -61.5 10.5t-49.5 31.5t-33 51.5t-12 70.5
q0 46 13.5 91.5t40.5 82t67 59t92 22.5zM293 706q-38 0 -63.5 -26t-40.5 -63t-21 -77t-6 -67q0 -54 19.5 -84t54.5 -30q38 0 62.5 26t39 63t20 77t5.5 67q0 54 -17.5 84t-52.5 30zM770 406q32 0 59.5 -10.5t48 -31t32.5 -51t12 -70.5q0 -46 -14 -91.5t-40.5 -82t-65.5 -59.5
t-89 -23q-33 0 -61.5 10.5t-49.5 31.5t-33 51.5t-12 70.5q0 46 13.5 91.5t40.5 82t67 59t92 22.5zM770 370q-38 0 -63.5 -26t-40.5 -63t-21 -77t-6 -67q0 -54 19.5 -84t54.5 -30q38 0 62.5 26t39 63t20 77t5.5 67q0 54 -17.5 84t-52.5 30z" />
    <glyph glyph-name="uni2117" unicode="&#x2117;" horiz-adv-x="846" 
d="M49 361q0 83 29.5 152.5t80.5 119t119.5 77t146.5 27.5q77 0 145 -27.5t119 -77t80.5 -119t29.5 -152.5t-29.5 -152t-80.5 -118.5t-119 -76.5t-145 -27q-78 0 -146.5 27t-119.5 76.5t-80.5 118.5t-29.5 152zM118 361q0 -70 23.5 -127.5t65 -99t97.5 -64t121 -22.5
t121 22.5t97 64t64 99t23 127.5t-23 128t-64 99.5t-97 64t-121 22.5t-121 -22.5t-97.5 -64t-65 -99.5t-23.5 -128zM363 329v-153h-73v397h122q44 0 78.5 -4.5t58.5 -18t36.5 -37t12.5 -62.5q0 -25 -9.5 -47t-29.5 -38.5t-50.5 -26.5t-73.5 -10h-72zM525 450q0 37 -27 49
t-69 12h-66v-122h71q48 0 69.5 15t21.5 46z" />
    <glyph glyph-name="trademark" unicode="&#x2122;" horiz-adv-x="864" 
d="M143 662h-129v63h331v-63h-130v-342h-72v342zM570 320l-115 321v-321h-72v405h118l110 -317l106 317h117v-405h-72v321l-115 -321h-77z" />
    <glyph glyph-name="lozenge" unicode="&#x25ca;" horiz-adv-x="509" 
d="M96 348l161 -277l160 277l-160 278zM257 772l246 -424l-246 -424l-249 424z" />
    <glyph glyph-name="afii61289" unicode="&#x2113;" horiz-adv-x="411" 
d="M98 219l-93 -62l-23 48l132 88l55 262q10 46 21.5 81.5t29 58.5t42.5 35t61 12q51 0 81 -31t30 -82q0 -63 -21 -113.5t-55.5 -92.5t-79 -77.5t-92.5 -67.5l-15 -10l-26 -126q-6 -30 -6 -49q0 -26 12 -38t40 -12q35 0 58.5 13t41.5 29l24 -44q-31 -24 -61.5 -39t-73.5 -15
q-56 0 -80.5 23t-24.5 71q0 29 7 61zM187 342l23 16q75 51 117.5 117.5t42.5 150.5q0 36 -15 48t-34 12q-35 0 -55 -29.5t-35 -102.5z" />
    <glyph glyph-name="afii61352" unicode="&#x2116;" horiz-adv-x="1149" 
d="M655 0h-67l-311 585l-108 -509q-3 -15 0.5 -23t22.5 -10l48 -5l-8 -38h-231l8 38l49 5q20 2 27.5 10t10.5 23l121 573q4 15 0.5 24t-23.5 11l-48 4l8 37h183l286 -530l96 454q4 15 0.5 23t-22.5 10l-49 5l8 38h233l-8 -38l-50 -5q-20 -2 -27.5 -10t-10.5 -23zM861 326
l12 61h298l-12 -61h-298zM1038 475q25 0 42.5 18t28.5 44t15.5 55t4.5 51q0 12 -2.5 24t-8.5 21.5t-17 15.5t-28 6q-25 0 -42.5 -18t-29 -44.5t-16.5 -55.5t-5 -50q0 -25 13 -46t45 -21zM1071 746q34 0 60 -10.5t43 -27.5t25.5 -40.5t8.5 -48.5q0 -39 -12.5 -72t-35 -57.5
t-53.5 -38t-69 -13.5q-34 0 -59.5 10.5t-42.5 28t-25.5 41t-8.5 49.5q0 39 12.5 71.5t35 56.5t53.5 37.5t68 13.5z" />
    <glyph glyph-name="apple" horiz-adv-x="462" 
d="M49 283q0 37 14 70t38.5 57.5t57 38.5t69.5 14q40 0 74 -14t59 -38.5t39.5 -57.5t14.5 -70q0 -39 -14.5 -73t-39.5 -59t-59 -39.5t-74 -14.5q-37 0 -69.5 14.5t-57 39.5t-38.5 59t-14 73z" />
    <glyph glyph-name="estimated" unicode="&#x212e;" horiz-adv-x="594" 
d="M550 150q-12 -34 -33.5 -64t-51.5 -52t-70 -34.5t-90 -12.5q-68 0 -119 22t-85.5 60t-52 89t-17.5 110q0 61 19 112.5t54.5 88.5t85 57.5t110.5 20.5q64 0 113 -22.5t82 -60.5t50.5 -88.5t18.5 -106.5h-416v-193q23 -24 68.5 -39.5t96.5 -15.5q72 0 121.5 34.5t74.5 94.5
h41zM148 301h298v159q-23 22 -60.5 37.5t-86.5 15.5q-48 0 -87 -13t-64 -39v-160z" />
    <glyph glyph-name="minus" unicode="&#x2212;" 
d="M620 312v-76h-534v76h534z" />
    <glyph glyph-name="lessequal" unicode="&#x2264;" 
d="M620 199v-84l-535 182v70l535 184v-84l-428 -135zM83 75h540v-75h-540v75z" />
    <glyph glyph-name="greaterequal" unicode="&#x2265;" 
d="M86 467v84l535 -184v-70l-535 -182v84l428 133zM83 0v75h540v-75h-540z" />
    <glyph glyph-name="notequal" unicode="&#x2260;" 
d="M106 419h285l83 144l65 -33l-64 -111h125v-75h-167l-75 -131h242v-75h-285l-94 -165l-65 36l74 129h-124v75h167l75 131h-242v75z" />
    <glyph glyph-name="approxequal" unicode="&#x2248;" 
d="M468 378q28 0 47.5 18t22.5 53h76q-4 -67 -43.5 -104.5t-102.5 -37.5q-31 0 -61 11t-59 24.5t-56.5 24.5t-53.5 11q-28 0 -47.5 -18t-21.5 -53h-78q4 66 43.5 104t103.5 38q36 0 68 -11t60.5 -24.5t53.5 -24.5t48 -11zM468 191q28 0 47.5 18t22.5 53h76
q-4 -66 -43.5 -104t-102.5 -38q-31 0 -61 11t-59 24.5t-56.5 24.5t-53.5 11q-28 0 -47.5 -18t-21.5 -53h-78q4 67 43.5 104.5t103.5 37.5q36 0 68 -11t60.5 -24.5t53.5 -24.5t48 -11z" />
    <glyph glyph-name="partialdiff" unicode="&#x2202;" horiz-adv-x="574" 
d="M446 266q0 55 -13.5 94t-36 64.5t-52 37.5t-62.5 12q-74 0 -115.5 -55t-41.5 -153q0 -99 41 -154t116 -55q33 0 62.5 12.5t52 38t36 65t13.5 93.5zM281 -13q-55 0 -99 19t-75.5 55t-48.5 88t-17 117t17.5 116.5t48.5 87.5t73.5 55t93.5 19t91.5 -21t65.5 -56l1 1
q-15 42 -42 78t-63.5 62.5t-79.5 42t-89 17.5v74q84 -5 153 -39t118 -90.5t76 -133.5t27 -168q0 -83 -18.5 -144t-52 -101t-79.5 -59.5t-101 -19.5z" />
    <glyph glyph-name="product" unicode="&#x220f;" horiz-adv-x="688" 
d="M83 -189v914h525v-914h-81v839h-363v-839h-81z" />
    <glyph glyph-name="radical" unicode="&#x221a;" horiz-adv-x="513" 
d="M143 292l158 -371l135 804h78l-158 -914h-87l-166 374l-68 -30l-34 72z" />
    <glyph glyph-name="summation" unicode="&#x2211;" horiz-adv-x="593" 
d="M314 268l-282 388v69h531v-75h-436l281 -382l-281 -382h436v-75h-531v69z" />
    <glyph glyph-name="integral" unicode="&#x222b;" horiz-adv-x="305" 
d="M115 483q0 72 10 120.5t28.5 78t45 42t58.5 12.5q33 0 57 -15.5t24 -45.5q0 -22 -12.5 -35.5t-33.5 -13.5q-20 0 -32 12t-12 29q0 8 1.5 16t6.5 13q-21 0 -33.5 -10t-19 -28t-9 -43t-2.5 -54q0 -35 1.5 -75.5t1.5 -91.5v-346q0 -69 -9.5 -116t-28 -75.5t-45 -41
t-59.5 -12.5q-34 0 -57.5 15t-23.5 47q0 20 13 34t33 14t32 -12.5t12 -29.5q0 -8 -2.5 -15.5t-5.5 -12.5q21 0 33 10t19 28t9 42.5t2 53.5q0 35 -1 75.5t-1 91.5v339z" />
    <glyph glyph-name="infinity" unicode="&#x221e;" horiz-adv-x="799" 
d="M592 418q39 0 71.5 -12t56 -33.5t36.5 -51.5t13 -67t-12.5 -67t-35.5 -51.5t-54.5 -33.5t-70.5 -12q-60 0 -107 29.5t-89 77.5q-39 -44 -86.5 -75.5t-106.5 -31.5q-39 0 -71.5 12t-55.5 33.5t-35.5 52t-12.5 66.5q0 37 13 67t36.5 51.5t56 33.5t72.5 12q57 0 103 -28
t88 -76q47 54 90.5 79t100.5 25zM209 162q42 0 74.5 23.5t70.5 69.5q-35 42 -68 67t-77 25q-42 0 -69.5 -25t-27.5 -68q0 -39 27 -65.5t70 -26.5zM593 162q42 0 69 25.5t27 66.5q0 39 -27 66t-74 27q-42 0 -74.5 -25.5t-65.5 -65.5q36 -44 70 -69t75 -25z" />
    <glyph glyph-name="Delta" unicode="&#x394;" horiz-adv-x="706" 
d="M354 729l355 -729h-711zM354 557l-232 -482h462z" />
    <glyph glyph-name="Delta" unicode="&#x2206;" horiz-adv-x="706" 
d="M354 729l355 -729h-711zM354 557l-232 -482h462z" />
    <glyph glyph-name="Omega" unicode="&#x3a9;" horiz-adv-x="796" 
d="M227 136q-31 13 -61 36t-54 56.5t-38.5 77.5t-14.5 100q0 78 29.5 140t80 104.5t117 65t140.5 22.5q73 0 137 -21.5t111 -60.5t74 -95t27 -125q0 -60 -19.5 -112t-53.5 -92.5t-78.5 -68.5t-95.5 -40l-11 -47h196l-16 -76h-279l38 180q54 6 97.5 27.5t73.5 55.5t46.5 78
t16.5 94q0 58 -22 101.5t-59 72.5t-85 43.5t-99 14.5q-65 0 -116.5 -19.5t-88 -54t-56 -81.5t-19.5 -103q0 -41 11 -77.5t33.5 -66t55 -50.5t76.5 -30l-39 -185h-277l15 76h195z" />
    <glyph glyph-name="Omega" unicode="&#x2126;" horiz-adv-x="796" 
d="M227 136q-31 13 -61 36t-54 56.5t-38.5 77.5t-14.5 100q0 78 29.5 140t80 104.5t117 65t140.5 22.5q73 0 137 -21.5t111 -60.5t74 -95t27 -125q0 -60 -19.5 -112t-53.5 -92.5t-78.5 -68.5t-95.5 -40l-11 -47h196l-16 -76h-279l38 180q54 6 97.5 27.5t73.5 55.5t46.5 78
t16.5 94q0 58 -22 101.5t-59 72.5t-85 43.5t-99 14.5q-65 0 -116.5 -19.5t-88 -54t-56 -81.5t-19.5 -103q0 -41 11 -77.5t33.5 -66t55 -50.5t76.5 -30l-39 -185h-277l15 76h195z" />
    <glyph glyph-name="pi" unicode="&#x3c0;" horiz-adv-x="648" 
d="M44 0l98 459h-75l16 76h580l-16 -76h-77l-67 -313q-5 -24 -6.5 -39t3 -23.5t16.5 -11t34 -2.5h17l-15 -70h-38q-38 0 -60 5.5t-32.5 20.5t-10 41t9.5 67l68 325h-266l-98 -459h-81z" />
    <glyph glyph-name="Euro" unicode="&#x20ac;" horiz-adv-x="839" 
d="M246 266q1 -48 10.5 -88t30.5 -69.5t54.5 -46t82.5 -16.5q39 0 74 11.5t63.5 34.5t48.5 58t29 83h115q-20 -67 -57 -113.5t-83 -76t-97 -43t-97 -13.5q-71 0 -125 20t-91 56.5t-57 88t-21 114.5h-141l54 64h89q2 23 5.5 44.5t8.5 42.5h-125l53 63h91q24 63 61.5 111.5
t84.5 82t100.5 51t109.5 17.5q67 0 119 -17.5t87.5 -50t54.5 -77.5t19 -100h-114q0 33 -6 66.5t-24 60t-50.5 43.5t-85.5 17q-43 0 -79.5 -15.5t-66.5 -42.5t-53 -64.5t-39 -81.5h277l-53 -63h-242q-5 -21 -8 -43t-5 -44h194l-54 -64h-142z" />
    <glyph glyph-name="fi" unicode="&#xfb01;" horiz-adv-x="776" 
d="M707 405l-70 -330q-4 -20 0.5 -26t23.5 -8l42 -4l-8 -37h-264l8 37l42 4q10 1 17 3t11.5 5.5t7 9.5t4.5 16l83 389q5 19 0 24.5t-25 8.5l-41 4l8 37h192zM281 0h-298l8 37l42 4q10 1 17 3t11.5 5.5t7 9.5t4.5 16l85 399h-75l13 64h75l5 26q12 53 26.5 88t40.5 55.5t67 29
t106 8.5h93l-15 -70h-106q-22 0 -36 -4t-23.5 -12t-14.5 -20t-9 -29l-16 -72h176l-13 -64h-177l-85 -398q-4 -20 0.5 -26t23.5 -7l75 -5zM662 745h117l-28 -135h-117z" />
    <glyph glyph-name="fl" unicode="&#xfb02;" horiz-adv-x="778" 
d="M281 0h-298l8 37l42 4q10 1 17 3t11.5 5.5t7 9.5t4.5 16l85 399h-75l13 64h75l5 26q12 53 26.5 88t40.5 55.5t67 29t106 8.5h93l-15 -70h-106q-22 0 -36 -4t-23.5 -12t-14.5 -20t-9 -29l-16 -72h176l-13 -64h-177l-85 -398q-4 -20 0.5 -26t23.5 -7l75 -5zM781 745
l-30 -137l-113 -533q-4 -20 0.5 -26t23.5 -8l42 -4l-8 -37h-265l8 37l42 4q10 1 17 3t11.5 5.5t7 9.5t4.5 16l126 595q4 20 -0.5 25.5t-24.5 7.5l-41 5l7 37h193z" />
    <glyph glyph-name="breve" unicode="&#x2d8;" horiz-adv-x="394" 
d="M217 739q-2 -47 17.5 -67t54.5 -20q36 0 65.5 20t37.5 67h68q-14 -65 -57.5 -104.5t-119.5 -39.5q-72 0 -105.5 40t-29.5 104h69v0z" />
    <glyph glyph-name="caron" unicode="&#x2c7;" horiz-adv-x="431" 
d="M149 745h60l95 -68l133 68h60l-170 -142h-69z" />
    <glyph glyph-name="circumflex" unicode="&#x2c6;" horiz-adv-x="420" 
d="M461 603h-60l-95 67l-133 -67h-60l171 142h69z" />
    <glyph glyph-name="dotaccent" unicode="&#x2d9;" horiz-adv-x="195" 
d="M144 745h117l-29 -135h-117z" />
    <glyph glyph-name="dot" horiz-adv-x="331" 
d="M217 745h117l-28 -135h-117z" />
    <glyph glyph-name="dotaccent.low" horiz-adv-x="191" 
d="M-33 -54h117l-29 -135h-117z" />
    <glyph glyph-name="hungarumlaut" unicode="&#x2dd;" horiz-adv-x="468" 
d="M170 603h-57l123 142h131zM337 603h-57l123 142h131z" />
    <glyph glyph-name="commaaccent" horiz-adv-x="187" 
d="M-24 -37h109l-21 -98l-65 -93h-67l61 99h-37z" />
    <glyph glyph-name="ogonek" unicode="&#x2db;" horiz-adv-x="300" 
d="M133 0q-39 -19 -67 -42.5t-28 -49.5q0 -29 22.5 -40.5t48.5 -11.5q31 0 51 9v-44q-13 -6 -33 -9t-43 -3q-21 0 -44 4.5t-41.5 14.5t-31 27t-12.5 43q0 32 20.5 56.5t62.5 45.5h95z" />
    <glyph glyph-name="ring" unicode="&#x2da;" horiz-adv-x="269" 
d="M228 764q19 0 36 -6.5t30 -18.5t20.5 -28t7.5 -35q0 -38 -27.5 -63.5t-66.5 -25.5q-40 0 -67 25.5t-27 63.5q0 19 7.5 35t20.5 28t30 18.5t36 6.5zM228 721q-17 0 -31 -13t-14 -32q0 -20 14 -32t31 -12t31 12t14 32q0 19 -14 32t-31 13z" />
    <glyph glyph-name="tilde" unicode="&#x2dc;" horiz-adv-x="397" 
d="M351 679q22 0 32.5 12.5t13.5 34.5h62q-10 -64 -36.5 -91.5t-67.5 -27.5q-22 0 -40.5 7.5t-35 16.5t-31 16.5t-27.5 7.5q-21 0 -31 -12.5t-15 -35.5h-60q4 34 13.5 57t24 36.5t31.5 19.5t36 6q21 0 39 -7.5t34 -16t30 -16t28 -7.5z" />
    <glyph glyph-name="caron.slovak" horiz-adv-x="158" 
d="M47 745h118l-25 -118l-94 -140h-42l68 140h-50z" />
    <glyph glyph-name="uni032C" unicode="&#x32c;" horiz-adv-x="413" 
d="M-28 0h60l95 -68l133 68h60l-170 -142h-69z" />
    <glyph glyph-name="zero.slashed" horiz-adv-x="727" 
d="M339 -13q-61 0 -110.5 19t-84.5 55.5t-54 89t-19 119.5q0 81 23.5 165t70 152t117 111.5t165.5 43.5q59 0 107.5 -19t83 -55t53.5 -88.5t19 -119.5q0 -54 -10.5 -110.5t-31 -109t-51.5 -98.5t-72.5 -80.5t-93 -54.5t-112.5 -20zM446 684q-46 0 -83 -21t-64.5 -56t-47 -80
t-32 -92.5t-18.5 -94.5t-6 -86l387 275q-8 73 -41 114t-95 41zM340 46q44 0 79.5 19.5t62 52t45.5 74.5t31 87.5t18.5 91.5t7.5 85l-384 -273q11 -66 46.5 -101.5t93.5 -35.5z" />
    <glyph glyph-name="one.pof" horiz-adv-x="373" 
d="M250 71q-3 -14 0 -23.5t23 -11.5l32 -4l-6 -32h-274l6 32l67 6q20 1 26.5 9.5t8.5 23.5l97 454h-147l9 46q42 1 74.5 5t59.5 13t50 23t47 35h52l-38 -168z" />
    <glyph glyph-name="two.pof" horiz-adv-x="581" 
d="M493 98l-21 -98h-510l23 103q103 53 190.5 101.5t151.5 96t99.5 96.5t35.5 105q0 52 -31 80.5t-96 28.5q-34 0 -61 -14t-45.5 -39t-28.5 -59.5t-10 -75.5h-114q3 60 25 105.5t58.5 76.5t85.5 47t105 16q44 0 86 -9.5t75 -29t53 -50.5t20 -73q0 -39 -23 -79t-62 -78.5
t-89 -74.5t-104.5 -68t-108.5 -59.5t-100 -48.5h396z" />
    <glyph glyph-name="three.pof" horiz-adv-x="575" 
d="M254 -12q-53 0 -98 12t-77.5 37.5t-50.5 65t-18 94.5h108q0 -72 41 -111.5t102 -39.5q74 0 108.5 38.5t34.5 98.5q0 27 -12 49.5t-33.5 39t-50.5 25.5t-63 9h-35l15 69h23q46 0 84.5 7.5t66 23t42.5 38.5t15 55q0 30 -12.5 51t-32.5 34.5t-44.5 20t-48.5 6.5
q-36 0 -61.5 -11t-43 -30t-27.5 -45t-15 -56h-108q3 38 23.5 74t54.5 63.5t79.5 44.5t98.5 17t99.5 -11.5t81 -32.5t54.5 -50.5t20 -66.5q0 -31 -13 -57t-35 -47t-49.5 -36t-57.5 -24v-1q109 -47 109 -144q0 -51 -20.5 -90t-57 -65.5t-87 -40.5t-109.5 -14z" />
    <glyph glyph-name="four.pof" horiz-adv-x="632" 
d="M251 0l9 35l33 3q19 2 26.5 9t10.5 27l21 99h-340l13 66l444 414h108l-38 -170l-47 -221h119l-20 -89h-118l-21 -99q-5 -20 -2 -26.5t23 -9.5l34 -3l-8 -35h-247zM425 523l-282 -261h227z" />
    <glyph glyph-name="five.pof" horiz-adv-x="588" 
d="M558 260q0 -59 -21.5 -109t-59.5 -86t-89.5 -56.5t-111.5 -20.5q-56 0 -99 15t-72.5 43t-44.5 66t-14 85h109q5 -72 35.5 -111t85.5 -39q41 0 71 18.5t49 48t28 66.5t9 74q0 27 -9 50t-25.5 40t-40 27t-52.5 10q-18 0 -40.5 -5.5t-44 -18.5t-41.5 -35.5t-34 -56.5l-64 14
l120 374h420l-21 -97h-356l-52 -158q32 28 67 42t87 14q37 0 75 -13.5t68 -38.5t49 -61t19 -81z" />
    <glyph glyph-name="six.pof" horiz-adv-x="618" 
d="M331 382q-33 0 -62.5 -16t-51 -43t-34.5 -61.5t-13 -70.5q0 -70 33.5 -107t90.5 -37q34 0 63.5 14.5t51.5 41.5t34 65t12 85q0 61 -26.5 95t-97.5 34zM382 443q32 0 67 -9.5t64.5 -31t49 -57.5t19.5 -90q0 -60 -21 -109.5t-59.5 -84.5t-91.5 -54t-117 -19
q-50 0 -93.5 16.5t-75.5 47t-50 73.5t-18 97q0 44 12 94t34.5 99.5t55 95t73.5 80.5t89.5 56t103.5 21q36 0 71.5 -10.5t64 -31.5t46 -53t15.5 -76h-110q-1 51 -22 82.5t-66 31.5q-38 0 -71 -19t-60.5 -51.5t-48.5 -75t-34 -89.5q38 30 78 48.5t95 18.5z" />
    <glyph glyph-name="seven.pof" horiz-adv-x="485" 
d="M88 653h483l-18 -89q-61 -38 -125 -81t-119 -106t-95 -153.5t-54 -223.5h-134q7 102 46.5 188t99.5 155.5t135.5 122.5t154.5 90h-395z" />
    <glyph glyph-name="eight.pof" horiz-adv-x="638" 
d="M268 -12q-48 0 -93 12t-79.5 34.5t-55 54.5t-20.5 71q0 70 56.5 110t157.5 65q-26 14 -46 32.5t-33 38t-19.5 39t-6.5 37.5q0 36 17.5 70t52.5 59.5t87 41t122 15.5q47 0 87 -10.5t69.5 -28.5t46 -42t16.5 -50q0 -38 -20 -66.5t-49.5 -49.5t-64.5 -36t-65 -24l19 -8
q60 -28 97 -65.5t37 -94.5q0 -59 -32 -98.5t-79.5 -63t-102 -33.5t-99.5 -10zM139 156q0 -57 37.5 -83t97.5 -26q32 0 63.5 5t57 18t41.5 34.5t16 53.5q0 22 -6.5 40t-20.5 33.5t-37.5 30t-56.5 30.5l-57 24q-31 -11 -56 -28.5t-42.5 -38.5t-27 -45t-9.5 -48zM513 522
q0 25 -9.5 42t-25.5 27.5t-35.5 15t-40.5 4.5q-68 0 -108 -28t-40 -71q0 -29 24.5 -60t78.5 -57l35 -17q27 13 49 29.5t38 35.5t25 39t9 40z" />
    <glyph glyph-name="nine.pof" horiz-adv-x="617" 
d="M299 275q43 0 78 16.5t60 45t38.5 67t13.5 82.5q0 56 -34.5 90.5t-91.5 34.5q-35 0 -64.5 -15t-50.5 -42.5t-33 -66t-12 -85.5q0 -27 5 -50.5t16.5 -40.5t30 -26.5t44.5 -9.5zM235 47q37 0 70 19t60.5 51.5t48 74.5t33.5 89q-36 -30 -76.5 -49.5t-95.5 -19.5
q-37 0 -72.5 11t-64 33.5t-46 57.5t-17.5 83q0 60 21.5 109.5t60.5 85.5t93 56t118 20q55 0 98.5 -15.5t73.5 -44t45.5 -68t15.5 -87.5q0 -47 -12.5 -100t-35.5 -105t-55.5 -99t-74 -83t-90.5 -57t-104 -21q-35 0 -70 9.5t-63 30.5t-44.5 53.5t-15.5 78.5h110
q1 -52 20 -82.5t69 -30.5z" />
    <glyph glyph-name="zero.pof" horiz-adv-x="686" 
d="M323 -12q-55 0 -101.5 17t-80 50.5t-52.5 82.5t-19 113q0 74 22 148.5t65.5 134t108 97t149.5 37.5q52 0 97 -17t78 -50t52 -82t19 -113q0 -75 -22.5 -149.5t-65.5 -134.5t-106 -97t-144 -37zM321 46q41 0 73 19.5t55.5 51.5t39 72.5t25 83t13.5 82.5t4 71q0 88 -29 137
t-87 49q-42 0 -74 -19.5t-56.5 -52t-41 -73t-26.5 -83t-14.5 -83t-4.5 -71.5q0 -88 33 -136t90 -48z" />
    <glyph glyph-name="zero.slashed.pof" horiz-adv-x="686" 
d="M323 -12q-55 0 -101.5 17t-80 50.5t-52.5 82.5t-19 113q0 74 22 148.5t65.5 134t108 97t149.5 37.5q52 0 97 -17t78 -50t52 -82t19 -113q0 -75 -22.5 -149.5t-65.5 -134.5t-106 -97t-144 -37zM415 612q-41 0 -72.5 -19t-55.5 -49.5t-41 -70t-27.5 -81t-15.5 -81.5t-5 -72
l330 237q-8 65 -36 100.5t-77 35.5zM321 46q39 0 69.5 17.5t53.5 47t39 67t26 77t15 79t6 71.5l-327 -236q11 -60 41 -91.5t77 -31.5z" />
    <glyph glyph-name="one.tlf" 
d="M381 73q-3 -16 1 -23.5t24 -10.5l42 -4l-8 -35h-296l8 35l77 5q20 2 27 9.5t10 23.5l112 521h-164l9 44q49 2 85.5 7.5t65 16t52 26t46.5 37.5h49l-41 -186z" />
    <glyph glyph-name="two.tlf" 
d="M582 98l-21 -98h-556l21 97q118 65 216 122.5t168.5 113t109.5 111.5t39 119q0 57 -35 89t-104 32q-81 0 -125.5 -55.5t-48.5 -152.5h-113q4 66 28.5 116t65 83.5t93 50t111.5 16.5q48 0 93 -10.5t79.5 -32t55.5 -55t21 -78.5q0 -46 -25 -90.5t-67 -87.5t-97 -83
t-114.5 -77t-120 -69.5t-113.5 -60.5h439z" />
    <glyph glyph-name="three.tlf" 
d="M321 -13q-59 0 -108.5 14.5t-85 42.5t-55 69.5t-19.5 95.5h110q0 -75 44 -119t119 -44q77 0 122.5 40.5t45.5 115.5q0 35 -13.5 62t-38 45t-58.5 27.5t-74 9.5h-33l14 66h25q47 0 89.5 9.5t75 28.5t51.5 48t19 68q0 30 -12.5 52.5t-33.5 37t-48 21.5t-55 7
q-80 0 -120 -44t-51 -113h-110q5 44 28 83t60.5 68.5t87.5 46.5t109 17q54 0 101.5 -11.5t83.5 -33.5t57 -53.5t21 -71.5q0 -38 -16.5 -68.5t-43.5 -54.5t-61 -40.5t-70 -25.5v-1q66 -21 102.5 -62.5t36.5 -101.5q0 -57 -23.5 -100t-64 -72t-94.5 -44t-114 -15z" />
    <glyph glyph-name="four.tlf" 
d="M260 0l7 37l55 4q20 2 27.5 8t11.5 26l26 122h-375l14 68l490 460h101l-41 -186l-54 -254h137l-18 -88h-137l-26 -122q-5 -20 -0.5 -26t24.5 -8l42 -4l-8 -37h-276zM472 595l-331 -310h265z" />
    <glyph glyph-name="five.tlf" 
d="M623 282q0 -64 -23.5 -118t-64.5 -93.5t-98.5 -61.5t-124.5 -22q-60 0 -107 17t-79.5 47t-49 70.5t-16.5 87.5h110q4 -75 38.5 -119t103.5 -44q48 0 83 19.5t58.5 51t35 72.5t11.5 83q0 69 -40 111.5t-108 42.5q-23 0 -49 -6t-50.5 -21t-46.5 -39t-38 -60l-64 14l133 411
h448l-21 -97h-387l-67 -204q36 38 79.5 56t100.5 18q45 0 87 -14.5t74.5 -42t52 -67.5t19.5 -92z" />
    <glyph glyph-name="six.tlf" 
d="M374 425q-40 0 -75 -18.5t-61.5 -49t-41.5 -70t-15 -82.5q0 -76 39 -117.5t105 -41.5q40 0 75 17t60 48t39.5 73t14.5 92q0 33 -7.5 60t-24 47t-43 31t-65.5 11zM419 489q40 0 79.5 -12t70.5 -37.5t50.5 -64.5t19.5 -93q0 -65 -24 -119t-66.5 -93t-100 -61t-124.5 -22
q-57 0 -103.5 18t-79.5 51.5t-51 81t-18 105.5q0 50 12.5 107t37 112.5t59 106t79 89t97.5 61.5t114 23q42 0 81 -11.5t69 -35t48.5 -58.5t18.5 -83h-112q-1 61 -27.5 95.5t-82.5 34.5q-44 0 -82.5 -23t-70.5 -62t-56 -91t-38 -109q43 47 93 68.5t107 21.5z" />
    <glyph glyph-name="seven.tlf" 
d="M212 725h533l-19 -92q-67 -42 -139 -94.5t-135 -126t-109 -174t-60 -238.5h-134q13 115 59 210.5t113.5 173t150 138t167.5 105.5h-447z" />
    <glyph glyph-name="eight.tlf" 
d="M305 -13q-57 0 -107 14t-88 39t-60 60.5t-22 79.5q0 40 17.5 71.5t48.5 55.5t74.5 41t96.5 29q-57 31 -88.5 76.5t-31.5 91.5q0 42 20 78.5t57 62.5t90 41t120 15q52 0 96.5 -11.5t77.5 -31.5t52 -47.5t19 -59.5q0 -41 -20.5 -72.5t-52 -55t-69 -39.5t-71.5 -26l14 -7
q32 -15 59.5 -33t48 -40.5t32 -49t11.5 -58.5q0 -59 -30 -101.5t-77 -69.5t-104.5 -40t-112.5 -13zM144 179q0 -33 12.5 -58t35 -41.5t52.5 -25t66 -8.5t71 7.5t62.5 23.5t44.5 41.5t17 61.5q0 25 -8 45t-24.5 37t-42 33t-60.5 33l-63 29q-77 -23 -120 -71t-43 -107z
M566 578q0 28 -11.5 48t-31 33t-45 19t-53.5 6q-35 0 -64 -7.5t-51 -22t-34 -35t-12 -46.5q0 -41 33 -75.5t87 -60.5l39 -19q65 25 104 67t39 93z" />
    <glyph glyph-name="nine.tlf" 
d="M353 305q47 0 86.5 18.5t67.5 50.5t43.5 74.5t15.5 90.5q0 66 -39 105.5t-105 39.5q-41 0 -75.5 -17.5t-60 -48t-39.5 -73t-14 -92.5q0 -65 29 -106.5t91 -41.5zM281 46q43 0 82 23.5t70.5 62.5t55.5 90.5t38 108.5q-42 -47 -92 -69t-107 -22q-40 0 -79.5 12t-70.5 37.5
t-50.5 65t-19.5 93.5q0 64 24.5 118t67.5 93t101 61t125 22q60 0 106.5 -17.5t78 -49.5t48 -76.5t16.5 -98.5q0 -53 -13 -112t-37.5 -116t-60 -108.5t-80 -91t-98 -62.5t-113.5 -23q-42 0 -80.5 11t-68 34t-47.5 58.5t-18 85.5h111q1 -62 26 -96t85 -34z" />
    <glyph glyph-name="zero.tlf" 
d="M425 742q59 0 107.5 -19t83 -55t53.5 -88.5t19 -119.5q0 -54 -10.5 -110.5t-31 -109t-51.5 -98.5t-72.5 -80.5t-93 -54.5t-112.5 -20t-110.5 19t-84.5 55.5t-54 89t-19 119.5q0 81 23.5 165t70 152t117 111.5t165.5 43.5zM424 684q-47 0 -84 -21.5t-65 -57t-47 -81
t-31.5 -93.5t-18 -95.5t-5.5 -85.5q0 -96 36.5 -150t108.5 -54q47 0 83 21.5t63.5 56.5t46 80.5t30.5 93.5t17 95t5 86q0 96 -33.5 150.5t-105.5 54.5z" />
    <glyph glyph-name="zero.slashed.tlf" 
d="M317 -13q-61 0 -110.5 19t-84.5 55.5t-54 89t-19 119.5q0 81 23.5 165t70 152t117 111.5t165.5 43.5q59 0 107.5 -19t83 -55t53.5 -88.5t19 -119.5q0 -54 -10.5 -110.5t-31 -109t-51.5 -98.5t-72.5 -80.5t-93 -54.5t-112.5 -20zM424 684q-46 0 -83 -21t-64.5 -56t-47 -80
t-32 -92.5t-18.5 -94.5t-6 -86l387 275q-8 73 -41 114t-95 41zM318 46q44 0 79.5 19.5t62 52t45.5 74.5t31 87.5t18.5 91.5t7.5 85l-384 -273q11 -66 46.5 -101.5t93.5 -35.5z" />
    <glyph glyph-name="one.case" horiz-adv-x="414" 
d="M278 77q-3 -17 0 -26t25 -11l38 -4l-7 -36h-302l7 36l75 5q22 2 28.5 10.5t10.5 25.5l109 510h-163l10 49q48 1 84.5 6.5t66 16.5t54.5 27.5t50 39.5h53l-41 -192z" />
    <glyph glyph-name="two.case" horiz-adv-x="633" 
d="M550 105l-23 -105h-563l24 109q116 61 213.5 115.5t168 108.5t110 109.5t39.5 117.5q0 57 -34.5 89t-106.5 32q-38 0 -68.5 -15t-51.5 -43t-32.5 -66.5t-11.5 -84.5h-123q3 66 28 116.5t65.5 84.5t94 51.5t114.5 17.5q49 0 95.5 -10.5t82.5 -32t57.5 -55.5t21.5 -80
q0 -45 -25.5 -89t-68 -87t-98.5 -83t-116 -76.5t-120 -67.5t-112 -56h440z" />
    <glyph glyph-name="three.case" horiz-adv-x="637" 
d="M289 -13q-59 0 -109 13.5t-86 42t-56 71.5t-20 102h117q0 -39 12 -70t33 -52.5t50.5 -33t64.5 -11.5q81 0 121.5 42t40.5 112q0 31 -13.5 57t-37.5 44t-57 28t-71 10h-37l16 73h26q49 0 91.5 8.5t74 26.5t49 45t17.5 64q0 32 -13.5 55t-35 38t-49 22t-54.5 7
q-40 0 -69 -12t-48.5 -33t-31 -50t-17.5 -63h-117q4 43 27 82.5t60.5 70t88 48.5t109.5 18q57 0 107.5 -12.5t88 -35t59.5 -55.5t22 -73q0 -36 -15.5 -65.5t-40.5 -52.5t-57 -39.5t-66 -26.5v-1q62 -25 94.5 -65t32.5 -97q0 -56 -23 -99.5t-63.5 -73t-95.5 -44.5t-119 -15z
" />
    <glyph glyph-name="four.case" horiz-adv-x="698" 
d="M278 0l9 38l42 4q20 2 28.5 9t11.5 29l24 114h-376l14 72l492 459h114l-41 -188l-53 -248h133l-20 -95h-134l-24 -114q-5 -22 -1 -28.5t25 -9.5l39 -4l-9 -38h-274zM477 586l-320 -297h256z" />
    <glyph glyph-name="five.case" horiz-adv-x="664" 
d="M622 287q0 -65 -23.5 -120t-65.5 -95t-99 -62.5t-124 -22.5q-62 0 -109.5 17t-80 47.5t-49 72.5t-15.5 92h117q5 -78 39 -122t98 -44q46 0 80 20t56 52.5t32.5 73.5t10.5 83q0 31 -10 57.5t-29 46t-45 30.5t-59 11q-21 0 -46 -6t-50 -21t-47 -39.5t-37 -61.5l-69 15
l133 414h461l-23 -104h-393l-61 -185q36 34 76.5 50t97.5 16q43 0 85 -15t75 -42.5t53.5 -67.5t20.5 -90z" />
    <glyph glyph-name="six.case" horiz-adv-x="684" 
d="M372 424q-38 0 -71.5 -18t-58 -48t-39 -68.5t-14.5 -79.5q0 -78 38 -119t102 -41q39 0 72.5 16.5t57.5 46.5t38 72.5t14 93.5q0 33 -7 60t-23 46t-43 29t-66 10zM425 491q37 0 76.5 -11t71.5 -35.5t53 -64t21 -97.5q0 -66 -23.5 -120.5t-66 -93.5t-101 -60.5
t-128.5 -21.5q-57 0 -104.5 18t-82 52t-54 81.5t-19.5 106.5q0 49 13 105t38 111.5t60.5 106t80.5 89.5t99 62t115 23q40 0 79.5 -11.5t70.5 -34.5t50 -59t18 -84h-119q-1 58 -25.5 93t-76.5 35q-42 0 -80 -22t-69 -59t-54.5 -86t-37.5 -103q43 38 89 59t106 21z" />
    <glyph glyph-name="seven.case" horiz-adv-x="540" 
d="M103 725h535l-20 -97q-45 -28 -92 -58.5t-92.5 -68t-87 -84.5t-75 -107.5t-57.5 -137t-34 -172.5h-144q10 114 54.5 209.5t111.5 173t150 137t170 101.5h-442z" />
    <glyph glyph-name="eight.case" horiz-adv-x="704" 
d="M307 -13q-54 0 -104 13.5t-88.5 38.5t-61 60.5t-22.5 79.5q0 39 16.5 69.5t47.5 54t75 40.5t98 30q-57 32 -87 78.5t-30 87.5t19.5 78t57.5 64.5t94.5 44t130.5 16.5q52 0 96.5 -11.5t77.5 -32t51.5 -47t18.5 -56.5q0 -42 -21.5 -73.5t-54 -55t-71 -39.5t-71.5 -26l19 -9
q33 -15 60 -33.5t47 -40t31 -48t11 -57.5q0 -63 -33.5 -106.5t-84.5 -70t-110.5 -38t-111.5 -11.5zM158 175q0 -32 11.5 -55.5t32 -39t49 -23t62.5 -7.5q36 0 71 6.5t63 21t45.5 39t17.5 60.5q0 25 -7.5 45t-23.5 37.5t-41.5 33.5t-61.5 33l-63 27q-72 -25 -113.5 -74
t-41.5 -104zM576 580q0 27 -11 46.5t-29 31.5t-41.5 17.5t-48.5 5.5q-73 0 -118 -31t-45 -80q0 -35 29.5 -69.5t86.5 -62.5l39 -19q61 27 99.5 70.5t38.5 90.5z" />
    <glyph glyph-name="nine.case" horiz-adv-x="681" 
d="M339 306q48 0 86.5 18.5t66.5 50t43 74t15 91.5q0 63 -38 102t-103 39q-40 0 -73.5 -17t-57.5 -47.5t-37.5 -73t-13.5 -94.5q0 -31 6 -57.5t19.5 -45.5t35 -29.5t51.5 -10.5zM267 50q42 0 79.5 22t68 59t54 85.5t37.5 102.5q-41 -38 -87 -60t-106 -22q-41 0 -80.5 12
t-71 37.5t-51 64t-19.5 92.5q0 66 24.5 120.5t67.5 94.5t102 62t129 22q61 0 108.5 -17.5t80.5 -49t50 -75.5t17 -98q0 -53 -13.5 -112t-38.5 -116t-61.5 -109t-82 -91.5t-99.5 -63t-115 -23.5q-40 0 -79 10.5t-69 33.5t-48.5 59t-17.5 87h118q1 -59 23.5 -93t79.5 -34z" />
    <glyph glyph-name="zero.case" horiz-adv-x="750" 
d="M356 -13q-61 0 -112 19t-87.5 55.5t-56.5 90.5t-20 124q0 82 24 165t72 150t119 109t165 42q58 0 107.5 -19t85.5 -55.5t56.5 -90t20.5 -123.5q0 -83 -24 -166t-71.5 -150t-117.5 -109t-161 -42zM356 49q46 0 81.5 21.5t62 57t44 81t28.5 92.5t16 92.5t5 81.5
q0 97 -33 151.5t-99 54.5q-47 0 -83 -21.5t-63.5 -57t-46 -81t-30.5 -93t-17 -93t-5 -81.5q0 -97 36.5 -151t103.5 -54z" />
    <glyph glyph-name="zero.slashed.case" horiz-adv-x="750" 
d="M356 -13q-61 0 -112 19t-87.5 55.5t-56.5 90.5t-20 124q0 82 24 165t72 150t119 109t165 42q58 0 107.5 -19t85.5 -55.5t56.5 -90t20.5 -123.5q0 -83 -24 -166t-71.5 -150t-117.5 -109t-161 -42zM461 681q-46 0 -82 -21t-63 -55.5t-46 -78.5t-30.5 -90.5t-17.5 -92
t-6 -81.5l374 267q-8 72 -40 112t-89 40zM356 49q44 0 78 19.5t60 52t44 75t29.5 87t17.5 89t7 81.5l-371 -267q12 -66 46.5 -101.5t88.5 -35.5z" />
    <glyph glyph-name="uni21B2" unicode="&#x21b2;" horiz-adv-x="840" 
d="M304 582l51 -54l-220 -216h535v433h75v-509h-612l222 -219l-51 -53l-309 309z" />
    <glyph glyph-name="uni21B3" unicode="&#x21b3;" horiz-adv-x="840" 
d="M113 745h75v-433h534l-220 216l50 54l311 -309l-311 -309l-50 53l222 219h-611v509z" />
    <glyph glyph-name="uni21B0" unicode="&#x21b0;" horiz-adv-x="840" 
d="M304 582l51 -54l-220 -217h610v-499h-75v423h-537l222 -218l-51 -53l-309 309z" />
    <glyph glyph-name="uni21B1" unicode="&#x21b1;" horiz-adv-x="840" 
d="M803 273l-311 -309l-50 53l222 218h-536v-423h-75v499h609l-220 217l50 54z" />
    <glyph glyph-name="uni2190" unicode="&#x2190;" horiz-adv-x="840" 
d="M304 582l51 -54l-220 -216h640v-76h-642l222 -219l-51 -53l-309 309z" />
    <glyph glyph-name="uni2191" unicode="&#x2191;" horiz-adv-x="840" 
d="M730 436l-55 -52l-217 221v-605h-75v605l-217 -221l-55 52l309 309z" />
    <glyph glyph-name="uni2192" unicode="&#x2192;" horiz-adv-x="840" 
d="M776 273l-311 -309l-50 53l222 219h-620v76h618l-220 216l50 54z" />
    <glyph glyph-name="uni2193" unicode="&#x2193;" horiz-adv-x="840" 
d="M111 289l55 52l217 -221v605h75v-605l217 221l55 -52l-309 -309z" />
    <glyph glyph-name="uni2196" unicode="&#x2196;" horiz-adv-x="840" 
d="M139 538h438v-72h-312l451 -452l-54 -53l-452 451v-312h-71v438z" />
    <glyph glyph-name="uni2197" unicode="&#x2197;" horiz-adv-x="840" 
d="M692 100h-72v312l-452 -451l-54 53l451 452h-311v72h438v-438z" />
    <glyph glyph-name="uni2198" unicode="&#x2198;" horiz-adv-x="840" 
d="M692 0h-438v72h312l-451 452l54 53l452 -451v312h71v-438z" />
    <glyph glyph-name="uni2199" unicode="&#x2199;" horiz-adv-x="840" 
d="M138 438h72v-312l452 451l54 -53l-451 -452h311v-72h-438v438z" />
    <glyph glyph-name="uni219E" unicode="&#x219e;" horiz-adv-x="840" 
d="M-5 273l311 309l50 -54l-220 -216h140l271 270l51 -54l-219 -216h396v-76h-398l221 -219l-51 -53l-273 272h-140l222 -219l-50 -53z" />
    <glyph glyph-name="uni219F" unicode="&#x219f;" horiz-adv-x="840" 
d="M420 745l310 -309l-55 -52l-217 222v-141l272 -272l-55 -50l-217 221v-364h-75v365l-217 -222l-55 50l272 272v141l-217 -222l-55 52z" />
    <glyph glyph-name="uni21A0" unicode="&#x21a0;" horiz-adv-x="840" 
d="M775 273l-311 -309l-50 53l222 219h-140l-273 -272l-51 53l221 219h-398v76h396l-219 216l51 54l271 -270h140l-220 216l50 54z" />
    <glyph glyph-name="uni21A1" unicode="&#x21a1;" horiz-adv-x="840" 
d="M420 -20l-309 309l55 52l217 -222v141l-272 272l55 50l217 -222v365h75v-364l217 221l55 -50l-272 -272v-141l217 222l55 -52z" />
    <glyph glyph-name="uni21A2" unicode="&#x21a2;" horiz-adv-x="840" 
d="M304 582l51 -54l-220 -216h309l269 270l52 -54l-256 -255l256 -256l-52 -53l-272 272h-308l222 -219l-51 -53l-309 309z" />
    <glyph glyph-name="uni21A3" unicode="&#x21a3;" horiz-adv-x="840" 
d="M502 -36l-51 53l222 219h-308l-272 -272l-52 53l256 256l-256 255l52 54l269 -270h309l-220 216l51 54l309 -309z" />
    <glyph glyph-name="uni21A4" unicode="&#x21a4;" horiz-adv-x="840" 
d="M642 0v236h-509l222 -230l-52 -53l-309 315l309 314l52 -54l-220 -217h507v227h82v-538h-82z" />
    <glyph glyph-name="uni21A5" unicode="&#x21a5;" horiz-adv-x="840" 
d="M730 436l-55 -52l-217 222v-530h231v-76h-537v76h231v530l-217 -222l-55 52l309 309z" />
    <glyph glyph-name="uni21A6" unicode="&#x21a6;" horiz-adv-x="840" 
d="M183 0h-82v538h82v-227h507l-220 217l52 54l309 -314l-309 -312l-52 53l222 227h-509v-236z" />
    <glyph glyph-name="uni21A7" unicode="&#x21a7;" horiz-adv-x="840" 
d="M111 289l55 52l217 -222v530h-231v76h537v-76h-231v-530l217 222l55 -52l-310 -309z" />
    <glyph glyph-name="uni25A0" unicode="&#x25a0;" horiz-adv-x="853" 
d="M160 538h535v-538h-535v538z" />
    <glyph glyph-name="uni25A1" unicode="&#x25a1;" horiz-adv-x="853" 
d="M160 538h535v-538h-535v538zM224 64h408v411h-408v-411z" />
    <glyph glyph-name="uni25CB" unicode="&#x25cb;" horiz-adv-x="848" 
d="M146 268q0 58 22 108.5t59.5 88.5t88 60t108.5 22t108.5 -22t88.5 -60t60 -88.5t22 -108.5t-22 -109t-60 -89.5t-88.5 -60.5t-108.5 -22t-108.5 22t-88 60.5t-59.5 89.5t-22 109zM424 48q44 0 83 17t68 46.5t45.5 69.5t16.5 87t-16.5 87t-45.5 69t-68 45.5t-83 16.5
t-82.5 -16.5t-67.5 -45.5t-45.5 -69t-16.5 -87q0 -45 16.5 -85t45.5 -70t67.5 -47.5t82.5 -17.5z" />
    <glyph glyph-name="uni25CF" unicode="&#x25cf;" horiz-adv-x="848" 
d="M146 268q0 58 22 108.5t59.5 88.5t88 60t108.5 22t108.5 -22t88.5 -60t60 -88.5t22 -108.5t-22 -109t-60 -89.5t-88.5 -60.5t-108.5 -22t-108.5 22t-88 60.5t-59.5 89.5t-22 109z" />
    <glyph glyph-name="onethird" unicode="&#x2153;" horiz-adv-x="896" 
d="M224 379q-2 -10 -0.5 -15.5t14.5 -7.5l20 -3l-5 -20h-170l5 20l40 4q12 1 16 6.5t6 15.5l59 275h-89l6 28q25 1 44.5 3.5t35.5 8.5t30 14.5t29 21.5h34l-23 -103zM113 0l508 725h88l-508 -725h-88zM688 -8q-66 0 -108.5 31t-42.5 99h68q0 -45 25 -69.5t62 -24.5
q45 0 65.5 24t20.5 60q0 32 -27.5 54t-69.5 22h-22l10 42h15q57 0 91.5 18.5t34.5 56.5q0 19 -8 32t-20 21.5t-27 12.5t-29 4q-44 0 -63.5 -25.5t-26.5 -61.5h-68q1 23 13.5 45t33.5 39.5t49 28t61 10.5t62.5 -7t51 -20.5t34 -32t12.5 -40.5q0 -38 -28 -63.5t-65 -36.5v-1
q66 -30 66 -88q0 -32 -12.5 -56t-35 -40.5t-54 -25t-68.5 -8.5z" />
    <glyph glyph-name="uni2155" unicode="&#x2155;" horiz-adv-x="907" 
d="M224 379q-2 -10 -0.5 -15.5t14.5 -7.5l20 -3l-5 -20h-170l5 20l40 4q12 1 16 6.5t6 15.5l59 275h-89l6 28q25 1 44.5 3.5t35.5 8.5t30 14.5t29 21.5h34l-23 -103zM113 0l508 725h88l-508 -725h-88zM877 161q0 -37 -13.5 -68t-37 -53.5t-55.5 -35t-68 -12.5
q-71 0 -107.5 36t-34.5 94h69q2 -45 20.5 -69t52.5 -24q24 0 42 11.5t29.5 30t17 41t5.5 45.5q0 32 -21 54.5t-57 22.5q-10 0 -23.5 -3.5t-27 -11.5t-26 -21.5t-20.5 -34.5l-40 8l74 230h259l-11 -60h-221l-31 -94q20 17 41 25t51 8q23 0 47 -8.5t43 -24t31 -37.5t12 -49z
" />
    <glyph glyph-name="uni2159" unicode="&#x2159;" horiz-adv-x="923" 
d="M224 379q-2 -10 -0.5 -15.5t14.5 -7.5l20 -3l-5 -20h-170l5 20l40 4q12 1 16 6.5t6 15.5l59 275h-89l6 28q25 1 44.5 3.5t35.5 8.5t30 14.5t29 21.5h34l-23 -103zM113 0l508 725h88l-508 -725h-88zM736 234q-20 0 -37 -10t-30.5 -26t-21 -36.5t-7.5 -42.5q0 -44 20.5 -67
t54.5 -23q42 0 70 34.5t28 92.5q0 37 -16 57.5t-61 20.5zM770 273q19 0 40.5 -5.5t40 -19t30.5 -35.5t12 -56q0 -37 -13 -67.5t-36.5 -52t-56 -33.5t-72.5 -12q-31 0 -58 10.5t-47 29.5t-31.5 46t-11.5 60q0 39 16.5 87t46.5 89t72 69t93 28q21 0 43 -6.5t40 -19.5t28.5 -33
t9.5 -47h-69q0 31 -13 50.5t-40 19.5q-23 0 -43 -11.5t-36.5 -30.5t-29.5 -45t-20 -54q23 17 46.5 28t58.5 11z" />
    <glyph glyph-name="oneeighth" unicode="&#x215b;" horiz-adv-x="937" 
d="M224 379q-2 -10 -0.5 -15.5t14.5 -7.5l20 -3l-5 -20h-170l5 20l40 4q12 1 16 6.5t6 15.5l59 275h-89l6 28q25 1 44.5 3.5t35.5 8.5t30 14.5t29 21.5h34l-23 -103zM113 0l508 725h88l-508 -725h-88zM696 -8q-30 0 -57.5 7.5t-48.5 21.5t-34 33.5t-13 43.5q0 42 34.5 66.5
t97.5 40.5q-32 18 -48 44t-16 46q0 22 10.5 43t32.5 37t54.5 26t77.5 10q29 0 53.5 -7t42.5 -18t28.5 -25.5t10.5 -30.5q0 -23 -12.5 -41t-31 -31t-40.5 -21.5t-40 -14.5l12 -5q38 -17 60 -40t22 -58q0 -38 -20.5 -62.5t-50.5 -38.5t-63.5 -20t-60.5 -6zM618 95
q0 -35 23 -50.5t58 -15.5q20 0 39.5 3t35.5 10.5t25.5 21t9.5 33.5q0 27 -16 44.5t-59 37.5l-34 14q-37 -14 -59.5 -41.5t-22.5 -56.5zM848 321q0 30 -21 42t-44 12q-43 0 -68 -17.5t-25 -43.5q0 -17 14.5 -36t48.5 -36l21 -10q32 16 53 40.5t21 48.5z" />
    <glyph glyph-name="twothirds" unicode="&#x2154;" horiz-adv-x="1007" 
d="M360 395l-13 -62h-316l14 67q63 31 117 60t93 58t61 59t22 64q0 31 -19 49t-59 18q-41 0 -64.5 -33.5t-22.5 -82.5h-72q1 36 14.5 64.5t36 48t53 29.5t65.5 10q27 0 53.5 -6t46.5 -18t32.5 -31t12.5 -46q0 -36 -30.5 -72.5t-76 -69.5t-98 -60.5t-95.5 -45.5h245zM224 0
l508 725h88l-508 -725h-88zM799 -8q-66 0 -108.5 31t-42.5 99h68q0 -45 25 -69.5t62 -24.5q45 0 65.5 24t20.5 60q0 32 -27.5 54t-69.5 22h-22l10 42h15q57 0 91.5 18.5t34.5 56.5q0 19 -8 32t-20 21.5t-27 12.5t-29 4q-44 0 -63.5 -25.5t-26.5 -61.5h-68q1 23 13.5 45
t33.5 39.5t49 28t61 10.5t62.5 -7t51 -20.5t34 -32t12.5 -40.5q0 -38 -28 -63.5t-65 -36.5v-1q66 -30 66 -88q0 -32 -12.5 -56t-35 -40.5t-54 -25t-68.5 -8.5z" />
    <glyph glyph-name="uni2156" unicode="&#x2156;" horiz-adv-x="1018" 
d="M360 395l-13 -62h-316l14 67q63 31 117 60t93 58t61 59t22 64q0 31 -19 49t-59 18q-41 0 -64.5 -33.5t-22.5 -82.5h-72q1 36 14.5 64.5t36 48t53 29.5t65.5 10q27 0 53.5 -6t46.5 -18t32.5 -31t12.5 -46q0 -36 -30.5 -72.5t-76 -69.5t-98 -60.5t-95.5 -45.5h245zM224 0
l508 725h88l-508 -725h-88zM988 161q0 -37 -13.5 -68t-37 -53.5t-55.5 -35t-68 -12.5q-71 0 -107.5 36t-34.5 94h69q2 -45 20.5 -69t52.5 -24q24 0 42 11.5t29.5 30t17 41t5.5 45.5q0 32 -21 54.5t-57 22.5q-10 0 -23.5 -3.5t-27 -11.5t-26 -21.5t-20.5 -34.5l-40 8l74 230
h259l-11 -60h-221l-31 -94q20 17 41 25t51 8q23 0 47 -8.5t43 -24t31 -37.5t12 -49z" />
    <glyph glyph-name="uni2157" unicode="&#x2157;" horiz-adv-x="1032" 
d="M223 325q-66 0 -108.5 31t-42.5 99h68q0 -45 25 -69.5t62 -24.5q45 0 65.5 24t20.5 60q0 32 -27.5 54t-69.5 22h-22l10 42h15q57 0 91.5 18.5t34.5 56.5q0 19 -8 32t-20 21.5t-27 12.5t-29 4q-44 0 -63.5 -25.5t-26.5 -61.5h-68q1 23 13.5 45t33.5 39.5t49 28t61 10.5
t62.5 -7t51 -20.5t34 -32t12.5 -40.5q0 -38 -28 -63.5t-65 -36.5v-1q66 -30 66 -88q0 -32 -12.5 -56t-35 -40.5t-54 -25t-68.5 -8.5zM238 0l508 725h88l-508 -725h-88zM1002 161q0 -37 -13.5 -68t-37 -53.5t-55.5 -35t-68 -12.5q-71 0 -107.5 36t-34.5 94h69q2 -45 20.5 -69
t52.5 -24q24 0 42 11.5t29.5 30t17 41t5.5 45.5q0 32 -21 54.5t-57 22.5q-10 0 -23.5 -3.5t-27 -11.5t-26 -21.5t-20.5 -34.5l-40 8l74 230h259l-11 -60h-221l-31 -94q20 17 41 25t51 8q23 0 47 -8.5t43 -24t31 -37.5t12 -49z" />
    <glyph glyph-name="threeeighths" unicode="&#x215c;" horiz-adv-x="1062" 
d="M223 325q-66 0 -108.5 31t-42.5 99h68q0 -45 25 -69.5t62 -24.5q45 0 65.5 24t20.5 60q0 32 -27.5 54t-69.5 22h-22l10 42h15q57 0 91.5 18.5t34.5 56.5q0 19 -8 32t-20 21.5t-27 12.5t-29 4q-44 0 -63.5 -25.5t-26.5 -61.5h-68q1 23 13.5 45t33.5 39.5t49 28t61 10.5
t62.5 -7t51 -20.5t34 -32t12.5 -40.5q0 -38 -28 -63.5t-65 -36.5v-1q66 -30 66 -88q0 -32 -12.5 -56t-35 -40.5t-54 -25t-68.5 -8.5zM238 0l508 725h88l-508 -725h-88zM821 -8q-30 0 -57.5 7.5t-48.5 21.5t-34 33.5t-13 43.5q0 42 34.5 66.5t97.5 40.5q-32 18 -48 44t-16 46
q0 22 10.5 43t32.5 37t54.5 26t77.5 10q29 0 53.5 -7t42.5 -18t28.5 -25.5t10.5 -30.5q0 -23 -12.5 -41t-31 -31t-40.5 -21.5t-40 -14.5l12 -5q38 -17 60 -40t22 -58q0 -38 -20.5 -62.5t-50.5 -38.5t-63.5 -20t-60.5 -6zM743 95q0 -35 23 -50.5t58 -15.5q20 0 39.5 3
t35.5 10.5t25.5 21t9.5 33.5q0 27 -16 44.5t-59 37.5l-34 14q-37 -14 -59.5 -41.5t-22.5 -56.5zM973 321q0 30 -21 42t-44 12q-43 0 -68 -17.5t-25 -43.5q0 -17 14.5 -36t48.5 -36l21 -10q32 16 53 40.5t21 48.5z" />
    <glyph glyph-name="uni2158" unicode="&#x2158;" horiz-adv-x="1057" 
d="M348 380q-3 -12 -1 -16.5t14 -5.5l20 -3l-5 -22h-151l4 22l19 3q12 1 16.5 5.5t7.5 16.5l12 59h-210l8 41l276 254h65l-23 -104l-28 -135h72l-12 -56h-72zM329 652l-172 -157h139zM263 0l508 725h88l-508 -725h-88zM1027 161q0 -37 -13.5 -68t-37 -53.5t-55.5 -35
t-68 -12.5q-71 0 -107.5 36t-34.5 94h69q2 -45 20.5 -69t52.5 -24q24 0 42 11.5t29.5 30t17 41t5.5 45.5q0 32 -21 54.5t-57 22.5q-10 0 -23.5 -3.5t-27 -11.5t-26 -21.5t-20.5 -34.5l-40 8l74 230h259l-11 -60h-221l-31 -94q20 17 41 25t51 8q23 0 47 -8.5t43 -24t31 -37.5
t12 -49z" />
    <glyph glyph-name="uni215A" unicode="&#x215a;" horiz-adv-x="1062" 
d="M412 494q0 -37 -13.5 -68t-37 -53.5t-55.5 -35t-68 -12.5q-71 0 -107.5 36t-34.5 94h69q2 -45 20.5 -68.5t52.5 -23.5q24 0 42 11.5t29.5 29.5t17 40.5t5.5 45.5q0 32 -21 54.5t-57 22.5q-10 0 -23.5 -3.5t-27 -11.5t-26 -21.5t-20.5 -34.5l-40 8l74 230h259l-11 -60
h-221l-31 -94q20 17 41 25t51 8q23 0 47 -8.5t43 -24t31 -37.5t12 -49zM252 0l508 725h88l-508 -725h-88zM875 234q-20 0 -37 -10t-30.5 -26t-21 -36.5t-7.5 -42.5q0 -44 20.5 -67t54.5 -23q42 0 70 34.5t28 92.5q0 37 -16 57.5t-61 20.5zM909 273q19 0 40.5 -5.5t40 -19
t30.5 -35.5t12 -56q0 -37 -13 -67.5t-36.5 -52t-56 -33.5t-72.5 -12q-31 0 -58 10.5t-47 29.5t-31.5 46t-11.5 60q0 39 16.5 87t46.5 89t72 69t93 28q21 0 43 -6.5t40 -19.5t28.5 -33t9.5 -47h-69q0 31 -13 50.5t-40 19.5q-23 0 -43 -11.5t-36.5 -30.5t-29.5 -45t-20 -54
q23 17 46.5 28t58.5 11z" />
    <glyph glyph-name="fiveeighths" unicode="&#x215d;" horiz-adv-x="1076" 
d="M412 494q0 -37 -13.5 -68t-37 -53.5t-55.5 -35t-68 -12.5q-71 0 -107.5 36t-34.5 94h69q2 -45 20.5 -68.5t52.5 -23.5q24 0 42 11.5t29.5 29.5t17 40.5t5.5 45.5q0 32 -21 54.5t-57 22.5q-10 0 -23.5 -3.5t-27 -11.5t-26 -21.5t-20.5 -34.5l-40 8l74 230h259l-11 -60
h-221l-31 -94q20 17 41 25t51 8q23 0 47 -8.5t43 -24t31 -37.5t12 -49zM252 0l508 725h88l-508 -725h-88zM835 -8q-30 0 -57.5 7.5t-48.5 21.5t-34 33.5t-13 43.5q0 42 34.5 66.5t97.5 40.5q-32 18 -48 44t-16 46q0 22 10.5 43t32.5 37t54.5 26t77.5 10q29 0 53.5 -7
t42.5 -18t28.5 -25.5t10.5 -30.5q0 -23 -12.5 -41t-31 -31t-40.5 -21.5t-40 -14.5l12 -5q38 -17 60 -40t22 -58q0 -38 -20.5 -62.5t-50.5 -38.5t-63.5 -20t-60.5 -6zM757 95q0 -35 23 -50.5t58 -15.5q20 0 39.5 3t35.5 10.5t25.5 21t9.5 33.5q0 27 -16 44.5t-59 37.5l-34 14
q-37 -14 -59.5 -41.5t-22.5 -56.5zM987 321q0 30 -21 42t-44 12q-43 0 -68 -17.5t-25 -43.5q0 -17 14.5 -36t48.5 -36l21 -10q32 16 53 40.5t21 48.5z" />
    <glyph glyph-name="seveneighths" unicode="&#x215e;" horiz-adv-x="1005" 
d="M121 734h298l-12 -55q-38 -23 -76.5 -49t-71.5 -64t-57 -94t-33 -139h-86q4 62 28 115t61 95.5t83.5 75t95.5 54.5h-243zM181 0l508 725h88l-508 -725h-88zM764 -8q-30 0 -57.5 7.5t-48.5 21.5t-34 33.5t-13 43.5q0 42 34.5 66.5t97.5 40.5q-32 18 -48 44t-16 46
q0 22 10.5 43t32.5 37t54.5 26t77.5 10q29 0 53.5 -7t42.5 -18t28.5 -25.5t10.5 -30.5q0 -23 -12.5 -41t-31 -31t-40.5 -21.5t-40 -14.5l12 -5q38 -17 60 -40t22 -58q0 -38 -20.5 -62.5t-50.5 -38.5t-63.5 -20t-60.5 -6zM686 95q0 -35 23 -50.5t58 -15.5q20 0 39.5 3
t35.5 10.5t25.5 21t9.5 33.5q0 27 -16 44.5t-59 37.5l-34 14q-37 -14 -59.5 -41.5t-22.5 -56.5zM916 321q0 30 -21 42t-44 12q-43 0 -68 -17.5t-25 -43.5q0 -17 14.5 -36t48.5 -36l21 -10q32 16 53 40.5t21 48.5z" />
    <glyph glyph-name="uni215F" unicode="&#x215f;" horiz-adv-x="513" 
d="M224 379q-2 -10 -0.5 -15.5t14.5 -7.5l20 -3l-5 -20h-170l5 20l40 4q12 1 16 6.5t6 15.5l59 275h-89l6 28q25 1 44.5 3.5t35.5 8.5t30 14.5t29 21.5h34l-23 -103zM113 0l508 725h88l-508 -725h-88z" />
    <glyph glyph-name="fraction" unicode="&#x2044;" horiz-adv-x="243" 
d="M-157 0l508 725h88l-508 -725h-88z" />
    <glyph glyph-name="a.superior" horiz-adv-x="385" 
d="M291 595l-41 -1q-10 0 -24 -2.5t-27 -9t-22.5 -18.5t-9.5 -31q0 -20 12 -35.5t37 -15.5q8 0 17.5 3t19 12t18 24.5t14.5 41.5zM85 527q0 28 11 46t32 29q21 12 52.5 18.5t71.5 8.5l46 2l3 14q8 39 -3.5 53t-39.5 14q-25 0 -45.5 -12.5t-25.5 -45.5h-69q2 22 15 39t33 29
t44 18t49 6q32 0 56.5 -5.5t39 -18.5t19 -35.5t-3.5 -56.5q-6 -26 -12.5 -60t-15.5 -72q-3 -12 -0.5 -16.5t14.5 -5.5l24 -3l-7 -22l-101 -7l4 47h-2q-17 -26 -41.5 -39.5t-54.5 -13.5q-38 0 -65.5 24.5t-27.5 64.5z" />
    <glyph glyph-name="b.superior" horiz-adv-x="396" 
d="M112 445h-33q6 26 11 51t11 50l56 265q3 13 1 16.5t-16 5.5l-23 2l5 22h120l-20 -89v1q-5 -29 -11.5 -51.5t-10.5 -32.5h1q15 26 40.5 43.5t64.5 17.5q24 0 42.5 -9.5t31.5 -26t20 -38.5t7 -47q0 -42 -12.5 -76.5t-33.5 -59t-49 -38t-58 -13.5q-32 0 -58.5 17.5
t-34.5 58.5h-1zM271 703q-17 0 -33.5 -12t-29.5 -32.5t-21 -46.5t-8 -53q0 -36 15.5 -56.5t41.5 -20.5q16 0 32.5 10.5t29 29.5t20.5 45.5t8 57.5q0 26 -5 41.5t-13 23.5t-17.5 10.5t-19.5 2.5z" />
    <glyph glyph-name="c.superior" horiz-adv-x="365" 
d="M246 746q34 0 59 -9.5t41 -24t24 -33t8 -36.5h-73q2 21 -2.5 34.5t-12.5 20.5t-17.5 9.5t-17.5 2.5q-27 0 -45.5 -18t-30 -44.5t-16.5 -55.5t-5 -50q0 -25 12.5 -46t44.5 -21q10 0 20.5 1.5t20 8.5t18 19.5t14.5 35.5h72q-10 -30 -25.5 -49.5t-35 -31.5t-41.5 -16.5
t-43 -4.5q-34 0 -59.5 10.5t-42.5 28t-25.5 41t-8.5 49.5q0 39 12.5 71.5t34.5 56.5t53 37.5t67 13.5z" />
    <glyph glyph-name="d.superior" horiz-adv-x="409" 
d="M348 811q3 13 1 17t-16 5l-31 2l4 22h128l-19 -89l-58 -269q-2 -13 -0.5 -17t15.5 -6l23 -2l-5 -22l-117 -8l15 56h-2q-14 -26 -42 -44t-61 -18q-50 0 -77 35.5t-27 87.5q0 42 12.5 76t33.5 58t49 37.5t58 13.5q34 0 57 -18.5t31 -55.5h1l13 72zM217 482q16 0 32.5 12
t29.5 32t21 46t8 54q0 37 -15.5 57t-40.5 20q-17 0 -33 -10.5t-28.5 -29.5t-20.5 -45t-8 -57q0 -27 5 -42.5t12.5 -23.5t17.5 -10.5t20 -2.5z" />
    <glyph glyph-name="e.superior" horiz-adv-x="374" 
d="M215 438q-34 0 -59.5 10.5t-42.5 28t-25.5 41t-8.5 49.5q0 39 12.5 71.5t35 56.5t53.5 37.5t68 13.5q31 0 58 -9t45.5 -28.5t27 -49.5t2.5 -72h-219q-3 -26 -3 -45q0 -25 12 -46t44 -21q61 0 77 63h71q-20 -56 -59 -78t-89 -22zM249 712q-34 0 -54 -23.5t-27 -62.5h137
q6 47 -10.5 66.5t-45.5 19.5z" />
    <glyph glyph-name="f.superior" horiz-adv-x="286" 
d="M215 445h-173l4 22l24 4q14 1 18 5t6 16l45 209h-41l7 40h42l2 7q7 33 15.5 54t23.5 33.5t40.5 17t67.5 4.5h50l-9 -41h-67q-20 0 -27.5 -10t-10.5 -22l-9 -43h99l-9 -40h-98l-44 -207q-2 -14 0 -18t13 -5l35 -3z" />
    <glyph glyph-name="g.superior" horiz-adv-x="393" 
d="M351 711q17 -22 17 -57q0 -24 -11 -44t-30.5 -35t-46.5 -23t-60 -8q-24 0 -43 6q-4 -3 -2 -6.5t2 -8.5q0 -11 8 -15.5t17 -5.5l83 -6q34 -3 58.5 -18t24.5 -42q0 -24 -19 -43.5t-46.5 -34t-58.5 -22.5t-56 -8q-36 0 -60.5 5t-39 13t-21 18.5t-6.5 22.5q0 11 7.5 21
t19.5 18t26 13.5t28 7.5q-17 6 -25.5 19.5t-8.5 27.5q0 23 18 33t39 15q-44 22 -44 81q0 49 40.5 80t105.5 31q12 0 23.5 -2t21.5 -5l126 2l-9 -40zM254 718q-19 0 -30.5 -9t-18 -23.5t-9 -32.5t-2.5 -36q0 -21 9.5 -33.5t30.5 -12.5q19 0 30.5 9.5t18 24.5t9 33t2.5 36
q0 20 -9.5 32t-30.5 12zM155 457q-11 -8 -16.5 -21.5t-5.5 -27.5t14.5 -25.5t43.5 -11.5q15 0 31.5 3t30.5 9.5t23.5 17t9.5 24.5q0 15 -14.5 20.5t-27.5 6.5l-88 5h-1z" />
    <glyph glyph-name="h.superior" horiz-adv-x="398" 
d="M55 467l23 4q14 1 18 5t6 16l69 319q2 13 0 16.5t-15 5.5l-23 2l4 22h119l-18 -87l-5 -17l-14 -65q18 32 45 45t59 13q28 0 43 -9.5t21 -26.5t4.5 -39.5t-6.5 -49.5l-27 -129q-3 -12 -0.5 -15.5t14.5 -5.5l23 -4l-4 -22h-162l4 22l26 4q12 1 15.5 5t6.5 16l24 115
q6 30 7.5 48t-1.5 28t-11 13.5t-21 3.5q-32 0 -49.5 -26.5t-28.5 -76.5l-22 -105q-4 -12 -1 -16t14 -5l24 -4l-5 -22h-161z" />
    <glyph glyph-name="i.superior" horiz-adv-x="230" 
d="M180 857h76l-17 -80h-75zM213 655l-34 -163q-2 -12 0 -16t14 -5l23 -4l-4 -22h-162l5 22l23 4q14 1 18 5t6 16l44 205q2 12 -0.5 15t-14.5 4l-23 2l5 23h119z" />
    <glyph glyph-name="j.superior" horiz-adv-x="214" 
d="M173 857h76l-17 -80h-77zM138 697q2 12 0 15t-14 4l-23 2l4 23h119l-19 -86l-39 -185q-9 -44 -20.5 -69.5t-26.5 -38.5t-35.5 -17t-48.5 -4h-38l10 46h38q9 0 14 2t9 9t8 21.5t9 40.5z" />
    <glyph glyph-name="k.superior" horiz-adv-x="396" 
d="M256 857l-19 -89l-38 -181l140 112q2 2 -1.5 8t-14.5 8l-33 5l6 21h155l-5 -21l-33 -5q-7 -1 -14.5 -7.5t-26.5 -21.5l-91 -70l61 -129q2 -4 6.5 -9.5t17.5 -7.5l14 -3l-5 -22h-99l-53 125l-33 -26l-11 -52q-2 -12 0 -16t14 -5l23 -4l-4 -22h-162l5 22l23 4q14 1 18 5
t6 16l69 319q2 13 0 16.5t-15 5.5l-23 2l4 22h119z" />
    <glyph glyph-name="l.superior" horiz-adv-x="231" 
d="M256 857l-19 -89l-58 -276q-2 -12 0 -16t14 -5l23 -4l-4 -22h-162l5 22l23 4q14 1 18 5t6 16l69 319q2 13 0 16.5t-15 5.5l-23 2l4 22h119z" />
    <glyph glyph-name="m.superior" horiz-adv-x="556" 
d="M384 685q19 28 43 44.5t62 16.5q24 0 37.5 -9.5t19 -26.5t4.5 -39.5t-6 -49.5l-28 -129q-2 -12 0 -16t14 -5l24 -4l-4 -22h-162l4 22l25 4q13 1 16.5 5t7.5 16l24 115q6 30 7 48t-1.5 28t-8 13.5t-13.5 3.5q-29 0 -48.5 -26.5t-29.5 -76.5l-22 -105q-4 -12 -1 -16t15 -5
l23 -4l-4 -22h-162l4 22l25 4q13 1 17 5t6 16l24 115q7 30 8.5 48t-1 28t-8.5 13.5t-14 3.5q-29 0 -48 -26.5t-29 -76.5l-23 -105q-3 -12 -1 -16t15 -5l24 -4l-4 -22h-161l4 22l23 4q14 1 17.5 5t6.5 16l43 205q2 12 0 15t-13 4l-25 2l6 23h118l-13 -53h1q18 32 45.5 45
t52.5 13t43 -12t20 -49h1z" />
    <glyph glyph-name="n.superior" unicode="&#x207f;" horiz-adv-x="399" 
d="M360 492q-3 -12 -0.5 -16t14.5 -5l24 -4l-6 -22h-161l5 22l24 4q13 1 17 5t6 16l24 115q7 30 8.5 48t-2 28t-11.5 13.5t-20 3.5q-32 0 -50 -26.5t-28 -76.5l-23 -105q-3 -12 -1 -16t15 -5l24 -4l-4 -22h-161l4 22l23 4q14 1 17.5 5t6.5 16l43 205q2 12 0 15t-13 4l-25 2
l6 23h118l-13 -53h1q18 32 45 45t59 13q27 0 42 -9.5t21 -26.5t5 -39.5t-7 -49.5z" />
    <glyph glyph-name="o.superior" horiz-adv-x="373" 
d="M215 475q25 0 42.5 18t28.5 44t15.5 55t4.5 51q0 12 -2.5 24t-8.5 21.5t-17 15.5t-28 6q-25 0 -42.5 -18t-28.5 -44.5t-16 -55.5t-5 -50q0 -25 12.5 -46t44.5 -21zM248 746q34 0 60 -10.5t43 -27.5t25.5 -40.5t8.5 -48.5q0 -39 -12.5 -72t-35 -57.5t-53.5 -38t-69 -13.5
q-34 0 -59.5 10.5t-42.5 28t-25.5 41t-8.5 49.5q0 39 12.5 71.5t35 56.5t53.5 37.5t68 13.5z" />
    <glyph glyph-name="p.superior" horiz-adv-x="427" 
d="M222 685q14 26 42 44t61 18q25 0 44 -9.5t32.5 -26t20.5 -39t7 -47.5q0 -42 -12.5 -76.5t-33.5 -59t-49 -38t-58 -13.5q-32 0 -56 19t-32 56h-1q-2 -10 -2.5 -15.5l-1 -11t-1.5 -12t-4 -18.5l-14 -66q-2 -14 0 -18t13 -5l40 -2l-5 -24h-177l4 23l25 2q13 1 17 5t6 18
l66 308q3 12 0 15t-14 4l-23 2l4 23h116l-15 -56h1zM292 704q-17 0 -33.5 -12.5t-29.5 -32.5t-21 -46.5t-8 -53.5q0 -36 15.5 -56.5t41.5 -20.5q16 0 32 10.5t28.5 29.5t20.5 45.5t8 57.5q0 26 -5 41.5t-12.5 24t-17 11t-19.5 2.5z" />
    <glyph glyph-name="q.superior" horiz-adv-x="407" 
d="M189 341l6 24l40 2q14 1 18 5t6 18l10 46l15 64h-1q-14 -26 -38.5 -44t-63.5 -18q-48 0 -75 35.5t-27 87.5q0 42 12.5 76t33.5 58t49 37.5t58 13.5q31 0 59 -17t38 -59h1l61 71h19l-23 -108l-53 -244q-2 -14 0 -18t15 -5l23 -2l-5 -23h-178zM217 482q16 0 32.5 12
t29.5 32t21 46t8 54q0 37 -15.5 57t-40.5 20q-17 0 -33 -10.5t-28.5 -29.5t-20.5 -45t-8 -57q0 -27 5 -42.5t12.5 -23.5t17.5 -10.5t20 -2.5z" />
    <glyph glyph-name="r.superior" horiz-adv-x="303" 
d="M217 674h2q23 35 53 50t63 15h6l-14 -67h-51q-26 0 -43.5 -6.5t-22.5 -28.5l-30 -143q-3 -14 -0.5 -18t14.5 -5l41 -3l-5 -23h-178l5 22l23 4q13 1 17 5t6 16l44 205q2 12 0 15t-15 4l-23 2l5 23h119z" />
    <glyph glyph-name="s.superior" horiz-adv-x="342" 
d="M335 534q0 -42 -36 -69t-91 -27q-29 0 -53.5 8t-42.5 22t-28 33t-10 41h71q2 -31 17 -49t47 -18q22 0 40.5 8.5t18.5 28.5q0 9 -6 16t-14.5 12t-19 8.5t-19.5 7.5l-32 12q-30 11 -53 33t-23 60q0 24 12 40.5t31 26t41.5 14t42.5 4.5q24 0 47 -6t41.5 -18t30.5 -29.5
t13 -40.5h-72q2 23 -15 40.5t-49 17.5t-45 -13.5t-13 -22.5q0 -17 11 -26t37 -19l35 -13q13 -5 28 -10.5t28 -15t21.5 -23t8.5 -33.5z" />
    <glyph glyph-name="t.superior" horiz-adv-x="276" 
d="M299 701h-80l-35 -167q-6 -26 0 -35.5t35 -9.5h37l-9 -44h-46q-33 0 -54.5 2.5t-32 11t-12.5 24t4 41.5l37 177h-51l10 40h50l20 96h76l-20 -96h80z" />
    <glyph glyph-name="u.superior" horiz-adv-x="396" 
d="M272 489q-14 -24 -34 -37.5t-51 -13.5q-56 0 -72.5 36.5t-2.5 102.5l25 120q3 12 0.5 15t-13.5 4l-23 2l4 23h119l-20 -89l-16 -74q-11 -54 -5 -74t32 -20q19 0 32 8t21.5 20.5t13.5 28t8 31.5l25 125q3 12 1 15t-14 4l-23 2l4 23h119l-19 -89l-33 -153q-2 -13 0 -17
t14 -6l24 -2l-5 -22l-119 -13z" />
    <glyph glyph-name="v.superior" horiz-adv-x="352" 
d="M99 700q-2 8 -4.5 12t-13.5 6l-14 2l4 21h148l-5 -21l-24 -3q-11 -1 -13.5 -5t-0.5 -14l22 -164l90 154q8 14 10.5 21t-7.5 8l-26 3l4 21h124l-4 -21l-20 -2q-11 -2 -16.5 -8.5t-17.5 -27.5l-146 -237h-48z" />
    <glyph glyph-name="w.superior" horiz-adv-x="479" 
d="M411 688q7 15 9.5 21.5t-3.5 7.5l-26 3l5 21h124l-4 -21l-20 -2q-5 -1 -15 -7.5t-21 -28.5l-123 -237h-49l-16 202l-100 -202h-50l-25 255q-2 8 -3.5 12t-5.5 5l-23 3l4 21h143l-5 -21l-22 -3q-11 -1 -13 -5t-2 -16l10 -151l102 196h48l13 -197z" />
    <glyph glyph-name="x.superior" horiz-adv-x="409" 
d="M209 588l-62 106q-8 15 -13 18t-14 5l-9 3l6 21h140l-6 -21l-21 -3q-4 -1 -5 -4t3 -11l37 -62l80 74q-1 -1 -11 2l-22 4l5 21h138l-5 -21l-21 -2q-17 -2 -23.5 -6t-11.5 -9l-107 -100l66 -111q7 -14 12 -17t15 -5l9 -3l-6 -22h-141l6 22l22 3q4 1 4.5 4t-3.5 11l-40 67
l-85 -79q1 0 3 -0.5t8 -1.5l23 -4l-5 -22h-139l5 22l20 1q17 2 24.5 7t13.5 11z" />
    <glyph glyph-name="y.superior" horiz-adv-x="352" 
d="M5 341l9 43h46q20 0 35.5 14t36.5 53l3 5l-39 244q-2 8 -5.5 12t-16.5 6l-10 2l4 21h153l-4 -21l-30 -3q-10 -1 -13 -5t-1 -16l22 -163l91 155q6 11 10 18.5t-5 9.5l-32 4l5 21h128l-5 -21l-21 -2q-9 -2 -13.5 -6.5t-13.5 -21.5l-152 -248q-15 -26 -29 -45t-29 -31.5
t-34 -18.5t-45 -6h-45z" />
    <glyph glyph-name="z.superior" horiz-adv-x="369" 
d="M82 485l213 216h-152l9 40h243l-8 -37l-215 -218h173l-9 -41h-263z" />
    <glyph glyph-name="four.superior" unicode="&#x2074;" horiz-adv-x="427" 
d="M348 492q-3 -12 -1 -16t14 -5l20 -4l-5 -22h-151l4 22l19 4q12 1 16.5 5t7.5 16l12 59h-210l8 42l276 253h65l-23 -104l-28 -135h72l-12 -56h-72zM329 764l-172 -157h139z" />
    <glyph glyph-name="five.superior" unicode="&#x2075;" horiz-adv-x="409" 
d="M412 606q0 -36 -13.5 -67t-37 -53.5t-55.5 -35t-68 -12.5q-71 0 -107.5 35.5t-34.5 94.5h69q2 -45 20.5 -69t52.5 -24q24 0 42 11.5t29.5 30t17 41t5.5 45.5q0 31 -21 53.5t-57 22.5q-10 0 -23.5 -3t-27 -11.5t-26 -22t-20.5 -34.5l-40 9l74 229h259l-11 -60h-221
l-31 -94q20 17 41 25t51 8q23 0 47 -8.5t43 -24t31 -37.5t12 -49z" />
    <glyph glyph-name="six.superior" unicode="&#x2076;" horiz-adv-x="423" 
d="M271 679q-20 0 -37 -10t-30.5 -26t-21 -36.5t-7.5 -42.5q0 -43 20.5 -66t54.5 -23q42 0 70 34t28 93q0 37 -16 57t-61 20zM305 718q19 0 40.5 -5.5t40 -18.5t30.5 -35.5t12 -55.5q0 -38 -13 -68t-36.5 -52t-56 -33.5t-72.5 -11.5q-31 0 -58 10.5t-47 29t-31.5 45.5
t-11.5 60q0 40 16.5 87.5t46.5 88.5t72 69t93 28q21 0 43 -6.5t40 -19.5t28.5 -33t9.5 -47h-69q0 32 -13 51t-40 19q-23 0 -43 -11t-36.5 -30.5t-29.5 -45t-20 -54.5q23 17 46.5 28t58.5 11z" />
    <glyph glyph-name="seven.superior" unicode="&#x2077;" horiz-adv-x="338" 
d="M121 846h298l-12 -54q-38 -24 -76.5 -50t-71.5 -64t-57 -94t-33 -139h-86q4 62 28 115t61 95.5t83.5 75t95.5 54.5h-243z" />
    <glyph glyph-name="eight.superior" unicode="&#x2078;" horiz-adv-x="433" 
d="M231 438q-30 0 -57.5 7.5t-48.5 21t-34 33.5t-13 44q0 42 34.5 66t97.5 40q-32 18 -48 44t-16 46q0 22 10.5 43t32.5 37t54.5 26t77.5 10q29 0 53.5 -6.5t42.5 -18t28.5 -26t10.5 -30.5q0 -23 -12.5 -40.5t-31 -30.5t-40.5 -21.5t-40 -14.5l12 -5q38 -17 60 -40.5
t22 -58.5q0 -38 -20.5 -62t-50.5 -38.5t-63.5 -20t-60.5 -5.5zM153 540q0 -34 23 -49.5t58 -15.5q20 0 39.5 3t35.5 10.5t25.5 20.5t9.5 34q0 27 -16 44.5t-59 37.5l-33 13q-38 -14 -60.5 -41.5t-22.5 -56.5zM383 766q0 31 -21 42.5t-44 11.5q-43 0 -68 -17t-25 -43
q0 -17 14.5 -36t48.5 -36l21 -10q32 16 53 40.5t21 47.5z" />
    <glyph glyph-name="nine.superior" unicode="&#x2079;" horiz-adv-x="419" 
d="M252 615q54 0 84 37.5t30 92.5q0 32 -20 53.5t-55 21.5q-42 0 -69.5 -34t-27.5 -94q0 -34 12.5 -55.5t45.5 -21.5zM212 475q22 0 42.5 11.5t37 31t29 45t20.5 53.5q-23 -17 -46.5 -29t-58.5 -12q-23 0 -45 6.5t-39.5 20t-28 35t-10.5 51.5q0 37 13 68t37 53t57.5 34.5
t73.5 12.5q69 0 107 -36t38 -95q0 -44 -17 -94.5t-47.5 -93t-73 -71t-93.5 -28.5q-21 0 -42.5 5.5t-39 18.5t-27.5 33.5t-9 49.5h70q0 -32 11 -51t41 -19z" />
    <glyph glyph-name="zero.superior" unicode="&#x2070;" horiz-adv-x="463" 
d="M325 856q32 0 59.5 -10.5t48 -31t32.5 -51t12 -70.5q0 -46 -14 -91.5t-40.5 -82t-65.5 -59t-89 -22.5q-33 0 -61.5 10.5t-49.5 31.5t-33 51.5t-12 70.5q0 46 13.5 91.5t40.5 81.5t67 58.5t92 22.5zM325 820q-38 0 -63.5 -26t-40.5 -63t-21 -76.5t-6 -67.5
q0 -54 19.5 -83.5t54.5 -29.5q38 0 62.5 26t39 62.5t20 76.5t5.5 67q0 54 -17.5 84t-52.5 30z" />
    <glyph glyph-name="zero.slashed.superior" horiz-adv-x="463" 
d="M325 856q32 0 59.5 -10.5t48 -31t32.5 -51t12 -70.5q0 -46 -14 -91.5t-40.5 -82t-65.5 -59t-89 -22.5q-33 0 -61.5 10.5t-49.5 31.5t-33 51.5t-12 70.5q0 46 13.5 91.5t40.5 81.5t67 58.5t92 22.5zM268 474q36 0 59.5 23t38 56t21 70.5t7.5 66.5l-199 -123q3 -45 22 -69
t51 -24zM325 820q-35 0 -59.5 -22t-39.5 -54.5t-22.5 -69.5t-9.5 -67l200 123q-4 42 -21.5 66t-47.5 24z" />
    <glyph glyph-name="period.superior" horiz-adv-x="160" 
d="M82 536h89l-19 -91h-90z" />
    <glyph glyph-name="hyphen.superior" horiz-adv-x="219" 
d="M83 629h155l-13 -61h-155z" />
    <glyph glyph-name="comma.superior" horiz-adv-x="161" 
d="M82 536h90l-22 -97l-72 -103h-32l52 109h-37z" />
    <glyph glyph-name="equal.superior" unicode="&#x207c;" horiz-adv-x="366" 
d="M90 632v48h281v-48h-281zM90 519v47h281v-47h-281z" />
    <glyph glyph-name="plus.superior" unicode="&#x207a;" horiz-adv-x="383" 
d="M213 445v127h-127v48h127v124h51v-124h127v-48h-127v-127h-51z" />
    <glyph glyph-name="minus.superior" unicode="&#x207b;" horiz-adv-x="383" 
d="M391 620v-48h-305v48h305z" />
    <glyph glyph-name="parenleft.superior" unicode="&#x207d;" horiz-adv-x="211" 
d="M276 857q-63 -72 -97 -167.5t-34 -198.5q0 -38 5 -75.5t16 -74.5h-40q-28 48 -39 95t-11 95q0 34 6.5 72t24 79t48.5 85t79 90h42z" />
    <glyph glyph-name="parenright.superior" unicode="&#x207e;" horiz-adv-x="185" 
d="M-1 341q63 72 97 167t34 198q0 39 -4.5 77t-16.5 74h40q29 -47 40 -94.5t11 -95.5q0 -35 -6.5 -73t-24.5 -78.5t-49 -84.5t-80 -90h-41z" />
    <glyph glyph-name="a.inferior" horiz-adv-x="385" 
d="M208 19l-41 -1q-10 0 -24 -2.5t-27 -9t-22.5 -18.5t-9.5 -31q0 -20 12 -35.5t37 -15.5q8 0 17.5 3t19 12t18 24.5t14.5 41.5zM2 -49q0 28 11 46t32 29q21 12 52.5 18.5t71.5 8.5l46 2l3 14q8 39 -3.5 53t-39.5 14q-25 0 -45.5 -12.5t-25.5 -45.5h-69q2 22 15 39t33 29
t44 18t49 6q32 0 56.5 -5.5t39 -18.5t19 -35.5t-3.5 -56.5q-6 -26 -12.5 -60t-15.5 -72q-3 -12 -0.5 -16.5t14.5 -5.5l24 -3l-7 -22l-101 -7l4 47h-2q-17 -26 -41.5 -39.5t-54.5 -13.5q-38 0 -65.5 24.5t-27.5 64.5z" />
    <glyph glyph-name="b.inferior" horiz-adv-x="391" 
d="M31 -130h-33q6 26 11 51t11 50l56 265q3 13 1 16.5t-16 5.5l-23 2l5 22h120l-20 -89v1q-5 -29 -11.5 -51.5t-10.5 -32.5h1q15 26 40.5 43.5t64.5 17.5q24 0 42.5 -9.5t31.5 -26t20 -38.5t7 -47q0 -42 -12.5 -76.5t-33.5 -59t-49 -38t-58 -13.5q-32 0 -58.5 17.5
t-34.5 58.5h-1zM190 128q-17 0 -33.5 -12t-29.5 -32.5t-21 -46.5t-8 -53q0 -36 15.5 -56.5t41.5 -20.5q16 0 32.5 10.5t29 29.5t20.5 45.5t8 57.5q0 26 -5 41.5t-13 23.5t-17.5 10.5t-19.5 2.5z" />
    <glyph glyph-name="c.inferior" horiz-adv-x="362" 
d="M165 170q34 0 59 -9.5t41 -24t24 -33t8 -36.5h-73q2 21 -2.5 34.5t-12.5 20.5t-17.5 9.5t-17.5 2.5q-27 0 -45.5 -18t-30 -44.5t-16.5 -55.5t-5 -50q0 -25 12.5 -46t44.5 -21q10 0 20.5 1.5t20 8.5t18 19.5t14.5 35.5h72q-10 -30 -25.5 -49.5t-35 -31.5t-41.5 -16.5
t-43 -4.5q-34 0 -59.5 10.5t-42.5 28t-25.5 41t-8.5 49.5q0 39 12.5 71.5t34.5 56.5t53 37.5t67 13.5z" />
    <glyph glyph-name="d.inferior" horiz-adv-x="400" 
d="M267 236q3 13 1 17t-16 5l-31 2l4 22h128l-19 -89l-58 -269q-2 -13 -0.5 -17t15.5 -6l23 -2l-5 -22l-117 -8l15 56h-2q-14 -26 -42 -44t-61 -18q-50 0 -77 35.5t-27 87.5q0 42 12.5 76t33.5 58t49 37.5t58 13.5q34 0 57 -18.5t31 -55.5h1l13 72zM136 -93q16 0 32.5 12
t29.5 32t21 46t8 54q0 37 -15.5 57t-40.5 20q-17 0 -33 -10.5t-28.5 -29.5t-20.5 -45t-8 -57q0 -27 5 -42.5t12.5 -23.5t17.5 -10.5t20 -2.5z" />
    <glyph glyph-name="e.inferior" horiz-adv-x="371" 
d="M134 -138q-34 0 -59.5 10.5t-42.5 28t-25.5 41t-8.5 49.5q0 39 12.5 71.5t35 56.5t53.5 37.5t68 13.5q31 0 58 -9t45.5 -28.5t27 -49.5t2.5 -72h-219q-3 -26 -3 -45q0 -25 12 -46t44 -21q61 0 77 63h71q-20 -56 -59 -78t-89 -22zM168 136q-34 0 -54 -23.5t-27 -62.5h137
q6 47 -10.5 66.5t-45.5 19.5z" />
    <glyph glyph-name="f.inferior" horiz-adv-x="273" 
d="M145 -130h-173l4 22l24 4q14 1 18 5t6 16l45 209h-41l7 40h42l2 7q7 33 15.5 54t23.5 33.5t40.5 17t67.5 4.5h50l-9 -41h-67q-20 0 -27.5 -10t-10.5 -22l-9 -43h99l-9 -40h-98l-44 -207q-2 -14 0 -18t13 -5l35 -3z" />
    <glyph glyph-name="g.inferior" horiz-adv-x="379" 
d="M275 135q17 -22 17 -57q0 -24 -11 -44t-30.5 -35t-46.5 -23t-60 -8q-24 0 -43 6q-4 -3 -2 -6.5t2 -8.5q0 -11 8 -15.5t17 -5.5l83 -6q34 -3 58.5 -18t24.5 -42q0 -24 -19 -43.5t-46.5 -34t-58.5 -22.5t-56 -8q-36 0 -60.5 5t-39 13t-21 18.5t-6.5 22.5q0 11 7.5 21
t19.5 18t26 13.5t28 7.5q-17 6 -25.5 19.5t-8.5 27.5q0 23 18 33t39 15q-44 22 -44 81q0 49 40.5 80t105.5 31q12 0 23.5 -2t21.5 -5l126 2l-9 -40zM178 142q-19 0 -30.5 -9t-18 -23.5t-9 -32.5t-2.5 -36q0 -21 9.5 -33.5t30.5 -12.5q19 0 30.5 9.5t18 24.5t9 33t2.5 36
q0 20 -9.5 32t-30.5 12zM79 -119q-11 -8 -16.5 -21.5t-5.5 -27.5t14.5 -25.5t43.5 -11.5q15 0 31.5 3t30.5 9.5t23.5 17t9.5 24.5q0 15 -14.5 20.5t-27.5 6.5l-88 5h-1z" />
    <glyph glyph-name="h.inferior" horiz-adv-x="408" 
d="M-17 -108l23 4q14 1 18 5t6 16l69 319q2 13 0 16.5t-15 5.5l-23 2l4 22h119l-18 -87l-5 -17l-14 -65q18 32 45 45t59 13q28 0 43 -9.5t21 -26.5t4.5 -39.5t-6.5 -49.5l-27 -129q-3 -12 -0.5 -15.5t14.5 -5.5l23 -4l-4 -22h-162l4 22l26 4q12 1 15.5 5t6.5 16l24 115
q6 30 7.5 48t-1.5 28t-11 13.5t-21 3.5q-32 0 -49.5 -26.5t-28.5 -76.5l-22 -105q-4 -12 -1 -16t14 -5l24 -4l-5 -22h-161z" />
    <glyph glyph-name="i.inferior" horiz-adv-x="229" 
d="M108 282h76l-17 -80h-75zM141 80l-34 -163q-2 -12 0 -16t14 -5l23 -4l-4 -22h-162l5 22l23 4q14 1 18 5t6 16l44 205q2 12 -0.5 15t-14.5 4l-23 2l5 23h119z" />
    <glyph glyph-name="j.inferior" horiz-adv-x="223" 
d="M115 282h76l-17 -80h-77zM80 122q2 12 0 15t-14 4l-23 2l4 23h119l-19 -86l-39 -185q-9 -44 -20.5 -69.5t-26.5 -38.5t-35.5 -17t-48.5 -4h-38l10 46h38q9 0 14 2t9 9t8 21.5t9 40.5z" />
    <glyph glyph-name="k.inferior" horiz-adv-x="381" 
d="M184 283l-19 -89l-38 -181l140 112q2 2 -1.5 8t-14.5 8l-33 5l6 21h155l-5 -21l-33 -5q-7 -1 -14.5 -7.5t-26.5 -21.5l-91 -70l61 -129q2 -4 6.5 -9.5t17.5 -7.5l14 -3l-5 -22h-99l-53 125l-33 -26l-11 -52q-2 -12 0 -16t14 -5l23 -4l-4 -22h-162l5 22l23 4q14 1 18 5
t6 16l69 319q2 13 0 16.5t-15 5.5l-23 2l4 22h119z" />
    <glyph glyph-name="l.inferior" horiz-adv-x="231" 
d="M184 282l-19 -89l-58 -276q-2 -12 0 -16t14 -5l23 -4l-4 -22h-162l5 22l23 4q14 1 18 5t6 16l69 319q2 13 0 16.5t-15 5.5l-23 2l4 22h119z" />
    <glyph glyph-name="m.inferior" horiz-adv-x="566" 
d="M310 110q19 28 43 44.5t62 16.5q24 0 37.5 -9.5t19 -26.5t4.5 -39.5t-6 -49.5l-28 -129q-2 -12 0 -16t14 -5l24 -4l-4 -22h-162l4 22l25 4q13 1 16.5 5t7.5 16l24 115q6 30 7 48t-1.5 28t-8 13.5t-13.5 3.5q-29 0 -48.5 -26.5t-29.5 -76.5l-22 -105q-4 -12 -1 -16t15 -5
l23 -4l-4 -22h-162l4 22l25 4q13 1 17 5t6 16l24 115q7 30 8.5 48t-1 28t-8.5 13.5t-14 3.5q-29 0 -48 -26.5t-29 -76.5l-23 -105q-3 -12 -1 -16t15 -5l24 -4l-4 -22h-161l4 22l23 4q14 1 17.5 5t6.5 16l43 205q2 12 0 15t-13 4l-25 2l6 23h118l-13 -53h1q18 32 45.5 45
t52.5 13t43 -12t20 -49h1z" />
    </font>
</defs>
</svg>
