<?xml version="1.0" standalone="no"?>
<!DOCTYPE svg PUBLIC "-//W3C//DTD SVG 1.1//EN" "http://www.w3.org/Graphics/SVG/1.1/DTD/svg11.dtd" >
<svg xmlns="http://www.w3.org/2000/svg" xmlns:xlink="http://www.w3.org/1999/xlink" version="1.1">
<metadata>
Created by Christoph Koeberlin (http://christoph.koe.berlin)
Copyright (c) 2014 Swiss Typefaces Sa`rl. All rights reserved.
</metadata>
<defs>
<font id="Font" horiz-adv-x="300" >
  <font-face 
    font-family="Font"
    font-weight="300"
    font-style="italic"
    font-stretch="normal"
    units-per-em="1000"
    panose-1="2 0 3 4 6 0 0 0 0 0"
    ascent="800"
    descent="-200"
    x-height="538"
    cap-height="725"
    bbox="-85 -228 1203 932"
    underline-thickness="50"
    underline-position="-60"
    slope="-12"
    unicode-range="U+0020-FB02"
  />
<missing-glyph horiz-adv-x="500" 
d="M0 725h500v-725h-500v725zM19 696v-667l220 333zM481 29v667l-221 -334zM33 19h433l-216 327zM250 378l216 328h-433z" />
    <glyph glyph-name="ellipsis" unicode="&#x2e;&#x2e;&#x2e;" horiz-adv-x="899" 
d="M60 119h120l-25 -119h-120zM355 119h120l-25 -119h-120zM650 119h120l-25 -119h-120z" />
    <glyph glyph-name=".notdef" horiz-adv-x="500" 
d="M0 725h500v-725h-500v725zM19 696v-667l220 333zM481 29v667l-221 -334zM33 19h433l-216 327zM250 378l216 328h-433z" />
    <glyph glyph-name=".null" horiz-adv-x="0" 
 />
    <glyph glyph-name="nonmarkingreturn" horiz-adv-x="290" 
 />
    <glyph glyph-name="space" unicode=" " horiz-adv-x="290" 
 />
    <glyph glyph-name="exclam" unicode="!" horiz-adv-x="267" 
d="M305 725l-50 -200l-95 -311h-37l37 313l49 198h96zM67 119h120l-25 -119h-120z" />
    <glyph glyph-name="quotedbl" unicode="&#x22;" horiz-adv-x="362" 
d="M243 725l-32 -243h-31l-32 243h95zM407 725l-32 -243h-31l-32 243h95z" />
    <glyph glyph-name="numbersign" unicode="#" horiz-adv-x="634" 
d="M185 523l29 202h63l-29 -202h177l29 202h63l-29 -202h138l-8 -60h-138l-25 -175h139l-9 -60h-138l-32 -228h-64l32 228h-177l-32 -228h-63l32 228h-139l9 60h139l25 175h-140l8 60h140zM215 288h177l25 175h-177z" />
    <glyph glyph-name="dollar" unicode="$" horiz-adv-x="626" 
d="M535 535q0 54 -26.5 93t-79.5 55l-58 -271l10 -3q39 -15 75.5 -33t65 -42t46 -56.5t17.5 -77.5q0 -50 -23.5 -89.5t-63.5 -67t-93 -42t-111 -14.5h-13l-21 -99h-51l22 104q-99 16 -154 78t-54 156h94q0 -32 5.5 -62t19.5 -54.5t38 -42.5t61 -25l65 302l-35 14
q-35 13 -66 31.5t-53.5 43t-35.5 55.5t-13 70q0 36 17.5 69.5t51.5 59t84 40.5t116 15h9.5t9.5 -1l24 113h51l-26 -119q39 -8 73 -24.5t60 -42t40.5 -58.5t14.5 -74zM493 182q0 30 -11.5 52.5t-31 39.5t-45 29t-52.5 23l-62 -289h4q42 0 78 8t63 25.5t42 45t15 66.5z
M189 573q0 -26 9 -46.5t24.5 -37t35.5 -28.5t41 -20l25 -10l56 260q-5 1 -8.5 1h-8.5q-36 0 -67.5 -7t-55 -21.5t-37.5 -37t-14 -53.5z" />
    <glyph glyph-name="percent" unicode="%" horiz-adv-x="938" 
d="M732 406q65 0 105.5 -41.5t40.5 -117.5q0 -45 -13 -91.5t-39 -84t-64 -61t-89 -23.5q-69 0 -110 41.5t-41 117.5q0 45 13.5 91t39.5 83.5t65.5 61.5t91.5 24zM731 372q-39 0 -65 -25.5t-42 -62.5t-23 -77.5t-7 -71.5q0 -54 20.5 -84t58.5 -30q39 0 64.5 25.5t40.5 62.5
t21.5 78t6.5 72q0 53 -18.5 83t-56.5 30zM192 0l507 725h70l-507 -725h-70zM290 742q65 0 105.5 -41.5t40.5 -117.5q0 -45 -13 -91.5t-39 -84t-64 -61t-89 -23.5q-69 0 -110 41.5t-41 117.5q0 45 13.5 91t39.5 83.5t65.5 61.5t91.5 24zM289 708q-39 0 -65 -25.5t-42 -62.5
t-23 -77.5t-7 -71.5q0 -54 20.5 -84t58.5 -30q39 0 64.5 25.5t40.5 62.5t21.5 78t6.5 72q0 53 -18.5 83t-56.5 30z" />
    <glyph glyph-name="ampersand" unicode="&#x26;" horiz-adv-x="798" 
d="M650 34l-68 -47l-89 131q-29 -29 -58.5 -53t-62.5 -41.5t-69.5 -27t-78.5 -9.5q-47 0 -86.5 14.5t-68 41.5t-44 64.5t-15.5 82.5q0 57 24.5 96.5t63 67t86 45.5t94.5 33q-27 41 -50 84.5t-23 89.5q0 40 19.5 68t49.5 45.5t67 25.5t72 8q45 0 78 -10t55.5 -26.5t33.5 -39
t11 -47.5q0 -38 -22 -68.5t-54.5 -54.5t-70 -43t-68.5 -32l148 -215q27 30 54 64.5t57 76.5q27 38 28.5 53t-24.5 17l-58 3l8 32h240l-8 -32l-30 -2q-15 -1 -26 -5t-21.5 -12t-22.5 -22t-29 -36q-10 -14 -26.5 -34.5t-35.5 -44.5t-40 -49t-40 -47zM103 195q0 -27 8.5 -54.5
t26.5 -50t45.5 -36.5t64.5 -14q59 0 109.5 29.5t108.5 87.5l-171 250q-41 -13 -76.5 -30.5t-61 -42.5t-40 -59t-14.5 -80zM517 625q0 23 -8.5 40t-23 28.5t-33.5 17t-40 5.5q-52 0 -86.5 -24t-34.5 -76q0 -20 4 -37.5t12 -35t20 -37.5t29 -44l2 -4q78 29 118.5 70.5
t40.5 96.5z" />
    <glyph glyph-name="quotesingle" unicode="'" horiz-adv-x="199" 
d="M243 725l-32 -243h-31l-32 243h95z" />
    <glyph glyph-name="parenleft" unicode="(" horiz-adv-x="252" 
d="M96 -189q-32 78 -54 157t-22 159q0 72 13.5 138.5t36 127t51 113.5t59 98t59.5 80.5t53 60.5h45q-62 -87 -107 -166.5t-73.5 -155.5t-42 -152t-13.5 -156q0 -70 9.5 -145t26.5 -159h-41z" />
    <glyph glyph-name="parenright" unicode=")" horiz-adv-x="250" 
d="M-80 -189q62 87 107 166.5t73.5 155.5t42 152t13.5 156q0 70 -9.5 144.5t-26.5 159.5h40q33 -78 55 -157t22 -159q0 -72 -13.5 -138.5t-36 -127t-51 -114t-59 -98t-60 -80t-52.5 -60.5h-45z" />
    <glyph glyph-name="asterisk" unicode="*" horiz-adv-x="395" 
d="M298 605l122 39l17 -50l-122 -39l75 -103l-43 -32l-75 103l-74 -102l-44 31l74 102l-120 40l15 51l121 -40v120h54v-120z" />
    <glyph glyph-name="plus" unicode="+" horiz-adv-x="705" 
d="M321 0v246h-246v60h246v232h63v-232h246v-60h-246v-246h-63z" />
    <glyph glyph-name="comma" unicode="," horiz-adv-x="306" 
d="M56 119h120l-27 -127l-108 -158h-48l91 166h-53z" />
    <glyph glyph-name="hyphen" unicode="-" horiz-adv-x="327" 
d="M36 318h281l-17 -82h-281z" />
    <glyph glyph-name="period" unicode="." horiz-adv-x="309" 
d="M60 119h120l-25 -119h-120z" />
    <glyph glyph-name="slash" unicode="/" horiz-adv-x="359" 
d="M-2 0l294 725h64l-294 -725h-64z" />
    <glyph glyph-name="zero" unicode="0" horiz-adv-x="659" 
d="M287 -13q-62 0 -107.5 19.5t-76.5 55t-46 84t-15 106.5q0 52 9 108.5t28.5 111t49 103.5t69.5 86t91.5 59t115.5 22q61 0 107 -19.5t76.5 -55t45.5 -84t15 -106.5q0 -52 -9 -108.5t-28.5 -111t-48.5 -103.5t-69.5 -86t-92 -59t-114.5 -22zM291 37q48 0 87 20.5t68.5 55.5
t51 81t35.5 96t20.5 101.5t6.5 98.5q0 93 -37 147.5t-123 54.5q-48 0 -86.5 -20.5t-68.5 -55.5t-51.5 -80.5t-35 -96t-20 -102t-6.5 -98.5q0 -46 8.5 -83.5t27.5 -63.5t49.5 -40.5t73.5 -14.5z" />
    <glyph glyph-name="one" unicode="1" horiz-adv-x="422" 
d="M220 60q-3 -14 2.5 -17.5t20.5 -5.5l51 -4l-6 -33h-281l7 33l86 4q16 1 23 5t11 18l118 555h-169l7 30q53 5 90.5 12t65 17.5t47.5 25.5t38 35h32l-39 -183z" />
    <glyph glyph-name="two" unicode="2" horiz-adv-x="625" 
d="M527 78l-17 -78h-534l13 63q123 76 222.5 141t170 125t108.5 119t38 124q0 59 -36 90t-100 31q-92 0 -140.5 -49t-58.5 -157h-88q6 67 31.5 115.5t65 79.5t89 45.5t102.5 14.5q46 0 87.5 -10.5t72.5 -32t49 -53.5t18 -74q0 -49 -23.5 -94.5t-64 -88.5t-93.5 -83
t-111.5 -78.5t-119.5 -75.5t-116 -74h435z" />
    <glyph glyph-name="three" unicode="3" horiz-adv-x="625" 
d="M281 -13q-59 0 -107.5 16t-82.5 43.5t-52.5 64.5t-18.5 79h91q0 -32 10 -60t31 -48.5t53 -32.5t76 -12q34 0 67.5 8.5t60 28t43 51t16.5 76.5q0 44 -14 74t-40.5 48t-63 26t-81.5 8h-22l10 46h22q39 0 82 11t79 33.5t59 57.5t23 82q0 51 -38 78.5t-103 27.5
q-81 0 -128 -41.5t-57 -114.5h-91q8 47 32.5 85t61.5 64.5t86 41t106 14.5q43 0 83.5 -10t71.5 -29.5t49.5 -48.5t18.5 -67q0 -43 -20 -77t-52.5 -58.5t-72.5 -40.5t-80 -23v-1q37 -6 68.5 -21t54 -37t35.5 -51t13 -63q0 -57 -25 -100t-64.5 -71.5t-89.5 -42.5t-100 -14z
" />
    <glyph glyph-name="four" unicode="4" horiz-adv-x="662" 
d="M206 0l6 33l86 4q16 1 23.5 5t10.5 18l31 145h-367l12 59l479 461h73l-39 -182l-57 -268h145l-14 -70h-146l-30 -145q-4 -14 2 -17.5t20 -5.5l52 -4l-7 -33h-280zM451 621l-360 -346h287z" />
    <glyph glyph-name="five" unicode="5" horiz-adv-x="645" 
d="M590 269q0 -60 -22 -112t-62 -89.5t-96.5 -59t-126.5 -21.5q-57 0 -102 17.5t-76.5 46.5t-49 65t-19.5 74h91q0 -33 9.5 -61t28 -48.5t47.5 -32.5t70 -12q51 0 91 17t67.5 46.5t41.5 69t14 84.5q0 89 -44 133.5t-118 44.5q-57 0 -109.5 -28t-84.5 -93l-50 12l132 403h418
l-23 -79h-370l-83 -255q35 51 88 73.5t109 22.5q50 0 92 -13.5t72.5 -40.5t47.5 -68t17 -96z" />
    <glyph glyph-name="six" unicode="6" horiz-adv-x="648" 
d="M349 427q-47 0 -87 -19t-69.5 -51.5t-46.5 -75.5t-17 -90q0 -72 41 -113.5t113 -41.5q45 0 83 19t66.5 50.5t44.5 73.5t16 87q0 31 -8.5 60t-26.5 51.5t-45 36t-64 13.5zM371 483q49 0 88.5 -15.5t67.5 -43t43.5 -65t15.5 -81.5q0 -60 -25 -112.5t-67 -92.5t-97 -63
t-115 -23q-59 0 -102 18t-71 51t-42 78.5t-14 101.5q0 54 11.5 112.5t34 115t55 107t74.5 88.5t93 60.5t111 22.5q93 0 150.5 -46.5t63.5 -137.5h-91q-1 69 -34 102t-99 33q-48 0 -90.5 -27t-76.5 -72t-59 -104.5t-39 -125.5q22 34 49 57t55 37t56.5 19.5t53.5 5.5z" />
    <glyph glyph-name="seven" unicode="7" horiz-adv-x="531" 
d="M81 725h523l-17 -80q-65 -43 -140 -104t-142 -141.5t-115.5 -180t-59.5 -219.5h-105q21 120 72.5 215.5t120 172.5t148.5 139.5t160 116.5h-462z" />
    <glyph glyph-name="eight" unicode="8" horiz-adv-x="668" 
d="M318 -13q-63 0 -114 14.5t-87.5 40.5t-56.5 62t-20 79q0 45 19.5 79t52 59t75 40.5t88.5 24.5q-26 15 -49 33t-40 40t-27 47.5t-10 55.5q0 46 20.5 80t54.5 56t77.5 33t90.5 11q51 0 96 -11t78 -31.5t52.5 -49.5t19.5 -66q0 -39 -17 -69.5t-45 -54.5t-63 -40.5t-72 -26.5
l2 -1q29 -15 57 -33.5t49.5 -41.5t35 -51t13.5 -61q0 -46 -19.5 -86t-56 -69t-88.5 -46t-116 -17zM124 190q0 -37 15.5 -66t42 -48.5t62.5 -29.5t77 -10q37 0 71 10t60.5 29.5t42 47.5t15.5 64q0 49 -37.5 82.5t-97.5 64.5l-60 31q-96 -23 -143.5 -64.5t-47.5 -110.5z
M559 573q0 29 -13.5 51.5t-37 37.5t-56 23t-69.5 8q-29 0 -56.5 -6.5t-49 -20t-34.5 -34.5t-13 -51q0 -28 12.5 -50.5t32 -40.5t42.5 -32.5t44 -24.5l36 -19q76 20 119 57.5t43 101.5z" />
    <glyph glyph-name="nine" unicode="9" horiz-adv-x="648" 
d="M322 302q46 0 86.5 19.5t69.5 52t46 75t17 89.5q0 72 -41 113.5t-112 41.5q-45 0 -83.5 -19t-66.5 -50.5t-44 -73.5t-16 -87q0 -70 37.5 -115.5t106.5 -45.5zM249 36q48 0 90.5 27t76.5 72t59 105t39 126q-22 -35 -49 -58t-55 -36.5t-56.5 -19t-53.5 -5.5q-38 0 -76.5 13
t-69 40t-50 67.5t-19.5 94.5q0 60 25 111t67 88.5t97 59t115 21.5q58 0 101.5 -18t71.5 -51t42 -78.5t14 -100.5q0 -54 -11.5 -113t-34 -115.5t-55 -107t-74.5 -88.5t-93.5 -60.5t-110.5 -22.5q-93 0 -150.5 46.5t-63.5 137.5h91q1 -135 133 -135z" />
    <glyph glyph-name="colon" unicode=":" 
d="M149 538h120l-25 -119h-120zM60 119h120l-25 -119h-120z" />
    <glyph glyph-name="semicolon" unicode=";" horiz-adv-x="298" 
d="M145 538h120l-25 -119h-120zM56 119h120l-27 -127l-108 -158h-48l91 166h-53z" />
    <glyph glyph-name="equal" unicode="=" horiz-adv-x="705" 
d="M115 353v60h475v-60h-475zM115 145v60h475v-60h-475z" />
    <glyph glyph-name="question" unicode="?" horiz-adv-x="554" 
d="M362 706q-92 0 -140 -43t-55 -135h-90q5 59 29.5 101.5t63 70t90 40.5t110.5 13q48 0 89.5 -9.5t73 -28.5t49.5 -46t18 -62q0 -38 -16.5 -67.5t-43.5 -53.5t-61.5 -43t-70.5 -35q-42 -19 -68.5 -36t-42 -36t-24 -40t-14.5 -48l-6 -34h-56l8 37q8 39 20.5 70t32.5 56
t49.5 45.5t71.5 39.5q60 26 93.5 59t33.5 84q0 27 -11.5 46t-31 31.5t-45.5 18t-56 5.5zM149 119h120l-25 -119h-120z" />
    <glyph glyph-name="at" unicode="@" horiz-adv-x="850" 
d="M636 161q-48 0 -75 31t-29 79q-23 -48 -64 -76.5t-99 -28.5q-30 0 -56 10t-45.5 31.5t-31 54.5t-11.5 78q0 46 15 89t42 76t66 53t87 20q51 0 80.5 -28.5t38.5 -66.5l11 76h51l-33 -230q-3 -18 -2 -38.5t7.5 -38t19.5 -28.5t35 -11q47 0 80 51.5t33 146.5q0 69 -23 120.5
t-63.5 86t-96.5 51.5t-122 17q-77 0 -139.5 -26t-107 -71t-69 -106t-24.5 -131q0 -68 21 -125.5t60 -98.5t95 -64t126 -23q50 0 103.5 11t98.5 32l20 -52q-50 -22 -110.5 -33.5t-111.5 -11.5q-82 0 -148.5 27t-114 76t-73 116.5t-25.5 147.5q0 81 30 151t83.5 121.5
t126.5 81t160 29.5q77 0 143 -20.5t114 -61t75.5 -101t27.5 -140.5q0 -61 -15 -108t-39.5 -79.5t-56.5 -49t-65 -16.5zM435 524q-33 0 -60.5 -15t-47 -40.5t-30.5 -59t-11 -71.5q0 -61 26.5 -90.5t71.5 -29.5q34 0 61.5 16t46.5 42t29.5 60.5t10.5 71.5q0 57 -25 86.5
t-72 29.5z" />
    <glyph glyph-name="A" unicode="A" horiz-adv-x="742" 
d="M441 732h71l117 -646q4 -27 13.5 -38t41.5 -14l11 -1l-7 -33h-262l7 33l46 3q20 1 32 3.5t17.5 8.5t6.5 16t-2 26l-24 134h-315l-60 -101q-17 -28 -24 -44.5t-5.5 -26t12 -13t28.5 -4.5l40 -2l-7 -33h-224l7 33l13 2q18 3 30 7t23 15.5t24 31.5t33 54zM224 273h276
l-64 354z" />
    <glyph glyph-name="B" unicode="B" horiz-adv-x="682" 
d="M149 725h121h48.5t46.5 0.5t40.5 0.5h29.5q121 0 182 -39t61 -116q0 -36 -16 -66.5t-43 -54.5t-62.5 -41.5t-74.5 -27.5v-2q29 -6 57 -16.5t50 -29t35.5 -45.5t13.5 -66q0 -62 -32 -104.5t-82.5 -68.5t-113 -38t-124.5 -12h-167q-57 0 -122 1l7 34l56 4q17 2 24 6t10 17
l128 603q3 13 -2.5 17.5t-20.5 5.5l-57 4zM258 400h100q42 0 82 10t71 30t50 50t19 71q0 63 -40 90.5t-128 27.5h-95zM183 46h103q48 0 93.5 9t80 30t55.5 55t21 84q0 38 -12.5 62.5t-36.5 38.5t-58.5 19.5t-77.5 5.5h-104z" />
    <glyph glyph-name="C" unicode="C" horiz-adv-x="740" 
d="M456 742q55 0 105 -16t89 -46.5t63 -74t27 -98.5h-94q-4 85 -52.5 135t-147.5 50q-62 0 -114.5 -30t-91.5 -83.5t-61 -126t-22 -156.5q0 -57 12.5 -105t38.5 -82t66 -53t94 -19q89 0 154 46.5t85 141.5h94q-12 -55 -42.5 -99t-75 -75t-101 -47.5t-120.5 -16.5
q-65 0 -121 21.5t-97 62t-65 99t-24 131.5q0 84 27 163.5t78.5 141t126 99t169.5 37.5z" />
    <glyph glyph-name="D" unicode="D" horiz-adv-x="766" 
d="M650 433q0 77 -24 125t-63 75t-87.5 36.5t-97.5 9.5h-61l-134 -633h96q37 0 79 7t83.5 24.5t79 46t66.5 71.5t46 101.5t17 136.5zM102 -1q-50 0 -105 1l7 34l56 4q17 2 24 6t10 17l128 603q3 13 -2.5 17.5t-20.5 5.5l-57 4l7 34h103q41 0 80.5 0.5t58.5 0.5
q72 0 137 -15.5t114.5 -50t79 -90t29.5 -134.5q0 -123 -43 -206.5t-112.5 -134.5t-157.5 -73.5t-179 -22.5h-157z" />
    <glyph glyph-name="E" unicode="E" horiz-adv-x="690" 
d="M710 725l-45 -214h-34l8 98q1 25 -2 39t-14.5 20.5t-32 8t-53.5 1.5h-220l-59 -279h280l-11 -51h-280l-64 -301h228q33 0 53.5 1t34.5 8t23.5 21.5t18.5 40.5l35 96h33l-45 -214h-567l7 34l56 4q17 2 24 6t10 17l128 603q3 13 -2.5 17.5t-20.5 5.5l-57 4l7 34h561z" />
    <glyph glyph-name="F" unicode="F" horiz-adv-x="624" 
d="M699 725l-45 -214h-34l8 98q1 25 -2 39t-14.5 20.5t-31.5 8t-53 1.5h-210l-59 -279h269l-11 -51h-269l-61 -286q-2 -13 3 -17.5t21 -5.5l89 -4l-7 -35h-295l7 34l56 4q17 2 24 6t10 17l128 603q3 13 -2.5 17.5t-20.5 5.5l-57 4l7 34h550z" />
    <glyph glyph-name="G" unicode="G" horiz-adv-x="779" 
d="M362 -13q-65 0 -121 21.5t-97 62t-65 99t-24 131.5q0 84 27 163.5t78.5 141t126 99t169.5 37.5q55 0 105 -16t89 -46.5t63 -74t27 -98.5h-94q-4 85 -52.5 135t-147.5 50q-62 0 -114.5 -30t-91.5 -83.5t-61 -126t-22 -156.5q0 -57 12.5 -105t38.5 -82t66 -53t94 -19
q40 0 80 11t74 37.5t60 69.5t39 107l9 46h-149l10 47h235l-75 -355h-52v100q-34 -51 -93 -82t-144 -31z" />
    <glyph glyph-name="H" unicode="H" horiz-adv-x="857" 
d="M671 61q-4 -13 2 -17.5t21 -5.5l57 -4l-7 -34h-263l7 34l57 4q17 2 24 6t10 17l63 298h-393l-63 -298q-3 -13 2.5 -17.5t20.5 -5.5l56 -4l-7 -34h-261l7 34l56 4q17 2 24 6t10 17l128 603q3 13 -2.5 17.5t-20.5 5.5l-57 4l7 34h262l-7 -34l-57 -4q-16 -2 -23 -6t-10 -17
l-54 -255h393l54 255q3 13 -3 17.5t-20 5.5l-57 4l7 34h263l-7 -34l-57 -4q-17 -2 -23.5 -6t-10.5 -17z" />
    <glyph glyph-name="I" unicode="I" horiz-adv-x="371" 
d="M258 0h-261l7 34l56 4q17 2 24 6t10 17l128 603q3 13 -2.5 17.5t-20.5 5.5l-57 4l7 34h262l-7 -34l-57 -4q-16 -1 -23 -5.5t-10 -17.5l-128 -603q-3 -13 2.5 -17.5t20.5 -5.5l56 -4z" />
    <glyph glyph-name="J" unicode="J" horiz-adv-x="388" 
d="M236 165q-12 -59 -27.5 -92t-40.5 -49.5t-62 -20t-93 -3.5h-45l13 63h45q34 0 54 2.5t31.5 12t17.5 28t13 51.5l108 507q3 13 -3 17.5t-20 5.5l-57 4l7 34h263l-7 -34l-57 -4q-17 -1 -24 -5.5t-10 -17.5z" />
    <glyph glyph-name="K" unicode="K" horiz-adv-x="760" 
d="M247 351l347 281q32 26 33.5 39.5t-22.5 15.5l-54 4l7 34h262l-7 -34l-32 -2q-16 -1 -28 -4.5t-27 -12.5t-35 -24.5t-51 -40.5l-213 -168l172 -357q10 -21 24.5 -32.5t45.5 -13.5l31 -2l-7 -34h-279l7 34l50 4q27 2 31 12.5t-10 40.5l-137 291l-122 -96l-47 -225
q-3 -13 2 -17.5t20 -5.5l57 -4l-7 -34h-261l7 34l55 4q17 1 24.5 5.5t10.5 17.5l128 603q3 13 -2.5 17.5t-20.5 5.5l-57 4l7 34h262l-7 -34l-57 -4q-16 -1 -23 -5.5t-10 -17.5z" />
    <glyph glyph-name="L" unicode="L" horiz-adv-x="631" 
d="M4 34l56 4q17 2 24 6t10 17l128 603q3 13 -2.5 17.5t-20.5 5.5l-57 4l7 34h272l-7 -34l-67 -4q-16 -1 -23 -5.5t-10 -17.5l-131 -617h217q33 0 53.5 1t34 8t23 21.5t18.5 40.5l35 96h33l-45 -214h-555z" />
    <glyph glyph-name="M" unicode="M" horiz-adv-x="991" 
d="M804 61q-3 -13 2.5 -17.5t20.5 -5.5l56 -4l-7 -34h-262l7 34l57 4q17 2 24 6t10 17l128 601l-400 -662h-43l-119 662l-123 -576q-3 -15 -3.5 -24.5t3 -15t12.5 -7.5t25 -3l38 -2l-7 -34h-226l7 34l36 2q16 1 26 3t16.5 7.5t10.5 15t7 24.5l123 577q5 21 -24 24l-57 4
l7 34h213l100 -593l356 593h212l-7 -34l-56 -4q-17 -2 -25 -8t-10 -16l-128 -602v0z" />
    <glyph glyph-name="N" unicode="N" horiz-adv-x="813" 
d="M622 -10h-58l-296 625l-113 -529q-3 -15 -3.5 -24.5t3 -15t12.5 -7.5t25 -3l38 -2l-7 -34h-226l7 34l36 2q16 1 26 3t16.5 7.5t10.5 15t7 24.5l123 577q2 10 -3 16t-20 8l-57 4l7 34h161l284 -598l109 512q3 15 4 24.5t-3 15t-13 7.5t-25 3l-38 2l7 34h227l-7 -34l-36 -2
q-16 -1 -26 -3t-16.5 -7.5t-10.5 -15t-7 -24.5z" />
    <glyph glyph-name="O" unicode="O" horiz-adv-x="762" 
d="M456 742q64 0 119.5 -21t96 -61t64 -97.5t23.5 -130.5q0 -84 -27 -164.5t-78.5 -142.5t-126 -100t-168.5 -38q-65 0 -120.5 21.5t-96 61.5t-64 97.5t-23.5 129.5q0 84 27 164.5t78.5 142.5t126 100t169.5 38zM446 692q-62 0 -114.5 -30t-91.5 -83.5t-61 -126t-22 -156.5
q0 -57 12.5 -105t38.5 -82t66 -53t94 -19q61 0 114 30.5t92 83.5t61.5 125.5t22.5 156.5q0 57 -12.5 105t-39 82t-66.5 53t-94 19z" />
    <glyph glyph-name="P" unicode="P" horiz-adv-x="626" 
d="M400 727q59 0 108 -10.5t84 -33t54.5 -58t19.5 -85.5q0 -68 -29.5 -115.5t-78.5 -78t-113.5 -44.5t-133.5 -14h-77l-48 -228q-2 -9 2.5 -15.5t20.5 -7.5l79 -3l-7 -34h-284l7 34l56 4q16 1 23.5 5.5t10.5 17.5l128 603q2 13 -3 17.5t-21 5.5l-56 4l7 34q57 0 107 1h43
t41.5 0.5t35 0.5h24.5zM318 680l-74 -345h88q49 0 92 12.5t75 38t50 63.5t18 89q0 69 -42.5 105.5t-119.5 36.5h-87z" />
    <glyph glyph-name="Q" unicode="Q" horiz-adv-x="775" 
d="M456 742q64 0 119.5 -21t96 -61t64 -97.5t23.5 -130.5q0 -64 -15.5 -126t-45.5 -116t-74 -97t-101 -70l44 -93l-50 -29l-48 101q-26 -7 -53.5 -11t-56.5 -4q-65 0 -120.5 21.5t-96 61.5t-64 97.5t-23.5 129.5q0 84 27 164.5t78.5 142.5t126 100t169.5 38zM448 182
l50 -106q36 24 65.5 60.5t50.5 82t32.5 100t11.5 114.5q0 57 -12.5 105t-39 82t-66.5 53t-94 19q-62 0 -114.5 -30t-91.5 -83.5t-61 -126t-22 -156.5q0 -57 12.5 -105t38.5 -82t66 -53t94 -19q42 0 78 13l-48 103z" />
    <glyph glyph-name="R" unicode="R" horiz-adv-x="710" 
d="M150 725h108h43t41.5 0.5t35 0.5h24.5q60 0 109.5 -9.5t85 -30t55.5 -53t20 -78.5t-15.5 -81.5t-42.5 -61.5t-63.5 -44t-78.5 -29l97 -251q6 -16 11 -26t11 -16t14.5 -8.5t22.5 -2.5l28 -1l-7 -34h-150l-29 87l-87 237q-35 -3 -67 -3h-75l-55 -259q-2 -13 3 -17.5
t20 -5.5l69 -5l-7 -34h-274l7 34l56 4q16 1 23.5 5.5t10.5 17.5l128 603q2 13 -3 17.5t-20 5.5l-57 4zM317 679l-66 -311h90q45 0 86.5 10t73.5 32.5t51 58.5t19 87q0 60 -43 91.5t-120 31.5h-91z" />
    <glyph glyph-name="S" unicode="S" horiz-adv-x="673" 
d="M553 535q0 70 -43.5 113.5t-128.5 43.5q-36 0 -67.5 -8t-55 -23.5t-37.5 -39t-14 -54.5q0 -26 9 -46t24.5 -35t35.5 -26t41 -19l82 -32q39 -15 75.5 -33t65 -42t46 -56.5t17.5 -77.5q0 -50 -23.5 -89.5t-63.5 -67t-93 -42t-111 -14.5q-63 0 -113.5 17t-85.5 48.5
t-53.5 75.5t-18.5 98h94q0 -38 7.5 -72t27.5 -60t54.5 -41.5t88.5 -15.5q42 0 78 8t63 25.5t42 45t15 66.5q0 31 -12 54t-32.5 40t-47 29.5t-54.5 23.5l-76 29q-35 13 -66 31.5t-53.5 43t-35.5 55.5t-13 70q0 36 17.5 69.5t51.5 59t84 40.5t116 15q49 0 95.5 -13.5t82 -40
t57 -65t21.5 -88.5h-93v0z" />
    <glyph glyph-name="T" unicode="T" horiz-adv-x="689" 
d="M748 725l-45 -210h-34l7 99q1 25 -2 38.5t-14 20t-31.5 8t-53.5 1.5h-94l-132 -621q-2 -13 3.5 -17.5t20.5 -5.5l88 -4l-7 -34h-330l7 34l93 4q16 1 23 5.5t10 17.5l132 621h-93q-33 0 -54 -1.5t-35.5 -8t-23.5 -20t-18 -38.5l-35 -99h-34l45 210h607z" />
    <glyph glyph-name="U" unicode="U" horiz-adv-x="822" 
d="M377 -13q-82 0 -135 21.5t-81.5 62t-33 99t10.5 131.5l77 363q3 13 -2 17.5t-20 5.5l-56 4l7 34h262l-7 -34l-58 -4q-16 -1 -24 -5.5t-10 -17.5l-79 -370q-12 -54 -11.5 -99t18 -77t53.5 -50t96 -18q112 0 174.5 58.5t89.5 184.5l74 346q7 31 0.5 39.5t-38.5 10.5l-37 2
l7 34h230l-7 -34l-37 -2q-16 -1 -26 -3t-16 -7.5t-10 -15t-7 -24.5l-74 -346q-14 -68 -37.5 -124t-62 -96.5t-94.5 -63t-136 -22.5z" />
    <glyph glyph-name="V" unicode="V" horiz-adv-x="737" 
d="M340 0h-71l-108 639q-3 13 -5.5 22.5t-8 15.5t-15.5 9t-27 4l-22 1l7 34h269l-7 -34l-46 -3q-20 -1 -31.5 -3.5t-17 -8.5t-6 -15.5t1.5 -25.5l87 -537l289 504q16 28 23.5 44.5t6 26t-11.5 12.5t-29 4l-40 2l7 34h240l-7 -34l-23 -1q-18 -1 -30 -5t-23.5 -15.5
t-24.5 -32.5t-33 -55z" />
    <glyph glyph-name="W" unicode="W" horiz-adv-x="1034" 
d="M690 100l236 502q13 28 20 45t6.5 26t-9.5 12t-28 4l-40 2l7 34h240l-7 -34l-23 -1q-18 -1 -31.5 -4.5t-25.5 -14.5t-24.5 -32t-29.5 -57l-281 -582h-84l-38 597l-283 -597h-84l-50 639q-2 14 -4.5 23.5t-8.5 15.5t-16 8.5t-27 3.5l-22 1l7 34h269l-7 -34l-46 -3
q-20 -1 -31 -3.5t-16 -8t-6 -15.5t0 -26l32 -535l294 625h76z" />
    <glyph glyph-name="X" unicode="X" horiz-adv-x="784" 
d="M390 322l-211 -206q-27 -26 -40.5 -41.5t-15 -23.5t8 -11t29.5 -4l30 -2l-7 -34h-229l7 34l37 3q12 1 22 5t20.5 11.5t22.5 18.5t28 26l274 267l-151 273q-13 23 -23.5 35.5t-32.5 14.5l-35 3l7 34h268l-7 -34l-42 -3q-21 -2 -32 -5t-13.5 -9t2 -15.5t12.5 -24.5
l113 -204l184 179q27 26 40.5 41.5t15 23.5t-8.5 10.5t-30 4.5l-29 2l7 34h231l-8 -34l-37 -3q-24 -2 -43.5 -16.5t-50.5 -44.5l-247 -241l166 -299q13 -23 23.5 -35.5t32.5 -14.5l35 -3l-8 -34h-267l7 34l42 3q21 1 31.5 4t13 9t-1.5 16t-12 25z" />
    <glyph glyph-name="Y" unicode="Y" horiz-adv-x="702" 
d="M300 281l-130 363q-8 25 -18 33.5t-41 11.5l-22 2l7 34h276l-7 -34l-65 -4q-18 -1 -27.5 -10.5t-1.5 -35.5l100 -303l236 295q13 16 17 26.5t2.5 16.5t-8 8.5t-14.5 2.5l-65 4l7 34h240l-8 -34l-24 -2q-14 -1 -24 -4t-18.5 -9t-18.5 -17t-24 -28l-274 -335l-50 -235
q-3 -13 3 -17.5t22 -5.5l88 -4l-7 -34h-330l7 34l92 4q16 1 23.5 5.5t9.5 17.5z" />
    <glyph glyph-name="Z" unicode="Z" horiz-adv-x="700" 
d="M334 678q-33 0 -53.5 -1.5t-34.5 -8t-23 -20.5t-18 -39l-36 -98h-34l45 214h558l-9 -46l-628 -632h322q33 0 54 1.5t35 8t23 20.5t18 39l36 98h33l-45 -214h-593l10 47l625 631h-285v0z" />
    <glyph glyph-name="bracketleft" unicode="[" horiz-adv-x="279" 
d="M176 745h179l-10 -47h-94l-178 -840h94l-10 -47h-179z" />
    <glyph glyph-name="bracketright" unicode="]" horiz-adv-x="280" 
d="M108 -189h-179l10 47h94l179 840h-95l10 47h180z" />
    <glyph glyph-name="underscore" unicode="_" horiz-adv-x="534" 
d="M-18 0h473l-14 -67h-473z" />
    <glyph glyph-name="grave" unicode="`" horiz-adv-x="292" 
d="M149 745h131l54 -142h-35z" />
    <glyph glyph-name="a" unicode="a" horiz-adv-x="586" 
d="M400 270q-83 -6 -138.5 -17.5t-88.5 -29.5t-46.5 -43t-13.5 -58q0 -35 24 -58.5t74 -23.5q27 0 54.5 11t52.5 35t44.5 61.5t30.5 89.5zM416 359q6 27 6 47q0 27 -9 45.5t-24.5 29.5t-36.5 15.5t-45 4.5q-34 0 -58.5 -10.5t-41 -27.5t-25.5 -38.5t-11 -43.5h-87
q7 40 28 71t52 52t70 32t83 11q87 0 139.5 -36.5t52.5 -112.5q0 -30 -9 -67q-6 -25 -14 -58.5t-17 -75.5q-9 -41 -16 -73t-11 -60q-2 -14 2 -17t19 -6l43 -4l-7 -33l-146 -8l17 101h-2q-32 -47 -81.5 -78.5t-115.5 -31.5q-71 0 -111.5 35.5t-40.5 90.5q0 52 27.5 86.5t78 57
t122 35.5t160.5 22z" />
    <glyph glyph-name="b" unicode="b" horiz-adv-x="615" 
d="M55 -2h-31q12 48 24 95t22 95l106 497q2 14 -3.5 17.5t-20.5 5.5l-41 4l7 33h157l-22 -100l-28 -131q-5 -20 -10 -40.5t-11 -40.5h2q13 23 32 43.5t42 36.5t48.5 25t52.5 9q48 0 83.5 -17.5t59 -48t35 -71.5t11.5 -87q0 -75 -21.5 -137t-58 -106.5t-85.5 -68.5t-104 -24
q-66 0 -107.5 29.5t-65.5 77.5h-4zM359 493q-42 0 -77.5 -26t-61.5 -65.5t-41 -87.5t-15 -93q0 -86 31.5 -134t98.5 -48q40 0 73.5 23.5t58 62.5t38 90.5t13.5 107.5q0 37 -7 68t-21 53.5t-36.5 35.5t-53.5 13z" />
    <glyph glyph-name="c" unicode="c" horiz-adv-x="581" 
d="M43 206q0 61 22 122t62.5 109.5t97.5 79t128 30.5q94 0 146 -49t57 -131h-87q0 62 -31.5 96.5t-94.5 34.5q-56 0 -95.5 -32t-64.5 -79t-36.5 -100.5t-11.5 -96.5q0 -72 31 -113t95 -41q32 0 60.5 10.5t51.5 28.5t38.5 42t21.5 51h87q-13 -40 -38.5 -73.5t-61 -57.5
t-77.5 -37t-88 -13q-50 0 -89 16t-66.5 44.5t-42 69t-14.5 89.5z" />
    <glyph glyph-name="d" unicode="d" horiz-adv-x="635" 
d="M533 684q3 14 -2.5 17t-20.5 5l-52 5l7 34h168l-22 -100l-123 -581q-3 -14 2.5 -17.5t20.5 -5.5l41 -4l-7 -33l-154 -8l22 102h-2q-13 -23 -32 -43t-42 -35t-48.5 -24t-52.5 -9q-48 0 -83.5 17.5t-59 48t-35 71t-11.5 87.5q0 75 21.5 137t58 106t85.5 68.5t104 24.5
q60 0 103 -39t56 -102h2l23 127zM258 40q42 0 77.5 26t61.5 66t41 88t15 92q0 87 -31.5 134.5t-98.5 47.5q-40 0 -73.5 -23.5t-58 -62.5t-38 -90t-13.5 -107q0 -37 7 -68.5t21 -54t36.5 -35.5t53.5 -13z" />
    <glyph glyph-name="e" unicode="e" horiz-adv-x="590" 
d="M521 168q-13 -40 -38.5 -73.5t-60.5 -57.5t-77 -37t-88 -13q-50 0 -89.5 16t-67 44.5t-42.5 69t-15 89.5q0 53 19 113t57.5 110.5t97.5 84t140 33.5q43 0 84.5 -16t69 -50t37 -87t-11.5 -128h-395l-5.5 -38.5t-2.5 -36.5q0 -73 32.5 -114t96.5 -41q32 0 60.5 10.5
t51.5 28.5t38.5 42t21.5 51h87zM346 498q-41 0 -73 -15.5t-56 -41t-40.5 -59t-25.5 -68.5h307q10 48 5 82.5t-21 57t-41 33.5t-55 11z" />
    <glyph glyph-name="f" unicode="f" horiz-adv-x="429" 
d="M269 0h-274l7 33l41 4q17 2 24 5t10 17l91 428h-75l10 51h75l12 53q9 43 24 72.5t38 47.5t57 26t81 8h97l-13 -63h-85q-27 0 -45.5 -2.5t-31 -10t-20 -22t-12.5 -38.5l-15 -71h178l-10 -51h-179l-91 -427q-3 -14 2.5 -18t20.5 -5l90 -4z" />
    <glyph glyph-name="g" unicode="g" horiz-adv-x="594" 
d="M452 487q22 -21 35 -49.5t13 -63.5q0 -43 -16.5 -79t-45.5 -62.5t-69 -41.5t-86 -15q-29 0 -56 6q-12 -2 -30 -7.5t-34.5 -13t-28.5 -17t-12 -20.5q0 -15 18 -22.5t63 -10.5l127 -8q83 -5 121.5 -27.5t38.5 -68.5q0 -50 -30.5 -85.5t-76 -57.5t-98.5 -32t-99 -10
q-50 0 -90.5 8t-70 22.5t-45.5 34.5t-16 45q0 26 14 45t36 32.5t48 22t50 13.5q-43 11 -58.5 28.5t-15.5 39.5t14.5 39.5t36.5 30t47 21t46 13.5q-45 20 -75.5 57t-30.5 94q0 43 16.5 79.5t45.5 63t69 41.5t87 15q26 0 52.5 -6t51.5 -18l239 15l-11 -51h-174zM296 501
q-31 0 -55.5 -11.5t-41.5 -32.5t-26 -49.5t-9 -62.5q0 -60 29.5 -91.5t87.5 -31.5q31 0 55.5 11.5t41.5 32.5t26 49.5t9 62.5q0 60 -30 91.5t-87 31.5zM143 19q-17 -5 -36 -12.5t-34.5 -18t-26 -25t-10.5 -33.5q0 -39 38 -59.5t119 -20.5q15 0 37 1.5t46 6t48.5 12.5
t43.5 20t31 28.5t12 38.5q0 24 -25 36t-85 16l-125 7z" />
    <glyph glyph-name="h" unicode="h" horiz-adv-x="640" 
d="M-8 33l42 4q16 2 23 5.5t10 17.5l133 625q3 14 -3 17.5t-21 5.5l-40 4l5 33h158l-21 -100l-23 -104l-23 -107h2q33 51 78.5 82t105.5 31q46 0 75.5 -15.5t45 -41t18 -57.5t-4.5 -66l-65 -307q-2 -14 3.5 -17.5t20.5 -5.5l41 -4l-7 -33h-226l7 33l42 4q16 2 23 5.5
t10 17.5l61 286q15 72 -1.5 109t-75.5 37q-19 0 -45 -9t-53 -33.5t-51 -68.5t-39 -114l-44 -207q-2 -14 3 -17.5t21 -5.5l41 -4l-7 -33h-226z" />
    <glyph glyph-name="i" unicode="i" 
d="M233 439l-80 -378q-3 -14 2.5 -17.5t20.5 -5.5l41 -4l-7 -34h-225l7 34l41 4q17 2 24 5.5t10 17.5l88 414q3 12 -1.5 18t-21.5 8l-41 5l6 32h159zM212 745h86l-25 -119h-86z" />
    <glyph glyph-name="j" unicode="j" horiz-adv-x="320" 
d="M183 475q2 12 -2 18t-21 8l-42 5l6 32h161l-23 -99l-100 -472q-12 -54 -24.5 -85t-31 -46.5t-46.5 -20t-71 -4.5h-74l13 61h72q18 0 29.5 2t19.5 12t14.5 32t14.5 61zM241 745h86l-25 -119h-86z" />
    <glyph glyph-name="k" unicode="k" horiz-adv-x="602" 
d="M298 745l-21 -100l-79 -371l206 180q19 16 29.5 25.5t12 15t-6.5 7t-24 2.5l-36 1l7 33h219l-7 -33l-15 -1q-18 -1 -30 -2.5t-22.5 -5.5t-21 -11t-25.5 -19l-143 -123l95 -246q15 -38 32.5 -50t48.5 -13l18 -1l-6 -33h-151l-107 283l-87 -74l-31 -149q-3 -14 2.5 -17.5
t20.5 -5.5l40 -4l-6 -33h-225l7 33l41 4q17 2 24 5.5t10 17.5l133 625q3 14 -2.5 17.5t-20.5 5.5l-40 4l6 33h155z" />
    <glyph glyph-name="l" unicode="l" horiz-adv-x="301" 
d="M302 745l-21 -100l-124 -585q-3 -14 2.5 -17.5t20.5 -5.5l40 -4l-6 -33h-225l7 33l41 4q17 2 24 5.5t10 17.5l133 625q3 14 -2.5 17.5t-20.5 5.5l-40 4l6 33h155z" />
    <glyph glyph-name="m" unicode="m" horiz-adv-x="965" 
d="M560 423q34 58 83.5 91t106.5 33q44 0 72.5 -15.5t43 -41t16.5 -57.5t-5 -66l-65 -307q-3 -14 2.5 -17.5t21.5 -5.5l40 -4l-7 -33h-225l7 33l43 4q15 2 22.5 5.5t9.5 17.5l61 286q15 72 0 109t-71 37q-18 0 -43.5 -9t-51.5 -33.5t-49.5 -68.5t-38.5 -114l-44 -207
q-3 -14 3 -17.5t21 -5.5l41 -4l-7 -33h-226l7 33l42 4q16 2 23.5 5.5t9.5 17.5l61 286q15 72 -0.5 109t-70.5 37q-18 0 -43.5 -9t-51.5 -33.5t-49.5 -68.5t-38.5 -114l-44 -207q-3 -14 2.5 -17.5t21.5 -5.5l41 -4l-7 -33h-226l7 33l42 4q16 2 23.5 5.5t9.5 17.5l88 415
q4 12 -1 18t-22 8l-40 5l6 32h156l-21 -104h2q33 51 77.5 82t101.5 31q44 0 70 -14.5t39.5 -34.5t17.5 -41t4 -34h2z" />
    <glyph glyph-name="n" unicode="n" horiz-adv-x="653" 
d="M500 60q-3 -14 3 -17.5t21 -5.5l41 -4l-7 -33h-226l7 33l42 4q16 2 23.5 5.5t9.5 17.5l61 286q15 72 -1 109t-75 37q-19 0 -45 -9t-53 -33.5t-51.5 -68.5t-39.5 -114l-44 -207q-3 -14 2.5 -17.5t21.5 -5.5l41 -4l-7 -33h-226l7 33l42 4q16 2 23.5 5.5t9.5 17.5l88 415
q4 12 -1 18t-22 8l-40 5l6 32h156l-21 -104h2q33 51 78.5 82t105.5 31q46 0 75.5 -15.5t44.5 -41t17.5 -57.5t-4.5 -66z" />
    <glyph glyph-name="o" unicode="o" horiz-adv-x="599" 
d="M346 544q49 0 88 -15.5t66 -44t41.5 -68.5t14.5 -89q0 -66 -23 -127t-63.5 -108.5t-96 -76t-120.5 -28.5q-50 0 -89 15.5t-66 44t-41 68.5t-14 89q0 66 23 127t63.5 108.5t96 76t120.5 28.5zM339 495q-37 0 -66.5 -15t-52 -40.5t-39 -57.5t-26.5 -66.5t-15 -67.5t-5 -60
q0 -72 30.5 -112t94.5 -40q37 0 66.5 15t52 40.5t39 57.5t26.5 66.5t15 67.5t5 60q0 72 -30.5 112t-94.5 40z" />
    <glyph glyph-name="p" unicode="p" horiz-adv-x="652" 
d="M-43 -189l8 33l40 4q17 2 24 5.5t10 17.5l128 605q2 12 -2 18t-21 8l-42 5l7 31h156l-24 -103h2q13 23 32 43.5t42 35.5t48.5 24t52.5 9q48 0 83.5 -17.5t59 -48t35 -71.5t11.5 -87q0 -75 -21.5 -137t-58.5 -106.5t-85.5 -68.5t-103.5 -24q-60 0 -103 38.5t-56 100.5h-3
l-22 -117l-29 -138q-3 -14 2.5 -18t20.5 -5l63 -4l-7 -33h-247zM396 493q-42 0 -77.5 -26t-62 -66t-41.5 -88t-15 -92q0 -86 32 -134t98 -48q40 0 74 23.5t58.5 62.5t38 90.5t13.5 107.5q0 37 -7 68t-21 53.5t-36.5 35.5t-53.5 13z" />
    <glyph glyph-name="q" unicode="q" horiz-adv-x="611" 
d="M256 -189l7 33l64 4q16 1 23 5t10 18l30 138q6 28 11.5 48.5t11.5 40.5h-2q-13 -23 -32 -43t-42 -35t-48.5 -24t-52.5 -9q-48 0 -83.5 17.5t-59 48t-35 71t-11.5 87.5q0 75 21.5 137t58 106t85.5 68.5t104 24.5q66 0 104 -29.5t58 -78.5h4l41 99h70l-42 -178l-104 -489
q-4 -14 2 -17.5t21 -5.5l41 -4l-8 -33h-247zM258 40q42 0 77.5 26t61.5 66t41 88t15 92q0 87 -31.5 134.5t-98.5 47.5q-40 0 -73.5 -23.5t-58 -62.5t-38 -90t-13.5 -107q0 -37 7 -68.5t21 -54t36.5 -35.5t53.5 -13z" />
    <glyph glyph-name="r" unicode="r" horiz-adv-x="443" 
d="M247 420h1q29 53 76 87.5t105 34.5h45l-17 -83h-58q-39 0 -68 -8.5t-51 -30.5t-38.5 -60t-28.5 -96l-43 -203q-3 -14 3 -18t20 -5l74 -4l-7 -34h-259l7 33l42 4q17 2 24 5.5t10 17.5l88 415q3 12 -1.5 18t-21.5 8l-41 5l6 32h156z" />
    <glyph glyph-name="s" unicode="s" horiz-adv-x="541" 
d="M468 149q0 -47 -20 -78.5t-51 -50t-69.5 -26t-75.5 -7.5q-45 0 -84.5 10.5t-70 31.5t-50 53.5t-22.5 77.5h85q4 -56 38 -90t103 -34q75 0 106 24t31 65q0 35 -30.5 61.5t-85.5 46.5l-61 23q-56 21 -90 57t-34 86q0 31 13 58t38.5 47t63.5 31.5t87 11.5q42 0 78 -10
t64 -29.5t45.5 -47t21.5 -63.5h-85q-8 50 -41 76t-87 26t-87 -19t-33 -59q0 -32 24.5 -54.5t64.5 -38.5l57 -21q31 -12 59.5 -27.5t50.5 -34.5t34.5 -43t12.5 -53z" />
    <glyph glyph-name="t" unicode="t" horiz-adv-x="403" 
d="M408 487h-164l-74 -348q-6 -26 -5 -42t8 -24.5t20.5 -11.5t33.5 -3h84l-12 -58h-107q-40 0 -65.5 5.5t-38.5 20t-14 40.5t8 67l76 354h-99l10 51h99l37 171h86l-37 -171h164z" />
    <glyph glyph-name="u" unicode="u" horiz-adv-x="618" 
d="M381 94h-2q-35 -50 -77 -78.5t-106 -28.5q-46 0 -72.5 16.5t-39.5 42.5t-13.5 58t6.5 63l66 308q2 12 -2 18t-21 8l-41 5l6 32h157l-21 -99l-53 -251q-15 -72 -1.5 -108.5t70.5 -36.5q18 0 43 8.5t50.5 33.5t48.5 69.5t38 115.5l44 205q2 12 -2 18t-21 8l-42 5l6 32h159
l-22 -99l-79 -375q-3 -14 2.5 -17.5t21.5 -5.5l41 -4l-7 -33l-155 -8z" />
    <glyph glyph-name="v" unicode="v" horiz-adv-x="531" 
d="M83 470q-2 17 -7.5 24t-23.5 9l-27 2l7 33h214l-7 -33l-36 -3q-18 -2 -26 -6t-6 -21l49 -363l185 321q9 14 15.5 26.5t7 21.5t-6 14.5t-23.5 7.5l-24 2l7 33h189l-7 -33l-26 -2q-12 -1 -20.5 -3.5t-15 -8.5t-13 -15.5t-15.5 -23.5l-263 -452h-51z" />
    <glyph glyph-name="w" unicode="w" horiz-adv-x="766" 
d="M649 433q7 14 12 26.5t5 21.5t-6 15t-21 7l-23 2l7 33h183l-7 -33l-27 -2q-11 -1 -19 -3.5t-15 -8t-13 -15t-14 -24.5l-226 -452h-54l-49 411l-219 -411h-53l-31 470q-2 17 -7 24t-24 9l-26 2l7 33h212l-7 -33l-37 -3q-18 -2 -25.5 -7t-6.5 -16l20 -352l216 411h50
l49 -411z" />
    <glyph glyph-name="x" unicode="x" horiz-adv-x="617" 
d="M270 273l-110 197q-9 17 -15 24t-23 9l-30 2l7 33h223l-8 -33l-29 -2q-29 -2 -34.5 -10t3.5 -24l76 -137l103 101q39 37 45 52t-21 17l-33 3l7 33h201l-8 -33l-18 -2q-12 -1 -22.5 -4.5t-23 -11.5t-28.5 -22t-39 -36l-140 -138l125 -223q9 -17 15.5 -24.5t22.5 -8.5
l30 -2l-7 -33h-222l7 33l30 2q29 2 34 10t-4 24l-92 163l-129 -127q-39 -37 -45 -52t21 -17l33 -3l-7 -33h-200l7 33l19 2q12 1 22 4.5t22 11.5t28 22t40 36z" />
    <glyph glyph-name="y" unicode="y" horiz-adv-x="551" 
d="M-57 -189l13 61h71q21 0 35.5 2t28.5 13t30 34.5t41 66.5l11 19l-75 463q-3 19 -8 24.5t-23 7.5l-26 3l7 33h213l-7 -33l-37 -3q-35 -3 -32 -23l56 -384l192 338q22 37 22.5 52t-33.5 18l-23 2l7 33h194l-7 -33l-25 -2q-23 -2 -37.5 -15t-30.5 -36l-270 -466
q-38 -66 -63.5 -101.5t-48.5 -52t-48.5 -19t-62.5 -2.5h-64z" />
    <glyph glyph-name="z" unicode="z" horiz-adv-x="512" 
d="M-2 50l418 437h-299l10 51h404l-10 -50l-419 -437h327l-11 -51h-431z" />
    <glyph glyph-name="braceleft" unicode="{" horiz-adv-x="299" 
d="M141 -189q-75 0 -99 28.5t-10 94.5l45 211q4 20 5.5 39t-4 33.5t-19 23t-40.5 8.5l12 59q27 0 44.5 8.5t29.5 23t18.5 33.5t10.5 39l44 209q8 37 17 61t26 38t45 19.5t74 5.5h44l-10 -47h-13q-29 0 -45.5 -3t-26.5 -12t-15.5 -25.5t-11.5 -43.5l-42 -193
q-8 -36 -17 -61.5t-22.5 -42t-33.5 -25.5t-49 -12l-1 -3q19 -5 34 -14.5t24 -26t10 -41t-6 -60.5l-41 -193q-6 -27 -7 -43.5t5 -25.5t21.5 -12t44.5 -3h13l-10 -47h-44v0z" />
    <glyph glyph-name="bar" unicode="|" horiz-adv-x="261" 
d="M109 -90v815h70v-815h-70z" />
    <glyph glyph-name="braceright" unicode="}" horiz-adv-x="297" 
d="M-70 -142h13q28 0 45 3t27.5 12t16.5 25.5t12 43.5l40 192q7 36 16 61.5t22.5 42.5t33.5 26t50 12l1 2q-20 6 -35 15t-24 25.5t-10.5 41t6.5 60.5l42 194q6 27 7.5 43.5t-5 25.5t-22 12t-43.5 3h-13l10 47h43q76 0 99.5 -29t9.5 -95l-45 -210q-4 -20 -5.5 -39t3.5 -33.5
t19 -23t41 -8.5l-12 -59q-27 0 -44.5 -8.5t-29.5 -23t-18.5 -33.5t-10.5 -39l-45 -210q-8 -37 -16.5 -60.5t-25.5 -37.5t-45 -19.5t-74 -5.5h-44z" />
    <glyph glyph-name="uni00A0" unicode="&#xa0;" horiz-adv-x="290" 
 />
    <glyph glyph-name="exclamdown" unicode="&#xa1;" horiz-adv-x="265" 
d="M16 -189l47 220l95 311h37l-37 -314l-46 -217h-96zM155 538h120l-25 -119h-120z" />
    <glyph glyph-name="sterling" unicode="&#xa3;" horiz-adv-x="622" 
d="M453 401l-9 -42h-189q6 -27 6 -53q0 -40 -13 -73t-35 -59.5t-51 -46.5t-61 -35l1 -2q20 6 37.5 9.5t37.5 3.5q32 0 54.5 -6.5t43 -15t42.5 -15t53 -6.5q33 0 64 8t63 20l25 -73q-12 -6 -31 -11.5t-40.5 -10t-44.5 -7.5t-44 -3q-30 0 -54.5 6.5t-48.5 14t-49.5 14
t-55.5 6.5q-34 0 -72 -13t-79 -28l-25 66q43 14 78.5 38t61 56.5t39.5 71.5t14 84q0 15 -2 30t-5 30h-119l9 42h100q-8 30 -15 60t-7 62q0 46 17.5 86t52 69.5t86 46.5t119.5 17q59 0 104.5 -17t75.5 -46t43.5 -69t9.5 -85h-88q12 76 -30 121.5t-121 45.5
q-83 0 -130.5 -40.5t-47.5 -127.5q0 -32 7.5 -62t15.5 -61h207z" />
    <glyph glyph-name="yen" unicode="&#xa5;" horiz-adv-x="701" 
d="M332 134l-15 -72q-2 -13 3 -17.5t21 -5.5l89 -4l-8 -35h-329l7 35l92 4q16 1 23.5 5.5t9.5 17.5l15 72h-111l11 49h111l17 82h-111l10 49h93l-118 330q-5 13 -8.5 21t-9.5 13t-15.5 7t-25.5 4l-22 2l7 34h275l-7 -34l-65 -4q-18 -1 -28 -10.5t-1 -35.5l103 -303l238 295
q13 16 17.5 26.5t3 16.5t-8 8.5t-14.5 2.5l-64 4l7 34h233l-7 -34l-24 -2q-14 -1 -24 -3.5t-18.5 -9t-18.5 -17.5t-24 -28l-259 -317h111l-9 -49h-123l-18 -82h123l-11 -49h-123z" />
    <glyph glyph-name="dieresis" unicode="&#xa8;" horiz-adv-x="386" 
d="M144 745h86l-25 -119h-86zM367 745h86l-25 -119h-86z" />
    <glyph glyph-name="copyright" unicode="&#xa9;" horiz-adv-x="847" 
d="M73 361q0 83 29.5 152.5t80.5 119t119.5 77t146.5 27.5q77 0 145 -27.5t119 -77t80.5 -119t29.5 -152.5t-29.5 -152t-80.5 -118.5t-119 -76.5t-145 -27q-78 0 -146.5 27t-119.5 76.5t-80.5 118.5t-29.5 152zM134 361q0 -72 24.5 -131t67 -101t100 -65.5t123.5 -23.5
q67 0 124.5 23.5t99.5 65.5t65.5 101t23.5 131t-23.5 131.5t-65.5 101.5t-99.5 65t-124.5 23q-66 0 -123.5 -23t-100 -65t-67 -101.5t-24.5 -131.5zM445 211q18 0 36.5 4.5t34.5 14.5t28 24.5t18 35.5l58 -17q-8 -24 -22.5 -45t-36.5 -37t-50.5 -25.5t-65.5 -9.5
q-88 0 -136.5 55.5t-48.5 153.5q0 97 51.5 151t138.5 54q70 0 111.5 -35.5t55.5 -86.5l-57 -20q-10 42 -43 64t-72 22q-24 0 -46 -9t-39.5 -28t-27.5 -47t-10 -65q0 -38 10 -66.5t27.5 -48t39.5 -29.5t46 -10z" />
    <glyph glyph-name="guillemotleft" unicode="&#xab;" horiz-adv-x="472" 
d="M204 273l249 234h43l-181 -234l79 -235h-38zM8 273l249 234h43l-181 -234l79 -235h-38z" />
    <glyph glyph-name="uni00AD" unicode="&#xad;" horiz-adv-x="327" 
d="M36 318h281l-17 -82h-281z" />
    <glyph glyph-name="macron" unicode="&#xaf;" horiz-adv-x="343" 
d="M121 635l14 67h266l-14 -67h-266z" />
    <glyph glyph-name="degree" unicode="&#xb0;" horiz-adv-x="371" 
d="M112 589q0 31 11.5 58.5t32 47.5t47.5 31.5t57 11.5q31 0 58.5 -11.5t47.5 -31.5t32 -47.5t12 -58.5t-12 -58t-32 -47.5t-47.5 -32t-58.5 -11.5q-30 0 -57 11.5t-47.5 32t-32 47.5t-11.5 58zM178 589q0 -38 22 -65.5t60 -27.5q40 0 63 27.5t23 65.5t-23 65.5t-63 27.5
q-38 0 -60 -27.5t-22 -65.5z" />
    <glyph glyph-name="acute" unicode="&#xb4;" horiz-adv-x="289" 
d="M148 603h-35l112 142h131z" />
    <glyph glyph-name="periodcentered" unicode="&#xb7;" horiz-adv-x="285" 
d="M92 337h120l-25 -119h-120z" />
    <glyph glyph-name="cedilla" unicode="&#xb8;" horiz-adv-x="346" 
d="M113 3h48l-48 -53q44 5 69 -15.5t25 -53.5q0 -25 -11 -43.5t-29 -31t-41 -18.5t-48 -6t-43.5 3.5t-40.5 14.5l17 36q11 -5 26 -9t32 -4q27 0 49 10t22 35q0 20 -14 29t-28 9q-24 0 -44 -10l-16 19z" />
    <glyph glyph-name="guillemotright" unicode="&#xbb;" horiz-adv-x="468" 
d="M268 273l-247 -235h-43l179 235l-79 234h40zM464 273l-247 -235h-43l179 235l-79 234h40z" />
    <glyph glyph-name="questiondown" unicode="&#xbf;" horiz-adv-x="551" 
d="M198 -151q92 0 140 43.5t55 134.5h90q-5 -59 -29.5 -101t-63 -70t-90 -41t-110.5 -13q-48 0 -89.5 10t-73 28.5t-49.5 46t-18 62.5q0 38 16.5 67.5t43.5 53t61.5 42.5t70.5 35q42 19 68.5 36.5t42 36.5t24 40t14.5 48l6 34h56l-8 -37q-8 -39 -20.5 -70t-32.5 -56
t-49.5 -45.5t-71.5 -39.5q-60 -26 -93.5 -59t-33.5 -84q0 -27 11 -46.5t30.5 -31.5t46 -18t56.5 -6zM313 538h120l-25 -119h-120z" />
    <glyph glyph-name="Agrave" unicode="&#xc0;" horiz-adv-x="742" 
d="M441 732h71l117 -646q4 -27 13.5 -38t41.5 -14l11 -1l-7 -33h-262l7 33l46 3q20 1 32 3.5t17.5 8.5t6.5 16t-2 26l-24 134h-315l-60 -101q-17 -28 -24 -44.5t-5.5 -26t12 -13t28.5 -4.5l40 -2l-7 -33h-224l7 33l13 2q18 3 30 7t23 15.5t24 31.5t33 54zM224 273h276
l-64 354zM298 890h123l89 -117h-60z" />
    <glyph glyph-name="Aacute" unicode="&#xc1;" horiz-adv-x="742" 
d="M441 732h71l117 -646q4 -27 13.5 -38t41.5 -14l11 -1l-7 -33h-262l7 33l46 3q20 1 32 3.5t17.5 8.5t6.5 16t-2 26l-24 134h-315l-60 -101q-17 -28 -24 -44.5t-5.5 -26t12 -13t28.5 -4.5l40 -2l-7 -33h-224l7 33l13 2q18 3 30 7t23 15.5t24 31.5t33 54zM224 273h276
l-64 354zM506 773h-60l139 117h123z" />
    <glyph glyph-name="Acircumflex" unicode="&#xc2;" horiz-adv-x="742" 
d="M441 732h71l117 -646q4 -27 13.5 -38t41.5 -14l11 -1l-7 -33h-262l7 33l46 3q20 1 32 3.5t17.5 8.5t6.5 16t-2 26l-24 134h-315l-60 -101q-17 -28 -24 -44.5t-5.5 -26t12 -13t28.5 -4.5l40 -2l-7 -33h-224l7 33l13 2q18 3 30 7t23 15.5t24 31.5t33 54zM224 273h276
l-64 354zM631 773h-66l-92 58l-116 -58h-66l164 117h64z" />
    <glyph glyph-name="Atilde" unicode="&#xc3;" horiz-adv-x="742" 
d="M441 732h71l117 -646q4 -27 13.5 -38t41.5 -14l11 -1l-7 -33h-262l7 33l46 3q20 1 32 3.5t17.5 8.5t6.5 16t-2 26l-24 134h-315l-60 -101q-17 -28 -24 -44.5t-5.5 -26t12 -13t28.5 -4.5l40 -2l-7 -33h-224l7 33l13 2q18 3 30 7t23 15.5t24 31.5t33 54zM224 273h276
l-64 354zM552 836q25 0 38 13.5t18 38.5h61q-10 -52 -39 -82.5t-73 -30.5q-23 0 -43 8.5t-38 18t-33.5 18t-30.5 8.5q-24 0 -36 -14t-19 -39h-60q8 56 40 84.5t74 28.5q23 0 42.5 -8t36.5 -18t32 -18t30 -8z" />
    <glyph glyph-name="Adieresis" unicode="&#xc4;" horiz-adv-x="742" 
d="M441 732h71l117 -646q4 -27 13.5 -38t41.5 -14l11 -1l-7 -33h-262l7 33l46 3q20 1 32 3.5t17.5 8.5t6.5 16t-2 26l-24 134h-315l-60 -101q-17 -28 -24 -44.5t-5.5 -26t12 -13t28.5 -4.5l40 -2l-7 -33h-224l7 33l13 2q18 3 30 7t23 15.5t24 31.5t33 54zM224 273h276
l-64 354zM349 890h86l-25 -117h-86zM572 890h86l-25 -117h-86z" />
    <glyph glyph-name="Aring" unicode="&#xc5;" horiz-adv-x="742" 
d="M441 732h71l117 -646q4 -27 13.5 -38t41.5 -14l11 -1l-7 -33h-262l7 33l46 3q20 1 32 3.5t17.5 8.5t6.5 16t-2 26l-24 134h-315l-60 -101q-17 -28 -24 -44.5t-5.5 -26t12 -13t28.5 -4.5l40 -2l-7 -33h-224l7 33l13 2q18 3 30 7t23 15.5t24 31.5t33 54zM224 273h276
l-64 354zM490 932q19 0 36 -6.5t29.5 -18t20 -27.5t7.5 -35q0 -38 -27 -63t-66 -25q-40 0 -67 25t-27 63q0 19 7.5 35t20.5 27.5t30 18t36 6.5zM490 889q-18 0 -31.5 -12.5t-13.5 -31.5q0 -20 13.5 -32t31.5 -12q17 0 30.5 12t13.5 32q0 19 -13.5 31.5t-30.5 12.5z" />
    <glyph glyph-name="AE" unicode="&#xc6;" horiz-adv-x="1117" 
d="M1139 725l-46 -214h-34l8 98q1 25 -2 39t-14.5 20.5t-32 8t-53.5 1.5h-220l-59 -279h279l-11 -51h-279l-65 -301h229q33 0 53.5 1t34.5 8t23 21.5t19 40.5l34 96h34l-46 -214h-566l7 34l56 4q17 2 24.5 6t9.5 17l35 163h-297l-96 -101q-23 -23 -37.5 -39.5t-20 -27
t0.5 -15.5t24 -6l40 -2l-7 -33h-224l8 33l12 1q18 1 31 4.5t28.5 14.5t37.5 32t57 58l549 582h476zM306 273h261l76 355z" />
    <glyph glyph-name="Ccedilla" unicode="&#xc7;" horiz-adv-x="740" 
d="M456 742q55 0 105 -16t89 -46.5t63 -74t27 -98.5h-94q-4 85 -52.5 135t-147.5 50q-62 0 -114.5 -30t-91.5 -83.5t-61 -126t-22 -156.5q0 -57 12.5 -105t38.5 -82t66 -53t94 -19q89 0 154 46.5t85 141.5h94q-12 -55 -42.5 -99t-75 -75t-101 -47.5t-120.5 -16.5
q-65 0 -121 21.5t-97 62t-65 99t-24 131.5q0 84 27 163.5t78.5 141t126 99t169.5 37.5zM335 3h48l-48 -53q44 5 69 -15.5t25 -53.5q0 -25 -11 -43.5t-29 -31t-41 -18.5t-48 -6t-43.5 3.5t-40.5 14.5l17 36q11 -5 26 -9t32 -4q27 0 49 10t22 35q0 20 -14 29t-28 9
q-24 0 -44 -10l-16 19z" />
    <glyph glyph-name="Egrave" unicode="&#xc8;" horiz-adv-x="690" 
d="M710 725l-45 -214h-34l8 98q1 25 -2 39t-14.5 20.5t-32 8t-53.5 1.5h-220l-59 -279h280l-11 -51h-280l-64 -301h228q33 0 53.5 1t34.5 8t23.5 21.5t18.5 40.5l35 96h33l-45 -214h-567l7 34l56 4q17 2 24 6t10 17l128 603q3 13 -2.5 17.5t-20.5 5.5l-57 4l7 34h561z
M321 890h123l89 -117h-60z" />
    <glyph glyph-name="Eacute" unicode="&#xc9;" horiz-adv-x="690" 
d="M710 725l-45 -214h-34l8 98q1 25 -2 39t-14.5 20.5t-32 8t-53.5 1.5h-220l-59 -279h280l-11 -51h-280l-64 -301h228q33 0 53.5 1t34.5 8t23.5 21.5t18.5 40.5l35 96h33l-45 -214h-567l7 34l56 4q17 2 24 6t10 17l128 603q3 13 -2.5 17.5t-20.5 5.5l-57 4l7 34h561z
M454 773h-60l139 117h123z" />
    <glyph glyph-name="Ecircumflex" unicode="&#xca;" horiz-adv-x="690" 
d="M710 725l-45 -214h-34l8 98q1 25 -2 39t-14.5 20.5t-32 8t-53.5 1.5h-220l-59 -279h280l-11 -51h-280l-64 -301h228q33 0 53.5 1t34.5 8t23.5 21.5t18.5 40.5l35 96h33l-45 -214h-567l7 34l56 4q17 2 24 6t10 17l128 603q3 13 -2.5 17.5t-20.5 5.5l-57 4l7 34h561z
M636 773h-66l-92 58l-116 -58h-66l164 117h64z" />
    <glyph glyph-name="Edieresis" unicode="&#xcb;" horiz-adv-x="690" 
d="M710 725l-45 -214h-34l8 98q1 25 -2 39t-14.5 20.5t-32 8t-53.5 1.5h-220l-59 -279h280l-11 -51h-280l-64 -301h228q33 0 53.5 1t34.5 8t23.5 21.5t18.5 40.5l35 96h33l-45 -214h-567l7 34l56 4q17 2 24 6t10 17l128 603q3 13 -2.5 17.5t-20.5 5.5l-57 4l7 34h561z
M338 890h86l-25 -117h-86zM561 890h86l-25 -117h-86z" />
    <glyph glyph-name="Igrave" unicode="&#xcc;" horiz-adv-x="371" 
d="M258 0h-261l7 34l56 4q17 2 24 6t10 17l128 603q3 13 -2.5 17.5t-20.5 5.5l-57 4l7 34h262l-7 -34l-57 -4q-16 -1 -23 -5.5t-10 -17.5l-128 -603q-3 -13 2.5 -17.5t20.5 -5.5l56 -4zM125 890h123l89 -117h-60z" />
    <glyph glyph-name="Iacute" unicode="&#xcd;" horiz-adv-x="371" 
d="M258 0h-261l7 34l56 4q17 2 24 6t10 17l128 603q3 13 -2.5 17.5t-20.5 5.5l-57 4l7 34h262l-7 -34l-57 -4q-16 -1 -23 -5.5t-10 -17.5l-128 -603q-3 -13 2.5 -17.5t20.5 -5.5l56 -4zM304 773h-60l139 117h123z" />
    <glyph glyph-name="Icircumflex" unicode="&#xce;" horiz-adv-x="371" 
d="M258 0h-261l7 34l56 4q17 2 24 6t10 17l128 603q3 13 -2.5 17.5t-20.5 5.5l-57 4l7 34h262l-7 -34l-57 -4q-16 -1 -23 -5.5t-10 -17.5l-128 -603q-3 -13 2.5 -17.5t20.5 -5.5l56 -4zM461 773h-66l-92 58l-116 -58h-66l164 117h64z" />
    <glyph glyph-name="Idieresis" unicode="&#xcf;" horiz-adv-x="371" 
d="M258 0h-261l7 34l56 4q17 2 24 6t10 17l128 603q3 13 -2.5 17.5t-20.5 5.5l-57 4l7 34h262l-7 -34l-57 -4q-16 -1 -23 -5.5t-10 -17.5l-128 -603q-3 -13 2.5 -17.5t20.5 -5.5l56 -4zM159 890h86l-25 -117h-86zM382 890h86l-25 -117h-86z" />
    <glyph glyph-name="Eth" unicode="&#xd0;" horiz-adv-x="766" 
d="M102 -1q-50 0 -105 1l8 34l55 4q17 2 24 6t10 17l63 298h-111l11 50h111l54 255q3 13 -2.5 17.5t-20.5 5.5l-57 4l8 34h102q41 0 80.5 0.5t58.5 0.5q72 0 137 -15.5t114.5 -50t79 -90t29.5 -134.5q0 -123 -43 -206.5t-112.5 -134.5t-157.5 -73.5t-179 -22.5h-157z
M378 359h-129l-66 -313h96q37 0 79 7t83.5 24.5t79 46t66.5 71.5t46 101.5t17 136.5q0 77 -24 125t-63 75t-87.5 36.5t-97.5 9.5h-61l-57 -270h129z" />
    <glyph glyph-name="Ntilde" unicode="&#xd1;" horiz-adv-x="813" 
d="M622 -10h-58l-296 625l-113 -529q-3 -15 -3.5 -24.5t3 -15t12.5 -7.5t25 -3l38 -2l-7 -34h-226l7 34l36 2q16 1 26 3t16.5 7.5t10.5 15t7 24.5l123 577q2 10 -3 16t-20 8l-57 4l7 34h161l284 -598l109 512q3 15 4 24.5t-3 15t-13 7.5t-25 3l-38 2l7 34h227l-7 -34l-36 -2
q-16 -1 -26 -3t-16.5 -7.5t-10.5 -15t-7 -24.5zM593 836q25 0 38 13.5t18 38.5h61q-10 -52 -39 -82.5t-73 -30.5q-23 0 -43 8.5t-38 18t-33.5 18t-30.5 8.5q-24 0 -36 -14t-19 -39h-60q8 56 40 84.5t74 28.5q23 0 42.5 -8t36.5 -18t32 -18t30 -8z" />
    <glyph glyph-name="Ograve" unicode="&#xd2;" horiz-adv-x="762" 
d="M456 742q64 0 119.5 -21t96 -61t64 -97.5t23.5 -130.5q0 -84 -27 -164.5t-78.5 -142.5t-126 -100t-168.5 -38q-65 0 -120.5 21.5t-96 61.5t-64 97.5t-23.5 129.5q0 84 27 164.5t78.5 142.5t126 100t169.5 38zM446 692q-62 0 -114.5 -30t-91.5 -83.5t-61 -126t-22 -156.5
q0 -57 12.5 -105t38.5 -82t66 -53t94 -19q61 0 114 30.5t92 83.5t61.5 125.5t22.5 156.5q0 57 -12.5 105t-39 82t-66.5 53t-94 19zM286 890h123l89 -117h-60z" />
    <glyph glyph-name="Oacute" unicode="&#xd3;" horiz-adv-x="762" 
d="M456 742q64 0 119.5 -21t96 -61t64 -97.5t23.5 -130.5q0 -84 -27 -164.5t-78.5 -142.5t-126 -100t-168.5 -38q-65 0 -120.5 21.5t-96 61.5t-64 97.5t-23.5 129.5q0 84 27 164.5t78.5 142.5t126 100t169.5 38zM446 692q-62 0 -114.5 -30t-91.5 -83.5t-61 -126t-22 -156.5
q0 -57 12.5 -105t38.5 -82t66 -53t94 -19q61 0 114 30.5t92 83.5t61.5 125.5t22.5 156.5q0 57 -12.5 105t-39 82t-66.5 53t-94 19zM469 773h-60l139 117h123z" />
    <glyph glyph-name="Ocircumflex" unicode="&#xd4;" horiz-adv-x="762" 
d="M456 742q64 0 119.5 -21t96 -61t64 -97.5t23.5 -130.5q0 -84 -27 -164.5t-78.5 -142.5t-126 -100t-168.5 -38q-65 0 -120.5 21.5t-96 61.5t-64 97.5t-23.5 129.5q0 84 27 164.5t78.5 142.5t126 100t169.5 38zM446 692q-62 0 -114.5 -30t-91.5 -83.5t-61 -126t-22 -156.5
q0 -57 12.5 -105t38.5 -82t66 -53t94 -19q61 0 114 30.5t92 83.5t61.5 125.5t22.5 156.5q0 57 -12.5 105t-39 82t-66.5 53t-94 19zM635 773h-66l-92 58l-116 -58h-66l164 117h64z" />
    <glyph glyph-name="Otilde" unicode="&#xd5;" horiz-adv-x="762" 
d="M456 742q64 0 119.5 -21t96 -61t64 -97.5t23.5 -130.5q0 -84 -27 -164.5t-78.5 -142.5t-126 -100t-168.5 -38q-65 0 -120.5 21.5t-96 61.5t-64 97.5t-23.5 129.5q0 84 27 164.5t78.5 142.5t126 100t169.5 38zM446 692q-62 0 -114.5 -30t-91.5 -83.5t-61 -126t-22 -156.5
q0 -57 12.5 -105t38.5 -82t66 -53t94 -19q61 0 114 30.5t92 83.5t61.5 125.5t22.5 156.5q0 57 -12.5 105t-39 82t-66.5 53t-94 19zM546 836q25 0 38 13.5t18 38.5h61q-10 -52 -39 -82.5t-73 -30.5q-23 0 -43 8.5t-38 18t-33.5 18t-30.5 8.5q-24 0 -36 -14t-19 -39h-60
q8 56 40 84.5t74 28.5q23 0 42.5 -8t36.5 -18t32 -18t30 -8z" />
    <glyph glyph-name="Odieresis" unicode="&#xd6;" horiz-adv-x="762" 
d="M456 742q64 0 119.5 -21t96 -61t64 -97.5t23.5 -130.5q0 -84 -27 -164.5t-78.5 -142.5t-126 -100t-168.5 -38q-65 0 -120.5 21.5t-96 61.5t-64 97.5t-23.5 129.5q0 84 27 164.5t78.5 142.5t126 100t169.5 38zM446 692q-62 0 -114.5 -30t-91.5 -83.5t-61 -126t-22 -156.5
q0 -57 12.5 -105t38.5 -82t66 -53t94 -19q61 0 114 30.5t92 83.5t61.5 125.5t22.5 156.5q0 57 -12.5 105t-39 82t-66.5 53t-94 19zM336 890h86l-25 -117h-86zM559 890h86l-25 -117h-86z" />
    <glyph glyph-name="multiply" unicode="&#xd7;" horiz-adv-x="705" 
d="M542 40l-189 189l-189 -189l-45 45l189 189l-189 189l45 45l189 -189l189 189l44 -45l-189 -189l189 -189z" />
    <glyph glyph-name="Oslash" unicode="&#xd8;" horiz-adv-x="762" 
d="M456 742q104 0 180 -53l52 62l34 -26l-53 -63q42 -40 66 -98t24 -132q0 -84 -27 -164.5t-78.5 -142.5t-126 -100t-168.5 -38q-60 0 -111.5 17.5t-91.5 52.5l-58 -69l-33 27l61 72q-33 40 -52 92t-19 118q0 84 27 164.5t78.5 142.5t126 100t169.5 38zM658 433
q0 51 -10 93.5t-30 75.5l-414 -488q26 -37 66.5 -57t97.5 -20q61 0 114 30.5t92 83.5t61.5 125.5t22.5 156.5zM446 692q-62 0 -114.5 -30t-91.5 -83.5t-61 -126t-22 -156.5q0 -41 6 -77t19 -66l409 484q-26 26 -61.5 40.5t-83.5 14.5z" />
    <glyph glyph-name="Ugrave" unicode="&#xd9;" horiz-adv-x="822" 
d="M377 -13q-82 0 -135 21.5t-81.5 62t-33 99t10.5 131.5l77 363q3 13 -2 17.5t-20 5.5l-56 4l7 34h262l-7 -34l-58 -4q-16 -1 -24 -5.5t-10 -17.5l-79 -370q-12 -54 -11.5 -99t18 -77t53.5 -50t96 -18q112 0 174.5 58.5t89.5 184.5l74 346q7 31 0.5 39.5t-38.5 10.5l-37 2
l7 34h230l-7 -34l-37 -2q-16 -1 -26 -3t-16 -7.5t-10 -15t-7 -24.5l-74 -346q-14 -68 -37.5 -124t-62 -96.5t-94.5 -63t-136 -22.5zM364 890h123l89 -117h-60z" />
    <glyph glyph-name="Uacute" unicode="&#xda;" horiz-adv-x="822" 
d="M377 -13q-82 0 -135 21.5t-81.5 62t-33 99t10.5 131.5l77 363q3 13 -2 17.5t-20 5.5l-56 4l7 34h262l-7 -34l-58 -4q-16 -1 -24 -5.5t-10 -17.5l-79 -370q-12 -54 -11.5 -99t18 -77t53.5 -50t96 -18q112 0 174.5 58.5t89.5 184.5l74 346q7 31 0.5 39.5t-38.5 10.5l-37 2
l7 34h230l-7 -34l-37 -2q-16 -1 -26 -3t-16 -7.5t-10 -15t-7 -24.5l-74 -346q-14 -68 -37.5 -124t-62 -96.5t-94.5 -63t-136 -22.5zM531 773h-60l139 117h123z" />
    <glyph glyph-name="Ucircumflex" unicode="&#xdb;" horiz-adv-x="822" 
d="M377 -13q-82 0 -135 21.5t-81.5 62t-33 99t10.5 131.5l77 363q3 13 -2 17.5t-20 5.5l-56 4l7 34h262l-7 -34l-58 -4q-16 -1 -24 -5.5t-10 -17.5l-79 -370q-12 -54 -11.5 -99t18 -77t53.5 -50t96 -18q112 0 174.5 58.5t89.5 184.5l74 346q7 31 0.5 39.5t-38.5 10.5l-37 2
l7 34h230l-7 -34l-37 -2q-16 -1 -26 -3t-16 -7.5t-10 -15t-7 -24.5l-74 -346q-14 -68 -37.5 -124t-62 -96.5t-94.5 -63t-136 -22.5zM706 773h-66l-92 58l-116 -58h-66l164 117h64z" />
    <glyph glyph-name="Udieresis" unicode="&#xdc;" horiz-adv-x="822" 
d="M377 -13q-82 0 -135 21.5t-81.5 62t-33 99t10.5 131.5l77 363q3 13 -2 17.5t-20 5.5l-56 4l7 34h262l-7 -34l-58 -4q-16 -1 -24 -5.5t-10 -17.5l-79 -370q-12 -54 -11.5 -99t18 -77t53.5 -50t96 -18q112 0 174.5 58.5t89.5 184.5l74 346q7 31 0.5 39.5t-38.5 10.5l-37 2
l7 34h230l-7 -34l-37 -2q-16 -1 -26 -3t-16 -7.5t-10 -15t-7 -24.5l-74 -346q-14 -68 -37.5 -124t-62 -96.5t-94.5 -63t-136 -22.5zM407 890h86l-25 -117h-86zM630 890h86l-25 -117h-86z" />
    <glyph glyph-name="Yacute" unicode="&#xdd;" horiz-adv-x="702" 
d="M300 281l-130 363q-8 25 -18 33.5t-41 11.5l-22 2l7 34h276l-7 -34l-65 -4q-18 -1 -27.5 -10.5t-1.5 -35.5l100 -303l236 295q13 16 17 26.5t2.5 16.5t-8 8.5t-14.5 2.5l-65 4l7 34h240l-8 -34l-24 -2q-14 -1 -24 -4t-18.5 -9t-18.5 -17t-24 -28l-274 -335l-50 -235
q-3 -13 3 -17.5t22 -5.5l88 -4l-7 -34h-330l7 34l92 4q16 1 23.5 5.5t9.5 17.5zM454 773h-60l139 117h123z" />
    <glyph glyph-name="Thorn" unicode="&#xde;" horiz-adv-x="626" 
d="M373 596q59 0 108 -10.5t84 -33t54.5 -58t19.5 -85.5q0 -68 -29.5 -115.5t-78.5 -78t-113.5 -44.5t-133.5 -14h-77l-21 -97q-2 -9 2.5 -15.5t20.5 -7.5l78 -4l-6 -33h-284l8 34l55 4q17 1 24.5 5.5t9.5 17.5l128 603q3 13 -2.5 17.5t-20.5 5.5l-57 4l8 34h285l-7 -33
l-81 -4q-15 -1 -23 -7.5t-10 -15.5l-15 -69h74zM290 549l-74 -345h89q49 0 92 12.5t75 38t50 63.5t18 89q0 69 -42.5 105.5t-119.5 36.5h-88z" />
    <glyph glyph-name="germandbls" unicode="&#xdf;" horiz-adv-x="684" 
d="M165 520q26 123 94 178t181 55q46 0 84 -12.5t64.5 -34.5t41 -51.5t14.5 -63.5q0 -36 -13 -66t-35.5 -54t-54 -40t-68.5 -23l-1 -1q27 -6 54.5 -18.5t50 -34.5t36.5 -53t14 -74q0 -57 -20.5 -102t-57 -75.5t-87.5 -46.5t-111 -16q-42 0 -87.5 5t-72.5 11l18 78h2
q13 -8 31 -15t38.5 -13t41 -9.5t38.5 -3.5q88 0 131 49.5t43 136.5q0 35 -12.5 63.5t-35 49t-53 31.5t-67.5 11h-38l10 47h16q40 0 76 8.5t64 27.5t44.5 48t16.5 71q0 63 -32.5 92t-95.5 29q-74 0 -115 -47t-64 -153l-64 -302l-42 -202h-157l8 33l41 4q16 2 23.5 5.5
t9.5 17.5z" />
    <glyph glyph-name="agrave" unicode="&#xe0;" horiz-adv-x="586" 
d="M400 270q-83 -6 -138.5 -17.5t-88.5 -29.5t-46.5 -43t-13.5 -58q0 -35 24 -58.5t74 -23.5q27 0 54.5 11t52.5 35t44.5 61.5t30.5 89.5zM416 359q6 27 6 47q0 27 -9 45.5t-24.5 29.5t-36.5 15.5t-45 4.5q-34 0 -58.5 -10.5t-41 -27.5t-25.5 -38.5t-11 -43.5h-87
q7 40 28 71t52 52t70 32t83 11q87 0 139.5 -36.5t52.5 -112.5q0 -30 -9 -67q-6 -25 -14 -58.5t-17 -75.5q-9 -41 -16 -73t-11 -60q-2 -14 2 -17t19 -6l43 -4l-7 -33l-146 -8l17 101h-2q-32 -47 -81.5 -78.5t-115.5 -31.5q-71 0 -111.5 35.5t-40.5 90.5q0 52 27.5 86.5t78 57
t122 35.5t160.5 22zM195 745h131l54 -142h-35z" />
    <glyph glyph-name="aacute" unicode="&#xe1;" horiz-adv-x="586" 
d="M400 270q-83 -6 -138.5 -17.5t-88.5 -29.5t-46.5 -43t-13.5 -58q0 -35 24 -58.5t74 -23.5q27 0 54.5 11t52.5 35t44.5 61.5t30.5 89.5zM416 359q6 27 6 47q0 27 -9 45.5t-24.5 29.5t-36.5 15.5t-45 4.5q-34 0 -58.5 -10.5t-41 -27.5t-25.5 -38.5t-11 -43.5h-87
q7 40 28 71t52 52t70 32t83 11q87 0 139.5 -36.5t52.5 -112.5q0 -30 -9 -67q-6 -25 -14 -58.5t-17 -75.5q-9 -41 -16 -73t-11 -60q-2 -14 2 -17t19 -6l43 -4l-7 -33l-146 -8l17 101h-2q-32 -47 -81.5 -78.5t-115.5 -31.5q-71 0 -111.5 35.5t-40.5 90.5q0 52 27.5 86.5t78 57
t122 35.5t160.5 22zM341 603h-35l112 142h131z" />
    <glyph glyph-name="acircumflex" unicode="&#xe2;" horiz-adv-x="586" 
d="M400 270q-83 -6 -138.5 -17.5t-88.5 -29.5t-46.5 -43t-13.5 -58q0 -35 24 -58.5t74 -23.5q27 0 54.5 11t52.5 35t44.5 61.5t30.5 89.5zM416 359q6 27 6 47q0 27 -9 45.5t-24.5 29.5t-36.5 15.5t-45 4.5q-34 0 -58.5 -10.5t-41 -27.5t-25.5 -38.5t-11 -43.5h-87
q7 40 28 71t52 52t70 32t83 11q87 0 139.5 -36.5t52.5 -112.5q0 -30 -9 -67q-6 -25 -14 -58.5t-17 -75.5q-9 -41 -16 -73t-11 -60q-2 -14 2 -17t19 -6l43 -4l-7 -33l-146 -8l17 101h-2q-32 -47 -81.5 -78.5t-115.5 -31.5q-71 0 -111.5 35.5t-40.5 90.5q0 52 27.5 86.5t78 57
t122 35.5t160.5 22zM499 603h-60l-86 73l-119 -73h-60l170 142h47z" />
    <glyph glyph-name="atilde" unicode="&#xe3;" horiz-adv-x="586" 
d="M400 270q-83 -6 -138.5 -17.5t-88.5 -29.5t-46.5 -43t-13.5 -58q0 -35 24 -58.5t74 -23.5q27 0 54.5 11t52.5 35t44.5 61.5t30.5 89.5zM416 359q6 27 6 47q0 27 -9 45.5t-24.5 29.5t-36.5 15.5t-45 4.5q-34 0 -58.5 -10.5t-41 -27.5t-25.5 -38.5t-11 -43.5h-87
q7 40 28 71t52 52t70 32t83 11q87 0 139.5 -36.5t52.5 -112.5q0 -30 -9 -67q-6 -25 -14 -58.5t-17 -75.5q-9 -41 -16 -73t-11 -60q-2 -14 2 -17t19 -6l43 -4l-7 -33l-146 -8l17 101h-2q-32 -47 -81.5 -78.5t-115.5 -31.5q-71 0 -111.5 35.5t-40.5 90.5q0 52 27.5 86.5t78 57
t122 35.5t160.5 22zM424 674q25 0 38 13t18 38h61q-10 -52 -39 -82t-73 -30q-23 0 -43 8t-38 18t-33.5 18t-30.5 8q-24 0 -36 -14t-19 -38h-60q8 56 40 84t74 28q23 0 42.5 -8t36.5 -17.5t32 -17.5t30 -8z" />
    <glyph glyph-name="adieresis" unicode="&#xe4;" horiz-adv-x="586" 
d="M400 270q-83 -6 -138.5 -17.5t-88.5 -29.5t-46.5 -43t-13.5 -58q0 -35 24 -58.5t74 -23.5q27 0 54.5 11t52.5 35t44.5 61.5t30.5 89.5zM416 359q6 27 6 47q0 27 -9 45.5t-24.5 29.5t-36.5 15.5t-45 4.5q-34 0 -58.5 -10.5t-41 -27.5t-25.5 -38.5t-11 -43.5h-87
q7 40 28 71t52 52t70 32t83 11q87 0 139.5 -36.5t52.5 -112.5q0 -30 -9 -67q-6 -25 -14 -58.5t-17 -75.5q-9 -41 -16 -73t-11 -60q-2 -14 2 -17t19 -6l43 -4l-7 -33l-146 -8l17 101h-2q-32 -47 -81.5 -78.5t-115.5 -31.5q-71 0 -111.5 35.5t-40.5 90.5q0 52 27.5 86.5t78 57
t122 35.5t160.5 22zM217 745h86l-25 -119h-86zM440 745h86l-25 -119h-86z" />
    <glyph glyph-name="aring" unicode="&#xe5;" horiz-adv-x="586" 
d="M400 270q-83 -6 -138.5 -17.5t-88.5 -29.5t-46.5 -43t-13.5 -58q0 -35 24 -58.5t74 -23.5q27 0 54.5 11t52.5 35t44.5 61.5t30.5 89.5zM416 359q6 27 6 47q0 27 -9 45.5t-24.5 29.5t-36.5 15.5t-45 4.5q-34 0 -58.5 -10.5t-41 -27.5t-25.5 -38.5t-11 -43.5h-87
q7 40 28 71t52 52t70 32t83 11q87 0 139.5 -36.5t52.5 -112.5q0 -30 -9 -67q-6 -25 -14 -58.5t-17 -75.5q-9 -41 -16 -73t-11 -60q-2 -14 2 -17t19 -6l43 -4l-7 -33l-146 -8l17 101h-2q-32 -47 -81.5 -78.5t-115.5 -31.5q-71 0 -111.5 35.5t-40.5 90.5q0 52 27.5 86.5t78 57
t122 35.5t160.5 22zM371 768q19 0 36 -6.5t30 -18.5t20.5 -28.5t7.5 -35.5q0 -38 -27.5 -63t-66.5 -25q-40 0 -67 25t-27 63q0 19 7.5 35.5t20.5 28.5t30 18.5t36 6.5zM371 724q-17 0 -31 -13t-14 -32q0 -20 14 -32t31 -12t31 12t14 32q0 19 -14 32t-31 13z" />
    <glyph glyph-name="ae" unicode="&#xe6;" horiz-adv-x="923" 
d="M606 -13q-79 0 -129 38t-70 105q-22 -41 -48 -68.5t-54.5 -44t-59.5 -23.5t-64 -7q-74 0 -118 41.5t-44 110.5q0 44 20.5 76.5t57.5 53.5q40 23 95 33.5t120 16.5l88 7l10 46q14 64 -14.5 95t-94.5 31q-35 0 -60.5 -10.5t-42 -27t-26 -38t-12.5 -43.5h-86q13 76 74 120.5
t158 44.5q65 0 112 -19t68 -61q36 37 85 58.5t112 21.5q43 0 84.5 -15t70.5 -48.5t40.5 -87t-4.5 -129.5h-395q-6 -36 -4.5 -76t15.5 -74t43 -56t77 -22q32 0 60 10.5t50 28.5t36.5 42t19.5 51h87q-11 -40 -35 -73.5t-58 -57.5t-76 -37t-88 -13zM396 284l-82 -7
q-44 -3 -81 -12t-63.5 -25t-41.5 -40.5t-15 -60.5q0 -48 26.5 -73.5t68.5 -25.5q22 0 48 8.5t50.5 31t45.5 61t34 97.5zM664 495q-38 0 -67.5 -16t-51.5 -41.5t-36.5 -58.5t-21.5 -67h306q9 50 2 85t-25.5 56.5t-46 31.5t-59.5 10z" />
    <glyph glyph-name="ccedilla" unicode="&#xe7;" horiz-adv-x="581" 
d="M43 206q0 61 22 122t62.5 109.5t97.5 79t128 30.5q94 0 146 -49t57 -131h-87q0 62 -31.5 96.5t-94.5 34.5q-56 0 -95.5 -32t-64.5 -79t-36.5 -100.5t-11.5 -96.5q0 -72 31 -113t95 -41q32 0 60.5 10.5t51.5 28.5t38.5 42t21.5 51h87q-13 -40 -38.5 -73.5t-61 -57.5
t-77.5 -37t-88 -13q-50 0 -89 16t-66.5 44.5t-42 69t-14.5 89.5zM247 3h48l-48 -53q44 5 69 -15.5t25 -53.5q0 -25 -11 -43.5t-29 -31t-41 -18.5t-48 -6t-43.5 3.5t-40.5 14.5l17 36q11 -5 26 -9t32 -4q27 0 49 10t22 35q0 20 -14 29t-28 9q-24 0 -44 -10l-16 19z" />
    <glyph glyph-name="egrave" unicode="&#xe8;" horiz-adv-x="590" 
d="M178 745h131l54 -142h-35zM521 168q-13 -40 -38.5 -73.5t-60.5 -57.5t-77 -37t-88 -13q-50 0 -89.5 16t-67 44.5t-42.5 69t-15 89.5q0 53 19 113t57.5 110.5t97.5 84t140 33.5q43 0 84.5 -16t69 -50t37 -87t-11.5 -128h-395l-5.5 -38.5t-2.5 -36.5q0 -73 32.5 -114
t96.5 -41q32 0 60.5 10.5t51.5 28.5t38.5 42t21.5 51h87zM346 498q-41 0 -73 -15.5t-56 -41t-40.5 -59t-25.5 -68.5h307q10 48 5 82.5t-21 57t-41 33.5t-55 11z" />
    <glyph glyph-name="eacute" unicode="&#xe9;" horiz-adv-x="590" 
d="M521 168q-13 -40 -38.5 -73.5t-60.5 -57.5t-77 -37t-88 -13q-50 0 -89.5 16t-67 44.5t-42.5 69t-15 89.5q0 53 19 113t57.5 110.5t97.5 84t140 33.5q43 0 84.5 -16t69 -50t37 -87t-11.5 -128h-395l-5.5 -38.5t-2.5 -36.5q0 -73 32.5 -114t96.5 -41q32 0 60.5 10.5
t51.5 28.5t38.5 42t21.5 51h87zM346 498q-41 0 -73 -15.5t-56 -41t-40.5 -59t-25.5 -68.5h307q10 48 5 82.5t-21 57t-41 33.5t-55 11zM356 603h-35l112 142h131z" />
    <glyph glyph-name="ecircumflex" unicode="&#xea;" horiz-adv-x="590" 
d="M521 168q-13 -40 -38.5 -73.5t-60.5 -57.5t-77 -37t-88 -13q-50 0 -89.5 16t-67 44.5t-42.5 69t-15 89.5q0 53 19 113t57.5 110.5t97.5 84t140 33.5q43 0 84.5 -16t69 -50t37 -87t-11.5 -128h-395l-5.5 -38.5t-2.5 -36.5q0 -73 32.5 -114t96.5 -41q32 0 60.5 10.5
t51.5 28.5t38.5 42t21.5 51h87zM346 498q-41 0 -73 -15.5t-56 -41t-40.5 -59t-25.5 -68.5h307q10 48 5 82.5t-21 57t-41 33.5t-55 11zM521 603h-60l-86 73l-119 -73h-60l170 142h47z" />
    <glyph glyph-name="edieresis" unicode="&#xeb;" horiz-adv-x="590" 
d="M521 168q-13 -40 -38.5 -73.5t-60.5 -57.5t-77 -37t-88 -13q-50 0 -89.5 16t-67 44.5t-42.5 69t-15 89.5q0 53 19 113t57.5 110.5t97.5 84t140 33.5q43 0 84.5 -16t69 -50t37 -87t-11.5 -128h-395l-5.5 -38.5t-2.5 -36.5q0 -73 32.5 -114t96.5 -41q32 0 60.5 10.5
t51.5 28.5t38.5 42t21.5 51h87zM346 498q-41 0 -73 -15.5t-56 -41t-40.5 -59t-25.5 -68.5h307q10 48 5 82.5t-21 57t-41 33.5t-55 11zM231 745h86l-25 -119h-86zM454 745h86l-25 -119h-86z" />
    <glyph glyph-name="igrave" unicode="&#xec;" 
d="M233 439l-80 -378q-3 -14 2.5 -17.5t20.5 -5.5l41 -4l-7 -34h-225l7 34l41 4q17 2 24 5.5t10 17.5l88 414q3 12 -1.5 18t-21.5 8l-41 5l6 32h159zM59 745h131l54 -142h-35z" />
    <glyph glyph-name="iacute" unicode="&#xed;" 
d="M233 439l-80 -378q-3 -14 2.5 -17.5t20.5 -5.5l41 -4l-7 -34h-225l7 34l41 4q17 2 24 5.5t10 17.5l88 414q3 12 -1.5 18t-21.5 8l-41 5l6 32h159zM216 603h-35l112 142h131z" />
    <glyph glyph-name="icircumflex" unicode="&#xee;" 
d="M233 439l-80 -378q-3 -14 2.5 -17.5t20.5 -5.5l41 -4l-7 -34h-225l7 34l41 4q17 2 24 5.5t10 17.5l88 414q3 12 -1.5 18t-21.5 8l-41 5l6 32h159zM390 603h-60l-86 73l-119 -73h-60l170 142h47z" />
    <glyph glyph-name="idieresis" unicode="&#xef;" 
d="M233 439l-80 -378q-3 -14 2.5 -17.5t20.5 -5.5l41 -4l-7 -34h-225l7 34l41 4q17 2 24 5.5t10 17.5l88 414q3 12 -1.5 18t-21.5 8l-41 5l6 32h159zM97 745h86l-25 -119h-86zM320 745h86l-25 -119h-86z" />
    <glyph glyph-name="eth" unicode="&#xf0;" horiz-adv-x="593" 
d="M279 697q-21 9 -43 16t-46 14l18 34q58 -11 108 -31l75 67l28 -32l-60 -53q45 -22 83 -51.5t66 -67.5t44 -84.5t16 -100.5q0 -78 -24.5 -154t-67 -135t-99.5 -95.5t-122 -36.5q-51 0 -90 17t-66 47t-41 71t-14 90q0 58 19.5 117.5t56.5 107t90 77.5t121 30
q30 0 54.5 -8.5t44 -22t32.5 -31t19 -35.5l2 1q-2 75 -44.5 132.5t-118.5 97.5l-90 -80l-27 32zM256 37q52 0 91 32t65 79.5t39.5 101t13.5 96.5q0 78 -37.5 113t-98.5 35q-49 0 -85 -29.5t-60 -73t-36 -94.5t-12 -93q0 -75 28.5 -121t91.5 -46z" />
    <glyph glyph-name="ntilde" unicode="&#xf1;" horiz-adv-x="653" 
d="M500 60q-3 -14 3 -17.5t21 -5.5l41 -4l-7 -33h-226l7 33l42 4q16 2 23.5 5.5t9.5 17.5l61 286q15 72 -1 109t-75 37q-19 0 -45 -9t-53 -33.5t-51.5 -68.5t-39.5 -114l-44 -207q-3 -14 2.5 -17.5t21.5 -5.5l41 -4l-7 -33h-226l7 33l42 4q16 2 23.5 5.5t9.5 17.5l88 415
q4 12 -1 18t-22 8l-40 5l6 32h156l-21 -104h2q33 51 78.5 82t105.5 31q46 0 75.5 -15.5t44.5 -41t17.5 -57.5t-4.5 -66zM479 674q25 0 38 13t18 38h61q-10 -52 -39 -82t-73 -30q-23 0 -43 8t-38 18t-33.5 18t-30.5 8q-24 0 -36 -14t-19 -38h-60q8 56 40 84t74 28
q23 0 42.5 -8t36.5 -17.5t32 -17.5t30 -8z" />
    <glyph glyph-name="ograve" unicode="&#xf2;" horiz-adv-x="599" 
d="M346 544q49 0 88 -15.5t66 -44t41.5 -68.5t14.5 -89q0 -66 -23 -127t-63.5 -108.5t-96 -76t-120.5 -28.5q-50 0 -89 15.5t-66 44t-41 68.5t-14 89q0 66 23 127t63.5 108.5t96 76t120.5 28.5zM339 495q-37 0 -66.5 -15t-52 -40.5t-39 -57.5t-26.5 -66.5t-15 -67.5t-5 -60
q0 -72 30.5 -112t94.5 -40q37 0 66.5 15t52 40.5t39 57.5t26.5 66.5t15 67.5t5 60q0 72 -30.5 112t-94.5 40zM178 745h131l54 -142h-35z" />
    <glyph glyph-name="oacute" unicode="&#xf3;" horiz-adv-x="599" 
d="M346 544q49 0 88 -15.5t66 -44t41.5 -68.5t14.5 -89q0 -66 -23 -127t-63.5 -108.5t-96 -76t-120.5 -28.5q-50 0 -89 15.5t-66 44t-41 68.5t-14 89q0 66 23 127t63.5 108.5t96 76t120.5 28.5zM339 495q-37 0 -66.5 -15t-52 -40.5t-39 -57.5t-26.5 -66.5t-15 -67.5t-5 -60
q0 -72 30.5 -112t94.5 -40q37 0 66.5 15t52 40.5t39 57.5t26.5 66.5t15 67.5t5 60q0 72 -30.5 112t-94.5 40zM361 603h-35l112 142h131z" />
    <glyph glyph-name="ocircumflex" unicode="&#xf4;" horiz-adv-x="599" 
d="M346 544q49 0 88 -15.5t66 -44t41.5 -68.5t14.5 -89q0 -66 -23 -127t-63.5 -108.5t-96 -76t-120.5 -28.5q-50 0 -89 15.5t-66 44t-41 68.5t-14 89q0 66 23 127t63.5 108.5t96 76t120.5 28.5zM339 495q-37 0 -66.5 -15t-52 -40.5t-39 -57.5t-26.5 -66.5t-15 -67.5t-5 -60
q0 -72 30.5 -112t94.5 -40q37 0 66.5 15t52 40.5t39 57.5t26.5 66.5t15 67.5t5 60q0 72 -30.5 112t-94.5 40zM506 603h-60l-86 73l-119 -73h-60l170 142h47z" />
    <glyph glyph-name="otilde" unicode="&#xf5;" horiz-adv-x="599" 
d="M346 544q49 0 88 -15.5t66 -44t41.5 -68.5t14.5 -89q0 -66 -23 -127t-63.5 -108.5t-96 -76t-120.5 -28.5q-50 0 -89 15.5t-66 44t-41 68.5t-14 89q0 66 23 127t63.5 108.5t96 76t120.5 28.5zM339 495q-37 0 -66.5 -15t-52 -40.5t-39 -57.5t-26.5 -66.5t-15 -67.5t-5 -60
q0 -72 30.5 -112t94.5 -40q37 0 66.5 15t52 40.5t39 57.5t26.5 66.5t15 67.5t5 60q0 72 -30.5 112t-94.5 40zM434 674q25 0 38 13t18 38h61q-10 -52 -39 -82t-73 -30q-23 0 -43 8t-38 18t-33.5 18t-30.5 8q-24 0 -36 -14t-19 -38h-60q8 56 40 84t74 28q23 0 42.5 -8
t36.5 -17.5t32 -17.5t30 -8z" />
    <glyph glyph-name="odieresis" unicode="&#xf6;" horiz-adv-x="599" 
d="M346 544q49 0 88 -15.5t66 -44t41.5 -68.5t14.5 -89q0 -66 -23 -127t-63.5 -108.5t-96 -76t-120.5 -28.5q-50 0 -89 15.5t-66 44t-41 68.5t-14 89q0 66 23 127t63.5 108.5t96 76t120.5 28.5zM339 495q-37 0 -66.5 -15t-52 -40.5t-39 -57.5t-26.5 -66.5t-15 -67.5t-5 -60
q0 -72 30.5 -112t94.5 -40q37 0 66.5 15t52 40.5t39 57.5t26.5 66.5t15 67.5t5 60q0 72 -30.5 112t-94.5 40zM229 745h86l-25 -119h-86zM452 745h86l-25 -119h-86z" />
    <glyph glyph-name="divide" unicode="&#xf7;" horiz-adv-x="705" 
d="M310 159h88v-95h-88v95zM310 474h88v-95h-88v95zM97 239v60h511v-60h-511z" />
    <glyph glyph-name="oslash" unicode="&#xf8;" horiz-adv-x="599" 
d="M346 544q35 0 64 -8t53 -22l35 46l33 -24l-36 -46q29 -29 45 -70t16 -93q0 -66 -23 -127t-63.5 -108.5t-96 -76t-120.5 -28.5q-37 0 -68 8.5t-56 24.5l-33 -43l-33 23l36 46q-56 58 -56 158q0 66 23 127t63.5 108.5t96 76t120.5 28.5zM260 36q37 0 66.5 15t52 40.5
t39 57.5t26.5 66.5t15 67.5t5 60q0 52 -16 87l-279 -359q32 -35 91 -35zM339 495q-37 0 -66.5 -15t-52 -40.5t-39 -57.5t-26.5 -66.5t-15 -67.5t-5 -60q0 -47 12 -80l277 357q-32 30 -85 30z" />
    <glyph glyph-name="ugrave" unicode="&#xf9;" horiz-adv-x="618" 
d="M381 94h-2q-35 -50 -77 -78.5t-106 -28.5q-46 0 -72.5 16.5t-39.5 42.5t-13.5 58t6.5 63l66 308q2 12 -2 18t-21 8l-41 5l6 32h157l-21 -99l-53 -251q-15 -72 -1.5 -108.5t70.5 -36.5q18 0 43 8.5t50.5 33.5t48.5 69.5t38 115.5l44 205q2 12 -2 18t-21 8l-42 5l6 32h159
l-22 -99l-79 -375q-3 -14 2.5 -17.5t21.5 -5.5l41 -4l-7 -33l-155 -8zM191 745h131l54 -142h-35z" />
    <glyph glyph-name="uacute" unicode="&#xfa;" horiz-adv-x="618" 
d="M381 94h-2q-35 -50 -77 -78.5t-106 -28.5q-46 0 -72.5 16.5t-39.5 42.5t-13.5 58t6.5 63l66 308q2 12 -2 18t-21 8l-41 5l6 32h157l-21 -99l-53 -251q-15 -72 -1.5 -108.5t70.5 -36.5q18 0 43 8.5t50.5 33.5t48.5 69.5t38 115.5l44 205q2 12 -2 18t-21 8l-42 5l6 32h159
l-22 -99l-79 -375q-3 -14 2.5 -17.5t21.5 -5.5l41 -4l-7 -33l-155 -8zM354 603h-35l112 142h131z" />
    <glyph glyph-name="ucircumflex" unicode="&#xfb;" horiz-adv-x="618" 
d="M381 94h-2q-35 -50 -77 -78.5t-106 -28.5q-46 0 -72.5 16.5t-39.5 42.5t-13.5 58t6.5 63l66 308q2 12 -2 18t-21 8l-41 5l6 32h157l-21 -99l-53 -251q-15 -72 -1.5 -108.5t70.5 -36.5q18 0 43 8.5t50.5 33.5t48.5 69.5t38 115.5l44 205q2 12 -2 18t-21 8l-42 5l6 32h159
l-22 -99l-79 -375q-3 -14 2.5 -17.5t21.5 -5.5l41 -4l-7 -33l-155 -8zM514 603h-60l-86 73l-119 -73h-60l170 142h47z" />
    <glyph glyph-name="udieresis" unicode="&#xfc;" horiz-adv-x="618" 
d="M381 94h-2q-35 -50 -77 -78.5t-106 -28.5q-46 0 -72.5 16.5t-39.5 42.5t-13.5 58t6.5 63l66 308q2 12 -2 18t-21 8l-41 5l6 32h157l-21 -99l-53 -251q-15 -72 -1.5 -108.5t70.5 -36.5q18 0 43 8.5t50.5 33.5t48.5 69.5t38 115.5l44 205q2 12 -2 18t-21 8l-42 5l6 32h159
l-22 -99l-79 -375q-3 -14 2.5 -17.5t21.5 -5.5l41 -4l-7 -33l-155 -8zM240 745h86l-25 -119h-86zM463 745h86l-25 -119h-86z" />
    <glyph glyph-name="yacute" unicode="&#xfd;" horiz-adv-x="551" 
d="M-57 -189l13 61h71q21 0 35.5 2t28.5 13t30 34.5t41 66.5l11 19l-75 463q-3 19 -8 24.5t-23 7.5l-26 3l7 33h213l-7 -33l-37 -3q-35 -3 -32 -23l56 -384l192 338q22 37 22.5 52t-33.5 18l-23 2l7 33h194l-7 -33l-25 -2q-23 -2 -37.5 -15t-30.5 -36l-270 -466
q-38 -66 -63.5 -101.5t-48.5 -52t-48.5 -19t-62.5 -2.5h-64zM351 603h-35l112 142h131z" />
    <glyph glyph-name="thorn" unicode="&#xfe;" horiz-adv-x="652" 
d="M396 489q-42 0 -77.5 -25.5t-62 -65.5t-41.5 -87.5t-15 -91.5q0 -86 32 -133t98 -47q40 0 74 23t58.5 62t38 90t13.5 107q0 37 -7 67.5t-21 53t-36.5 35t-53.5 12.5zM-43 -189l8 33l42 4q15 2 22 5.5t10 17.5l173 814q4 14 -2 17.5t-22 5.5l-40 4l8 33h157l-23 -100
l-23 -110l-12 -52t-14 -52h2q13 23 32 43.5t42 35.5t48.5 24t52.5 9q48 0 83.5 -17.5t59 -47.5t35 -70.5t11.5 -86.5q0 -75 -21.5 -137t-58.5 -105.5t-85.5 -67.5t-103.5 -24q-60 0 -103 38.5t-56 100.5h-3l-21 -117l-30 -138q-3 -14 2.5 -18t21.5 -5l62 -4l-7 -33h-247z
" />
    <glyph glyph-name="ydieresis" unicode="&#xff;" horiz-adv-x="551" 
d="M-57 -189l13 61h71q21 0 35.5 2t28.5 13t30 34.5t41 66.5l11 19l-75 463q-3 19 -8 24.5t-23 7.5l-26 3l7 33h213l-7 -33l-37 -3q-35 -3 -32 -23l56 -384l192 338q22 37 22.5 52t-33.5 18l-23 2l7 33h194l-7 -33l-25 -2q-23 -2 -37.5 -15t-30.5 -36l-270 -466
q-38 -66 -63.5 -101.5t-48.5 -52t-48.5 -19t-62.5 -2.5h-64zM224 745h86l-25 -119h-86zM447 745h86l-25 -119h-86z" />
    <glyph glyph-name="Abreve" unicode="&#x102;" horiz-adv-x="742" 
d="M441 732h71l117 -646q4 -27 13.5 -38t41.5 -14l11 -1l-7 -33h-262l7 33l46 3q20 1 32 3.5t17.5 8.5t6.5 16t-2 26l-24 134h-315l-60 -101q-17 -28 -24 -44.5t-5.5 -26t12 -13t28.5 -4.5l40 -2l-7 -33h-224l7 33l13 2q18 3 30 7t23 15.5t24 31.5t33 54zM224 273h276
l-64 354zM660 891q-17 -54 -60 -88t-123 -34q-69 0 -106 34t-37 88h66q0 -32 22.5 -49.5t59.5 -17.5q46 0 74 18t39 49h65z" />
    <glyph glyph-name="Amacron" unicode="&#x100;" horiz-adv-x="742" 
d="M441 732h71l117 -646q4 -27 13.5 -38t41.5 -14l11 -1l-7 -33h-262l7 33l46 3q20 1 32 3.5t17.5 8.5t6.5 16t-2 26l-24 134h-315l-60 -101q-17 -28 -24 -44.5t-5.5 -26t12 -13t28.5 -4.5l40 -2l-7 -33h-224l7 33l13 2q18 3 30 7t23 15.5t24 31.5t33 54zM224 273h276
l-64 354zM324 798l14 67h311l-14 -67h-311z" />
    <glyph glyph-name="Aogonek" unicode="&#x104;" horiz-adv-x="742" 
d="M426 0l7 33l46 3q20 1 32 3.5t17.5 8.5t6.5 16t-2 26l-25 134h-314l-60 -101q-17 -28 -24 -44.5t-5.5 -26t12 -13t28.5 -4.5l40 -2l-7 -33h-224l8 33l12 2q18 1 30 5.5t23 16t24 32t33 54.5l357 589h71l117 -646q4 -27 13.5 -38t41.5 -14l11 -1l-7 -33h-64
q-12 -5 -31.5 -14.5t-38 -22t-32 -28.5t-13.5 -35q0 -23 19 -33.5t42 -10.5q14 0 28 2t25 7l-10 -44q-14 -6 -34.5 -9t-43.5 -3q-19 0 -38.5 3.5t-35.5 13t-26.5 25t-10.5 39.5q0 18 9 33.5t23.5 29.5t33.5 25.5t39 21.5h-103zM224 273h275l-63 354z" />
    <glyph glyph-name="Cacute" unicode="&#x106;" horiz-adv-x="740" 
d="M456 742q55 0 105 -16t89 -46.5t63 -74t27 -98.5h-94q-4 85 -52.5 135t-147.5 50q-62 0 -114.5 -30t-91.5 -83.5t-61 -126t-22 -156.5q0 -57 12.5 -105t38.5 -82t66 -53t94 -19q89 0 154 46.5t85 141.5h94q-12 -55 -42.5 -99t-75 -75t-101 -47.5t-120.5 -16.5
q-65 0 -121 21.5t-97 62t-65 99t-24 131.5q0 84 27 163.5t78.5 141t126 99t169.5 37.5zM462 773h-60l139 117h123z" />
    <glyph glyph-name="Ccaron" unicode="&#x10c;" horiz-adv-x="740" 
d="M456 742q55 0 105 -16t89 -46.5t63 -74t27 -98.5h-94q-4 85 -52.5 135t-147.5 50q-62 0 -114.5 -30t-91.5 -83.5t-61 -126t-22 -156.5q0 -57 12.5 -105t38.5 -82t66 -53t94 -19q89 0 154 46.5t85 141.5h94q-12 -55 -42.5 -99t-75 -75t-101 -47.5t-120.5 -16.5
q-65 0 -121 21.5t-97 62t-65 99t-24 131.5q0 84 27 163.5t78.5 141t126 99t169.5 37.5zM335 890h66l91 -58l117 58h66l-165 -117h-65z" />
    <glyph glyph-name="Ccircumflex" unicode="&#x108;" horiz-adv-x="740" 
d="M456 742q55 0 105 -16t89 -46.5t63 -74t27 -98.5h-94q-4 85 -52.5 135t-147.5 50q-62 0 -114.5 -30t-91.5 -83.5t-61 -126t-22 -156.5q0 -57 12.5 -105t38.5 -82t66 -53t94 -19q89 0 154 46.5t85 141.5h94q-12 -55 -42.5 -99t-75 -75t-101 -47.5t-120.5 -16.5
q-65 0 -121 21.5t-97 62t-65 99t-24 131.5q0 84 27 163.5t78.5 141t126 99t169.5 37.5zM638 773h-66l-92 58l-116 -58h-66l164 117h64z" />
    <glyph glyph-name="Cdotaccent" unicode="&#x10a;" horiz-adv-x="740" 
d="M456 742q55 0 105 -16t89 -46.5t63 -74t27 -98.5h-94q-4 85 -52.5 135t-147.5 50q-62 0 -114.5 -30t-91.5 -83.5t-61 -126t-22 -156.5q0 -57 12.5 -105t38.5 -82t66 -53t94 -19q89 0 154 46.5t85 141.5h94q-12 -55 -42.5 -99t-75 -75t-101 -47.5t-120.5 -16.5
q-65 0 -121 21.5t-97 62t-65 99t-24 131.5q0 84 27 163.5t78.5 141t126 99t169.5 37.5zM451 890h86l-25 -117h-86z" />
    <glyph glyph-name="Dcaron" unicode="&#x10e;" horiz-adv-x="766" 
d="M650 433q0 77 -24 125t-63 75t-87.5 36.5t-97.5 9.5h-61l-134 -633h96q37 0 79 7t83.5 24.5t79 46t66.5 71.5t46 101.5t17 136.5zM102 -1q-50 0 -105 1l7 34l56 4q17 2 24 6t10 17l128 603q3 13 -2.5 17.5t-20.5 5.5l-57 4l7 34h103q41 0 80.5 0.5t58.5 0.5
q72 0 137 -15.5t114.5 -50t79 -90t29.5 -134.5q0 -123 -43 -206.5t-112.5 -134.5t-157.5 -73.5t-179 -22.5h-157zM309 890h66l91 -58l117 58h66l-165 -117h-65z" />
    <glyph glyph-name="Dcroat" unicode="&#x110;" horiz-adv-x="766" 
d="M102 -1q-50 0 -105 1l8 34l55 4q17 2 24 6t10 17l63 298h-111l11 50h111l54 255q3 13 -2.5 17.5t-20.5 5.5l-57 4l8 34h102q41 0 80.5 0.5t58.5 0.5q72 0 137 -15.5t114.5 -50t79 -90t29.5 -134.5q0 -123 -43 -206.5t-112.5 -134.5t-157.5 -73.5t-179 -22.5h-157z
M378 359h-129l-66 -313h96q37 0 79 7t83.5 24.5t79 46t66.5 71.5t46 101.5t17 136.5q0 77 -24 125t-63 75t-87.5 36.5t-97.5 9.5h-61l-57 -270h129z" />
    <glyph glyph-name="Ebreve" unicode="&#x114;" horiz-adv-x="690" 
d="M710 725l-45 -214h-34l8 98q1 25 -2 39t-14.5 20.5t-32 8t-53.5 1.5h-220l-59 -279h280l-11 -51h-280l-64 -301h228q33 0 53.5 1t34.5 8t23.5 21.5t18.5 40.5l35 96h33l-45 -214h-567l7 34l56 4q17 2 24 6t10 17l128 603q3 13 -2.5 17.5t-20.5 5.5l-57 4l7 34h561z
M645 890q-17 -54 -60 -88t-123 -34q-69 0 -106 34t-37 88h66q0 -32 22.5 -49.5t59.5 -17.5q46 0 74 18t39 49h65z" />
    <glyph glyph-name="Ecaron" unicode="&#x11a;" horiz-adv-x="690" 
d="M710 725l-45 -214h-34l8 98q1 25 -2 39t-14.5 20.5t-32 8t-53.5 1.5h-220l-59 -279h280l-11 -51h-280l-64 -301h228q33 0 53.5 1t34.5 8t23.5 21.5t18.5 40.5l35 96h33l-45 -214h-567l7 34l56 4q17 2 24 6t10 17l128 603q3 13 -2.5 17.5t-20.5 5.5l-57 4l7 34h561z
M325 890h66l91 -58l117 58h66l-165 -117h-65z" />
    <glyph glyph-name="Emacron" unicode="&#x112;" horiz-adv-x="690" 
d="M710 725l-45 -214h-34l8 98q1 25 -2 39t-14.5 20.5t-32 8t-53.5 1.5h-220l-59 -279h280l-11 -51h-280l-64 -301h228q33 0 53.5 1t34.5 8t23.5 21.5t18.5 40.5l35 96h33l-45 -214h-567l7 34l56 4q17 2 24 6t10 17l128 603q3 13 -2.5 17.5t-20.5 5.5l-57 4l7 34h561z
M307 798l14 67h311l-14 -67h-311z" />
    <glyph glyph-name="Eogonek" unicode="&#x118;" horiz-adv-x="690" 
d="M-3 0l7 34l56 4q17 2 24 6t10 17l128 603q3 13 -2.5 17.5t-20.5 5.5l-57 4l7 34h561l-45 -214h-34l8 98q1 25 -2 39t-14.5 20.5t-32 8t-53.5 1.5h-220l-59 -279h280l-11 -51h-280l-64 -301h228q33 0 53.5 1t34.5 8t23.5 21.5t18.5 40.5l35 96h33l-45 -214
q-13 -5 -32.5 -14.5t-38 -22t-32 -28.5t-13.5 -35q0 -23 19 -33.5t42 -10.5q31 0 54 9l-10 -44q-14 -6 -35 -9t-44 -3q-19 0 -38.5 3.5t-35.5 13t-26.5 25t-10.5 39.5q0 18 9 33.5t24 29.5t34 25.5t39 21.5h-472z" />
    <glyph glyph-name="Edotaccent" unicode="&#x116;" horiz-adv-x="690" 
d="M710 725l-45 -214h-34l8 98q1 25 -2 39t-14.5 20.5t-32 8t-53.5 1.5h-220l-59 -279h280l-11 -51h-280l-64 -301h228q33 0 53.5 1t34.5 8t23.5 21.5t18.5 40.5l35 96h33l-45 -214h-567l7 34l56 4q17 2 24 6t10 17l128 603q3 13 -2.5 17.5t-20.5 5.5l-57 4l7 34h561z
M449 890h86l-25 -117h-86z" />
    <glyph glyph-name="Gbreve" unicode="&#x11e;" horiz-adv-x="779" 
d="M362 -13q-65 0 -121 21.5t-97 62t-65 99t-24 131.5q0 84 27 163.5t78.5 141t126 99t169.5 37.5q55 0 105 -16t89 -46.5t63 -74t27 -98.5h-94q-4 85 -52.5 135t-147.5 50q-62 0 -114.5 -30t-91.5 -83.5t-61 -126t-22 -156.5q0 -57 12.5 -105t38.5 -82t66 -53t94 -19
q40 0 80 11t74 37.5t60 69.5t39 107l9 46h-149l10 47h235l-75 -355h-52v100q-34 -51 -93 -82t-144 -31zM665 890q-17 -54 -60 -88t-123 -34q-69 0 -106 34t-37 88h66q0 -32 22.5 -49.5t59.5 -17.5q46 0 74 18t39 49h65z" />
    <glyph glyph-name="Gcircumflex" unicode="&#x11c;" horiz-adv-x="779" 
d="M362 -13q-65 0 -121 21.5t-97 62t-65 99t-24 131.5q0 84 27 163.5t78.5 141t126 99t169.5 37.5q55 0 105 -16t89 -46.5t63 -74t27 -98.5h-94q-4 85 -52.5 135t-147.5 50q-62 0 -114.5 -30t-91.5 -83.5t-61 -126t-22 -156.5q0 -57 12.5 -105t38.5 -82t66 -53t94 -19
q40 0 80 11t74 37.5t60 69.5t39 107l9 46h-149l10 47h235l-75 -355h-52v100q-34 -51 -93 -82t-144 -31zM634 773h-66l-92 58l-116 -58h-66l164 117h64z" />
    <glyph glyph-name="Gcommaaccent" unicode="&#x122;" horiz-adv-x="779" 
d="M362 -13q-65 0 -121 21.5t-97 62t-65 99t-24 131.5q0 84 27 163.5t78.5 141t126 99t169.5 37.5q55 0 105 -16t89 -46.5t63 -74t27 -98.5h-94q-4 85 -52.5 135t-147.5 50q-62 0 -114.5 -30t-91.5 -83.5t-61 -126t-22 -156.5q0 -57 12.5 -105t38.5 -82t66 -53t94 -19
q40 0 80 11t74 37.5t60 69.5t39 107l9 46h-149l10 47h235l-75 -355h-52v100q-34 -51 -93 -82t-144 -31zM306 -37h98l-21 -98l-65 -93h-56l61 99h-37z" />
    <glyph glyph-name="Gdotaccent" unicode="&#x120;" horiz-adv-x="779" 
d="M362 -13q-65 0 -121 21.5t-97 62t-65 99t-24 131.5q0 84 27 163.5t78.5 141t126 99t169.5 37.5q55 0 105 -16t89 -46.5t63 -74t27 -98.5h-94q-4 85 -52.5 135t-147.5 50q-62 0 -114.5 -30t-91.5 -83.5t-61 -126t-22 -156.5q0 -57 12.5 -105t38.5 -82t66 -53t94 -19
q40 0 80 11t74 37.5t60 69.5t39 107l9 46h-149l10 47h235l-75 -355h-52v100q-34 -51 -93 -82t-144 -31zM460 890h86l-25 -117h-86z" />
    <glyph glyph-name="Hbar" unicode="&#x126;" horiz-adv-x="857" 
d="M776 556h86l-10 -50h-87l-94 -445q-4 -13 2 -17.5t21 -5.5l57 -4l-7 -34h-263l7 34l57 4q17 2 24 6t10 17l63 298h-393l-63 -298q-3 -13 2.5 -17.5t20.5 -5.5l56 -4l-7 -34h-261l7 34l56 4q17 2 24 6t10 17l94 445h-86l10 50h87l23 108q3 13 -2.5 17.5t-20.5 5.5l-57 4
l7 34h262l-7 -34l-57 -4q-16 -2 -23 -6t-10 -17l-23 -108h393l23 108q3 13 -3 17.5t-20 5.5l-57 4l7 34h263l-7 -34l-57 -4q-17 -2 -23.5 -6t-10.5 -17zM653 409l20 97h-393l-20 -97h393z" />
    <glyph glyph-name="Hcircumflex" unicode="&#x124;" horiz-adv-x="857" 
d="M671 61q-4 -13 2 -17.5t21 -5.5l57 -4l-7 -34h-263l7 34l57 4q17 2 24 6t10 17l63 298h-393l-63 -298q-3 -13 2.5 -17.5t20.5 -5.5l56 -4l-7 -34h-261l7 34l56 4q17 2 24 6t10 17l128 603q3 13 -2.5 17.5t-20.5 5.5l-57 4l7 34h262l-7 -34l-57 -4q-16 -2 -23 -6t-10 -17
l-54 -255h393l54 255q3 13 -3 17.5t-20 5.5l-57 4l7 34h263l-7 -34l-57 -4q-17 -2 -23.5 -6t-10.5 -17zM701 773h-66l-92 58l-116 -58h-66l164 117h64z" />
    <glyph glyph-name="Ibreve" unicode="&#x12c;" horiz-adv-x="371" 
d="M258 0h-261l7 34l56 4q17 2 24 6t10 17l128 603q3 13 -2.5 17.5t-20.5 5.5l-57 4l7 34h262l-7 -34l-57 -4q-16 -1 -23 -5.5t-10 -17.5l-128 -603q-3 -13 2.5 -17.5t20.5 -5.5l56 -4zM472 890q-17 -54 -60 -88t-123 -34q-69 0 -106 34t-37 88h66q0 -32 22.5 -49.5
t59.5 -17.5q46 0 74 18t39 49h65z" />
    <glyph glyph-name="Idotaccent" unicode="&#x130;" horiz-adv-x="371" 
d="M258 0h-261l7 34l56 4q17 2 24 6t10 17l128 603q3 13 -2.5 17.5t-20.5 5.5l-57 4l7 34h262l-7 -34l-57 -4q-16 -1 -23 -5.5t-10 -17.5l-128 -603q-3 -13 2.5 -17.5t20.5 -5.5l56 -4zM270 890h86l-25 -117h-86z" />
    <glyph glyph-name="Imacron" unicode="&#x12a;" horiz-adv-x="371" 
d="M258 0h-261l7 34l56 4q17 2 24 6t10 17l128 603q3 13 -2.5 17.5t-20.5 5.5l-57 4l7 34h262l-7 -34l-57 -4q-16 -1 -23 -5.5t-10 -17.5l-128 -603q-3 -13 2.5 -17.5t20.5 -5.5l56 -4zM141 798l14 67h311l-14 -67h-311z" />
    <glyph glyph-name="Iogonek" unicode="&#x12e;" horiz-adv-x="371" 
d="M258 0h-261l7 34l56 4q17 2 24 6t10 17l128 603q3 13 -2.5 17.5t-20.5 5.5l-57 4l7 34h262l-7 -34l-57 -4q-16 -1 -23 -5.5t-10 -17.5l-128 -603q-3 -13 2.5 -17.5t20.5 -5.5l56 -4zM179 0q-13 -5 -32.5 -14.5t-38 -22t-32 -28.5t-13.5 -35q0 -23 19 -33.5t42 -10.5
q15 0 29.5 2t25.5 7l-11 -44q-14 -6 -35 -9t-44 -3q-19 0 -38.5 3.5t-35.5 13t-26.5 25t-10.5 39.5q0 18 9 33.5t24 29.5t34 25.5t39 21.5h95z" />
    <glyph glyph-name="Itilde" unicode="&#x128;" horiz-adv-x="371" 
d="M258 0h-261l7 34l56 4q17 2 24 6t10 17l128 603q3 13 -2.5 17.5t-20.5 5.5l-57 4l7 34h262l-7 -34l-57 -4q-16 -1 -23 -5.5t-10 -17.5l-128 -603q-3 -13 2.5 -17.5t20.5 -5.5l56 -4zM372 836q25 0 38 13.5t18 38.5h61q-10 -52 -39 -82.5t-73 -30.5q-23 0 -43 8.5t-38 18
t-33.5 18t-30.5 8.5q-24 0 -36 -14t-19 -39h-60q8 56 40 84.5t74 28.5q23 0 42.5 -8t36.5 -18t32 -18t30 -8z" />
    <glyph glyph-name="uni1ECA" unicode="&#x1eca;" horiz-adv-x="371" 
d="M258 0h-261l7 34l56 4q17 2 24 6t10 17l128 603q3 13 -2.5 17.5t-20.5 5.5l-57 4l7 34h262l-7 -34l-57 -4q-16 -1 -23 -5.5t-10 -17.5l-128 -603q-3 -13 2.5 -17.5t20.5 -5.5l56 -4zM73 -50h86l-25 -119h-86z" />
    <glyph glyph-name="Jcircumflex" unicode="&#x134;" horiz-adv-x="388" 
d="M236 165q-12 -59 -27.5 -92t-40.5 -49.5t-62 -20t-93 -3.5h-45l13 63h45q34 0 54 2.5t31.5 12t17.5 28t13 51.5l108 507q3 13 -3 17.5t-20 5.5l-57 4l7 34h263l-7 -34l-57 -4q-17 -1 -24 -5.5t-10 -17.5zM487 773h-66l-92 58l-116 -58h-66l164 117h64z" />
    <glyph glyph-name="Kcommaaccent" unicode="&#x136;" horiz-adv-x="760" 
d="M247 351l347 281q32 26 33.5 39.5t-22.5 15.5l-54 4l7 34h262l-7 -34l-32 -2q-16 -1 -28 -4.5t-27 -12.5t-35 -24.5t-51 -40.5l-213 -168l172 -357q10 -21 24.5 -32.5t45.5 -13.5l31 -2l-7 -34h-279l7 34l50 4q27 2 31 12.5t-10 40.5l-137 291l-122 -96l-47 -225
q-3 -13 2 -17.5t20 -5.5l57 -4l-7 -34h-261l7 34l55 4q17 1 24.5 5.5t10.5 17.5l128 603q3 13 -2.5 17.5t-20.5 5.5l-57 4l7 34h262l-7 -34l-57 -4q-16 -1 -23 -5.5t-10 -17.5zM279 -37h98l-21 -98l-65 -93h-56l61 99h-37z" />
    <glyph glyph-name="Lacute" unicode="&#x139;" horiz-adv-x="631" 
d="M4 34l56 4q17 2 24 6t10 17l128 603q3 13 -2.5 17.5t-20.5 5.5l-57 4l7 34h272l-7 -34l-67 -4q-16 -1 -23 -5.5t-10 -17.5l-131 -617h217q33 0 53.5 1t34 8t23 21.5t18.5 40.5l35 96h33l-45 -214h-555zM308 773h-60l139 117h123z" />
    <glyph glyph-name="Lcaron" unicode="&#x13d;" horiz-adv-x="631" 
d="M4 34l56 4q17 2 24 6t10 17l128 603q3 13 -2.5 17.5t-20.5 5.5l-57 4l7 34h272l-7 -34l-67 -4q-16 -1 -23 -5.5t-10 -17.5l-131 -617h217q33 0 53.5 1t34 8t23 21.5t18.5 40.5l35 96h33l-45 -214h-555zM478 725h111l-25 -117l-100 -148h-36l74 155h-47z" />
    <glyph glyph-name="Lcommaaccent" unicode="&#x13b;" horiz-adv-x="631" 
d="M4 34l56 4q17 2 24 6t10 17l128 603q3 13 -2.5 17.5t-20.5 5.5l-57 4l7 34h272l-7 -34l-67 -4q-16 -1 -23 -5.5t-10 -17.5l-131 -617h217q33 0 53.5 1t34 8t23 21.5t18.5 40.5l35 96h33l-45 -214h-555zM253 -37h98l-21 -98l-65 -93h-56l61 99h-37z" />
    <glyph glyph-name="Ldot" unicode="&#x13f;" horiz-adv-x="631" 
d="M4 34l56 4q17 2 24 6t10 17l128 603q3 13 -2.5 17.5t-20.5 5.5l-57 4l7 34h272l-7 -34l-67 -4q-16 -1 -23 -5.5t-10 -17.5l-131 -617h217q33 0 53.5 1t34 8t23 21.5t18.5 40.5l35 96h33l-45 -214h-555zM412 471h86l-25 -119h-86z" />
    <glyph glyph-name="Lslash" unicode="&#x141;" horiz-adv-x="644" 
d="M17 34l56 4q17 2 24 6t10 17l55 261l-124 -39l-16 52l153 48l60 281q3 13 -2.5 17.5t-20.5 5.5l-57 4l7 34h272l-7 -34l-67 -4q-16 -1 -23 -5.5t-10 -17.5l-53 -250l144 46l17 -53l-174 -55l-65 -305h217q33 0 53.5 1t34 8t23 21.5t18.5 40.5l35 96h33l-45 -214h-555z
" />
    <glyph glyph-name="Nacute" unicode="&#x143;" horiz-adv-x="813" 
d="M622 -10h-58l-296 625l-113 -529q-3 -15 -3.5 -24.5t3 -15t12.5 -7.5t25 -3l38 -2l-7 -34h-226l7 34l36 2q16 1 26 3t16.5 7.5t10.5 15t7 24.5l123 577q2 10 -3 16t-20 8l-57 4l7 34h161l284 -598l109 512q3 15 4 24.5t-3 15t-13 7.5t-25 3l-38 2l7 34h227l-7 -34l-36 -2
q-16 -1 -26 -3t-16.5 -7.5t-10.5 -15t-7 -24.5zM527 773h-60l139 117h123z" />
    <glyph glyph-name="Ncaron" unicode="&#x147;" horiz-adv-x="813" 
d="M622 -10h-58l-296 625l-113 -529q-3 -15 -3.5 -24.5t3 -15t12.5 -7.5t25 -3l38 -2l-7 -34h-226l7 34l36 2q16 1 26 3t16.5 7.5t10.5 15t7 24.5l123 577q2 10 -3 16t-20 8l-57 4l7 34h161l284 -598l109 512q3 15 4 24.5t-3 15t-13 7.5t-25 3l-38 2l7 34h227l-7 -34l-36 -2
q-16 -1 -26 -3t-16.5 -7.5t-10.5 -15t-7 -24.5zM363 890h66l91 -58l117 58h66l-165 -117h-65z" />
    <glyph glyph-name="Ncommaaccent" unicode="&#x145;" horiz-adv-x="813" 
d="M622 -10h-58l-296 625l-113 -529q-3 -15 -3.5 -24.5t3 -15t12.5 -7.5t25 -3l38 -2l-7 -34h-226l7 34l36 2q16 1 26 3t16.5 7.5t10.5 15t7 24.5l123 577q2 10 -3 16t-20 8l-57 4l7 34h161l284 -598l109 512q3 15 4 24.5t-3 15t-13 7.5t-25 3l-38 2l7 34h227l-7 -34l-36 -2
q-16 -1 -26 -3t-16.5 -7.5t-10.5 -15t-7 -24.5zM326 -37h98l-21 -98l-65 -93h-56l61 99h-37z" />
    <glyph glyph-name="OE" unicode="&#x152;" horiz-adv-x="1182" 
d="M1157 511h-34l7 98q2 25 -1.5 39t-14.5 20.5t-31.5 8t-53.5 1.5h-221l-59 -279h280l-11 -51h-279l-65 -301h228q33 0 54 1t34.5 8t23 21.5t18.5 40.5l35 96h34l-46 -214h-482l18 86q-43 -45 -100 -72t-132 -27q-65 0 -120.5 21.5t-96 61.5t-64 97.5t-23.5 129.5
q0 84 27 164.5t78.5 142.5t126 100t169.5 38q93 0 153 -43.5t86 -120.5l32 147h476zM446 692q-62 0 -114.5 -30t-91.5 -83.5t-61 -126t-22 -156.5q0 -57 12.5 -105t38.5 -82t66 -53t94 -19q61 0 114 30.5t92 83.5t61.5 125.5t22.5 156.5q0 57 -12.5 105t-39 82t-66.5 53
t-94 19z" />
    <glyph glyph-name="Obreve" unicode="&#x14e;" horiz-adv-x="762" 
d="M456 742q64 0 119.5 -21t96 -61t64 -97.5t23.5 -130.5q0 -84 -27 -164.5t-78.5 -142.5t-126 -100t-168.5 -38q-65 0 -120.5 21.5t-96 61.5t-64 97.5t-23.5 129.5q0 84 27 164.5t78.5 142.5t126 100t169.5 38zM446 692q-62 0 -114.5 -30t-91.5 -83.5t-61 -126t-22 -156.5
q0 -57 12.5 -105t38.5 -82t66 -53t94 -19q61 0 114 30.5t92 83.5t61.5 125.5t22.5 156.5q0 57 -12.5 105t-39 82t-66.5 53t-94 19zM650 890q-17 -54 -60 -88t-123 -34q-69 0 -106 34t-37 88h66q0 -32 22.5 -49.5t59.5 -17.5q46 0 74 18t39 49h65z" />
    <glyph glyph-name="Ohungarumlaut" unicode="&#x150;" horiz-adv-x="762" 
d="M456 742q64 0 119.5 -21t96 -61t64 -97.5t23.5 -130.5q0 -84 -27 -164.5t-78.5 -142.5t-126 -100t-168.5 -38q-65 0 -120.5 21.5t-96 61.5t-64 97.5t-23.5 129.5q0 84 27 164.5t78.5 142.5t126 100t169.5 38zM446 692q-62 0 -114.5 -30t-91.5 -83.5t-61 -126t-22 -156.5
q0 -57 12.5 -105t38.5 -82t66 -53t94 -19q61 0 114 30.5t92 83.5t61.5 125.5t22.5 156.5q0 57 -12.5 105t-39 82t-66.5 53t-94 19zM389 773h-60l139 117h123zM556 773h-60l139 117h123z" />
    <glyph glyph-name="Omacron" unicode="&#x14c;" horiz-adv-x="762" 
d="M456 742q64 0 119.5 -21t96 -61t64 -97.5t23.5 -130.5q0 -84 -27 -164.5t-78.5 -142.5t-126 -100t-168.5 -38q-65 0 -120.5 21.5t-96 61.5t-64 97.5t-23.5 129.5q0 84 27 164.5t78.5 142.5t126 100t169.5 38zM446 692q-62 0 -114.5 -30t-91.5 -83.5t-61 -126t-22 -156.5
q0 -57 12.5 -105t38.5 -82t66 -53t94 -19q61 0 114 30.5t92 83.5t61.5 125.5t22.5 156.5q0 57 -12.5 105t-39 82t-66.5 53t-94 19zM344 798l14 67h311l-14 -67h-311z" />
    <glyph glyph-name="uni1ECC" unicode="&#x1ecc;" horiz-adv-x="762" 
d="M456 742q64 0 119.5 -21t96 -61t64 -97.5t23.5 -130.5q0 -84 -27 -164.5t-78.5 -142.5t-126 -100t-168.5 -38q-65 0 -120.5 21.5t-96 61.5t-64 97.5t-23.5 129.5q0 84 27 164.5t78.5 142.5t126 100t169.5 38zM446 692q-62 0 -114.5 -30t-91.5 -83.5t-61 -126t-22 -156.5
q0 -57 12.5 -105t38.5 -82t66 -53t94 -19q61 0 114 30.5t92 83.5t61.5 125.5t22.5 156.5q0 57 -12.5 105t-39 82t-66.5 53t-94 19zM286 -53h86l-25 -119h-86z" />
    <glyph glyph-name="Racute" unicode="&#x154;" horiz-adv-x="710" 
d="M150 725h108h43t41.5 0.5t35 0.5h24.5q60 0 109.5 -9.5t85 -30t55.5 -53t20 -78.5t-15.5 -81.5t-42.5 -61.5t-63.5 -44t-78.5 -29l97 -251q6 -16 11 -26t11 -16t14.5 -8.5t22.5 -2.5l28 -1l-7 -34h-150l-29 87l-87 237q-35 -3 -67 -3h-75l-55 -259q-2 -13 3 -17.5
t20 -5.5l69 -5l-7 -34h-274l7 34l56 4q16 1 23.5 5.5t10.5 17.5l128 603q2 13 -3 17.5t-20 5.5l-57 4zM317 679l-66 -311h90q45 0 86.5 10t73.5 32.5t51 58.5t19 87q0 60 -43 91.5t-120 31.5h-91zM431 773h-60l139 117h123z" />
    <glyph glyph-name="Rcaron" unicode="&#x158;" horiz-adv-x="710" 
d="M150 725h108h43t41.5 0.5t35 0.5h24.5q60 0 109.5 -9.5t85 -30t55.5 -53t20 -78.5t-15.5 -81.5t-42.5 -61.5t-63.5 -44t-78.5 -29l97 -251q6 -16 11 -26t11 -16t14.5 -8.5t22.5 -2.5l28 -1l-7 -34h-150l-29 87l-87 237q-35 -3 -67 -3h-75l-55 -259q-2 -13 3 -17.5
t20 -5.5l69 -5l-7 -34h-274l7 34l56 4q16 1 23.5 5.5t10.5 17.5l128 603q2 13 -3 17.5t-20 5.5l-57 4zM317 679l-66 -311h90q45 0 86.5 10t73.5 32.5t51 58.5t19 87q0 60 -43 91.5t-120 31.5h-91zM273 890h66l91 -58l117 58h66l-165 -117h-65z" />
    <glyph glyph-name="Rcommaaccent" unicode="&#x156;" horiz-adv-x="710" 
d="M150 725h108h43t41.5 0.5t35 0.5h24.5q60 0 109.5 -9.5t85 -30t55.5 -53t20 -78.5t-15.5 -81.5t-42.5 -61.5t-63.5 -44t-78.5 -29l97 -251q6 -16 11 -26t11 -16t14.5 -8.5t22.5 -2.5l28 -1l-7 -34h-150l-29 87l-87 237q-35 -3 -67 -3h-75l-55 -259q-2 -13 3 -17.5
t20 -5.5l69 -5l-7 -34h-274l7 34l56 4q16 1 23.5 5.5t10.5 17.5l128 603q2 13 -3 17.5t-20 5.5l-57 4zM317 679l-66 -311h90q45 0 86.5 10t73.5 32.5t51 58.5t19 87q0 60 -43 91.5t-120 31.5h-91zM314 -37h98l-21 -98l-65 -93h-56l61 99h-37z" />
    <glyph glyph-name="Sacute" unicode="&#x15a;" horiz-adv-x="673" 
d="M553 535q0 70 -43.5 113.5t-128.5 43.5q-36 0 -67.5 -8t-55 -23.5t-37.5 -39t-14 -54.5q0 -26 9 -46t24.5 -35t35.5 -26t41 -19l82 -32q39 -15 75.5 -33t65 -42t46 -56.5t17.5 -77.5q0 -50 -23.5 -89.5t-63.5 -67t-93 -42t-111 -14.5q-63 0 -113.5 17t-85.5 48.5
t-53.5 75.5t-18.5 98h94q0 -38 7.5 -72t27.5 -60t54.5 -41.5t88.5 -15.5q42 0 78 8t63 25.5t42 45t15 66.5q0 31 -12 54t-32.5 40t-47 29.5t-54.5 23.5l-76 29q-35 13 -66 31.5t-53.5 43t-35.5 55.5t-13 70q0 36 17.5 69.5t51.5 59t84 40.5t116 15q49 0 95.5 -13.5t82 -40
t57 -65t21.5 -88.5h-93v0zM416 773h-60l139 117h123z" />
    <glyph glyph-name="Scaron" unicode="&#x160;" horiz-adv-x="673" 
d="M553 535q0 70 -43.5 113.5t-128.5 43.5q-36 0 -67.5 -8t-55 -23.5t-37.5 -39t-14 -54.5q0 -26 9 -46t24.5 -35t35.5 -26t41 -19l82 -32q39 -15 75.5 -33t65 -42t46 -56.5t17.5 -77.5q0 -50 -23.5 -89.5t-63.5 -67t-93 -42t-111 -14.5q-63 0 -113.5 17t-85.5 48.5
t-53.5 75.5t-18.5 98h94q0 -38 7.5 -72t27.5 -60t54.5 -41.5t88.5 -15.5q42 0 78 8t63 25.5t42 45t15 66.5q0 31 -12 54t-32.5 40t-47 29.5t-54.5 23.5l-76 29q-35 13 -66 31.5t-53.5 43t-35.5 55.5t-13 70q0 36 17.5 69.5t51.5 59t84 40.5t116 15q49 0 95.5 -13.5t82 -40
t57 -65t21.5 -88.5h-93v0zM265 891h66l91 -58l117 58h66l-165 -117h-65z" />
    <glyph glyph-name="Scedilla" unicode="&#x15e;" horiz-adv-x="673" 
d="M553 535q0 70 -43.5 113.5t-128.5 43.5q-36 0 -67.5 -8t-55 -23.5t-37.5 -39t-14 -54.5q0 -26 9 -46t24.5 -35t35.5 -26t41 -19l82 -32q39 -15 75.5 -33t65 -42t46 -56.5t17.5 -77.5q0 -50 -23.5 -89.5t-63.5 -67t-93 -42t-111 -14.5q-63 0 -113.5 17t-85.5 48.5
t-53.5 75.5t-18.5 98h94q0 -38 7.5 -72t27.5 -60t54.5 -41.5t88.5 -15.5q42 0 78 8t63 25.5t42 45t15 66.5q0 31 -12 54t-32.5 40t-47 29.5t-54.5 23.5l-76 29q-35 13 -66 31.5t-53.5 43t-35.5 55.5t-13 70q0 36 17.5 69.5t51.5 59t84 40.5t116 15q49 0 95.5 -13.5t82 -40
t57 -65t21.5 -88.5h-93v0zM293 3h48l-48 -53q44 5 69 -15.5t25 -53.5q0 -25 -11 -43.5t-29 -31t-41 -18.5t-48 -6t-43.5 3.5t-40.5 14.5l17 36q11 -5 26 -9t32 -4q27 0 49 10t22 35q0 20 -14 29t-28 9q-24 0 -44 -10l-16 19z" />
    <glyph glyph-name="Scircumflex" unicode="&#x15c;" horiz-adv-x="673" 
d="M553 535q0 70 -43.5 113.5t-128.5 43.5q-36 0 -67.5 -8t-55 -23.5t-37.5 -39t-14 -54.5q0 -26 9 -46t24.5 -35t35.5 -26t41 -19l82 -32q39 -15 75.5 -33t65 -42t46 -56.5t17.5 -77.5q0 -50 -23.5 -89.5t-63.5 -67t-93 -42t-111 -14.5q-63 0 -113.5 17t-85.5 48.5
t-53.5 75.5t-18.5 98h94q0 -38 7.5 -72t27.5 -60t54.5 -41.5t88.5 -15.5q42 0 78 8t63 25.5t42 45t15 66.5q0 31 -12 54t-32.5 40t-47 29.5t-54.5 23.5l-76 29q-35 13 -66 31.5t-53.5 43t-35.5 55.5t-13 70q0 36 17.5 69.5t51.5 59t84 40.5t116 15q49 0 95.5 -13.5t82 -40
t57 -65t21.5 -88.5h-93v0zM582 773h-66l-92 58l-116 -58h-66l164 117h64z" />
    <glyph glyph-name="Scommaaccent" unicode="&#x218;" horiz-adv-x="673" 
d="M553 535q0 70 -43.5 113.5t-128.5 43.5q-36 0 -67.5 -8t-55 -23.5t-37.5 -39t-14 -54.5q0 -26 9 -46t24.5 -35t35.5 -26t41 -19l82 -32q39 -15 75.5 -33t65 -42t46 -56.5t17.5 -77.5q0 -50 -23.5 -89.5t-63.5 -67t-93 -42t-111 -14.5q-63 0 -113.5 17t-85.5 48.5
t-53.5 75.5t-18.5 98h94q0 -38 7.5 -72t27.5 -60t54.5 -41.5t88.5 -15.5q42 0 78 8t63 25.5t42 45t15 66.5q0 31 -12 54t-32.5 40t-47 29.5t-54.5 23.5l-76 29q-35 13 -66 31.5t-53.5 43t-35.5 55.5t-13 70q0 36 17.5 69.5t51.5 59t84 40.5t116 15q49 0 95.5 -13.5t82 -40
t57 -65t21.5 -88.5h-93v0zM254 -37h98l-21 -98l-65 -93h-56l61 99h-37z" />
    <glyph glyph-name="Tcaron" unicode="&#x164;" horiz-adv-x="689" 
d="M748 725l-45 -210h-34l7 99q1 25 -2 38.5t-14 20t-31.5 8t-53.5 1.5h-94l-132 -621q-2 -13 3.5 -17.5t20.5 -5.5l88 -4l-7 -34h-330l7 34l93 4q16 1 23 5.5t10 17.5l132 621h-93q-33 0 -54 -1.5t-35.5 -8t-23.5 -20t-18 -38.5l-35 -99h-34l45 210h607zM310 890h66l91 -58
l117 58h66l-165 -117h-65z" />
    <glyph glyph-name="uni0162" unicode="&#x162;" horiz-adv-x="689" 
d="M748 725l-45 -210h-34l7 99q1 25 -2 38.5t-14 20t-31.5 8t-53.5 1.5h-94l-132 -621q-2 -13 3.5 -17.5t20.5 -5.5l88 -4l-7 -34h-330l7 34l93 4q16 1 23 5.5t10 17.5l132 621h-93q-33 0 -54 -1.5t-35.5 -8t-23.5 -20t-18 -38.5l-35 -99h-34l45 210h607zM234 -37h98
l-21 -98l-65 -93h-56l61 99h-37z" />
    <glyph glyph-name="Tcommaaccent" unicode="&#x21a;" horiz-adv-x="689" 
d="M748 725l-45 -210h-34l7 99q1 25 -2 38.5t-14 20t-31.5 8t-53.5 1.5h-94l-132 -621q-2 -13 3.5 -17.5t20.5 -5.5l88 -4l-7 -34h-330l7 34l93 4q16 1 23 5.5t10 17.5l132 621h-93q-33 0 -54 -1.5t-35.5 -8t-23.5 -20t-18 -38.5l-35 -99h-34l45 210h607zM234 -37h98
l-21 -98l-65 -93h-56l61 99h-37z" />
    <glyph glyph-name="Ubreve" unicode="&#x16c;" horiz-adv-x="822" 
d="M377 -13q-82 0 -135 21.5t-81.5 62t-33 99t10.5 131.5l77 363q3 13 -2 17.5t-20 5.5l-56 4l7 34h262l-7 -34l-58 -4q-16 -1 -24 -5.5t-10 -17.5l-79 -370q-12 -54 -11.5 -99t18 -77t53.5 -50t96 -18q112 0 174.5 58.5t89.5 184.5l74 346q7 31 0.5 39.5t-38.5 10.5l-37 2
l7 34h230l-7 -34l-37 -2q-16 -1 -26 -3t-16 -7.5t-10 -15t-7 -24.5l-74 -346q-14 -68 -37.5 -124t-62 -96.5t-94.5 -63t-136 -22.5zM706 890q-17 -54 -60 -88t-123 -34q-69 0 -106 34t-37 88h66q0 -32 22.5 -49.5t59.5 -17.5q46 0 74 18t39 49h65z" />
    <glyph glyph-name="Uhungarumlaut" unicode="&#x170;" horiz-adv-x="822" 
d="M377 -13q-82 0 -135 21.5t-81.5 62t-33 99t10.5 131.5l77 363q3 13 -2 17.5t-20 5.5l-56 4l7 34h262l-7 -34l-58 -4q-16 -1 -24 -5.5t-10 -17.5l-79 -370q-12 -54 -11.5 -99t18 -77t53.5 -50t96 -18q112 0 174.5 58.5t89.5 184.5l74 346q7 31 0.5 39.5t-38.5 10.5l-37 2
l7 34h230l-7 -34l-37 -2q-16 -1 -26 -3t-16 -7.5t-10 -15t-7 -24.5l-74 -346q-14 -68 -37.5 -124t-62 -96.5t-94.5 -63t-136 -22.5zM448 773h-60l139 117h123zM615 773h-60l139 117h123z" />
    <glyph glyph-name="Umacron" unicode="&#x16a;" horiz-adv-x="822" 
d="M377 -13q-82 0 -135 21.5t-81.5 62t-33 99t10.5 131.5l77 363q3 13 -2 17.5t-20 5.5l-56 4l7 34h262l-7 -34l-58 -4q-16 -1 -24 -5.5t-10 -17.5l-79 -370q-12 -54 -11.5 -99t18 -77t53.5 -50t96 -18q112 0 174.5 58.5t89.5 184.5l74 346q7 31 0.5 39.5t-38.5 10.5l-37 2
l7 34h230l-7 -34l-37 -2q-16 -1 -26 -3t-16 -7.5t-10 -15t-7 -24.5l-74 -346q-14 -68 -37.5 -124t-62 -96.5t-94.5 -63t-136 -22.5zM379 798l14 67h311l-14 -67h-311z" />
    <glyph glyph-name="Uogonek" unicode="&#x172;" horiz-adv-x="822" 
d="M709 293q-14 -64 -35 -117.5t-55 -93.5t-83.5 -64t-119.5 -29q-14 -7 -29.5 -16t-28.5 -20.5t-21.5 -24.5t-8.5 -28q0 -23 19 -33.5t42 -10.5q32 0 53 9l-9 -44q-14 -6 -35 -9t-44 -3q-19 0 -38.5 3.5t-35.5 13t-26.5 25t-10.5 39.5q0 31 25 56t60 44q-66 6 -109 30.5
t-65.5 64.5t-25 94.5t11.5 121.5l77 363q3 13 -2 17.5t-20 5.5l-56 4l7 34h262l-7 -34l-58 -4q-16 -1 -24 -5.5t-10 -17.5l-79 -370q-12 -54 -11.5 -99t18 -77t53.5 -50t96 -18q112 0 174.5 58.5t89.5 184.5l74 346q7 31 0.5 39.5t-38.5 10.5l-37 2l6 34h231l-7 -34l-37 -2
q-16 -1 -26 -3t-16 -7.5t-10 -15t-7 -24.5l-74 -346v0z" />
    <glyph glyph-name="Uring" unicode="&#x16e;" horiz-adv-x="822" 
d="M377 -13q-82 0 -135 21.5t-81.5 62t-33 99t10.5 131.5l77 363q3 13 -2 17.5t-20 5.5l-56 4l7 34h262l-7 -34l-58 -4q-16 -1 -24 -5.5t-10 -17.5l-79 -370q-12 -54 -11.5 -99t18 -77t53.5 -50t96 -18q112 0 174.5 58.5t89.5 184.5l74 346q7 31 0.5 39.5t-38.5 10.5l-37 2
l7 34h230l-7 -34l-37 -2q-16 -1 -26 -3t-16 -7.5t-10 -15t-7 -24.5l-74 -346q-14 -68 -37.5 -124t-62 -96.5t-94.5 -63t-136 -22.5zM536 932q19 0 36 -6.5t29.5 -18t20 -27.5t7.5 -35q0 -38 -27 -63t-66 -25q-40 0 -67 25t-27 63q0 19 7.5 35t20.5 27.5t30 18t36 6.5z
M536 889q-18 0 -31.5 -12.5t-13.5 -31.5q0 -20 13.5 -32t31.5 -12q17 0 30.5 12t13.5 32q0 19 -13.5 31.5t-30.5 12.5z" />
    <glyph glyph-name="Utilde" unicode="&#x168;" horiz-adv-x="822" 
d="M377 -13q-82 0 -135 21.5t-81.5 62t-33 99t10.5 131.5l77 363q3 13 -2 17.5t-20 5.5l-56 4l7 34h262l-7 -34l-58 -4q-16 -1 -24 -5.5t-10 -17.5l-79 -370q-12 -54 -11.5 -99t18 -77t53.5 -50t96 -18q112 0 174.5 58.5t89.5 184.5l74 346q7 31 0.5 39.5t-38.5 10.5l-37 2
l7 34h230l-7 -34l-37 -2q-16 -1 -26 -3t-16 -7.5t-10 -15t-7 -24.5l-74 -346q-14 -68 -37.5 -124t-62 -96.5t-94.5 -63t-136 -22.5zM615 836q25 0 38 13.5t18 38.5h61q-10 -52 -39 -82.5t-73 -30.5q-23 0 -43 8.5t-38 18t-33.5 18t-30.5 8.5q-24 0 -36 -14t-19 -39h-60
q8 56 40 84.5t74 28.5q23 0 42.5 -8t36.5 -18t32 -18t30 -8z" />
    <glyph glyph-name="uni1EE4" unicode="&#x1ee4;" horiz-adv-x="822" 
d="M377 -13q-82 0 -135 21.5t-81.5 62t-33 99t10.5 131.5l77 363q3 13 -2 17.5t-20 5.5l-56 4l7 34h262l-7 -34l-58 -4q-16 -1 -24 -5.5t-10 -17.5l-79 -370q-12 -54 -11.5 -99t18 -77t53.5 -50t96 -18q112 0 174.5 58.5t89.5 184.5l74 346q7 31 0.5 39.5t-38.5 10.5l-37 2
l7 34h230l-7 -34l-37 -2q-16 -1 -26 -3t-16 -7.5t-10 -15t-7 -24.5l-74 -346q-14 -68 -37.5 -124t-62 -96.5t-94.5 -63t-136 -22.5zM327 -53h86l-25 -119h-86z" />
    <glyph glyph-name="Wacute" unicode="&#x1e82;" horiz-adv-x="1034" 
d="M690 100l236 502q13 28 20 45t6.5 26t-9.5 12t-28 4l-40 2l7 34h240l-7 -34l-23 -1q-18 -1 -31.5 -4.5t-25.5 -14.5t-24.5 -32t-29.5 -57l-281 -582h-84l-38 597l-283 -597h-84l-50 639q-2 14 -4.5 23.5t-8.5 15.5t-16 8.5t-27 3.5l-22 1l7 34h269l-7 -34l-46 -3
q-20 -1 -31 -3.5t-16 -8t-6 -15.5t0 -26l32 -535l294 625h76zM650 773h-60l139 117h123z" />
    <glyph glyph-name="Wcircumflex" unicode="&#x174;" horiz-adv-x="1034" 
d="M690 100l236 502q13 28 20 45t6.5 26t-9.5 12t-28 4l-40 2l7 34h240l-7 -34l-23 -1q-18 -1 -31.5 -4.5t-25.5 -14.5t-24.5 -32t-29.5 -57l-281 -582h-84l-38 597l-283 -597h-84l-50 639q-2 14 -4.5 23.5t-8.5 15.5t-16 8.5t-27 3.5l-22 1l7 34h269l-7 -34l-46 -3
q-20 -1 -31 -3.5t-16 -8t-6 -15.5t0 -26l32 -535l294 625h76zM786 773h-66l-92 58l-116 -58h-66l164 117h64z" />
    <glyph glyph-name="Wdieresis" unicode="&#x1e84;" horiz-adv-x="1034" 
d="M690 100l236 502q13 28 20 45t6.5 26t-9.5 12t-28 4l-40 2l7 34h240l-7 -34l-23 -1q-18 -1 -31.5 -4.5t-25.5 -14.5t-24.5 -32t-29.5 -57l-281 -582h-84l-38 597l-283 -597h-84l-50 639q-2 14 -4.5 23.5t-8.5 15.5t-16 8.5t-27 3.5l-22 1l7 34h269l-7 -34l-46 -3
q-20 -1 -31 -3.5t-16 -8t-6 -15.5t0 -26l32 -535l294 625h76zM500 890h86l-25 -117h-86zM723 890h86l-25 -117h-86z" />
    <glyph glyph-name="Wgrave" unicode="&#x1e80;" horiz-adv-x="1034" 
d="M690 100l236 502q13 28 20 45t6.5 26t-9.5 12t-28 4l-40 2l7 34h240l-7 -34l-23 -1q-18 -1 -31.5 -4.5t-25.5 -14.5t-24.5 -32t-29.5 -57l-281 -582h-84l-38 597l-283 -597h-84l-50 639q-2 14 -4.5 23.5t-8.5 15.5t-16 8.5t-27 3.5l-22 1l7 34h269l-7 -34l-46 -3
q-20 -1 -31 -3.5t-16 -8t-6 -15.5t0 -26l32 -535l294 625h76zM442 890h123l89 -117h-60z" />
    <glyph glyph-name="Ycircumflex" unicode="&#x176;" horiz-adv-x="702" 
d="M300 281l-130 363q-8 25 -18 33.5t-41 11.5l-22 2l7 34h276l-7 -34l-65 -4q-18 -1 -27.5 -10.5t-1.5 -35.5l100 -303l236 295q13 16 17 26.5t2.5 16.5t-8 8.5t-14.5 2.5l-65 4l7 34h240l-8 -34l-24 -2q-14 -1 -24 -4t-18.5 -9t-18.5 -17t-24 -28l-274 -335l-50 -235
q-3 -13 3 -17.5t22 -5.5l88 -4l-7 -34h-330l7 34l92 4q16 1 23.5 5.5t9.5 17.5zM630 773h-66l-92 58l-116 -58h-66l164 117h64z" />
    <glyph glyph-name="Ydieresis" unicode="&#x178;" horiz-adv-x="702" 
d="M300 281l-130 363q-8 25 -18 33.5t-41 11.5l-22 2l7 34h276l-7 -34l-65 -4q-18 -1 -27.5 -10.5t-1.5 -35.5l100 -303l236 295q13 16 17 26.5t2.5 16.5t-8 8.5t-14.5 2.5l-65 4l7 34h240l-8 -34l-24 -2q-14 -1 -24 -4t-18.5 -9t-18.5 -17t-24 -28l-274 -335l-50 -235
q-3 -13 3 -17.5t22 -5.5l88 -4l-7 -34h-330l7 34l92 4q16 1 23.5 5.5t9.5 17.5zM340 890h86l-25 -117h-86zM563 890h86l-25 -117h-86z" />
    <glyph glyph-name="Ygrave" unicode="&#x1ef2;" horiz-adv-x="702" 
d="M300 281l-130 363q-8 25 -18 33.5t-41 11.5l-22 2l7 34h276l-7 -34l-65 -4q-18 -1 -27.5 -10.5t-1.5 -35.5l100 -303l236 295q13 16 17 26.5t2.5 16.5t-8 8.5t-14.5 2.5l-65 4l7 34h240l-8 -34l-24 -2q-14 -1 -24 -4t-18.5 -9t-18.5 -17t-24 -28l-274 -335l-50 -235
q-3 -13 3 -17.5t22 -5.5l88 -4l-7 -34h-330l7 34l92 4q16 1 23.5 5.5t9.5 17.5zM290 890h123l89 -117h-60z" />
    <glyph glyph-name="uni0232" unicode="&#x232;" horiz-adv-x="702" 
d="M300 281l-130 363q-8 25 -18 33.5t-41 11.5l-22 2l7 34h276l-7 -34l-65 -4q-18 -1 -27.5 -10.5t-1.5 -35.5l100 -303l236 295q13 16 17 26.5t2.5 16.5t-8 8.5t-14.5 2.5l-65 4l7 34h240l-8 -34l-24 -2q-14 -1 -24 -4t-18.5 -9t-18.5 -17t-24 -28l-274 -335l-50 -235
q-3 -13 3 -17.5t22 -5.5l88 -4l-7 -34h-330l7 34l92 4q16 1 23.5 5.5t9.5 17.5zM319 798l14 67h311l-14 -67h-311z" />
    <glyph glyph-name="Zacute" unicode="&#x179;" horiz-adv-x="700" 
d="M334 678q-33 0 -53.5 -1.5t-34.5 -8t-23 -20.5t-18 -39l-36 -98h-34l45 214h558l-9 -46l-628 -632h322q33 0 54 1.5t35 8t23 20.5t18 39l36 98h33l-45 -214h-593l10 47l625 631h-285v0zM437 773h-60l139 117h123z" />
    <glyph glyph-name="Zcaron" unicode="&#x17d;" horiz-adv-x="700" 
d="M334 678q-33 0 -53.5 -1.5t-34.5 -8t-23 -20.5t-18 -39l-36 -98h-34l45 214h558l-9 -46l-628 -632h322q33 0 54 1.5t35 8t23 20.5t18 39l36 98h33l-45 -214h-593l10 47l625 631h-285v0zM322 890h66l91 -58l117 58h66l-165 -117h-65z" />
    <glyph glyph-name="Zdotaccent" unicode="&#x17b;" horiz-adv-x="700" 
d="M334 678q-33 0 -53.5 -1.5t-34.5 -8t-23 -20.5t-18 -39l-36 -98h-34l45 214h558l-9 -46l-628 -632h322q33 0 54 1.5t35 8t23 20.5t18 39l36 98h33l-45 -214h-593l10 47l625 631h-285v0zM438 890h86l-25 -117h-86z" />
    <glyph glyph-name="abreve" unicode="&#x103;" horiz-adv-x="586" 
d="M400 270q-83 -6 -138.5 -17.5t-88.5 -29.5t-46.5 -43t-13.5 -58q0 -35 24 -58.5t74 -23.5q27 0 54.5 11t52.5 35t44.5 61.5t30.5 89.5zM416 359q6 27 6 47q0 27 -9 45.5t-24.5 29.5t-36.5 15.5t-45 4.5q-34 0 -58.5 -10.5t-41 -27.5t-25.5 -38.5t-11 -43.5h-87
q7 40 28 71t52 52t70 32t83 11q87 0 139.5 -36.5t52.5 -112.5q0 -30 -9 -67q-6 -25 -14 -58.5t-17 -75.5q-9 -41 -16 -73t-11 -60q-2 -14 2 -17t19 -6l43 -4l-7 -33l-146 -8l17 101h-2q-32 -47 -81.5 -78.5t-115.5 -31.5q-71 0 -111.5 35.5t-40.5 90.5q0 52 27.5 86.5t78 57
t122 35.5t160.5 22zM292 745q-6 -91 79 -91q37 0 63.5 23t31.5 68h63q-11 -68 -54 -106t-107 -38q-77 0 -110 40.5t-28 103.5h62v0z" />
    <glyph glyph-name="amacron" unicode="&#x101;" horiz-adv-x="586" 
d="M400 270q-83 -6 -138.5 -17.5t-88.5 -29.5t-46.5 -43t-13.5 -58q0 -35 24 -58.5t74 -23.5q27 0 54.5 11t52.5 35t44.5 61.5t30.5 89.5zM416 359q6 27 6 47q0 27 -9 45.5t-24.5 29.5t-36.5 15.5t-45 4.5q-34 0 -58.5 -10.5t-41 -27.5t-25.5 -38.5t-11 -43.5h-87
q7 40 28 71t52 52t70 32t83 11q87 0 139.5 -36.5t52.5 -112.5q0 -30 -9 -67q-6 -25 -14 -58.5t-17 -75.5q-9 -41 -16 -73t-11 -60q-2 -14 2 -17t19 -6l43 -4l-7 -33l-146 -8l17 101h-2q-32 -47 -81.5 -78.5t-115.5 -31.5q-71 0 -111.5 35.5t-40.5 90.5q0 52 27.5 86.5t78 57
t122 35.5t160.5 22zM246 635l14 67h266l-14 -67h-266z" />
    <glyph glyph-name="aogonek" unicode="&#x105;" horiz-adv-x="586" 
d="M28 141q0 44 20.5 76.5t57.5 53.5q40 23 95 33.5t120 16.5l88 7l10 47q14 64 -14.5 95t-94.5 31q-35 0 -60.5 -10.5t-42 -27t-26 -38t-12.5 -43.5h-86q13 76 74 120.5t158 44.5q50 0 90 -11.5t66 -36t35 -61.5t-2 -88q-16 -69 -31 -140.5t-29 -145.5q-2 -14 1 -17.5
t19 -5.5l42 -4l-6 -33l-36 -2q-13 -5 -32.5 -14.5t-37.5 -22t-30.5 -28.5t-12.5 -34q0 -23 19 -33.5t42 -10.5q15 0 29 2t25 7l-10 -44q-14 -5 -35 -8.5t-44 -3.5q-19 0 -38.5 4t-35.5 13t-26.5 24.5t-10.5 39.5q0 32 27.5 58t63.5 45l14 101h-2q-16 -24 -33 -44.5t-38 -35
t-47.5 -22.5t-60.5 -8q-74 0 -118 42.5t-44 111.5zM405 286l-82 -7q-44 -3 -81 -12t-63.5 -25t-41.5 -40.5t-15 -60.5q0 -48 26.5 -74.5t68.5 -26.5q22 0 48 9t50.5 31.5t45.5 61.5t34 98z" />
    <glyph glyph-name="cacute" unicode="&#x107;" horiz-adv-x="581" 
d="M43 206q0 61 22 122t62.5 109.5t97.5 79t128 30.5q94 0 146 -49t57 -131h-87q0 62 -31.5 96.5t-94.5 34.5q-56 0 -95.5 -32t-64.5 -79t-36.5 -100.5t-11.5 -96.5q0 -72 31 -113t95 -41q32 0 60.5 10.5t51.5 28.5t38.5 42t21.5 51h87q-13 -40 -38.5 -73.5t-61 -57.5
t-77.5 -37t-88 -13q-50 0 -89 16t-66.5 44.5t-42 69t-14.5 89.5zM356 603h-35l112 142h131z" />
    <glyph glyph-name="ccaron" unicode="&#x10d;" horiz-adv-x="581" 
d="M43 206q0 61 22 122t62.5 109.5t97.5 79t128 30.5q94 0 146 -49t57 -131h-87q0 62 -31.5 96.5t-94.5 34.5q-56 0 -95.5 -32t-64.5 -79t-36.5 -100.5t-11.5 -96.5q0 -72 31 -113t95 -41q32 0 60.5 10.5t51.5 28.5t38.5 42t21.5 51h87q-13 -40 -38.5 -73.5t-61 -57.5
t-77.5 -37t-88 -13q-50 0 -89 16t-66.5 44.5t-42 69t-14.5 89.5zM236 745h60l87 -73l118 73h60l-170 -142h-47z" />
    <glyph glyph-name="ccircumflex" unicode="&#x109;" horiz-adv-x="581" 
d="M43 206q0 61 22 122t62.5 109.5t97.5 79t128 30.5q94 0 146 -49t57 -131h-87q0 62 -31.5 96.5t-94.5 34.5q-56 0 -95.5 -32t-64.5 -79t-36.5 -100.5t-11.5 -96.5q0 -72 31 -113t95 -41q32 0 60.5 10.5t51.5 28.5t38.5 42t21.5 51h87q-13 -40 -38.5 -73.5t-61 -57.5
t-77.5 -37t-88 -13q-50 0 -89 16t-66.5 44.5t-42 69t-14.5 89.5zM522 603h-60l-86 73l-119 -73h-60l170 142h47z" />
    <glyph glyph-name="cdotaccent" unicode="&#x10b;" horiz-adv-x="581" 
d="M43 206q0 61 22 122t62.5 109.5t97.5 79t128 30.5q94 0 146 -49t57 -131h-87q0 62 -31.5 96.5t-94.5 34.5q-56 0 -95.5 -32t-64.5 -79t-36.5 -100.5t-11.5 -96.5q0 -72 31 -113t95 -41q32 0 60.5 10.5t51.5 28.5t38.5 42t21.5 51h87q-13 -40 -38.5 -73.5t-61 -57.5
t-77.5 -37t-88 -13q-50 0 -89 16t-66.5 44.5t-42 69t-14.5 89.5zM343 745h86l-25 -119h-86z" />
    <glyph glyph-name="dcaron" unicode="&#x10f;" horiz-adv-x="731" 
d="M718 745h93l-21 -99l-85 -125h-31l64 131h-40zM533 684q3 14 -2.5 17t-20.5 5l-52 5l7 34h168l-22 -100l-123 -581q-3 -14 2.5 -17.5t20.5 -5.5l41 -4l-7 -33l-154 -8l22 102h-2q-13 -23 -32 -43t-42 -35t-48.5 -24t-52.5 -9q-48 0 -83.5 17.5t-59 48t-35 71t-11.5 87.5
q0 75 21.5 137t58 106t85.5 68.5t104 24.5q60 0 103 -39t56 -102h2l23 127zM258 40q42 0 77.5 26t61.5 66t41 88t15 92q0 87 -31.5 134.5t-98.5 47.5q-40 0 -73.5 -23.5t-58 -62.5t-38 -90t-13.5 -107q0 -37 7 -68.5t21 -54t36.5 -35.5t53.5 -13z" />
    <glyph glyph-name="dcroat" unicode="&#x111;" horiz-adv-x="676" 
d="M533 684q3 14 -2.5 17t-20.5 5l-52 5l7 34h168l-22 -100l-3 -14h108l-11 -51h-108l-109 -516q-3 -14 2.5 -17.5t20.5 -5.5l41 -4l-7 -33l-154 -8l22 102h-2q-13 -23 -32 -43t-42 -35t-48.5 -24t-52.5 -9q-48 0 -83.5 17.5t-59 48t-35 71t-11.5 87.5q0 75 21.5 137t58 106
t85.5 68.5t104 24.5q60 0 103 -39t56 -102h2l23 127l10 47h-99l11 51h99zM258 40q42 0 77.5 26t61.5 66t41 88t15 92q0 87 -31.5 134.5t-98.5 47.5q-40 0 -73.5 -23.5t-58 -62.5t-38 -90t-13.5 -107q0 -37 7 -68.5t21 -54t36.5 -35.5t53.5 -13z" />
    <glyph glyph-name="ebreve" unicode="&#x115;" horiz-adv-x="590" 
d="M521 168q-13 -40 -38.5 -73.5t-60.5 -57.5t-77 -37t-88 -13q-50 0 -89.5 16t-67 44.5t-42.5 69t-15 89.5q0 53 19 113t57.5 110.5t97.5 84t140 33.5q43 0 84.5 -16t69 -50t37 -87t-11.5 -128h-395l-5.5 -38.5t-2.5 -36.5q0 -73 32.5 -114t96.5 -41q32 0 60.5 10.5
t51.5 28.5t38.5 42t21.5 51h87zM346 498q-41 0 -73 -15.5t-56 -41t-40.5 -59t-25.5 -68.5h307q10 48 5 82.5t-21 57t-41 33.5t-55 11zM297 745q-6 -91 79 -91q37 0 63.5 23t31.5 68h63q-11 -68 -54 -106t-107 -38q-77 0 -110 40.5t-28 103.5h62v0z" />
    <glyph glyph-name="ecaron" unicode="&#x11b;" horiz-adv-x="590" 
d="M521 168q-13 -40 -38.5 -73.5t-60.5 -57.5t-77 -37t-88 -13q-50 0 -89.5 16t-67 44.5t-42.5 69t-15 89.5q0 53 19 113t57.5 110.5t97.5 84t140 33.5q43 0 84.5 -16t69 -50t37 -87t-11.5 -128h-395l-5.5 -38.5t-2.5 -36.5q0 -73 32.5 -114t96.5 -41q32 0 60.5 10.5
t51.5 28.5t38.5 42t21.5 51h87zM346 498q-41 0 -73 -15.5t-56 -41t-40.5 -59t-25.5 -68.5h307q10 48 5 82.5t-21 57t-41 33.5t-55 11zM226 745h60l87 -73l118 73h60l-170 -142h-47z" />
    <glyph glyph-name="emacron" unicode="&#x113;" horiz-adv-x="590" 
d="M521 168q-13 -40 -38.5 -73.5t-60.5 -57.5t-77 -37t-88 -13q-50 0 -89.5 16t-67 44.5t-42.5 69t-15 89.5q0 53 19 113t57.5 110.5t97.5 84t140 33.5q43 0 84.5 -16t69 -50t37 -87t-11.5 -128h-395l-5.5 -38.5t-2.5 -36.5q0 -73 32.5 -114t96.5 -41q32 0 60.5 10.5
t51.5 28.5t38.5 42t21.5 51h87zM346 498q-41 0 -73 -15.5t-56 -41t-40.5 -59t-25.5 -68.5h307q10 48 5 82.5t-21 57t-41 33.5t-55 11zM228 635l14 67h266l-14 -67h-266z" />
    <glyph glyph-name="eogonek" unicode="&#x119;" horiz-adv-x="590" 
d="M526 168q-17 -62 -63.5 -105.5t-109.5 -65.5q-14 -5 -33 -13.5t-37 -21t-30.5 -28.5t-12.5 -34q0 -23 19 -33.5t42 -10.5q15 0 29 2t25 7l-10 -44q-14 -6 -35 -9t-44 -3q-19 0 -38.5 3.5t-35.5 13t-26.5 25t-10.5 39.5q0 30 24.5 55t59.5 44q-45 4 -80.5 23t-60 49
t-38 70.5t-13.5 88.5q0 61 20 120t58.5 105t94 74t126.5 28q43 0 84.5 -15.5t70.5 -49t40.5 -87t-4.5 -129.5h-395q-2 -16 -3 -29t-1 -26q0 -82 33 -128.5t102 -46.5q32 0 60 10.5t50 28.5t36.5 42t19.5 51h87zM335 498q-40 0 -71.5 -16t-54 -42t-37 -59t-21.5 -67h305
q9 50 2 85t-24.5 57t-43.5 32t-55 10z" />
    <glyph glyph-name="edotaccent" unicode="&#x117;" horiz-adv-x="590" 
d="M521 168q-13 -40 -38.5 -73.5t-60.5 -57.5t-77 -37t-88 -13q-50 0 -89.5 16t-67 44.5t-42.5 69t-15 89.5q0 53 19 113t57.5 110.5t97.5 84t140 33.5q43 0 84.5 -16t69 -50t37 -87t-11.5 -128h-395l-5.5 -38.5t-2.5 -36.5q0 -73 32.5 -114t96.5 -41q32 0 60.5 10.5
t51.5 28.5t38.5 42t21.5 51h87zM346 498q-41 0 -73 -15.5t-56 -41t-40.5 -59t-25.5 -68.5h307q10 48 5 82.5t-21 57t-41 33.5t-55 11zM346 745h86l-25 -119h-86z" />
    <glyph glyph-name="gbreve" unicode="&#x11f;" horiz-adv-x="594" 
d="M452 487q22 -21 35 -49.5t13 -63.5q0 -43 -16.5 -79t-45.5 -62.5t-69 -41.5t-86 -15q-29 0 -56 6q-12 -2 -30 -7.5t-34.5 -13t-28.5 -17t-12 -20.5q0 -15 18 -22.5t63 -10.5l127 -8q83 -5 121.5 -27.5t38.5 -68.5q0 -50 -30.5 -85.5t-76 -57.5t-98.5 -32t-99 -10
q-50 0 -90.5 8t-70 22.5t-45.5 34.5t-16 45q0 26 14 45t36 32.5t48 22t50 13.5q-43 11 -58.5 28.5t-15.5 39.5t14.5 39.5t36.5 30t47 21t46 13.5q-45 20 -75.5 57t-30.5 94q0 43 16.5 79.5t45.5 63t69 41.5t87 15q26 0 52.5 -6t51.5 -18l239 15l-11 -51h-174zM296 501
q-31 0 -55.5 -11.5t-41.5 -32.5t-26 -49.5t-9 -62.5q0 -60 29.5 -91.5t87.5 -31.5q31 0 55.5 11.5t41.5 32.5t26 49.5t9 62.5q0 60 -30 91.5t-87 31.5zM143 19q-17 -5 -36 -12.5t-34.5 -18t-26 -25t-10.5 -33.5q0 -39 38 -59.5t119 -20.5q15 0 37 1.5t46 6t48.5 12.5
t43.5 20t31 28.5t12 38.5q0 24 -25 36t-85 16l-125 7zM276 745q-6 -91 79 -91q37 0 63.5 23t31.5 68h63q-11 -68 -54 -106t-107 -38q-77 0 -110 40.5t-28 103.5h62v0z" />
    <glyph glyph-name="gcircumflex" unicode="&#x11d;" horiz-adv-x="594" 
d="M452 487q22 -21 35 -49.5t13 -63.5q0 -43 -16.5 -79t-45.5 -62.5t-69 -41.5t-86 -15q-29 0 -56 6q-12 -2 -30 -7.5t-34.5 -13t-28.5 -17t-12 -20.5q0 -15 18 -22.5t63 -10.5l127 -8q83 -5 121.5 -27.5t38.5 -68.5q0 -50 -30.5 -85.5t-76 -57.5t-98.5 -32t-99 -10
q-50 0 -90.5 8t-70 22.5t-45.5 34.5t-16 45q0 26 14 45t36 32.5t48 22t50 13.5q-43 11 -58.5 28.5t-15.5 39.5t14.5 39.5t36.5 30t47 21t46 13.5q-45 20 -75.5 57t-30.5 94q0 43 16.5 79.5t45.5 63t69 41.5t87 15q26 0 52.5 -6t51.5 -18l239 15l-11 -51h-174zM296 501
q-31 0 -55.5 -11.5t-41.5 -32.5t-26 -49.5t-9 -62.5q0 -60 29.5 -91.5t87.5 -31.5q31 0 55.5 11.5t41.5 32.5t26 49.5t9 62.5q0 60 -30 91.5t-87 31.5zM143 19q-17 -5 -36 -12.5t-34.5 -18t-26 -25t-10.5 -33.5q0 -39 38 -59.5t119 -20.5q15 0 37 1.5t46 6t48.5 12.5
t43.5 20t31 28.5t12 38.5q0 24 -25 36t-85 16l-125 7zM499 603h-60l-86 73l-119 -73h-60l170 142h47z" />
    <glyph glyph-name="gcommaaccent" unicode="&#x123;" horiz-adv-x="594" 
d="M366 607h-98l20 98l66 93h55l-61 -99h37zM452 487q22 -21 35 -49.5t13 -63.5q0 -43 -16.5 -79t-45.5 -62.5t-69 -41.5t-86 -15q-29 0 -56 6q-12 -2 -30 -7.5t-34.5 -13t-28.5 -17t-12 -20.5q0 -15 18 -22.5t63 -10.5l127 -8q83 -5 121.5 -27.5t38.5 -68.5
q0 -50 -30.5 -85.5t-76 -57.5t-98.5 -32t-99 -10q-50 0 -90.5 8t-70 22.5t-45.5 34.5t-16 45q0 26 14 45t36 32.5t48 22t50 13.5q-43 11 -58.5 28.5t-15.5 39.5t14.5 39.5t36.5 30t47 21t46 13.5q-45 20 -75.5 57t-30.5 94q0 43 16.5 79.5t45.5 63t69 41.5t87 15
q26 0 52.5 -6t51.5 -18l239 15l-11 -51h-174zM296 501q-31 0 -55.5 -11.5t-41.5 -32.5t-26 -49.5t-9 -62.5q0 -60 29.5 -91.5t87.5 -31.5q31 0 55.5 11.5t41.5 32.5t26 49.5t9 62.5q0 60 -30 91.5t-87 31.5zM143 19q-17 -5 -36 -12.5t-34.5 -18t-26 -25t-10.5 -33.5
q0 -39 38 -59.5t119 -20.5q15 0 37 1.5t46 6t48.5 12.5t43.5 20t31 28.5t12 38.5q0 24 -25 36t-85 16l-125 7z" />
    <glyph glyph-name="gdotaccent" unicode="&#x121;" horiz-adv-x="594" 
d="M452 487q22 -21 35 -49.5t13 -63.5q0 -43 -16.5 -79t-45.5 -62.5t-69 -41.5t-86 -15q-29 0 -56 6q-12 -2 -30 -7.5t-34.5 -13t-28.5 -17t-12 -20.5q0 -15 18 -22.5t63 -10.5l127 -8q83 -5 121.5 -27.5t38.5 -68.5q0 -50 -30.5 -85.5t-76 -57.5t-98.5 -32t-99 -10
q-50 0 -90.5 8t-70 22.5t-45.5 34.5t-16 45q0 26 14 45t36 32.5t48 22t50 13.5q-43 11 -58.5 28.5t-15.5 39.5t14.5 39.5t36.5 30t47 21t46 13.5q-45 20 -75.5 57t-30.5 94q0 43 16.5 79.5t45.5 63t69 41.5t87 15q26 0 52.5 -6t51.5 -18l239 15l-11 -51h-174zM296 501
q-31 0 -55.5 -11.5t-41.5 -32.5t-26 -49.5t-9 -62.5q0 -60 29.5 -91.5t87.5 -31.5q31 0 55.5 11.5t41.5 32.5t26 49.5t9 62.5q0 60 -30 91.5t-87 31.5zM143 19q-17 -5 -36 -12.5t-34.5 -18t-26 -25t-10.5 -33.5q0 -39 38 -59.5t119 -20.5q15 0 37 1.5t46 6t48.5 12.5
t43.5 20t31 28.5t12 38.5q0 24 -25 36t-85 16l-125 7zM310 745h86l-25 -119h-86z" />
    <glyph glyph-name="hbar" unicode="&#x127;" horiz-adv-x="640" 
d="M-8 33l42 4q16 2 23 5.5t10 17.5l110 520h-94l11 51h94l12 54q3 14 -3 17.5t-21 5.5l-40 4l5 33h158l-21 -100l-3 -14h103l-11 -51h-104l-8 -39l-23 -107h2q33 51 78.5 82t105.5 31q46 0 75.5 -15.5t45 -41t18 -57.5t-4.5 -66l-65 -307q-2 -14 3.5 -17.5t20.5 -5.5l41 -4
l-7 -33h-226l7 33l42 4q16 2 23 5.5t10 17.5l61 286q15 72 -1.5 109t-75.5 37q-19 0 -45 -9t-53 -33.5t-51 -68.5t-39 -114l-44 -207q-2 -14 3 -17.5t21 -5.5l41 -4l-7 -33h-226z" />
    <glyph glyph-name="hcircumflex" unicode="&#x125;" horiz-adv-x="640" 
d="M-8 33l42 4q16 2 23 5.5t10 17.5l133 625q3 14 -3 17.5t-21 5.5l-40 4l5 33h158l-21 -100l-23 -104l-23 -107h2q33 51 78.5 82t105.5 31q46 0 75.5 -15.5t45 -41t18 -57.5t-4.5 -66l-65 -307q-2 -14 3.5 -17.5t20.5 -5.5l41 -4l-7 -33h-226l7 33l42 4q16 2 23 5.5
t10 17.5l61 286q15 72 -1.5 109t-75.5 37q-19 0 -45 -9t-53 -33.5t-51 -68.5t-39 -114l-44 -207q-2 -14 3 -17.5t21 -5.5l41 -4l-7 -33h-226zM405 773h-66l-92 58l-116 -58h-66l164 117h64z" />
    <glyph glyph-name="dotlessi" unicode="&#x131;" 
d="M233 439l-80 -378q-3 -14 2.5 -17.5t20.5 -5.5l41 -4l-7 -34h-225l7 34l41 4q17 2 24 5.5t10 17.5l88 414q3 12 -1.5 18t-21.5 8l-41 5l6 32h159z" />
    <glyph glyph-name="ibreve" unicode="&#x12d;" 
d="M233 439l-80 -378q-3 -14 2.5 -17.5t20.5 -5.5l41 -4l-7 -34h-225l7 34l41 4q17 2 24 5.5t10 17.5l88 414q3 12 -1.5 18t-21.5 8l-41 5l6 32h159zM149 745q-6 -91 79 -91q37 0 63.5 23t31.5 68h63q-11 -68 -54 -106t-107 -38q-77 0 -110 40.5t-28 103.5h62v0z" />
    <glyph glyph-name="imacron" unicode="&#x12b;" 
d="M233 439l-80 -378q-3 -14 2.5 -17.5t20.5 -5.5l41 -4l-7 -34h-225l7 34l41 4q17 2 24 5.5t10 17.5l88 414q3 12 -1.5 18t-21.5 8l-41 5l6 32h159zM85 635l14 67h266l-14 -67h-266z" />
    <glyph glyph-name="iogonek" unicode="&#x12f;" 
d="M144 0q-13 -5 -32.5 -14.5t-38 -22t-32 -28.5t-13.5 -35q0 -23 19 -33.5t42 -10.5q15 0 29.5 2t25.5 7l-11 -44q-14 -6 -35 -9t-44 -3q-19 0 -38.5 3.5t-35.5 13t-26.5 25t-10.5 39.5q0 18 9 33.5t24 29.5t34 25.5t39 21.5h95zM233 439l-80 -378q-3 -14 2.5 -17.5
t20.5 -5.5l41 -4l-7 -34h-225l7 34l41 4q17 2 24 5.5t10 17.5l88 414q3 12 -1.5 18t-21.5 8l-41 5l6 32h159zM212 745h86l-25 -119h-86z" />
    <glyph glyph-name="itilde" unicode="&#x129;" 
d="M233 439l-80 -378q-3 -14 2.5 -17.5t20.5 -5.5l41 -4l-7 -34h-225l7 34l41 4q17 2 24 5.5t10 17.5l88 414q3 12 -1.5 18t-21.5 8l-41 5l6 32h159zM298 674q25 0 38 13t18 38h61q-10 -52 -39 -82t-73 -30q-23 0 -43 8t-38 18t-33.5 18t-30.5 8q-24 0 -36 -14t-19 -38h-60
q8 56 40 84t74 28q23 0 42.5 -8t36.5 -17.5t32 -17.5t30 -8z" />
    <glyph glyph-name="uni1ECB" unicode="&#x1ecb;" 
d="M212 745h86l-25 -119h-86zM233 439l-80 -378q-3 -14 2.5 -17.5t20.5 -5.5l41 -4l-7 -34h-225l7 34l41 4q17 2 24 5.5t10 17.5l88 414q3 12 -1.5 18t-21.5 8l-41 5l6 32h159zM44 -53h86l-25 -119h-86z" />
    <glyph glyph-name="dotlessj" unicode="&#x237;" horiz-adv-x="320" 
d="M183 475q2 12 -2 18t-21 8l-42 5l6 32h161l-23 -99l-100 -472q-12 -54 -24.5 -85t-31 -46.5t-46.5 -20t-71 -4.5h-74l13 61h72q18 0 29.5 2t19.5 12t14.5 32t14.5 61z" />
    <glyph glyph-name="jcircumflex" unicode="&#x135;" horiz-adv-x="320" 
d="M416 603h-60l-86 73l-119 -73h-60l170 142h47zM183 475q2 12 -2 18t-21 8l-42 5l6 32h161l-23 -99l-100 -472q-12 -54 -24.5 -85t-31 -46.5t-46.5 -20t-71 -4.5h-74l13 61h72q18 0 29.5 2t19.5 12t14.5 32t14.5 61z" />
    <glyph glyph-name="kcommaaccent" unicode="&#x137;" horiz-adv-x="602" 
d="M298 745l-21 -100l-79 -371l206 180q19 16 29.5 25.5t12 15t-6.5 7t-24 2.5l-36 1l7 33h219l-7 -33l-15 -1q-18 -1 -30 -2.5t-22.5 -5.5t-21 -11t-25.5 -19l-143 -123l95 -246q15 -38 32.5 -50t48.5 -13l18 -1l-6 -33h-151l-107 283l-87 -74l-31 -149q-3 -14 2.5 -17.5
t20.5 -5.5l40 -4l-6 -33h-225l7 33l41 4q17 2 24 5.5t10 17.5l133 625q3 14 -2.5 17.5t-20.5 5.5l-40 4l6 33h155zM230 -37h98l-21 -98l-65 -93h-56l61 99h-37z" />
    <glyph glyph-name="lacute" unicode="&#x13a;" horiz-adv-x="301" 
d="M302 745l-21 -100l-124 -585q-3 -14 2.5 -17.5t20.5 -5.5l40 -4l-6 -33h-225l7 33l41 4q17 2 24 5.5t10 17.5l133 625q3 14 -2.5 17.5t-20.5 5.5l-40 4l6 33h155zM276 773h-60l139 117h123z" />
    <glyph glyph-name="lcaron" unicode="&#x13e;" horiz-adv-x="401" 
d="M388 745h93l-21 -99l-85 -125h-31l64 131h-40zM302 745l-21 -100l-124 -585q-3 -14 2.5 -17.5t20.5 -5.5l40 -4l-6 -33h-225l7 33l41 4q17 2 24 5.5t10 17.5l133 625q3 14 -2.5 17.5t-20.5 5.5l-40 4l6 33h155z" />
    <glyph glyph-name="lcommaaccent" unicode="&#x13c;" horiz-adv-x="301" 
d="M302 745l-21 -100l-124 -585q-3 -14 2.5 -17.5t20.5 -5.5l40 -4l-6 -33h-225l7 33l41 4q17 2 24 5.5t10 17.5l133 625q3 14 -2.5 17.5t-20.5 5.5l-40 4l6 33h155zM45 -37h98l-21 -98l-65 -93h-56l61 99h-37z" />
    <glyph glyph-name="ldot" unicode="&#x140;" horiz-adv-x="376" 
d="M302 745l-21 -100l-124 -585q-3 -14 2.5 -17.5t20.5 -5.5l40 -4l-6 -33h-225l7 33l41 4q17 2 24 5.5t10 17.5l133 625q3 14 -2.5 17.5t-20.5 5.5l-40 4l6 33h155zM331 471h86l-25 -119h-86z" />
    <glyph glyph-name="lslash" unicode="&#x142;" horiz-adv-x="336" 
d="M311 745l-21 -100l-45 -213l117 38l14 -50l-144 -45l-66 -315q-3 -14 2.5 -17.5t20.5 -5.5l40 -4l-6 -33h-225l7 33l41 4q17 2 24 5.5t10 17.5l61 286l-121 -38l-14 49l147 46l60 282q3 14 -2.5 17.5t-20.5 5.5l-40 4l6 33h155z" />
    <glyph glyph-name="nacute" unicode="&#x144;" horiz-adv-x="653" 
d="M500 60q-3 -14 3 -17.5t21 -5.5l41 -4l-7 -33h-226l7 33l42 4q16 2 23.5 5.5t9.5 17.5l61 286q15 72 -1 109t-75 37q-19 0 -45 -9t-53 -33.5t-51.5 -68.5t-39.5 -114l-44 -207q-3 -14 2.5 -17.5t21.5 -5.5l41 -4l-7 -33h-226l7 33l42 4q16 2 23.5 5.5t9.5 17.5l88 415
q4 12 -1 18t-22 8l-40 5l6 32h156l-21 -104h2q33 51 78.5 82t105.5 31q46 0 75.5 -15.5t44.5 -41t17.5 -57.5t-4.5 -66zM427 603h-35l112 142h131z" />
    <glyph glyph-name="ncaron" unicode="&#x148;" horiz-adv-x="653" 
d="M500 60q-3 -14 3 -17.5t21 -5.5l41 -4l-7 -33h-226l7 33l42 4q16 2 23.5 5.5t9.5 17.5l61 286q15 72 -1 109t-75 37q-19 0 -45 -9t-53 -33.5t-51.5 -68.5t-39.5 -114l-44 -207q-3 -14 2.5 -17.5t21.5 -5.5l41 -4l-7 -33h-226l7 33l42 4q16 2 23.5 5.5t9.5 17.5l88 415
q4 12 -1 18t-22 8l-40 5l6 32h156l-21 -104h2q33 51 78.5 82t105.5 31q46 0 75.5 -15.5t44.5 -41t17.5 -57.5t-4.5 -66zM274 745h60l87 -73l118 73h60l-170 -142h-47z" />
    <glyph glyph-name="ncommaaccent" unicode="&#x146;" horiz-adv-x="653" 
d="M500 60q-3 -14 3 -17.5t21 -5.5l41 -4l-7 -33h-226l7 33l42 4q16 2 23.5 5.5t9.5 17.5l61 286q15 72 -1 109t-75 37q-19 0 -45 -9t-53 -33.5t-51.5 -68.5t-39.5 -114l-44 -207q-3 -14 2.5 -17.5t21.5 -5.5l41 -4l-7 -33h-226l7 33l42 4q16 2 23.5 5.5t9.5 17.5l88 415
q4 12 -1 18t-22 8l-40 5l6 32h156l-21 -104h2q33 51 78.5 82t105.5 31q46 0 75.5 -15.5t44.5 -41t17.5 -57.5t-4.5 -66zM228 -37h98l-21 -98l-65 -93h-56l61 99h-37z" />
    <glyph glyph-name="oe" unicode="&#x153;" horiz-adv-x="994" 
d="M673 -13q-69 0 -117.5 28.5t-73.5 81.5q-36 -50 -89.5 -80t-122.5 -30q-51 0 -92.5 16.5t-70.5 47t-44.5 73t-15.5 94.5q0 61 20 120t57 104.5t89.5 73.5t118.5 28q69 0 117.5 -30t73.5 -83q38 51 94.5 82t131.5 31q43 0 84.5 -15t70.5 -48.5t40.5 -87t-4.5 -129.5h-395
q-6 -42 -3 -83t18 -73.5t43 -52t73 -19.5q32 0 60 10.5t50 28.5t36.5 42t19.5 51h87q-11 -40 -35 -73.5t-58 -57.5t-75.5 -37t-87.5 -13zM273 36q54 0 90 30.5t58 74.5t31 93t9 87q0 81 -32.5 127.5t-100.5 46.5q-36 0 -64 -14t-49 -37.5t-35.5 -54t-23 -62t-12.5 -62.5
t-4 -56q0 -82 32 -127.5t101 -45.5zM859 312q9 50 2 85t-25 56.5t-45.5 31.5t-59.5 10q-38 0 -68 -16t-52 -41.5t-36 -58.5t-21 -67h305z" />
    <glyph glyph-name="obreve" unicode="&#x14f;" horiz-adv-x="599" 
d="M346 544q49 0 88 -15.5t66 -44t41.5 -68.5t14.5 -89q0 -66 -23 -127t-63.5 -108.5t-96 -76t-120.5 -28.5q-50 0 -89 15.5t-66 44t-41 68.5t-14 89q0 66 23 127t63.5 108.5t96 76t120.5 28.5zM339 495q-37 0 -66.5 -15t-52 -40.5t-39 -57.5t-26.5 -66.5t-15 -67.5t-5 -60
q0 -72 30.5 -112t94.5 -40q37 0 66.5 15t52 40.5t39 57.5t26.5 66.5t15 67.5t5 60q0 72 -30.5 112t-94.5 40zM292 745q-6 -91 79 -91q37 0 63.5 23t31.5 68h63q-11 -68 -54 -106t-107 -38q-77 0 -110 40.5t-28 103.5h62v0z" />
    <glyph glyph-name="ohungarumlaut" unicode="&#x151;" horiz-adv-x="599" 
d="M346 544q49 0 88 -15.5t66 -44t41.5 -68.5t14.5 -89q0 -66 -23 -127t-63.5 -108.5t-96 -76t-120.5 -28.5q-50 0 -89 15.5t-66 44t-41 68.5t-14 89q0 66 23 127t63.5 108.5t96 76t120.5 28.5zM339 495q-37 0 -66.5 -15t-52 -40.5t-39 -57.5t-26.5 -66.5t-15 -67.5t-5 -60
q0 -72 30.5 -112t94.5 -40q37 0 66.5 15t52 40.5t39 57.5t26.5 66.5t15 67.5t5 60q0 72 -30.5 112t-94.5 40zM273 603h-35l112 142h131zM437 603h-35l112 142h131z" />
    <glyph glyph-name="omacron" unicode="&#x14d;" horiz-adv-x="599" 
d="M346 544q49 0 88 -15.5t66 -44t41.5 -68.5t14.5 -89q0 -66 -23 -127t-63.5 -108.5t-96 -76t-120.5 -28.5q-50 0 -89 15.5t-66 44t-41 68.5t-14 89q0 66 23 127t63.5 108.5t96 76t120.5 28.5zM339 495q-37 0 -66.5 -15t-52 -40.5t-39 -57.5t-26.5 -66.5t-15 -67.5t-5 -60
q0 -72 30.5 -112t94.5 -40q37 0 66.5 15t52 40.5t39 57.5t26.5 66.5t15 67.5t5 60q0 72 -30.5 112t-94.5 40zM237 635l14 67h266l-14 -67h-266z" />
    <glyph glyph-name="uni1ECD" unicode="&#x1ecd;" horiz-adv-x="599" 
d="M346 544q49 0 88 -15.5t66 -44t41.5 -68.5t14.5 -89q0 -66 -23 -127t-63.5 -108.5t-96 -76t-120.5 -28.5q-50 0 -89 15.5t-66 44t-41 68.5t-14 89q0 66 23 127t63.5 108.5t96 76t120.5 28.5zM339 495q-37 0 -66.5 -15t-52 -40.5t-39 -57.5t-26.5 -66.5t-15 -67.5t-5 -60
q0 -72 30.5 -112t94.5 -40q37 0 66.5 15t52 40.5t39 57.5t26.5 66.5t15 67.5t5 60q0 72 -30.5 112t-94.5 40zM174 -53h86l-25 -119h-86z" />
    <glyph glyph-name="racute" unicode="&#x155;" horiz-adv-x="443" 
d="M247 420h1q29 53 76 87.5t105 34.5h45l-17 -83h-58q-39 0 -68 -8.5t-51 -30.5t-38.5 -60t-28.5 -96l-43 -203q-3 -14 3 -18t20 -5l74 -4l-7 -34h-259l7 33l42 4q17 2 24 5.5t10 17.5l88 415q3 12 -1.5 18t-21.5 8l-41 5l6 32h156zM311 603h-35l112 142h131z" />
    <glyph glyph-name="rcaron" unicode="&#x159;" horiz-adv-x="443" 
d="M247 420h1q29 53 76 87.5t105 34.5h45l-17 -83h-58q-39 0 -68 -8.5t-51 -30.5t-38.5 -60t-28.5 -96l-43 -203q-3 -14 3 -18t20 -5l74 -4l-7 -34h-259l7 33l42 4q17 2 24 5.5t10 17.5l88 415q3 12 -1.5 18t-21.5 8l-41 5l6 32h156zM199 745h60l87 -73l118 73h60l-170 -142
h-47z" />
    <glyph glyph-name="rcommaaccent" unicode="&#x157;" horiz-adv-x="443" 
d="M247 420h1q29 53 76 87.5t105 34.5h45l-17 -83h-58q-39 0 -68 -8.5t-51 -30.5t-38.5 -60t-28.5 -96l-43 -203q-3 -14 3 -18t20 -5l74 -4l-7 -34h-259l7 33l42 4q17 2 24 5.5t10 17.5l88 415q3 12 -1.5 18t-21.5 8l-41 5l6 32h156zM59 -37h98l-21 -98l-65 -93h-56l61 99
h-37z" />
    <glyph glyph-name="sacute" unicode="&#x15b;" horiz-adv-x="541" 
d="M468 149q0 -47 -20 -78.5t-51 -50t-69.5 -26t-75.5 -7.5q-45 0 -84.5 10.5t-70 31.5t-50 53.5t-22.5 77.5h85q4 -56 38 -90t103 -34q75 0 106 24t31 65q0 35 -30.5 61.5t-85.5 46.5l-61 23q-56 21 -90 57t-34 86q0 31 13 58t38.5 47t63.5 31.5t87 11.5q42 0 78 -10
t64 -29.5t45.5 -47t21.5 -63.5h-85q-8 50 -41 76t-87 26t-87 -19t-33 -59q0 -32 24.5 -54.5t64.5 -38.5l57 -21q31 -12 59.5 -27.5t50.5 -34.5t34.5 -43t12.5 -53zM300 603h-35l112 142h131z" />
    <glyph glyph-name="scaron" unicode="&#x161;" horiz-adv-x="541" 
d="M468 149q0 -47 -20 -78.5t-51 -50t-69.5 -26t-75.5 -7.5q-45 0 -84.5 10.5t-70 31.5t-50 53.5t-22.5 77.5h85q4 -56 38 -90t103 -34q75 0 106 24t31 65q0 35 -30.5 61.5t-85.5 46.5l-61 23q-56 21 -90 57t-34 86q0 31 13 58t38.5 47t63.5 31.5t87 11.5q42 0 78 -10
t64 -29.5t45.5 -47t21.5 -63.5h-85q-8 50 -41 76t-87 26t-87 -19t-33 -59q0 -32 24.5 -54.5t64.5 -38.5l57 -21q31 -12 59.5 -27.5t50.5 -34.5t34.5 -43t12.5 -53zM183 745h60l87 -73l118 73h60l-170 -142h-47z" />
    <glyph glyph-name="scedilla" unicode="&#x15f;" horiz-adv-x="541" 
d="M468 149q0 -47 -20 -78.5t-51 -50t-69.5 -26t-75.5 -7.5q-45 0 -84.5 10.5t-70 31.5t-50 53.5t-22.5 77.5h85q4 -56 38 -90t103 -34q75 0 106 24t31 65q0 35 -30.5 61.5t-85.5 46.5l-61 23q-56 21 -90 57t-34 86q0 31 13 58t38.5 47t63.5 31.5t87 11.5q42 0 78 -10
t64 -29.5t45.5 -47t21.5 -63.5h-85q-8 50 -41 76t-87 26t-87 -19t-33 -59q0 -32 24.5 -54.5t64.5 -38.5l57 -21q31 -12 59.5 -27.5t50.5 -34.5t34.5 -43t12.5 -53zM225 3h48l-48 -53q44 5 69 -15.5t25 -53.5q0 -25 -11 -43.5t-29 -31t-41 -18.5t-48 -6t-43.5 3.5t-40.5 14.5
l17 36q11 -5 26 -9t32 -4q27 0 49 10t22 35q0 20 -14 29t-28 9q-24 0 -44 -10l-16 19z" />
    <glyph glyph-name="scircumflex" unicode="&#x15d;" horiz-adv-x="541" 
d="M468 149q0 -47 -20 -78.5t-51 -50t-69.5 -26t-75.5 -7.5q-45 0 -84.5 10.5t-70 31.5t-50 53.5t-22.5 77.5h85q4 -56 38 -90t103 -34q75 0 106 24t31 65q0 35 -30.5 61.5t-85.5 46.5l-61 23q-56 21 -90 57t-34 86q0 31 13 58t38.5 47t63.5 31.5t87 11.5q42 0 78 -10
t64 -29.5t45.5 -47t21.5 -63.5h-85q-8 50 -41 76t-87 26t-87 -19t-33 -59q0 -32 24.5 -54.5t64.5 -38.5l57 -21q31 -12 59.5 -27.5t50.5 -34.5t34.5 -43t12.5 -53zM478 603h-60l-86 73l-119 -73h-60l170 142h47z" />
    <glyph glyph-name="scommaaccent" unicode="&#x219;" horiz-adv-x="541" 
d="M468 149q0 -47 -20 -78.5t-51 -50t-69.5 -26t-75.5 -7.5q-45 0 -84.5 10.5t-70 31.5t-50 53.5t-22.5 77.5h85q4 -56 38 -90t103 -34q75 0 106 24t31 65q0 35 -30.5 61.5t-85.5 46.5l-61 23q-56 21 -90 57t-34 86q0 31 13 58t38.5 47t63.5 31.5t87 11.5q42 0 78 -10
t64 -29.5t45.5 -47t21.5 -63.5h-85q-8 50 -41 76t-87 26t-87 -19t-33 -59q0 -32 24.5 -54.5t64.5 -38.5l57 -21q31 -12 59.5 -27.5t50.5 -34.5t34.5 -43t12.5 -53zM187 -37h98l-21 -98l-65 -93h-56l61 99h-37z" />
    <glyph glyph-name="tcaron" unicode="&#x165;" horiz-adv-x="474" 
d="M508 745h93l-21 -99l-85 -125h-31l64 131h-40zM408 487h-164l-74 -348q-6 -26 -5 -42t8 -24.5t20.5 -11.5t33.5 -3h84l-12 -58h-107q-40 0 -65.5 5.5t-38.5 20t-14 40.5t8 67l76 354h-99l10 51h99l37 171h86l-37 -171h164z" />
    <glyph glyph-name="uni0163" unicode="&#x163;" horiz-adv-x="403" 
d="M408 487h-164l-74 -348q-6 -26 -5 -42t8 -24.5t20.5 -11.5t33.5 -3h84l-12 -58h-107q-40 0 -65.5 5.5t-38.5 20t-14 40.5t8 67l76 354h-99l10 51h99l37 171h86l-37 -171h164zM67 -37h98l-21 -98l-65 -93h-56l61 99h-37z" />
    <glyph glyph-name="tcommaaccent" unicode="&#x21b;" horiz-adv-x="403" 
d="M408 487h-164l-74 -348q-6 -26 -5 -42t8 -24.5t20.5 -11.5t33.5 -3h84l-12 -58h-107q-40 0 -65.5 5.5t-38.5 20t-14 40.5t8 67l76 354h-99l10 51h99l37 171h86l-37 -171h164zM67 -37h98l-21 -98l-65 -93h-56l61 99h-37z" />
    <glyph glyph-name="ubreve" unicode="&#x16d;" horiz-adv-x="618" 
d="M381 94h-2q-35 -50 -77 -78.5t-106 -28.5q-46 0 -72.5 16.5t-39.5 42.5t-13.5 58t6.5 63l66 308q2 12 -2 18t-21 8l-41 5l6 32h157l-21 -99l-53 -251q-15 -72 -1.5 -108.5t70.5 -36.5q18 0 43 8.5t50.5 33.5t48.5 69.5t38 115.5l44 205q2 12 -2 18t-21 8l-42 5l6 32h159
l-22 -99l-79 -375q-3 -14 2.5 -17.5t21.5 -5.5l41 -4l-7 -33l-155 -8zM293 745q-6 -91 79 -91q37 0 63.5 23t31.5 68h63q-11 -68 -54 -106t-107 -38q-77 0 -110 40.5t-28 103.5h62v0z" />
    <glyph glyph-name="uhungarumlaut" unicode="&#x171;" horiz-adv-x="611" 
d="M381 94h-2q-35 -50 -77 -78.5t-106 -28.5q-46 0 -72.5 16.5t-39.5 42.5t-13.5 58t6.5 63l66 308q2 12 -2 18t-21 8l-41 5l6 32h157l-21 -99l-53 -251q-15 -72 -1.5 -108.5t70.5 -36.5q18 0 43 8.5t50.5 33.5t48.5 69.5t38 115.5l44 205q2 12 -2 18t-21 8l-42 5l6 32h159
l-22 -99l-79 -375q-3 -14 2.5 -17.5t21.5 -5.5l41 -4l-7 -33l-155 -8zM251 603h-35l112 142h131zM415 603h-35l112 142h131z" />
    <glyph glyph-name="umacron" unicode="&#x16b;" horiz-adv-x="618" 
d="M381 94h-2q-35 -50 -77 -78.5t-106 -28.5q-46 0 -72.5 16.5t-39.5 42.5t-13.5 58t6.5 63l66 308q2 12 -2 18t-21 8l-41 5l6 32h157l-21 -99l-53 -251q-15 -72 -1.5 -108.5t70.5 -36.5q18 0 43 8.5t50.5 33.5t48.5 69.5t38 115.5l44 205q2 12 -2 18t-21 8l-42 5l6 32h159
l-22 -99l-79 -375q-3 -14 2.5 -17.5t21.5 -5.5l41 -4l-7 -33l-155 -8zM236 635l14 67h266l-14 -67h-266z" />
    <glyph glyph-name="uogonek" unicode="&#x173;" horiz-adv-x="618" 
d="M381 94h-2q-35 -50 -77 -78.5t-106 -28.5q-46 0 -72.5 16.5t-39.5 42.5t-13.5 58t6.5 63l66 307q2 12 -2 18t-21 8l-41 5l7 32h155l-21 -99l-53 -250q-15 -72 -1 -108.5t71 -36.5q18 0 43 8.5t50.5 33.5t48.5 69.5t38 115.5l44 204q2 12 -2 18t-21 8l-42 5l7 32h159
l-22 -99l-80 -374q-4 -14 2 -17.5t22 -5.5l40 -4l-6 -33l-45 -2q-14 -6 -32.5 -15t-35 -21.5t-28 -27.5t-11.5 -33q0 -23 19 -33.5t42 -10.5q15 0 28.5 2.5t24.5 6.5l-9 -44q-14 -5 -35 -8.5t-44 -3.5q-19 0 -38.5 4t-35.5 13t-26.5 24.5t-10.5 39.5q0 32 26 57t61 45z" />
    <glyph glyph-name="uring" unicode="&#x16f;" horiz-adv-x="618" 
d="M381 94h-2q-35 -50 -77 -78.5t-106 -28.5q-46 0 -72.5 16.5t-39.5 42.5t-13.5 58t6.5 63l66 308q2 12 -2 18t-21 8l-41 5l6 32h157l-21 -99l-53 -251q-15 -72 -1.5 -108.5t70.5 -36.5q18 0 43 8.5t50.5 33.5t48.5 69.5t38 115.5l44 205q2 12 -2 18t-21 8l-42 5l6 32h159
l-22 -99l-79 -375q-3 -14 2.5 -17.5t21.5 -5.5l41 -4l-7 -33l-155 -8zM356 768q19 0 36 -6.5t30 -18.5t20.5 -28.5t7.5 -35.5q0 -38 -27.5 -63t-66.5 -25q-40 0 -67 25t-27 63q0 19 7.5 35.5t20.5 28.5t30 18.5t36 6.5zM356 724q-17 0 -31 -13t-14 -32q0 -20 14 -32t31 -12
t31 12t14 32q0 19 -14 32t-31 13z" />
    <glyph glyph-name="utilde" unicode="&#x169;" horiz-adv-x="616" 
d="M381 94h-2q-35 -50 -77 -78.5t-106 -28.5q-46 0 -72.5 16.5t-39.5 42.5t-13.5 58t6.5 63l66 308q2 12 -2 18t-21 8l-41 5l6 32h157l-21 -99l-53 -251q-15 -72 -1.5 -108.5t70.5 -36.5q18 0 43 8.5t50.5 33.5t48.5 69.5t38 115.5l44 205q2 12 -2 18t-21 8l-42 5l6 32h159
l-22 -99l-79 -375q-3 -14 2.5 -17.5t21.5 -5.5l41 -4l-7 -33l-155 -8zM453 674q25 0 38 13t18 38h61q-10 -52 -39 -82t-73 -30q-23 0 -43 8t-38 18t-33.5 18t-30.5 8q-24 0 -36 -14t-19 -38h-60q8 56 40 84t74 28q23 0 42.5 -8t36.5 -17.5t32 -17.5t30 -8z" />
    <glyph glyph-name="uni1EE5" unicode="&#x1ee5;" horiz-adv-x="618" 
d="M381 94h-2q-35 -50 -77 -78.5t-106 -28.5q-46 0 -72.5 16.5t-39.5 42.5t-13.5 58t6.5 63l66 308q2 12 -2 18t-21 8l-41 5l6 32h157l-21 -99l-53 -251q-15 -72 -1.5 -108.5t70.5 -36.5q18 0 43 8.5t50.5 33.5t48.5 69.5t38 115.5l44 205q2 12 -2 18t-21 8l-42 5l6 32h159
l-22 -99l-79 -375q-3 -14 2.5 -17.5t21.5 -5.5l41 -4l-7 -33l-155 -8zM224 -53h86l-25 -119h-86z" />
    <glyph glyph-name="wacute" unicode="&#x1e83;" horiz-adv-x="766" 
d="M649 433q7 14 12 26.5t5 21.5t-6 15t-21 7l-23 2l7 33h183l-7 -33l-27 -2q-11 -1 -19 -3.5t-15 -8t-13 -15t-14 -24.5l-226 -452h-54l-49 411l-219 -411h-53l-31 470q-2 17 -7 24t-24 9l-26 2l7 33h212l-7 -33l-37 -3q-18 -2 -25.5 -7t-6.5 -16l20 -352l216 411h50
l49 -411zM448 603h-35l112 142h131z" />
    <glyph glyph-name="wcircumflex" unicode="&#x175;" horiz-adv-x="766" 
d="M649 433q7 14 12 26.5t5 21.5t-6 15t-21 7l-23 2l7 33h183l-7 -33l-27 -2q-11 -1 -19 -3.5t-15 -8t-13 -15t-14 -24.5l-226 -452h-54l-49 411l-219 -411h-53l-31 470q-2 17 -7 24t-24 9l-26 2l7 33h212l-7 -33l-37 -3q-18 -2 -25.5 -7t-6.5 -16l20 -352l216 411h50
l49 -411zM594 603h-60l-86 73l-119 -73h-60l170 142h47z" />
    <glyph glyph-name="wdieresis" unicode="&#x1e85;" horiz-adv-x="766" 
d="M649 433q7 14 12 26.5t5 21.5t-6 15t-21 7l-23 2l7 33h183l-7 -33l-27 -2q-11 -1 -19 -3.5t-15 -8t-13 -15t-14 -24.5l-226 -452h-54l-49 411l-219 -411h-53l-31 470q-2 17 -7 24t-24 9l-26 2l7 33h212l-7 -33l-37 -3q-18 -2 -25.5 -7t-6.5 -16l20 -352l216 411h50
l49 -411zM307 745h86l-25 -119h-86zM530 745h86l-25 -119h-86z" />
    <glyph glyph-name="wgrave" unicode="&#x1e81;" horiz-adv-x="766" 
d="M649 433q7 14 12 26.5t5 21.5t-6 15t-21 7l-23 2l7 33h183l-7 -33l-27 -2q-11 -1 -19 -3.5t-15 -8t-13 -15t-14 -24.5l-226 -452h-54l-49 411l-219 -411h-53l-31 470q-2 17 -7 24t-24 9l-26 2l7 33h212l-7 -33l-37 -3q-18 -2 -25.5 -7t-6.5 -16l20 -352l216 411h50
l49 -411zM261 745h131l54 -142h-35z" />
    <glyph glyph-name="ycircumflex" unicode="&#x177;" horiz-adv-x="551" 
d="M-57 -189l13 61h71q21 0 35.5 2t28.5 13t30 34.5t41 66.5l11 19l-75 463q-3 19 -8 24.5t-23 7.5l-26 3l7 33h213l-7 -33l-37 -3q-35 -3 -32 -23l56 -384l192 338q22 37 22.5 52t-33.5 18l-23 2l7 33h194l-7 -33l-25 -2q-23 -2 -37.5 -15t-30.5 -36l-270 -466
q-38 -66 -63.5 -101.5t-48.5 -52t-48.5 -19t-62.5 -2.5h-64zM505 603h-60l-86 73l-119 -73h-60l170 142h47z" />
    <glyph glyph-name="ygrave" unicode="&#x1ef3;" horiz-adv-x="551" 
d="M-57 -189l13 61h71q21 0 35.5 2t28.5 13t30 34.5t41 66.5l11 19l-75 463q-3 19 -8 24.5t-23 7.5l-26 3l7 33h213l-7 -33l-37 -3q-35 -3 -32 -23l56 -384l192 338q22 37 22.5 52t-33.5 18l-23 2l7 33h194l-7 -33l-25 -2q-23 -2 -37.5 -15t-30.5 -36l-270 -466
q-38 -66 -63.5 -101.5t-48.5 -52t-48.5 -19t-62.5 -2.5h-64zM183 745h131l54 -142h-35z" />
    <glyph glyph-name="uni0233" unicode="&#x233;" horiz-adv-x="551" 
d="M-57 -189l13 61h71q21 0 35.5 2t28.5 13t30 34.5t41 66.5l11 19l-75 463q-3 19 -8 24.5t-23 7.5l-26 3l7 33h213l-7 -33l-37 -3q-35 -3 -32 -23l56 -384l192 338q22 37 22.5 52t-33.5 18l-23 2l7 33h194l-7 -33l-25 -2q-23 -2 -37.5 -15t-30.5 -36l-270 -466
q-38 -66 -63.5 -101.5t-48.5 -52t-48.5 -19t-62.5 -2.5h-64zM212 635l14 67h266l-14 -67h-266z" />
    <glyph glyph-name="zacute" unicode="&#x17a;" horiz-adv-x="512" 
d="M-2 50l418 437h-299l10 51h404l-10 -50l-419 -437h327l-11 -51h-431zM332 603h-35l112 142h131z" />
    <glyph glyph-name="zcaron" unicode="&#x17e;" horiz-adv-x="512" 
d="M-2 50l418 437h-299l10 51h404l-10 -50l-419 -437h327l-11 -51h-431zM215 745h60l87 -73l118 73h60l-170 -142h-47z" />
    <glyph glyph-name="zdotaccent" unicode="&#x17c;" horiz-adv-x="512" 
d="M-2 50l418 437h-299l10 51h404l-10 -50l-419 -437h327l-11 -51h-431zM322 745h86l-25 -119h-86z" />
    <glyph glyph-name="endash" unicode="&#x2013;" horiz-adv-x="477" 
d="M32 246l13 60h407l-13 -60h-407z" />
    <glyph glyph-name="emdash" unicode="&#x2014;" horiz-adv-x="705" 
d="M32 246l13 60h635l-13 -60h-635z" />
    <glyph glyph-name="guilsinglleft" unicode="&#x2039;" horiz-adv-x="275" 
d="M8 273l249 234h43l-181 -234l79 -235h-38z" />
    <glyph glyph-name="guilsinglright" unicode="&#x203a;" horiz-adv-x="272" 
d="M268 273l-247 -235h-43l179 235l-79 234h40z" />
    <glyph glyph-name="quoteleft" unicode="&#x2018;" horiz-adv-x="255" 
d="M216 460h-110l24 117l102 148h35l-74 -155h46z" />
    <glyph glyph-name="quoteright" unicode="&#x2019;" horiz-adv-x="256" 
d="M160 725h111l-25 -117l-100 -148h-36l74 155h-47z" />
    <glyph glyph-name="quotedblleft" unicode="&#x201c;" horiz-adv-x="422" 
d="M216 460h-110l24 117l102 148h35l-74 -155h46zM383 460h-110l24 117l102 148h35l-74 -155h46z" />
    <glyph glyph-name="quotedblright" unicode="&#x201d;" horiz-adv-x="423" 
d="M160 725h111l-25 -117l-100 -148h-36l74 155h-47zM327 725h111l-25 -117l-100 -148h-36l74 155h-47z" />
    <glyph glyph-name="quotesinglbase" unicode="&#x201a;" horiz-adv-x="306" 
d="M56 119h120l-27 -127l-108 -158h-48l91 166h-53z" />
    <glyph glyph-name="quotedblbase" unicode="&#x201e;" horiz-adv-x="503" 
d="M253 119h120l-27 -127l-108 -158h-48l91 166h-53zM56 119h120l-27 -127l-108 -158h-48l91 166h-53z" />
    <glyph glyph-name="bullet" unicode="&#x2022;" horiz-adv-x="462" 
d="M46 283q0 37 14 70t38.5 57.5t57 38.5t69.5 14q40 0 74 -14t59 -38.5t39.5 -57.5t14.5 -70q0 -39 -14.5 -73t-39.5 -59t-59 -39.5t-74 -14.5q-37 0 -69.5 14.5t-57 39.5t-38.5 59t-14 73z" />
    <glyph glyph-name="minus" unicode="&#x2212;" horiz-adv-x="705" 
d="M608 306v-60h-511v60h511z" />
    <glyph glyph-name="Euro" unicode="&#x20ac;" horiz-adv-x="769" 
d="M205 266q4 -106 54 -168t136 -62q40 0 76 12t64.5 35.5t48.5 58.5t29 81h87q-15 -58 -46.5 -102t-74 -74t-92 -45t-99.5 -15q-63 0 -113.5 21t-86 58t-55.5 88.5t-23 111.5h-127l52 60h76q4 46 15 91h-111l52 60h78q22 55 56 103.5t80 84.5t103 56.5t124 20.5
q55 0 100.5 -16.5t78 -47.5t51 -74t18.5 -97h-87q5 92 -36 139t-129 47q-52 0 -94 -17t-75 -46.5t-57 -68.5t-40 -84h282l-52 -60h-248q-5 -23 -8.5 -45.5t-5.5 -45.5h201l-54 -60h-148z" />
    <glyph glyph-name="fi" unicode="&#xfb01;" horiz-adv-x="729" 
d="M662 439l-80 -378q-3 -14 2.5 -17.5t20.5 -5.5l41 -4l-7 -34h-225l7 34l41 4q17 2 24 5.5t10 17.5l88 414q3 12 -1.5 18t-21.5 8l-41 5l6 32h159zM269 0h-274l7 33l41 4q17 2 24 5t10 17l91 428h-75l10 51h75l12 53q9 43 24 72.5t38 47.5t57 26t81 8h97l-13 -63h-85
q-27 0 -45.5 -2.5t-31 -10t-20 -22t-12.5 -38.5l-15 -71h178l-10 -51h-179l-91 -427q-3 -14 2.5 -18t20.5 -5l90 -4zM641 745h86l-25 -119h-86z" />
    <glyph glyph-name="fl" unicode="&#xfb02;" horiz-adv-x="730" 
d="M269 0h-274l7 33l41 4q17 2 24 5t10 17l91 428h-75l10 51h75l12 53q9 43 24 72.5t38 47.5t57 26t81 8h97l-13 -63h-85q-27 0 -45.5 -2.5t-31 -10t-20 -22t-12.5 -38.5l-15 -71h178l-10 -51h-179l-91 -427q-3 -14 2.5 -18t20.5 -5l90 -4zM731 745l-21 -100l-124 -585
q-3 -14 2.5 -17.5t20.5 -5.5l40 -4l-6 -33h-225l7 33l41 4q17 2 24 5.5t10 17.5l133 625q3 14 -2.5 17.5t-20.5 5.5l-40 4l6 33h155z" />
    <glyph glyph-name="breve" unicode="&#x2d8;" horiz-adv-x="381" 
d="M211 745q-6 -91 79 -91q37 0 63.5 23t31.5 68h63q-11 -68 -54 -106t-107 -38q-77 0 -110 40.5t-28 103.5h62v0z" />
    <glyph glyph-name="caron" unicode="&#x2c7;" horiz-adv-x="407" 
d="M149 745h60l87 -73l118 73h60l-170 -142h-47z" />
    <glyph glyph-name="circumflex" unicode="&#x2c6;" horiz-adv-x="396" 
d="M438 603h-60l-86 73l-119 -73h-60l170 142h47z" />
    <glyph glyph-name="dotaccent" unicode="&#x2d9;" horiz-adv-x="163" 
d="M144 745h86l-25 -119h-86z" />
    <glyph glyph-name="dot" 
d="M212 745h86l-25 -119h-86z" />
    <glyph glyph-name="dotaccent.low" horiz-adv-x="160" 
d="M-33 -54h86l-25 -119h-86z" />
    <glyph glyph-name="hungarumlaut" unicode="&#x2dd;" horiz-adv-x="453" 
d="M148 603h-35l112 142h131zM312 603h-35l112 142h131z" />
    <glyph glyph-name="commaaccent" horiz-adv-x="176" 
d="M-24 -37h98l-21 -98l-65 -93h-56l61 99h-37z" />
    <glyph glyph-name="ogonek" unicode="&#x2db;" horiz-adv-x="282" 
d="M154 0q-13 -5 -32.5 -14.5t-38 -22t-32 -28.5t-13.5 -35q0 -23 19 -33.5t42 -10.5q15 0 29.5 2t25.5 7l-11 -44q-14 -6 -35 -9t-44 -3q-19 0 -38.5 3.5t-35.5 13t-26.5 25t-10.5 39.5q0 18 9 33.5t24 29.5t34 25.5t39 21.5h95z" />
    <glyph glyph-name="ring" unicode="&#x2da;" horiz-adv-x="269" 
d="M228 768q19 0 36 -6.5t30 -18.5t20.5 -28.5t7.5 -35.5q0 -38 -27.5 -63t-66.5 -25q-40 0 -67 25t-27 63q0 19 7.5 35.5t20.5 28.5t30 18.5t36 6.5zM228 724q-17 0 -31 -13t-14 -32q0 -20 14 -32t31 -12t31 12t14 32q0 19 -14 32t-31 13z" />
    <glyph glyph-name="tilde" unicode="&#x2dc;" horiz-adv-x="425" 
d="M371 674q25 0 38 13t18 38h61q-10 -52 -39 -82t-73 -30q-23 0 -43 8t-38 18t-33.5 18t-30.5 8q-24 0 -36 -14t-19 -38h-60q8 56 40 84t74 28q23 0 42.5 -8t36.5 -17.5t32 -17.5t30 -8z" />
    <glyph glyph-name="caron.slovak" horiz-adv-x="157" 
d="M44 745h93l-21 -99l-85 -125h-31l64 131h-40z" />
    <glyph glyph-name="acute.case" horiz-adv-x="326" 
d="M216 773h-60l139 117h123z" />
    <glyph glyph-name="breve.case" horiz-adv-x="420" 
d="M512 890q-17 -54 -60 -88t-123 -34q-69 0 -106 34t-37 88h66q0 -32 22.5 -49.5t59.5 -17.5q46 0 74 18t39 49h65z" />
    <glyph glyph-name="caron.case" horiz-adv-x="434" 
d="M186 890h66l91 -58l117 58h66l-165 -117h-65z" />
    <glyph glyph-name="cedilla.case" horiz-adv-x="346" 
d="M113 3h48l-48 -53q44 5 69 -15.5t25 -53.5q0 -25 -11 -43.5t-29 -31t-41 -18.5t-48 -6t-43.5 3.5t-40.5 14.5l17 36q11 -5 26 -9t32 -4q27 0 49 10t22 35q0 20 -14 29t-28 9q-24 0 -44 -10l-16 19z" />
    <glyph glyph-name="circumflex.case" horiz-adv-x="424" 
d="M496 773h-66l-92 58l-116 -58h-66l164 117h64z" />
    <glyph glyph-name="dieresis.case" horiz-adv-x="398" 
d="M181 890h86l-25 -117h-86zM404 890h86l-25 -117h-86z" />
    <glyph glyph-name="dotaccent.case" horiz-adv-x="175" 
d="M181 890h86l-25 -117h-86z" />
    <glyph glyph-name="grave.case" horiz-adv-x="326" 
d="M186 890h123l89 -117h-60z" />
    <glyph glyph-name="hungarumlaut.case" horiz-adv-x="493" 
d="M216 773h-60l139 117h123zM383 773h-60l139 117h123z" />
    <glyph glyph-name="macron.case" horiz-adv-x="400" 
d="M163 798l14 67h311l-14 -67h-311z" />
    <glyph glyph-name="ogonek.case" horiz-adv-x="281" 
d="M154 0q-13 -5 -32.5 -14.5t-38 -22t-32 -28.5t-13.5 -35q0 -23 19 -33.5t42 -10.5q15 0 29 2t25 7l-10 -44q-14 -6 -35 -9t-44 -3q-19 0 -38.5 3.5t-35.5 13t-26.5 25t-10.5 39.5q0 18 9 33.5t24 29.5t34 25.5t39 21.5h95z" />
    <glyph glyph-name="ring.case" horiz-adv-x="282" 
d="M272 932q19 0 36 -6.5t29.5 -18t20 -27.5t7.5 -35q0 -38 -27 -63t-66 -25q-40 0 -67 25t-27 63q0 19 7.5 35t20.5 27.5t30 18t36 6.5zM272 889q-18 0 -31.5 -12.5t-13.5 -31.5q0 -20 13.5 -32t31.5 -12q17 0 30.5 12t13.5 32q0 19 -13.5 31.5t-30.5 12.5z" />
    <glyph glyph-name="tilde.case" horiz-adv-x="437" 
d="M412 836q25 0 38 13.5t18 38.5h61q-10 -52 -39 -82.5t-73 -30.5q-23 0 -43 8.5t-38 18t-33.5 18t-30.5 8.5q-24 0 -36 -14t-19 -39h-60q8 56 40 84.5t74 28.5q23 0 42.5 -8t36.5 -18t32 -18t30 -8z" />
    </font>
</defs>
</svg>
