<?xml version="1.0" standalone="no"?>
<!DOCTYPE svg PUBLIC "-//W3C//DTD SVG 1.1//EN" "http://www.w3.org/Graphics/SVG/1.1/DTD/svg11.dtd" >
<svg xmlns="http://www.w3.org/2000/svg" xmlns:xlink="http://www.w3.org/1999/xlink" version="1.1">
<metadata>
Created by Christoph Koeberlin (http://christoph.koe.berlin)
Copyright (c) 2015 Swiss Typefaces Sa`rl. All rights reserved.
</metadata>
<defs>
<font id="Font" horiz-adv-x="548" >
  <font-face 
    font-family="Font"
    font-weight="500"
    font-stretch="condensed"
    units-per-em="1000"
    panose-1="2 11 6 6 0 0 0 0 0 0"
    ascent="800"
    descent="-200"
    x-height="538"
    cap-height="725"
    bbox="-58 -234 1075 934"
    underline-thickness="80"
    underline-position="-110"
    unicode-range="U+0020-FB02"
  />
<missing-glyph horiz-adv-x="500" 
d="M0 725h500v-725h-500v725zM19 696v-667l220 333zM481 29v667l-221 -334zM33 19h433l-216 327zM250 378l216 328h-433z" />
    <glyph glyph-name=".notdef" horiz-adv-x="500" 
d="M0 725h500v-725h-500v725zM19 696v-667l220 333zM481 29v667l-221 -334zM33 19h433l-216 327zM250 378l216 328h-433z" />
    <glyph glyph-name="glyph1" horiz-adv-x="0" 
 />
    <glyph glyph-name="glyph2" horiz-adv-x="180" 
 />
    <glyph glyph-name="space" unicode=" " horiz-adv-x="180" 
 />
    <glyph glyph-name="exclam" unicode="!" horiz-adv-x="260" 
d="M71 530v195h118v-195l-19 -325h-80zM66 125h128v-125h-128v125z" />
    <glyph glyph-name="quotedbl" unicode="&#x22;" horiz-adv-x="378" 
d="M68 468l-21 257h111l-21 -257h-69zM241 468l-21 257h111l-21 -257h-69z" />
    <glyph glyph-name="numbersign" unicode="#" horiz-adv-x="584" 
d="M327 202h-122l-28 -202h-88l28 202h-100l11 83h100l24 171h-98l9 84h100l26 185h88l-26 -185h122l26 185h88l-26 -185h101l-10 -84h-102l-24 -171h100l-10 -83h-101l-28 -202h-88zM216 285h122l24 171h-122z" />
    <glyph glyph-name="dollar" unicode="$" horiz-adv-x="514" 
d="M238 -9q-105 7 -156.5 67.5t-51.5 169.5v5h117v-5q0 -80 28.5 -118t88.5 -38q107 0 107 112q0 51 -25.5 79t-73.5 50l-78 35q-36 16 -64.5 34t-48.5 41.5t-30.5 55t-10.5 76.5q0 90 54.5 136.5t143.5 49.5v77h48v-79q83 -8 133 -58t50 -151v-3h-116v3q0 66 -27 97t-78 31
q-46 0 -70.5 -26t-24.5 -71t17.5 -68.5t52.5 -39.5l84 -39q37 -17 70 -34t57.5 -41t38.5 -58t14 -83q0 -97 -52 -149.5t-149 -57.5v-86h-48v86z" />
    <glyph glyph-name="percent" unicode="%" horiz-adv-x="790" 
d="M153 358q19 0 29.5 10t15.5 28.5t6 45.5t1 62v33q0 34 -1 61t-6 46t-15.5 28.5t-29.5 9.5t-30 -9.5t-16 -28.5t-6.5 -46t-1.5 -61v-33q0 -35 1.5 -62t6.5 -45.5t16 -28.5t30 -10zM153 309q-75 0 -102 45t-27 139v54q0 94 27 139.5t102 45.5q74 0 101.5 -45.5t27.5 -139.5
v-54q0 -94 -27.5 -139t-101.5 -45zM481 725h55l-231 -725h-55zM634 42q19 0 29.5 9.5t15.5 28.5t6 45.5t1 61.5v33q0 34 -1 61.5t-6 46t-15.5 28.5t-29.5 10t-29.5 -10t-16 -28.5t-6.5 -46t-1 -61.5v-33q0 -35 1 -61.5t6.5 -45.5t16 -28.5t29.5 -9.5zM634 -8q-38 0 -63 11
t-39.5 34t-20.5 57.5t-6 81.5v55q0 47 6 82t20.5 57.5t39.5 33.5t63 11q74 0 101.5 -45t27.5 -139v-55q0 -94 -27.5 -139t-101.5 -45z" />
    <glyph glyph-name="ampersand" unicode="&#x26;" horiz-adv-x="618" 
d="M234 -13q-49 0 -89 14.5t-68 41t-43.5 64t-15.5 83.5q0 37 9.5 64.5t27 51t42.5 44t57 42.5l24 17l-1 1q-20 25 -34 47t-23 43t-13.5 42.5t-4.5 47.5q0 34 12.5 61.5t35 47t54 29.5t68.5 10q31 0 61 -8.5t53 -26.5t37 -46t14 -67q0 -32 -9.5 -58t-26 -48.5t-39.5 -41.5
t-50 -38l-7 -5l127 -167q14 31 22 72.5t9 95.5h92q-2 -78 -19.5 -139.5t-43.5 -106.5l118 -154h-121l-56 73q-37 -42 -85.5 -64t-113.5 -22zM248 68q42 0 77 18t58 53l-156 205l-18 -13q-22 -16 -37.5 -30.5t-25 -31t-14 -35t-4.5 -41.5q0 -26 8.5 -48.5t24 -39.5t37.5 -27
t50 -10zM199 590q0 -18 3 -32.5t10 -28t16.5 -28t23.5 -32.5l4 -6l8 6q34 24 57.5 51.5t23.5 65.5q0 35 -19 55t-54 20q-31 0 -52 -18t-21 -53z" />
    <glyph glyph-name="quotesingle" unicode="'" horiz-adv-x="205" 
d="M68 468l-21 257h111l-21 -257h-69z" />
    <glyph glyph-name="parenleft" unicode="(" horiz-adv-x="247" 
d="M165 -175q-23 34 -46 81t-42.5 104.5t-31.5 124.5t-12 140t12 140t31.5 124.5t42.5 104.5t46 81h94q-24 -42 -46 -91.5t-38.5 -106t-26 -120t-9.5 -132.5t9.5 -132.5t26 -120t38.5 -106t46 -91.5h-94z" />
    <glyph glyph-name="parenright" unicode=")" horiz-adv-x="247" 
d="M-12 -175q25 42 46.5 91.5t37.5 106t25.5 120t9.5 132.5t-9.5 132.5t-25.5 120t-37.5 106t-46.5 91.5h94q23 -34 46.5 -81t42.5 -104.5t31 -124.5t12 -140t-12 -140t-31 -124.5t-42.5 -104.5t-46.5 -81h-94z" />
    <glyph glyph-name="asterisk" unicode="*" horiz-adv-x="389" 
d="M68 453l67 93l-110 39l24 68l108 -40v112h73v-112l109 39l26 -68l-112 -37l68 -93l-56 -42l-70 94l-66 -94z" />
    <glyph glyph-name="plus" unicode="+" 
d="M228 225h-205v89h205v224h93v-224h204v-89h-204v-225h-93v225z" />
    <glyph glyph-name="comma" unicode="," horiz-adv-x="236" 
d="M109 0h-55v125h128v-134l-67 -134h-68z" />
    <glyph glyph-name="hyphen" unicode="-" horiz-adv-x="349" 
d="M50 310h249v-94h-249v94z" />
    <glyph glyph-name="period" unicode="." horiz-adv-x="236" 
d="M54 125h128v-125h-128v125z" />
    <glyph glyph-name="slash" unicode="/" horiz-adv-x="356" 
d="M244 725h112l-244 -725h-112z" />
    <glyph glyph-name="zero" unicode="0" horiz-adv-x="530" 
d="M265 65q37 0 58.5 18t32.5 52.5t14 85t3 114.5v56q0 64 -3 114.5t-14 85t-32.5 52.5t-58.5 18q-38 0 -59.5 -18t-32.5 -52.5t-14 -85t-3 -114.5v-56q0 -64 3 -114.5t14 -85t32.5 -52.5t59.5 -18zM265 -13q-64 0 -107 20t-69.5 60.5t-37.5 102.5t-11 146v94q0 84 11 146
t37.5 102.5t69.5 60t107 19.5t107 -19.5t69 -60t37.5 -102.5t11.5 -146v-94q0 -84 -11.5 -146t-37.5 -102.5t-69 -60.5t-107 -20z" />
    <glyph glyph-name="one" unicode="1" horiz-adv-x="311" 
d="M137 559h-127v72q46 1 73 3t42 11t22.5 28t14.5 52h89v-725h-114v559z" />
    <glyph glyph-name="two" unicode="2" horiz-adv-x="487" 
d="M36 84l81 102q48 61 87.5 112t68 96t44 84.5t15.5 77.5q0 105 -90 105q-48 0 -70 -36t-22 -108v-7h-108v6q0 109 50.5 165.5t158.5 56.5q91 0 144 -43t53 -132q0 -44 -16 -88.5t-44.5 -92t-67.5 -99t-85 -110.5l-67 -84h284v-89h-416v84z" />
    <glyph glyph-name="three" unicode="3" horiz-adv-x="496" 
d="M232 -13q-93 0 -148.5 49t-55.5 153v4h107v-4q0 -56 22 -90t77 -34q34 0 55.5 10.5t33.5 29t16.5 43t4.5 52.5q0 31 -6 56t-21 43t-41 27.5t-65 9.5h-41v80h38q61 0 87.5 32t26.5 94q0 57 -21 88.5t-72 31.5q-50 0 -68.5 -29.5t-18.5 -92.5v-4h-107v4q0 103 54 150.5
t144 47.5q43 0 81 -9t65.5 -30.5t43.5 -57.5t16 -89q0 -71 -32 -112.5t-79 -54.5q63 -17 98 -62t35 -122q0 -113 -60 -163.5t-169 -50.5z" />
    <glyph glyph-name="four" unicode="4" horiz-adv-x="507" 
d="M287 183h-274v83l276 459h112v-453h85v-89h-85v-183h-114v183zM287 272v309l-188 -309h188z" />
    <glyph glyph-name="five" unicode="5" horiz-adv-x="498" 
d="M242 -13q-46 0 -84 12t-65.5 37t-42.5 63t-15 90v4h108v-4q0 -59 23 -91.5t76 -32.5q54 0 77.5 39.5t23.5 111.5v42q0 72 -24 112t-76 40q-38 0 -61 -23t-34 -62l-102 4l35 396h361v-88h-273l-19 -223q13 29 47 52.5t85 23.5q88 0 133 -57.5t45 -169.5v-49
q0 -112 -56 -169.5t-162 -57.5z" />
    <glyph glyph-name="six" unicode="6" horiz-adv-x="510" 
d="M261 -13q-59 0 -100.5 17t-68.5 53t-39.5 93t-12.5 137v102q0 87 10.5 152.5t36 109t69 65.5t110.5 22q50 0 86.5 -14t60.5 -39.5t35.5 -60.5t11.5 -77v-6h-107v5q0 116 -89 116q-33 0 -54 -15.5t-33.5 -46t-17 -76t-4.5 -104.5v-29q5 15 16.5 30.5t28.5 28.5t40 21t51 8
q88 0 136 -57t48 -170v-38q0 -115 -55.5 -171t-158.5 -56zM256 65q51 0 76.5 39t25.5 112v29q0 73 -25.5 113t-76.5 40t-77 -40.5t-26 -113.5v-27q0 -73 26 -112.5t77 -39.5z" />
    <glyph glyph-name="seven" unicode="7" horiz-adv-x="437" 
d="M78 0q4 102 23 191t52 167.5t78.5 147.5t103.5 131h-324v88h422v-88q-62 -68 -106 -137.5t-72 -147t-42 -164t-17 -188.5h-118z" />
    <glyph glyph-name="eight" unicode="8" horiz-adv-x="530" 
d="M265 67q59 0 84.5 35.5t25.5 95.5v13q0 60 -25 96t-85 36q-59 0 -84.5 -36t-25.5 -96v-13q0 -60 25.5 -95.5t84.5 -35.5zM265 420q50 0 71.5 30t21.5 81v17q0 51 -21 81.5t-72 30.5q-50 0 -71 -30.5t-21 -81.5v-17q0 -51 21 -81t71 -30zM265 -13q-109 0 -169 50t-60 166
q0 41 9.5 72t26 53.5t38.5 37t46 22.5q-16 6 -34 18t-33 32t-25 48.5t-10 66.5q0 51 16 86.5t44 57t66.5 31.5t84.5 10q45 0 84 -10t67.5 -31.5t44.5 -57t16 -86.5q0 -38 -10 -66.5t-25 -48.5t-33.5 -32t-34.5 -18q24 -8 46 -22.5t38.5 -37t26 -53.5t9.5 -72
q0 -58 -15.5 -99t-44.5 -67t-71.5 -38t-97.5 -12z" />
    <glyph glyph-name="nine" unicode="9" horiz-adv-x="510" 
d="M245 -13q-51 0 -87.5 14.5t-60 40t-34.5 60.5t-11 76v6h107v-4q0 -57 21 -86t67 -29q33 0 54 15.5t33 46t16.5 75.5t4.5 104v29q-5 -15 -16.5 -30.5t-28.5 -28.5t-39.5 -21t-50.5 -8q-88 0 -136.5 56.5t-48.5 170.5v38q0 115 55.5 170.5t158.5 55.5q58 0 100 -17t69 -53
t39.5 -93t12.5 -137v-101q0 -87 -10 -153t-35.5 -109.5t-69 -65.5t-110.5 -22zM254 328q52 0 77.5 40.5t25.5 113.5v27q0 73 -25.5 113t-77.5 40q-51 0 -76 -39.5t-25 -112.5v-29q0 -74 25 -113.5t76 -39.5z" />
    <glyph glyph-name="colon" unicode=":" horiz-adv-x="236" 
d="M54 538h128v-125h-128v125zM54 125h128v-125h-128v125z" />
    <glyph glyph-name="semicolon" unicode=";" horiz-adv-x="236" 
d="M109 0h-55v125h128v-134l-67 -134h-68zM54 538h128v-125h-128v125z" />
    <glyph glyph-name="less" unicode="&#x3c;" 
d="M50 220v97l409 222v-102l-307 -169l307 -168v-102z" />
    <glyph glyph-name="equal" unicode="=" 
d="M62 201h425v-89h-425v89zM62 420h425v-89h-425v89z" />
    <glyph glyph-name="greater" unicode="&#x3e;" 
d="M90 -2v102l307 168l-307 169v102l409 -222v-97z" />
    <glyph glyph-name="question" unicode="?" horiz-adv-x="449" 
d="M141 242q0 37 7 62t20.5 45t32.5 37t43 37q33 29 50 58.5t17 74.5q0 59 -24 82t-66 23q-48 0 -71 -32.5t-23 -107.5v-4h-108v4q0 110 54 163.5t150 53.5q42 0 79.5 -9t65 -30t43.5 -55.5t16 -86.5q0 -34 -8.5 -61.5t-22 -49t-30 -39t-32.5 -30.5q-21 -18 -36.5 -31
t-26 -27t-16 -32t-5.5 -47v-35h-109v37zM132 125h128v-125h-128v125z" />
    <glyph glyph-name="at" unicode="@" horiz-adv-x="791" 
d="M394 -13q-77 0 -139.5 27t-107 75.5t-69 116t-24.5 148.5t28 150.5t76 120.5t113.5 80t140.5 29q69 0 128 -22t103 -63.5t69 -101t25 -134.5q0 -60 -14.5 -107.5t-39 -80.5t-56 -51t-63.5 -18q-49 0 -72 28t-23 69q-19 -45 -52 -70t-75 -26q-23 0 -45.5 10.5t-41 32
t-30 55.5t-11.5 81q0 46 13.5 89.5t36.5 77.5t55 54t69 20q22 0 39 -8.5t29 -21.5t19.5 -29t10.5 -32q0 5 1 15t2 21.5t2 21.5t2 14h60l-30 -229q-6 -52 1.5 -83.5t39.5 -31.5q21 0 41.5 13t36 38t25 61t9.5 82q0 64 -21.5 113.5t-58 84t-85 52.5t-101.5 18
q-62 0 -115.5 -25.5t-93 -69t-62 -102.5t-22.5 -126q0 -66 21 -122.5t58 -97.5t87 -64t109 -23q23 0 47.5 3t47 8t41.5 12.5t32 15.5l25 -52q-19 -11 -43 -19.5t-49.5 -14.5t-51 -9t-47.5 -3zM355 223q23 0 42.5 14.5t33.5 39.5t22 57t8 67q0 53 -19.5 81t-50.5 28
q-22 0 -40.5 -14t-32 -38t-21.5 -55.5t-8 -66.5q0 -57 19 -85t47 -28z" />
    <glyph glyph-name="A" unicode="A" horiz-adv-x="537" 
d="M196 725h143l190 -725h-122l-39 167h-206l-39 -167h-115zM180 247h169l-84 363z" />
    <glyph glyph-name="B" unicode="B" horiz-adv-x="534" 
d="M65 725h188q51 0 93.5 -8t72.5 -28t47 -55.5t17 -89.5q0 -70 -32.5 -108t-78.5 -52q61 -16 97.5 -57.5t36.5 -116.5q0 -61 -16.5 -101.5t-47.5 -64.5t-75.5 -34t-100.5 -10h-201v725zM259 82q38 0 62.5 9t39 26t20.5 41t6 54t-6 53.5t-21 39.5t-41.5 24t-66.5 8h-68v-255
h75zM248 414q62 0 89.5 28t27.5 88q0 59 -27 86.5t-90 27.5h-64v-230h64z" />
    <glyph glyph-name="C" unicode="C" horiz-adv-x="534" 
d="M505 217q0 -111 -55.5 -170.5t-166.5 -59.5q-67 0 -113.5 19.5t-75.5 60t-42 102.5t-13 146v95q0 84 13 146t42 102.5t75.5 60t113.5 19.5q111 0 166.5 -59.5t55.5 -170.5v-18h-118v18q0 79 -24.5 112.5t-79.5 33.5q-39 0 -62.5 -18t-36 -52.5t-16.5 -85t-4 -114.5v-43
q0 -64 4 -114.5t16.5 -85t36 -52.5t62.5 -18q55 0 79.5 33.5t24.5 112.5v19h118v-19z" />
    <glyph glyph-name="D" unicode="D" horiz-adv-x="559" 
d="M236 82q46 0 77 11.5t49 40.5t25.5 79.5t7.5 128.5v42q0 78 -7.5 128t-25.5 79.5t-49 41t-77 11.5h-52v-562h52zM65 725h166q70 0 124 -14.5t91 -51t55.5 -99t18.5 -159.5v-81q0 -95 -18.5 -157t-55.5 -98t-91 -50.5t-124 -14.5h-166v725z" />
    <glyph glyph-name="E" unicode="E" horiz-adv-x="466" 
d="M65 725h380v-90h-261v-217h238v-90h-238v-238h261v-90h-380v725z" />
    <glyph glyph-name="F" unicode="F" horiz-adv-x="435" 
d="M65 725h360v-90h-241v-217h218v-90h-218v-328h-119v725z" />
    <glyph glyph-name="G" unicode="G" horiz-adv-x="566" 
d="M262 -13q-119 0 -171 81.5t-52 247.5v94q0 84 13 146t42 102.5t75.5 60t113.5 19.5q111 0 169 -59.5t58 -170.5v-4h-118v4q0 79 -27 112.5t-82 33.5q-39 0 -62.5 -18t-36 -52.5t-16.5 -85t-4 -114.5v-42q0 -64 4 -114.5t16.5 -85t36 -52.5t62.5 -18q68 0 97 48.5
t29 142.5v28h-151v83h255v-374h-87l-3 90q-19 -45 -57.5 -74t-103.5 -29z" />
    <glyph glyph-name="H" unicode="H" horiz-adv-x="584" 
d="M65 725h119v-307h216v307h119v-725h-119v328h-216v-328h-119v725z" />
    <glyph glyph-name="I" unicode="I" horiz-adv-x="249" 
d="M65 725h119v-725h-119v725z" />
    <glyph glyph-name="J" unicode="J" horiz-adv-x="460" 
d="M200 -13q-103 0 -151 54t-48 161v15h119v-15q0 -72 17 -101t60 -29q44 0 61.5 29t17.5 101v523h119v-523q0 -59 -13 -100t-37.5 -66.5t-61 -37t-83.5 -11.5z" />
    <glyph glyph-name="K" unicode="K" horiz-adv-x="541" 
d="M253 322l-69 -102v-220h-119v725h119v-336l221 336h119l-201 -299l222 -426h-123z" />
    <glyph glyph-name="L" unicode="L" horiz-adv-x="453" 
d="M65 725h119v-635h262v-90h-381v725z" />
    <glyph glyph-name="M" unicode="M" horiz-adv-x="733" 
d="M65 725h169l133 -589l133 589h168v-725h-108v606h-2l-7 -46l-136 -560h-97l-136 560l-7 46h-2v-606h-108v725z" />
    <glyph glyph-name="N" unicode="N" horiz-adv-x="586" 
d="M65 725h141l207 -571v571h108v-725h-141l-207 571v-571h-108v725z" />
    <glyph glyph-name="O" unicode="O" horiz-adv-x="568" 
d="M284 72q39 0 62.5 18t36.5 52.5t17 85t4 114.5v42q0 64 -4 114.5t-17 85t-36.5 52.5t-62.5 18t-62.5 -18t-36.5 -52.5t-17 -85t-4 -114.5v-42q0 -64 4 -114.5t17 -85t36.5 -52.5t62.5 -18zM284 -13q-67 0 -113.5 20t-76 60.5t-42.5 102.5t-13 146v94q0 84 13 146
t42.5 102.5t76 60t113.5 19.5q66 0 113 -19.5t76 -60t42.5 -102.5t13.5 -146v-94q0 -84 -13.5 -146t-42.5 -102.5t-76 -60.5t-113 -20z" />
    <glyph glyph-name="P" unicode="P" horiz-adv-x="503" 
d="M65 725h180q60 0 108 -8t81.5 -31t51 -64.5t17.5 -108.5t-17.5 -109.5t-51 -66.5t-81.5 -32.5t-108 -8.5h-61v-296h-119v725zM233 379q39 0 66.5 4.5t45 19t25 40.5t7.5 68t-7.5 68.5t-25 40.5t-45 19t-66.5 5h-49v-265h49z" />
    <glyph glyph-name="Q" unicode="Q" horiz-adv-x="568" 
d="M284 -13q-67 0 -113.5 20t-76 60.5t-42.5 102.5t-13 146v94q0 84 13 146t42.5 102.5t76 60t113.5 19.5q66 0 113 -19.5t76 -60t42.5 -102.5t13.5 -146v-94q0 -101 -19.5 -170t-62.5 -107l75 -99l-65 -50l-83 109q-39 -12 -90 -12zM284 72q39 0 62.5 18t36.5 52.5t17 85
t4 114.5v42q0 64 -4 114.5t-17 85t-36.5 52.5t-62.5 18t-62.5 -18t-36.5 -52.5t-17 -85t-4 -114.5v-42q0 -64 4 -114.5t17 -85t36.5 -52.5t62.5 -18z" />
    <glyph glyph-name="R" unicode="R" 
d="M289 324q-23 -3 -47 -3h-58v-321h-119v725h180q69 0 119 -9t82.5 -31.5t48.5 -60.5t16 -97q0 -78 -29 -119t-85 -61l127 -347h-123zM246 396q39 0 66 5t43.5 18.5t24 37.5t7.5 62t-7.5 62.5t-24 38.5t-43.5 19t-66 5h-62v-248h62z" />
    <glyph glyph-name="S" unicode="S" horiz-adv-x="513" 
d="M264 -13q-118 0 -176 61t-58 178v8h117v-8q0 -80 28.5 -118t88.5 -38q107 0 107 112q0 25 -6.5 44t-19.5 33.5t-31 26t-42 22.5l-78 36q-36 16 -64.5 34t-48.5 42t-31 56.5t-11 77.5q0 46 15 80.5t43 57.5t66.5 34.5t85.5 11.5q49 0 90 -12t70 -37.5t45 -65t16 -95.5v-6
h-116v6q0 66 -27.5 97t-78.5 31q-46 0 -70.5 -26t-24.5 -71t17.5 -67.5t52.5 -37.5l84 -39q37 -17 70 -35t57.5 -42.5t38.5 -58.5t14 -83q0 -102 -58 -155.5t-165 -53.5z" />
    <glyph glyph-name="T" unicode="T" horiz-adv-x="463" 
d="M172 635h-165v90h449v-90h-165v-635h-119v635z" />
    <glyph glyph-name="U" unicode="U" horiz-adv-x="558" 
d="M279 -13q-69 0 -112.5 14t-68.5 48t-34 89t-9 138v449h119v-459q0 -50 3.5 -86.5t15 -60.5t32 -35.5t54.5 -11.5t54.5 11.5t32 35.5t15 60.5t3.5 86.5v459h119v-449q0 -83 -9 -138t-33.5 -89t-68.5 -48t-113 -14z" />
    <glyph glyph-name="V" unicode="V" horiz-adv-x="495" 
d="M7 725h121l123 -602l123 602h114l-169 -725h-142z" />
    <glyph glyph-name="W" unicode="W" horiz-adv-x="727" 
d="M13 725h108l86 -592l104 592h105l104 -592l85 592h109l-113 -725h-136l-101 588l-102 -588h-137z" />
    <glyph glyph-name="X" unicode="X" horiz-adv-x="511" 
d="M195 372l-177 353h128l112 -235l115 235h120l-176 -341l192 -384h-127l-129 268l-131 -268h-120z" />
    <glyph glyph-name="Y" unicode="Y" horiz-adv-x="504" 
d="M191 294l-186 431h119l128 -325l129 325h118l-189 -433v-292h-119v294z" />
    <glyph glyph-name="Z" unicode="Z" horiz-adv-x="492" 
d="M24 83l308 552h-282v90h411v-83l-309 -552h317v-90h-445v83z" />
    <glyph glyph-name="bracketleft" unicode="[" horiz-adv-x="269" 
d="M65 725h199v-78h-105v-743h105v-79h-199v900z" />
    <glyph glyph-name="backslash" unicode="\" horiz-adv-x="356" 
d="M0 725h112l244 -725h-112z" />
    <glyph glyph-name="bracketright" unicode="]" horiz-adv-x="268" 
d="M5 -96h104v743h-104v78h198v-900h-198v79z" />
    <glyph glyph-name="asciicircum" unicode="^" horiz-adv-x="502" 
d="M206 725h90l201 -387h-103l-143 281l-143 -281h-103z" />
    <glyph glyph-name="underscore" unicode="_" horiz-adv-x="461" 
d="M19 3h424v-99h-424v99z" />
    <glyph glyph-name="grave" unicode="`" horiz-adv-x="245" 
d="M24 725h134l63 -121h-78z" />
    <glyph glyph-name="a" unicode="a" horiz-adv-x="461" 
d="M174 -13q-66 0 -104.5 40.5t-38.5 106.5v11q0 32 11.5 58t42 49t83 44.5t134.5 44.5v41q0 56 -19.5 77.5t-55.5 21.5q-46 0 -63.5 -28t-17.5 -78v-8h-106v8q0 45 15 78t41 55.5t60.5 33.5t73.5 11q42 0 76 -7.5t59 -28t38 -55.5t13 -89v-36q0 -30 -0.5 -65t-0.5 -65v-35
q0 -60 0.5 -98.5t5.5 -73.5h-104l-3 74q-20 -44 -53.5 -65.5t-86.5 -21.5zM214 61q42 0 67 31t25 106v78q-52 -12 -83 -25.5t-47.5 -28t-21.5 -31.5t-5 -36v-9q0 -38 16 -61.5t49 -23.5z" />
    <glyph glyph-name="b" unicode="b" horiz-adv-x="498" 
d="M164 269q0 -100 23.5 -152t76.5 -52q51 0 66.5 49t15.5 142v27q0 93 -15.5 142t-66.5 49q-53 0 -76.5 -52t-23.5 -153zM464 231q0 -244 -164 -244q-48 0 -83 26.5t-49 64.5v-78h-114v725h114v-264q14 38 49 64.5t83 26.5q164 0 164 -244v-77z" />
    <glyph glyph-name="c" unicode="c" horiz-adv-x="447" 
d="M236 -13q-106 0 -154 61t-48 183v78q0 121 48 182t154 61q39 0 72.5 -10.5t58.5 -33.5t39.5 -59.5t14.5 -88.5v-5h-107v5q0 62 -19.5 88t-58.5 26q-29 0 -45.5 -12.5t-25 -36t-11 -57t-2.5 -76.5v-45q0 -43 2.5 -76.5t11 -57t25 -36t45.5 -12.5q39 0 58.5 26t19.5 89v3
h107v-4q0 -52 -14.5 -88.5t-39.5 -59.5t-58.5 -33.5t-72.5 -10.5z" />
    <glyph glyph-name="d" unicode="d" horiz-adv-x="498" 
d="M34 308q0 244 164 244q48 0 83 -26.5t49 -64.5v264h114v-725h-114v78q-14 -38 -49 -64.5t-83 -26.5q-164 0 -164 244v77zM334 269q0 101 -23.5 153t-76.5 52q-51 0 -66.5 -49t-15.5 -142v-27q0 -93 15.5 -142t66.5 -49q53 0 76.5 52t23.5 152z" />
    <glyph glyph-name="e" unicode="e" horiz-adv-x="468" 
d="M234 -13q-105 0 -152.5 62t-47.5 180v82q0 119 48.5 180t153.5 61q55 0 92.5 -16t61 -48t34 -80.5t10.5 -113.5v-34h-286v-13q0 -43 3 -76.5t12.5 -57t27 -36t45.5 -12.5q39 0 61 23.5t22 83.5v4h107v-5q0 -51 -15 -86t-41 -57t-61 -31.5t-75 -9.5zM148 325h178v8
q0 70 -17.5 106.5t-70.5 36.5q-54 0 -72 -37.5t-18 -106.5v-7z" />
    <glyph glyph-name="f" unicode="f" horiz-adv-x="282" 
d="M71 464h-68v74h68v52q0 42 8.5 68t27.5 41t47.5 20.5t69.5 5.5h56v-71h-34q-19 0 -31 -2.5t-18.5 -9.5t-9 -20t-2.5 -33v-51h95v-74h-95v-464h-114v464z" />
    <glyph glyph-name="g" unicode="g" horiz-adv-x="503" 
d="M241 -188q-90 0 -139 42.5t-49 119.5v3h108v-3q0 -39 20 -61t62 -22q25 0 42 5.5t27.5 20t15.5 39t5 62.5v89q-14 -39 -45 -65.5t-79 -26.5q-81 0 -128 59t-47 177v65q0 121 46.5 178t128.5 57q48 0 79 -27t45 -65v79h116v-500q0 -115 -48.5 -170.5t-159.5 -55.5zM237 96
q57 0 79 45.5t22 136.5q0 98 -22 145t-79 47q-52 0 -68.5 -44t-16.5 -131v-17q0 -43 3.5 -76.5t13 -57t26 -36t42.5 -12.5z" />
    <glyph glyph-name="h" unicode="h" horiz-adv-x="485" 
d="M54 725h114v-266q17 43 51.5 67.5t84.5 24.5q74 0 104 -44.5t30 -142.5v-364h-114v325q0 33 -2 60.5t-9 47t-20 30t-35 10.5q-26 0 -43 -13.5t-27.5 -37.5t-15 -57t-4.5 -72v-293h-114v725z" />
    <glyph glyph-name="i" unicode="i" horiz-adv-x="222" 
d="M54 538h114v-538h-114v538zM54 725h114v-117h-114v117z" />
    <glyph glyph-name="j" unicode="j" horiz-adv-x="222" 
d="M54 725h114v-117h-114v117zM-24 -102h24q19 0 29.5 4t16 13t7 25t1.5 40v558h114v-555q0 -48 -8.5 -78.5t-27 -48.5t-48.5 -24.5t-73 -6.5h-35v73z" />
    <glyph glyph-name="k" unicode="k" horiz-adv-x="435" 
d="M218 230l-50 -72v-158h-114v725h114v-410l153 223h111l-146 -211l157 -327h-114z" />
    <glyph glyph-name="l" unicode="l" horiz-adv-x="222" 
d="M54 725h114v-725h-114v725z" />
    <glyph glyph-name="m" unicode="m" horiz-adv-x="735" 
d="M168 0h-114v538h114v-82q17 43 51 68.5t79 25.5q95 0 121 -100q19 50 56.5 75t82.5 25q70 0 100 -47.5t30 -138.5v-364h-114v325q0 33 -1.5 59.5t-7.5 45t-18.5 28.5t-34.5 10q-45 0 -64.5 -48t-19.5 -127v-293h-114v325q0 33 -1.5 59.5t-7.5 45t-18.5 28.5t-34.5 10
q-45 0 -64.5 -48t-19.5 -127v-293z" />
    <glyph glyph-name="n" unicode="n" horiz-adv-x="485" 
d="M54 538h114v-79q17 43 51.5 67.5t84.5 24.5q74 0 104 -44.5t30 -142.5v-364h-114v325q0 33 -2 60.5t-9 47t-20 30t-35 10.5q-26 0 -43 -13.5t-27.5 -37.5t-15 -57t-4.5 -72v-293h-114v538z" />
    <glyph glyph-name="o" unicode="o" horiz-adv-x="475" 
d="M238 65q28 0 45 12.5t26 36t11.5 58t2.5 78.5v39q0 44 -2.5 78.5t-11.5 58.5t-26 36.5t-45 12.5t-45 -12.5t-26 -36.5t-12 -58.5t-3 -78.5v-39q0 -44 3 -78.5t12 -58t26 -36t45 -12.5zM238 -13q-106 0 -155 61t-49 182v79q0 121 49 182t155 61q104 0 153.5 -61t49.5 -182
v-79q0 -121 -49.5 -182t-153.5 -61z" />
    <glyph glyph-name="p" unicode="p" horiz-adv-x="498" 
d="M464 231q0 -244 -164 -244q-48 0 -83 26.5t-49 64.5v-253h-114v713h114v-77q14 38 49 64.5t83 26.5q164 0 164 -244v-77zM164 270q0 -101 23.5 -153t76.5 -52q51 0 66.5 49t15.5 142v27q0 93 -15.5 142t-66.5 49q-53 0 -76.5 -52t-23.5 -152z" />
    <glyph glyph-name="q" unicode="q" horiz-adv-x="498" 
d="M334 270q0 100 -23.5 152t-76.5 52q-51 0 -66.5 -49t-15.5 -142v-27q0 -93 15.5 -142t66.5 -49q53 0 76.5 52t23.5 153zM34 308q0 244 164 244q48 0 83 -26.5t49 -64.5v77h114v-713h-114v253q-14 -38 -49 -64.5t-83 -26.5q-164 0 -164 244v77z" />
    <glyph glyph-name="r" unicode="r" horiz-adv-x="304" 
d="M54 538h113v-116q5 21 14.5 42t24 37.5t34.5 26.5t47 10h20v-116h-35q-30 0 -50 -7.5t-32 -25t-17 -46t-5 -70.5v-273h-114v538z" />
    <glyph glyph-name="s" unicode="s" horiz-adv-x="438" 
d="M224 -13q-94 0 -145 48t-51 136v3h107v-4q0 -50 22.5 -77.5t66.5 -27.5q36 0 60.5 16t24.5 53q0 34 -16 51.5t-56 33.5l-80 31q-55 21 -88 56.5t-33 98.5q0 39 14 67t38 45.5t57.5 26t72.5 8.5q35 0 68 -9.5t58 -29.5t40 -51.5t15 -75.5v-3h-107v3q0 50 -24 69t-56 19
q-30 0 -52 -15t-22 -47q0 -31 15 -45t44 -26l78 -30q31 -13 56.5 -27t43.5 -33t28 -44.5t10 -61.5q0 -43 -15 -73t-41 -49t-60 -27.5t-73 -8.5z" />
    <glyph glyph-name="t" unicode="t" horiz-adv-x="284" 
d="M192 0q-37 0 -61 7t-38 23t-19.5 42t-5.5 64v328h-68v74h68v140h114v-140h92v-74h-92v-316q0 -24 2.5 -38.5t9 -22.5t18 -10.5t29.5 -2.5h33v-74h-82z" />
    <glyph glyph-name="u" unicode="u" horiz-adv-x="474" 
d="M184 -12q-77 0 -107 48.5t-30 146.5v355h114v-324q0 -32 2 -58.5t8 -46t18.5 -30t33.5 -10.5q47 0 65 49t18 128v292h114v-538h-110v81q-17 -42 -47.5 -67.5t-78.5 -25.5z" />
    <glyph glyph-name="v" unicode="v" horiz-adv-x="413" 
d="M5 538h113l89 -421l93 421h108l-135 -538h-137z" />
    <glyph glyph-name="w" unicode="w" horiz-adv-x="587" 
d="M21 538h98l51 -408l70 408h106l71 -408l51 408h98l-79 -538h-122l-72 432l-72 -432h-122z" />
    <glyph glyph-name="x" unicode="x" horiz-adv-x="412" 
d="M149 274l-143 264h118l85 -157l89 157h109l-144 -256l154 -282h-118l-96 176l-99 -176h-109z" />
    <glyph glyph-name="y" unicode="y" horiz-adv-x="409" 
d="M42 -101h33q36 0 51 14t25 55l7 34l-153 536h112l96 -422l85 422h106l-135 -542q-13 -53 -27 -86.5t-33.5 -52.5t-47.5 -25.5t-70 -6.5h-49v74z" />
    <glyph glyph-name="z" unicode="z" horiz-adv-x="396" 
d="M19 73l232 391h-208v74h328v-73l-232 -391h238v-74h-358v73z" />
    <glyph glyph-name="braceleft" unicode="{" horiz-adv-x="287" 
d="M251 -175q-47 0 -79.5 7t-52.5 24.5t-29.5 47t-9.5 75.5v144q0 23 -2.5 43t-10.5 34t-23 22.5t-39 9.5v85q24 0 39 8.5t23 23t10.5 34t2.5 43.5v144q0 46 9.5 76t29.5 47.5t52.5 24.5t79.5 7h26v-78h-14q-27 0 -43 -4t-25 -13t-12 -23.5t-3 -36.5v-158q0 -35 -6.5 -59
t-17.5 -39.5t-27 -24.5t-35 -14v-2q19 -5 35 -14t27 -25t17.5 -39.5t6.5 -58.5v-154q0 -22 3 -37t12 -24t25 -13t43 -4h14v-79h-26z" />
    <glyph glyph-name="bar" unicode="|" horiz-adv-x="234" 
d="M65 725h104v-815h-104v815z" />
    <glyph glyph-name="braceright" unicode="}" horiz-adv-x="287" 
d="M10 -175v79h14q27 0 43 4t25 13t12 24t3 37v154q0 35 6.5 58.5t17.5 39.5t27 25t35 14v2q-19 5 -35 14t-27 24.5t-17.5 39.5t-6.5 59v158q0 22 -3 36.5t-12 23.5t-25 13t-43 4h-14v78h26q46 0 79 -7t53 -24.5t29.5 -47.5t9.5 -76v-144q0 -24 2.5 -43.5t10.5 -34t23 -23
t39 -8.5v-85q-24 -1 -39 -9.5t-23 -22.5t-10.5 -34t-2.5 -43v-144q0 -46 -9.5 -75.5t-29.5 -47t-53 -24.5t-79 -7h-26z" />
    <glyph glyph-name="asciitilde" unicode="~" 
d="M41 181q4 78 34.5 122t100.5 44q33 0 58 -11t47 -24t42 -24t43 -11q26 0 40.5 16t16.5 54h84q-4 -79 -34.5 -122.5t-100.5 -43.5q-29 0 -53 11t-46 24t-44 24t-47 11q-26 0 -40.5 -16t-16.5 -54h-84z" />
    <glyph glyph-name="uni00A0" unicode="&#xa0;" horiz-adv-x="180" 
 />
    <glyph glyph-name="exclamdown" unicode="&#xa1;" horiz-adv-x="260" 
d="M189 20v-195h-118v195l19 325h80zM66 538h128v-125h-128v125z" />
    <glyph glyph-name="cent" unicode="&#xa2;" horiz-adv-x="452" 
d="M215 -10q-94 6 -137 66.5t-43 176.5v78q0 115 43 175t137 66v70h45v-70q34 -3 63.5 -15.5t51.5 -35.5t34 -57.5t12 -82.5v-4h-107v4q0 63 -19.5 89t-59.5 26q-29 0 -45.5 -12.5t-25 -36t-11 -57t-2.5 -76.5v-45q0 -43 2.5 -76.5t11 -57t25 -36t45.5 -12.5q40 0 59.5 26
t19.5 89v4h107v-5q0 -48 -12 -82.5t-34 -57.5t-51.5 -35.5t-63.5 -15.5v-79h-45v79z" />
    <glyph glyph-name="sterling" unicode="&#xa3;" horiz-adv-x="529" 
d="M37 385h96q-11 21 -21.5 41.5t-19.5 42t-14.5 44.5t-5.5 49q0 46 15 79.5t42 55t64.5 31.5t82.5 10q98 0 150 -53.5t52 -163.5v-4h-108v8q0 73 -23.5 105t-71.5 32q-45 0 -67 -26t-22 -76q0 -48 19.5 -90.5t39.5 -84.5h166v-64h-141q3 -12 5 -24.5t2 -25.5
q0 -58 -27.5 -104t-66.5 -71l1 -1q18 8 34.5 11.5t33.5 1.5q17 -1 32 -6.5t30 -11.5t30.5 -11t33.5 -5q26 1 44 8.5t35 18.5l38 -74q-31 -19 -57.5 -29t-54.5 -10q-26 0 -46 6t-38.5 13.5t-37 13.5t-42.5 6q-27 0 -62 -8.5t-76 -30.5l-40 80q58 31 93.5 76.5t35.5 110.5
q0 17 -2.5 33.5t-7.5 32.5h-123v64z" />
    <glyph glyph-name="currency" unicode="&#xa4;" horiz-adv-x="571" 
d="M25 131l69 70q-23 30 -35.5 66.5t-12.5 76.5q0 41 12.5 77t35.5 66l-69 69l43 41l67 -67q30 25 68 39t80 14q44 0 82 -14.5t69 -39.5l70 68l42 -41l-70 -70q22 -30 34 -66t12 -76t-12 -75.5t-35 -65.5l71 -72l-42 -41l-71 70q-31 -25 -69 -39t-81 -14q-42 0 -79.5 13.5
t-66.5 38.5l-69 -69zM282 194q33 0 60.5 11.5t47.5 32t31 47.5t11 59t-11 60t-31 48.5t-47.5 32.5t-60.5 12q-32 0 -58.5 -12t-45 -32.5t-29 -48.5t-10.5 -60t10.5 -59t29 -47.5t45 -32t58.5 -11.5z" />
    <glyph glyph-name="yen" unicode="&#xa5;" horiz-adv-x="503" 
d="M62 296h131l-188 429h116l131 -326l131 326h116l-190 -429h129v-61h-131v-82h131v-60h-131v-93h-113v93h-132v60h132v82h-132v61z" />
    <glyph glyph-name="brokenbar" unicode="&#xa6;" horiz-adv-x="212" 
d="M54 215h104v-305h-104v305zM54 725h104v-305h-104v305z" />
    <glyph glyph-name="section" unicode="&#xa7;" horiz-adv-x="521" 
d="M259 -180q-41 0 -78.5 10.5t-66.5 32.5t-46.5 57t-17.5 83v2h112v-2q0 -55 29 -80.5t69 -25.5q38 0 66 19t28 61q0 34 -19 56.5t-54 40.5l-119 62q-29 15 -53 31t-41.5 35.5t-27.5 43t-10 55.5q0 50 31.5 85t74.5 58q-32 26 -51.5 59.5t-19.5 81.5q0 38 15 67.5
t41.5 49.5t63.5 30.5t81 10.5q40 0 76 -10.5t63 -32.5t43 -56t16 -80v-3h-111v4q0 48 -25 74.5t-65 26.5q-35 0 -60.5 -18t-25.5 -62q0 -33 16 -56t51 -40l119 -62q29 -16 52.5 -32t40.5 -35t26 -43t9 -55q0 -51 -31 -85.5t-73 -57.5q35 -26 57 -60t22 -82
q0 -38 -15.5 -67.5t-43.5 -49.5t-65.5 -30.5t-82.5 -10.5zM142 310q0 -30 20 -53.5t64 -45.5l88 -47q25 14 44.5 36.5t19.5 52.5q0 31 -17.5 54.5t-62.5 45.5l-90 47q-26 -14 -46 -37t-20 -53z" />
    <glyph glyph-name="dieresis" unicode="&#xa8;" horiz-adv-x="348" 
d="M24 725h101v-114h-101v114zM223 725h101v-114h-101v114z" />
    <glyph glyph-name="copyright" unicode="&#xa9;" horiz-adv-x="831" 
d="M415 39q67 0 124.5 24.5t99.5 68t66 103t24 129.5q0 69 -24 128.5t-66 103t-99.5 68t-124.5 24.5q-66 0 -123.5 -24.5t-99.5 -68t-66 -103t-24 -128.5q0 -70 24 -129.5t66 -103t99.5 -68t123.5 -24.5zM415 -13q-76 0 -143.5 28.5t-118 79t-80 119.5t-29.5 150
q0 80 29.5 148.5t80 118.5t118 78.5t143.5 28.5t144 -28.5t118.5 -78.5t80 -118.5t29.5 -148.5q0 -81 -29.5 -150t-80 -119.5t-118.5 -79t-144 -28.5zM417 154q-41 0 -68.5 11t-44 33.5t-23.5 56.5t-7 80v58q0 46 7 80.5t23.5 57t44 33.5t68.5 11q66 0 98.5 -33t32.5 -106
v-6h-89v5q0 25 -2.5 40.5t-8 23.5t-13.5 11t-19 3q-17 0 -26.5 -9.5t-14 -26.5t-5 -42.5t-0.5 -56.5v-27q0 -32 0.5 -57.5t5 -43t14 -26.5t26.5 -9q11 0 19 3t13.5 11t8 23.5t2.5 40.5v4h89v-4q0 -74 -32.5 -106.5t-98.5 -32.5z" />
    <glyph glyph-name="ordfeminine" unicode="&#xaa;" horiz-adv-x="266" 
d="M95 430q-38 0 -59.5 24t-21.5 63v7q0 34 24 56q12 11 31.5 20t45.5 17l50 18v25q0 22 -8.5 32.5t-29.5 10.5q-22 0 -31.5 -11t-9.5 -37v-6h-67v6q0 48 29 71t80 23q25 0 46 -3.5t35 -15t22 -31.5t8 -53v-19q0 -17 -0.5 -37t-0.5 -37v-17q0 -32 0.5 -55t3.5 -43h-68l-1 38
q-22 -46 -78 -46zM123 477q21 0 32.5 16.5t11.5 54.5v45l-34 -14q-24 -8 -34 -19.5t-10 -31.5v-7q0 -20 7.5 -32t26.5 -12z" />
    <glyph glyph-name="guillemotleft" unicode="&#xab;" horiz-adv-x="363" 
d="M30 212v135l139 147v-132l-80 -83l80 -82v-132zM194 212v135l139 147v-132l-80 -83l80 -82v-132z" />
    <glyph glyph-name="logicalnot" unicode="&#xac;" 
d="M414 345h-412v90h504v-353h-92v263z" />
    <glyph glyph-name="uni00AD" unicode="&#xad;" horiz-adv-x="349" 
d="M50 310h249v-94h-249v94z" />
    <glyph glyph-name="registered" unicode="&#xae;" horiz-adv-x="831" 
d="M415 -13q-76 0 -143.5 28.5t-118 79t-80 119.5t-29.5 150q0 80 29.5 148.5t80 118.5t118 78.5t143.5 28.5t144 -28.5t118.5 -78.5t80 -118.5t29.5 -148.5q0 -81 -29.5 -150t-80 -119.5t-118.5 -79t-144 -28.5zM415 39q67 0 124.5 24.5t99.5 68t66 103t24 129.5
q0 69 -24 128.5t-66 103t-99.5 68t-124.5 24.5q-66 0 -123.5 -24.5t-99.5 -68t-66 -103t-24 -128.5q0 -70 24 -129.5t66 -103t99.5 -68t123.5 -24.5zM291 164v407h111q39 0 67.5 -5.5t47.5 -19t28 -36t9 -58.5q0 -42 -17 -65t-40 -34l67 -189h-82l-53 174h-5q-7 -1 -15 -1
h-33v-173h-85zM376 392h25q35 0 47 12.5t12 47.5t-12 46t-48 11h-24v-117z" />
    <glyph glyph-name="macron" unicode="&#xaf;" horiz-adv-x="287" 
d="M24 703h239v-77h-239v77z" />
    <glyph glyph-name="degree" unicode="&#xb0;" horiz-adv-x="336" 
d="M167 496q38 0 61 25t23 63t-23 63t-61 25q-36 0 -59 -25t-23 -63t23 -63t59 -25zM167 429q-32 0 -60 12t-48.5 33t-32.5 49.5t-12 60.5t12 60t32.5 49t48.5 33t60 12t60.5 -12t49.5 -33t33 -49t12 -60t-12 -60.5t-33 -49.5t-49.5 -33t-60.5 -12z" />
    <glyph glyph-name="plusminus" unicode="&#xb1;" 
d="M228 291h-193v89h193v151h92v-151h194v-89h-194v-152h-92v152zM35 89h479v-89h-479v89z" />
    <glyph glyph-name="uni00B2" unicode="&#xb2;" horiz-adv-x="284" 
d="M24 493l45 57q56 70 87 116t31 84q0 53 -45 53q-23 0 -33 -18.5t-10 -58.5v-4h-72v4q0 63 29 95t91 32q55 0 85 -25t30 -74q0 -47 -31.5 -96.5t-81.5 -113.5l-38 -49h152v-57h-239v55z" />
    <glyph glyph-name="uni00B3" unicode="&#xb3;" horiz-adv-x="289" 
d="M137 428q-53 0 -85 27t-32 90v2h70v-2q0 -32 10.5 -49.5t37.5 -17.5q34 0 44.5 21t10.5 51q0 31 -13 51t-54 20h-23v52h22q32 0 43.5 17t11.5 48q0 29 -9.5 46.5t-36.5 17.5q-23 0 -32 -14.5t-9 -49.5v-2h-71v2q0 62 32.5 87.5t83.5 25.5q25 0 46.5 -5t37.5 -17t25 -32.5
t9 -51.5q0 -41 -18.5 -63t-41.5 -29q35 -10 54.5 -35t19.5 -68q0 -66 -35 -94t-98 -28z" />
    <glyph glyph-name="acute" unicode="&#xb4;" horiz-adv-x="245" 
d="M88 725h133l-120 -121h-77z" />
    <glyph glyph-name="mu" unicode="&#xb5;" horiz-adv-x="481" 
d="M169 -11q0 -55 -2.5 -92t-7.5 -72h-115q5 35 7.5 71.5t2.5 85.5v556h115v-370q2 -45 14.5 -72t46.5 -27q47 0 65 49t18 128v292h114v-538h-110v81q-17 -42 -47.5 -67.5t-78.5 -25.5h-12q-5 0 -10 1z" />
    <glyph glyph-name="mu" unicode="&#x3bc;" horiz-adv-x="481" 
d="M169 -11q0 -55 -2.5 -92t-7.5 -72h-115q5 35 7.5 71.5t2.5 85.5v556h115v-370q2 -45 14.5 -72t46.5 -27q47 0 65 49t18 128v292h114v-538h-110v81q-17 -42 -47.5 -67.5t-78.5 -25.5h-12q-5 0 -10 1z" />
    <glyph glyph-name="paragraph" unicode="&#xb6;" horiz-adv-x="470" 
d="M172 378q-30 0 -60.5 9.5t-55.5 30t-40.5 53t-15.5 79.5t16 80t45.5 54t71 31t92.5 10h174v-814h-67v751h-91v-751h-69v467z" />
    <glyph glyph-name="periodcentered" unicode="&#xb7;" horiz-adv-x="236" 
d="M54 331h128v-125h-128v125z" />
    <glyph glyph-name="cedilla" unicode="&#xb8;" horiz-adv-x="251" 
d="M110 -190q-23 0 -44.5 3t-41.5 11l14 43q11 -5 27.5 -9t32.5 -4q21 0 38 7.5t17 26.5q0 16 -12 23.5t-30 7.5q-11 0 -22 -2t-19 -7l-24 17l49 80h49l-33 -53q8 2 16 3t19 1q31 -1 56 -17.5t25 -49.5q0 -21 -10 -36.5t-26.5 -25t-37.5 -14.5t-43 -5z" />
    <glyph glyph-name="uni00B9" unicode="&#xb9;" horiz-adv-x="185" 
d="M73 747h-71v47q24 1 39 2t23.5 6t13 15.5t8.5 28.5h59v-408h-72v309z" />
    <glyph glyph-name="ordmasculine" unicode="&#xba;" horiz-adv-x="275" 
d="M138 479q28 0 34.5 25.5t6.5 72.5v25q0 46 -6.5 71.5t-34.5 25.5q-29 0 -35.5 -25.5t-6.5 -71.5v-25q0 -47 6.5 -72.5t35.5 -25.5zM138 430q-120 0 -120 138v44q0 137 120 137q61 0 89.5 -34.5t28.5 -102.5v-44q0 -69 -28.5 -103.5t-89.5 -34.5z" />
    <glyph glyph-name="guillemotright" unicode="&#xbb;" horiz-adv-x="363" 
d="M30 197l79 82l-79 83v132l139 -147v-135l-139 -147v132zM194 197l79 82l-79 83v132l139 -147v-135l-139 -147v132z" />
    <glyph glyph-name="onequarter" unicode="&#xbc;" horiz-adv-x="653" 
d="M73 626h-71v48q24 0 39 1.5t23.5 6.5t13 15t8.5 28h59v-408h-72v309zM358 725h55l-231 -725h-55zM520 100h-154v53l151 255h72v-249h49v-59h-49v-100h-69v100zM520 159v156l-97 -156h97z" />
    <glyph glyph-name="onehalf" unicode="&#xbd;" horiz-adv-x="639" 
d="M73 626h-71v48q24 0 39 1.5t23.5 6.5t13 15t8.5 28h59v-408h-72v309zM358 725h55l-231 -725h-55zM379 55l45 57q56 70 87 116t31 84q0 53 -45 53q-23 0 -33 -18.5t-10 -57.5v-5h-73v5q0 62 29.5 94t91.5 32q55 0 85 -25t30 -74q0 -47 -31.5 -96.5t-81.5 -113.5l-38 -49
h152v-57h-239v55z" />
    <glyph glyph-name="threequarters" unicode="&#xbe;" horiz-adv-x="762" 
d="M137 309q-53 0 -85 26.5t-32 89.5v2h70v-2q0 -31 10.5 -49t37.5 -18q34 0 44.5 21t10.5 51q0 31 -13 51.5t-54 20.5h-23v51h22q32 0 43.5 17t11.5 48q0 30 -9.5 47t-36.5 17q-23 0 -32 -14t-9 -49v-2h-71v2q0 61 32.5 87t83.5 26q25 0 46.5 -5t37.5 -17.5t25 -33t9 -51.5
q0 -41 -18.5 -63t-41.5 -29q35 -10 54.5 -35t19.5 -68q0 -66 -35 -93.5t-98 -27.5zM467 725h55l-231 -725h-55zM629 100h-154v53l151 255h72v-249h49v-59h-49v-100h-69v100zM629 159v156l-97 -156h97z" />
    <glyph glyph-name="questiondown" unicode="&#xbf;" horiz-adv-x="467" 
d="M235 -188q-42 0 -79.5 9t-65 30t-43.5 55t-16 85q0 34 8.5 61t22 48.5t30 38t32.5 30.5q21 18 36.5 31t26.5 27t16.5 32t5.5 47v35h108v-37q0 -37 -7.5 -62t-21 -45t-32 -37t-41.5 -37q-33 -29 -50.5 -57t-17.5 -74q0 -57 24 -80t66 -23q48 0 71.5 32t23.5 106v4h107v-4
q0 -108 -53.5 -161.5t-150.5 -53.5zM199 538h128v-125h-128v125z" />
    <glyph glyph-name="Agrave" unicode="&#xc0;" horiz-adv-x="537" 
d="M196 725h143l190 -725h-122l-39 167h-206l-39 -167h-115zM180 247h169l-84 363zM111 886h144l64 -113h-91z" />
    <glyph glyph-name="Aacute" unicode="&#xc1;" horiz-adv-x="537" 
d="M196 725h143l190 -725h-122l-39 167h-206l-39 -167h-115zM180 247h169l-84 363zM276 886h145l-117 -113h-91z" />
    <glyph glyph-name="Acircumflex" unicode="&#xc2;" horiz-adv-x="537" 
d="M196 725h143l190 -725h-122l-39 167h-206l-39 -167h-115zM180 247h169l-84 363zM213 886h108l114 -113h-103l-65 60l-66 -60h-102z" />
    <glyph glyph-name="Atilde" unicode="&#xc3;" horiz-adv-x="537" 
d="M196 725h143l190 -725h-122l-39 167h-206l-39 -167h-115zM180 247h169l-84 363zM113 773q3 33 12.5 55t23 34.5t29.5 18t33 5.5q18 0 35.5 -7t33 -16t29 -16t24.5 -7q23 0 24 46h67q-3 -34 -12.5 -56t-23.5 -34.5t-30 -17.5t-31 -5q-17 0 -33 7t-31.5 15t-29 15t-25.5 7
q-25 0 -28 -44h-67z" />
    <glyph glyph-name="Adieresis" unicode="&#xc4;" horiz-adv-x="537" 
d="M196 725h143l190 -725h-122l-39 167h-206l-39 -167h-115zM180 247h169l-84 363zM119 884h102v-108h-102v108zM317 884h102v-108h-102v108z" />
    <glyph glyph-name="Aring" unicode="&#xc5;" horiz-adv-x="537" 
d="M196 725h143l190 -725h-122l-39 167h-206l-39 -167h-115zM180 247h169l-84 363zM268 805q19 0 33.5 12t14.5 33t-14.5 33.5t-33.5 12.5t-32.5 -12.5t-13.5 -33.5t13.5 -33t32.5 -12zM268 766q-37 0 -62.5 23.5t-25.5 60.5t26 60.5t62 23.5q37 0 63 -23.5t26 -60.5
t-25.5 -60.5t-63.5 -23.5z" />
    <glyph glyph-name="AE" unicode="&#xc6;" horiz-adv-x="791" 
d="M397 725h373v-90h-255v-218h232v-89h-232v-238h255v-90h-373v164h-189l-82 -164h-126zM253 255h144v287z" />
    <glyph glyph-name="Ccedilla" unicode="&#xc7;" horiz-adv-x="534" 
d="M505 217q0 -111 -55.5 -170.5t-166.5 -59.5q-67 0 -113.5 19.5t-75.5 60t-42 102.5t-13 146v95q0 84 13 146t42 102.5t75.5 60t113.5 19.5q111 0 166.5 -59.5t55.5 -170.5v-18h-118v18q0 79 -24.5 112.5t-79.5 33.5q-39 0 -62.5 -18t-36 -52.5t-16.5 -85t-4 -114.5v-43
q0 -64 4 -114.5t16.5 -85t36 -52.5t62.5 -18q55 0 79.5 33.5t24.5 112.5v19h118v-19zM282 -190q-21 0 -43 3t-42 11l14 43q11 -5 27.5 -9t32.5 -4q21 0 38 7.5t17 26.5q0 16 -12 23.5t-30 7.5q-11 0 -22 -2t-19 -7l-24 17l49 80h49l-33 -53q8 2 16 3t19 1q32 -1 56.5 -17.5
t24.5 -49.5q0 -21 -10 -36.5t-26.5 -25t-38 -14.5t-43.5 -5z" />
    <glyph glyph-name="Egrave" unicode="&#xc8;" horiz-adv-x="466" 
d="M109 886h144l64 -113h-91zM65 725h380v-90h-261v-217h238v-90h-238v-238h261v-90h-380v725z" />
    <glyph glyph-name="Eacute" unicode="&#xc9;" horiz-adv-x="466" 
d="M65 725h380v-90h-261v-217h238v-90h-238v-238h261v-90h-380v725zM258 886h145l-117 -113h-91z" />
    <glyph glyph-name="Ecircumflex" unicode="&#xca;" horiz-adv-x="466" 
d="M65 725h380v-90h-261v-217h238v-90h-238v-238h261v-90h-380v725zM201 886h108l114 -113h-103l-65 60l-66 -60h-102z" />
    <glyph glyph-name="Edieresis" unicode="&#xcb;" horiz-adv-x="466" 
d="M65 725h380v-90h-261v-217h238v-90h-238v-238h261v-90h-380v725zM106 884h102v-108h-102v108zM304 884h102v-108h-102v108z" />
    <glyph glyph-name="Igrave" unicode="&#xcc;" horiz-adv-x="249" 
d="M65 725h119v-725h-119v725zM-35 886h144l64 -113h-91z" />
    <glyph glyph-name="Iacute" unicode="&#xcd;" horiz-adv-x="249" 
d="M65 725h119v-725h-119v725zM141 886h145l-117 -113h-91z" />
    <glyph glyph-name="Icircumflex" unicode="&#xce;" horiz-adv-x="249" 
d="M71 887h108l100 -113h-103l-51 60l-51 -60h-103zM65 725h119v-725h-119v725z" />
    <glyph glyph-name="Idieresis" unicode="&#xcf;" horiz-adv-x="249" 
d="M-9 884h102v-107h-102v107zM156 884h103v-107h-103v107zM65 725h119v-725h-119v725z" />
    <glyph glyph-name="Eth" unicode="&#xd0;" horiz-adv-x="559" 
d="M0 413h65v312h166q70 0 124 -14.5t91 -51t55.5 -99t18.5 -159.5v-81q0 -95 -18.5 -157t-55.5 -98t-91 -50.5t-124 -14.5h-166v322h-65v91zM236 82q46 0 77 11.5t49 40.5t25.5 79.5t7.5 128.5v42q0 78 -7.5 128t-25.5 79.5t-49 41t-77 11.5h-52v-231h130v-91h-130v-240h52
z" />
    <glyph glyph-name="Ntilde" unicode="&#xd1;" horiz-adv-x="586" 
d="M65 725h141l207 -571v571h108v-725h-141l-207 571v-571h-108v725zM142 773q3 33 12.5 55t23 34.5t29.5 18t33 5.5q18 0 35.5 -7t33 -16t29 -16t24.5 -7q23 0 24 46h67q-3 -34 -12.5 -56t-23.5 -34.5t-30 -17.5t-31 -5q-17 0 -33 7t-31.5 15t-29 15t-25.5 7q-25 0 -28 -44
h-67z" />
    <glyph glyph-name="Ograve" unicode="&#xd2;" horiz-adv-x="568" 
d="M135 886h144l64 -113h-91zM284 72q39 0 62.5 18t36.5 52.5t17 85t4 114.5v42q0 64 -4 114.5t-17 85t-36.5 52.5t-62.5 18t-62.5 -18t-36.5 -52.5t-17 -85t-4 -114.5v-42q0 -64 4 -114.5t17 -85t36.5 -52.5t62.5 -18zM284 -13q-67 0 -113.5 20t-76 60.5t-42.5 102.5
t-13 146v94q0 84 13 146t42.5 102.5t76 60t113.5 19.5q66 0 113 -19.5t76 -60t42.5 -102.5t13.5 -146v-94q0 -84 -13.5 -146t-42.5 -102.5t-76 -60.5t-113 -20z" />
    <glyph glyph-name="Oacute" unicode="&#xd3;" horiz-adv-x="568" 
d="M284 72q39 0 62.5 18t36.5 52.5t17 85t4 114.5v42q0 64 -4 114.5t-17 85t-36.5 52.5t-62.5 18t-62.5 -18t-36.5 -52.5t-17 -85t-4 -114.5v-42q0 -64 4 -114.5t17 -85t36.5 -52.5t62.5 -18zM284 -13q-67 0 -113.5 20t-76 60.5t-42.5 102.5t-13 146v94q0 84 13 146
t42.5 102.5t76 60t113.5 19.5q66 0 113 -19.5t76 -60t42.5 -102.5t13.5 -146v-94q0 -84 -13.5 -146t-42.5 -102.5t-76 -60.5t-113 -20zM297 886h145l-117 -113h-91z" />
    <glyph glyph-name="Ocircumflex" unicode="&#xd4;" horiz-adv-x="568" 
d="M233 886h108l114 -113h-103l-65 60l-66 -60h-102zM284 72q39 0 62.5 18t36.5 52.5t17 85t4 114.5v42q0 64 -4 114.5t-17 85t-36.5 52.5t-62.5 18t-62.5 -18t-36.5 -52.5t-17 -85t-4 -114.5v-42q0 -64 4 -114.5t17 -85t36.5 -52.5t62.5 -18zM284 -13q-67 0 -113.5 20
t-76 60.5t-42.5 102.5t-13 146v94q0 84 13 146t42.5 102.5t76 60t113.5 19.5q66 0 113 -19.5t76 -60t42.5 -102.5t13.5 -146v-94q0 -84 -13.5 -146t-42.5 -102.5t-76 -60.5t-113 -20z" />
    <glyph glyph-name="Otilde" unicode="&#xd5;" horiz-adv-x="568" 
d="M128 773q3 33 12.5 55t23 34.5t29.5 18t33 5.5q18 0 35.5 -7t33 -16t29 -16t24.5 -7q23 0 24 46h67q-3 -34 -12.5 -56t-23.5 -34.5t-30 -17.5t-31 -5q-17 0 -33 7t-31.5 15t-29 15t-25.5 7q-25 0 -28 -44h-67zM284 72q39 0 62.5 18t36.5 52.5t17 85t4 114.5v42
q0 64 -4 114.5t-17 85t-36.5 52.5t-62.5 18t-62.5 -18t-36.5 -52.5t-17 -85t-4 -114.5v-42q0 -64 4 -114.5t17 -85t36.5 -52.5t62.5 -18zM284 -13q-67 0 -113.5 20t-76 60.5t-42.5 102.5t-13 146v94q0 84 13 146t42.5 102.5t76 60t113.5 19.5q66 0 113 -19.5t76 -60
t42.5 -102.5t13.5 -146v-94q0 -84 -13.5 -146t-42.5 -102.5t-76 -60.5t-113 -20z" />
    <glyph glyph-name="Odieresis" unicode="&#xd6;" horiz-adv-x="568" 
d="M138 884h102v-108h-102v108zM336 884h102v-108h-102v108zM284 72q39 0 62.5 18t36.5 52.5t17 85t4 114.5v42q0 64 -4 114.5t-17 85t-36.5 52.5t-62.5 18t-62.5 -18t-36.5 -52.5t-17 -85t-4 -114.5v-42q0 -64 4 -114.5t17 -85t36.5 -52.5t62.5 -18zM284 -13
q-67 0 -113.5 20t-76 60.5t-42.5 102.5t-13 146v94q0 84 13 146t42.5 102.5t76 60t113.5 19.5q66 0 113 -19.5t76 -60t42.5 -102.5t13.5 -146v-94q0 -84 -13.5 -146t-42.5 -102.5t-76 -60.5t-113 -20z" />
    <glyph glyph-name="multiply" unicode="&#xd7;" 
d="M52 99l160 167l-161 169l64 64l159 -168l160 167l64 -64l-161 -168l161 -169l-64 -63l-160 167l-159 -167z" />
    <glyph glyph-name="Oslash" unicode="&#xd8;" horiz-adv-x="568" 
d="M60 -65l50 113q-38 40 -54.5 106t-16.5 162v94q0 84 13 146t42.5 102.5t76 60t113.5 19.5q72 0 122 -24l34 76h51l-46 -102q45 -38 64.5 -106.5t19.5 -171.5v-94q0 -84 -13.5 -146t-42.5 -102.5t-76 -60.5t-113 -20q-85 0 -137 31l-37 -83h-50zM284 72q39 0 62.5 18
t36.5 52.5t17 85t4 114.5v42q0 55 -3 99.5t-12 78.5l-196 -439q27 -51 91 -51zM164 342q0 -46 2 -84t7 -69l191 430q-27 35 -80 35q-39 0 -62.5 -18t-36.5 -52.5t-17 -85t-4 -114.5v-42z" />
    <glyph glyph-name="Ugrave" unicode="&#xd9;" horiz-adv-x="558" 
d="M129 886h144l64 -113h-91zM279 -13q-69 0 -112.5 14t-68.5 48t-34 89t-9 138v449h119v-459q0 -50 3.5 -86.5t15 -60.5t32 -35.5t54.5 -11.5t54.5 11.5t32 35.5t15 60.5t3.5 86.5v459h119v-449q0 -83 -9 -138t-33.5 -89t-68.5 -48t-113 -14z" />
    <glyph glyph-name="Uacute" unicode="&#xda;" horiz-adv-x="558" 
d="M279 -13q-69 0 -112.5 14t-68.5 48t-34 89t-9 138v449h119v-459q0 -50 3.5 -86.5t15 -60.5t32 -35.5t54.5 -11.5t54.5 11.5t32 35.5t15 60.5t3.5 86.5v459h119v-449q0 -83 -9 -138t-33.5 -89t-68.5 -48t-113 -14zM286 886h145l-117 -113h-91z" />
    <glyph glyph-name="Ucircumflex" unicode="&#xdb;" horiz-adv-x="558" 
d="M279 -13q-69 0 -112.5 14t-68.5 48t-34 89t-9 138v449h119v-459q0 -50 3.5 -86.5t15 -60.5t32 -35.5t54.5 -11.5t54.5 11.5t32 35.5t15 60.5t3.5 86.5v459h119v-449q0 -83 -9 -138t-33.5 -89t-68.5 -48t-113 -14zM226 886h108l114 -113h-103l-65 60l-66 -60h-102z" />
    <glyph glyph-name="Udieresis" unicode="&#xdc;" horiz-adv-x="558" 
d="M279 -13q-69 0 -112.5 14t-68.5 48t-34 89t-9 138v449h119v-459q0 -50 3.5 -86.5t15 -60.5t32 -35.5t54.5 -11.5t54.5 11.5t32 35.5t15 60.5t3.5 86.5v459h119v-449q0 -83 -9 -138t-33.5 -89t-68.5 -48t-113 -14zM129 884h102v-108h-102v108zM327 884h102v-108h-102v108z
" />
    <glyph glyph-name="Yacute" unicode="&#xdd;" horiz-adv-x="504" 
d="M191 294l-186 431h119l128 -325l129 325h118l-189 -433v-292h-119v294zM260 886h145l-117 -113h-91z" />
    <glyph glyph-name="Thorn" unicode="&#xde;" horiz-adv-x="503" 
d="M65 725h119v-146h61q60 0 108 -8t81.5 -31t51 -64.5t17.5 -108.5t-17.5 -109.5t-51 -66.5t-81.5 -32.5t-108 -8.5h-61v-150h-119v725zM233 233q39 0 66.5 4.5t45 19t25 40.5t7.5 68t-7.5 68.5t-25 40.5t-45 19t-66.5 5h-49v-265h49z" />
    <glyph glyph-name="germandbls" unicode="&#xdf;" horiz-adv-x="517" 
d="M54 526q0 61 14.5 101.5t41.5 65t65 35t85 10.5q42 0 78.5 -9.5t62.5 -30.5t41 -53.5t15 -78.5q0 -66 -29 -105.5t-71 -51.5q26 -6 49 -19.5t40 -36.5t27 -56t10 -79q0 -117 -50.5 -167.5t-161.5 -50.5h-48v74h37q60 0 84.5 38t24.5 106q0 72 -28.5 108.5t-92.5 36.5h-28
v76h23q50 0 75.5 26t25.5 89q0 51 -21.5 79t-65.5 28q-48 0 -68.5 -29.5t-20.5 -99.5v-532h-114v526z" />
    <glyph glyph-name="agrave" unicode="&#xe0;" horiz-adv-x="461" 
d="M174 -13q-66 0 -104.5 40.5t-38.5 106.5v11q0 32 11.5 58t42 49t83 44.5t134.5 44.5v41q0 56 -19.5 77.5t-55.5 21.5q-46 0 -63.5 -28t-17.5 -78v-8h-106v8q0 45 15 78t41 55.5t60.5 33.5t73.5 11q42 0 76 -7.5t59 -28t38 -55.5t13 -89v-36q0 -30 -0.5 -65t-0.5 -65v-35
q0 -60 0.5 -98.5t5.5 -73.5h-104l-3 74q-20 -44 -53.5 -65.5t-86.5 -21.5zM214 61q42 0 67 31t25 106v78q-52 -12 -83 -25.5t-47.5 -28t-21.5 -31.5t-5 -36v-9q0 -38 16 -61.5t49 -23.5zM83 725h134l63 -121h-78z" />
    <glyph glyph-name="aacute" unicode="&#xe1;" horiz-adv-x="461" 
d="M174 -13q-66 0 -104.5 40.5t-38.5 106.5v11q0 32 11.5 58t42 49t83 44.5t134.5 44.5v41q0 56 -19.5 77.5t-55.5 21.5q-46 0 -63.5 -28t-17.5 -78v-8h-106v8q0 45 15 78t41 55.5t60.5 33.5t73.5 11q42 0 76 -7.5t59 -28t38 -55.5t13 -89v-36q0 -30 -0.5 -65t-0.5 -65v-35
q0 -60 0.5 -98.5t5.5 -73.5h-104l-3 74q-20 -44 -53.5 -65.5t-86.5 -21.5zM214 61q42 0 67 31t25 106v78q-52 -12 -83 -25.5t-47.5 -28t-21.5 -31.5t-5 -36v-9q0 -38 16 -61.5t49 -23.5zM248 725h133l-120 -121h-77z" />
    <glyph glyph-name="acircumflex" unicode="&#xe2;" horiz-adv-x="461" 
d="M174 -13q-66 0 -104.5 40.5t-38.5 106.5v11q0 32 11.5 58t42 49t83 44.5t134.5 44.5v41q0 56 -19.5 77.5t-55.5 21.5q-46 0 -63.5 -28t-17.5 -78v-8h-106v8q0 45 15 78t41 55.5t60.5 33.5t73.5 11q42 0 76 -7.5t59 -28t38 -55.5t13 -89v-36q0 -30 -0.5 -65t-0.5 -65v-35
q0 -60 0.5 -98.5t5.5 -73.5h-104l-3 74q-20 -44 -53.5 -65.5t-86.5 -21.5zM214 61q42 0 67 31t25 106v78q-52 -12 -83 -25.5t-47.5 -28t-21.5 -31.5t-5 -36v-9q0 -38 16 -61.5t49 -23.5zM178 725h99l114 -121h-93l-70 63l-70 -63h-94z" />
    <glyph glyph-name="atilde" unicode="&#xe3;" horiz-adv-x="461" 
d="M174 -13q-66 0 -104.5 40.5t-38.5 106.5v11q0 32 11.5 58t42 49t83 44.5t134.5 44.5v41q0 56 -19.5 77.5t-55.5 21.5q-46 0 -63.5 -28t-17.5 -78v-8h-106v8q0 45 15 78t41 55.5t60.5 33.5t73.5 11q42 0 76 -7.5t59 -28t38 -55.5t13 -89v-36q0 -30 -0.5 -65t-0.5 -65v-35
q0 -60 0.5 -98.5t5.5 -73.5h-104l-3 74q-20 -44 -53.5 -65.5t-86.5 -21.5zM214 61q42 0 67 31t25 106v78q-52 -12 -83 -25.5t-47.5 -28t-21.5 -31.5t-5 -36v-9q0 -38 16 -61.5t49 -23.5zM79 611q4 32 13.5 53.5t22.5 35t28.5 19.5t31.5 6q17 0 32 -6.5t28.5 -14.5t25 -14.5
t21.5 -6.5q25 0 34 42h66q-3 -31 -13 -53t-23.5 -35.5t-28.5 -19.5t-29 -6q-16 0 -31 6.5t-28.5 15t-26 15t-23.5 6.5q-24 0 -33 -43h-67z" />
    <glyph glyph-name="adieresis" unicode="&#xe4;" horiz-adv-x="461" 
d="M174 -13q-66 0 -104.5 40.5t-38.5 106.5v11q0 32 11.5 58t42 49t83 44.5t134.5 44.5v41q0 56 -19.5 77.5t-55.5 21.5q-46 0 -63.5 -28t-17.5 -78v-8h-106v8q0 45 15 78t41 55.5t60.5 33.5t73.5 11q42 0 76 -7.5t59 -28t38 -55.5t13 -89v-36q0 -30 -0.5 -65t-0.5 -65v-35
q0 -60 0.5 -98.5t5.5 -73.5h-104l-3 74q-20 -44 -53.5 -65.5t-86.5 -21.5zM214 61q42 0 67 31t25 106v78q-52 -12 -83 -25.5t-47.5 -28t-21.5 -31.5t-5 -36v-9q0 -38 16 -61.5t49 -23.5zM77 728h101v-114h-101v114zM276 728h101v-114h-101v114z" />
    <glyph glyph-name="aring" unicode="&#xe5;" horiz-adv-x="461" 
d="M174 -13q-66 0 -104.5 40.5t-38.5 106.5v11q0 32 11.5 58t42 49t83 44.5t134.5 44.5v41q0 56 -19.5 77.5t-55.5 21.5q-46 0 -63.5 -28t-17.5 -78v-8h-106v8q0 45 15 78t41 55.5t60.5 33.5t73.5 11q42 0 76 -7.5t59 -28t38 -55.5t13 -89v-36q0 -30 -0.5 -65t-0.5 -65v-35
q0 -60 0.5 -98.5t5.5 -73.5h-104l-3 74q-20 -44 -53.5 -65.5t-86.5 -21.5zM214 61q42 0 67 31t25 106v78q-52 -12 -83 -25.5t-47.5 -28t-21.5 -31.5t-5 -36v-9q0 -38 16 -61.5t49 -23.5zM226 632q19 0 32.5 13t13.5 33t-13.5 32.5t-32.5 12.5q-18 0 -31.5 -12.5t-13.5 -32.5
t13.5 -33t31.5 -13zM226 591q-38 0 -64.5 24.5t-26.5 62.5t26.5 62.5t64.5 24.5q19 0 36 -6.5t29.5 -18t19.5 -27.5t7 -35q0 -38 -26.5 -62.5t-65.5 -24.5z" />
    <glyph glyph-name="ae" unicode="&#xe6;" horiz-adv-x="728" 
d="M169 -13q-68 0 -106 38.5t-38 108.5v11q0 32 10 56t31 43.5t53 35.5t76 31l102 35v50q0 46 -19.5 65.5t-58.5 19.5q-43 0 -59.5 -26.5t-16.5 -76.5v-8h-107v8q0 45 14 78t38.5 54.5t58 32t73.5 10.5q49 0 86 -10t60 -38q49 47 132 47q55 0 92.5 -16t61 -48t34 -80.5
t10.5 -113.5v-34h-286v-13q0 -43 3 -76.5t12.5 -57t27 -36t45.5 -12.5q39 0 61 23.5t22 83.5v4h107v-5q0 -51 -15 -86t-41 -57t-61 -31.5t-75 -9.5q-66 0 -107 24t-62 71q-27 -55 -68.5 -75t-89.5 -20zM209 61q42 0 67 31t25 106v85l-71 -25q-50 -17 -68 -40.5t-18 -62.5v-9
q0 -38 15 -61.5t50 -23.5zM410 325h178v8q0 70 -17.5 106.5t-70.5 36.5q-54 0 -72 -37.5t-18 -106.5v-7z" />
    <glyph glyph-name="ccedilla" unicode="&#xe7;" horiz-adv-x="447" 
d="M236 -13q-106 0 -154 61t-48 183v78q0 121 48 182t154 61q39 0 72.5 -10.5t58.5 -33.5t39.5 -59.5t14.5 -88.5v-5h-107v5q0 62 -19.5 88t-58.5 26q-29 0 -45.5 -12.5t-25 -36t-11 -57t-2.5 -76.5v-45q0 -43 2.5 -76.5t11 -57t25 -36t45.5 -12.5q39 0 58.5 26t19.5 89v3
h107v-4q0 -52 -14.5 -88.5t-39.5 -59.5t-58.5 -33.5t-72.5 -10.5zM217 -190q-23 0 -44.5 3t-41.5 11l14 43q11 -5 27.5 -9t32.5 -4q21 0 38 7.5t17 26.5q0 16 -12 23.5t-30 7.5q-11 0 -22 -2t-19 -7l-24 17l49 80h49l-33 -53q8 2 16 3t19 1q31 -1 56 -17.5t25 -49.5
q0 -21 -10 -36.5t-26.5 -25t-37.5 -14.5t-43 -5z" />
    <glyph glyph-name="egrave" unicode="&#xe8;" horiz-adv-x="468" 
d="M234 -13q-105 0 -152.5 62t-47.5 180v82q0 119 48.5 180t153.5 61q55 0 92.5 -16t61 -48t34 -80.5t10.5 -113.5v-34h-286v-13q0 -43 3 -76.5t12.5 -57t27 -36t45.5 -12.5q39 0 61 23.5t22 83.5v4h107v-5q0 -51 -15 -86t-41 -57t-61 -31.5t-75 -9.5zM148 325h178v8
q0 70 -17.5 106.5t-70.5 36.5q-54 0 -72 -37.5t-18 -106.5v-7zM104 725h134l63 -121h-78z" />
    <glyph glyph-name="eacute" unicode="&#xe9;" horiz-adv-x="468" 
d="M250 725h133l-120 -121h-77zM234 -13q-105 0 -152.5 62t-47.5 180v82q0 119 48.5 180t153.5 61q55 0 92.5 -16t61 -48t34 -80.5t10.5 -113.5v-34h-286v-13q0 -43 3 -76.5t12.5 -57t27 -36t45.5 -12.5q39 0 61 23.5t22 83.5v4h107v-5q0 -51 -15 -86t-41 -57t-61 -31.5
t-75 -9.5zM148 325h178v8q0 70 -17.5 106.5t-70.5 36.5q-54 0 -72 -37.5t-18 -106.5v-7z" />
    <glyph glyph-name="ecircumflex" unicode="&#xea;" horiz-adv-x="468" 
d="M192 725h99l114 -121h-93l-70 63l-70 -63h-94zM234 -13q-105 0 -152.5 62t-47.5 180v82q0 119 48.5 180t153.5 61q55 0 92.5 -16t61 -48t34 -80.5t10.5 -113.5v-34h-286v-13q0 -43 3 -76.5t12.5 -57t27 -36t45.5 -12.5q39 0 61 23.5t22 83.5v4h107v-5q0 -51 -15 -86
t-41 -57t-61 -31.5t-75 -9.5zM148 325h178v8q0 70 -17.5 106.5t-70.5 36.5q-54 0 -72 -37.5t-18 -106.5v-7z" />
    <glyph glyph-name="edieresis" unicode="&#xeb;" horiz-adv-x="468" 
d="M93 725h101v-114h-101v114zM292 725h101v-114h-101v114zM234 -13q-105 0 -152.5 62t-47.5 180v82q0 119 48.5 180t153.5 61q55 0 92.5 -16t61 -48t34 -80.5t10.5 -113.5v-34h-286v-13q0 -43 3 -76.5t12.5 -57t27 -36t45.5 -12.5q39 0 61 23.5t22 83.5v4h107v-5
q0 -51 -15 -86t-41 -57t-61 -31.5t-75 -9.5zM148 325h178v8q0 70 -17.5 106.5t-70.5 36.5q-54 0 -72 -37.5t-18 -106.5v-7z" />
    <glyph glyph-name="igrave" unicode="&#xec;" horiz-adv-x="222" 
d="M54 538h114v-538h-114v538zM-41 725h134l63 -121h-78z" />
    <glyph glyph-name="iacute" unicode="&#xed;" horiz-adv-x="222" 
d="M129 725h133l-120 -121h-77zM54 538h114v-538h-114v538z" />
    <glyph glyph-name="icircumflex" unicode="&#xee;" horiz-adv-x="222" 
d="M54 725h99l97 -121h-93l-53 63l-54 -63h-94zM54 538h114v-538h-114v538z" />
    <glyph glyph-name="idieresis" unicode="&#xef;" horiz-adv-x="222" 
d="M-17 725h101v-114h-101v114zM133 725h102v-114h-102v114zM54 538h114v-538h-114v538z" />
    <glyph glyph-name="eth" unicode="&#xf0;" horiz-adv-x="476" 
d="M91 590l88 55q-23 14 -45 25t-40 21l74 47q20 -11 41.5 -22.5t42.5 -23.5l58 36l50 -25l-64 -40q30 -23 56.5 -52.5t46.5 -71.5t31.5 -98.5t11.5 -131.5v-79q0 -121 -49.5 -182t-153.5 -61q-106 0 -155.5 61t-49.5 182v81q0 241 200 241q25 0 45.5 -11t31.5 -25l2 1
q-14 29 -38 54.5t-53 45.5l-82 -51zM239 65q28 0 45 12.5t26 36t12 58t3 78.5v39q0 97 -20 141.5t-70 44.5q-52 0 -68.5 -47.5t-16.5 -137.5v-40q0 -44 3.5 -78.5t13 -58t27 -36t45.5 -12.5z" />
    <glyph glyph-name="ntilde" unicode="&#xf1;" horiz-adv-x="485" 
d="M54 538h114v-79q17 43 51.5 67.5t84.5 24.5q74 0 104 -44.5t30 -142.5v-364h-114v325q0 33 -2 60.5t-9 47t-20 30t-35 10.5q-26 0 -43 -13.5t-27.5 -37.5t-15 -57t-4.5 -72v-293h-114v538zM99 611q4 32 13.5 53.5t22.5 35t28.5 19.5t31.5 6q17 0 32 -6.5t28.5 -14.5
t25 -14.5t21.5 -6.5q25 0 34 42h66q-3 -31 -13 -53t-23.5 -35.5t-28.5 -19.5t-29 -6q-16 0 -31 6.5t-28.5 15t-26 15t-23.5 6.5q-24 0 -33 -43h-67z" />
    <glyph glyph-name="ograve" unicode="&#xf2;" horiz-adv-x="475" 
d="M238 65q28 0 45 12.5t26 36t11.5 58t2.5 78.5v39q0 44 -2.5 78.5t-11.5 58.5t-26 36.5t-45 12.5t-45 -12.5t-26 -36.5t-12 -58.5t-3 -78.5v-39q0 -44 3 -78.5t12 -58t26 -36t45 -12.5zM238 -13q-106 0 -155 61t-49 182v79q0 121 49 182t155 61q104 0 153.5 -61t49.5 -182
v-79q0 -121 -49.5 -182t-153.5 -61zM82 725h134l63 -121h-78z" />
    <glyph glyph-name="oacute" unicode="&#xf3;" horiz-adv-x="475" 
d="M257 725h133l-120 -121h-77zM238 65q28 0 45 12.5t26 36t11.5 58t2.5 78.5v39q0 44 -2.5 78.5t-11.5 58.5t-26 36.5t-45 12.5t-45 -12.5t-26 -36.5t-12 -58.5t-3 -78.5v-39q0 -44 3 -78.5t12 -58t26 -36t45 -12.5zM238 -13q-106 0 -155 61t-49 182v79q0 121 49 182
t155 61q104 0 153.5 -61t49.5 -182v-79q0 -121 -49.5 -182t-153.5 -61z" />
    <glyph glyph-name="ocircumflex" unicode="&#xf4;" horiz-adv-x="475" 
d="M195 725h99l114 -121h-93l-70 63l-70 -63h-94zM238 65q28 0 45 12.5t26 36t11.5 58t2.5 78.5v39q0 44 -2.5 78.5t-11.5 58.5t-26 36.5t-45 12.5t-45 -12.5t-26 -36.5t-12 -58.5t-3 -78.5v-39q0 -44 3 -78.5t12 -58t26 -36t45 -12.5zM238 -13q-106 0 -155 61t-49 182v79
q0 121 49 182t155 61q104 0 153.5 -61t49.5 -182v-79q0 -121 -49.5 -182t-153.5 -61z" />
    <glyph glyph-name="otilde" unicode="&#xf5;" horiz-adv-x="475" 
d="M238 65q28 0 45 12.5t26 36t11.5 58t2.5 78.5v39q0 44 -2.5 78.5t-11.5 58.5t-26 36.5t-45 12.5t-45 -12.5t-26 -36.5t-12 -58.5t-3 -78.5v-39q0 -44 3 -78.5t12 -58t26 -36t45 -12.5zM238 -13q-106 0 -155 61t-49 182v79q0 121 49 182t155 61q104 0 153.5 -61t49.5 -182
v-79q0 -121 -49.5 -182t-153.5 -61zM85 611q4 32 13.5 53.5t22.5 35t28.5 19.5t31.5 6q17 0 32 -6.5t28.5 -14.5t25 -14.5t21.5 -6.5q25 0 34 42h66q-3 -31 -13 -53t-23.5 -35.5t-28.5 -19.5t-29 -6q-16 0 -31 6.5t-28.5 15t-26 15t-23.5 6.5q-24 0 -33 -43h-67z" />
    <glyph glyph-name="odieresis" unicode="&#xf6;" horiz-adv-x="475" 
d="M96 725h101v-114h-101v114zM295 725h101v-114h-101v114zM238 65q28 0 45 12.5t26 36t11.5 58t2.5 78.5v39q0 44 -2.5 78.5t-11.5 58.5t-26 36.5t-45 12.5t-45 -12.5t-26 -36.5t-12 -58.5t-3 -78.5v-39q0 -44 3 -78.5t12 -58t26 -36t45 -12.5zM238 -13q-106 0 -155 61
t-49 182v79q0 121 49 182t155 61q104 0 153.5 -61t49.5 -182v-79q0 -121 -49.5 -182t-153.5 -61z" />
    <glyph glyph-name="divide" unicode="&#xf7;" 
d="M212 158h123v-131h-123v131zM40 313h468v-90h-468v90zM212 506h123v-131h-123v131z" />
    <glyph glyph-name="oslash" unicode="&#xf8;" horiz-adv-x="475" 
d="M66 -63l39 89q-71 58 -71 204v79q0 121 49 182t155 61q52 0 94 -17l31 70h47l-41 -92q72 -59 72 -204v-79q0 -121 -49.5 -182t-153.5 -61q-55 0 -95 17l-30 -67h-47zM238 65q28 0 45 12.5t26 36t11.5 58t2.5 78.5v39q0 31 -1.5 57.5t-5.5 48.5l-136 -306q19 -24 58 -24z
M152 250q0 -31 1 -57.5t5 -47.5l136 306q-18 24 -56 24q-28 0 -45 -12.5t-26 -36.5t-12 -58.5t-3 -78.5v-39z" />
    <glyph glyph-name="ugrave" unicode="&#xf9;" horiz-adv-x="474" 
d="M184 -12q-77 0 -107 48.5t-30 146.5v355h114v-324q0 -32 2 -58.5t8 -46t18.5 -30t33.5 -10.5q47 0 65 49t18 128v292h114v-538h-110v81q-17 -42 -47.5 -67.5t-78.5 -25.5zM91 725h134l63 -121h-78z" />
    <glyph glyph-name="uacute" unicode="&#xfa;" horiz-adv-x="474" 
d="M250 725h133l-120 -121h-77zM184 -12q-77 0 -107 48.5t-30 146.5v355h114v-324q0 -32 2 -58.5t8 -46t18.5 -30t33.5 -10.5q47 0 65 49t18 128v292h114v-538h-110v81q-17 -42 -47.5 -67.5t-78.5 -25.5z" />
    <glyph glyph-name="ucircumflex" unicode="&#xfb;" horiz-adv-x="474" 
d="M181 725h99l114 -121h-93l-70 63l-70 -63h-94zM184 -12q-77 0 -107 48.5t-30 146.5v355h114v-324q0 -32 2 -58.5t8 -46t18.5 -30t33.5 -10.5q47 0 65 49t18 128v292h114v-538h-110v81q-17 -42 -47.5 -67.5t-78.5 -25.5z" />
    <glyph glyph-name="udieresis" unicode="&#xfc;" horiz-adv-x="474" 
d="M82 725h101v-114h-101v114zM281 725h101v-114h-101v114zM184 -12q-77 0 -107 48.5t-30 146.5v355h114v-324q0 -32 2 -58.5t8 -46t18.5 -30t33.5 -10.5q47 0 65 49t18 128v292h114v-538h-110v81q-17 -42 -47.5 -67.5t-78.5 -25.5z" />
    <glyph glyph-name="yacute" unicode="&#xfd;" horiz-adv-x="409" 
d="M42 -101h33q36 0 51 14t25 55l7 34l-153 536h112l96 -422l85 422h106l-135 -542q-13 -53 -27 -86.5t-33.5 -52.5t-47.5 -25.5t-70 -6.5h-49v74zM221 725h133l-120 -121h-77z" />
    <glyph glyph-name="thorn" unicode="&#xfe;" horiz-adv-x="498" 
d="M54 725h114v-265q14 39 49 65t83 26q164 0 164 -244v-76q0 -244 -164 -244q-48 0 -83 26.5t-49 64.5v-253h-114v900zM264 68q51 0 66.5 47.5t15.5 140.5v27q0 92 -15.5 140t-66.5 48q-54 0 -77 -50.5t-23 -151.5q0 -100 23 -150.5t77 -50.5z" />
    <glyph glyph-name="ydieresis" unicode="&#xff;" horiz-adv-x="409" 
d="M42 -101h33q36 0 51 14t25 55l7 34l-153 536h112l96 -422l85 422h106l-135 -542q-13 -53 -27 -86.5t-33.5 -52.5t-47.5 -25.5t-70 -6.5h-49v74zM58 725h101v-114h-101v114zM257 725h101v-114h-101v114z" />
    <glyph glyph-name="Abreve" unicode="&#x102;" horiz-adv-x="537" 
d="M196 725h143l190 -725h-122l-39 167h-206l-39 -167h-115zM180 247h169l-84 363zM268 771q-69 0 -103 27.5t-37 87.5h80q2 -32 19.5 -42.5t40.5 -10.5q25 0 42 10.5t19 42.5h81q-5 -60 -39 -87.5t-103 -27.5z" />
    <glyph glyph-name="Amacron" unicode="&#x100;" horiz-adv-x="537" 
d="M196 725h143l190 -725h-122l-39 167h-206l-39 -167h-115zM180 247h169l-84 363zM147 870h244v-80h-244v80z" />
    <glyph glyph-name="Aogonek" unicode="&#x104;" horiz-adv-x="537" 
d="M196 725h143l190 -725q-39 -19 -65.5 -41t-26.5 -45q0 -20 13.5 -28t35.5 -8q13 0 22.5 2.5t19.5 5.5v-65q-16 -5 -34.5 -7t-35.5 -2q-24 0 -46.5 4.5t-40 15t-28 26.5t-10.5 39q0 29 20.5 56t53.5 47l-39 167h-206l-39 -167h-115zM180 247h169l-84 363z" />
    <glyph glyph-name="Cacute" unicode="&#x106;" horiz-adv-x="534" 
d="M505 217q0 -111 -55.5 -170.5t-166.5 -59.5q-67 0 -113.5 19.5t-75.5 60t-42 102.5t-13 146v95q0 84 13 146t42 102.5t75.5 60t113.5 19.5q111 0 166.5 -59.5t55.5 -170.5v-18h-118v18q0 79 -24.5 112.5t-79.5 33.5q-39 0 -62.5 -18t-36 -52.5t-16.5 -85t-4 -114.5v-43
q0 -64 4 -114.5t16.5 -85t36 -52.5t62.5 -18q55 0 79.5 33.5t24.5 112.5v19h118v-19zM293 886h145l-117 -113h-91z" />
    <glyph glyph-name="Ccaron" unicode="&#x10c;" horiz-adv-x="534" 
d="M230 773l-114 113h103l65 -61l65 61h104l-114 -113h-109zM505 217q0 -111 -55.5 -170.5t-166.5 -59.5q-67 0 -113.5 19.5t-75.5 60t-42 102.5t-13 146v95q0 84 13 146t42 102.5t75.5 60t113.5 19.5q111 0 166.5 -59.5t55.5 -170.5v-18h-118v18q0 79 -24.5 112.5
t-79.5 33.5q-39 0 -62.5 -18t-36 -52.5t-16.5 -85t-4 -114.5v-43q0 -64 4 -114.5t16.5 -85t36 -52.5t62.5 -18q55 0 79.5 33.5t24.5 112.5v19h118v-19z" />
    <glyph glyph-name="Ccircumflex" unicode="&#x108;" horiz-adv-x="534" 
d="M505 217q0 -111 -55.5 -170.5t-166.5 -59.5q-67 0 -113.5 19.5t-75.5 60t-42 102.5t-13 146v95q0 84 13 146t42 102.5t75.5 60t113.5 19.5q111 0 166.5 -59.5t55.5 -170.5v-18h-118v18q0 79 -24.5 112.5t-79.5 33.5q-39 0 -62.5 -18t-36 -52.5t-16.5 -85t-4 -114.5v-43
q0 -64 4 -114.5t16.5 -85t36 -52.5t62.5 -18q55 0 79.5 33.5t24.5 112.5v19h118v-19zM229 886h108l114 -113h-103l-65 60l-66 -60h-102z" />
    <glyph glyph-name="Cdotaccent" unicode="&#x10a;" horiz-adv-x="534" 
d="M505 217q0 -111 -55.5 -170.5t-166.5 -59.5q-67 0 -113.5 19.5t-75.5 60t-42 102.5t-13 146v95q0 84 13 146t42 102.5t75.5 60t113.5 19.5q111 0 166.5 -59.5t55.5 -170.5v-18h-118v18q0 79 -24.5 112.5t-79.5 33.5q-39 0 -62.5 -18t-36 -52.5t-16.5 -85t-4 -114.5v-43
q0 -64 4 -114.5t16.5 -85t36 -52.5t62.5 -18q55 0 79.5 33.5t24.5 112.5v19h118v-19zM223 884h119v-108h-119v108z" />
    <glyph glyph-name="Dcaron" unicode="&#x10e;" horiz-adv-x="559" 
d="M226 773l-114 113h103l65 -61l65 61h104l-114 -113h-109zM236 82q46 0 77 11.5t49 40.5t25.5 79.5t7.5 128.5v42q0 78 -7.5 128t-25.5 79.5t-49 41t-77 11.5h-52v-562h52zM65 725h166q70 0 124 -14.5t91 -51t55.5 -99t18.5 -159.5v-81q0 -95 -18.5 -157t-55.5 -98
t-91 -50.5t-124 -14.5h-166v725z" />
    <glyph glyph-name="Dcroat" unicode="&#x110;" horiz-adv-x="559" 
d="M0 413h65v312h166q70 0 124 -14.5t91 -51t55.5 -99t18.5 -159.5v-81q0 -95 -18.5 -157t-55.5 -98t-91 -50.5t-124 -14.5h-166v322h-65v91zM236 82q46 0 77 11.5t49 40.5t25.5 79.5t7.5 128.5v42q0 78 -7.5 128t-25.5 79.5t-49 41t-77 11.5h-52v-231h130v-91h-130v-240h52
z" />
    <glyph glyph-name="Ebreve" unicode="&#x114;" horiz-adv-x="466" 
d="M65 725h380v-90h-261v-217h238v-90h-238v-238h261v-90h-380v725zM259 771q-69 0 -103 27.5t-37 87.5h80q2 -32 19.5 -42.5t40.5 -10.5q25 0 42 10.5t19 42.5h81q-5 -60 -39 -87.5t-103 -27.5z" />
    <glyph glyph-name="Ecaron" unicode="&#x11a;" horiz-adv-x="466" 
d="M65 725h380v-90h-261v-217h238v-90h-238v-238h261v-90h-380v725zM204 773l-114 113h103l65 -61l65 61h104l-114 -113h-109z" />
    <glyph glyph-name="Emacron" unicode="&#x112;" horiz-adv-x="466" 
d="M137 870h244v-80h-244v80zM65 725h380v-90h-261v-217h238v-90h-238v-238h261v-90h-380v725z" />
    <glyph glyph-name="Eogonek" unicode="&#x118;" horiz-adv-x="466" 
d="M376 -188q-24 0 -46 4.5t-39 15t-27 26.5t-10 39q0 29 20 59t52 44h119q-38 -19 -64 -41t-26 -45q0 -20 13.5 -28t34.5 -8q11 0 22 2t20 4v-65q-16 -4 -35 -5.5t-34 -1.5zM65 725h380v-90h-261v-217h238v-90h-238v-238h261v-90h-380v725z" />
    <glyph glyph-name="Edotaccent" unicode="&#x116;" horiz-adv-x="466" 
d="M197 884h119v-108h-119v108zM65 725h380v-90h-261v-217h238v-90h-238v-238h261v-90h-380v725z" />
    <glyph glyph-name="Gbreve" unicode="&#x11e;" horiz-adv-x="566" 
d="M262 -13q-119 0 -171 81.5t-52 247.5v94q0 84 13 146t42 102.5t75.5 60t113.5 19.5q111 0 169 -59.5t58 -170.5v-4h-118v4q0 79 -27 112.5t-82 33.5q-39 0 -62.5 -18t-36 -52.5t-16.5 -85t-4 -114.5v-42q0 -64 4 -114.5t16.5 -85t36 -52.5t62.5 -18q68 0 97 48.5
t29 142.5v28h-151v83h255v-374h-87l-3 90q-19 -45 -57.5 -74t-103.5 -29zM285 771q-69 0 -103 27.5t-37 87.5h80q2 -32 19.5 -42.5t40.5 -10.5q25 0 42 10.5t19 42.5h81q-5 -60 -39 -87.5t-103 -27.5z" />
    <glyph glyph-name="Gcircumflex" unicode="&#x11c;" horiz-adv-x="566" 
d="M228 886h108l114 -113h-103l-65 60l-66 -60h-102zM262 -13q-119 0 -171 81.5t-52 247.5v94q0 84 13 146t42 102.5t75.5 60t113.5 19.5q111 0 169 -59.5t58 -170.5v-4h-118v4q0 79 -27 112.5t-82 33.5q-39 0 -62.5 -18t-36 -52.5t-16.5 -85t-4 -114.5v-42q0 -64 4 -114.5
t16.5 -85t36 -52.5t62.5 -18q68 0 97 48.5t29 142.5v28h-151v83h255v-374h-87l-3 90q-19 -45 -57.5 -74t-103.5 -29z" />
    <glyph glyph-name="uni0122" unicode="&#x122;" horiz-adv-x="566" 
d="M269 -140h-35v90h100v-96l-42 -85h-60zM262 -13q-119 0 -171 81.5t-52 247.5v94q0 84 13 146t42 102.5t75.5 60t113.5 19.5q111 0 169 -59.5t58 -170.5v-4h-118v4q0 79 -27 112.5t-82 33.5q-39 0 -62.5 -18t-36 -52.5t-16.5 -85t-4 -114.5v-42q0 -64 4 -114.5t16.5 -85
t36 -52.5t62.5 -18q68 0 97 48.5t29 142.5v28h-151v83h255v-374h-87l-3 90q-19 -45 -57.5 -74t-103.5 -29z" />
    <glyph glyph-name="Gdotaccent" unicode="&#x120;" horiz-adv-x="566" 
d="M222 884h119v-108h-119v108zM262 -13q-119 0 -171 81.5t-52 247.5v94q0 84 13 146t42 102.5t75.5 60t113.5 19.5q111 0 169 -59.5t58 -170.5v-4h-118v4q0 79 -27 112.5t-82 33.5q-39 0 -62.5 -18t-36 -52.5t-16.5 -85t-4 -114.5v-42q0 -64 4 -114.5t16.5 -85t36 -52.5
t62.5 -18q68 0 97 48.5t29 142.5v28h-151v83h255v-374h-87l-3 90q-19 -45 -57.5 -74t-103.5 -29z" />
    <glyph glyph-name="Hbar" unicode="&#x126;" horiz-adv-x="584" 
d="M15 607h50v118h119v-118h216v118h119v-118h50v-85h-50v-522h-119v328h-216v-328h-119v522h-50v85zM400 418v104h-216v-104h216z" />
    <glyph glyph-name="Hcircumflex" unicode="&#x124;" horiz-adv-x="584" 
d="M65 725h119v-307h216v307h119v-725h-119v328h-216v-328h-119v725zM238 886h108l114 -113h-103l-65 60l-66 -60h-102z" />
    <glyph glyph-name="Ibreve" unicode="&#x12c;" horiz-adv-x="249" 
d="M124 771q-68 0 -98 28t-33 88h83q2 -32 13 -45.5t35 -13.5t35 13.5t13 45.5h83q-3 -60 -33 -88t-98 -28zM65 725h119v-725h-119v725z" />
    <glyph glyph-name="Idotaccent" unicode="&#x130;" horiz-adv-x="249" 
d="M65 725h119v-725h-119v725zM65 884h119v-108h-119v108z" />
    <glyph glyph-name="Imacron" unicode="&#x12a;" horiz-adv-x="249" 
d="M13 872h222v-81h-222v81zM65 725h119v-725h-119v725z" />
    <glyph glyph-name="Iogonek" unicode="&#x12e;" horiz-adv-x="249" 
d="M65 725h119v-725h-119v725zM116 -188q-24 0 -46 4.5t-39 15t-27 26.5t-10 39q0 29 20 59t52 44h119q-38 -19 -64 -41t-26 -45q0 -20 13.5 -28t34.5 -8q11 0 22 2t20 4v-65q-16 -4 -35 -5.5t-34 -1.5z" />
    <glyph glyph-name="Itilde" unicode="&#x128;" horiz-adv-x="249" 
d="M-10 774q3 31 12 52t21.5 33t27.5 17t31 5q17 0 28.5 -6.5t20.5 -15t16.5 -15t16.5 -6.5q25 0 29 43h67q-3 -32 -12.5 -52.5t-22.5 -32.5t-28 -17t-29 -5q-16 0 -26.5 6t-19 13.5t-16.5 14t-19 6.5q-25 0 -29 -40h-68zM65 725h119v-725h-119v725z" />
    <glyph glyph-name="uni1ECA" unicode="&#x1eca;" horiz-adv-x="249" 
d="M65 725h119v-725h-119v725zM75 -66h101v-109h-101v109z" />
    <glyph glyph-name="Jcircumflex" unicode="&#x134;" horiz-adv-x="460" 
d="M200 -13q-103 0 -151 54t-48 161v15h119v-15q0 -72 17 -101t60 -29q44 0 61.5 29t17.5 101v523h119v-523q0 -59 -13 -100t-37.5 -66.5t-61 -37t-83.5 -11.5zM275 886h108l114 -113h-103l-65 60l-66 -60h-102z" />
    <glyph glyph-name="uni0136" unicode="&#x136;" horiz-adv-x="541" 
d="M278 -140h-35v90h100v-96l-42 -85h-60zM253 322l-69 -102v-220h-119v725h119v-336l221 336h119l-201 -299l222 -426h-123z" />
    <glyph glyph-name="Lacute" unicode="&#x139;" horiz-adv-x="453" 
d="M65 725h119v-635h262v-90h-381v725zM141 886h145l-117 -113h-91z" />
    <glyph glyph-name="Lcaron" unicode="&#x13d;" horiz-adv-x="453" 
d="M279 725h109l-59 -170h-76zM65 725h119v-635h262v-90h-381v725z" />
    <glyph glyph-name="uni013B" unicode="&#x13b;" horiz-adv-x="453" 
d="M248 -140h-35v90h100v-96l-42 -85h-60zM65 725h119v-635h262v-90h-381v725z" />
    <glyph glyph-name="Ldot" unicode="&#x13f;" horiz-adv-x="453" 
d="M291 463h119v-108h-119v108zM65 725h119v-635h262v-90h-381v725z" />
    <glyph glyph-name="Lslash" unicode="&#x141;" horiz-adv-x="464" 
d="M2 300l80 54v371h119v-289l180 123v-99l-180 -123v-247h262v-90h-381v256l-80 -54v98z" />
    <glyph glyph-name="Eng" unicode="&#x14a;" horiz-adv-x="586" 
d="M299 -84h30q25 0 41.5 3t26 10.5t13 21.5t3.5 36v19l-240 565v-571h-108v725h140l208 -509v509h108v-733q0 -50 -8 -82t-26.5 -51t-50.5 -26.5t-80 -7.5h-57v91z" />
    <glyph glyph-name="Nacute" unicode="&#x143;" horiz-adv-x="586" 
d="M65 725h141l207 -571v571h108v-725h-141l-207 571v-571h-108v725zM316 886h145l-117 -113h-91z" />
    <glyph glyph-name="Ncaron" unicode="&#x147;" horiz-adv-x="586" 
d="M246 773l-114 113h103l65 -61l65 61h104l-114 -113h-109zM65 725h141l207 -571v571h108v-725h-141l-207 571v-571h-108v725z" />
    <glyph glyph-name="uni0145" unicode="&#x145;" horiz-adv-x="586" 
d="M278 -140h-35v90h100v-96l-42 -85h-60zM65 725h141l207 -571v571h108v-725h-141l-207 571v-571h-108v725z" />
    <glyph glyph-name="OE" unicode="&#x152;" horiz-adv-x="811" 
d="M284 -13q-67 0 -113.5 20t-76 60.5t-42.5 102.5t-13 146v94q0 84 13 146t42.5 102.5t76 60t113.5 19.5q54 0 92 -12.5t64 -38.5v38h350v-90h-261v-217h238v-90h-238v-238h261v-90h-350v38q-26 -26 -64 -38.5t-92 -12.5zM284 72q39 0 62.5 18t36.5 52.5t17 85t4 114.5v42
q0 64 -4 114.5t-17 85t-36.5 52.5t-62.5 18t-62.5 -18t-36.5 -52.5t-17 -85t-4 -114.5v-42q0 -64 4 -114.5t17 -85t36.5 -52.5t62.5 -18z" />
    <glyph glyph-name="Obreve" unicode="&#x14e;" horiz-adv-x="568" 
d="M284 72q39 0 62.5 18t36.5 52.5t17 85t4 114.5v42q0 64 -4 114.5t-17 85t-36.5 52.5t-62.5 18t-62.5 -18t-36.5 -52.5t-17 -85t-4 -114.5v-42q0 -64 4 -114.5t17 -85t36.5 -52.5t62.5 -18zM284 -13q-67 0 -113.5 20t-76 60.5t-42.5 102.5t-13 146v94q0 84 13 146
t42.5 102.5t76 60t113.5 19.5q66 0 113 -19.5t76 -60t42.5 -102.5t13.5 -146v-94q0 -84 -13.5 -146t-42.5 -102.5t-76 -60.5t-113 -20zM283 771q-69 0 -103 27.5t-37 87.5h80q2 -32 19.5 -42.5t40.5 -10.5q25 0 42 10.5t19 42.5h81q-5 -60 -39 -87.5t-103 -27.5z" />
    <glyph glyph-name="Ohungarumlaut" unicode="&#x150;" horiz-adv-x="568" 
d="M284 72q39 0 62.5 18t36.5 52.5t17 85t4 114.5v42q0 64 -4 114.5t-17 85t-36.5 52.5t-62.5 18t-62.5 -18t-36.5 -52.5t-17 -85t-4 -114.5v-42q0 -64 4 -114.5t17 -85t36.5 -52.5t62.5 -18zM284 -13q-67 0 -113.5 20t-76 60.5t-42.5 102.5t-13 146v94q0 84 13 146
t42.5 102.5t76 60t113.5 19.5q66 0 113 -19.5t76 -60t42.5 -102.5t13.5 -146v-94q0 -84 -13.5 -146t-42.5 -102.5t-76 -60.5t-113 -20zM199 897h145l-117 -113h-91zM378 897h145l-117 -113h-91z" />
    <glyph glyph-name="Omacron" unicode="&#x14c;" horiz-adv-x="568" 
d="M166 870h244v-80h-244v80zM284 72q39 0 62.5 18t36.5 52.5t17 85t4 114.5v42q0 64 -4 114.5t-17 85t-36.5 52.5t-62.5 18t-62.5 -18t-36.5 -52.5t-17 -85t-4 -114.5v-42q0 -64 4 -114.5t17 -85t36.5 -52.5t62.5 -18zM284 -13q-67 0 -113.5 20t-76 60.5t-42.5 102.5
t-13 146v94q0 84 13 146t42.5 102.5t76 60t113.5 19.5q66 0 113 -19.5t76 -60t42.5 -102.5t13.5 -146v-94q0 -84 -13.5 -146t-42.5 -102.5t-76 -60.5t-113 -20z" />
    <glyph glyph-name="uni1ECC" unicode="&#x1ecc;" horiz-adv-x="568" 
d="M239 -66h101v-109h-101v109zM284 72q39 0 62.5 18t36.5 52.5t17 85t4 114.5v42q0 64 -4 114.5t-17 85t-36.5 52.5t-62.5 18t-62.5 -18t-36.5 -52.5t-17 -85t-4 -114.5v-42q0 -64 4 -114.5t17 -85t36.5 -52.5t62.5 -18zM284 -13q-67 0 -113.5 20t-76 60.5t-42.5 102.5
t-13 146v94q0 84 13 146t42.5 102.5t76 60t113.5 19.5q66 0 113 -19.5t76 -60t42.5 -102.5t13.5 -146v-94q0 -84 -13.5 -146t-42.5 -102.5t-76 -60.5t-113 -20z" />
    <glyph glyph-name="Racute" unicode="&#x154;" 
d="M289 324q-23 -3 -47 -3h-58v-321h-119v725h180q69 0 119 -9t82.5 -31.5t48.5 -60.5t16 -97q0 -78 -29 -119t-85 -61l127 -347h-123zM246 396q39 0 66 5t43.5 18.5t24 37.5t7.5 62t-7.5 62.5t-24 38.5t-43.5 19t-66 5h-62v-248h62zM290 886h145l-117 -113h-91z" />
    <glyph glyph-name="Rcaron" unicode="&#x158;" 
d="M289 324q-23 -3 -47 -3h-58v-321h-119v725h180q69 0 119 -9t82.5 -31.5t48.5 -60.5t16 -97q0 -78 -29 -119t-85 -61l127 -347h-123zM246 396q39 0 66 5t43.5 18.5t24 37.5t7.5 62t-7.5 62.5t-24 38.5t-43.5 19t-66 5h-62v-248h62zM230 773l-114 113h103l65 -61l65 61h104
l-114 -113h-109z" />
    <glyph glyph-name="uni0156" unicode="&#x156;" 
d="M276 -140h-35v90h100v-96l-42 -85h-60zM289 324q-23 -3 -47 -3h-58v-321h-119v725h180q69 0 119 -9t82.5 -31.5t48.5 -60.5t16 -97q0 -78 -29 -119t-85 -61l127 -347h-123zM246 396q39 0 66 5t43.5 18.5t24 37.5t7.5 62t-7.5 62.5t-24 38.5t-43.5 19t-66 5h-62v-248h62z
" />
    <glyph glyph-name="Sacute" unicode="&#x15a;" horiz-adv-x="513" 
d="M264 -13q-118 0 -176 61t-58 178v8h117v-8q0 -80 28.5 -118t88.5 -38q107 0 107 112q0 25 -6.5 44t-19.5 33.5t-31 26t-42 22.5l-78 36q-36 16 -64.5 34t-48.5 42t-31 56.5t-11 77.5q0 46 15 80.5t43 57.5t66.5 34.5t85.5 11.5q49 0 90 -12t70 -37.5t45 -65t16 -95.5v-6
h-116v6q0 66 -27.5 97t-78.5 31q-46 0 -70.5 -26t-24.5 -71t17.5 -67.5t52.5 -37.5l84 -39q37 -17 70 -35t57.5 -42.5t38.5 -58.5t14 -83q0 -102 -58 -155.5t-165 -53.5zM271 886h145l-117 -113h-91z" />
    <glyph glyph-name="Scaron" unicode="&#x160;" horiz-adv-x="513" 
d="M202 773l-114 113h103l65 -61l65 61h104l-114 -113h-109zM264 -13q-118 0 -176 61t-58 178v8h117v-8q0 -80 28.5 -118t88.5 -38q107 0 107 112q0 25 -6.5 44t-19.5 33.5t-31 26t-42 22.5l-78 36q-36 16 -64.5 34t-48.5 42t-31 56.5t-11 77.5q0 46 15 80.5t43 57.5
t66.5 34.5t85.5 11.5q49 0 90 -12t70 -37.5t45 -65t16 -95.5v-6h-116v6q0 66 -27.5 97t-78.5 31q-46 0 -70.5 -26t-24.5 -71t17.5 -67.5t52.5 -37.5l84 -39q37 -17 70 -35t57.5 -42.5t38.5 -58.5t14 -83q0 -102 -58 -155.5t-165 -53.5z" />
    <glyph glyph-name="Scedilla" unicode="&#x15e;" horiz-adv-x="513" 
d="M264 -13q-118 0 -176 61t-58 178v8h117v-8q0 -80 28.5 -118t88.5 -38q107 0 107 112q0 25 -6.5 44t-19.5 33.5t-31 26t-42 22.5l-78 36q-36 16 -64.5 34t-48.5 42t-31 56.5t-11 77.5q0 46 15 80.5t43 57.5t66.5 34.5t85.5 11.5q49 0 90 -12t70 -37.5t45 -65t16 -95.5v-6
h-116v6q0 66 -27.5 97t-78.5 31q-46 0 -70.5 -26t-24.5 -71t17.5 -67.5t52.5 -37.5l84 -39q37 -17 70 -35t57.5 -42.5t38.5 -58.5t14 -83q0 -102 -58 -155.5t-165 -53.5zM251 -190q-21 0 -43 3t-42 11l14 43q11 -5 27.5 -9t32.5 -4q21 0 38 7.5t17 26.5q0 16 -12 23.5
t-30 7.5q-11 0 -22 -2t-19 -7l-24 17l49 80h49l-33 -53q8 2 16 3t19 1q32 -1 56.5 -17.5t24.5 -49.5q0 -21 -10 -36.5t-26.5 -25t-38 -14.5t-43.5 -5z" />
    <glyph glyph-name="Scircumflex" unicode="&#x15c;" horiz-adv-x="513" 
d="M264 -13q-118 0 -176 61t-58 178v8h117v-8q0 -80 28.5 -118t88.5 -38q107 0 107 112q0 25 -6.5 44t-19.5 33.5t-31 26t-42 22.5l-78 36q-36 16 -64.5 34t-48.5 42t-31 56.5t-11 77.5q0 46 15 80.5t43 57.5t66.5 34.5t85.5 11.5q49 0 90 -12t70 -37.5t45 -65t16 -95.5v-6
h-116v6q0 66 -27.5 97t-78.5 31q-46 0 -70.5 -26t-24.5 -71t17.5 -67.5t52.5 -37.5l84 -39q37 -17 70 -35t57.5 -42.5t38.5 -58.5t14 -83q0 -102 -58 -155.5t-165 -53.5zM210 886h108l114 -113h-103l-65 60l-66 -60h-102z" />
    <glyph glyph-name="uni0218" unicode="&#x218;" horiz-adv-x="513" 
d="M250 -140h-35v90h100v-96l-42 -85h-60zM264 -13q-118 0 -176 61t-58 178v8h117v-8q0 -80 28.5 -118t88.5 -38q107 0 107 112q0 25 -6.5 44t-19.5 33.5t-31 26t-42 22.5l-78 36q-36 16 -64.5 34t-48.5 42t-31 56.5t-11 77.5q0 46 15 80.5t43 57.5t66.5 34.5t85.5 11.5
q49 0 90 -12t70 -37.5t45 -65t16 -95.5v-6h-116v6q0 66 -27.5 97t-78.5 31q-46 0 -70.5 -26t-24.5 -71t17.5 -67.5t52.5 -37.5l84 -39q37 -17 70 -35t57.5 -42.5t38.5 -58.5t14 -83q0 -102 -58 -155.5t-165 -53.5z" />
    <glyph glyph-name="Tbar" unicode="&#x166;" horiz-adv-x="464" 
d="M7 412h165v223h-165v90h449v-90h-165v-223h166v-89h-166v-323h-119v323h-165v89z" />
    <glyph glyph-name="Tcaron" unicode="&#x164;" horiz-adv-x="463" 
d="M172 635h-165v90h449v-90h-165v-635h-119v635zM177 773l-114 113h103l65 -61l65 61h104l-114 -113h-109z" />
    <glyph glyph-name="uni0162" unicode="&#x162;" horiz-adv-x="464" 
d="M217 -140h-35v90h100v-96l-42 -85h-60zM172 635h-165v90h449v-90h-165v-635h-119v635z" />
    <glyph glyph-name="uni021A" unicode="&#x21a;" horiz-adv-x="464" 
d="M217 -140h-35v90h100v-96l-42 -85h-60zM172 635h-165v90h449v-90h-165v-635h-119v635z" />
    <glyph glyph-name="Ubreve" unicode="&#x16c;" horiz-adv-x="558" 
d="M279 -13q-69 0 -112.5 14t-68.5 48t-34 89t-9 138v449h119v-459q0 -50 3.5 -86.5t15 -60.5t32 -35.5t54.5 -11.5t54.5 11.5t32 35.5t15 60.5t3.5 86.5v459h119v-449q0 -83 -9 -138t-33.5 -89t-68.5 -48t-113 -14zM279 771q-69 0 -103 27.5t-37 87.5h80q2 -32 19.5 -42.5
t40.5 -10.5q25 0 42 10.5t19 42.5h81q-5 -60 -39 -87.5t-103 -27.5z" />
    <glyph glyph-name="Uhungarumlaut" unicode="&#x170;" horiz-adv-x="558" 
d="M199 897h145l-117 -113h-91zM378 897h145l-117 -113h-91zM279 -13q-69 0 -112.5 14t-68.5 48t-34 89t-9 138v449h119v-459q0 -50 3.5 -86.5t15 -60.5t32 -35.5t54.5 -11.5t54.5 11.5t32 35.5t15 60.5t3.5 86.5v459h119v-449q0 -83 -9 -138t-33.5 -89t-68.5 -48t-113 -14z
" />
    <glyph glyph-name="Umacron" unicode="&#x16a;" horiz-adv-x="558" 
d="M279 -13q-69 0 -112.5 14t-68.5 48t-34 89t-9 138v449h119v-459q0 -50 3.5 -86.5t15 -60.5t32 -35.5t54.5 -11.5t54.5 11.5t32 35.5t15 60.5t3.5 86.5v459h119v-449q0 -83 -9 -138t-33.5 -89t-68.5 -48t-113 -14zM158 870h244v-80h-244v80z" />
    <glyph glyph-name="Uogonek" unicode="&#x172;" horiz-adv-x="558" 
d="M295 -188q-24 0 -46 4.5t-39 15t-27 26.5t-10 39q0 29 20 59t52 44h119q-38 -19 -64 -41t-26 -45q0 -20 13.5 -28t34.5 -8q11 0 22 2t20 4v-65q-16 -4 -35 -5.5t-34 -1.5zM279 -13q-69 0 -112.5 14t-68.5 48t-34 89t-9 138v449h119v-459q0 -50 3.5 -86.5t15 -60.5
t32 -35.5t54.5 -11.5t54.5 11.5t32 35.5t15 60.5t3.5 86.5v459h119v-449q0 -83 -9 -138t-33.5 -89t-68.5 -48t-113 -14z" />
    <glyph glyph-name="Uring" unicode="&#x16e;" horiz-adv-x="558" 
d="M279 -13q-69 0 -112.5 14t-68.5 48t-34 89t-9 138v449h119v-459q0 -50 3.5 -86.5t15 -60.5t32 -35.5t54.5 -11.5t54.5 11.5t32 35.5t15 60.5t3.5 86.5v459h119v-449q0 -83 -9 -138t-33.5 -89t-68.5 -48t-113 -14zM279 805q19 0 33.5 12t14.5 33t-14.5 33.5t-33.5 12.5
t-32.5 -12.5t-13.5 -33.5t13.5 -33t32.5 -12zM279 766q-37 0 -62.5 23.5t-25.5 60.5t26 60.5t62 23.5q37 0 63 -23.5t26 -60.5t-25.5 -60.5t-63.5 -23.5z" />
    <glyph glyph-name="Utilde" unicode="&#x168;" horiz-adv-x="558" 
d="M279 -13q-69 0 -112.5 14t-68.5 48t-34 89t-9 138v449h119v-459q0 -50 3.5 -86.5t15 -60.5t32 -35.5t54.5 -11.5t54.5 11.5t32 35.5t15 60.5t3.5 86.5v459h119v-449q0 -83 -9 -138t-33.5 -89t-68.5 -48t-113 -14zM134 773q3 33 12.5 55t23 34.5t29.5 18t33 5.5
q18 0 35.5 -7t33 -16t29 -16t24.5 -7q23 0 24 46h67q-3 -34 -12.5 -56t-23.5 -34.5t-30 -17.5t-31 -5q-17 0 -33 7t-31.5 15t-29 15t-25.5 7q-25 0 -28 -44h-67z" />
    <glyph glyph-name="uni1EE4" unicode="&#x1ee4;" horiz-adv-x="558" 
d="M229 -66h101v-109h-101v109zM279 -13q-69 0 -112.5 14t-68.5 48t-34 89t-9 138v449h119v-459q0 -50 3.5 -86.5t15 -60.5t32 -35.5t54.5 -11.5t54.5 11.5t32 35.5t15 60.5t3.5 86.5v459h119v-449q0 -83 -9 -138t-33.5 -89t-68.5 -48t-113 -14z" />
    <glyph glyph-name="Wacute" unicode="&#x1e82;" horiz-adv-x="727" 
d="M13 725h108l86 -592l104 592h105l104 -592l85 592h109l-113 -725h-136l-101 588l-102 -588h-137zM381 886h145l-117 -113h-91z" />
    <glyph glyph-name="Wcircumflex" unicode="&#x174;" horiz-adv-x="727" 
d="M308 886h108l114 -113h-103l-65 60l-66 -60h-102zM13 725h108l86 -592l104 592h105l104 -592l85 592h109l-113 -725h-136l-101 588l-102 -588h-137z" />
    <glyph glyph-name="Wdieresis" unicode="&#x1e84;" horiz-adv-x="727" 
d="M214 884h102v-108h-102v108zM412 884h102v-108h-102v108zM13 725h108l86 -592l104 592h105l104 -592l85 592h109l-113 -725h-136l-101 588l-102 -588h-137z" />
    <glyph glyph-name="Wgrave" unicode="&#x1e80;" horiz-adv-x="727" 
d="M200 886h144l64 -113h-91zM13 725h108l86 -592l104 592h105l104 -592l85 592h109l-113 -725h-136l-101 588l-102 -588h-137z" />
    <glyph glyph-name="Ycircumflex" unicode="&#x176;" horiz-adv-x="504" 
d="M191 294l-186 431h119l128 -325l129 325h118l-189 -433v-292h-119v294zM198 886h108l114 -113h-103l-65 60l-66 -60h-102z" />
    <glyph glyph-name="Ydieresis" unicode="&#x178;" horiz-adv-x="504" 
d="M191 294l-186 431h119l128 -325l129 325h118l-189 -433v-292h-119v294zM102 884h102v-108h-102v108zM300 884h102v-108h-102v108z" />
    <glyph glyph-name="Ygrave" unicode="&#x1ef2;" horiz-adv-x="504" 
d="M191 294l-186 431h119l128 -325l129 325h118l-189 -433v-292h-119v294zM107 886h144l64 -113h-91z" />
    <glyph glyph-name="uni0232" unicode="&#x232;" horiz-adv-x="504" 
d="M191 294l-186 431h119l128 -325l129 325h118l-189 -433v-292h-119v294zM131 870h244v-80h-244v80z" />
    <glyph glyph-name="Zacute" unicode="&#x179;" horiz-adv-x="492" 
d="M24 83l308 552h-282v90h411v-83l-309 -552h317v-90h-445v83zM263 886h145l-117 -113h-91z" />
    <glyph glyph-name="Zcaron" unicode="&#x17d;" horiz-adv-x="492" 
d="M24 83l308 552h-282v90h411v-83l-309 -552h317v-90h-445v83zM212 773l-114 113h103l65 -61l65 61h104l-114 -113h-109z" />
    <glyph glyph-name="Zdotaccent" unicode="&#x17b;" horiz-adv-x="492" 
d="M202 884h119v-108h-119v108zM24 83l308 552h-282v90h411v-83l-309 -552h317v-90h-445v83z" />
    <glyph glyph-name="uni018F" unicode="&#x18f;" horiz-adv-x="549" 
d="M272 -13q-65 0 -110 18.5t-73.5 54.5t-41 90.5t-12.5 126.5v106h352v30q0 54 -3.5 98t-15.5 75.5t-35 49t-61 17.5q-35 0 -57 -13t-34 -35t-16 -50.5t-4 -58.5v-8h-123v8q0 52 12 96.5t39.5 77t72.5 50.5t110 18q67 0 113 -20t73.5 -59t39.5 -96t12 -131v-132
q0 -76 -12 -134.5t-39.5 -98t-73.5 -60t-113 -20.5zM272 73q37 0 59.5 15.5t35 43.5t16.5 67.5t4 87.5v12h-228v-44q0 -41 6 -74.5t19 -57.5t34.5 -37t53.5 -13z" />
    <glyph glyph-name="abreve" unicode="&#x103;" horiz-adv-x="461" 
d="M174 -13q-66 0 -104.5 40.5t-38.5 106.5v11q0 32 11.5 58t42 49t83 44.5t134.5 44.5v41q0 56 -19.5 77.5t-55.5 21.5q-46 0 -63.5 -28t-17.5 -78v-8h-106v8q0 45 15 78t41 55.5t60.5 33.5t73.5 11q42 0 76 -7.5t59 -28t38 -55.5t13 -89v-36q0 -30 -0.5 -65t-0.5 -65v-35
q0 -60 0.5 -98.5t5.5 -73.5h-104l-3 74q-20 -44 -53.5 -65.5t-86.5 -21.5zM214 61q42 0 67 31t25 106v78q-52 -12 -83 -25.5t-47.5 -28t-21.5 -31.5t-5 -36v-9q0 -38 16 -61.5t49 -23.5zM226 604q-66 0 -99 32t-37 89h79q5 -61 57 -61q53 0 58 61h80q-5 -57 -37.5 -89
t-100.5 -32z" />
    <glyph glyph-name="amacron" unicode="&#x101;" horiz-adv-x="461" 
d="M174 -13q-66 0 -104.5 40.5t-38.5 106.5v11q0 32 11.5 58t42 49t83 44.5t134.5 44.5v41q0 56 -19.5 77.5t-55.5 21.5q-46 0 -63.5 -28t-17.5 -78v-8h-106v8q0 45 15 78t41 55.5t60.5 33.5t73.5 11q42 0 76 -7.5t59 -28t38 -55.5t13 -89v-36q0 -30 -0.5 -65t-0.5 -65v-35
q0 -60 0.5 -98.5t5.5 -73.5h-104l-3 74q-20 -44 -53.5 -65.5t-86.5 -21.5zM214 61q42 0 67 31t25 106v78q-52 -12 -83 -25.5t-47.5 -28t-21.5 -31.5t-5 -36v-9q0 -38 16 -61.5t49 -23.5zM111 703h239v-77h-239v77z" />
    <glyph glyph-name="aogonek" unicode="&#x105;" horiz-adv-x="461" 
d="M174 -13q-66 0 -104.5 40.5t-38.5 106.5v11q0 32 11.5 58t42 49t83 44.5t134.5 44.5v41q0 56 -19.5 77.5t-55.5 21.5q-46 0 -63.5 -28t-17.5 -78v-8h-106v8q0 45 15 78t41 55.5t60.5 33.5t73.5 11q42 0 76 -7.5t59 -28t38 -55.5t13 -89v-36q0 -30 -0.5 -65t-0.5 -65v-35
q0 -60 0.5 -98.5t5.5 -73.5q-38 -19 -63.5 -40.5t-25.5 -45.5q0 -20 14 -28t35 -8q14 0 26.5 2.5t22.5 5.5v-65q-17 -5 -38 -7t-38 -2q-24 0 -46 4.5t-39 15t-27 26.5t-10 39q0 18 8.5 34t21 29t27.5 23t28 17l-3 74q-20 -44 -53.5 -65.5t-86.5 -21.5zM214 61q42 0 67 31
t25 106v78q-52 -12 -83 -25.5t-47.5 -28t-21.5 -31.5t-5 -36v-9q0 -38 16 -61.5t49 -23.5z" />
    <glyph glyph-name="cacute" unicode="&#x107;" horiz-adv-x="447" 
d="M243 725h133l-120 -121h-77zM236 -13q-106 0 -154 61t-48 183v78q0 121 48 182t154 61q39 0 72.5 -10.5t58.5 -33.5t39.5 -59.5t14.5 -88.5v-5h-107v5q0 62 -19.5 88t-58.5 26q-29 0 -45.5 -12.5t-25 -36t-11 -57t-2.5 -76.5v-45q0 -43 2.5 -76.5t11 -57t25 -36
t45.5 -12.5q39 0 58.5 26t19.5 89v3h107v-4q0 -52 -14.5 -88.5t-39.5 -59.5t-58.5 -33.5t-72.5 -10.5z" />
    <glyph glyph-name="ccaron" unicode="&#x10d;" horiz-adv-x="447" 
d="M75 725h94l70 -62l70 62h93l-114 -121h-98zM236 -13q-106 0 -154 61t-48 183v78q0 121 48 182t154 61q39 0 72.5 -10.5t58.5 -33.5t39.5 -59.5t14.5 -88.5v-5h-107v5q0 62 -19.5 88t-58.5 26q-29 0 -45.5 -12.5t-25 -36t-11 -57t-2.5 -76.5v-45q0 -43 2.5 -76.5t11 -57
t25 -36t45.5 -12.5q39 0 58.5 26t19.5 89v3h107v-4q0 -52 -14.5 -88.5t-39.5 -59.5t-58.5 -33.5t-72.5 -10.5z" />
    <glyph glyph-name="ccircumflex" unicode="&#x109;" horiz-adv-x="447" 
d="M185 725h99l114 -121h-93l-70 63l-70 -63h-94zM236 -13q-106 0 -154 61t-48 183v78q0 121 48 182t154 61q39 0 72.5 -10.5t58.5 -33.5t39.5 -59.5t14.5 -88.5v-5h-107v5q0 62 -19.5 88t-58.5 26q-29 0 -45.5 -12.5t-25 -36t-11 -57t-2.5 -76.5v-45q0 -43 2.5 -76.5
t11 -57t25 -36t45.5 -12.5q39 0 58.5 26t19.5 89v3h107v-4q0 -52 -14.5 -88.5t-39.5 -59.5t-58.5 -33.5t-72.5 -10.5z" />
    <glyph glyph-name="cdotaccent" unicode="&#x10b;" horiz-adv-x="447" 
d="M236 -13q-106 0 -154 61t-48 183v78q0 121 48 182t154 61q39 0 72.5 -10.5t58.5 -33.5t39.5 -59.5t14.5 -88.5v-5h-107v5q0 62 -19.5 88t-58.5 26q-29 0 -45.5 -12.5t-25 -36t-11 -57t-2.5 -76.5v-45q0 -43 2.5 -76.5t11 -57t25 -36t45.5 -12.5q39 0 58.5 26t19.5 89v3
h107v-4q0 -52 -14.5 -88.5t-39.5 -59.5t-58.5 -33.5t-72.5 -10.5zM186 725h101v-114h-101v114z" />
    <glyph glyph-name="dcaron" unicode="&#x10f;" horiz-adv-x="595" 
d="M506 725h109l-59 -170h-76zM34 308q0 244 164 244q48 0 83 -26.5t49 -64.5v264h114v-725h-114v78q-14 -38 -49 -64.5t-83 -26.5q-164 0 -164 244v77zM334 269q0 101 -23.5 153t-76.5 52q-51 0 -66.5 -49t-15.5 -142v-27q0 -93 15.5 -142t66.5 -49q53 0 76.5 52t23.5 152z
" />
    <glyph glyph-name="dcroat" unicode="&#x111;" horiz-adv-x="498" 
d="M215 646h115v79h114v-79h70v-65h-70v-581h-114v78q-14 -38 -49 -64.5t-83 -26.5q-164 0 -164 244v77q0 244 164 244q48 0 83 -26.5t49 -64.5v120h-115v65zM334 269q0 101 -23.5 153t-76.5 52q-51 0 -66.5 -49t-15.5 -142v-27q0 -93 15.5 -142t66.5 -49q53 0 76.5 52
t23.5 152z" />
    <glyph glyph-name="ebreve" unicode="&#x115;" horiz-adv-x="468" 
d="M234 -13q-105 0 -152.5 62t-47.5 180v82q0 119 48.5 180t153.5 61q55 0 92.5 -16t61 -48t34 -80.5t10.5 -113.5v-34h-286v-13q0 -43 3 -76.5t12.5 -57t27 -36t45.5 -12.5q39 0 61 23.5t22 83.5v4h107v-5q0 -51 -15 -86t-41 -57t-61 -31.5t-75 -9.5zM148 325h178v8
q0 70 -17.5 106.5t-70.5 36.5q-54 0 -72 -37.5t-18 -106.5v-7zM241 604q-66 0 -99 32t-37 89h79q5 -61 57 -61q53 0 58 61h80q-5 -57 -37.5 -89t-100.5 -32z" />
    <glyph glyph-name="ecaron" unicode="&#x11b;" horiz-adv-x="468" 
d="M77 725h94l70 -62l70 62h93l-114 -121h-98zM234 -13q-105 0 -152.5 62t-47.5 180v82q0 119 48.5 180t153.5 61q55 0 92.5 -16t61 -48t34 -80.5t10.5 -113.5v-34h-286v-13q0 -43 3 -76.5t12.5 -57t27 -36t45.5 -12.5q39 0 61 23.5t22 83.5v4h107v-5q0 -51 -15 -86t-41 -57
t-61 -31.5t-75 -9.5zM148 325h178v8q0 70 -17.5 106.5t-70.5 36.5q-54 0 -72 -37.5t-18 -106.5v-7z" />
    <glyph glyph-name="emacron" unicode="&#x113;" horiz-adv-x="468" 
d="M234 -13q-105 0 -152.5 62t-47.5 180v82q0 119 48.5 180t153.5 61q55 0 92.5 -16t61 -48t34 -80.5t10.5 -113.5v-34h-286v-13q0 -43 3 -76.5t12.5 -57t27 -36t45.5 -12.5q39 0 61 23.5t22 83.5v4h107v-5q0 -51 -15 -86t-41 -57t-61 -31.5t-75 -9.5zM148 325h178v8
q0 70 -17.5 106.5t-70.5 36.5q-54 0 -72 -37.5t-18 -106.5v-7zM123 703h239v-77h-239v77z" />
    <glyph glyph-name="eogonek" unicode="&#x119;" horiz-adv-x="466" 
d="M148 325h178v8q0 70 -17.5 106.5t-70.5 36.5q-54 0 -72 -37.5t-18 -106.5v-7zM343 -181q-17 -4 -33.5 -5.5t-33.5 -1.5q-24 0 -46 4.5t-39 15t-27 26.5t-10 39q0 26 22.5 49.5t54.5 40.5q-104 1 -150.5 62.5t-46.5 179.5v82q0 119 48.5 180t153.5 61q55 0 92.5 -16
t61 -48t34 -80.5t10.5 -113.5v-34h-286v-13q0 -43 3 -76.5t12.5 -57t27 -36t45.5 -12.5q39 0 61 23.5t22 83.5v4h107v-5q0 -54 -16.5 -90t-45.5 -57q-18 -14 -37.5 -28t-35.5 -28.5t-26.5 -28t-10.5 -25.5q0 -20 14 -28t35 -8q14 0 23 2t17 4v-65z" />
    <glyph glyph-name="edotaccent" unicode="&#x117;" horiz-adv-x="468" 
d="M234 -13q-105 0 -152.5 62t-47.5 180v82q0 119 48.5 180t153.5 61q55 0 92.5 -16t61 -48t34 -80.5t10.5 -113.5v-34h-286v-13q0 -43 3 -76.5t12.5 -57t27 -36t45.5 -12.5q39 0 61 23.5t22 83.5v4h107v-5q0 -51 -15 -86t-41 -57t-61 -31.5t-75 -9.5zM148 325h178v8
q0 70 -17.5 106.5t-70.5 36.5q-54 0 -72 -37.5t-18 -106.5v-7zM191 725h101v-114h-101v114z" />
    <glyph glyph-name="gbreve" unicode="&#x11f;" horiz-adv-x="503" 
d="M241 -188q-90 0 -139 42.5t-49 119.5v3h108v-3q0 -39 20 -61t62 -22q25 0 42 5.5t27.5 20t15.5 39t5 62.5v89q-14 -39 -45 -65.5t-79 -26.5q-81 0 -128 59t-47 177v65q0 121 46.5 178t128.5 57q48 0 79 -27t45 -65v79h116v-500q0 -115 -48.5 -170.5t-159.5 -55.5zM237 96
q57 0 79 45.5t22 136.5q0 98 -22 145t-79 47q-52 0 -68.5 -44t-16.5 -131v-17q0 -43 3.5 -76.5t13 -57t26 -36t42.5 -12.5zM244 604q-66 0 -99 32t-37 89h79q5 -61 57 -61q53 0 58 61h80q-5 -57 -37.5 -89t-100.5 -32z" />
    <glyph glyph-name="gcircumflex" unicode="&#x11d;" horiz-adv-x="503" 
d="M199 725h99l114 -121h-93l-70 63l-70 -63h-94zM241 -188q-90 0 -139 42.5t-49 119.5v3h108v-3q0 -39 20 -61t62 -22q25 0 42 5.5t27.5 20t15.5 39t5 62.5v89q-14 -39 -45 -65.5t-79 -26.5q-81 0 -128 59t-47 177v65q0 121 46.5 178t128.5 57q48 0 79 -27t45 -65v79h116
v-500q0 -115 -48.5 -170.5t-159.5 -55.5zM237 96q57 0 79 45.5t22 136.5q0 98 -22 145t-79 47q-52 0 -68.5 -44t-16.5 -131v-17q0 -43 3.5 -76.5t13 -57t26 -36t42.5 -12.5z" />
    <glyph glyph-name="uni0123" unicode="&#x123;" horiz-adv-x="503" 
d="M257 700h35v-90h-100v96l42 85h60zM241 -188q-90 0 -139 42.5t-49 119.5v3h108v-3q0 -39 20 -61t62 -22q25 0 42 5.5t27.5 20t15.5 39t5 62.5v89q-14 -39 -45 -65.5t-79 -26.5q-81 0 -128 59t-47 177v65q0 121 46.5 178t128.5 57q48 0 79 -27t45 -65v79h116v-500
q0 -115 -48.5 -170.5t-159.5 -55.5zM237 96q57 0 79 45.5t22 136.5q0 98 -22 145t-79 47q-52 0 -68.5 -44t-16.5 -131v-17q0 -43 3.5 -76.5t13 -57t26 -36t42.5 -12.5z" />
    <glyph glyph-name="gdotaccent" unicode="&#x121;" horiz-adv-x="503" 
d="M241 -188q-90 0 -139 42.5t-49 119.5v3h108v-3q0 -39 20 -61t62 -22q25 0 42 5.5t27.5 20t15.5 39t5 62.5v89q-14 -39 -45 -65.5t-79 -26.5q-81 0 -128 59t-47 177v65q0 121 46.5 178t128.5 57q48 0 79 -27t45 -65v79h116v-500q0 -115 -48.5 -170.5t-159.5 -55.5zM237 96
q57 0 79 45.5t22 136.5q0 98 -22 145t-79 47q-52 0 -68.5 -44t-16.5 -131v-17q0 -43 3.5 -76.5t13 -57t26 -36t42.5 -12.5zM195 725h101v-114h-101v114z" />
    <glyph glyph-name="hbar" unicode="&#x127;" horiz-adv-x="485" 
d="M-11 645h65v80h114v-80h129v-64h-129v-122q17 43 51.5 67.5t84.5 24.5q74 0 104 -44.5t30 -142.5v-364h-114v325q0 33 -2 60.5t-9 47t-20 30t-35 10.5q-26 0 -43 -13.5t-27.5 -37.5t-15 -57t-4.5 -72v-293h-114v581h-65v64z" />
    <glyph glyph-name="hcircumflex" unicode="&#x125;" horiz-adv-x="485" 
d="M59 886h108l114 -113h-103l-65 60l-66 -60h-102zM54 725h114v-266q17 43 51.5 67.5t84.5 24.5q74 0 104 -44.5t30 -142.5v-364h-114v325q0 33 -2 60.5t-9 47t-20 30t-35 10.5q-26 0 -43 -13.5t-27.5 -37.5t-15 -57t-4.5 -72v-293h-114v725z" />
    <glyph glyph-name="dotlessi" unicode="&#x131;" horiz-adv-x="222" 
d="M54 538h114v-538h-114v538z" />
    <glyph glyph-name="ibreve" unicode="&#x12d;" horiz-adv-x="222" 
d="M108 605q-69 0 -94.5 31.5t-25.5 88.5h81q0 -29 8.5 -44t30.5 -15q23 0 31.5 15t8.5 44h81q0 -28 -5.5 -50.5t-19.5 -38t-37.5 -23.5t-58.5 -8zM54 538h114v-538h-114v538z" />
    <glyph glyph-name="imacron" unicode="&#x12b;" horiz-adv-x="222" 
d="M2 703h218v-78h-218v78zM54 538h114v-538h-114v538z" />
    <glyph glyph-name="iogonek" unicode="&#x12f;" horiz-adv-x="222" 
d="M54 538h114v-538q-38 -19 -63.5 -40.5t-25.5 -45.5q0 -20 14 -28t35 -8q14 0 23 2t17 4v-65q-17 -4 -33.5 -5.5t-33.5 -1.5q-24 0 -46 4.5t-39 15t-27 26.5t-10 39q0 29 20.5 56t54.5 47v538zM54 725h114v-117h-114v117z" />
    <glyph glyph-name="itilde" unicode="&#x129;" horiz-adv-x="222" 
d="M-30 608q3 33 11.5 55.5t20.5 36t27 19.5t31 6q18 0 31.5 -6.5t24 -15t19.5 -15t20 -6.5q20 0 24 43h69q-3 -33 -11 -55.5t-19.5 -36t-25.5 -19.5t-29 -6q-17 0 -29.5 6.5t-23 15t-20.5 15t-22 6.5q-11 0 -19 -10t-10 -33h-69zM54 538h114v-538h-114v538z" />
    <glyph glyph-name="uni1ECB" unicode="&#x1ecb;" horiz-adv-x="222" 
d="M54 538h114v-538h-114v538zM54 725h114v-117h-114v117zM61 -66h101v-109h-101v109z" />
    <glyph glyph-name="uni0237" unicode="&#x237;" horiz-adv-x="222" 
d="M-24 -102h24q19 0 29.5 4t16 13t7 25t1.5 40v558h114v-555q0 -48 -8.5 -78.5t-27 -48.5t-48.5 -24.5t-73 -6.5h-35v73z" />
    <glyph glyph-name="jcircumflex" unicode="&#x135;" horiz-adv-x="222" 
d="M65 725h99l114 -121h-93l-70 63l-70 -63h-94zM-25 -102h24q19 0 29.5 4t16 13t7 25t1.5 40v558h114v-555q0 -48 -8.5 -78.5t-27 -48.5t-48.5 -24.5t-73 -6.5h-35v73z" />
    <glyph glyph-name="uni0137" unicode="&#x137;" horiz-adv-x="435" 
d="M236 -140h-35v90h100v-96l-42 -85h-60zM218 230l-50 -72v-158h-114v725h114v-410l153 223h111l-146 -211l157 -327h-114z" />
    <glyph glyph-name="lacute" unicode="&#x13a;" horiz-adv-x="222" 
d="M117 886h145l-117 -113h-91zM54 725h114v-725h-114v725z" />
    <glyph glyph-name="lcaron" unicode="&#x13e;" horiz-adv-x="319" 
d="M230 725h109l-59 -170h-76zM54 725h114v-725h-114v725z" />
    <glyph glyph-name="uni013C" unicode="&#x13c;" horiz-adv-x="222" 
d="M96 -140h-35v90h100v-96l-42 -85h-60zM54 725h114v-725h-114v725z" />
    <glyph glyph-name="ldot" unicode="&#x140;" horiz-adv-x="337" 
d="M61 725h114v-725h-114v725zM236 469h101v-114h-101v114z" />
    <glyph glyph-name="lslash" unicode="&#x142;" horiz-adv-x="279" 
d="M10 361l75 46v318h114v-249l70 43v-97l-70 -43v-379h-114v310l-75 -46v97z" />
    <glyph glyph-name="eng" unicode="&#x14b;" horiz-adv-x="485" 
d="M243 -100h21q21 0 33 4t18 13.5t7.5 26t1.5 40.5v341q0 33 -2 60t-9 45.5t-20 28.5t-35 10q-26 0 -43 -12.5t-27.5 -36t-15 -56t-4.5 -71.5v-293h-114v538h114v-79q17 43 51 67.5t85 24.5q74 0 104 -44.5t30 -142.5v-379q0 -48 -9 -79t-28 -49t-49.5 -24.5t-73.5 -6.5
h-35v74z" />
    <glyph glyph-name="nacute" unicode="&#x144;" horiz-adv-x="485" 
d="M264 725h133l-120 -121h-77zM54 538h114v-79q17 43 51.5 67.5t84.5 24.5q74 0 104 -44.5t30 -142.5v-364h-114v325q0 33 -2 60.5t-9 47t-20 30t-35 10.5q-26 0 -43 -13.5t-27.5 -37.5t-15 -57t-4.5 -72v-293h-114v538z" />
    <glyph glyph-name="ncaron" unicode="&#x148;" horiz-adv-x="485" 
d="M83 725h94l70 -62l70 62h93l-114 -121h-98zM54 538h114v-79q17 43 51.5 67.5t84.5 24.5q74 0 104 -44.5t30 -142.5v-364h-114v325q0 33 -2 60.5t-9 47t-20 30t-35 10.5q-26 0 -43 -13.5t-27.5 -37.5t-15 -57t-4.5 -72v-293h-114v538z" />
    <glyph glyph-name="uni0146" unicode="&#x146;" horiz-adv-x="485" 
d="M229 -140h-35v90h100v-96l-42 -85h-60zM54 538h114v-79q17 43 51.5 67.5t84.5 24.5q74 0 104 -44.5t30 -142.5v-364h-114v325q0 33 -2 60.5t-9 47t-20 30t-35 10.5q-26 0 -43 -13.5t-27.5 -37.5t-15 -57t-4.5 -72v-293h-114v538z" />
    <glyph glyph-name="oe" unicode="&#x153;" horiz-adv-x="757" 
d="M236 -13q-105 0 -153.5 61t-48.5 182v79q0 121 48.5 182t153.5 61q49 0 86 -18t59 -50q22 32 58.5 50t86.5 18q109 0 154 -63.5t45 -193.5v-34h-287v-25q0 -38 3.5 -69.5t13 -54t26.5 -35t44 -12.5q40 0 62 23.5t22 83.5v4h109v-5q0 -50 -16 -84.5t-43 -56.5t-62 -32
t-73 -10q-50 0 -86 18t-57 48q-23 -31 -59.5 -49t-85.5 -18zM236 65q28 0 45 12.5t26 36t11.5 58t2.5 78.5v39q0 44 -2.5 78.5t-11.5 58.5t-26 36.5t-45 12.5t-45 -12.5t-26 -36.5t-12 -58.5t-3 -78.5v-39q0 -44 3 -78.5t12 -58t26 -36t45 -12.5zM618 325v15q0 67 -18.5 102
t-71.5 35q-54 0 -72.5 -36t-18.5 -102v-14h181z" />
    <glyph glyph-name="obreve" unicode="&#x14f;" horiz-adv-x="475" 
d="M238 65q28 0 45 12.5t26 36t11.5 58t2.5 78.5v39q0 44 -2.5 78.5t-11.5 58.5t-26 36.5t-45 12.5t-45 -12.5t-26 -36.5t-12 -58.5t-3 -78.5v-39q0 -44 3 -78.5t12 -58t26 -36t45 -12.5zM238 -13q-106 0 -155 61t-49 182v79q0 121 49 182t155 61q104 0 153.5 -61t49.5 -182
v-79q0 -121 -49.5 -182t-153.5 -61zM244 604q-66 0 -99 32t-37 89h79q5 -61 57 -61q53 0 58 61h80q-5 -57 -37.5 -89t-100.5 -32z" />
    <glyph glyph-name="ohungarumlaut" unicode="&#x151;" horiz-adv-x="475" 
d="M175 725h133l-120 -121h-77zM342 725h133l-120 -121h-77zM238 65q28 0 45 12.5t26 36t11.5 58t2.5 78.5v39q0 44 -2.5 78.5t-11.5 58.5t-26 36.5t-45 12.5t-45 -12.5t-26 -36.5t-12 -58.5t-3 -78.5v-39q0 -44 3 -78.5t12 -58t26 -36t45 -12.5zM238 -13q-106 0 -155 61
t-49 182v79q0 121 49 182t155 61q104 0 153.5 -61t49.5 -182v-79q0 -121 -49.5 -182t-153.5 -61z" />
    <glyph glyph-name="omacron" unicode="&#x14d;" horiz-adv-x="475" 
d="M125 703h239v-77h-239v77zM238 65q28 0 45 12.5t26 36t11.5 58t2.5 78.5v39q0 44 -2.5 78.5t-11.5 58.5t-26 36.5t-45 12.5t-45 -12.5t-26 -36.5t-12 -58.5t-3 -78.5v-39q0 -44 3 -78.5t12 -58t26 -36t45 -12.5zM238 -13q-106 0 -155 61t-49 182v79q0 121 49 182t155 61
q104 0 153.5 -61t49.5 -182v-79q0 -121 -49.5 -182t-153.5 -61z" />
    <glyph glyph-name="uni1ECD" unicode="&#x1ecd;" horiz-adv-x="475" 
d="M195 -66h101v-109h-101v109zM238 65q28 0 45 12.5t26 36t11.5 58t2.5 78.5v39q0 44 -2.5 78.5t-11.5 58.5t-26 36.5t-45 12.5t-45 -12.5t-26 -36.5t-12 -58.5t-3 -78.5v-39q0 -44 3 -78.5t12 -58t26 -36t45 -12.5zM238 -13q-106 0 -155 61t-49 182v79q0 121 49 182
t155 61q104 0 153.5 -61t49.5 -182v-79q0 -121 -49.5 -182t-153.5 -61z" />
    <glyph glyph-name="racute" unicode="&#x155;" horiz-adv-x="304" 
d="M177 725h133l-120 -121h-77zM54 538h113v-116q5 21 14.5 42t24 37.5t34.5 26.5t47 10h20v-116h-35q-30 0 -50 -7.5t-32 -25t-17 -46t-5 -70.5v-273h-114v538z" />
    <glyph glyph-name="rcaron" unicode="&#x159;" horiz-adv-x="304" 
d="M15 725h94l70 -62l70 62h93l-114 -121h-98zM54 538h113v-116q5 21 14.5 42t24 37.5t34.5 26.5t47 10h20v-116h-35q-30 0 -50 -7.5t-32 -25t-17 -46t-5 -70.5v-273h-114v538z" />
    <glyph glyph-name="uni0157" unicode="&#x157;" horiz-adv-x="304" 
d="M96 -140h-35v90h100v-96l-42 -85h-60zM54 538h113v-116q5 21 14.5 42t24 37.5t34.5 26.5t47 10h20v-116h-35q-30 0 -50 -7.5t-32 -25t-17 -46t-5 -70.5v-273h-114v538z" />
    <glyph glyph-name="sacute" unicode="&#x15b;" horiz-adv-x="438" 
d="M234 725h133l-120 -121h-77zM224 -13q-94 0 -145 48t-51 136v3h107v-4q0 -50 22.5 -77.5t66.5 -27.5q36 0 60.5 16t24.5 53q0 34 -16 51.5t-56 33.5l-80 31q-55 21 -88 56.5t-33 98.5q0 39 14 67t38 45.5t57.5 26t72.5 8.5q35 0 68 -9.5t58 -29.5t40 -51.5t15 -75.5v-3
h-107v3q0 50 -24 69t-56 19q-30 0 -52 -15t-22 -47q0 -31 15 -45t44 -26l78 -30q31 -13 56.5 -27t43.5 -33t28 -44.5t10 -61.5q0 -43 -15 -73t-41 -49t-60 -27.5t-73 -8.5z" />
    <glyph glyph-name="scaron" unicode="&#x161;" horiz-adv-x="438" 
d="M52 725h94l70 -62l70 62h93l-114 -121h-98zM224 -13q-94 0 -145 48t-51 136v3h107v-4q0 -50 22.5 -77.5t66.5 -27.5q36 0 60.5 16t24.5 53q0 34 -16 51.5t-56 33.5l-80 31q-55 21 -88 56.5t-33 98.5q0 39 14 67t38 45.5t57.5 26t72.5 8.5q35 0 68 -9.5t58 -29.5t40 -51.5
t15 -75.5v-3h-107v3q0 50 -24 69t-56 19q-30 0 -52 -15t-22 -47q0 -31 15 -45t44 -26l78 -30q31 -13 56.5 -27t43.5 -33t28 -44.5t10 -61.5q0 -43 -15 -73t-41 -49t-60 -27.5t-73 -8.5z" />
    <glyph glyph-name="scedilla" unicode="&#x15f;" horiz-adv-x="438" 
d="M224 -13q-94 0 -145 48t-51 136v3h107v-4q0 -50 22.5 -77.5t66.5 -27.5q36 0 60.5 16t24.5 53q0 34 -16 51.5t-56 33.5l-80 31q-55 21 -88 56.5t-33 98.5q0 39 14 67t38 45.5t57.5 26t72.5 8.5q35 0 68 -9.5t58 -29.5t40 -51.5t15 -75.5v-3h-107v3q0 50 -24 69t-56 19
q-30 0 -52 -15t-22 -47q0 -31 15 -45t44 -26l78 -30q31 -13 56.5 -27t43.5 -33t28 -44.5t10 -61.5q0 -43 -15 -73t-41 -49t-60 -27.5t-73 -8.5zM203 -190q-23 0 -44.5 3t-41.5 11l14 43q11 -5 27.5 -9t32.5 -4q21 0 38 7.5t17 26.5q0 16 -12 23.5t-30 7.5q-11 0 -22 -2
t-19 -7l-24 17l49 80h49l-33 -53q8 2 16 3t19 1q31 -1 56 -17.5t25 -49.5q0 -21 -10 -36.5t-26.5 -25t-37.5 -14.5t-43 -5z" />
    <glyph glyph-name="scircumflex" unicode="&#x15d;" horiz-adv-x="438" 
d="M169 725h99l114 -121h-93l-70 63l-70 -63h-94zM224 -13q-94 0 -145 48t-51 136v3h107v-4q0 -50 22.5 -77.5t66.5 -27.5q36 0 60.5 16t24.5 53q0 34 -16 51.5t-56 33.5l-80 31q-55 21 -88 56.5t-33 98.5q0 39 14 67t38 45.5t57.5 26t72.5 8.5q35 0 68 -9.5t58 -29.5
t40 -51.5t15 -75.5v-3h-107v3q0 50 -24 69t-56 19q-30 0 -52 -15t-22 -47q0 -31 15 -45t44 -26l78 -30q31 -13 56.5 -27t43.5 -33t28 -44.5t10 -61.5q0 -43 -15 -73t-41 -49t-60 -27.5t-73 -8.5z" />
    <glyph glyph-name="uni0219" unicode="&#x219;" horiz-adv-x="438" 
d="M198 -140h-35v90h100v-96l-42 -85h-60zM224 -13q-94 0 -145 48t-51 136v3h107v-4q0 -50 22.5 -77.5t66.5 -27.5q36 0 60.5 16t24.5 53q0 34 -16 51.5t-56 33.5l-80 31q-55 21 -88 56.5t-33 98.5q0 39 14 67t38 45.5t57.5 26t72.5 8.5q35 0 68 -9.5t58 -29.5t40 -51.5
t15 -75.5v-3h-107v3q0 50 -24 69t-56 19q-30 0 -52 -15t-22 -47q0 -31 15 -45t44 -26l78 -30q31 -13 56.5 -27t43.5 -33t28 -44.5t10 -61.5q0 -43 -15 -73t-41 -49t-60 -27.5t-73 -8.5z" />
    <glyph glyph-name="tbar" unicode="&#x167;" horiz-adv-x="284" 
d="M0 368h68v96h-68v74h68v140h114v-140h92v-74h-92v-96h92v-79h-92v-141q0 -24 2.5 -38.5t9 -22.5t18 -10.5t29.5 -2.5h33v-74h-82q-37 0 -61 7t-38 23t-19.5 42t-5.5 64v153h-68v79z" />
    <glyph glyph-name="tcaron" unicode="&#x165;" horiz-adv-x="382" 
d="M192 0q-37 0 -61 7t-38 23t-19.5 42t-5.5 64v328h-68v74h68v140h114v-140h92v-74h-92v-316q0 -24 2.5 -38.5t9 -22.5t18 -10.5t29.5 -2.5h33v-74h-82zM298 725h109l-59 -170h-76z" />
    <glyph glyph-name="uni0163" unicode="&#x163;" horiz-adv-x="284" 
d="M140 -140h-35v90h100v-96l-42 -85h-60zM192 0q-37 0 -61 7t-38 23t-19.5 42t-5.5 64v328h-68v74h68v140h114v-140h92v-74h-92v-316q0 -24 2.5 -38.5t9 -22.5t18 -10.5t29.5 -2.5h33v-74h-82z" />
    <glyph glyph-name="uni021B" unicode="&#x21b;" horiz-adv-x="284" 
d="M140 -140h-35v90h100v-96l-42 -85h-60zM192 0q-37 0 -61 7t-38 23t-19.5 42t-5.5 64v328h-68v74h68v140h114v-140h92v-74h-92v-316q0 -24 2.5 -38.5t9 -22.5t18 -10.5t29.5 -2.5h33v-74h-82z" />
    <glyph glyph-name="ubreve" unicode="&#x16d;" horiz-adv-x="474" 
d="M184 -12q-77 0 -107 48.5t-30 146.5v355h114v-324q0 -32 2 -58.5t8 -46t18.5 -30t33.5 -10.5q47 0 65 49t18 128v292h114v-538h-110v81q-17 -42 -47.5 -67.5t-78.5 -25.5zM232 604q-66 0 -99 32t-37 89h79q5 -61 57 -61q53 0 58 61h80q-5 -57 -37.5 -89t-100.5 -32z" />
    <glyph glyph-name="uhungarumlaut" unicode="&#x171;" horiz-adv-x="474" 
d="M184 -12q-77 0 -107 48.5t-30 146.5v355h114v-324q0 -32 2 -58.5t8 -46t18.5 -30t33.5 -10.5q47 0 65 49t18 128v292h114v-538h-110v81q-17 -42 -47.5 -67.5t-78.5 -25.5zM159 725h133l-120 -121h-77zM326 725h133l-120 -121h-77z" />
    <glyph glyph-name="umacron" unicode="&#x16b;" horiz-adv-x="474" 
d="M184 -12q-77 0 -107 48.5t-30 146.5v355h114v-324q0 -32 2 -58.5t8 -46t18.5 -30t33.5 -10.5q47 0 65 49t18 128v292h114v-538h-110v81q-17 -42 -47.5 -67.5t-78.5 -25.5zM113 703h239v-77h-239v77z" />
    <glyph glyph-name="uogonek" unicode="&#x173;" horiz-adv-x="475" 
d="M184 -12q-77 0 -107 48.5t-30 146.5v355h114v-324q0 -32 2 -58.5t8 -46t18.5 -30t33.5 -10.5q47 0 65 49t18 128v292h114v-538h1q-38 -19 -63.5 -40.5t-25.5 -45.5q0 -20 14 -28t35 -8q14 0 23 2t17 4v-65q-17 -4 -33.5 -5.5t-33.5 -1.5q-24 0 -46 4.5t-39 15t-27 26.5
t-10 39q0 17 7 32.5t18.5 29t25 24t27.5 17.5v81q-17 -42 -47.5 -67.5t-78.5 -25.5z" />
    <glyph glyph-name="uring" unicode="&#x16f;" horiz-adv-x="474" 
d="M235 632q19 0 32.5 13t13.5 33t-13.5 32.5t-32.5 12.5q-18 0 -31.5 -12.5t-13.5 -32.5t13.5 -33t31.5 -13zM235 591q-38 0 -64.5 24.5t-26.5 62.5t26.5 62.5t64.5 24.5q19 0 36 -6.5t29.5 -18t19.5 -27.5t7 -35q0 -38 -26.5 -62.5t-65.5 -24.5zM184 -12q-77 0 -107 48.5
t-30 146.5v355h114v-324q0 -32 2 -58.5t8 -46t18.5 -30t33.5 -10.5q47 0 65 49t18 128v292h114v-538h-110v81q-17 -42 -47.5 -67.5t-78.5 -25.5z" />
    <glyph glyph-name="utilde" unicode="&#x169;" horiz-adv-x="474" 
d="M184 -12q-77 0 -107 48.5t-30 146.5v355h114v-324q0 -32 2 -58.5t8 -46t18.5 -30t33.5 -10.5q47 0 65 49t18 128v292h114v-538h-110v81q-17 -42 -47.5 -67.5t-78.5 -25.5zM86 611q4 32 13.5 53.5t22.5 35t28.5 19.5t31.5 6q17 0 32 -6.5t28.5 -14.5t25 -14.5t21.5 -6.5
q25 0 34 42h66q-3 -31 -13 -53t-23.5 -35.5t-28.5 -19.5t-29 -6q-16 0 -31 6.5t-28.5 15t-26 15t-23.5 6.5q-24 0 -33 -43h-67z" />
    <glyph glyph-name="uni1EE5" unicode="&#x1ee5;" horiz-adv-x="474" 
d="M183 -66h101v-109h-101v109zM184 -12q-77 0 -107 48.5t-30 146.5v355h114v-324q0 -32 2 -58.5t8 -46t18.5 -30t33.5 -10.5q47 0 65 49t18 128v292h114v-538h-110v81q-17 -42 -47.5 -67.5t-78.5 -25.5z" />
    <glyph glyph-name="wacute" unicode="&#x1e83;" horiz-adv-x="587" 
d="M323 725h133l-120 -121h-77zM21 538h98l51 -408l70 408h106l71 -408l51 408h98l-79 -538h-122l-72 432l-72 -432h-122z" />
    <glyph glyph-name="wcircumflex" unicode="&#x175;" horiz-adv-x="587" 
d="M242 725h99l114 -121h-93l-70 63l-70 -63h-94zM21 538h98l51 -408l70 408h106l71 -408l51 408h98l-79 -538h-122l-72 432l-72 -432h-122z" />
    <glyph glyph-name="wdieresis" unicode="&#x1e85;" horiz-adv-x="587" 
d="M143 725h101v-114h-101v114zM342 725h101v-114h-101v114zM21 538h98l51 -408l70 408h106l71 -408l51 408h98l-79 -538h-122l-72 432l-72 -432h-122z" />
    <glyph glyph-name="wgrave" unicode="&#x1e81;" horiz-adv-x="587" 
d="M21 538h98l51 -408l70 408h106l71 -408l51 408h98l-79 -538h-122l-72 432l-72 -432h-122zM134 725h134l63 -121h-78z" />
    <glyph glyph-name="ycircumflex" unicode="&#x177;" horiz-adv-x="409" 
d="M42 -101h33q36 0 51 14t25 55l7 34l-153 536h112l96 -422l85 422h106l-135 -542q-13 -53 -27 -86.5t-33.5 -52.5t-47.5 -25.5t-70 -6.5h-49v74zM156 725h99l114 -121h-93l-70 63l-70 -63h-94z" />
    <glyph glyph-name="ygrave" unicode="&#x1ef3;" horiz-adv-x="409" 
d="M42 -101h33q36 0 51 14t25 55l7 34l-153 536h112l96 -422l85 422h106l-135 -542q-13 -53 -27 -86.5t-33.5 -52.5t-47.5 -25.5t-70 -6.5h-49v74zM66 725h134l63 -121h-78z" />
    <glyph glyph-name="uni0233" unicode="&#x233;" horiz-adv-x="409" 
d="M42 -101h33q36 0 51 14t25 55l7 34l-153 536h112l96 -422l85 422h106l-135 -542q-13 -53 -27 -86.5t-33.5 -52.5t-47.5 -25.5t-70 -6.5h-49v74zM87 703h239v-77h-239v77z" />
    <glyph glyph-name="zacute" unicode="&#x17a;" horiz-adv-x="396" 
d="M224 725h133l-120 -121h-77zM19 73l232 391h-208v74h328v-73l-232 -391h238v-74h-358v73z" />
    <glyph glyph-name="zcaron" unicode="&#x17e;" horiz-adv-x="396" 
d="M49 725h94l70 -62l70 62h93l-114 -121h-98zM19 73l232 391h-208v74h328v-73l-232 -391h238v-74h-358v73z" />
    <glyph glyph-name="zdotaccent" unicode="&#x17c;" horiz-adv-x="396" 
d="M19 73l232 391h-208v74h328v-73l-232 -391h238v-74h-358v73zM157 725h101v-114h-101v114z" />
    <glyph glyph-name="uni0259" unicode="&#x259;" horiz-adv-x="474" 
d="M221 -13q-109 0 -154 63t-45 194v35h288v12q0 43 -3 77t-12.5 57.5t-27 36t-45.5 12.5q-39 0 -61 -24t-22 -83v-4h-109v4q0 51 14.5 86t40.5 57t61 31.5t77 9.5q106 0 153.5 -61.5t47.5 -179.5v-82q0 -119 -48.5 -180t-154.5 -61zM219 62q55 0 73 37.5t18 106.5v7h-178
v-7q0 -71 17 -107.5t70 -36.5z" />
    <glyph glyph-name="ellipsis" unicode="&#x2026;" horiz-adv-x="708" 
d="M290 125h128v-125h-128v125zM526 125h128v-125h-128v125zM54 125h128v-125h-128v125z" />
    <glyph glyph-name="endash" unicode="&#x2013;" horiz-adv-x="497" 
d="M31 310h435v-94h-435v94z" />
    <glyph glyph-name="emdash" unicode="&#x2014;" horiz-adv-x="726" 
d="M31 310h664v-94h-664v94z" />
    <glyph glyph-name="guilsinglleft" unicode="&#x2039;" horiz-adv-x="199" 
d="M30 212v135l139 147v-132l-80 -83l80 -82v-132z" />
    <glyph glyph-name="guilsinglright" unicode="&#x203a;" horiz-adv-x="199" 
d="M30 197l79 82l-79 83v132l139 -147v-135l-139 -147v132z" />
    <glyph glyph-name="quoteleft" unicode="&#x2018;" horiz-adv-x="236" 
d="M54 591l67 134h68l-62 -142h55v-126h-128v134z" />
    <glyph glyph-name="quoteright" unicode="&#x2019;" horiz-adv-x="236" 
d="M109 600h-55v125h128v-134l-67 -134h-68z" />
    <glyph glyph-name="quotedblleft" unicode="&#x201c;" horiz-adv-x="422" 
d="M240 591l67 134h68l-62 -142h55v-126h-128v134zM54 591l67 134h68l-62 -142h55v-126h-128v134z" />
    <glyph glyph-name="quotedblright" unicode="&#x201d;" horiz-adv-x="422" 
d="M295 600h-55v125h128v-134l-67 -134h-68zM109 600h-55v125h128v-134l-67 -134h-68z" />
    <glyph glyph-name="quotesinglbase" unicode="&#x201a;" horiz-adv-x="236" 
d="M109 0h-55v125h128v-134l-67 -134h-68z" />
    <glyph glyph-name="quotedblbase" unicode="&#x201e;" horiz-adv-x="422" 
d="M295 0h-55v125h128v-134l-67 -134h-68zM109 0h-55v125h128v-134l-67 -134h-68z" />
    <glyph glyph-name="bullet" unicode="&#x2022;" horiz-adv-x="454" 
d="M223 93q-36 0 -68 14t-56 39t-38 58t-14 72q0 37 14 69t38 56t56 38t68 14q39 0 73 -14t58.5 -38t38.5 -56t14 -69q0 -39 -14 -72t-38.5 -58t-58.5 -39t-73 -14z" />
    <glyph glyph-name="dagger" unicode="&#x2020;" horiz-adv-x="482" 
d="M188 409h-164v94h164v222h105v-222h166v-94h-166v-409h-105v409z" />
    <glyph glyph-name="daggerdbl" unicode="&#x2021;" horiz-adv-x="482" 
d="M188 193h-164v91h164v149h-164v92h164v200h105v-200h166v-92h-166v-149h166v-91h-166v-193h-105v193z" />
    <glyph glyph-name="perthousand" unicode="&#x2030;" horiz-adv-x="1102" 
d="M946 42q19 0 29.5 9.5t15.5 28.5t6 45.5t1 61.5v33q0 34 -1 61.5t-6 46t-15.5 28.5t-29.5 10t-29.5 -10t-16 -28.5t-6.5 -46t-1 -61.5v-33q0 -35 1 -61.5t6.5 -45.5t16 -28.5t29.5 -9.5zM946 -8q-38 0 -63 11t-39.5 34t-20.5 57.5t-6 81.5v55q0 47 6 82t20.5 57.5
t39.5 33.5t63 11q74 0 101.5 -45t27.5 -139v-55q0 -94 -27.5 -139t-101.5 -45zM153 358q19 0 29.5 10t15.5 28.5t6 45.5t1 62v33q0 34 -1 61t-6 46t-15.5 28.5t-29.5 9.5t-30 -9.5t-16 -28.5t-6.5 -46t-1.5 -61v-33q0 -35 1.5 -62t6.5 -45.5t16 -28.5t30 -10zM153 309
q-75 0 -102 45t-27 139v54q0 94 27 139.5t102 45.5q74 0 101.5 -45.5t27.5 -139.5v-54q0 -94 -27.5 -139t-101.5 -45zM481 725h55l-231 -725h-55zM634 42q19 0 29.5 9.5t15.5 28.5t6 45.5t1 61.5v33q0 34 -1 61.5t-6 46t-15.5 28.5t-29.5 10t-29.5 -10t-16 -28.5t-6.5 -46
t-1 -61.5v-33q0 -35 1 -61.5t6.5 -45.5t16 -28.5t29.5 -9.5zM634 -8q-38 0 -63 11t-39.5 34t-20.5 57.5t-6 81.5v55q0 47 6 82t20.5 57.5t39.5 33.5t63 11q74 0 101.5 -45t27.5 -139v-55q0 -94 -27.5 -139t-101.5 -45z" />
    <glyph glyph-name="uni2117" unicode="&#x2117;" horiz-adv-x="831" 
d="M415 39q67 0 124.5 24.5t99.5 68t66 103t24 129.5q0 69 -24 128.5t-66 103t-99.5 68t-124.5 24.5q-66 0 -123.5 -24.5t-99.5 -68t-66 -103t-24 -128.5q0 -70 24 -129.5t66 -103t99.5 -68t123.5 -24.5zM415 -13q-76 0 -143.5 28.5t-118 79t-80 119.5t-29.5 150
q0 80 29.5 148.5t80 118.5t118 78.5t143.5 28.5t144 -28.5t118.5 -78.5t80 -118.5t29.5 -148.5q0 -81 -29.5 -150t-80 -119.5t-118.5 -79t-144 -28.5zM306 164v407h111q39 0 68 -5.5t47.5 -19t28 -36t9.5 -58.5q0 -32 -10.5 -53t-27.5 -34t-37.5 -19t-41.5 -7
q-8 -1 -18.5 -1.5t-20.5 -0.5h-23v-173h-85zM391 392h26q35 0 46.5 12.5t11.5 47.5t-12 46t-47 11h-25v-117z" />
    <glyph glyph-name="trademark" unicode="&#x2122;" horiz-adv-x="676" 
d="M294 725h115l58 -308l60 308h114v-401h-75v322h-1l-3 -30l-63 -292h-64l-62 292l-4 30h-1v-322h-74v401zM94 665h-84v60h251v-60h-85v-341h-82v341z" />
    <glyph glyph-name="lozenge" unicode="&#x25ca;" horiz-adv-x="545" 
d="M435 343l-157 253l-157 -253l157 -253zM5 343l273 428l267 -428l-267 -429z" />
    <glyph glyph-name="uni2113" unicode="&#x2113;" horiz-adv-x="459" 
d="M264 -13q-81 0 -116.5 40.5t-35.5 130.5v49l-75 -56l-41 61l116 89v229q0 100 41 151t120 51q66 0 105 -42t39 -117q0 -47 -14 -84.5t-39.5 -70.5t-61 -63t-77.5 -62l-9 -7v-126q0 -48 15 -69.5t52 -21.5q29 0 51 11.5t40 25.5l40 -62q-24 -22 -61 -39.5t-89 -17.5z
M216 381l8 6q49 37 74 81t25 104q0 42 -14.5 63t-39.5 21q-30 0 -41.5 -27t-11.5 -82v-166z" />
    <glyph glyph-name="uni2116" unicode="&#x2116;" horiz-adv-x="884" 
d="M703 422q34 0 42.5 30t8.5 84v26q0 53 -8.5 83.5t-42.5 30.5t-42.5 -30t-8.5 -84v-26q0 -54 8.5 -84t42.5 -30zM703 370q-131 0 -131 154v50q0 153 131 153q68 0 99 -38t31 -115v-50q0 -77 -31 -115.5t-99 -38.5zM573 334h271v-92h-271v92zM67 725h141l207 -571v571h108
v-725h-141l-207 571v-571h-108v725z" />
    <glyph glyph-name="glyph360" horiz-adv-x="454" 
d="M223 93q-36 0 -68 14t-56 39t-38 58t-14 72q0 37 14 69t38 56t56 38t68 14q39 0 73 -14t58.5 -38t38.5 -56t14 -69q0 -39 -14 -72t-38.5 -58t-58.5 -39t-73 -14z" />
    <glyph glyph-name="estimated" unicode="&#x212e;" horiz-adv-x="558" 
d="M425 302v163q-22 22 -59 37.5t-86 15.5q-46 0 -85 -13.5t-63 -38.5v-164h293zM287 -13q-67 0 -117.5 22.5t-84.5 61t-51.5 89.5t-17.5 109q0 60 19 112t53.5 89.5t83.5 59t109 21.5q63 0 111 -23t81 -62t50.5 -90t18.5 -106h-410v-195q23 -24 67 -39.5t95 -15.5
q72 0 120.5 34t73.5 93h40q-12 -33 -33 -62.5t-51 -51t-69 -34t-88 -12.5z" />
    <glyph glyph-name="minus" unicode="&#x2212;" 
d="M23 311h502v-99h-502v99z" />
    <glyph glyph-name="lessequal" unicode="&#x2264;" 
d="M506 453l-326 -118l326 -118v-95l-463 164v97l463 163v-93zM43 89h463v-89h-463v89z" />
    <glyph glyph-name="greaterequal" unicode="&#x2265;" 
d="M43 546l463 -163v-97l-463 -164v95l327 118l-327 118v93zM506 0h-463v89h463v-89z" />
    <glyph glyph-name="notequal" unicode="&#x2260;" 
d="M62 420h231l54 118h104l-54 -118h90v-89h-131l-60 -130h191v-89h-232l-51 -112h-104l51 112h-89v89h130l60 130h-190v89z" />
    <glyph glyph-name="approxequal" unicode="&#x2248;" 
d="M32 81q5 78 38.5 121t107.5 43q34 0 59 -11t45 -24t39.5 -24t43.5 -11q27 0 42.5 16t17.5 54h91q-4 -77 -37.5 -120.5t-107.5 -43.5q-31 0 -54 11t-43.5 24t-41 24t-47.5 11q-28 0 -43 -16t-19 -54h-91zM32 300q5 78 38.5 121t107.5 43q34 0 59 -11t45 -24t39.5 -24
t43.5 -11q27 0 42.5 16t17.5 54h91q-4 -78 -37 -121t-108 -43q-31 0 -54 11t-43.5 24t-41 24t-47.5 11q-28 0 -43 -16t-19 -54h-91z" />
    <glyph glyph-name="partialdiff" unicode="&#x2202;" horiz-adv-x="485" 
d="M239 -13q-106 0 -156 64.5t-50 174.5v43q0 114 48 172t145 58q43 0 71.5 -15.5t45.5 -35.5l2 3q-5 42 -17.5 78t-39 62t-68 41.5t-104.5 16.5v89q90 0 153 -26t103 -77.5t58.5 -129t18.5 -179.5v-37q0 -68 -10 -124t-34 -95.5t-64.5 -61t-101.5 -21.5zM239 68
q57 0 78.5 42t21.5 120v26q0 80 -22 121t-78 41q-57 0 -78.5 -42t-21.5 -120v-25q0 -78 21.5 -120.5t78.5 -42.5z" />
    <glyph glyph-name="product" unicode="&#x220f;" horiz-adv-x="552" 
d="M69 725h414v-900h-107v808h-201v-808h-106v900z" />
    <glyph glyph-name="radical" unicode="&#x221a;" horiz-adv-x="581" 
d="M122 133l-82 -40l-40 91l164 79l144 -307l167 769h106l-203 -900h-111z" />
    <glyph glyph-name="summation" unicode="&#x2211;" horiz-adv-x="473" 
d="M31 -86l220 360l-217 360v91h419v-92h-304l213 -359l-217 -357h308v-92h-422v89z" />
    <glyph glyph-name="integral" unicode="&#x222b;" horiz-adv-x="339" 
d="M72 -182q-36 0 -62.5 18.5t-26.5 53.5q0 21 14 36t37 15q16 0 30 -11t14 -37q0 -16 -5 -26q30 3 39 36t9 93q0 40 -3 89.5t-3 109.5v258q0 79 11.5 131.5t32.5 84.5t49.5 45.5t62.5 13.5q36 0 61.5 -18.5t25.5 -53.5q0 -22 -13.5 -36.5t-36.5 -14.5q-16 0 -30.5 11
t-14.5 37q0 13 5 26q-29 -3 -39.5 -36t-10.5 -93q0 -26 1 -47t2.5 -46t3 -56.5t1.5 -77.5v-230q0 -79 -11.5 -132t-32 -84.5t-48.5 -45t-62 -13.5z" />
    <glyph glyph-name="infinity" unicode="&#x221e;" horiz-adv-x="781" 
d="M575 90q-56 0 -100 27t-84 72q-41 -45 -84.5 -71.5t-101.5 -26.5q-39 0 -71 12t-55.5 34t-36 52t-12.5 66t13 66.5t36.5 52.5t56.5 34t72 12q54 0 97 -24t85 -71q41 47 84 71t99 24q39 0 72 -12t56.5 -34t36.5 -52.5t13 -66.5t-12.5 -66.5t-35.5 -52.5t-55.5 -34
t-72.5 -12zM208 178q38 0 67 21.5t58 56.5q-29 35 -58 56t-65 21q-38 0 -62 -21.5t-24 -56.5q0 -34 23.5 -55.5t60.5 -21.5zM574 178q35 0 59 21.5t24 55.5t-24 56t-63 22q-36 0 -65 -21t-57 -56q30 -35 60 -56.5t66 -21.5z" />
    <glyph glyph-name="uni0394" unicode="&#x394;" horiz-adv-x="658" 
d="M507 92l-178 431l-178 -431h356zM329 745l322 -745h-644z" />
    <glyph glyph-name="uni0394" unicode="&#x2206;" horiz-adv-x="658" 
d="M507 92l-178 431l-178 -431h356zM329 745l322 -745h-644z" />
    <glyph glyph-name="uni03A9" unicode="&#x3a9;" horiz-adv-x="734" 
d="M74 99h162v61q-33 12 -64 34.5t-55.5 56t-39.5 78.5t-15 102q0 73 22 130.5t62 96.5t96.5 59.5t124.5 20.5t124 -20.5t96.5 -59.5t62.5 -96.5t22 -130.5q0 -57 -15 -102t-39.5 -78.5t-56 -56t-64.5 -34.5v-61h163v-99h-255v218q72 17 115.5 72.5t43.5 138.5
q0 106 -53.5 163.5t-143.5 57.5t-144 -57.5t-54 -163.5q0 -83 43.5 -138.5t115.5 -72.5v-218h-254v99z" />
    <glyph glyph-name="uni03A9" unicode="&#x2126;" horiz-adv-x="734" 
d="M74 99h162v61q-33 12 -64 34.5t-55.5 56t-39.5 78.5t-15 102q0 73 22 130.5t62 96.5t96.5 59.5t124.5 20.5t124 -20.5t96.5 -59.5t62.5 -96.5t22 -130.5q0 -57 -15 -102t-39.5 -78.5t-56 -56t-64.5 -34.5v-61h163v-99h-255v218q72 17 115.5 72.5t43.5 138.5
q0 106 -53.5 163.5t-143.5 57.5t-144 -57.5t-54 -163.5q0 -83 43.5 -138.5t115.5 -72.5v-218h-254v99z" />
    <glyph glyph-name="pi" unicode="&#x3c0;" horiz-adv-x="538" 
d="M92 446h-68v92h483v-92h-69v-288q0 -23 1 -37.5t6.5 -22.5t16.5 -10.5t31 -2.5h22v-85h-36q-40 0 -66.5 5.5t-42 21t-22 44t-6.5 74.5v301h-154v-446h-96v446z" />
    <glyph glyph-name="Euro" unicode="&#x20ac;" horiz-adv-x="595" 
d="M33 445h69q2 75 15 130.5t40.5 91.5t71.5 53.5t107 17.5q111 0 167.5 -60t56.5 -182v-6h-110v5q0 45 -7.5 75.5t-22.5 49t-36.5 26.5t-48.5 8q-33 0 -55 -14t-35.5 -40.5t-19.5 -65.5t-7 -89h208l-34 -57h-175v-56h149l-33 -57h-115q2 -49 8 -86.5t19.5 -63.5t35 -39.5
t54.5 -13.5q27 0 48.5 8t36.5 26.5t22.5 49t7.5 75.5v5h110v-7q0 -121 -56.5 -181.5t-167.5 -60.5q-63 0 -106 17.5t-70.5 53t-40.5 89.5t-16 128h-103l33 57h69v56h-102z" />
    <glyph glyph-name="uniFB01" unicode="&#xfb01;" horiz-adv-x="504" 
d="M336 538h114v-538h-114v538zM71 464h-68v74h68v52q0 42 8.5 68t27.5 41t47.5 20.5t69.5 5.5h56v-71h-34q-19 0 -31 -2.5t-18.5 -9.5t-9 -20t-2.5 -33v-51h95v-74h-95v-464h-114v464zM336 725h114v-117h-114v117z" />
    <glyph glyph-name="uniFB02" unicode="&#xfb02;" horiz-adv-x="504" 
d="M71 464h-68v74h68v52q0 42 8.5 68t27.5 41t47.5 20.5t69.5 5.5h56v-71h-34q-19 0 -31 -2.5t-18.5 -9.5t-9 -20t-2.5 -33v-51h95v-74h-95v-464h-114v464zM336 725h114v-725h-114v725z" />
    <glyph glyph-name="breve" unicode="&#x2d8;" horiz-adv-x="322" 
d="M160 604q-66 0 -99 32t-37 89h79q5 -61 57 -61q53 0 58 61h80q-5 -57 -37.5 -89t-100.5 -32z" />
    <glyph glyph-name="caron" unicode="&#x2c7;" horiz-adv-x="375" 
d="M24 725h94l70 -62l70 62h93l-114 -121h-98z" />
    <glyph glyph-name="circumflex" unicode="&#x2c6;" horiz-adv-x="375" 
d="M138 725h99l114 -121h-93l-70 63l-70 -63h-94z" />
    <glyph glyph-name="dotaccent" unicode="&#x2d9;" horiz-adv-x="149" 
d="M24 725h101v-114h-101v114z" />
    <glyph glyph-name="glyph383" horiz-adv-x="222" 
d="M54 725h114v-117h-114v117z" />
    <glyph glyph-name="glyph384" horiz-adv-x="149" 
d="M24 -66h101v-109h-101v109z" />
    <glyph glyph-name="hungarumlaut" unicode="&#x2dd;" horiz-adv-x="411" 
d="M91 725h133l-120 -121h-77zM258 725h133l-120 -121h-77z" />
    <glyph glyph-name="glyph386" horiz-adv-x="150" 
d="M61 -140h-35v90h100v-96l-42 -85h-60z" />
    <glyph glyph-name="ogonek" unicode="&#x2db;" horiz-adv-x="237" 
d="M146 -188q-24 0 -46 4.5t-39 15t-27 26.5t-10 39q0 29 20.5 56t54.5 47h114q-38 -19 -63.5 -40.5t-25.5 -45.5q0 -20 14 -28t35 -8q14 0 23 2t17 4v-65q-17 -4 -33.5 -5.5t-33.5 -1.5z" />
    <glyph glyph-name="ring" unicode="&#x2da;" horiz-adv-x="231" 
d="M115 632q19 0 32.5 13t13.5 33t-13.5 32.5t-32.5 12.5q-18 0 -31.5 -12.5t-13.5 -32.5t13.5 -33t31.5 -13zM115 591q-38 0 -64.5 24.5t-26.5 62.5t26.5 62.5t64.5 24.5q19 0 36 -6.5t29.5 -18t19.5 -27.5t7 -35q0 -38 -26.5 -62.5t-65.5 -24.5z" />
    <glyph glyph-name="tilde" unicode="&#x2dc;" horiz-adv-x="351" 
d="M24 611q4 32 13.5 53.5t22.5 35t28.5 19.5t31.5 6q17 0 32 -6.5t28.5 -14.5t25 -14.5t21.5 -6.5q25 0 34 42h66q-3 -31 -13 -53t-23.5 -35.5t-28.5 -19.5t-29 -6q-16 0 -31 6.5t-28.5 15t-26 15t-23.5 6.5q-24 0 -33 -43h-67z" />
    <glyph glyph-name="glyph390" horiz-adv-x="183" 
d="M50 725h109l-59 -170h-76z" />
    <glyph glyph-name="uni032C" unicode="&#x32c;" horiz-adv-x="415" 
d="M24 0h92l90 -70l93 70h92l-153 -138h-64z" />
    <glyph glyph-name="zero.zero" horiz-adv-x="530" 
d="M265 -13q-64 0 -107 20t-69.5 60.5t-37.5 102.5t-11 146v94q0 84 11 146t37.5 102.5t69.5 60t107 19.5t107 -19.5t69 -60t37.5 -102.5t11.5 -146v-94q0 -84 -11.5 -146t-37.5 -102.5t-69 -60.5t-107 -20zM156 347l216 105q-1 50 -6 89t-16.5 65.5t-32 40.5t-52.5 14
q-38 0 -59.5 -18t-32.5 -52.5t-14 -85t-3 -114.5v-44zM265 65q37 0 58.5 18t32.5 52.5t14 85t3 114.5v35l-216 -106q1 -48 6.5 -85t17.5 -62.5t32 -38.5t52 -13z" />
    <glyph glyph-name="one.oldstyle" horiz-adv-x="308" 
d="M123 498h-109v71q39 1 62.5 3t37.5 10t21.5 24t13.5 46h89v-652h-115v498z" />
    <glyph glyph-name="two.oldstyle" horiz-adv-x="468" 
d="M44 84l73 91q45 56 80 102t59 84.5t37 72t13 65.5q0 42 -17.5 65t-54.5 23q-39 0 -56.5 -30t-17.5 -95v-6h-109v6q0 100 45.5 151t145.5 51q86 0 134 -40t48 -118q0 -39 -13.5 -77.5t-38 -79.5t-58.5 -86t-74 -97l-61 -77h248v-89h-383v84z" />
    <glyph glyph-name="three.oldstyle" horiz-adv-x="481" 
d="M225 -13q-42 0 -76 10.5t-58.5 33t-38 57.5t-13.5 84v4h109v-4q0 -50 17 -79t62 -29q28 0 46 9.5t28 25t13.5 37t3.5 45.5q0 26 -4.5 47t-17 36t-33.5 23.5t-54 8.5h-39v80h35q52 0 72 28t20 78q0 49 -15.5 76.5t-59.5 27.5q-41 0 -55 -23.5t-14 -80.5v-4h-110v4
q0 49 13.5 83t37.5 56t58 32t75 10q40 0 74.5 -8.5t60 -28t40.5 -52t15 -80.5q0 -32 -8 -57.5t-21.5 -44t-31.5 -30t-37 -17.5q54 -15 85.5 -55t31.5 -109q0 -104 -55 -149t-156 -45z" />
    <glyph glyph-name="four.oldstyle" horiz-adv-x="487" 
d="M263 162h-239v83l241 407h112v-400h79v-90h-79v-162h-114v162zM263 252v256l-153 -256h153z" />
    <glyph glyph-name="five.oldstyle" horiz-adv-x="475" 
d="M231 -13q-41 0 -76 10.5t-60 33t-39 57.5t-14 84v4h107v-4q0 -51 19 -79.5t63 -28.5t61.5 34t17.5 95v40q0 60 -18.5 94t-61.5 34q-31 0 -49 -18.5t-26 -51.5l-105 4l31 356h332v-89h-242l-16 -189q11 26 40.5 47.5t74.5 21.5q159 0 159 -206v-44q0 -205 -198 -205z" />
    <glyph glyph-name="six.oldstyle" horiz-adv-x="499" 
d="M259 -13q-56 0 -95 16t-63 50t-35 87t-11 126v92q0 76 9.5 133.5t33 95.5t63.5 57t100 19q46 0 79.5 -13t55 -36t31.5 -54.5t10 -69.5v-6h-107v5q0 51 -17.5 74t-53.5 23q-28 0 -45 -13t-26 -38.5t-12 -63.5t-3 -88v-29q5 13 14.5 26.5t24.5 24t34.5 17.5t43.5 7
q163 0 163 -204v-32q0 -103 -49 -154.5t-145 -51.5zM252 64q42 0 62 33t20 95v28q0 61 -20 95t-62 34t-61.5 -34.5t-19.5 -95.5v-26q0 -61 19.5 -95t61.5 -34z" />
    <glyph glyph-name="seven.oldstyle" horiz-adv-x="429" 
d="M93 0q7 178 66.5 316t160.5 247h-285v89h382v-89q-54 -61 -92 -123t-62.5 -130.5t-36 -144.5t-13.5 -165h-120z" />
    <glyph glyph-name="eight.oldstyle" horiz-adv-x="504" 
d="M253 -13q-100 0 -155 45t-55 150q0 71 31 110t77 55q-14 5 -30.5 16t-30 29t-22.5 43.5t-9 59.5q0 47 15 79t41 52t61.5 28.5t76.5 8.5q40 0 75.5 -8.5t61 -28.5t40.5 -52t15 -79q0 -34 -9 -59.5t-22.5 -43.5t-29.5 -29t-30 -16q45 -16 76 -55t31 -110q0 -105 -54.5 -150
t-153.5 -45zM253 64q51 0 70 31.5t19 82.5v11q0 51 -19 82.5t-70 31.5q-26 0 -43.5 -8.5t-28 -23.5t-15 -36t-4.5 -46v-11q0 -25 4.5 -46t15 -36t28 -23.5t43.5 -8.5zM253 378q44 0 59 26.5t15 73.5v8q0 48 -15 74t-59 26q-45 0 -60.5 -26t-15.5 -74v-8q0 -47 15.5 -73.5
t60.5 -26.5z" />
    <glyph glyph-name="nine.oldstyle" horiz-adv-x="499" 
d="M238 -13q-47 0 -80 13t-55 36t-32 54.5t-10 69.5v5h109v-4q0 -51 17 -74t53 -23q27 0 44 13t26 38.5t12 63.5t3 88v28q-5 -13 -14.5 -26t-24 -23.5t-34 -17t-43.5 -6.5q-163 0 -163 203v33q0 205 195 205q55 0 93.5 -16t62.5 -50t35 -87t11 -126v-91q0 -77 -9.5 -134.5
t-32.5 -95.5t-63 -57t-100 -19zM246 301q42 0 62 34.5t20 95.5v26q0 62 -20 95.5t-62 33.5t-61.5 -33.5t-19.5 -94.5v-28q0 -61 19.5 -95t61.5 -34z" />
    <glyph glyph-name="zero.oldstyle" horiz-adv-x="514" 
d="M257 64q31 0 48.5 16t26.5 46t11 73t2 98v55q0 55 -2 98.5t-11 73.5t-26.5 46t-48.5 16t-48.5 -16t-26.5 -46t-11 -73.5t-2 -98.5v-55q0 -55 2 -98t11 -73t26.5 -46t48.5 -16zM257 -13q-59 0 -98.5 18t-63 54t-33.5 91.5t-10 130.5v88q0 75 10 130.5t33.5 91.5t63 54
t98.5 18t98.5 -18t63 -54t33.5 -91.5t10 -130.5v-88q0 -75 -10 -130.5t-33.5 -91.5t-63 -54t-98.5 -18z" />
    <glyph glyph-name="zero.oldstyle.zero" horiz-adv-x="514" 
d="M257 -13q-59 0 -98.5 18t-63 54t-33.5 91.5t-10 130.5v88q0 75 10 130.5t33.5 91.5t63 54t98.5 18t98.5 -18t63 -54t33.5 -91.5t10 -130.5v-88q0 -75 -10 -130.5t-33.5 -91.5t-63 -54t-98.5 -18zM257 64q31 0 48.5 16t26.5 46t11 73t2 98v37l-176 -91q1 -42 4.5 -75.5
t13 -56.5t26.5 -35t44 -12zM169 324l175 91q-1 40 -5 72t-13.5 54t-26 33.5t-42.5 11.5q-31 0 -48.5 -16t-26.5 -46t-11 -73.5t-2 -98.5v-28z" />
    <glyph glyph-name="one.tnum" 
d="M56 89h170v470h-156v72q43 1 74 3.5t52.5 12t34 28t20.5 50.5h89v-636h153v-89h-437v89z" />
    <glyph glyph-name="two.tnum" 
d="M66 84l81 102q48 61 87.5 112t68 96t44.5 84.5t16 77.5q0 105 -90 105q-48 0 -70.5 -36t-22.5 -108v-7h-107v6q0 109 50.5 165.5t157.5 56.5q92 0 145 -43t53 -132q0 -44 -16 -88.5t-44.5 -92t-68 -99t-85.5 -110.5l-66 -84h283v-89h-416v84z" />
    <glyph glyph-name="three.tnum" 
d="M261 -13q-92 0 -147.5 49t-55.5 153v4h107v-4q0 -56 21.5 -90t76.5 -34q34 0 55.5 10.5t34 29t17 43t4.5 52.5q0 31 -6 56t-21 43t-41 27.5t-66 9.5h-42v80h39q62 0 88 32t26 94q0 57 -20.5 88.5t-72.5 31.5q-49 0 -67.5 -29.5t-18.5 -92.5v-4h-108v4q0 103 54.5 150.5
t144.5 47.5q43 0 80.5 -9t65.5 -30.5t44 -57.5t16 -89q0 -71 -32 -112.5t-79 -54.5q62 -17 97 -62t35 -122q0 -113 -59.5 -163.5t-169.5 -50.5z" />
    <glyph glyph-name="four.tnum" 
d="M312 183h-273v83l275 459h111v-453h85v-89h-85v-183h-113v183zM312 272v309l-187 -309h187z" />
    <glyph glyph-name="five.tnum" 
d="M269 -13q-46 0 -84 12t-65.5 37t-42.5 63t-15 90v4h107v-4q0 -59 23.5 -91.5t76.5 -32.5q54 0 77.5 39.5t23.5 111.5v42q0 72 -24.5 112t-76.5 40q-38 0 -60.5 -23t-34.5 -62l-102 4l35 396h361v-88h-272l-20 -223q14 29 47.5 52.5t84.5 23.5q88 0 133 -57.5t45 -169.5
v-49q0 -112 -55.5 -169.5t-161.5 -57.5z" />
    <glyph glyph-name="six.tnum" 
d="M278 -13q-59 0 -100.5 17t-68.5 53t-39.5 93t-12.5 137v102q0 87 10.5 152.5t36 109t69 65.5t110.5 22q50 0 86.5 -14t60.5 -39.5t35.5 -60.5t11.5 -77v-6h-107v5q0 116 -89 116q-33 0 -54 -15.5t-33.5 -46t-17 -76t-4.5 -104.5v-29q5 15 16.5 30.5t28.5 28.5t39.5 21
t51.5 8q88 0 136 -57t48 -170v-38q0 -115 -55.5 -171t-158.5 -56zM273 65q51 0 76 39t25 112v29q0 73 -25 113t-76 40t-77 -40.5t-26 -113.5v-27q0 -73 26 -112.5t77 -39.5z" />
    <glyph glyph-name="seven.tnum" 
d="M137 0q9 204 75 358.5t182 278.5h-338v88h436v-88q-62 -68 -105.5 -137.5t-71.5 -147t-42.5 -164t-17.5 -188.5h-118z" />
    <glyph glyph-name="eight.tnum" 
d="M274 67q59 0 84.5 35.5t25.5 95.5v13q0 60 -25 96t-85 36q-59 0 -84.5 -36t-25.5 -96v-13q0 -60 25.5 -95.5t84.5 -35.5zM274 -13q-109 0 -169 50t-60 166q0 41 9.5 72t26 53.5t38.5 37t46 22.5q-16 6 -34 18t-33 32t-25 48.5t-10 66.5q0 51 16 86.5t44 57t66.5 31.5
t84.5 10q45 0 84 -10t67.5 -31.5t44.5 -57t16 -86.5q0 -38 -10 -66.5t-25 -48.5t-33.5 -32t-34.5 -18q24 -8 46 -22.5t38.5 -37t26 -53.5t9.5 -72q0 -58 -15.5 -99t-44.5 -67t-71.5 -38t-97.5 -12zM274 420q50 0 71.5 30t21.5 81v17q0 51 -21 81.5t-72 30.5q-50 0 -71 -30.5
t-21 -81.5v-17q0 -51 21 -81t71 -30z" />
    <glyph glyph-name="nine.tnum" 
d="M266 -13q-50 0 -86.5 14.5t-60 40t-34.5 60.5t-11 76v6h107v-4q0 -57 21 -86t66 -29q33 0 54.5 15.5t33.5 46t16.5 75.5t4.5 104v29q-6 -15 -17 -30.5t-28.5 -28.5t-40 -21t-50.5 -8q-88 0 -136 56.5t-48 170.5v38q0 115 55.5 170.5t158.5 55.5q58 0 100 -17t69 -53
t39.5 -93t12.5 -137v-101q0 -87 -10.5 -153t-36 -109.5t-69 -65.5t-110.5 -22zM276 328q51 0 76.5 40.5t25.5 113.5v27q0 73 -25.5 113t-76.5 40t-76.5 -39.5t-25.5 -112.5v-29q0 -74 25.5 -113.5t76.5 -39.5z" />
    <glyph glyph-name="zero.tnum" 
d="M274 65q37 0 59 18t32.5 52.5t13.5 85t3 114.5v56q0 64 -3 114.5t-13.5 85t-32.5 52.5t-59 18t-58.5 -18t-32.5 -52.5t-14 -85t-3 -114.5v-56q0 -64 3 -114.5t14 -85t32.5 -52.5t58.5 -18zM274 -13q-64 0 -107 20t-69.5 60.5t-37.5 102.5t-11 146v94q0 84 11 146
t37.5 102.5t69.5 60t107 19.5t107 -19.5t69.5 -60t37.5 -102.5t11 -146v-94q0 -84 -11 -146t-37.5 -102.5t-69.5 -60.5t-107 -20z" />
    <glyph glyph-name="zero.tnum.zero" 
d="M274 -13q-64 0 -107 20t-69.5 60.5t-37.5 102.5t-11 146v94q0 84 11 146t37.5 102.5t69.5 60t107 19.5t107 -19.5t69.5 -60t37.5 -102.5t11 -146v-94q0 -84 -11 -146t-37.5 -102.5t-69.5 -60.5t-107 -20zM166 348l215 105q-1 49 -5.5 88t-16.5 65.5t-32 40.5t-53 14
q-37 0 -58.5 -18t-32.5 -52.5t-14 -85t-3 -114.5v-43zM274 65q37 0 59 18t32.5 52.5t13.5 85t3 114.5v38l-216 -106q1 -48 6.5 -86t17.5 -63.5t32 -39t52 -13.5z" />
    <glyph glyph-name="one.case" horiz-adv-x="331" 
d="M138 558h-126v73q45 1 72 3.5t42.5 11.5t23 27.5t14.5 51.5h92v-725h-118v558z" />
    <glyph glyph-name="two.case" horiz-adv-x="497" 
d="M41 87l81 101q49 61 88 112.5t67 96t43 83.5t15 76q0 103 -86 103q-48 0 -68.5 -35.5t-20.5 -107.5v-7h-112v7q0 109 50.5 165.5t159.5 56.5q92 0 145 -43.5t53 -131.5q0 -44 -16 -88t-44 -90.5t-67 -98t-85 -110.5l-65 -85h280v-91h-418v87z" />
    <glyph glyph-name="three.case" horiz-adv-x="515" 
d="M240 -13q-93 0 -149 49.5t-56 153.5v4h111v-4q0 -56 21 -89.5t74 -33.5q33 0 54.5 10.5t33.5 29t16.5 43t4.5 52.5q0 30 -5.5 54.5t-20.5 41.5t-40.5 26.5t-64.5 9.5h-41v83h39q60 0 85 32t25 92q0 56 -20 87.5t-71 31.5q-48 0 -66 -29t-18 -91v-5h-111v5q0 52 14.5 89.5
t40.5 61.5t63 35.5t82 11.5q43 0 81 -9t66 -30.5t44 -57.5t16 -89q0 -72 -32 -113t-78 -54q62 -17 97.5 -62t35.5 -121q0 -113 -61 -164t-170 -51z" />
    <glyph glyph-name="four.case" horiz-adv-x="519" 
d="M288 182h-271v85l273 458h116v-450h86v-93h-86v-182h-118v182zM288 275v302l-184 -302h184z" />
    <glyph glyph-name="five.case" horiz-adv-x="508" 
d="M246 -13q-46 0 -84.5 12t-66 37t-42.5 63.5t-15 90.5v4h111v-4q0 -59 22.5 -91t74.5 -32t74 39.5t22 109.5v43q0 70 -23 109.5t-74 39.5q-37 0 -58.5 -22.5t-32.5 -60.5l-105 4l34 396h363v-90h-272l-19 -221q13 29 47 52.5t85 23.5q177 0 177 -226v-50
q0 -112 -55.5 -169.5t-162.5 -57.5z" />
    <glyph glyph-name="six.case" horiz-adv-x="532" 
d="M273 -13q-59 0 -101.5 17.5t-69.5 54t-39.5 94t-12.5 137.5v101q0 87 10.5 152t36.5 108.5t69.5 65t110.5 21.5q51 0 88 -14t60.5 -39.5t35 -60.5t11.5 -77v-6h-110v5q0 114 -87 114q-32 0 -52.5 -15.5t-32 -45.5t-15.5 -74.5t-4 -102.5v-30q5 15 16 30.5t28 28t39 20.5
t50 8q88 0 136 -57t48 -170v-38q0 -115 -55.5 -171t-159.5 -56zM267 67q50 0 75 38.5t25 110.5v29q0 72 -25 111t-75 39q-49 0 -73.5 -39.5t-24.5 -111.5v-27q0 -72 24.5 -111t73.5 -39z" />
    <glyph glyph-name="seven.case" horiz-adv-x="442" 
d="M81 0q4 101 22.5 189.5t51.5 167t78.5 147t103.5 130.5h-323v91h423v-91q-62 -67 -105 -136.5t-70.5 -146.5t-41 -163.5t-16.5 -187.5h-123z" />
    <glyph glyph-name="eight.case" horiz-adv-x="540" 
d="M270 420q50 0 71.5 30t21.5 81v17q0 51 -21 81.5t-72 30.5q-50 0 -71 -30.5t-21 -81.5v-17q0 -51 21 -81t71 -30zM270 -13q-109 0 -169.5 50t-60.5 166q0 41 10 72t26.5 53.5t38.5 37t46 22.5q-16 6 -34.5 18t-34 32t-26 48.5t-10.5 66.5q0 51 16.5 86.5t45 57t67.5 31.5
t85 10q45 0 84 -10t67.5 -31.5t45 -57t16.5 -86.5q0 -38 -10 -66.5t-25.5 -48.5t-34 -32t-34.5 -18q24 -8 46 -22.5t38.5 -37t26.5 -53.5t10 -72q0 -58 -15.5 -99t-45 -67t-72 -38t-97.5 -12zM270 67q59 0 84.5 35.5t25.5 95.5v13q0 60 -25 96t-85 36q-59 0 -84.5 -36
t-25.5 -96v-13q0 -60 25.5 -95.5t84.5 -35.5z" />
    <glyph glyph-name="nine.case" horiz-adv-x="526" 
d="M249 -13q-50 0 -86.5 14.5t-60 40t-35 60.5t-11.5 76v6h111v-4q0 -113 84 -113q33 0 53.5 15t32 45t15.5 74.5t4 102.5v30q-5 -15 -16 -30.5t-28 -28t-39 -20.5t-50 -8q-88 0 -135.5 56.5t-47.5 170.5v38q0 115 55 170.5t159 55.5q59 0 101 -17t69 -53.5t39.5 -94
t12.5 -137.5v-101q0 -87 -10.5 -152.5t-36 -109t-69.5 -65t-111 -21.5zM260 330q50 0 74.5 40t24.5 112v27q0 72 -24.5 111.5t-74.5 39.5t-74.5 -39t-24.5 -111v-29q0 -72 24.5 -111.5t74.5 -39.5z" />
    <glyph glyph-name="zero.case" horiz-adv-x="552" 
d="M275 67q37 0 58 18t31.5 52.5t13.5 84.5t3 113v56q0 63 -3 113t-13.5 84t-31.5 52t-58 18q-36 0 -57 -18t-31.5 -52t-13 -84t-2.5 -113v-56q0 -63 2.5 -113t13 -84.5t31.5 -52.5t57 -18zM275 -13q-64 0 -107 19.5t-69.5 60t-37.5 102.5t-11 146v96q0 84 11 145.5
t37.5 102t69.5 60t107 19.5t108 -19.5t70 -60t37.5 -102t11.5 -145.5v-96q0 -84 -11.5 -146t-37.5 -102.5t-70 -60t-108 -19.5z" />
    <glyph glyph-name="zero.case.zero" horiz-adv-x="552" 
d="M275 -13q-64 0 -107 19.5t-69.5 60t-37.5 102.5t-11 146v96q0 84 11 145.5t37.5 102t69.5 60t107 19.5t108 -19.5t70 -60t37.5 -102t11.5 -145.5v-96q0 -84 -11.5 -146t-37.5 -102.5t-70 -60t-108 -19.5zM275 67q37 0 58 18t31.5 52.5t13.5 84.5t3 113v40l-210 -102
q1 -49 5.5 -87.5t16 -64.5t31 -40t51.5 -14zM171 356l209 102q-1 48 -6 85t-16.5 62.5t-31.5 39t-51 13.5q-36 0 -57 -18t-31.5 -52t-13 -84t-2.5 -113v-35z" />
    <glyph glyph-name="uni21B2" unicode="&#x21b2;" horiz-adv-x="800" 
d="M619 725h102v-507h-516l195 -193l-69 -67l-311 311l311 311l67 -67l-193 -193h414v405z" />
    <glyph glyph-name="uni21B3" unicode="&#x21b3;" horiz-adv-x="800" 
d="M181 725v-405h414l-193 193l67 67l311 -311l-311 -311l-69 67l195 193h-516v507h102z" />
    <glyph glyph-name="uni21B0" unicode="&#x21b0;" horiz-adv-x="800" 
d="M619 -175v393h-414l193 -193l-67 -67l-311 311l311 311l69 -67l-195 -193h516v-495h-102z" />
    <glyph glyph-name="uni21B1" unicode="&#x21b1;" horiz-adv-x="800" 
d="M469 -42l-67 67l193 193h-374v-393h-102v495h476l-195 193l69 67l311 -311z" />
    <glyph glyph-name="arrowleft" unicode="&#x2190;" horiz-adv-x="800" 
d="M205 218l193 -193l-67 -67l-311 311l311 311l69 -67l-195 -193h556v-102h-556z" />
    <glyph glyph-name="arrowup" unicode="&#x2191;" horiz-adv-x="800" 
d="M349 556l-193 -193l-67 67l311 311l311 -311l-67 -69l-193 195v-556h-102v556z" />
    <glyph glyph-name="arrowright" unicode="&#x2192;" horiz-adv-x="800" 
d="M595 320l-193 193l67 67l311 -311l-311 -311l-69 67l195 193h-556v102h556z" />
    <glyph glyph-name="arrowdown" unicode="&#x2193;" horiz-adv-x="800" 
d="M451 169l193 193l67 -67l-311 -311l-311 311l67 69l193 -195v556h102v-556z" />
    <glyph glyph-name="uni2196" unicode="&#x2196;" horiz-adv-x="800" 
d="M233 371v-273h-95v440h440v-95h-273l393 -393l-72 -72z" />
    <glyph glyph-name="uni2197" unicode="&#x2197;" horiz-adv-x="800" 
d="M495 442h-273v95h440v-440h-95v273l-393 -393l-72 72z" />
    <glyph glyph-name="uni2198" unicode="&#x2198;" horiz-adv-x="800" 
d="M567 167v273h95v-440h-440v95h273l-393 393l72 72z" />
    <glyph glyph-name="uni2199" unicode="&#x2199;" horiz-adv-x="800" 
d="M305 95h273v-95h-440v440h95v-273l393 393l72 -72z" />
    <glyph glyph-name="uni219E" unicode="&#x219e;" horiz-adv-x="800" 
d="M486 218l193 -193l-67 -67l-260 260h-147l193 -193l-67 -67l-311 311l311 311l69 -67l-195 -193h147l260 260l69 -67l-195 -193h275v-102h-275z" />
    <glyph glyph-name="uni219F" unicode="&#x219f;" horiz-adv-x="800" 
d="M349 275l-193 -193l-67 67l260 260v147l-193 -193l-67 67l311 311l311 -311l-67 -69l-193 195v-147l260 -260l-67 -69l-193 195v-275h-102v275z" />
    <glyph glyph-name="uni21A0" unicode="&#x21a0;" horiz-adv-x="800" 
d="M314 320l-193 193l67 67l260 -260h147l-193 193l67 67l311 -311l-311 -311l-69 67l195 193h-147l-260 -260l-69 67l195 193h-275v102h275z" />
    <glyph glyph-name="uni21A1" unicode="&#x21a1;" horiz-adv-x="800" 
d="M451 450l193 193l67 -67l-260 -260v-147l193 193l67 -67l-311 -311l-311 311l67 69l193 -195v147l-260 260l67 69l193 -195v275h102v-275z" />
    <glyph glyph-name="uni21A2" unicode="&#x21a2;" horiz-adv-x="800" 
d="M683 -42l-260 260h-218l193 -193l-67 -67l-311 311l311 311l69 -67l-195 -193h218l260 260l69 -67l-246 -243l244 -245z" />
    <glyph glyph-name="uni21A3" unicode="&#x21a3;" horiz-adv-x="800" 
d="M294 270l-246 243l69 67l260 -260h218l-195 193l69 67l311 -311l-311 -311l-67 67l193 193h-218l-260 -260l-67 67z" />
    <glyph glyph-name="uni21A4" unicode="&#x21a4;" horiz-adv-x="800" 
d="M609 0v218h-404l193 -193l-67 -67l-311 311l311 311l69 -67l-195 -193h404v218h102v-538h-102z" />
    <glyph glyph-name="uni21A5" unicode="&#x21a5;" horiz-adv-x="800" 
d="M131 102h218v454l-193 -193l-67 67l311 311l311 -311l-67 -69l-193 195v-454h218v-102h-538v102z" />
    <glyph glyph-name="uni21A6" unicode="&#x21a6;" horiz-adv-x="800" 
d="M191 538v-218h404l-193 193l67 67l311 -311l-311 -311l-69 67l195 193h-404v-218h-102v538h102z" />
    <glyph glyph-name="uni21A7" unicode="&#x21a7;" horiz-adv-x="800" 
d="M669 623h-218v-454l193 193l67 -67l-311 -311l-311 311l67 69l193 -195v454h-218v102h538v-102z" />
    <glyph glyph-name="filledbox" unicode="&#x25a0;" horiz-adv-x="624" 
d="M43 538h538v-538h-538v538z" />
    <glyph glyph-name="H22073" unicode="&#x25a1;" horiz-adv-x="624" 
d="M43 538h538v-538h-538v538zM144 101h336v336h-336v-336z" />
    <glyph glyph-name="circle" unicode="&#x25cb;" horiz-adv-x="602" 
d="M301 452q-40 0 -73.5 -14.5t-57.5 -39.5t-37 -58.5t-13 -71.5t13 -71t37 -58t57.5 -39.5t73.5 -14.5t73 14.5t57 39.5t37.5 58t13.5 71t-13.5 71.5t-37.5 58.5t-57 39.5t-73 14.5zM301 550q61 0 113 -22.5t89.5 -60.5t59 -89.5t21.5 -109.5t-21.5 -109t-59 -89.5
t-89.5 -60.5t-113 -22t-113 22t-89.5 60.5t-59 89.5t-21.5 109t21.5 109.5t59 89.5t89.5 60.5t113 22.5z" />
    <glyph glyph-name="H18533" unicode="&#x25cf;" horiz-adv-x="602" 
d="M301 -13q-61 0 -113 22t-89.5 60.5t-59 89.5t-21.5 109t21.5 109.5t59 89.5t89.5 60.5t113 22.5t113 -22.5t89.5 -60.5t59 -89.5t21.5 -109.5t-21.5 -109t-59 -89.5t-89.5 -60.5t-113 -22z" />
    <glyph glyph-name="onethird" unicode="&#x2153;" horiz-adv-x="649" 
d="M73 626h-71v48q24 0 39 1.5t23.5 6.5t13 15t8.5 28h59v-408h-72v309zM358 725h55l-231 -725h-55zM492 -8q-53 0 -85 27t-32 90v2h70v-2q0 -32 10.5 -49.5t37.5 -17.5q34 0 44.5 21t10.5 51q0 31 -13 51t-54 20h-23v52h22q32 0 43.5 17t11.5 48q0 29 -9.5 46.5t-36.5 17.5
q-23 0 -32 -14.5t-9 -49.5v-2h-71v2q0 62 32.5 87.5t83.5 25.5q25 0 46.5 -5t37.5 -17t25 -32.5t9 -51.5q0 -41 -18.5 -63t-41.5 -29q35 -10 54.5 -35t19.5 -68q0 -66 -35 -94t-98 -28z" />
    <glyph glyph-name="uni2155" unicode="&#x2155;" horiz-adv-x="639" 
d="M73 626h-71v48q24 0 39 1.5t23.5 6.5t13 15t8.5 28h59v-408h-72v309zM358 725h55l-231 -725h-55zM495 -8q-52 0 -86 27.5t-34 89.5v2h72v-2q0 -32 10.5 -49.5t37.5 -17.5q26 0 36.5 21t10.5 58v25q0 37 -11 58t-37 21q-19 0 -29.5 -11.5t-16.5 -31.5l-66 3l20 223h207
v-57h-150l-11 -118q8 17 27 30t45 13q99 0 99 -127v-29q0 -128 -124 -128z" />
    <glyph glyph-name="uni2159" unicode="&#x2159;" horiz-adv-x="652" 
d="M73 626h-71v48q24 0 39 1.5t23.5 6.5t13 15t8.5 28h59v-408h-72v309zM358 725h55l-231 -725h-55zM511 -8q-71 0 -99.5 42.5t-28.5 133.5v57q0 48 6 83.5t20.5 59t39.5 35.5t63 12q59 0 85.5 -30.5t26.5 -77.5v-4h-70v2q0 33 -11 47t-32 14q-33 0 -42 -31.5t-9 -93.5v-18
q6 17 24.5 31.5t47.5 14.5q100 0 100 -128v-21q0 -128 -121 -128zM507 42q49 0 49 79v17q0 37 -11.5 58t-37.5 21q-25 0 -37 -21t-12 -59v-17q0 -37 12 -57.5t37 -20.5z" />
    <glyph glyph-name="oneeighth" unicode="&#x215b;" horiz-adv-x="659" 
d="M73 626h-71v48q24 0 39 1.5t23.5 6.5t13 15t8.5 28h59v-408h-72v309zM358 725h55l-231 -725h-55zM507 -8q-63 0 -97 28t-34 95q0 43 19 67.5t47 35.5q-9 3 -19 10t-18.5 18t-14 26.5t-5.5 36.5q0 30 9.5 50.5t26 32.5t38.5 17.5t48 5.5t48 -5.5t38.5 -17.5t25.5 -32.5
t9 -50.5q0 -21 -5.5 -36.5t-14 -26.5t-18 -18t-18.5 -10q29 -11 47.5 -35.5t18.5 -67.5q0 -67 -34 -95t-97 -28zM507 42q32 0 43.5 19.5t11.5 51.5v6q0 31 -11.5 50.5t-43.5 19.5t-44 -19.5t-12 -50.5v-6q0 -32 12 -51.5t44 -19.5zM507 238q28 0 36.5 16t8.5 46v3
q0 30 -8.5 46.5t-36.5 16.5q-27 0 -36 -16.5t-9 -46.5v-3q0 -30 9 -46t36 -16z" />
    <glyph glyph-name="twothirds" unicode="&#x2154;" horiz-adv-x="748" 
d="M24 372l45 57q56 70 87 116t31 85q0 52 -45 52q-23 0 -33 -18t-10 -58v-4h-73v4q0 126 121 126q55 0 85 -25t30 -73t-31 -97.5t-82 -113.5l-38 -49h152v-57h-239v55zM457 725h55l-231 -725h-55zM591 -8q-53 0 -85 27t-32 90v2h70v-2q0 -32 10.5 -49.5t37.5 -17.5
q34 0 44.5 21t10.5 51q0 31 -13 51t-54 20h-23v52h22q32 0 43.5 17t11.5 48q0 29 -9.5 46.5t-36.5 17.5q-23 0 -32 -14.5t-9 -49.5v-2h-71v2q0 62 32.5 87.5t83.5 25.5q25 0 46.5 -5t37.5 -17t25 -32.5t9 -51.5q0 -41 -18.5 -63t-41.5 -29q35 -10 54.5 -35t19.5 -68
q0 -66 -35 -94t-98 -28z" />
    <glyph glyph-name="uni2156" unicode="&#x2156;" horiz-adv-x="738" 
d="M24 372l45 57q56 70 87 116t31 85q0 52 -45 52q-23 0 -33 -18t-10 -58v-4h-73v4q0 126 121 126q55 0 85 -25t30 -73t-31 -97.5t-82 -113.5l-38 -49h152v-57h-239v55zM457 725h55l-231 -725h-55zM594 -8q-52 0 -86 27.5t-34 89.5v2h72v-2q0 -32 10.5 -49.5t37.5 -17.5
q26 0 36.5 21t10.5 58v25q0 37 -11 58t-37 21q-19 0 -29.5 -11.5t-16.5 -31.5l-66 3l20 223h207v-57h-150l-11 -118q8 17 27 30t45 13q99 0 99 -127v-29q0 -128 -124 -128z" />
    <glyph glyph-name="uni2157" unicode="&#x2157;" horiz-adv-x="748" 
d="M137 309q-53 0 -85 26.5t-32 89.5v2h70v-2q0 -31 10.5 -49t37.5 -18q34 0 44.5 21t10.5 51q0 31 -13 51.5t-54 20.5h-23v51h22q32 0 43.5 17t11.5 48q0 30 -9.5 47t-36.5 17q-23 0 -32 -14t-9 -49v-2h-71v2q0 61 32.5 87t83.5 26q25 0 46.5 -5t37.5 -17.5t25 -33t9 -51.5
q0 -41 -18.5 -63t-41.5 -29q35 -10 54.5 -35t19.5 -68q0 -66 -35 -93.5t-98 -27.5zM467 725h55l-231 -725h-55zM604 -8q-52 0 -86 27.5t-34 89.5v2h72v-2q0 -32 10.5 -49.5t37.5 -17.5q26 0 36.5 21t10.5 58v25q0 37 -11 58t-37 21q-19 0 -29.5 -11.5t-16.5 -31.5l-66 3
l20 223h207v-57h-150l-11 -118q8 17 27 30t45 13q99 0 99 -127v-29q0 -128 -124 -128z" />
    <glyph glyph-name="threeeighths" unicode="&#x215c;" horiz-adv-x="768" 
d="M137 309q-53 0 -85 26.5t-32 89.5v2h70v-2q0 -31 10.5 -49t37.5 -18q34 0 44.5 21t10.5 51q0 31 -13 51.5t-54 20.5h-23v51h22q32 0 43.5 17t11.5 48q0 30 -9.5 47t-36.5 17q-23 0 -32 -14t-9 -49v-2h-71v2q0 61 32.5 87t83.5 26q25 0 46.5 -5t37.5 -17.5t25 -33t9 -51.5
q0 -41 -18.5 -63t-41.5 -29q35 -10 54.5 -35t19.5 -68q0 -66 -35 -93.5t-98 -27.5zM467 725h55l-231 -725h-55zM616 -8q-63 0 -97 28t-34 95q0 43 19 67.5t47 35.5q-9 3 -19 10t-18.5 18t-14 26.5t-5.5 36.5q0 30 9.5 50.5t26 32.5t38.5 17.5t48 5.5t48 -5.5t38.5 -17.5
t25.5 -32.5t9 -50.5q0 -21 -5.5 -36.5t-14 -26.5t-18 -18t-18.5 -10q29 -11 47.5 -35.5t18.5 -67.5q0 -67 -34 -95t-97 -28zM616 42q32 0 43.5 19.5t11.5 51.5v6q0 31 -11.5 50.5t-43.5 19.5t-44 -19.5t-12 -50.5v-6q0 -32 12 -51.5t44 -19.5zM616 238q28 0 36.5 16t8.5 46
v3q0 30 -8.5 46.5t-36.5 16.5q-27 0 -36 -16.5t-9 -46.5v-3q0 -30 9 -46t36 -16z" />
    <glyph glyph-name="uni2158" unicode="&#x2158;" horiz-adv-x="752" 
d="M165 418h-154v53l151 254h72v-249h49v-58h-49v-101h-69v101zM165 476v157l-97 -157h97zM471 725h55l-231 -725h-55zM608 -8q-52 0 -86 27.5t-34 89.5v2h72v-2q0 -32 10.5 -49.5t37.5 -17.5q26 0 36.5 21t10.5 58v25q0 37 -11 58t-37 21q-19 0 -29.5 -11.5t-16.5 -31.5
l-66 3l20 223h207v-57h-150l-11 -118q8 17 27 30t45 13q99 0 99 -127v-29q0 -128 -124 -128z" />
    <glyph glyph-name="uni215A" unicode="&#x215a;" horiz-adv-x="751" 
d="M140 310q-52 0 -86 27t-34 89v2h72v-2q0 -32 10.5 -49.5t37.5 -17.5q26 0 36.5 21t10.5 58v25q0 37 -11 58t-37 21q-19 0 -29.5 -11.5t-16.5 -31.5l-66 3l20 223h207v-57h-150l-11 -117q8 16 27 29.5t45 13.5q99 0 99 -128v-29q0 -127 -124 -127zM457 725h55l-231 -725
h-55zM610 -8q-71 0 -99.5 42.5t-28.5 133.5v57q0 48 6 83.5t20.5 59t39.5 35.5t63 12q59 0 85.5 -30.5t26.5 -77.5v-4h-70v2q0 33 -11 47t-32 14q-33 0 -42 -31.5t-9 -93.5v-18q6 17 24.5 31.5t47.5 14.5q100 0 100 -128v-21q0 -128 -121 -128zM606 42q49 0 49 79v17
q0 37 -11.5 58t-37.5 21q-25 0 -37 -21t-12 -59v-17q0 -37 12 -57.5t37 -20.5z" />
    <glyph glyph-name="fiveeighths" unicode="&#x215d;" horiz-adv-x="758" 
d="M140 310q-52 0 -86 27t-34 89v2h72v-2q0 -32 10.5 -49.5t37.5 -17.5q26 0 36.5 21t10.5 58v25q0 37 -11 58t-37 21q-19 0 -29.5 -11.5t-16.5 -31.5l-66 3l20 223h207v-57h-150l-11 -117q8 16 27 29.5t45 13.5q99 0 99 -128v-29q0 -127 -124 -127zM457 725h55l-231 -725
h-55zM606 -8q-63 0 -97 28t-34 95q0 43 19 67.5t47 35.5q-9 3 -19 10t-18.5 18t-14 26.5t-5.5 36.5q0 30 9.5 50.5t26 32.5t38.5 17.5t48 5.5t48 -5.5t38.5 -17.5t25.5 -32.5t9 -50.5q0 -21 -5.5 -36.5t-14 -26.5t-18 -18t-18.5 -10q29 -11 47.5 -35.5t18.5 -67.5
q0 -67 -34 -95t-97 -28zM606 42q32 0 43.5 19.5t11.5 51.5v6q0 31 -11.5 50.5t-43.5 19.5t-44 -19.5t-12 -50.5v-6q0 -32 12 -51.5t44 -19.5zM606 238q28 0 36.5 16t8.5 46v3q0 30 -8.5 46.5t-36.5 16.5q-27 0 -36 -16.5t-9 -46.5v-3q0 -30 9 -46t36 -16z" />
    <glyph glyph-name="seveneighths" unicode="&#x215e;" horiz-adv-x="704" 
d="M40 317q3 111 34.5 199.5t94.5 151.5h-166v57h228v-57q-34 -35 -55.5 -73.5t-34 -82t-18 -92t-6.5 -103.5h-77zM403 725h55l-231 -725h-55zM552 -8q-63 0 -97 28t-34 95q0 43 19 67.5t47 35.5q-9 3 -19 10t-18.5 18t-14 26.5t-5.5 36.5q0 30 9.5 50.5t26 32.5t38.5 17.5
t48 5.5t48 -5.5t38.5 -17.5t25.5 -32.5t9 -50.5q0 -21 -5.5 -36.5t-14 -26.5t-18 -18t-18.5 -10q29 -11 47.5 -35.5t18.5 -67.5q0 -67 -34 -95t-97 -28zM552 42q32 0 43.5 19.5t11.5 51.5v6q0 31 -11.5 50.5t-43.5 19.5t-44 -19.5t-12 -50.5v-6q0 -32 12 -51.5t44 -19.5z
M552 238q28 0 36.5 16t8.5 46v3q0 30 -8.5 46.5t-36.5 16.5q-27 0 -36 -16.5t-9 -46.5v-3q0 -30 9 -46t36 -16z" />
    <glyph glyph-name="uni215F" unicode="&#x215f;" horiz-adv-x="355" 
d="M73 626h-71v48q24 0 39 1.5t23.5 6.5t13 15t8.5 28h59v-408h-72v309zM358 725h55l-231 -725h-55z" />
    <glyph glyph-name="fraction" unicode="&#x2044;" horiz-adv-x="170" 
d="M173 725h55l-231 -725h-55z" />
    <glyph glyph-name="a.superior" horiz-adv-x="266" 
d="M95 430q-38 0 -59.5 24t-21.5 63v7q0 34 24 56q12 11 31.5 20t45.5 17l50 18v25q0 22 -8.5 32.5t-29.5 10.5q-22 0 -31.5 -11t-9.5 -37v-6h-67v6q0 48 29 71t80 23q25 0 46 -3.5t35 -15t22 -31.5t8 -53v-19q0 -17 -0.5 -37t-0.5 -37v-17q0 -32 0.5 -55t3.5 -43h-68l-1 38
q-22 -46 -78 -46zM123 477q21 0 32.5 16.5t11.5 54.5v45l-34 -14q-24 -8 -34 -19.5t-10 -31.5v-7q0 -20 7.5 -32t26.5 -12z" />
    <glyph glyph-name="b.superior" horiz-adv-x="287" 
d="M177 430q-26 0 -45.5 14t-27.5 35v-41h-76v408h76v-146q8 20 27.5 34t45.5 14q48 0 70 -34t22 -103v-42q0 -69 -22 -104t-70 -35zM151 483q27 0 34 24.5t7 73.5v16q0 48 -7 74t-34 26q-28 0 -39 -28t-11 -80t11 -79t39 -27z" />
    <glyph glyph-name="c.superior" horiz-adv-x="259" 
d="M136 430q-118 0 -118 138v45q0 135 118 135q22 0 42 -5.5t35 -18.5t24 -34t9 -52v-5h-71v5q0 35 -9.5 48t-29.5 13q-14 0 -22 -6.5t-12 -19t-5 -30.5t-1 -41v-26q0 -23 1 -41t5 -30.5t12 -19t22 -6.5q20 0 29.5 13.5t9.5 48.5v5h71v-5q0 -31 -9 -52t-24 -34t-35 -19
t-42 -6z" />
    <glyph glyph-name="d.superior" horiz-adv-x="288" 
d="M111 430q-48 0 -70.5 35t-22.5 104v42q0 69 22.5 103t70.5 34q26 0 46 -14t28 -34v146h74v-408h-74v41q-8 -21 -28 -35t-46 -14zM136 483q30 0 40.5 27t10.5 79t-10.5 80t-40.5 28q-26 0 -33 -26t-7 -74v-16q0 -49 7 -73.5t33 -24.5z" />
    <glyph glyph-name="e.superior" horiz-adv-x="271" 
d="M136 430q-60 0 -89 35.5t-29 101.5v47q0 134 120 134q65 0 90.5 -37t25.5 -110v-19h-160v-6q0 -47 7 -72t36 -25q19 0 30.5 12.5t11.5 45.5v1h71v-2q0 -29 -9.5 -49.5t-25.5 -33t-36.5 -18t-42.5 -5.5zM94 623h91v6q0 36 -9.5 53.5t-36.5 17.5q-26 0 -35.5 -17.5
t-9.5 -53.5v-6z" />
    <glyph glyph-name="f.superior" horiz-adv-x="166" 
d="M38 693h-37v47h37v27q0 25 5.5 40.5t16.5 24t29 11.5t42 3h34v-46h-19q-20 0 -27 -6.5t-7 -26.5v-27h53v-47h-53v-255h-74v255z" />
    <glyph glyph-name="g.superior" horiz-adv-x="290" 
d="M140 332q-51 0 -80 22.5t-29 70.5h68q0 -43 42 -43q25 0 36 13.5t11 55.5v44q-9 -20 -25.5 -33.5t-43.5 -13.5q-46 0 -73.5 31.5t-27.5 97.5v38q0 69 27.5 101t73.5 32q27 0 43.5 -14t25.5 -34v40h74v-276q0 -69 -29 -100.5t-93 -31.5zM138 500q32 0 42 24.5t10 69.5
q0 51 -10 77t-42 26q-27 0 -34.5 -24t-7.5 -69v-9q0 -46 7.5 -70.5t34.5 -24.5z" />
    <glyph glyph-name="h.superior" horiz-adv-x="280" 
d="M28 846h76v-146q20 48 76 48q42 0 59 -23.5t17 -80.5v-206h-75v180q0 35 -5 57t-28 22q-14 0 -23 -7t-13.5 -20t-6 -30t-1.5 -37v-165h-76v408z" />
    <glyph glyph-name="i.superior" horiz-adv-x="132" 
d="M28 740h75v-302h-75v302zM28 846h75v-69h-75v69z" />
    <glyph glyph-name="j.superior" horiz-adv-x="138" 
d="M-8 386h15q20 0 23.5 9.5t3.5 35.5v309h76v-306q0 -29 -5.5 -47.5t-17 -29t-30 -14.5t-43.5 -4h-22v47zM34 846h76v-69h-76v69z" />
    <glyph glyph-name="k.superior" horiz-adv-x="257" 
d="M29 846h71v-222l85 116h67l-68 -98l79 -204h-69l-55 143l-39 -54v-89h-71v408z" />
    <glyph glyph-name="l.superior" horiz-adv-x="132" 
d="M28 846h75v-408h-75v408z" />
    <glyph glyph-name="m.superior" horiz-adv-x="421" 
d="M28 740h76v-43q10 23 28 36.5t43 13.5q31 0 46.5 -13.5t22.5 -41.5q12 29 31.5 42t45.5 13q44 0 60 -27t16 -83v-199h-75v179q0 33 -4.5 55t-24.5 22q-26 0 -34 -21.5t-8 -56.5v-178h-76v191q0 29 -4.5 47t-24.5 18q-26 0 -34 -26t-8 -68v-162h-76v302z" />
    <glyph glyph-name="uni207F" unicode="&#x207f;" horiz-adv-x="280" 
d="M28 740h76v-40q20 48 76 48q42 0 59 -23.5t17 -80.5v-206h-75v180q0 35 -5 57t-28 22q-14 0 -23 -7t-13.5 -20t-6 -30t-1.5 -37v-165h-76v302z" />
    <glyph glyph-name="o.superior" horiz-adv-x="275" 
d="M138 479q28 0 34.5 25.5t6.5 72.5v25q0 46 -6.5 71.5t-34.5 25.5q-29 0 -35.5 -25.5t-6.5 -71.5v-25q0 -47 6.5 -72.5t35.5 -25.5zM138 430q-120 0 -120 138v44q0 137 120 137q61 0 89.5 -34.5t28.5 -102.5v-44q0 -69 -28.5 -103.5t-89.5 -34.5z" />
    <glyph glyph-name="p.superior" horiz-adv-x="287" 
d="M28 740h76v-40q8 20 27.5 34t45.5 14q48 0 70 -34t22 -103v-42q0 -69 -22 -104t-70 -35q-26 0 -45.5 14t-27.5 35v-140h-76v401zM151 483q27 0 34 24.5t7 73.5v16q0 48 -7 74t-34 26q-28 0 -39 -28t-11 -80q0 -51 11 -78.5t39 -27.5z" />
    <glyph glyph-name="q.superior" horiz-adv-x="287" 
d="M185 479q-8 -21 -28 -35t-46 -14q-48 0 -70.5 35t-22.5 104v42q0 69 22.5 103t70.5 34q26 0 46 -14t28 -34v40h74v-401h-74v140zM136 483q30 0 40.5 27.5t10.5 78.5q0 52 -10.5 80t-40.5 28q-26 0 -33 -26t-7 -74v-16q0 -49 7 -73.5t33 -24.5z" />
    <glyph glyph-name="r.superior" horiz-adv-x="177" 
d="M27 740h74v-62q6 26 20.5 44t45.5 18h11v-71h-21q-35 0 -45 -15.5t-10 -58.5v-157h-75v302z" />
    <glyph glyph-name="s.superior" horiz-adv-x="253" 
d="M131 430q-56 0 -86 28.5t-30 77.5v1h68v-1q0 -26 12.5 -41t35.5 -15q18 0 29.5 8t11.5 27q0 18 -9 27.5t-29 18.5l-46 17q-32 11 -50.5 30.5t-18.5 54.5q0 46 30.5 65.5t76.5 19.5q20 0 39.5 -5t34.5 -16.5t24 -29.5t9 -44v-2h-67v2q0 28 -13.5 37t-30.5 9
q-16 0 -25.5 -7.5t-9.5 -23.5q0 -15 6.5 -23t22.5 -15l41 -16q19 -8 34.5 -15.5t26.5 -17.5t17 -24t6 -35q0 -25 -9 -42.5t-24 -28.5t-35 -16t-42 -5z" />
    <glyph glyph-name="t.superior" horiz-adv-x="169" 
d="M110 438q-44 0 -59 17.5t-15 61.5v176h-36v47h36v81h75v-81h52v-47h-52v-168q0 -26 6.5 -33t25.5 -7h20v-47h-53z" />
    <glyph glyph-name="u.superior" horiz-adv-x="273" 
d="M103 430q-44 0 -60.5 27t-16.5 83v200h75v-180q0 -32 5 -54t25 -22q25 0 32.5 26t7.5 67v163h75v-302h-74v42q-9 -23 -26 -36.5t-43 -13.5z" />
    <glyph glyph-name="v.superior" horiz-adv-x="239" 
d="M2 740h74l44 -227l48 227h69l-76 -302h-87z" />
    <glyph glyph-name="w.superior" horiz-adv-x="335" 
d="M12 740h62l24 -224l38 224h62l39 -224l24 224h62l-41 -302h-76l-38 236l-38 -236h-77z" />
    <glyph glyph-name="x.superior" horiz-adv-x="241" 
d="M118 533l-55 -95h-65l88 153l-82 149h74l45 -83l48 83h66l-82 -142l88 -160h-72z" />
    <glyph glyph-name="y.superior" horiz-adv-x="236" 
d="M23 387h21q20 0 28 7.5t13 28.5l2 15l-85 302h74l48 -228l43 228h68l-74 -303q-7 -30 -15 -49t-20 -30t-28.5 -15t-41.5 -4h-33v48z" />
    <glyph glyph-name="z.superior" horiz-adv-x="252" 
d="M22 485l125 208h-111v47h190v-47l-127 -208h130v-47h-207v47z" />
    <glyph glyph-name="uni2074" unicode="&#x2074;" horiz-adv-x="298" 
d="M165 538h-154v53l150 255h71v-249h49v-59h-49v-100h-67v100zM165 597v156l-97 -156h97z" />
    <glyph glyph-name="uni2075" unicode="&#x2075;" horiz-adv-x="284" 
d="M140 428q-52 0 -86 27.5t-34 89.5v2h72v-2q0 -32 10.5 -49.5t37.5 -17.5q26 0 36.5 20.5t10.5 58.5v25q0 37 -11 58t-37 21q-19 0 -29.5 -11.5t-16.5 -31.5l-66 3l20 223h207v-57h-150l-11 -118q8 17 27 30t45 13q99 0 99 -127v-29q0 -128 -124 -128z" />
    <glyph glyph-name="uni2076" unicode="&#x2076;" horiz-adv-x="297" 
d="M156 428q-71 0 -99.5 42.5t-28.5 133.5v57q0 48 6 83.5t20.5 59t39.5 35.5t63 12q59 0 85.5 -30.5t26.5 -77.5v-4h-70v2q0 32 -11 46.5t-32 14.5q-33 0 -42 -31.5t-9 -93.5v-18q6 17 24.5 31.5t47.5 14.5q100 0 100 -128v-21q0 -128 -121 -128zM152 478q49 0 49 79v17
q0 37 -11.5 58t-37.5 21q-25 0 -37 -21t-12 -59v-17q0 -37 12 -57.5t37 -20.5z" />
    <glyph glyph-name="uni2077" unicode="&#x2077;" horiz-adv-x="230" 
d="M40 438q3 111 34.5 199.5t94.5 151.5h-166v57h228v-57q-34 -35 -55.5 -73.5t-34 -82t-18 -92t-6.5 -103.5h-77z" />
    <glyph glyph-name="uni2078" unicode="&#x2078;" horiz-adv-x="304" 
d="M152 428q-63 0 -97 28t-34 95q0 43 19 67.5t47 35.5q-9 3 -19 10t-18.5 18t-14 26.5t-5.5 36.5q0 30 9.5 50.5t26 32.5t38.5 17.5t48 5.5t48 -5.5t38.5 -17.5t25.5 -32.5t9 -50.5q0 -21 -5.5 -36.5t-14 -26.5t-18 -18t-18.5 -10q29 -11 47.5 -35.5t18.5 -67.5
q0 -67 -34 -95t-97 -28zM152 478q32 0 43.5 19.5t11.5 51.5v6q0 31 -11.5 50.5t-43.5 19.5t-44 -19.5t-12 -50.5v-6q0 -32 12 -51.5t44 -19.5zM152 674q28 0 36.5 16t8.5 46v3q0 30 -8.5 46.5t-36.5 16.5q-27 0 -36 -16.5t-9 -46.5v-3q0 -30 9 -46t36 -16z" />
    <glyph glyph-name="uni2079" unicode="&#x2079;" horiz-adv-x="301" 
d="M144 428q-60 0 -86 30.5t-26 78.5v3h71v-3q0 -32 10.5 -45.5t31.5 -13.5q33 0 42 31.5t9 92.5v19q-6 -17 -24.5 -31.5t-47.5 -14.5q-101 0 -101 128v20q0 128 121 128q72 0 100 -42t28 -134v-57q0 -48 -6 -83.5t-20.5 -59t-39 -35.5t-62.5 -12zM150 627q25 0 36.5 21
t11.5 57v17q0 38 -11.5 59t-36.5 21q-26 0 -38 -20.5t-12 -58.5v-17q0 -38 12 -58.5t38 -20.5z" />
    <glyph glyph-name="uni2070" unicode="&#x2070;" horiz-adv-x="312" 
d="M156 478q19 0 29.5 9.5t15.5 28.5t6 45.5t1 61.5v33q0 34 -1 61.5t-6 46t-15.5 28.5t-29.5 10t-29.5 -10t-16 -28.5t-6.5 -46t-1 -61.5v-33q0 -35 1 -61.5t6.5 -45.5t16 -28.5t29.5 -9.5zM156 428q-38 0 -63 11t-39.5 34t-20.5 57.5t-6 81.5v55q0 47 6 82t20.5 57.5
t39.5 33.5t63 11q74 0 101.5 -45t27.5 -139v-55q0 -94 -27.5 -139t-101.5 -45z" />
    <glyph glyph-name="uni2070.aalt" horiz-adv-x="312" 
d="M156 429q-75 0 -102 45t-27 138v56q0 94 27 139t102 45q74 0 101.5 -45t27.5 -139v-56q0 -93 -27.5 -138t-101.5 -45zM156 478q19 0 29.5 9.5t15.5 28.5t6 46t1 62v12l-106 -42q1 -56 10.5 -86t43.5 -30zM102 648l106 42q-1 54 -10.5 83t-41.5 29q-19 0 -30 -9.5
t-16 -28.5t-6.5 -46t-1.5 -62v-8z" />
    <glyph glyph-name="period.superior" horiz-adv-x="141" 
d="M31 522h88v-84h-88v84z" />
    <glyph glyph-name="hyphen.superior" horiz-adv-x="234" 
d="M26 615h183v-60h-183v60z" />
    <glyph glyph-name="comma.superior" horiz-adv-x="170" 
d="M77 438h-36v86h90v-93l-43 -86h-52z" />
    <glyph glyph-name="uni207C" unicode="&#x207c;" horiz-adv-x="304" 
d="M26 560h245v-64h-245v64zM26 678h245v-64h-245v64z" />
    <glyph glyph-name="uni207A" unicode="&#x207a;" horiz-adv-x="332" 
d="M134 556h-114v64h114v118h65v-118h113v-64h-113v-118h-65v118z" />
    <glyph glyph-name="uni207B" unicode="&#x207b;" horiz-adv-x="323" 
d="M20 617h289v-64h-289v64z" />
    <glyph glyph-name="uni207D" unicode="&#x207d;" horiz-adv-x="144" 
d="M91 337q-12 18 -25.5 45t-25 60t-18.5 71t-7 80q0 41 7 79t18.5 71t25 60t25.5 46h61q-29 -48 -48.5 -113t-19.5 -143q0 -79 19.5 -144.5t48.5 -111.5h-61z" />
    <glyph glyph-name="uni207E" unicode="&#x207e;" horiz-adv-x="145" 
d="M-8 337q29 46 48.5 111.5t19.5 144.5q0 78 -19.5 143t-48.5 113h62q13 -19 26.5 -46t24.5 -60t18 -71t7 -79q0 -42 -7 -80t-18 -71t-24.5 -60t-26.5 -45h-62z" />
    <glyph glyph-name="a.inferior" horiz-adv-x="266" 
d="M95 -136q-38 0 -59.5 24t-21.5 63v7q0 34 24 56q12 11 31.5 20t45.5 17l50 18v25q0 22 -8.5 32.5t-29.5 10.5q-22 0 -31.5 -11t-9.5 -37v-6h-67v6q0 48 29 71t80 23q25 0 46 -3.5t35 -15t22 -31.5t8 -53v-19q0 -17 -0.5 -37t-0.5 -37v-17q0 -32 0.5 -55t3.5 -43h-68
l-1 38q-22 -46 -78 -46zM123 -89q21 0 32.5 16.5t11.5 54.5v45l-34 -14q-24 -8 -34 -19.5t-10 -31.5v-7q0 -20 7.5 -32t26.5 -12z" />
    <glyph glyph-name="b.inferior" horiz-adv-x="287" 
d="M177 -136q-26 0 -45.5 14t-27.5 35v-41h-76v408h76v-146q8 20 27.5 34t45.5 14q48 0 70 -34t22 -103v-42q0 -69 -22 -104t-70 -35zM151 -83q27 0 34 24.5t7 73.5v16q0 48 -7 74t-34 26q-28 0 -39 -28t-11 -80t11 -79t39 -27z" />
    <glyph glyph-name="c.inferior" horiz-adv-x="259" 
d="M136 -136q-118 0 -118 138v45q0 135 118 135q22 0 42 -5.5t35 -18.5t24 -34t9 -52v-5h-71v5q0 35 -9.5 48t-29.5 13q-14 0 -22 -6.5t-12 -19t-5 -30.5t-1 -41v-26q0 -23 1 -41t5 -30.5t12 -19t22 -6.5q20 0 29.5 13.5t9.5 48.5v5h71v-5q0 -31 -9 -52t-24 -34t-35 -19
t-42 -6z" />
    <glyph glyph-name="d.inferior" horiz-adv-x="288" 
d="M111 -136q-48 0 -70.5 35t-22.5 104v42q0 69 22.5 103t70.5 34q26 0 46 -14t28 -34v146h74v-408h-74v41q-8 -21 -28 -35t-46 -14zM136 -83q30 0 40.5 27t10.5 79t-10.5 80t-40.5 28q-26 0 -33 -26t-7 -74v-16q0 -49 7 -73.5t33 -24.5z" />
    <glyph glyph-name="e.inferior" horiz-adv-x="271" 
d="M136 -136q-60 0 -89 35.5t-29 101.5v47q0 134 120 134q65 0 90.5 -37t25.5 -110v-19h-160v-6q0 -47 7 -72t36 -25q19 0 30.5 12.5t11.5 45.5v1h71v-2q0 -29 -9.5 -49.5t-25.5 -33t-36.5 -18t-42.5 -5.5zM94 57h91v6q0 36 -9.5 53.5t-36.5 17.5q-26 0 -35.5 -17.5
t-9.5 -53.5v-6z" />
    <glyph glyph-name="f.inferior" horiz-adv-x="166" 
d="M38 127h-37v47h37v27q0 25 5.5 40.5t16.5 24t29 11.5t42 3h34v-46h-19q-20 0 -27 -6.5t-7 -26.5v-27h53v-47h-53v-255h-74v255z" />
    <glyph glyph-name="g.inferior" horiz-adv-x="290" 
d="M140 -234q-51 0 -80 22.5t-29 70.5h68q0 -43 42 -43q25 0 36 13.5t11 55.5v44q-9 -20 -25.5 -33.5t-43.5 -13.5q-46 0 -73.5 31.5t-27.5 97.5v38q0 69 27.5 101t73.5 32q27 0 43.5 -14t25.5 -34v40h74v-276q0 -69 -29 -100.5t-93 -31.5zM138 -66q32 0 42 24.5t10 69.5
q0 51 -10 77t-42 26q-27 0 -34.5 -24t-7.5 -69v-9q0 -46 7.5 -70.5t34.5 -24.5z" />
    <glyph glyph-name="h.inferior" horiz-adv-x="280" 
d="M28 280h76v-146q20 48 76 48q42 0 59 -23.5t17 -80.5v-206h-75v180q0 35 -5 57t-28 22q-14 0 -23 -7t-13.5 -20t-6 -30t-1.5 -37v-165h-76v408z" />
    <glyph glyph-name="i.inferior" horiz-adv-x="132" 
d="M28 174h75v-302h-75v302zM28 280h75v-69h-75v69z" />
    <glyph glyph-name="j.inferior" horiz-adv-x="138" 
d="M-8 -180h15q20 0 23.5 9.5t3.5 35.5v309h76v-306q0 -29 -5.5 -47.5t-17 -29t-30 -14.5t-43.5 -4h-22v47zM34 280h76v-69h-76v69z" />
    <glyph glyph-name="k.inferior" horiz-adv-x="257" 
d="M29 280h71v-222l85 116h67l-68 -98l79 -204h-69l-55 143l-39 -54v-89h-71v408z" />
    <glyph glyph-name="l.inferior" horiz-adv-x="132" 
d="M28 280h75v-408h-75v408z" />
    <glyph glyph-name="m.inferior" horiz-adv-x="421" 
d="M28 174h76v-43q10 23 28 36.5t43 13.5q31 0 46.5 -13.5t22.5 -41.5q12 29 31.5 42t45.5 13q44 0 60 -27t16 -83v-199h-75v179q0 33 -4.5 55t-24.5 22q-26 0 -34 -21.5t-8 -56.5v-178h-76v191q0 29 -4.5 47t-24.5 18q-26 0 -34 -26t-8 -68v-162h-76v302z" />
    <glyph glyph-name="n.inferior" horiz-adv-x="280" 
d="M28 174h76v-40q20 48 76 48q42 0 59 -23.5t17 -80.5v-206h-75v180q0 35 -5 57t-28 22q-14 0 -23 -7t-13.5 -20t-6 -30t-1.5 -37v-165h-76v302z" />
    <glyph glyph-name="o.inferior" horiz-adv-x="275" 
d="M138 -87q28 0 34.5 25.5t6.5 72.5v25q0 46 -6.5 71.5t-34.5 25.5q-29 0 -35.5 -25.5t-6.5 -71.5v-25q0 -47 6.5 -72.5t35.5 -25.5zM138 -136q-120 0 -120 138v44q0 137 120 137q61 0 89.5 -34.5t28.5 -102.5v-44q0 -69 -28.5 -103.5t-89.5 -34.5z" />
    <glyph glyph-name="p.inferior" horiz-adv-x="287" 
d="M28 174h76v-40q8 20 27.5 34t45.5 14q48 0 70 -34t22 -103v-42q0 -69 -22 -104t-70 -35q-26 0 -45.5 14t-27.5 35v-140h-76v401zM151 -83q27 0 34 24.5t7 73.5v16q0 48 -7 74t-34 26q-28 0 -39 -28t-11 -80q0 -51 11 -78.5t39 -27.5z" />
    <glyph glyph-name="q.inferior" horiz-adv-x="287" 
d="M185 -87q-8 -21 -28 -35t-46 -14q-48 0 -70.5 35t-22.5 104v42q0 69 22.5 103t70.5 34q26 0 46 -14t28 -34v40h74v-401h-74v140zM136 -83q30 0 40.5 27.5t10.5 78.5q0 52 -10.5 80t-40.5 28q-26 0 -33 -26t-7 -74v-16q0 -49 7 -73.5t33 -24.5z" />
    <glyph glyph-name="r.inferior" horiz-adv-x="177" 
d="M27 174h74v-62q6 26 20.5 44t45.5 18h11v-71h-21q-35 0 -45 -15.5t-10 -58.5v-157h-75v302z" />
    <glyph glyph-name="s.inferior" horiz-adv-x="253" 
d="M131 -136q-56 0 -86 28.5t-30 77.5v1h68v-1q0 -26 12.5 -41t35.5 -15q18 0 29.5 8t11.5 27q0 18 -9 27.5t-29 18.5l-46 17q-32 11 -50.5 30.5t-18.5 54.5q0 46 30.5 65.5t76.5 19.5q20 0 39.5 -5t34.5 -16.5t24 -29.5t9 -44v-2h-67v2q0 28 -13.5 37t-30.5 9
q-16 0 -25.5 -7.5t-9.5 -23.5q0 -15 6.5 -23t22.5 -15l41 -16q19 -8 34.5 -15.5t26.5 -17.5t17 -24t6 -35q0 -25 -9 -42.5t-24 -28.5t-35 -16t-42 -5z" />
    <glyph glyph-name="t.inferior" horiz-adv-x="169" 
d="M110 -128q-44 0 -59 17.5t-15 61.5v176h-36v47h36v81h75v-81h52v-47h-52v-168q0 -26 6.5 -33t25.5 -7h20v-47h-53z" />
    <glyph glyph-name="u.inferior" horiz-adv-x="273" 
d="M103 -136q-44 0 -60.5 27t-16.5 83v200h75v-180q0 -32 5 -54t25 -22q25 0 32.5 26t7.5 67v163h75v-302h-74v42q-9 -23 -26 -36.5t-43 -13.5z" />
    <glyph glyph-name="v.inferior" horiz-adv-x="239" 
d="M2 174h74l44 -227l48 227h69l-76 -302h-87z" />
    <glyph glyph-name="w.inferior" horiz-adv-x="335" 
d="M12 174h62l24 -224l38 224h62l39 -224l24 224h62l-41 -302h-76l-38 236l-38 -236h-77z" />
    <glyph glyph-name="x.inferior" horiz-adv-x="241" 
d="M118 -33l-55 -95h-65l88 153l-82 149h74l45 -83l48 83h66l-82 -142l88 -160h-72z" />
    <glyph glyph-name="y.inferior" horiz-adv-x="236" 
d="M23 -179h21q20 0 28 7.5t13 28.5l2 15l-85 302h74l48 -228l43 228h68l-74 -303q-7 -30 -15 -49t-20 -30t-28.5 -15t-41.5 -4h-33v48z" />
    <glyph glyph-name="z.inferior" horiz-adv-x="252" 
d="M22 -81l125 208h-111v47h190v-47l-127 -208h130v-47h-207v47z" />
    <glyph glyph-name="uni2081" unicode="&#x2081;" horiz-adv-x="185" 
d="M73 181h-71v47q24 1 39 2t23.5 6t13 15.5t8.5 28.5h59v-408h-72v309z" />
    <glyph glyph-name="uni2082" unicode="&#x2082;" horiz-adv-x="284" 
d="M24 -73l45 57q56 70 87 116t31 84q0 53 -45 53q-23 0 -33 -18.5t-10 -58.5v-4h-72v4q0 63 29 95t91 32q55 0 85 -25t30 -74q0 -47 -31.5 -96.5t-81.5 -113.5l-38 -49h152v-57h-239v55z" />
    <glyph glyph-name="uni2083" unicode="&#x2083;" horiz-adv-x="289" 
d="M137 -138q-53 0 -85 27t-32 90v2h70v-2q0 -32 10.5 -49.5t37.5 -17.5q34 0 44.5 21t10.5 51q0 31 -13 51t-54 20h-23v52h22q32 0 43.5 17t11.5 48q0 29 -9.5 46.5t-36.5 17.5q-23 0 -32 -14.5t-9 -49.5v-2h-71v2q0 62 32.5 87.5t83.5 25.5q25 0 46.5 -5t37.5 -17
t25 -32.5t9 -51.5q0 -41 -18.5 -63t-41.5 -29q35 -10 54.5 -35t19.5 -68q0 -66 -35 -94t-98 -28z" />
    <glyph glyph-name="uni2084" unicode="&#x2084;" horiz-adv-x="298" 
d="M165 -28h-154v53l150 255h71v-249h49v-59h-49v-100h-67v100zM165 31v156l-97 -156h97z" />
    <glyph glyph-name="uni2085" unicode="&#x2085;" horiz-adv-x="284" 
d="M140 -138q-52 0 -86 27.5t-34 89.5v2h72v-2q0 -32 10.5 -49.5t37.5 -17.5q26 0 36.5 20.5t10.5 58.5v25q0 37 -11 58t-37 21q-19 0 -29.5 -11.5t-16.5 -31.5l-66 3l20 223h207v-57h-150l-11 -118q8 17 27 30t45 13q99 0 99 -127v-29q0 -128 -124 -128z" />
    <glyph glyph-name="uni2086" unicode="&#x2086;" horiz-adv-x="297" 
d="M156 -138q-71 0 -99.5 42.5t-28.5 133.5v57q0 48 6 83.5t20.5 59t39.5 35.5t63 12q59 0 85.5 -30.5t26.5 -77.5v-4h-70v2q0 32 -11 46.5t-32 14.5q-33 0 -42 -31.5t-9 -93.5v-18q6 17 24.5 31.5t47.5 14.5q100 0 100 -128v-21q0 -128 -121 -128zM152 -88q49 0 49 79v17
q0 37 -11.5 58t-37.5 21q-25 0 -37 -21t-12 -59v-17q0 -37 12 -57.5t37 -20.5z" />
    <glyph glyph-name="uni2087" unicode="&#x2087;" horiz-adv-x="230" 
d="M40 -128q3 111 34.5 199.5t94.5 151.5h-166v57h228v-57q-34 -35 -55.5 -73.5t-34 -82t-18 -92t-6.5 -103.5h-77z" />
    <glyph glyph-name="uni2088" unicode="&#x2088;" horiz-adv-x="304" 
d="M152 -138q-63 0 -97 28t-34 95q0 43 19 67.5t47 35.5q-9 3 -19 10t-18.5 18t-14 26.5t-5.5 36.5q0 30 9.5 50.5t26 32.5t38.5 17.5t48 5.5t48 -5.5t38.5 -17.5t25.5 -32.5t9 -50.5q0 -21 -5.5 -36.5t-14 -26.5t-18 -18t-18.5 -10q29 -11 47.5 -35.5t18.5 -67.5
q0 -67 -34 -95t-97 -28zM152 -88q32 0 43.5 19.5t11.5 51.5v6q0 31 -11.5 50.5t-43.5 19.5t-44 -19.5t-12 -50.5v-6q0 -32 12 -51.5t44 -19.5zM152 108q28 0 36.5 16t8.5 46v3q0 30 -8.5 46.5t-36.5 16.5q-27 0 -36 -16.5t-9 -46.5v-3q0 -30 9 -46t36 -16z" />
    <glyph glyph-name="uni2089" unicode="&#x2089;" horiz-adv-x="301" 
d="M144 -138q-60 0 -86 30.5t-26 78.5v3h71v-3q0 -32 10.5 -45.5t31.5 -13.5q33 0 42 31.5t9 92.5v19q-6 -17 -24.5 -31.5t-47.5 -14.5q-101 0 -101 128v20q0 128 121 128q72 0 100 -42t28 -134v-57q0 -48 -6 -83.5t-20.5 -59t-39 -35.5t-62.5 -12zM150 61q25 0 36.5 21
t11.5 57v17q0 38 -11.5 59t-36.5 21q-26 0 -38 -20.5t-12 -58.5v-17q0 -38 12 -58.5t38 -20.5z" />
    <glyph glyph-name="uni2080" unicode="&#x2080;" horiz-adv-x="312" 
d="M156 -88q19 0 29.5 9.5t15.5 28.5t6 45.5t1 61.5v33q0 34 -1 61.5t-6 46t-15.5 28.5t-29.5 10t-29.5 -10t-16 -28.5t-6.5 -46t-1 -61.5v-33q0 -35 1 -61.5t6.5 -45.5t16 -28.5t29.5 -9.5zM156 -138q-38 0 -63 11t-39.5 34t-20.5 57.5t-6 81.5v55q0 47 6 82t20.5 57.5
t39.5 33.5t63 11q74 0 101.5 -45t27.5 -139v-55q0 -94 -27.5 -139t-101.5 -45z" />
    <glyph glyph-name="uni2080.aalt" horiz-adv-x="312" 
d="M156 -137q-75 0 -102 45t-27 138v56q0 94 27 139t102 45q74 0 101.5 -45t27.5 -139v-56q0 -93 -27.5 -138t-101.5 -45zM156 -88q19 0 29.5 9.5t15.5 28.5t6 46t1 62v12l-106 -42q1 -56 10.5 -86t43.5 -30zM102 82l106 42q-1 54 -10.5 83t-41.5 29q-19 0 -30 -9.5
t-16 -28.5t-6.5 -46t-1.5 -62v-8z" />
    <glyph glyph-name="period.inferior" horiz-adv-x="141" 
d="M31 -44h88v-84h-88v84z" />
    <glyph glyph-name="hyphen.inferior" horiz-adv-x="234" 
d="M26 49h183v-60h-183v60z" />
    <glyph glyph-name="comma.inferior" horiz-adv-x="170" 
d="M77 -128h-36v86h90v-93l-43 -86h-52z" />
    <glyph glyph-name="equal.inferior" horiz-adv-x="304" 
d="M26 -6h245v-64h-245v64zM26 112h245v-64h-245v64z" />
    <glyph glyph-name="plus.inferior" horiz-adv-x="332" 
d="M134 -10h-114v64h114v118h65v-118h113v-64h-113v-118h-65v118z" />
    <glyph glyph-name="minus.inferior" horiz-adv-x="323" 
d="M20 51h289v-64h-289v64z" />
    <glyph glyph-name="uni208D" unicode="&#x208d;" horiz-adv-x="144" 
d="M91 -229q-12 18 -25.5 45t-25 60t-18.5 71t-7 80q0 41 7 79t18.5 71t25 60t25.5 46h61q-29 -48 -48.5 -113t-19.5 -143q0 -79 19.5 -144.5t48.5 -111.5h-61z" />
    <glyph glyph-name="uni208E" unicode="&#x208e;" horiz-adv-x="145" 
d="M-8 -229q29 46 48.5 111.5t19.5 144.5q0 78 -19.5 143t-48.5 113h62q13 -19 26.5 -46t24.5 -60t18 -71t7 -79q0 -42 -7 -80t-18 -71t-24.5 -60t-26.5 -45h-62z" />
    <glyph glyph-name="one.numr" horiz-adv-x="185" 
d="M73 626h-71v48q24 0 39 1.5t23.5 6.5t13 15t8.5 28h59v-408h-72v309z" />
    <glyph glyph-name="two.numr" horiz-adv-x="284" 
d="M24 372l45 57q56 70 87 116t31 85q0 52 -45 52q-23 0 -33 -18t-10 -58v-4h-73v4q0 126 121 126q55 0 85 -25t30 -73t-31 -97.5t-82 -113.5l-38 -49h152v-57h-239v55z" />
    <glyph glyph-name="three.numr" horiz-adv-x="294" 
d="M137 309q-53 0 -85 26.5t-32 89.5v2h70v-2q0 -31 10.5 -49t37.5 -18q34 0 44.5 21t10.5 51q0 31 -13 51.5t-54 20.5h-23v51h22q32 0 43.5 17t11.5 48q0 30 -9.5 47t-36.5 17q-23 0 -32 -14t-9 -49v-2h-71v2q0 61 32.5 87t83.5 26q25 0 46.5 -5t37.5 -17.5t25 -33t9 -51.5
q0 -41 -18.5 -63t-41.5 -29q35 -10 54.5 -35t19.5 -68q0 -66 -35 -93.5t-98 -27.5z" />
    <glyph glyph-name="four.numr" horiz-adv-x="298" 
d="M165 418h-154v53l151 254h72v-249h49v-58h-49v-101h-69v101zM165 476v157l-97 -157h97z" />
    <glyph glyph-name="five.numr" horiz-adv-x="284" 
d="M140 310q-52 0 -86 27t-34 89v2h72v-2q0 -32 10.5 -49.5t37.5 -17.5q26 0 36.5 21t10.5 58v25q0 37 -11 58t-37 21q-19 0 -29.5 -11.5t-16.5 -31.5l-66 3l20 223h207v-57h-150l-11 -117q8 16 27 29.5t45 13.5q99 0 99 -128v-29q0 -127 -124 -127z" />
    <glyph glyph-name="six.numr" horiz-adv-x="297" 
d="M156 309q-71 0 -99.5 42t-28.5 134v56q0 48 6 84t20.5 59.5t39.5 35.5t63 12q59 0 85.5 -31t26.5 -78v-3h-70v2q0 32 -11 46t-32 14q-33 0 -42 -31.5t-9 -92.5v-19q6 17 24.5 31.5t47.5 14.5q100 0 100 -128v-20q0 -128 -121 -128zM152 358q26 0 37.5 20.5t11.5 58.5v17
q0 38 -11.5 58.5t-37.5 20.5q-25 0 -37 -21t-12 -58v-17q0 -38 12 -58.5t37 -20.5z" />
    <glyph glyph-name="seven.numr" horiz-adv-x="230" 
d="M40 317q3 111 34.5 199.5t94.5 151.5h-166v57h228v-57q-34 -35 -55.5 -73.5t-34 -82t-18 -92t-6.5 -103.5h-77z" />
    <glyph glyph-name="eight.numr" horiz-adv-x="304" 
d="M152 309q-63 0 -97 27.5t-34 94.5q0 44 19 68.5t47 34.5q-9 3 -19 10t-18.5 18t-14 26.5t-5.5 36.5q0 30 9.5 50.5t26 33t38.5 18t48 5.5t48 -5.5t38.5 -18t25.5 -33t9 -50.5q0 -21 -5.5 -36.5t-14 -26.5t-18 -18t-18.5 -10q29 -10 47.5 -34.5t18.5 -68.5
q0 -67 -34 -94.5t-97 -27.5zM152 358q32 0 43.5 19.5t11.5 51.5v6q0 31 -11.5 50.5t-43.5 19.5t-44 -19.5t-12 -50.5v-6q0 -32 12 -51.5t44 -19.5zM152 554q28 0 36.5 16t8.5 46v4q0 29 -8.5 45.5t-36.5 16.5q-27 0 -36 -16.5t-9 -45.5v-4q0 -30 9 -46t36 -16z" />
    <glyph glyph-name="nine.numr" horiz-adv-x="301" 
d="M144 309q-59 0 -85.5 30.5t-26.5 77.5v3h71v-3q0 -32 10.5 -45.5t31.5 -13.5q33 0 42 31.5t9 92.5v20q-6 -17 -24.5 -32t-47.5 -15q-101 0 -101 128v20q0 129 121 129q72 0 100 -42.5t28 -134.5v-56q0 -48 -6 -83.5t-20.5 -59.5t-39 -35.5t-62.5 -11.5zM150 507
q25 0 36.5 21t11.5 57v17q0 38 -11.5 59t-36.5 21q-26 0 -38 -20.5t-12 -58.5v-17q0 -38 12 -58.5t38 -20.5z" />
    <glyph glyph-name="zero.numr" horiz-adv-x="308" 
d="M153 358q19 0 29.5 10t15.5 28.5t6 45.5t1 62v33q0 34 -1 61t-6 46t-15.5 28.5t-29.5 9.5t-30 -9.5t-16 -28.5t-6.5 -46t-1.5 -61v-33q0 -35 1.5 -62t6.5 -45.5t16 -28.5t30 -10zM153 309q-75 0 -102 45t-27 139v54q0 94 27 139.5t102 45.5q74 0 101.5 -45.5t27.5 -139.5
v-54q0 -94 -27.5 -139t-101.5 -45z" />
    <glyph glyph-name="zero.numr.zero" horiz-adv-x="312" 
d="M156 308q-75 0 -102 45t-27 139v55q0 94 27 139t102 45q74 0 101.5 -45t27.5 -139v-55q0 -94 -27.5 -139t-101.5 -45zM156 358q19 0 29.5 9.5t15.5 28.5t6 45.5t1 61.5v12l-106 -42q1 -56 10.5 -85.5t43.5 -29.5zM102 527l106 42q-1 54 -10.5 83t-41.5 29q-19 0 -30 -9.5
t-16 -28.5t-6.5 -46t-1.5 -61v-9z" />
    <glyph glyph-name="one.dnom" horiz-adv-x="185" 
d="M73 309h-71v47q24 1 39 2t23.5 6t13 15.5t8.5 28.5h59v-408h-72v309z" />
    <glyph glyph-name="two.dnom" horiz-adv-x="284" 
d="M24 55l45 57q56 70 87 116t31 84q0 53 -45 53q-23 0 -33 -18.5t-10 -57.5v-5h-73v5q0 62 29.5 94t91.5 32q55 0 85 -25t30 -74q0 -47 -31.5 -96.5t-81.5 -113.5l-38 -49h152v-57h-239v55z" />
    <glyph glyph-name="three.dnom" horiz-adv-x="294" 
d="M137 -8q-53 0 -85 27t-32 90v2h70v-2q0 -32 10.5 -49.5t37.5 -17.5q34 0 44.5 21t10.5 51q0 31 -13 51t-54 20h-23v52h22q32 0 43.5 17t11.5 48q0 29 -9.5 46.5t-36.5 17.5q-23 0 -32 -14.5t-9 -49.5v-2h-71v2q0 62 32.5 87.5t83.5 25.5q25 0 46.5 -5t37.5 -17t25 -32.5
t9 -51.5q0 -41 -18.5 -63t-41.5 -29q35 -10 54.5 -35t19.5 -68q0 -66 -35 -94t-98 -28z" />
    <glyph glyph-name="four.dnom" horiz-adv-x="298" 
d="M165 100h-154v53l151 255h72v-249h49v-59h-49v-100h-69v100zM165 159v156l-97 -156h97z" />
    <glyph glyph-name="five.dnom" horiz-adv-x="284" 
d="M140 -8q-52 0 -86 27.5t-34 89.5v2h72v-2q0 -32 10.5 -49.5t37.5 -17.5q26 0 36.5 21t10.5 58v25q0 37 -11 58t-37 21q-19 0 -29.5 -11.5t-16.5 -31.5l-66 3l20 223h207v-57h-150l-11 -118q8 17 27 30t45 13q99 0 99 -127v-29q0 -128 -124 -128z" />
    <glyph glyph-name="six.dnom" horiz-adv-x="297" 
d="M156 -8q-71 0 -99.5 42.5t-28.5 133.5v57q0 48 6 83.5t20.5 59t39.5 35.5t63 12q59 0 85.5 -30.5t26.5 -77.5v-4h-70v2q0 33 -11 47t-32 14q-33 0 -42 -31.5t-9 -93.5v-18q6 17 24.5 31.5t47.5 14.5q100 0 100 -128v-21q0 -128 -121 -128zM152 42q49 0 49 79v17
q0 37 -11.5 58t-37.5 21q-25 0 -37 -21t-12 -59v-17q0 -37 12 -57.5t37 -20.5z" />
    <glyph glyph-name="seven.dnom" horiz-adv-x="230" 
d="M40 0q3 111 34.5 199.5t94.5 151.5h-166v57h228v-57q-34 -35 -55.5 -73.5t-34 -82t-18 -92t-6.5 -103.5h-77z" />
    <glyph glyph-name="eight.dnom" horiz-adv-x="304" 
d="M152 -8q-63 0 -97 28t-34 95q0 43 19 67.5t47 35.5q-9 3 -19 10t-18.5 18t-14 26.5t-5.5 36.5q0 30 9.5 50.5t26 32.5t38.5 17.5t48 5.5t48 -5.5t38.5 -17.5t25.5 -32.5t9 -50.5q0 -21 -5.5 -36.5t-14 -26.5t-18 -18t-18.5 -10q29 -11 47.5 -35.5t18.5 -67.5
q0 -67 -34 -95t-97 -28zM152 42q32 0 43.5 19.5t11.5 51.5v6q0 31 -11.5 50.5t-43.5 19.5t-44 -19.5t-12 -50.5v-6q0 -32 12 -51.5t44 -19.5zM152 238q28 0 36.5 16t8.5 46v3q0 30 -8.5 46.5t-36.5 16.5q-27 0 -36 -16.5t-9 -46.5v-3q0 -30 9 -46t36 -16z" />
    <glyph glyph-name="nine.dnom" horiz-adv-x="301" 
d="M144 -8q-60 0 -86 30.5t-26 78.5v3h71v-3q0 -32 10.5 -45.5t31.5 -13.5q33 0 42 31.5t9 92.5v19q-6 -17 -24.5 -31.5t-47.5 -14.5q-101 0 -101 128v20q0 128 121 128q72 0 100 -42t28 -134v-57q0 -48 -6 -83.5t-20.5 -59t-39 -35.5t-62.5 -12zM150 191q25 0 36.5 21
t11.5 57v17q0 38 -11.5 59t-36.5 21q-26 0 -38 -20.5t-12 -58.5v-17q0 -38 12 -58.5t38 -20.5z" />
    <glyph glyph-name="zero.dnom" horiz-adv-x="312" 
d="M156 42q19 0 29.5 9.5t15.5 28.5t6 45.5t1 61.5v33q0 34 -1 61.5t-6 46t-15.5 28.5t-29.5 10t-29.5 -10t-16 -28.5t-6.5 -46t-1 -61.5v-33q0 -35 1 -61.5t6.5 -45.5t16 -28.5t29.5 -9.5zM156 -8q-38 0 -63 11t-39.5 34t-20.5 57.5t-6 81.5v55q0 47 6 82t20.5 57.5
t39.5 33.5t63 11q74 0 101.5 -45t27.5 -139v-55q0 -94 -27.5 -139t-101.5 -45z" />
    <glyph glyph-name="zero.dnom.zero" horiz-adv-x="312" 
d="M156 -9q-75 0 -102 45t-27 138v56q0 94 27 139t102 45q73 0 101 -45t28 -139v-56q0 -93 -28 -138t-101 -45zM156 40q19 0 29.5 9.5t15.5 28.5t6 46t1 62v13l-106 -43q1 -56 10.5 -86t43.5 -30zM102 210l106 42q-1 54 -10.5 83t-41.5 29q-19 0 -30 -9.5t-16 -28.5
t-6.5 -46t-1.5 -62v-8z" />
    <glyph glyph-name="ampersand.aalt" horiz-adv-x="628" 
d="M239 -13q-49 0 -89.5 14.5t-69 41t-44.5 64t-16 83.5q0 36 10 64.5t28 52t43.5 44t56.5 42.5l22 15v1q-20 26 -34 48t-24 43t-14.5 42.5t-4.5 46.5q0 35 13.5 62.5t37 47t55.5 29.5t68 10q34 0 65 -8.5t53.5 -26.5t36 -46t13.5 -67q0 -32 -10 -58.5t-27 -49t-40 -42
t-50 -38.5l-6 -4l127 -166q13 31 20.5 72.5t8.5 94.5h95q-2 -78 -19.5 -140.5t-43.5 -107.5l116 -151h-123l-53 69q-38 -40 -87.5 -61t-113.5 -21zM253 74q44 0 76.5 15.5t55.5 50.5l-153 201l-18 -13q-22 -15 -37 -30t-24 -30.5t-13 -34t-4 -40.5q0 -52 31 -85.5t86 -33.5z
M205 589q0 -35 13 -60t40 -60l3 -5l8 6q34 24 57.5 51t23.5 65q0 34 -19 53t-54 19q-30 0 -51 -17.5t-21 -51.5z" />
    <glyph glyph-name="hyphen.case" horiz-adv-x="349" 
d="M50 405h249v-94h-249v94z" />
    <glyph glyph-name="endash.aalt" horiz-adv-x="497" 
d="M31 405h435v-94h-435v94z" />
    <glyph glyph-name="emdash.aalt" horiz-adv-x="726" 
d="M31 405h664v-94h-664v94z" />
    <glyph glyph-name="question.aalt" horiz-adv-x="496" 
d="M164 250q0 37 7 62t20.5 44t33.5 34.5t46 32.5q22 14 36 28t22.5 29t12 33t3.5 41q0 53 -25 77.5t-67 24.5q-57 0 -81.5 -34t-24.5 -104v-9h-122v9q0 112 62.5 166t167.5 54q42 0 81 -9.5t68 -31t46.5 -55.5t17.5 -83q0 -69 -28.5 -112t-70.5 -70q-23 -15 -38.5 -26.5
t-25.5 -25t-14 -31.5t-4 -47v-42h-123v45zM162 125h128v-125h-128v125z" />
    <glyph glyph-name="questiondown.aalt" horiz-adv-x="496" 
d="M230 -13q-42 0 -81 9.5t-68.5 31t-47 55.5t-17.5 83q0 68 29 111.5t71 69.5q23 15 38.5 26.5t25.5 25t14 31.5t4 47v43h124v-45q0 -37 -7 -62t-21 -44.5t-34 -35t-46 -32.5q-21 -14 -35.5 -27.5t-23 -28.5t-12 -33t-3.5 -41q0 -53 25 -78t66 -25q57 0 82 34.5t25 104.5v9
h122v-9q0 -112 -62.5 -166t-167.5 -54zM196 725h128v-125h-128v125z" />
    <glyph glyph-name="exclam.aalt" horiz-adv-x="268" 
d="M69 530v195h130v-195l-25 -330h-80zM70 125h128v-125h-128v125z" />
    <glyph glyph-name="exclamdown.aalt" horiz-adv-x="268" 
d="M94 525h80l25 -330v-195h-130v195zM70 725h128v-125h-128v125z" />
    <glyph glyph-name="guilsinglleft.aalt" horiz-adv-x="199" 
d="M30 307v135l139 147v-132l-80 -83l80 -82v-132z" />
    <glyph glyph-name="guilsinglright.aalt" horiz-adv-x="199" 
d="M30 292l79 82l-79 83v132l139 -147v-135l-139 -147v132z" />
    <glyph glyph-name="guillemotleft.aalt" horiz-adv-x="364" 
d="M195 307v135l139 147v-132l-80 -83l80 -82v-132zM30 307v135l139 147v-132l-80 -83l80 -82v-132z" />
    <glyph glyph-name="guillemotright.aalt" horiz-adv-x="364" 
d="M30 292l79 82l-79 83v132l139 -147v-135l-139 -147v132zM194 292l79 82l-79 83v132l139 -147v-135l-139 -147v132z" />
    <glyph glyph-name="parenleft.case" horiz-adv-x="248" 
d="M148 0q-22 33 -43 72t-37 85t-25.5 97.5t-9.5 108.5t9.5 108.5t25.5 97t37 85t43 71.5h103q-50 -81 -79 -168.5t-29 -193.5q0 -107 29 -194.5t79 -168.5h-103z" />
    <glyph glyph-name="parenright.case" horiz-adv-x="250" 
d="M-3 0q51 81 80 169t29 194q0 107 -29 194t-80 168h104q22 -33 43 -72t37 -85t26 -97t10 -108t-10 -109t-26 -97.5t-37 -85t-43 -71.5h-104z" />
    <glyph glyph-name="bracketleft.aalt" horiz-adv-x="269" 
d="M65 725h199v-78h-105v-568h105v-79h-199v725z" />
    <glyph glyph-name="bracketright.aalt" horiz-adv-x="268" 
d="M5 79h104v568h-104v78h198v-725h-198v79z" />
    <glyph glyph-name="braceleft.aalt" horiz-adv-x="297" 
d="M251 0q-47 0 -79.5 7t-52.5 24.5t-29.5 47.5t-9.5 76v57q0 23 -2.5 43t-10.5 34t-23 22.5t-39 9.5v85q24 0 39 8.5t23 23t10.5 34t2.5 43.5v55q0 46 9.5 76t29.5 47.5t52.5 24.5t79.5 7h26v-78h-14q-27 0 -43 -3.5t-25 -12.5t-12 -23.5t-3 -36.5v-71q0 -35 -6.5 -58.5
t-17.5 -39t-27 -24.5t-35 -14v-2q19 -5 35 -14t27 -25t17.5 -40t6.5 -58v-69q0 -22 3 -37t12 -24t25 -12.5t43 -3.5h14v-79h-26z" />
    <glyph glyph-name="braceright.aalt" horiz-adv-x="297" 
d="M20 0v79h14q27 0 43 3.5t25 12.5t12 24t3 37v69q0 34 6.5 58t17.5 40t27 25t35 14v2q-19 5 -35 14t-27 24.5t-17.5 39t-6.5 58.5v71q0 22 -3 36.5t-12 23.5t-25 12.5t-43 3.5h-14v78h26q46 0 79 -7t53 -24.5t29.5 -47.5t9.5 -76v-55q0 -24 2.5 -43.5t10.5 -34t23 -23
t39 -8.5v-85q-24 -1 -39 -9.5t-23 -22.5t-10.5 -34t-2.5 -43v-57q0 -46 -9.5 -76t-29.5 -47.5t-53 -24.5t-79 -7h-26z" />
    <glyph glyph-name="bar.aalt" horiz-adv-x="234" 
d="M65 725h104v-725h-104v725z" />
    <glyph glyph-name="brokenbar.aalt" horiz-adv-x="212" 
d="M54 260h104v-260h-104v260zM54 725h104v-260h-104v260z" />
    <glyph glyph-name="periodcentered.aalt" horiz-adv-x="236" 
d="M54 425h128v-125h-128v125z" />
    <glyph glyph-name="bullet.aalt" horiz-adv-x="454" 
d="M223 188q-36 0 -68 14t-56 39t-38 58t-14 72q0 37 14 69t38 56t56 38t68 14q39 0 73 -14t58.5 -38t38.5 -56t14 -69q0 -39 -14 -72t-38.5 -58t-58.5 -39t-73 -14z" />
    <glyph glyph-name="plus.case" 
d="M228 320h-205v89h205v224h93v-224h204v-89h-204v-225h-93v225z" />
    <glyph glyph-name="minus.case" 
d="M23 406h502v-99h-502v99z" />
    <glyph glyph-name="divide.aalt" 
d="M212 253h123v-131h-123v131zM40 408h468v-90h-468v90zM212 601h123v-131h-123v131z" />
    <glyph glyph-name="multiply.aalt" 
d="M52 194l160 167l-161 169l64 64l159 -168l160 167l64 -64l-161 -168l161 -169l-64 -63l-160 167l-159 -167z" />
    <glyph glyph-name="equal.case" 
d="M62 296h425v-89h-425v89zM62 515h425v-89h-425v89z" />
    <glyph glyph-name="plusminus.aalt" 
d="M228 386h-193v89h193v151h92v-151h194v-89h-194v-152h-92v152zM35 184h479v-89h-479v89z" />
    <glyph glyph-name="less.aalt" 
d="M50 315v97l409 222v-102l-307 -169l307 -168v-102z" />
    <glyph glyph-name="greater.aalt" 
d="M90 93v102l307 168l-307 169v102l409 -222v-97z" />
    <glyph glyph-name="lessequal.aalt" 
d="M506 548l-326 -118l326 -118v-95l-463 164v97l463 163v-93zM43 184h463v-89h-463v89z" />
    <glyph glyph-name="greaterequal.aalt" 
d="M43 641l463 -163v-97l-463 -164v95l327 118l-327 118v93zM506 95h-463v89h463v-89z" />
    <glyph glyph-name="notequal.aalt" 
d="M62 515h231l54 118h104l-54 -118h90v-89h-131l-60 -130h191v-89h-232l-51 -112h-104l51 112h-89v89h130l60 130h-190v89z" />
    <glyph glyph-name="acute.aalt" horiz-adv-x="256" 
d="M87 886h145l-117 -113h-91z" />
    <glyph glyph-name="breve.aalt" horiz-adv-x="330" 
d="M164 771q-69 0 -103 27.5t-37 87.5h80q2 -32 19.5 -42.5t40.5 -10.5q25 0 42 10.5t19 42.5h81q-5 -60 -39 -87.5t-103 -27.5z" />
    <glyph glyph-name="caron.aalt" horiz-adv-x="385" 
d="M138 773l-114 113h103l65 -61l65 61h104l-114 -113h-109z" />
    <glyph glyph-name="cedilla.aalt" horiz-adv-x="251" 
d="M109 -190q-21 0 -43 3t-42 11l14 43q11 -5 27.5 -9t32.5 -4q21 0 38 7.5t17 26.5q0 16 -12 23.5t-30 7.5q-11 0 -22 -2t-19 -7l-24 17l49 80h49l-33 -53q8 2 16 3t19 1q32 -1 56.5 -17.5t24.5 -49.5q0 -21 -10 -36.5t-26.5 -25t-38 -14.5t-43.5 -5z" />
    <glyph glyph-name="circumflex.aalt" horiz-adv-x="384" 
d="M138 886h108l114 -113h-103l-65 60l-66 -60h-102z" />
    <glyph glyph-name="dieresis.aalt" horiz-adv-x="348" 
d="M24 884h102v-108h-102v108zM222 884h102v-108h-102v108z" />
    <glyph glyph-name="dotaccent.aalt" horiz-adv-x="167" 
d="M24 884h119v-108h-119v108z" />
    <glyph glyph-name="grave.aalt" horiz-adv-x="256" 
d="M24 886h144l64 -113h-91z" />
    <glyph glyph-name="hungarumlaut.aalt" horiz-adv-x="435" 
d="M87 897h145l-117 -113h-91zM266 897h145l-117 -113h-91z" />
    <glyph glyph-name="macron.aalt" horiz-adv-x="292" 
d="M24 870h244v-80h-244v80z" />
    <glyph glyph-name="ogonek.aalt" horiz-adv-x="246" 
d="M146 -188q-24 0 -46 4.5t-39 15t-27 26.5t-10 39q0 29 20 59t52 44h119q-38 -19 -64 -41t-26 -45q0 -20 13.5 -28t34.5 -8q11 0 22 2t20 4v-65q-16 -4 -35 -5.5t-34 -1.5z" />
    <glyph glyph-name="ring.aalt" horiz-adv-x="225" 
d="M112 805q19 0 33.5 12t14.5 33t-14.5 33.5t-33.5 12.5t-32.5 -12.5t-13.5 -33.5t13.5 -33t32.5 -12zM112 766q-37 0 -62.5 23.5t-25.5 60.5t26 60.5t62 23.5q37 0 63 -23.5t26 -60.5t-25.5 -60.5t-63.5 -23.5z" />
    <glyph glyph-name="tilde.aalt" horiz-adv-x="359" 
d="M24 773q3 33 12.5 55t23 34.5t29.5 18t33 5.5q18 0 35.5 -7t33 -16t29 -16t24.5 -7q23 0 24 46h67q-3 -34 -12.5 -56t-23.5 -34.5t-30 -17.5t-31 -5q-17 0 -33 7t-31.5 15t-29 15t-25.5 7q-25 0 -28 -44h-67z" />
    <glyph glyph-name="a.salt" horiz-adv-x="498" 
d="M34 308q0 244 164 244q48 0 83 -26.5t49 -64.5v77h114v-538h-114v78q-14 -38 -49 -64.5t-83 -26.5q-164 0 -164 244v77zM334 269q0 101 -23.5 153t-76.5 52q-51 0 -66.5 -49t-15.5 -142v-27q0 -93 15.5 -142t66.5 -49q53 0 76.5 52t23.5 152z" />
    <glyph glyph-name="aacute.aalt" horiz-adv-x="498" 
d="M244 725h133l-120 -121h-77zM34 308q0 244 164 244q48 0 83 -26.5t49 -64.5v77h114v-538h-114v78q-14 -38 -49 -64.5t-83 -26.5q-164 0 -164 244v77zM334 269q0 101 -23.5 153t-76.5 52q-51 0 -66.5 -49t-15.5 -142v-27q0 -93 15.5 -142t66.5 -49q53 0 76.5 52t23.5 152z
" />
    <glyph glyph-name="abreve.aalt" horiz-adv-x="498" 
d="M34 308q0 244 164 244q48 0 83 -26.5t49 -64.5v77h114v-538h-114v78q-14 -38 -49 -64.5t-83 -26.5q-164 0 -164 244v77zM334 269q0 101 -23.5 153t-76.5 52q-51 0 -66.5 -49t-15.5 -142v-27q0 -93 15.5 -142t66.5 -49q53 0 76.5 52t23.5 152zM242 604q-66 0 -99 32
t-37 89h79q5 -61 57 -61q53 0 58 61h80q-5 -57 -37.5 -89t-100.5 -32z" />
    <glyph glyph-name="acircumflex.aalt" horiz-adv-x="498" 
d="M202 725h99l114 -121h-93l-70 63l-70 -63h-94zM34 308q0 244 164 244q48 0 83 -26.5t49 -64.5v77h114v-538h-114v78q-14 -38 -49 -64.5t-83 -26.5q-164 0 -164 244v77zM334 269q0 101 -23.5 153t-76.5 52q-51 0 -66.5 -49t-15.5 -142v-27q0 -93 15.5 -142t66.5 -49
q53 0 76.5 52t23.5 152z" />
    <glyph glyph-name="adieresis.aalt" horiz-adv-x="498" 
d="M103 725h101v-114h-101v114zM302 725h101v-114h-101v114zM34 308q0 244 164 244q48 0 83 -26.5t49 -64.5v77h114v-538h-114v78q-14 -38 -49 -64.5t-83 -26.5q-164 0 -164 244v77zM334 269q0 101 -23.5 153t-76.5 52q-51 0 -66.5 -49t-15.5 -142v-27q0 -93 15.5 -142
t66.5 -49q53 0 76.5 52t23.5 152z" />
    <glyph glyph-name="agrave.aalt" horiz-adv-x="498" 
d="M34 308q0 244 164 244q48 0 83 -26.5t49 -64.5v77h114v-538h-114v78q-14 -38 -49 -64.5t-83 -26.5q-164 0 -164 244v77zM334 269q0 101 -23.5 153t-76.5 52q-51 0 -66.5 -49t-15.5 -142v-27q0 -93 15.5 -142t66.5 -49q53 0 76.5 52t23.5 152zM91 725h134l63 -121h-78z
" />
    <glyph glyph-name="amacron.aalt" horiz-adv-x="498" 
d="M34 308q0 244 164 244q48 0 83 -26.5t49 -64.5v77h114v-538h-114v78q-14 -38 -49 -64.5t-83 -26.5q-164 0 -164 244v77zM334 269q0 101 -23.5 153t-76.5 52q-51 0 -66.5 -49t-15.5 -142v-27q0 -93 15.5 -142t66.5 -49q53 0 76.5 52t23.5 152zM123 703h239v-77h-239v77z
" />
    <glyph glyph-name="aogonek.aalt" horiz-adv-x="498" 
d="M377 -188q-24 0 -46 4.5t-39 15t-27 26.5t-10 39q0 29 20.5 56t54.5 47v78q-14 -38 -49 -64.5t-83 -26.5q-164 0 -164 244v77q0 244 164 244q48 0 83 -26.5t49 -64.5v77h114v-538q-38 -19 -63.5 -40.5t-25.5 -45.5q0 -20 14 -28t35 -8q14 0 23 2t17 4v-65
q-17 -4 -33.5 -5.5t-33.5 -1.5zM334 269q0 101 -23.5 153t-76.5 52q-51 0 -66.5 -49t-15.5 -142v-27q0 -93 15.5 -142t66.5 -49q53 0 76.5 52t23.5 152z" />
    <glyph glyph-name="aring.aalt" horiz-adv-x="498" 
d="M245 632q19 0 32.5 13t13.5 33t-13.5 32.5t-32.5 12.5q-18 0 -31.5 -12.5t-13.5 -32.5t13.5 -33t31.5 -13zM245 591q-38 0 -64.5 24.5t-26.5 62.5t26.5 62.5t64.5 24.5q19 0 36 -6.5t29.5 -18t19.5 -27.5t7 -35q0 -38 -26.5 -62.5t-65.5 -24.5zM34 308q0 244 164 244
q48 0 83 -26.5t49 -64.5v77h114v-538h-114v78q-14 -38 -49 -64.5t-83 -26.5q-164 0 -164 244v77zM334 269q0 101 -23.5 153t-76.5 52q-51 0 -66.5 -49t-15.5 -142v-27q0 -93 15.5 -142t66.5 -49q53 0 76.5 52t23.5 152z" />
    <glyph glyph-name="atilde.aalt" horiz-adv-x="498" 
d="M34 308q0 244 164 244q48 0 83 -26.5t49 -64.5v77h114v-538h-114v78q-14 -38 -49 -64.5t-83 -26.5q-164 0 -164 244v77zM334 269q0 101 -23.5 153t-76.5 52q-51 0 -66.5 -49t-15.5 -142v-27q0 -93 15.5 -142t66.5 -49q53 0 76.5 52t23.5 152zM98 611q4 32 13.5 53.5
t22.5 35t28.5 19.5t31.5 6q17 0 32 -6.5t28.5 -14.5t25 -14.5t21.5 -6.5q25 0 34 42h66q-3 -31 -13 -53t-23.5 -35.5t-28.5 -19.5t-29 -6q-16 0 -31 6.5t-28.5 15t-26 15t-23.5 6.5q-24 0 -33 -43h-67z" />
    <glyph glyph-name="l.ss02" horiz-adv-x="269" 
d="M199 0q-43 0 -71 6t-44.5 21.5t-23 42.5t-6.5 69v586h114v-567q0 -24 3.5 -39t11.5 -23t22 -11t35 -3h19v-82h-60z" />
    <glyph glyph-name="lacute.aalt" horiz-adv-x="269" 
d="M199 0q-43 0 -71 6t-44.5 21.5t-23 42.5t-6.5 69v586h114v-567q0 -24 3.5 -39t11.5 -23t22 -11t35 -3h19v-82h-60zM124 886h145l-117 -113h-91z" />
    <glyph glyph-name="lcaron.aalt" horiz-adv-x="323" 
d="M234 725h109l-59 -170h-76zM203 0q-43 0 -71 6t-44.5 21.5t-23 42.5t-6.5 69v586h114v-567q0 -24 3.5 -39t11.5 -23t22 -11t35 -3h19v-82h-60z" />
    <glyph glyph-name="uni013C.aalt" horiz-adv-x="269" 
d="M121 -140h-35v90h100v-96l-42 -85h-60zM199 0q-43 0 -71 6t-44.5 21.5t-23 42.5t-6.5 69v586h114v-567q0 -24 3.5 -39t11.5 -23t22 -11t35 -3h19v-82h-60z" />
    <glyph glyph-name="ldot.aalt" horiz-adv-x="337" 
d="M229 469h101v-114h-101v114zM199 0q-43 0 -71 6t-44.5 21.5t-23 42.5t-6.5 69v586h114v-567q0 -24 3.5 -39t11.5 -23t22 -11t35 -3h19v-82h-60z" />
    <glyph glyph-name="lslash.aalt" horiz-adv-x="300" 
d="M10 361l65 39v325h114v-255l80 49v-97l-80 -49v-215q0 -24 3.5 -39t11.5 -23t22 -11t35 -3h19v-82h-60q-43 0 -71 6t-44.5 21.5t-23 42.5t-6.5 69v164l-65 -39v97z" />
    <glyph glyph-name="uniFB02.aalt" horiz-adv-x="551" 
d="M71 464h-68v74h68v52q0 42 8.5 68t27.5 41t47.5 20.5t69.5 5.5h56v-71h-34q-19 0 -31 -2.5t-18.5 -9.5t-9 -20t-2.5 -33v-51h95v-74h-95v-464h-114v464zM481 0q-43 0 -71 6t-44.5 21.5t-23 42.5t-6.5 69v586h114v-567q0 -24 3.5 -39t11.5 -23t22 -11t35 -3h19v-82h-60z
" />
    <glyph glyph-name="germandbls.aalt" horiz-adv-x="517" 
d="M54 526q0 61 14.5 101.5t41.5 65t65 35t85 10.5q42 0 78.5 -9.5t62.5 -30.5t41 -53.5t15 -78.5q0 -66 -29 -105.5t-71 -51.5q26 -6 49 -19.5t40 -36.5t27 -56t10 -79q0 -117 -50.5 -167.5t-161.5 -50.5h-48v74h37q60 0 84.5 38t24.5 106q0 72 -28.5 108.5t-92.5 36.5h-28
v76h23q50 0 75.5 26t25.5 89q0 51 -21.5 79t-65.5 28q-48 0 -68.5 -29.5t-20.5 -99.5v-707h-114v701z" />
    </font>
</defs>
</svg>
