<?xml version="1.0" standalone="no"?>
<!DOCTYPE svg PUBLIC "-//W3C//DTD SVG 1.1//EN" "http://www.w3.org/Graphics/SVG/1.1/DTD/svg11.dtd" >
<svg xmlns="http://www.w3.org/2000/svg" xmlns:xlink="http://www.w3.org/1999/xlink" version="1.1">
<metadata>
Created by Christoph Koeberlin (http://christoph.koe.berlin)
Copyright (c) 2020 Swiss Typefaces Sarl. All rights reserved.
</metadata>
<defs>
<font id="Font" horiz-adv-x="678" >
  <font-face 
    font-family="Font"
    font-weight="600"
    font-stretch="normal"
    units-per-em="1000"
    panose-1="2 11 7 4 0 0 0 0 0 0"
    ascent="800"
    descent="-200"
    x-height="538"
    cap-height="725"
    bbox="-418 -241 1328 955"
    underline-thickness="100"
    underline-position="-88"
    unicode-range="U+0020-FEFF"
  />
<missing-glyph horiz-adv-x="638" 
d="M569 0h-500v725h500v-725zM535 706h-433l217 -328zM88 29l220 333l-220 334v-667zM550 696l-221 -334l221 -333v667zM535 19l-216 327l-217 -327h433z" />
    <glyph glyph-name=".notdef" horiz-adv-x="638" 
d="M569 0h-500v725h500v-725zM535 706h-433l217 -328zM88 29l220 333l-220 334v-667zM550 696l-221 -334l221 -333v667zM535 19l-216 327l-217 -327h433z" />
    <glyph glyph-name="glyph1" horiz-adv-x="0" 
 />
    <glyph glyph-name="glyph2" horiz-adv-x="203" 
 />
    <glyph glyph-name="space" unicode=" " horiz-adv-x="203" 
 />
    <glyph glyph-name="exclam" unicode="!" horiz-adv-x="267" 
d="M202 539l-22 -325h-91l-25 325v186h138v-186zM207 150v-150h-148v150h148z" />
    <glyph glyph-name="quotedbl" unicode="&#x22;" horiz-adv-x="405" 
d="M59 446l-20 279h145l-21 -279h-104zM242 446l-20 279h145l-21 -279h-104z" />
    <glyph glyph-name="numbersign" unicode="#" horiz-adv-x="766" 
d="M732 549l-16 -114h-124l-21 -145h124l-16 -114h-124l-25 -176h-127l25 176h-143l-25 -176h-127l25 176h-124l16 114h124l21 145h-124l16 114h124l25 176h127l-25 -176h143l25 176h127l-25 -176h124zM301 290h143l21 145h-143z" />
    <glyph glyph-name="dollar" unicode="$" horiz-adv-x="567" 
d="M319 -7v-86h-57v80h-10q-114 0 -205 37v138q93 -51 198 -51h17v199l-39 13q-94 31 -138.5 83t-44.5 118q0 90 62 146t160 66v82h57v-80q48 -2 92.5 -9t72.5 -19v-129q-35 15 -78.5 23.5t-86.5 9.5v-184l24 -7q93 -28 142 -77t49 -137q0 -81 -59.5 -140t-155.5 -76z
M262 448v163q-42 -7 -66 -26t-24 -47q0 -30 22.5 -51.5t67.5 -38.5zM319 121q34 10 53.5 30.5t19.5 51.5q0 30 -19 50.5t-54 36.5v-169z" />
    <glyph glyph-name="percent" unicode="%" horiz-adv-x="954" 
d="M26 520q0 100 45 156t130 56q84 0 129.5 -56t45.5 -156q0 -99 -45.5 -155t-129.5 -56q-85 0 -130 56t-45 155zM262 520q0 66 -15 96.5t-46 30.5q-32 0 -47.5 -30.5t-15.5 -96.5q0 -65 15 -95t48 -30q31 0 46 30t15 95zM578 203q0 100 45 156t130 56q84 0 129.5 -56
t45.5 -156q0 -99 -45.5 -155t-129.5 -56q-85 0 -130 56t-45 155zM814 203q0 66 -15 96.5t-46 30.5q-32 0 -47.5 -30.5t-15.5 -96.5q0 -65 15 -95t48 -30q31 0 46 30t15 95zM805 725l-518 -725h-137l518 725h137z" />
    <glyph glyph-name="ampersand" unicode="&#x26;" horiz-adv-x="729" 
d="M751 0h-184l-70 75q-52 -45 -106.5 -66.5t-116.5 -21.5q-72 0 -128 28t-87 77t-31 110q0 71 42.5 123t117.5 85q-36 43 -53 79.5t-17 72.5q0 49 27 89.5t74.5 63.5t107.5 23q51 0 96.5 -16.5t75 -52.5t29.5 -93t-35.5 -105.5t-102.5 -84.5l103 -110q23 74 26 131h136
q-12 -109 -75 -225zM260 571q0 -25 14.5 -50t48.5 -63q43 26 58.5 54t15.5 58q0 32 -19.5 50.5t-48.5 18.5t-49 -18t-20 -50zM420 158l-158 171q-49 -26 -71 -55t-22 -67q0 -49 34 -79t88 -30q35 0 66 14t63 46z" />
    <glyph glyph-name="quotesingle" unicode="'" horiz-adv-x="222" 
d="M59 446l-20 279h145l-21 -279h-104z" />
    <glyph glyph-name="parenleft" unicode="(" horiz-adv-x="323" 
d="M171 755h126q-53 -87 -87.5 -215t-34.5 -260t34.5 -260.5t87.5 -214.5h-126q-53 79 -95.5 209t-42.5 266q0 137 42.5 267t95.5 208z" />
    <glyph glyph-name="parenright" unicode=")" horiz-adv-x="324" 
d="M152 -195h-126q53 86 87.5 214.5t34.5 260.5t-34.5 260t-87.5 215h126q33 -48 64.5 -122.5t52.5 -166.5t21 -186q0 -136 -42.5 -266.5t-95.5 -208.5z" />
    <glyph glyph-name="asterisk" unicode="*" horiz-adv-x="432" 
d="M168 725h93v-104l99 38l33 -87l-102 -35l61 -85l-72 -54l-65 87l-59 -87l-78 53l61 85l-100 36l32 87l97 -38v104z" />
    <glyph glyph-name="plus" unicode="+" 
d="M402 209v-209h-125v209h-216v120h216v209h125v-209h215v-120h-215z" />
    <glyph glyph-name="comma" unicode="," horiz-adv-x="242" 
d="M115 0h-68v150h148v-161l-75 -159h-79z" />
    <glyph glyph-name="hyphen" unicode="-" horiz-adv-x="445" 
d="M393 329v-124h-341v124h341z" />
    <glyph glyph-name="period" unicode="." horiz-adv-x="242" 
d="M195 150v-150h-148v150h148z" />
    <glyph glyph-name="slash" unicode="/" horiz-adv-x="449" 
d="M429 755l-280 -755h-128l280 755h128z" />
    <glyph glyph-name="zero" unicode="0" horiz-adv-x="665" 
d="M41 364q0 112 33 196t98.5 131t160.5 47q94 0 159.5 -47t98.5 -131.5t33 -195.5q0 -112 -33 -197t-98.5 -132.5t-159.5 -47.5q-95 0 -160.5 47.5t-98.5 132.5t-33 197zM483 364q0 130 -38.5 200t-111.5 70t-112 -70t-39 -200q0 -131 39 -202t112 -71t111.5 71t38.5 202z
" />
    <glyph glyph-name="one" unicode="1" horiz-adv-x="568" 
d="M373 116h174v-116h-502v116h190v427h-178v93q64 2 102 8t66 24.5t43 56.5h105v-609z" />
    <glyph glyph-name="two" unicode="2" horiz-adv-x="571" 
d="M519 539q0 -70 -39.5 -137.5t-105.5 -132.5t-172 -153h334v-116h-505v112q120 101 191 168t114.5 127.5t43.5 110.5q0 49 -30 75.5t-91 26.5q-53 0 -102 -17.5t-99 -46.5v129q38 21 100.5 37t126.5 16q109 0 171.5 -52.5t62.5 -146.5z" />
    <glyph glyph-name="three" unicode="3" horiz-adv-x="561" 
d="M381 209q0 57 -50 85.5t-132 28.5h-29v108h24q79 0 124 28t45 78q0 43 -38.5 63t-93.5 20q-43 0 -92 -15.5t-91 -39.5v130q40 18 95.5 30.5t112.5 12.5q64 0 120 -21t91 -65t35 -109q0 -51 -27.5 -93t-70.5 -66q55 -23 86 -71.5t31 -104.5q0 -71 -37 -121t-98.5 -75
t-135.5 -25q-57 0 -112.5 10.5t-94.5 26.5v130q42 -22 91 -35.5t95 -13.5q71 0 111.5 25.5t40.5 78.5z" />
    <glyph glyph-name="four" unicode="4" horiz-adv-x="658" 
d="M513 291h124v-116h-124v-175h-137v175h-358v107l360 443h135v-434zM376 291v259l-207 -259h207z" />
    <glyph glyph-name="five" unicode="5" horiz-adv-x="572" 
d="M399 234q0 67 -45.5 98.5t-127.5 31.5q-49 0 -85.5 -7.5t-82.5 -24.5l43 393h406v-116h-294l-17 -140q41 9 76 9q66 0 127 -24.5t100.5 -79t39.5 -140.5q0 -77 -39.5 -133t-107 -85t-148.5 -29q-56 0 -111.5 10.5t-93.5 26.5v130q41 -22 89.5 -35.5t94.5 -13.5
q82 0 129 31.5t47 97.5z" />
    <glyph glyph-name="six" unicode="6" horiz-adv-x="620" 
d="M179 412q25 31 67.5 50t97.5 19q68 0 124 -29.5t89 -86t33 -132.5q0 -73 -34.5 -129t-96 -86.5t-139.5 -30.5q-138 0 -208.5 98t-70.5 258q0 124 44 213t124 135.5t185 46.5q36 0 76.5 -5t73.5 -16v-129q-36 15 -77 23.5t-80 8.5q-49 0 -94.5 -20t-77 -66.5t-36.5 -121.5
zM320 91q56 0 93 39.5t37 104.5q0 63 -37 102t-93 39q-57 0 -95 -39t-38 -102q0 -64 38 -104t95 -40z" />
    <glyph glyph-name="seven" unicode="7" horiz-adv-x="572" 
d="M19 609v116h533v-116q-99 -102 -160.5 -190.5t-94.5 -189t-40 -229.5h-152q8 177 91.5 330t216.5 279h-394z" />
    <glyph glyph-name="eight" unicode="8" horiz-adv-x="628" 
d="M567 552q0 -51 -21.5 -94t-66.5 -70q110 -62 110 -181q0 -69 -36 -118.5t-98.5 -75.5t-140.5 -26t-140 26t-98 75.5t-36 118.5q0 119 111 181q-43 25 -66 69t-23 94q0 54 31 96.5t88.5 66.5t132.5 24q76 0 133 -24t88.5 -66.5t31.5 -95.5zM314 634q-54 0 -86 -27t-32 -72
q0 -46 32.5 -75t85.5 -29t86 29t33 75q0 45 -32.5 72t-86.5 27zM181 213q0 -54 36.5 -88t96.5 -34q61 0 97.5 34t36.5 88t-36.5 86.5t-97.5 32.5t-97 -32.5t-36 -86.5z" />
    <glyph glyph-name="nine" unicode="9" horiz-adv-x="620" 
d="M441 313q-25 -31 -67.5 -50t-97.5 -19q-68 0 -124 29.5t-89 86t-33 132.5q0 73 34.5 129t96 86.5t139.5 30.5q138 0 208.5 -98t70.5 -258q0 -124 -44 -213t-124 -135.5t-185 -46.5q-36 0 -76.5 5t-73.5 16v129q36 -15 77 -23.5t80 -8.5q49 0 94.5 20t77 66.5t36.5 121.5z
M300 634q-56 0 -93 -39.5t-37 -104.5q0 -63 37 -102t93 -39q57 0 95 39t38 102q0 64 -38 104t-95 40z" />
    <glyph glyph-name="colon" unicode=":" horiz-adv-x="252" 
d="M200 538v-150h-148v150h148zM200 150v-150h-148v150h148z" />
    <glyph glyph-name="semicolon" unicode=";" horiz-adv-x="259" 
d="M205 538v-150h-148v150h148zM125 0h-68v150h148v-161l-75 -159h-79z" />
    <glyph glyph-name="less" unicode="&#x3c;" 
d="M77 210v114l516 220v-134l-364 -143l364 -143v-135z" />
    <glyph glyph-name="equal" unicode="=" 
d="M617 467v-120h-556v120h556zM617 191v-120h-556v120h556z" />
    <glyph glyph-name="greater" unicode="&#x3e;" 
d="M85 544l516 -220v-114l-516 -221v135l365 143l-365 143v134z" />
    <glyph glyph-name="question" unicode="?" horiz-adv-x="478" 
d="M18 572v127q35 16 93 27.5t112 11.5q62 0 118 -21t91.5 -62.5t35.5 -99.5q0 -63 -34 -109t-84 -75q-37 -21 -55.5 -36.5t-28.5 -38t-10 -57.5v-24h-135v27q0 70 25.5 110.5t81.5 73.5q51 31 76 58t25 61q0 39 -36 57t-88 18q-43 0 -94 -13.5t-93 -34.5zM262 150v-150
h-148v150h148z" />
    <glyph glyph-name="at" unicode="@" horiz-adv-x="827" 
d="M499 239q-45 -79 -133 -79q-65 0 -108 45t-43 131q0 61 26 112.5t71.5 82t100.5 30.5q35 0 63 -16t45 -48l7 47h91l-32 -212q-3 -16 -3 -34q0 -54 38 -54q37 0 59.5 41.5t22.5 115.5q0 118 -72.5 179t-192.5 61q-89 0 -157 -39.5t-105.5 -109t-37.5 -155.5
q0 -76 33.5 -136t94 -94t140.5 -34q97 0 181 44l36 -89q-50 -25 -108 -37.5t-114 -12.5q-108 0 -192.5 46t-131.5 128t-47 185q0 114 53.5 204.5t147.5 142t210 51.5q100 0 183.5 -36t134 -110t50.5 -182q0 -80 -27.5 -137.5t-72 -87.5t-94.5 -30q-44 0 -75 23t-42 64z
M324 338q0 -40 17 -61t48 -21q47 0 74 36.5t27 90.5q0 39 -17.5 60.5t-52.5 21.5q-43 0 -69.5 -37.5t-26.5 -89.5z" />
    <glyph glyph-name="A" unicode="A" horiz-adv-x="677" 
d="M681 0h-155l-65 187h-254l-65 -187h-146l270 725h144zM334 549l-86 -245h172z" />
    <glyph glyph-name="B" unicode="B" horiz-adv-x="645" 
d="M70 0v725h252q113 0 188.5 -43t75.5 -146q0 -47 -25 -89.5t-57 -63.5q49 -23 78.5 -62t29.5 -107q0 -111 -77.5 -162.5t-200.5 -51.5h-264zM213 607v-182h118q51 0 79.5 24t28.5 67t-28.5 67t-79.5 24h-118zM213 319v-201h128q62 0 93.5 25.5t31.5 74.5q0 101 -131 101
h-122z" />
    <glyph glyph-name="C" unicode="C" horiz-adv-x="643" 
d="M412 110q53 0 98 12.5t93 36.5v-131q-42 -18 -96.5 -29.5t-108.5 -11.5q-111 0 -193 48t-126 133t-44 194q0 123 52 208t135 126.5t177 41.5q55 0 110.5 -9t93.5 -28v-131q-93 45 -191 45q-60 0 -112 -26.5t-84.5 -83.5t-32.5 -143t32 -143t84 -83t113 -26z" />
    <glyph glyph-name="D" unicode="D" horiz-adv-x="725" 
d="M269 725q194 0 306.5 -81t112.5 -281q0 -201 -112.5 -282t-306.5 -81h-199v725h199zM279 609h-66v-493h66q77 0 133.5 18.5t92 73t35.5 155.5t-35.5 155t-92 72.5t-133.5 18.5z" />
    <glyph glyph-name="E" unicode="E" horiz-adv-x="583" 
d="M538 0h-468v725h468v-116h-325v-180h304v-116h-304v-197h325v-116z" />
    <glyph glyph-name="F" unicode="F" horiz-adv-x="563" 
d="M213 0h-143v725h468v-116h-325v-180h304v-116h-304v-313z" />
    <glyph glyph-name="G" unicode="G" horiz-adv-x="723" 
d="M678 40q-141 -53 -266 -53q-110 0 -195 44t-133.5 128.5t-48.5 202.5q0 124 55.5 208.5t145.5 126t195 41.5q57 0 115 -9t95 -28v-131q-93 45 -219 45q-62 0 -116.5 -26.5t-88.5 -83.5t-34 -143q0 -135 68.5 -194.5t168.5 -59.5q56 0 126 17v164h-174v116h306v-365z" />
    <glyph glyph-name="H" unicode="H" horiz-adv-x="751" 
d="M538 429v296h143v-725h-143v313h-325v-313h-143v725h143v-296h325z" />
    <glyph glyph-name="I" unicode="I" horiz-adv-x="459" 
d="M421 116v-116h-383v116h120v493h-120v116h383v-116h-120v-493h120z" />
    <glyph glyph-name="J" unicode="J" horiz-adv-x="394" 
d="M22 1l16 126q43 -16 78 -16q41 0 55 27t14 88v383h-128v116h271v-505q0 -233 -196 -233q-54 0 -110 14z" />
    <glyph glyph-name="K" unicode="K" horiz-adv-x="657" 
d="M70 725h143v-351l271 351h154l-284 -359l327 -366h-186l-282 315v-315h-143v725z" />
    <glyph glyph-name="L" unicode="L" horiz-adv-x="526" 
d="M70 725h143v-609h293v-116h-436v725z" />
    <glyph glyph-name="M" unicode="M" horiz-adv-x="865" 
d="M662 545l-158 -375h-142l-159 375v-545h-133v725h188l176 -425l171 425h190v-725h-133v545z" />
    <glyph glyph-name="N" unicode="N" horiz-adv-x="751" 
d="M681 725v-725h-186l-290 553v-553h-135v725h186l290 -553v553h135z" />
    <glyph glyph-name="O" unicode="O" horiz-adv-x="780" 
d="M390 -13q-107 0 -187.5 47t-124 132t-43.5 197t43.5 197t124 131.5t187.5 46.5t187.5 -46.5t124 -131.5t43.5 -197t-43.5 -197t-124 -132t-187.5 -47zM390 101q57 0 104.5 30.5t75 90t27.5 141.5t-27.5 141t-74.5 89.5t-105 30.5t-105 -30.5t-74.5 -89.5t-27.5 -141
t27.5 -141.5t75 -90t104.5 -30.5z" />
    <glyph glyph-name="P" unicode="P" horiz-adv-x="628" 
d="M288 725q92 0 160 -15.5t113.5 -66t45.5 -148.5q0 -128 -86 -179t-229 -51h-79v-265h-143v725h218zM213 609v-228h88q69 0 114 22t45 92t-46.5 92t-122.5 22h-78z" />
    <glyph glyph-name="Q" unicode="Q" horiz-adv-x="781" 
d="M645 87l89 -96l-82 -76l-98 107q-73 -35 -164 -35q-107 0 -187.5 47t-124 132t-43.5 197t43.5 197t124 131.5t187.5 46.5t187.5 -46.5t124 -131.5t43.5 -197q0 -85 -26 -155.5t-74 -120.5zM466 116l-103 112l82 76l106 -115q46 68 46 174q0 82 -27.5 141t-74.5 89.5
t-105 30.5t-105 -30.5t-74.5 -89.5t-27.5 -141t27.5 -141.5t75 -90t104.5 -30.5q40 0 76 15z" />
    <glyph glyph-name="R" unicode="R" horiz-adv-x="654" 
d="M70 0v725h223q163 0 236.5 -53.5t73.5 -161.5q0 -71 -41.5 -123.5t-124.5 -74.5l204 -312h-158l-191 296h-79v-296h-143zM213 609v-197h98q73 0 109 22t36 76q0 55 -37.5 77t-114.5 22h-91z" />
    <glyph glyph-name="S" unicode="S" horiz-adv-x="568" 
d="M50 24v138q93 -51 198 -51q62 0 103.5 22.5t41.5 69.5q0 36 -30 57t-87 39l-56 17q-90 28 -136.5 83t-46.5 125q0 64 37 112.5t102 75t147 26.5q45 0 94 -7.5t80 -20.5v-129q-35 15 -82.5 24t-91.5 9q-64 0 -105 -21t-41 -59q0 -60 113 -94l56 -17q95 -29 145 -77.5
t50 -136.5q0 -62 -37.5 -113t-102.5 -80t-146 -29q-114 0 -205 37z" />
    <glyph glyph-name="T" unicode="T" horiz-adv-x="631" 
d="M387 0h-143v609h-224v116h591v-116h-224v-609z" />
    <glyph glyph-name="U" unicode="U" horiz-adv-x="726" 
d="M63 725h143v-419q0 -70 12.5 -113.5t47 -67.5t98.5 -24t98 23.5t46 67.5t12 114v419h143v-418q0 -120 -30.5 -189.5t-95.5 -100t-173 -30.5t-173.5 30.5t-96.5 100.5t-31 189v418z" />
    <glyph glyph-name="V" unicode="V" horiz-adv-x="643" 
d="M249 0l-252 725h155l173 -546l168 546h152l-250 -725h-146z" />
    <glyph glyph-name="W" unicode="W" horiz-adv-x="904" 
d="M369 725h167l111 -531l99 531h146l-161 -725h-169l-110 540l-110 -540h-169l-161 725h148l108 -528z" />
    <glyph glyph-name="X" unicode="X" horiz-adv-x="681" 
d="M152 0h-161l266 371l-249 354h172l164 -233l167 233h162l-249 -347l266 -378h-172l-181 257z" />
    <glyph glyph-name="Y" unicode="Y" horiz-adv-x="657" 
d="M256 282l-261 443h167l169 -303l172 303h163l-267 -445v-280h-143v282z" />
    <glyph glyph-name="Z" unicode="Z" horiz-adv-x="626" 
d="M52 725h537v-112l-395 -497h406v-116h-579v112l396 497h-365v116z" />
    <glyph glyph-name="bracketleft" unicode="[" horiz-adv-x="353" 
d="M69 -195v950h257v-100h-134v-749h134v-101h-257z" />
    <glyph glyph-name="backslash" unicode="\" horiz-adv-x="449" 
d="M20 755h128l280 -755h-128z" />
    <glyph glyph-name="bracketright" unicode="]" horiz-adv-x="343" 
d="M17 655v100h257v-950h-257v101h135v749h-135z" />
    <glyph glyph-name="asciicircum" unicode="^" 
d="M282 725h114l199 -387h-134l-122 249l-121 -249h-135z" />
    <glyph glyph-name="underscore" unicode="_" horiz-adv-x="512" 
d="M480 -31v-120h-446v120h446z" />
    <glyph glyph-name="grave" unicode="`" horiz-adv-x="296" 
d="M274 639h-102l-150 116h157z" />
    <glyph glyph-name="a" unicode="a" horiz-adv-x="556" 
d="M366 346q-6 54 -37 73t-87 19q-49 0 -92 -14.5t-75 -38.5v117q35 20 90.5 34t103.5 14q118 0 174.5 -52t56.5 -163v-33q-2 -70 -2 -124q0 -64 1.5 -97t5.5 -81h-125l-1 82q-24 -50 -66.5 -72.5t-109.5 -22.5q-47 0 -88 19.5t-66 56.5t-25 85q0 89 82.5 134.5t259.5 63.5z
M374 258v5q-111 -4 -163.5 -30t-52.5 -73q0 -35 22.5 -57t61.5 -22q56 0 94 44t38 133z" />
    <glyph glyph-name="b" unicode="b" horiz-adv-x="617" 
d="M62 755h138v-286q22 38 63 59.5t92 21.5q67 0 119.5 -35t82 -99t29.5 -147q0 -84 -30 -148t-82.5 -99t-118.5 -35q-47 0 -89 20t-66 61v-68h-138v755zM321 93q56 0 88 47.5t32 127.5t-32 128t-88 48q-57 0 -91.5 -47t-34.5 -128q0 -82 34.5 -129t91.5 -47z" />
    <glyph glyph-name="c" unicode="c" horiz-adv-x="466" 
d="M324 98q54 0 110 25v-113q-22 -9 -59 -16t-66 -7q-89 0 -152.5 38t-95.5 102t-32 141t32.5 141.5t96 102.5t151.5 38q32 0 64.5 -4t50.5 -13v-113q-43 19 -100 19q-70 0 -112.5 -43.5t-42.5 -127.5t42.5 -127t112.5 -43z" />
    <glyph glyph-name="d" unicode="d" horiz-adv-x="617" 
d="M417 755h138v-755h-138v68q-24 -41 -66 -61t-89 -20q-66 0 -118.5 35t-82.5 99t-30 148q0 83 29.5 147t82 99t119.5 35q51 0 92 -21.5t63 -59.5v286zM296 444q-56 0 -88 -48t-32 -128t32 -127.5t88 -47.5q58 0 92 47t34 129q0 81 -34.5 128t-91.5 47z" />
    <glyph glyph-name="e" unicode="e" horiz-adv-x="563" 
d="M167 235q7 -65 50 -101t115 -36q82 0 164 44v-116q-32 -16 -81 -27.5t-107 -11.5q-90 0 -153 38t-94 102t-31 144q0 79 33 143.5t92 101t135 36.5q123 0 185 -85t60 -232h-368zM163 323h238q-3 67 -35 97.5t-81 30.5q-48 0 -83.5 -29t-38.5 -99z" />
    <glyph glyph-name="f" unicode="f" horiz-adv-x="367" 
d="M95 589q0 87 47 129t141 42q42 0 89 -8v-106q-31 8 -60 8q-79 0 -79 -75v-41h128v-95h-128v-443h-138v443h-76v95h76v51z" />
    <glyph glyph-name="g" unicode="g" horiz-adv-x="615" 
d="M554 65q0 -144 -78.5 -207.5t-198.5 -63.5q-48 0 -97.5 9t-83.5 24v119q32 -19 78.5 -30t89.5 -11q72 0 112.5 34t40.5 107v44q-25 -41 -66.5 -61t-87.5 -20q-68 0 -120.5 34.5t-81.5 96t-29 140.5q0 78 29 139t81.5 96t120.5 35q50 0 93 -23t61 -59v70h137v-473z
M298 445q-55 0 -88 -47t-33 -119q0 -71 33 -118t88 -47q57 0 90.5 46t33.5 120t-33.5 119.5t-90.5 45.5z" />
    <glyph glyph-name="h" unicode="h" horiz-adv-x="599" 
d="M200 467q23 40 64.5 61.5t91.5 21.5q94 0 140 -54.5t46 -156.5v-339h-138v309q0 61 -19.5 95.5t-73.5 34.5q-63 0 -87 -43t-24 -116v-280h-138v755h138v-288z" />
    <glyph glyph-name="i" unicode="i" horiz-adv-x="262" 
d="M62 627v128h138v-128h-138zM62 0v538h138v-538h-138z" />
    <glyph glyph-name="j" unicode="j" horiz-adv-x="300" 
d="M100 627v128h138v-128h-138zM9 -200v107q24 -7 47 -7t33.5 14.5t10.5 47.5v481h-82v95h220v-562q0 -93 -35.5 -137.5t-116.5 -44.5q-43 0 -77 6z" />
    <glyph glyph-name="k" unicode="k" horiz-adv-x="553" 
d="M62 0v755h138v-460l189 243h148l-203 -252l239 -286h-171l-202 239v-239h-138z" />
    <glyph glyph-name="l" unicode="l" horiz-adv-x="262" 
d="M62 755h138v-755h-138v755z" />
    <glyph glyph-name="m" unicode="m" horiz-adv-x="919" 
d="M200 0h-138v538h138v-71q22 40 61.5 61.5t88.5 21.5q106 0 153 -88q32 45 74.5 66.5t102.5 21.5q97 0 139.5 -55t42.5 -156v-339h-138v313q0 58 -16 92t-70 34q-63 0 -85 -43t-22 -116v-280h-138v313q0 58 -16 92t-70 34q-63 0 -85 -43t-22 -116v-280z" />
    <glyph glyph-name="n" unicode="n" horiz-adv-x="599" 
d="M200 467q23 40 64.5 61.5t91.5 21.5q94 0 140 -54.5t46 -156.5v-339h-138v309q0 61 -19.5 95.5t-73.5 34.5q-63 0 -87 -43t-24 -116v-280h-138v538h138v-71z" />
    <glyph glyph-name="o" unicode="o" horiz-adv-x="594" 
d="M297 550q72 0 133 -32t97.5 -95.5t36.5 -154.5t-36.5 -154.5t-97.5 -95t-133 -31.5t-133 31.5t-97.5 95t-36.5 154.5t36.5 154.5t97.5 95.5t133 32zM297 95q60 0 93.5 45t33.5 128q0 84 -33.5 129t-93.5 45t-93.5 -45t-33.5 -129q0 -83 33.5 -128t93.5 -45z" />
    <glyph glyph-name="p" unicode="p" horiz-adv-x="617" 
d="M62 538h138v-69q22 38 63 59.5t92 21.5q67 0 119.5 -35t82 -99t29.5 -147q0 -84 -30 -148t-83 -99t-119 -35q-46 0 -88 20t-66 61v-263h-138v733zM321 93q56 0 88 47.5t32 127.5t-32 128t-88 48q-57 0 -91.5 -47t-34.5 -128q0 -82 34.5 -129t91.5 -47z" />
    <glyph glyph-name="q" unicode="q" horiz-adv-x="616" 
d="M555 538v-733h-138v263q-24 -41 -66 -61t-89 -20q-66 0 -118.5 35t-82.5 99t-30 148q0 83 29.5 147t82 99t119.5 35q51 0 92 -21.5t63 -59.5v69h138zM296 444q-56 0 -88 -48t-32 -128t32 -127.5t88 -47.5q58 0 92 47t34 129q0 81 -34.5 128t-91.5 47z" />
    <glyph glyph-name="r" unicode="r" horiz-adv-x="382" 
d="M369 410q-32 5 -52 5q-56 0 -86.5 -30t-30.5 -103v-282h-138v538h136v-94q43 98 142 98q11 0 29 -2v-130z" />
    <glyph glyph-name="s" unicode="s" horiz-adv-x="455" 
d="M40 14v122q35 -17 72.5 -27.5t85.5 -10.5q47 0 72 14.5t25 39.5q0 21 -16 35.5t-59 27.5l-43 13q-75 23 -108 66t-33 97q0 75 61.5 117t152.5 42q74 0 146 -24v-116q-30 12 -67.5 20t-73.5 8q-42 0 -66 -11t-24 -34q0 -18 16 -32.5t56 -26.5l43 -13q77 -23 114 -61
t37 -103q0 -47 -27.5 -86t-77 -61.5t-112.5 -22.5q-54 0 -99 7.5t-75 19.5z" />
    <glyph glyph-name="t" unicode="t" horiz-adv-x="376" 
d="M94 538v141h138v-141h122v-95h-122v-278q0 -38 15 -53.5t49 -15.5q26 0 55 8v-100q-38 -14 -82 -14q-95 0 -135 40t-40 129v284h-86v95h86z" />
    <glyph glyph-name="u" unicode="u" horiz-adv-x="595" 
d="M395 71q-23 -40 -65 -62t-92 -22q-181 0 -181 211v340h138v-310q0 -64 17.5 -97t70.5 -33q63 0 87.5 43.5t24.5 116.5v280h138v-538h-138v71z" />
    <glyph glyph-name="v" unicode="v" horiz-adv-x="517" 
d="M1 538h145l116 -398l116 398h137l-183 -538h-145z" />
    <glyph glyph-name="w" unicode="w" horiz-adv-x="752" 
d="M277 0h-142l-126 538h137l72 -372l84 372h147l85 -371l72 371h137l-127 -538h-142l-98 408z" />
    <glyph glyph-name="x" unicode="x" horiz-adv-x="534" 
d="M388 538h141l-189 -257l198 -281h-155l-122 173l-126 -173h-140l198 271l-187 267h154l112 -159z" />
    <glyph glyph-name="y" unicode="y" horiz-adv-x="533" 
d="M535 538l-278 -733h-129l75 197l-206 536h151l122 -388l125 388h140z" />
    <glyph glyph-name="z" unicode="z" horiz-adv-x="512" 
d="M483 0h-456v109l283 320h-267v109h432v-109l-283 -320h291v-109z" />
    <glyph glyph-name="braceleft" unicode="{" horiz-adv-x="365" 
d="M298 -195q-72 0 -114.5 14.5t-63.5 52t-21 106.5v144q0 54 -15 79t-61 25v109q46 0 61 25t15 79v143q0 69 21 106.5t63.5 52t114.5 14.5h36v-110h-16q-49 0 -65 -15.5t-16 -55.5v-156q0 -64 -25 -94t-70 -42v-3q45 -12 70 -42t25 -94v-158q0 -40 16 -55.5t65 -15.5h16
v-109h-36z" />
    <glyph glyph-name="bar" unicode="|" horiz-adv-x="253" 
d="M69 -90v845h115v-845h-115z" />
    <glyph glyph-name="braceright" unicode="}" horiz-adv-x="365" 
d="M31 -195v109h16q49 0 65 15.5t16 55.5v158q0 64 25 94t70 42v3q-45 12 -70 42t-25 94v156q0 40 -16 55.5t-65 15.5h-16v110h36q72 0 114.5 -14.5t63.5 -52t21 -106.5v-143q0 -54 15 -79t61 -25v-109q-46 0 -61 -25t-15 -79v-144q0 -69 -21 -106.5t-63.5 -52t-114.5 -14.5
h-36z" />
    <glyph glyph-name="asciitilde" unicode="~" 
d="M628 359q-5 -81 -50.5 -129.5t-120.5 -48.5q-34 0 -62.5 9t-64.5 26q-29 14 -48.5 20.5t-39.5 6.5q-31 0 -50.5 -17.5t-22.5 -46.5h-119q5 82 50.5 130.5t120.5 48.5q34 0 62.5 -9t64.5 -26q29 -14 48.5 -20.5t39.5 -6.5q31 0 50.5 17t22.5 46h119z" />
    <glyph glyph-name="uni00A0" unicode="&#xa0;" horiz-adv-x="203" 
 />
    <glyph glyph-name="exclamdown" unicode="&#xa1;" horiz-adv-x="257" 
d="M202 538v-150h-148v150h148zM197 0v-175h-138v175l25 324h91z" />
    <glyph glyph-name="cent" unicode="&#xa2;" horiz-adv-x="494" 
d="M450 10q-20 -8 -52 -15t-60 -8v-80h-51v82q-77 8 -132 47.5t-82.5 100t-27.5 131.5t28 132t82.5 100.5t131.5 47.5v82h51v-80q69 -2 102 -17v-113q-43 19 -100 19h-2v-341h2q54 0 110 25v-113zM287 105v327q-48 -15 -75 -56.5t-27 -107.5t27 -107t75 -56z" />
    <glyph glyph-name="sterling" unicode="&#xa3;" horiz-adv-x="592" 
d="M561 116v-116h-522v102q60 27 96 64.5t36 94.5q0 25 -13 56h-118v74h82q-20 38 -31 70.5t-11 67.5q0 71 38.5 117.5t100 68.5t131.5 22q57 0 108.5 -11t85.5 -28v-126q-38 22 -88.5 35t-97.5 13q-60 0 -99.5 -24t-39.5 -71q0 -26 10.5 -52.5t23 -50.5t16.5 -31h219v-74
h-186q8 -27 8 -52q0 -44 -23.5 -82.5t-70.5 -66.5h345z" />
    <glyph glyph-name="currency" unicode="&#xa4;" horiz-adv-x="612" 
d="M111 485l-69 70l49 49l68 -68q63 49 144 49q83 0 147 -51l71 70l49 -49l-72 -72q44 -64 44 -137q0 -76 -44 -137l72 -71l-49 -49l-71 70q-65 -49 -147 -49q-79 0 -143 48l-69 -69l-49 49l69 70q-44 61 -44 138q0 78 44 139zM302 213q58 0 95 38.5t37 94.5q0 58 -37 97.5
t-95 39.5q-54 0 -89 -39.5t-35 -97.5q0 -56 35 -94.5t89 -38.5z" />
    <glyph glyph-name="yen" unicode="&#xa5;" horiz-adv-x="717" 
d="M536 725h164l-250 -412h139v-74h-160v-68h160v-74h-159v-97h-143v97h-159v74h160v68h-160v74h134l-245 412h166l175 -325z" />
    <glyph glyph-name="brokenbar" unicode="&#xa6;" horiz-adv-x="253" 
d="M69 430v325h115v-325h-115zM69 -90v325h115v-325h-115z" />
    <glyph glyph-name="section" unicode="&#xa7;" horiz-adv-x="610" 
d="M391 -20q0 22 -19 38t-69 41l-128 64q-71 35 -107 78t-36 100q0 49 27.5 89t74.5 64q-57 54 -57 122q0 74 65 117.5t174 43.5q44 0 93 -7.5t83 -21.5v-120q-37 15 -87.5 25.5t-86.5 10.5q-49 0 -75 -10.5t-26 -35.5q0 -18 16.5 -32t55.5 -34l134 -68q80 -41 118 -81
t38 -99q0 -53 -28 -96t-80 -68q30 -26 45 -51.5t15 -60.5q0 -53 -33.5 -93t-90.5 -62t-124 -22q-117 0 -195 31v122q96 -40 187 -40q52 0 84 14t32 42zM230 395q-27 -11 -44 -31t-17 -46q0 -25 16.5 -43t52.5 -37l142 -75q27 12 43.5 33t16.5 47q0 27 -20.5 45.5t-69.5 44.5
z" />
    <glyph glyph-name="dieresis" unicode="&#xa8;" horiz-adv-x="399" 
d="M140 639h-115v116h115v-116zM259 639v116h115v-116h-115z" />
    <glyph glyph-name="copyright" unicode="&#xa9;" horiz-adv-x="864" 
d="M433 740q109 0 197 -48.5t138 -134.5t50 -196q0 -109 -50 -194.5t-138 -133.5t-197 -48q-110 0 -198.5 48t-138.5 133.5t-50 194.5q0 110 50 196t138.5 134.5t198.5 48.5zM433 77q82 0 145.5 35.5t99 100t35.5 148.5q0 85 -35.5 150t-99 101t-145.5 36t-146 -36
t-99.5 -101t-35.5 -150q0 -84 35.5 -148.5t99.5 -100t146 -35.5zM454 558q28 0 54.5 -5t42.5 -14v-85q-43 19 -84 19q-49 0 -82 -28.5t-33 -82.5t33 -82t82 -28q47 0 89 22v-85q-18 -10 -48 -16t-56 -6q-65 0 -111 26.5t-69.5 70.5t-23.5 98t23.5 98.5t70 71t112.5 26.5z
" />
    <glyph glyph-name="ordfeminine" unicode="&#xaa;" horiz-adv-x="396" 
d="M231 628q0 18 -18 26t-40 8q-48 0 -99 -23v78q58 20 113 20q149 0 149 -134l-1 -69q0 -77 4 -105h-97l-2 43q-28 -50 -90 -50q-45 0 -74.5 25t-29.5 65q0 54 44.5 78t140.5 38zM235 565v5q-46 -5 -67.5 -16.5t-21.5 -31.5q0 -16 10 -23.5t26 -7.5q22 0 37.5 20t15.5 54z
M344 362v-105h-288v105h288z" />
    <glyph glyph-name="guillemotleft" unicode="&#xab;" horiz-adv-x="570" 
d="M319 43h-125l-159 230l159 229h125l-125 -229zM538 43h-125l-159 230l159 229h125l-125 -229z" />
    <glyph glyph-name="logicalnot" unicode="&#xac;" 
d="M492 0v209h-431v120h556v-329h-125z" />
    <glyph glyph-name="uni00AD" unicode="&#xad;" horiz-adv-x="445" 
d="M393 329v-124h-341v124h341z" />
    <glyph glyph-name="registered" unicode="&#xae;" horiz-adv-x="506" 
d="M253 736q58 0 105.5 -27t75.5 -75t28 -109t-28 -108.5t-75.5 -74.5t-105.5 -27t-106 27t-76 74.5t-28 108.5t28 109t76 75t106 27zM253 373q64 0 105.5 42.5t41.5 109.5q0 68 -41.5 110.5t-105.5 42.5t-106 -42.5t-42 -110.5q0 -67 42 -109.5t106 -42.5zM228 505v-74h-54
v201h80q43 0 64.5 -14t21.5 -49q0 -43 -39 -57l49 -81h-58l-43 74h-21zM257 590h-29v-43h29q28 0 28 22q0 21 -28 21z" />
    <glyph glyph-name="macron" unicode="&#xaf;" horiz-adv-x="357" 
d="M335 746v-88h-313v88h313z" />
    <glyph glyph-name="degree" unicode="&#xb0;" horiz-adv-x="384" 
d="M191 738q46 0 84.5 -22t60.5 -59.5t22 -83.5t-22 -84t-60.5 -60t-84.5 -22q-45 0 -83 22t-60 60t-22 84t22 83.5t60 59.5t83 22zM191 494q34 0 55.5 22.5t21.5 56.5t-21.5 56.5t-55.5 22.5q-33 0 -53.5 -22.5t-20.5 -56.5t20.5 -56.5t53.5 -22.5z" />
    <glyph glyph-name="plusminus" unicode="&#xb1;" 
d="M61 410h216v128h125v-128h215v-120h-215v-128h-125v128h-216v120zM617 120v-120h-556v120h556z" />
    <glyph glyph-name="uni00B2" unicode="&#xb2;" horiz-adv-x="354" 
d="M320 736q0 -50 -34 -93t-120 -117h159v-88h-299v84q9 7 18 15t19 15q76 63 110.5 98.5t34.5 67.5q0 23 -17 35t-45 12q-25 0 -55 -9.5t-55 -23.5v91q21 12 57.5 21t72.5 9q72 0 113 -31t41 -86z" />
    <glyph glyph-name="uni00B3" unicode="&#xb3;" horiz-adv-x="348" 
d="M208 563q0 22 -21.5 32t-58.5 10h-30v85h28q76 0 76 39q0 19 -19 27.5t-45 8.5q-24 0 -54 -8.5t-52 -20.5v92q20 10 55 17.5t71 7.5q66 0 110.5 -27.5t44.5 -79.5q0 -32 -16 -56.5t-40 -35.5q29 -12 46 -39.5t17 -57.5q0 -61 -46.5 -93.5t-119.5 -32.5q-37 0 -69.5 6.5
t-52.5 17.5v92q23 -12 52.5 -20t55.5 -8q30 0 49 10.5t19 33.5z" />
    <glyph glyph-name="acute" unicode="&#xb4;" horiz-adv-x="296" 
d="M117 755h157l-150 -116h-102z" />
    <glyph glyph-name="paragraph" unicode="&#xb6;" horiz-adv-x="703" 
d="M268 725h354v-920h-116v806h-104v-806h-115v488h-28q-109 0 -173 57t-64 157q0 101 66 159.5t180 58.5z" />
    <glyph glyph-name="periodcentered" unicode="&#xb7;" horiz-adv-x="252" 
d="M200 344v-150h-148v150h148z" />
    <glyph glyph-name="cedilla" unicode="&#xb8;" horiz-adv-x="256" 
d="M39 -134q26 -14 62 -14q26 0 39 8.5t13 23.5q0 27 -40 27q-25 0 -38 -9l-30 17l51 83h56l-33 -52q19 4 37 4q36 -1 59.5 -19t23.5 -49q0 -39 -36 -62t-86 -23q-51 0 -95 18z" />
    <glyph glyph-name="uni00B9" unicode="&#xb9;" horiz-adv-x="349" 
d="M238 524h100v-86h-311v86h104v187h-96v76q54 2 80 15t39 44h84v-322z" />
    <glyph glyph-name="ordmasculine" unicode="&#xba;" horiz-adv-x="419" 
d="M47 580q0 77 46 117.5t116 40.5t116.5 -40.5t46.5 -117.5t-46 -117.5t-116 -40.5t-116.5 40.5t-46.5 117.5zM266 580q0 38 -15.5 59t-40.5 21t-41 -21t-16 -59q0 -39 16 -59.5t41 -20.5t40.5 20.5t15.5 59.5zM362 362v-105h-305v105h305z" />
    <glyph glyph-name="guillemotright" unicode="&#xbb;" horiz-adv-x="570" 
d="M156 502l159 -229l-159 -230h-124l124 230l-124 229h124zM376 502l159 -229l-159 -230h-124l124 230l-124 229h124z" />
    <glyph glyph-name="onequarter" unicode="&#xbc;" horiz-adv-x="818" 
d="M212 317h-107v273h-91v76q51 2 76 15t38 44h84v-408zM694 725l-518 -725h-137l518 725h137zM735 171h62v-87h-62v-83h-103v83h-200v81l205 244h98v-238zM632 171v114l-97 -114h97z" />
    <glyph glyph-name="onehalf" unicode="&#xbd;" horiz-adv-x="818" 
d="M212 317h-107v273h-91v76q51 2 76 15t38 44h84v-408zM694 725l-518 -725h-137l518 725h137zM784 299q0 -35 -16.5 -66t-47.5 -62.5t-90 -82.5h159v-87h-299v83l36 30q76 62 111 98.5t35 68.5q0 23 -17 35t-45 12q-25 0 -55 -9.5t-55 -23.5v91q21 12 57.5 21t72.5 9
q72 0 113 -31t41 -86z" />
    <glyph glyph-name="threequarters" unicode="&#xbe;" horiz-adv-x="891" 
d="M208 441q0 43 -80 43h-30v84h28q76 0 76 40q0 19 -19 27.5t-45 8.5q-24 0 -54 -8.5t-52 -20.5v92q20 10 55 17.5t71 7.5q66 0 110.5 -27.5t44.5 -80.5q0 -31 -16 -55.5t-40 -36.5q29 -11 46 -38t17 -58q0 -61 -46.5 -93.5t-119.5 -32.5q-36 0 -69 6.5t-53 16.5v92
q23 -12 52.5 -20t55.5 -8q30 0 49 10.5t19 33.5zM767 725l-518 -725h-137l518 725h137zM808 171h62v-87h-62v-83h-103v83h-200v81l205 244h98v-238zM705 171v114l-97 -114h97z" />
    <glyph glyph-name="questiondown" unicode="&#xbf;" horiz-adv-x="502" 
d="M379 538v-150h-148v150h148zM475 -34v-127q-35 -16 -93 -27.5t-112 -11.5q-62 0 -118 21t-91.5 62.5t-35.5 99.5q0 63 34 109t84 75q37 21 55.5 36.5t28.5 38t10 57.5v25h135v-28q0 -70 -25.5 -110.5t-81.5 -73.5q-51 -31 -76 -58t-25 -61q0 -39 36.5 -57t87.5 -18
q43 0 94 13.5t93 34.5z" />
    <glyph glyph-name="Agrave" unicode="&#xc0;" horiz-adv-x="677" 
d="M681 0h-155l-65 187h-254l-65 -187h-146l270 725h144zM334 549l-86 -245h172zM395 773h-113l-159 113h169z" />
    <glyph glyph-name="Aacute" unicode="&#xc1;" horiz-adv-x="677" 
d="M681 0h-155l-65 187h-254l-65 -187h-146l270 725h144zM334 549l-86 -245h172zM385 886h169l-159 -113h-113z" />
    <glyph glyph-name="Acircumflex" unicode="&#xc2;" horiz-adv-x="677" 
d="M681 0h-155l-65 187h-254l-65 -187h-146l270 725h144zM334 549l-86 -245h172zM280 886h119l137 -113h-131l-66 49l-69 -49h-130z" />
    <glyph glyph-name="Atilde" unicode="&#xc3;" horiz-adv-x="677" 
d="M681 0h-155l-65 187h-254l-65 -187h-146l270 725h144zM334 549l-86 -245h172zM446 893h93q-12 -72 -52.5 -99.5t-83.5 -27.5q-23 0 -40 6.5t-37 17.5q-16 9 -26 13t-21 4q-40 0 -48 -41h-94q12 73 52.5 100t84.5 27q23 0 38 -6t35 -17q14 -9 25 -13t24 -4q40 0 50 40z
" />
    <glyph glyph-name="Adieresis" unicode="&#xc4;" horiz-adv-x="677" 
d="M681 0h-155l-65 187h-254l-65 -187h-146l270 725h144zM334 549l-86 -245h172zM161 773v113h115v-113h-115zM401 773v113h115v-113h-115z" />
    <glyph glyph-name="Aring" unicode="&#xc5;" horiz-adv-x="677" 
d="M681 0h-155l-65 187h-254l-65 -187h-146l270 725h144zM334 549l-86 -245h172zM443 856q0 -42 -30.5 -70.5t-74.5 -28.5q-45 0 -75 28t-30 71t30.5 71t74.5 28t74.5 -28t30.5 -71zM294 856q0 -18 13 -30.5t31 -12.5t31 12.5t13 30.5t-13 30.5t-31 12.5t-31 -12.5
t-13 -30.5z" />
    <glyph glyph-name="AE" unicode="&#xc6;" horiz-adv-x="957" 
d="M912 725v-116h-325v-180h304v-116h-304v-197h325v-116h-468v157h-226l-94 -157h-151l450 725h489zM444 535l-156 -261h156v261z" />
    <glyph glyph-name="Ccedilla" unicode="&#xc7;" horiz-adv-x="643" 
d="M412 110q53 0 98 12.5t93 36.5v-131q-42 -18 -96.5 -29.5t-108.5 -11.5q-111 0 -193 48t-126 133t-44 194q0 123 52 208t135 126.5t177 41.5q55 0 110.5 -9t93.5 -28v-131q-93 45 -191 45q-60 0 -112 -26.5t-84.5 -83.5t-32.5 -143t32 -143t84 -83t113 -26zM294 -134
q26 -14 62 -14q26 0 39 8.5t13 23.5q0 27 -40 27q-25 0 -38 -9l-30 17l51 83h56l-33 -52q19 4 37 4q36 -1 59.5 -19t23.5 -49q0 -39 -36 -62t-86 -23q-51 0 -95 18z" />
    <glyph glyph-name="Egrave" unicode="&#xc8;" horiz-adv-x="583" 
d="M538 0h-468v725h468v-116h-325v-180h304v-116h-304v-197h325v-116zM402 773h-113l-159 113h169z" />
    <glyph glyph-name="Eacute" unicode="&#xc9;" horiz-adv-x="583" 
d="M538 0h-468v725h468v-116h-325v-180h304v-116h-304v-197h325v-116zM349 886h169l-159 -113h-113z" />
    <glyph glyph-name="Ecircumflex" unicode="&#xca;" horiz-adv-x="583" 
d="M538 0h-468v725h468v-116h-325v-180h304v-116h-304v-197h325v-116zM262 886h119l137 -113h-131l-66 49l-69 -49h-130z" />
    <glyph glyph-name="Edieresis" unicode="&#xcb;" horiz-adv-x="583" 
d="M538 0h-468v725h468v-116h-325v-180h304v-116h-304v-197h325v-116zM136 773v113h115v-113h-115zM376 773v113h115v-113h-115z" />
    <glyph glyph-name="Igrave" unicode="&#xcc;" horiz-adv-x="459" 
d="M421 116v-116h-383v116h120v493h-120v116h383v-116h-120v-493h120zM307 773h-113l-159 113h169z" />
    <glyph glyph-name="Iacute" unicode="&#xcd;" horiz-adv-x="459" 
d="M421 116v-116h-383v116h120v493h-120v116h383v-116h-120v-493h120zM255 886h169l-159 -113h-113z" />
    <glyph glyph-name="Icircumflex" unicode="&#xce;" horiz-adv-x="459" 
d="M172 886h119l137 -113h-131l-66 49l-69 -49h-130zM421 116v-116h-383v116h120v493h-120v116h383v-116h-120v-493h120z" />
    <glyph glyph-name="Idieresis" unicode="&#xcf;" horiz-adv-x="459" 
d="M52 773v113h115v-113h-115zM292 773v113h115v-113h-115zM421 116v-116h-383v116h120v493h-120v116h383v-116h-120v-493h120z" />
    <glyph glyph-name="Eth" unicode="&#xd0;" horiz-adv-x="759" 
d="M304 725q192 0 305 -81t113 -281t-113 -281.5t-305 -81.5h-200v308h-86v116h86v301h200zM313 609h-66v-185h175v-116h-175v-192h66q77 0 133.5 18.5t92 73t35.5 155.5t-35.5 155t-92 72.5t-133.5 18.5z" />
    <glyph glyph-name="Ntilde" unicode="&#xd1;" horiz-adv-x="751" 
d="M681 725v-725h-186l-290 553v-553h-135v725h186l290 -553v553h135zM503 893h93q-12 -72 -52.5 -99.5t-83.5 -27.5q-23 0 -40 6.5t-37 17.5q-16 9 -26 13t-21 4q-40 0 -48 -41h-94q12 73 52.5 100t84.5 27q23 0 38 -6t35 -17q14 -9 25 -13t24 -4q40 0 50 40z" />
    <glyph glyph-name="Ograve" unicode="&#xd2;" horiz-adv-x="780" 
d="M390 -13q-107 0 -187.5 47t-124 132t-43.5 197t43.5 197t124 131.5t187.5 46.5t187.5 -46.5t124 -131.5t43.5 -197t-43.5 -197t-124 -132t-187.5 -47zM390 101q57 0 104.5 30.5t75 90t27.5 141.5t-27.5 141t-74.5 89.5t-105 30.5t-105 -30.5t-74.5 -89.5t-27.5 -141
t27.5 -141.5t75 -90t104.5 -30.5zM447 773h-113l-159 113h169z" />
    <glyph glyph-name="Oacute" unicode="&#xd3;" horiz-adv-x="780" 
d="M390 -13q-107 0 -187.5 47t-124 132t-43.5 197t43.5 197t124 131.5t187.5 46.5t187.5 -46.5t124 -131.5t43.5 -197t-43.5 -197t-124 -132t-187.5 -47zM390 101q57 0 104.5 30.5t75 90t27.5 141.5t-27.5 141t-74.5 89.5t-105 30.5t-105 -30.5t-74.5 -89.5t-27.5 -141
t27.5 -141.5t75 -90t104.5 -30.5zM437 886h169l-159 -113h-113z" />
    <glyph glyph-name="Ocircumflex" unicode="&#xd4;" horiz-adv-x="780" 
d="M390 -13q-107 0 -187.5 47t-124 132t-43.5 197t43.5 197t124 131.5t187.5 46.5t187.5 -46.5t124 -131.5t43.5 -197t-43.5 -197t-124 -132t-187.5 -47zM390 101q57 0 104.5 30.5t75 90t27.5 141.5t-27.5 141t-74.5 89.5t-105 30.5t-105 -30.5t-74.5 -89.5t-27.5 -141
t27.5 -141.5t75 -90t104.5 -30.5zM332 886h119l137 -113h-131l-66 49l-69 -49h-130z" />
    <glyph glyph-name="Otilde" unicode="&#xd5;" horiz-adv-x="780" 
d="M390 -13q-107 0 -187.5 47t-124 132t-43.5 197t43.5 197t124 131.5t187.5 46.5t187.5 -46.5t124 -131.5t43.5 -197t-43.5 -197t-124 -132t-187.5 -47zM390 101q57 0 104.5 30.5t75 90t27.5 141.5t-27.5 141t-74.5 89.5t-105 30.5t-105 -30.5t-74.5 -89.5t-27.5 -141
t27.5 -141.5t75 -90t104.5 -30.5zM498 893h93q-12 -72 -52.5 -99.5t-83.5 -27.5q-23 0 -40 6.5t-37 17.5q-16 9 -26 13t-21 4q-40 0 -48 -41h-94q12 73 52.5 100t84.5 27q23 0 38 -6t35 -17q14 -9 25 -13t24 -4q40 0 50 40z" />
    <glyph glyph-name="Odieresis" unicode="&#xd6;" horiz-adv-x="780" 
d="M390 -13q-107 0 -187.5 47t-124 132t-43.5 197t43.5 197t124 131.5t187.5 46.5t187.5 -46.5t124 -131.5t43.5 -197t-43.5 -197t-124 -132t-187.5 -47zM390 101q57 0 104.5 30.5t75 90t27.5 141.5t-27.5 141t-74.5 89.5t-105 30.5t-105 -30.5t-74.5 -89.5t-27.5 -141
t27.5 -141.5t75 -90t104.5 -30.5zM213 773v113h115v-113h-115zM453 773v113h115v-113h-115z" />
    <glyph glyph-name="multiply" unicode="&#xd7;" 
d="M415 277l162 -162l-80 -81l-163 162l-159 -159l-73 72l159 161l-160 160l81 80l160 -160l160 160l72 -74z" />
    <glyph glyph-name="Oslash" unicode="&#xd8;" horiz-adv-x="788" 
d="M759 675l-75 -80q65 -96 65 -232q0 -112 -43.5 -197t-124 -132t-187.5 -47q-126 0 -214 65l-70 -75l-81 73l75 80q-65 96 -65 233q0 112 43.5 197t124 131.5t187.5 46.5q125 0 215 -65l69 75zM207 241l313 337q-54 46 -126 46q-58 0 -105 -30.5t-74.5 -89.5t-27.5 -141
q0 -68 20 -122zM582 484l-313 -336q53 -47 125 -47q57 0 104.5 30.5t75 90t27.5 141.5q0 67 -19 121z" />
    <glyph glyph-name="Ugrave" unicode="&#xd9;" horiz-adv-x="726" 
d="M63 725h143v-419q0 -70 12.5 -113.5t47 -67.5t98.5 -24t98 23.5t46 67.5t12 114v419h143v-418q0 -120 -30.5 -189.5t-95.5 -100t-173 -30.5t-173.5 30.5t-96.5 100.5t-31 189v418zM420 773h-113l-159 113h169z" />
    <glyph glyph-name="Uacute" unicode="&#xda;" horiz-adv-x="726" 
d="M63 725h143v-419q0 -70 12.5 -113.5t47 -67.5t98.5 -24t98 23.5t46 67.5t12 114v419h143v-418q0 -120 -30.5 -189.5t-95.5 -100t-173 -30.5t-173.5 30.5t-96.5 100.5t-31 189v418zM410 886h169l-159 -113h-113z" />
    <glyph glyph-name="Ucircumflex" unicode="&#xdb;" horiz-adv-x="726" 
d="M63 725h143v-419q0 -70 12.5 -113.5t47 -67.5t98.5 -24t98 23.5t46 67.5t12 114v419h143v-418q0 -120 -30.5 -189.5t-95.5 -100t-173 -30.5t-173.5 30.5t-96.5 100.5t-31 189v418zM305 886h119l137 -113h-131l-66 49l-69 -49h-130z" />
    <glyph glyph-name="Udieresis" unicode="&#xdc;" horiz-adv-x="726" 
d="M63 725h143v-419q0 -70 12.5 -113.5t47 -67.5t98.5 -24t98 23.5t46 67.5t12 114v419h143v-418q0 -120 -30.5 -189.5t-95.5 -100t-173 -30.5t-173.5 30.5t-96.5 100.5t-31 189v418zM186 773v113h115v-113h-115zM426 773v113h115v-113h-115z" />
    <glyph glyph-name="Yacute" unicode="&#xdd;" horiz-adv-x="657" 
d="M256 282l-261 443h167l169 -303l172 303h163l-267 -445v-280h-143v282zM377 886h169l-159 -113h-113z" />
    <glyph glyph-name="Thorn" unicode="&#xde;" horiz-adv-x="657" 
d="M315 604q87 0 154 -15.5t112.5 -66t45.5 -148.5q0 -230 -308 -230h-106v-144h-143v725h143v-121h102zM213 488v-228h108q69 0 114 22t45 92t-46.5 92t-122.5 22h-98z" />
    <glyph glyph-name="germandbls" unicode="&#xdf;" horiz-adv-x="648" 
d="M200 0h-138v492q0 77 15.5 123.5t45.5 76.5q70 70 208 70q108 0 176 -48.5t68 -142.5q0 -54 -24 -93t-54 -54q52 -19 87 -71t35 -128q0 -73 -33 -126.5t-92.5 -82.5t-137.5 -29q-64 0 -119 13l21 111q20 -7 45.5 -11t47.5 -4q57 0 92.5 36t35.5 92q0 69 -46.5 100.5
t-128.5 31.5h-19v111h14q70 0 105 23t35 73q0 41 -29 66t-82 25q-69 0 -100 -41q-14 -18 -21 -46t-7 -76v-491z" />
    <glyph glyph-name="agrave" unicode="&#xe0;" horiz-adv-x="556" 
d="M366 346q-6 54 -37 73t-87 19q-49 0 -92 -14.5t-75 -38.5v117q35 20 90.5 34t103.5 14q118 0 174.5 -52t56.5 -163v-33q-2 -70 -2 -124q0 -64 1.5 -97t5.5 -81h-125l-1 82q-24 -50 -66.5 -72.5t-109.5 -22.5q-47 0 -88 19.5t-66 56.5t-25 85q0 89 82.5 134.5t259.5 63.5z
M374 258v5q-111 -4 -163.5 -30t-52.5 -73q0 -35 22.5 -57t61.5 -22q56 0 94 44t38 133zM329 639h-102l-150 116h157z" />
    <glyph glyph-name="aacute" unicode="&#xe1;" horiz-adv-x="556" 
d="M366 346q-6 54 -37 73t-87 19q-49 0 -92 -14.5t-75 -38.5v117q35 20 90.5 34t103.5 14q118 0 174.5 -52t56.5 -163v-33q-2 -70 -2 -124q0 -64 1.5 -97t5.5 -81h-125l-1 82q-24 -50 -66.5 -72.5t-109.5 -22.5q-47 0 -88 19.5t-66 56.5t-25 85q0 89 82.5 134.5t259.5 63.5z
M374 258v5q-111 -4 -163.5 -30t-52.5 -73q0 -35 22.5 -57t61.5 -22q56 0 94 44t38 133zM332 755h157l-150 -116h-102z" />
    <glyph glyph-name="acircumflex" unicode="&#xe2;" horiz-adv-x="556" 
d="M366 346q-6 54 -37 73t-87 19q-49 0 -92 -14.5t-75 -38.5v117q35 20 90.5 34t103.5 14q118 0 174.5 -52t56.5 -163v-33q-2 -70 -2 -124q0 -64 1.5 -97t5.5 -81h-125l-1 82q-24 -50 -66.5 -72.5t-109.5 -22.5q-47 0 -88 19.5t-66 56.5t-25 85q0 89 82.5 134.5t259.5 63.5z
M374 258v5q-111 -4 -163.5 -30t-52.5 -73q0 -35 22.5 -57t61.5 -22q56 0 94 44t38 133zM247 755h99l148 -116h-121l-76 44l-76 -44h-121z" />
    <glyph glyph-name="atilde" unicode="&#xe3;" horiz-adv-x="556" 
d="M366 346q-6 54 -37 73t-87 19q-49 0 -92 -14.5t-75 -38.5v117q35 20 90.5 34t103.5 14q118 0 174.5 -52t56.5 -163v-33q-2 -70 -2 -124q0 -64 1.5 -97t5.5 -81h-125l-1 82q-24 -50 -66.5 -72.5t-109.5 -22.5q-47 0 -88 19.5t-66 56.5t-25 85q0 89 82.5 134.5t259.5 63.5z
M374 258v5q-111 -4 -163.5 -30t-52.5 -73q0 -35 22.5 -57t61.5 -22q56 0 94 44t38 133zM406 759h88q-10 -60 -44 -90.5t-84 -30.5q-24 0 -42 6.5t-43 19.5q-18 10 -29 14.5t-24 4.5q-41 0 -49 -44h-87q10 58 43 89.5t85 31.5q24 0 41.5 -6.5t39.5 -19.5q18 -10 29.5 -14.5
t25.5 -4.5q42 0 50 44z" />
    <glyph glyph-name="adieresis" unicode="&#xe4;" horiz-adv-x="556" 
d="M366 346q-6 54 -37 73t-87 19q-49 0 -92 -14.5t-75 -38.5v117q35 20 90.5 34t103.5 14q118 0 174.5 -52t56.5 -163v-33q-2 -70 -2 -124q0 -64 1.5 -97t5.5 -81h-125l-1 82q-24 -50 -66.5 -72.5t-109.5 -22.5q-47 0 -88 19.5t-66 56.5t-25 85q0 89 82.5 134.5t259.5 63.5z
M374 258v5q-111 -4 -163.5 -30t-52.5 -73q0 -35 22.5 -57t61.5 -22q56 0 94 44t38 133zM236 639h-115v116h115v-116zM355 639v116h115v-116h-115z" />
    <glyph glyph-name="aring" unicode="&#xe5;" horiz-adv-x="556" 
d="M366 346q-6 54 -37 73t-87 19q-49 0 -92 -14.5t-75 -38.5v117q35 20 90.5 34t103.5 14q118 0 174.5 -52t56.5 -163v-33q-2 -70 -2 -124q0 -64 1.5 -97t5.5 -81h-125l-1 82q-24 -50 -66.5 -72.5t-109.5 -22.5q-47 0 -88 19.5t-66 56.5t-25 85q0 89 82.5 134.5t259.5 63.5z
M374 258v5q-111 -4 -163.5 -30t-52.5 -73q0 -35 22.5 -57t61.5 -22q56 0 94 44t38 133zM396 711q0 -42 -30.5 -70.5t-74.5 -28.5q-45 0 -75 28t-30 71t30.5 71t74.5 28t74.5 -28t30.5 -71zM248 711q0 -18 12.5 -30.5t30.5 -12.5t31 12.5t13 30.5t-13 30.5t-31 12.5
t-30.5 -12t-12.5 -31z" />
    <glyph glyph-name="ae" unicode="&#xe6;" horiz-adv-x="889" 
d="M75 385v117q35 20 90.5 34t103.5 14q69 0 111 -16t69 -51q66 69 168 69q122 0 184 -84.5t60 -232.5h-368q6 -65 50.5 -101t116.5 -36q80 0 162 44v-116q-32 -16 -80.5 -27.5t-104.5 -11.5q-83 0 -134 27t-83 79q-28 -52 -84 -79t-130 -27q-49 0 -90.5 19.5t-66.5 56.5
t-25 85q0 89 82.5 134.5t259.5 63.5q-6 54 -37 73t-87 19q-49 0 -92 -14.5t-75 -38.5zM489 323h238q-3 67 -35 97.5t-81 30.5q-48 0 -83.5 -29t-38.5 -99zM374 258v5q-111 -4 -163.5 -30t-52.5 -73q0 -35 22.5 -57t61.5 -22q56 0 94 44t38 133z" />
    <glyph glyph-name="ccedilla" unicode="&#xe7;" horiz-adv-x="466" 
d="M324 98q54 0 110 25v-113q-22 -9 -59 -16t-66 -7q-89 0 -152.5 38t-95.5 102t-32 141t32.5 141.5t96 102.5t151.5 38q32 0 64.5 -4t50.5 -13v-113q-43 19 -100 19q-70 0 -112.5 -43.5t-42.5 -127.5t42.5 -127t112.5 -43zM198 -134q26 -14 62 -14q26 0 39 8.5t13 23.5
q0 27 -40 27q-25 0 -38 -9l-30 17l51 83h56l-33 -52q19 4 37 4q36 -1 59.5 -19t23.5 -49q0 -39 -36 -62t-86 -23q-51 0 -95 18z" />
    <glyph glyph-name="egrave" unicode="&#xe8;" horiz-adv-x="563" 
d="M167 235q7 -65 50 -101t115 -36q82 0 164 44v-116q-32 -16 -81 -27.5t-107 -11.5q-90 0 -153 38t-94 102t-31 144q0 79 33 143.5t92 101t135 36.5q123 0 185 -85t60 -232h-368zM163 323h238q-3 67 -35 97.5t-81 30.5q-48 0 -83.5 -29t-38.5 -99zM345 639h-102l-150 116
h157z" />
    <glyph glyph-name="eacute" unicode="&#xe9;" horiz-adv-x="563" 
d="M167 235q7 -65 50 -101t115 -36q82 0 164 44v-116q-32 -16 -81 -27.5t-107 -11.5q-90 0 -153 38t-94 102t-31 144q0 79 33 143.5t92 101t135 36.5q123 0 185 -85t60 -232h-368zM163 323h238q-3 67 -35 97.5t-81 30.5q-48 0 -83.5 -29t-38.5 -99zM338 755h157l-150 -116
h-102z" />
    <glyph glyph-name="ecircumflex" unicode="&#xea;" horiz-adv-x="563" 
d="M167 235q7 -65 50 -101t115 -36q82 0 164 44v-116q-32 -16 -81 -27.5t-107 -11.5q-90 0 -153 38t-94 102t-31 144q0 79 33 143.5t92 101t135 36.5q123 0 185 -85t60 -232h-368zM163 323h238q-3 67 -35 97.5t-81 30.5q-48 0 -83.5 -29t-38.5 -99zM249 755h99l148 -116
h-121l-76 44l-76 -44h-121z" />
    <glyph glyph-name="edieresis" unicode="&#xeb;" horiz-adv-x="563" 
d="M167 235q7 -65 50 -101t115 -36q82 0 164 44v-116q-32 -16 -81 -27.5t-107 -11.5q-90 0 -153 38t-94 102t-31 144q0 79 33 143.5t92 101t135 36.5q123 0 185 -85t60 -232h-368zM163 323h238q-3 67 -35 97.5t-81 30.5q-48 0 -83.5 -29t-38.5 -99zM236 639h-115v116h115
v-116zM355 639v116h115v-116h-115z" />
    <glyph glyph-name="igrave" unicode="&#xec;" horiz-adv-x="262" 
d="M62 0v538h138v-538h-138zM183 639h-102l-150 116h157z" />
    <glyph glyph-name="iacute" unicode="&#xed;" horiz-adv-x="262" 
d="M62 0v538h138v-538h-138zM175 755h157l-150 -116h-102z" />
    <glyph glyph-name="icircumflex" unicode="&#xee;" horiz-adv-x="262" 
d="M81 755h99l136 -116h-121l-64 44l-64 -44h-121zM62 0v538h138v-538h-138z" />
    <glyph glyph-name="idieresis" unicode="&#xef;" horiz-adv-x="262" 
d="M62 0v538h138v-538h-138zM73 639h-115v116h115v-116zM192 639v116h115v-116h-115z" />
    <glyph glyph-name="eth" unicode="&#xf0;" horiz-adv-x="599" 
d="M379 673q86 -63 136 -153t50 -209q0 -161 -73.5 -242.5t-202.5 -81.5q-74 0 -132.5 33.5t-92 96t-33.5 147.5q0 88 31 152.5t84 99t119 34.5q52 0 95.5 -24t62.5 -58l1 1q-17 40 -52.5 78t-83.5 70l-83 -50l-28 47l58 35q-33 19 -78 37l53 76q64 -24 119 -55l74 45
l28 -47zM425 268q0 84 -33.5 129t-93.5 45t-93.5 -45t-33.5 -129q0 -83 33.5 -128t93.5 -45t93.5 45t33.5 128z" />
    <glyph glyph-name="ntilde" unicode="&#xf1;" horiz-adv-x="599" 
d="M200 467q23 40 64.5 61.5t91.5 21.5q94 0 140 -54.5t46 -156.5v-339h-138v309q0 61 -19.5 95.5t-73.5 34.5q-63 0 -87 -43t-24 -116v-280h-138v538h138v-71zM425 759h88q-10 -60 -44 -90.5t-84 -30.5q-24 0 -42 6.5t-43 19.5q-18 10 -29 14.5t-24 4.5q-41 0 -49 -44h-87
q10 58 43 89.5t85 31.5q24 0 41.5 -6.5t39.5 -19.5q18 -10 29.5 -14.5t25.5 -4.5q42 0 50 44z" />
    <glyph glyph-name="ograve" unicode="&#xf2;" horiz-adv-x="594" 
d="M297 550q72 0 133 -32t97.5 -95.5t36.5 -154.5t-36.5 -154.5t-97.5 -95t-133 -31.5t-133 31.5t-97.5 95t-36.5 154.5t36.5 154.5t97.5 95.5t133 32zM297 95q60 0 93.5 45t33.5 128q0 84 -33.5 129t-93.5 45t-93.5 -45t-33.5 -129q0 -83 33.5 -128t93.5 -45zM347 639h-102
l-150 116h157z" />
    <glyph glyph-name="oacute" unicode="&#xf3;" horiz-adv-x="594" 
d="M297 550q72 0 133 -32t97.5 -95.5t36.5 -154.5t-36.5 -154.5t-97.5 -95t-133 -31.5t-133 31.5t-97.5 95t-36.5 154.5t36.5 154.5t97.5 95.5t133 32zM297 95q60 0 93.5 45t33.5 128q0 84 -33.5 129t-93.5 45t-93.5 -45t-33.5 -129q0 -83 33.5 -128t93.5 -45zM340 755h157
l-150 -116h-102z" />
    <glyph glyph-name="ocircumflex" unicode="&#xf4;" horiz-adv-x="594" 
d="M297 550q72 0 133 -32t97.5 -95.5t36.5 -154.5t-36.5 -154.5t-97.5 -95t-133 -31.5t-133 31.5t-97.5 95t-36.5 154.5t36.5 154.5t97.5 95.5t133 32zM297 95q60 0 93.5 45t33.5 128q0 84 -33.5 129t-93.5 45t-93.5 -45t-33.5 -129q0 -83 33.5 -128t93.5 -45zM246 755h99
l148 -116h-121l-76 44l-76 -44h-121z" />
    <glyph glyph-name="otilde" unicode="&#xf5;" horiz-adv-x="594" 
d="M297 550q72 0 133 -32t97.5 -95.5t36.5 -154.5t-36.5 -154.5t-97.5 -95t-133 -31.5t-133 31.5t-97.5 95t-36.5 154.5t36.5 154.5t97.5 95.5t133 32zM297 95q60 0 93.5 45t33.5 128q0 84 -33.5 129t-93.5 45t-93.5 -45t-33.5 -129q0 -83 33.5 -128t93.5 -45zM409 759h88
q-10 -60 -44 -90.5t-84 -30.5q-24 0 -42 6.5t-43 19.5q-18 10 -29 14.5t-24 4.5q-41 0 -49 -44h-87q10 58 43 89.5t85 31.5q24 0 41.5 -6.5t39.5 -19.5q18 -10 29.5 -14.5t25.5 -4.5q42 0 50 44z" />
    <glyph glyph-name="odieresis" unicode="&#xf6;" horiz-adv-x="594" 
d="M297 550q72 0 133 -32t97.5 -95.5t36.5 -154.5t-36.5 -154.5t-97.5 -95t-133 -31.5t-133 31.5t-97.5 95t-36.5 154.5t36.5 154.5t97.5 95.5t133 32zM297 95q60 0 93.5 45t33.5 128q0 84 -33.5 129t-93.5 45t-93.5 -45t-33.5 -129q0 -83 33.5 -128t93.5 -45zM237 639h-115
v116h115v-116zM356 639v116h115v-116h-115z" />
    <glyph glyph-name="divide" unicode="&#xf7;" 
d="M413 393h-148v140h148v-140zM617 329v-120h-556v120h556zM413 5h-148v140h148v-140z" />
    <glyph glyph-name="oslash" unicode="&#xf8;" horiz-adv-x="602" 
d="M569 510l-54 -62q53 -72 53 -180q0 -91 -36.5 -154.5t-97.5 -95t-133 -31.5q-84 0 -148 40l-51 -59l-69 59l53 62q-52 73 -52 179q0 91 36.5 154.5t97.5 95.5t133 32q84 0 148 -40l51 59zM181 199l191 221q-28 22 -71 22q-60 0 -93.5 -45t-33.5 -129q0 -41 7 -69z
M421 338l-191 -221q28 -22 71 -22q60 0 93.5 45t33.5 128q0 33 -7 70z" />
    <glyph glyph-name="ugrave" unicode="&#xf9;" horiz-adv-x="595" 
d="M395 71q-23 -40 -65 -62t-92 -22q-181 0 -181 211v340h138v-310q0 -64 17.5 -97t70.5 -33q63 0 87.5 43.5t24.5 116.5v280h138v-538h-138v71zM366 639h-102l-150 116h157z" />
    <glyph glyph-name="uacute" unicode="&#xfa;" horiz-adv-x="595" 
d="M395 71q-23 -40 -65 -62t-92 -22q-181 0 -181 211v340h138v-310q0 -64 17.5 -97t70.5 -33q63 0 87.5 43.5t24.5 116.5v280h138v-538h-138v71zM339 755h157l-150 -116h-102z" />
    <glyph glyph-name="ucircumflex" unicode="&#xfb;" horiz-adv-x="595" 
d="M395 71q-23 -40 -65 -62t-92 -22q-181 0 -181 211v340h138v-310q0 -64 17.5 -97t70.5 -33q63 0 87.5 43.5t24.5 116.5v280h138v-538h-138v71zM245 755h99l148 -116h-121l-76 44l-76 -44h-121z" />
    <glyph glyph-name="udieresis" unicode="&#xfc;" horiz-adv-x="595" 
d="M395 71q-23 -40 -65 -62t-92 -22q-181 0 -181 211v340h138v-310q0 -64 17.5 -97t70.5 -33q63 0 87.5 43.5t24.5 116.5v280h138v-538h-138v71zM236 639h-115v116h115v-116zM355 639v116h115v-116h-115z" />
    <glyph glyph-name="yacute" unicode="&#xfd;" horiz-adv-x="533" 
d="M535 538l-278 -733h-129l75 197l-206 536h151l122 -388l125 388h140zM310 755h157l-150 -116h-102z" />
    <glyph glyph-name="thorn" unicode="&#xfe;" horiz-adv-x="617" 
d="M62 755h138v-286q22 38 62 59.5t90 21.5q67 0 120 -35t83.5 -99t30.5 -147q0 -84 -30.5 -148t-84 -99t-119.5 -35q-46 0 -87 19.5t-65 61.5v-263h-138v950zM321 93q56 0 88 47.5t32 127.5t-32 128t-88 48q-57 0 -91.5 -47t-34.5 -128q0 -82 34.5 -129t91.5 -47z" />
    <glyph glyph-name="ydieresis" unicode="&#xff;" horiz-adv-x="533" 
d="M535 538l-278 -733h-129l75 197l-206 536h151l122 -388l125 388h140zM217 639h-115v116h115v-116zM336 639v116h115v-116h-115z" />
    <glyph glyph-name="Abreve" unicode="&#x102;" horiz-adv-x="677" 
d="M681 0h-155l-65 187h-254l-65 -187h-146l270 725h144zM334 549l-86 -245h172zM508 886q-6 -60 -49 -88.5t-122 -28.5q-159 0 -168 117h97q3 -24 20 -35t52 -11t52.5 11t20.5 35h97z" />
    <glyph glyph-name="Amacron" unicode="&#x100;" horiz-adv-x="677" 
d="M681 0h-155l-65 187h-254l-65 -187h-146l270 725h144zM334 549l-86 -245h172zM495 875v-92h-313v92h313z" />
    <glyph glyph-name="Aogonek" unicode="&#x104;" horiz-adv-x="677" 
d="M633 -106q20 0 48 8v-82q-35 -8 -74 -8q-59 0 -98.5 23t-39.5 69q0 58 57 96l-65 187h-254l-65 -187h-146l270 725h144l271 -725q-50 -24 -71.5 -39t-21.5 -33q0 -34 45 -34zM334 549l-86 -245h172z" />
    <glyph glyph-name="Cacute" unicode="&#x106;" horiz-adv-x="643" 
d="M412 110q53 0 98 12.5t93 36.5v-131q-42 -18 -96.5 -29.5t-108.5 -11.5q-111 0 -193 48t-126 133t-44 194q0 123 52 208t135 126.5t177 41.5q55 0 110.5 -9t93.5 -28v-131q-93 45 -191 45q-60 0 -112 -26.5t-84.5 -83.5t-32.5 -143t32 -143t84 -83t113 -26zM422 886h169
l-159 -113h-113z" />
    <glyph glyph-name="Ccaron" unicode="&#x10c;" horiz-adv-x="643" 
d="M412 110q53 0 98 12.5t93 36.5v-131q-42 -18 -96.5 -29.5t-108.5 -11.5q-111 0 -193 48t-126 133t-44 194q0 123 52 208t135 126.5t177 41.5q55 0 110.5 -9t93.5 -28v-131q-93 45 -191 45q-60 0 -112 -26.5t-84.5 -83.5t-32.5 -143t32 -143t84 -83t113 -26zM447 773h-119
l-137 113h131l66 -50l69 50h130z" />
    <glyph glyph-name="Ccircumflex" unicode="&#x108;" horiz-adv-x="643" 
d="M412 110q53 0 98 12.5t93 36.5v-131q-42 -18 -96.5 -29.5t-108.5 -11.5q-111 0 -193 48t-126 133t-44 194q0 123 52 208t135 126.5t177 41.5q55 0 110.5 -9t93.5 -28v-131q-93 45 -191 45q-60 0 -112 -26.5t-84.5 -83.5t-32.5 -143t32 -143t84 -83t113 -26zM328 886h119
l137 -113h-131l-66 49l-69 -49h-130z" />
    <glyph glyph-name="Cdotaccent" unicode="&#x10a;" horiz-adv-x="643" 
d="M412 110q53 0 98 12.5t93 36.5v-131q-42 -18 -96.5 -29.5t-108.5 -11.5q-111 0 -193 48t-126 133t-44 194q0 123 52 208t135 126.5t177 41.5q55 0 110.5 -9t93.5 -28v-131q-93 45 -191 45q-60 0 -112 -26.5t-84.5 -83.5t-32.5 -143t32 -143t84 -83t113 -26zM329 773v113
h143v-113h-143z" />
    <glyph glyph-name="Dcaron" unicode="&#x10e;" horiz-adv-x="725" 
d="M269 725q194 0 306.5 -81t112.5 -281q0 -201 -112.5 -282t-306.5 -81h-199v725h199zM279 609h-66v-493h66q77 0 133.5 18.5t92 73t35.5 155.5t-35.5 155t-92 72.5t-133.5 18.5zM405 773h-119l-137 113h131l66 -50l69 50h130z" />
    <glyph glyph-name="Dcroat" unicode="&#x110;" horiz-adv-x="759" 
d="M304 725q192 0 305 -81t113 -281t-113 -281.5t-305 -81.5h-200v308h-86v116h86v301h200zM313 609h-66v-185h175v-116h-175v-192h66q77 0 133.5 18.5t92 73t35.5 155.5t-35.5 155t-92 72.5t-133.5 18.5z" />
    <glyph glyph-name="Ebreve" unicode="&#x114;" horiz-adv-x="583" 
d="M538 0h-468v725h468v-116h-325v-180h304v-116h-304v-197h325v-116zM493 886q-6 -60 -49 -88.5t-122 -28.5q-159 0 -168 117h97q3 -24 20 -35t52 -11t52.5 11t20.5 35h97z" />
    <glyph glyph-name="Ecaron" unicode="&#x11a;" horiz-adv-x="583" 
d="M538 0h-468v725h468v-116h-325v-180h304v-116h-304v-197h325v-116zM380 773h-119l-137 113h131l66 -50l69 50h130z" />
    <glyph glyph-name="Emacron" unicode="&#x112;" horiz-adv-x="583" 
d="M538 0h-468v725h468v-116h-325v-180h304v-116h-304v-197h325v-116zM471 875v-92h-313v92h313z" />
    <glyph glyph-name="Eogonek" unicode="&#x118;" horiz-adv-x="583" 
d="M70 0v725h468v-116h-325v-180h304v-116h-304v-197h325v-116q-50 -24 -71.5 -39t-21.5 -33q0 -34 45 -34q20 0 48 8v-82q-35 -8 -74 -8q-59 0 -98.5 23t-39.5 69q0 29 18.5 54t50.5 42h-325z" />
    <glyph glyph-name="Edotaccent" unicode="&#x116;" horiz-adv-x="583" 
d="M538 0h-468v725h468v-116h-325v-180h304v-116h-304v-197h325v-116zM251 773v113h143v-113h-143z" />
    <glyph glyph-name="Gbreve" unicode="&#x11e;" horiz-adv-x="723" 
d="M678 40q-141 -53 -266 -53q-110 0 -195 44t-133.5 128.5t-48.5 202.5q0 124 55.5 208.5t145.5 126t195 41.5q57 0 115 -9t95 -28v-131q-93 45 -219 45q-62 0 -116.5 -26.5t-88.5 -83.5t-34 -143q0 -135 68.5 -194.5t168.5 -59.5q56 0 126 17v164h-174v116h306v-365z
M576 886q-6 -60 -49 -88.5t-122 -28.5q-159 0 -168 117h97q3 -24 20 -35t52 -11t52.5 11t20.5 35h97z" />
    <glyph glyph-name="Gcircumflex" unicode="&#x11c;" horiz-adv-x="723" 
d="M678 40q-141 -53 -266 -53q-110 0 -195 44t-133.5 128.5t-48.5 202.5q0 124 55.5 208.5t145.5 126t195 41.5q57 0 115 -9t95 -28v-131q-93 45 -219 45q-62 0 -116.5 -26.5t-88.5 -83.5t-34 -143q0 -135 68.5 -194.5t168.5 -59.5q56 0 126 17v164h-174v116h306v-365z
M344 886h119l137 -113h-131l-66 49l-69 -49h-130z" />
    <glyph glyph-name="uni0122" unicode="&#x122;" horiz-adv-x="723" 
d="M678 40q-141 -53 -266 -53q-110 0 -195 44t-133.5 128.5t-48.5 202.5q0 124 55.5 208.5t145.5 126t195 41.5q57 0 115 -9t95 -28v-131q-93 45 -219 45q-62 0 -116.5 -26.5t-88.5 -83.5t-34 -143q0 -135 68.5 -194.5t168.5 -59.5q56 0 126 17v164h-174v116h306v-365z
M397 -136h-36v100h106v-106l-44 -89h-65z" />
    <glyph glyph-name="Gdotaccent" unicode="&#x120;" horiz-adv-x="723" 
d="M678 40q-141 -53 -266 -53q-110 0 -195 44t-133.5 128.5t-48.5 202.5q0 124 55.5 208.5t145.5 126t195 41.5q57 0 115 -9t95 -28v-131q-93 45 -219 45q-62 0 -116.5 -26.5t-88.5 -83.5t-34 -143q0 -135 68.5 -194.5t168.5 -59.5q56 0 126 17v164h-174v116h306v-365z
M341 773v113h143v-113h-143z" />
    <glyph glyph-name="Hbar" unicode="&#x126;" horiz-adv-x="782" 
d="M554 633v92h143v-92h64v-116h-64v-517h-143v313h-325v-313h-143v517h-65v116h65v92h143v-92h325zM229 517v-88h325v88h-325z" />
    <glyph glyph-name="Hcircumflex" unicode="&#x124;" horiz-adv-x="751" 
d="M538 429v296h143v-725h-143v313h-325v-313h-143v725h143v-296h325zM317 886h119l137 -113h-131l-66 49l-69 -49h-130z" />
    <glyph glyph-name="Ibreve" unicode="&#x12c;" horiz-adv-x="459" 
d="M399 886q-6 -60 -49 -88.5t-122 -28.5q-159 0 -168 117h97q3 -24 20 -35t52 -11t52.5 11t20.5 35h97zM421 116v-116h-383v116h120v493h-120v116h383v-116h-120v-493h120z" />
    <glyph glyph-name="Idotaccent" unicode="&#x130;" horiz-adv-x="459" 
d="M421 116v-116h-383v116h120v493h-120v116h383v-116h-120v-493h120zM158 773v113h143v-113h-143z" />
    <glyph glyph-name="Imacron" unicode="&#x12a;" horiz-adv-x="459" 
d="M386 875v-92h-313v92h313zM421 116v-116h-383v116h120v493h-120v116h383v-116h-120v-493h120z" />
    <glyph glyph-name="Iogonek" unicode="&#x12e;" horiz-adv-x="459" 
d="M38 0v116h120v493h-120v116h383v-116h-120v-493h120v-116h-120q-50 -24 -71.5 -39t-21.5 -33q0 -34 45 -34q20 0 48 8v-82q-35 -8 -74 -8q-59 0 -98.5 23t-39.5 69q0 29 18.5 54t50.5 42h-120z" />
    <glyph glyph-name="Itilde" unicode="&#x128;" horiz-adv-x="459" 
d="M338 893h93q-12 -72 -52.5 -99.5t-83.5 -27.5q-23 0 -40 6.5t-37 17.5q-16 9 -26 13t-21 4q-40 0 -48 -41h-94q12 73 52.5 100t84.5 27q23 0 38 -6t35 -17q14 -9 25 -13t24 -4q40 0 50 40zM421 116v-116h-383v116h120v493h-120v116h383v-116h-120v-493h120z" />
    <glyph glyph-name="uni1ECA" unicode="&#x1eca;" horiz-adv-x="459" 
d="M172 -175v108h115v-108h-115zM421 116v-116h-383v116h120v493h-120v116h383v-116h-120v-493h120z" />
    <glyph glyph-name="Jcircumflex" unicode="&#x134;" horiz-adv-x="394" 
d="M166 886h119l133 -113h-131l-62 49l-65 -49h-130zM22 1l16 126q43 -16 78 -16q41 0 55 27t14 88v383h-128v116h271v-505q0 -233 -196 -233q-54 0 -110 14z" />
    <glyph glyph-name="uni0136" unicode="&#x136;" horiz-adv-x="657" 
d="M70 725h143v-351l271 351h154l-284 -359l327 -366h-186l-282 315v-315h-143v725zM331 -136h-36v100h106v-106l-44 -89h-65z" />
    <glyph glyph-name="Lacute" unicode="&#x139;" horiz-adv-x="526" 
d="M70 725h143v-609h293v-116h-436v725zM178 886h169l-159 -113h-113z" />
    <glyph glyph-name="Lcaron" unicode="&#x13d;" horiz-adv-x="529" 
d="M70 725h143v-609h293v-116h-436v725zM326 726h130l-70 -170h-90z" />
    <glyph glyph-name="uni013B" unicode="&#x13b;" horiz-adv-x="526" 
d="M70 725h143v-609h293v-116h-436v725zM291 -136h-36v100h106v-106l-44 -89h-65z" />
    <glyph glyph-name="Ldot" unicode="&#x13f;" horiz-adv-x="526" 
d="M70 725h143v-609h293v-116h-436v725zM333 351v113h143v-113h-143z" />
    <glyph glyph-name="Lslash" unicode="&#x141;" horiz-adv-x="574" 
d="M117 725h143v-262l180 114v-126l-180 -114v-221h293v-116h-436v248l-87 -55v126l87 55v351z" />
    <glyph glyph-name="Eng" unicode="&#x14a;" horiz-adv-x="751" 
d="M539 -2l-334 564v-562h-135v725h186l290 -478v478h135v-717q0 -100 -51 -148.5t-134 -48.5q-41 0 -75 14v112q22 -10 47 -10q30 0 50.5 14t20.5 42v15z" />
    <glyph glyph-name="Nacute" unicode="&#x143;" horiz-adv-x="751" 
d="M681 725v-725h-186l-290 553v-553h-135v725h186l290 -553v553h135zM422 886h169l-159 -113h-113z" />
    <glyph glyph-name="Ncaron" unicode="&#x147;" horiz-adv-x="751" 
d="M681 725v-725h-186l-290 553v-553h-135v725h186l290 -553v553h135zM453 773h-119l-137 113h131l66 -50l69 50h130z" />
    <glyph glyph-name="uni0145" unicode="&#x145;" horiz-adv-x="751" 
d="M681 725v-725h-186l-290 553v-553h-135v725h186l290 -553v553h135zM360 -136h-36v100h106v-106l-44 -89h-65z" />
    <glyph glyph-name="OE" unicode="&#x152;" horiz-adv-x="1090" 
d="M591 60q-81 -73 -204 -73q-107 0 -186 47t-122 133t-43 199t42.5 197t122 129.5t186.5 45.5q124 0 204 -71v58h454v-116h-325v-180h304v-116h-304v-197h325v-116h-454v60zM387 624q-58 0 -104 -29t-72.5 -87t-26.5 -142t26.5 -144t73 -90.5t103.5 -30.5q58 0 103.5 30.5
t72 90.5t26.5 144t-26 142t-72 87t-104 29z" />
    <glyph glyph-name="Obreve" unicode="&#x14e;" horiz-adv-x="780" 
d="M390 -13q-107 0 -187.5 47t-124 132t-43.5 197t43.5 197t124 131.5t187.5 46.5t187.5 -46.5t124 -131.5t43.5 -197t-43.5 -197t-124 -132t-187.5 -47zM390 101q57 0 104.5 30.5t75 90t27.5 141.5t-27.5 141t-74.5 89.5t-105 30.5t-105 -30.5t-74.5 -89.5t-27.5 -141
t27.5 -141.5t75 -90t104.5 -30.5zM560 886q-6 -60 -49 -88.5t-122 -28.5q-159 0 -168 117h97q3 -24 20 -35t52 -11t52.5 11t20.5 35h97z" />
    <glyph glyph-name="Ohungarumlaut" unicode="&#x150;" horiz-adv-x="780" 
d="M390 -13q-107 0 -187.5 47t-124 132t-43.5 197t43.5 197t124 131.5t187.5 46.5t187.5 -46.5t124 -131.5t43.5 -197t-43.5 -197t-124 -132t-187.5 -47zM390 101q57 0 104.5 30.5t75 90t27.5 141.5t-27.5 141t-74.5 89.5t-105 30.5t-105 -30.5t-74.5 -89.5t-27.5 -141
t27.5 -141.5t75 -90t104.5 -30.5zM342 886h169l-159 -113h-113zM532 886h169l-160 -113h-113z" />
    <glyph glyph-name="Omacron" unicode="&#x14c;" horiz-adv-x="780" 
d="M390 -13q-107 0 -187.5 47t-124 132t-43.5 197t43.5 197t124 131.5t187.5 46.5t187.5 -46.5t124 -131.5t43.5 -197t-43.5 -197t-124 -132t-187.5 -47zM390 101q57 0 104.5 30.5t75 90t27.5 141.5t-27.5 141t-74.5 89.5t-105 30.5t-105 -30.5t-74.5 -89.5t-27.5 -141
t27.5 -141.5t75 -90t104.5 -30.5zM547 875v-92h-313v92h313z" />
    <glyph glyph-name="uni1ECC" unicode="&#x1ecc;" horiz-adv-x="780" 
d="M390 -13q-107 0 -187.5 47t-124 132t-43.5 197t43.5 197t124 131.5t187.5 46.5t187.5 -46.5t124 -131.5t43.5 -197t-43.5 -197t-124 -132t-187.5 -47zM390 101q57 0 104.5 30.5t75 90t27.5 141.5t-27.5 141t-74.5 89.5t-105 30.5t-105 -30.5t-74.5 -89.5t-27.5 -141
t27.5 -141.5t75 -90t104.5 -30.5zM333 -175v108h115v-108h-115z" />
    <glyph glyph-name="Racute" unicode="&#x154;" horiz-adv-x="654" 
d="M70 0v725h223q163 0 236.5 -53.5t73.5 -161.5q0 -71 -41.5 -123.5t-124.5 -74.5l204 -312h-158l-191 296h-79v-296h-143zM213 609v-197h98q73 0 109 22t36 76q0 55 -37.5 77t-114.5 22h-91zM347 886h169l-159 -113h-113z" />
    <glyph glyph-name="Rcaron" unicode="&#x158;" horiz-adv-x="654" 
d="M70 0v725h223q163 0 236.5 -53.5t73.5 -161.5q0 -71 -41.5 -123.5t-124.5 -74.5l204 -312h-158l-191 296h-79v-296h-143zM213 609v-197h98q73 0 109 22t36 76q0 55 -37.5 77t-114.5 22h-91zM378 773h-119l-137 113h131l66 -50l69 50h130z" />
    <glyph glyph-name="uni0156" unicode="&#x156;" horiz-adv-x="654" 
d="M70 0v725h223q163 0 236.5 -53.5t73.5 -161.5q0 -71 -41.5 -123.5t-124.5 -74.5l204 -312h-158l-191 296h-79v-296h-143zM213 609v-197h98q73 0 109 22t36 76q0 55 -37.5 77t-114.5 22h-91zM325 -136h-36v100h106v-106l-44 -89h-65z" />
    <glyph glyph-name="Sacute" unicode="&#x15a;" horiz-adv-x="568" 
d="M50 24v138q93 -51 198 -51q62 0 103.5 22.5t41.5 69.5q0 36 -30 57t-87 39l-56 17q-90 28 -136.5 83t-46.5 125q0 64 37 112.5t102 75t147 26.5q45 0 94 -7.5t80 -20.5v-129q-35 15 -82.5 24t-91.5 9q-64 0 -105 -21t-41 -59q0 -60 113 -94l56 -17q95 -29 145 -77.5
t50 -136.5q0 -62 -37.5 -113t-102.5 -80t-146 -29q-114 0 -205 37zM339 886h169l-159 -113h-113z" />
    <glyph glyph-name="Scaron" unicode="&#x160;" horiz-adv-x="568" 
d="M50 24v138q93 -51 198 -51q62 0 103.5 22.5t41.5 69.5q0 36 -30 57t-87 39l-56 17q-90 28 -136.5 83t-46.5 125q0 64 37 112.5t102 75t147 26.5q45 0 94 -7.5t80 -20.5v-129q-35 15 -82.5 24t-91.5 9q-64 0 -105 -21t-41 -59q0 -60 113 -94l56 -17q95 -29 145 -77.5
t50 -136.5q0 -62 -37.5 -113t-102.5 -80t-146 -29q-114 0 -205 37zM354 773h-119l-137 113h131l66 -50l69 50h130z" />
    <glyph glyph-name="Scedilla" unicode="&#x15e;" horiz-adv-x="568" 
d="M50 24v138q93 -51 198 -51q62 0 103.5 22.5t41.5 69.5q0 36 -30 57t-87 39l-56 17q-90 28 -136.5 83t-46.5 125q0 64 37 112.5t102 75t147 26.5q45 0 94 -7.5t80 -20.5v-129q-35 15 -82.5 24t-91.5 9q-64 0 -105 -21t-41 -59q0 -60 113 -94l56 -17q95 -29 145 -77.5
t50 -136.5q0 -62 -37.5 -113t-102.5 -80t-146 -29q-114 0 -205 37zM218 -134q26 -14 62 -14q26 0 39 8.5t13 23.5q0 27 -40 27q-25 0 -38 -9l-30 17l51 83h56l-33 -52q19 4 37 4q36 -1 59.5 -19t23.5 -49q0 -39 -36 -62t-86 -23q-51 0 -95 18z" />
    <glyph glyph-name="Scircumflex" unicode="&#x15c;" horiz-adv-x="568" 
d="M50 24v138q93 -51 198 -51q62 0 103.5 22.5t41.5 69.5q0 36 -30 57t-87 39l-56 17q-90 28 -136.5 83t-46.5 125q0 64 37 112.5t102 75t147 26.5q45 0 94 -7.5t80 -20.5v-129q-35 15 -82.5 24t-91.5 9q-64 0 -105 -21t-41 -59q0 -60 113 -94l56 -17q95 -29 145 -77.5
t50 -136.5q0 -62 -37.5 -113t-102.5 -80t-146 -29q-114 0 -205 37zM242 886h119l137 -113h-131l-66 49l-69 -49h-130z" />
    <glyph glyph-name="uni0218" unicode="&#x218;" horiz-adv-x="568" 
d="M50 24v138q93 -51 198 -51q62 0 103.5 22.5t41.5 69.5q0 36 -30 57t-87 39l-56 17q-90 28 -136.5 83t-46.5 125q0 64 37 112.5t102 75t147 26.5q45 0 94 -7.5t80 -20.5v-129q-35 15 -82.5 24t-91.5 9q-64 0 -105 -21t-41 -59q0 -60 113 -94l56 -17q95 -29 145 -77.5
t50 -136.5q0 -62 -37.5 -113t-102.5 -80t-146 -29q-114 0 -205 37zM270 -136h-36v100h106v-106l-44 -89h-65z" />
    <glyph glyph-name="Tbar" unicode="&#x166;" horiz-adv-x="657" 
d="M400 0h-143v308h-172v116h172v185h-224v116h591v-116h-224v-185h172v-116h-172v-308z" />
    <glyph glyph-name="Tcaron" unicode="&#x164;" horiz-adv-x="631" 
d="M387 0h-143v609h-224v116h591v-116h-224v-609zM373 773h-119l-137 113h131l66 -50l69 50h130z" />
    <glyph glyph-name="uni0162" unicode="&#x162;" horiz-adv-x="631" 
d="M387 0h-143v609h-224v116h591v-116h-224v-609zM300 -136h-36v100h106v-106l-44 -89h-65z" />
    <glyph glyph-name="uni021A" unicode="&#x21a;" horiz-adv-x="631" 
d="M387 0h-143v609h-224v116h591v-116h-224v-609zM300 -136h-36v100h106v-106l-44 -89h-65z" />
    <glyph glyph-name="Ubreve" unicode="&#x16c;" horiz-adv-x="726" 
d="M63 725h143v-419q0 -70 12.5 -113.5t47 -67.5t98.5 -24t98 23.5t46 67.5t12 114v419h143v-418q0 -120 -30.5 -189.5t-95.5 -100t-173 -30.5t-173.5 30.5t-96.5 100.5t-31 189v418zM533 886q-6 -60 -49 -88.5t-122 -28.5q-159 0 -168 117h97q3 -24 20 -35t52 -11t52.5 11
t20.5 35h97z" />
    <glyph glyph-name="Uhungarumlaut" unicode="&#x170;" horiz-adv-x="726" 
d="M63 725h143v-419q0 -70 12.5 -113.5t47 -67.5t98.5 -24t98 23.5t46 67.5t12 114v419h143v-418q0 -120 -30.5 -189.5t-95.5 -100t-173 -30.5t-173.5 30.5t-96.5 100.5t-31 189v418zM315 886h169l-159 -113h-113zM505 886h169l-160 -113h-113z" />
    <glyph glyph-name="Umacron" unicode="&#x16a;" horiz-adv-x="726" 
d="M63 725h143v-419q0 -70 12.5 -113.5t47 -67.5t98.5 -24t98 23.5t46 67.5t12 114v419h143v-418q0 -120 -30.5 -189.5t-95.5 -100t-173 -30.5t-173.5 30.5t-96.5 100.5t-31 189v418zM520 875v-92h-313v92h313z" />
    <glyph glyph-name="Uogonek" unicode="&#x172;" horiz-adv-x="726" 
d="M265 -96q0 26 13.5 46t39.5 38q-87 7 -142 37t-84 97.5t-29 184.5v418h143v-419q0 -70 12.5 -113.5t47 -67.5t98.5 -24t98 23.5t46 67.5t12 114v419h143v-418q0 -150 -47 -220.5t-146 -90.5q-86 -18 -86 -65q0 -19 12.5 -28t32.5 -9t48 8v-82q-35 -8 -74 -8
q-59 0 -98.5 23t-39.5 69z" />
    <glyph glyph-name="Uring" unicode="&#x16e;" horiz-adv-x="726" 
d="M63 725h143v-419q0 -70 12.5 -113.5t47 -67.5t98.5 -24t98 23.5t46 67.5t12 114v419h143v-418q0 -120 -30.5 -189.5t-95.5 -100t-173 -30.5t-173.5 30.5t-96.5 100.5t-31 189v418zM468 856q0 -42 -30.5 -70.5t-74.5 -28.5q-45 0 -75 28t-30 71t30.5 71t74.5 28t74.5 -28
t30.5 -71zM319 856q0 -18 13 -30.5t31 -12.5t31 12.5t13 30.5t-13 30.5t-31 12.5t-31 -12.5t-13 -30.5z" />
    <glyph glyph-name="Utilde" unicode="&#x168;" horiz-adv-x="726" 
d="M63 725h143v-419q0 -70 12.5 -113.5t47 -67.5t98.5 -24t98 23.5t46 67.5t12 114v419h143v-418q0 -120 -30.5 -189.5t-95.5 -100t-173 -30.5t-173.5 30.5t-96.5 100.5t-31 189v418zM481 893h93q-12 -72 -52.5 -99.5t-83.5 -27.5q-23 0 -40 6.5t-37 17.5q-16 9 -26 13
t-21 4q-40 0 -48 -41h-94q12 73 52.5 100t84.5 27q23 0 38 -6t35 -17q14 -9 25 -13t24 -4q40 0 50 40z" />
    <glyph glyph-name="uni1EE4" unicode="&#x1ee4;" horiz-adv-x="726" 
d="M63 725h143v-419q0 -70 12.5 -113.5t47 -67.5t98.5 -24t98 23.5t46 67.5t12 114v419h143v-418q0 -120 -30.5 -189.5t-95.5 -100t-173 -30.5t-173.5 30.5t-96.5 100.5t-31 189v418zM306 -175v108h115v-108h-115z" />
    <glyph glyph-name="Wacute" unicode="&#x1e82;" horiz-adv-x="904" 
d="M369 725h167l111 -531l99 531h146l-161 -725h-169l-110 540l-110 -540h-169l-161 725h148l108 -528zM499 886h169l-159 -113h-113z" />
    <glyph glyph-name="Wcircumflex" unicode="&#x174;" horiz-adv-x="904" 
d="M369 725h167l111 -531l99 531h146l-161 -725h-169l-110 540l-110 -540h-169l-161 725h148l108 -528zM394 886h119l137 -113h-131l-66 49l-69 -49h-130z" />
    <glyph glyph-name="Wdieresis" unicode="&#x1e84;" horiz-adv-x="904" 
d="M369 725h167l111 -531l99 531h146l-161 -725h-169l-110 540l-110 -540h-169l-161 725h148l108 -528zM275 773v113h115v-113h-115zM515 773v113h115v-113h-115z" />
    <glyph glyph-name="Wgrave" unicode="&#x1e80;" horiz-adv-x="904" 
d="M369 725h167l111 -531l99 531h146l-161 -725h-169l-110 540l-110 -540h-169l-161 725h148l108 -528zM509 773h-113l-159 113h169z" />
    <glyph glyph-name="Ycircumflex" unicode="&#x176;" horiz-adv-x="657" 
d="M256 282l-261 443h167l169 -303l172 303h163l-267 -445v-280h-143v282zM272 886h119l137 -113h-131l-66 49l-69 -49h-130z" />
    <glyph glyph-name="Ydieresis" unicode="&#x178;" horiz-adv-x="657" 
d="M256 282l-261 443h167l169 -303l172 303h163l-267 -445v-280h-143v282zM153 773v113h115v-113h-115zM393 773v113h115v-113h-115z" />
    <glyph glyph-name="Ygrave" unicode="&#x1ef2;" horiz-adv-x="657" 
d="M256 282l-261 443h167l169 -303l172 303h163l-267 -445v-280h-143v282zM397 773h-113l-159 113h169z" />
    <glyph glyph-name="uni0232" unicode="&#x232;" horiz-adv-x="657" 
d="M256 282l-261 443h167l169 -303l172 303h163l-267 -445v-280h-143v282zM487 875v-92h-313v92h313z" />
    <glyph glyph-name="Zacute" unicode="&#x179;" horiz-adv-x="626" 
d="M52 725h537v-112l-395 -497h406v-116h-579v112l396 497h-365v116zM357 886h169l-159 -113h-113z" />
    <glyph glyph-name="Zcaron" unicode="&#x17d;" horiz-adv-x="626" 
d="M52 725h537v-112l-395 -497h406v-116h-579v112l396 497h-365v116zM388 773h-119l-137 113h131l66 -50l69 50h130z" />
    <glyph glyph-name="Zdotaccent" unicode="&#x17b;" horiz-adv-x="626" 
d="M52 725h537v-112l-395 -497h406v-116h-579v112l396 497h-365v116zM259 773v113h143v-113h-143z" />
    <glyph glyph-name="uni018F" unicode="&#x18f;" horiz-adv-x="761" 
d="M33 368q0 17 2 51h537q-15 101 -84 145.5t-174 44.5q-59 0 -116.5 -13t-101.5 -35v134q111 42 246 42q114 0 201 -46t135 -131.5t48 -200.5q0 -111 -45 -195.5t-126 -130.5t-184 -46q-104 0 -180.5 47.5t-117 133.5t-40.5 200zM575 304h-385q2 -98 53.5 -150t134.5 -52
q80 0 137.5 48t59.5 154z" />
    <glyph glyph-name="abreve" unicode="&#x103;" horiz-adv-x="556" 
d="M366 346q-6 54 -37 73t-87 19q-49 0 -92 -14.5t-75 -38.5v117q35 20 90.5 34t103.5 14q118 0 174.5 -52t56.5 -163v-33q-2 -70 -2 -124q0 -64 1.5 -97t5.5 -81h-125l-1 82q-24 -50 -66.5 -72.5t-109.5 -22.5q-47 0 -88 19.5t-66 56.5t-25 85q0 89 82.5 134.5t259.5 63.5z
M374 258v5q-111 -4 -163.5 -30t-52.5 -73q0 -35 22.5 -57t61.5 -22q56 0 94 44t38 133zM463 755q-6 -57 -48 -90.5t-123 -33.5q-80 0 -121.5 34t-46.5 90h97q7 -52 72 -52q67 0 73 52h97z" />
    <glyph glyph-name="amacron" unicode="&#x101;" horiz-adv-x="556" 
d="M366 346q-6 54 -37 73t-87 19q-49 0 -92 -14.5t-75 -38.5v117q35 20 90.5 34t103.5 14q118 0 174.5 -52t56.5 -163v-33q-2 -70 -2 -124q0 -64 1.5 -97t5.5 -81h-125l-1 82q-24 -50 -66.5 -72.5t-109.5 -22.5q-47 0 -88 19.5t-66 56.5t-25 85q0 89 82.5 134.5t259.5 63.5z
M374 258v5q-111 -4 -163.5 -30t-52.5 -73q0 -35 22.5 -57t61.5 -22q56 0 94 44t38 133zM453 746v-88h-313v88h313z" />
    <glyph glyph-name="aogonek" unicode="&#x105;" horiz-adv-x="556" 
d="M422 -73q0 -16 13 -24.5t32 -8.5q22 0 43 6v-82q-18 -4 -34 -5t-35 -1q-60 0 -99 22.5t-39 68.5q0 29 21.5 55t55.5 42l-1 82q-24 -50 -66.5 -72.5t-109.5 -22.5q-47 0 -88 19.5t-66 56.5t-25 85q0 89 82.5 134.5t259.5 63.5q-6 54 -37 73t-87 19q-49 0 -92 -14.5
t-75 -38.5v117q35 20 90.5 34t103.5 14q118 0 174.5 -52t56.5 -163v-33q-2 -70 -2 -124q0 -64 1.5 -97t5.5 -81q-43 -19 -63 -35.5t-20 -37.5zM374 258v5q-111 -4 -163.5 -30t-52.5 -73q0 -35 22.5 -57t61.5 -22q56 0 94 44t38 133z" />
    <glyph glyph-name="cacute" unicode="&#x107;" horiz-adv-x="466" 
d="M324 98q54 0 110 25v-113q-22 -9 -59 -16t-66 -7q-89 0 -152.5 38t-95.5 102t-32 141t32.5 141.5t96 102.5t151.5 38q32 0 64.5 -4t50.5 -13v-113q-43 19 -100 19q-70 0 -112.5 -43.5t-42.5 -127.5t42.5 -127t112.5 -43zM321 754h157l-150 -116h-102z" />
    <glyph glyph-name="ccaron" unicode="&#x10d;" horiz-adv-x="466" 
d="M324 98q54 0 110 25v-113q-22 -9 -59 -16t-66 -7q-89 0 -152.5 38t-95.5 102t-32 141t32.5 141.5t96 102.5t151.5 38q32 0 64.5 -4t50.5 -13v-113q-43 19 -100 19q-70 0 -112.5 -43.5t-42.5 -127.5t42.5 -127t112.5 -43zM344 639h-99l-147 116h121l76 -44l76 44h121z" />
    <glyph glyph-name="ccircumflex" unicode="&#x109;" horiz-adv-x="466" 
d="M324 98q54 0 110 25v-113q-22 -9 -59 -16t-66 -7q-89 0 -152.5 38t-95.5 102t-32 141t32.5 141.5t96 102.5t151.5 38q32 0 64.5 -4t50.5 -13v-113q-43 19 -100 19q-70 0 -112.5 -43.5t-42.5 -127.5t42.5 -127t112.5 -43zM242 755h99l148 -116h-121l-76 44l-76 -44h-121z
" />
    <glyph glyph-name="cdotaccent" unicode="&#x10b;" horiz-adv-x="466" 
d="M324 98q54 0 110 25v-113q-22 -9 -59 -16t-66 -7q-89 0 -152.5 38t-95.5 102t-32 141t32.5 141.5t96 102.5t151.5 38q32 0 64.5 -4t50.5 -13v-113q-43 19 -100 19q-70 0 -112.5 -43.5t-42.5 -127.5t42.5 -127t112.5 -43zM217 639v116h115v-116h-115z" />
    <glyph glyph-name="dcaron" unicode="&#x10f;" horiz-adv-x="634" 
d="M417 755h138v-755h-138v68q-24 -41 -66 -61t-89 -20q-66 0 -118.5 35t-82.5 99t-30 148q0 83 29.5 147t82 99t119.5 35q51 0 92 -21.5t63 -59.5v286zM296 444q-56 0 -88 -48t-32 -128t32 -127.5t88 -47.5q58 0 92 47t34 129q0 81 -34.5 128t-91.5 47zM617 755h130
l-70 -170h-90z" />
    <glyph glyph-name="dcroat" unicode="&#x111;" horiz-adv-x="617" 
d="M555 0h-138v68q-24 -41 -66 -61t-89 -20q-66 0 -118.5 35t-82.5 99t-30 148q0 83 29.5 147t82 99t119.5 35q51 0 92 -21.5t63 -59.5v123h-137v90h137v73h138v-73h84v-90h-84v-592zM296 444q-56 0 -88 -48t-32 -128t32 -127.5t88 -47.5q58 0 92 47t34 129q0 81 -34.5 128
t-91.5 47z" />
    <glyph glyph-name="ebreve" unicode="&#x115;" horiz-adv-x="563" 
d="M167 235q7 -65 50 -101t115 -36q82 0 164 44v-116q-32 -16 -81 -27.5t-107 -11.5q-90 0 -153 38t-94 102t-31 144q0 79 33 143.5t92 101t135 36.5q123 0 185 -85t60 -232h-368zM163 323h238q-3 67 -35 97.5t-81 30.5q-48 0 -83.5 -29t-38.5 -99zM472 755
q-6 -57 -48 -90.5t-123 -33.5q-80 0 -121.5 34t-46.5 90h97q7 -52 72 -52q67 0 73 52h97z" />
    <glyph glyph-name="ecaron" unicode="&#x11b;" horiz-adv-x="563" 
d="M167 235q7 -65 50 -101t115 -36q82 0 164 44v-116q-32 -16 -81 -27.5t-107 -11.5q-90 0 -153 38t-94 102t-31 144q0 79 33 143.5t92 101t135 36.5q123 0 185 -85t60 -232h-368zM163 323h238q-3 67 -35 97.5t-81 30.5q-48 0 -83.5 -29t-38.5 -99zM345 639h-99l-147 116
h121l76 -44l76 44h121z" />
    <glyph glyph-name="emacron" unicode="&#x113;" horiz-adv-x="563" 
d="M167 235q7 -65 50 -101t115 -36q82 0 164 44v-116q-32 -16 -81 -27.5t-107 -11.5q-90 0 -153 38t-94 102t-31 144q0 79 33 143.5t92 101t135 36.5q123 0 185 -85t60 -232h-368zM163 323h238q-3 67 -35 97.5t-81 30.5q-48 0 -83.5 -29t-38.5 -99zM451 746v-88h-313v88h313
z" />
    <glyph glyph-name="eogonek" unicode="&#x119;" horiz-adv-x="563" 
d="M535 235h-368q7 -65 50 -101t115 -36q82 0 164 44v-116q-39 -20 -63.5 -43.5t-24.5 -45.5q0 -21 13 -32t32 -11q22 0 43 6v-82q-18 -4 -34 -5t-35 -1q-60 0 -99 22.5t-39 68.5q0 25 13.5 46.5t39.5 38.5q-11 -1 -34 -1q-90 0 -153 38t-94 102t-31 144q0 79 33 143.5
t92 101t135 36.5q123 0 185 -85t60 -232zM401 323q-3 67 -35 97.5t-81 30.5q-48 0 -83.5 -29t-38.5 -99h238z" />
    <glyph glyph-name="edotaccent" unicode="&#x117;" horiz-adv-x="563" 
d="M167 235q7 -65 50 -101t115 -36q82 0 164 44v-116q-32 -16 -81 -27.5t-107 -11.5q-90 0 -153 38t-94 102t-31 144q0 79 33 143.5t92 101t135 36.5q123 0 185 -85t60 -232h-368zM163 323h238q-3 67 -35 97.5t-81 30.5q-48 0 -83.5 -29t-38.5 -99zM237 639v116h115v-116
h-115z" />
    <glyph glyph-name="gbreve" unicode="&#x11f;" horiz-adv-x="615" 
d="M554 65q0 -144 -78.5 -207.5t-198.5 -63.5q-48 0 -97.5 9t-83.5 24v119q32 -19 78.5 -30t89.5 -11q72 0 112.5 34t40.5 107v44q-25 -41 -66.5 -61t-87.5 -20q-68 0 -120.5 34.5t-81.5 96t-29 140.5q0 78 29 139t81.5 96t120.5 35q50 0 93 -23t61 -59v70h137v-473z
M298 445q-55 0 -88 -47t-33 -119q0 -71 33 -118t88 -47q57 0 90.5 46t33.5 120t-33.5 119.5t-90.5 45.5zM473 755q-6 -57 -48 -90.5t-123 -33.5q-80 0 -121.5 34t-46.5 90h97q7 -52 72 -52q67 0 73 52h97z" />
    <glyph glyph-name="gcircumflex" unicode="&#x11d;" horiz-adv-x="615" 
d="M554 65q0 -144 -78.5 -207.5t-198.5 -63.5q-48 0 -97.5 9t-83.5 24v119q32 -19 78.5 -30t89.5 -11q72 0 112.5 34t40.5 107v44q-25 -41 -66.5 -61t-87.5 -20q-68 0 -120.5 34.5t-81.5 96t-29 140.5q0 78 29 139t81.5 96t120.5 35q50 0 93 -23t61 -59v70h137v-473z
M298 445q-55 0 -88 -47t-33 -119q0 -71 33 -118t88 -47q57 0 90.5 46t33.5 120t-33.5 119.5t-90.5 45.5zM263 755h99l148 -116h-121l-76 44l-76 -44h-121z" />
    <glyph glyph-name="uni0123" unicode="&#x123;" horiz-adv-x="615" 
d="M319 700h36v-100h-106v106l44 89h65zM554 65q0 -144 -78.5 -207.5t-198.5 -63.5q-48 0 -97.5 9t-83.5 24v119q32 -19 78.5 -30t89.5 -11q72 0 112.5 34t40.5 107v44q-25 -41 -66.5 -61t-87.5 -20q-68 0 -120.5 34.5t-81.5 96t-29 140.5q0 78 29 139t81.5 96t120.5 35
q50 0 93 -23t61 -59v70h137v-473zM298 445q-55 0 -88 -47t-33 -119q0 -71 33 -118t88 -47q57 0 90.5 46t33.5 120t-33.5 119.5t-90.5 45.5z" />
    <glyph glyph-name="gdotaccent" unicode="&#x121;" horiz-adv-x="615" 
d="M554 65q0 -144 -78.5 -207.5t-198.5 -63.5q-48 0 -97.5 9t-83.5 24v119q32 -19 78.5 -30t89.5 -11q72 0 112.5 34t40.5 107v44q-25 -41 -66.5 -61t-87.5 -20q-68 0 -120.5 34.5t-81.5 96t-29 140.5q0 78 29 139t81.5 96t120.5 35q50 0 93 -23t61 -59v70h137v-473z
M298 445q-55 0 -88 -47t-33 -119q0 -71 33 -118t88 -47q57 0 90.5 46t33.5 120t-33.5 119.5t-90.5 45.5zM253 639v116h115v-116h-115z" />
    <glyph glyph-name="hbar" unicode="&#x127;" horiz-adv-x="599" 
d="M200 755v-73h137v-90h-137v-125q23 40 64.5 61.5t91.5 21.5q94 0 140 -54.5t46 -156.5v-339h-138v309q0 61 -19.5 95.5t-73.5 34.5q-63 0 -87 -43t-24 -116v-280h-138v592h-84v90h84v73h138z" />
    <glyph glyph-name="hcircumflex" unicode="&#x125;" horiz-adv-x="599" 
d="M200 467q23 40 64.5 61.5t91.5 21.5q94 0 140 -54.5t46 -156.5v-339h-138v309q0 61 -19.5 95.5t-73.5 34.5q-63 0 -87 -43t-24 -116v-280h-138v755h138v-288zM281 906h119l137 -113h-131l-66 49l-69 -49h-130z" />
    <glyph glyph-name="dotlessi" unicode="&#x131;" horiz-adv-x="262" 
d="M62 0v538h138v-538h-138z" />
    <glyph glyph-name="ibreve" unicode="&#x12d;" horiz-adv-x="262" 
d="M62 0v538h138v-538h-138zM302 755q-6 -57 -48 -90.5t-123 -33.5q-80 0 -121.5 34t-46.5 90h97q7 -52 72 -52q67 0 73 52h97z" />
    <glyph glyph-name="imacron" unicode="&#x12b;" horiz-adv-x="262" 
d="M62 0v538h138v-538h-138zM289 746v-88h-313v88h313z" />
    <glyph glyph-name="iogonek" unicode="&#x12f;" horiz-adv-x="262" 
d="M62 627v128h138v-128h-138zM62 538h138v-538q-48 -23 -68 -38t-20 -35q0 -16 13 -24.5t32 -8.5q22 0 43 6v-82q-18 -4 -34 -5t-35 -1q-60 0 -99 22.5t-39 68.5q0 29 18.5 54.5t50.5 42.5v538z" />
    <glyph glyph-name="itilde" unicode="&#x129;" horiz-adv-x="262" 
d="M62 0v538h138v-538h-138zM245 759h88q-10 -60 -44 -90.5t-84 -30.5q-24 0 -42 6.5t-43 19.5q-18 10 -29 14.5t-24 4.5q-41 0 -49 -44h-87q10 58 43 89.5t85 31.5q24 0 41.5 -6.5t39.5 -19.5q18 -10 29.5 -14.5t25.5 -4.5q42 0 50 44z" />
    <glyph glyph-name="uni1ECB" unicode="&#x1ecb;" horiz-adv-x="262" 
d="M62 627v128h138v-128h-138zM62 0v538h138v-538h-138zM74 -175v108h115v-108h-115z" />
    <glyph glyph-name="uni0237" unicode="&#x237;" horiz-adv-x="300" 
d="M9 -200v107q24 -7 47 -7t33.5 14.5t10.5 47.5v481h-82v95h220v-562q0 -93 -35.5 -137.5t-116.5 -44.5q-43 0 -77 6z" />
    <glyph glyph-name="jcircumflex" unicode="&#x135;" horiz-adv-x="300" 
d="M98 755h99l136 -116h-121l-64 44l-64 -44h-121zM9 -200v107q24 -7 47 -7t33.5 14.5t10.5 47.5v481h-82v95h220v-562q0 -93 -35.5 -137.5t-116.5 -44.5q-43 0 -77 6z" />
    <glyph glyph-name="uni0137" unicode="&#x137;" horiz-adv-x="553" 
d="M62 0v755h138v-460l189 243h148l-203 -252l239 -286h-171l-202 239v-239h-138zM279 -136h-36v100h106v-106l-44 -89h-65z" />
    <glyph glyph-name="lacute" unicode="&#x13a;" horiz-adv-x="262" 
d="M62 755h138v-755h-138v755zM178 906h169l-159 -113h-113z" />
    <glyph glyph-name="lcaron" unicode="&#x13e;" horiz-adv-x="262" 
d="M262 755h130l-70 -170h-90zM62 755h138v-755h-138v755z" />
    <glyph glyph-name="uni013C" unicode="&#x13c;" horiz-adv-x="262" 
d="M62 755h138v-755h-138v755zM116 -136h-36v100h106v-106l-44 -89h-65z" />
    <glyph glyph-name="ldot" unicode="&#x140;" horiz-adv-x="377" 
d="M62 755h138v-755h-138v755zM262 342v116h115v-116h-115z" />
    <glyph glyph-name="lslash" unicode="&#x142;" horiz-adv-x="343" 
d="M101 755h138v-262l79 46v-112l-79 -46v-381h-138v312l-73 -42v112l73 42v331z" />
    <glyph glyph-name="eng" unicode="&#x14b;" horiz-adv-x="599" 
d="M542 -24q0 -93 -35.5 -137.5t-116.5 -44.5q-43 0 -77 6v107q24 -7 47 -7t33.5 14.5t10.5 47.5v347q0 61 -19.5 95.5t-73.5 34.5q-63 0 -87 -43t-24 -116v-280h-138v538h138v-71q23 40 64.5 61.5t91.5 21.5q94 0 140 -54.5t46 -156.5v-363z" />
    <glyph glyph-name="nacute" unicode="&#x144;" horiz-adv-x="599" 
d="M200 467q23 40 64.5 61.5t91.5 21.5q94 0 140 -54.5t46 -156.5v-339h-138v309q0 61 -19.5 95.5t-73.5 34.5q-63 0 -87 -43t-24 -116v-280h-138v538h138v-71zM346 755h157l-150 -116h-102z" />
    <glyph glyph-name="ncaron" unicode="&#x148;" horiz-adv-x="599" 
d="M200 467q23 40 64.5 61.5t91.5 21.5q94 0 140 -54.5t46 -156.5v-339h-138v309q0 61 -19.5 95.5t-73.5 34.5q-63 0 -87 -43t-24 -116v-280h-138v538h138v-71zM351 639h-99l-147 116h121l76 -44l76 44h121z" />
    <glyph glyph-name="uni0146" unicode="&#x146;" horiz-adv-x="599" 
d="M200 467q23 40 64.5 61.5t91.5 21.5q94 0 140 -54.5t46 -156.5v-339h-138v309q0 61 -19.5 95.5t-73.5 34.5q-63 0 -87 -43t-24 -116v-280h-138v538h138v-71zM277 -136h-36v100h106v-106l-44 -89h-65z" />
    <glyph glyph-name="oe" unicode="&#x153;" horiz-adv-x="947" 
d="M487 463q70 89 187 89q123 0 185 -85t60 -232h-368q7 -65 50 -101t115 -36q82 0 164 44v-116q-32 -16 -81 -27.5t-107 -11.5q-133 0 -204 87q-33 -43 -82.5 -65t-108.5 -22q-72 0 -133 31.5t-97.5 95t-36.5 154.5t36.5 154.5t97.5 95.5t133 32q59 0 108 -22t82 -65z
M547 323h238q-3 67 -35 97.5t-81 30.5q-48 0 -83.5 -29t-38.5 -99zM170 268q0 -83 33.5 -128t93.5 -45t93.5 45t33.5 128q0 84 -33.5 129t-93.5 45t-93.5 -45t-33.5 -129z" />
    <glyph glyph-name="obreve" unicode="&#x14f;" horiz-adv-x="594" 
d="M297 550q72 0 133 -32t97.5 -95.5t36.5 -154.5t-36.5 -154.5t-97.5 -95t-133 -31.5t-133 31.5t-97.5 95t-36.5 154.5t36.5 154.5t97.5 95.5t133 32zM297 95q60 0 93.5 45t33.5 128q0 84 -33.5 129t-93.5 45t-93.5 -45t-33.5 -129q0 -83 33.5 -128t93.5 -45zM466 755
q-6 -57 -48 -90.5t-123 -33.5q-80 0 -121.5 34t-46.5 90h97q7 -52 72 -52q67 0 73 52h97z" />
    <glyph glyph-name="ohungarumlaut" unicode="&#x151;" horiz-adv-x="594" 
d="M297 550q72 0 133 -32t97.5 -95.5t36.5 -154.5t-36.5 -154.5t-97.5 -95t-133 -31.5t-133 31.5t-97.5 95t-36.5 154.5t36.5 154.5t97.5 95.5t133 32zM297 95q60 0 93.5 45t33.5 128q0 84 -33.5 129t-93.5 45t-93.5 -45t-33.5 -129q0 -83 33.5 -128t93.5 -45zM243 755h157
l-150 -116h-102zM436 755h157l-149 -116h-102z" />
    <glyph glyph-name="omacron" unicode="&#x14d;" horiz-adv-x="594" 
d="M297 550q72 0 133 -32t97.5 -95.5t36.5 -154.5t-36.5 -154.5t-97.5 -95t-133 -31.5t-133 31.5t-97.5 95t-36.5 154.5t36.5 154.5t97.5 95.5t133 32zM297 95q60 0 93.5 45t33.5 128q0 84 -33.5 129t-93.5 45t-93.5 -45t-33.5 -129q0 -83 33.5 -128t93.5 -45zM453 746v-88
h-313v88h313z" />
    <glyph glyph-name="uni1ECD" unicode="&#x1ecd;" horiz-adv-x="594" 
d="M297 550q72 0 133 -32t97.5 -95.5t36.5 -154.5t-36.5 -154.5t-97.5 -95t-133 -31.5t-133 31.5t-97.5 95t-36.5 154.5t36.5 154.5t97.5 95.5t133 32zM297 95q60 0 93.5 45t33.5 128q0 84 -33.5 129t-93.5 45t-93.5 -45t-33.5 -129q0 -83 33.5 -128t93.5 -45zM239 -175v108
h115v-108h-115z" />
    <glyph glyph-name="racute" unicode="&#x155;" horiz-adv-x="382" 
d="M369 410q-32 5 -52 5q-56 0 -86.5 -30t-30.5 -103v-282h-138v538h136v-94q43 98 142 98q11 0 29 -2v-130zM260 755h157l-150 -116h-102z" />
    <glyph glyph-name="rcaron" unicode="&#x159;" horiz-adv-x="382" 
d="M369 410q-32 5 -52 5q-56 0 -86.5 -30t-30.5 -103v-282h-138v538h136v-94q43 98 142 98q11 0 29 -2v-130zM266 639h-99l-147 116h121l76 -44l76 44h121z" />
    <glyph glyph-name="uni0157" unicode="&#x157;" horiz-adv-x="382" 
d="M369 410q-32 5 -52 5q-56 0 -86.5 -30t-30.5 -103v-282h-138v538h136v-94q43 98 142 98q11 0 29 -2v-130zM114 -136h-36v100h106v-106l-44 -89h-65z" />
    <glyph glyph-name="sacute" unicode="&#x15b;" horiz-adv-x="455" 
d="M40 14v122q35 -17 72.5 -27.5t85.5 -10.5q47 0 72 14.5t25 39.5q0 21 -16 35.5t-59 27.5l-43 13q-75 23 -108 66t-33 97q0 75 61.5 117t152.5 42q74 0 146 -24v-116q-30 12 -67.5 20t-73.5 8q-42 0 -66 -11t-24 -34q0 -18 16 -32.5t56 -26.5l43 -13q77 -23 114 -61
t37 -103q0 -47 -27.5 -86t-77 -61.5t-112.5 -22.5q-54 0 -99 7.5t-75 19.5zM288 755h157l-150 -116h-102z" />
    <glyph glyph-name="scaron" unicode="&#x161;" horiz-adv-x="455" 
d="M40 14v122q35 -17 72.5 -27.5t85.5 -10.5q47 0 72 14.5t25 39.5q0 21 -16 35.5t-59 27.5l-43 13q-75 23 -108 66t-33 97q0 75 61.5 117t152.5 42q74 0 146 -24v-116q-30 12 -67.5 20t-73.5 8q-42 0 -66 -11t-24 -34q0 -18 16 -32.5t56 -26.5l43 -13q77 -23 114 -61
t37 -103q0 -47 -27.5 -86t-77 -61.5t-112.5 -22.5q-54 0 -99 7.5t-75 19.5zM294 639h-99l-147 116h121l76 -44l76 44h121z" />
    <glyph glyph-name="scedilla" unicode="&#x15f;" horiz-adv-x="455" 
d="M40 14v122q35 -17 72.5 -27.5t85.5 -10.5q47 0 72 14.5t25 39.5q0 21 -16 35.5t-59 27.5l-43 13q-75 23 -108 66t-33 97q0 75 61.5 117t152.5 42q74 0 146 -24v-116q-30 12 -67.5 20t-73.5 8q-42 0 -66 -11t-24 -34q0 -18 16 -32.5t56 -26.5l43 -13q77 -23 114 -61
t37 -103q0 -47 -27.5 -86t-77 -61.5t-112.5 -22.5q-54 0 -99 7.5t-75 19.5zM152 -134q26 -14 62 -14q26 0 39 8.5t13 23.5q0 27 -40 27q-25 0 -38 -9l-30 17l51 83h56l-33 -52q19 4 37 4q36 -1 59.5 -19t23.5 -49q0 -39 -36 -62t-86 -23q-51 0 -95 18z" />
    <glyph glyph-name="scircumflex" unicode="&#x15d;" horiz-adv-x="455" 
d="M40 14v122q35 -17 72.5 -27.5t85.5 -10.5q47 0 72 14.5t25 39.5q0 21 -16 35.5t-59 27.5l-43 13q-75 23 -108 66t-33 97q0 75 61.5 117t152.5 42q74 0 146 -24v-116q-30 12 -67.5 20t-73.5 8q-42 0 -66 -11t-24 -34q0 -18 16 -32.5t56 -26.5l43 -13q77 -23 114 -61
t37 -103q0 -47 -27.5 -86t-77 -61.5t-112.5 -22.5q-54 0 -99 7.5t-75 19.5zM197 755h99l148 -116h-121l-76 44l-76 -44h-121z" />
    <glyph glyph-name="uni0219" unicode="&#x219;" horiz-adv-x="455" 
d="M40 14v122q35 -17 72.5 -27.5t85.5 -10.5q47 0 72 14.5t25 39.5q0 21 -16 35.5t-59 27.5l-43 13q-75 23 -108 66t-33 97q0 75 61.5 117t152.5 42q74 0 146 -24v-116q-30 12 -67.5 20t-73.5 8q-42 0 -66 -11t-24 -34q0 -18 16 -32.5t56 -26.5l43 -13q77 -23 114 -61
t37 -103q0 -47 -27.5 -86t-77 -61.5t-112.5 -22.5q-54 0 -99 7.5t-75 19.5zM202 -136h-36v100h106v-106l-44 -89h-65z" />
    <glyph glyph-name="tbar" unicode="&#x167;" horiz-adv-x="387" 
d="M358 4q-38 -14 -82 -14q-95 0 -135 40t-40 129v83h-78v90h78v111h-86v95h86v141h138v-141h122v-95h-122v-111h106v-90h-106v-77q0 -38 15 -53.5t49 -15.5q26 0 55 8v-100z" />
    <glyph glyph-name="tcaron" unicode="&#x165;" horiz-adv-x="376" 
d="M94 538v141h138v-141h122v-95h-122v-278q0 -38 15 -53.5t49 -15.5q26 0 55 8v-100q-38 -14 -82 -14q-95 0 -135 40t-40 129v284h-86v95h86zM309 755h130l-70 -170h-90z" />
    <glyph glyph-name="uni0163" unicode="&#x163;" horiz-adv-x="376" 
d="M94 538v141h138v-141h122v-95h-122v-278q0 -38 15 -53.5t49 -15.5q26 0 55 8v-100q-38 -14 -82 -14q-95 0 -135 40t-40 129v284h-86v95h86zM216 -136h-36v100h106v-106l-44 -89h-65z" />
    <glyph glyph-name="uni021B" unicode="&#x21b;" horiz-adv-x="376" 
d="M94 538v141h138v-141h122v-95h-122v-278q0 -38 15 -53.5t49 -15.5q26 0 55 8v-100q-38 -14 -82 -14q-95 0 -135 40t-40 129v284h-86v95h86zM216 -136h-36v100h106v-106l-44 -89h-65z" />
    <glyph glyph-name="ubreve" unicode="&#x16d;" horiz-adv-x="595" 
d="M395 71q-23 -40 -65 -62t-92 -22q-181 0 -181 211v340h138v-310q0 -64 17.5 -97t70.5 -33q63 0 87.5 43.5t24.5 116.5v280h138v-538h-138v71zM465 755q-6 -57 -48 -90.5t-123 -33.5q-80 0 -121.5 34t-46.5 90h97q7 -52 72 -52q67 0 73 52h97z" />
    <glyph glyph-name="uhungarumlaut" unicode="&#x171;" horiz-adv-x="595" 
d="M395 71q-23 -40 -65 -62t-92 -22q-181 0 -181 211v340h138v-310q0 -64 17.5 -97t70.5 -33q63 0 87.5 43.5t24.5 116.5v280h138v-538h-138v71zM242 755h157l-150 -116h-102zM435 755h157l-149 -116h-102z" />
    <glyph glyph-name="umacron" unicode="&#x16b;" horiz-adv-x="595" 
d="M395 71q-23 -40 -65 -62t-92 -22q-181 0 -181 211v340h138v-310q0 -64 17.5 -97t70.5 -33q63 0 87.5 43.5t24.5 116.5v280h138v-538h-138v71zM452 746v-88h-313v88h313z" />
    <glyph glyph-name="uogonek" unicode="&#x173;" horiz-adv-x="595" 
d="M326 -97q0 29 18.5 54.5t50.5 42.5v71q-23 -40 -65 -62t-92 -22q-181 0 -181 211v340h138v-310q0 -64 17.5 -97t70.5 -33q63 0 87.5 43.5t24.5 116.5v280h138v-538q-48 -23 -68 -38t-20 -35q0 -16 13 -24.5t32 -8.5q22 0 43 6v-82q-18 -4 -34 -5t-35 -1q-60 0 -99 22.5
t-39 68.5z" />
    <glyph glyph-name="uring" unicode="&#x16f;" horiz-adv-x="595" 
d="M395 71q-23 -40 -65 -62t-92 -22q-181 0 -181 211v340h138v-310q0 -64 17.5 -97t70.5 -33q63 0 87.5 43.5t24.5 116.5v280h138v-538h-138v71zM401 711q0 -42 -30.5 -70.5t-74.5 -28.5q-45 0 -75 28t-30 71t30.5 71t74.5 28t74.5 -28t30.5 -71zM253 711q0 -18 12.5 -30.5
t30.5 -12.5t31 12.5t13 30.5t-13 30.5t-31 12.5t-30.5 -12t-12.5 -31z" />
    <glyph glyph-name="utilde" unicode="&#x169;" horiz-adv-x="595" 
d="M395 71q-23 -40 -65 -62t-92 -22q-181 0 -181 211v340h138v-310q0 -64 17.5 -97t70.5 -33q63 0 87.5 43.5t24.5 116.5v280h138v-538h-138v71zM418 759h88q-10 -60 -44 -90.5t-84 -30.5q-24 0 -42 6.5t-43 19.5q-18 10 -29 14.5t-24 4.5q-41 0 -49 -44h-87q10 58 43 89.5
t85 31.5q24 0 41.5 -6.5t39.5 -19.5q18 -10 29.5 -14.5t25.5 -4.5q42 0 50 44z" />
    <glyph glyph-name="uni1EE5" unicode="&#x1ee5;" horiz-adv-x="595" 
d="M395 71q-23 -40 -65 -62t-92 -22q-181 0 -181 211v340h138v-310q0 -64 17.5 -97t70.5 -33q63 0 87.5 43.5t24.5 116.5v280h138v-538h-138v71zM238 -175v108h115v-108h-115z" />
    <glyph glyph-name="wacute" unicode="&#x1e83;" horiz-adv-x="752" 
d="M277 0h-142l-126 538h137l72 -372l84 372h147l85 -371l72 371h137l-127 -538h-142l-98 408zM420 755h157l-150 -116h-102z" />
    <glyph glyph-name="wcircumflex" unicode="&#x175;" horiz-adv-x="752" 
d="M277 0h-142l-126 538h137l72 -372l84 372h147l85 -371l72 371h137l-127 -538h-142l-98 408zM326 755h99l148 -116h-121l-76 44l-76 -44h-121z" />
    <glyph glyph-name="wdieresis" unicode="&#x1e85;" horiz-adv-x="752" 
d="M277 0h-142l-126 538h137l72 -372l84 372h147l85 -371l72 371h137l-127 -538h-142l-98 408zM317 639h-115v116h115v-116zM436 639v116h115v-116h-115z" />
    <glyph glyph-name="wgrave" unicode="&#x1e81;" horiz-adv-x="752" 
d="M277 0h-142l-126 538h137l72 -372l84 372h147l85 -371l72 371h137l-127 -538h-142l-98 408zM427 639h-102l-150 116h157z" />
    <glyph glyph-name="ycircumflex" unicode="&#x177;" horiz-adv-x="533" 
d="M535 538l-278 -733h-129l75 197l-206 536h151l122 -388l125 388h140zM216 755h99l148 -116h-121l-76 44l-76 -44h-121z" />
    <glyph glyph-name="ygrave" unicode="&#x1ef3;" horiz-adv-x="533" 
d="M535 538l-278 -733h-129l75 197l-206 536h151l122 -388l125 388h140zM327 639h-102l-150 116h157z" />
    <glyph glyph-name="uni0233" unicode="&#x233;" horiz-adv-x="533" 
d="M535 538l-278 -733h-129l75 197l-206 536h151l122 -388l125 388h140zM423 746v-88h-313v88h313z" />
    <glyph glyph-name="zacute" unicode="&#x17a;" horiz-adv-x="512" 
d="M483 0h-456v109l283 320h-267v109h432v-109l-283 -320h291v-109zM299 755h157l-150 -116h-102z" />
    <glyph glyph-name="zcaron" unicode="&#x17e;" horiz-adv-x="512" 
d="M483 0h-456v109l283 320h-267v109h432v-109l-283 -320h291v-109zM324 639h-99l-147 116h121l76 -44l76 44h121z" />
    <glyph glyph-name="zdotaccent" unicode="&#x17c;" horiz-adv-x="512" 
d="M483 0h-456v109l283 320h-267v109h432v-109l-283 -320h291v-109zM208 639v116h115v-116h-115z" />
    <glyph glyph-name="uni0259" unicode="&#x259;" horiz-adv-x="563" 
d="M396 304q-7 65 -50 101t-115 36q-82 0 -164 -44v116q32 16 81 27.5t107 11.5q90 0 153 -38t94 -102t31 -144q0 -79 -33 -143.5t-92 -101t-135 -36.5q-123 0 -185 85t-60 232h368zM400 216h-238q3 -67 35 -97.5t81 -30.5q48 0 83.5 29t38.5 99z" />
    <glyph glyph-name="uni0410" unicode="&#x410;" horiz-adv-x="677" 
d="M681 0h-155l-65 187h-254l-65 -187h-146l270 725h144zM334 549l-86 -245h172z" />
    <glyph glyph-name="uni0411" unicode="&#x411;" horiz-adv-x="635" 
d="M213 609v-161h123q132 0 203.5 -50t71.5 -168q0 -230 -282 -230h-259v725h476v-116h-333zM335 116q63 0 96.5 28t33.5 82q0 56 -33 81t-99 25h-120v-216h122z" />
    <glyph glyph-name="uni0412" unicode="&#x412;" horiz-adv-x="645" 
d="M70 0v725h252q113 0 188.5 -43t75.5 -146q0 -47 -25 -89.5t-57 -63.5q49 -23 78.5 -62t29.5 -107q0 -111 -77.5 -162.5t-200.5 -51.5h-264zM213 607v-182h118q51 0 79.5 24t28.5 67t-28.5 67t-79.5 24h-118zM213 319v-201h128q62 0 93.5 25.5t31.5 74.5q0 101 -131 101
h-122z" />
    <glyph glyph-name="uni0413" unicode="&#x413;" horiz-adv-x="563" 
d="M70 725h473v-116h-330v-609h-143v725z" />
    <glyph glyph-name="uni0414" unicode="&#x414;" horiz-adv-x="779" 
d="M751 116v-273h-133v157h-469v-157h-133v273h58q37 34 53 112t21 225l9 272h514v-609h80zM528 116v493h-241l-5 -160q-9 -266 -56 -333h302z" />
    <glyph glyph-name="uni0415" unicode="&#x415;" horiz-adv-x="583" 
d="M538 0h-468v725h468v-116h-325v-180h304v-116h-304v-197h325v-116z" />
    <glyph glyph-name="uni0401" unicode="&#x401;" horiz-adv-x="583" 
d="M538 0h-468v725h468v-116h-325v-180h304v-116h-304v-197h325v-116zM136 773v113h115v-113h-115zM376 773v113h115v-113h-115z" />
    <glyph glyph-name="uni0416" unicode="&#x416;" horiz-adv-x="1001" 
d="M431 375v350h143v-350l256 350h164l-274 -363l293 -362h-180l-259 312v-312h-143v312l-259 -312h-179l291 349l-285 376h176z" />
    <glyph glyph-name="uni0417" unicode="&#x417;" horiz-adv-x="597" 
d="M42 29v131q103 -50 213 -50q80 0 120 28t40 81q0 47 -32.5 71.5t-97.5 24.5h-112v116h104q56 0 90 23t34 68q0 46 -35.5 69.5t-103.5 23.5q-109 0 -207 -46v130q107 39 219 39q128 0 197.5 -50.5t69.5 -146.5q0 -56 -25.5 -93.5t-72.5 -62.5q60 -22 90 -62.5t30 -110.5
q0 -112 -82 -168.5t-209 -56.5q-136 0 -230 42z" />
    <glyph glyph-name="uni0418" unicode="&#x418;" horiz-adv-x="756" 
d="M208 197l340 528h138v-725h-138v528l-340 -528h-138v725h138v-528z" />
    <glyph glyph-name="uni0419" unicode="&#x419;" horiz-adv-x="756" 
d="M208 197l340 528h138v-725h-138v528l-340 -528h-138v725h138v-528zM547 886q-6 -60 -49 -88.5t-122 -28.5q-159 0 -168 117h97q3 -24 20 -35t52 -11t52.5 11t20.5 35h97z" />
    <glyph glyph-name="uni041A" unicode="&#x41a;" horiz-adv-x="660" 
d="M70 725h143v-351l281 351h157l-294 -361l323 -364h-185l-282 315v-315h-143v725z" />
    <glyph glyph-name="uni041B" unicode="&#x41b;" horiz-adv-x="729" 
d="M659 0h-143v609h-231l-8 -265q-3 -113 -22 -189.5t-65 -120.5t-126 -44q-26 0 -48 10v132q13 -7 41 -7q46 0 64.5 56t21.5 165l12 379h504v-725z" />
    <glyph glyph-name="uni041C" unicode="&#x41c;" horiz-adv-x="865" 
d="M662 545l-158 -375h-142l-159 375v-545h-133v725h188l176 -425l171 425h190v-725h-133v545z" />
    <glyph glyph-name="uni041D" unicode="&#x41d;" horiz-adv-x="751" 
d="M538 429v296h143v-725h-143v313h-325v-313h-143v725h143v-296h325z" />
    <glyph glyph-name="uni041E" unicode="&#x41e;" horiz-adv-x="780" 
d="M390 -13q-107 0 -187.5 47t-124 132t-43.5 197t43.5 197t124 131.5t187.5 46.5t187.5 -46.5t124 -131.5t43.5 -197t-43.5 -197t-124 -132t-187.5 -47zM390 101q57 0 104.5 30.5t75 90t27.5 141.5t-27.5 141t-74.5 89.5t-105 30.5t-105 -30.5t-74.5 -89.5t-27.5 -141
t27.5 -141.5t75 -90t104.5 -30.5z" />
    <glyph glyph-name="uni041F" unicode="&#x41f;" horiz-adv-x="741" 
d="M671 725v-725h-143v609h-315v-609h-143v725h601z" />
    <glyph glyph-name="uni0420" unicode="&#x420;" horiz-adv-x="628" 
d="M288 725q92 0 160 -15.5t113.5 -66t45.5 -148.5q0 -128 -86 -179t-229 -51h-79v-265h-143v725h218zM213 609v-228h88q69 0 114 22t45 92t-46.5 92t-122.5 22h-78z" />
    <glyph glyph-name="uni0421" unicode="&#x421;" horiz-adv-x="643" 
d="M412 110q53 0 98 12.5t93 36.5v-131q-42 -18 -96.5 -29.5t-108.5 -11.5q-111 0 -193 48t-126 133t-44 194q0 123 52 208t135 126.5t177 41.5q55 0 110.5 -9t93.5 -28v-131q-93 45 -191 45q-60 0 -112 -26.5t-84.5 -83.5t-32.5 -143t32 -143t84 -83t113 -26z" />
    <glyph glyph-name="uni0422" unicode="&#x422;" horiz-adv-x="631" 
d="M387 0h-143v609h-224v116h591v-116h-224v-609z" />
    <glyph glyph-name="uni0423" unicode="&#x423;" horiz-adv-x="657" 
d="M97 -2v115q33 -15 73 -15q60 0 92 50l7 11l-265 566h156l182 -418l163 418h157l-255 -581q-28 -64 -59.5 -99.5t-68.5 -49t-88 -13.5q-52 0 -94 16z" />
    <glyph glyph-name="uni0424" unicode="&#x424;" horiz-adv-x="880" 
d="M510 667q166 -11 253 -89.5t87 -207.5q0 -131 -87.5 -211.5t-252.5 -91.5v-87h-140v87q-166 10 -253 90.5t-87 212.5q0 129 87 208t253 89v78h140v-78zM370 554q-93 -3 -142.5 -51.5t-49.5 -132.5q0 -86 49.5 -136.5t142.5 -53.5v374zM510 180q91 4 141.5 54.5
t50.5 135.5q0 83 -50 131.5t-142 52.5v-374z" />
    <glyph glyph-name="uni0425" unicode="&#x425;" horiz-adv-x="681" 
d="M152 0h-161l266 371l-249 354h172l164 -233l167 233h162l-249 -347l266 -378h-172l-181 257z" />
    <glyph glyph-name="uni0426" unicode="&#x426;" horiz-adv-x="779" 
d="M671 116h80v-273h-133v157h-548v725h143v-609h315v609h143v-609z" />
    <glyph glyph-name="uni0427" unicode="&#x427;" horiz-adv-x="681" 
d="M611 725v-725h-143v281q-50 -13 -162 -13q-138 0 -202.5 62.5t-64.5 193.5v201h143v-188q0 -84 33 -118.5t117 -34.5q83 0 136 13v328h143z" />
    <glyph glyph-name="uni0428" unicode="&#x428;" horiz-adv-x="1009" 
d="M939 725v-725h-869v725h143v-609h220v609h143v-609h220v609h143z" />
    <glyph glyph-name="uni0429" unicode="&#x429;" horiz-adv-x="1047" 
d="M939 116h80v-273h-133v157h-816v725h143v-609h220v609h143v-609h220v609h143v-609z" />
    <glyph glyph-name="uni042A" unicode="&#x42a;" horiz-adv-x="720" 
d="M169 0v609h-157v116h300v-251h65q154 0 237.5 -51.5t83.5 -185.5t-83.5 -185.5t-237.5 -51.5h-208zM387 116q76 0 120 27.5t44 93.5q0 67 -44 94t-120 27h-75v-242h75z" />
    <glyph glyph-name="uni042B" unicode="&#x42b;" horiz-adv-x="902" 
d="M70 0v725h143v-251h81q149 0 230 -51.5t81 -185.5t-81 -185.5t-230 -51.5h-224zM832 725v-725h-143v725h143zM304 116q71 0 112.5 27.5t41.5 93.5q0 67 -41.5 94t-112.5 27h-91v-242h91z" />
    <glyph glyph-name="uni042C" unicode="&#x42c;" horiz-adv-x="631" 
d="M70 0v725h143v-251h75q154 0 237.5 -51.5t83.5 -185.5t-83.5 -185.5t-237.5 -51.5h-218zM298 116q76 0 120 27.5t44 93.5q0 67 -44 94t-120 27h-85v-242h85z" />
    <glyph glyph-name="uni042D" unicode="&#x42d;" horiz-adv-x="653" 
d="M618 361q0 -112 -46.5 -196.5t-133 -131t-202.5 -46.5q-96 0 -201 41v131q106 -51 195 -51q102 0 163 49.5t74 149.5h-306v116h305q-14 97 -73.5 144.5t-158.5 47.5q-54 0 -99 -12t-89 -34v132q86 37 194 37q116 0 201 -45.5t131 -130.5t46 -201z" />
    <glyph glyph-name="uni042E" unicode="&#x42e;" horiz-adv-x="1039" 
d="M1004 363q0 -113 -42.5 -198t-120.5 -131.5t-182 -46.5q-97 0 -171.5 40.5t-119 114t-52.5 171.5h-103v-313h-143v725h143v-296h105q12 94 57 164t118 107.5t166 37.5q104 0 182 -46.5t120.5 -131.5t42.5 -197zM856 363q0 70 -22 129.5t-66 95.5t-109 36t-109 -36
t-66 -95.5t-22 -129.5t22 -130t66 -96t109 -36t109 36t66 96t22 130z" />
    <glyph glyph-name="uni042F" unicode="&#x42f;" horiz-adv-x="662" 
d="M592 0h-143v268h-96l-178 -268h-159l199 293q-79 19 -118.5 72.5t-39.5 132.5q0 126 82 176.5t230 50.5h223v-725zM364 609q-78 0 -119 -23.5t-41 -89.5t41 -89t119 -23h85v225h-85z" />
    <glyph glyph-name="uni0402" unicode="&#x402;" horiz-adv-x="806" 
d="M362 0h-143v609h-209v116h591v-116h-239v-189q68 18 159 18q121 0 188 -65.5t67 -188.5q0 -115 -69.5 -198.5t-207.5 -141.5l-52 113q86 35 135.5 91t49.5 129q0 71 -35 108t-106 37q-59 0 -129 -18v-304z" />
    <glyph glyph-name="uni0403" unicode="&#x403;" horiz-adv-x="563" 
d="M70 725h473v-116h-330v-609h-143v725zM348 886h169l-159 -113h-113z" />
    <glyph glyph-name="uni0404" unicode="&#x404;" horiz-adv-x="658" 
d="M187 423h305v-116h-306q13 -100 74 -149.5t163 -49.5q108 0 195 46v-131q-84 -36 -201 -36q-120 0 -206 46t-131 130.5t-45 197.5q0 116 47 201t135.5 130.5t209.5 45.5q104 0 191 -37v-132q-43 22 -87 34t-98 12q-105 0 -168 -47.5t-78 -144.5z" />
    <glyph glyph-name="uni0405" unicode="&#x405;" horiz-adv-x="568" 
d="M50 24v138q93 -51 198 -51q62 0 103.5 22.5t41.5 69.5q0 36 -30 57t-87 39l-56 17q-90 28 -136.5 83t-46.5 125q0 64 37 112.5t102 75t147 26.5q45 0 94 -7.5t80 -20.5v-129q-35 15 -82.5 24t-91.5 9q-64 0 -105 -21t-41 -59q0 -60 113 -94l56 -17q95 -29 145 -77.5
t50 -136.5q0 -62 -37.5 -113t-102.5 -80t-146 -29q-114 0 -205 37z" />
    <glyph glyph-name="uni0406" unicode="&#x406;" horiz-adv-x="459" 
d="M421 116v-116h-383v116h120v493h-120v116h383v-116h-120v-493h120z" />
    <glyph glyph-name="uni0407" unicode="&#x407;" horiz-adv-x="459" 
d="M421 116v-116h-383v116h120v493h-120v116h383v-116h-120v-493h120zM52 773v113h115v-113h-115zM292 773v113h115v-113h-115z" />
    <glyph glyph-name="uni0408" unicode="&#x408;" horiz-adv-x="394" 
d="M22 1l16 126q43 -16 78 -16q41 0 55 27t14 88v383h-128v116h271v-505q0 -233 -196 -233q-54 0 -110 14z" />
    <glyph glyph-name="uni0409" unicode="&#x409;" horiz-adv-x="1040" 
d="M155 725h479v-256h66q152 0 235 -52t83 -183t-83 -182.5t-235 -51.5h-209v609h-206l-8 -265q-3 -113 -22 -189.5t-65 -120.5t-127 -44q-25 0 -47 10v132q13 -7 41 -7q46 0 64.5 56t21.5 165zM704 116q80 0 124.5 25.5t44.5 92.5t-45 93t-124 26h-70v-237h70z" />
    <glyph glyph-name="uni040A" unicode="&#x40a;" horiz-adv-x="1077" 
d="M737 469q152 0 235 -52t83 -183t-83 -182.5t-235 -51.5h-217v353h-307v-353h-143v725h143v-256h307v256h143v-256h74zM741 116q80 0 124.5 25.5t44.5 92.5t-45 93t-124 26h-78v-237h78z" />
    <glyph glyph-name="uni040B" unicode="&#x40b;" horiz-adv-x="799" 
d="M761 192v-192h-143v179q0 75 -31 109t-101 34q-28 0 -62 -5t-62 -13v-304h-143v609h-209v116h592v-116h-240v-189q72 18 132 18q137 0 202 -61t65 -185z" />
    <glyph glyph-name="uni040C" unicode="&#x40c;" horiz-adv-x="660" 
d="M70 725h143v-351l281 351h157l-294 -361l323 -364h-185l-282 315v-315h-143v725zM385 886h169l-159 -113h-113z" />
    <glyph glyph-name="uni040E" unicode="&#x40e;" horiz-adv-x="657" 
d="M97 -2v115q33 -15 73 -15q60 0 92 50l7 11l-265 566h156l182 -418l163 418h157l-255 -581q-28 -64 -59.5 -99.5t-68.5 -49t-88 -13.5q-52 0 -94 16zM502 886q-6 -60 -49 -88.5t-122 -28.5q-159 0 -168 117h97q3 -24 20 -35t52 -11t52.5 11t20.5 35h97z" />
    <glyph glyph-name="uni040F" unicode="&#x40f;" horiz-adv-x="741" 
d="M671 0h-234v-157h-133v157h-234v725h143v-609h315v609h143v-725z" />
    <glyph glyph-name="uni0490" unicode="&#x490;" horiz-adv-x="563" 
d="M543 882v-273h-330v-609h-143v725h340v157h133z" />
    <glyph glyph-name="uni0462" unicode="&#x462;" horiz-adv-x="723" 
d="M379 438q153 0 237.5 -48.5t84.5 -170.5t-84.5 -170.5t-237.5 -48.5h-217v532h-143v110h143v83h143v-83h200v-110h-200v-94h74zM394 116q80 0 120 22t40 81t-40 81t-120 22h-89v-206h89z" />
    <glyph glyph-name="uni0472" unicode="&#x472;" horiz-adv-x="780" 
d="M745 363q0 -112 -43.5 -197t-124 -132t-187.5 -47t-187.5 47t-124 132t-43.5 197t43.5 197t124 131.5t187.5 46.5t187.5 -46.5t124 -131.5t43.5 -197zM188 432q40 26 94 26q37 0 67.5 -9t69.5 -26q33 -14 53.5 -20.5t41.5 -6.5q28 0 48 11t29 30q-16 92 -70.5 139.5
t-130.5 47.5q-77 0 -132 -48.5t-70 -143.5zM594 309q-40 -28 -96 -28q-37 0 -68 9t-71 26q-33 14 -53.5 20.5t-42.5 6.5q-27 0 -47 -10.5t-29 -29.5q14 -100 69 -151t134 -51q80 0 136 52.5t68 155.5z" />
    <glyph glyph-name="uni0474" unicode="&#x474;" horiz-adv-x="718" 
d="M570 505l-174 -505h-146l-252 725h155l173 -546l109 355q33 107 79 154t126 47q17 0 33.5 -3t25.5 -7v-135q-20 10 -45 10q-33 0 -49 -20.5t-35 -74.5z" />
    <glyph glyph-name="uni0492" unicode="&#x492;" horiz-adv-x="598" 
d="M577 609h-330v-185h175v-116h-175v-308h-143v308h-86v116h86v301h473v-116z" />
    <glyph glyph-name="uni0496" unicode="&#x496;" horiz-adv-x="1015" 
d="M884 -157v157h-51l-259 312v-312h-143v312l-259 -312h-179l291 349l-285 376h176l256 -350v350h143v-350l256 350h164l-274 -363l199 -246h101v-273h-136z" />
    <glyph glyph-name="uni049A" unicode="&#x49a;" horiz-adv-x="671" 
d="M70 725h143v-351l281 351h157l-294 -361l220 -248h101v-273h-136v157h-47l-282 315v-315h-143v725z" />
    <glyph glyph-name="uni04A2" unicode="&#x4a2;" horiz-adv-x="789" 
d="M681 116h80v-273h-133v157h-90v313h-325v-313h-143v725h143v-296h325v296h143v-609z" />
    <glyph glyph-name="uni04AE" unicode="&#x4ae;" horiz-adv-x="657" 
d="M256 282l-261 443h167l169 -303l172 303h163l-267 -445v-280h-143v282z" />
    <glyph glyph-name="uni04B0" unicode="&#x4b0;" horiz-adv-x="656" 
d="M503 725h163l-267 -445h152v-116h-152v-164h-143v164h-152v116h152l-261 445h167l169 -303z" />
    <glyph glyph-name="uni04B2" unicode="&#x4b2;" horiz-adv-x="698" 
d="M152 0h-161l266 371l-249 354h172l164 -233l167 233h162l-249 -347l184 -262h101v-273h-133v157h-58l-181 257z" />
    <glyph glyph-name="uni04B6" unicode="&#x4b6;" horiz-adv-x="719" 
d="M691 116v-273h-133v157h-90v283q-70 -15 -162 -15q-138 0 -202.5 62.5t-64.5 193.5v201h143v-188q0 -84 33 -118.5t117 -34.5q83 0 136 13v328h143v-609h80z" />
    <glyph glyph-name="uni04BA" unicode="&#x4ba;" horiz-adv-x="682" 
d="M70 0v725h143v-276q70 18 162 18q138 0 202.5 -62.5t64.5 -193.5v-211h-143v198q0 84 -33 118.5t-117 34.5q-28 0 -65.5 -5t-70.5 -13v-333h-143z" />
    <glyph glyph-name="uni04C0" unicode="&#x4c0;" horiz-adv-x="449" 
d="M417 116v-116h-383v116h120v493h-120v116h383v-116h-120v-493h120z" />
    <glyph glyph-name="uni04D8" unicode="&#x4d8;" horiz-adv-x="761" 
d="M33 368q0 17 2 51h537q-15 101 -84 145.5t-174 44.5q-59 0 -116.5 -13t-101.5 -35v134q111 42 246 42q114 0 201 -46t135 -131.5t48 -200.5q0 -111 -45 -195.5t-126 -130.5t-184 -46q-104 0 -180.5 47.5t-117 133.5t-40.5 200zM575 304h-385q2 -98 53.5 -150t134.5 -52
q80 0 137.5 48t59.5 154z" />
    <glyph glyph-name="uni04E2" unicode="&#x4e2;" horiz-adv-x="756" 
d="M208 197l340 528h138v-725h-138v528l-340 -528h-138v725h138v-528zM535 875v-92h-313v92h313z" />
    <glyph glyph-name="uni04E8" unicode="&#x4e8;" horiz-adv-x="780" 
d="M390 -13q-107 0 -187.5 47t-124 132t-43.5 197t43.5 197t124 131.5t187.5 46.5t187.5 -46.5t124 -131.5t43.5 -197t-43.5 -197t-124 -132t-187.5 -47zM188 429h404q-15 92 -70.5 143.5t-131.5 51.5t-131.5 -51.5t-70.5 -143.5zM595 320h-410q7 -68 35.5 -117.5t73 -75.5
t96.5 -26q53 0 97 25.5t72.5 75t35.5 118.5z" />
    <glyph glyph-name="uni04EE" unicode="&#x4ee;" horiz-adv-x="657" 
d="M97 -2v115q33 -15 73 -15q60 0 92 50l7 11l-265 566h156l182 -418l163 418h157l-255 -581q-28 -64 -59.5 -99.5t-68.5 -49t-88 -13.5q-52 0 -94 16zM495 875v-92h-313v92h313z" />
    <glyph glyph-name="uni0430" unicode="&#x430;" horiz-adv-x="556" 
d="M366 346q-6 54 -37 73t-87 19q-49 0 -92 -14.5t-75 -38.5v117q35 20 90.5 34t103.5 14q118 0 174.5 -52t56.5 -163v-33q-2 -70 -2 -124q0 -64 1.5 -97t5.5 -81h-125l-1 82q-24 -50 -66.5 -72.5t-109.5 -22.5q-47 0 -88 19.5t-66 56.5t-25 85q0 89 82.5 134.5t259.5 63.5z
M374 258v5q-111 -4 -163.5 -30t-52.5 -73q0 -35 22.5 -57t61.5 -22q56 0 94 44t38 133z" />
    <glyph glyph-name="uni0431" unicode="&#x431;" horiz-adv-x="612" 
d="M581 266q0 -89 -36 -152t-96.5 -95t-131.5 -32q-76 0 -137.5 34t-98 103t-36.5 168v44q0 122 29 203.5t97.5 130t184.5 62.5l36 4q103 11 142 24v-122q-27 -10 -69 -16.5t-107 -13.5q-91 -10 -136 -51t-49 -129q28 48 74.5 72.5t102.5 24.5q65 0 117.5 -30t83 -88.5
t30.5 -140.5zM441 256q0 78 -34.5 119.5t-92.5 41.5t-92.5 -41.5t-34.5 -119.5t34.5 -119.5t92.5 -41.5t92.5 41.5t34.5 119.5z" />
    <glyph glyph-name="uni0432" unicode="&#x432;" horiz-adv-x="563" 
d="M309 538q96 0 149.5 -33.5t53.5 -106.5q0 -38 -17.5 -66.5t-50.5 -44.5q42 -14 66 -44t24 -79q0 -85 -56.5 -124.5t-155.5 -39.5h-260v538h247zM294 324q82 0 82 55t-83 55h-93v-110h94zM200 228v-124h113q85 0 85 62t-85 62h-113z" />
    <glyph glyph-name="uni0433" unicode="&#x433;" horiz-adv-x="467" 
d="M443 538v-109h-243v-429h-138v538h381z" />
    <glyph glyph-name="uni0434" unicode="&#x434;" horiz-adv-x="653" 
d="M629 109v-253h-131v144h-348v-144h-131v253h56q20 39 31 89t15 141l10 199h428v-429h70zM421 109v320h-169l-5 -92q-8 -155 -35 -228h209z" />
    <glyph glyph-name="uni0435" unicode="&#x435;" horiz-adv-x="563" 
d="M167 235q7 -65 50 -101t115 -36q82 0 164 44v-116q-32 -16 -81 -27.5t-107 -11.5q-90 0 -153 38t-94 102t-31 144q0 79 33 143.5t92 101t135 36.5q123 0 185 -85t60 -232h-368zM163 323h238q-3 67 -35 97.5t-81 30.5q-48 0 -83.5 -29t-38.5 -99z" />
    <glyph glyph-name="uni0451" unicode="&#x451;" horiz-adv-x="563" 
d="M167 235q7 -65 50 -101t115 -36q82 0 164 44v-116q-32 -16 -81 -27.5t-107 -11.5q-90 0 -153 38t-94 102t-31 144q0 79 33 143.5t92 101t135 36.5q123 0 185 -85t60 -232h-368zM163 323h238q-3 67 -35 97.5t-81 30.5q-48 0 -83.5 -29t-38.5 -99zM236 639h-115v116h115
v-116zM355 639v116h115v-116h-115z" />
    <glyph glyph-name="uni0436" unicode="&#x436;" horiz-adv-x="836" 
d="M351 538h138v-243l179 243h157l-200 -260l221 -278h-172l-185 240v-240h-138v240l-185 -240h-172l217 269l-206 269h167l179 -243v243z" />
    <glyph glyph-name="uni0437" unicode="&#x437;" horiz-adv-x="488" 
d="M30 20v123q83 -43 174 -43q53 0 85.5 18t32.5 52q0 53 -90 53h-96v103h86q38 0 60.5 15t22.5 46q0 27 -27 42t-70 15q-92 0 -166 -38v116q72 31 172 31q98 0 162 -40t64 -116q0 -38 -22 -67t-60 -44q45 -13 73 -44t28 -81q0 -87 -68.5 -130.5t-181.5 -43.5q-99 0 -179 33
z" />
    <glyph glyph-name="uni0438" unicode="&#x438;" horiz-adv-x="604" 
d="M542 538v-538h-136v348l-213 -348h-131v538h136v-348l213 348h131z" />
    <glyph glyph-name="uni0439" unicode="&#x439;" horiz-adv-x="604" 
d="M542 538v-538h-136v348l-213 -348h-131v538h136v-348l213 348h131zM134 755h97q7 -52 72 -52q67 0 73 52h97q-6 -57 -48 -90.5t-123 -33.5q-80 0 -121.5 34t-46.5 90z" />
    <glyph glyph-name="uni043A" unicode="&#x43a;" horiz-adv-x="552" 
d="M62 0v538h138v-243l189 243h157l-207 -260l229 -278h-172l-196 240v-240h-138z" />
    <glyph glyph-name="uni043B" unicode="&#x43b;" horiz-adv-x="596" 
d="M17 0v123q18 -5 31 -5q32 0 47 42t19 126l12 252h408v-538h-138v429h-149l-7 -142q-8 -152 -46 -224.5t-121 -72.5q-31 0 -56 10z" />
    <glyph glyph-name="uni043C" unicode="&#x43c;" horiz-adv-x="758" 
d="M383 271l122 267h191v-538h-138v406l-130 -281h-99l-129 277v-402h-138v538h195z" />
    <glyph glyph-name="uni043D" unicode="&#x43d;" horiz-adv-x="594" 
d="M532 538v-538h-138v221h-194v-221h-138v538h138v-208h194v208h138z" />
    <glyph glyph-name="uni043E" unicode="&#x43e;" horiz-adv-x="594" 
d="M297 550q72 0 133 -32t97.5 -95.5t36.5 -154.5t-36.5 -154.5t-97.5 -95t-133 -31.5t-133 31.5t-97.5 95t-36.5 154.5t36.5 154.5t97.5 95.5t133 32zM297 95q60 0 93.5 45t33.5 128q0 84 -33.5 129t-93.5 45t-93.5 -45t-33.5 -129q0 -83 33.5 -128t93.5 -45z" />
    <glyph glyph-name="uni043F" unicode="&#x43f;" horiz-adv-x="589" 
d="M62 538h465v-538h-138v429h-189v-429h-138v538z" />
    <glyph glyph-name="uni0440" unicode="&#x440;" horiz-adv-x="617" 
d="M62 538h138v-69q22 38 63 59.5t92 21.5q67 0 119.5 -35t82 -99t29.5 -147q0 -84 -30 -148t-83 -99t-119 -35q-46 0 -88 20t-66 61v-263h-138v733zM321 93q56 0 88 47.5t32 127.5t-32 128t-88 48q-57 0 -91.5 -47t-34.5 -128q0 -82 34.5 -129t91.5 -47z" />
    <glyph glyph-name="uni0441" unicode="&#x441;" horiz-adv-x="466" 
d="M324 98q54 0 110 25v-113q-22 -9 -59 -16t-66 -7q-89 0 -152.5 38t-95.5 102t-32 141t32.5 141.5t96 102.5t151.5 38q32 0 64.5 -4t50.5 -13v-113q-43 19 -100 19q-70 0 -112.5 -43.5t-42.5 -127.5t42.5 -127t112.5 -43z" />
    <glyph glyph-name="uni0442" unicode="&#x442;" horiz-adv-x="516" 
d="M492 538v-109h-165v-429h-138v429h-165v109h468z" />
    <glyph glyph-name="uni0443" unicode="&#x443;" horiz-adv-x="533" 
d="M535 538l-278 -733h-129l75 197l-206 536h151l122 -388l125 388h140z" />
    <glyph glyph-name="uni0444" unicode="&#x444;" horiz-adv-x="770" 
d="M450 546q131 -10 210 -78t79 -202q0 -256 -289 -277v-184h-130v184q-289 21 -289 277q0 134 79 202t210 78v209h130v-209zM320 439q-73 -8 -111 -47.5t-38 -125.5q0 -88 37 -125.5t112 -44.5v343zM450 96q75 7 112 44.5t37 125.5q0 86 -38 125.5t-111 47.5v-343z" />
    <glyph glyph-name="uni0445" unicode="&#x445;" horiz-adv-x="534" 
d="M388 538h141l-189 -257l198 -281h-155l-122 173l-126 -173h-140l198 271l-187 267h154l112 -159z" />
    <glyph glyph-name="uni0446" unicode="&#x446;" horiz-adv-x="621" 
d="M527 538v-429h70v-253h-131v144h-404v538h138v-429h189v429h138z" />
    <glyph glyph-name="uni0447" unicode="&#x447;" horiz-adv-x="557" 
d="M495 0h-138v204q-60 -12 -122 -12q-104 0 -154 48.5t-50 145.5v152h138v-146q0 -90 91 -90q30 0 51.5 2t45.5 8v226h138v-538z" />
    <glyph glyph-name="uni0448" unicode="&#x448;" horiz-adv-x="870" 
d="M670 538h138v-538h-746v538h138v-429h166v429h138v-429h166v429z" />
    <glyph glyph-name="uni0449" unicode="&#x449;" horiz-adv-x="902" 
d="M808 109h70v-253h-131v144h-685v538h138v-429h166v429h138v-429h166v429h138v-429z" />
    <glyph glyph-name="uni044A" unicode="&#x44a;" horiz-adv-x="619" 
d="M369 363q115 0 171.5 -44.5t56.5 -136.5q0 -99 -55.5 -140.5t-167.5 -41.5h-238v429h-122v109h260v-175h95zM363 109q49 0 72.5 17.5t23.5 55.5t-23.5 55t-73.5 17h-88v-145h89z" />
    <glyph glyph-name="uni044B" unicode="&#x44b;" horiz-adv-x="779" 
d="M62 0v538h138v-175h95q115 0 171.5 -44.5t56.5 -136.5q0 -99 -55.5 -140.5t-167.5 -41.5h-238zM717 538v-538h-138v538h138zM200 254v-145h89q49 0 72.5 17.5t23.5 55.5t-23.5 55t-73.5 17h-88z" />
    <glyph glyph-name="uni044C" unicode="&#x44c;" horiz-adv-x="545" 
d="M295 363q115 0 171.5 -44.5t56.5 -136.5q0 -99 -55.5 -140.5t-167.5 -41.5h-238v538h138v-175h95zM289 109q49 0 72.5 17.5t23.5 55.5t-23.5 55t-73.5 17h-88v-145h89z" />
    <glyph glyph-name="uni044D" unicode="&#x44d;" horiz-adv-x="483" 
d="M454 270q0 -84 -36.5 -148.5t-102 -99.5t-149.5 -35q-85 0 -132 22v119q58 -29 121 -29q61 0 105.5 28.5t57.5 93.5h-177v109h174q-15 58 -56 83.5t-96 25.5q-72 0 -124 -33v120q23 11 56.5 17.5t72.5 6.5q84 0 149 -35t101 -98.5t36 -146.5z" />
    <glyph glyph-name="uni044E" unicode="&#x44e;" horiz-adv-x="831" 
d="M800 268q0 -91 -36 -154.5t-95.5 -95t-130.5 -31.5q-64 0 -119.5 26.5t-93 79t-46.5 128.5h-79v-221h-138v538h138v-208h81q12 71 49.5 120.5t91.5 74.5t116 25q71 0 130.5 -32t95.5 -95.5t36 -154.5zM660 268q0 84 -32 129t-90 45t-90 -45t-32 -129q0 -83 32 -128
t90 -45t90 45t32 128z" />
    <glyph glyph-name="uni044F" unicode="&#x44f;" horiz-adv-x="570" 
d="M508 538v-538h-139v176h-86l-117 -176h-153l143 211q-47 17 -75.5 54.5t-28.5 97.5q0 82 55 128.5t160 46.5h241zM278 429q-41 0 -63.5 -19t-22.5 -54t23.5 -53t65.5 -18h88v144h-91z" />
    <glyph glyph-name="uni0452" unicode="&#x452;" horiz-adv-x="598" 
d="M542 86q0 -151 -44 -221.5t-148 -70.5h-26t-22 5v104q0 1 2 1q3 0 12 -3t17 -3q39 0 55 42t16 135v218q0 72 -18 109t-76 37q-110 0 -110 -157v-282h-138v592h-84v90h84v73h138v-73h137v-90h-137v-125q22 38 62.5 60.5t93.5 22.5q94 0 140 -54.5t46 -156.5v-253z" />
    <glyph glyph-name="uni0453" unicode="&#x453;" horiz-adv-x="467" 
d="M443 538v-109h-243v-429h-138v538h381zM291 755h157l-150 -116h-102z" />
    <glyph glyph-name="uni0454" unicode="&#x454;" horiz-adv-x="480" 
d="M449 128v-119q-45 -22 -132 -22q-84 0 -149.5 35t-102 99.5t-36.5 148.5q0 83 36.5 146.5t103 98.5t152.5 35q72 0 118 -17v-117q-42 23 -110 23q-58 0 -102 -25.5t-59 -83.5h194v-109h-197q13 -65 57.5 -93.5t105.5 -28.5q34 0 66.5 8t54.5 21z" />
    <glyph glyph-name="uni0455" unicode="&#x455;" horiz-adv-x="455" 
d="M40 14v122q35 -17 72.5 -27.5t85.5 -10.5q47 0 72 14.5t25 39.5q0 21 -16 35.5t-59 27.5l-43 13q-75 23 -108 66t-33 97q0 75 61.5 117t152.5 42q74 0 146 -24v-116q-30 12 -67.5 20t-73.5 8q-42 0 -66 -11t-24 -34q0 -18 16 -32.5t56 -26.5l43 -13q77 -23 114 -61
t37 -103q0 -47 -27.5 -86t-77 -61.5t-112.5 -22.5q-54 0 -99 7.5t-75 19.5z" />
    <glyph glyph-name="uni0456" unicode="&#x456;" horiz-adv-x="262" 
d="M62 627v128h138v-128h-138zM62 0v538h138v-538h-138z" />
    <glyph glyph-name="uni0457" unicode="&#x457;" horiz-adv-x="262" 
d="M12 627v128h108v-128h-108zM142 627v128h108v-128h-108zM200 0h-138v538h138v-538z" />
    <glyph glyph-name="uni0458" unicode="&#x458;" horiz-adv-x="300" 
d="M100 627v128h138v-128h-138zM9 -200v107q24 -7 47 -7t33.5 14.5t10.5 47.5v481h-82v95h220v-562q0 -93 -35.5 -137.5t-116.5 -44.5q-43 0 -77 6z" />
    <glyph glyph-name="uni0459" unicode="&#x459;" horiz-adv-x="862" 
d="M126 538h401v-175h85q115 0 171.5 -44.5t56.5 -136.5q0 -99 -55.5 -140.5t-167.5 -41.5h-228v429h-142l-7 -142q-8 -152 -46 -224.5t-121 -72.5q-31 0 -56 10v123q13 -5 33 -5q30 0 45 42.5t19 125.5zM606 109q49 0 72.5 17.5t23.5 55.5t-23.5 55t-73.5 17h-78v-145h79z
" />
    <glyph glyph-name="uni045A" unicode="&#x45a;" horiz-adv-x="880" 
d="M631 353q228 0 228 -177q0 -94 -56 -135t-167 -41h-228v244h-208v-244h-138v538h138v-185h208v185h138v-185h85zM625 109q49 0 72.5 16t23.5 51q0 36 -23.5 52t-73.5 16h-78v-135h79z" />
    <glyph glyph-name="uni045B" unicode="&#x45b;" horiz-adv-x="599" 
d="M200 755v-73h137v-90h-137v-125q23 40 64.5 61.5t91.5 21.5q94 0 140 -54.5t46 -156.5v-339h-138v309q0 61 -19.5 95.5t-73.5 34.5q-63 0 -87 -43t-24 -116v-280h-138v592h-84v90h84v73h138z" />
    <glyph glyph-name="uni045C" unicode="&#x45c;" horiz-adv-x="552" 
d="M62 0v538h138v-243l189 243h157l-207 -260l229 -278h-172l-196 240v-240h-138zM326 755h157l-150 -116h-102z" />
    <glyph glyph-name="uni045E" unicode="&#x45e;" horiz-adv-x="533" 
d="M535 538l-278 -733h-129l75 197l-206 536h151l122 -388l125 388h140zM103 755h97q7 -52 72 -52q67 0 73 52h97q-6 -57 -48 -90.5t-123 -33.5q-80 0 -121.5 34t-46.5 90z" />
    <glyph glyph-name="uni045F" unicode="&#x45f;" horiz-adv-x="589" 
d="M527 538v-538h-167v-144h-131v144h-167v538h138v-429h189v429h138z" />
    <glyph glyph-name="uni0491" unicode="&#x491;" horiz-adv-x="467" 
d="M443 682v-253h-243v-429h-138v538h250v144h131z" />
    <glyph glyph-name="uni0463" unicode="&#x463;" horiz-adv-x="593" 
d="M351 363q113 0 165.5 -44.5t52.5 -136.5q0 -100 -51.5 -141t-161.5 -41h-250v438h-94v100h94v217h138v-217h150v-100h-150v-75h107zM335 109q49 0 72.5 17.5t23.5 55.5t-23.5 55t-73.5 17h-90v-145h91z" />
    <glyph glyph-name="uni0473" unicode="&#x473;" horiz-adv-x="594" 
d="M564 268q0 -91 -36.5 -154.5t-97.5 -95t-133 -31.5t-133 31.5t-97.5 95t-36.5 154.5t36.5 154.5t97.5 95.5t133 32t133 -32t97.5 -95.5t36.5 -154.5zM167 304q28 34 72 34q19 0 34 -6.5t37 -19.5q16 -11 27.5 -16t22.5 -5q46 0 65 30q-10 59 -43 90t-85 31
q-56 0 -89.5 -35.5t-40.5 -102.5zM424 213q-27 -27 -65 -27q-19 0 -35.5 7t-35.5 19q-18 11 -28.5 15.5t-21.5 4.5q-47 0 -66 -32q13 -51 45 -78t80 -27q51 0 84 30t43 88z" />
    <glyph glyph-name="uni0475" unicode="&#x475;" horiz-adv-x="573" 
d="M448 341l-116 -341h-145l-186 538h145l116 -398l74 253q24 83 59 119t101 36q36 0 56 -10v-126q-14 8 -36 8q-23 0 -38 -18t-30 -61z" />
    <glyph glyph-name="uni0493" unicode="&#x493;" horiz-adv-x="483" 
d="M459 429h-243v-116h139v-94h-139v-219h-138v219h-63v94h63v225h381v-109z" />
    <glyph glyph-name="uni0497" unicode="&#x497;" horiz-adv-x="851" 
d="M725 -144v144h-51l-185 240v-240h-138v240l-185 -240h-172l217 269l-206 269h167l179 -243v243h138v-243l179 243h157l-200 -260l136 -169h95v-253h-131z" />
    <glyph glyph-name="uni049B" unicode="&#x49b;" horiz-adv-x="565" 
d="M62 0v538h138v-243l189 243h157l-207 -260l141 -169h95v-253h-131v144h-48l-196 240v-240h-138z" />
    <glyph glyph-name="uni04A3" unicode="&#x4a3;" horiz-adv-x="626" 
d="M532 109h70v-253h-131v144h-77v221h-194v-221h-138v538h138v-208h194v208h138v-429z" />
    <glyph glyph-name="uni04AF" unicode="&#x4af;" horiz-adv-x="515" 
d="M328 0v-195h-138v195l-190 538h145l116 -398l116 398h137z" />
    <glyph glyph-name="uni04B1" unicode="&#x4b1;" horiz-adv-x="515" 
d="M328 -109v-86h-138v86h-103v109h103l-190 538h145l116 -398l116 398h137l-186 -538h103v-109h-103z" />
    <glyph glyph-name="uni04B3" unicode="&#x4b3;" horiz-adv-x="550" 
d="M461 109h95v-253h-131v144h-42l-122 173l-126 -173h-140l198 271l-187 267h154l112 -159l116 159h141l-189 -257z" />
    <glyph glyph-name="uni04B7" unicode="&#x4b7;" horiz-adv-x="589" 
d="M565 109v-253h-131v144h-77v204q-60 -12 -122 -12q-104 0 -154 48.5t-50 145.5v152h138v-146q0 -90 91 -90q30 0 51.5 2t45.5 8v226h138v-429h70z" />
    <glyph glyph-name="uni04BB" unicode="&#x4bb;" horiz-adv-x="599" 
d="M200 467q23 40 64.5 61.5t91.5 21.5q94 0 140 -54.5t46 -156.5v-339h-138v309q0 61 -19.5 95.5t-73.5 34.5q-63 0 -87 -43t-24 -116v-280h-138v755h138v-288z" />
    <glyph glyph-name="uni04CF" unicode="&#x4cf;" horiz-adv-x="262" 
d="M62 755h138v-755h-138v755z" />
    <glyph glyph-name="uni04D9" unicode="&#x4d9;" horiz-adv-x="563" 
d="M396 304q-7 65 -50 101t-115 36q-82 0 -164 -44v116q32 16 81 27.5t107 11.5q90 0 153 -38t94 -102t31 -144q0 -79 -33 -143.5t-92 -101t-135 -36.5q-123 0 -185 85t-60 232h368zM400 216h-238q3 -67 35 -97.5t81 -30.5q48 0 83.5 29t38.5 99z" />
    <glyph glyph-name="uni04E3" unicode="&#x4e3;" horiz-adv-x="604" 
d="M542 538v-538h-136v348l-213 -348h-131v538h136v-348l213 348h131zM459 746v-88h-313v88h313z" />
    <glyph glyph-name="uni04E9" unicode="&#x4e9;" horiz-adv-x="611" 
d="M581 270q0 -93 -37.5 -157t-100.5 -95t-138 -31q-76 0 -138 31t-99.5 95t-37.5 157t37.5 156.5t99.5 94.5t138 31q75 0 138 -31t100.5 -94.5t37.5 -156.5zM174 318h262q-9 63 -44 94t-87 31q-53 0 -87.5 -31t-43.5 -94zM174 222q9 -63 44 -95t87 -32t86.5 32t43.5 95
h-261z" />
    <glyph glyph-name="uni04EF" unicode="&#x4ef;" horiz-adv-x="533" 
d="M535 538l-278 -733h-129l75 197l-206 536h151l122 -388l125 388h140zM426 746v-88h-313v88h313z" />
    <glyph glyph-name="uni0414.aalt" horiz-adv-x="758" 
d="M682 116h66v-263h-133v147h-472v-147h-133v263h64l225 609h157zM219 116h313l-156 457z" />
    <glyph glyph-name="uni041B.aalt" horiz-adv-x="677" 
d="M681 0h-155l-190 550l-192 -550h-148l270 725h144z" />
    <glyph glyph-name="uni0432.aalt" horiz-adv-x="568" 
d="M538 226q0 -77 -33 -130.5t-90 -80.5t-128 -27q-107 0 -169 54t-62 160v329q0 119 62 174t170 55q101 0 161 -52t60 -148q0 -52 -22.5 -92t-67.5 -64q56 -19 87.5 -65t31.5 -113zM194 555v-113h88q47 0 70.5 28.5t23.5 79.5q0 104 -91 104q-44 0 -67.5 -25t-23.5 -74z
M398 227q0 58 -29.5 88.5t-84.5 30.5h-90v-145q0 -52 24 -79.5t71 -27.5q54 0 81.5 34t27.5 99z" />
    <glyph glyph-name="uni0433.aalt" horiz-adv-x="451" 
d="M21 150q0 68 40.5 106.5t130.5 66.5l25 8q37 12 56 27t19 35q0 23 -23.5 34t-61.5 11q-64 0 -144 -26v119q80 20 158 20q95 0 147.5 -40.5t52.5 -114.5q0 -61 -36 -100t-108 -64l-34 -12q-48 -17 -67.5 -31.5t-19.5 -35.5q0 -26 26 -40.5t73 -14.5q74 0 154 37v-120
q-31 -12 -76 -20t-93 -8q-101 0 -160 42.5t-59 120.5z" />
    <glyph glyph-name="uni0434.aalt" horiz-adv-x="615" 
d="M554 65q0 -144 -78.5 -207.5t-198.5 -63.5q-48 0 -97.5 9t-83.5 24v119q32 -19 78.5 -30t89.5 -11q72 0 112.5 34t40.5 107v44q-25 -41 -66.5 -61t-87.5 -20q-68 0 -120.5 34.5t-81.5 96t-29 140.5q0 78 29 139t81.5 96t120.5 35q50 0 93 -23t61 -59v70h137v-473z
M298 445q-55 0 -88 -47t-33 -119q0 -71 33 -118t88 -47q57 0 90.5 46t33.5 120t-33.5 119.5t-90.5 45.5z" />
    <glyph glyph-name="uni0436.aalt" horiz-adv-x="836" 
d="M351 755h138v-460l179 243h157l-200 -260l221 -278h-172l-185 240v-240h-138v240l-185 -240h-172l217 269l-206 269h167l179 -243v460z" />
    <glyph glyph-name="uni0437.aalt" horiz-adv-x="490" 
d="M14 -168v113q81 -43 174 -43q63 0 100 31t37 88q0 52 -31 80t-88 28h-84v109h78q52 0 80.5 26.5t28.5 75.5t-31 76t-90 27q-85 0 -162 -41v113q84 37 180 37q65 0 118 -22t84.5 -66t31.5 -108q0 -54 -23.5 -95.5t-69.5 -65.5q53 -20 84.5 -65.5t31.5 -106.5
q0 -72 -34 -123.5t-94 -78.5t-138 -27q-99 0 -183 38z" />
    <glyph glyph-name="uni0438.aalt" horiz-adv-x="595" 
d="M395 71q-23 -40 -65 -62t-92 -22q-181 0 -181 211v340h138v-310q0 -64 17.5 -97t70.5 -33q63 0 87.5 43.5t24.5 116.5v280h138v-538h-138v71z" />
    <glyph glyph-name="uni0439.aalt" horiz-adv-x="595" 
d="M395 71q-23 -40 -65 -62t-92 -22q-181 0 -181 211v340h138v-310q0 -64 17.5 -97t70.5 -33q63 0 87.5 43.5t24.5 116.5v280h138v-538h-138v71zM126 755h97q7 -52 72 -52q67 0 73 52h97q-6 -57 -48 -90.5t-123 -33.5q-80 0 -121.5 34t-46.5 90z" />
    <glyph glyph-name="uni043A.aalt" horiz-adv-x="552" 
d="M62 0v755h138v-460l189 243h157l-207 -260l229 -278h-172l-196 240v-240h-138z" />
    <glyph glyph-name="uni043B.aalt" horiz-adv-x="518" 
d="M517 0h-145l-113 392l-117 -392h-139l183 538h145z" />
    <glyph glyph-name="uni043F.aalt" horiz-adv-x="599" 
d="M200 467q23 40 64.5 61.5t91.5 21.5q94 0 140 -54.5t46 -156.5v-339h-138v309q0 61 -19.5 95.5t-73.5 34.5q-63 0 -87 -43t-24 -116v-280h-138v538h138v-71z" />
    <glyph glyph-name="uni0442.aalt" horiz-adv-x="919" 
d="M200 0h-138v538h138v-71q22 40 61.5 61.5t88.5 21.5q106 0 153 -88q32 45 74.5 66.5t102.5 21.5q97 0 139.5 -55t42.5 -156v-339h-138v313q0 58 -16 92t-70 34q-63 0 -85 -43t-22 -116v-280h-138v313q0 58 -16 92t-70 34q-63 0 -85 -43t-22 -116v-280z" />
    <glyph glyph-name="uni0446.aalt" horiz-adv-x="627" 
d="M603 -144h-131v144h-77v82q-21 -46 -61 -70.5t-96 -24.5q-181 0 -181 211v340h138v-310q0 -64 17.5 -97t70.5 -33q63 0 87.5 43.5t24.5 116.5v280h138v-429h70v-253z" />
    <glyph glyph-name="uni0448.aalt" horiz-adv-x="919" 
d="M857 538v-538h-138v71q-23 -40 -62 -62t-88 -22q-106 0 -153 88q-32 -45 -74.5 -66.5t-102.5 -21.5q-97 0 -139.5 55t-42.5 156v340h138v-314q0 -58 16 -92t70 -34q63 0 85 43t22 116v281h138v-314q0 -58 16 -92t70 -34q63 0 85 43t22 116v281h138z" />
    <glyph glyph-name="uni0449.aalt" horiz-adv-x="951" 
d="M796 -144v144h-75v82q-21 -46 -59 -70.5t-93 -24.5q-106 0 -153 88q-32 -45 -74.5 -66.5t-102.5 -21.5q-97 0 -139.5 55t-42.5 156v340h138v-314q0 -58 16 -92t70 -34q63 0 85 43t22 116v281h138v-314q0 -58 16 -92t70 -34q63 0 85 43t22 116v281h138v-429h70v-253h-131z
" />
    <glyph glyph-name="uni044E.aalt" horiz-adv-x="831" 
d="M800 268q0 -91 -36 -154.5t-95.5 -95t-130.5 -31.5q-64 0 -119.5 26.5t-93 79t-46.5 128.5h-79v-221h-138v755h138v-425h81q12 71 49.5 120.5t91.5 74.5t116 25q71 0 130.5 -32t95.5 -95.5t36 -154.5zM660 268q0 84 -32 129t-90 45t-90 -45t-32 -129q0 -83 32 -128
t90 -45t90 45t32 128z" />
    <glyph glyph-name="uni044C.aalt" horiz-adv-x="549" 
d="M306 373q113 0 167 -47.5t54 -140.5q0 -196 -240 -196q-115 0 -172.5 48t-57.5 154v347h138v-165h111zM391 182q0 44 -24 63t-74 19h-98v-73q0 -51 23.5 -72.5t77.5 -21.5q47 0 71 21.5t24 63.5z" />
    <glyph glyph-name="uni044A.aalt" horiz-adv-x="626" 
d="M134 191v238h-122v109h260v-165h111q113 0 167 -47.5t54 -140.5q0 -196 -240 -196q-115 0 -172.5 48t-57.5 154zM468 182q0 44 -24 63t-74 19h-98v-73q0 -51 23.5 -72.5t77.5 -21.5q47 0 71 21.5t24 63.5z" />
    <glyph glyph-name="uni0431.aalt" horiz-adv-x="595" 
d="M156 475q-98 43 -98 133q0 66 53 102t183 36q96 0 139.5 3t79.5 11v-115q-28 -8 -76.5 -11t-139.5 -3q-64 0 -88 -10t-24 -36q0 -24 26 -38.5t105 -22.5q248 -23 248 -264q0 -85 -36.5 -147t-97.5 -94t-133 -32q-73 0 -134 31.5t-97 93t-36 146.5q0 79 32.5 131.5
t93.5 85.5zM298 97q57 0 91.5 41.5t34.5 118.5t-34.5 118.5t-91.5 41.5q-56 0 -92 -41.5t-36 -117.5q0 -77 35 -119t93 -42z" />
    <glyph glyph-name="uniF6D4" unicode="&#xf6d4;" horiz-adv-x="383" 
d="M22 755h97q7 -52 72 -52q67 0 73 52h97q-6 -57 -48 -90.5t-123 -33.5q-80 0 -121.5 34t-46.5 90z" />
    <glyph glyph-name="uniF6D1" unicode="&#xf6d1;" horiz-adv-x="383" 
d="M361 886q-6 -60 -49 -88.5t-122 -28.5q-159 0 -168 117h97q3 -24 20 -35t52 -11t52.5 11t20.5 35h97z" />
    <glyph glyph-name="uni20BD" unicode="&#x20bd;" horiz-adv-x="699" 
d="M269 274v-68h216v-74h-216v-132h-143v132h-80v74h80v68h-80v74h80v377h218q154 0 236 -51t82 -180q0 -116 -80.5 -168t-226.5 -52h-86zM350 358q80 0 123 32t43 107q0 67 -43 91.5t-123 24.5h-81v-255h81z" />
    <glyph glyph-name="uni20B4" unicode="&#x20b4;" horiz-adv-x="689" 
d="M595 548q0 -22 -7 -43.5t-17 -33.5h83v-74h-618v74h373q46 26 46 68q0 38 -38 56.5t-95 18.5q-103 0 -177 -35v130q45 16 90 22.5t100 6.5q75 0 134 -23.5t92.5 -66.5t33.5 -100zM93 189q0 39 15 66h-72v74h618v-74h-392q-23 -22 -23 -57q0 -43 40.5 -65t112.5 -22
q99 0 191 53v-139q-81 -38 -209 -38q-82 0 -146 26t-99.5 72t-35.5 104z" />
    <glyph glyph-name="uni20B8" unicode="&#x20b8;" horiz-adv-x="647" 
d="M619 651h-591v74h591v-74zM395 0h-143v467h-224v116h591v-116h-224v-467z" />
    <glyph glyph-name="pi" unicode="&#x3c0;" horiz-adv-x="665" 
d="M230 0h-125v417h-85v121h610v-121h-85v-244q0 -29 2.5 -41t12.5 -17t34 -5h37v-110h-54q-63 0 -96 12.5t-47 46t-14 101.5v257h-190v-417z" />
    <glyph glyph-name="mu" unicode="&#xb5;" horiz-adv-x="607" 
d="M54 -175q12 69 12 172v541h139v-310q0 -64 17.5 -97t70.5 -33q63 0 87.5 43.5t24.5 116.5v280h138v-538h-138v58q-22 -38 -50 -52.5t-61 -14.5q-70 0 -98 55v-44q0 -101 -12 -177h-130z" />
    <glyph glyph-name="mu" unicode="&#x3bc;" horiz-adv-x="607" 
d="M54 -175q12 69 12 172v541h139v-310q0 -64 17.5 -97t70.5 -33q63 0 87.5 43.5t24.5 116.5v280h138v-538h-138v58q-22 -38 -50 -52.5t-61 -14.5q-70 0 -98 55v-44q0 -101 -12 -177h-130z" />
    <glyph glyph-name="ellipsis" unicode="&#x2026;" horiz-adv-x="742" 
d="M195 150v-150h-148v150h148zM445 150v-150h-148v150h148zM695 150v-150h-148v150h148z" />
    <glyph glyph-name="endash" unicode="&#x2013;" horiz-adv-x="550" 
d="M498 327v-120h-446v120h446z" />
    <glyph glyph-name="emdash" unicode="&#x2014;" horiz-adv-x="790" 
d="M738 327v-120h-686v120h686z" />
    <glyph glyph-name="guilsinglleft" unicode="&#x2039;" horiz-adv-x="351" 
d="M319 43h-125l-159 230l159 229h125l-125 -229z" />
    <glyph glyph-name="guilsinglright" unicode="&#x203a;" horiz-adv-x="350" 
d="M156 502l159 -229l-159 -230h-124l124 230l-124 229h124z" />
    <glyph glyph-name="quoteleft" unicode="&#x2018;" horiz-adv-x="244" 
d="M129 563h68v-148h-155v159l83 151h78z" />
    <glyph glyph-name="quoteright" unicode="&#x2019;" horiz-adv-x="237" 
d="M118 577h-68v148h155v-159l-83 -151h-78z" />
    <glyph glyph-name="quotedblleft" unicode="&#x201c;" horiz-adv-x="447" 
d="M129 563h68v-148h-155v159l83 151h78zM332 563h68v-148h-155v159l83 151h78z" />
    <glyph glyph-name="quotedblright" unicode="&#x201d;" horiz-adv-x="440" 
d="M118 577h-68v148h155v-159l-83 -151h-78zM321 577h-68v148h155v-159l-83 -151h-78z" />
    <glyph glyph-name="quotesinglbase" unicode="&#x201a;" horiz-adv-x="249" 
d="M115 0h-68v148h155v-159l-83 -151h-78z" />
    <glyph glyph-name="quotedblbase" unicode="&#x201e;" horiz-adv-x="452" 
d="M115 0h-68v148h155v-159l-83 -151h-78zM318 0h-68v148h155v-159l-83 -151h-78z" />
    <glyph glyph-name="bullet" unicode="&#x2022;" horiz-adv-x="452" 
d="M222 438q47 0 85 -21.5t59.5 -57.5t21.5 -80q0 -46 -21.5 -84t-59.5 -59.5t-85 -21.5q-43 0 -79 21.5t-57.5 59.5t-21.5 84q0 43 21.5 79.5t58 58t78.5 21.5z" />
    <glyph glyph-name="dagger" unicode="&#x2020;" horiz-adv-x="423" 
d="M263 529v-215h-101v215h-123v86h123v110h101v-110h122v-86h-122z" />
    <glyph glyph-name="daggerdbl" unicode="&#x2021;" horiz-adv-x="448" 
d="M275 376v-110h-101v110h-123v86h123v67h-123v86h123v110h101v-110h122v-86h-122v-67h122v-86h-122z" />
    <glyph glyph-name="perthousand" unicode="&#x2030;" horiz-adv-x="1359" 
d="M26 520q0 100 45 156t130 56q84 0 129.5 -56t45.5 -156q0 -99 -45.5 -155t-129.5 -56q-85 0 -130 56t-45 155zM262 520q0 66 -15 96.5t-46 30.5q-32 0 -47.5 -30.5t-15.5 -96.5q0 -65 15 -95t48 -30q31 0 46 30t15 95zM578 203q0 100 45 156t130 56q84 0 129.5 -56
t45.5 -156q0 -99 -45.5 -155t-129.5 -56q-85 0 -130 56t-45 155zM814 203q0 66 -15 96.5t-46 30.5q-32 0 -47.5 -30.5t-15.5 -96.5q0 -65 15 -95t48 -30q31 0 46 30t15 95zM805 725l-518 -725h-137l518 725h137zM978 203q0 100 45 156t130 56q84 0 129.5 -56t45.5 -156
q0 -99 -45.5 -155t-129.5 -56q-85 0 -130 56t-45 155zM1214 203q0 66 -15 96.5t-46 30.5q-32 0 -47.5 -30.5t-15.5 -96.5q0 -65 15 -95t48 -30q31 0 46 30t15 95z" />
    <glyph glyph-name="uni2113" unicode="&#x2113;" horiz-adv-x="526" 
d="M143 167v15l-71 -50l-49 72l120 88v220q0 225 188 225q78 0 122.5 -42t44.5 -115q0 -84 -51.5 -150t-153.5 -139l-13 -10v-90q0 -50 17.5 -70.5t52.5 -20.5q47 0 93 39l51 -87q-30 -27 -74 -46t-98 -19q-84 0 -131.5 43.5t-47.5 136.5zM280 393l7 5q45 34 69 78.5
t24 94.5q0 33 -13 49t-36 16q-28 0 -39.5 -20t-11.5 -66v-157z" />
    <glyph glyph-name="uni2116" unicode="&#x2116;" horiz-adv-x="1116" 
d="M685 725v-725h-186l-290 553v-553h-135v725h186l290 -553v553h135zM752 580q0 77 46 117.5t116 40.5t116.5 -40.5t46.5 -117.5t-46 -117.5t-116 -40.5t-116.5 40.5t-46.5 117.5zM971 580q0 38 -15.5 59t-40.5 21t-41 -21t-16 -59q0 -39 16 -59.5t41 -20.5t40.5 20.5
t15.5 59.5zM1067 362v-105h-305v105h305z" />
    <glyph glyph-name="uni2117" unicode="&#x2117;" horiz-adv-x="864" 
d="M433 740q109 0 197 -48.5t138 -134.5t50 -196q0 -109 -50 -194.5t-138 -133.5t-197 -48q-110 0 -198.5 48t-138.5 133.5t-50 194.5q0 110 50 196t138.5 134.5t198.5 48.5zM433 77q82 0 145.5 35.5t99 100t35.5 148.5q0 85 -35.5 150t-99 101t-145.5 36t-146 -36
t-99.5 -101t-35.5 -150q0 -84 35.5 -148.5t99.5 -100t146 -35.5zM392 300v-127h-102v383h144q84 0 131.5 -28t47.5 -100q0 -73 -49 -100.5t-128 -27.5h-44zM447 479h-55v-102h55q31 0 46 13.5t15 37.5t-15 37.5t-46 13.5z" />
    <glyph glyph-name="trademark" unicode="&#x2122;" horiz-adv-x="939" 
d="M154 638h-129v87h362v-87h-130v-312h-103v312zM651 538l83 187h139v-399h-103v289l-78 -186h-85l-79 188v-291h-102v399h147z" />
    <glyph glyph-name="lozenge" unicode="&#x25ca;" horiz-adv-x="598" 
d="M301 -95l-273 433l273 432l267 -432zM436 338l-134 218l-135 -218l135 -218z" />
    <glyph glyph-name="estimated" unicode="&#x212e;" horiz-adv-x="599" 
d="M554 151q-26 -74 -87 -119t-154 -45q-85 0 -146 37t-92 101t-31 144q0 82 32.5 146t92.5 99.5t139 35.5q81 0 139.5 -37.5t89 -101.5t31.5 -141h-409v-193q23 -25 67.5 -40t94.5 -15q70 0 119.5 33.5t73.5 95.5h40zM159 303h293v159q-23 24 -61 38.5t-84 14.5t-85 -13.5
t-63 -38.5v-160z" />
    <glyph glyph-name="minus" unicode="&#x2212;" 
d="M61 209v120h556v-120h-556z" />
    <glyph glyph-name="lessequal" unicode="&#x2264;" 
d="M605 415l-367 -78l367 -79v-123l-535 145v114l535 145v-124zM605 0h-535v121h535v-121z" />
    <glyph glyph-name="greaterequal" unicode="&#x2265;" 
d="M73 258l367 79l-367 78v124l535 -145v-114l-535 -145v123zM608 121v-121h-535v121h535z" />
    <glyph glyph-name="notequal" unicode="&#x2260;" 
d="M620 467v-120h-169l-87 -156h256v-119h-323l-77 -137l-109 55l46 82h-101v119h168l87 156h-255v120h323l77 138l109 -55l-47 -83h102z" />
    <glyph glyph-name="approxequal" unicode="&#x2248;" 
d="M628 498q-5 -81 -50.5 -129.5t-120.5 -48.5q-34 0 -62.5 9t-64.5 26q-29 14 -48.5 20.5t-39.5 6.5q-31 0 -50.5 -17.5t-22.5 -46.5h-119q5 82 50.5 130.5t120.5 48.5q34 0 62.5 -9t64.5 -26q29 -14 48.5 -20.5t39.5 -6.5q31 0 50.5 17t22.5 46h119zM628 216
q-5 -81 -50.5 -129.5t-120.5 -48.5q-34 0 -62.5 9t-64.5 26q-29 14 -48.5 20.5t-39.5 6.5q-31 0 -50.5 -17.5t-22.5 -46.5h-119q5 82 50.5 130.5t120.5 48.5q34 0 62.5 -9t64.5 -26q29 -14 48.5 -20.5t39.5 -6.5q31 0 50.5 17t22.5 46h119z" />
    <glyph glyph-name="partialdiff" unicode="&#x2202;" horiz-adv-x="594" 
d="M20 260q0 80 31 141.5t84.5 95t118.5 33.5q50 0 88 -19t62 -56l1 1q-10 52 -48 92t-93.5 62t-119.5 24v112q136 -4 229 -62t139 -153.5t46 -211.5q0 -158 -69 -245t-205 -87q-81 0 -140.5 33.5t-91.5 95.5t-32 144zM287 421q-60 0 -93.5 -42t-33.5 -119
q0 -78 33.5 -120.5t93.5 -42.5q57 0 92 41.5t35 121.5q0 79 -35 120t-92 41z" />
    <glyph glyph-name="product" unicode="&#x220f;" horiz-adv-x="698" 
d="M202 605v-780h-132v900h558v-900h-132v780h-294z" />
    <glyph glyph-name="radical" unicode="&#x221a;" horiz-adv-x="597" 
d="M31 100l-49 113l199 90l125 -298l157 720h132l-208 -900h-132l-138 315z" />
    <glyph glyph-name="summation" unicode="&#x2211;" horiz-adv-x="615" 
d="M27 -175v112l274 337l-270 338v112h554v-120h-388l266 -330l-270 -329h392v-120h-558z" />
    <glyph glyph-name="integral" unicode="&#x222b;" horiz-adv-x="405" 
d="M133 422q0 174 50.5 243.5t128.5 69.5q43 0 72.5 -23t29.5 -64q0 -27 -16.5 -44.5t-43.5 -17.5q-21 0 -38 15.5t-17 46.5q0 10 3 25q-21 -5 -31 -34t-10 -85q0 -23 4 -77q7 -91 7 -182v-162q0 -313 -173 -313q-44 0 -76 23t-32 64q0 27 17 44.5t43 17.5q21 0 38 -15
t17 -45q0 -13 -3 -26q21 4 30 33t9 85q0 17 -4 77q-5 100 -5 139v205z" />
    <glyph glyph-name="infinity" unicode="&#x221e;" horiz-adv-x="802" 
d="M758 259q0 -76 -49.5 -123t-128.5 -47q-54 0 -96 24.5t-82 67.5q-40 -43 -83.5 -67t-97.5 -24q-79 0 -128 47t-49 122q0 49 23 87t64.5 59.5t94.5 21.5q51 0 93.5 -23.5t81.5 -63.5q40 43 82 65t96 22q52 0 92.5 -21.5t63.5 -60t23 -86.5zM336 260q-25 30 -51 46.5
t-56 16.5q-32 0 -53.5 -18t-21.5 -46t20.5 -47t52.5 -19q30 0 55.5 16.5t53.5 50.5zM468 259q27 -32 52.5 -49t55.5 -17q32 0 52.5 18.5t20.5 47.5q0 27 -21 45.5t-55 18.5q-30 0 -54.5 -17t-50.5 -47z" />
    <glyph glyph-name="uni0394" unicode="&#x394;" horiz-adv-x="733" 
d="M20 0l346 738l347 -738h-693zM536 114l-170 358l-170 -358h340z" />
    <glyph glyph-name="uni0394" unicode="&#x2206;" horiz-adv-x="733" 
d="M20 0l346 738l347 -738h-693zM536 114l-170 358l-170 -358h340z" />
    <glyph glyph-name="uni03A9" unicode="&#x3a9;" horiz-adv-x="799" 
d="M754 427q0 -93 -53 -166t-138 -105v-35h191v-121h-316v228q55 8 97 37t64.5 71t22.5 91q0 58 -27 105t-77.5 74t-117.5 27q-68 0 -118.5 -27t-77.5 -74t-27 -105q0 -49 22.5 -91t64.5 -71t97 -37v-228h-315v121h191v35q-86 32 -139 105t-53 166q0 96 49.5 166.5
t130.5 107.5t175 37q93 0 174 -37t130.5 -107.5t49.5 -166.5z" />
    <glyph glyph-name="uni03A9" unicode="&#x2126;" horiz-adv-x="799" 
d="M754 427q0 -93 -53 -166t-138 -105v-35h191v-121h-316v228q55 8 97 37t64.5 71t22.5 91q0 58 -27 105t-77.5 74t-117.5 27q-68 0 -118.5 -27t-77.5 -74t-27 -105q0 -49 22.5 -91t64.5 -71t97 -37v-228h-315v121h191v35q-86 32 -139 105t-53 166q0 96 49.5 166.5
t130.5 107.5t175 37q93 0 174 -37t130.5 -107.5t49.5 -166.5z" />
    <glyph glyph-name="Euro" unicode="&#x20ac;" horiz-adv-x="783" 
d="M312 326h272l-54 -81h-200q27 -70 84 -104.5t126 -34.5q53 0 98.5 12t92.5 36v-126q-42 -18 -96.5 -29.5t-108.5 -11.5q-134 0 -222 69.5t-117 188.5h-154l54 81h87q-1 12 -1 36q0 19 1 29h-141l54 81h98q20 88 71.5 147.5t122 89t148.5 29.5q54 0 110 -10t94 -29v-124
q-91 44 -191 44q-71 0 -128.5 -36.5t-83.5 -110.5h342l-54 -81h-304q-1 -10 -1 -29q0 -25 1 -36z" />
    <glyph glyph-name="uniFB01" unicode="&#xfb01;" horiz-adv-x="608" 
d="M408 0v538h138v-538h-138zM95 589q0 87 47 129t141 42q42 0 89 -8v-106q-31 8 -60 8q-79 0 -79 -75v-41h128v-95h-128v-443h-138v443h-76v95h76v51zM408 627v128h138v-128h-138z" />
    <glyph glyph-name="uniFB02" unicode="&#xfb02;" horiz-adv-x="608" 
d="M95 589q0 87 47 129t141 42q42 0 89 -8v-106q-31 8 -60 8q-79 0 -79 -75v-41h128v-95h-128v-443h-138v443h-76v95h76v51zM408 755h138v-755h-138v755z" />
    <glyph glyph-name="glyph531" horiz-adv-x="263" 
d="M62 627v128h138v-128h-138z" />
    <glyph glyph-name="breve" unicode="&#x2d8;" horiz-adv-x="383" 
d="M361 755q-6 -57 -48 -90.5t-123 -33.5q-80 0 -121.5 34t-46.5 90h97q7 -52 72 -52q67 0 73 52h97z" />
    <glyph glyph-name="caron" unicode="&#x2c7;" horiz-adv-x="438" 
d="M268 639h-99l-147 116h121l76 -44l76 44h121z" />
    <glyph glyph-name="circumflex" unicode="&#x2c6;" horiz-adv-x="438" 
d="M169 755h99l148 -116h-121l-76 44l-76 -44h-121z" />
    <glyph glyph-name="dotaccent" unicode="&#x2d9;" horiz-adv-x="159" 
d="M22 639v116h115v-116h-115z" />
    <glyph glyph-name="glyph536" horiz-adv-x="159" 
d="M22 -175v108h115v-108h-115z" />
    <glyph glyph-name="hungarumlaut" unicode="&#x2dd;" horiz-adv-x="489" 
d="M117 755h157l-150 -116h-102zM310 755h157l-149 -116h-102z" />
    <glyph glyph-name="ogonek" unicode="&#x2db;" horiz-adv-x="264" 
d="M229 0q-48 -23 -68 -38t-20 -35q0 -16 13 -24.5t32 -8.5q22 0 43 6v-82q-18 -4 -34 -5t-35 -1q-60 0 -99 22.5t-39 68.5q0 29 18.5 54.5t50.5 42.5h138z" />
    <glyph glyph-name="ring" unicode="&#x2da;" horiz-adv-x="233" 
d="M222 711q0 -42 -30.5 -70.5t-74.5 -28.5q-45 0 -75 28t-30 71t30.5 71t74.5 28t74.5 -28t30.5 -71zM74 711q0 -18 12.5 -30.5t30.5 -12.5t31 12.5t13 30.5t-13 30.5t-31 12.5t-30.5 -12t-12.5 -31z" />
    <glyph glyph-name="tilde" unicode="&#x2dc;" horiz-adv-x="452" 
d="M339 759h88q-10 -60 -44 -90.5t-84 -30.5q-24 0 -42 6.5t-43 19.5q-18 10 -29 14.5t-24 4.5q-41 0 -49 -44h-87q10 58 43 89.5t85 31.5q24 0 41.5 -6.5t39.5 -19.5q18 -10 29.5 -14.5t25.5 -4.5q42 0 50 44z" />
    <glyph glyph-name="uni032C" unicode="&#x32c;" horiz-adv-x="0" 
d="M-183 -138h-77l-158 138h121l76 -52l80 52h119z" />
    <glyph glyph-name="glyph542" horiz-adv-x="204" 
d="M52 755h130l-70 -170h-90z" />
    <glyph glyph-name="uni0326" unicode="&#x326;" horiz-adv-x="0" 
d="M-92 -136h-36v100h106v-106l-44 -89h-65z" />
    <glyph glyph-name="zero.zero" horiz-adv-x="665" 
d="M41 364q0 112 33 196t98.5 131t160.5 47q94 0 159.5 -47t98.5 -131.5t33 -195.5q0 -112 -33 -197t-98.5 -132.5t-159.5 -47.5q-95 0 -160.5 47.5t-98.5 132.5t-33 197zM182 364v-17l292 128q-14 78 -50 118.5t-91 40.5q-73 0 -112 -70t-39 -200zM483 364v12l-291 -128
q14 -77 50 -117t91 -40q73 0 111.5 71t38.5 202z" />
    <glyph glyph-name="one.oldstyle" horiz-adv-x="521" 
d="M349 113h162v-113h-470v113h170v357h-170v93q62 2 98 8t63 24.5t42 56.5h105v-539z" />
    <glyph glyph-name="two.oldstyle" horiz-adv-x="548" 
d="M504 484q0 -62 -37.5 -121t-98 -113.5t-166.5 -137.5h309v-112h-481v109q124 99 187.5 153t104 106.5t40.5 96.5q0 37 -30 58.5t-85 21.5q-50 0 -97 -16t-94 -42v129q37 18 96 32.5t120 14.5q105 0 168.5 -47.5t63.5 -131.5z" />
    <glyph glyph-name="three.oldstyle" horiz-adv-x="557" 
d="M380 192q0 48 -50 72.5t-132 24.5h-29v97h24q78 0 123.5 24t45.5 65q0 39 -36 56.5t-96 17.5q-43 0 -92 -14t-91 -36v125q40 16 95.5 27.5t112.5 11.5q64 0 120.5 -19t91.5 -58.5t35 -98.5q0 -46 -27.5 -84t-71.5 -59q56 -20 87 -63.5t31 -94.5q0 -64 -37 -108.5
t-99 -67.5t-136 -23q-57 0 -112.5 9.5t-94.5 23.5v125q42 -19 91 -31.5t95 -12.5q71 0 111.5 22.5t40.5 68.5z" />
    <glyph glyph-name="four.oldstyle" horiz-adv-x="617" 
d="M487 264h110v-119h-110v-145h-137v145h-336v108l341 399h132v-388zM350 264v217l-185 -217h185z" />
    <glyph glyph-name="five.oldstyle" horiz-adv-x="549" 
d="M382 210q0 55 -44.5 82.5t-122.5 27.5q-47 0 -82 -7t-80 -23l42 362h391v-116h-287l-13 -114q44 8 74 8q64 0 122.5 -22t96.5 -71t38 -127q0 -70 -38 -120.5t-103 -76.5t-143 -26q-55 0 -108 9.5t-90 24.5v125q39 -20 85.5 -32t91.5 -12q79 0 124.5 26.5t45.5 81.5z" />
    <glyph glyph-name="six.oldstyle" horiz-adv-x="591" 
d="M170 370q23 29 64.5 47.5t92.5 18.5q65 0 118.5 -27.5t85 -79t31.5 -120.5q0 -66 -33 -116.5t-91.5 -78t-133.5 -27.5q-131 0 -198.5 88.5t-67.5 232.5q0 112 42.5 192t118.5 122t176 42q82 0 143 -19v-127q-72 29 -150 29t-135 -39.5t-63 -137.5zM304 91q50 0 85 34.5
t35 85.5q0 49 -35 83t-85 34t-86.5 -34t-36.5 -83q0 -51 36.5 -85.5t86.5 -34.5z" />
    <glyph glyph-name="seven.oldstyle" horiz-adv-x="544" 
d="M21 536v116h506v-113q-97 -90 -154.5 -165.5t-88.5 -165t-36 -208.5h-151q6 164 81.5 294t204.5 242h-362z" />
    <glyph glyph-name="eight.oldstyle" horiz-adv-x="597" 
d="M541 493q0 -44 -20 -81.5t-60 -62.5q53 -30 76 -70.5t23 -90.5q0 -63 -34 -108t-93 -68.5t-133 -23.5q-75 0 -135 23.5t-94 68.5t-34 108q0 51 23.5 91t76.5 70q-39 24 -59.5 62t-20.5 81q0 49 30 87.5t85 61t128 22.5q72 0 126.5 -22.5t84.5 -61t30 -86.5zM300 557
q-49 0 -78.5 -22t-29.5 -57q0 -37 29.5 -60.5t78.5 -23.5q47 0 76.5 24t29.5 60q0 35 -29 57t-77 22zM178 194q0 -44 33 -72t89 -28q55 0 88 28t33 72t-33 71t-88 27q-57 0 -89.5 -26.5t-32.5 -71.5z" />
    <glyph glyph-name="nine.oldstyle" horiz-adv-x="590" 
d="M420 280q-23 -29 -64.5 -47.5t-92.5 -18.5q-65 0 -118.5 27.5t-85 79t-31.5 120.5q0 66 33 116.5t91.5 78t133.5 27.5q131 0 198.5 -88.5t67.5 -232.5q0 -112 -42.5 -192t-118.5 -122t-176 -42q-82 0 -143 19v127q73 -29 150 -29q78 0 135 39.5t63 137.5zM286 559
q-50 0 -85 -34.5t-35 -85.5q0 -49 35 -83t85 -34t86.5 34t36.5 83q0 51 -36.5 85.5t-86.5 34.5z" />
    <glyph glyph-name="zero.oldstyle" horiz-adv-x="637" 
d="M39 327q0 157 71.5 246.5t208.5 89.5q136 0 208 -89.5t72 -246.5t-72 -248t-208 -91q-137 0 -208.5 90.5t-71.5 248.5zM458 327q0 115 -35.5 172.5t-103.5 57.5q-69 0 -104.5 -57.5t-35.5 -172.5q0 -116 35.5 -174.5t104.5 -58.5q68 0 103.5 59t35.5 174z" />
    <glyph glyph-name="zero.oldstyle.zero" horiz-adv-x="637" 
d="M39 327q0 157 71.5 246.5t208.5 89.5q136 0 208 -89.5t72 -246.5t-72 -248t-208 -91q-137 0 -208.5 90.5t-71.5 248.5zM179 327v-4l267 117q-30 117 -127 117q-69 0 -104.5 -57.5t-35.5 -172.5zM458 327v15l-270 -118q27 -130 131 -130q68 0 103.5 59t35.5 174z" />
    <glyph glyph-name="one.tnum" 
d="M420 116h184v-116h-502v116h180v427h-178v93q64 2 102 8t66 24.5t43 56.5h105v-609z" />
    <glyph glyph-name="two.tnum" 
d="M572 539q0 -70 -39.5 -137.5t-105.5 -132.5t-172 -153h334v-116h-505v112q120 101 191 168t114.5 127.5t43.5 110.5q0 49 -30 75.5t-91 26.5q-53 0 -102 -17.5t-99 -46.5v129q38 21 100.5 37t126.5 16q109 0 171.5 -52.5t62.5 -146.5z" />
    <glyph glyph-name="three.tnum" 
d="M439 209q0 57 -50 85.5t-132 28.5h-29v108h24q79 0 124 28t45 78q0 43 -38.5 63t-93.5 20q-43 0 -92 -15.5t-91 -39.5v130q40 18 95.5 30.5t112.5 12.5q64 0 120 -21t91 -65t35 -109q0 -51 -27.5 -93t-70.5 -66q55 -23 86 -71.5t31 -104.5q0 -71 -37 -121t-98.5 -75
t-135.5 -25q-57 0 -112.5 10.5t-94.5 26.5v130q42 -22 91 -35.5t95 -13.5q71 0 111.5 25.5t40.5 78.5z" />
    <glyph glyph-name="four.tnum" 
d="M523 291h124v-116h-124v-175h-137v175h-358v107l360 443h135v-434zM386 291v259l-207 -259h207z" />
    <glyph glyph-name="five.tnum" 
d="M452 234q0 67 -45.5 98.5t-127.5 31.5q-49 0 -85.5 -7.5t-82.5 -24.5l43 393h406v-116h-294l-17 -140q41 9 76 9q66 0 127 -24.5t100.5 -79t39.5 -140.5q0 -77 -39.5 -133t-107 -85t-148.5 -29q-56 0 -111.5 10.5t-93.5 26.5v130q41 -22 89.5 -35.5t94.5 -13.5
q82 0 129 31.5t47 97.5z" />
    <glyph glyph-name="six.tnum" 
d="M208 412q25 31 67.5 50t97.5 19q68 0 124 -29.5t89 -86t33 -132.5q0 -73 -34.5 -129t-96 -86.5t-139.5 -30.5q-138 0 -208.5 98t-70.5 258q0 124 44 213t124 135.5t185 46.5q36 0 76.5 -5t73.5 -16v-129q-36 15 -77 23.5t-80 8.5q-49 0 -94.5 -20t-77 -66.5t-36.5 -121.5
zM349 91q56 0 93 39.5t37 104.5q0 63 -37 102t-93 39q-57 0 -95 -39t-38 -102q0 -64 38 -104t95 -40z" />
    <glyph glyph-name="seven.tnum" 
d="M72 609v116h533v-116q-99 -102 -160.5 -190.5t-94.5 -189t-40 -229.5h-152q8 177 91.5 330t216.5 279h-394z" />
    <glyph glyph-name="eight.tnum" 
d="M592 552q0 -51 -21.5 -94t-66.5 -70q110 -62 110 -181q0 -69 -36 -118.5t-98.5 -75.5t-140.5 -26t-140 26t-98 75.5t-36 118.5q0 119 111 181q-43 25 -66 69t-23 94q0 54 31 96.5t88.5 66.5t132.5 24q76 0 133 -24t88.5 -66.5t31.5 -95.5zM339 634q-54 0 -86 -27t-32 -72
q0 -46 32.5 -75t85.5 -29t86 29t33 75q0 45 -32.5 72t-86.5 27zM206 213q0 -54 36.5 -88t96.5 -34q61 0 97.5 34t36.5 88t-36.5 86.5t-97.5 32.5t-97 -32.5t-36 -86.5z" />
    <glyph glyph-name="nine.tnum" 
d="M470 313q-25 -31 -67.5 -50t-97.5 -19q-68 0 -124 29.5t-89 86t-33 132.5q0 73 34.5 129t96 86.5t139.5 30.5q138 0 208.5 -98t70.5 -258q0 -124 -44 -213t-124 -135.5t-185 -46.5q-36 0 -76.5 5t-73.5 16v129q36 -15 77 -23.5t80 -8.5q49 0 94.5 20t77 66.5t36.5 121.5z
M329 634q-56 0 -93 -39.5t-37 -104.5q0 -63 37 -102t93 -39q57 0 95 39t38 102q0 64 -38 104t-95 40z" />
    <glyph glyph-name="zero.tnum" 
d="M48 364q0 112 33 196t98.5 131t160.5 47q94 0 159.5 -47t98.5 -131.5t33 -195.5q0 -112 -33 -197t-98.5 -132.5t-159.5 -47.5q-95 0 -160.5 47.5t-98.5 132.5t-33 197zM490 364q0 130 -38.5 200t-111.5 70t-112 -70t-39 -200q0 -131 39 -202t112 -71t111.5 71t38.5 202z
" />
    <glyph glyph-name="zero.tnum.zero" 
d="M48 364q0 112 33 196t98.5 131t160.5 47q94 0 159.5 -47t98.5 -131.5t33 -195.5q0 -112 -33 -197t-98.5 -132.5t-159.5 -47.5q-95 0 -160.5 47.5t-98.5 132.5t-33 197zM189 348l292 128q-14 77 -50 117.5t-91 40.5q-73 0 -112 -70t-39 -200v-16zM490 364v13l-291 -129
q14 -76 50 -116.5t91 -40.5q73 0 111.5 71t38.5 202z" />
    <glyph glyph-name="one.case" horiz-adv-x="531" 
d="M355 113h162v-113h-475v113h170v430h-170v93q62 2 98 8t63 24.5t42 56.5h110v-612z" />
    <glyph glyph-name="two.case" horiz-adv-x="575" 
d="M529 539q0 -70 -39.5 -137.5t-105.5 -132.5t-172 -153h324v-116h-505v112q120 101 191 168t114.5 127.5t43.5 110.5q0 47 -31 72t-90 25q-53 0 -102 -17.5t-99 -46.5v134q38 21 100.5 37t126.5 16q110 0 177 -53t67 -146z" />
    <glyph glyph-name="three.case" horiz-adv-x="571" 
d="M381 209q0 57 -50 85.5t-132 28.5h-29v108h24q79 0 124 28t45 78q0 40 -38.5 59t-93.5 19q-43 0 -92 -15.5t-91 -39.5v135q40 18 95.5 30.5t112.5 12.5q69 0 127 -21t93.5 -65t35.5 -109q0 -51 -27.5 -93t-70.5 -66q55 -23 86 -71.5t31 -104.5q0 -71 -37.5 -121t-101 -75
t-142.5 -25q-57 0 -112.5 10.5t-94.5 26.5v135q42 -22 91 -35.5t95 -13.5q71 0 111.5 25t40.5 74z" />
    <glyph glyph-name="four.case" horiz-adv-x="661" 
d="M518 289h120v-125h-120v-164h-144v164h-355v114l362 447h137v-436zM374 289v249l-198 -249h198z" />
    <glyph glyph-name="five.case" horiz-adv-x="571" 
d="M394 234q0 64 -46 96t-126 32q-48 0 -83.5 -7.5t-81.5 -24.5l43 395h398v-116h-281l-16 -139q34 8 73 8q65 0 125.5 -22.5t101 -77t40.5 -142.5q0 -78 -40 -134t-108 -85.5t-153 -29.5q-56 0 -109 10.5t-92 26.5v135q40 -22 87.5 -35.5t92.5 -13.5q175 0 175 124z" />
    <glyph glyph-name="six.case" horiz-adv-x="627" 
d="M178 412q25 31 67.5 50t97.5 19q68 0 126 -30t93 -86t35 -132q0 -73 -35.5 -129t-98.5 -86.5t-141 -30.5q-94 0 -157 46.5t-94 127t-31 181.5q0 124 44.5 213.5t124 136t184.5 46.5q37 0 81 -5.5t77 -15.5v-134q-35 15 -80 23.5t-85 8.5q-80 0 -140.5 -47t-67.5 -156z
M323 101q56 0 91.5 37.5t35.5 96.5q0 58 -35.5 95.5t-91.5 37.5q-57 0 -93.5 -37.5t-36.5 -95.5t36.5 -96t93.5 -38z" />
    <glyph glyph-name="seven.case" horiz-adv-x="574" 
d="M19 609v116h535v-117q-101 -98 -162.5 -186t-94.5 -189.5t-39 -232.5h-156q6 180 89 333t219 276h-391z" />
    <glyph glyph-name="eight.case" horiz-adv-x="633" 
d="M573 550q0 -49 -21 -91.5t-64 -70.5q105 -62 105 -179q0 -69 -36 -119t-99 -76.5t-141 -26.5q-79 0 -142 26.5t-99.5 76.5t-36.5 119q0 117 107 179q-41 25 -63 69t-22 92q0 53 31.5 96t90 68t134.5 25t134 -25t90 -68t32 -95zM317 625q-53 0 -84.5 -25t-31.5 -66
q0 -42 32 -69.5t84 -27.5t83 27.5t31 69.5q0 41 -31 66t-83 25zM186 214q0 -50 35.5 -81.5t95.5 -31.5q59 0 94.5 31.5t35.5 81.5q0 51 -35.5 82t-94.5 31q-60 0 -95.5 -31t-35.5 -82z" />
    <glyph glyph-name="nine.case" horiz-adv-x="628" 
d="M449 313q-25 -31 -67.5 -50t-97.5 -19q-68 0 -126 30t-93 86t-35 132q0 73 35.5 129t98.5 86.5t141 30.5q94 0 157 -46.5t94 -127t31 -181.5q0 -124 -44.5 -213.5t-124 -136t-184.5 -46.5q-37 0 -81 5.5t-77 15.5v134q35 -15 80 -23.5t85 -8.5q80 0 140.5 47t67.5 156z
M304 624q-56 0 -91.5 -37.5t-35.5 -96.5q0 -58 35.5 -95.5t91.5 -37.5q57 0 93.5 37.5t36.5 95.5t-36.5 96t-93.5 38z" />
    <glyph glyph-name="zero.case" horiz-adv-x="676" 
d="M41 364q0 113 34 197t101 130.5t163 46.5q144 0 220 -101t76 -273q0 -112 -33.5 -197t-100 -132.5t-162.5 -47.5t-163 47.5t-101 132.5t-34 197zM488 364q0 126 -40 193.5t-109 67.5q-70 0 -110 -67.5t-40 -193.5t40.5 -194.5t109.5 -68.5t109 68.5t40 194.5z" />
    <glyph glyph-name="zero.case.zero" horiz-adv-x="676" 
d="M41 364q0 113 34 197t101 130.5t163 46.5q144 0 220 -101t76 -273q0 -112 -33.5 -197t-100 -132.5t-162.5 -47.5t-163 47.5t-101 132.5t-34 197zM189 348l289 126q-16 74 -52 112.5t-87 38.5q-70 0 -110 -67.5t-40 -193.5v-16zM488 364v12l-288 -127q16 -72 52 -110
t87 -38q69 0 109 68.5t40 194.5z" />
    <glyph glyph-name="uni21B2" unicode="&#x21b2;" horiz-adv-x="853" 
d="M350 -42l-311 313l311 312l83 -86l-175 -168h414v396h120v-516h-530l171 -165z" />
    <glyph glyph-name="uni21B3" unicode="&#x21b3;" horiz-adv-x="853" 
d="M503 583l311 -312l-311 -313l-83 86l171 165h-530v516h120v-396h413l-174 168z" />
    <glyph glyph-name="uni21B0" unicode="&#x21b0;" horiz-adv-x="842" 
d="M346 -42l-311 313l311 312l83 -86l-175 -168h534v-504h-120v384h-410l171 -165z" />
    <glyph glyph-name="uni21B1" unicode="&#x21b1;" horiz-adv-x="842" 
d="M496 583l311 -312l-311 -313l-83 86l171 165h-410v-384h-120v504h533l-174 168z" />
    <glyph glyph-name="arrowleft" unicode="&#x2190;" horiz-adv-x="824" 
d="M342 -42l-311 313l311 312l83 -86l-175 -168h534v-120h-530l171 -165z" />
    <glyph glyph-name="arrowup" unicode="&#x2191;" horiz-adv-x="682" 
d="M29 421l312 313l313 -313l-84 -82l-170 174v-513h-119v512l-169 -173z" />
    <glyph glyph-name="arrowright" unicode="&#x2192;" horiz-adv-x="824" 
d="M482 583l311 -312l-311 -313l-83 86l171 165h-530v120h533l-174 168z" />
    <glyph glyph-name="arrowdown" unicode="&#x2193;" horiz-adv-x="681" 
d="M653 287l-313 -312l-312 312l83 83l169 -173v528h119v-529l170 174z" />
    <glyph glyph-name="uni2196" unicode="&#x2196;" horiz-adv-x="655" 
d="M51 97v441h440v-116h-238l373 -375l-83 -83l-376 371v-238h-116z" />
    <glyph glyph-name="uni2197" unicode="&#x2197;" horiz-adv-x="656" 
d="M164 538h441v-441h-117v238l-374 -371l-85 83l373 375h-238v116z" />
    <glyph glyph-name="uni2198" unicode="&#x2198;" horiz-adv-x="656" 
d="M605 441v-441h-441v115h240l-375 376l85 85l374 -373v238h117z" />
    <glyph glyph-name="uni2199" unicode="&#x2199;" horiz-adv-x="655" 
d="M491 0h-440v441h116v-238l376 373l83 -85l-375 -376h240v-115z" />
    <glyph glyph-name="uni219E" unicode="&#x219e;" horiz-adv-x="819" 
d="M340 -42l-311 313l311 312l83 -86l-175 -168h97l252 252l83 -86l-173 -166h275v-120h-275l173 -167l-83 -86l-252 253h-93l171 -165z" />
    <glyph glyph-name="uni219F" unicode="&#x219f;" horiz-adv-x="700" 
d="M38 421l312 313l313 -313l-84 -82l-170 174v-94l253 -253l-84 -82l-169 169v-253h-119v254l-170 -170l-83 82l253 254v92l-169 -173z" />
    <glyph glyph-name="uni21A0" unicode="&#x21a0;" horiz-adv-x="819" 
d="M479 583l311 -312l-311 -313l-83 86l171 165h-93l-252 -253l-82 86l172 167h-275v120h275l-172 166l82 86l252 -252h96l-174 168z" />
    <glyph glyph-name="uni21A1" unicode="&#x21a1;" horiz-adv-x="698" 
d="M662 287l-313 -312l-312 312l83 83l169 -173v91l-253 253l83 83l170 -171v272h119v-271l169 170l84 -83l-253 -252v-93l170 174z" />
    <glyph glyph-name="uni21A2" unicode="&#x21a2;" horiz-adv-x="819" 
d="M783 495l-227 -226l227 -227l-81 -86l-251 251h-197l170 -165l-82 -86l-313 313l313 312l82 -86l-174 -168h197l255 254z" />
    <glyph glyph-name="uni21A3" unicode="&#x21a3;" horiz-adv-x="819" 
d="M477 581l313 -312l-313 -313l-82 86l170 165h-197l-251 -251l-81 86l227 227l-227 226l81 86l255 -254h197l-174 168z" />
    <glyph glyph-name="uni21A4" unicode="&#x21a4;" horiz-adv-x="862" 
d="M352 -42l-311 313l311 312l83 -86l-175 -168h409v209h125v-538h-125v209h-405l171 -165z" />
    <glyph glyph-name="uni21A5" unicode="&#x21a5;" horiz-adv-x="674" 
d="M25 421l312 313l313 -313l-84 -82l-170 174v-391h199v-122h-527v122h209v390l-169 -173z" />
    <glyph glyph-name="uni21A6" unicode="&#x21a6;" horiz-adv-x="862" 
d="M510 583l311 -312l-311 -313l-83 86l171 165h-405v-209h-125v527h125v-198h408l-174 168z" />
    <glyph glyph-name="uni21A7" unicode="&#x21a7;" horiz-adv-x="674" 
d="M650 287l-313 -312l-312 312l83 83l169 -173v407h-209v121h527v-121h-199v-408l170 174z" />
    <glyph glyph-name="filledbox" unicode="&#x25a0;" horiz-adv-x="668" 
d="M603 0h-538v538h538v-538z" />
    <glyph glyph-name="H22073" unicode="&#x25a1;" horiz-adv-x="668" 
d="M603 0h-538v538h538v-538zM484 419h-300v-300h300v300z" />
    <glyph glyph-name="H18533" unicode="&#x25cf;" horiz-adv-x="654" 
d="M44 269q0 76 37 140.5t101.5 102.5t144.5 38t144.5 -38t101.5 -102.5t37 -140.5q0 -77 -37 -141.5t-101.5 -102.5t-144.5 -38t-144.5 38t-101.5 102.5t-37 141.5z" />
    <glyph glyph-name="onethird" unicode="&#x2153;" horiz-adv-x="815" 
d="M212 317h-107v273h-91v76q51 2 76 15t38 44h84v-408zM694 725l-518 -725h-137l518 725h137zM675 124q0 43 -80 43h-30v84h28q76 0 76 40q0 19 -19 27.5t-45 8.5q-24 0 -54 -8.5t-52 -20.5v92q20 10 55 17.5t71 7.5q66 0 110.5 -27.5t44.5 -80.5q0 -31 -16 -55.5
t-40 -36.5q29 -11 46 -38t17 -58q0 -61 -46.5 -93.5t-119.5 -32.5q-36 0 -69 6.5t-53 16.5v92q23 -12 52.5 -20t55.5 -8q30 0 49 10.5t19 33.5z" />
    <glyph glyph-name="twothirds" unicode="&#x2154;" horiz-adv-x="909" 
d="M319 615q0 -35 -16.5 -66t-47.5 -62.5t-90 -82.5h159v-87h-299v83l36 30q76 62 111 98.5t35 68.5q0 23 -17 35t-45 12q-25 0 -55 -9.5t-55 -23.5v91q21 12 57.5 21t72.5 9q72 0 113 -31t41 -86zM788 725l-518 -725h-137l518 725h137zM769 124q0 43 -80 43h-30v84h28
q76 0 76 40q0 19 -19 27.5t-45 8.5q-24 0 -54 -8.5t-52 -20.5v92q20 10 55 17.5t71 7.5q66 0 110.5 -27.5t44.5 -80.5q0 -31 -16 -55.5t-40 -36.5q29 -11 46 -38t17 -58q0 -61 -46.5 -93.5t-119.5 -32.5q-36 0 -69 6.5t-53 16.5v92q23 -12 52.5 -20t55.5 -8q30 0 49 10.5
t19 33.5z" />
    <glyph glyph-name="uni2155" unicode="&#x2155;" horiz-adv-x="812" 
d="M212 317h-107v273h-91v76q51 2 76 15t38 44h84v-408zM694 725l-518 -725h-137l518 725h137zM677 131q0 28 -25.5 40.5t-63.5 12.5q-46 0 -94 -17l29 242h246v-87h-165l-8 -63q26 4 44 4q62 0 105.5 -30.5t43.5 -100.5q0 -65 -49 -101.5t-124 -36.5q-36 0 -69.5 5.5
t-54.5 13.5v93q46 -24 103 -24q82 0 82 49z" />
    <glyph glyph-name="uni2159" unicode="&#x2159;" horiz-adv-x="833" 
d="M212 317h-107v273h-91v76q51 2 76 15t38 44h84v-408zM694 725l-518 -725h-137l518 725h137zM579 242q36 36 88 36q64 0 102.5 -38.5t38.5 -101.5q0 -65 -45.5 -104.5t-121.5 -39.5q-87 0 -129 52.5t-42 142.5q0 108 60.5 167t158.5 59q50 0 87 -10v-93q-41 18 -84 18
q-42 0 -74.5 -20t-38.5 -68zM641 76q26 0 43 17.5t17 45.5q0 27 -17 44.5t-43 17.5t-42.5 -17t-16.5 -45t16.5 -45.5t42.5 -17.5z" />
    <glyph glyph-name="oneeighth" unicode="&#x215b;" horiz-adv-x="842" 
d="M212 317h-107v273h-91v76q51 2 76 15t38 44h84v-408zM694 725l-518 -725h-137l518 725h137zM804 307q0 -26 -11.5 -49t-33.5 -38q57 -34 57 -99q0 -58 -47 -93t-121 -35q-75 0 -121.5 35t-46.5 93q0 65 56 99q-21 15 -32.5 38t-11.5 49q0 47 42 78t114 31t114 -31t42 -78
zM648 339q-23 0 -37.5 -12t-14.5 -32t14.5 -32t37.5 -12t37.5 12t14.5 32t-14.5 32t-37.5 12zM587 127q0 -23 16.5 -38t44.5 -15q27 0 43.5 14.5t16.5 38.5q0 23 -16.5 37.5t-43.5 14.5t-44 -14.5t-17 -37.5z" />
    <glyph glyph-name="uni2156" unicode="&#x2156;" horiz-adv-x="906" 
d="M319 615q0 -35 -16.5 -66t-47.5 -62.5t-90 -82.5h159v-87h-299v83l36 30q76 62 111 98.5t35 68.5q0 23 -17 35t-45 12q-25 0 -55 -9.5t-55 -23.5v91q21 12 57.5 21t72.5 9q72 0 113 -31t41 -86zM788 725l-518 -725h-137l518 725h137zM771 131q0 28 -25.5 40.5t-63.5 12.5
q-46 0 -94 -17l29 242h246v-87h-165l-8 -63q26 4 44 4q62 0 105.5 -30.5t43.5 -100.5q0 -65 -49 -101.5t-124 -36.5q-36 0 -69.5 5.5t-54.5 13.5v93q46 -24 103 -24q82 0 82 49z" />
    <glyph glyph-name="uni2157" unicode="&#x2157;" horiz-adv-x="885" 
d="M208 441q0 43 -80 43h-30v84h28q76 0 76 40q0 19 -19 27.5t-45 8.5q-24 0 -54 -8.5t-52 -20.5v92q20 10 55 17.5t71 7.5q66 0 110.5 -27.5t44.5 -80.5q0 -31 -16 -55.5t-40 -36.5q29 -11 46 -38t17 -58q0 -61 -46.5 -93.5t-119.5 -32.5q-36 0 -69 6.5t-53 16.5v92
q23 -12 52.5 -20t55.5 -8q30 0 49 10.5t19 33.5zM767 725l-518 -725h-137l518 725h137zM750 131q0 28 -25.5 40.5t-63.5 12.5q-46 0 -94 -17l29 242h246v-87h-165l-8 -63q26 4 44 4q62 0 105.5 -30.5t43.5 -100.5q0 -65 -49 -101.5t-124 -36.5q-36 0 -69.5 5.5t-54.5 13.5
v93q46 -24 103 -24q82 0 82 49z" />
    <glyph glyph-name="threeeighths" unicode="&#x215c;" horiz-adv-x="915" 
d="M208 441q0 43 -80 43h-30v84h28q76 0 76 40q0 19 -19 27.5t-45 8.5q-24 0 -54 -8.5t-52 -20.5v92q20 10 55 17.5t71 7.5q66 0 110.5 -27.5t44.5 -80.5q0 -31 -16 -55.5t-40 -36.5q29 -11 46 -38t17 -58q0 -61 -46.5 -93.5t-119.5 -32.5q-36 0 -69 6.5t-53 16.5v92
q23 -12 52.5 -20t55.5 -8q30 0 49 10.5t19 33.5zM767 725l-518 -725h-137l518 725h137zM877 307q0 -26 -11.5 -49t-33.5 -38q57 -34 57 -99q0 -58 -47 -93t-121 -35q-75 0 -121.5 35t-46.5 93q0 65 56 99q-21 15 -32.5 38t-11.5 49q0 47 42 78t114 31t114 -31t42 -78z
M721 339q-23 0 -37.5 -12t-14.5 -32t14.5 -32t37.5 -12t37.5 12t14.5 32t-14.5 32t-37.5 12zM660 127q0 -23 16.5 -38t44.5 -15q27 0 43.5 14.5t16.5 38.5q0 23 -16.5 37.5t-43.5 14.5t-44 -14.5t-17 -37.5z" />
    <glyph glyph-name="uni2158" unicode="&#x2158;" horiz-adv-x="940" 
d="M318 487h62v-87h-62v-83h-103v83h-200v81l205 244h98v-238zM215 487v114l-97 -114h97zM822 725l-518 -725h-137l518 725h137zM805 131q0 28 -25.5 40.5t-63.5 12.5q-46 0 -94 -17l29 242h246v-87h-165l-8 -63q26 4 44 4q62 0 105.5 -30.5t43.5 -100.5q0 -65 -49 -101.5
t-124 -36.5q-36 0 -69.5 5.5t-54.5 13.5v93q46 -24 103 -24q82 0 82 49z" />
    <glyph glyph-name="uni215A" unicode="&#x215a;" horiz-adv-x="908" 
d="M215 447q0 28 -25.5 40.5t-63.5 12.5q-46 0 -94 -17l29 242h246v-87h-165l-8 -63q26 4 44 4q62 0 105.5 -30.5t43.5 -100.5q0 -65 -49 -101.5t-124 -36.5q-36 0 -69.5 5.5t-54.5 13.5v93q46 -24 103 -24q82 0 82 49zM769 725l-518 -725h-137l518 725h137zM654 242
q36 36 88 36q64 0 102.5 -38.5t38.5 -101.5q0 -65 -45.5 -104.5t-121.5 -39.5q-87 0 -129 52.5t-42 142.5q0 108 60.5 167t158.5 59q50 0 87 -10v-93q-41 18 -84 18q-42 0 -74.5 -20t-38.5 -68zM716 76q26 0 43 17.5t17 45.5q0 27 -17 44.5t-43 17.5t-42.5 -17t-16.5 -45
t16.5 -45.5t42.5 -17.5z" />
    <glyph glyph-name="fiveeighths" unicode="&#x215d;" horiz-adv-x="917" 
d="M215 447q0 28 -25.5 40.5t-63.5 12.5q-46 0 -94 -17l29 242h246v-87h-165l-8 -63q26 4 44 4q62 0 105.5 -30.5t43.5 -100.5q0 -65 -49 -101.5t-124 -36.5q-36 0 -69.5 5.5t-54.5 13.5v93q46 -24 103 -24q82 0 82 49zM769 725l-518 -725h-137l518 725h137zM879 307
q0 -26 -11.5 -49t-33.5 -38q57 -34 57 -99q0 -58 -47 -93t-121 -35q-75 0 -121.5 35t-46.5 93q0 65 56 99q-21 15 -32.5 38t-11.5 49q0 47 42 78t114 31t114 -31t42 -78zM723 339q-23 0 -37.5 -12t-14.5 -32t14.5 -32t37.5 -12t37.5 12t14.5 32t-14.5 32t-37.5 12zM662 127
q0 -23 16.5 -38t44.5 -15q27 0 43.5 14.5t16.5 38.5q0 23 -16.5 37.5t-43.5 14.5t-44 -14.5t-17 -37.5z" />
    <glyph glyph-name="seveneighths" unicode="&#x215e;" horiz-adv-x="874" 
d="M15 638v87h322v-89q-80 -62 -117.5 -137t-38.5 -182h-122q1 100 48 184t121 137h-213zM726 725l-518 -725h-137l518 725h137zM836 307q0 -26 -11.5 -49t-33.5 -38q57 -34 57 -99q0 -58 -47 -93t-121 -35q-75 0 -121.5 35t-46.5 93q0 65 56 99q-21 15 -32.5 38t-11.5 49
q0 47 42 78t114 31t114 -31t42 -78zM680 339q-23 0 -37.5 -12t-14.5 -32t14.5 -32t37.5 -12t37.5 12t14.5 32t-14.5 32t-37.5 12zM619 127q0 -23 16.5 -38t44.5 -15q27 0 43.5 14.5t16.5 38.5q0 23 -16.5 37.5t-43.5 14.5t-44 -14.5t-17 -37.5z" />
    <glyph glyph-name="uni215F" unicode="&#x215f;" horiz-adv-x="495" 
d="M212 317h-107v273h-91v76q51 2 76 15t38 44h84v-408zM694 725l-518 -725h-137l518 725h137z" />
    <glyph glyph-name="fraction" unicode="&#x2044;" horiz-adv-x="260" 
d="M459 725l-518 -725h-137l518 725h137z" />
    <glyph glyph-name="a.superior" horiz-adv-x="344" 
d="M203 637q0 18 -18 26t-40 8q-48 0 -99 -23v78q58 20 113 20q149 0 149 -134l-1 -69q0 -77 4 -105h-97l-2 43q-28 -50 -90 -50q-45 0 -74.5 25t-29.5 65q0 54 44.5 78t140.5 38zM207 574v5q-46 -5 -67.5 -16.5t-21.5 -31.5q0 -16 10 -23.5t26 -7.5q22 0 37.5 20t15.5 54z
" />
    <glyph glyph-name="b.superior" horiz-adv-x="377" 
d="M39 438v408h104v-138q11 18 32.5 28.5t50.5 10.5q56 0 93 -43t37 -115q0 -73 -37.5 -115.5t-94.5 -42.5q-27 0 -48 9.5t-33 29.5v-32h-104zM194 509q26 0 40.5 22.5t14.5 57.5t-14.5 57t-40.5 22t-41 -21.5t-15 -57.5t15 -58t41 -22z" />
    <glyph glyph-name="c.superior" horiz-adv-x="281" 
d="M184 747q42 0 72 -8v-79q-30 9 -56 9q-32 0 -53.5 -20t-21.5 -60t21.5 -60t53.5 -20q30 0 57 10v-80q-38 -8 -73 -8q-72 0 -118 43t-46 115t46 115t118 43z" />
    <glyph glyph-name="d.superior" horiz-adv-x="377" 
d="M338 438h-104v32q-11 -17 -32.5 -28t-50.5 -11q-57 0 -93.5 43t-36.5 116t37 115t95 42q26 0 47.5 -10t33.5 -28v137h104v-408zM240 589q0 36 -15.5 57.5t-41.5 21.5t-40 -22t-14 -57t14.5 -57.5t39.5 -22.5q26 0 41.5 22t15.5 58z" />
    <glyph glyph-name="e.superior" horiz-adv-x="343" 
d="M299 530v-81q-44 -18 -110 -18q-76 0 -122.5 43t-46.5 114q0 73 43.5 116t117.5 43q75 0 110.5 -50.5t31.5 -136.5h-203q13 -51 86 -51q23 0 48 5.5t45 15.5zM118 623h115q-1 22 -16 38.5t-40 16.5q-27 0 -42 -14.5t-17 -40.5z" />
    <glyph glyph-name="f.superior" horiz-adv-x="236" 
d="M61 748q0 53 26.5 78.5t84.5 25.5q33 0 54 -7v-73q-11 5 -29 5q-35 0 -35 -27v-10h64v-73h-61v-229h-104v229h-40v73h40v8z" />
    <glyph glyph-name="g.superior" horiz-adv-x="378" 
d="M58 343v85q21 -11 48.5 -18.5t51.5 -7.5q40 0 58.5 15.5t18.5 50.5v14q-12 -17 -34 -28t-50 -11q-57 0 -93.5 40.5t-36.5 111.5q0 72 37 112t94 40q28 0 49.5 -10t33.5 -29v32h104v-260q0 -80 -47 -117.5t-119 -37.5q-29 0 -61.5 5t-53.5 13zM240 595q0 34 -15.5 53.5
t-41.5 19.5t-40.5 -20t-14.5 -53t14.5 -52.5t40.5 -19.5t41.5 19t15.5 53z" />
    <glyph glyph-name="h.superior" horiz-adv-x="376" 
d="M143 705q27 42 93 42q44 0 74 -26t30 -92v-191h-105v168q0 32 -11 45t-31 13q-50 0 -50 -71v-155h-104v408h104v-141z" />
    <glyph glyph-name="i.superior" horiz-adv-x="182" 
d="M39 765v81h104v-81h-104zM39 438v302h104v-302h-104z" />
    <glyph glyph-name="j.superior" horiz-adv-x="209" 
d="M65 765v81h105v-81h-105zM170 740v-314q0 -99 -96 -99q-28 0 -53 10v76q10 -5 22 -5q11 0 16.5 6.5t5.5 23.5v229h-49v73h154z" />
    <glyph glyph-name="k.superior" horiz-adv-x="360" 
d="M39 438v408h104v-237l91 131h115l-111 -146l132 -156h-133l-94 121v-121h-104z" />
    <glyph glyph-name="l.superior" horiz-adv-x="182" 
d="M39 846h104v-408h-104v408z" />
    <glyph glyph-name="m.superior" horiz-adv-x="561" 
d="M39 438v302h103v-34q30 41 89 41q35 0 56 -12.5t31 -38.5q18 25 43.5 38t62.5 13q54 0 78 -31q23 -29 23 -94v-184h-104v160q0 37 -10 52q-10 14 -30 14q-25 0 -36.5 -17.5t-11.5 -52.5v-156h-103v160q0 37 -9 51q-10 15 -31 15q-25 0 -36 -17t-11 -53v-156h-104z" />
    <glyph glyph-name="uni207F" unicode="&#x207f;" horiz-adv-x="376" 
d="M143 705q27 42 93 42q44 0 74 -26t30 -92v-191h-105v168q0 32 -11 45t-31 13q-50 0 -50 -71v-155h-104v302h104v-35z" />
    <glyph glyph-name="o.superior" horiz-adv-x="366" 
d="M20 589q0 77 46 117.5t116 40.5t116.5 -40.5t46.5 -117.5t-46 -117.5t-116 -40.5t-116.5 40.5t-46.5 117.5zM239 589q0 38 -15.5 59t-40.5 21t-41 -21t-16 -59q0 -39 16 -59.5t41 -20.5t40.5 20.5t15.5 59.5z" />
    <glyph glyph-name="p.superior" horiz-adv-x="377" 
d="M39 333v407h104v-32q11 18 32.5 28.5t50.5 10.5q56 0 93 -43t37 -115q0 -73 -37.5 -115.5t-94.5 -42.5q-27 0 -48 9.5t-33 29.5v-137h-104zM194 509q26 0 40.5 22.5t14.5 57.5t-14.5 57t-40.5 22t-41 -21.5t-15 -57.5t15 -58t41 -22z" />
    <glyph glyph-name="q.superior" horiz-adv-x="377" 
d="M338 333h-104v137q-12 -18 -33 -28.5t-50 -10.5q-57 0 -93.5 43t-36.5 116t37 115t95 42q26 0 47.5 -10t33.5 -29v32h104v-407zM239 589q0 36 -15 57.5t-41 21.5t-40.5 -22t-14.5 -57t14.5 -57.5t40.5 -22.5t41 22t15 58z" />
    <glyph glyph-name="r.superior" horiz-adv-x="250" 
d="M238 643q-18 2 -33 2q-31 0 -46.5 -13t-15.5 -48v-146h-104v302h101v-46q11 24 31.5 36t46.5 12q11 0 20 -3v-96z" />
    <glyph glyph-name="s.superior" horiz-adv-x="294" 
d="M27 447v81q55 -20 101 -20q50 0 50 21q0 8 -9 13.5t-32 10.5l-24 5q-44 10 -66.5 32t-22.5 59q0 49 38.5 73.5t97.5 24.5q51 0 90 -12v-81q-20 7 -43.5 11.5t-42.5 4.5q-43 0 -43 -17q0 -7 7 -11.5t28 -9.5l26 -6q48 -11 70.5 -32t22.5 -62q0 -45 -35.5 -73t-102.5 -28
q-28 0 -59.5 5t-50.5 11z" />
    <glyph glyph-name="t.superior" horiz-adv-x="260" 
d="M62 740v80h103v-80h70v-73h-70v-116q0 -20 8.5 -28t23.5 -8q20 0 38 10v-77q-27 -11 -67 -11q-58 0 -82 25t-24 87v118h-49v73h49z" />
    <glyph glyph-name="u.superior" horiz-adv-x="371" 
d="M229 475q-28 -45 -89 -45q-51 0 -77.5 28.5t-26.5 94.5v187h105v-178q0 -49 42 -49q46 0 46 71v156h103v-302h-103v37z" />
    <glyph glyph-name="v.superior" horiz-adv-x="332" 
d="M4 740h111l52 -195l55 195h106l-105 -302h-113z" />
    <glyph glyph-name="w.superior" horiz-adv-x="493" 
d="M118 740l34 -194l40 194h111l40 -194l35 194h108l-85 -302h-113l-40 186l-44 -186h-113l-84 302h111z" />
    <glyph glyph-name="x.superior" horiz-adv-x="348" 
d="M231 740h113l-112 -147l115 -155h-116l-59 78l-59 -78h-112l116 152l-112 150h117l54 -73z" />
    <glyph glyph-name="y.superior" horiz-adv-x="332" 
d="M329 740l-150 -407h-109l45 105l-111 302h111l52 -194l54 194h108z" />
    <glyph glyph-name="z.superior" horiz-adv-x="321" 
d="M299 438h-276v73l148 154h-144v75h266v-73l-149 -154h155v-75z" />
    <glyph glyph-name="uni2074" unicode="&#x2074;" horiz-adv-x="401" 
d="M318 608h62v-87h-62v-83h-103v83h-200v81l205 244h98v-238zM215 608v114l-97 -114h97z" />
    <glyph glyph-name="uni2075" unicode="&#x2075;" horiz-adv-x="350" 
d="M215 569q0 29 -25.5 41.5t-63.5 12.5q-46 0 -94 -17l29 240h246v-87h-164l-8 -61q26 4 43 4q62 0 105.5 -30.5t43.5 -102.5q0 -65 -49 -101.5t-124 -36.5q-36 0 -69.5 5.5t-54.5 13.5v93q48 -24 103 -24q82 0 82 50z" />
    <glyph glyph-name="uni2076" unicode="&#x2076;" horiz-adv-x="389" 
d="M136 680q35 35 88 35q64 0 102.5 -38t38.5 -101q0 -65 -45.5 -105t-121.5 -40q-88 0 -129.5 52.5t-41.5 143.5q0 108 60.5 167t158.5 59q44 0 87 -10v-94q-40 19 -84 19q-42 0 -74.5 -20t-38.5 -68zM198 513q26 0 43 17.5t17 45.5q0 27 -17 44.5t-43 17.5t-42.5 -17
t-16.5 -45t16.5 -45.5t42.5 -17.5z" />
    <glyph glyph-name="uni2077" unicode="&#x2077;" horiz-adv-x="349" 
d="M15 758v88h322v-89q-80 -62 -117.5 -137t-38.5 -182h-122q1 100 48.5 184t120.5 136h-213z" />
    <glyph glyph-name="uni2078" unicode="&#x2078;" horiz-adv-x="388" 
d="M350 744q0 -26 -11.5 -49t-33.5 -38q57 -34 57 -99q0 -58 -47 -93t-121 -35q-75 0 -121.5 35t-46.5 93q0 65 56 99q-21 15 -32.5 38t-11.5 49q0 47 42 78t114 31t114 -31t42 -78zM194 776q-23 0 -37.5 -12t-14.5 -32t14.5 -32t37.5 -12t37.5 12t14.5 32t-14.5 32
t-37.5 12zM133 564q0 -23 16.5 -38t44.5 -15q27 0 43.5 14.5t16.5 38.5q0 23 -16.5 37.5t-43.5 14.5t-44 -14.5t-17 -37.5z" />
    <glyph glyph-name="uni2079" unicode="&#x2079;" horiz-adv-x="388" 
d="M254 605q-38 -36 -89 -36q-64 0 -102.5 38.5t-38.5 100.5q0 65 45.5 105t121.5 40q88 0 129.5 -52.5t41.5 -143.5q0 -108 -60.5 -167t-158.5 -59q-46 0 -87 11v93q38 -18 84 -18q42 0 74.5 19.5t39.5 68.5zM191 771q-26 0 -43 -17.5t-17 -45.5q0 -27 17 -44.5t43 -17.5
t43 17.5t17 44.5q0 28 -17 45.5t-43 17.5z" />
    <glyph glyph-name="uni2070" unicode="&#x2070;" horiz-adv-x="404" 
d="M27 641q0 100 45 156t130 56q84 0 129.5 -56t45.5 -156q0 -99 -45.5 -155t-129.5 -56q-85 0 -130 56t-45 155zM263 641q0 66 -15 96.5t-46 30.5q-32 0 -47.5 -30.5t-15.5 -96.5q0 -65 15 -95t48 -30q31 0 46 30t15 95z" />
    <glyph glyph-name="uni2070.aalt" horiz-adv-x="404" 
d="M27 640q0 100 45 156t131 56q84 0 129 -56.5t45 -155.5t-45 -155t-129 -56q-86 0 -131 56t-45 155zM139 649l120 53q-12 65 -57 65q-63 0 -63 -114v-4zM263 628v4l-119 -53q12 -64 59 -64q60 0 60 113z" />
    <glyph glyph-name="period.superior" horiz-adv-x="188" 
d="M151 548v-110h-114v110h114z" />
    <glyph glyph-name="hyphen.superior" horiz-adv-x="279" 
d="M242 635v-91h-205v91h205z" />
    <glyph glyph-name="comma.superior" horiz-adv-x="191" 
d="M73 438h-34v110h114v-116l-51 -89h-72z" />
    <glyph glyph-name="uni207C" unicode="&#x207c;" horiz-adv-x="401" 
d="M364 723v-91h-327v91h327zM364 545v-91h-327v91h327z" />
    <glyph glyph-name="uni207A" unicode="&#x207a;" horiz-adv-x="381" 
d="M238 544v-107h-94v107h-117v90h117v107h94v-107h116v-90h-116z" />
    <glyph glyph-name="uni207B" unicode="&#x207b;" horiz-adv-x="401" 
d="M37 544v90h327v-90h-327z" />
    <glyph glyph-name="uni207D" unicode="&#x207d;" horiz-adv-x="233" 
d="M111 846h101q-33 -52 -54 -121.5t-21 -133.5q0 -66 21 -137t54 -123h-101q-30 45 -54.5 116t-24.5 144q0 72 24 141t55 114z" />
    <glyph glyph-name="uni207E" unicode="&#x207e;" horiz-adv-x="233" 
d="M122 331h-101q33 51 54 122.5t21 137.5q0 65 -21 134t-54 121h101q31 -45 55 -114t24 -141q0 -73 -24.5 -144t-54.5 -116z" />
    <glyph glyph-name="a.inferior" horiz-adv-x="343" 
d="M203 71q0 18 -18 26t-40 8q-48 0 -99 -23v78q58 20 113 20q149 0 149 -134l-1 -69q0 -77 4 -105h-97l-2 43q-28 -50 -90 -50q-45 0 -74.5 25t-29.5 65q0 54 44.5 78t140.5 38zM207 8v5q-46 -5 -67.5 -16.5t-21.5 -31.5q0 -16 10 -23.5t26 -7.5q22 0 37.5 20t15.5 54z" />
    <glyph glyph-name="b.inferior" horiz-adv-x="377" 
d="M39 -128v408h104v-138q11 18 32.5 28.5t50.5 10.5q56 0 93 -43t37 -115q0 -73 -37.5 -115.5t-94.5 -42.5q-27 0 -48 9.5t-33 29.5v-32h-104zM194 -57q26 0 40.5 22.5t14.5 57.5t-14.5 57t-40.5 22t-41 -21.5t-15 -57.5t15 -58t41 -22z" />
    <glyph glyph-name="c.inferior" horiz-adv-x="281" 
d="M184 181q42 0 72 -8v-79q-30 9 -56 9q-32 0 -53.5 -20t-21.5 -60t21.5 -60t53.5 -20q30 0 57 10v-80q-38 -8 -73 -8q-72 0 -118 43t-46 115t46 115t118 43z" />
    <glyph glyph-name="d.inferior" horiz-adv-x="377" 
d="M338 -128h-104v32q-11 -17 -32.5 -28t-50.5 -11q-57 0 -93.5 43t-36.5 116t37 115t95 42q26 0 47.5 -10t33.5 -28v137h104v-408zM240 23q0 36 -15.5 57.5t-41.5 21.5t-40 -22t-14 -57t14.5 -57.5t39.5 -22.5q26 0 41.5 22t15.5 58z" />
    <glyph glyph-name="e.inferior" horiz-adv-x="343" 
d="M299 -36v-81q-44 -18 -110 -18q-76 0 -122.5 43t-46.5 114q0 73 43.5 116t117.5 43q75 0 110.5 -50.5t31.5 -136.5h-203q13 -51 86 -51q23 0 48 5.5t45 15.5zM118 57h115q-1 22 -16 38.5t-40 16.5q-27 0 -42 -14.5t-17 -40.5z" />
    <glyph glyph-name="f.inferior" horiz-adv-x="236" 
d="M61 182q0 53 26.5 78.5t84.5 25.5q33 0 54 -7v-73q-11 5 -29 5q-35 0 -35 -27v-10h64v-73h-61v-229h-104v229h-40v73h40v8z" />
    <glyph glyph-name="g.inferior" horiz-adv-x="378" 
d="M58 -223v85q21 -11 48.5 -18.5t51.5 -7.5q40 0 58.5 15.5t18.5 50.5v14q-12 -17 -34 -28t-50 -11q-57 0 -93.5 40.5t-36.5 111.5q0 72 37 112t94 40q28 0 49.5 -10t33.5 -29v32h104v-260q0 -80 -47 -117.5t-119 -37.5q-29 0 -61.5 5t-53.5 13zM240 29q0 34 -15.5 53.5
t-41.5 19.5t-40.5 -20t-14.5 -53t14.5 -52.5t40.5 -19.5t41.5 19t15.5 53z" />
    <glyph glyph-name="h.inferior" horiz-adv-x="376" 
d="M143 139q27 42 93 42q44 0 74 -26t30 -92v-191h-105v168q0 32 -11 45t-31 13q-50 0 -50 -71v-155h-104v408h104v-141z" />
    <glyph glyph-name="i.inferior" horiz-adv-x="182" 
d="M39 199v81h104v-81h-104zM39 -128v302h104v-302h-104z" />
    <glyph glyph-name="j.inferior" horiz-adv-x="209" 
d="M65 199v81h105v-81h-105zM170 174v-314q0 -99 -96 -99q-28 0 -53 10v76q10 -5 22 -5q11 0 16.5 6.5t5.5 23.5v229h-49v73h154z" />
    <glyph glyph-name="k.inferior" horiz-adv-x="361" 
d="M39 -128v408h104v-237l91 131h115l-111 -146l132 -156h-133l-94 121v-121h-104z" />
    <glyph glyph-name="l.inferior" horiz-adv-x="182" 
d="M39 280h104v-408h-104v408z" />
    <glyph glyph-name="m.inferior" horiz-adv-x="561" 
d="M39 -128v302h103v-34q30 41 89 41q35 0 56 -12.5t31 -38.5q18 25 43.5 38t62.5 13q54 0 78 -31q23 -29 23 -94v-184h-104v160q0 37 -10 52q-10 14 -30 14q-25 0 -36.5 -17.5t-11.5 -52.5v-156h-103v160q0 37 -9 51q-10 15 -31 15q-25 0 -36 -17t-11 -53v-156h-104z" />
    <glyph glyph-name="n.inferior" horiz-adv-x="376" 
d="M143 139q27 42 93 42q44 0 74 -26t30 -92v-191h-105v168q0 32 -11 45t-31 13q-50 0 -50 -71v-155h-104v302h104v-35z" />
    <glyph glyph-name="o.inferior" horiz-adv-x="365" 
d="M20 23q0 77 46 117.5t116 40.5t116.5 -40.5t46.5 -117.5t-46 -117.5t-116 -40.5t-116.5 40.5t-46.5 117.5zM239 23q0 38 -15.5 59t-40.5 21t-41 -21t-16 -59q0 -39 16 -59.5t41 -20.5t40.5 20.5t15.5 59.5z" />
    <glyph glyph-name="p.inferior" horiz-adv-x="377" 
d="M39 -233v407h104v-32q11 18 32.5 28.5t50.5 10.5q56 0 93 -43t37 -115q0 -73 -37.5 -115.5t-94.5 -42.5q-27 0 -48 9.5t-33 29.5v-137h-104zM194 -57q26 0 40.5 22.5t14.5 57.5t-14.5 57t-40.5 22t-41 -21.5t-15 -57.5t15 -58t41 -22z" />
    <glyph glyph-name="q.inferior" horiz-adv-x="377" 
d="M338 -233h-104v137q-12 -18 -33 -28.5t-50 -10.5q-57 0 -93.5 43t-36.5 116t37 115t95 42q26 0 47.5 -10t33.5 -29v32h104v-407zM239 23q0 36 -15 57.5t-41 21.5t-40.5 -22t-14.5 -57t14.5 -57.5t40.5 -22.5t41 22t15 58z" />
    <glyph glyph-name="r.inferior" horiz-adv-x="250" 
d="M238 77q-18 2 -33 2q-31 0 -46.5 -13t-15.5 -48v-146h-104v302h101v-46q11 24 31.5 36t46.5 12q11 0 20 -3v-96z" />
    <glyph glyph-name="s.inferior" horiz-adv-x="294" 
d="M27 -119v81q55 -20 101 -20q50 0 50 21q0 8 -9 13.5t-32 10.5l-24 5q-44 10 -66.5 32t-22.5 59q0 49 38.5 73.5t97.5 24.5q51 0 90 -12v-81q-20 7 -43.5 11.5t-42.5 4.5q-43 0 -43 -17q0 -7 7 -11.5t28 -9.5l26 -6q48 -11 70.5 -32t22.5 -62q0 -45 -35.5 -73t-102.5 -28
q-28 0 -59.5 5t-50.5 11z" />
    <glyph glyph-name="t.inferior" horiz-adv-x="259" 
d="M62 174v80h103v-80h70v-73h-70v-116q0 -20 8.5 -28t23.5 -8q20 0 38 10v-77q-27 -11 -67 -11q-58 0 -82 25t-24 87v118h-49v73h49z" />
    <glyph glyph-name="u.inferior" horiz-adv-x="371" 
d="M229 -91q-28 -45 -89 -45q-51 0 -77.5 28.5t-26.5 94.5v187h105v-178q0 -49 42 -49q46 0 46 71v156h103v-302h-103v37z" />
    <glyph glyph-name="v.inferior" horiz-adv-x="332" 
d="M4 174h111l52 -195l55 195h106l-105 -302h-113z" />
    <glyph glyph-name="w.inferior" horiz-adv-x="493" 
d="M118 174l34 -194l40 194h111l40 -194l35 194h108l-85 -302h-113l-40 186l-44 -186h-113l-84 302h111z" />
    <glyph glyph-name="x.inferior" horiz-adv-x="348" 
d="M231 174h113l-112 -147l115 -155h-116l-59 78l-59 -78h-112l116 152l-112 150h117l54 -73z" />
    <glyph glyph-name="y.inferior" horiz-adv-x="331" 
d="M329 174l-150 -407h-109l45 105l-111 302h111l52 -194l54 194h108z" />
    <glyph glyph-name="z.inferior" horiz-adv-x="321" 
d="M299 -128h-276v73l148 154h-144v75h266v-73l-149 -154h155v-75z" />
    <glyph glyph-name="uni2081" unicode="&#x2081;" horiz-adv-x="349" 
d="M238 -42h100v-86h-311v86h104v187h-96v76q54 2 80 15t39 44h84v-322z" />
    <glyph glyph-name="uni2082" unicode="&#x2082;" horiz-adv-x="353" 
d="M320 170q0 -50 -34 -93t-120 -117h159v-88h-299v84q9 7 18 15t19 15q76 63 110.5 98.5t34.5 67.5q0 23 -17 35t-45 12q-25 0 -55 -9.5t-55 -23.5v91q21 12 57.5 21t72.5 9q72 0 113 -31t41 -86z" />
    <glyph glyph-name="uni2083" unicode="&#x2083;" horiz-adv-x="348" 
d="M208 -3q0 22 -21.5 32t-58.5 10h-30v85h28q76 0 76 39q0 19 -19 27.5t-45 8.5q-24 0 -54 -8.5t-52 -20.5v92q20 10 55 17.5t71 7.5q66 0 110.5 -27.5t44.5 -79.5q0 -32 -16 -56.5t-40 -35.5q29 -12 46 -39.5t17 -57.5q0 -61 -46.5 -93.5t-119.5 -32.5q-37 0 -69.5 6.5
t-52.5 17.5v92q23 -12 52.5 -20t55.5 -8q30 0 49 10.5t19 33.5z" />
    <glyph glyph-name="uni2084" unicode="&#x2084;" horiz-adv-x="401" 
d="M318 42h62v-87h-62v-83h-103v83h-200v81l205 244h98v-238zM215 42v114l-97 -114h97z" />
    <glyph glyph-name="uni2085" unicode="&#x2085;" horiz-adv-x="350" 
d="M215 3q0 29 -25.5 41.5t-63.5 12.5q-46 0 -94 -17l29 240h246v-87h-164l-8 -61q26 4 43 4q62 0 105.5 -30.5t43.5 -102.5q0 -65 -49 -101.5t-124 -36.5q-36 0 -69.5 5.5t-54.5 13.5v93q48 -24 103 -24q82 0 82 50z" />
    <glyph glyph-name="uni2086" unicode="&#x2086;" horiz-adv-x="390" 
d="M136 114q35 35 88 35q64 0 102.5 -38t38.5 -101q0 -65 -45.5 -105t-121.5 -40q-88 0 -129.5 52.5t-41.5 143.5q0 108 60.5 167t158.5 59q44 0 87 -10v-94q-40 19 -84 19q-42 0 -74.5 -20t-38.5 -68zM198 -53q26 0 43 17.5t17 45.5q0 27 -17 44.5t-43 17.5t-42.5 -17
t-16.5 -45t16.5 -45.5t42.5 -17.5z" />
    <glyph glyph-name="uni2087" unicode="&#x2087;" horiz-adv-x="350" 
d="M16 192v88h322v-89q-80 -62 -117.5 -137t-38.5 -182h-122q1 100 48.5 184t120.5 136h-213z" />
    <glyph glyph-name="uni2088" unicode="&#x2088;" horiz-adv-x="388" 
d="M350 178q0 -26 -11.5 -49t-33.5 -38q57 -34 57 -99q0 -58 -47 -93t-121 -35q-75 0 -121.5 35t-46.5 93q0 65 56 99q-21 15 -32.5 38t-11.5 49q0 47 42 78t114 31t114 -31t42 -78zM194 210q-23 0 -37.5 -12t-14.5 -32t14.5 -32t37.5 -12t37.5 12t14.5 32t-14.5 32
t-37.5 12zM133 -2q0 -23 16.5 -38t44.5 -15q27 0 43.5 14.5t16.5 38.5q0 23 -16.5 37.5t-43.5 14.5t-44 -14.5t-17 -37.5z" />
    <glyph glyph-name="uni2089" unicode="&#x2089;" horiz-adv-x="389" 
d="M255 39q-38 -36 -89 -36q-64 0 -102.5 38.5t-38.5 100.5q0 65 45.5 105t121.5 40q88 0 129.5 -52.5t41.5 -143.5q0 -108 -60.5 -167t-158.5 -59q-46 0 -87 11v93q38 -18 84 -18q42 0 74.5 19.5t39.5 68.5zM192 205q-26 0 -43 -17.5t-17 -45.5q0 -27 17 -44.5t43 -17.5
t43 17.5t17 44.5q0 28 -17 45.5t-43 17.5z" />
    <glyph glyph-name="uni2080" unicode="&#x2080;" horiz-adv-x="404" 
d="M27 75q0 100 45 156t130 56q84 0 129.5 -56t45.5 -156q0 -99 -45.5 -155t-129.5 -56q-85 0 -130 56t-45 155zM263 75q0 66 -15 96.5t-46 30.5q-32 0 -47.5 -30.5t-15.5 -96.5q0 -65 15 -95t48 -30q31 0 46 30t15 95z" />
    <glyph glyph-name="uni2080.aalt" horiz-adv-x="404" 
d="M27 74q0 100 45 156t131 56q84 0 129 -56.5t45 -155.5t-45 -155t-129 -56q-86 0 -131 56t-45 155zM139 83l120 53q-12 65 -57 65q-63 0 -63 -114v-4zM263 62v4l-119 -53q12 -64 59 -64q60 0 60 113z" />
    <glyph glyph-name="period.inferior" horiz-adv-x="188" 
d="M151 -18v-110h-114v110h114z" />
    <glyph glyph-name="hyphen.inferior" horiz-adv-x="279" 
d="M242 69v-91h-205v91h205z" />
    <glyph glyph-name="comma.inferior" horiz-adv-x="191" 
d="M73 -128h-34v110h114v-116l-51 -89h-72z" />
    <glyph glyph-name="equal.inferior" horiz-adv-x="403" 
d="M365 157v-91h-327v91h327zM365 -21v-91h-327v91h327z" />
    <glyph glyph-name="plus.inferior" horiz-adv-x="381" 
d="M238 -22v-107h-94v107h-117v90h117v107h94v-107h116v-90h-116z" />
    <glyph glyph-name="minus.inferior" horiz-adv-x="401" 
d="M37 -22v90h327v-90h-327z" />
    <glyph glyph-name="uni208D" unicode="&#x208d;" horiz-adv-x="234" 
d="M111 280h101q-33 -52 -54 -121.5t-21 -133.5q0 -66 21 -137t54 -123h-101q-30 45 -54.5 116t-24.5 144q0 72 24 141t55 114z" />
    <glyph glyph-name="uni208E" unicode="&#x208e;" horiz-adv-x="234" 
d="M123 -235h-101q33 51 54 122.5t21 137.5q0 65 -21 134t-54 121h101q31 -45 55 -114t24 -141q0 -73 -24.5 -144t-54.5 -116z" />
    <glyph glyph-name="one.numr" horiz-adv-x="262" 
d="M212 317h-107v273h-91v76q51 2 76 15t38 44h84v-408z" />
    <glyph glyph-name="two.numr" horiz-adv-x="353" 
d="M319 615q0 -35 -16.5 -66t-47.5 -62.5t-90 -82.5h159v-87h-299v83l36 30q76 62 111 98.5t35 68.5q0 23 -17 35t-45 12q-25 0 -55 -9.5t-55 -23.5v91q21 12 57.5 21t72.5 9q72 0 113 -31t41 -86z" />
    <glyph glyph-name="three.numr" horiz-adv-x="348" 
d="M208 441q0 43 -80 43h-30v84h28q76 0 76 40q0 19 -19 27.5t-45 8.5q-24 0 -54 -8.5t-52 -20.5v92q20 10 55 17.5t71 7.5q66 0 110.5 -27.5t44.5 -80.5q0 -31 -16 -55.5t-40 -36.5q29 -11 46 -38t17 -58q0 -61 -46.5 -93.5t-119.5 -32.5q-36 0 -69 6.5t-53 16.5v92
q23 -12 52.5 -20t55.5 -8q30 0 49 10.5t19 33.5z" />
    <glyph glyph-name="four.numr" horiz-adv-x="401" 
d="M318 487h62v-87h-62v-83h-103v83h-200v81l205 244h98v-238zM215 487v114l-97 -114h97z" />
    <glyph glyph-name="five.numr" horiz-adv-x="350" 
d="M215 447q0 28 -25.5 40.5t-63.5 12.5q-46 0 -94 -17l29 242h246v-87h-165l-8 -63q26 4 44 4q62 0 105.5 -30.5t43.5 -100.5q0 -65 -49 -101.5t-124 -36.5q-36 0 -69.5 5.5t-54.5 13.5v93q46 -24 103 -24q82 0 82 49z" />
    <glyph glyph-name="six.numr" horiz-adv-x="390" 
d="M136 558q36 36 88 36q64 0 102.5 -38.5t38.5 -101.5q0 -65 -45.5 -104.5t-121.5 -39.5q-87 0 -129 52.5t-42 142.5q0 108 60.5 167t158.5 59q50 0 87 -10v-93q-41 18 -84 18q-42 0 -74.5 -20t-38.5 -68zM198 392q26 0 43 17.5t17 45.5q0 27 -17 44.5t-43 17.5t-42.5 -17
t-16.5 -45t16.5 -45.5t42.5 -17.5z" />
    <glyph glyph-name="seven.numr" horiz-adv-x="349" 
d="M15 638v87h322v-89q-80 -62 -117.5 -137t-38.5 -182h-122q1 100 48 184t121 137h-213z" />
    <glyph glyph-name="eight.numr" horiz-adv-x="388" 
d="M350 623q0 -26 -11.5 -49t-33.5 -38q57 -34 57 -99q0 -58 -47 -93t-121 -35q-75 0 -121.5 35t-46.5 93q0 65 56 99q-21 15 -32.5 38t-11.5 49q0 47 42 78t114 31t114 -31t42 -78zM194 655q-23 0 -37.5 -12t-14.5 -32t14.5 -32t37.5 -12t37.5 12t14.5 32t-14.5 32
t-37.5 12zM133 443q0 -23 16.5 -38t44.5 -15q27 0 43.5 14.5t16.5 38.5q0 23 -16.5 37.5t-43.5 14.5t-44 -14.5t-17 -37.5z" />
    <glyph glyph-name="nine.numr" horiz-adv-x="390" 
d="M255 483q-37 -35 -89 -35q-64 0 -102.5 38t-38.5 101q0 65 45.5 104.5t121.5 39.5q88 0 129.5 -52.5t41.5 -142.5q0 -108 -60.5 -167t-158.5 -59q-50 0 -87 10v93q41 -18 84 -18q41 0 74 20t40 68zM192 649q-26 0 -43 -17.5t-17 -44.5q0 -28 17 -45.5t43 -17.5t43 17.5
t17 45.5q0 27 -17 44.5t-43 17.5z" />
    <glyph glyph-name="zero.numr" horiz-adv-x="404" 
d="M27 520q0 100 45 156t130 56q84 0 129.5 -56t45.5 -156q0 -99 -45.5 -155t-129.5 -56q-85 0 -130 56t-45 155zM263 520q0 66 -15 96.5t-46 30.5q-32 0 -47.5 -30.5t-15.5 -96.5q0 -65 15 -95t48 -30q31 0 46 30t15 95z" />
    <glyph glyph-name="zero.numr.zero" horiz-adv-x="404" 
d="M27 520q0 100 45 156t131 56q84 0 129 -56.5t45 -155.5t-45 -155t-129 -56q-86 0 -131 56t-45 155zM139 529l120 53q-12 65 -57 65q-63 0 -63 -114v-4zM263 508v4l-119 -53q12 -64 59 -64q60 0 60 113z" />
    <glyph glyph-name="one.dnom" horiz-adv-x="262" 
d="M212 1h-107v273h-91v76q51 2 76 15t38 44h84v-408z" />
    <glyph glyph-name="two.dnom" horiz-adv-x="353" 
d="M319 299q0 -35 -16.5 -66t-47.5 -62.5t-90 -82.5h159v-87h-299v83l36 30q76 62 111 98.5t35 68.5q0 23 -17 35t-45 12q-25 0 -55 -9.5t-55 -23.5v91q21 12 57.5 21t72.5 9q72 0 113 -31t41 -86z" />
    <glyph glyph-name="three.dnom" horiz-adv-x="348" 
d="M208 124q0 43 -80 43h-30v84h28q76 0 76 40q0 19 -19 27.5t-45 8.5q-24 0 -54 -8.5t-52 -20.5v92q20 10 55 17.5t71 7.5q66 0 110.5 -27.5t44.5 -80.5q0 -31 -16 -55.5t-40 -36.5q29 -11 46 -38t17 -58q0 -61 -46.5 -93.5t-119.5 -32.5q-36 0 -69 6.5t-53 16.5v92
q23 -12 52.5 -20t55.5 -8q30 0 49 10.5t19 33.5z" />
    <glyph glyph-name="four.dnom" horiz-adv-x="401" 
d="M318 171h62v-87h-62v-83h-103v83h-200v81l205 244h98v-238zM215 171v114l-97 -114h97z" />
    <glyph glyph-name="five.dnom" horiz-adv-x="350" 
d="M215 131q0 28 -25.5 40.5t-63.5 12.5q-46 0 -94 -17l29 242h246v-87h-165l-8 -63q26 4 44 4q62 0 105.5 -30.5t43.5 -100.5q0 -65 -49 -101.5t-124 -36.5q-36 0 -69.5 5.5t-54.5 13.5v93q46 -24 103 -24q82 0 82 49z" />
    <glyph glyph-name="six.dnom" horiz-adv-x="390" 
d="M136 242q36 36 88 36q64 0 102.5 -38.5t38.5 -101.5q0 -65 -45.5 -104.5t-121.5 -39.5q-87 0 -129 52.5t-42 142.5q0 108 60.5 167t158.5 59q50 0 87 -10v-93q-41 18 -84 18q-42 0 -74.5 -20t-38.5 -68zM198 76q26 0 43 17.5t17 45.5q0 27 -17 44.5t-43 17.5t-42.5 -17
t-16.5 -45t16.5 -45.5t42.5 -17.5z" />
    <glyph glyph-name="seven.dnom" horiz-adv-x="349" 
d="M15 322v87h322v-89q-80 -62 -117.5 -137t-38.5 -182h-122q1 100 48 184t121 137h-213z" />
    <glyph glyph-name="eight.dnom" horiz-adv-x="388" 
d="M350 307q0 -26 -11.5 -49t-33.5 -38q57 -34 57 -99q0 -58 -47 -93t-121 -35q-75 0 -121.5 35t-46.5 93q0 65 56 99q-21 15 -32.5 38t-11.5 49q0 47 42 78t114 31t114 -31t42 -78zM194 339q-23 0 -37.5 -12t-14.5 -32t14.5 -32t37.5 -12t37.5 12t14.5 32t-14.5 32
t-37.5 12zM133 127q0 -23 16.5 -38t44.5 -15q27 0 43.5 14.5t16.5 38.5q0 23 -16.5 37.5t-43.5 14.5t-44 -14.5t-17 -37.5z" />
    <glyph glyph-name="nine.dnom" horiz-adv-x="390" 
d="M255 167q-37 -35 -89 -35q-64 0 -102.5 38t-38.5 101q0 65 45.5 104.5t121.5 39.5q88 0 129.5 -52.5t41.5 -142.5q0 -108 -60.5 -167t-158.5 -59q-50 0 -87 10v93q41 -18 84 -18q41 0 74 20t40 68zM192 333q-26 0 -43 -17.5t-17 -44.5q0 -28 17 -45.5t43 -17.5t43 17.5
t17 45.5q0 27 -17 44.5t-43 17.5z" />
    <glyph glyph-name="zero.dnom" horiz-adv-x="404" 
d="M27 204q0 100 45 156t130 56q84 0 129.5 -56t45.5 -156q0 -99 -45.5 -155t-129.5 -56q-85 0 -130 56t-45 155zM263 204q0 66 -15 96.5t-46 30.5q-32 0 -47.5 -30.5t-15.5 -96.5q0 -65 15 -95t48 -30q31 0 46 30t15 95z" />
    <glyph glyph-name="zero.dnom.zero" horiz-adv-x="404" 
d="M27 204q0 100 45 156t131 56q84 0 129 -56.5t45 -155.5t-45 -155t-129 -56q-86 0 -131 56t-45 155zM139 213l120 53q-12 65 -57 65q-63 0 -63 -114v-4zM263 192v4l-119 -53q12 -64 59 -64q60 0 60 113z" />
    <glyph glyph-name="ampersand.aalt" horiz-adv-x="729" 
d="M751 0h-184l-70 75q-52 -45 -106.5 -66.5t-116.5 -21.5q-72 0 -128 28t-87 77t-31 110q0 71 42.5 123t117.5 85q-36 43 -53 79.5t-17 72.5q0 49 27 89.5t74.5 63.5t107.5 23q51 0 96.5 -16.5t75 -52.5t29.5 -93t-35.5 -105.5t-102.5 -84.5l103 -110q23 74 26 131h136
q-12 -109 -75 -225zM260 571q0 -25 14.5 -50t48.5 -63q43 26 58.5 54t15.5 58q0 32 -19.5 50.5t-48.5 18.5t-49 -18t-20 -50zM420 158l-158 171q-49 -26 -71 -55t-22 -67q0 -49 34 -79t88 -30q35 0 66 14t63 46z" />
    <glyph glyph-name="hyphen.case" horiz-adv-x="451" 
d="M396 424v-124h-341v124h341z" />
    <glyph glyph-name="endash.aalt" horiz-adv-x="554" 
d="M500 422v-120h-446v120h446z" />
    <glyph glyph-name="emdash.aalt" horiz-adv-x="794" 
d="M740 422v-120h-686v120h686z" />
    <glyph glyph-name="question.aalt" horiz-adv-x="511" 
d="M31 572v127q35 16 93 27.5t112 11.5q62 0 119 -21t93 -62.5t36 -99.5q0 -63 -34 -109t-84 -75q-37 -21 -55.5 -36.5t-28.5 -38t-10 -57.5v-25h-141v28q0 70 25.5 110.5t81.5 73.5q53 31 78.5 58t25.5 61q0 39 -36 57t-88 18q-43 0 -94 -13.5t-93 -34.5zM275 150v-150
h-148v150h148z" />
    <glyph glyph-name="questiondown.aalt" horiz-adv-x="512" 
d="M385 725v-150h-148v150h148zM28 170q0 63 34 109t84 75q37 21 55.5 36.5t28.5 38t10 57.5v25h141v-28q0 -70 -25.5 -110.5t-81.5 -73.5q-53 -31 -78.5 -58t-25.5 -61q0 -39 36.5 -57t87.5 -18q43 0 94 13.5t93 34.5v-127q-35 -16 -93 -27.5t-112 -11.5q-62 0 -119 21
t-93 62.5t-36 99.5z" />
    <glyph glyph-name="exclam.aalt" horiz-adv-x="282" 
d="M220 539l-32 -325h-94l-32 325v186h158v-186zM215 150v-150h-148v150h148z" />
    <glyph glyph-name="exclamdown.aalt" horiz-adv-x="282" 
d="M215 725v-150h-148v150h148zM62 186l32 325h94l32 -325v-186h-158v186z" />
    <glyph glyph-name="guilsinglleft.aalt" horiz-adv-x="359" 
d="M323 138h-125l-159 230l159 229h125l-125 -229z" />
    <glyph glyph-name="guilsinglright.aalt" horiz-adv-x="358" 
d="M160 597l159 -229l-159 -230h-124l124 230l-124 229h124z" />
    <glyph glyph-name="guillemotleft.aalt" horiz-adv-x="578" 
d="M323 138h-125l-159 230l159 229h125l-125 -229zM542 138h-125l-159 230l159 229h125l-125 -229z" />
    <glyph glyph-name="guillemotright.aalt" horiz-adv-x="578" 
d="M160 597l159 -229l-159 -230h-124l124 230l-124 229h124zM380 597l159 -229l-159 -230h-124l124 230l-124 229h124z" />
    <glyph glyph-name="parenleft.case" horiz-adv-x="325" 
d="M155 725h137q-53 -87 -80 -174.5t-27 -187.5q0 -101 27 -188.5t80 -174.5h-137q-116 173 -116 363q0 191 116 362z" />
    <glyph glyph-name="parenright.case" horiz-adv-x="325" 
d="M170 0h-137q53 87 80 174.5t27 188.5t-27 188t-80 174h137q52 -78 84 -166.5t32 -195.5q0 -192 -116 -363z" />
    <glyph glyph-name="bracketleft.aalt" horiz-adv-x="366" 
d="M70 0v725h257v-100h-134v-524h134v-101h-257z" />
    <glyph glyph-name="bracketright.aalt" horiz-adv-x="356" 
d="M29 625v100h257v-725h-257v101h135v524h-135z" />
    <glyph glyph-name="braceleft.aalt" horiz-adv-x="382" 
d="M304 0q-72 0 -114.5 14.5t-63.5 52t-21 106.5v33q0 53 -15 78t-61 25v110q47 0 61.5 25t14.5 78v30q0 69 21 106.5t63.5 52t114.5 14.5h36v-110h-16q-49 0 -65 -15.5t-16 -55.5v-43q0 -64 -25 -94t-70 -42v-2q45 -12 70 -42.5t25 -94.5v-45q0 -40 16 -55.5t65 -15.5h16
v-110h-36z" />
    <glyph glyph-name="braceright.aalt" horiz-adv-x="382" 
d="M42 0v110h16q49 0 65 15.5t16 55.5v45q0 64 25 94.5t70 42.5v2q-45 12 -70 42t-25 94v43q0 40 -16 55.5t-65 15.5h-16v110h36q72 0 114.5 -14.5t63.5 -52t21 -106.5v-30q0 -53 14.5 -78t61.5 -25v-110q-46 0 -61 -25t-15 -78v-33q0 -69 -21 -106.5t-63.5 -52
t-114.5 -14.5h-36z" />
    <glyph glyph-name="bar.aalt" horiz-adv-x="255" 
d="M70 0v725h115v-725h-115z" />
    <glyph glyph-name="brokenbar.aalt" horiz-adv-x="255" 
d="M70 460v265h115v-265h-115zM70 0v265h115v-265h-115z" />
    <glyph glyph-name="periodcentered.aalt" horiz-adv-x="260" 
d="M204 439v-150h-148v150h148z" />
    <glyph glyph-name="bullet.aalt" horiz-adv-x="452" 
d="M222 525q47 0 85 -21.5t59.5 -57.5t21.5 -80q0 -46 -21.5 -84t-59.5 -59.5t-85 -21.5q-43 0 -79 21.5t-57.5 59.5t-21.5 84q0 43 21.5 79.5t58 58t78.5 21.5z" />
    <glyph glyph-name="plus.case" 
d="M402 304v-209h-125v209h-216v120h216v209h125v-209h215v-120h-215z" />
    <glyph glyph-name="minus.case" 
d="M61 304v120h556v-120h-556z" />
    <glyph glyph-name="divide.aalt" 
d="M413 488h-148v140h148v-140zM617 424v-120h-556v120h556zM413 100h-148v140h148v-140z" />
    <glyph glyph-name="multiply.aalt" 
d="M415 372l162 -162l-80 -81l-163 162l-159 -159l-73 72l159 161l-160 160l81 80l160 -160l160 160l72 -74z" />
    <glyph glyph-name="equal.case" 
d="M617 562v-120h-556v120h556zM617 286v-120h-556v120h556z" />
    <glyph glyph-name="plusminus.aalt" 
d="M61 505h216v128h125v-128h215v-120h-215v-128h-125v128h-216v120zM617 215v-120h-556v120h556z" />
    <glyph glyph-name="less.aalt" 
d="M75 305v114l516 220v-134l-364 -143l364 -143v-135z" />
    <glyph glyph-name="greater.aalt" 
d="M88 639l516 -220v-114l-516 -221v135l365 143l-365 143v134z" />
    <glyph glyph-name="lessequal.aalt" 
d="M605 510l-367 -78l367 -79v-123l-535 145v114l535 145v-124zM605 95h-535v121h535v-121z" />
    <glyph glyph-name="greaterequal.aalt" 
d="M74 353l367 79l-367 78v124l535 -145v-114l-535 -145v123zM609 216v-121h-535v121h535z" />
    <glyph glyph-name="notequal.aalt" 
d="M621 562v-120h-169l-87 -156h256v-119h-323l-77 -137l-109 55l46 82h-101v119h168l87 156h-255v120h323l77 138l109 -55l-47 -83h102z" />
    <glyph glyph-name="acute.aalt" horiz-adv-x="316" 
d="M125 886h169l-159 -113h-113z" />
    <glyph glyph-name="breve.aalt" horiz-adv-x="383" 
d="M361 886q-6 -60 -49 -88.5t-122 -28.5q-159 0 -168 117h97q3 -24 20 -35t52 -11t52.5 11t20.5 35h97z" />
    <glyph glyph-name="caron.aalt" horiz-adv-x="440" 
d="M278 773h-119l-137 113h131l66 -50l69 50h130z" />
    <glyph glyph-name="cedilla.aalt" horiz-adv-x="256" 
d="M39 -134q26 -14 62 -14q26 0 39 8.5t13 23.5q0 27 -40 27q-25 0 -38 -9l-30 17l51 83h56l-33 -52q19 4 37 4q36 -1 59.5 -19t23.5 -49q0 -39 -36 -62t-86 -23q-51 0 -95 18z" />
    <glyph glyph-name="circumflex.aalt" horiz-adv-x="440" 
d="M162 886h119l137 -113h-131l-66 49l-69 -49h-130z" />
    <glyph glyph-name="dieresis.aalt" horiz-adv-x="399" 
d="M22 773v113h115v-113h-115zM262 773v113h115v-113h-115z" />
    <glyph glyph-name="dotaccent.aalt" horiz-adv-x="187" 
d="M22 773v113h143v-113h-143z" />
    <glyph glyph-name="grave.aalt" horiz-adv-x="316" 
d="M294 773h-113l-159 113h169z" />
    <glyph glyph-name="hungarumlaut.aalt" horiz-adv-x="506" 
d="M125 886h169l-159 -113h-113zM315 886h169l-160 -113h-113z" />
    <glyph glyph-name="macron.aalt" horiz-adv-x="357" 
d="M335 875v-92h-313v92h313z" />
    <glyph glyph-name="ogonek.aalt" horiz-adv-x="256" 
d="M234 0q-50 -24 -71.5 -39t-21.5 -33q0 -34 45 -34q20 0 48 8v-82q-35 -8 -74 -8q-59 0 -98.5 23t-39.5 69q0 29 18.5 54t50.5 42h143z" />
    <glyph glyph-name="ring.aalt" horiz-adv-x="225" 
d="M217 856q0 -42 -30.5 -70.5t-74.5 -28.5q-45 0 -75 28t-30 71t30.5 71t74.5 28t74.5 -28t30.5 -71zM68 856q0 -18 13 -30.5t31 -12.5t31 12.5t13 30.5t-13 30.5t-31 12.5t-31 -12.5t-13 -30.5z" />
    <glyph glyph-name="tilde.aalt" horiz-adv-x="446" 
d="M331 893h93q-12 -72 -52.5 -99.5t-83.5 -27.5q-23 0 -40 6.5t-37 17.5q-16 9 -26 13t-21 4q-40 0 -48 -41h-94q12 73 52.5 100t84.5 27q23 0 38 -6t35 -17q14 -9 25 -13t24 -4q40 0 50 40z" />
    <glyph glyph-name="a.salt" horiz-adv-x="616" 
d="M554 538v-538h-138v68q-24 -42 -65 -61.5t-87 -19.5q-66 0 -119.5 35t-84 99t-30.5 148q0 83 30.5 147t83.5 99t120 35q50 0 90 -21.5t62 -59.5v69h138zM295 444q-56 0 -88 -48t-32 -128t32 -127.5t88 -47.5q58 0 92 47t34 129q0 81 -34.5 128t-91.5 47z" />
    <glyph glyph-name="aacute.aalt" horiz-adv-x="616" 
d="M554 538v-538h-138v68q-24 -42 -65 -61.5t-87 -19.5q-66 0 -119.5 35t-84 99t-30.5 148q0 83 30.5 147t83.5 99t120 35q50 0 90 -21.5t62 -59.5v69h138zM295 444q-56 0 -88 -48t-32 -128t32 -127.5t88 -47.5q58 0 92 47t34 129q0 81 -34.5 128t-91.5 47zM356 755h157
l-150 -116h-102z" />
    <glyph glyph-name="abreve.aalt" horiz-adv-x="616" 
d="M554 538v-538h-138v68q-24 -42 -65 -61.5t-87 -19.5q-66 0 -119.5 35t-84 99t-30.5 148q0 83 30.5 147t83.5 99t120 35q50 0 90 -21.5t62 -59.5v69h138zM295 444q-56 0 -88 -48t-32 -128t32 -127.5t88 -47.5q58 0 92 47t34 129q0 81 -34.5 128t-91.5 47zM491 755
q-6 -57 -48 -90.5t-123 -33.5q-80 0 -121.5 34t-46.5 90h97q7 -52 72 -52q67 0 73 52h97z" />
    <glyph glyph-name="acircumflex.aalt" horiz-adv-x="616" 
d="M554 538v-538h-138v68q-24 -42 -65 -61.5t-87 -19.5q-66 0 -119.5 35t-84 99t-30.5 148q0 83 30.5 147t83.5 99t120 35q50 0 90 -21.5t62 -59.5v69h138zM295 444q-56 0 -88 -48t-32 -128t32 -127.5t88 -47.5q58 0 92 47t34 129q0 81 -34.5 128t-91.5 47zM272 755h99
l148 -116h-121l-76 44l-76 -44h-121z" />
    <glyph glyph-name="adieresis.aalt" horiz-adv-x="616" 
d="M554 538v-538h-138v68q-24 -42 -65 -61.5t-87 -19.5q-66 0 -119.5 35t-84 99t-30.5 148q0 83 30.5 147t83.5 99t120 35q50 0 90 -21.5t62 -59.5v69h138zM295 444q-56 0 -88 -48t-32 -128t32 -127.5t88 -47.5q58 0 92 47t34 129q0 81 -34.5 128t-91.5 47zM263 639h-115
v116h115v-116zM382 639v116h115v-116h-115z" />
    <glyph glyph-name="agrave.aalt" horiz-adv-x="616" 
d="M554 538v-538h-138v68q-24 -42 -65 -61.5t-87 -19.5q-66 0 -119.5 35t-84 99t-30.5 148q0 83 30.5 147t83.5 99t120 35q50 0 90 -21.5t62 -59.5v69h138zM295 444q-56 0 -88 -48t-32 -128t32 -127.5t88 -47.5q58 0 92 47t34 129q0 81 -34.5 128t-91.5 47zM373 639h-102
l-150 116h157z" />
    <glyph glyph-name="amacron.aalt" horiz-adv-x="616" 
d="M554 538v-538h-138v68q-24 -42 -65 -61.5t-87 -19.5q-66 0 -119.5 35t-84 99t-30.5 148q0 83 30.5 147t83.5 99t120 35q50 0 90 -21.5t62 -59.5v69h138zM295 444q-56 0 -88 -48t-32 -128t32 -127.5t88 -47.5q58 0 92 47t34 129q0 81 -34.5 128t-91.5 47zM478 746v-88
h-313v88h313z" />
    <glyph glyph-name="aogonek.aalt" horiz-adv-x="616" 
d="M416 68q-24 -42 -65 -61.5t-87 -19.5q-66 0 -119.5 35t-84 99t-30.5 148q0 83 30.5 147t83.5 99t120 35q50 0 90 -21.5t62 -59.5v69h138v-538q-48 -23 -68 -38t-20 -35q0 -16 13 -24.5t32 -8.5q22 0 43 6v-82q-18 -4 -34 -5t-35 -1q-60 0 -99 22.5t-39 68.5
q0 29 18.5 54.5t50.5 42.5v68zM295 444q-56 0 -88 -48t-32 -128t32 -127.5t88 -47.5q58 0 92 47t34 129q0 81 -34.5 128t-91.5 47z" />
    <glyph glyph-name="aring.aalt" horiz-adv-x="616" 
d="M554 538v-538h-138v68q-24 -42 -65 -61.5t-87 -19.5q-66 0 -119.5 35t-84 99t-30.5 148q0 83 30.5 147t83.5 99t120 35q50 0 90 -21.5t62 -59.5v69h138zM295 444q-56 0 -88 -48t-32 -128t32 -127.5t88 -47.5q58 0 92 47t34 129q0 81 -34.5 128t-91.5 47zM426 711
q0 -42 -30.5 -70.5t-74.5 -28.5q-45 0 -75 28t-30 71t30.5 71t74.5 28t74.5 -28t30.5 -71zM278 711q0 -18 12.5 -30.5t30.5 -12.5t31 12.5t13 30.5t-13 30.5t-31 12.5t-30.5 -12t-12.5 -31z" />
    <glyph glyph-name="atilde.aalt" horiz-adv-x="616" 
d="M554 538v-538h-138v68q-24 -42 -65 -61.5t-87 -19.5q-66 0 -119.5 35t-84 99t-30.5 148q0 83 30.5 147t83.5 99t120 35q50 0 90 -21.5t62 -59.5v69h138zM295 444q-56 0 -88 -48t-32 -128t32 -127.5t88 -47.5q58 0 92 47t34 129q0 81 -34.5 128t-91.5 47zM439 759h88
q-10 -60 -44 -90.5t-84 -30.5q-24 0 -42 6.5t-43 19.5q-18 10 -29 14.5t-24 4.5q-41 0 -49 -44h-87q10 58 43 89.5t85 31.5q24 0 41.5 -6.5t39.5 -19.5q18 -10 29.5 -14.5t25.5 -4.5q42 0 50 44z" />
    <glyph glyph-name="l.ss02" horiz-adv-x="294" 
d="M58 755h138v-583q0 -40 12.5 -52.5t49.5 -12.5h21v-107h-80q-61 0 -91 13.5t-40 43.5t-10 88v610z" />
    <glyph glyph-name="lacute.aalt" horiz-adv-x="294" 
d="M58 755h138v-583q0 -40 12.5 -52.5t49.5 -12.5h21v-107h-80q-61 0 -91 13.5t-40 43.5t-10 88v610zM174 906h169l-159 -113h-113z" />
    <glyph glyph-name="lcaron.aalt" horiz-adv-x="294" 
d="M258 755h130l-70 -170h-90zM58 755h138v-583q0 -40 12.5 -52.5t49.5 -12.5h21v-107h-80q-61 0 -91 13.5t-40 43.5t-10 88v610z" />
    <glyph glyph-name="uni013C.aalt" horiz-adv-x="294" 
d="M58 755h138v-583q0 -40 12.5 -52.5t49.5 -12.5h21v-107h-80q-61 0 -91 13.5t-40 43.5t-10 88v610zM153 -136h-36v100h106v-106l-44 -89h-65z" />
    <glyph glyph-name="ldot.aalt" horiz-adv-x="377" 
d="M258 342v116h115v-116h-115zM58 755h138v-583q0 -40 12.5 -52.5t49.5 -12.5h21v-107h-80q-61 0 -91 13.5t-40 43.5t-10 88v610z" />
    <glyph glyph-name="lslash.aalt" horiz-adv-x="355" 
d="M27 270v112l73 42v331h138v-262l79 46v-112l-79 -46v-209q0 -40 12.5 -52.5t49.5 -12.5h21v-107h-80q-61 0 -91 13.5t-40 43.5t-10 88v167z" />
    <glyph glyph-name="uniFB02.aalt" horiz-adv-x="644" 
d="M95 589q0 87 47 129t141 42q42 0 89 -8v-106q-31 8 -60 8q-79 0 -79 -75v-41h128v-95h-128v-443h-138v443h-76v95h76v51zM408 755h138v-583q0 -40 12.5 -52.5t49.5 -12.5h21v-107h-80q-61 0 -91 13.5t-40 43.5t-10 88v610z" />
    <glyph glyph-name="germandbls.aalt" horiz-adv-x="648" 
d="M200 -195h-138v687q0 77 15.5 123.5t45.5 76.5q70 70 208 70q108 0 176 -48.5t68 -142.5q0 -54 -24 -93t-54 -54q52 -19 87 -71t35 -128q0 -73 -33 -126.5t-92.5 -82.5t-137.5 -29q-64 0 -119 13l21 111q20 -7 45.5 -11t47.5 -4q57 0 92.5 36t35.5 92q0 69 -46.5 100.5
t-128.5 31.5h-19v111h14q70 0 105 23t35 73q0 41 -29 66t-82 25q-69 0 -100 -41q-14 -18 -21 -46t-7 -76v-686z" />
    <glyph glyph-name="uni0430.aalt" horiz-adv-x="617" 
d="M555 538v-538h-138v68q-24 -42 -65 -61.5t-87 -19.5q-66 0 -119.5 35t-84 99t-30.5 148q0 83 30.5 147t83.5 99t120 35q50 0 90 -21.5t62 -59.5v69h138zM296 444q-56 0 -88 -48t-32 -128t32 -127.5t88 -47.5q58 0 92 47t34 129q0 81 -34.5 128t-91.5 47z" />
    <glyph glyph-name="uni2318" unicode="&#x2318;" horiz-adv-x="763" 
d="M382 746l127 -94l254 109l-189 -158l38 -29l-17 -86l51 -271l-38 -60h-69l40 60l-111 296l-35 -29h-22l-65 97l73 -55l-27 74l38 16zM579 33q-80 -46 -175 -46t-176.5 47.5t-129 129t-47.5 176.5q0 87 39.5 163t108.5 125.5t154 61.5q-56 -17 -92 -64t-36 -108
q0 -62 39 -111t98 -63l117 -127h-71z" />
    <glyph glyph-name="circle" unicode="&#x25cb;" horiz-adv-x="654" 
d="M610 269q0 -77 -37 -141.5t-101.5 -102.5t-144.5 -38t-144.5 38t-101.5 102.5t-37 141.5q0 76 37 140.5t101.5 102.5t144.5 38t144.5 -38t101.5 -102.5t37 -140.5zM163 269q0 -46 20.5 -84t58 -60t85.5 -22q47 0 84.5 22t58.5 60t21 84t-21 83.5t-58.5 59.5t-84.5 22
q-48 0 -85.5 -22t-58 -59.5t-20.5 -83.5z" />
    <glyph glyph-name="uni02BB" unicode="&#x2bb;" horiz-adv-x="244" 
d="M129 563h68v-148h-155v159l83 151h78z" />
    <glyph glyph-name="uni02BC" unicode="&#x2bc;" horiz-adv-x="237" 
d="M118 577h-68v148h155v-159l-83 -151h-78z" />
    <glyph glyph-name="glyph795" horiz-adv-x="451" 
d="M396 424v-124h-341v124h341z" />
    <glyph glyph-name="uni2007" unicode="&#x2007;" horiz-adv-x="665" 
 />
    <glyph glyph-name="uni2008" unicode="&#x2008;" horiz-adv-x="242" 
 />
    <glyph glyph-name="uni2009" unicode="&#x2009;" horiz-adv-x="40" 
 />
    <glyph glyph-name="uni200B" unicode="&#x200b;" horiz-adv-x="0" 
 />
    <glyph glyph-name="uni2060" unicode="&#x2060;" horiz-adv-x="0" 
 />
    <glyph glyph-name="uniFEFF" unicode="&#xfeff;" horiz-adv-x="0" 
 />
    </font>
</defs>
</svg>
